G04 #@! TF.FileFunction,Soldermask,Top*
%FSLAX46Y46*%
G04 Gerber Fmt 4.6, Leading zero omitted, Abs format (unit mm)*
G04 Created by KiCad (PCBNEW no-vcs-found-undefined) date Fri Oct 21 11:36:43 2016*
%MOMM*%
%LPD*%
G01*
G04 APERTURE LIST*
%ADD10C,0.100000*%
%ADD11C,2.000000*%
%ADD12R,2.540000X2.540000*%
%ADD13C,2.540000*%
%ADD14R,0.600000X0.400000*%
%ADD15R,1.501140X2.148840*%
%ADD16R,0.750000X1.200000*%
%ADD17R,1.200000X0.750000*%
%ADD18R,1.270000X0.760000*%
%ADD19R,0.450000X1.450000*%
%ADD20R,3.000000X1.200000*%
%ADD21R,1.000000X3.000000*%
%ADD22C,1.998980*%
%ADD23R,1.727200X1.727200*%
%ADD24O,1.727200X1.727200*%
%ADD25R,2.148840X1.501140*%
%ADD26R,1.350000X1.350000*%
%ADD27C,1.350000*%
%ADD28R,1.727200X2.032000*%
%ADD29O,1.727200X2.032000*%
G04 APERTURE END LIST*
D10*
D11*
X145161000Y-87947500D03*
D12*
X103404000Y-87884000D03*
D13*
X141224000Y-87884000D03*
D14*
X104838500Y-91255000D03*
X104838500Y-90355000D03*
D15*
X136969500Y-92796360D03*
X136969500Y-95798640D03*
D16*
X144145000Y-96327000D03*
X144145000Y-94427000D03*
X134302500Y-94366000D03*
X134302500Y-96266000D03*
D17*
X102613500Y-90932000D03*
X100713500Y-90932000D03*
D14*
X134302500Y-92779000D03*
X134302500Y-91879000D03*
X144272000Y-92334500D03*
X144272000Y-91434500D03*
D18*
X138112500Y-79756000D03*
X131762500Y-79756000D03*
X138112500Y-81026000D03*
X131762500Y-81026000D03*
X138112500Y-82296000D03*
X131762500Y-82296000D03*
X138112500Y-83566000D03*
X131762500Y-83566000D03*
X138112500Y-84836000D03*
X131762500Y-84836000D03*
X138112500Y-86106000D03*
X131762500Y-86106000D03*
X138112500Y-87376000D03*
X131762500Y-87376000D03*
X138112500Y-88646000D03*
X131762500Y-88646000D03*
D19*
X139741000Y-96307000D03*
X140391000Y-96307000D03*
X141041000Y-96307000D03*
X141691000Y-96307000D03*
X141691000Y-91907000D03*
X141041000Y-91907000D03*
X140391000Y-91907000D03*
X139741000Y-91907000D03*
D20*
X108582000Y-79756000D03*
X108582000Y-81756000D03*
X108582000Y-83756000D03*
X108582000Y-85756000D03*
X108582000Y-87756000D03*
X108582000Y-89756000D03*
X108582000Y-91756000D03*
X108582000Y-93756000D03*
X128282000Y-93756000D03*
X128282000Y-91756000D03*
X128282000Y-89756000D03*
X128282000Y-87756000D03*
X128282000Y-85756000D03*
X128282000Y-83756000D03*
X128282000Y-81756000D03*
X128282000Y-79756000D03*
D21*
X142392500Y-83693000D03*
X143992500Y-83693000D03*
D22*
X131508500Y-91821000D03*
D23*
X104013000Y-84328000D03*
D24*
X101473000Y-84328000D03*
X104013000Y-81788000D03*
X101473000Y-81788000D03*
X104013000Y-79248000D03*
X101473000Y-79248000D03*
D25*
X144693640Y-79756000D03*
X141691360Y-79756000D03*
X101010720Y-93345000D03*
X104013000Y-93345000D03*
D26*
X106331000Y-96837500D03*
D27*
X108331000Y-96837500D03*
X110331000Y-96837500D03*
D26*
X116871500Y-96837500D03*
D27*
X114871500Y-96837500D03*
X112871500Y-96837500D03*
D28*
X121031000Y-96901000D03*
D29*
X123571000Y-96901000D03*
X126111000Y-96901000D03*
X128651000Y-96901000D03*
D11*
X99822000Y-88011000D03*
M02*
