M48
;DRILL file {KiCad no-vcs-found-3ac87f6~59~ubuntu16.04.1} date Thu Aug 31 14:12:14 2017
;FORMAT={-:-/ absolute / metric / decimal}
FMAT,2
METRIC,TZ
T1C0.400
T2C0.800
%
G90
G05
M71
T1
X125.194Y-102.173
X127.Y-105.25
X128.9Y-102.2
X129.Y-110.5
X131.Y-79.25
X132.984Y-102.271
X133.198Y-104.506
X133.65Y-81.25
X133.974Y-78.799
X134.Y-103.5
X134.166Y-80.086
X134.4Y-99.1
X136.6Y-104.4
X136.75Y-82.25
X137.Y-72.75
X138.244Y-79.256
X138.25Y-75.
X138.5Y-83.
X138.671Y-103.086
X139.45Y-94.299
X139.5Y-91.9
X139.8Y-89.55
X140.5Y-90.5
X140.711Y-98.476
X141.25Y-94.091
X141.75Y-91.5
X142.Y-79.
X142.25Y-93.75
X143.Y-86.25
X143.Y-91.5
X143.522Y-95.009
X143.802Y-90.526
X144.25Y-86.25
X144.621Y-95.174
X144.665Y-93.635
X144.8Y-99.5
X145.093Y-91.657
X146.25Y-110.75
X146.45Y-96.604
X146.65Y-112.05
X146.8Y-106.
X148.Y-97.7
X150.Y-108.67
X150.892Y-101.652
X151.5Y-104.1
X153.2Y-105.6
X153.7Y-100.3
X156.1Y-102.1
X159.592Y-102.115
T2
X131.65Y-107.55
X131.65Y-109.55
X133.65Y-107.55
X133.65Y-109.55
X135.65Y-107.55
X135.65Y-109.55
X137.65Y-107.55
X137.65Y-109.55
X139.65Y-107.55
X139.65Y-109.55
X141.65Y-107.55
X141.65Y-109.55
X143.65Y-107.55
X143.65Y-109.55
T0
M30
