G04 #@! TF.FileFunction,Paste,Top*
%FSLAX46Y46*%
G04 Gerber Fmt 4.6, Leading zero omitted, Abs format (unit mm)*
G04 Created by KiCad (PCBNEW 4.0.4+e1-6308~48~ubuntu16.04.1-stable) date Thu Sep 15 14:49:55 2016*
%MOMM*%
%LPD*%
G01*
G04 APERTURE LIST*
%ADD10C,0.100000*%
%ADD11R,0.600000X0.400000*%
%ADD12R,1.501140X2.148840*%
%ADD13R,0.750000X1.200000*%
%ADD14R,1.200000X0.750000*%
%ADD15R,1.270000X0.760000*%
%ADD16R,0.450000X1.450000*%
%ADD17R,3.000000X1.200000*%
%ADD18R,1.000000X3.000000*%
%ADD19R,2.148840X1.501140*%
G04 APERTURE END LIST*
D10*
D11*
X104838500Y-91255000D03*
X104838500Y-90355000D03*
D12*
X136969500Y-92796360D03*
X136969500Y-95798640D03*
D13*
X144145000Y-96327000D03*
X144145000Y-94427000D03*
X134302500Y-94366000D03*
X134302500Y-96266000D03*
D14*
X102613500Y-90932000D03*
X100713500Y-90932000D03*
D11*
X134302500Y-92779000D03*
X134302500Y-91879000D03*
X144272000Y-92334500D03*
X144272000Y-91434500D03*
D15*
X138112500Y-79756000D03*
X131762500Y-79756000D03*
X138112500Y-81026000D03*
X131762500Y-81026000D03*
X138112500Y-82296000D03*
X131762500Y-82296000D03*
X138112500Y-83566000D03*
X131762500Y-83566000D03*
X138112500Y-84836000D03*
X131762500Y-84836000D03*
X138112500Y-86106000D03*
X131762500Y-86106000D03*
X138112500Y-87376000D03*
X131762500Y-87376000D03*
X138112500Y-88646000D03*
X131762500Y-88646000D03*
D16*
X139741000Y-96307000D03*
X140391000Y-96307000D03*
X141041000Y-96307000D03*
X141691000Y-96307000D03*
X141691000Y-91907000D03*
X141041000Y-91907000D03*
X140391000Y-91907000D03*
X139741000Y-91907000D03*
D17*
X108582000Y-79756000D03*
X108582000Y-81756000D03*
X108582000Y-83756000D03*
X108582000Y-85756000D03*
X108582000Y-87756000D03*
X108582000Y-89756000D03*
X108582000Y-91756000D03*
X108582000Y-93756000D03*
X128282000Y-93756000D03*
X128282000Y-91756000D03*
X128282000Y-89756000D03*
X128282000Y-87756000D03*
X128282000Y-85756000D03*
X128282000Y-83756000D03*
X128282000Y-81756000D03*
X128282000Y-79756000D03*
D18*
X142392500Y-83693000D03*
X143992500Y-83693000D03*
D19*
X144693640Y-79756000D03*
X141691360Y-79756000D03*
X101010720Y-93345000D03*
X104013000Y-93345000D03*
M02*
