G04 #@! TF.FileFunction,Copper,L2,Bot,Signal*
%FSLAX46Y46*%
G04 Gerber Fmt 4.6, Leading zero omitted, Abs format (unit mm)*
G04 Created by KiCad (PCBNEW no-vcs-found-undefined) date Fri Oct 21 11:36:43 2016*
%MOMM*%
%LPD*%
G01*
G04 APERTURE LIST*
%ADD10C,0.100000*%
%ADD11R,3.000000X0.800000*%
%ADD12C,0.800000*%
%ADD13C,2.000000*%
%ADD14R,2.540000X2.540000*%
%ADD15C,2.540000*%
%ADD16R,0.750000X1.200000*%
%ADD17R,1.200000X0.750000*%
%ADD18R,0.550000X1.600000*%
%ADD19R,1.600000X0.550000*%
%ADD20R,1.200000X0.900000*%
%ADD21R,0.900000X1.200000*%
%ADD22C,1.998980*%
%ADD23R,1.727200X1.727200*%
%ADD24O,1.727200X1.727200*%
%ADD25R,2.148840X1.501140*%
%ADD26R,1.060000X0.650000*%
%ADD27R,1.350000X1.350000*%
%ADD28C,1.350000*%
%ADD29R,1.727200X2.032000*%
%ADD30O,1.727200X2.032000*%
%ADD31C,0.450000*%
%ADD32C,0.254000*%
G04 APERTURE END LIST*
D10*
D11*
X123761500Y-79462500D03*
X123761500Y-80962500D03*
X123761500Y-82462500D03*
D12*
X135534400Y-84260700D03*
X135534400Y-83260700D03*
X135534400Y-82260700D03*
X135534400Y-81260700D03*
X135534400Y-80260700D03*
X135534400Y-79260700D03*
X118246400Y-88604600D03*
X117246400Y-88604600D03*
X118246400Y-87604600D03*
X117246400Y-87604600D03*
X100847400Y-98409000D03*
X99847400Y-98409000D03*
X100847400Y-97409000D03*
X99847400Y-97409000D03*
X132114800Y-97799400D03*
X131114800Y-97799400D03*
X132114800Y-96799400D03*
X131114800Y-96799400D03*
X136521700Y-89220300D03*
X135521700Y-89220300D03*
X136521700Y-88220300D03*
X135521700Y-88220300D03*
X136521700Y-87220300D03*
X135521700Y-87220300D03*
X136521700Y-86220300D03*
D13*
X145161000Y-87947500D03*
D14*
X103404000Y-87884000D03*
D15*
X141224000Y-87884000D03*
D16*
X118300500Y-80896500D03*
X118300500Y-78996500D03*
D17*
X121473000Y-93980000D03*
X119573000Y-93980000D03*
D16*
X116078000Y-78933000D03*
X116078000Y-80833000D03*
D17*
X116014500Y-93980000D03*
X117914500Y-93980000D03*
X108333500Y-87439500D03*
X110233500Y-87439500D03*
D18*
X114548000Y-83126000D03*
X115348000Y-83126000D03*
X116148000Y-83126000D03*
X116948000Y-83126000D03*
X117748000Y-83126000D03*
X118548000Y-83126000D03*
X119348000Y-83126000D03*
X120148000Y-83126000D03*
D19*
X121598000Y-84576000D03*
X121598000Y-85376000D03*
X121598000Y-86176000D03*
X121598000Y-86976000D03*
X121598000Y-87776000D03*
X121598000Y-88576000D03*
X121598000Y-89376000D03*
X121598000Y-90176000D03*
D18*
X120148000Y-91626000D03*
X119348000Y-91626000D03*
X118548000Y-91626000D03*
X117748000Y-91626000D03*
X116948000Y-91626000D03*
X116148000Y-91626000D03*
X115348000Y-91626000D03*
X114548000Y-91626000D03*
D19*
X113098000Y-90176000D03*
X113098000Y-89376000D03*
X113098000Y-88576000D03*
X113098000Y-87776000D03*
X113098000Y-86976000D03*
X113098000Y-86176000D03*
X113098000Y-85376000D03*
X113098000Y-84576000D03*
D17*
X125219500Y-94234000D03*
X123319500Y-94234000D03*
D20*
X108056500Y-85788500D03*
X110256500Y-85788500D03*
D21*
X125412500Y-90446500D03*
X125412500Y-92646500D03*
X112395000Y-92181500D03*
X112395000Y-94381500D03*
X110236000Y-89578000D03*
X110236000Y-91778000D03*
D22*
X131508500Y-91821000D03*
D23*
X104013000Y-84328000D03*
D24*
X101473000Y-84328000D03*
X104013000Y-81788000D03*
X101473000Y-81788000D03*
X104013000Y-79248000D03*
X101473000Y-79248000D03*
D25*
X140312140Y-96139000D03*
X137309860Y-96139000D03*
D16*
X140335000Y-91696500D03*
X140335000Y-93596500D03*
D26*
X136398000Y-93467000D03*
X136398000Y-92517000D03*
X136398000Y-91567000D03*
X138598000Y-91567000D03*
X138598000Y-93467000D03*
D27*
X106331000Y-96837500D03*
D28*
X108331000Y-96837500D03*
X110331000Y-96837500D03*
D20*
X108247000Y-94297500D03*
X110447000Y-94297500D03*
D27*
X116871500Y-96837500D03*
D28*
X114871500Y-96837500D03*
X112871500Y-96837500D03*
D29*
X121031000Y-96901000D03*
D30*
X123571000Y-96901000D03*
X126111000Y-96901000D03*
X128651000Y-96901000D03*
D13*
X99822000Y-88011000D03*
D12*
X135521700Y-86220300D03*
X143366011Y-93009419D03*
X118262400Y-89763600D03*
X123634500Y-92900500D03*
X106235500Y-87122000D03*
X126081996Y-81221317D03*
X134302498Y-88836500D03*
X119951500Y-80010000D03*
X138239500Y-90106500D03*
X105631961Y-84772500D03*
X123267437Y-90888995D03*
X111569500Y-84264500D03*
X117909709Y-85714390D03*
X122237500Y-91821000D03*
X111569500Y-82994500D03*
X123877437Y-89828216D03*
X111442500Y-80518000D03*
X114236498Y-79121000D03*
X133848800Y-79285645D03*
X133361693Y-82605009D03*
X133349876Y-83704958D03*
X133338616Y-85045776D03*
X133350426Y-86145724D03*
X133350000Y-87376000D03*
X123825734Y-88701010D03*
X111511043Y-81615874D03*
X115106419Y-89427081D03*
X114935000Y-87947500D03*
X133096000Y-93535496D03*
X111569500Y-89471500D03*
X111592205Y-85364278D03*
D31*
X140260664Y-98874521D02*
X143366011Y-95769174D01*
X104052319Y-98874521D02*
X140260664Y-98874521D01*
X101888999Y-91119001D02*
X101888999Y-96711201D01*
X143366011Y-95769174D02*
X143366011Y-93009419D01*
X103404000Y-89604000D02*
X101888999Y-91119001D01*
X101888999Y-96711201D02*
X104052319Y-98874521D01*
X112395000Y-94381500D02*
X112395000Y-94231500D01*
X112395000Y-94231500D02*
X111066501Y-92903001D01*
X111066501Y-92903001D02*
X106703001Y-92903001D01*
X106703001Y-92903001D02*
X103404000Y-89604000D01*
X103404000Y-89604000D02*
X103404000Y-87884000D01*
X125681501Y-78537499D02*
X125786501Y-78642499D01*
X119584501Y-78537499D02*
X125681501Y-78537499D01*
X124962306Y-80962500D02*
X123761500Y-80962500D01*
X125786501Y-80138305D02*
X124962306Y-80962500D01*
X118300500Y-78996500D02*
X119125500Y-78996500D01*
X125786501Y-78642499D02*
X125786501Y-80138305D01*
X119125500Y-78996500D02*
X119584501Y-78537499D01*
X136398000Y-92517000D02*
X135418000Y-92517000D01*
X135418000Y-92517000D02*
X135121701Y-92220701D01*
X135121701Y-92220701D02*
X135121701Y-89620299D01*
X135121701Y-89620299D02*
X135521700Y-89220300D01*
X117176600Y-89763600D02*
X118262400Y-89763600D01*
X116948000Y-89535000D02*
X117176600Y-89763600D01*
X121473000Y-93980000D02*
X121473000Y-93093500D01*
X121473000Y-93093500D02*
X121666000Y-92900500D01*
X121666000Y-92900500D02*
X123634500Y-92900500D01*
X108333500Y-87439500D02*
X108333500Y-88585000D01*
X108333500Y-88585000D02*
X109326500Y-89578000D01*
X109326500Y-89578000D02*
X110236000Y-89578000D01*
X140335000Y-93596500D02*
X141160000Y-93596500D01*
X141160000Y-93596500D02*
X142493999Y-92262501D01*
X142493999Y-89153999D02*
X141224000Y-87884000D01*
X142493999Y-92262501D02*
X142493999Y-89153999D01*
X140335000Y-93596500D02*
X140335000Y-96116140D01*
X140335000Y-96116140D02*
X140312140Y-96139000D01*
X116078000Y-78933000D02*
X118237000Y-78933000D01*
X118237000Y-78933000D02*
X118300500Y-78996500D01*
X108333500Y-87439500D02*
X106553000Y-87439500D01*
X106553000Y-87439500D02*
X106235500Y-87122000D01*
X116948000Y-85176000D02*
X116948000Y-89535000D01*
X116948000Y-89535000D02*
X116948000Y-91626000D01*
X140312140Y-96139000D02*
X139988290Y-96139000D01*
X140464500Y-93726000D02*
X140335000Y-93596500D01*
X116948000Y-91626000D02*
X116948000Y-93046500D01*
X116948000Y-93046500D02*
X116014500Y-93980000D01*
X117748000Y-83126000D02*
X117748000Y-84376000D01*
X117748000Y-84376000D02*
X116948000Y-85176000D01*
X116148000Y-83126000D02*
X116148000Y-84376000D01*
X116148000Y-84376000D02*
X116948000Y-85176000D01*
X133612963Y-81221317D02*
X126081996Y-81221317D01*
X134302498Y-81910852D02*
X133612963Y-81221317D01*
X134302498Y-88836500D02*
X134302498Y-81910852D01*
X130122500Y-88836500D02*
X134302498Y-88836500D01*
X126312500Y-92646500D02*
X130122500Y-88836500D01*
X125412500Y-92646500D02*
X126312500Y-92646500D01*
X125144499Y-95134001D02*
X125219500Y-95059000D01*
X125219500Y-95059000D02*
X125219500Y-94234000D01*
X121031000Y-96901000D02*
X121454809Y-96901000D01*
X123221808Y-95134001D02*
X125144499Y-95134001D01*
X121454809Y-96901000D02*
X123221808Y-95134001D01*
X121031000Y-96901000D02*
X119717400Y-96901000D01*
X119717400Y-96901000D02*
X118580899Y-98037501D01*
X118580899Y-98037501D02*
X106406001Y-98037501D01*
X106406001Y-98037501D02*
X106331000Y-97962500D01*
X106331000Y-97962500D02*
X106331000Y-96837500D01*
X101473000Y-84328000D02*
X102997000Y-85852000D01*
X102997000Y-85852000D02*
X107993000Y-85852000D01*
X107993000Y-85852000D02*
X108056500Y-85788500D01*
X118300500Y-80896500D02*
X119065000Y-80896500D01*
X119065000Y-80896500D02*
X119951500Y-80010000D01*
X106331000Y-96837500D02*
X106331000Y-96213500D01*
X106331000Y-96213500D02*
X108247000Y-94297500D01*
X125412500Y-92646500D02*
X125412500Y-94041000D01*
X125412500Y-94041000D02*
X125219500Y-94234000D01*
X118300500Y-80896500D02*
X116141500Y-80896500D01*
X116141500Y-80896500D02*
X116078000Y-80833000D01*
X116948000Y-83126000D02*
X116948000Y-81703000D01*
X116948000Y-81703000D02*
X116078000Y-80833000D01*
X118548000Y-83126000D02*
X118548000Y-81144000D01*
X118548000Y-81144000D02*
X118300500Y-80896500D01*
X119827000Y-95059000D02*
X119573000Y-94805000D01*
X119573000Y-94805000D02*
X119573000Y-93980000D01*
X122236135Y-95059000D02*
X119827000Y-95059000D01*
X123061135Y-94234000D02*
X122236135Y-95059000D01*
X123319500Y-94234000D02*
X123061135Y-94234000D01*
X119348000Y-91626000D02*
X119348000Y-93755000D01*
X119348000Y-93755000D02*
X119573000Y-93980000D01*
X117748000Y-91626000D02*
X117748000Y-93813500D01*
X117748000Y-93813500D02*
X117914500Y-93980000D01*
X137477500Y-91666500D02*
X137477500Y-90887498D01*
X137477500Y-90887498D02*
X138239500Y-90125498D01*
X138239500Y-90125498D02*
X138239500Y-90106500D01*
X137477500Y-91666500D02*
X137477500Y-93367500D01*
X137477500Y-93367500D02*
X137378000Y-93467000D01*
X137378000Y-93467000D02*
X136398000Y-93467000D01*
X136398000Y-91567000D02*
X137378000Y-91567000D01*
X137378000Y-91567000D02*
X137477500Y-91666500D01*
X110106500Y-85788500D02*
X109090500Y-84772500D01*
X109090500Y-84772500D02*
X105631961Y-84772500D01*
X110256500Y-85788500D02*
X110106500Y-85788500D01*
X113098000Y-86976000D02*
X110256500Y-86976000D01*
X110256500Y-86976000D02*
X110256500Y-85788500D01*
X110233500Y-87439500D02*
X110233500Y-85811500D01*
X110233500Y-85811500D02*
X110256500Y-85788500D01*
X111003815Y-84264500D02*
X111569500Y-84264500D01*
X104811001Y-83529999D02*
X110269314Y-83529999D01*
X110269314Y-83529999D02*
X111003815Y-84264500D01*
X104013000Y-84328000D02*
X104811001Y-83529999D01*
X121598000Y-90176000D02*
X122123000Y-90176000D01*
X123255432Y-90901000D02*
X123267437Y-90888995D01*
X122848000Y-90901000D02*
X123255432Y-90901000D01*
X122123000Y-90176000D02*
X122848000Y-90901000D01*
X120148000Y-87952681D02*
X117909709Y-85714390D01*
X120148000Y-91626000D02*
X120148000Y-87952681D01*
X104013000Y-81788000D02*
X110363000Y-81788000D01*
X110363000Y-81788000D02*
X111569500Y-82994500D01*
X122042500Y-91626000D02*
X122237500Y-91821000D01*
X120148000Y-91626000D02*
X122042500Y-91626000D01*
X101473000Y-81788000D02*
X100084399Y-80399399D01*
X100084399Y-80399399D02*
X100084399Y-78581471D01*
X100084399Y-78581471D02*
X100814870Y-77851000D01*
X100814870Y-77851000D02*
X108775500Y-77851000D01*
X108775500Y-77851000D02*
X111442500Y-80518000D01*
X123610216Y-89828216D02*
X123877437Y-89828216D01*
X123158000Y-89376000D02*
X123610216Y-89828216D01*
X121598000Y-89376000D02*
X123158000Y-89376000D01*
X113823000Y-79534498D02*
X114236498Y-79121000D01*
X114548000Y-82601000D02*
X113823000Y-81876000D01*
X114548000Y-83126000D02*
X114548000Y-82601000D01*
X113823000Y-81876000D02*
X113823000Y-79534498D01*
X115303510Y-77787488D02*
X132350643Y-77787488D01*
X115348000Y-83126000D02*
X115348000Y-81876000D01*
X132350643Y-77787488D02*
X133848800Y-79285645D01*
X115348000Y-81876000D02*
X115177999Y-81705999D01*
X115177999Y-81705999D02*
X115177999Y-77912999D01*
X115177999Y-77912999D02*
X115303510Y-77787488D01*
X123761500Y-79462500D02*
X121811500Y-79462500D01*
X121811500Y-79462500D02*
X119348000Y-81926000D01*
X119348000Y-81926000D02*
X119348000Y-83126000D01*
X123761500Y-82462500D02*
X120286500Y-82462500D01*
X120286500Y-82462500D02*
X120148000Y-82601000D01*
X120148000Y-82601000D02*
X120148000Y-83126000D01*
X121598000Y-84576000D02*
X130462998Y-84576000D01*
X130462998Y-84576000D02*
X132433989Y-82605009D01*
X132433989Y-82605009D02*
X133361693Y-82605009D01*
X121598000Y-85376000D02*
X130974315Y-85376000D01*
X130974315Y-85376000D02*
X132645357Y-83704958D01*
X132645357Y-83704958D02*
X133349876Y-83704958D01*
X132365214Y-85045776D02*
X133338616Y-85045776D01*
X122492971Y-86181523D02*
X131229467Y-86181523D01*
X121598000Y-86176000D02*
X122487448Y-86176000D01*
X122487448Y-86176000D02*
X122492971Y-86181523D01*
X131229467Y-86181523D02*
X132365214Y-85045776D01*
X121598000Y-86976000D02*
X131495664Y-86976000D01*
X131495664Y-86976000D02*
X132325940Y-86145724D01*
X132325940Y-86145724D02*
X133350426Y-86145724D01*
X121598000Y-87776000D02*
X132384315Y-87776000D01*
X132384315Y-87776000D02*
X132784315Y-87376000D01*
X132784315Y-87376000D02*
X133350000Y-87376000D01*
X123700724Y-88576000D02*
X123825734Y-88701010D01*
X124717010Y-88701010D02*
X123825734Y-88701010D01*
X125412500Y-89396500D02*
X124717010Y-88701010D01*
X121598000Y-88576000D02*
X123700724Y-88576000D01*
X125412500Y-90446500D02*
X125412500Y-89396500D01*
X110236000Y-91778000D02*
X111991500Y-91778000D01*
X111991500Y-91778000D02*
X112395000Y-92181500D01*
X112395000Y-92181500D02*
X112395000Y-90879000D01*
X112395000Y-90879000D02*
X113098000Y-90176000D01*
X113098000Y-84576000D02*
X113098000Y-83202831D01*
X113098000Y-83202831D02*
X111511043Y-81615874D01*
X114255338Y-88576000D02*
X115106419Y-89427081D01*
X113098000Y-88576000D02*
X114255338Y-88576000D01*
X113098000Y-87776000D02*
X114763500Y-87776000D01*
X114763500Y-87776000D02*
X114935000Y-87947500D01*
X135699504Y-96139000D02*
X133096000Y-93535496D01*
X137309860Y-96139000D02*
X135699504Y-96139000D01*
X138598000Y-93467000D02*
X138598000Y-94850860D01*
X138598000Y-94850860D02*
X137309860Y-96139000D01*
X138598000Y-91567000D02*
X140205500Y-91567000D01*
X140205500Y-91567000D02*
X140335000Y-91696500D01*
X113098000Y-89376000D02*
X111665000Y-89376000D01*
X111665000Y-89376000D02*
X111569500Y-89471500D01*
X110331000Y-96837500D02*
X110331000Y-94413500D01*
X110331000Y-94413500D02*
X110447000Y-94297500D01*
X115348000Y-92876000D02*
X114889499Y-93334501D01*
X115348000Y-91626000D02*
X115348000Y-92876000D01*
X114889499Y-94855499D02*
X116871500Y-96837500D01*
X114889499Y-93334501D02*
X114889499Y-94855499D01*
X114871500Y-96837500D02*
X113823000Y-95789000D01*
X113823000Y-95789000D02*
X113823000Y-92876000D01*
X114548000Y-92151000D02*
X114548000Y-91626000D01*
X113823000Y-92876000D02*
X114548000Y-92151000D01*
X111848000Y-86176000D02*
X111592205Y-85920205D01*
X111592205Y-85920205D02*
X111592205Y-85364278D01*
X113098000Y-86176000D02*
X111848000Y-86176000D01*
D32*
G36*
X99481944Y-77979016D02*
X99297254Y-78255425D01*
X99232399Y-78581471D01*
X99232399Y-80399399D01*
X99297254Y-80725445D01*
X99481944Y-81001854D01*
X100005441Y-81525351D01*
X99953197Y-81788000D01*
X100066662Y-82358428D01*
X100389784Y-82842013D01*
X100713031Y-83058000D01*
X100389784Y-83273987D01*
X100066662Y-83757572D01*
X99953197Y-84328000D01*
X100066662Y-84898428D01*
X100389784Y-85382013D01*
X100873369Y-85705135D01*
X101443797Y-85818600D01*
X101502203Y-85818600D01*
X101716136Y-85776046D01*
X101951174Y-86011084D01*
X101889357Y-86023380D01*
X101681959Y-86161959D01*
X101543380Y-86369357D01*
X101494717Y-86614000D01*
X101494717Y-89154000D01*
X101543380Y-89398643D01*
X101681959Y-89606041D01*
X101889357Y-89744620D01*
X102030412Y-89772678D01*
X101286544Y-90516546D01*
X101101854Y-90792955D01*
X101036999Y-91119001D01*
X101036999Y-96711201D01*
X101101854Y-97037247D01*
X101286544Y-97313656D01*
X102736888Y-98764000D01*
X99102000Y-98764000D01*
X99102000Y-77956500D01*
X99504460Y-77956500D01*
X99481944Y-77979016D01*
X99481944Y-77979016D01*
G37*
X99481944Y-77979016D02*
X99297254Y-78255425D01*
X99232399Y-78581471D01*
X99232399Y-80399399D01*
X99297254Y-80725445D01*
X99481944Y-81001854D01*
X100005441Y-81525351D01*
X99953197Y-81788000D01*
X100066662Y-82358428D01*
X100389784Y-82842013D01*
X100713031Y-83058000D01*
X100389784Y-83273987D01*
X100066662Y-83757572D01*
X99953197Y-84328000D01*
X100066662Y-84898428D01*
X100389784Y-85382013D01*
X100873369Y-85705135D01*
X101443797Y-85818600D01*
X101502203Y-85818600D01*
X101716136Y-85776046D01*
X101951174Y-86011084D01*
X101889357Y-86023380D01*
X101681959Y-86161959D01*
X101543380Y-86369357D01*
X101494717Y-86614000D01*
X101494717Y-89154000D01*
X101543380Y-89398643D01*
X101681959Y-89606041D01*
X101889357Y-89744620D01*
X102030412Y-89772678D01*
X101286544Y-90516546D01*
X101101854Y-90792955D01*
X101036999Y-91119001D01*
X101036999Y-96711201D01*
X101101854Y-97037247D01*
X101286544Y-97313656D01*
X102736888Y-98764000D01*
X99102000Y-98764000D01*
X99102000Y-77956500D01*
X99504460Y-77956500D01*
X99481944Y-77979016D01*
G36*
X145944500Y-98764000D02*
X141576095Y-98764000D01*
X143968466Y-96371629D01*
X144153156Y-96095220D01*
X144218011Y-95769174D01*
X144218011Y-93610035D01*
X144236151Y-93591927D01*
X144392832Y-93214598D01*
X144393189Y-92806032D01*
X144237167Y-92428430D01*
X143948519Y-92139279D01*
X143571190Y-91982598D01*
X143162624Y-91982241D01*
X142785022Y-92138263D01*
X142495871Y-92426911D01*
X142339190Y-92804240D01*
X142338833Y-93212806D01*
X142494855Y-93590408D01*
X142514011Y-93609597D01*
X142514011Y-95416264D01*
X141914277Y-96015998D01*
X141856812Y-96015998D01*
X142013560Y-95859250D01*
X142013560Y-95263712D01*
X141918105Y-95033263D01*
X141741727Y-94856885D01*
X141511278Y-94761430D01*
X140984568Y-94761430D01*
X141065167Y-94728045D01*
X141241545Y-94551667D01*
X141337000Y-94321218D01*
X141337000Y-93876250D01*
X141180250Y-93719500D01*
X140458000Y-93719500D01*
X140458000Y-94666750D01*
X140572285Y-94781035D01*
X140435140Y-94918180D01*
X140435140Y-96016000D01*
X140455140Y-96016000D01*
X140455140Y-96262000D01*
X140435140Y-96262000D01*
X140435140Y-97359820D01*
X140502798Y-97427478D01*
X139907754Y-98022521D01*
X129783244Y-98022521D01*
X130028135Y-97656016D01*
X130141600Y-97085588D01*
X130141600Y-96716412D01*
X130028135Y-96145984D01*
X129705013Y-95662399D01*
X129221428Y-95339277D01*
X128651000Y-95225812D01*
X128080572Y-95339277D01*
X127596987Y-95662399D01*
X127381000Y-95985646D01*
X127165013Y-95662399D01*
X126681428Y-95339277D01*
X126111000Y-95225812D01*
X126035325Y-95240865D01*
X126042680Y-95203889D01*
X126064143Y-95199620D01*
X126271541Y-95061041D01*
X126410120Y-94853643D01*
X126458783Y-94609000D01*
X126458783Y-93859000D01*
X126410120Y-93614357D01*
X126390455Y-93584927D01*
X126453120Y-93491143D01*
X126457389Y-93469680D01*
X126638546Y-93433645D01*
X126914955Y-93248955D01*
X128020800Y-92143110D01*
X129881728Y-92143110D01*
X130128825Y-92741129D01*
X130585964Y-93199067D01*
X131183552Y-93447207D01*
X131830610Y-93447772D01*
X132069162Y-93349204D01*
X132068822Y-93738883D01*
X132224844Y-94116485D01*
X132513492Y-94405636D01*
X132890821Y-94562317D01*
X132917935Y-94562341D01*
X135097049Y-96741455D01*
X135373458Y-96926145D01*
X135612906Y-96973775D01*
X135644820Y-97134213D01*
X135783399Y-97341611D01*
X135990797Y-97480190D01*
X136235440Y-97528853D01*
X138384280Y-97528853D01*
X138628923Y-97480190D01*
X138816376Y-97354938D01*
X138882553Y-97421115D01*
X139113002Y-97516570D01*
X140032390Y-97516570D01*
X140189140Y-97359820D01*
X140189140Y-96262000D01*
X140169140Y-96262000D01*
X140169140Y-96016000D01*
X140189140Y-96016000D01*
X140189140Y-94918180D01*
X140074855Y-94803895D01*
X140212000Y-94666750D01*
X140212000Y-93719500D01*
X140192000Y-93719500D01*
X140192000Y-93473500D01*
X140212000Y-93473500D01*
X140212000Y-93453500D01*
X140458000Y-93453500D01*
X140458000Y-93473500D01*
X141180250Y-93473500D01*
X141337000Y-93316750D01*
X141337000Y-92871782D01*
X141241545Y-92641333D01*
X141236827Y-92636615D01*
X141300620Y-92541143D01*
X141349283Y-92296500D01*
X141349283Y-91096500D01*
X141300620Y-90851857D01*
X141162041Y-90644459D01*
X140954643Y-90505880D01*
X140710000Y-90457217D01*
X139960000Y-90457217D01*
X139715357Y-90505880D01*
X139507959Y-90644459D01*
X139462995Y-90711752D01*
X139372643Y-90651380D01*
X139144138Y-90605927D01*
X139266321Y-90311679D01*
X139266678Y-89903113D01*
X139110656Y-89525511D01*
X138822008Y-89236360D01*
X138794128Y-89224783D01*
X140057166Y-89224783D01*
X140188937Y-89517902D01*
X140892993Y-89789630D01*
X141647443Y-89771243D01*
X142259063Y-89517902D01*
X142390834Y-89224783D01*
X141224000Y-88057948D01*
X140057166Y-89224783D01*
X138794128Y-89224783D01*
X138444679Y-89079679D01*
X138036113Y-89079322D01*
X137658511Y-89235344D01*
X137369360Y-89523992D01*
X137212679Y-89901321D01*
X137212639Y-89947449D01*
X136875045Y-90285043D01*
X136690355Y-90561452D01*
X136682147Y-90602717D01*
X135868000Y-90602717D01*
X135623357Y-90651380D01*
X135415959Y-90789959D01*
X135277380Y-90997357D01*
X135228717Y-91242000D01*
X135228717Y-91892000D01*
X135256257Y-92030449D01*
X135241000Y-92067282D01*
X135241000Y-92237250D01*
X135397750Y-92394000D01*
X135490728Y-92394000D01*
X135623357Y-92482620D01*
X135796195Y-92517000D01*
X135623357Y-92551380D01*
X135490728Y-92640000D01*
X135397750Y-92640000D01*
X135241000Y-92796750D01*
X135241000Y-92966718D01*
X135256257Y-93003551D01*
X135228717Y-93142000D01*
X135228717Y-93792000D01*
X135277380Y-94036643D01*
X135415959Y-94244041D01*
X135623357Y-94382620D01*
X135868000Y-94431283D01*
X136928000Y-94431283D01*
X137172643Y-94382620D01*
X137267857Y-94319000D01*
X137378000Y-94319000D01*
X137647819Y-94265329D01*
X137746000Y-94330932D01*
X137746000Y-94497950D01*
X137494803Y-94749147D01*
X136235440Y-94749147D01*
X135990797Y-94797810D01*
X135783399Y-94936389D01*
X135750716Y-94985302D01*
X134123156Y-93357742D01*
X134123178Y-93332109D01*
X133967156Y-92954507D01*
X133678508Y-92665356D01*
X133301179Y-92508675D01*
X132984205Y-92508398D01*
X133134707Y-92145948D01*
X133135272Y-91498890D01*
X132888175Y-90900871D01*
X132431036Y-90442933D01*
X131833448Y-90194793D01*
X131186390Y-90194228D01*
X130588371Y-90441325D01*
X130130433Y-90898464D01*
X129882293Y-91496052D01*
X129881728Y-92143110D01*
X128020800Y-92143110D01*
X130475410Y-89688500D01*
X133701882Y-89688500D01*
X133719990Y-89706640D01*
X134097319Y-89863321D01*
X134505885Y-89863678D01*
X134883487Y-89707656D01*
X135172638Y-89419008D01*
X135329319Y-89041679D01*
X135329676Y-88633113D01*
X135173654Y-88255511D01*
X135154498Y-88236322D01*
X135154498Y-87552993D01*
X139318370Y-87552993D01*
X139336757Y-88307443D01*
X139590098Y-88919063D01*
X139883217Y-89050834D01*
X141050052Y-87884000D01*
X141397948Y-87884000D01*
X142564783Y-89050834D01*
X142857902Y-88919063D01*
X143129630Y-88215007D01*
X143111243Y-87460557D01*
X142857902Y-86848937D01*
X142564783Y-86717166D01*
X141397948Y-87884000D01*
X141050052Y-87884000D01*
X139883217Y-86717166D01*
X139590098Y-86848937D01*
X139318370Y-87552993D01*
X135154498Y-87552993D01*
X135154498Y-86543217D01*
X140057166Y-86543217D01*
X141224000Y-87710052D01*
X142390834Y-86543217D01*
X142259063Y-86250098D01*
X141555007Y-85978370D01*
X140800557Y-85996757D01*
X140188937Y-86250098D01*
X140057166Y-86543217D01*
X135154498Y-86543217D01*
X135154498Y-81910852D01*
X135089643Y-81584806D01*
X134904953Y-81308397D01*
X134215418Y-80618862D01*
X133939009Y-80434172D01*
X133612963Y-80369317D01*
X126682612Y-80369317D01*
X126664504Y-80351177D01*
X126287175Y-80194496D01*
X125878609Y-80194139D01*
X125800883Y-80226255D01*
X125793045Y-80207333D01*
X125788327Y-80202615D01*
X125852120Y-80107143D01*
X125900783Y-79862500D01*
X125900783Y-79062500D01*
X125852120Y-78817857D01*
X125732938Y-78639488D01*
X131997733Y-78639488D01*
X132821644Y-79463399D01*
X132821622Y-79489032D01*
X132977644Y-79866634D01*
X133266292Y-80155785D01*
X133643621Y-80312466D01*
X134052187Y-80312823D01*
X134429789Y-80156801D01*
X134718940Y-79868153D01*
X134875621Y-79490824D01*
X134875978Y-79082258D01*
X134719956Y-78704656D01*
X134431308Y-78415505D01*
X134053979Y-78258824D01*
X134026865Y-78258800D01*
X133724565Y-77956500D01*
X145944500Y-77956500D01*
X145944500Y-98764000D01*
X145944500Y-98764000D01*
G37*
X145944500Y-98764000D02*
X141576095Y-98764000D01*
X143968466Y-96371629D01*
X144153156Y-96095220D01*
X144218011Y-95769174D01*
X144218011Y-93610035D01*
X144236151Y-93591927D01*
X144392832Y-93214598D01*
X144393189Y-92806032D01*
X144237167Y-92428430D01*
X143948519Y-92139279D01*
X143571190Y-91982598D01*
X143162624Y-91982241D01*
X142785022Y-92138263D01*
X142495871Y-92426911D01*
X142339190Y-92804240D01*
X142338833Y-93212806D01*
X142494855Y-93590408D01*
X142514011Y-93609597D01*
X142514011Y-95416264D01*
X141914277Y-96015998D01*
X141856812Y-96015998D01*
X142013560Y-95859250D01*
X142013560Y-95263712D01*
X141918105Y-95033263D01*
X141741727Y-94856885D01*
X141511278Y-94761430D01*
X140984568Y-94761430D01*
X141065167Y-94728045D01*
X141241545Y-94551667D01*
X141337000Y-94321218D01*
X141337000Y-93876250D01*
X141180250Y-93719500D01*
X140458000Y-93719500D01*
X140458000Y-94666750D01*
X140572285Y-94781035D01*
X140435140Y-94918180D01*
X140435140Y-96016000D01*
X140455140Y-96016000D01*
X140455140Y-96262000D01*
X140435140Y-96262000D01*
X140435140Y-97359820D01*
X140502798Y-97427478D01*
X139907754Y-98022521D01*
X129783244Y-98022521D01*
X130028135Y-97656016D01*
X130141600Y-97085588D01*
X130141600Y-96716412D01*
X130028135Y-96145984D01*
X129705013Y-95662399D01*
X129221428Y-95339277D01*
X128651000Y-95225812D01*
X128080572Y-95339277D01*
X127596987Y-95662399D01*
X127381000Y-95985646D01*
X127165013Y-95662399D01*
X126681428Y-95339277D01*
X126111000Y-95225812D01*
X126035325Y-95240865D01*
X126042680Y-95203889D01*
X126064143Y-95199620D01*
X126271541Y-95061041D01*
X126410120Y-94853643D01*
X126458783Y-94609000D01*
X126458783Y-93859000D01*
X126410120Y-93614357D01*
X126390455Y-93584927D01*
X126453120Y-93491143D01*
X126457389Y-93469680D01*
X126638546Y-93433645D01*
X126914955Y-93248955D01*
X128020800Y-92143110D01*
X129881728Y-92143110D01*
X130128825Y-92741129D01*
X130585964Y-93199067D01*
X131183552Y-93447207D01*
X131830610Y-93447772D01*
X132069162Y-93349204D01*
X132068822Y-93738883D01*
X132224844Y-94116485D01*
X132513492Y-94405636D01*
X132890821Y-94562317D01*
X132917935Y-94562341D01*
X135097049Y-96741455D01*
X135373458Y-96926145D01*
X135612906Y-96973775D01*
X135644820Y-97134213D01*
X135783399Y-97341611D01*
X135990797Y-97480190D01*
X136235440Y-97528853D01*
X138384280Y-97528853D01*
X138628923Y-97480190D01*
X138816376Y-97354938D01*
X138882553Y-97421115D01*
X139113002Y-97516570D01*
X140032390Y-97516570D01*
X140189140Y-97359820D01*
X140189140Y-96262000D01*
X140169140Y-96262000D01*
X140169140Y-96016000D01*
X140189140Y-96016000D01*
X140189140Y-94918180D01*
X140074855Y-94803895D01*
X140212000Y-94666750D01*
X140212000Y-93719500D01*
X140192000Y-93719500D01*
X140192000Y-93473500D01*
X140212000Y-93473500D01*
X140212000Y-93453500D01*
X140458000Y-93453500D01*
X140458000Y-93473500D01*
X141180250Y-93473500D01*
X141337000Y-93316750D01*
X141337000Y-92871782D01*
X141241545Y-92641333D01*
X141236827Y-92636615D01*
X141300620Y-92541143D01*
X141349283Y-92296500D01*
X141349283Y-91096500D01*
X141300620Y-90851857D01*
X141162041Y-90644459D01*
X140954643Y-90505880D01*
X140710000Y-90457217D01*
X139960000Y-90457217D01*
X139715357Y-90505880D01*
X139507959Y-90644459D01*
X139462995Y-90711752D01*
X139372643Y-90651380D01*
X139144138Y-90605927D01*
X139266321Y-90311679D01*
X139266678Y-89903113D01*
X139110656Y-89525511D01*
X138822008Y-89236360D01*
X138794128Y-89224783D01*
X140057166Y-89224783D01*
X140188937Y-89517902D01*
X140892993Y-89789630D01*
X141647443Y-89771243D01*
X142259063Y-89517902D01*
X142390834Y-89224783D01*
X141224000Y-88057948D01*
X140057166Y-89224783D01*
X138794128Y-89224783D01*
X138444679Y-89079679D01*
X138036113Y-89079322D01*
X137658511Y-89235344D01*
X137369360Y-89523992D01*
X137212679Y-89901321D01*
X137212639Y-89947449D01*
X136875045Y-90285043D01*
X136690355Y-90561452D01*
X136682147Y-90602717D01*
X135868000Y-90602717D01*
X135623357Y-90651380D01*
X135415959Y-90789959D01*
X135277380Y-90997357D01*
X135228717Y-91242000D01*
X135228717Y-91892000D01*
X135256257Y-92030449D01*
X135241000Y-92067282D01*
X135241000Y-92237250D01*
X135397750Y-92394000D01*
X135490728Y-92394000D01*
X135623357Y-92482620D01*
X135796195Y-92517000D01*
X135623357Y-92551380D01*
X135490728Y-92640000D01*
X135397750Y-92640000D01*
X135241000Y-92796750D01*
X135241000Y-92966718D01*
X135256257Y-93003551D01*
X135228717Y-93142000D01*
X135228717Y-93792000D01*
X135277380Y-94036643D01*
X135415959Y-94244041D01*
X135623357Y-94382620D01*
X135868000Y-94431283D01*
X136928000Y-94431283D01*
X137172643Y-94382620D01*
X137267857Y-94319000D01*
X137378000Y-94319000D01*
X137647819Y-94265329D01*
X137746000Y-94330932D01*
X137746000Y-94497950D01*
X137494803Y-94749147D01*
X136235440Y-94749147D01*
X135990797Y-94797810D01*
X135783399Y-94936389D01*
X135750716Y-94985302D01*
X134123156Y-93357742D01*
X134123178Y-93332109D01*
X133967156Y-92954507D01*
X133678508Y-92665356D01*
X133301179Y-92508675D01*
X132984205Y-92508398D01*
X133134707Y-92145948D01*
X133135272Y-91498890D01*
X132888175Y-90900871D01*
X132431036Y-90442933D01*
X131833448Y-90194793D01*
X131186390Y-90194228D01*
X130588371Y-90441325D01*
X130130433Y-90898464D01*
X129882293Y-91496052D01*
X129881728Y-92143110D01*
X128020800Y-92143110D01*
X130475410Y-89688500D01*
X133701882Y-89688500D01*
X133719990Y-89706640D01*
X134097319Y-89863321D01*
X134505885Y-89863678D01*
X134883487Y-89707656D01*
X135172638Y-89419008D01*
X135329319Y-89041679D01*
X135329676Y-88633113D01*
X135173654Y-88255511D01*
X135154498Y-88236322D01*
X135154498Y-87552993D01*
X139318370Y-87552993D01*
X139336757Y-88307443D01*
X139590098Y-88919063D01*
X139883217Y-89050834D01*
X141050052Y-87884000D01*
X141397948Y-87884000D01*
X142564783Y-89050834D01*
X142857902Y-88919063D01*
X143129630Y-88215007D01*
X143111243Y-87460557D01*
X142857902Y-86848937D01*
X142564783Y-86717166D01*
X141397948Y-87884000D01*
X141050052Y-87884000D01*
X139883217Y-86717166D01*
X139590098Y-86848937D01*
X139318370Y-87552993D01*
X135154498Y-87552993D01*
X135154498Y-86543217D01*
X140057166Y-86543217D01*
X141224000Y-87710052D01*
X142390834Y-86543217D01*
X142259063Y-86250098D01*
X141555007Y-85978370D01*
X140800557Y-85996757D01*
X140188937Y-86250098D01*
X140057166Y-86543217D01*
X135154498Y-86543217D01*
X135154498Y-81910852D01*
X135089643Y-81584806D01*
X134904953Y-81308397D01*
X134215418Y-80618862D01*
X133939009Y-80434172D01*
X133612963Y-80369317D01*
X126682612Y-80369317D01*
X126664504Y-80351177D01*
X126287175Y-80194496D01*
X125878609Y-80194139D01*
X125800883Y-80226255D01*
X125793045Y-80207333D01*
X125788327Y-80202615D01*
X125852120Y-80107143D01*
X125900783Y-79862500D01*
X125900783Y-79062500D01*
X125852120Y-78817857D01*
X125732938Y-78639488D01*
X131997733Y-78639488D01*
X132821644Y-79463399D01*
X132821622Y-79489032D01*
X132977644Y-79866634D01*
X133266292Y-80155785D01*
X133643621Y-80312466D01*
X134052187Y-80312823D01*
X134429789Y-80156801D01*
X134718940Y-79868153D01*
X134875621Y-79490824D01*
X134875978Y-79082258D01*
X134719956Y-78704656D01*
X134431308Y-78415505D01*
X134053979Y-78258824D01*
X134026865Y-78258800D01*
X133724565Y-77956500D01*
X145944500Y-77956500D01*
X145944500Y-98764000D01*
G36*
X123694000Y-96778000D02*
X123714000Y-96778000D01*
X123714000Y-97024000D01*
X123694000Y-97024000D01*
X123694000Y-97044000D01*
X123448000Y-97044000D01*
X123448000Y-97024000D01*
X123428000Y-97024000D01*
X123428000Y-96778000D01*
X123448000Y-96778000D01*
X123448000Y-96758000D01*
X123694000Y-96758000D01*
X123694000Y-96778000D01*
X123694000Y-96778000D01*
G37*
X123694000Y-96778000D02*
X123714000Y-96778000D01*
X123714000Y-97024000D01*
X123694000Y-97024000D01*
X123694000Y-97044000D01*
X123448000Y-97044000D01*
X123448000Y-97024000D01*
X123428000Y-97024000D01*
X123428000Y-96778000D01*
X123448000Y-96778000D01*
X123448000Y-96758000D01*
X123694000Y-96758000D01*
X123694000Y-96778000D01*
G36*
X109394959Y-95199541D02*
X109479000Y-95255695D01*
X109479000Y-95848312D01*
X109227861Y-96099013D01*
X109216801Y-96125648D01*
X108504948Y-96837500D01*
X108519091Y-96851643D01*
X108345143Y-97025591D01*
X108331000Y-97011448D01*
X108316858Y-97025591D01*
X108142910Y-96851643D01*
X108157052Y-96837500D01*
X108142909Y-96823358D01*
X108316858Y-96649410D01*
X108331000Y-96663552D01*
X109067295Y-95927256D01*
X109008424Y-95695846D01*
X108519966Y-95523510D01*
X108209255Y-95540155D01*
X108362627Y-95386783D01*
X108847000Y-95386783D01*
X109091643Y-95338120D01*
X109299041Y-95199541D01*
X109347000Y-95127765D01*
X109394959Y-95199541D01*
X109394959Y-95199541D01*
G37*
X109394959Y-95199541D02*
X109479000Y-95255695D01*
X109479000Y-95848312D01*
X109227861Y-96099013D01*
X109216801Y-96125648D01*
X108504948Y-96837500D01*
X108519091Y-96851643D01*
X108345143Y-97025591D01*
X108331000Y-97011448D01*
X108316858Y-97025591D01*
X108142910Y-96851643D01*
X108157052Y-96837500D01*
X108142909Y-96823358D01*
X108316858Y-96649410D01*
X108331000Y-96663552D01*
X109067295Y-95927256D01*
X109008424Y-95695846D01*
X108519966Y-95523510D01*
X108209255Y-95540155D01*
X108362627Y-95386783D01*
X108847000Y-95386783D01*
X109091643Y-95338120D01*
X109299041Y-95199541D01*
X109347000Y-95127765D01*
X109394959Y-95199541D01*
G36*
X124323217Y-91046500D02*
X124371880Y-91291143D01*
X124510459Y-91498541D01*
X124582235Y-91546500D01*
X124510459Y-91594459D01*
X124371880Y-91801857D01*
X124323217Y-92046500D01*
X124323217Y-93246500D01*
X124333117Y-93296270D01*
X124269500Y-93338777D01*
X124164143Y-93268380D01*
X123919500Y-93219717D01*
X122719500Y-93219717D01*
X122598498Y-93243786D01*
X122428167Y-93073455D01*
X122197718Y-92978000D01*
X121752750Y-92978000D01*
X121596000Y-93134750D01*
X121596000Y-93857000D01*
X121616000Y-93857000D01*
X121616000Y-94103000D01*
X121596000Y-94103000D01*
X121596000Y-94123000D01*
X121350000Y-94123000D01*
X121350000Y-94103000D01*
X121330000Y-94103000D01*
X121330000Y-93857000D01*
X121350000Y-93857000D01*
X121350000Y-93134750D01*
X121193250Y-92978000D01*
X120748282Y-92978000D01*
X120688190Y-93002891D01*
X120875041Y-92878041D01*
X121013620Y-92670643D01*
X121051939Y-92478000D01*
X121442223Y-92478000D01*
X121654992Y-92691140D01*
X122032321Y-92847821D01*
X122440887Y-92848178D01*
X122818489Y-92692156D01*
X123107640Y-92403508D01*
X123264321Y-92026179D01*
X123264417Y-91915993D01*
X123470824Y-91916173D01*
X123848426Y-91760151D01*
X124137577Y-91471503D01*
X124294258Y-91094174D01*
X124294544Y-90767087D01*
X124323217Y-90755239D01*
X124323217Y-91046500D01*
X124323217Y-91046500D01*
G37*
X124323217Y-91046500D02*
X124371880Y-91291143D01*
X124510459Y-91498541D01*
X124582235Y-91546500D01*
X124510459Y-91594459D01*
X124371880Y-91801857D01*
X124323217Y-92046500D01*
X124323217Y-93246500D01*
X124333117Y-93296270D01*
X124269500Y-93338777D01*
X124164143Y-93268380D01*
X123919500Y-93219717D01*
X122719500Y-93219717D01*
X122598498Y-93243786D01*
X122428167Y-93073455D01*
X122197718Y-92978000D01*
X121752750Y-92978000D01*
X121596000Y-93134750D01*
X121596000Y-93857000D01*
X121616000Y-93857000D01*
X121616000Y-94103000D01*
X121596000Y-94103000D01*
X121596000Y-94123000D01*
X121350000Y-94123000D01*
X121350000Y-94103000D01*
X121330000Y-94103000D01*
X121330000Y-93857000D01*
X121350000Y-93857000D01*
X121350000Y-93134750D01*
X121193250Y-92978000D01*
X120748282Y-92978000D01*
X120688190Y-93002891D01*
X120875041Y-92878041D01*
X121013620Y-92670643D01*
X121051939Y-92478000D01*
X121442223Y-92478000D01*
X121654992Y-92691140D01*
X122032321Y-92847821D01*
X122440887Y-92848178D01*
X122818489Y-92692156D01*
X123107640Y-92403508D01*
X123264321Y-92026179D01*
X123264417Y-91915993D01*
X123470824Y-91916173D01*
X123848426Y-91760151D01*
X124137577Y-91471503D01*
X124294258Y-91094174D01*
X124294544Y-90767087D01*
X124323217Y-90755239D01*
X124323217Y-91046500D01*
G36*
X116137500Y-93857000D02*
X116157500Y-93857000D01*
X116157500Y-94103000D01*
X116137500Y-94103000D01*
X116137500Y-94123000D01*
X115891500Y-94123000D01*
X115891500Y-94103000D01*
X115871500Y-94103000D01*
X115871500Y-93857000D01*
X115891500Y-93857000D01*
X115891500Y-93837000D01*
X116137500Y-93837000D01*
X116137500Y-93857000D01*
X116137500Y-93857000D01*
G37*
X116137500Y-93857000D02*
X116157500Y-93857000D01*
X116157500Y-94103000D01*
X116137500Y-94103000D01*
X116137500Y-94123000D01*
X115891500Y-94123000D01*
X115891500Y-94103000D01*
X115871500Y-94103000D01*
X115871500Y-93857000D01*
X115891500Y-93857000D01*
X115891500Y-93837000D01*
X116137500Y-93837000D01*
X116137500Y-93857000D01*
G36*
X107165240Y-86797971D02*
X107106500Y-86939782D01*
X107106500Y-87159750D01*
X107263250Y-87316500D01*
X108210500Y-87316500D01*
X108210500Y-87296500D01*
X108456500Y-87296500D01*
X108456500Y-87316500D01*
X108476500Y-87316500D01*
X108476500Y-87562500D01*
X108456500Y-87562500D01*
X108456500Y-88284750D01*
X108613250Y-88441500D01*
X109058218Y-88441500D01*
X109288667Y-88346045D01*
X109293385Y-88341327D01*
X109388857Y-88405120D01*
X109484632Y-88424171D01*
X109430833Y-88446455D01*
X109254455Y-88622833D01*
X109159000Y-88853282D01*
X109159000Y-89298250D01*
X109315750Y-89455000D01*
X110113000Y-89455000D01*
X110113000Y-89435000D01*
X110359000Y-89435000D01*
X110359000Y-89455000D01*
X110379000Y-89455000D01*
X110379000Y-89701000D01*
X110359000Y-89701000D01*
X110359000Y-89721000D01*
X110113000Y-89721000D01*
X110113000Y-89701000D01*
X109315750Y-89701000D01*
X109159000Y-89857750D01*
X109159000Y-90302718D01*
X109254455Y-90533167D01*
X109401870Y-90680582D01*
X109333959Y-90725959D01*
X109195380Y-90933357D01*
X109146717Y-91178000D01*
X109146717Y-92051001D01*
X107055911Y-92051001D01*
X104777588Y-89772678D01*
X104918643Y-89744620D01*
X105126041Y-89606041D01*
X105264620Y-89398643D01*
X105313283Y-89154000D01*
X105313283Y-87719250D01*
X107106500Y-87719250D01*
X107106500Y-87939218D01*
X107201955Y-88169667D01*
X107378333Y-88346045D01*
X107608782Y-88441500D01*
X108053750Y-88441500D01*
X108210500Y-88284750D01*
X108210500Y-87562500D01*
X107263250Y-87562500D01*
X107106500Y-87719250D01*
X105313283Y-87719250D01*
X105313283Y-86704000D01*
X107024602Y-86704000D01*
X107165240Y-86797971D01*
X107165240Y-86797971D01*
G37*
X107165240Y-86797971D02*
X107106500Y-86939782D01*
X107106500Y-87159750D01*
X107263250Y-87316500D01*
X108210500Y-87316500D01*
X108210500Y-87296500D01*
X108456500Y-87296500D01*
X108456500Y-87316500D01*
X108476500Y-87316500D01*
X108476500Y-87562500D01*
X108456500Y-87562500D01*
X108456500Y-88284750D01*
X108613250Y-88441500D01*
X109058218Y-88441500D01*
X109288667Y-88346045D01*
X109293385Y-88341327D01*
X109388857Y-88405120D01*
X109484632Y-88424171D01*
X109430833Y-88446455D01*
X109254455Y-88622833D01*
X109159000Y-88853282D01*
X109159000Y-89298250D01*
X109315750Y-89455000D01*
X110113000Y-89455000D01*
X110113000Y-89435000D01*
X110359000Y-89435000D01*
X110359000Y-89455000D01*
X110379000Y-89455000D01*
X110379000Y-89701000D01*
X110359000Y-89701000D01*
X110359000Y-89721000D01*
X110113000Y-89721000D01*
X110113000Y-89701000D01*
X109315750Y-89701000D01*
X109159000Y-89857750D01*
X109159000Y-90302718D01*
X109254455Y-90533167D01*
X109401870Y-90680582D01*
X109333959Y-90725959D01*
X109195380Y-90933357D01*
X109146717Y-91178000D01*
X109146717Y-92051001D01*
X107055911Y-92051001D01*
X104777588Y-89772678D01*
X104918643Y-89744620D01*
X105126041Y-89606041D01*
X105264620Y-89398643D01*
X105313283Y-89154000D01*
X105313283Y-87719250D01*
X107106500Y-87719250D01*
X107106500Y-87939218D01*
X107201955Y-88169667D01*
X107378333Y-88346045D01*
X107608782Y-88441500D01*
X108053750Y-88441500D01*
X108210500Y-88284750D01*
X108210500Y-87562500D01*
X107263250Y-87562500D01*
X107106500Y-87719250D01*
X105313283Y-87719250D01*
X105313283Y-86704000D01*
X107024602Y-86704000D01*
X107165240Y-86797971D01*
G36*
X117820959Y-84378041D02*
X117916890Y-84442140D01*
X118027750Y-84553000D01*
X118147718Y-84553000D01*
X118168329Y-84544463D01*
X118273000Y-84565283D01*
X118823000Y-84565283D01*
X118948000Y-84540419D01*
X119073000Y-84565283D01*
X119623000Y-84565283D01*
X119748000Y-84540419D01*
X119873000Y-84565283D01*
X120158717Y-84565283D01*
X120158717Y-84851000D01*
X120183581Y-84976000D01*
X120158717Y-85101000D01*
X120158717Y-85651000D01*
X120183581Y-85776000D01*
X120158717Y-85901000D01*
X120158717Y-86451000D01*
X120183581Y-86576000D01*
X120158717Y-86701000D01*
X120158717Y-86758488D01*
X118936865Y-85536636D01*
X118936887Y-85511003D01*
X118780865Y-85133401D01*
X118492217Y-84844250D01*
X118114888Y-84687569D01*
X117706322Y-84687212D01*
X117328720Y-84843234D01*
X117039569Y-85131882D01*
X116882888Y-85509211D01*
X116882531Y-85917777D01*
X117038553Y-86295379D01*
X117327201Y-86584530D01*
X117704530Y-86741211D01*
X117731644Y-86741235D01*
X119296000Y-88305591D01*
X119296000Y-90186717D01*
X119073000Y-90186717D01*
X118948000Y-90211581D01*
X118823000Y-90186717D01*
X118273000Y-90186717D01*
X118148000Y-90211581D01*
X118023000Y-90186717D01*
X117473000Y-90186717D01*
X117368329Y-90207537D01*
X117347718Y-90199000D01*
X117227750Y-90199000D01*
X117116890Y-90309860D01*
X117020959Y-90373959D01*
X116948000Y-90483150D01*
X116875041Y-90373959D01*
X116779110Y-90309860D01*
X116668250Y-90199000D01*
X116548282Y-90199000D01*
X116527671Y-90207537D01*
X116423000Y-90186717D01*
X115873000Y-90186717D01*
X115780738Y-90205069D01*
X115976559Y-90009589D01*
X116133240Y-89632260D01*
X116133597Y-89223694D01*
X115977575Y-88846092D01*
X115733466Y-88601557D01*
X115805140Y-88530008D01*
X115961821Y-88152679D01*
X115962178Y-87744113D01*
X115806156Y-87366511D01*
X115517508Y-87077360D01*
X115140179Y-86920679D01*
X114731613Y-86920322D01*
X114722712Y-86924000D01*
X114537283Y-86924000D01*
X114537283Y-86701000D01*
X114512419Y-86576000D01*
X114537283Y-86451000D01*
X114537283Y-85901000D01*
X114512419Y-85776000D01*
X114537283Y-85651000D01*
X114537283Y-85101000D01*
X114512419Y-84976000D01*
X114537283Y-84851000D01*
X114537283Y-84565283D01*
X114823000Y-84565283D01*
X114948000Y-84540419D01*
X115073000Y-84565283D01*
X115623000Y-84565283D01*
X115727671Y-84544463D01*
X115748282Y-84553000D01*
X115868250Y-84553000D01*
X115979110Y-84442140D01*
X116075041Y-84378041D01*
X116148000Y-84268850D01*
X116220959Y-84378041D01*
X116316890Y-84442140D01*
X116427750Y-84553000D01*
X116547718Y-84553000D01*
X116568329Y-84544463D01*
X116673000Y-84565283D01*
X117223000Y-84565283D01*
X117327671Y-84544463D01*
X117348282Y-84553000D01*
X117468250Y-84553000D01*
X117579110Y-84442140D01*
X117675041Y-84378041D01*
X117748000Y-84268850D01*
X117820959Y-84378041D01*
X117820959Y-84378041D01*
G37*
X117820959Y-84378041D02*
X117916890Y-84442140D01*
X118027750Y-84553000D01*
X118147718Y-84553000D01*
X118168329Y-84544463D01*
X118273000Y-84565283D01*
X118823000Y-84565283D01*
X118948000Y-84540419D01*
X119073000Y-84565283D01*
X119623000Y-84565283D01*
X119748000Y-84540419D01*
X119873000Y-84565283D01*
X120158717Y-84565283D01*
X120158717Y-84851000D01*
X120183581Y-84976000D01*
X120158717Y-85101000D01*
X120158717Y-85651000D01*
X120183581Y-85776000D01*
X120158717Y-85901000D01*
X120158717Y-86451000D01*
X120183581Y-86576000D01*
X120158717Y-86701000D01*
X120158717Y-86758488D01*
X118936865Y-85536636D01*
X118936887Y-85511003D01*
X118780865Y-85133401D01*
X118492217Y-84844250D01*
X118114888Y-84687569D01*
X117706322Y-84687212D01*
X117328720Y-84843234D01*
X117039569Y-85131882D01*
X116882888Y-85509211D01*
X116882531Y-85917777D01*
X117038553Y-86295379D01*
X117327201Y-86584530D01*
X117704530Y-86741211D01*
X117731644Y-86741235D01*
X119296000Y-88305591D01*
X119296000Y-90186717D01*
X119073000Y-90186717D01*
X118948000Y-90211581D01*
X118823000Y-90186717D01*
X118273000Y-90186717D01*
X118148000Y-90211581D01*
X118023000Y-90186717D01*
X117473000Y-90186717D01*
X117368329Y-90207537D01*
X117347718Y-90199000D01*
X117227750Y-90199000D01*
X117116890Y-90309860D01*
X117020959Y-90373959D01*
X116948000Y-90483150D01*
X116875041Y-90373959D01*
X116779110Y-90309860D01*
X116668250Y-90199000D01*
X116548282Y-90199000D01*
X116527671Y-90207537D01*
X116423000Y-90186717D01*
X115873000Y-90186717D01*
X115780738Y-90205069D01*
X115976559Y-90009589D01*
X116133240Y-89632260D01*
X116133597Y-89223694D01*
X115977575Y-88846092D01*
X115733466Y-88601557D01*
X115805140Y-88530008D01*
X115961821Y-88152679D01*
X115962178Y-87744113D01*
X115806156Y-87366511D01*
X115517508Y-87077360D01*
X115140179Y-86920679D01*
X114731613Y-86920322D01*
X114722712Y-86924000D01*
X114537283Y-86924000D01*
X114537283Y-86701000D01*
X114512419Y-86576000D01*
X114537283Y-86451000D01*
X114537283Y-85901000D01*
X114512419Y-85776000D01*
X114537283Y-85651000D01*
X114537283Y-85101000D01*
X114512419Y-84976000D01*
X114537283Y-84851000D01*
X114537283Y-84565283D01*
X114823000Y-84565283D01*
X114948000Y-84540419D01*
X115073000Y-84565283D01*
X115623000Y-84565283D01*
X115727671Y-84544463D01*
X115748282Y-84553000D01*
X115868250Y-84553000D01*
X115979110Y-84442140D01*
X116075041Y-84378041D01*
X116148000Y-84268850D01*
X116220959Y-84378041D01*
X116316890Y-84442140D01*
X116427750Y-84553000D01*
X116547718Y-84553000D01*
X116568329Y-84544463D01*
X116673000Y-84565283D01*
X117223000Y-84565283D01*
X117327671Y-84544463D01*
X117348282Y-84553000D01*
X117468250Y-84553000D01*
X117579110Y-84442140D01*
X117675041Y-84378041D01*
X117748000Y-84268850D01*
X117820959Y-84378041D01*
G36*
X121791250Y-80839500D02*
X123638500Y-80839500D01*
X123638500Y-80819500D01*
X123884500Y-80819500D01*
X123884500Y-80839500D01*
X123904500Y-80839500D01*
X123904500Y-81085500D01*
X123884500Y-81085500D01*
X123884500Y-81105500D01*
X123638500Y-81105500D01*
X123638500Y-81085500D01*
X121791250Y-81085500D01*
X121634500Y-81242250D01*
X121634500Y-81487218D01*
X121685565Y-81610500D01*
X120868410Y-81610500D01*
X121715330Y-80763580D01*
X121791250Y-80839500D01*
X121791250Y-80839500D01*
G37*
X121791250Y-80839500D02*
X123638500Y-80839500D01*
X123638500Y-80819500D01*
X123884500Y-80819500D01*
X123884500Y-80839500D01*
X123904500Y-80839500D01*
X123904500Y-81085500D01*
X123884500Y-81085500D01*
X123884500Y-81105500D01*
X123638500Y-81105500D01*
X123638500Y-81085500D01*
X121791250Y-81085500D01*
X121634500Y-81242250D01*
X121634500Y-81487218D01*
X121685565Y-81610500D01*
X120868410Y-81610500D01*
X121715330Y-80763580D01*
X121791250Y-80839500D01*
G36*
X117298500Y-78716750D02*
X117455250Y-78873500D01*
X118177500Y-78873500D01*
X118177500Y-78853500D01*
X118423500Y-78853500D01*
X118423500Y-78873500D01*
X119145750Y-78873500D01*
X119302500Y-78716750D01*
X119302500Y-78639488D01*
X121665768Y-78639488D01*
X121485454Y-78675355D01*
X121209045Y-78860045D01*
X120731447Y-79337643D01*
X120534008Y-79139860D01*
X120156679Y-78983179D01*
X119748113Y-78982822D01*
X119370511Y-79138844D01*
X119267713Y-79241463D01*
X119145750Y-79119500D01*
X118423500Y-79119500D01*
X118423500Y-79139500D01*
X118177500Y-79139500D01*
X118177500Y-79119500D01*
X117455250Y-79119500D01*
X117298500Y-79276250D01*
X117298500Y-79721218D01*
X117393955Y-79951667D01*
X117398673Y-79956385D01*
X117339796Y-80044500D01*
X117054788Y-80044500D01*
X117043620Y-79988357D01*
X116979827Y-79892885D01*
X116984545Y-79888167D01*
X117080000Y-79657718D01*
X117080000Y-79212750D01*
X116923250Y-79056000D01*
X116201000Y-79056000D01*
X116201000Y-79076000D01*
X116029999Y-79076000D01*
X116029999Y-78790000D01*
X116201000Y-78790000D01*
X116201000Y-78810000D01*
X116923250Y-78810000D01*
X117080000Y-78653250D01*
X117080000Y-78639488D01*
X117298500Y-78639488D01*
X117298500Y-78716750D01*
X117298500Y-78716750D01*
G37*
X117298500Y-78716750D02*
X117455250Y-78873500D01*
X118177500Y-78873500D01*
X118177500Y-78853500D01*
X118423500Y-78853500D01*
X118423500Y-78873500D01*
X119145750Y-78873500D01*
X119302500Y-78716750D01*
X119302500Y-78639488D01*
X121665768Y-78639488D01*
X121485454Y-78675355D01*
X121209045Y-78860045D01*
X120731447Y-79337643D01*
X120534008Y-79139860D01*
X120156679Y-78983179D01*
X119748113Y-78982822D01*
X119370511Y-79138844D01*
X119267713Y-79241463D01*
X119145750Y-79119500D01*
X118423500Y-79119500D01*
X118423500Y-79139500D01*
X118177500Y-79139500D01*
X118177500Y-79119500D01*
X117455250Y-79119500D01*
X117298500Y-79276250D01*
X117298500Y-79721218D01*
X117393955Y-79951667D01*
X117398673Y-79956385D01*
X117339796Y-80044500D01*
X117054788Y-80044500D01*
X117043620Y-79988357D01*
X116979827Y-79892885D01*
X116984545Y-79888167D01*
X117080000Y-79657718D01*
X117080000Y-79212750D01*
X116923250Y-79056000D01*
X116201000Y-79056000D01*
X116201000Y-79076000D01*
X116029999Y-79076000D01*
X116029999Y-78790000D01*
X116201000Y-78790000D01*
X116201000Y-78810000D01*
X116923250Y-78810000D01*
X117080000Y-78653250D01*
X117080000Y-78639488D01*
X117298500Y-78639488D01*
X117298500Y-78716750D01*
G36*
X101596000Y-79125000D02*
X101616000Y-79125000D01*
X101616000Y-79371000D01*
X101596000Y-79371000D01*
X101596000Y-79391000D01*
X101350000Y-79391000D01*
X101350000Y-79371000D01*
X101330000Y-79371000D01*
X101330000Y-79125000D01*
X101350000Y-79125000D01*
X101350000Y-79105000D01*
X101596000Y-79105000D01*
X101596000Y-79125000D01*
X101596000Y-79125000D01*
G37*
X101596000Y-79125000D02*
X101616000Y-79125000D01*
X101616000Y-79371000D01*
X101596000Y-79371000D01*
X101596000Y-79391000D01*
X101350000Y-79391000D01*
X101350000Y-79371000D01*
X101330000Y-79371000D01*
X101330000Y-79125000D01*
X101350000Y-79125000D01*
X101350000Y-79105000D01*
X101596000Y-79105000D01*
X101596000Y-79125000D01*
M02*
