G04 #@! TF.FileFunction,Copper,L2,Bot,Signal*
%FSLAX46Y46*%
G04 Gerber Fmt 4.6, Leading zero omitted, Abs format (unit mm)*
G04 Created by KiCad (PCBNEW 4.0.4+e1-6308~48~ubuntu16.04.1-stable) date Fri Sep 23 12:35:51 2016*
%MOMM*%
%LPD*%
G01*
G04 APERTURE LIST*
%ADD10C,0.100000*%
%ADD11C,0.800000*%
%ADD12C,2.000000*%
%ADD13R,2.540000X2.540000*%
%ADD14C,2.540000*%
%ADD15R,0.750000X1.200000*%
%ADD16R,1.200000X0.750000*%
%ADD17R,0.550000X1.600000*%
%ADD18R,1.600000X0.550000*%
%ADD19R,1.200000X0.900000*%
%ADD20R,0.900000X1.200000*%
%ADD21R,3.000000X0.800000*%
%ADD22C,1.998980*%
%ADD23R,1.727200X1.727200*%
%ADD24O,1.727200X1.727200*%
%ADD25R,2.148840X1.501140*%
%ADD26R,1.060000X0.650000*%
%ADD27R,1.350000X1.350000*%
%ADD28C,1.350000*%
%ADD29R,1.727200X2.032000*%
%ADD30O,1.727200X2.032000*%
%ADD31C,0.450000*%
%ADD32C,0.254000*%
G04 APERTURE END LIST*
D10*
D11*
X135534400Y-84260700D03*
X135534400Y-83260700D03*
X135534400Y-82260700D03*
X135534400Y-81260700D03*
X135534400Y-80260700D03*
X135534400Y-79260700D03*
X118246400Y-88604600D03*
X117246400Y-88604600D03*
X118246400Y-87604600D03*
X117246400Y-87604600D03*
X100847400Y-98409000D03*
X99847400Y-98409000D03*
X100847400Y-97409000D03*
X99847400Y-97409000D03*
X132114800Y-97799400D03*
X131114800Y-97799400D03*
X132114800Y-96799400D03*
X131114800Y-96799400D03*
X136521700Y-89220300D03*
X135521700Y-89220300D03*
X136521700Y-88220300D03*
X135521700Y-88220300D03*
X136521700Y-87220300D03*
X135521700Y-87220300D03*
X136521700Y-86220300D03*
D12*
X145161000Y-87947500D03*
D13*
X103404000Y-87884000D03*
D14*
X141224000Y-87884000D03*
D15*
X118300500Y-80896500D03*
X118300500Y-78996500D03*
D16*
X121473000Y-93980000D03*
X119573000Y-93980000D03*
D15*
X116078000Y-78933000D03*
X116078000Y-80833000D03*
D16*
X116014500Y-93980000D03*
X117914500Y-93980000D03*
X108333500Y-87439500D03*
X110233500Y-87439500D03*
D17*
X114548000Y-83126000D03*
X115348000Y-83126000D03*
X116148000Y-83126000D03*
X116948000Y-83126000D03*
X117748000Y-83126000D03*
X118548000Y-83126000D03*
X119348000Y-83126000D03*
X120148000Y-83126000D03*
D18*
X121598000Y-84576000D03*
X121598000Y-85376000D03*
X121598000Y-86176000D03*
X121598000Y-86976000D03*
X121598000Y-87776000D03*
X121598000Y-88576000D03*
X121598000Y-89376000D03*
X121598000Y-90176000D03*
D17*
X120148000Y-91626000D03*
X119348000Y-91626000D03*
X118548000Y-91626000D03*
X117748000Y-91626000D03*
X116948000Y-91626000D03*
X116148000Y-91626000D03*
X115348000Y-91626000D03*
X114548000Y-91626000D03*
D18*
X113098000Y-90176000D03*
X113098000Y-89376000D03*
X113098000Y-88576000D03*
X113098000Y-87776000D03*
X113098000Y-86976000D03*
X113098000Y-86176000D03*
X113098000Y-85376000D03*
X113098000Y-84576000D03*
D16*
X125219500Y-94234000D03*
X123319500Y-94234000D03*
D19*
X108056500Y-85788500D03*
X110256500Y-85788500D03*
D20*
X125412500Y-90446500D03*
X125412500Y-92646500D03*
X112395000Y-92181500D03*
X112395000Y-94381500D03*
X110236000Y-89578000D03*
X110236000Y-91778000D03*
D21*
X123761500Y-82462500D03*
X123761500Y-80962500D03*
X123761500Y-79462500D03*
D22*
X131508500Y-91821000D03*
D23*
X104013000Y-84328000D03*
D24*
X101473000Y-84328000D03*
X104013000Y-81788000D03*
X101473000Y-81788000D03*
X104013000Y-79248000D03*
X101473000Y-79248000D03*
D25*
X140312140Y-96139000D03*
X137309860Y-96139000D03*
D15*
X140335000Y-91696500D03*
X140335000Y-93596500D03*
D26*
X136398000Y-93467000D03*
X136398000Y-92517000D03*
X136398000Y-91567000D03*
X138598000Y-91567000D03*
X138598000Y-93467000D03*
D27*
X106331000Y-96837500D03*
D28*
X108331000Y-96837500D03*
X110331000Y-96837500D03*
D19*
X108247000Y-94297500D03*
X110447000Y-94297500D03*
D27*
X116871500Y-96837500D03*
D28*
X114871500Y-96837500D03*
X112871500Y-96837500D03*
D29*
X121031000Y-96901000D03*
D30*
X123571000Y-96901000D03*
X126111000Y-96901000D03*
X128651000Y-96901000D03*
D12*
X99822000Y-88011000D03*
D11*
X135521700Y-86220300D03*
X143366011Y-93009419D03*
X118262400Y-89763600D03*
X123634500Y-92900500D03*
X106235500Y-87122000D03*
X134302498Y-88836500D03*
X126081964Y-81216500D03*
X119951500Y-80010000D03*
X138239500Y-90106500D03*
X105631961Y-84772500D03*
X123267437Y-90888995D03*
X111569500Y-84264500D03*
X117909709Y-85714390D03*
X122237500Y-91821000D03*
X111569500Y-82994500D03*
X123877437Y-89828216D03*
X111442500Y-80518000D03*
X114236498Y-79121000D03*
X133848800Y-79285645D03*
X133361693Y-82605009D03*
X133349876Y-83704958D03*
X133338616Y-85045776D03*
X133350426Y-86145724D03*
X133350000Y-87376000D03*
X123825734Y-88701010D03*
X111511043Y-81615874D03*
X115106419Y-89427081D03*
X114935000Y-87947500D03*
X133096000Y-93535496D03*
X111569500Y-89471500D03*
X111592205Y-85364278D03*
D31*
X140260664Y-98874521D02*
X143366011Y-95769174D01*
X104052319Y-98874521D02*
X140260664Y-98874521D01*
X101888999Y-91119001D02*
X101888999Y-96711201D01*
X143366011Y-95769174D02*
X143366011Y-93009419D01*
X103404000Y-89604000D02*
X101888999Y-91119001D01*
X101888999Y-96711201D02*
X104052319Y-98874521D01*
X112395000Y-94381500D02*
X112395000Y-94231500D01*
X112395000Y-94231500D02*
X111066501Y-92903001D01*
X111066501Y-92903001D02*
X106703001Y-92903001D01*
X106703001Y-92903001D02*
X103404000Y-89604000D01*
X103404000Y-89604000D02*
X103404000Y-87884000D01*
X136398000Y-92517000D02*
X135418000Y-92517000D01*
X135418000Y-92517000D02*
X135121701Y-92220701D01*
X135121701Y-92220701D02*
X135121701Y-89620299D01*
X135121701Y-89620299D02*
X135521700Y-89220300D01*
X117176600Y-89763600D02*
X118262400Y-89763600D01*
X116948000Y-89535000D02*
X117176600Y-89763600D01*
X121473000Y-93980000D02*
X121473000Y-93093500D01*
X121473000Y-93093500D02*
X121666000Y-92900500D01*
X121666000Y-92900500D02*
X123634500Y-92900500D01*
X108333500Y-87439500D02*
X108333500Y-88585000D01*
X108333500Y-88585000D02*
X109326500Y-89578000D01*
X109326500Y-89578000D02*
X110236000Y-89578000D01*
X140335000Y-93596500D02*
X141160000Y-93596500D01*
X141160000Y-93596500D02*
X142493999Y-92262501D01*
X142493999Y-89153999D02*
X141224000Y-87884000D01*
X142493999Y-92262501D02*
X142493999Y-89153999D01*
X140335000Y-93596500D02*
X140335000Y-96116140D01*
X140335000Y-96116140D02*
X140312140Y-96139000D01*
X118300500Y-78996500D02*
X123295500Y-78996500D01*
X123295500Y-78996500D02*
X123761500Y-79462500D01*
X116078000Y-78933000D02*
X118237000Y-78933000D01*
X118237000Y-78933000D02*
X118300500Y-78996500D01*
X108333500Y-87439500D02*
X106553000Y-87439500D01*
X106553000Y-87439500D02*
X106235500Y-87122000D01*
X116948000Y-85176000D02*
X116948000Y-89535000D01*
X116948000Y-89535000D02*
X116948000Y-91626000D01*
X122661500Y-79462500D02*
X123761500Y-79462500D01*
X140312140Y-96139000D02*
X139988290Y-96139000D01*
X140464500Y-93726000D02*
X140335000Y-93596500D01*
X116948000Y-91626000D02*
X116948000Y-93046500D01*
X116948000Y-93046500D02*
X116014500Y-93980000D01*
X117748000Y-83126000D02*
X117748000Y-84376000D01*
X117748000Y-84376000D02*
X116948000Y-85176000D01*
X116148000Y-83126000D02*
X116148000Y-84376000D01*
X116148000Y-84376000D02*
X116948000Y-85176000D01*
X130122500Y-88836500D02*
X134302498Y-88836500D01*
X134302498Y-81910852D02*
X134302498Y-88836500D01*
X126312500Y-92646500D02*
X130122500Y-88836500D01*
X133608146Y-81216500D02*
X134302498Y-81910852D01*
X126081964Y-81216500D02*
X133608146Y-81216500D01*
X125412500Y-92646500D02*
X126312500Y-92646500D01*
X125144499Y-95134001D02*
X125219500Y-95059000D01*
X125219500Y-95059000D02*
X125219500Y-94234000D01*
X121031000Y-96901000D02*
X121454809Y-96901000D01*
X123221808Y-95134001D02*
X125144499Y-95134001D01*
X121454809Y-96901000D02*
X123221808Y-95134001D01*
X121031000Y-96901000D02*
X119717400Y-96901000D01*
X119717400Y-96901000D02*
X118580899Y-98037501D01*
X118580899Y-98037501D02*
X106406001Y-98037501D01*
X106406001Y-98037501D02*
X106331000Y-97962500D01*
X106331000Y-97962500D02*
X106331000Y-96837500D01*
X101473000Y-84328000D02*
X102997000Y-85852000D01*
X102997000Y-85852000D02*
X107993000Y-85852000D01*
X107993000Y-85852000D02*
X108056500Y-85788500D01*
X118300500Y-80896500D02*
X119065000Y-80896500D01*
X119065000Y-80896500D02*
X119951500Y-80010000D01*
X106331000Y-96837500D02*
X106331000Y-96213500D01*
X106331000Y-96213500D02*
X108247000Y-94297500D01*
X125412500Y-92646500D02*
X125412500Y-94041000D01*
X125412500Y-94041000D02*
X125219500Y-94234000D01*
X118300500Y-80896500D02*
X116141500Y-80896500D01*
X116141500Y-80896500D02*
X116078000Y-80833000D01*
X116948000Y-83126000D02*
X116948000Y-81703000D01*
X116948000Y-81703000D02*
X116078000Y-80833000D01*
X118548000Y-83126000D02*
X118548000Y-81144000D01*
X118548000Y-81144000D02*
X118300500Y-80896500D01*
X119827000Y-95059000D02*
X119573000Y-94805000D01*
X119573000Y-94805000D02*
X119573000Y-93980000D01*
X122236135Y-95059000D02*
X119827000Y-95059000D01*
X123061135Y-94234000D02*
X122236135Y-95059000D01*
X123319500Y-94234000D02*
X123061135Y-94234000D01*
X119348000Y-91626000D02*
X119348000Y-93755000D01*
X119348000Y-93755000D02*
X119573000Y-93980000D01*
X117748000Y-91626000D02*
X117748000Y-93813500D01*
X117748000Y-93813500D02*
X117914500Y-93980000D01*
X137477500Y-91666500D02*
X137477500Y-90887498D01*
X137477500Y-90887498D02*
X138239500Y-90125498D01*
X138239500Y-90125498D02*
X138239500Y-90106500D01*
X137477500Y-91666500D02*
X137477500Y-93367500D01*
X137477500Y-93367500D02*
X137378000Y-93467000D01*
X137378000Y-93467000D02*
X136398000Y-93467000D01*
X136398000Y-91567000D02*
X137378000Y-91567000D01*
X137378000Y-91567000D02*
X137477500Y-91666500D01*
X110106500Y-85788500D02*
X109090500Y-84772500D01*
X109090500Y-84772500D02*
X105631961Y-84772500D01*
X110256500Y-85788500D02*
X110106500Y-85788500D01*
X113098000Y-86976000D02*
X110256500Y-86976000D01*
X110256500Y-86976000D02*
X110256500Y-85788500D01*
X110233500Y-87439500D02*
X110233500Y-85811500D01*
X110233500Y-85811500D02*
X110256500Y-85788500D01*
X111003815Y-84264500D02*
X111569500Y-84264500D01*
X104811001Y-83529999D02*
X110269314Y-83529999D01*
X110269314Y-83529999D02*
X111003815Y-84264500D01*
X104013000Y-84328000D02*
X104811001Y-83529999D01*
X121598000Y-90176000D02*
X122123000Y-90176000D01*
X123255432Y-90901000D02*
X123267437Y-90888995D01*
X122848000Y-90901000D02*
X123255432Y-90901000D01*
X122123000Y-90176000D02*
X122848000Y-90901000D01*
X120148000Y-87952681D02*
X117909709Y-85714390D01*
X120148000Y-91626000D02*
X120148000Y-87952681D01*
X104013000Y-81788000D02*
X110363000Y-81788000D01*
X110363000Y-81788000D02*
X111569500Y-82994500D01*
X122042500Y-91626000D02*
X122237500Y-91821000D01*
X120148000Y-91626000D02*
X122042500Y-91626000D01*
X101473000Y-81788000D02*
X100084399Y-80399399D01*
X100084399Y-80399399D02*
X100084399Y-78581471D01*
X100084399Y-78581471D02*
X100814870Y-77851000D01*
X100814870Y-77851000D02*
X108775500Y-77851000D01*
X108775500Y-77851000D02*
X111442500Y-80518000D01*
X123610216Y-89828216D02*
X123877437Y-89828216D01*
X123158000Y-89376000D02*
X123610216Y-89828216D01*
X121598000Y-89376000D02*
X123158000Y-89376000D01*
X113823000Y-79534498D02*
X114236498Y-79121000D01*
X114548000Y-82601000D02*
X113823000Y-81876000D01*
X114548000Y-83126000D02*
X114548000Y-82601000D01*
X113823000Y-81876000D02*
X113823000Y-79534498D01*
X115348000Y-83126000D02*
X115348000Y-81876000D01*
X115348000Y-81876000D02*
X115177999Y-81705999D01*
X115177999Y-81705999D02*
X115177999Y-77912999D01*
X115177999Y-77912999D02*
X115303498Y-77787500D01*
X115303498Y-77787500D02*
X132350655Y-77787500D01*
X132350655Y-77787500D02*
X133848800Y-79285645D01*
X119348000Y-83126000D02*
X119348000Y-81876000D01*
X119348000Y-81876000D02*
X120261500Y-80962500D01*
X120261500Y-80962500D02*
X123761500Y-80962500D01*
X123761500Y-82462500D02*
X120286500Y-82462500D01*
X120286500Y-82462500D02*
X120148000Y-82601000D01*
X120148000Y-82601000D02*
X120148000Y-83126000D01*
X130462998Y-84576000D02*
X132433989Y-82605009D01*
X121598000Y-84576000D02*
X130462998Y-84576000D01*
X132433989Y-82605009D02*
X133361693Y-82605009D01*
X121598000Y-85376000D02*
X130974315Y-85376000D01*
X130974315Y-85376000D02*
X132645357Y-83704958D01*
X132645357Y-83704958D02*
X133349876Y-83704958D01*
X132365214Y-85045776D02*
X133338616Y-85045776D01*
X121598000Y-86176000D02*
X131234990Y-86176000D01*
X131234990Y-86176000D02*
X132365214Y-85045776D01*
X121598000Y-86976000D02*
X131495664Y-86976000D01*
X131495664Y-86976000D02*
X132325940Y-86145724D01*
X132325940Y-86145724D02*
X133350426Y-86145724D01*
X121598000Y-87776000D02*
X132384315Y-87776000D01*
X132384315Y-87776000D02*
X132784315Y-87376000D01*
X132784315Y-87376000D02*
X133350000Y-87376000D01*
X123700724Y-88576000D02*
X123825734Y-88701010D01*
X124717010Y-88701010D02*
X123825734Y-88701010D01*
X125412500Y-89396500D02*
X124717010Y-88701010D01*
X121598000Y-88576000D02*
X123700724Y-88576000D01*
X125412500Y-90446500D02*
X125412500Y-89396500D01*
X110236000Y-91778000D02*
X111991500Y-91778000D01*
X111991500Y-91778000D02*
X112395000Y-92181500D01*
X112395000Y-92181500D02*
X112395000Y-90879000D01*
X112395000Y-90879000D02*
X113098000Y-90176000D01*
X113098000Y-84576000D02*
X113098000Y-83202831D01*
X113098000Y-83202831D02*
X111511043Y-81615874D01*
X114255338Y-88576000D02*
X115106419Y-89427081D01*
X113098000Y-88576000D02*
X114255338Y-88576000D01*
X113098000Y-87776000D02*
X114763500Y-87776000D01*
X114763500Y-87776000D02*
X114935000Y-87947500D01*
X135699504Y-96139000D02*
X133096000Y-93535496D01*
X137309860Y-96139000D02*
X135699504Y-96139000D01*
X138598000Y-93467000D02*
X138598000Y-94850860D01*
X138598000Y-94850860D02*
X137309860Y-96139000D01*
X138598000Y-91567000D02*
X140205500Y-91567000D01*
X140205500Y-91567000D02*
X140335000Y-91696500D01*
X113098000Y-89376000D02*
X111665000Y-89376000D01*
X111665000Y-89376000D02*
X111569500Y-89471500D01*
X110331000Y-96837500D02*
X110331000Y-94413500D01*
X110331000Y-94413500D02*
X110447000Y-94297500D01*
X115348000Y-92876000D02*
X114889499Y-93334501D01*
X115348000Y-91626000D02*
X115348000Y-92876000D01*
X114889499Y-94855499D02*
X116871500Y-96837500D01*
X114889499Y-93334501D02*
X114889499Y-94855499D01*
X114871500Y-96837500D02*
X113823000Y-95789000D01*
X113823000Y-95789000D02*
X113823000Y-92876000D01*
X114548000Y-92151000D02*
X114548000Y-91626000D01*
X113823000Y-92876000D02*
X114548000Y-92151000D01*
X111848000Y-86176000D02*
X111592205Y-85920205D01*
X111592205Y-85920205D02*
X111592205Y-85364278D01*
X113098000Y-86176000D02*
X111848000Y-86176000D01*
D32*
G36*
X99481944Y-77979016D02*
X99297254Y-78255425D01*
X99232399Y-78581471D01*
X99232399Y-80399399D01*
X99297254Y-80725445D01*
X99481944Y-81001854D01*
X100005441Y-81525351D01*
X99953197Y-81788000D01*
X100066662Y-82358428D01*
X100389784Y-82842013D01*
X100713031Y-83058000D01*
X100389784Y-83273987D01*
X100066662Y-83757572D01*
X99953197Y-84328000D01*
X100066662Y-84898428D01*
X100389784Y-85382013D01*
X100873369Y-85705135D01*
X101443797Y-85818600D01*
X101502203Y-85818600D01*
X101716136Y-85776046D01*
X101949519Y-86009429D01*
X101901648Y-86018437D01*
X101688247Y-86155757D01*
X101545083Y-86365283D01*
X101494717Y-86614000D01*
X101494717Y-89154000D01*
X101538437Y-89386352D01*
X101675757Y-89599753D01*
X101885283Y-89742917D01*
X102030721Y-89772369D01*
X101286544Y-90516546D01*
X101101854Y-90792955D01*
X101036999Y-91119001D01*
X101036999Y-96711201D01*
X101101854Y-97037247D01*
X101286544Y-97313656D01*
X102736888Y-98764000D01*
X99102000Y-98764000D01*
X99102000Y-77956500D01*
X99504460Y-77956500D01*
X99481944Y-77979016D01*
X99481944Y-77979016D01*
G37*
X99481944Y-77979016D02*
X99297254Y-78255425D01*
X99232399Y-78581471D01*
X99232399Y-80399399D01*
X99297254Y-80725445D01*
X99481944Y-81001854D01*
X100005441Y-81525351D01*
X99953197Y-81788000D01*
X100066662Y-82358428D01*
X100389784Y-82842013D01*
X100713031Y-83058000D01*
X100389784Y-83273987D01*
X100066662Y-83757572D01*
X99953197Y-84328000D01*
X100066662Y-84898428D01*
X100389784Y-85382013D01*
X100873369Y-85705135D01*
X101443797Y-85818600D01*
X101502203Y-85818600D01*
X101716136Y-85776046D01*
X101949519Y-86009429D01*
X101901648Y-86018437D01*
X101688247Y-86155757D01*
X101545083Y-86365283D01*
X101494717Y-86614000D01*
X101494717Y-89154000D01*
X101538437Y-89386352D01*
X101675757Y-89599753D01*
X101885283Y-89742917D01*
X102030721Y-89772369D01*
X101286544Y-90516546D01*
X101101854Y-90792955D01*
X101036999Y-91119001D01*
X101036999Y-96711201D01*
X101101854Y-97037247D01*
X101286544Y-97313656D01*
X102736888Y-98764000D01*
X99102000Y-98764000D01*
X99102000Y-77956500D01*
X99504460Y-77956500D01*
X99481944Y-77979016D01*
G36*
X145944500Y-98764000D02*
X141576095Y-98764000D01*
X143968466Y-96371629D01*
X144153156Y-96095220D01*
X144218011Y-95769174D01*
X144218011Y-93610035D01*
X144236151Y-93591927D01*
X144392832Y-93214598D01*
X144393189Y-92806032D01*
X144237167Y-92428430D01*
X143948519Y-92139279D01*
X143571190Y-91982598D01*
X143162624Y-91982241D01*
X142785022Y-92138263D01*
X142495871Y-92426911D01*
X142339190Y-92804240D01*
X142338833Y-93212806D01*
X142494855Y-93590408D01*
X142514011Y-93609597D01*
X142514011Y-95416264D01*
X141914277Y-96015998D01*
X141856812Y-96015998D01*
X142013560Y-95859250D01*
X142013560Y-95263712D01*
X141918105Y-95033263D01*
X141741727Y-94856885D01*
X141511278Y-94761430D01*
X140984568Y-94761430D01*
X141065167Y-94728045D01*
X141241545Y-94551667D01*
X141337000Y-94321218D01*
X141337000Y-93876250D01*
X141180250Y-93719500D01*
X140458000Y-93719500D01*
X140458000Y-94666750D01*
X140572285Y-94781035D01*
X140435140Y-94918180D01*
X140435140Y-96016000D01*
X140455140Y-96016000D01*
X140455140Y-96262000D01*
X140435140Y-96262000D01*
X140435140Y-97359820D01*
X140502798Y-97427478D01*
X139907754Y-98022521D01*
X129783244Y-98022521D01*
X130028135Y-97656016D01*
X130141600Y-97085588D01*
X130141600Y-96716412D01*
X130028135Y-96145984D01*
X129705013Y-95662399D01*
X129221428Y-95339277D01*
X128651000Y-95225812D01*
X128080572Y-95339277D01*
X127596987Y-95662399D01*
X127381000Y-95985646D01*
X127165013Y-95662399D01*
X126681428Y-95339277D01*
X126111000Y-95225812D01*
X126035325Y-95240865D01*
X126042184Y-95206382D01*
X126051852Y-95204563D01*
X126265253Y-95067243D01*
X126408417Y-94857717D01*
X126458783Y-94609000D01*
X126458783Y-93859000D01*
X126415063Y-93626648D01*
X126389140Y-93586362D01*
X126451417Y-93495217D01*
X126456555Y-93469846D01*
X126638546Y-93433645D01*
X126914955Y-93248955D01*
X128020800Y-92143110D01*
X129881728Y-92143110D01*
X130128825Y-92741129D01*
X130585964Y-93199067D01*
X131183552Y-93447207D01*
X131830610Y-93447772D01*
X132069162Y-93349204D01*
X132068822Y-93738883D01*
X132224844Y-94116485D01*
X132513492Y-94405636D01*
X132890821Y-94562317D01*
X132917935Y-94562341D01*
X135097049Y-96741455D01*
X135373458Y-96926145D01*
X135611966Y-96973587D01*
X135639877Y-97121922D01*
X135777197Y-97335323D01*
X135986723Y-97478487D01*
X136235440Y-97528853D01*
X138384280Y-97528853D01*
X138616632Y-97485133D01*
X138817388Y-97355950D01*
X138882553Y-97421115D01*
X139113002Y-97516570D01*
X140032390Y-97516570D01*
X140189140Y-97359820D01*
X140189140Y-96262000D01*
X140169140Y-96262000D01*
X140169140Y-96016000D01*
X140189140Y-96016000D01*
X140189140Y-94918180D01*
X140074855Y-94803895D01*
X140212000Y-94666750D01*
X140212000Y-93719500D01*
X140192000Y-93719500D01*
X140192000Y-93473500D01*
X140212000Y-93473500D01*
X140212000Y-93453500D01*
X140458000Y-93453500D01*
X140458000Y-93473500D01*
X141180250Y-93473500D01*
X141337000Y-93316750D01*
X141337000Y-92871782D01*
X141241545Y-92641333D01*
X141236613Y-92636401D01*
X141298917Y-92545217D01*
X141349283Y-92296500D01*
X141349283Y-91096500D01*
X141305563Y-90864148D01*
X141168243Y-90650747D01*
X140958717Y-90507583D01*
X140710000Y-90457217D01*
X139960000Y-90457217D01*
X139727648Y-90500937D01*
X139514247Y-90638257D01*
X139463569Y-90712427D01*
X139376717Y-90653083D01*
X139144116Y-90605981D01*
X139266321Y-90311679D01*
X139266678Y-89903113D01*
X139110656Y-89525511D01*
X138822008Y-89236360D01*
X138794128Y-89224783D01*
X140057166Y-89224783D01*
X140188937Y-89517902D01*
X140892993Y-89789630D01*
X141647443Y-89771243D01*
X142259063Y-89517902D01*
X142390834Y-89224783D01*
X141224000Y-88057948D01*
X140057166Y-89224783D01*
X138794128Y-89224783D01*
X138444679Y-89079679D01*
X138036113Y-89079322D01*
X137658511Y-89235344D01*
X137369360Y-89523992D01*
X137212679Y-89901321D01*
X137212639Y-89947449D01*
X136875045Y-90285043D01*
X136690355Y-90561452D01*
X136682147Y-90602717D01*
X135868000Y-90602717D01*
X135635648Y-90646437D01*
X135422247Y-90783757D01*
X135279083Y-90993283D01*
X135228717Y-91242000D01*
X135228717Y-91892000D01*
X135255233Y-92032920D01*
X135241000Y-92067282D01*
X135241000Y-92237250D01*
X135397750Y-92394000D01*
X135492077Y-92394000D01*
X135619283Y-92480917D01*
X135794879Y-92516476D01*
X135635648Y-92546437D01*
X135490247Y-92640000D01*
X135397750Y-92640000D01*
X135241000Y-92796750D01*
X135241000Y-92966718D01*
X135256590Y-93004356D01*
X135228717Y-93142000D01*
X135228717Y-93792000D01*
X135272437Y-94024352D01*
X135409757Y-94237753D01*
X135619283Y-94380917D01*
X135868000Y-94431283D01*
X136928000Y-94431283D01*
X137160352Y-94387563D01*
X137266902Y-94319000D01*
X137378000Y-94319000D01*
X137649598Y-94264975D01*
X137746000Y-94330845D01*
X137746000Y-94497950D01*
X137494803Y-94749147D01*
X136235440Y-94749147D01*
X136003088Y-94792867D01*
X135789687Y-94930187D01*
X135751496Y-94986082D01*
X134123156Y-93357742D01*
X134123178Y-93332109D01*
X133967156Y-92954507D01*
X133678508Y-92665356D01*
X133301179Y-92508675D01*
X132984205Y-92508398D01*
X133134707Y-92145948D01*
X133135272Y-91498890D01*
X132888175Y-90900871D01*
X132431036Y-90442933D01*
X131833448Y-90194793D01*
X131186390Y-90194228D01*
X130588371Y-90441325D01*
X130130433Y-90898464D01*
X129882293Y-91496052D01*
X129881728Y-92143110D01*
X128020800Y-92143110D01*
X130475410Y-89688500D01*
X133701882Y-89688500D01*
X133719990Y-89706640D01*
X134097319Y-89863321D01*
X134505885Y-89863678D01*
X134883487Y-89707656D01*
X135172638Y-89419008D01*
X135329319Y-89041679D01*
X135329676Y-88633113D01*
X135173654Y-88255511D01*
X135154498Y-88236322D01*
X135154498Y-87552993D01*
X139318370Y-87552993D01*
X139336757Y-88307443D01*
X139590098Y-88919063D01*
X139883217Y-89050834D01*
X141050052Y-87884000D01*
X141397948Y-87884000D01*
X142564783Y-89050834D01*
X142857902Y-88919063D01*
X143129630Y-88215007D01*
X143111243Y-87460557D01*
X142857902Y-86848937D01*
X142564783Y-86717166D01*
X141397948Y-87884000D01*
X141050052Y-87884000D01*
X139883217Y-86717166D01*
X139590098Y-86848937D01*
X139318370Y-87552993D01*
X135154498Y-87552993D01*
X135154498Y-86543217D01*
X140057166Y-86543217D01*
X141224000Y-87710052D01*
X142390834Y-86543217D01*
X142259063Y-86250098D01*
X141555007Y-85978370D01*
X140800557Y-85996757D01*
X140188937Y-86250098D01*
X140057166Y-86543217D01*
X135154498Y-86543217D01*
X135154498Y-81910852D01*
X135089643Y-81584806D01*
X134904953Y-81308397D01*
X134210601Y-80614045D01*
X133934192Y-80429355D01*
X133608146Y-80364500D01*
X126682580Y-80364500D01*
X126664472Y-80346360D01*
X126287143Y-80189679D01*
X125878577Y-80189322D01*
X125789996Y-80225923D01*
X125787957Y-80222755D01*
X125793045Y-80217667D01*
X125888500Y-79987218D01*
X125888500Y-79742250D01*
X125731750Y-79585500D01*
X123884500Y-79585500D01*
X123884500Y-79605500D01*
X123638500Y-79605500D01*
X123638500Y-79585500D01*
X121791250Y-79585500D01*
X121634500Y-79742250D01*
X121634500Y-79987218D01*
X121685565Y-80110500D01*
X120978412Y-80110500D01*
X120978678Y-79806613D01*
X120822656Y-79429011D01*
X120534008Y-79139860D01*
X120156679Y-78983179D01*
X119748113Y-78982822D01*
X119370511Y-79138844D01*
X119267713Y-79241463D01*
X119145750Y-79119500D01*
X118423500Y-79119500D01*
X118423500Y-79139500D01*
X118177500Y-79139500D01*
X118177500Y-79119500D01*
X117455250Y-79119500D01*
X117298500Y-79276250D01*
X117298500Y-79721218D01*
X117393955Y-79951667D01*
X117398887Y-79956599D01*
X117338826Y-80044500D01*
X117056814Y-80044500D01*
X117048563Y-80000648D01*
X116979457Y-79893255D01*
X116984545Y-79888167D01*
X117080000Y-79657718D01*
X117080000Y-79212750D01*
X116923250Y-79056000D01*
X116201000Y-79056000D01*
X116201000Y-79076000D01*
X116029999Y-79076000D01*
X116029999Y-78790000D01*
X116201000Y-78790000D01*
X116201000Y-78810000D01*
X116923250Y-78810000D01*
X117080000Y-78653250D01*
X117080000Y-78639500D01*
X117298500Y-78639500D01*
X117298500Y-78716750D01*
X117455250Y-78873500D01*
X118177500Y-78873500D01*
X118177500Y-78853500D01*
X118423500Y-78853500D01*
X118423500Y-78873500D01*
X119145750Y-78873500D01*
X119302500Y-78716750D01*
X119302500Y-78639500D01*
X121797788Y-78639500D01*
X121729955Y-78707333D01*
X121634500Y-78937782D01*
X121634500Y-79182750D01*
X121791250Y-79339500D01*
X123638500Y-79339500D01*
X123638500Y-79319500D01*
X123884500Y-79319500D01*
X123884500Y-79339500D01*
X125731750Y-79339500D01*
X125888500Y-79182750D01*
X125888500Y-78937782D01*
X125793045Y-78707333D01*
X125725212Y-78639500D01*
X131997745Y-78639500D01*
X132821644Y-79463399D01*
X132821622Y-79489032D01*
X132977644Y-79866634D01*
X133266292Y-80155785D01*
X133643621Y-80312466D01*
X134052187Y-80312823D01*
X134429789Y-80156801D01*
X134718940Y-79868153D01*
X134875621Y-79490824D01*
X134875978Y-79082258D01*
X134719956Y-78704656D01*
X134431308Y-78415505D01*
X134053979Y-78258824D01*
X134026865Y-78258800D01*
X133724565Y-77956500D01*
X145944500Y-77956500D01*
X145944500Y-98764000D01*
X145944500Y-98764000D01*
G37*
X145944500Y-98764000D02*
X141576095Y-98764000D01*
X143968466Y-96371629D01*
X144153156Y-96095220D01*
X144218011Y-95769174D01*
X144218011Y-93610035D01*
X144236151Y-93591927D01*
X144392832Y-93214598D01*
X144393189Y-92806032D01*
X144237167Y-92428430D01*
X143948519Y-92139279D01*
X143571190Y-91982598D01*
X143162624Y-91982241D01*
X142785022Y-92138263D01*
X142495871Y-92426911D01*
X142339190Y-92804240D01*
X142338833Y-93212806D01*
X142494855Y-93590408D01*
X142514011Y-93609597D01*
X142514011Y-95416264D01*
X141914277Y-96015998D01*
X141856812Y-96015998D01*
X142013560Y-95859250D01*
X142013560Y-95263712D01*
X141918105Y-95033263D01*
X141741727Y-94856885D01*
X141511278Y-94761430D01*
X140984568Y-94761430D01*
X141065167Y-94728045D01*
X141241545Y-94551667D01*
X141337000Y-94321218D01*
X141337000Y-93876250D01*
X141180250Y-93719500D01*
X140458000Y-93719500D01*
X140458000Y-94666750D01*
X140572285Y-94781035D01*
X140435140Y-94918180D01*
X140435140Y-96016000D01*
X140455140Y-96016000D01*
X140455140Y-96262000D01*
X140435140Y-96262000D01*
X140435140Y-97359820D01*
X140502798Y-97427478D01*
X139907754Y-98022521D01*
X129783244Y-98022521D01*
X130028135Y-97656016D01*
X130141600Y-97085588D01*
X130141600Y-96716412D01*
X130028135Y-96145984D01*
X129705013Y-95662399D01*
X129221428Y-95339277D01*
X128651000Y-95225812D01*
X128080572Y-95339277D01*
X127596987Y-95662399D01*
X127381000Y-95985646D01*
X127165013Y-95662399D01*
X126681428Y-95339277D01*
X126111000Y-95225812D01*
X126035325Y-95240865D01*
X126042184Y-95206382D01*
X126051852Y-95204563D01*
X126265253Y-95067243D01*
X126408417Y-94857717D01*
X126458783Y-94609000D01*
X126458783Y-93859000D01*
X126415063Y-93626648D01*
X126389140Y-93586362D01*
X126451417Y-93495217D01*
X126456555Y-93469846D01*
X126638546Y-93433645D01*
X126914955Y-93248955D01*
X128020800Y-92143110D01*
X129881728Y-92143110D01*
X130128825Y-92741129D01*
X130585964Y-93199067D01*
X131183552Y-93447207D01*
X131830610Y-93447772D01*
X132069162Y-93349204D01*
X132068822Y-93738883D01*
X132224844Y-94116485D01*
X132513492Y-94405636D01*
X132890821Y-94562317D01*
X132917935Y-94562341D01*
X135097049Y-96741455D01*
X135373458Y-96926145D01*
X135611966Y-96973587D01*
X135639877Y-97121922D01*
X135777197Y-97335323D01*
X135986723Y-97478487D01*
X136235440Y-97528853D01*
X138384280Y-97528853D01*
X138616632Y-97485133D01*
X138817388Y-97355950D01*
X138882553Y-97421115D01*
X139113002Y-97516570D01*
X140032390Y-97516570D01*
X140189140Y-97359820D01*
X140189140Y-96262000D01*
X140169140Y-96262000D01*
X140169140Y-96016000D01*
X140189140Y-96016000D01*
X140189140Y-94918180D01*
X140074855Y-94803895D01*
X140212000Y-94666750D01*
X140212000Y-93719500D01*
X140192000Y-93719500D01*
X140192000Y-93473500D01*
X140212000Y-93473500D01*
X140212000Y-93453500D01*
X140458000Y-93453500D01*
X140458000Y-93473500D01*
X141180250Y-93473500D01*
X141337000Y-93316750D01*
X141337000Y-92871782D01*
X141241545Y-92641333D01*
X141236613Y-92636401D01*
X141298917Y-92545217D01*
X141349283Y-92296500D01*
X141349283Y-91096500D01*
X141305563Y-90864148D01*
X141168243Y-90650747D01*
X140958717Y-90507583D01*
X140710000Y-90457217D01*
X139960000Y-90457217D01*
X139727648Y-90500937D01*
X139514247Y-90638257D01*
X139463569Y-90712427D01*
X139376717Y-90653083D01*
X139144116Y-90605981D01*
X139266321Y-90311679D01*
X139266678Y-89903113D01*
X139110656Y-89525511D01*
X138822008Y-89236360D01*
X138794128Y-89224783D01*
X140057166Y-89224783D01*
X140188937Y-89517902D01*
X140892993Y-89789630D01*
X141647443Y-89771243D01*
X142259063Y-89517902D01*
X142390834Y-89224783D01*
X141224000Y-88057948D01*
X140057166Y-89224783D01*
X138794128Y-89224783D01*
X138444679Y-89079679D01*
X138036113Y-89079322D01*
X137658511Y-89235344D01*
X137369360Y-89523992D01*
X137212679Y-89901321D01*
X137212639Y-89947449D01*
X136875045Y-90285043D01*
X136690355Y-90561452D01*
X136682147Y-90602717D01*
X135868000Y-90602717D01*
X135635648Y-90646437D01*
X135422247Y-90783757D01*
X135279083Y-90993283D01*
X135228717Y-91242000D01*
X135228717Y-91892000D01*
X135255233Y-92032920D01*
X135241000Y-92067282D01*
X135241000Y-92237250D01*
X135397750Y-92394000D01*
X135492077Y-92394000D01*
X135619283Y-92480917D01*
X135794879Y-92516476D01*
X135635648Y-92546437D01*
X135490247Y-92640000D01*
X135397750Y-92640000D01*
X135241000Y-92796750D01*
X135241000Y-92966718D01*
X135256590Y-93004356D01*
X135228717Y-93142000D01*
X135228717Y-93792000D01*
X135272437Y-94024352D01*
X135409757Y-94237753D01*
X135619283Y-94380917D01*
X135868000Y-94431283D01*
X136928000Y-94431283D01*
X137160352Y-94387563D01*
X137266902Y-94319000D01*
X137378000Y-94319000D01*
X137649598Y-94264975D01*
X137746000Y-94330845D01*
X137746000Y-94497950D01*
X137494803Y-94749147D01*
X136235440Y-94749147D01*
X136003088Y-94792867D01*
X135789687Y-94930187D01*
X135751496Y-94986082D01*
X134123156Y-93357742D01*
X134123178Y-93332109D01*
X133967156Y-92954507D01*
X133678508Y-92665356D01*
X133301179Y-92508675D01*
X132984205Y-92508398D01*
X133134707Y-92145948D01*
X133135272Y-91498890D01*
X132888175Y-90900871D01*
X132431036Y-90442933D01*
X131833448Y-90194793D01*
X131186390Y-90194228D01*
X130588371Y-90441325D01*
X130130433Y-90898464D01*
X129882293Y-91496052D01*
X129881728Y-92143110D01*
X128020800Y-92143110D01*
X130475410Y-89688500D01*
X133701882Y-89688500D01*
X133719990Y-89706640D01*
X134097319Y-89863321D01*
X134505885Y-89863678D01*
X134883487Y-89707656D01*
X135172638Y-89419008D01*
X135329319Y-89041679D01*
X135329676Y-88633113D01*
X135173654Y-88255511D01*
X135154498Y-88236322D01*
X135154498Y-87552993D01*
X139318370Y-87552993D01*
X139336757Y-88307443D01*
X139590098Y-88919063D01*
X139883217Y-89050834D01*
X141050052Y-87884000D01*
X141397948Y-87884000D01*
X142564783Y-89050834D01*
X142857902Y-88919063D01*
X143129630Y-88215007D01*
X143111243Y-87460557D01*
X142857902Y-86848937D01*
X142564783Y-86717166D01*
X141397948Y-87884000D01*
X141050052Y-87884000D01*
X139883217Y-86717166D01*
X139590098Y-86848937D01*
X139318370Y-87552993D01*
X135154498Y-87552993D01*
X135154498Y-86543217D01*
X140057166Y-86543217D01*
X141224000Y-87710052D01*
X142390834Y-86543217D01*
X142259063Y-86250098D01*
X141555007Y-85978370D01*
X140800557Y-85996757D01*
X140188937Y-86250098D01*
X140057166Y-86543217D01*
X135154498Y-86543217D01*
X135154498Y-81910852D01*
X135089643Y-81584806D01*
X134904953Y-81308397D01*
X134210601Y-80614045D01*
X133934192Y-80429355D01*
X133608146Y-80364500D01*
X126682580Y-80364500D01*
X126664472Y-80346360D01*
X126287143Y-80189679D01*
X125878577Y-80189322D01*
X125789996Y-80225923D01*
X125787957Y-80222755D01*
X125793045Y-80217667D01*
X125888500Y-79987218D01*
X125888500Y-79742250D01*
X125731750Y-79585500D01*
X123884500Y-79585500D01*
X123884500Y-79605500D01*
X123638500Y-79605500D01*
X123638500Y-79585500D01*
X121791250Y-79585500D01*
X121634500Y-79742250D01*
X121634500Y-79987218D01*
X121685565Y-80110500D01*
X120978412Y-80110500D01*
X120978678Y-79806613D01*
X120822656Y-79429011D01*
X120534008Y-79139860D01*
X120156679Y-78983179D01*
X119748113Y-78982822D01*
X119370511Y-79138844D01*
X119267713Y-79241463D01*
X119145750Y-79119500D01*
X118423500Y-79119500D01*
X118423500Y-79139500D01*
X118177500Y-79139500D01*
X118177500Y-79119500D01*
X117455250Y-79119500D01*
X117298500Y-79276250D01*
X117298500Y-79721218D01*
X117393955Y-79951667D01*
X117398887Y-79956599D01*
X117338826Y-80044500D01*
X117056814Y-80044500D01*
X117048563Y-80000648D01*
X116979457Y-79893255D01*
X116984545Y-79888167D01*
X117080000Y-79657718D01*
X117080000Y-79212750D01*
X116923250Y-79056000D01*
X116201000Y-79056000D01*
X116201000Y-79076000D01*
X116029999Y-79076000D01*
X116029999Y-78790000D01*
X116201000Y-78790000D01*
X116201000Y-78810000D01*
X116923250Y-78810000D01*
X117080000Y-78653250D01*
X117080000Y-78639500D01*
X117298500Y-78639500D01*
X117298500Y-78716750D01*
X117455250Y-78873500D01*
X118177500Y-78873500D01*
X118177500Y-78853500D01*
X118423500Y-78853500D01*
X118423500Y-78873500D01*
X119145750Y-78873500D01*
X119302500Y-78716750D01*
X119302500Y-78639500D01*
X121797788Y-78639500D01*
X121729955Y-78707333D01*
X121634500Y-78937782D01*
X121634500Y-79182750D01*
X121791250Y-79339500D01*
X123638500Y-79339500D01*
X123638500Y-79319500D01*
X123884500Y-79319500D01*
X123884500Y-79339500D01*
X125731750Y-79339500D01*
X125888500Y-79182750D01*
X125888500Y-78937782D01*
X125793045Y-78707333D01*
X125725212Y-78639500D01*
X131997745Y-78639500D01*
X132821644Y-79463399D01*
X132821622Y-79489032D01*
X132977644Y-79866634D01*
X133266292Y-80155785D01*
X133643621Y-80312466D01*
X134052187Y-80312823D01*
X134429789Y-80156801D01*
X134718940Y-79868153D01*
X134875621Y-79490824D01*
X134875978Y-79082258D01*
X134719956Y-78704656D01*
X134431308Y-78415505D01*
X134053979Y-78258824D01*
X134026865Y-78258800D01*
X133724565Y-77956500D01*
X145944500Y-77956500D01*
X145944500Y-98764000D01*
G36*
X123694000Y-96778000D02*
X123714000Y-96778000D01*
X123714000Y-97024000D01*
X123694000Y-97024000D01*
X123694000Y-97044000D01*
X123448000Y-97044000D01*
X123448000Y-97024000D01*
X123428000Y-97024000D01*
X123428000Y-96778000D01*
X123448000Y-96778000D01*
X123448000Y-96758000D01*
X123694000Y-96758000D01*
X123694000Y-96778000D01*
X123694000Y-96778000D01*
G37*
X123694000Y-96778000D02*
X123714000Y-96778000D01*
X123714000Y-97024000D01*
X123694000Y-97024000D01*
X123694000Y-97044000D01*
X123448000Y-97044000D01*
X123448000Y-97024000D01*
X123428000Y-97024000D01*
X123428000Y-96778000D01*
X123448000Y-96778000D01*
X123448000Y-96758000D01*
X123694000Y-96758000D01*
X123694000Y-96778000D01*
G36*
X109388757Y-95193253D02*
X109479000Y-95254914D01*
X109479000Y-95848312D01*
X109227861Y-96099013D01*
X109216801Y-96125648D01*
X108504948Y-96837500D01*
X108519091Y-96851643D01*
X108345143Y-97025591D01*
X108331000Y-97011448D01*
X108316858Y-97025591D01*
X108142910Y-96851643D01*
X108157052Y-96837500D01*
X108142909Y-96823358D01*
X108316858Y-96649410D01*
X108331000Y-96663552D01*
X109067295Y-95927256D01*
X109008424Y-95695846D01*
X108519966Y-95523510D01*
X108209255Y-95540155D01*
X108362627Y-95386783D01*
X108847000Y-95386783D01*
X109079352Y-95343063D01*
X109292753Y-95205743D01*
X109346334Y-95127326D01*
X109388757Y-95193253D01*
X109388757Y-95193253D01*
G37*
X109388757Y-95193253D02*
X109479000Y-95254914D01*
X109479000Y-95848312D01*
X109227861Y-96099013D01*
X109216801Y-96125648D01*
X108504948Y-96837500D01*
X108519091Y-96851643D01*
X108345143Y-97025591D01*
X108331000Y-97011448D01*
X108316858Y-97025591D01*
X108142910Y-96851643D01*
X108157052Y-96837500D01*
X108142909Y-96823358D01*
X108316858Y-96649410D01*
X108331000Y-96663552D01*
X109067295Y-95927256D01*
X109008424Y-95695846D01*
X108519966Y-95523510D01*
X108209255Y-95540155D01*
X108362627Y-95386783D01*
X108847000Y-95386783D01*
X109079352Y-95343063D01*
X109292753Y-95205743D01*
X109346334Y-95127326D01*
X109388757Y-95193253D01*
G36*
X124323217Y-91046500D02*
X124366937Y-91278852D01*
X124504257Y-91492253D01*
X124582674Y-91545834D01*
X124516747Y-91588257D01*
X124373583Y-91797783D01*
X124323217Y-92046500D01*
X124323217Y-93246500D01*
X124332964Y-93298303D01*
X124269390Y-93339212D01*
X124168217Y-93270083D01*
X123919500Y-93219717D01*
X122719500Y-93219717D01*
X122597403Y-93242691D01*
X122428167Y-93073455D01*
X122197718Y-92978000D01*
X121752750Y-92978000D01*
X121596000Y-93134750D01*
X121596000Y-93857000D01*
X121616000Y-93857000D01*
X121616000Y-94103000D01*
X121596000Y-94103000D01*
X121596000Y-94123000D01*
X121350000Y-94123000D01*
X121350000Y-94103000D01*
X121330000Y-94103000D01*
X121330000Y-93857000D01*
X121350000Y-93857000D01*
X121350000Y-93134750D01*
X121193250Y-92978000D01*
X120748282Y-92978000D01*
X120677466Y-93007333D01*
X120868753Y-92884243D01*
X121011917Y-92674717D01*
X121051753Y-92478000D01*
X121442223Y-92478000D01*
X121654992Y-92691140D01*
X122032321Y-92847821D01*
X122440887Y-92848178D01*
X122818489Y-92692156D01*
X123107640Y-92403508D01*
X123264321Y-92026179D01*
X123264417Y-91915993D01*
X123470824Y-91916173D01*
X123848426Y-91760151D01*
X124137577Y-91471503D01*
X124294258Y-91094174D01*
X124294544Y-90767087D01*
X124323217Y-90755239D01*
X124323217Y-91046500D01*
X124323217Y-91046500D01*
G37*
X124323217Y-91046500D02*
X124366937Y-91278852D01*
X124504257Y-91492253D01*
X124582674Y-91545834D01*
X124516747Y-91588257D01*
X124373583Y-91797783D01*
X124323217Y-92046500D01*
X124323217Y-93246500D01*
X124332964Y-93298303D01*
X124269390Y-93339212D01*
X124168217Y-93270083D01*
X123919500Y-93219717D01*
X122719500Y-93219717D01*
X122597403Y-93242691D01*
X122428167Y-93073455D01*
X122197718Y-92978000D01*
X121752750Y-92978000D01*
X121596000Y-93134750D01*
X121596000Y-93857000D01*
X121616000Y-93857000D01*
X121616000Y-94103000D01*
X121596000Y-94103000D01*
X121596000Y-94123000D01*
X121350000Y-94123000D01*
X121350000Y-94103000D01*
X121330000Y-94103000D01*
X121330000Y-93857000D01*
X121350000Y-93857000D01*
X121350000Y-93134750D01*
X121193250Y-92978000D01*
X120748282Y-92978000D01*
X120677466Y-93007333D01*
X120868753Y-92884243D01*
X121011917Y-92674717D01*
X121051753Y-92478000D01*
X121442223Y-92478000D01*
X121654992Y-92691140D01*
X122032321Y-92847821D01*
X122440887Y-92848178D01*
X122818489Y-92692156D01*
X123107640Y-92403508D01*
X123264321Y-92026179D01*
X123264417Y-91915993D01*
X123470824Y-91916173D01*
X123848426Y-91760151D01*
X124137577Y-91471503D01*
X124294258Y-91094174D01*
X124294544Y-90767087D01*
X124323217Y-90755239D01*
X124323217Y-91046500D01*
G36*
X116137500Y-93857000D02*
X116157500Y-93857000D01*
X116157500Y-94103000D01*
X116137500Y-94103000D01*
X116137500Y-94123000D01*
X115891500Y-94123000D01*
X115891500Y-94103000D01*
X115871500Y-94103000D01*
X115871500Y-93857000D01*
X115891500Y-93857000D01*
X115891500Y-93837000D01*
X116137500Y-93837000D01*
X116137500Y-93857000D01*
X116137500Y-93857000D01*
G37*
X116137500Y-93857000D02*
X116157500Y-93857000D01*
X116157500Y-94103000D01*
X116137500Y-94103000D01*
X116137500Y-94123000D01*
X115891500Y-94123000D01*
X115891500Y-94103000D01*
X115871500Y-94103000D01*
X115871500Y-93857000D01*
X115891500Y-93857000D01*
X115891500Y-93837000D01*
X116137500Y-93837000D01*
X116137500Y-93857000D01*
G36*
X107165118Y-86798265D02*
X107106500Y-86939782D01*
X107106500Y-87159750D01*
X107263250Y-87316500D01*
X108210500Y-87316500D01*
X108210500Y-87296500D01*
X108456500Y-87296500D01*
X108456500Y-87316500D01*
X108476500Y-87316500D01*
X108476500Y-87562500D01*
X108456500Y-87562500D01*
X108456500Y-88284750D01*
X108613250Y-88441500D01*
X109058218Y-88441500D01*
X109288667Y-88346045D01*
X109293599Y-88341113D01*
X109384783Y-88403417D01*
X109485498Y-88423812D01*
X109430833Y-88446455D01*
X109254455Y-88622833D01*
X109159000Y-88853282D01*
X109159000Y-89298250D01*
X109315750Y-89455000D01*
X110113000Y-89455000D01*
X110113000Y-89435000D01*
X110359000Y-89435000D01*
X110359000Y-89455000D01*
X110379000Y-89455000D01*
X110379000Y-89701000D01*
X110359000Y-89701000D01*
X110359000Y-89721000D01*
X110113000Y-89721000D01*
X110113000Y-89701000D01*
X109315750Y-89701000D01*
X109159000Y-89857750D01*
X109159000Y-90302718D01*
X109254455Y-90533167D01*
X109401579Y-90680291D01*
X109340247Y-90719757D01*
X109197083Y-90929283D01*
X109146717Y-91178000D01*
X109146717Y-92051001D01*
X107055911Y-92051001D01*
X104778525Y-89773615D01*
X104906352Y-89749563D01*
X105119753Y-89612243D01*
X105262917Y-89402717D01*
X105313283Y-89154000D01*
X105313283Y-87719250D01*
X107106500Y-87719250D01*
X107106500Y-87939218D01*
X107201955Y-88169667D01*
X107378333Y-88346045D01*
X107608782Y-88441500D01*
X108053750Y-88441500D01*
X108210500Y-88284750D01*
X108210500Y-87562500D01*
X107263250Y-87562500D01*
X107106500Y-87719250D01*
X105313283Y-87719250D01*
X105313283Y-86704000D01*
X107027157Y-86704000D01*
X107165118Y-86798265D01*
X107165118Y-86798265D01*
G37*
X107165118Y-86798265D02*
X107106500Y-86939782D01*
X107106500Y-87159750D01*
X107263250Y-87316500D01*
X108210500Y-87316500D01*
X108210500Y-87296500D01*
X108456500Y-87296500D01*
X108456500Y-87316500D01*
X108476500Y-87316500D01*
X108476500Y-87562500D01*
X108456500Y-87562500D01*
X108456500Y-88284750D01*
X108613250Y-88441500D01*
X109058218Y-88441500D01*
X109288667Y-88346045D01*
X109293599Y-88341113D01*
X109384783Y-88403417D01*
X109485498Y-88423812D01*
X109430833Y-88446455D01*
X109254455Y-88622833D01*
X109159000Y-88853282D01*
X109159000Y-89298250D01*
X109315750Y-89455000D01*
X110113000Y-89455000D01*
X110113000Y-89435000D01*
X110359000Y-89435000D01*
X110359000Y-89455000D01*
X110379000Y-89455000D01*
X110379000Y-89701000D01*
X110359000Y-89701000D01*
X110359000Y-89721000D01*
X110113000Y-89721000D01*
X110113000Y-89701000D01*
X109315750Y-89701000D01*
X109159000Y-89857750D01*
X109159000Y-90302718D01*
X109254455Y-90533167D01*
X109401579Y-90680291D01*
X109340247Y-90719757D01*
X109197083Y-90929283D01*
X109146717Y-91178000D01*
X109146717Y-92051001D01*
X107055911Y-92051001D01*
X104778525Y-89773615D01*
X104906352Y-89749563D01*
X105119753Y-89612243D01*
X105262917Y-89402717D01*
X105313283Y-89154000D01*
X105313283Y-87719250D01*
X107106500Y-87719250D01*
X107106500Y-87939218D01*
X107201955Y-88169667D01*
X107378333Y-88346045D01*
X107608782Y-88441500D01*
X108053750Y-88441500D01*
X108210500Y-88284750D01*
X108210500Y-87562500D01*
X107263250Y-87562500D01*
X107106500Y-87719250D01*
X105313283Y-87719250D01*
X105313283Y-86704000D01*
X107027157Y-86704000D01*
X107165118Y-86798265D01*
G36*
X117814757Y-84371753D02*
X117914989Y-84440239D01*
X118027750Y-84553000D01*
X118147718Y-84553000D01*
X118168938Y-84544210D01*
X118273000Y-84565283D01*
X118823000Y-84565283D01*
X118952588Y-84540899D01*
X119073000Y-84565283D01*
X119623000Y-84565283D01*
X119752588Y-84540899D01*
X119873000Y-84565283D01*
X120158717Y-84565283D01*
X120158717Y-84851000D01*
X120183101Y-84980588D01*
X120158717Y-85101000D01*
X120158717Y-85651000D01*
X120183101Y-85780588D01*
X120158717Y-85901000D01*
X120158717Y-86451000D01*
X120183101Y-86580588D01*
X120158717Y-86701000D01*
X120158717Y-86758488D01*
X118936865Y-85536636D01*
X118936887Y-85511003D01*
X118780865Y-85133401D01*
X118492217Y-84844250D01*
X118114888Y-84687569D01*
X117706322Y-84687212D01*
X117328720Y-84843234D01*
X117039569Y-85131882D01*
X116882888Y-85509211D01*
X116882531Y-85917777D01*
X117038553Y-86295379D01*
X117327201Y-86584530D01*
X117704530Y-86741211D01*
X117731644Y-86741235D01*
X119296000Y-88305591D01*
X119296000Y-90186717D01*
X119073000Y-90186717D01*
X118943412Y-90211101D01*
X118823000Y-90186717D01*
X118273000Y-90186717D01*
X118143412Y-90211101D01*
X118023000Y-90186717D01*
X117473000Y-90186717D01*
X117366461Y-90206764D01*
X117347718Y-90199000D01*
X117227750Y-90199000D01*
X117116292Y-90310458D01*
X117027247Y-90367757D01*
X116947916Y-90483860D01*
X116881243Y-90380247D01*
X116781011Y-90311761D01*
X116668250Y-90199000D01*
X116548282Y-90199000D01*
X116527062Y-90207790D01*
X116423000Y-90186717D01*
X115873000Y-90186717D01*
X115781963Y-90203847D01*
X115976559Y-90009589D01*
X116133240Y-89632260D01*
X116133597Y-89223694D01*
X115977575Y-88846092D01*
X115733466Y-88601557D01*
X115805140Y-88530008D01*
X115961821Y-88152679D01*
X115962178Y-87744113D01*
X115806156Y-87366511D01*
X115517508Y-87077360D01*
X115140179Y-86920679D01*
X114731613Y-86920322D01*
X114722712Y-86924000D01*
X114537283Y-86924000D01*
X114537283Y-86701000D01*
X114512899Y-86571412D01*
X114537283Y-86451000D01*
X114537283Y-85901000D01*
X114512899Y-85771412D01*
X114537283Y-85651000D01*
X114537283Y-85101000D01*
X114512899Y-84971412D01*
X114537283Y-84851000D01*
X114537283Y-84565283D01*
X114823000Y-84565283D01*
X114952588Y-84540899D01*
X115073000Y-84565283D01*
X115623000Y-84565283D01*
X115729539Y-84545236D01*
X115748282Y-84553000D01*
X115868250Y-84553000D01*
X115979708Y-84441542D01*
X116068753Y-84384243D01*
X116148084Y-84268140D01*
X116214757Y-84371753D01*
X116314989Y-84440239D01*
X116427750Y-84553000D01*
X116547718Y-84553000D01*
X116568938Y-84544210D01*
X116673000Y-84565283D01*
X117223000Y-84565283D01*
X117329539Y-84545236D01*
X117348282Y-84553000D01*
X117468250Y-84553000D01*
X117579708Y-84441542D01*
X117668753Y-84384243D01*
X117748084Y-84268140D01*
X117814757Y-84371753D01*
X117814757Y-84371753D01*
G37*
X117814757Y-84371753D02*
X117914989Y-84440239D01*
X118027750Y-84553000D01*
X118147718Y-84553000D01*
X118168938Y-84544210D01*
X118273000Y-84565283D01*
X118823000Y-84565283D01*
X118952588Y-84540899D01*
X119073000Y-84565283D01*
X119623000Y-84565283D01*
X119752588Y-84540899D01*
X119873000Y-84565283D01*
X120158717Y-84565283D01*
X120158717Y-84851000D01*
X120183101Y-84980588D01*
X120158717Y-85101000D01*
X120158717Y-85651000D01*
X120183101Y-85780588D01*
X120158717Y-85901000D01*
X120158717Y-86451000D01*
X120183101Y-86580588D01*
X120158717Y-86701000D01*
X120158717Y-86758488D01*
X118936865Y-85536636D01*
X118936887Y-85511003D01*
X118780865Y-85133401D01*
X118492217Y-84844250D01*
X118114888Y-84687569D01*
X117706322Y-84687212D01*
X117328720Y-84843234D01*
X117039569Y-85131882D01*
X116882888Y-85509211D01*
X116882531Y-85917777D01*
X117038553Y-86295379D01*
X117327201Y-86584530D01*
X117704530Y-86741211D01*
X117731644Y-86741235D01*
X119296000Y-88305591D01*
X119296000Y-90186717D01*
X119073000Y-90186717D01*
X118943412Y-90211101D01*
X118823000Y-90186717D01*
X118273000Y-90186717D01*
X118143412Y-90211101D01*
X118023000Y-90186717D01*
X117473000Y-90186717D01*
X117366461Y-90206764D01*
X117347718Y-90199000D01*
X117227750Y-90199000D01*
X117116292Y-90310458D01*
X117027247Y-90367757D01*
X116947916Y-90483860D01*
X116881243Y-90380247D01*
X116781011Y-90311761D01*
X116668250Y-90199000D01*
X116548282Y-90199000D01*
X116527062Y-90207790D01*
X116423000Y-90186717D01*
X115873000Y-90186717D01*
X115781963Y-90203847D01*
X115976559Y-90009589D01*
X116133240Y-89632260D01*
X116133597Y-89223694D01*
X115977575Y-88846092D01*
X115733466Y-88601557D01*
X115805140Y-88530008D01*
X115961821Y-88152679D01*
X115962178Y-87744113D01*
X115806156Y-87366511D01*
X115517508Y-87077360D01*
X115140179Y-86920679D01*
X114731613Y-86920322D01*
X114722712Y-86924000D01*
X114537283Y-86924000D01*
X114537283Y-86701000D01*
X114512899Y-86571412D01*
X114537283Y-86451000D01*
X114537283Y-85901000D01*
X114512899Y-85771412D01*
X114537283Y-85651000D01*
X114537283Y-85101000D01*
X114512899Y-84971412D01*
X114537283Y-84851000D01*
X114537283Y-84565283D01*
X114823000Y-84565283D01*
X114952588Y-84540899D01*
X115073000Y-84565283D01*
X115623000Y-84565283D01*
X115729539Y-84545236D01*
X115748282Y-84553000D01*
X115868250Y-84553000D01*
X115979708Y-84441542D01*
X116068753Y-84384243D01*
X116148084Y-84268140D01*
X116214757Y-84371753D01*
X116314989Y-84440239D01*
X116427750Y-84553000D01*
X116547718Y-84553000D01*
X116568938Y-84544210D01*
X116673000Y-84565283D01*
X117223000Y-84565283D01*
X117329539Y-84545236D01*
X117348282Y-84553000D01*
X117468250Y-84553000D01*
X117579708Y-84441542D01*
X117668753Y-84384243D01*
X117748084Y-84268140D01*
X117814757Y-84371753D01*
G36*
X101596000Y-79125000D02*
X101616000Y-79125000D01*
X101616000Y-79371000D01*
X101596000Y-79371000D01*
X101596000Y-79391000D01*
X101350000Y-79391000D01*
X101350000Y-79371000D01*
X101330000Y-79371000D01*
X101330000Y-79125000D01*
X101350000Y-79125000D01*
X101350000Y-79105000D01*
X101596000Y-79105000D01*
X101596000Y-79125000D01*
X101596000Y-79125000D01*
G37*
X101596000Y-79125000D02*
X101616000Y-79125000D01*
X101616000Y-79371000D01*
X101596000Y-79371000D01*
X101596000Y-79391000D01*
X101350000Y-79391000D01*
X101350000Y-79371000D01*
X101330000Y-79371000D01*
X101330000Y-79125000D01*
X101350000Y-79125000D01*
X101350000Y-79105000D01*
X101596000Y-79105000D01*
X101596000Y-79125000D01*
M02*
