G04 #@! TF.FileFunction,Legend,Top*
%FSLAX46Y46*%
G04 Gerber Fmt 4.6, Leading zero omitted, Abs format (unit mm)*
G04 Created by KiCad (PCBNEW 4.0.4+e1-6308~48~ubuntu16.04.1-stable) date Wed Sep 14 18:31:55 2016*
%MOMM*%
%LPD*%
G01*
G04 APERTURE LIST*
%ADD10C,0.100000*%
%ADD11C,0.125000*%
%ADD12C,0.150000*%
%ADD13R,2.540000X2.540000*%
%ADD14C,2.540000*%
%ADD15R,0.600000X0.400000*%
%ADD16C,2.000000*%
%ADD17R,1.501140X2.148840*%
%ADD18R,0.750000X1.200000*%
%ADD19R,1.200000X0.750000*%
%ADD20R,1.270000X0.760000*%
%ADD21R,0.450000X1.450000*%
%ADD22R,3.000000X1.200000*%
%ADD23R,1.000000X3.000000*%
%ADD24C,1.998980*%
%ADD25R,1.727200X1.727200*%
%ADD26O,1.727200X1.727200*%
%ADD27R,1.727200X2.032000*%
%ADD28O,1.727200X2.032000*%
%ADD29R,2.148840X1.501140*%
%ADD30R,1.350000X1.350000*%
%ADD31C,1.350000*%
G04 APERTURE END LIST*
D10*
D11*
X124714047Y-98238500D02*
X124666428Y-98214690D01*
X124595000Y-98214690D01*
X124523571Y-98238500D01*
X124475952Y-98286119D01*
X124452143Y-98333738D01*
X124428333Y-98428976D01*
X124428333Y-98500405D01*
X124452143Y-98595643D01*
X124475952Y-98643262D01*
X124523571Y-98690881D01*
X124595000Y-98714690D01*
X124642619Y-98714690D01*
X124714047Y-98690881D01*
X124737857Y-98667071D01*
X124737857Y-98500405D01*
X124642619Y-98500405D01*
X124952143Y-98714690D02*
X124952143Y-98214690D01*
X125237857Y-98714690D01*
X125237857Y-98214690D01*
X125475953Y-98714690D02*
X125475953Y-98214690D01*
X125595000Y-98214690D01*
X125666429Y-98238500D01*
X125714048Y-98286119D01*
X125737857Y-98333738D01*
X125761667Y-98428976D01*
X125761667Y-98500405D01*
X125737857Y-98595643D01*
X125714048Y-98643262D01*
X125666429Y-98690881D01*
X125595000Y-98714690D01*
X125475953Y-98714690D01*
X129702714Y-97654951D02*
X129702714Y-97273999D01*
X129893190Y-97464475D02*
X129512238Y-97464475D01*
X129393190Y-97083522D02*
X129393190Y-96773999D01*
X129583667Y-96940665D01*
X129583667Y-96869237D01*
X129607476Y-96821618D01*
X129631286Y-96797808D01*
X129678905Y-96773999D01*
X129797952Y-96773999D01*
X129845571Y-96797808D01*
X129869381Y-96821618D01*
X129893190Y-96869237D01*
X129893190Y-97012094D01*
X129869381Y-97059713D01*
X129845571Y-97083522D01*
X129393190Y-96631142D02*
X129893190Y-96464475D01*
X129393190Y-96297809D01*
X129393190Y-96178761D02*
X129393190Y-95869238D01*
X129583667Y-96035904D01*
X129583667Y-95964476D01*
X129607476Y-95916857D01*
X129631286Y-95893047D01*
X129678905Y-95869238D01*
X129797952Y-95869238D01*
X129845571Y-95893047D01*
X129869381Y-95916857D01*
X129893190Y-95964476D01*
X129893190Y-96107333D01*
X129869381Y-96154952D01*
X129845571Y-96178761D01*
X121884358Y-98690881D02*
X121955787Y-98714690D01*
X122074834Y-98714690D01*
X122122453Y-98690881D01*
X122146263Y-98667071D01*
X122170072Y-98619452D01*
X122170072Y-98571833D01*
X122146263Y-98524214D01*
X122122453Y-98500405D01*
X122074834Y-98476595D01*
X121979596Y-98452786D01*
X121931977Y-98428976D01*
X121908168Y-98405167D01*
X121884358Y-98357548D01*
X121884358Y-98309929D01*
X121908168Y-98262310D01*
X121931977Y-98238500D01*
X121979596Y-98214690D01*
X122098644Y-98214690D01*
X122170072Y-98238500D01*
X122384358Y-98714690D02*
X122384358Y-98214690D01*
X122503405Y-98214690D01*
X122574834Y-98238500D01*
X122622453Y-98286119D01*
X122646262Y-98333738D01*
X122670072Y-98428976D01*
X122670072Y-98500405D01*
X122646262Y-98595643D01*
X122622453Y-98643262D01*
X122574834Y-98690881D01*
X122503405Y-98714690D01*
X122384358Y-98714690D01*
X122860548Y-98571833D02*
X123098643Y-98571833D01*
X122812929Y-98714690D02*
X122979596Y-98214690D01*
X123146262Y-98714690D01*
X119419762Y-98690881D02*
X119491191Y-98714690D01*
X119610238Y-98714690D01*
X119657857Y-98690881D01*
X119681667Y-98667071D01*
X119705476Y-98619452D01*
X119705476Y-98571833D01*
X119681667Y-98524214D01*
X119657857Y-98500405D01*
X119610238Y-98476595D01*
X119515000Y-98452786D01*
X119467381Y-98428976D01*
X119443572Y-98405167D01*
X119419762Y-98357548D01*
X119419762Y-98309929D01*
X119443572Y-98262310D01*
X119467381Y-98238500D01*
X119515000Y-98214690D01*
X119634048Y-98214690D01*
X119705476Y-98238500D01*
X120205476Y-98667071D02*
X120181666Y-98690881D01*
X120110238Y-98714690D01*
X120062619Y-98714690D01*
X119991190Y-98690881D01*
X119943571Y-98643262D01*
X119919762Y-98595643D01*
X119895952Y-98500405D01*
X119895952Y-98428976D01*
X119919762Y-98333738D01*
X119943571Y-98286119D01*
X119991190Y-98238500D01*
X120062619Y-98214690D01*
X120110238Y-98214690D01*
X120181666Y-98238500D01*
X120205476Y-98262310D01*
X120657857Y-98714690D02*
X120419762Y-98714690D01*
X120419762Y-98214690D01*
X105318714Y-97591451D02*
X105318714Y-97210499D01*
X105509190Y-97400975D02*
X105128238Y-97400975D01*
X105009190Y-97020022D02*
X105009190Y-96710499D01*
X105199667Y-96877165D01*
X105199667Y-96805737D01*
X105223476Y-96758118D01*
X105247286Y-96734308D01*
X105294905Y-96710499D01*
X105413952Y-96710499D01*
X105461571Y-96734308D01*
X105485381Y-96758118D01*
X105509190Y-96805737D01*
X105509190Y-96948594D01*
X105485381Y-96996213D01*
X105461571Y-97020022D01*
X105009190Y-96567642D02*
X105509190Y-96400975D01*
X105009190Y-96234309D01*
X105009190Y-96115261D02*
X105009190Y-95805738D01*
X105199667Y-95972404D01*
X105199667Y-95900976D01*
X105223476Y-95853357D01*
X105247286Y-95829547D01*
X105294905Y-95805738D01*
X105413952Y-95805738D01*
X105461571Y-95829547D01*
X105485381Y-95853357D01*
X105509190Y-95900976D01*
X105509190Y-96043833D01*
X105485381Y-96091452D01*
X105461571Y-96115261D01*
X108013547Y-98238500D02*
X107965928Y-98214690D01*
X107894500Y-98214690D01*
X107823071Y-98238500D01*
X107775452Y-98286119D01*
X107751643Y-98333738D01*
X107727833Y-98428976D01*
X107727833Y-98500405D01*
X107751643Y-98595643D01*
X107775452Y-98643262D01*
X107823071Y-98690881D01*
X107894500Y-98714690D01*
X107942119Y-98714690D01*
X108013547Y-98690881D01*
X108037357Y-98667071D01*
X108037357Y-98500405D01*
X107942119Y-98500405D01*
X108251643Y-98714690D02*
X108251643Y-98214690D01*
X108537357Y-98714690D01*
X108537357Y-98214690D01*
X108775453Y-98714690D02*
X108775453Y-98214690D01*
X108894500Y-98214690D01*
X108965929Y-98238500D01*
X109013548Y-98286119D01*
X109037357Y-98333738D01*
X109061167Y-98428976D01*
X109061167Y-98500405D01*
X109037357Y-98595643D01*
X109013548Y-98643262D01*
X108965929Y-98690881D01*
X108894500Y-98714690D01*
X108775453Y-98714690D01*
X110045548Y-98714690D02*
X110045548Y-98214690D01*
X110045548Y-98452786D02*
X110331262Y-98452786D01*
X110331262Y-98714690D02*
X110331262Y-98214690D01*
X110545548Y-98690881D02*
X110616977Y-98714690D01*
X110736024Y-98714690D01*
X110783643Y-98690881D01*
X110807453Y-98667071D01*
X110831262Y-98619452D01*
X110831262Y-98571833D01*
X110807453Y-98524214D01*
X110783643Y-98500405D01*
X110736024Y-98476595D01*
X110640786Y-98452786D01*
X110593167Y-98428976D01*
X110569358Y-98405167D01*
X110545548Y-98357548D01*
X110545548Y-98309929D01*
X110569358Y-98262310D01*
X110593167Y-98238500D01*
X110640786Y-98214690D01*
X110759834Y-98214690D01*
X110831262Y-98238500D01*
X112533953Y-98714690D02*
X112533953Y-98214690D01*
X112653000Y-98214690D01*
X112724429Y-98238500D01*
X112772048Y-98286119D01*
X112795857Y-98333738D01*
X112819667Y-98428976D01*
X112819667Y-98500405D01*
X112795857Y-98595643D01*
X112772048Y-98643262D01*
X112724429Y-98690881D01*
X112653000Y-98714690D01*
X112533953Y-98714690D01*
X113129191Y-98214690D02*
X113176810Y-98214690D01*
X113224429Y-98238500D01*
X113248238Y-98262310D01*
X113272048Y-98309929D01*
X113295857Y-98405167D01*
X113295857Y-98524214D01*
X113272048Y-98619452D01*
X113248238Y-98667071D01*
X113224429Y-98690881D01*
X113176810Y-98714690D01*
X113129191Y-98714690D01*
X113081572Y-98690881D01*
X113057762Y-98667071D01*
X113033953Y-98619452D01*
X113010143Y-98524214D01*
X113010143Y-98405167D01*
X113033953Y-98309929D01*
X113057762Y-98262310D01*
X113081572Y-98238500D01*
X113129191Y-98214690D01*
X114514358Y-98571833D02*
X114752453Y-98571833D01*
X114466739Y-98714690D02*
X114633406Y-98214690D01*
X114800072Y-98714690D01*
X115228643Y-98714690D02*
X114942929Y-98714690D01*
X115085786Y-98714690D02*
X115085786Y-98214690D01*
X115038167Y-98286119D01*
X114990548Y-98333738D01*
X114942929Y-98357548D01*
X116546358Y-98571833D02*
X116784453Y-98571833D01*
X116498739Y-98714690D02*
X116665406Y-98214690D01*
X116832072Y-98714690D01*
X117093977Y-98214690D02*
X117141596Y-98214690D01*
X117189215Y-98238500D01*
X117213024Y-98262310D01*
X117236834Y-98309929D01*
X117260643Y-98405167D01*
X117260643Y-98524214D01*
X117236834Y-98619452D01*
X117213024Y-98667071D01*
X117189215Y-98690881D01*
X117141596Y-98714690D01*
X117093977Y-98714690D01*
X117046358Y-98690881D01*
X117022548Y-98667071D01*
X116998739Y-98619452D01*
X116974929Y-98524214D01*
X116974929Y-98405167D01*
X116998739Y-98309929D01*
X117022548Y-98262310D01*
X117046358Y-98238500D01*
X117093977Y-98214690D01*
D12*
X104313500Y-90555000D02*
X104313500Y-91055000D01*
X105363500Y-91055000D02*
X105363500Y-90555000D01*
X135516620Y-91760040D02*
X135516620Y-96961960D01*
X137914380Y-96961960D02*
X137914380Y-91760040D01*
X139014200Y-90761820D02*
X137914380Y-90761820D01*
X138513820Y-90162380D02*
X138513820Y-91361260D01*
X137914380Y-91264740D02*
X135516620Y-91264740D01*
X143545000Y-95727000D02*
X143545000Y-95027000D01*
X144745000Y-95027000D02*
X144745000Y-95727000D01*
X134902500Y-94966000D02*
X134902500Y-95666000D01*
X133702500Y-95666000D02*
X133702500Y-94966000D01*
X102013500Y-91532000D02*
X101313500Y-91532000D01*
X101313500Y-90332000D02*
X102013500Y-90332000D01*
X133777500Y-92079000D02*
X133777500Y-92579000D01*
X134827500Y-92579000D02*
X134827500Y-92079000D01*
X143747000Y-91634500D02*
X143747000Y-92134500D01*
X144797000Y-92134500D02*
X144797000Y-91634500D01*
X132627500Y-79226000D02*
X133427500Y-78426000D01*
X133427500Y-78426000D02*
X137247500Y-78426000D01*
X137247500Y-78426000D02*
X137247500Y-89976000D01*
X137247500Y-89976000D02*
X132627500Y-89976000D01*
X132627500Y-89976000D02*
X132627500Y-79226000D01*
X139041000Y-95782000D02*
X139216000Y-95782000D01*
X139041000Y-92432000D02*
X139291000Y-92432000D01*
X142391000Y-92432000D02*
X142141000Y-92432000D01*
X142391000Y-95782000D02*
X142141000Y-95782000D01*
X139041000Y-95782000D02*
X139041000Y-92432000D01*
X142391000Y-95782000D02*
X142391000Y-92432000D01*
X139216000Y-95782000D02*
X139216000Y-97032000D01*
X106582000Y-94756000D02*
X106582000Y-78756000D01*
X130282000Y-94756000D02*
X106582000Y-94756000D01*
X130282000Y-78756000D02*
X130282000Y-94756000D01*
X106582000Y-78756000D02*
X130282000Y-78756000D01*
X141401800Y-81859120D02*
X141401800Y-85529428D01*
X141401800Y-85529420D02*
X145011140Y-85529420D01*
X145013680Y-85526880D02*
X145013680Y-81859120D01*
X145013684Y-81859120D02*
X141401800Y-81859120D01*
X105283000Y-83058000D02*
X105283000Y-77978000D01*
X105563000Y-85878000D02*
X104013000Y-85878000D01*
X102743000Y-85598000D02*
X102743000Y-83058000D01*
X102743000Y-83058000D02*
X105283000Y-83058000D01*
X105283000Y-77978000D02*
X100203000Y-77978000D01*
X100203000Y-77978000D02*
X100203000Y-83058000D01*
X105563000Y-85878000D02*
X105563000Y-84328000D01*
X100203000Y-85598000D02*
X102743000Y-85598000D01*
X100203000Y-83058000D02*
X100203000Y-85598000D01*
X126301500Y-95313500D02*
X118681500Y-95313500D01*
X126301500Y-97853500D02*
X118681500Y-97853500D01*
X129121500Y-98133500D02*
X127571500Y-98133500D01*
X118681500Y-95313500D02*
X118681500Y-97853500D01*
X126301500Y-97853500D02*
X126301500Y-95313500D01*
X127571500Y-95033500D02*
X129121500Y-95033500D01*
X129121500Y-95033500D02*
X129121500Y-98133500D01*
X140591540Y-80954880D02*
X145793460Y-80954880D01*
X145793460Y-78557120D02*
X140591540Y-78557120D01*
X139593320Y-77457300D02*
X139593320Y-78557120D01*
X138993880Y-77957680D02*
X140192760Y-77957680D01*
X140096240Y-78557120D02*
X140096240Y-80954880D01*
X105112820Y-92146120D02*
X99910900Y-92146120D01*
X99910900Y-94543880D02*
X105112820Y-94543880D01*
X106111040Y-95643700D02*
X106111040Y-94543880D01*
X106710480Y-95143320D02*
X105511600Y-95143320D01*
X105608120Y-94543880D02*
X105608120Y-92146120D01*
X107331000Y-97837500D02*
X107331000Y-95837500D01*
X107331000Y-95837500D02*
X111331000Y-95837500D01*
X111331000Y-95837500D02*
X111331000Y-97837500D01*
X111331000Y-97837500D02*
X107331000Y-97837500D01*
X106331000Y-98337500D02*
X104831000Y-98337500D01*
X104831000Y-98337500D02*
X104831000Y-96837500D01*
X115871500Y-95837500D02*
X115871500Y-97837500D01*
X115871500Y-97837500D02*
X111871500Y-97837500D01*
X111871500Y-97837500D02*
X111871500Y-95837500D01*
X111871500Y-95837500D02*
X115871500Y-95837500D01*
X116871500Y-95337500D02*
X118371500Y-95337500D01*
X118371500Y-95337500D02*
X118371500Y-96837500D01*
D11*
X104945667Y-89824690D02*
X104779000Y-89586595D01*
X104659953Y-89824690D02*
X104659953Y-89324690D01*
X104850429Y-89324690D01*
X104898048Y-89348500D01*
X104921857Y-89372310D01*
X104945667Y-89419929D01*
X104945667Y-89491357D01*
X104921857Y-89538976D01*
X104898048Y-89562786D01*
X104850429Y-89586595D01*
X104659953Y-89586595D01*
X105112334Y-89324690D02*
X105445667Y-89324690D01*
X105231381Y-89824690D01*
X105707690Y-91765285D02*
X106207690Y-91598618D01*
X105707690Y-91431952D01*
X105945786Y-91098619D02*
X105969595Y-91027190D01*
X105993405Y-91003381D01*
X106041024Y-90979571D01*
X106112452Y-90979571D01*
X106160071Y-91003381D01*
X106183881Y-91027190D01*
X106207690Y-91074809D01*
X106207690Y-91265285D01*
X105707690Y-91265285D01*
X105707690Y-91098619D01*
X105731500Y-91051000D01*
X105755310Y-91027190D01*
X105802929Y-91003381D01*
X105850548Y-91003381D01*
X105898167Y-91027190D01*
X105921976Y-91051000D01*
X105945786Y-91098619D01*
X105945786Y-91265285D01*
X106255310Y-90884333D02*
X106255310Y-90503381D01*
X106207690Y-90384333D02*
X105707690Y-90384333D01*
X105707690Y-90265286D01*
X105731500Y-90193857D01*
X105779119Y-90146238D01*
X105826738Y-90122429D01*
X105921976Y-90098619D01*
X105993405Y-90098619D01*
X106088643Y-90122429D01*
X106136262Y-90146238D01*
X106183881Y-90193857D01*
X106207690Y-90265286D01*
X106207690Y-90384333D01*
X106207690Y-89884333D02*
X105707690Y-89884333D01*
X106183881Y-89670048D02*
X106207690Y-89598619D01*
X106207690Y-89479572D01*
X106183881Y-89431953D01*
X106160071Y-89408143D01*
X106112452Y-89384334D01*
X106064833Y-89384334D01*
X106017214Y-89408143D01*
X105993405Y-89431953D01*
X105969595Y-89479572D01*
X105945786Y-89574810D01*
X105921976Y-89622429D01*
X105898167Y-89646238D01*
X105850548Y-89670048D01*
X105802929Y-89670048D01*
X105755310Y-89646238D01*
X105731500Y-89622429D01*
X105707690Y-89574810D01*
X105707690Y-89455762D01*
X105731500Y-89384334D01*
X135679667Y-98286071D02*
X135655857Y-98309881D01*
X135584429Y-98333690D01*
X135536810Y-98333690D01*
X135465381Y-98309881D01*
X135417762Y-98262262D01*
X135393953Y-98214643D01*
X135370143Y-98119405D01*
X135370143Y-98047976D01*
X135393953Y-97952738D01*
X135417762Y-97905119D01*
X135465381Y-97857500D01*
X135536810Y-97833690D01*
X135584429Y-97833690D01*
X135655857Y-97857500D01*
X135679667Y-97881310D01*
X136108238Y-97833690D02*
X136013000Y-97833690D01*
X135965381Y-97857500D01*
X135941572Y-97881310D01*
X135893953Y-97952738D01*
X135870143Y-98047976D01*
X135870143Y-98238452D01*
X135893953Y-98286071D01*
X135917762Y-98309881D01*
X135965381Y-98333690D01*
X136060619Y-98333690D01*
X136108238Y-98309881D01*
X136132048Y-98286071D01*
X136155857Y-98238452D01*
X136155857Y-98119405D01*
X136132048Y-98071786D01*
X136108238Y-98047976D01*
X136060619Y-98024167D01*
X135965381Y-98024167D01*
X135917762Y-98047976D01*
X135893953Y-98071786D01*
X135870143Y-98119405D01*
X136917953Y-98063857D02*
X136917953Y-98397190D01*
X136798906Y-97873381D02*
X136679858Y-98230524D01*
X136989382Y-98230524D01*
X137132239Y-97897190D02*
X137465572Y-97897190D01*
X137251286Y-98397190D01*
X137870333Y-98063857D02*
X137870333Y-98397190D01*
X137656048Y-98063857D02*
X137656048Y-98325762D01*
X137679857Y-98373381D01*
X137727476Y-98397190D01*
X137798905Y-98397190D01*
X137846524Y-98373381D01*
X137870333Y-98349571D01*
X138552074Y-90952296D02*
X138552074Y-90571344D01*
X138742550Y-90761820D02*
X138361598Y-90761820D01*
X145593571Y-96918333D02*
X145617381Y-96942143D01*
X145641190Y-97013571D01*
X145641190Y-97061190D01*
X145617381Y-97132619D01*
X145569762Y-97180238D01*
X145522143Y-97204047D01*
X145426905Y-97227857D01*
X145355476Y-97227857D01*
X145260238Y-97204047D01*
X145212619Y-97180238D01*
X145165000Y-97132619D01*
X145141190Y-97061190D01*
X145141190Y-97013571D01*
X145165000Y-96942143D01*
X145188810Y-96918333D01*
X145141190Y-96465952D02*
X145141190Y-96704047D01*
X145379286Y-96727857D01*
X145355476Y-96704047D01*
X145331667Y-96656428D01*
X145331667Y-96537381D01*
X145355476Y-96489762D01*
X145379286Y-96465952D01*
X145426905Y-96442143D01*
X145545952Y-96442143D01*
X145593571Y-96465952D01*
X145617381Y-96489762D01*
X145641190Y-96537381D01*
X145641190Y-96656428D01*
X145617381Y-96704047D01*
X145593571Y-96727857D01*
X145641190Y-95108523D02*
X145641190Y-95394237D01*
X145641190Y-95251380D02*
X145141190Y-95251380D01*
X145212619Y-95298999D01*
X145260238Y-95346618D01*
X145284048Y-95394237D01*
X145141190Y-94798999D02*
X145141190Y-94751380D01*
X145165000Y-94703761D01*
X145188810Y-94679952D01*
X145236429Y-94656142D01*
X145331667Y-94632333D01*
X145450714Y-94632333D01*
X145545952Y-94656142D01*
X145593571Y-94679952D01*
X145617381Y-94703761D01*
X145641190Y-94751380D01*
X145641190Y-94798999D01*
X145617381Y-94846618D01*
X145593571Y-94870428D01*
X145545952Y-94894237D01*
X145450714Y-94918047D01*
X145331667Y-94918047D01*
X145236429Y-94894237D01*
X145188810Y-94870428D01*
X145165000Y-94846618D01*
X145141190Y-94798999D01*
X145141190Y-94322809D02*
X145141190Y-94275190D01*
X145165000Y-94227571D01*
X145188810Y-94203762D01*
X145236429Y-94179952D01*
X145331667Y-94156143D01*
X145450714Y-94156143D01*
X145545952Y-94179952D01*
X145593571Y-94203762D01*
X145617381Y-94227571D01*
X145641190Y-94275190D01*
X145641190Y-94322809D01*
X145617381Y-94370428D01*
X145593571Y-94394238D01*
X145545952Y-94418047D01*
X145450714Y-94441857D01*
X145331667Y-94441857D01*
X145236429Y-94418047D01*
X145188810Y-94394238D01*
X145165000Y-94370428D01*
X145141190Y-94322809D01*
X145307857Y-93941857D02*
X145641190Y-93941857D01*
X145355476Y-93941857D02*
X145331667Y-93918048D01*
X145307857Y-93870429D01*
X145307857Y-93799000D01*
X145331667Y-93751381D01*
X145379286Y-93727572D01*
X145641190Y-93727572D01*
X133274571Y-96793833D02*
X133298381Y-96817643D01*
X133322190Y-96889071D01*
X133322190Y-96936690D01*
X133298381Y-97008119D01*
X133250762Y-97055738D01*
X133203143Y-97079547D01*
X133107905Y-97103357D01*
X133036476Y-97103357D01*
X132941238Y-97079547D01*
X132893619Y-97055738D01*
X132846000Y-97008119D01*
X132822190Y-96936690D01*
X132822190Y-96889071D01*
X132846000Y-96817643D01*
X132869810Y-96793833D01*
X133036476Y-96508119D02*
X133012667Y-96555738D01*
X132988857Y-96579547D01*
X132941238Y-96603357D01*
X132917429Y-96603357D01*
X132869810Y-96579547D01*
X132846000Y-96555738D01*
X132822190Y-96508119D01*
X132822190Y-96412881D01*
X132846000Y-96365262D01*
X132869810Y-96341452D01*
X132917429Y-96317643D01*
X132941238Y-96317643D01*
X132988857Y-96341452D01*
X133012667Y-96365262D01*
X133036476Y-96412881D01*
X133036476Y-96508119D01*
X133060286Y-96555738D01*
X133084095Y-96579547D01*
X133131714Y-96603357D01*
X133226952Y-96603357D01*
X133274571Y-96579547D01*
X133298381Y-96555738D01*
X133322190Y-96508119D01*
X133322190Y-96412881D01*
X133298381Y-96365262D01*
X133274571Y-96341452D01*
X133226952Y-96317643D01*
X133131714Y-96317643D01*
X133084095Y-96341452D01*
X133060286Y-96365262D01*
X133036476Y-96412881D01*
X133322190Y-95428523D02*
X133322190Y-95714237D01*
X133322190Y-95571380D02*
X132822190Y-95571380D01*
X132893619Y-95618999D01*
X132941238Y-95666618D01*
X132965048Y-95714237D01*
X132822190Y-95118999D02*
X132822190Y-95071380D01*
X132846000Y-95023761D01*
X132869810Y-94999952D01*
X132917429Y-94976142D01*
X133012667Y-94952333D01*
X133131714Y-94952333D01*
X133226952Y-94976142D01*
X133274571Y-94999952D01*
X133298381Y-95023761D01*
X133322190Y-95071380D01*
X133322190Y-95118999D01*
X133298381Y-95166618D01*
X133274571Y-95190428D01*
X133226952Y-95214237D01*
X133131714Y-95238047D01*
X133012667Y-95238047D01*
X132917429Y-95214237D01*
X132869810Y-95190428D01*
X132846000Y-95166618D01*
X132822190Y-95118999D01*
X132822190Y-94642809D02*
X132822190Y-94595190D01*
X132846000Y-94547571D01*
X132869810Y-94523762D01*
X132917429Y-94499952D01*
X133012667Y-94476143D01*
X133131714Y-94476143D01*
X133226952Y-94499952D01*
X133274571Y-94523762D01*
X133298381Y-94547571D01*
X133322190Y-94595190D01*
X133322190Y-94642809D01*
X133298381Y-94690428D01*
X133274571Y-94714238D01*
X133226952Y-94738047D01*
X133131714Y-94761857D01*
X133012667Y-94761857D01*
X132917429Y-94738047D01*
X132869810Y-94714238D01*
X132846000Y-94690428D01*
X132822190Y-94642809D01*
X132988857Y-94261857D02*
X133322190Y-94261857D01*
X133036476Y-94261857D02*
X133012667Y-94238048D01*
X132988857Y-94190429D01*
X132988857Y-94119000D01*
X133012667Y-94071381D01*
X133060286Y-94047572D01*
X133322190Y-94047572D01*
X100072072Y-89967571D02*
X100048262Y-89991381D01*
X99976834Y-90015190D01*
X99929215Y-90015190D01*
X99857786Y-89991381D01*
X99810167Y-89943762D01*
X99786358Y-89896143D01*
X99762548Y-89800905D01*
X99762548Y-89729476D01*
X99786358Y-89634238D01*
X99810167Y-89586619D01*
X99857786Y-89539000D01*
X99929215Y-89515190D01*
X99976834Y-89515190D01*
X100048262Y-89539000D01*
X100072072Y-89562810D01*
X100548262Y-90015190D02*
X100262548Y-90015190D01*
X100405405Y-90015190D02*
X100405405Y-89515190D01*
X100357786Y-89586619D01*
X100310167Y-89634238D01*
X100262548Y-89658048D01*
X101024452Y-90015190D02*
X100738738Y-90015190D01*
X100881595Y-90015190D02*
X100881595Y-89515190D01*
X100833976Y-89586619D01*
X100786357Y-89634238D01*
X100738738Y-89658048D01*
X102437477Y-90078690D02*
X102151763Y-90078690D01*
X102294620Y-90078690D02*
X102294620Y-89578690D01*
X102247001Y-89650119D01*
X102199382Y-89697738D01*
X102151763Y-89721548D01*
X102747001Y-89578690D02*
X102794620Y-89578690D01*
X102842239Y-89602500D01*
X102866048Y-89626310D01*
X102889858Y-89673929D01*
X102913667Y-89769167D01*
X102913667Y-89888214D01*
X102889858Y-89983452D01*
X102866048Y-90031071D01*
X102842239Y-90054881D01*
X102794620Y-90078690D01*
X102747001Y-90078690D01*
X102699382Y-90054881D01*
X102675572Y-90031071D01*
X102651763Y-89983452D01*
X102627953Y-89888214D01*
X102627953Y-89769167D01*
X102651763Y-89673929D01*
X102675572Y-89626310D01*
X102699382Y-89602500D01*
X102747001Y-89578690D01*
X103223191Y-89578690D02*
X103270810Y-89578690D01*
X103318429Y-89602500D01*
X103342238Y-89626310D01*
X103366048Y-89673929D01*
X103389857Y-89769167D01*
X103389857Y-89888214D01*
X103366048Y-89983452D01*
X103342238Y-90031071D01*
X103318429Y-90054881D01*
X103270810Y-90078690D01*
X103223191Y-90078690D01*
X103175572Y-90054881D01*
X103151762Y-90031071D01*
X103127953Y-89983452D01*
X103104143Y-89888214D01*
X103104143Y-89769167D01*
X103127953Y-89673929D01*
X103151762Y-89626310D01*
X103175572Y-89602500D01*
X103223191Y-89578690D01*
X103604143Y-89745357D02*
X103604143Y-90078690D01*
X103604143Y-89792976D02*
X103627952Y-89769167D01*
X103675571Y-89745357D01*
X103747000Y-89745357D01*
X103794619Y-89769167D01*
X103818428Y-89816786D01*
X103818428Y-90078690D01*
X134282667Y-91221690D02*
X134116000Y-90983595D01*
X133996953Y-91221690D02*
X133996953Y-90721690D01*
X134187429Y-90721690D01*
X134235048Y-90745500D01*
X134258857Y-90769310D01*
X134282667Y-90816929D01*
X134282667Y-90888357D01*
X134258857Y-90935976D01*
X134235048Y-90959786D01*
X134187429Y-90983595D01*
X133996953Y-90983595D01*
X134758857Y-91221690D02*
X134473143Y-91221690D01*
X134616000Y-91221690D02*
X134616000Y-90721690D01*
X134568381Y-90793119D01*
X134520762Y-90840738D01*
X134473143Y-90864548D01*
X132885690Y-92979738D02*
X133385690Y-92813071D01*
X132885690Y-92646405D01*
X133123786Y-92313072D02*
X133147595Y-92241643D01*
X133171405Y-92217834D01*
X133219024Y-92194024D01*
X133290452Y-92194024D01*
X133338071Y-92217834D01*
X133361881Y-92241643D01*
X133385690Y-92289262D01*
X133385690Y-92479738D01*
X132885690Y-92479738D01*
X132885690Y-92313072D01*
X132909500Y-92265453D01*
X132933310Y-92241643D01*
X132980929Y-92217834D01*
X133028548Y-92217834D01*
X133076167Y-92241643D01*
X133099976Y-92265453D01*
X133123786Y-92313072D01*
X133123786Y-92479738D01*
X133433310Y-92098786D02*
X133433310Y-91717834D01*
X133123786Y-91598786D02*
X133123786Y-91432120D01*
X133385690Y-91360691D02*
X133385690Y-91598786D01*
X132885690Y-91598786D01*
X132885690Y-91360691D01*
X133385690Y-91146405D02*
X132885690Y-91146405D01*
X133385690Y-90860691D01*
X132885690Y-90860691D01*
X144125167Y-90650190D02*
X143958500Y-90412095D01*
X143839453Y-90650190D02*
X143839453Y-90150190D01*
X144029929Y-90150190D01*
X144077548Y-90174000D01*
X144101357Y-90197810D01*
X144125167Y-90245429D01*
X144125167Y-90316857D01*
X144101357Y-90364476D01*
X144077548Y-90388286D01*
X144029929Y-90412095D01*
X143839453Y-90412095D01*
X144553738Y-90150190D02*
X144458500Y-90150190D01*
X144410881Y-90174000D01*
X144387072Y-90197810D01*
X144339453Y-90269238D01*
X144315643Y-90364476D01*
X144315643Y-90554952D01*
X144339453Y-90602571D01*
X144363262Y-90626381D01*
X144410881Y-90650190D01*
X144506119Y-90650190D01*
X144553738Y-90626381D01*
X144577548Y-90602571D01*
X144601357Y-90554952D01*
X144601357Y-90435905D01*
X144577548Y-90388286D01*
X144553738Y-90364476D01*
X144506119Y-90340667D01*
X144410881Y-90340667D01*
X144363262Y-90364476D01*
X144339453Y-90388286D01*
X144315643Y-90435905D01*
X145141190Y-92916238D02*
X145641190Y-92749571D01*
X145141190Y-92582905D01*
X145379286Y-92249572D02*
X145403095Y-92178143D01*
X145426905Y-92154334D01*
X145474524Y-92130524D01*
X145545952Y-92130524D01*
X145593571Y-92154334D01*
X145617381Y-92178143D01*
X145641190Y-92225762D01*
X145641190Y-92416238D01*
X145141190Y-92416238D01*
X145141190Y-92249572D01*
X145165000Y-92201953D01*
X145188810Y-92178143D01*
X145236429Y-92154334D01*
X145284048Y-92154334D01*
X145331667Y-92178143D01*
X145355476Y-92201953D01*
X145379286Y-92249572D01*
X145379286Y-92416238D01*
X145688810Y-92035286D02*
X145688810Y-91654334D01*
X145379286Y-91535286D02*
X145379286Y-91368620D01*
X145641190Y-91297191D02*
X145641190Y-91535286D01*
X145141190Y-91535286D01*
X145141190Y-91297191D01*
X145641190Y-91082905D02*
X145141190Y-91082905D01*
X145641190Y-90797191D01*
X145141190Y-90797191D01*
X135139881Y-88899952D02*
X135163690Y-88828523D01*
X135163690Y-88709476D01*
X135139881Y-88661857D01*
X135116071Y-88638047D01*
X135068452Y-88614238D01*
X135020833Y-88614238D01*
X134973214Y-88638047D01*
X134949405Y-88661857D01*
X134925595Y-88709476D01*
X134901786Y-88804714D01*
X134877976Y-88852333D01*
X134854167Y-88876142D01*
X134806548Y-88899952D01*
X134758929Y-88899952D01*
X134711310Y-88876142D01*
X134687500Y-88852333D01*
X134663690Y-88804714D01*
X134663690Y-88685666D01*
X134687500Y-88614238D01*
X135163690Y-88138048D02*
X135163690Y-88423762D01*
X135163690Y-88280905D02*
X134663690Y-88280905D01*
X134735119Y-88328524D01*
X134782738Y-88376143D01*
X134806548Y-88423762D01*
X135163690Y-86831952D02*
X134663690Y-86831952D01*
X135020833Y-86665286D01*
X134663690Y-86498619D01*
X135163690Y-86498619D01*
X135116071Y-85974809D02*
X135139881Y-85998619D01*
X135163690Y-86070047D01*
X135163690Y-86117666D01*
X135139881Y-86189095D01*
X135092262Y-86236714D01*
X135044643Y-86260523D01*
X134949405Y-86284333D01*
X134877976Y-86284333D01*
X134782738Y-86260523D01*
X134735119Y-86236714D01*
X134687500Y-86189095D01*
X134663690Y-86117666D01*
X134663690Y-86070047D01*
X134687500Y-85998619D01*
X134711310Y-85974809D01*
X135163690Y-85760523D02*
X134663690Y-85760523D01*
X134663690Y-85641476D01*
X134687500Y-85570047D01*
X134735119Y-85522428D01*
X134782738Y-85498619D01*
X134877976Y-85474809D01*
X134949405Y-85474809D01*
X135044643Y-85498619D01*
X135092262Y-85522428D01*
X135139881Y-85570047D01*
X135163690Y-85641476D01*
X135163690Y-85760523D01*
X135163690Y-85260523D02*
X134663690Y-85260523D01*
X134901786Y-85260523D02*
X134901786Y-84974809D01*
X135163690Y-84974809D02*
X134663690Y-84974809D01*
X135020833Y-84760523D02*
X135020833Y-84522428D01*
X135163690Y-84808142D02*
X134663690Y-84641475D01*
X135163690Y-84474809D01*
X134973214Y-84308142D02*
X134973214Y-83927190D01*
X134663690Y-83593856D02*
X134663690Y-83546237D01*
X134687500Y-83498618D01*
X134711310Y-83474809D01*
X134758929Y-83450999D01*
X134854167Y-83427190D01*
X134973214Y-83427190D01*
X135068452Y-83450999D01*
X135116071Y-83474809D01*
X135139881Y-83498618D01*
X135163690Y-83546237D01*
X135163690Y-83593856D01*
X135139881Y-83641475D01*
X135116071Y-83665285D01*
X135068452Y-83689094D01*
X134973214Y-83712904D01*
X134854167Y-83712904D01*
X134758929Y-83689094D01*
X134711310Y-83665285D01*
X134687500Y-83641475D01*
X134663690Y-83593856D01*
X134877976Y-83141476D02*
X134854167Y-83189095D01*
X134830357Y-83212904D01*
X134782738Y-83236714D01*
X134758929Y-83236714D01*
X134711310Y-83212904D01*
X134687500Y-83189095D01*
X134663690Y-83141476D01*
X134663690Y-83046238D01*
X134687500Y-82998619D01*
X134711310Y-82974809D01*
X134758929Y-82951000D01*
X134782738Y-82951000D01*
X134830357Y-82974809D01*
X134854167Y-82998619D01*
X134877976Y-83046238D01*
X134877976Y-83141476D01*
X134901786Y-83189095D01*
X134925595Y-83212904D01*
X134973214Y-83236714D01*
X135068452Y-83236714D01*
X135116071Y-83212904D01*
X135139881Y-83189095D01*
X135163690Y-83141476D01*
X135163690Y-83046238D01*
X135139881Y-82998619D01*
X135116071Y-82974809D01*
X135068452Y-82951000D01*
X134973214Y-82951000D01*
X134925595Y-82974809D01*
X134901786Y-82998619D01*
X134877976Y-83046238D01*
X134663690Y-82808143D02*
X134663690Y-82522429D01*
X135163690Y-82665286D02*
X134663690Y-82665286D01*
X135211310Y-82022429D02*
X135187500Y-82070048D01*
X135139881Y-82117667D01*
X135068452Y-82189096D01*
X135044643Y-82236715D01*
X135044643Y-82284334D01*
X135163690Y-82260524D02*
X135139881Y-82308143D01*
X135092262Y-82355762D01*
X134997024Y-82379572D01*
X134830357Y-82379572D01*
X134735119Y-82355762D01*
X134687500Y-82308143D01*
X134663690Y-82260524D01*
X134663690Y-82165286D01*
X134687500Y-82117667D01*
X134735119Y-82070048D01*
X134830357Y-82046239D01*
X134997024Y-82046239D01*
X135092262Y-82070048D01*
X135139881Y-82117667D01*
X135163690Y-82165286D01*
X135163690Y-82260524D01*
X135163690Y-81546238D02*
X134925595Y-81712905D01*
X135163690Y-81831952D02*
X134663690Y-81831952D01*
X134663690Y-81641476D01*
X134687500Y-81593857D01*
X134711310Y-81570048D01*
X134758929Y-81546238D01*
X134830357Y-81546238D01*
X134877976Y-81570048D01*
X134901786Y-81593857D01*
X134925595Y-81641476D01*
X134925595Y-81831952D01*
X139426190Y-93725952D02*
X139830952Y-93725952D01*
X139878571Y-93702143D01*
X139902381Y-93678333D01*
X139926190Y-93630714D01*
X139926190Y-93535476D01*
X139902381Y-93487857D01*
X139878571Y-93464048D01*
X139830952Y-93440238D01*
X139426190Y-93440238D01*
X139926190Y-92940238D02*
X139926190Y-93225952D01*
X139926190Y-93083095D02*
X139426190Y-93083095D01*
X139497619Y-93130714D01*
X139545238Y-93178333D01*
X139569048Y-93225952D01*
X141450190Y-94904618D02*
X141450190Y-95142713D01*
X140950190Y-95142713D01*
X140950190Y-94523666D02*
X140950190Y-94618904D01*
X140974000Y-94666523D01*
X140997810Y-94690332D01*
X141069238Y-94737951D01*
X141164476Y-94761761D01*
X141354952Y-94761761D01*
X141402571Y-94737951D01*
X141426381Y-94714142D01*
X141450190Y-94666523D01*
X141450190Y-94571285D01*
X141426381Y-94523666D01*
X141402571Y-94499856D01*
X141354952Y-94476047D01*
X141235905Y-94476047D01*
X141188286Y-94499856D01*
X141164476Y-94523666D01*
X141140667Y-94571285D01*
X141140667Y-94666523D01*
X141164476Y-94714142D01*
X141188286Y-94737951D01*
X141235905Y-94761761D01*
X141450190Y-94237952D02*
X141450190Y-94142714D01*
X141426381Y-94095095D01*
X141402571Y-94071285D01*
X141331143Y-94023666D01*
X141235905Y-93999857D01*
X141045429Y-93999857D01*
X140997810Y-94023666D01*
X140974000Y-94047476D01*
X140950190Y-94095095D01*
X140950190Y-94190333D01*
X140974000Y-94237952D01*
X140997810Y-94261761D01*
X141045429Y-94285571D01*
X141164476Y-94285571D01*
X141212095Y-94261761D01*
X141235905Y-94237952D01*
X141259714Y-94190333D01*
X141259714Y-94095095D01*
X141235905Y-94047476D01*
X141212095Y-94023666D01*
X141164476Y-93999857D01*
X140997810Y-93809381D02*
X140974000Y-93785571D01*
X140950190Y-93737952D01*
X140950190Y-93618905D01*
X140974000Y-93571286D01*
X140997810Y-93547476D01*
X141045429Y-93523667D01*
X141093048Y-93523667D01*
X141164476Y-93547476D01*
X141450190Y-93833190D01*
X141450190Y-93523667D01*
X140950190Y-93214143D02*
X140950190Y-93166524D01*
X140974000Y-93118905D01*
X140997810Y-93095096D01*
X141045429Y-93071286D01*
X141140667Y-93047477D01*
X141259714Y-93047477D01*
X141354952Y-93071286D01*
X141402571Y-93095096D01*
X141426381Y-93118905D01*
X141450190Y-93166524D01*
X141450190Y-93214143D01*
X141426381Y-93261762D01*
X141402571Y-93285572D01*
X141354952Y-93309381D01*
X141259714Y-93333191D01*
X141140667Y-93333191D01*
X141045429Y-93309381D01*
X140997810Y-93285572D01*
X140974000Y-93261762D01*
X140950190Y-93214143D01*
X111633048Y-80244190D02*
X111633048Y-80648952D01*
X111656857Y-80696571D01*
X111680667Y-80720381D01*
X111728286Y-80744190D01*
X111823524Y-80744190D01*
X111871143Y-80720381D01*
X111894952Y-80696571D01*
X111918762Y-80648952D01*
X111918762Y-80244190D01*
X112133048Y-80291810D02*
X112156858Y-80268000D01*
X112204477Y-80244190D01*
X112323524Y-80244190D01*
X112371143Y-80268000D01*
X112394953Y-80291810D01*
X112418762Y-80339429D01*
X112418762Y-80387048D01*
X112394953Y-80458476D01*
X112109239Y-80744190D01*
X112418762Y-80744190D01*
X140878690Y-85554333D02*
X140878690Y-85792428D01*
X140378690Y-85792428D01*
X140426310Y-85411476D02*
X140402500Y-85387666D01*
X140378690Y-85340047D01*
X140378690Y-85221000D01*
X140402500Y-85173381D01*
X140426310Y-85149571D01*
X140473929Y-85125762D01*
X140521548Y-85125762D01*
X140592976Y-85149571D01*
X140878690Y-85435285D01*
X140878690Y-85125762D01*
X140878690Y-84367523D02*
X140378690Y-84367523D01*
X140378690Y-84248476D01*
X140402500Y-84177047D01*
X140450119Y-84129428D01*
X140497738Y-84105619D01*
X140592976Y-84081809D01*
X140664405Y-84081809D01*
X140759643Y-84105619D01*
X140807262Y-84129428D01*
X140854881Y-84177047D01*
X140878690Y-84248476D01*
X140878690Y-84367523D01*
X140878690Y-83629428D02*
X140878690Y-83867523D01*
X140378690Y-83867523D01*
X140378690Y-83319904D02*
X140735833Y-83319904D01*
X140807262Y-83343714D01*
X140854881Y-83391333D01*
X140878690Y-83462761D01*
X140878690Y-83510380D01*
X140688214Y-83081809D02*
X140688214Y-82700857D01*
X140878690Y-82200857D02*
X140878690Y-82486571D01*
X140878690Y-82343714D02*
X140378690Y-82343714D01*
X140450119Y-82391333D01*
X140497738Y-82438952D01*
X140521548Y-82486571D01*
X140378690Y-81891333D02*
X140378690Y-81843714D01*
X140402500Y-81796095D01*
X140426310Y-81772286D01*
X140473929Y-81748476D01*
X140569167Y-81724667D01*
X140688214Y-81724667D01*
X140783452Y-81748476D01*
X140831071Y-81772286D01*
X140854881Y-81796095D01*
X140878690Y-81843714D01*
X140878690Y-81891333D01*
X140854881Y-81938952D01*
X140831071Y-81962762D01*
X140783452Y-81986571D01*
X140688214Y-82010381D01*
X140569167Y-82010381D01*
X140473929Y-81986571D01*
X140426310Y-81962762D01*
X140402500Y-81938952D01*
X140378690Y-81891333D01*
X131226690Y-93587047D02*
X130726690Y-93587047D01*
X130726690Y-93396571D01*
X130750500Y-93348952D01*
X130774310Y-93325143D01*
X130821929Y-93301333D01*
X130893357Y-93301333D01*
X130940976Y-93325143D01*
X130964786Y-93348952D01*
X130988595Y-93396571D01*
X130988595Y-93587047D01*
X131226690Y-92825143D02*
X131226690Y-93110857D01*
X131226690Y-92968000D02*
X130726690Y-92968000D01*
X130798119Y-93015619D01*
X130845738Y-93063238D01*
X130869548Y-93110857D01*
X131972833Y-95706214D02*
X131972833Y-95468119D01*
X132115690Y-95753833D02*
X131615690Y-95587166D01*
X132115690Y-95420500D01*
X132115690Y-95253833D02*
X131615690Y-95253833D01*
X132115690Y-94968119D01*
X131615690Y-94968119D01*
X131615690Y-94801452D02*
X131615690Y-94515738D01*
X132115690Y-94658595D02*
X131615690Y-94658595D01*
X131853786Y-94349071D02*
X131853786Y-94182405D01*
X132115690Y-94110976D02*
X132115690Y-94349071D01*
X131615690Y-94349071D01*
X131615690Y-94110976D01*
X132115690Y-93896690D02*
X131615690Y-93896690D01*
X132115690Y-93610976D01*
X131615690Y-93610976D01*
X132115690Y-93372880D02*
X131615690Y-93372880D01*
X132115690Y-93087166D01*
X131615690Y-93087166D01*
X131972833Y-92872880D02*
X131972833Y-92634785D01*
X132115690Y-92920499D02*
X131615690Y-92753832D01*
X132115690Y-92587166D01*
X99683071Y-82268143D02*
X99706881Y-82291953D01*
X99730690Y-82363381D01*
X99730690Y-82411000D01*
X99706881Y-82482429D01*
X99659262Y-82530048D01*
X99611643Y-82553857D01*
X99516405Y-82577667D01*
X99444976Y-82577667D01*
X99349738Y-82553857D01*
X99302119Y-82530048D01*
X99254500Y-82482429D01*
X99230690Y-82411000D01*
X99230690Y-82363381D01*
X99254500Y-82291953D01*
X99278310Y-82268143D01*
X99230690Y-81958619D02*
X99230690Y-81863381D01*
X99254500Y-81815762D01*
X99302119Y-81768143D01*
X99397357Y-81744334D01*
X99564024Y-81744334D01*
X99659262Y-81768143D01*
X99706881Y-81815762D01*
X99730690Y-81863381D01*
X99730690Y-81958619D01*
X99706881Y-82006238D01*
X99659262Y-82053857D01*
X99564024Y-82077667D01*
X99397357Y-82077667D01*
X99302119Y-82053857D01*
X99254500Y-82006238D01*
X99230690Y-81958619D01*
X99730690Y-81530047D02*
X99230690Y-81530047D01*
X99730690Y-81244333D01*
X99230690Y-81244333D01*
X99730690Y-80744333D02*
X99730690Y-81030047D01*
X99730690Y-80887190D02*
X99230690Y-80887190D01*
X99302119Y-80934809D01*
X99349738Y-80982428D01*
X99373548Y-81030047D01*
X106001333Y-83708618D02*
X106001333Y-83470523D01*
X106144190Y-83756237D02*
X105644190Y-83589570D01*
X106144190Y-83422904D01*
X105644190Y-83327666D02*
X106144190Y-83160999D01*
X105644190Y-82994333D01*
X106144190Y-82541952D02*
X105906095Y-82708619D01*
X106144190Y-82827666D02*
X105644190Y-82827666D01*
X105644190Y-82637190D01*
X105668000Y-82589571D01*
X105691810Y-82565762D01*
X105739429Y-82541952D01*
X105810857Y-82541952D01*
X105858476Y-82565762D01*
X105882286Y-82589571D01*
X105906095Y-82637190D01*
X105906095Y-82827666D01*
X105953714Y-82327666D02*
X105953714Y-81946714D01*
X106144190Y-81708618D02*
X105644190Y-81708618D01*
X106120381Y-81494333D02*
X106144190Y-81422904D01*
X106144190Y-81303857D01*
X106120381Y-81256238D01*
X106096571Y-81232428D01*
X106048952Y-81208619D01*
X106001333Y-81208619D01*
X105953714Y-81232428D01*
X105929905Y-81256238D01*
X105906095Y-81303857D01*
X105882286Y-81399095D01*
X105858476Y-81446714D01*
X105834667Y-81470523D01*
X105787048Y-81494333D01*
X105739429Y-81494333D01*
X105691810Y-81470523D01*
X105668000Y-81446714D01*
X105644190Y-81399095D01*
X105644190Y-81280047D01*
X105668000Y-81208619D01*
X106144190Y-80994333D02*
X105644190Y-80994333D01*
X105644190Y-80803857D01*
X105668000Y-80756238D01*
X105691810Y-80732429D01*
X105739429Y-80708619D01*
X105810857Y-80708619D01*
X105858476Y-80732429D01*
X105882286Y-80756238D01*
X105906095Y-80803857D01*
X105906095Y-80994333D01*
X105953714Y-80494333D02*
X105953714Y-80113381D01*
X105644190Y-79661000D02*
X105644190Y-79756238D01*
X105668000Y-79803857D01*
X105691810Y-79827666D01*
X105763238Y-79875285D01*
X105858476Y-79899095D01*
X106048952Y-79899095D01*
X106096571Y-79875285D01*
X106120381Y-79851476D01*
X106144190Y-79803857D01*
X106144190Y-79708619D01*
X106120381Y-79661000D01*
X106096571Y-79637190D01*
X106048952Y-79613381D01*
X105929905Y-79613381D01*
X105882286Y-79637190D01*
X105858476Y-79661000D01*
X105834667Y-79708619D01*
X105834667Y-79803857D01*
X105858476Y-79851476D01*
X105882286Y-79875285D01*
X105929905Y-79899095D01*
X130377453Y-97254190D02*
X130377453Y-96754190D01*
X130567929Y-96754190D01*
X130615548Y-96778000D01*
X130639357Y-96801810D01*
X130663167Y-96849429D01*
X130663167Y-96920857D01*
X130639357Y-96968476D01*
X130615548Y-96992286D01*
X130567929Y-97016095D01*
X130377453Y-97016095D01*
X130853643Y-96801810D02*
X130877453Y-96778000D01*
X130925072Y-96754190D01*
X131044119Y-96754190D01*
X131091738Y-96778000D01*
X131115548Y-96801810D01*
X131139357Y-96849429D01*
X131139357Y-96897048D01*
X131115548Y-96968476D01*
X130829834Y-97254190D01*
X131139357Y-97254190D01*
X130377572Y-98333690D02*
X130377572Y-97833690D01*
X130377572Y-98071786D02*
X130663286Y-98071786D01*
X130663286Y-98333690D02*
X130663286Y-97833690D01*
X130829953Y-97833690D02*
X131115667Y-97833690D01*
X130972810Y-98333690D02*
X130972810Y-97833690D01*
X131282334Y-97833690D02*
X131282334Y-98238452D01*
X131306143Y-98286071D01*
X131329953Y-98309881D01*
X131377572Y-98333690D01*
X131472810Y-98333690D01*
X131520429Y-98309881D01*
X131544238Y-98286071D01*
X131568048Y-98238452D01*
X131568048Y-97833690D01*
X131782334Y-97881310D02*
X131806144Y-97857500D01*
X131853763Y-97833690D01*
X131972810Y-97833690D01*
X132020429Y-97857500D01*
X132044239Y-97881310D01*
X132068048Y-97928929D01*
X132068048Y-97976548D01*
X132044239Y-98047976D01*
X131758525Y-98333690D01*
X132068048Y-98333690D01*
X132544238Y-98333690D02*
X132258524Y-98333690D01*
X132401381Y-98333690D02*
X132401381Y-97833690D01*
X132353762Y-97905119D01*
X132306143Y-97952738D01*
X132258524Y-97976548D01*
X132758524Y-98333690D02*
X132758524Y-97833690D01*
X132877571Y-97833690D01*
X132949000Y-97857500D01*
X132996619Y-97905119D01*
X133020428Y-97952738D01*
X133044238Y-98047976D01*
X133044238Y-98119405D01*
X133020428Y-98214643D01*
X132996619Y-98262262D01*
X132949000Y-98309881D01*
X132877571Y-98333690D01*
X132758524Y-98333690D01*
X141839167Y-78220071D02*
X141815357Y-78243881D01*
X141743929Y-78267690D01*
X141696310Y-78267690D01*
X141624881Y-78243881D01*
X141577262Y-78196262D01*
X141553453Y-78148643D01*
X141529643Y-78053405D01*
X141529643Y-77981976D01*
X141553453Y-77886738D01*
X141577262Y-77839119D01*
X141624881Y-77791500D01*
X141696310Y-77767690D01*
X141743929Y-77767690D01*
X141815357Y-77791500D01*
X141839167Y-77815310D01*
X142077262Y-78267690D02*
X142172500Y-78267690D01*
X142220119Y-78243881D01*
X142243929Y-78220071D01*
X142291548Y-78148643D01*
X142315357Y-78053405D01*
X142315357Y-77862929D01*
X142291548Y-77815310D01*
X142267738Y-77791500D01*
X142220119Y-77767690D01*
X142124881Y-77767690D01*
X142077262Y-77791500D01*
X142053453Y-77815310D01*
X142029643Y-77862929D01*
X142029643Y-77981976D01*
X142053453Y-78029595D01*
X142077262Y-78053405D01*
X142124881Y-78077214D01*
X142220119Y-78077214D01*
X142267738Y-78053405D01*
X142291548Y-78029595D01*
X142315357Y-77981976D01*
X143181593Y-77934357D02*
X143181593Y-78267690D01*
X143062546Y-77743881D02*
X142943498Y-78101024D01*
X143253022Y-78101024D01*
X143395879Y-77767690D02*
X143729212Y-77767690D01*
X143514926Y-78267690D01*
X144133973Y-77934357D02*
X144133973Y-78267690D01*
X143919688Y-77934357D02*
X143919688Y-78196262D01*
X143943497Y-78243881D01*
X143991116Y-78267690D01*
X144062545Y-78267690D01*
X144110164Y-78243881D01*
X144133973Y-78220071D01*
X139402844Y-77990854D02*
X139783796Y-77990854D01*
X139593320Y-78181330D02*
X139593320Y-77800378D01*
X100262572Y-95555571D02*
X100238762Y-95579381D01*
X100167334Y-95603190D01*
X100119715Y-95603190D01*
X100048286Y-95579381D01*
X100000667Y-95531762D01*
X99976858Y-95484143D01*
X99953048Y-95388905D01*
X99953048Y-95317476D01*
X99976858Y-95222238D01*
X100000667Y-95174619D01*
X100048286Y-95127000D01*
X100119715Y-95103190D01*
X100167334Y-95103190D01*
X100238762Y-95127000D01*
X100262572Y-95150810D01*
X100738762Y-95603190D02*
X100453048Y-95603190D01*
X100595905Y-95603190D02*
X100595905Y-95103190D01*
X100548286Y-95174619D01*
X100500667Y-95222238D01*
X100453048Y-95246048D01*
X101048286Y-95103190D02*
X101095905Y-95103190D01*
X101143524Y-95127000D01*
X101167333Y-95150810D01*
X101191143Y-95198429D01*
X101214952Y-95293667D01*
X101214952Y-95412714D01*
X101191143Y-95507952D01*
X101167333Y-95555571D01*
X101143524Y-95579381D01*
X101095905Y-95603190D01*
X101048286Y-95603190D01*
X101000667Y-95579381D01*
X100976857Y-95555571D01*
X100953048Y-95507952D01*
X100929238Y-95412714D01*
X100929238Y-95293667D01*
X100953048Y-95198429D01*
X100976857Y-95150810D01*
X101000667Y-95127000D01*
X101048286Y-95103190D01*
X100326072Y-96619190D02*
X100040358Y-96619190D01*
X100183215Y-96619190D02*
X100183215Y-96119190D01*
X100135596Y-96190619D01*
X100087977Y-96238238D01*
X100040358Y-96262048D01*
X100635596Y-96119190D02*
X100683215Y-96119190D01*
X100730834Y-96143000D01*
X100754643Y-96166810D01*
X100778453Y-96214429D01*
X100802262Y-96309667D01*
X100802262Y-96428714D01*
X100778453Y-96523952D01*
X100754643Y-96571571D01*
X100730834Y-96595381D01*
X100683215Y-96619190D01*
X100635596Y-96619190D01*
X100587977Y-96595381D01*
X100564167Y-96571571D01*
X100540358Y-96523952D01*
X100516548Y-96428714D01*
X100516548Y-96309667D01*
X100540358Y-96214429D01*
X100564167Y-96166810D01*
X100587977Y-96143000D01*
X100635596Y-96119190D01*
X101230833Y-96285857D02*
X101230833Y-96619190D01*
X101016548Y-96285857D02*
X101016548Y-96547762D01*
X101040357Y-96595381D01*
X101087976Y-96619190D01*
X101159405Y-96619190D01*
X101207024Y-96595381D01*
X101230833Y-96571571D01*
X105920564Y-95181574D02*
X106301516Y-95181574D01*
X106111040Y-95372050D02*
X106111040Y-94991098D01*
X107453953Y-95603190D02*
X107453953Y-95103190D01*
X107644429Y-95103190D01*
X107692048Y-95127000D01*
X107715857Y-95150810D01*
X107739667Y-95198429D01*
X107739667Y-95269857D01*
X107715857Y-95317476D01*
X107692048Y-95341286D01*
X107644429Y-95365095D01*
X107453953Y-95365095D01*
X107906334Y-95103190D02*
X108215857Y-95103190D01*
X108049191Y-95293667D01*
X108120619Y-95293667D01*
X108168238Y-95317476D01*
X108192048Y-95341286D01*
X108215857Y-95388905D01*
X108215857Y-95507952D01*
X108192048Y-95555571D01*
X108168238Y-95579381D01*
X108120619Y-95603190D01*
X107977762Y-95603190D01*
X107930143Y-95579381D01*
X107906334Y-95555571D01*
X108910573Y-95460333D02*
X109148668Y-95460333D01*
X108862954Y-95603190D02*
X109029621Y-95103190D01*
X109196287Y-95603190D01*
X109315335Y-95103190D02*
X109624858Y-95103190D01*
X109458192Y-95293667D01*
X109529620Y-95293667D01*
X109577239Y-95317476D01*
X109601049Y-95341286D01*
X109624858Y-95388905D01*
X109624858Y-95507952D01*
X109601049Y-95555571D01*
X109577239Y-95579381D01*
X109529620Y-95603190D01*
X109386763Y-95603190D01*
X109339144Y-95579381D01*
X109315335Y-95555571D01*
X109815334Y-95150810D02*
X109839144Y-95127000D01*
X109886763Y-95103190D01*
X110005810Y-95103190D01*
X110053429Y-95127000D01*
X110077239Y-95150810D01*
X110101048Y-95198429D01*
X110101048Y-95246048D01*
X110077239Y-95317476D01*
X109791525Y-95603190D01*
X110101048Y-95603190D01*
X110577238Y-95603190D02*
X110291524Y-95603190D01*
X110434381Y-95603190D02*
X110434381Y-95103190D01*
X110386762Y-95174619D01*
X110339143Y-95222238D01*
X110291524Y-95246048D01*
X110767714Y-95150810D02*
X110791524Y-95127000D01*
X110839143Y-95103190D01*
X110958190Y-95103190D01*
X111005809Y-95127000D01*
X111029619Y-95150810D01*
X111053428Y-95198429D01*
X111053428Y-95246048D01*
X111029619Y-95317476D01*
X110743905Y-95603190D01*
X111053428Y-95603190D01*
X111962453Y-95603190D02*
X111962453Y-95103190D01*
X112152929Y-95103190D01*
X112200548Y-95127000D01*
X112224357Y-95150810D01*
X112248167Y-95198429D01*
X112248167Y-95269857D01*
X112224357Y-95317476D01*
X112200548Y-95341286D01*
X112152929Y-95365095D01*
X111962453Y-95365095D01*
X112676738Y-95269857D02*
X112676738Y-95603190D01*
X112557691Y-95079381D02*
X112438643Y-95436524D01*
X112748167Y-95436524D01*
X113641310Y-95103190D02*
X113736548Y-95103190D01*
X113784167Y-95127000D01*
X113831786Y-95174619D01*
X113855595Y-95269857D01*
X113855595Y-95436524D01*
X113831786Y-95531762D01*
X113784167Y-95579381D01*
X113736548Y-95603190D01*
X113641310Y-95603190D01*
X113593691Y-95579381D01*
X113546072Y-95531762D01*
X113522262Y-95436524D01*
X113522262Y-95269857D01*
X113546072Y-95174619D01*
X113593691Y-95127000D01*
X113641310Y-95103190D01*
X113998453Y-95103190D02*
X114284167Y-95103190D01*
X114141310Y-95603190D02*
X114141310Y-95103190D01*
X114450834Y-95603190D02*
X114450834Y-95103190D01*
X114450834Y-95341286D02*
X114736548Y-95341286D01*
X114736548Y-95603190D02*
X114736548Y-95103190D01*
X114974644Y-95341286D02*
X115141310Y-95341286D01*
X115212739Y-95603190D02*
X114974644Y-95603190D01*
X114974644Y-95103190D01*
X115212739Y-95103190D01*
X115712739Y-95603190D02*
X115546072Y-95365095D01*
X115427025Y-95603190D02*
X115427025Y-95103190D01*
X115617501Y-95103190D01*
X115665120Y-95127000D01*
X115688929Y-95150810D01*
X115712739Y-95198429D01*
X115712739Y-95269857D01*
X115688929Y-95317476D01*
X115665120Y-95341286D01*
X115617501Y-95365095D01*
X115427025Y-95365095D01*
%LPC*%
D13*
X103404000Y-87884000D03*
D14*
X141224000Y-87884000D03*
D15*
X104838500Y-91255000D03*
X104838500Y-90355000D03*
D16*
X145288000Y-88265000D03*
D17*
X136715500Y-95862140D03*
X136715500Y-92859860D03*
D18*
X144145000Y-96327000D03*
X144145000Y-94427000D03*
X134302500Y-94366000D03*
X134302500Y-96266000D03*
D19*
X102613500Y-90932000D03*
X100713500Y-90932000D03*
D15*
X134302500Y-92779000D03*
X134302500Y-91879000D03*
X144272000Y-92334500D03*
X144272000Y-91434500D03*
D20*
X138112500Y-79756000D03*
X131762500Y-79756000D03*
X138112500Y-81026000D03*
X131762500Y-81026000D03*
X138112500Y-82296000D03*
X131762500Y-82296000D03*
X138112500Y-83566000D03*
X131762500Y-83566000D03*
X138112500Y-84836000D03*
X131762500Y-84836000D03*
X138112500Y-86106000D03*
X131762500Y-86106000D03*
X138112500Y-87376000D03*
X131762500Y-87376000D03*
X138112500Y-88646000D03*
X131762500Y-88646000D03*
D21*
X139741000Y-96307000D03*
X140391000Y-96307000D03*
X141041000Y-96307000D03*
X141691000Y-96307000D03*
X141691000Y-91907000D03*
X141041000Y-91907000D03*
X140391000Y-91907000D03*
X139741000Y-91907000D03*
D22*
X108582000Y-79756000D03*
X108582000Y-81756000D03*
X108582000Y-83756000D03*
X108582000Y-85756000D03*
X108582000Y-87756000D03*
X108582000Y-89756000D03*
X108582000Y-91756000D03*
X108582000Y-93756000D03*
X128282000Y-93756000D03*
X128282000Y-91756000D03*
X128282000Y-89756000D03*
X128282000Y-87756000D03*
X128282000Y-85756000D03*
X128282000Y-83756000D03*
X128282000Y-81756000D03*
X128282000Y-79756000D03*
D23*
X142392500Y-83693000D03*
X143992500Y-83693000D03*
D24*
X131508500Y-91440000D03*
D16*
X99695000Y-88265000D03*
D25*
X104013000Y-84328000D03*
D26*
X101473000Y-84328000D03*
X104013000Y-81788000D03*
X101473000Y-81788000D03*
X104013000Y-79248000D03*
X101473000Y-79248000D03*
D27*
X127571500Y-96583500D03*
D28*
X125031500Y-96583500D03*
X122491500Y-96583500D03*
X119951500Y-96583500D03*
D29*
X144693640Y-79756000D03*
X141691360Y-79756000D03*
X101010720Y-93345000D03*
X104013000Y-93345000D03*
D30*
X106331000Y-96837500D03*
D31*
X108331000Y-96837500D03*
X110331000Y-96837500D03*
D30*
X116871500Y-96837500D03*
D31*
X114871500Y-96837500D03*
X112871500Y-96837500D03*
M02*
