G04 #@! TF.GenerationSoftware,KiCad,Pcbnew,5.0.0-fee4fd1~66~ubuntu16.04.1*
G04 #@! TF.CreationDate,2018-08-08T16:17:55+03:00*
G04 #@! TF.ProjectId,rpi_zero_ws2812,7270695F7A65726F5F7773323831322E,rev?*
G04 #@! TF.SameCoordinates,Original*
G04 #@! TF.FileFunction,Soldermask,Top*
G04 #@! TF.FilePolarity,Negative*
%FSLAX46Y46*%
G04 Gerber Fmt 4.6, Leading zero omitted, Abs format (unit mm)*
G04 Created by KiCad (PCBNEW 5.0.0-fee4fd1~66~ubuntu16.04.1) date Wed Aug  8 16:17:55 2018*
%MOMM*%
%LPD*%
G01*
G04 APERTURE LIST*
%ADD10C,1.600000*%
%ADD11C,3.200000*%
%ADD12O,1.700000X1.700000*%
%ADD13R,1.700000X1.700000*%
%ADD14R,1.500000X1.250000*%
%ADD15R,3.200000X2.500000*%
%ADD16R,2.500000X3.200000*%
%ADD17R,1.250000X1.500000*%
%ADD18R,2.000000X1.500000*%
%ADD19R,2.000000X3.800000*%
%ADD20R,1.200000X0.900000*%
%ADD21R,0.900000X1.500000*%
%ADD22O,0.900000X1.500000*%
%ADD23R,2.999740X2.999740*%
%ADD24C,2.999740*%
G04 APERTURE END LIST*
D10*
G04 #@! TO.C,REF\002A\002A*
X155911880Y-87259420D03*
G04 #@! TD*
G04 #@! TO.C,REF\002A\002A*
X155911880Y-89259420D03*
G04 #@! TD*
G04 #@! TO.C,REF\002A\002A*
X155911880Y-91259420D03*
G04 #@! TD*
G04 #@! TO.C,REF\002A\002A*
X155911880Y-93259420D03*
G04 #@! TD*
G04 #@! TO.C,REF\002A\002A*
X153911880Y-87259420D03*
G04 #@! TD*
G04 #@! TO.C,REF\002A\002A*
X153911880Y-89259420D03*
G04 #@! TD*
G04 #@! TO.C,REF\002A\002A*
X153911880Y-91259420D03*
G04 #@! TD*
G04 #@! TO.C,REF\002A\002A*
X153911880Y-93259420D03*
G04 #@! TD*
G04 #@! TO.C,REF\002A\002A*
X151911880Y-87259420D03*
G04 #@! TD*
G04 #@! TO.C,REF\002A\002A*
X151911880Y-89259420D03*
G04 #@! TD*
G04 #@! TO.C,REF\002A\002A*
X151911880Y-91259420D03*
G04 #@! TD*
G04 #@! TO.C,REF\002A\002A*
X151911880Y-93259420D03*
G04 #@! TD*
G04 #@! TO.C,REF\002A\002A*
X149911880Y-87259420D03*
G04 #@! TD*
G04 #@! TO.C,REF\002A\002A*
X149911880Y-89259420D03*
G04 #@! TD*
G04 #@! TO.C,REF\002A\002A*
X149911880Y-91259420D03*
G04 #@! TD*
G04 #@! TO.C,REF\002A\002A*
X149911880Y-93259420D03*
G04 #@! TD*
D11*
G04 #@! TO.C,REF\002A\002A*
X112711880Y-82659420D03*
G04 #@! TD*
G04 #@! TO.C,REF\002A\002A*
X112711880Y-106359420D03*
G04 #@! TD*
G04 #@! TO.C,REF\002A\002A*
X171311880Y-106359420D03*
G04 #@! TD*
G04 #@! TO.C,REF\002A\002A*
X171311880Y-82659420D03*
G04 #@! TD*
D12*
G04 #@! TO.C,J1*
X166171880Y-81719420D03*
X166171880Y-84259420D03*
X163631880Y-81719420D03*
X163631880Y-84259420D03*
X161091880Y-81719420D03*
X161091880Y-84259420D03*
X158551880Y-81719420D03*
X158551880Y-84259420D03*
X156011880Y-81719420D03*
X156011880Y-84259420D03*
X153471880Y-81719420D03*
X153471880Y-84259420D03*
X150931880Y-81719420D03*
X150931880Y-84259420D03*
X148391880Y-81719420D03*
X148391880Y-84259420D03*
X145851880Y-81719420D03*
X145851880Y-84259420D03*
X143311880Y-81719420D03*
X143311880Y-84259420D03*
X140771880Y-81719420D03*
X140771880Y-84259420D03*
X138231880Y-81719420D03*
X138231880Y-84259420D03*
X135691880Y-81719420D03*
X135691880Y-84259420D03*
X133151880Y-81719420D03*
X133151880Y-84259420D03*
X130611880Y-81719420D03*
X130611880Y-84259420D03*
X128071880Y-81719420D03*
X128071880Y-84259420D03*
X125531880Y-81719420D03*
X125531880Y-84259420D03*
X122991880Y-81719420D03*
X122991880Y-84259420D03*
X120451880Y-81719420D03*
X120451880Y-84259420D03*
X117911880Y-81719420D03*
D13*
X117911880Y-84259420D03*
G04 #@! TD*
D14*
G04 #@! TO.C,C3*
X142911880Y-99959420D03*
X145411880Y-99959420D03*
G04 #@! TD*
D15*
G04 #@! TO.C,C4*
X145511880Y-97159420D03*
X141211880Y-97159420D03*
G04 #@! TD*
D16*
G04 #@! TO.C,C5*
X137361880Y-93609420D03*
X137361880Y-89309420D03*
G04 #@! TD*
D17*
G04 #@! TO.C,C6*
X134261880Y-90809420D03*
X134261880Y-93309420D03*
G04 #@! TD*
D18*
G04 #@! TO.C,U2*
X140711880Y-89259420D03*
X140711880Y-93859420D03*
X140711880Y-91559420D03*
D19*
X147011880Y-91559420D03*
G04 #@! TD*
D14*
G04 #@! TO.C,C7*
X126411880Y-93259420D03*
X128911880Y-93259420D03*
G04 #@! TD*
D20*
G04 #@! TO.C,R11*
X126461880Y-86509420D03*
X128661880Y-86509420D03*
G04 #@! TD*
D21*
G04 #@! TO.C,U3*
X126411880Y-90259420D03*
D22*
X128951880Y-90259420D03*
X127681880Y-90259420D03*
G04 #@! TD*
D23*
G04 #@! TO.C,J2*
X119911880Y-97759420D03*
D24*
X119911880Y-92679420D03*
G04 #@! TD*
D23*
G04 #@! TO.C,J4*
X164411880Y-89849420D03*
D24*
X164411880Y-94929420D03*
X164411880Y-100009420D03*
G04 #@! TD*
M02*
