G04 #@! TF.GenerationSoftware,KiCad,Pcbnew,5.0.0-fee4fd1~66~ubuntu16.04.1*
G04 #@! TF.CreationDate,2018-08-08T16:47:19+03:00*
G04 #@! TF.ProjectId,rpi_zero_ws2812,7270695F7A65726F5F7773323831322E,rev?*
G04 #@! TF.SameCoordinates,Original*
G04 #@! TF.FileFunction,Legend,Top*
G04 #@! TF.FilePolarity,Positive*
%FSLAX46Y46*%
G04 Gerber Fmt 4.6, Leading zero omitted, Abs format (unit mm)*
G04 Created by KiCad (PCBNEW 5.0.0-fee4fd1~66~ubuntu16.04.1) date Wed Aug  8 16:47:19 2018*
%MOMM*%
%LPD*%
G01*
G04 APERTURE LIST*
%ADD10C,0.300000*%
%ADD11C,0.250000*%
%ADD12C,0.120000*%
%ADD13C,0.254000*%
%ADD14C,0.180000*%
%ADD15C,0.304800*%
%ADD16C,1.600000*%
%ADD17C,3.200000*%
%ADD18O,1.700000X1.700000*%
%ADD19R,1.700000X1.700000*%
%ADD20R,1.500000X1.250000*%
%ADD21R,3.200000X2.500000*%
%ADD22R,2.500000X3.200000*%
%ADD23R,1.250000X1.500000*%
%ADD24R,2.000000X1.500000*%
%ADD25R,2.000000X3.800000*%
%ADD26R,1.200000X0.900000*%
%ADD27R,0.900000X1.500000*%
%ADD28O,0.900000X1.500000*%
%ADD29R,2.999740X2.999740*%
%ADD30C,2.999740*%
G04 APERTURE END LIST*
D10*
X161340451Y-95402277D02*
X159840451Y-95402277D01*
X159840451Y-95045134D01*
X159911880Y-94830848D01*
X160054737Y-94687991D01*
X160197594Y-94616562D01*
X160483308Y-94545134D01*
X160697594Y-94545134D01*
X160983308Y-94616562D01*
X161126165Y-94687991D01*
X161269022Y-94830848D01*
X161340451Y-95045134D01*
X161340451Y-95402277D01*
X159911880Y-90902277D02*
X159840451Y-91045134D01*
X159840451Y-91259420D01*
X159911880Y-91473705D01*
X160054737Y-91616562D01*
X160197594Y-91687991D01*
X160483308Y-91759420D01*
X160697594Y-91759420D01*
X160983308Y-91687991D01*
X161126165Y-91616562D01*
X161269022Y-91473705D01*
X161340451Y-91259420D01*
X161340451Y-91116562D01*
X161269022Y-90902277D01*
X161197594Y-90830848D01*
X160697594Y-90830848D01*
X160697594Y-91116562D01*
X161340451Y-90187991D02*
X159840451Y-90187991D01*
X161340451Y-89330848D01*
X159840451Y-89330848D01*
X161340451Y-88616562D02*
X159840451Y-88616562D01*
X159840451Y-88259420D01*
X159911880Y-88045134D01*
X160054737Y-87902277D01*
X160197594Y-87830848D01*
X160483308Y-87759420D01*
X160697594Y-87759420D01*
X160983308Y-87830848D01*
X161126165Y-87902277D01*
X161269022Y-88045134D01*
X161340451Y-88259420D01*
X161340451Y-88616562D01*
X160090451Y-100295134D02*
X160090451Y-101009420D01*
X160804737Y-101080848D01*
X160733308Y-101009420D01*
X160661880Y-100866562D01*
X160661880Y-100509420D01*
X160733308Y-100366562D01*
X160804737Y-100295134D01*
X160947594Y-100223705D01*
X161304737Y-100223705D01*
X161447594Y-100295134D01*
X161519022Y-100366562D01*
X161590451Y-100509420D01*
X161590451Y-100866562D01*
X161519022Y-101009420D01*
X161447594Y-101080848D01*
X160090451Y-99795134D02*
X161590451Y-99295134D01*
X160090451Y-98795134D01*
X122911880Y-94152277D02*
X122840451Y-94295134D01*
X122840451Y-94509420D01*
X122911880Y-94723705D01*
X123054737Y-94866562D01*
X123197594Y-94937991D01*
X123483308Y-95009420D01*
X123697594Y-95009420D01*
X123983308Y-94937991D01*
X124126165Y-94866562D01*
X124269022Y-94723705D01*
X124340451Y-94509420D01*
X124340451Y-94366562D01*
X124269022Y-94152277D01*
X124197594Y-94080848D01*
X123697594Y-94080848D01*
X123697594Y-94366562D01*
X124340451Y-93437991D02*
X122840451Y-93437991D01*
X124340451Y-92580848D01*
X122840451Y-92580848D01*
X124340451Y-91866562D02*
X122840451Y-91866562D01*
X122840451Y-91509420D01*
X122911880Y-91295134D01*
X123054737Y-91152277D01*
X123197594Y-91080848D01*
X123483308Y-91009420D01*
X123697594Y-91009420D01*
X123983308Y-91080848D01*
X124126165Y-91152277D01*
X124269022Y-91295134D01*
X124340451Y-91509420D01*
X124340451Y-91866562D01*
X123090451Y-98545134D02*
X123090451Y-99259420D01*
X123804737Y-99330848D01*
X123733308Y-99259420D01*
X123661880Y-99116562D01*
X123661880Y-98759420D01*
X123733308Y-98616562D01*
X123804737Y-98545134D01*
X123947594Y-98473705D01*
X124304737Y-98473705D01*
X124447594Y-98545134D01*
X124519022Y-98616562D01*
X124590451Y-98759420D01*
X124590451Y-99116562D01*
X124519022Y-99259420D01*
X124447594Y-99330848D01*
X123090451Y-98045134D02*
X124590451Y-97545134D01*
X123090451Y-97045134D01*
D11*
X117947594Y-108437991D02*
X117447594Y-107723705D01*
X117090451Y-108437991D02*
X117090451Y-106937991D01*
X117661880Y-106937991D01*
X117804737Y-107009420D01*
X117876165Y-107080848D01*
X117947594Y-107223705D01*
X117947594Y-107437991D01*
X117876165Y-107580848D01*
X117804737Y-107652277D01*
X117661880Y-107723705D01*
X117090451Y-107723705D01*
X119161880Y-108366562D02*
X119019022Y-108437991D01*
X118733308Y-108437991D01*
X118590451Y-108366562D01*
X118519022Y-108223705D01*
X118519022Y-107652277D01*
X118590451Y-107509420D01*
X118733308Y-107437991D01*
X119019022Y-107437991D01*
X119161880Y-107509420D01*
X119233308Y-107652277D01*
X119233308Y-107795134D01*
X118519022Y-107937991D01*
X119733308Y-107437991D02*
X120090451Y-108437991D01*
X120447594Y-107437991D01*
X121019022Y-108295134D02*
X121090451Y-108366562D01*
X121019022Y-108437991D01*
X120947594Y-108366562D01*
X121019022Y-108295134D01*
X121019022Y-108437991D01*
X123161880Y-106937991D02*
X123304737Y-106937991D01*
X123447594Y-107009420D01*
X123519022Y-107080848D01*
X123590451Y-107223705D01*
X123661880Y-107509420D01*
X123661880Y-107866562D01*
X123590451Y-108152277D01*
X123519022Y-108295134D01*
X123447594Y-108366562D01*
X123304737Y-108437991D01*
X123161880Y-108437991D01*
X123019022Y-108366562D01*
X122947594Y-108295134D01*
X122876165Y-108152277D01*
X122804737Y-107866562D01*
X122804737Y-107509420D01*
X122876165Y-107223705D01*
X122947594Y-107080848D01*
X123019022Y-107009420D01*
X123161880Y-106937991D01*
X124304737Y-108295134D02*
X124376165Y-108366562D01*
X124304737Y-108437991D01*
X124233308Y-108366562D01*
X124304737Y-108295134D01*
X124304737Y-108437991D01*
X125804737Y-108437991D02*
X124947594Y-108437991D01*
X125376165Y-108437991D02*
X125376165Y-106937991D01*
X125233308Y-107152277D01*
X125090451Y-107295134D01*
X124947594Y-107366562D01*
D12*
G04 #@! TO.C,J1*
X116581880Y-85589420D02*
X116581880Y-84259420D01*
X117911880Y-85589420D02*
X116581880Y-85589420D01*
X116581880Y-82989420D02*
X116581880Y-80389420D01*
X119181880Y-82989420D02*
X116581880Y-82989420D01*
X119181880Y-85589420D02*
X119181880Y-82989420D01*
X116581880Y-80389420D02*
X167501880Y-80389420D01*
X119181880Y-85589420D02*
X167501880Y-85589420D01*
X167501880Y-85589420D02*
X167501880Y-80389420D01*
G04 #@! TO.C,C3*
X144661880Y-99109420D02*
X143661880Y-99109420D01*
X143661880Y-100809420D02*
X144661880Y-100809420D01*
G04 #@! TO.C,C4*
X139311880Y-95509420D02*
X139311880Y-98809420D01*
X139311880Y-98809420D02*
X145111880Y-98809420D01*
X139311880Y-95509420D02*
X145111880Y-95509420D01*
G04 #@! TO.C,C5*
X135711880Y-95509420D02*
X135711880Y-89709420D01*
X139011880Y-95509420D02*
X139011880Y-89709420D01*
X135711880Y-95509420D02*
X139011880Y-95509420D01*
G04 #@! TO.C,C6*
X135111880Y-92559420D02*
X135111880Y-91559420D01*
X133411880Y-91559420D02*
X133411880Y-92559420D01*
G04 #@! TO.C,U2*
X139761880Y-88149420D02*
X145771880Y-88149420D01*
X142011880Y-94969420D02*
X145771880Y-94969420D01*
X145771880Y-88149420D02*
X145771880Y-89409420D01*
X145771880Y-94969420D02*
X145771880Y-93709420D01*
G04 #@! TO.C,C7*
X128161880Y-92409420D02*
X127161880Y-92409420D01*
X127161880Y-94109420D02*
X128161880Y-94109420D01*
G04 #@! TO.C,R11*
X128061880Y-87189420D02*
X127061880Y-87189420D01*
X127061880Y-85829420D02*
X128061880Y-85829420D01*
G04 #@! TO.C,U3*
X129520358Y-92097898D02*
G75*
G03X127681880Y-87659420I-1838478J1838478D01*
G01*
X125843402Y-92097898D02*
G75*
G02X127681880Y-87659420I1838478J1838478D01*
G01*
X125881880Y-92109420D02*
X129481880Y-92109420D01*
D13*
G04 #@! TO.C,J2*
X110712000Y-101269700D02*
X110712000Y-89169140D01*
X121910860Y-89169140D02*
X121910860Y-101269700D01*
X121910860Y-101269700D02*
X109911900Y-101269700D01*
X109911900Y-89169140D02*
X109911900Y-101269700D01*
X121910860Y-89169140D02*
X109911900Y-89169140D01*
G04 #@! TO.C,J4*
X174411860Y-103529860D02*
X174411860Y-86328980D01*
X173611760Y-86328980D02*
X173611760Y-103529860D01*
X162412900Y-86328980D02*
X162412900Y-103529860D01*
X162412900Y-86328980D02*
X174411860Y-86328980D01*
X162412900Y-103529860D02*
X174411860Y-103529860D01*
G04 #@! TO.C,J1*
D12*
X114973784Y-81326086D02*
X115545213Y-81326086D01*
X115659499Y-81364181D01*
X115735689Y-81440372D01*
X115773784Y-81554658D01*
X115773784Y-81630848D01*
X115773784Y-80526086D02*
X115773784Y-80983229D01*
X115773784Y-80754658D02*
X114973784Y-80754658D01*
X115088070Y-80830848D01*
X115164260Y-80907039D01*
X115202356Y-80983229D01*
G04 #@! TO.C,C3*
D14*
X140778546Y-100295134D02*
X140740451Y-100333229D01*
X140626165Y-100371324D01*
X140549975Y-100371324D01*
X140435689Y-100333229D01*
X140359499Y-100257039D01*
X140321403Y-100180848D01*
X140283308Y-100028467D01*
X140283308Y-99914181D01*
X140321403Y-99761800D01*
X140359499Y-99685610D01*
X140435689Y-99609420D01*
X140549975Y-99571324D01*
X140626165Y-99571324D01*
X140740451Y-99609420D01*
X140778546Y-99647515D01*
X141045213Y-99571324D02*
X141540451Y-99571324D01*
X141273784Y-99876086D01*
X141388070Y-99876086D01*
X141464260Y-99914181D01*
X141502356Y-99952277D01*
X141540451Y-100028467D01*
X141540451Y-100218943D01*
X141502356Y-100295134D01*
X141464260Y-100333229D01*
X141388070Y-100371324D01*
X141159499Y-100371324D01*
X141083308Y-100333229D01*
X141045213Y-100295134D01*
G04 #@! TO.C,C4*
X137528546Y-97795134D02*
X137490451Y-97833229D01*
X137376165Y-97871324D01*
X137299975Y-97871324D01*
X137185689Y-97833229D01*
X137109499Y-97757039D01*
X137071403Y-97680848D01*
X137033308Y-97528467D01*
X137033308Y-97414181D01*
X137071403Y-97261800D01*
X137109499Y-97185610D01*
X137185689Y-97109420D01*
X137299975Y-97071324D01*
X137376165Y-97071324D01*
X137490451Y-97109420D01*
X137528546Y-97147515D01*
X138214260Y-97337991D02*
X138214260Y-97871324D01*
X138023784Y-97033229D02*
X137833308Y-97604658D01*
X138328546Y-97604658D01*
G04 #@! TO.C,C5*
X135197594Y-95892753D02*
X135235689Y-95930848D01*
X135273784Y-96045134D01*
X135273784Y-96121324D01*
X135235689Y-96235610D01*
X135159499Y-96311800D01*
X135083308Y-96349896D01*
X134930927Y-96387991D01*
X134816641Y-96387991D01*
X134664260Y-96349896D01*
X134588070Y-96311800D01*
X134511880Y-96235610D01*
X134473784Y-96121324D01*
X134473784Y-96045134D01*
X134511880Y-95930848D01*
X134549975Y-95892753D01*
X134473784Y-95168943D02*
X134473784Y-95549896D01*
X134854737Y-95587991D01*
X134816641Y-95549896D01*
X134778546Y-95473705D01*
X134778546Y-95283229D01*
X134816641Y-95207039D01*
X134854737Y-95168943D01*
X134930927Y-95130848D01*
X135121403Y-95130848D01*
X135197594Y-95168943D01*
X135235689Y-95207039D01*
X135273784Y-95283229D01*
X135273784Y-95473705D01*
X135235689Y-95549896D01*
X135197594Y-95587991D01*
G04 #@! TO.C,C6*
X132447594Y-91892753D02*
X132485689Y-91930848D01*
X132523784Y-92045134D01*
X132523784Y-92121324D01*
X132485689Y-92235610D01*
X132409499Y-92311800D01*
X132333308Y-92349896D01*
X132180927Y-92387991D01*
X132066641Y-92387991D01*
X131914260Y-92349896D01*
X131838070Y-92311800D01*
X131761880Y-92235610D01*
X131723784Y-92121324D01*
X131723784Y-92045134D01*
X131761880Y-91930848D01*
X131799975Y-91892753D01*
X131723784Y-91207039D02*
X131723784Y-91359420D01*
X131761880Y-91435610D01*
X131799975Y-91473705D01*
X131914260Y-91549896D01*
X132066641Y-91587991D01*
X132371403Y-91587991D01*
X132447594Y-91549896D01*
X132485689Y-91511800D01*
X132523784Y-91435610D01*
X132523784Y-91283229D01*
X132485689Y-91207039D01*
X132447594Y-91168943D01*
X132371403Y-91130848D01*
X132180927Y-91130848D01*
X132104737Y-91168943D01*
X132066641Y-91207039D01*
X132028546Y-91283229D01*
X132028546Y-91435610D01*
X132066641Y-91511800D01*
X132104737Y-91549896D01*
X132180927Y-91587991D01*
G04 #@! TO.C,U2*
X143702356Y-90821324D02*
X143702356Y-91468943D01*
X143740451Y-91545134D01*
X143778546Y-91583229D01*
X143854737Y-91621324D01*
X144007118Y-91621324D01*
X144083308Y-91583229D01*
X144121403Y-91545134D01*
X144159499Y-91468943D01*
X144159499Y-90821324D01*
X144502356Y-90897515D02*
X144540451Y-90859420D01*
X144616641Y-90821324D01*
X144807118Y-90821324D01*
X144883308Y-90859420D01*
X144921403Y-90897515D01*
X144959499Y-90973705D01*
X144959499Y-91049896D01*
X144921403Y-91164181D01*
X144464260Y-91621324D01*
X144959499Y-91621324D01*
G04 #@! TO.C,C7*
X127278546Y-95545134D02*
X127240451Y-95583229D01*
X127126165Y-95621324D01*
X127049975Y-95621324D01*
X126935689Y-95583229D01*
X126859499Y-95507039D01*
X126821403Y-95430848D01*
X126783308Y-95278467D01*
X126783308Y-95164181D01*
X126821403Y-95011800D01*
X126859499Y-94935610D01*
X126935689Y-94859420D01*
X127049975Y-94821324D01*
X127126165Y-94821324D01*
X127240451Y-94859420D01*
X127278546Y-94897515D01*
X127545213Y-94821324D02*
X128078546Y-94821324D01*
X127735689Y-95621324D01*
G04 #@! TO.C,R11*
X123647594Y-86971324D02*
X123380927Y-86590372D01*
X123190451Y-86971324D02*
X123190451Y-86171324D01*
X123495213Y-86171324D01*
X123571403Y-86209420D01*
X123609499Y-86247515D01*
X123647594Y-86323705D01*
X123647594Y-86437991D01*
X123609499Y-86514181D01*
X123571403Y-86552277D01*
X123495213Y-86590372D01*
X123190451Y-86590372D01*
X124409499Y-86971324D02*
X123952356Y-86971324D01*
X124180927Y-86971324D02*
X124180927Y-86171324D01*
X124104737Y-86285610D01*
X124028546Y-86361800D01*
X123952356Y-86399896D01*
X125171403Y-86971324D02*
X124714260Y-86971324D01*
X124942832Y-86971324D02*
X124942832Y-86171324D01*
X124866641Y-86285610D01*
X124790451Y-86361800D01*
X124714260Y-86399896D01*
G04 #@! TO.C,U3*
X123802356Y-88071324D02*
X123802356Y-88718943D01*
X123840451Y-88795134D01*
X123878546Y-88833229D01*
X123954737Y-88871324D01*
X124107118Y-88871324D01*
X124183308Y-88833229D01*
X124221403Y-88795134D01*
X124259499Y-88718943D01*
X124259499Y-88071324D01*
X124564260Y-88071324D02*
X125059499Y-88071324D01*
X124792832Y-88376086D01*
X124907118Y-88376086D01*
X124983308Y-88414181D01*
X125021403Y-88452277D01*
X125059499Y-88528467D01*
X125059499Y-88718943D01*
X125021403Y-88795134D01*
X124983308Y-88833229D01*
X124907118Y-88871324D01*
X124678546Y-88871324D01*
X124602356Y-88833229D01*
X124564260Y-88795134D01*
G04 #@! TO.C,J2*
D15*
X111827308Y-95727420D02*
X112915880Y-95727420D01*
X113133594Y-95799991D01*
X113278737Y-95945134D01*
X113351308Y-96162848D01*
X113351308Y-96307991D01*
X111972451Y-95074277D02*
X111899880Y-95001705D01*
X111827308Y-94856562D01*
X111827308Y-94493705D01*
X111899880Y-94348562D01*
X111972451Y-94275991D01*
X112117594Y-94203420D01*
X112262737Y-94203420D01*
X112480451Y-94275991D01*
X113351308Y-95146848D01*
X113351308Y-94203420D01*
X115077308Y-99182277D02*
X115077308Y-99907991D01*
X115803022Y-99980562D01*
X115730451Y-99907991D01*
X115657880Y-99762848D01*
X115657880Y-99399991D01*
X115730451Y-99254848D01*
X115803022Y-99182277D01*
X115948165Y-99109705D01*
X116311022Y-99109705D01*
X116456165Y-99182277D01*
X116528737Y-99254848D01*
X116601308Y-99399991D01*
X116601308Y-99762848D01*
X116528737Y-99907991D01*
X116456165Y-99980562D01*
X115077308Y-98674277D02*
X116601308Y-98166277D01*
X115077308Y-97658277D01*
X116601308Y-95989134D02*
X115077308Y-95989134D01*
X116601308Y-95263420D02*
X115077308Y-95263420D01*
X116601308Y-94392562D01*
X115077308Y-94392562D01*
X116601308Y-93666848D02*
X115077308Y-93666848D01*
X115077308Y-93086277D01*
X115149880Y-92941134D01*
X115222451Y-92868562D01*
X115367594Y-92795991D01*
X115585308Y-92795991D01*
X115730451Y-92868562D01*
X115803022Y-92941134D01*
X115875594Y-93086277D01*
X115875594Y-93666848D01*
X115077308Y-92142848D02*
X116311022Y-92142848D01*
X116456165Y-92070277D01*
X116528737Y-91997705D01*
X116601308Y-91852562D01*
X116601308Y-91562277D01*
X116528737Y-91417134D01*
X116456165Y-91344562D01*
X116311022Y-91271991D01*
X115077308Y-91271991D01*
X115077308Y-90763991D02*
X115077308Y-89893134D01*
X116601308Y-90328562D02*
X115077308Y-90328562D01*
G04 #@! TO.C,J4*
X167077308Y-95267420D02*
X168165880Y-95267420D01*
X168383594Y-95339991D01*
X168528737Y-95485134D01*
X168601308Y-95702848D01*
X168601308Y-95847991D01*
X167585308Y-93888562D02*
X168601308Y-93888562D01*
X167004737Y-94251420D02*
X168093308Y-94614277D01*
X168093308Y-93670848D01*
X170077308Y-99291134D02*
X171601308Y-98928277D01*
X170512737Y-98637991D01*
X171601308Y-98347705D01*
X170077308Y-97984848D01*
X171528737Y-97476848D02*
X171601308Y-97259134D01*
X171601308Y-96896277D01*
X171528737Y-96751134D01*
X171456165Y-96678562D01*
X171311022Y-96605991D01*
X171165880Y-96605991D01*
X171020737Y-96678562D01*
X170948165Y-96751134D01*
X170875594Y-96896277D01*
X170803022Y-97186562D01*
X170730451Y-97331705D01*
X170657880Y-97404277D01*
X170512737Y-97476848D01*
X170367594Y-97476848D01*
X170222451Y-97404277D01*
X170149880Y-97331705D01*
X170077308Y-97186562D01*
X170077308Y-96823705D01*
X170149880Y-96605991D01*
X170222451Y-96025420D02*
X170149880Y-95952848D01*
X170077308Y-95807705D01*
X170077308Y-95444848D01*
X170149880Y-95299705D01*
X170222451Y-95227134D01*
X170367594Y-95154562D01*
X170512737Y-95154562D01*
X170730451Y-95227134D01*
X171601308Y-96097991D01*
X171601308Y-95154562D01*
X170730451Y-94283705D02*
X170657880Y-94428848D01*
X170585308Y-94501420D01*
X170440165Y-94573991D01*
X170367594Y-94573991D01*
X170222451Y-94501420D01*
X170149880Y-94428848D01*
X170077308Y-94283705D01*
X170077308Y-93993420D01*
X170149880Y-93848277D01*
X170222451Y-93775705D01*
X170367594Y-93703134D01*
X170440165Y-93703134D01*
X170585308Y-93775705D01*
X170657880Y-93848277D01*
X170730451Y-93993420D01*
X170730451Y-94283705D01*
X170803022Y-94428848D01*
X170875594Y-94501420D01*
X171020737Y-94573991D01*
X171311022Y-94573991D01*
X171456165Y-94501420D01*
X171528737Y-94428848D01*
X171601308Y-94283705D01*
X171601308Y-93993420D01*
X171528737Y-93848277D01*
X171456165Y-93775705D01*
X171311022Y-93703134D01*
X171020737Y-93703134D01*
X170875594Y-93775705D01*
X170803022Y-93848277D01*
X170730451Y-93993420D01*
X171601308Y-92251705D02*
X171601308Y-93122562D01*
X171601308Y-92687134D02*
X170077308Y-92687134D01*
X170295022Y-92832277D01*
X170440165Y-92977420D01*
X170512737Y-93122562D01*
X170222451Y-91671134D02*
X170149880Y-91598562D01*
X170077308Y-91453420D01*
X170077308Y-91090562D01*
X170149880Y-90945420D01*
X170222451Y-90872848D01*
X170367594Y-90800277D01*
X170512737Y-90800277D01*
X170730451Y-90872848D01*
X171601308Y-91743705D01*
X171601308Y-90800277D01*
G04 #@! TD*
%LPC*%
D16*
G04 #@! TO.C,REF\002A\002A*
X155911880Y-95259420D03*
G04 #@! TD*
G04 #@! TO.C,REF\002A\002A*
X149911880Y-95259420D03*
G04 #@! TD*
G04 #@! TO.C,REF\002A\002A*
X151911880Y-95259420D03*
G04 #@! TD*
G04 #@! TO.C,REF\002A\002A*
X153911880Y-95259420D03*
G04 #@! TD*
G04 #@! TO.C,REF\002A\002A*
X155911880Y-87259420D03*
G04 #@! TD*
G04 #@! TO.C,REF\002A\002A*
X155911880Y-89259420D03*
G04 #@! TD*
G04 #@! TO.C,REF\002A\002A*
X155911880Y-91259420D03*
G04 #@! TD*
G04 #@! TO.C,REF\002A\002A*
X155911880Y-93259420D03*
G04 #@! TD*
G04 #@! TO.C,REF\002A\002A*
X153911880Y-87259420D03*
G04 #@! TD*
G04 #@! TO.C,REF\002A\002A*
X153911880Y-89259420D03*
G04 #@! TD*
G04 #@! TO.C,REF\002A\002A*
X153911880Y-91259420D03*
G04 #@! TD*
G04 #@! TO.C,REF\002A\002A*
X153911880Y-93259420D03*
G04 #@! TD*
G04 #@! TO.C,REF\002A\002A*
X151911880Y-87259420D03*
G04 #@! TD*
G04 #@! TO.C,REF\002A\002A*
X151911880Y-89259420D03*
G04 #@! TD*
G04 #@! TO.C,REF\002A\002A*
X151911880Y-91259420D03*
G04 #@! TD*
G04 #@! TO.C,REF\002A\002A*
X151911880Y-93259420D03*
G04 #@! TD*
G04 #@! TO.C,REF\002A\002A*
X149911880Y-87259420D03*
G04 #@! TD*
G04 #@! TO.C,REF\002A\002A*
X149911880Y-89259420D03*
G04 #@! TD*
G04 #@! TO.C,REF\002A\002A*
X149911880Y-91259420D03*
G04 #@! TD*
G04 #@! TO.C,REF\002A\002A*
X149911880Y-93259420D03*
G04 #@! TD*
D17*
G04 #@! TO.C,REF\002A\002A*
X112711880Y-82659420D03*
G04 #@! TD*
G04 #@! TO.C,REF\002A\002A*
X112711880Y-106359420D03*
G04 #@! TD*
G04 #@! TO.C,REF\002A\002A*
X171311880Y-106359420D03*
G04 #@! TD*
G04 #@! TO.C,REF\002A\002A*
X171311880Y-82659420D03*
G04 #@! TD*
D18*
G04 #@! TO.C,J1*
X166171880Y-81719420D03*
X166171880Y-84259420D03*
X163631880Y-81719420D03*
X163631880Y-84259420D03*
X161091880Y-81719420D03*
X161091880Y-84259420D03*
X158551880Y-81719420D03*
X158551880Y-84259420D03*
X156011880Y-81719420D03*
X156011880Y-84259420D03*
X153471880Y-81719420D03*
X153471880Y-84259420D03*
X150931880Y-81719420D03*
X150931880Y-84259420D03*
X148391880Y-81719420D03*
X148391880Y-84259420D03*
X145851880Y-81719420D03*
X145851880Y-84259420D03*
X143311880Y-81719420D03*
X143311880Y-84259420D03*
X140771880Y-81719420D03*
X140771880Y-84259420D03*
X138231880Y-81719420D03*
X138231880Y-84259420D03*
X135691880Y-81719420D03*
X135691880Y-84259420D03*
X133151880Y-81719420D03*
X133151880Y-84259420D03*
X130611880Y-81719420D03*
X130611880Y-84259420D03*
X128071880Y-81719420D03*
X128071880Y-84259420D03*
X125531880Y-81719420D03*
X125531880Y-84259420D03*
X122991880Y-81719420D03*
X122991880Y-84259420D03*
X120451880Y-81719420D03*
X120451880Y-84259420D03*
X117911880Y-81719420D03*
D19*
X117911880Y-84259420D03*
G04 #@! TD*
D20*
G04 #@! TO.C,C3*
X142911880Y-99959420D03*
X145411880Y-99959420D03*
G04 #@! TD*
D21*
G04 #@! TO.C,C4*
X145511880Y-97159420D03*
X141211880Y-97159420D03*
G04 #@! TD*
D22*
G04 #@! TO.C,C5*
X137361880Y-93609420D03*
X137361880Y-89309420D03*
G04 #@! TD*
D23*
G04 #@! TO.C,C6*
X134261880Y-90809420D03*
X134261880Y-93309420D03*
G04 #@! TD*
D24*
G04 #@! TO.C,U2*
X140711880Y-89259420D03*
X140711880Y-93859420D03*
X140711880Y-91559420D03*
D25*
X147011880Y-91559420D03*
G04 #@! TD*
D20*
G04 #@! TO.C,C7*
X126411880Y-93259420D03*
X128911880Y-93259420D03*
G04 #@! TD*
D26*
G04 #@! TO.C,R11*
X126461880Y-86509420D03*
X128661880Y-86509420D03*
G04 #@! TD*
D27*
G04 #@! TO.C,U3*
X126411880Y-90259420D03*
D28*
X128951880Y-90259420D03*
X127681880Y-90259420D03*
G04 #@! TD*
D29*
G04 #@! TO.C,J2*
X119911880Y-97759420D03*
D30*
X119911880Y-92679420D03*
G04 #@! TD*
D29*
G04 #@! TO.C,J4*
X164411880Y-89849420D03*
D30*
X164411880Y-94929420D03*
X164411880Y-100009420D03*
G04 #@! TD*
M02*
