M48
;DRILL file {KiCad 5.0.1-33cea8e~68~ubuntu16.04.1} date Wed 21 Nov 2018 16:27:59 EET
;FORMAT={-:-/ absolute / metric / decimal}
FMAT,2
METRIC,TZ
T1C0.300
T2C0.400
T3C0.800
%
G90
G05
M71
T1
X136.45Y-73.5
X136.45Y-74.77
X136.45Y-76.04
X136.45Y-77.31
X136.45Y-78.58
X139.52Y-80.45
X140.79Y-80.45
X142.06Y-80.45
X143.33Y-80.45
X144.6Y-80.45
X147.55Y-73.5
X147.55Y-74.77
X147.55Y-76.04
X147.55Y-77.31
X147.55Y-78.58
T2
X125.194Y-102.173
X127.9Y-104.9
X128.8Y-105.75
X128.9Y-102.2
X129.905Y-107.105
X133.551Y-106.151
X133.577Y-77.564
X134.1Y-98.9
X137.208Y-103.343
X139.3Y-97.2
X141.Y-83.4
X141.851Y-103.449
X143.348Y-103.154
X143.66Y-100.65
X144.804Y-99.745
X145.Y-83.4
X146.1Y-97.7
X146.3Y-103.3
X146.4Y-111.6
X148.45Y-105.3
X149.8Y-80.2
X150.Y-101.2
X150.Y-108.67
X150.035Y-103.25
X150.8Y-98.7
X150.8Y-111.8
X153.7Y-105.3
X156.1Y-102.1
X159.592Y-102.115
T3
X131.65Y-107.55
X131.65Y-109.55
X133.65Y-107.55
X133.65Y-109.55
X135.65Y-107.55
X135.65Y-109.55
X137.65Y-107.55
X137.65Y-109.55
X139.65Y-107.55
X139.65Y-109.55
X141.65Y-107.55
X141.65Y-109.55
X143.65Y-107.55
X143.65Y-109.55
T0
M30
