G04 #@! TF.GenerationSoftware,KiCad,Pcbnew,5.0.0-rc2-be01b52~65~ubuntu16.04.1*
G04 #@! TF.CreationDate,2018-06-27T12:44:11+03:00*
G04 #@! TF.ProjectId,livolo_2_channels_1way_eu_switch,6C69766F6C6F5F325F6368616E6E656C,rev?*
G04 #@! TF.SameCoordinates,Original*
G04 #@! TF.FileFunction,Legend,Top*
G04 #@! TF.FilePolarity,Positive*
%FSLAX46Y46*%
G04 Gerber Fmt 4.6, Leading zero omitted, Abs format (unit mm)*
G04 Created by KiCad (PCBNEW 5.0.0-rc2-be01b52~65~ubuntu16.04.1) date Wed Jun 27 12:44:11 2018*
%MOMM*%
%LPD*%
G01*
G04 APERTURE LIST*
%ADD10C,0.200000*%
%ADD11C,0.120000*%
%ADD12C,0.150000*%
%ADD13C,1.500000*%
%ADD14O,1.350000X1.350000*%
%ADD15R,1.350000X1.350000*%
%ADD16R,0.750000X1.200000*%
%ADD17R,1.000000X0.995000*%
%ADD18R,0.995000X1.000000*%
%ADD19R,1.524000X0.710000*%
%ADD20R,0.710000X1.524000*%
G04 APERTURE END LIST*
D10*
X150790476Y-111852380D02*
X150457142Y-111376190D01*
X150219047Y-111852380D02*
X150219047Y-110852380D01*
X150600000Y-110852380D01*
X150695238Y-110900000D01*
X150742857Y-110947619D01*
X150790476Y-111042857D01*
X150790476Y-111185714D01*
X150742857Y-111280952D01*
X150695238Y-111328571D01*
X150600000Y-111376190D01*
X150219047Y-111376190D01*
X151600000Y-111804761D02*
X151504761Y-111852380D01*
X151314285Y-111852380D01*
X151219047Y-111804761D01*
X151171428Y-111709523D01*
X151171428Y-111328571D01*
X151219047Y-111233333D01*
X151314285Y-111185714D01*
X151504761Y-111185714D01*
X151600000Y-111233333D01*
X151647619Y-111328571D01*
X151647619Y-111423809D01*
X151171428Y-111519047D01*
X151980952Y-111185714D02*
X152219047Y-111852380D01*
X152457142Y-111185714D01*
X152838095Y-111757142D02*
X152885714Y-111804761D01*
X152838095Y-111852380D01*
X152790476Y-111804761D01*
X152838095Y-111757142D01*
X152838095Y-111852380D01*
X154266666Y-110852380D02*
X154361904Y-110852380D01*
X154457142Y-110900000D01*
X154504761Y-110947619D01*
X154552380Y-111042857D01*
X154600000Y-111233333D01*
X154600000Y-111471428D01*
X154552380Y-111661904D01*
X154504761Y-111757142D01*
X154457142Y-111804761D01*
X154361904Y-111852380D01*
X154266666Y-111852380D01*
X154171428Y-111804761D01*
X154123809Y-111757142D01*
X154076190Y-111661904D01*
X154028571Y-111471428D01*
X154028571Y-111233333D01*
X154076190Y-111042857D01*
X154123809Y-110947619D01*
X154171428Y-110900000D01*
X154266666Y-110852380D01*
X155028571Y-111757142D02*
X155076190Y-111804761D01*
X155028571Y-111852380D01*
X154980952Y-111804761D01*
X155028571Y-111757142D01*
X155028571Y-111852380D01*
X156028571Y-111852380D02*
X155457142Y-111852380D01*
X155742857Y-111852380D02*
X155742857Y-110852380D01*
X155647619Y-110995238D01*
X155552380Y-111090476D01*
X155457142Y-111138095D01*
D11*
G04 #@! TO.C,P4*
X130590000Y-110610000D02*
X130590000Y-109550000D01*
X131650000Y-110610000D02*
X130590000Y-110610000D01*
X132650000Y-108550000D02*
X132650000Y-110610000D01*
X130590000Y-108550000D02*
X132650000Y-108550000D01*
X130590000Y-106490000D02*
X130590000Y-108550000D01*
X144710000Y-106490000D02*
X130590000Y-106490000D01*
X144710000Y-110610000D02*
X144710000Y-106490000D01*
X132650000Y-110610000D02*
X144710000Y-110610000D01*
G04 #@! TO.C,C3*
X152800000Y-77750000D02*
X152800000Y-78450000D01*
X151600000Y-78450000D02*
X151600000Y-77750000D01*
G04 #@! TO.C,C4*
X154700000Y-77750000D02*
X154700000Y-78450000D01*
X153500000Y-78450000D02*
X153500000Y-77750000D01*
D12*
G04 #@! TO.C,U5*
X149433334Y-74800505D02*
X149433334Y-70400000D01*
X149433334Y-70400000D02*
X134933334Y-70400000D01*
X134933334Y-74800126D02*
X134933334Y-70400000D01*
X135508755Y-89600000D02*
X134933334Y-89600000D01*
X149400000Y-74800000D02*
X135000000Y-74800000D01*
X135000000Y-74800000D02*
X149400000Y-70400000D01*
X149400000Y-74800000D02*
X135000000Y-70400000D01*
X136800000Y-89600000D02*
X136400000Y-89600000D01*
X138070000Y-89600000D02*
X137670000Y-89600000D01*
X139340000Y-89600000D02*
X138940000Y-89600000D01*
X140610000Y-89600000D02*
X140210000Y-89600000D01*
X141880000Y-89600000D02*
X141480000Y-89600000D01*
X143150000Y-89600000D02*
X142750000Y-89600000D01*
X144420000Y-89600000D02*
X144020000Y-89600000D01*
X145690000Y-89600000D02*
X145290000Y-89600000D01*
X146960000Y-89600000D02*
X146560000Y-89600000D01*
X149430000Y-89600000D02*
X147830000Y-89600000D01*
X134933334Y-76101386D02*
X134933334Y-75699874D01*
X134933334Y-77371386D02*
X134933334Y-76969874D01*
X134933334Y-78641386D02*
X134933334Y-78239874D01*
X134933334Y-79911386D02*
X134933334Y-79509874D01*
X134933334Y-81181386D02*
X134933334Y-80779874D01*
X134933334Y-82451386D02*
X134933334Y-82049874D01*
X134933334Y-83721386D02*
X134933334Y-83319874D01*
X134933334Y-84991386D02*
X134933334Y-84589874D01*
X134933334Y-86261386D02*
X134933334Y-85859874D01*
X134933334Y-89600899D02*
X134933334Y-87129874D01*
X149433334Y-76105510D02*
X149433334Y-75699495D01*
X149433334Y-77375510D02*
X149433334Y-76969495D01*
X149433334Y-78645510D02*
X149433334Y-78239495D01*
X149433334Y-79915510D02*
X149433334Y-79509495D01*
X149433334Y-81185510D02*
X149433334Y-80779495D01*
X149433334Y-82455510D02*
X149433334Y-82049495D01*
X149433334Y-83725510D02*
X149433334Y-83319495D01*
X149433334Y-84995510D02*
X149433334Y-84589495D01*
X149433334Y-86265510D02*
X149433334Y-85859495D01*
X149433334Y-87535510D02*
X149433334Y-87129495D01*
X149430000Y-89600000D02*
X149430000Y-88499591D01*
G04 #@! TO.C,P4*
D11*
X137357142Y-111671428D02*
X137357142Y-111071428D01*
X137585714Y-111071428D01*
X137642857Y-111100000D01*
X137671428Y-111128571D01*
X137700000Y-111185714D01*
X137700000Y-111271428D01*
X137671428Y-111328571D01*
X137642857Y-111357142D01*
X137585714Y-111385714D01*
X137357142Y-111385714D01*
X138214285Y-111271428D02*
X138214285Y-111671428D01*
X138071428Y-111042857D02*
X137928571Y-111471428D01*
X138300000Y-111471428D01*
X135285714Y-112471428D02*
X135285714Y-111871428D01*
X135514285Y-111871428D01*
X135571428Y-111900000D01*
X135600000Y-111928571D01*
X135628571Y-111985714D01*
X135628571Y-112071428D01*
X135600000Y-112128571D01*
X135571428Y-112157142D01*
X135514285Y-112185714D01*
X135285714Y-112185714D01*
X135971428Y-112471428D02*
X135914285Y-112442857D01*
X135885714Y-112414285D01*
X135857142Y-112357142D01*
X135857142Y-112185714D01*
X135885714Y-112128571D01*
X135914285Y-112100000D01*
X135971428Y-112071428D01*
X136057142Y-112071428D01*
X136114285Y-112100000D01*
X136142857Y-112128571D01*
X136171428Y-112185714D01*
X136171428Y-112357142D01*
X136142857Y-112414285D01*
X136114285Y-112442857D01*
X136057142Y-112471428D01*
X135971428Y-112471428D01*
X136371428Y-112071428D02*
X136485714Y-112471428D01*
X136600000Y-112185714D01*
X136714285Y-112471428D01*
X136828571Y-112071428D01*
X137285714Y-112442857D02*
X137228571Y-112471428D01*
X137114285Y-112471428D01*
X137057142Y-112442857D01*
X137028571Y-112385714D01*
X137028571Y-112157142D01*
X137057142Y-112100000D01*
X137114285Y-112071428D01*
X137228571Y-112071428D01*
X137285714Y-112100000D01*
X137314285Y-112157142D01*
X137314285Y-112214285D01*
X137028571Y-112271428D01*
X137571428Y-112471428D02*
X137571428Y-112071428D01*
X137571428Y-112185714D02*
X137600000Y-112128571D01*
X137628571Y-112100000D01*
X137685714Y-112071428D01*
X137742857Y-112071428D01*
X138600000Y-112157142D02*
X138685714Y-112185714D01*
X138714285Y-112214285D01*
X138742857Y-112271428D01*
X138742857Y-112357142D01*
X138714285Y-112414285D01*
X138685714Y-112442857D01*
X138628571Y-112471428D01*
X138400000Y-112471428D01*
X138400000Y-111871428D01*
X138600000Y-111871428D01*
X138657142Y-111900000D01*
X138685714Y-111928571D01*
X138714285Y-111985714D01*
X138714285Y-112042857D01*
X138685714Y-112100000D01*
X138657142Y-112128571D01*
X138600000Y-112157142D01*
X138400000Y-112157142D01*
X139085714Y-112471428D02*
X139028571Y-112442857D01*
X139000000Y-112414285D01*
X138971428Y-112357142D01*
X138971428Y-112185714D01*
X139000000Y-112128571D01*
X139028571Y-112100000D01*
X139085714Y-112071428D01*
X139171428Y-112071428D01*
X139228571Y-112100000D01*
X139257142Y-112128571D01*
X139285714Y-112185714D01*
X139285714Y-112357142D01*
X139257142Y-112414285D01*
X139228571Y-112442857D01*
X139171428Y-112471428D01*
X139085714Y-112471428D01*
X139800000Y-112471428D02*
X139800000Y-112157142D01*
X139771428Y-112100000D01*
X139714285Y-112071428D01*
X139600000Y-112071428D01*
X139542857Y-112100000D01*
X139800000Y-112442857D02*
X139742857Y-112471428D01*
X139600000Y-112471428D01*
X139542857Y-112442857D01*
X139514285Y-112385714D01*
X139514285Y-112328571D01*
X139542857Y-112271428D01*
X139600000Y-112242857D01*
X139742857Y-112242857D01*
X139800000Y-112214285D01*
X140085714Y-112471428D02*
X140085714Y-112071428D01*
X140085714Y-112185714D02*
X140114285Y-112128571D01*
X140142857Y-112100000D01*
X140200000Y-112071428D01*
X140257142Y-112071428D01*
X140714285Y-112471428D02*
X140714285Y-111871428D01*
X140714285Y-112442857D02*
X140657142Y-112471428D01*
X140542857Y-112471428D01*
X140485714Y-112442857D01*
X140457142Y-112414285D01*
X140428571Y-112357142D01*
X140428571Y-112185714D01*
X140457142Y-112128571D01*
X140485714Y-112100000D01*
X140542857Y-112071428D01*
X140657142Y-112071428D01*
X140714285Y-112100000D01*
G04 #@! TO.C,C3*
X152414285Y-75700000D02*
X152442857Y-75728571D01*
X152471428Y-75814285D01*
X152471428Y-75871428D01*
X152442857Y-75957142D01*
X152385714Y-76014285D01*
X152328571Y-76042857D01*
X152214285Y-76071428D01*
X152128571Y-76071428D01*
X152014285Y-76042857D01*
X151957142Y-76014285D01*
X151900000Y-75957142D01*
X151871428Y-75871428D01*
X151871428Y-75814285D01*
X151900000Y-75728571D01*
X151928571Y-75700000D01*
X151871428Y-75500000D02*
X151871428Y-75128571D01*
X152100000Y-75328571D01*
X152100000Y-75242857D01*
X152128571Y-75185714D01*
X152157142Y-75157142D01*
X152214285Y-75128571D01*
X152357142Y-75128571D01*
X152414285Y-75157142D01*
X152442857Y-75185714D01*
X152471428Y-75242857D01*
X152471428Y-75414285D01*
X152442857Y-75471428D01*
X152414285Y-75500000D01*
G04 #@! TO.C,C4*
X154314285Y-75700000D02*
X154342857Y-75728571D01*
X154371428Y-75814285D01*
X154371428Y-75871428D01*
X154342857Y-75957142D01*
X154285714Y-76014285D01*
X154228571Y-76042857D01*
X154114285Y-76071428D01*
X154028571Y-76071428D01*
X153914285Y-76042857D01*
X153857142Y-76014285D01*
X153800000Y-75957142D01*
X153771428Y-75871428D01*
X153771428Y-75814285D01*
X153800000Y-75728571D01*
X153828571Y-75700000D01*
X153971428Y-75185714D02*
X154371428Y-75185714D01*
X153742857Y-75328571D02*
X154171428Y-75471428D01*
X154171428Y-75100000D01*
G04 #@! TO.C,R1*
X156171428Y-75800000D02*
X155885714Y-76000000D01*
X156171428Y-76142857D02*
X155571428Y-76142857D01*
X155571428Y-75914285D01*
X155600000Y-75857142D01*
X155628571Y-75828571D01*
X155685714Y-75800000D01*
X155771428Y-75800000D01*
X155828571Y-75828571D01*
X155857142Y-75857142D01*
X155885714Y-75914285D01*
X155885714Y-76142857D01*
X156171428Y-75228571D02*
X156171428Y-75571428D01*
X156171428Y-75400000D02*
X155571428Y-75400000D01*
X155657142Y-75457142D01*
X155714285Y-75514285D01*
X155742857Y-75571428D01*
G04 #@! TO.C,R4*
X151700000Y-88971428D02*
X151500000Y-88685714D01*
X151357142Y-88971428D02*
X151357142Y-88371428D01*
X151585714Y-88371428D01*
X151642857Y-88400000D01*
X151671428Y-88428571D01*
X151700000Y-88485714D01*
X151700000Y-88571428D01*
X151671428Y-88628571D01*
X151642857Y-88657142D01*
X151585714Y-88685714D01*
X151357142Y-88685714D01*
X152214285Y-88571428D02*
X152214285Y-88971428D01*
X152071428Y-88342857D02*
X151928571Y-88771428D01*
X152300000Y-88771428D01*
G04 #@! TO.C,R5*
X146512500Y-102371428D02*
X146312500Y-102085714D01*
X146169642Y-102371428D02*
X146169642Y-101771428D01*
X146398214Y-101771428D01*
X146455357Y-101800000D01*
X146483928Y-101828571D01*
X146512500Y-101885714D01*
X146512500Y-101971428D01*
X146483928Y-102028571D01*
X146455357Y-102057142D01*
X146398214Y-102085714D01*
X146169642Y-102085714D01*
X147055357Y-101771428D02*
X146769642Y-101771428D01*
X146741071Y-102057142D01*
X146769642Y-102028571D01*
X146826785Y-102000000D01*
X146969642Y-102000000D01*
X147026785Y-102028571D01*
X147055357Y-102057142D01*
X147083928Y-102114285D01*
X147083928Y-102257142D01*
X147055357Y-102314285D01*
X147026785Y-102342857D01*
X146969642Y-102371428D01*
X146826785Y-102371428D01*
X146769642Y-102342857D01*
X146741071Y-102314285D01*
G04 #@! TO.C,R6*
X146500000Y-103971428D02*
X146300000Y-103685714D01*
X146157142Y-103971428D02*
X146157142Y-103371428D01*
X146385714Y-103371428D01*
X146442857Y-103400000D01*
X146471428Y-103428571D01*
X146500000Y-103485714D01*
X146500000Y-103571428D01*
X146471428Y-103628571D01*
X146442857Y-103657142D01*
X146385714Y-103685714D01*
X146157142Y-103685714D01*
X147014285Y-103371428D02*
X146900000Y-103371428D01*
X146842857Y-103400000D01*
X146814285Y-103428571D01*
X146757142Y-103514285D01*
X146728571Y-103628571D01*
X146728571Y-103857142D01*
X146757142Y-103914285D01*
X146785714Y-103942857D01*
X146842857Y-103971428D01*
X146957142Y-103971428D01*
X147014285Y-103942857D01*
X147042857Y-103914285D01*
X147071428Y-103857142D01*
X147071428Y-103714285D01*
X147042857Y-103657142D01*
X147014285Y-103628571D01*
X146957142Y-103600000D01*
X146842857Y-103600000D01*
X146785714Y-103628571D01*
X146757142Y-103657142D01*
X146728571Y-103714285D01*
G04 #@! TO.C,R7*
X138200000Y-102271428D02*
X138000000Y-101985714D01*
X137857142Y-102271428D02*
X137857142Y-101671428D01*
X138085714Y-101671428D01*
X138142857Y-101700000D01*
X138171428Y-101728571D01*
X138200000Y-101785714D01*
X138200000Y-101871428D01*
X138171428Y-101928571D01*
X138142857Y-101957142D01*
X138085714Y-101985714D01*
X137857142Y-101985714D01*
X138400000Y-101671428D02*
X138800000Y-101671428D01*
X138542857Y-102271428D01*
G04 #@! TO.C,R8*
X138275000Y-103871428D02*
X138075000Y-103585714D01*
X137932142Y-103871428D02*
X137932142Y-103271428D01*
X138160714Y-103271428D01*
X138217857Y-103300000D01*
X138246428Y-103328571D01*
X138275000Y-103385714D01*
X138275000Y-103471428D01*
X138246428Y-103528571D01*
X138217857Y-103557142D01*
X138160714Y-103585714D01*
X137932142Y-103585714D01*
X138617857Y-103528571D02*
X138560714Y-103500000D01*
X138532142Y-103471428D01*
X138503571Y-103414285D01*
X138503571Y-103385714D01*
X138532142Y-103328571D01*
X138560714Y-103300000D01*
X138617857Y-103271428D01*
X138732142Y-103271428D01*
X138789285Y-103300000D01*
X138817857Y-103328571D01*
X138846428Y-103385714D01*
X138846428Y-103414285D01*
X138817857Y-103471428D01*
X138789285Y-103500000D01*
X138732142Y-103528571D01*
X138617857Y-103528571D01*
X138560714Y-103557142D01*
X138532142Y-103585714D01*
X138503571Y-103642857D01*
X138503571Y-103757142D01*
X138532142Y-103814285D01*
X138560714Y-103842857D01*
X138617857Y-103871428D01*
X138732142Y-103871428D01*
X138789285Y-103842857D01*
X138817857Y-103814285D01*
X138846428Y-103757142D01*
X138846428Y-103642857D01*
X138817857Y-103585714D01*
X138789285Y-103557142D01*
X138732142Y-103528571D01*
G04 #@! TO.C,R10*
X132314285Y-88971428D02*
X132114285Y-88685714D01*
X131971428Y-88971428D02*
X131971428Y-88371428D01*
X132200000Y-88371428D01*
X132257142Y-88400000D01*
X132285714Y-88428571D01*
X132314285Y-88485714D01*
X132314285Y-88571428D01*
X132285714Y-88628571D01*
X132257142Y-88657142D01*
X132200000Y-88685714D01*
X131971428Y-88685714D01*
X132885714Y-88971428D02*
X132542857Y-88971428D01*
X132714285Y-88971428D02*
X132714285Y-88371428D01*
X132657142Y-88457142D01*
X132600000Y-88514285D01*
X132542857Y-88542857D01*
X133257142Y-88371428D02*
X133314285Y-88371428D01*
X133371428Y-88400000D01*
X133400000Y-88428571D01*
X133428571Y-88485714D01*
X133457142Y-88600000D01*
X133457142Y-88742857D01*
X133428571Y-88857142D01*
X133400000Y-88914285D01*
X133371428Y-88942857D01*
X133314285Y-88971428D01*
X133257142Y-88971428D01*
X133200000Y-88942857D01*
X133171428Y-88914285D01*
X133142857Y-88857142D01*
X133114285Y-88742857D01*
X133114285Y-88600000D01*
X133142857Y-88485714D01*
X133171428Y-88428571D01*
X133200000Y-88400000D01*
X133257142Y-88371428D01*
G04 #@! TO.C,U5*
X141642857Y-87871428D02*
X141642857Y-88357142D01*
X141671428Y-88414285D01*
X141700000Y-88442857D01*
X141757142Y-88471428D01*
X141871428Y-88471428D01*
X141928571Y-88442857D01*
X141957142Y-88414285D01*
X141985714Y-88357142D01*
X141985714Y-87871428D01*
X142557142Y-87871428D02*
X142271428Y-87871428D01*
X142242857Y-88157142D01*
X142271428Y-88128571D01*
X142328571Y-88100000D01*
X142471428Y-88100000D01*
X142528571Y-88128571D01*
X142557142Y-88157142D01*
X142585714Y-88214285D01*
X142585714Y-88357142D01*
X142557142Y-88414285D01*
X142528571Y-88442857D01*
X142471428Y-88471428D01*
X142328571Y-88471428D01*
X142271428Y-88442857D01*
X142242857Y-88414285D01*
G04 #@! TO.C,L1*
X145371428Y-93800000D02*
X145371428Y-94085714D01*
X144771428Y-94085714D01*
X145371428Y-93285714D02*
X145371428Y-93628571D01*
X145371428Y-93457142D02*
X144771428Y-93457142D01*
X144857142Y-93514285D01*
X144914285Y-93571428D01*
X144942857Y-93628571D01*
G04 #@! TD*
%LPC*%
D13*
G04 #@! TO.C,REF\002A\002A*
X152100000Y-100850000D03*
G04 #@! TD*
G04 #@! TO.C,REF\002A\002A*
X160300000Y-100850000D03*
G04 #@! TD*
G04 #@! TO.C,REF\002A\002A*
X132700000Y-100900000D03*
G04 #@! TD*
G04 #@! TO.C,REF\002A\002A*
X124500000Y-100900000D03*
G04 #@! TD*
D14*
G04 #@! TO.C,P4*
X143650000Y-107550000D03*
X143650000Y-109550000D03*
X141650000Y-107550000D03*
X141650000Y-109550000D03*
X139650000Y-107550000D03*
X139650000Y-109550000D03*
X137650000Y-107550000D03*
X137650000Y-109550000D03*
X135650000Y-107550000D03*
X135650000Y-109550000D03*
X133650000Y-107550000D03*
X133650000Y-109550000D03*
X131650000Y-107550000D03*
D15*
X131650000Y-109550000D03*
G04 #@! TD*
D16*
G04 #@! TO.C,C3*
X152200000Y-77150000D03*
X152200000Y-79050000D03*
G04 #@! TD*
G04 #@! TO.C,C4*
X154100000Y-77150000D03*
X154100000Y-79050000D03*
G04 #@! TD*
D17*
G04 #@! TO.C,R1*
X155900000Y-77100000D03*
X155900000Y-78875000D03*
G04 #@! TD*
D18*
G04 #@! TO.C,R4*
X152587500Y-90100000D03*
X150812500Y-90100000D03*
G04 #@! TD*
G04 #@! TO.C,R5*
X148212500Y-102100000D03*
X149987500Y-102100000D03*
G04 #@! TD*
G04 #@! TO.C,R6*
X149987500Y-103700000D03*
X148212500Y-103700000D03*
G04 #@! TD*
G04 #@! TO.C,R7*
X136675000Y-102100000D03*
X134900000Y-102100000D03*
G04 #@! TD*
G04 #@! TO.C,R8*
X134900000Y-103700000D03*
X136675000Y-103700000D03*
G04 #@! TD*
G04 #@! TO.C,R10*
X131712500Y-90100000D03*
X133487500Y-90100000D03*
G04 #@! TD*
D19*
G04 #@! TO.C,U5*
X149850000Y-75280000D03*
X149850000Y-76550000D03*
X149850000Y-77820000D03*
X149850000Y-79090000D03*
X149850000Y-80360000D03*
X149850000Y-81630000D03*
X149850000Y-82900000D03*
X149850000Y-84170000D03*
X149850000Y-85440000D03*
X149850000Y-86710000D03*
X149850000Y-87980000D03*
D20*
X147400000Y-90100000D03*
X146130000Y-90100000D03*
X144860000Y-90100000D03*
X143590000Y-90100000D03*
X142320000Y-90100000D03*
X141050000Y-90100000D03*
X139780000Y-90100000D03*
X138510000Y-90100000D03*
X137240000Y-90100000D03*
X135970000Y-90100000D03*
D19*
X134450000Y-80360000D03*
X134450000Y-75280000D03*
X134450000Y-77820000D03*
X134450000Y-84170000D03*
X134450000Y-82900000D03*
X134450000Y-76550000D03*
X134450000Y-85440000D03*
X134450000Y-81630000D03*
X134450000Y-86710000D03*
X134450000Y-79090000D03*
G04 #@! TD*
D17*
G04 #@! TO.C,L1*
X143600000Y-94700000D03*
X143600000Y-92925000D03*
G04 #@! TD*
M02*
