M48
;DRILL file {KiCad 5.0.0-rc2-be01b52~65~ubuntu16.04.1} date Wed Jun 27 12:44:16 2018
;FORMAT={-:-/ absolute / metric / decimal}
FMAT,2
METRIC,TZ
T1C0.400
T2C0.800
%
G90
G05
M71
T1
X122.Y-81.2
X122.Y-84.7
X122.Y-99.6
X122.Y-103.3
X123.7Y-82.9
X123.9Y-79.2
X124.Y-105.1
X125.7Y-81.2
X125.7Y-103.3
X125.7Y-106.8
X125.8Y-77.4
X127.4Y-82.9
X127.5Y-79.1
X127.5Y-105.1
X127.5Y-108.8
X128.675Y-92.6
X129.2Y-110.5
X129.3Y-106.9
X129.4Y-77.4
X129.4Y-81.2
X129.4Y-103.2
X131.1Y-79.1
X131.1Y-82.9
X131.2Y-112.5
X133.Y-77.3
X133.Y-102.6
X133.Y-103.7
X133.1Y-81.2
X134.9Y-112.6
X136.7Y-81.1
X137.1Y-84.2
X137.1Y-86.
X138.7Y-112.6
X140.4Y-88.4
X140.4Y-110.8
X142.3Y-86.6
X142.4Y-112.6
X143.6Y-95.9
X144.8Y-105.
X145.8Y-78.4
X146.Y-108.8
X146.Y-112.6
X147.9Y-107.1
X147.9Y-110.6
X149.7Y-108.8
X149.7Y-112.5
X151.6Y-81.
X151.6Y-102.5
X151.6Y-103.7
X151.6Y-107.
X151.6Y-110.6
X153.3Y-112.3
X153.4Y-82.8
X153.4Y-108.7
X154.9Y-103.2
X155.3Y-81.2
X155.3Y-106.9
X155.3Y-110.5
X155.9Y-80.2
X156.225Y-92.5
X157.Y-82.9
X157.Y-112.2
X157.1Y-79.2
X157.1Y-108.6
X157.2Y-105.2
X159.Y-77.4
X159.Y-81.2
X159.Y-106.9
X159.Y-110.4
X160.7Y-82.9
X160.8Y-105.1
X160.9Y-79.3
X160.9Y-108.7
X162.6Y-81.
X162.6Y-84.8
X162.6Y-103.3
X162.6Y-106.8
X162.7Y-99.6
T2
X131.65Y-107.55
X131.65Y-109.55
X133.65Y-107.55
X133.65Y-109.55
X135.65Y-107.55
X135.65Y-109.55
X137.65Y-107.55
X137.65Y-109.55
X139.65Y-107.55
X139.65Y-109.55
X141.65Y-107.55
X141.65Y-109.55
X143.65Y-107.55
X143.65Y-109.55
T0
M30
