G04 #@! TF.GenerationSoftware,KiCad,Pcbnew,no-vcs-found-161045f~59~ubuntu16.04.1*
G04 #@! TF.CreationDate,2017-07-27T15:37:53+03:00*
G04 #@! TF.ProjectId,livolo_1_channel_1way_eu_switch,6C69766F6C6F5F315F6368616E6E656C,rev?*
G04 #@! TF.SameCoordinates,Original*
G04 #@! TF.FileFunction,Legend,Top*
G04 #@! TF.FilePolarity,Positive*
%FSLAX46Y46*%
G04 Gerber Fmt 4.6, Leading zero omitted, Abs format (unit mm)*
G04 Created by KiCad (PCBNEW no-vcs-found-161045f~59~ubuntu16.04.1) date Thu Jul 27 15:37:53 2017*
%MOMM*%
%LPD*%
G01*
G04 APERTURE LIST*
%ADD10C,0.200000*%
%ADD11C,0.100000*%
%ADD12C,0.120000*%
%ADD13C,0.150000*%
%ADD14R,2.000000X1.000000*%
%ADD15R,2.500000X0.812800*%
%ADD16R,4.000000X2.000000*%
%ADD17R,1.200000X2.000000*%
%ADD18R,1.200000X1.400000*%
%ADD19R,0.900000X1.200000*%
%ADD20R,0.650000X1.060000*%
%ADD21C,1.500000*%
%ADD22R,1.200000X0.750000*%
%ADD23R,0.750000X1.200000*%
%ADD24R,1.200000X0.900000*%
%ADD25R,0.500000X0.900000*%
%ADD26O,1.350000X1.350000*%
%ADD27R,1.350000X1.350000*%
%ADD28R,1.260000X1.750000*%
%ADD29R,1.000000X1.600000*%
%ADD30R,1.450000X0.450000*%
G04 APERTURE END LIST*
D10*
X126052380Y-108609523D02*
X125576190Y-108942857D01*
X126052380Y-109180952D02*
X125052380Y-109180952D01*
X125052380Y-108800000D01*
X125100000Y-108704761D01*
X125147619Y-108657142D01*
X125242857Y-108609523D01*
X125385714Y-108609523D01*
X125480952Y-108657142D01*
X125528571Y-108704761D01*
X125576190Y-108800000D01*
X125576190Y-109180952D01*
X126004761Y-107800000D02*
X126052380Y-107895238D01*
X126052380Y-108085714D01*
X126004761Y-108180952D01*
X125909523Y-108228571D01*
X125528571Y-108228571D01*
X125433333Y-108180952D01*
X125385714Y-108085714D01*
X125385714Y-107895238D01*
X125433333Y-107800000D01*
X125528571Y-107752380D01*
X125623809Y-107752380D01*
X125719047Y-108228571D01*
X125385714Y-107419047D02*
X126052380Y-107180952D01*
X125385714Y-106942857D01*
X125957142Y-106561904D02*
X126004761Y-106514285D01*
X126052380Y-106561904D01*
X126004761Y-106609523D01*
X125957142Y-106561904D01*
X126052380Y-106561904D01*
X125052380Y-105133333D02*
X125052380Y-105038095D01*
X125100000Y-104942857D01*
X125147619Y-104895238D01*
X125242857Y-104847619D01*
X125433333Y-104800000D01*
X125671428Y-104800000D01*
X125861904Y-104847619D01*
X125957142Y-104895238D01*
X126004761Y-104942857D01*
X126052380Y-105038095D01*
X126052380Y-105133333D01*
X126004761Y-105228571D01*
X125957142Y-105276190D01*
X125861904Y-105323809D01*
X125671428Y-105371428D01*
X125433333Y-105371428D01*
X125242857Y-105323809D01*
X125147619Y-105276190D01*
X125100000Y-105228571D01*
X125052380Y-105133333D01*
X125957142Y-104371428D02*
X126004761Y-104323809D01*
X126052380Y-104371428D01*
X126004761Y-104419047D01*
X125957142Y-104371428D01*
X126052380Y-104371428D01*
X125147619Y-103942857D02*
X125100000Y-103895238D01*
X125052380Y-103800000D01*
X125052380Y-103561904D01*
X125100000Y-103466666D01*
X125147619Y-103419047D01*
X125242857Y-103371428D01*
X125338095Y-103371428D01*
X125480952Y-103419047D01*
X126052380Y-103990476D01*
X126052380Y-103371428D01*
D11*
X154440476Y-82002380D02*
X154511904Y-82026190D01*
X154630952Y-82026190D01*
X154678571Y-82002380D01*
X154702380Y-81978571D01*
X154726190Y-81930952D01*
X154726190Y-81883333D01*
X154702380Y-81835714D01*
X154678571Y-81811904D01*
X154630952Y-81788095D01*
X154535714Y-81764285D01*
X154488095Y-81740476D01*
X154464285Y-81716666D01*
X154440476Y-81669047D01*
X154440476Y-81621428D01*
X154464285Y-81573809D01*
X154488095Y-81550000D01*
X154535714Y-81526190D01*
X154654761Y-81526190D01*
X154726190Y-81550000D01*
X154892857Y-81526190D02*
X155011904Y-82026190D01*
X155107142Y-81669047D01*
X155202380Y-82026190D01*
X155321428Y-81526190D01*
X155511904Y-82026190D02*
X155511904Y-81526190D01*
X155630952Y-81526190D01*
X155702380Y-81550000D01*
X155750000Y-81597619D01*
X155773809Y-81645238D01*
X155797619Y-81740476D01*
X155797619Y-81811904D01*
X155773809Y-81907142D01*
X155750000Y-81954761D01*
X155702380Y-82002380D01*
X155630952Y-82026190D01*
X155511904Y-82026190D01*
X156011904Y-82026190D02*
X156011904Y-81526190D01*
X156345238Y-81526190D02*
X156440476Y-81526190D01*
X156488095Y-81550000D01*
X156535714Y-81597619D01*
X156559523Y-81692857D01*
X156559523Y-81859523D01*
X156535714Y-81954761D01*
X156488095Y-82002380D01*
X156440476Y-82026190D01*
X156345238Y-82026190D01*
X156297619Y-82002380D01*
X156250000Y-81954761D01*
X156226190Y-81859523D01*
X156226190Y-81692857D01*
X156250000Y-81597619D01*
X156297619Y-81550000D01*
X156345238Y-81526190D01*
X160919047Y-81350000D02*
X160871428Y-81326190D01*
X160800000Y-81326190D01*
X160728571Y-81350000D01*
X160680952Y-81397619D01*
X160657142Y-81445238D01*
X160633333Y-81540476D01*
X160633333Y-81611904D01*
X160657142Y-81707142D01*
X160680952Y-81754761D01*
X160728571Y-81802380D01*
X160800000Y-81826190D01*
X160847619Y-81826190D01*
X160919047Y-81802380D01*
X160942857Y-81778571D01*
X160942857Y-81611904D01*
X160847619Y-81611904D01*
X161157142Y-81826190D02*
X161157142Y-81326190D01*
X161442857Y-81826190D01*
X161442857Y-81326190D01*
X161680952Y-81826190D02*
X161680952Y-81326190D01*
X161800000Y-81326190D01*
X161871428Y-81350000D01*
X161919047Y-81397619D01*
X161942857Y-81445238D01*
X161966666Y-81540476D01*
X161966666Y-81611904D01*
X161942857Y-81707142D01*
X161919047Y-81754761D01*
X161871428Y-81802380D01*
X161800000Y-81826190D01*
X161680952Y-81826190D01*
X154469047Y-80602380D02*
X154540476Y-80626190D01*
X154659523Y-80626190D01*
X154707142Y-80602380D01*
X154730952Y-80578571D01*
X154754761Y-80530952D01*
X154754761Y-80483333D01*
X154730952Y-80435714D01*
X154707142Y-80411904D01*
X154659523Y-80388095D01*
X154564285Y-80364285D01*
X154516666Y-80340476D01*
X154492857Y-80316666D01*
X154469047Y-80269047D01*
X154469047Y-80221428D01*
X154492857Y-80173809D01*
X154516666Y-80150000D01*
X154564285Y-80126190D01*
X154683333Y-80126190D01*
X154754761Y-80150000D01*
X154921428Y-80126190D02*
X155040476Y-80626190D01*
X155135714Y-80269047D01*
X155230952Y-80626190D01*
X155350000Y-80126190D01*
X155826190Y-80578571D02*
X155802380Y-80602380D01*
X155730952Y-80626190D01*
X155683333Y-80626190D01*
X155611904Y-80602380D01*
X155564285Y-80554761D01*
X155540476Y-80507142D01*
X155516666Y-80411904D01*
X155516666Y-80340476D01*
X155540476Y-80245238D01*
X155564285Y-80197619D01*
X155611904Y-80150000D01*
X155683333Y-80126190D01*
X155730952Y-80126190D01*
X155802380Y-80150000D01*
X155826190Y-80173809D01*
X156278571Y-80626190D02*
X156040476Y-80626190D01*
X156040476Y-80126190D01*
X156445238Y-80626190D02*
X156445238Y-80126190D01*
X156730952Y-80626190D02*
X156516666Y-80340476D01*
X156730952Y-80126190D02*
X156445238Y-80411904D01*
X160580952Y-79426190D02*
X160890476Y-79426190D01*
X160723809Y-79616666D01*
X160795238Y-79616666D01*
X160842857Y-79640476D01*
X160866666Y-79664285D01*
X160890476Y-79711904D01*
X160890476Y-79830952D01*
X160866666Y-79878571D01*
X160842857Y-79902380D01*
X160795238Y-79926190D01*
X160652380Y-79926190D01*
X160604761Y-79902380D01*
X160580952Y-79878571D01*
X161033333Y-79426190D02*
X161200000Y-79926190D01*
X161366666Y-79426190D01*
X161485714Y-79426190D02*
X161795238Y-79426190D01*
X161628571Y-79616666D01*
X161700000Y-79616666D01*
X161747619Y-79640476D01*
X161771428Y-79664285D01*
X161795238Y-79711904D01*
X161795238Y-79830952D01*
X161771428Y-79878571D01*
X161747619Y-79902380D01*
X161700000Y-79926190D01*
X161557142Y-79926190D01*
X161509523Y-79902380D01*
X161485714Y-79878571D01*
D12*
X151775000Y-78800000D02*
X154215000Y-78800000D01*
X158335000Y-82660000D02*
X158335000Y-82400000D01*
X154215000Y-82660000D02*
X158335000Y-82660000D01*
X154215000Y-82400000D02*
X154215000Y-82660000D01*
X158335000Y-78540000D02*
X158335000Y-78800000D01*
X154215000Y-78540000D02*
X158335000Y-78540000D01*
X154215000Y-78800000D02*
X154215000Y-78540000D01*
D13*
X134374400Y-85929200D02*
X134374400Y-85270074D01*
X149995400Y-85929200D02*
X134374156Y-85929200D01*
X149995400Y-85294200D02*
X149995400Y-85929707D01*
X155600000Y-108875000D02*
X155775000Y-109000000D01*
X159800000Y-108850000D02*
X159675000Y-109000000D01*
X159675000Y-109000000D02*
X155800000Y-109000000D01*
X159800000Y-103650000D02*
X159600000Y-103550000D01*
X159800000Y-108850000D02*
X159800000Y-103650000D01*
X155800000Y-103550000D02*
X159600000Y-103550000D01*
X155600000Y-108875000D02*
X155600000Y-103675000D01*
X155600000Y-103675000D02*
X155800000Y-103550000D01*
D10*
X155000000Y-108300000D02*
X154000000Y-108300000D01*
D13*
X155300000Y-109800000D02*
X155200000Y-109800000D01*
X155300000Y-106900000D02*
X155300000Y-109800000D01*
X153700000Y-106900000D02*
X153700000Y-109801723D01*
X153800000Y-109800000D02*
X153700000Y-109800000D01*
X153800000Y-106900000D02*
X153700000Y-106900000D01*
X155300000Y-106900000D02*
X155200000Y-106900000D01*
X145425000Y-108600000D02*
X145425000Y-107600000D01*
X146775000Y-107600000D02*
X146775000Y-108600000D01*
D12*
X151910000Y-109000000D02*
X151910000Y-106550000D01*
X148690000Y-107200000D02*
X148690000Y-109000000D01*
D13*
X154850000Y-101800000D02*
X155550000Y-101800000D01*
X155550000Y-103000000D02*
X154850000Y-103000000D01*
X152300000Y-108450000D02*
X152300000Y-107750000D01*
X153500000Y-107750000D02*
X153500000Y-108450000D01*
D12*
X151150000Y-103900000D02*
X155050000Y-103900000D01*
X151150000Y-105900000D02*
X155050000Y-105900000D01*
X151150000Y-103900000D02*
X151150000Y-105900000D01*
D13*
X148375000Y-107600000D02*
X148375000Y-108600000D01*
X147025000Y-108600000D02*
X147025000Y-107600000D01*
X141000000Y-103975000D02*
X140000000Y-103975000D01*
X140000000Y-102625000D02*
X141000000Y-102625000D01*
X144100000Y-102625000D02*
X145100000Y-102625000D01*
X145100000Y-103975000D02*
X144100000Y-103975000D01*
D12*
X153900000Y-101080000D02*
X152900000Y-101080000D01*
X152900000Y-99720000D02*
X153900000Y-99720000D01*
X130590000Y-110610000D02*
X130590000Y-109550000D01*
X131650000Y-110610000D02*
X130590000Y-110610000D01*
X132650000Y-108550000D02*
X132650000Y-110610000D01*
X130590000Y-108550000D02*
X132650000Y-108550000D01*
X130590000Y-106490000D02*
X130590000Y-108550000D01*
X144710000Y-106490000D02*
X130590000Y-106490000D01*
X144710000Y-110610000D02*
X144710000Y-106490000D01*
X132650000Y-110610000D02*
X144710000Y-110610000D01*
X132500000Y-78150000D02*
X130700000Y-78150000D01*
X130700000Y-78150000D02*
X130700000Y-81600000D01*
X132500000Y-78150000D02*
X132500000Y-81600000D01*
X130100000Y-80200000D02*
X130100000Y-80900000D01*
X128900000Y-80900000D02*
X128900000Y-80200000D01*
X149800000Y-112020000D02*
X151800000Y-112020000D01*
X151800000Y-109980000D02*
X149800000Y-109980000D01*
X156000000Y-88450000D02*
X156000000Y-89150000D01*
X154800000Y-89150000D02*
X154800000Y-88450000D01*
X159450000Y-94800000D02*
X160150000Y-94800000D01*
X160150000Y-96000000D02*
X159450000Y-96000000D01*
X152350000Y-93320000D02*
X153350000Y-93320000D01*
X153350000Y-94680000D02*
X152350000Y-94680000D01*
X153300000Y-92880000D02*
X152300000Y-92880000D01*
X152300000Y-91520000D02*
X153300000Y-91520000D01*
X158700000Y-90480000D02*
X157700000Y-90480000D01*
X157700000Y-89120000D02*
X158700000Y-89120000D01*
X161720000Y-93100000D02*
X161720000Y-92100000D01*
X163080000Y-92100000D02*
X163080000Y-93100000D01*
D13*
X156125000Y-91100000D02*
X154875000Y-91100000D01*
X156125000Y-94275000D02*
X159475000Y-94275000D01*
X156125000Y-90925000D02*
X159475000Y-90925000D01*
X156125000Y-94275000D02*
X156125000Y-94025000D01*
X159475000Y-94275000D02*
X159475000Y-94025000D01*
X159475000Y-90925000D02*
X159475000Y-91175000D01*
X156125000Y-90925000D02*
X156125000Y-91100000D01*
D11*
X155333333Y-77426190D02*
X155333333Y-77783333D01*
X155309523Y-77854761D01*
X155261904Y-77902380D01*
X155190476Y-77926190D01*
X155142857Y-77926190D01*
X155833333Y-77926190D02*
X155547619Y-77926190D01*
X155690476Y-77926190D02*
X155690476Y-77426190D01*
X155642857Y-77497619D01*
X155595238Y-77545238D01*
X155547619Y-77569047D01*
X156521428Y-77902380D02*
X156592857Y-77926190D01*
X156711904Y-77926190D01*
X156759523Y-77902380D01*
X156783333Y-77878571D01*
X156807142Y-77830952D01*
X156807142Y-77783333D01*
X156783333Y-77735714D01*
X156759523Y-77711904D01*
X156711904Y-77688095D01*
X156616666Y-77664285D01*
X156569047Y-77640476D01*
X156545238Y-77616666D01*
X156521428Y-77569047D01*
X156521428Y-77521428D01*
X156545238Y-77473809D01*
X156569047Y-77450000D01*
X156616666Y-77426190D01*
X156735714Y-77426190D01*
X156807142Y-77450000D01*
X156973809Y-77426190D02*
X157092857Y-77926190D01*
X157188095Y-77569047D01*
X157283333Y-77926190D01*
X157402380Y-77426190D01*
X157592857Y-77926190D02*
X157592857Y-77426190D01*
X157711904Y-77426190D01*
X157783333Y-77450000D01*
X157830952Y-77497619D01*
X157854761Y-77545238D01*
X157878571Y-77640476D01*
X157878571Y-77711904D01*
X157854761Y-77807142D01*
X157830952Y-77854761D01*
X157783333Y-77902380D01*
X157711904Y-77926190D01*
X157592857Y-77926190D01*
X141765847Y-80016590D02*
X141765847Y-80421352D01*
X141789657Y-80468971D01*
X141813466Y-80492780D01*
X141861085Y-80516590D01*
X141956323Y-80516590D01*
X142003942Y-80492780D01*
X142027752Y-80468971D01*
X142051561Y-80421352D01*
X142051561Y-80016590D01*
X142527752Y-80016590D02*
X142289657Y-80016590D01*
X142265847Y-80254685D01*
X142289657Y-80230876D01*
X142337276Y-80207066D01*
X142456323Y-80207066D01*
X142503942Y-80230876D01*
X142527752Y-80254685D01*
X142551561Y-80302304D01*
X142551561Y-80421352D01*
X142527752Y-80468971D01*
X142503942Y-80492780D01*
X142456323Y-80516590D01*
X142337276Y-80516590D01*
X142289657Y-80492780D01*
X142265847Y-80468971D01*
X140851590Y-82167590D02*
X140851590Y-81667590D01*
X141042066Y-81667590D01*
X141089685Y-81691400D01*
X141113495Y-81715209D01*
X141137304Y-81762828D01*
X141137304Y-81834257D01*
X141113495Y-81881876D01*
X141089685Y-81905685D01*
X141042066Y-81929495D01*
X140851590Y-81929495D01*
X141280161Y-81667590D02*
X141565876Y-81667590D01*
X141423019Y-82167590D02*
X141423019Y-81667590D01*
X142018257Y-82167590D02*
X141851590Y-81929495D01*
X141732542Y-82167590D02*
X141732542Y-81667590D01*
X141923019Y-81667590D01*
X141970638Y-81691400D01*
X141994447Y-81715209D01*
X142018257Y-81762828D01*
X142018257Y-81834257D01*
X141994447Y-81881876D01*
X141970638Y-81905685D01*
X141923019Y-81929495D01*
X141732542Y-81929495D01*
X142470638Y-81667590D02*
X142232542Y-81667590D01*
X142208733Y-81905685D01*
X142232542Y-81881876D01*
X142280161Y-81858066D01*
X142399209Y-81858066D01*
X142446828Y-81881876D01*
X142470638Y-81905685D01*
X142494447Y-81953304D01*
X142494447Y-82072352D01*
X142470638Y-82119971D01*
X142446828Y-82143780D01*
X142399209Y-82167590D01*
X142280161Y-82167590D01*
X142232542Y-82143780D01*
X142208733Y-82119971D01*
X142946828Y-81667590D02*
X142708733Y-81667590D01*
X142684923Y-81905685D01*
X142708733Y-81881876D01*
X142756352Y-81858066D01*
X142875400Y-81858066D01*
X142923019Y-81881876D01*
X142946828Y-81905685D01*
X142970638Y-81953304D01*
X142970638Y-82072352D01*
X142946828Y-82119971D01*
X142923019Y-82143780D01*
X142875400Y-82167590D01*
X142756352Y-82167590D01*
X142708733Y-82143780D01*
X142684923Y-82119971D01*
X143446828Y-82167590D02*
X143161114Y-82167590D01*
X143303971Y-82167590D02*
X143303971Y-81667590D01*
X143256352Y-81739019D01*
X143208733Y-81786638D01*
X143161114Y-81810447D01*
X143732542Y-81881876D02*
X143684923Y-81858066D01*
X143661114Y-81834257D01*
X143637304Y-81786638D01*
X143637304Y-81762828D01*
X143661114Y-81715209D01*
X143684923Y-81691400D01*
X143732542Y-81667590D01*
X143827780Y-81667590D01*
X143875400Y-81691400D01*
X143899209Y-81715209D01*
X143923019Y-81762828D01*
X143923019Y-81786638D01*
X143899209Y-81834257D01*
X143875400Y-81858066D01*
X143827780Y-81881876D01*
X143732542Y-81881876D01*
X143684923Y-81905685D01*
X143661114Y-81929495D01*
X143637304Y-81977114D01*
X143637304Y-82072352D01*
X143661114Y-82119971D01*
X143684923Y-82143780D01*
X143732542Y-82167590D01*
X143827780Y-82167590D01*
X143875400Y-82143780D01*
X143899209Y-82119971D01*
X143923019Y-82072352D01*
X143923019Y-81977114D01*
X143899209Y-81929495D01*
X143875400Y-81905685D01*
X143827780Y-81881876D01*
X156166666Y-109826190D02*
X155928571Y-109826190D01*
X155928571Y-109326190D01*
X156309523Y-109373809D02*
X156333333Y-109350000D01*
X156380952Y-109326190D01*
X156500000Y-109326190D01*
X156547619Y-109350000D01*
X156571428Y-109373809D01*
X156595238Y-109421428D01*
X156595238Y-109469047D01*
X156571428Y-109540476D01*
X156285714Y-109826190D01*
X156595238Y-109826190D01*
X157616666Y-109826190D02*
X157330952Y-109826190D01*
X157473809Y-109826190D02*
X157473809Y-109326190D01*
X157426190Y-109397619D01*
X157378571Y-109445238D01*
X157330952Y-109469047D01*
X158069047Y-109326190D02*
X157830952Y-109326190D01*
X157807142Y-109564285D01*
X157830952Y-109540476D01*
X157878571Y-109516666D01*
X157997619Y-109516666D01*
X158045238Y-109540476D01*
X158069047Y-109564285D01*
X158092857Y-109611904D01*
X158092857Y-109730952D01*
X158069047Y-109778571D01*
X158045238Y-109802380D01*
X157997619Y-109826190D01*
X157878571Y-109826190D01*
X157830952Y-109802380D01*
X157807142Y-109778571D01*
X158521428Y-109492857D02*
X158521428Y-109826190D01*
X158307142Y-109492857D02*
X158307142Y-109754761D01*
X158330952Y-109802380D01*
X158378571Y-109826190D01*
X158450000Y-109826190D01*
X158497619Y-109802380D01*
X158521428Y-109778571D01*
X158759523Y-109826190D02*
X158759523Y-109326190D01*
X158759523Y-109564285D02*
X159045238Y-109564285D01*
X159045238Y-109826190D02*
X159045238Y-109326190D01*
X154880952Y-111426190D02*
X154880952Y-110926190D01*
X155000000Y-110926190D01*
X155071428Y-110950000D01*
X155119047Y-110997619D01*
X155142857Y-111045238D01*
X155166666Y-111140476D01*
X155166666Y-111211904D01*
X155142857Y-111307142D01*
X155119047Y-111354761D01*
X155071428Y-111402380D01*
X155000000Y-111426190D01*
X154880952Y-111426190D01*
X155357142Y-110973809D02*
X155380952Y-110950000D01*
X155428571Y-110926190D01*
X155547619Y-110926190D01*
X155595238Y-110950000D01*
X155619047Y-110973809D01*
X155642857Y-111021428D01*
X155642857Y-111069047D01*
X155619047Y-111140476D01*
X155333333Y-111426190D01*
X155642857Y-111426190D01*
X154357142Y-112102380D02*
X154428571Y-112126190D01*
X154547619Y-112126190D01*
X154595238Y-112102380D01*
X154619047Y-112078571D01*
X154642857Y-112030952D01*
X154642857Y-111983333D01*
X154619047Y-111935714D01*
X154595238Y-111911904D01*
X154547619Y-111888095D01*
X154452380Y-111864285D01*
X154404761Y-111840476D01*
X154380952Y-111816666D01*
X154357142Y-111769047D01*
X154357142Y-111721428D01*
X154380952Y-111673809D01*
X154404761Y-111650000D01*
X154452380Y-111626190D01*
X154571428Y-111626190D01*
X154642857Y-111650000D01*
X154833333Y-112102380D02*
X154904761Y-112126190D01*
X155023809Y-112126190D01*
X155071428Y-112102380D01*
X155095238Y-112078571D01*
X155119047Y-112030952D01*
X155119047Y-111983333D01*
X155095238Y-111935714D01*
X155071428Y-111911904D01*
X155023809Y-111888095D01*
X154928571Y-111864285D01*
X154880952Y-111840476D01*
X154857142Y-111816666D01*
X154833333Y-111769047D01*
X154833333Y-111721428D01*
X154857142Y-111673809D01*
X154880952Y-111650000D01*
X154928571Y-111626190D01*
X155047619Y-111626190D01*
X155119047Y-111650000D01*
X155595238Y-112126190D02*
X155309523Y-112126190D01*
X155452380Y-112126190D02*
X155452380Y-111626190D01*
X155404761Y-111697619D01*
X155357142Y-111745238D01*
X155309523Y-111769047D01*
X156023809Y-111792857D02*
X156023809Y-112126190D01*
X155904761Y-111602380D02*
X155785714Y-111959523D01*
X156095238Y-111959523D01*
X156285714Y-112126190D02*
X156285714Y-111626190D01*
X156452380Y-111983333D01*
X156619047Y-111626190D01*
X156619047Y-112126190D01*
X145426190Y-110783333D02*
X145188095Y-110950000D01*
X145426190Y-111069047D02*
X144926190Y-111069047D01*
X144926190Y-110878571D01*
X144950000Y-110830952D01*
X144973809Y-110807142D01*
X145021428Y-110783333D01*
X145092857Y-110783333D01*
X145140476Y-110807142D01*
X145164285Y-110830952D01*
X145188095Y-110878571D01*
X145188095Y-111069047D01*
X144973809Y-110592857D02*
X144950000Y-110569047D01*
X144926190Y-110521428D01*
X144926190Y-110402380D01*
X144950000Y-110354761D01*
X144973809Y-110330952D01*
X145021428Y-110307142D01*
X145069047Y-110307142D01*
X145140476Y-110330952D01*
X145426190Y-110616666D01*
X145426190Y-110307142D01*
X146226190Y-111145238D02*
X146226190Y-111430952D01*
X146226190Y-111288095D02*
X145726190Y-111288095D01*
X145797619Y-111335714D01*
X145845238Y-111383333D01*
X145869047Y-111430952D01*
X145726190Y-110835714D02*
X145726190Y-110788095D01*
X145750000Y-110740476D01*
X145773809Y-110716666D01*
X145821428Y-110692857D01*
X145916666Y-110669047D01*
X146035714Y-110669047D01*
X146130952Y-110692857D01*
X146178571Y-110716666D01*
X146202380Y-110740476D01*
X146226190Y-110788095D01*
X146226190Y-110835714D01*
X146202380Y-110883333D01*
X146178571Y-110907142D01*
X146130952Y-110930952D01*
X146035714Y-110954761D01*
X145916666Y-110954761D01*
X145821428Y-110930952D01*
X145773809Y-110907142D01*
X145750000Y-110883333D01*
X145726190Y-110835714D01*
X146226190Y-110454761D02*
X145726190Y-110454761D01*
X146226190Y-110169047D02*
X145940476Y-110383333D01*
X145726190Y-110169047D02*
X146011904Y-110454761D01*
X149419047Y-105526190D02*
X149419047Y-105930952D01*
X149442857Y-105978571D01*
X149466666Y-106002380D01*
X149514285Y-106026190D01*
X149609523Y-106026190D01*
X149657142Y-106002380D01*
X149680952Y-105978571D01*
X149704761Y-105930952D01*
X149704761Y-105526190D01*
X149919047Y-105573809D02*
X149942857Y-105550000D01*
X149990476Y-105526190D01*
X150109523Y-105526190D01*
X150157142Y-105550000D01*
X150180952Y-105573809D01*
X150204761Y-105621428D01*
X150204761Y-105669047D01*
X150180952Y-105740476D01*
X149895238Y-106026190D01*
X150204761Y-106026190D01*
X148542857Y-108426190D02*
X148542857Y-107926190D01*
X148709523Y-108283333D01*
X148876190Y-107926190D01*
X148876190Y-108426190D01*
X149400000Y-108378571D02*
X149376190Y-108402380D01*
X149304761Y-108426190D01*
X149257142Y-108426190D01*
X149185714Y-108402380D01*
X149138095Y-108354761D01*
X149114285Y-108307142D01*
X149090476Y-108211904D01*
X149090476Y-108140476D01*
X149114285Y-108045238D01*
X149138095Y-107997619D01*
X149185714Y-107950000D01*
X149257142Y-107926190D01*
X149304761Y-107926190D01*
X149376190Y-107950000D01*
X149400000Y-107973809D01*
X149614285Y-108426190D02*
X149614285Y-107926190D01*
X149804761Y-107926190D01*
X149852380Y-107950000D01*
X149876190Y-107973809D01*
X149900000Y-108021428D01*
X149900000Y-108092857D01*
X149876190Y-108140476D01*
X149852380Y-108164285D01*
X149804761Y-108188095D01*
X149614285Y-108188095D01*
X150376190Y-108426190D02*
X150090476Y-108426190D01*
X150233333Y-108426190D02*
X150233333Y-107926190D01*
X150185714Y-107997619D01*
X150138095Y-108045238D01*
X150090476Y-108069047D01*
X150804761Y-107926190D02*
X150709523Y-107926190D01*
X150661904Y-107950000D01*
X150638095Y-107973809D01*
X150590476Y-108045238D01*
X150566666Y-108140476D01*
X150566666Y-108330952D01*
X150590476Y-108378571D01*
X150614285Y-108402380D01*
X150661904Y-108426190D01*
X150757142Y-108426190D01*
X150804761Y-108402380D01*
X150828571Y-108378571D01*
X150852380Y-108330952D01*
X150852380Y-108211904D01*
X150828571Y-108164285D01*
X150804761Y-108140476D01*
X150757142Y-108116666D01*
X150661904Y-108116666D01*
X150614285Y-108140476D01*
X150590476Y-108164285D01*
X150566666Y-108211904D01*
X151019047Y-107926190D02*
X151328571Y-107926190D01*
X151161904Y-108116666D01*
X151233333Y-108116666D01*
X151280952Y-108140476D01*
X151304761Y-108164285D01*
X151328571Y-108211904D01*
X151328571Y-108330952D01*
X151304761Y-108378571D01*
X151280952Y-108402380D01*
X151233333Y-108426190D01*
X151090476Y-108426190D01*
X151042857Y-108402380D01*
X151019047Y-108378571D01*
X151638095Y-107926190D02*
X151685714Y-107926190D01*
X151733333Y-107950000D01*
X151757142Y-107973809D01*
X151780952Y-108021428D01*
X151804761Y-108116666D01*
X151804761Y-108235714D01*
X151780952Y-108330952D01*
X151757142Y-108378571D01*
X151733333Y-108402380D01*
X151685714Y-108426190D01*
X151638095Y-108426190D01*
X151590476Y-108402380D01*
X151566666Y-108378571D01*
X151542857Y-108330952D01*
X151519047Y-108235714D01*
X151519047Y-108116666D01*
X151542857Y-108021428D01*
X151566666Y-107973809D01*
X151590476Y-107950000D01*
X151638095Y-107926190D01*
X152280952Y-108426190D02*
X151995238Y-108426190D01*
X152138095Y-108426190D02*
X152138095Y-107926190D01*
X152090476Y-107997619D01*
X152042857Y-108045238D01*
X151995238Y-108069047D01*
X157716666Y-101978571D02*
X157692857Y-102002380D01*
X157621428Y-102026190D01*
X157573809Y-102026190D01*
X157502380Y-102002380D01*
X157454761Y-101954761D01*
X157430952Y-101907142D01*
X157407142Y-101811904D01*
X157407142Y-101740476D01*
X157430952Y-101645238D01*
X157454761Y-101597619D01*
X157502380Y-101550000D01*
X157573809Y-101526190D01*
X157621428Y-101526190D01*
X157692857Y-101550000D01*
X157716666Y-101573809D01*
X157883333Y-101526190D02*
X158216666Y-101526190D01*
X158002380Y-102026190D01*
X157392857Y-102573809D02*
X157416666Y-102550000D01*
X157464285Y-102526190D01*
X157583333Y-102526190D01*
X157630952Y-102550000D01*
X157654761Y-102573809D01*
X157678571Y-102621428D01*
X157678571Y-102669047D01*
X157654761Y-102740476D01*
X157369047Y-103026190D01*
X157678571Y-103026190D01*
X157869047Y-102573809D02*
X157892857Y-102550000D01*
X157940476Y-102526190D01*
X158059523Y-102526190D01*
X158107142Y-102550000D01*
X158130952Y-102573809D01*
X158154761Y-102621428D01*
X158154761Y-102669047D01*
X158130952Y-102740476D01*
X157845238Y-103026190D01*
X158154761Y-103026190D01*
X158583333Y-102692857D02*
X158583333Y-103026190D01*
X158369047Y-102692857D02*
X158369047Y-102954761D01*
X158392857Y-103002380D01*
X158440476Y-103026190D01*
X158511904Y-103026190D01*
X158559523Y-103002380D01*
X158583333Y-102978571D01*
X152416666Y-110078571D02*
X152392857Y-110102380D01*
X152321428Y-110126190D01*
X152273809Y-110126190D01*
X152202380Y-110102380D01*
X152154761Y-110054761D01*
X152130952Y-110007142D01*
X152107142Y-109911904D01*
X152107142Y-109840476D01*
X152130952Y-109745238D01*
X152154761Y-109697619D01*
X152202380Y-109650000D01*
X152273809Y-109626190D01*
X152321428Y-109626190D01*
X152392857Y-109650000D01*
X152416666Y-109673809D01*
X152654761Y-110126190D02*
X152750000Y-110126190D01*
X152797619Y-110102380D01*
X152821428Y-110078571D01*
X152869047Y-110007142D01*
X152892857Y-109911904D01*
X152892857Y-109721428D01*
X152869047Y-109673809D01*
X152845238Y-109650000D01*
X152797619Y-109626190D01*
X152702380Y-109626190D01*
X152654761Y-109650000D01*
X152630952Y-109673809D01*
X152607142Y-109721428D01*
X152607142Y-109840476D01*
X152630952Y-109888095D01*
X152654761Y-109911904D01*
X152702380Y-109935714D01*
X152797619Y-109935714D01*
X152845238Y-109911904D01*
X152869047Y-109888095D01*
X152892857Y-109840476D01*
X153526190Y-111309523D02*
X153526190Y-111595238D01*
X153526190Y-111452380D02*
X153026190Y-111452380D01*
X153097619Y-111500000D01*
X153145238Y-111547619D01*
X153169047Y-111595238D01*
X153026190Y-111000000D02*
X153026190Y-110952380D01*
X153050000Y-110904761D01*
X153073809Y-110880952D01*
X153121428Y-110857142D01*
X153216666Y-110833333D01*
X153335714Y-110833333D01*
X153430952Y-110857142D01*
X153478571Y-110880952D01*
X153502380Y-110904761D01*
X153526190Y-110952380D01*
X153526190Y-111000000D01*
X153502380Y-111047619D01*
X153478571Y-111071428D01*
X153430952Y-111095238D01*
X153335714Y-111119047D01*
X153216666Y-111119047D01*
X153121428Y-111095238D01*
X153073809Y-111071428D01*
X153050000Y-111047619D01*
X153026190Y-111000000D01*
X153026190Y-110523809D02*
X153026190Y-110476190D01*
X153050000Y-110428571D01*
X153073809Y-110404761D01*
X153121428Y-110380952D01*
X153216666Y-110357142D01*
X153335714Y-110357142D01*
X153430952Y-110380952D01*
X153478571Y-110404761D01*
X153502380Y-110428571D01*
X153526190Y-110476190D01*
X153526190Y-110523809D01*
X153502380Y-110571428D01*
X153478571Y-110595238D01*
X153430952Y-110619047D01*
X153335714Y-110642857D01*
X153216666Y-110642857D01*
X153121428Y-110619047D01*
X153073809Y-110595238D01*
X153050000Y-110571428D01*
X153026190Y-110523809D01*
X153192857Y-110142857D02*
X153526190Y-110142857D01*
X153240476Y-110142857D02*
X153216666Y-110119047D01*
X153192857Y-110071428D01*
X153192857Y-110000000D01*
X153216666Y-109952380D01*
X153264285Y-109928571D01*
X153526190Y-109928571D01*
X150030952Y-103426190D02*
X150030952Y-102926190D01*
X150150000Y-102926190D01*
X150221428Y-102950000D01*
X150269047Y-102997619D01*
X150292857Y-103045238D01*
X150316666Y-103140476D01*
X150316666Y-103211904D01*
X150292857Y-103307142D01*
X150269047Y-103354761D01*
X150221428Y-103402380D01*
X150150000Y-103426190D01*
X150030952Y-103426190D01*
X150792857Y-103426190D02*
X150507142Y-103426190D01*
X150650000Y-103426190D02*
X150650000Y-102926190D01*
X150602380Y-102997619D01*
X150554761Y-103045238D01*
X150507142Y-103069047D01*
X148328571Y-104226190D02*
X148042857Y-104226190D01*
X148185714Y-104226190D02*
X148185714Y-103726190D01*
X148138095Y-103797619D01*
X148090476Y-103845238D01*
X148042857Y-103869047D01*
X148542857Y-104226190D02*
X148542857Y-103726190D01*
X148828571Y-104226190D01*
X148828571Y-103726190D01*
X149280952Y-103892857D02*
X149280952Y-104226190D01*
X149161904Y-103702380D02*
X149042857Y-104059523D01*
X149352380Y-104059523D01*
X149804761Y-104226190D02*
X149519047Y-104226190D01*
X149661904Y-104226190D02*
X149661904Y-103726190D01*
X149614285Y-103797619D01*
X149566666Y-103845238D01*
X149519047Y-103869047D01*
X150233333Y-103892857D02*
X150233333Y-104226190D01*
X150114285Y-103702380D02*
X149995238Y-104059523D01*
X150304761Y-104059523D01*
X150566666Y-103940476D02*
X150519047Y-103916666D01*
X150495238Y-103892857D01*
X150471428Y-103845238D01*
X150471428Y-103821428D01*
X150495238Y-103773809D01*
X150519047Y-103750000D01*
X150566666Y-103726190D01*
X150661904Y-103726190D01*
X150709523Y-103750000D01*
X150733333Y-103773809D01*
X150757142Y-103821428D01*
X150757142Y-103845238D01*
X150733333Y-103892857D01*
X150709523Y-103916666D01*
X150661904Y-103940476D01*
X150566666Y-103940476D01*
X150519047Y-103964285D01*
X150495238Y-103988095D01*
X150471428Y-104035714D01*
X150471428Y-104130952D01*
X150495238Y-104178571D01*
X150519047Y-104202380D01*
X150566666Y-104226190D01*
X150661904Y-104226190D01*
X150709523Y-104202380D01*
X150733333Y-104178571D01*
X150757142Y-104130952D01*
X150757142Y-104035714D01*
X150733333Y-103988095D01*
X150709523Y-103964285D01*
X150661904Y-103940476D01*
X147726190Y-110983333D02*
X147488095Y-111150000D01*
X147726190Y-111269047D02*
X147226190Y-111269047D01*
X147226190Y-111078571D01*
X147250000Y-111030952D01*
X147273809Y-111007142D01*
X147321428Y-110983333D01*
X147392857Y-110983333D01*
X147440476Y-111007142D01*
X147464285Y-111030952D01*
X147488095Y-111078571D01*
X147488095Y-111269047D01*
X147726190Y-110507142D02*
X147726190Y-110792857D01*
X147726190Y-110650000D02*
X147226190Y-110650000D01*
X147297619Y-110697619D01*
X147345238Y-110745238D01*
X147369047Y-110792857D01*
X147926190Y-111792857D02*
X147926190Y-111483333D01*
X148116666Y-111650000D01*
X148116666Y-111578571D01*
X148140476Y-111530952D01*
X148164285Y-111507142D01*
X148211904Y-111483333D01*
X148330952Y-111483333D01*
X148378571Y-111507142D01*
X148402380Y-111530952D01*
X148426190Y-111578571D01*
X148426190Y-111721428D01*
X148402380Y-111769047D01*
X148378571Y-111792857D01*
X148426190Y-111007142D02*
X148426190Y-111292857D01*
X148426190Y-111150000D02*
X147926190Y-111150000D01*
X147997619Y-111197619D01*
X148045238Y-111245238D01*
X148069047Y-111292857D01*
X148426190Y-110792857D02*
X147926190Y-110792857D01*
X148426190Y-110507142D02*
X148140476Y-110721428D01*
X147926190Y-110507142D02*
X148211904Y-110792857D01*
X147926190Y-110078571D02*
X147926190Y-110173809D01*
X147950000Y-110221428D01*
X147973809Y-110245238D01*
X148045238Y-110292857D01*
X148140476Y-110316666D01*
X148330952Y-110316666D01*
X148378571Y-110292857D01*
X148402380Y-110269047D01*
X148426190Y-110221428D01*
X148426190Y-110126190D01*
X148402380Y-110078571D01*
X148378571Y-110054761D01*
X148330952Y-110030952D01*
X148211904Y-110030952D01*
X148164285Y-110054761D01*
X148140476Y-110078571D01*
X148116666Y-110126190D01*
X148116666Y-110221428D01*
X148140476Y-110269047D01*
X148164285Y-110292857D01*
X148211904Y-110316666D01*
X139316666Y-104726190D02*
X139150000Y-104488095D01*
X139030952Y-104726190D02*
X139030952Y-104226190D01*
X139221428Y-104226190D01*
X139269047Y-104250000D01*
X139292857Y-104273809D01*
X139316666Y-104321428D01*
X139316666Y-104392857D01*
X139292857Y-104440476D01*
X139269047Y-104464285D01*
X139221428Y-104488095D01*
X139030952Y-104488095D01*
X139769047Y-104226190D02*
X139530952Y-104226190D01*
X139507142Y-104464285D01*
X139530952Y-104440476D01*
X139578571Y-104416666D01*
X139697619Y-104416666D01*
X139745238Y-104440476D01*
X139769047Y-104464285D01*
X139792857Y-104511904D01*
X139792857Y-104630952D01*
X139769047Y-104678571D01*
X139745238Y-104702380D01*
X139697619Y-104726190D01*
X139578571Y-104726190D01*
X139530952Y-104702380D01*
X139507142Y-104678571D01*
X140902380Y-104726190D02*
X140616666Y-104726190D01*
X140759523Y-104726190D02*
X140759523Y-104226190D01*
X140711904Y-104297619D01*
X140664285Y-104345238D01*
X140616666Y-104369047D01*
X141116666Y-104726190D02*
X141116666Y-104226190D01*
X141402380Y-104726190D02*
X141188095Y-104440476D01*
X141402380Y-104226190D02*
X141116666Y-104511904D01*
X141688095Y-104226190D02*
X141688095Y-104345238D01*
X141569047Y-104297619D02*
X141688095Y-104345238D01*
X141807142Y-104297619D01*
X141616666Y-104440476D02*
X141688095Y-104345238D01*
X141759523Y-104440476D01*
X143516666Y-104726190D02*
X143350000Y-104488095D01*
X143230952Y-104726190D02*
X143230952Y-104226190D01*
X143421428Y-104226190D01*
X143469047Y-104250000D01*
X143492857Y-104273809D01*
X143516666Y-104321428D01*
X143516666Y-104392857D01*
X143492857Y-104440476D01*
X143469047Y-104464285D01*
X143421428Y-104488095D01*
X143230952Y-104488095D01*
X143945238Y-104226190D02*
X143850000Y-104226190D01*
X143802380Y-104250000D01*
X143778571Y-104273809D01*
X143730952Y-104345238D01*
X143707142Y-104440476D01*
X143707142Y-104630952D01*
X143730952Y-104678571D01*
X143754761Y-104702380D01*
X143802380Y-104726190D01*
X143897619Y-104726190D01*
X143945238Y-104702380D01*
X143969047Y-104678571D01*
X143992857Y-104630952D01*
X143992857Y-104511904D01*
X143969047Y-104464285D01*
X143945238Y-104440476D01*
X143897619Y-104416666D01*
X143802380Y-104416666D01*
X143754761Y-104440476D01*
X143730952Y-104464285D01*
X143707142Y-104511904D01*
X145302380Y-104726190D02*
X145016666Y-104726190D01*
X145159523Y-104726190D02*
X145159523Y-104226190D01*
X145111904Y-104297619D01*
X145064285Y-104345238D01*
X145016666Y-104369047D01*
X145516666Y-104726190D02*
X145516666Y-104226190D01*
X145802380Y-104726190D02*
X145588095Y-104440476D01*
X145802380Y-104226190D02*
X145516666Y-104511904D01*
X146088095Y-104226190D02*
X146088095Y-104345238D01*
X145969047Y-104297619D02*
X146088095Y-104345238D01*
X146207142Y-104297619D01*
X146016666Y-104440476D02*
X146088095Y-104345238D01*
X146159523Y-104440476D01*
X153416666Y-99426190D02*
X153178571Y-99426190D01*
X153178571Y-98926190D01*
X153845238Y-99426190D02*
X153559523Y-99426190D01*
X153702380Y-99426190D02*
X153702380Y-98926190D01*
X153654761Y-98997619D01*
X153607142Y-99045238D01*
X153559523Y-99069047D01*
X128957142Y-108871428D02*
X128957142Y-108271428D01*
X129185714Y-108271428D01*
X129242857Y-108300000D01*
X129271428Y-108328571D01*
X129300000Y-108385714D01*
X129300000Y-108471428D01*
X129271428Y-108528571D01*
X129242857Y-108557142D01*
X129185714Y-108585714D01*
X128957142Y-108585714D01*
X129814285Y-108471428D02*
X129814285Y-108871428D01*
X129671428Y-108242857D02*
X129528571Y-108671428D01*
X129900000Y-108671428D01*
D12*
X135830952Y-112111904D02*
X135830952Y-111311904D01*
X136135714Y-111311904D01*
X136211904Y-111350000D01*
X136250000Y-111388095D01*
X136288095Y-111464285D01*
X136288095Y-111578571D01*
X136250000Y-111654761D01*
X136211904Y-111692857D01*
X136135714Y-111730952D01*
X135830952Y-111730952D01*
X136745238Y-112111904D02*
X136669047Y-112073809D01*
X136630952Y-112035714D01*
X136592857Y-111959523D01*
X136592857Y-111730952D01*
X136630952Y-111654761D01*
X136669047Y-111616666D01*
X136745238Y-111578571D01*
X136859523Y-111578571D01*
X136935714Y-111616666D01*
X136973809Y-111654761D01*
X137011904Y-111730952D01*
X137011904Y-111959523D01*
X136973809Y-112035714D01*
X136935714Y-112073809D01*
X136859523Y-112111904D01*
X136745238Y-112111904D01*
X137278571Y-111578571D02*
X137430952Y-112111904D01*
X137583333Y-111730952D01*
X137735714Y-112111904D01*
X137888095Y-111578571D01*
X138497619Y-112073809D02*
X138421428Y-112111904D01*
X138269047Y-112111904D01*
X138192857Y-112073809D01*
X138154761Y-111997619D01*
X138154761Y-111692857D01*
X138192857Y-111616666D01*
X138269047Y-111578571D01*
X138421428Y-111578571D01*
X138497619Y-111616666D01*
X138535714Y-111692857D01*
X138535714Y-111769047D01*
X138154761Y-111845238D01*
X138878571Y-112111904D02*
X138878571Y-111578571D01*
X138878571Y-111730952D02*
X138916666Y-111654761D01*
X138954761Y-111616666D01*
X139030952Y-111578571D01*
X139107142Y-111578571D01*
X140250000Y-111692857D02*
X140364285Y-111730952D01*
X140402380Y-111769047D01*
X140440476Y-111845238D01*
X140440476Y-111959523D01*
X140402380Y-112035714D01*
X140364285Y-112073809D01*
X140288095Y-112111904D01*
X139983333Y-112111904D01*
X139983333Y-111311904D01*
X140250000Y-111311904D01*
X140326190Y-111350000D01*
X140364285Y-111388095D01*
X140402380Y-111464285D01*
X140402380Y-111540476D01*
X140364285Y-111616666D01*
X140326190Y-111654761D01*
X140250000Y-111692857D01*
X139983333Y-111692857D01*
X140897619Y-112111904D02*
X140821428Y-112073809D01*
X140783333Y-112035714D01*
X140745238Y-111959523D01*
X140745238Y-111730952D01*
X140783333Y-111654761D01*
X140821428Y-111616666D01*
X140897619Y-111578571D01*
X141011904Y-111578571D01*
X141088095Y-111616666D01*
X141126190Y-111654761D01*
X141164285Y-111730952D01*
X141164285Y-111959523D01*
X141126190Y-112035714D01*
X141088095Y-112073809D01*
X141011904Y-112111904D01*
X140897619Y-112111904D01*
X141850000Y-112111904D02*
X141850000Y-111692857D01*
X141811904Y-111616666D01*
X141735714Y-111578571D01*
X141583333Y-111578571D01*
X141507142Y-111616666D01*
X141850000Y-112073809D02*
X141773809Y-112111904D01*
X141583333Y-112111904D01*
X141507142Y-112073809D01*
X141469047Y-111997619D01*
X141469047Y-111921428D01*
X141507142Y-111845238D01*
X141583333Y-111807142D01*
X141773809Y-111807142D01*
X141850000Y-111769047D01*
X142230952Y-112111904D02*
X142230952Y-111578571D01*
X142230952Y-111730952D02*
X142269047Y-111654761D01*
X142307142Y-111616666D01*
X142383333Y-111578571D01*
X142459523Y-111578571D01*
X143069047Y-112111904D02*
X143069047Y-111311904D01*
X143069047Y-112073809D02*
X142992857Y-112111904D01*
X142840476Y-112111904D01*
X142764285Y-112073809D01*
X142726190Y-112035714D01*
X142688095Y-111959523D01*
X142688095Y-111730952D01*
X142726190Y-111654761D01*
X142764285Y-111616666D01*
X142840476Y-111578571D01*
X142992857Y-111578571D01*
X143069047Y-111616666D01*
D11*
X131178571Y-77483333D02*
X131202380Y-77507142D01*
X131226190Y-77578571D01*
X131226190Y-77626190D01*
X131202380Y-77697619D01*
X131154761Y-77745238D01*
X131107142Y-77769047D01*
X131011904Y-77792857D01*
X130940476Y-77792857D01*
X130845238Y-77769047D01*
X130797619Y-77745238D01*
X130750000Y-77697619D01*
X130726190Y-77626190D01*
X130726190Y-77578571D01*
X130750000Y-77507142D01*
X130773809Y-77483333D01*
X131226190Y-77007142D02*
X131226190Y-77292857D01*
X131226190Y-77150000D02*
X130726190Y-77150000D01*
X130797619Y-77197619D01*
X130845238Y-77245238D01*
X130869047Y-77292857D01*
X132026190Y-77721428D02*
X132026190Y-78007142D01*
X132026190Y-77864285D02*
X131526190Y-77864285D01*
X131597619Y-77911904D01*
X131645238Y-77959523D01*
X131669047Y-78007142D01*
X131526190Y-77411904D02*
X131526190Y-77364285D01*
X131550000Y-77316666D01*
X131573809Y-77292857D01*
X131621428Y-77269047D01*
X131716666Y-77245238D01*
X131835714Y-77245238D01*
X131930952Y-77269047D01*
X131978571Y-77292857D01*
X132002380Y-77316666D01*
X132026190Y-77364285D01*
X132026190Y-77411904D01*
X132002380Y-77459523D01*
X131978571Y-77483333D01*
X131930952Y-77507142D01*
X131835714Y-77530952D01*
X131716666Y-77530952D01*
X131621428Y-77507142D01*
X131573809Y-77483333D01*
X131550000Y-77459523D01*
X131526190Y-77411904D01*
X131692857Y-76816666D02*
X132026190Y-76816666D01*
X131692857Y-77030952D02*
X131954761Y-77030952D01*
X132002380Y-77007142D01*
X132026190Y-76959523D01*
X132026190Y-76888095D01*
X132002380Y-76840476D01*
X131978571Y-76816666D01*
X129278571Y-77983333D02*
X129302380Y-78007142D01*
X129326190Y-78078571D01*
X129326190Y-78126190D01*
X129302380Y-78197619D01*
X129254761Y-78245238D01*
X129207142Y-78269047D01*
X129111904Y-78292857D01*
X129040476Y-78292857D01*
X128945238Y-78269047D01*
X128897619Y-78245238D01*
X128850000Y-78197619D01*
X128826190Y-78126190D01*
X128826190Y-78078571D01*
X128850000Y-78007142D01*
X128873809Y-77983333D01*
X128873809Y-77792857D02*
X128850000Y-77769047D01*
X128826190Y-77721428D01*
X128826190Y-77602380D01*
X128850000Y-77554761D01*
X128873809Y-77530952D01*
X128921428Y-77507142D01*
X128969047Y-77507142D01*
X129040476Y-77530952D01*
X129326190Y-77816666D01*
X129326190Y-77507142D01*
X130126190Y-78359523D02*
X130126190Y-78645238D01*
X130126190Y-78502380D02*
X129626190Y-78502380D01*
X129697619Y-78550000D01*
X129745238Y-78597619D01*
X129769047Y-78645238D01*
X129626190Y-78050000D02*
X129626190Y-78002380D01*
X129650000Y-77954761D01*
X129673809Y-77930952D01*
X129721428Y-77907142D01*
X129816666Y-77883333D01*
X129935714Y-77883333D01*
X130030952Y-77907142D01*
X130078571Y-77930952D01*
X130102380Y-77954761D01*
X130126190Y-78002380D01*
X130126190Y-78050000D01*
X130102380Y-78097619D01*
X130078571Y-78121428D01*
X130030952Y-78145238D01*
X129935714Y-78169047D01*
X129816666Y-78169047D01*
X129721428Y-78145238D01*
X129673809Y-78121428D01*
X129650000Y-78097619D01*
X129626190Y-78050000D01*
X129626190Y-77573809D02*
X129626190Y-77526190D01*
X129650000Y-77478571D01*
X129673809Y-77454761D01*
X129721428Y-77430952D01*
X129816666Y-77407142D01*
X129935714Y-77407142D01*
X130030952Y-77430952D01*
X130078571Y-77454761D01*
X130102380Y-77478571D01*
X130126190Y-77526190D01*
X130126190Y-77573809D01*
X130102380Y-77621428D01*
X130078571Y-77645238D01*
X130030952Y-77669047D01*
X129935714Y-77692857D01*
X129816666Y-77692857D01*
X129721428Y-77669047D01*
X129673809Y-77645238D01*
X129650000Y-77621428D01*
X129626190Y-77573809D01*
X129792857Y-77192857D02*
X130126190Y-77192857D01*
X129840476Y-77192857D02*
X129816666Y-77169047D01*
X129792857Y-77121428D01*
X129792857Y-77050000D01*
X129816666Y-77002380D01*
X129864285Y-76978571D01*
X130126190Y-76978571D01*
X148878571Y-112678571D02*
X148854761Y-112702380D01*
X148783333Y-112726190D01*
X148735714Y-112726190D01*
X148664285Y-112702380D01*
X148616666Y-112654761D01*
X148592857Y-112607142D01*
X148569047Y-112511904D01*
X148569047Y-112440476D01*
X148592857Y-112345238D01*
X148616666Y-112297619D01*
X148664285Y-112250000D01*
X148735714Y-112226190D01*
X148783333Y-112226190D01*
X148854761Y-112250000D01*
X148878571Y-112273809D01*
X149354761Y-112726190D02*
X149069047Y-112726190D01*
X149211904Y-112726190D02*
X149211904Y-112226190D01*
X149164285Y-112297619D01*
X149116666Y-112345238D01*
X149069047Y-112369047D01*
X149664285Y-112226190D02*
X149711904Y-112226190D01*
X149759523Y-112250000D01*
X149783333Y-112273809D01*
X149807142Y-112321428D01*
X149830952Y-112416666D01*
X149830952Y-112535714D01*
X149807142Y-112630952D01*
X149783333Y-112678571D01*
X149759523Y-112702380D01*
X149711904Y-112726190D01*
X149664285Y-112726190D01*
X149616666Y-112702380D01*
X149592857Y-112678571D01*
X149569047Y-112630952D01*
X149545238Y-112535714D01*
X149545238Y-112416666D01*
X149569047Y-112321428D01*
X149592857Y-112273809D01*
X149616666Y-112250000D01*
X149664285Y-112226190D01*
X150926190Y-112726190D02*
X150640476Y-112726190D01*
X150783333Y-112726190D02*
X150783333Y-112226190D01*
X150735714Y-112297619D01*
X150688095Y-112345238D01*
X150640476Y-112369047D01*
X151235714Y-112226190D02*
X151283333Y-112226190D01*
X151330952Y-112250000D01*
X151354761Y-112273809D01*
X151378571Y-112321428D01*
X151402380Y-112416666D01*
X151402380Y-112535714D01*
X151378571Y-112630952D01*
X151354761Y-112678571D01*
X151330952Y-112702380D01*
X151283333Y-112726190D01*
X151235714Y-112726190D01*
X151188095Y-112702380D01*
X151164285Y-112678571D01*
X151140476Y-112630952D01*
X151116666Y-112535714D01*
X151116666Y-112416666D01*
X151140476Y-112321428D01*
X151164285Y-112273809D01*
X151188095Y-112250000D01*
X151235714Y-112226190D01*
X151830952Y-112392857D02*
X151830952Y-112726190D01*
X151616666Y-112392857D02*
X151616666Y-112654761D01*
X151640476Y-112702380D01*
X151688095Y-112726190D01*
X151759523Y-112726190D01*
X151807142Y-112702380D01*
X151830952Y-112678571D01*
X152426190Y-112202380D02*
X151997619Y-112845238D01*
X152569047Y-112273809D02*
X152592857Y-112250000D01*
X152640476Y-112226190D01*
X152759523Y-112226190D01*
X152807142Y-112250000D01*
X152830952Y-112273809D01*
X152854761Y-112321428D01*
X152854761Y-112369047D01*
X152830952Y-112440476D01*
X152545238Y-112726190D01*
X152854761Y-112726190D01*
X153307142Y-112226190D02*
X153069047Y-112226190D01*
X153045238Y-112464285D01*
X153069047Y-112440476D01*
X153116666Y-112416666D01*
X153235714Y-112416666D01*
X153283333Y-112440476D01*
X153307142Y-112464285D01*
X153330952Y-112511904D01*
X153330952Y-112630952D01*
X153307142Y-112678571D01*
X153283333Y-112702380D01*
X153235714Y-112726190D01*
X153116666Y-112726190D01*
X153069047Y-112702380D01*
X153045238Y-112678571D01*
X153473809Y-112226190D02*
X153640476Y-112726190D01*
X153807142Y-112226190D01*
X154378571Y-89483333D02*
X154402380Y-89507142D01*
X154426190Y-89578571D01*
X154426190Y-89626190D01*
X154402380Y-89697619D01*
X154354761Y-89745238D01*
X154307142Y-89769047D01*
X154211904Y-89792857D01*
X154140476Y-89792857D01*
X154045238Y-89769047D01*
X153997619Y-89745238D01*
X153950000Y-89697619D01*
X153926190Y-89626190D01*
X153926190Y-89578571D01*
X153950000Y-89507142D01*
X153973809Y-89483333D01*
X153926190Y-89316666D02*
X153926190Y-89007142D01*
X154116666Y-89173809D01*
X154116666Y-89102380D01*
X154140476Y-89054761D01*
X154164285Y-89030952D01*
X154211904Y-89007142D01*
X154330952Y-89007142D01*
X154378571Y-89030952D01*
X154402380Y-89054761D01*
X154426190Y-89102380D01*
X154426190Y-89245238D01*
X154402380Y-89292857D01*
X154378571Y-89316666D01*
X154426190Y-87959523D02*
X154426190Y-88245238D01*
X154426190Y-88102380D02*
X153926190Y-88102380D01*
X153997619Y-88150000D01*
X154045238Y-88197619D01*
X154069047Y-88245238D01*
X153926190Y-87650000D02*
X153926190Y-87602380D01*
X153950000Y-87554761D01*
X153973809Y-87530952D01*
X154021428Y-87507142D01*
X154116666Y-87483333D01*
X154235714Y-87483333D01*
X154330952Y-87507142D01*
X154378571Y-87530952D01*
X154402380Y-87554761D01*
X154426190Y-87602380D01*
X154426190Y-87650000D01*
X154402380Y-87697619D01*
X154378571Y-87721428D01*
X154330952Y-87745238D01*
X154235714Y-87769047D01*
X154116666Y-87769047D01*
X154021428Y-87745238D01*
X153973809Y-87721428D01*
X153950000Y-87697619D01*
X153926190Y-87650000D01*
X153926190Y-87173809D02*
X153926190Y-87126190D01*
X153950000Y-87078571D01*
X153973809Y-87054761D01*
X154021428Y-87030952D01*
X154116666Y-87007142D01*
X154235714Y-87007142D01*
X154330952Y-87030952D01*
X154378571Y-87054761D01*
X154402380Y-87078571D01*
X154426190Y-87126190D01*
X154426190Y-87173809D01*
X154402380Y-87221428D01*
X154378571Y-87245238D01*
X154330952Y-87269047D01*
X154235714Y-87292857D01*
X154116666Y-87292857D01*
X154021428Y-87269047D01*
X153973809Y-87245238D01*
X153950000Y-87221428D01*
X153926190Y-87173809D01*
X154092857Y-86792857D02*
X154426190Y-86792857D01*
X154140476Y-86792857D02*
X154116666Y-86769047D01*
X154092857Y-86721428D01*
X154092857Y-86650000D01*
X154116666Y-86602380D01*
X154164285Y-86578571D01*
X154426190Y-86578571D01*
X157316666Y-95778571D02*
X157292857Y-95802380D01*
X157221428Y-95826190D01*
X157173809Y-95826190D01*
X157102380Y-95802380D01*
X157054761Y-95754761D01*
X157030952Y-95707142D01*
X157007142Y-95611904D01*
X157007142Y-95540476D01*
X157030952Y-95445238D01*
X157054761Y-95397619D01*
X157102380Y-95350000D01*
X157173809Y-95326190D01*
X157221428Y-95326190D01*
X157292857Y-95350000D01*
X157316666Y-95373809D01*
X157745238Y-95492857D02*
X157745238Y-95826190D01*
X157626190Y-95302380D02*
X157507142Y-95659523D01*
X157816666Y-95659523D01*
X157316666Y-94826190D02*
X157030952Y-94826190D01*
X157173809Y-94826190D02*
X157173809Y-94326190D01*
X157126190Y-94397619D01*
X157078571Y-94445238D01*
X157030952Y-94469047D01*
X157745238Y-94492857D02*
X157745238Y-94826190D01*
X157530952Y-94492857D02*
X157530952Y-94754761D01*
X157554761Y-94802380D01*
X157602380Y-94826190D01*
X157673809Y-94826190D01*
X157721428Y-94802380D01*
X157745238Y-94778571D01*
X152766666Y-95676190D02*
X152600000Y-95438095D01*
X152480952Y-95676190D02*
X152480952Y-95176190D01*
X152671428Y-95176190D01*
X152719047Y-95200000D01*
X152742857Y-95223809D01*
X152766666Y-95271428D01*
X152766666Y-95342857D01*
X152742857Y-95390476D01*
X152719047Y-95414285D01*
X152671428Y-95438095D01*
X152480952Y-95438095D01*
X152933333Y-95176190D02*
X153242857Y-95176190D01*
X153076190Y-95366666D01*
X153147619Y-95366666D01*
X153195238Y-95390476D01*
X153219047Y-95414285D01*
X153242857Y-95461904D01*
X153242857Y-95580952D01*
X153219047Y-95628571D01*
X153195238Y-95652380D01*
X153147619Y-95676190D01*
X153004761Y-95676190D01*
X152957142Y-95652380D01*
X152933333Y-95628571D01*
X152811191Y-93733690D02*
X152858810Y-93733690D01*
X152906429Y-93757500D01*
X152930239Y-93781309D01*
X152954048Y-93828928D01*
X152977858Y-93924166D01*
X152977858Y-94043214D01*
X152954048Y-94138452D01*
X152930239Y-94186071D01*
X152906429Y-94209880D01*
X152858810Y-94233690D01*
X152811191Y-94233690D01*
X152763572Y-94209880D01*
X152739762Y-94186071D01*
X152715953Y-94138452D01*
X152692143Y-94043214D01*
X152692143Y-93924166D01*
X152715953Y-93828928D01*
X152739762Y-93781309D01*
X152763572Y-93757500D01*
X152811191Y-93733690D01*
X151716666Y-91026190D02*
X151550000Y-90788095D01*
X151430952Y-91026190D02*
X151430952Y-90526190D01*
X151621428Y-90526190D01*
X151669047Y-90550000D01*
X151692857Y-90573809D01*
X151716666Y-90621428D01*
X151716666Y-90692857D01*
X151692857Y-90740476D01*
X151669047Y-90764285D01*
X151621428Y-90788095D01*
X151430952Y-90788095D01*
X152145238Y-90692857D02*
X152145238Y-91026190D01*
X152026190Y-90502380D02*
X151907142Y-90859523D01*
X152216666Y-90859523D01*
X153007142Y-90692857D02*
X153007142Y-91026190D01*
X152888095Y-90502380D02*
X152769047Y-90859523D01*
X153078571Y-90859523D01*
X153269047Y-91026190D02*
X153269047Y-90526190D01*
X153554761Y-91026190D02*
X153340476Y-90740476D01*
X153554761Y-90526190D02*
X153269047Y-90811904D01*
X153721428Y-90526190D02*
X154054761Y-90526190D01*
X153840476Y-91026190D01*
X158716666Y-87826190D02*
X158550000Y-87588095D01*
X158430952Y-87826190D02*
X158430952Y-87326190D01*
X158621428Y-87326190D01*
X158669047Y-87350000D01*
X158692857Y-87373809D01*
X158716666Y-87421428D01*
X158716666Y-87492857D01*
X158692857Y-87540476D01*
X158669047Y-87564285D01*
X158621428Y-87588095D01*
X158430952Y-87588095D01*
X158883333Y-87326190D02*
X159216666Y-87326190D01*
X159002380Y-87826190D01*
X158654761Y-88826190D02*
X158369047Y-88826190D01*
X158511904Y-88826190D02*
X158511904Y-88326190D01*
X158464285Y-88397619D01*
X158416666Y-88445238D01*
X158369047Y-88469047D01*
X158964285Y-88326190D02*
X159011904Y-88326190D01*
X159059523Y-88350000D01*
X159083333Y-88373809D01*
X159107142Y-88421428D01*
X159130952Y-88516666D01*
X159130952Y-88635714D01*
X159107142Y-88730952D01*
X159083333Y-88778571D01*
X159059523Y-88802380D01*
X159011904Y-88826190D01*
X158964285Y-88826190D01*
X158916666Y-88802380D01*
X158892857Y-88778571D01*
X158869047Y-88730952D01*
X158845238Y-88635714D01*
X158845238Y-88516666D01*
X158869047Y-88421428D01*
X158892857Y-88373809D01*
X158916666Y-88350000D01*
X158964285Y-88326190D01*
X159345238Y-88826190D02*
X159345238Y-88326190D01*
X159630952Y-88826190D02*
X159416666Y-88540476D01*
X159630952Y-88326190D02*
X159345238Y-88611904D01*
X162226190Y-90083333D02*
X161988095Y-90250000D01*
X162226190Y-90369047D02*
X161726190Y-90369047D01*
X161726190Y-90178571D01*
X161750000Y-90130952D01*
X161773809Y-90107142D01*
X161821428Y-90083333D01*
X161892857Y-90083333D01*
X161940476Y-90107142D01*
X161964285Y-90130952D01*
X161988095Y-90178571D01*
X161988095Y-90369047D01*
X161940476Y-89797619D02*
X161916666Y-89845238D01*
X161892857Y-89869047D01*
X161845238Y-89892857D01*
X161821428Y-89892857D01*
X161773809Y-89869047D01*
X161750000Y-89845238D01*
X161726190Y-89797619D01*
X161726190Y-89702380D01*
X161750000Y-89654761D01*
X161773809Y-89630952D01*
X161821428Y-89607142D01*
X161845238Y-89607142D01*
X161892857Y-89630952D01*
X161916666Y-89654761D01*
X161940476Y-89702380D01*
X161940476Y-89797619D01*
X161964285Y-89845238D01*
X161988095Y-89869047D01*
X162035714Y-89892857D01*
X162130952Y-89892857D01*
X162178571Y-89869047D01*
X162202380Y-89845238D01*
X162226190Y-89797619D01*
X162226190Y-89702380D01*
X162202380Y-89654761D01*
X162178571Y-89630952D01*
X162130952Y-89607142D01*
X162035714Y-89607142D01*
X161988095Y-89630952D01*
X161964285Y-89654761D01*
X161940476Y-89702380D01*
X162892857Y-90192857D02*
X163226190Y-90192857D01*
X162702380Y-90311904D02*
X163059523Y-90430952D01*
X163059523Y-90121428D01*
X163226190Y-89930952D02*
X162726190Y-89930952D01*
X163226190Y-89645238D02*
X162940476Y-89859523D01*
X162726190Y-89645238D02*
X163011904Y-89930952D01*
X162726190Y-89478571D02*
X162726190Y-89145238D01*
X163226190Y-89359523D01*
X156419047Y-95126190D02*
X156419047Y-95530952D01*
X156442857Y-95578571D01*
X156466666Y-95602380D01*
X156514285Y-95626190D01*
X156609523Y-95626190D01*
X156657142Y-95602380D01*
X156680952Y-95578571D01*
X156704761Y-95530952D01*
X156704761Y-95126190D01*
X156895238Y-95126190D02*
X157204761Y-95126190D01*
X157038095Y-95316666D01*
X157109523Y-95316666D01*
X157157142Y-95340476D01*
X157180952Y-95364285D01*
X157204761Y-95411904D01*
X157204761Y-95530952D01*
X157180952Y-95578571D01*
X157157142Y-95602380D01*
X157109523Y-95626190D01*
X156966666Y-95626190D01*
X156919047Y-95602380D01*
X156895238Y-95578571D01*
X154816666Y-96626190D02*
X154816666Y-96126190D01*
X154983333Y-96483333D01*
X155150000Y-96126190D01*
X155150000Y-96626190D01*
X155316666Y-96126190D02*
X155602380Y-96126190D01*
X155459523Y-96626190D02*
X155459523Y-96126190D01*
X156054761Y-96578571D02*
X156030952Y-96602380D01*
X155959523Y-96626190D01*
X155911904Y-96626190D01*
X155840476Y-96602380D01*
X155792857Y-96554761D01*
X155769047Y-96507142D01*
X155745238Y-96411904D01*
X155745238Y-96340476D01*
X155769047Y-96245238D01*
X155792857Y-96197619D01*
X155840476Y-96150000D01*
X155911904Y-96126190D01*
X155959523Y-96126190D01*
X156030952Y-96150000D01*
X156054761Y-96173809D01*
X156269047Y-96626190D02*
X156269047Y-96126190D01*
X156269047Y-96364285D02*
X156554761Y-96364285D01*
X156554761Y-96626190D02*
X156554761Y-96126190D01*
X157054761Y-96626190D02*
X156769047Y-96626190D01*
X156911904Y-96626190D02*
X156911904Y-96126190D01*
X156864285Y-96197619D01*
X156816666Y-96245238D01*
X156769047Y-96269047D01*
X157364285Y-96126190D02*
X157411904Y-96126190D01*
X157459523Y-96150000D01*
X157483333Y-96173809D01*
X157507142Y-96221428D01*
X157530952Y-96316666D01*
X157530952Y-96435714D01*
X157507142Y-96530952D01*
X157483333Y-96578571D01*
X157459523Y-96602380D01*
X157411904Y-96626190D01*
X157364285Y-96626190D01*
X157316666Y-96602380D01*
X157292857Y-96578571D01*
X157269047Y-96530952D01*
X157245238Y-96435714D01*
X157245238Y-96316666D01*
X157269047Y-96221428D01*
X157292857Y-96173809D01*
X157316666Y-96150000D01*
X157364285Y-96126190D01*
X157721428Y-96173809D02*
X157745238Y-96150000D01*
X157792857Y-96126190D01*
X157911904Y-96126190D01*
X157959523Y-96150000D01*
X157983333Y-96173809D01*
X158007142Y-96221428D01*
X158007142Y-96269047D01*
X157983333Y-96340476D01*
X157697619Y-96626190D01*
X158007142Y-96626190D01*
D12*
X140725100Y-93111907D02*
X141048349Y-92788659D01*
X141452410Y-93515968D02*
X140886725Y-92950283D01*
X141883409Y-93084970D02*
X141802596Y-93111907D01*
X141748722Y-93111907D01*
X141667909Y-93084970D01*
X141506285Y-92923346D01*
X141479348Y-92842533D01*
X141479348Y-92788659D01*
X141506285Y-92707846D01*
X141587097Y-92627034D01*
X141667909Y-92600097D01*
X141721784Y-92600097D01*
X141802596Y-92627034D01*
X141964221Y-92788659D01*
X141991158Y-92869471D01*
X141991158Y-92923346D01*
X141964221Y-93004158D01*
X141883409Y-93084970D01*
X142179720Y-92034411D02*
X142556844Y-92411535D01*
X141937283Y-92276848D02*
X142233595Y-92573159D01*
X142314407Y-92600097D01*
X142395219Y-92573159D01*
X142476032Y-92492347D01*
X142502969Y-92411535D01*
X142502969Y-92357660D01*
X143041717Y-91872787D02*
X143014780Y-91953599D01*
X142907030Y-92061349D01*
X142826218Y-92088286D01*
X142772343Y-92088286D01*
X142691531Y-92061349D01*
X142529906Y-91899724D01*
X142502969Y-91818912D01*
X142502969Y-91765037D01*
X142529906Y-91684225D01*
X142637656Y-91576475D01*
X142718468Y-91549538D01*
X143311091Y-91657288D02*
X142745406Y-91091602D01*
X143553528Y-91414851D02*
X143257216Y-91118540D01*
X143176404Y-91091602D01*
X143095592Y-91118540D01*
X143014780Y-91199352D01*
X142987842Y-91280164D01*
X142987842Y-91334039D01*
%LPC*%
D14*
X159400000Y-81600000D03*
X153150000Y-81600000D03*
X159400000Y-79600000D03*
X153150000Y-79600000D03*
D15*
X134500000Y-84710000D03*
X149946000Y-84710000D03*
X134500000Y-83440000D03*
X149946000Y-83440000D03*
X134500000Y-82170000D03*
X149946000Y-82170000D03*
X134500000Y-80900000D03*
X149946000Y-80900000D03*
X134500000Y-79630000D03*
X149946000Y-79630000D03*
X134500000Y-78360000D03*
X149946000Y-78360000D03*
X134500000Y-77090000D03*
X149946000Y-77090000D03*
X149946000Y-75820000D03*
D16*
X157700000Y-104650000D03*
X157700000Y-107900000D03*
D17*
X154500000Y-107100000D03*
D18*
X154500000Y-110100000D03*
D19*
X146100000Y-107000000D03*
X146100000Y-109200000D03*
D20*
X150300000Y-109200000D03*
X151250000Y-109200000D03*
X149350000Y-109200000D03*
X149350000Y-107000000D03*
X150300000Y-107000000D03*
X151250000Y-107000000D03*
D21*
X146600000Y-100800000D03*
X138400000Y-100800000D03*
D22*
X154250000Y-102400000D03*
X156150000Y-102400000D03*
D23*
X152900000Y-109050000D03*
X152900000Y-107150000D03*
D19*
X155050000Y-104900000D03*
X151750000Y-104900000D03*
X147700000Y-109200000D03*
X147700000Y-107000000D03*
D24*
X139400000Y-103300000D03*
X141600000Y-103300000D03*
X145700000Y-103300000D03*
X143500000Y-103300000D03*
D25*
X152650000Y-100400000D03*
X154150000Y-100400000D03*
D26*
X143650000Y-107550000D03*
X143650000Y-109550000D03*
X141650000Y-107550000D03*
X141650000Y-109550000D03*
X139650000Y-107550000D03*
X139650000Y-109550000D03*
X137650000Y-107550000D03*
X137650000Y-109550000D03*
X135650000Y-107550000D03*
X135650000Y-109550000D03*
X133650000Y-107550000D03*
X133650000Y-109550000D03*
X131650000Y-107550000D03*
D27*
X131650000Y-109550000D03*
D28*
X131600000Y-81875000D03*
X131600000Y-79325000D03*
D23*
X129500000Y-79600000D03*
X129500000Y-81500000D03*
D29*
X152300000Y-111000000D03*
X149300000Y-111000000D03*
D23*
X155400000Y-87850000D03*
X155400000Y-89750000D03*
D22*
X158850000Y-95400000D03*
X160750000Y-95400000D03*
D25*
X153600000Y-94000000D03*
X152100000Y-94000000D03*
X152050000Y-92200000D03*
X153550000Y-92200000D03*
D24*
X157100000Y-89800000D03*
X159300000Y-89800000D03*
D19*
X162400000Y-91500000D03*
X162400000Y-93700000D03*
D30*
X160000000Y-91625000D03*
X160000000Y-92275000D03*
X160000000Y-92925000D03*
X160000000Y-93575000D03*
X155600000Y-93575000D03*
X155600000Y-92925000D03*
X155600000Y-92275000D03*
X155600000Y-91625000D03*
M02*
