M48
; DRILL file {KiCad 5.1.5-52549c5~84~ubuntu18.04.1} date Thu 13 Feb 2020 12:19:33 PM EET
; FORMAT={-:-/ absolute / metric / decimal}
; #@! TF.CreationDate,2020-02-13T12:19:33+02:00
; #@! TF.GenerationSoftware,Kicad,Pcbnew,5.1.5-52549c5~84~ubuntu18.04.1
; #@! TF.FileFunction,Plated,1,2,PTH
FMAT,2
METRIC
T1C0.305
T2C0.711
T3C1.000
T4C1.200
T5C1.400
T6C1.500
%
G90
G05
T1
X93.345Y-55.118
X93.853Y-60.706
X94.107Y-54.483
X94.107Y-58.547
X94.234Y-61.976
X94.361Y-51.562
X94.488Y-53.213
X94.615Y-63.119
X94.869Y-57.912
X94.869Y-65.405
X94.996Y-50.927
X94.996Y-64.135
X95.123Y-52.578
X95.25Y-66.675
X95.631Y-67.818
X96.012Y-68.834
X97.917Y-53.467
X97.917Y-72.009
X98.679Y-73.025
X99.441Y-54.991
X99.568Y-51.562
X99.568Y-74.041
X100.965Y-49.784
X100.965Y-52.832
X100.965Y-56.261
X102.235Y-48.387
X102.489Y-51.308
X102.616Y-54.356
X103.759Y-49.911
X104.013Y-52.578
X104.902Y-77.597
X105.283Y-51.181
X105.537Y-45.339
X106.553Y-51.181
X106.553Y-52.578
X106.553Y-53.848
X107.061Y-55.245
X107.95Y-51.181
X107.95Y-52.578
X107.95Y-53.848
X107.95Y-67.31
X107.95Y-77.851
X108.077Y-55.245
X108.104Y-72.49
X109.093Y-55.245
X110.109Y-55.245
X110.851Y-48.113
X110.871Y-44.762
X110.871Y-46.482
X110.998Y-79.883
X111.252Y-55.245
X111.76Y-69.469
X112.395Y-55.245
X112.776Y-48.895
X113.411Y-46.101
X113.665Y-55.245
X114.808Y-48.895
X114.935Y-55.245
X115.316Y-80.137
X117.729Y-69.215
X117.856Y-67.818
X118.237Y-79.375
X120.015Y-40.132
X121.539Y-40.132
X122.682Y-72.771
X123.063Y-40.132
X123.444Y-78.105
X123.698Y-44.323
X124.46Y-77.724
X125.349Y-77.216
X126.111Y-76.454
X129.286Y-49.276
X130.175Y-72.517
X130.429Y-64.389
X130.556Y-51.689
X130.937Y-71.755
X131.826Y-70.866
X132.588Y-69.977
X133.096Y-61.722
X133.096Y-62.865
X133.223Y-69.088
X133.604Y-53.848
X133.858Y-68.072
X134.239Y-60.833
X134.239Y-63.754
X135.255Y-61.722
X135.255Y-62.865
X136.017Y-52.832
X136.271Y-53.975
X136.398Y-55.118
X136.398Y-57.404
X136.525Y-56.261
T2
X121.801Y-56.246
X121.801Y-66.746
X124.301Y-56.246
X124.301Y-66.746
X126.801Y-56.246
X126.801Y-66.746
X129.301Y-56.246
X129.301Y-66.746
T3
X98.298Y-70.104
X100.838Y-70.104
X128.143Y-71.247
X128.143Y-73.787
X123.19Y-48.062
X123.19Y-51.562
X103.855Y-73.841
X103.855Y-75.841
X105.855Y-73.841
X105.855Y-75.841
X107.855Y-73.841
X107.855Y-75.841
X109.855Y-73.841
X109.855Y-75.841
X111.855Y-73.841
X111.855Y-75.841
X113.855Y-73.841
X113.855Y-75.841
X115.855Y-73.841
X115.855Y-75.841
X125.585Y-40.876
X129.177Y-44.468
T4
X134.239Y-58.226
X134.239Y-65.726
T5
X109.489Y-62.865
X109.489Y-65.405
X117.109Y-47.625
X117.109Y-55.245
X117.109Y-62.865
X117.109Y-65.405
X97.551Y-62.865
X97.551Y-65.405
X105.171Y-47.625
X105.171Y-55.245
X105.171Y-62.865
X105.171Y-65.405
T6
X106.045Y-40.156
X106.045Y-43.156
X117.221Y-40.156
X117.221Y-43.156
X111.633Y-40.156
X111.633Y-43.156
T0
M30
