G04 #@! TF.GenerationSoftware,KiCad,Pcbnew,5.1.5-52549c5~84~ubuntu18.04.1*
G04 #@! TF.CreationDate,2020-02-14T10:15:43+02:00*
G04 #@! TF.ProjectId,NRF52832_Touch_Switch_Power_Supply,4e524635-3238-4333-925f-546f7563685f,rev?*
G04 #@! TF.SameCoordinates,Original*
G04 #@! TF.FileFunction,Legend,Bot*
G04 #@! TF.FilePolarity,Positive*
%FSLAX46Y46*%
G04 Gerber Fmt 4.6, Leading zero omitted, Abs format (unit mm)*
G04 Created by KiCad (PCBNEW 5.1.5-52549c5~84~ubuntu18.04.1) date 2020-02-14 10:15:43*
%MOMM*%
%LPD*%
G04 APERTURE LIST*
%ADD10C,0.152000*%
%ADD11C,0.127000*%
%ADD12C,0.254000*%
%ADD13C,0.200000*%
%ADD14C,0.150000*%
%ADD15C,0.129000*%
%ADD16C,0.387000*%
%ADD17C,0.400000*%
%ADD18C,0.300000*%
%ADD19C,0.305000*%
%ADD20C,0.102000*%
%ADD21C,0.076000*%
%ADD22C,1.602000*%
%ADD23R,2.392000X2.822000*%
%ADD24R,1.880000X1.880000*%
%ADD25C,1.902000*%
%ADD26C,2.352000*%
%ADD27C,1.702000*%
%ADD28C,2.102000*%
%ADD29R,1.262000X1.552000*%
%ADD30O,2.102000X3.602000*%
%ADD31O,0.802000X2.202000*%
%ADD32O,0.802000X2.002000*%
%ADD33R,1.102000X0.652000*%
%ADD34R,0.702000X0.752000*%
%ADD35R,0.752000X0.702000*%
%ADD36R,0.602000X0.902000*%
%ADD37R,1.102000X1.102000*%
%ADD38R,1.573000X1.372000*%
%ADD39C,0.100000*%
%ADD40R,1.602000X1.402000*%
%ADD41R,0.915000X1.602000*%
%ADD42R,2.102000X2.102000*%
%ADD43R,0.802000X1.352000*%
%ADD44O,0.902000X2.102000*%
%ADD45R,0.752000X1.652000*%
%ADD46R,1.102000X1.202000*%
%ADD47R,1.702000X2.102000*%
G04 APERTURE END LIST*
D10*
X117756914Y-45338714D02*
X118119771Y-45338714D01*
X118119771Y-44576714D01*
X112640914Y-45302714D02*
X113003771Y-45302714D01*
X113003771Y-44540714D01*
X111987771Y-45302714D02*
X112423200Y-45302714D01*
X112205485Y-45302714D02*
X112205485Y-44540714D01*
X112278057Y-44649571D01*
X112350628Y-44722142D01*
X112423200Y-44758428D01*
X107306914Y-45302714D02*
X107669771Y-45302714D01*
X107669771Y-44540714D01*
X107089200Y-44613285D02*
X107052914Y-44577000D01*
X106980342Y-44540714D01*
X106798914Y-44540714D01*
X106726342Y-44577000D01*
X106690057Y-44613285D01*
X106653771Y-44685857D01*
X106653771Y-44758428D01*
X106690057Y-44867285D01*
X107125485Y-45302714D01*
X106653771Y-45302714D01*
D11*
X103186592Y-60542714D02*
X103440592Y-60179857D01*
X103622021Y-60542714D02*
X103622021Y-59780714D01*
X103331735Y-59780714D01*
X103259164Y-59817000D01*
X103222878Y-59853285D01*
X103186592Y-59925857D01*
X103186592Y-60034714D01*
X103222878Y-60107285D01*
X103259164Y-60143571D01*
X103331735Y-60179857D01*
X103622021Y-60179857D01*
X102860021Y-60143571D02*
X102606021Y-60143571D01*
X102497164Y-60542714D02*
X102860021Y-60542714D01*
X102860021Y-59780714D01*
X102497164Y-59780714D01*
X102279450Y-59780714D02*
X102025450Y-60542714D01*
X101771450Y-59780714D01*
X101517450Y-60470142D02*
X101481164Y-60506428D01*
X101517450Y-60542714D01*
X101553735Y-60506428D01*
X101517450Y-60470142D01*
X101517450Y-60542714D01*
X100428878Y-59780714D02*
X100356307Y-59780714D01*
X100283735Y-59817000D01*
X100247450Y-59853285D01*
X100211164Y-59925857D01*
X100174878Y-60071000D01*
X100174878Y-60252428D01*
X100211164Y-60397571D01*
X100247450Y-60470142D01*
X100283735Y-60506428D01*
X100356307Y-60542714D01*
X100428878Y-60542714D01*
X100501450Y-60506428D01*
X100537735Y-60470142D01*
X100574021Y-60397571D01*
X100610307Y-60252428D01*
X100610307Y-60071000D01*
X100574021Y-59925857D01*
X100537735Y-59853285D01*
X100501450Y-59817000D01*
X100428878Y-59780714D01*
X99848307Y-60470142D02*
X99812021Y-60506428D01*
X99848307Y-60542714D01*
X99884592Y-60506428D01*
X99848307Y-60470142D01*
X99848307Y-60542714D01*
X99558021Y-59780714D02*
X99086307Y-59780714D01*
X99340307Y-60071000D01*
X99231450Y-60071000D01*
X99158878Y-60107285D01*
X99122592Y-60143571D01*
X99086307Y-60216142D01*
X99086307Y-60397571D01*
X99122592Y-60470142D01*
X99158878Y-60506428D01*
X99231450Y-60542714D01*
X99449164Y-60542714D01*
X99521735Y-60506428D01*
X99558021Y-60470142D01*
D12*
X126477000Y-57435000D02*
X121777000Y-57435000D01*
D11*
X123694000Y-58935000D02*
X124477000Y-59475000D01*
X123694000Y-59965000D02*
X123694000Y-58949000D01*
X124516000Y-58965000D02*
X124516000Y-59981000D01*
X124675000Y-59445000D02*
X123456000Y-59445000D01*
X124477000Y-59475000D02*
X123694000Y-59955000D01*
D12*
X126477000Y-61435000D02*
X121777000Y-61435000D01*
X126477000Y-57435000D02*
X126477000Y-57844000D01*
X126477000Y-61026000D02*
X126477000Y-61435000D01*
X121777000Y-57435000D02*
X121777000Y-57844000D01*
X121777000Y-61026000D02*
X121777000Y-61435000D01*
D13*
X115871000Y-77197000D02*
X117191000Y-77197000D01*
X117191000Y-77197000D02*
X117191000Y-79267000D01*
X117191000Y-79267000D02*
X115871000Y-79267000D01*
X114739000Y-77197000D02*
X113419000Y-77197000D01*
X113419000Y-77197000D02*
X113419000Y-79267000D01*
X113419000Y-79267000D02*
X114739000Y-79267000D01*
D12*
X116856000Y-73340000D02*
X116356000Y-72840000D01*
X116356000Y-72840000D02*
X115356000Y-72840000D01*
X115356000Y-72840000D02*
X114856000Y-73340000D01*
X114856000Y-73339000D02*
X114356000Y-72839000D01*
X114356000Y-72839000D02*
X113356000Y-72839000D01*
X113356000Y-72839000D02*
X112856000Y-73339000D01*
X112858000Y-73340000D02*
X112358000Y-72840000D01*
X112358000Y-72840000D02*
X111358000Y-72840000D01*
X111358000Y-72840000D02*
X110858000Y-73340000D01*
X110857000Y-73339000D02*
X110357000Y-72839000D01*
X110357000Y-72839000D02*
X109357000Y-72839000D01*
X109357000Y-72839000D02*
X108857000Y-73339000D01*
X108857000Y-73340000D02*
X108357000Y-72840000D01*
X108357000Y-72840000D02*
X107357000Y-72840000D01*
X107357000Y-72840000D02*
X106857000Y-73340000D01*
X106858000Y-73339000D02*
X106358000Y-72839000D01*
X106358000Y-72839000D02*
X105358000Y-72839000D01*
X105358000Y-72839000D02*
X104858000Y-73339000D01*
X104857000Y-73340000D02*
X104357000Y-72840000D01*
X104357000Y-72840000D02*
X103357000Y-72840000D01*
X103357000Y-72840000D02*
X102857000Y-73340000D01*
X102857000Y-76340000D02*
X103357000Y-76840000D01*
X103357000Y-76840000D02*
X104357000Y-76840000D01*
X104357000Y-76840000D02*
X104857000Y-76340000D01*
X104856000Y-76340000D02*
X105356000Y-76840000D01*
X105356000Y-76840000D02*
X106356000Y-76840000D01*
X106356000Y-76840000D02*
X106856000Y-76340000D01*
X106858000Y-76339000D02*
X107358000Y-76839000D01*
X107358000Y-76839000D02*
X108358000Y-76839000D01*
X108358000Y-76839000D02*
X108858000Y-76339000D01*
X108857000Y-76340000D02*
X109357000Y-76840000D01*
X109357000Y-76840000D02*
X110357000Y-76840000D01*
X110357000Y-76840000D02*
X110857000Y-76340000D01*
X110858000Y-76340000D02*
X111358000Y-76840000D01*
X111358000Y-76840000D02*
X112358000Y-76840000D01*
X112358000Y-76840000D02*
X112858000Y-76340000D01*
X112857000Y-76340000D02*
X113357000Y-76840000D01*
X113357000Y-76840000D02*
X114357000Y-76840000D01*
X114357000Y-76840000D02*
X114857000Y-76340000D01*
X114856000Y-76340000D02*
X115356000Y-76840000D01*
X115356000Y-76840000D02*
X116356000Y-76840000D01*
X116356000Y-76840000D02*
X116856000Y-76340000D01*
X116855000Y-73341000D02*
X116855000Y-76341000D01*
X102856000Y-73341000D02*
X102856000Y-76340000D01*
X119377000Y-74457000D02*
X118477000Y-74457000D01*
X118477000Y-74457000D02*
X118477000Y-77057000D01*
X123077000Y-77057000D02*
X123077000Y-74457000D01*
X123077000Y-74457000D02*
X122177000Y-74457000D01*
X110860000Y-72035000D02*
X112660000Y-72035000D01*
X110860000Y-70085000D02*
X110860000Y-70885000D01*
X110860000Y-68935000D02*
X112660000Y-68935000D01*
X113411000Y-68834000D02*
G75*
G03X113411000Y-68834000I-127000J0D01*
G01*
D10*
X115331000Y-69418000D02*
X115966000Y-69418000D01*
X115966000Y-69418000D02*
X115966000Y-70282000D01*
X115966000Y-70282000D02*
X115433000Y-70282000D01*
X115433000Y-70282000D02*
X115331000Y-70282000D01*
X114950000Y-70282000D02*
X114341000Y-70282000D01*
X114341000Y-70282000D02*
X114341000Y-69418000D01*
X114341000Y-69418000D02*
X114874000Y-69418000D01*
X114874000Y-69418000D02*
X114950000Y-69418000D01*
X105359000Y-71316000D02*
X105359000Y-70681000D01*
X105359000Y-70681000D02*
X106223000Y-70681000D01*
X106223000Y-70681000D02*
X106223000Y-71214000D01*
X106223000Y-71214000D02*
X106223000Y-71316000D01*
X106223000Y-71697000D02*
X106223000Y-72306000D01*
X106223000Y-72306000D02*
X105359000Y-72306000D01*
X105359000Y-72306000D02*
X105359000Y-71773000D01*
X105359000Y-71773000D02*
X105359000Y-71697000D01*
X106756000Y-71316000D02*
X106756000Y-70681000D01*
X106756000Y-70681000D02*
X107620000Y-70681000D01*
X107620000Y-70681000D02*
X107620000Y-71214000D01*
X107620000Y-71214000D02*
X107620000Y-71316000D01*
X107620000Y-71697000D02*
X107620000Y-72306000D01*
X107620000Y-72306000D02*
X106756000Y-72306000D01*
X106756000Y-72306000D02*
X106756000Y-71773000D01*
X106756000Y-71773000D02*
X106756000Y-71697000D01*
X130886000Y-60097000D02*
X130886000Y-59462000D01*
X130886000Y-59462000D02*
X131750000Y-59462000D01*
X131750000Y-59462000D02*
X131750000Y-59995000D01*
X131750000Y-59995000D02*
X131750000Y-60097000D01*
X131750000Y-60478000D02*
X131750000Y-61087000D01*
X131750000Y-61087000D02*
X130886000Y-61087000D01*
X130886000Y-61087000D02*
X130886000Y-60554000D01*
X130886000Y-60554000D02*
X130886000Y-60478000D01*
X133172000Y-55017000D02*
X133172000Y-54382000D01*
X133172000Y-54382000D02*
X134036000Y-54382000D01*
X134036000Y-54382000D02*
X134036000Y-54915000D01*
X134036000Y-54915000D02*
X134036000Y-55017000D01*
X134036000Y-55398000D02*
X134036000Y-56007000D01*
X134036000Y-56007000D02*
X133172000Y-56007000D01*
X133172000Y-56007000D02*
X133172000Y-55474000D01*
X133172000Y-55474000D02*
X133172000Y-55398000D01*
D14*
X109273000Y-68799000D02*
X109273000Y-67599000D01*
X108503000Y-68799000D02*
X109273000Y-68799000D01*
X107373000Y-68799000D02*
X107373000Y-67599000D01*
X108143000Y-68799000D02*
X107373000Y-68799000D01*
X108143000Y-67599000D02*
X107373000Y-67599000D01*
X108503000Y-67599000D02*
X109273000Y-67599000D01*
X109281000Y-70323000D02*
X109281000Y-69123000D01*
X108511000Y-70323000D02*
X109281000Y-70323000D01*
X107381000Y-70323000D02*
X107381000Y-69123000D01*
X108151000Y-70323000D02*
X107381000Y-70323000D01*
X108151000Y-69123000D02*
X107381000Y-69123000D01*
X108511000Y-69123000D02*
X109281000Y-69123000D01*
D12*
X123022000Y-72555000D02*
X125022000Y-72555000D01*
X123022000Y-70955000D02*
X125022000Y-70955000D01*
X123671000Y-72555000D02*
X123671000Y-70955000D01*
X119212000Y-70523000D02*
X121212000Y-70523000D01*
X119212000Y-68923000D02*
X121212000Y-68923000D01*
X119861000Y-70523000D02*
X119861000Y-68923000D01*
X121199000Y-70828000D02*
X119199000Y-70828000D01*
X121199000Y-72428000D02*
X119199000Y-72428000D01*
X120550000Y-70828000D02*
X120550000Y-72428000D01*
X110379000Y-68618000D02*
X112379000Y-68618000D01*
X110379000Y-67018000D02*
X112379000Y-67018000D01*
X111028000Y-68618000D02*
X111028000Y-67018000D01*
X102273000Y-73771000D02*
X102273000Y-71771000D01*
X100673000Y-73771000D02*
X100673000Y-71771000D01*
X102273000Y-73122000D02*
X100673000Y-73122000D01*
D11*
X129159000Y-59444000D02*
X129159000Y-60714000D01*
X129159000Y-59698000D02*
X129540000Y-59698000D01*
X129540000Y-59698000D02*
X129159000Y-60460000D01*
X129159000Y-60460000D02*
X129540000Y-60460000D01*
X129159000Y-59698000D02*
X128778000Y-59698000D01*
X128778000Y-59698000D02*
X129159000Y-60460000D01*
X129159000Y-60460000D02*
X128778000Y-60460000D01*
D12*
X130409000Y-58080000D02*
X130159000Y-58080000D01*
X128159000Y-58080000D02*
X127909000Y-58080000D01*
X130409000Y-62078000D02*
X130409000Y-58080000D01*
X130409000Y-62078000D02*
X130159000Y-62078000D01*
X128159000Y-62078000D02*
X127909000Y-62078000D01*
X127909000Y-58080000D02*
X127909000Y-62078000D01*
X127914000Y-60935000D02*
X130404000Y-60935000D01*
X98037487Y-44549086D02*
X94714086Y-47872487D01*
D11*
X97130269Y-47577624D02*
X98065772Y-47405797D01*
X97858589Y-48305944D02*
X97140169Y-47587523D01*
X97732724Y-47017595D02*
X98451145Y-47736016D01*
X98184566Y-47244577D02*
X97322602Y-48106540D01*
X98065772Y-47405797D02*
X97851518Y-48298873D01*
D12*
X100865914Y-47377513D02*
X97542513Y-50700914D01*
X98037487Y-44549086D02*
X98326694Y-44838292D01*
X100576708Y-47088306D02*
X100865914Y-47377513D01*
X94714086Y-47872487D02*
X95003292Y-48161694D01*
X97253306Y-50411708D02*
X97542513Y-50700914D01*
X113157000Y-60327000D02*
X113563000Y-59743000D01*
X113563000Y-59743000D02*
X112751000Y-59743000D01*
X112751000Y-59743000D02*
X113157000Y-60327000D01*
X114157000Y-61649000D02*
X114157000Y-58649000D01*
X112157000Y-58649000D02*
X112157000Y-61649000D01*
X113665000Y-60555000D02*
X112649000Y-60555000D01*
D15*
X110820000Y-51029000D02*
X110820000Y-50216000D01*
X113459000Y-51029000D02*
X113459000Y-50216000D01*
X113055000Y-50622000D02*
X113868000Y-50622000D01*
D16*
X109652000Y-47269000D02*
X114630000Y-47269000D01*
X114630000Y-47269000D02*
X114630000Y-51537000D01*
X114630000Y-51537000D02*
X109652000Y-51537000D01*
X109652000Y-51537000D02*
X109652000Y-47269000D01*
D15*
X113461986Y-48386000D02*
G75*
G03X113867000Y-47981000I14J405000D01*
G01*
X113867000Y-47980993D02*
G75*
G03X113462000Y-47576000I-405000J-7D01*
G01*
X113461986Y-48387000D02*
G75*
G03X113055000Y-48794000I14J-407000D01*
G01*
X113054000Y-48793993D02*
G75*
G03X113462000Y-49202000I408000J-7D01*
G01*
X110412000Y-48793993D02*
G75*
G03X110820000Y-49202000I408000J-7D01*
G01*
X110819986Y-48386000D02*
G75*
G03X110412000Y-48794000I14J-408000D01*
G01*
X111225000Y-47980993D02*
G75*
G03X110820000Y-47576000I-405000J-7D01*
G01*
X110819986Y-48386000D02*
G75*
G03X111225000Y-47981000I14J405000D01*
G01*
D12*
X112725000Y-51511000D02*
G75*
G03X111633000Y-51511000I-546000J0D01*
G01*
X124816000Y-65380000D02*
X124816000Y-62890000D01*
D11*
X123325000Y-64135000D02*
X124595000Y-64135000D01*
X123579000Y-64135000D02*
X123579000Y-63754000D01*
X123579000Y-63754000D02*
X124341000Y-64135000D01*
X124341000Y-64135000D02*
X124341000Y-63754000D01*
X123579000Y-64135000D02*
X123579000Y-64516000D01*
X123579000Y-64516000D02*
X124341000Y-64135000D01*
X124341000Y-64135000D02*
X124341000Y-64516000D01*
D12*
X121945000Y-62768000D02*
X121945000Y-63017000D01*
X121996000Y-65282000D02*
X121996000Y-65532000D01*
X125959000Y-62738000D02*
X121961000Y-62738000D01*
X125959000Y-62738000D02*
X125959000Y-62988000D01*
X125984000Y-65282000D02*
X125984000Y-65532000D01*
X121986000Y-65532000D02*
X125984000Y-65532000D01*
X104432000Y-71008000D02*
X105092000Y-71008000D01*
X105092000Y-71008000D02*
X104432000Y-71008000D01*
X104432000Y-71008000D02*
X105092000Y-71008000D01*
X105092000Y-71008000D02*
X105092000Y-70193000D01*
X102172000Y-70193000D02*
X102172000Y-71008000D01*
X102172000Y-71008000D02*
X102832000Y-71008000D01*
D13*
X103332000Y-69458000D02*
X103932000Y-69458000D01*
D17*
X99294978Y-58884670D02*
G75*
G03X99296392Y-58883256I707J707D01*
G01*
D12*
X99579941Y-57894014D02*
X98660703Y-58813253D01*
X98660703Y-58813253D02*
X98307149Y-58459699D01*
X98307149Y-58459699D02*
X99226388Y-57540460D01*
X105889455Y-52960530D02*
X100267956Y-58582029D01*
X100267956Y-58582029D02*
X95214971Y-53529044D01*
X95214971Y-53529044D02*
X100836470Y-47907545D01*
X100836470Y-47907545D02*
X105889455Y-52960530D01*
X96243812Y-54552227D02*
X95324573Y-55471466D01*
X95324573Y-55471466D02*
X94970312Y-55117205D01*
X94970312Y-55117205D02*
X95889551Y-54197967D01*
D17*
X135104996Y-53093459D02*
G75*
G03X135105000Y-53096000I-199996J-1541D01*
G01*
D18*
X135953995Y-55595444D02*
G75*
G03X135954000Y-55598000I-150995J-1556D01*
G01*
D12*
X135604000Y-53797000D02*
X131604000Y-53797000D01*
X131604000Y-53797000D02*
X131604000Y-50597000D01*
X131604000Y-50597000D02*
X135604000Y-50597000D01*
X135604000Y-50597000D02*
X135604000Y-53797000D01*
X131251000Y-52210000D02*
X131251000Y-51194000D01*
X126051000Y-48400000D02*
X126051000Y-52210000D01*
X131251000Y-48400000D02*
X131251000Y-49416000D01*
X131191000Y-49416000D02*
G75*
G03X131191000Y-51194000I0J-889000D01*
G01*
X131191000Y-48400000D02*
X131106000Y-48400000D01*
X130006000Y-48400000D02*
X129836000Y-48400000D01*
X128736000Y-48400000D02*
X128566000Y-48400000D01*
X127466000Y-48400000D02*
X127296000Y-48400000D01*
X126196000Y-48400000D02*
X126111000Y-48400000D01*
X131517000Y-53035000D02*
G75*
G03X131517000Y-53035000I-148000J0D01*
G01*
X131251000Y-52210000D02*
X131111000Y-52210000D01*
X130001000Y-52210000D02*
X129841000Y-52210000D01*
X128731000Y-52210000D02*
X127301000Y-52210000D01*
X126191000Y-52210000D02*
X126051000Y-52210000D01*
D13*
X115142000Y-68853000D02*
X113822000Y-68853000D01*
X113822000Y-68853000D02*
X113822000Y-66783000D01*
X113822000Y-66783000D02*
X115142000Y-66783000D01*
X116274000Y-68853000D02*
X117594000Y-68853000D01*
X117594000Y-68853000D02*
X117594000Y-66783000D01*
X117594000Y-66783000D02*
X116274000Y-66783000D01*
X125015000Y-68180000D02*
X126335000Y-68180000D01*
X126335000Y-68180000D02*
X126335000Y-70250000D01*
X126335000Y-70250000D02*
X125015000Y-70250000D01*
X123883000Y-68180000D02*
X122563000Y-68180000D01*
X122563000Y-68180000D02*
X122563000Y-70250000D01*
X122563000Y-70250000D02*
X123883000Y-70250000D01*
X129079000Y-68180000D02*
X130399000Y-68180000D01*
X130399000Y-68180000D02*
X130399000Y-70250000D01*
X130399000Y-70250000D02*
X129079000Y-70250000D01*
X127947000Y-68180000D02*
X126627000Y-68180000D01*
X126627000Y-68180000D02*
X126627000Y-70250000D01*
X126627000Y-70250000D02*
X127947000Y-70250000D01*
X106215000Y-59779000D02*
X105115000Y-59779000D01*
X105115000Y-59779000D02*
X105115000Y-61379000D01*
X105115000Y-61379000D02*
X106215000Y-61379000D01*
X107015000Y-59779000D02*
X108115000Y-59779000D01*
X108115000Y-59779000D02*
X108115000Y-60779000D01*
X108115000Y-60779000D02*
X108115000Y-61379000D01*
X108115000Y-61379000D02*
X107015000Y-61379000D01*
D19*
X99079000Y-64897000D02*
X99079000Y-67691000D01*
X99079000Y-67691000D02*
X103651000Y-67691000D01*
X103651000Y-61087000D02*
X103651000Y-67691000D01*
X99079000Y-61087000D02*
X103651000Y-61087000D01*
X99079000Y-61087000D02*
X99079000Y-63881000D01*
X99079000Y-64389000D02*
X100984000Y-64389000D01*
X100984000Y-62611000D02*
X103143000Y-62611000D01*
X100984000Y-61468000D02*
X100984000Y-63881000D01*
X99714000Y-64897000D02*
X99714000Y-67310000D01*
X99714000Y-61468000D02*
X99714000Y-63881000D01*
X100984000Y-66040000D02*
X103143000Y-66040000D01*
X100984000Y-64897000D02*
X100984000Y-67310000D01*
X100349000Y-61468000D02*
X100349000Y-63881000D01*
X100349000Y-64897000D02*
X100349000Y-67310000D01*
D12*
X126238000Y-43053000D02*
X128086000Y-43053000D01*
X128086000Y-43053000D02*
X128086000Y-45593000D01*
X128086000Y-45593000D02*
X126238000Y-45593000D01*
X124714000Y-45593000D02*
X122856000Y-45593000D01*
X122856000Y-45593000D02*
X122856000Y-43053000D01*
X122856000Y-43053000D02*
X124714000Y-43053000D01*
D20*
X120486714Y-58667728D02*
X119724714Y-58667728D01*
X119724714Y-58849157D01*
X119761000Y-58958014D01*
X119833571Y-59030585D01*
X119906142Y-59066871D01*
X120051285Y-59103157D01*
X120160142Y-59103157D01*
X120305285Y-59066871D01*
X120377857Y-59030585D01*
X120450428Y-58958014D01*
X120486714Y-58849157D01*
X120486714Y-58667728D01*
X120486714Y-59828871D02*
X120486714Y-59393442D01*
X120486714Y-59611157D02*
X119724714Y-59611157D01*
X119833571Y-59538585D01*
X119906142Y-59466014D01*
X119942428Y-59393442D01*
X119724714Y-60518300D02*
X119724714Y-60155442D01*
X120087571Y-60119157D01*
X120051285Y-60155442D01*
X120015000Y-60228014D01*
X120015000Y-60409442D01*
X120051285Y-60482014D01*
X120087571Y-60518300D01*
X120160142Y-60554585D01*
X120341571Y-60554585D01*
X120414142Y-60518300D01*
X120450428Y-60482014D01*
X120486714Y-60409442D01*
X120486714Y-60228014D01*
X120450428Y-60155442D01*
X120414142Y-60119157D01*
X116664842Y-80282142D02*
X116701128Y-80318428D01*
X116809985Y-80354714D01*
X116882557Y-80354714D01*
X116991414Y-80318428D01*
X117063985Y-80245857D01*
X117100271Y-80173285D01*
X117136557Y-80028142D01*
X117136557Y-79919285D01*
X117100271Y-79774142D01*
X117063985Y-79701571D01*
X116991414Y-79629000D01*
X116882557Y-79592714D01*
X116809985Y-79592714D01*
X116701128Y-79629000D01*
X116664842Y-79665285D01*
X116410842Y-79592714D02*
X115939128Y-79592714D01*
X116193128Y-79883000D01*
X116084271Y-79883000D01*
X116011700Y-79919285D01*
X115975414Y-79955571D01*
X115939128Y-80028142D01*
X115939128Y-80209571D01*
X115975414Y-80282142D01*
X116011700Y-80318428D01*
X116084271Y-80354714D01*
X116301985Y-80354714D01*
X116374557Y-80318428D01*
X116410842Y-80282142D01*
X102380142Y-75105157D02*
X102416428Y-75068871D01*
X102452714Y-74960014D01*
X102452714Y-74887442D01*
X102416428Y-74778585D01*
X102343857Y-74706014D01*
X102271285Y-74669728D01*
X102126142Y-74633442D01*
X102017285Y-74633442D01*
X101872142Y-74669728D01*
X101799571Y-74706014D01*
X101727000Y-74778585D01*
X101690714Y-74887442D01*
X101690714Y-74960014D01*
X101727000Y-75068871D01*
X101763285Y-75105157D01*
X102452714Y-75431728D02*
X101690714Y-75431728D01*
X102452714Y-75867157D01*
X101690714Y-75867157D01*
X102452714Y-76629157D02*
X102452714Y-76193728D01*
X102452714Y-76411442D02*
X101690714Y-76411442D01*
X101799571Y-76338871D01*
X101872142Y-76266300D01*
X101908428Y-76193728D01*
X121164271Y-78830714D02*
X121164271Y-79447571D01*
X121127985Y-79520142D01*
X121091700Y-79556428D01*
X121019128Y-79592714D01*
X120873985Y-79592714D01*
X120801414Y-79556428D01*
X120765128Y-79520142D01*
X120728842Y-79447571D01*
X120728842Y-78830714D01*
X120402271Y-78903285D02*
X120365985Y-78867000D01*
X120293414Y-78830714D01*
X120111985Y-78830714D01*
X120039414Y-78867000D01*
X120003128Y-78903285D01*
X119966842Y-78975857D01*
X119966842Y-79048428D01*
X120003128Y-79157285D01*
X120438557Y-79592714D01*
X119966842Y-79592714D01*
X111596714Y-70354728D02*
X112213571Y-70354728D01*
X112286142Y-70391014D01*
X112322428Y-70427300D01*
X112358714Y-70499871D01*
X112358714Y-70645014D01*
X112322428Y-70717585D01*
X112286142Y-70753871D01*
X112213571Y-70790157D01*
X111596714Y-70790157D01*
X112358714Y-71552157D02*
X112358714Y-71116728D01*
X112358714Y-71334442D02*
X111596714Y-71334442D01*
X111705571Y-71261871D01*
X111778142Y-71189300D01*
X111814428Y-71116728D01*
D21*
X115019361Y-71118809D02*
X115188695Y-70876904D01*
X115309647Y-71118809D02*
X115309647Y-70610809D01*
X115116123Y-70610809D01*
X115067742Y-70635000D01*
X115043552Y-70659190D01*
X115019361Y-70707571D01*
X115019361Y-70780142D01*
X115043552Y-70828523D01*
X115067742Y-70852714D01*
X115116123Y-70876904D01*
X115309647Y-70876904D01*
X114850028Y-70610809D02*
X114511361Y-70610809D01*
X114729076Y-71118809D01*
X105748361Y-70483809D02*
X105917695Y-70241904D01*
X106038647Y-70483809D02*
X106038647Y-69975809D01*
X105845123Y-69975809D01*
X105796742Y-70000000D01*
X105772552Y-70024190D01*
X105748361Y-70072571D01*
X105748361Y-70145142D01*
X105772552Y-70193523D01*
X105796742Y-70217714D01*
X105845123Y-70241904D01*
X106038647Y-70241904D01*
X105579028Y-69975809D02*
X105264552Y-69975809D01*
X105433885Y-70169333D01*
X105361314Y-70169333D01*
X105312933Y-70193523D01*
X105288742Y-70217714D01*
X105264552Y-70266095D01*
X105264552Y-70387047D01*
X105288742Y-70435428D01*
X105312933Y-70459619D01*
X105361314Y-70483809D01*
X105506457Y-70483809D01*
X105554838Y-70459619D01*
X105579028Y-70435428D01*
X108329809Y-71580638D02*
X108087904Y-71411304D01*
X108329809Y-71290352D02*
X107821809Y-71290352D01*
X107821809Y-71483876D01*
X107846000Y-71532257D01*
X107870190Y-71556447D01*
X107918571Y-71580638D01*
X107991142Y-71580638D01*
X108039523Y-71556447D01*
X108063714Y-71532257D01*
X108087904Y-71483876D01*
X108087904Y-71290352D01*
X107991142Y-72016066D02*
X108329809Y-72016066D01*
X107797619Y-71895114D02*
X108160476Y-71774161D01*
X108160476Y-72088638D01*
X132586809Y-60277638D02*
X132344904Y-60108304D01*
X132586809Y-59987352D02*
X132078809Y-59987352D01*
X132078809Y-60180876D01*
X132103000Y-60229257D01*
X132127190Y-60253447D01*
X132175571Y-60277638D01*
X132248142Y-60277638D01*
X132296523Y-60253447D01*
X132320714Y-60229257D01*
X132344904Y-60180876D01*
X132344904Y-59987352D01*
X132586809Y-60761447D02*
X132586809Y-60471161D01*
X132586809Y-60616304D02*
X132078809Y-60616304D01*
X132151380Y-60567923D01*
X132199761Y-60519542D01*
X132223952Y-60471161D01*
X132296523Y-61051733D02*
X132272333Y-61003352D01*
X132248142Y-60979161D01*
X132199761Y-60954971D01*
X132175571Y-60954971D01*
X132127190Y-60979161D01*
X132103000Y-61003352D01*
X132078809Y-61051733D01*
X132078809Y-61148495D01*
X132103000Y-61196876D01*
X132127190Y-61221066D01*
X132175571Y-61245257D01*
X132199761Y-61245257D01*
X132248142Y-61221066D01*
X132272333Y-61196876D01*
X132296523Y-61148495D01*
X132296523Y-61051733D01*
X132320714Y-61003352D01*
X132344904Y-60979161D01*
X132393285Y-60954971D01*
X132490047Y-60954971D01*
X132538428Y-60979161D01*
X132562619Y-61003352D01*
X132586809Y-61051733D01*
X132586809Y-61148495D01*
X132562619Y-61196876D01*
X132538428Y-61221066D01*
X132490047Y-61245257D01*
X132393285Y-61245257D01*
X132344904Y-61221066D01*
X132320714Y-61196876D01*
X132296523Y-61148495D01*
X133856809Y-56848638D02*
X133614904Y-56679304D01*
X133856809Y-56558352D02*
X133348809Y-56558352D01*
X133348809Y-56751876D01*
X133373000Y-56800257D01*
X133397190Y-56824447D01*
X133445571Y-56848638D01*
X133518142Y-56848638D01*
X133566523Y-56824447D01*
X133590714Y-56800257D01*
X133614904Y-56751876D01*
X133614904Y-56558352D01*
X133856809Y-57332447D02*
X133856809Y-57042161D01*
X133856809Y-57187304D02*
X133348809Y-57187304D01*
X133421380Y-57138923D01*
X133469761Y-57090542D01*
X133493952Y-57042161D01*
X133856809Y-57574352D02*
X133856809Y-57671114D01*
X133832619Y-57719495D01*
X133808428Y-57743685D01*
X133735857Y-57792066D01*
X133639095Y-57816257D01*
X133445571Y-57816257D01*
X133397190Y-57792066D01*
X133373000Y-57767876D01*
X133348809Y-57719495D01*
X133348809Y-57622733D01*
X133373000Y-57574352D01*
X133397190Y-57550161D01*
X133445571Y-57525971D01*
X133566523Y-57525971D01*
X133614904Y-57550161D01*
X133639095Y-57574352D01*
X133663285Y-57622733D01*
X133663285Y-57719495D01*
X133639095Y-57767876D01*
X133614904Y-57792066D01*
X133566523Y-57816257D01*
X106937809Y-68237638D02*
X106695904Y-68068304D01*
X106937809Y-67947352D02*
X106429809Y-67947352D01*
X106429809Y-68140876D01*
X106454000Y-68189257D01*
X106478190Y-68213447D01*
X106526571Y-68237638D01*
X106599142Y-68237638D01*
X106647523Y-68213447D01*
X106671714Y-68189257D01*
X106695904Y-68140876D01*
X106695904Y-67947352D01*
X106429809Y-68673066D02*
X106429809Y-68576304D01*
X106454000Y-68527923D01*
X106478190Y-68503733D01*
X106550761Y-68455352D01*
X106647523Y-68431161D01*
X106841047Y-68431161D01*
X106889428Y-68455352D01*
X106913619Y-68479542D01*
X106937809Y-68527923D01*
X106937809Y-68624685D01*
X106913619Y-68673066D01*
X106889428Y-68697257D01*
X106841047Y-68721447D01*
X106720095Y-68721447D01*
X106671714Y-68697257D01*
X106647523Y-68673066D01*
X106623333Y-68624685D01*
X106623333Y-68527923D01*
X106647523Y-68479542D01*
X106671714Y-68455352D01*
X106720095Y-68431161D01*
X106954809Y-69645638D02*
X106712904Y-69476304D01*
X106954809Y-69355352D02*
X106446809Y-69355352D01*
X106446809Y-69548876D01*
X106471000Y-69597257D01*
X106495190Y-69621447D01*
X106543571Y-69645638D01*
X106616142Y-69645638D01*
X106664523Y-69621447D01*
X106688714Y-69597257D01*
X106712904Y-69548876D01*
X106712904Y-69355352D01*
X106446809Y-70105257D02*
X106446809Y-69863352D01*
X106688714Y-69839161D01*
X106664523Y-69863352D01*
X106640333Y-69911733D01*
X106640333Y-70032685D01*
X106664523Y-70081066D01*
X106688714Y-70105257D01*
X106737095Y-70129447D01*
X106858047Y-70129447D01*
X106906428Y-70105257D01*
X106930619Y-70081066D01*
X106954809Y-70032685D01*
X106954809Y-69911733D01*
X106930619Y-69863352D01*
X106906428Y-69839161D01*
X124435809Y-71290352D02*
X123927809Y-71290352D01*
X123927809Y-71411304D01*
X123952000Y-71483876D01*
X124000380Y-71532257D01*
X124048761Y-71556447D01*
X124145523Y-71580638D01*
X124218095Y-71580638D01*
X124314857Y-71556447D01*
X124363238Y-71532257D01*
X124411619Y-71483876D01*
X124435809Y-71411304D01*
X124435809Y-71290352D01*
X124435809Y-72064447D02*
X124435809Y-71774161D01*
X124435809Y-71919304D02*
X123927809Y-71919304D01*
X124000380Y-71870923D01*
X124048761Y-71822542D01*
X124072952Y-71774161D01*
X123976190Y-72257971D02*
X123952000Y-72282161D01*
X123927809Y-72330542D01*
X123927809Y-72451495D01*
X123952000Y-72499876D01*
X123976190Y-72524066D01*
X124024571Y-72548257D01*
X124072952Y-72548257D01*
X124145523Y-72524066D01*
X124435809Y-72233780D01*
X124435809Y-72548257D01*
X120625809Y-69258352D02*
X120117809Y-69258352D01*
X120117809Y-69379304D01*
X120142000Y-69451876D01*
X120190380Y-69500257D01*
X120238761Y-69524447D01*
X120335523Y-69548638D01*
X120408095Y-69548638D01*
X120504857Y-69524447D01*
X120553238Y-69500257D01*
X120601619Y-69451876D01*
X120625809Y-69379304D01*
X120625809Y-69258352D01*
X120117809Y-69717971D02*
X120117809Y-70056638D01*
X120625809Y-69838923D01*
X120277809Y-71357352D02*
X119769809Y-71357352D01*
X119769809Y-71478304D01*
X119794000Y-71550876D01*
X119842380Y-71599257D01*
X119890761Y-71623447D01*
X119987523Y-71647638D01*
X120060095Y-71647638D01*
X120156857Y-71623447D01*
X120205238Y-71599257D01*
X120253619Y-71550876D01*
X120277809Y-71478304D01*
X120277809Y-71357352D01*
X119939142Y-72083066D02*
X120277809Y-72083066D01*
X119745619Y-71962114D02*
X120108476Y-71841161D01*
X120108476Y-72155638D01*
D20*
X112020271Y-66638714D02*
X112020271Y-65876714D01*
X111838842Y-65876714D01*
X111729985Y-65913000D01*
X111657414Y-65985571D01*
X111621128Y-66058142D01*
X111584842Y-66203285D01*
X111584842Y-66312142D01*
X111621128Y-66457285D01*
X111657414Y-66529857D01*
X111729985Y-66602428D01*
X111838842Y-66638714D01*
X112020271Y-66638714D01*
X110931700Y-65876714D02*
X111076842Y-65876714D01*
X111149414Y-65913000D01*
X111185700Y-65949285D01*
X111258271Y-66058142D01*
X111294557Y-66203285D01*
X111294557Y-66493571D01*
X111258271Y-66566142D01*
X111221985Y-66602428D01*
X111149414Y-66638714D01*
X111004271Y-66638714D01*
X110931700Y-66602428D01*
X110895414Y-66566142D01*
X110859128Y-66493571D01*
X110859128Y-66312142D01*
X110895414Y-66239571D01*
X110931700Y-66203285D01*
X111004271Y-66167000D01*
X111149414Y-66167000D01*
X111221985Y-66203285D01*
X111258271Y-66239571D01*
X111294557Y-66312142D01*
X100166714Y-72129728D02*
X99404714Y-72129728D01*
X99404714Y-72311157D01*
X99441000Y-72420014D01*
X99513571Y-72492585D01*
X99586142Y-72528871D01*
X99731285Y-72565157D01*
X99840142Y-72565157D01*
X99985285Y-72528871D01*
X100057857Y-72492585D01*
X100130428Y-72420014D01*
X100166714Y-72311157D01*
X100166714Y-72129728D01*
X99404714Y-73254585D02*
X99404714Y-72891728D01*
X99767571Y-72855442D01*
X99731285Y-72891728D01*
X99695000Y-72964300D01*
X99695000Y-73145728D01*
X99731285Y-73218300D01*
X99767571Y-73254585D01*
X99840142Y-73290871D01*
X100021571Y-73290871D01*
X100094142Y-73254585D01*
X100130428Y-73218300D01*
X100166714Y-73145728D01*
X100166714Y-72964300D01*
X100130428Y-72891728D01*
X100094142Y-72855442D01*
X130054271Y-63844714D02*
X130054271Y-63082714D01*
X129872842Y-63082714D01*
X129763985Y-63119000D01*
X129691414Y-63191571D01*
X129655128Y-63264142D01*
X129618842Y-63409285D01*
X129618842Y-63518142D01*
X129655128Y-63663285D01*
X129691414Y-63735857D01*
X129763985Y-63808428D01*
X129872842Y-63844714D01*
X130054271Y-63844714D01*
X128893128Y-63844714D02*
X129328557Y-63844714D01*
X129110842Y-63844714D02*
X129110842Y-63082714D01*
X129183414Y-63191571D01*
X129255985Y-63264142D01*
X129328557Y-63300428D01*
X128239985Y-63082714D02*
X128385128Y-63082714D01*
X128457700Y-63119000D01*
X128493985Y-63155285D01*
X128566557Y-63264142D01*
X128602842Y-63409285D01*
X128602842Y-63699571D01*
X128566557Y-63772142D01*
X128530271Y-63808428D01*
X128457700Y-63844714D01*
X128312557Y-63844714D01*
X128239985Y-63808428D01*
X128203700Y-63772142D01*
X128167414Y-63699571D01*
X128167414Y-63518142D01*
X128203700Y-63445571D01*
X128239985Y-63409285D01*
X128312557Y-63373000D01*
X128457700Y-63373000D01*
X128530271Y-63409285D01*
X128566557Y-63445571D01*
X128602842Y-63518142D01*
X97350579Y-46646920D02*
X96811763Y-46108104D01*
X96683474Y-46236394D01*
X96632158Y-46339025D01*
X96632158Y-46441657D01*
X96657816Y-46518630D01*
X96734790Y-46646920D01*
X96811763Y-46723893D01*
X96940053Y-46800867D01*
X97017026Y-46826525D01*
X97119658Y-46826525D01*
X97222289Y-46775209D01*
X97350579Y-46646920D01*
X96529527Y-47467972D02*
X96837421Y-47160077D01*
X96683474Y-47314025D02*
X96144659Y-46775209D01*
X96272948Y-46800867D01*
X96375580Y-46800867D01*
X96452553Y-46775209D01*
X115406714Y-59683728D02*
X114644714Y-59683728D01*
X114644714Y-59865157D01*
X114681000Y-59974014D01*
X114753571Y-60046585D01*
X114826142Y-60082871D01*
X114971285Y-60119157D01*
X115080142Y-60119157D01*
X115225285Y-60082871D01*
X115297857Y-60046585D01*
X115370428Y-59974014D01*
X115406714Y-59865157D01*
X115406714Y-59683728D01*
X114717285Y-60409442D02*
X114681000Y-60445728D01*
X114644714Y-60518300D01*
X114644714Y-60699728D01*
X114681000Y-60772300D01*
X114717285Y-60808585D01*
X114789857Y-60844871D01*
X114862428Y-60844871D01*
X114971285Y-60808585D01*
X115406714Y-60373157D01*
X115406714Y-60844871D01*
X108425285Y-50120271D02*
X109187285Y-50120271D01*
X109187285Y-49938842D01*
X109151000Y-49829985D01*
X109078428Y-49757414D01*
X109005857Y-49721128D01*
X108860714Y-49684842D01*
X108751857Y-49684842D01*
X108606714Y-49721128D01*
X108534142Y-49757414D01*
X108461571Y-49829985D01*
X108425285Y-49938842D01*
X108425285Y-50120271D01*
X108425285Y-48959128D02*
X108425285Y-49394557D01*
X108425285Y-49176842D02*
X109187285Y-49176842D01*
X109078428Y-49249414D01*
X109005857Y-49321985D01*
X108969571Y-49394557D01*
X109187285Y-48705128D02*
X109187285Y-48233414D01*
X108897000Y-48487414D01*
X108897000Y-48378557D01*
X108860714Y-48305985D01*
X108824428Y-48269700D01*
X108751857Y-48233414D01*
X108570428Y-48233414D01*
X108497857Y-48269700D01*
X108461571Y-48305985D01*
X108425285Y-48378557D01*
X108425285Y-48596271D01*
X108461571Y-48668842D01*
X108497857Y-48705128D01*
X120486714Y-63239728D02*
X119724714Y-63239728D01*
X119724714Y-63421157D01*
X119761000Y-63530014D01*
X119833571Y-63602585D01*
X119906142Y-63638871D01*
X120051285Y-63675157D01*
X120160142Y-63675157D01*
X120305285Y-63638871D01*
X120377857Y-63602585D01*
X120450428Y-63530014D01*
X120486714Y-63421157D01*
X120486714Y-63239728D01*
X120486714Y-64400871D02*
X120486714Y-63965442D01*
X120486714Y-64183157D02*
X119724714Y-64183157D01*
X119833571Y-64110585D01*
X119906142Y-64038014D01*
X119942428Y-63965442D01*
X119978714Y-65054014D02*
X120486714Y-65054014D01*
X119688428Y-64872585D02*
X120232714Y-64691157D01*
X120232714Y-65162871D01*
X103638271Y-70775285D02*
X103710842Y-70739000D01*
X103783414Y-70666428D01*
X103892271Y-70557571D01*
X103964842Y-70521285D01*
X104037414Y-70521285D01*
X104001128Y-70702714D02*
X104073700Y-70666428D01*
X104146271Y-70593857D01*
X104182557Y-70448714D01*
X104182557Y-70194714D01*
X104146271Y-70049571D01*
X104073700Y-69977000D01*
X104001128Y-69940714D01*
X103855985Y-69940714D01*
X103783414Y-69977000D01*
X103710842Y-70049571D01*
X103674557Y-70194714D01*
X103674557Y-70448714D01*
X103710842Y-70593857D01*
X103783414Y-70666428D01*
X103855985Y-70702714D01*
X104001128Y-70702714D01*
X103384271Y-70013285D02*
X103347985Y-69977000D01*
X103275414Y-69940714D01*
X103093985Y-69940714D01*
X103021414Y-69977000D01*
X102985128Y-70013285D01*
X102948842Y-70085857D01*
X102948842Y-70158428D01*
X102985128Y-70267285D01*
X103420557Y-70702714D01*
X102948842Y-70702714D01*
X96459469Y-57118711D02*
X96536443Y-57144369D01*
X96639074Y-57144369D01*
X96793022Y-57144369D01*
X96869995Y-57170027D01*
X96921311Y-57221343D01*
X96767364Y-57323974D02*
X96844337Y-57349632D01*
X96946969Y-57349632D01*
X97075258Y-57272659D01*
X97254863Y-57093053D01*
X97331837Y-56964764D01*
X97331837Y-56862133D01*
X97306179Y-56785159D01*
X97203548Y-56682527D01*
X97126574Y-56656870D01*
X97023942Y-56656870D01*
X96895653Y-56733843D01*
X96716048Y-56913448D01*
X96639074Y-57041738D01*
X96639074Y-57144369D01*
X96664732Y-57221343D01*
X96767364Y-57323974D01*
X96023285Y-56579896D02*
X96331180Y-56887790D01*
X96177233Y-56733843D02*
X96716048Y-56195028D01*
X96690390Y-56323317D01*
X96690390Y-56425949D01*
X96716048Y-56502922D01*
X133255714Y-51682728D02*
X133872571Y-51682728D01*
X133945142Y-51719014D01*
X133981428Y-51755300D01*
X134017714Y-51827871D01*
X134017714Y-51973014D01*
X133981428Y-52045585D01*
X133945142Y-52081871D01*
X133872571Y-52118157D01*
X133255714Y-52118157D01*
X133255714Y-52408442D02*
X133255714Y-52880157D01*
X133546000Y-52626157D01*
X133546000Y-52735014D01*
X133582285Y-52807585D01*
X133618571Y-52843871D01*
X133691142Y-52880157D01*
X133872571Y-52880157D01*
X133945142Y-52843871D01*
X133981428Y-52807585D01*
X134017714Y-52735014D01*
X134017714Y-52517300D01*
X133981428Y-52444728D01*
X133945142Y-52408442D01*
X128747271Y-49655714D02*
X128747271Y-50272571D01*
X128710985Y-50345142D01*
X128674700Y-50381428D01*
X128602128Y-50417714D01*
X128456985Y-50417714D01*
X128384414Y-50381428D01*
X128348128Y-50345142D01*
X128311842Y-50272571D01*
X128311842Y-49655714D01*
X127622414Y-49909714D02*
X127622414Y-50417714D01*
X127803842Y-49619428D02*
X127985271Y-50163714D01*
X127513557Y-50163714D01*
X115138842Y-66312142D02*
X115175128Y-66348428D01*
X115283985Y-66384714D01*
X115356557Y-66384714D01*
X115465414Y-66348428D01*
X115537985Y-66275857D01*
X115574271Y-66203285D01*
X115610557Y-66058142D01*
X115610557Y-65949285D01*
X115574271Y-65804142D01*
X115537985Y-65731571D01*
X115465414Y-65659000D01*
X115356557Y-65622714D01*
X115283985Y-65622714D01*
X115175128Y-65659000D01*
X115138842Y-65695285D01*
X114485700Y-65876714D02*
X114485700Y-66384714D01*
X114667128Y-65586428D02*
X114848557Y-66130714D01*
X114376842Y-66130714D01*
X132158842Y-70067714D02*
X132412842Y-69704857D01*
X132594271Y-70067714D02*
X132594271Y-69305714D01*
X132303985Y-69305714D01*
X132231414Y-69342000D01*
X132195128Y-69378285D01*
X132158842Y-69450857D01*
X132158842Y-69559714D01*
X132195128Y-69632285D01*
X132231414Y-69668571D01*
X132303985Y-69704857D01*
X132594271Y-69704857D01*
X131433128Y-70067714D02*
X131868557Y-70067714D01*
X131650842Y-70067714D02*
X131650842Y-69305714D01*
X131723414Y-69414571D01*
X131795985Y-69487142D01*
X131868557Y-69523428D01*
X130779985Y-69305714D02*
X130925128Y-69305714D01*
X130997700Y-69342000D01*
X131033985Y-69378285D01*
X131106557Y-69487142D01*
X131142842Y-69632285D01*
X131142842Y-69922571D01*
X131106557Y-69995142D01*
X131070271Y-70031428D01*
X130997700Y-70067714D01*
X130852557Y-70067714D01*
X130779985Y-70031428D01*
X130743700Y-69995142D01*
X130707414Y-69922571D01*
X130707414Y-69741142D01*
X130743700Y-69668571D01*
X130779985Y-69632285D01*
X130852557Y-69596000D01*
X130997700Y-69596000D01*
X131070271Y-69632285D01*
X131106557Y-69668571D01*
X131142842Y-69741142D01*
X131523842Y-68979142D02*
X131560128Y-69015428D01*
X131668985Y-69051714D01*
X131741557Y-69051714D01*
X131850414Y-69015428D01*
X131922985Y-68942857D01*
X131959271Y-68870285D01*
X131995557Y-68725142D01*
X131995557Y-68616285D01*
X131959271Y-68471142D01*
X131922985Y-68398571D01*
X131850414Y-68326000D01*
X131741557Y-68289714D01*
X131668985Y-68289714D01*
X131560128Y-68326000D01*
X131523842Y-68362285D01*
X131269842Y-68289714D02*
X130761842Y-68289714D01*
X131088414Y-69051714D01*
X106758842Y-59526714D02*
X107012842Y-59163857D01*
X107194271Y-59526714D02*
X107194271Y-58764714D01*
X106903985Y-58764714D01*
X106831414Y-58801000D01*
X106795128Y-58837285D01*
X106758842Y-58909857D01*
X106758842Y-59018714D01*
X106795128Y-59091285D01*
X106831414Y-59127571D01*
X106903985Y-59163857D01*
X107194271Y-59163857D01*
X106033128Y-59526714D02*
X106468557Y-59526714D01*
X106250842Y-59526714D02*
X106250842Y-58764714D01*
X106323414Y-58873571D01*
X106395985Y-58946142D01*
X106468557Y-58982428D01*
X125046842Y-46826714D02*
X125300842Y-46463857D01*
X125482271Y-46826714D02*
X125482271Y-46064714D01*
X125191985Y-46064714D01*
X125119414Y-46101000D01*
X125083128Y-46137285D01*
X125046842Y-46209857D01*
X125046842Y-46318714D01*
X125083128Y-46391285D01*
X125119414Y-46427571D01*
X125191985Y-46463857D01*
X125482271Y-46463857D01*
X124756557Y-46137285D02*
X124720271Y-46101000D01*
X124647700Y-46064714D01*
X124466271Y-46064714D01*
X124393700Y-46101000D01*
X124357414Y-46137285D01*
X124321128Y-46209857D01*
X124321128Y-46282428D01*
X124357414Y-46391285D01*
X124792842Y-46826714D01*
X124321128Y-46826714D01*
X123849414Y-46064714D02*
X123776842Y-46064714D01*
X123704271Y-46101000D01*
X123667985Y-46137285D01*
X123631700Y-46209857D01*
X123595414Y-46355000D01*
X123595414Y-46536428D01*
X123631700Y-46681571D01*
X123667985Y-46754142D01*
X123704271Y-46790428D01*
X123776842Y-46826714D01*
X123849414Y-46826714D01*
X123921985Y-46790428D01*
X123958271Y-46754142D01*
X123994557Y-46681571D01*
X124030842Y-46536428D01*
X124030842Y-46355000D01*
X123994557Y-46209857D01*
X123958271Y-46137285D01*
X123921985Y-46101000D01*
X123849414Y-46064714D01*
%LPC*%
D22*
X102108000Y-43434000D03*
X109982000Y-78232000D03*
X120650000Y-43434000D03*
D23*
X126152000Y-59435000D03*
X122102000Y-59435000D03*
D24*
X129301000Y-66746000D03*
X126801000Y-66746000D03*
X124301000Y-66746000D03*
X121801000Y-66746000D03*
X121801000Y-56246000D03*
X124301000Y-56246000D03*
X126801000Y-56246000D03*
X129301000Y-56246000D03*
D25*
X129177051Y-44468051D03*
X125584949Y-40875949D03*
D26*
X111633000Y-40156000D03*
X111633000Y-43156000D03*
X117221000Y-40156000D03*
X117221000Y-43156000D03*
D27*
X128143000Y-71247000D03*
X128143000Y-73787000D03*
X98298000Y-70104000D03*
X100838000Y-70104000D03*
D26*
X106045000Y-40156000D03*
X106045000Y-43156000D03*
D27*
X123190000Y-48062000D03*
X123190000Y-51562000D03*
D25*
X134239000Y-65726000D03*
X134239000Y-58226000D03*
D28*
X105171000Y-65405000D03*
X105171000Y-62865000D03*
X105171000Y-47625000D03*
X105171000Y-55245000D03*
X97551000Y-62865000D03*
X97551000Y-65405000D03*
X117109000Y-65405000D03*
X117109000Y-62865000D03*
X117109000Y-47625000D03*
X117109000Y-55245000D03*
X109489000Y-62865000D03*
X109489000Y-65405000D03*
D29*
X114300000Y-78232000D03*
X116332000Y-78232000D03*
D22*
X115855000Y-73841000D03*
X115855000Y-75841000D03*
X113855000Y-73841000D03*
X113855000Y-75841000D03*
X111855000Y-73841000D03*
X111855000Y-75841000D03*
X109855000Y-73841000D03*
X109855000Y-75841000D03*
X107855000Y-73841000D03*
X107855000Y-75841000D03*
X105855000Y-73841000D03*
X105855000Y-75841000D03*
X103855000Y-73841000D03*
X103855000Y-75841000D03*
D30*
X120777000Y-75057000D03*
D31*
X120777000Y-77458000D03*
D32*
X119276000Y-77557000D03*
X122278000Y-77557000D03*
D33*
X110260000Y-69535000D03*
X110260000Y-71435000D03*
X113260000Y-71435000D03*
X113260000Y-70485000D03*
X113260000Y-69535000D03*
D34*
X114722000Y-69850000D03*
X115570000Y-69850000D03*
D35*
X105791000Y-71925000D03*
X105791000Y-71077000D03*
X107188000Y-71925000D03*
X107188000Y-71077000D03*
X131318000Y-60706000D03*
X131318000Y-59858000D03*
X133604000Y-55626000D03*
X133604000Y-54778000D03*
D36*
X108823000Y-68199000D03*
X107823000Y-68199000D03*
X108831000Y-69723000D03*
X107831000Y-69723000D03*
D37*
X125222000Y-71755000D03*
X122822000Y-71755000D03*
X121412000Y-69723000D03*
X119012000Y-69723000D03*
X118999000Y-71628000D03*
X121399000Y-71628000D03*
X112579000Y-67818000D03*
X110179000Y-67818000D03*
X101473000Y-71571000D03*
X101473000Y-73971000D03*
D38*
X129159000Y-58014000D03*
X129159000Y-62128000D03*
D39*
G36*
X99373919Y-48036536D02*
G01*
X97378464Y-46041081D01*
X99069863Y-44349682D01*
X101065318Y-46345137D01*
X99373919Y-48036536D01*
G37*
G36*
X96510137Y-50900318D02*
G01*
X94514682Y-48904863D01*
X96206081Y-47213464D01*
X98201536Y-49208919D01*
X96510137Y-50900318D01*
G37*
D40*
X113157000Y-58449000D03*
X113157000Y-61849000D03*
D41*
X110851000Y-46103000D03*
X113431000Y-46103000D03*
X113431000Y-52703000D03*
X110851000Y-52703000D03*
D42*
X126009000Y-64135000D03*
X121895000Y-64135000D03*
D43*
X103632000Y-71608000D03*
X104582000Y-69108000D03*
X102682000Y-69108000D03*
D39*
G36*
X95682368Y-56086649D02*
G01*
X93488923Y-58280094D01*
X92285428Y-57076599D01*
X94478873Y-54883154D01*
X95682368Y-56086649D01*
G37*
G36*
X95512664Y-60312319D02*
G01*
X97706109Y-58118874D01*
X98909604Y-59322369D01*
X96716159Y-61515814D01*
X95512664Y-60312319D01*
G37*
G36*
X96219063Y-53263172D02*
G01*
X100887382Y-48594853D01*
X105202147Y-52909618D01*
X100533828Y-57577937D01*
X96219063Y-53263172D01*
G37*
D44*
X134874000Y-55197000D03*
X132334000Y-55197000D03*
X132334000Y-49197000D03*
X134874000Y-49197000D03*
D45*
X130556000Y-53012000D03*
X129286000Y-53012000D03*
X126746000Y-53012000D03*
X126746000Y-47572000D03*
X128016000Y-47572000D03*
X129286000Y-47572000D03*
X130556000Y-47572000D03*
D29*
X116713000Y-67818000D03*
X114681000Y-67818000D03*
X123444000Y-69215000D03*
X125476000Y-69215000D03*
X127508000Y-69215000D03*
X129540000Y-69215000D03*
D46*
X107315000Y-60579000D03*
X105915000Y-60579000D03*
D47*
X127076000Y-44323000D03*
X123876000Y-44323000D03*
M02*
