G04 #@! TF.GenerationSoftware,KiCad,Pcbnew,5.1.5-52549c5~84~ubuntu18.04.1*
G04 #@! TF.CreationDate,2020-02-14T10:15:43+02:00*
G04 #@! TF.ProjectId,NRF52832_Touch_Switch_Power_Supply,4e524635-3238-4333-925f-546f7563685f,rev?*
G04 #@! TF.SameCoordinates,Original*
G04 #@! TF.FileFunction,Copper,L2,Bot*
G04 #@! TF.FilePolarity,Positive*
%FSLAX46Y46*%
G04 Gerber Fmt 4.6, Leading zero omitted, Abs format (unit mm)*
G04 Created by KiCad (PCBNEW 5.1.5-52549c5~84~ubuntu18.04.1) date 2020-02-14 10:15:43*
%MOMM*%
%LPD*%
G04 APERTURE LIST*
%ADD10C,0.100000*%
%ADD11R,2.290000X2.720000*%
%ADD12R,1.778000X1.778000*%
%ADD13C,1.800000*%
%ADD14C,2.250000*%
%ADD15C,1.600000*%
%ADD16C,2.000000*%
%ADD17R,1.160000X1.450000*%
%ADD18C,1.500000*%
%ADD19O,2.000000X3.500000*%
%ADD20O,0.700000X2.100000*%
%ADD21O,0.700000X1.900000*%
%ADD22R,1.000000X0.550000*%
%ADD23R,0.600000X0.650000*%
%ADD24R,0.650000X0.600000*%
%ADD25R,0.500000X0.800000*%
%ADD26R,1.000000X1.000000*%
%ADD27R,1.471000X1.270000*%
%ADD28R,1.500000X1.300000*%
%ADD29R,0.813000X1.500000*%
%ADD30R,2.000000X2.000000*%
%ADD31R,0.700000X1.250000*%
%ADD32O,0.800000X2.000000*%
%ADD33R,0.650000X1.550000*%
%ADD34R,1.000000X1.100000*%
%ADD35R,1.600000X2.000000*%
%ADD36C,0.610000*%
%ADD37C,0.508000*%
%ADD38C,0.635000*%
%ADD39C,0.762000*%
%ADD40C,0.254000*%
%ADD41C,2.032000*%
%ADD42C,0.203000*%
%ADD43C,0.305000*%
%ADD44C,0.250000*%
%ADD45C,0.406000*%
G04 APERTURE END LIST*
D10*
G36*
X104267000Y-50038000D02*
G01*
X108966000Y-50038000D01*
X108966000Y-58420000D01*
X101473000Y-58420000D01*
X96266000Y-53213000D01*
X101854000Y-47625000D01*
X104267000Y-50038000D01*
G37*
G36*
X124841000Y-76200000D02*
G01*
X117856000Y-76200000D01*
X117856000Y-72771000D01*
X124841000Y-72771000D01*
X124841000Y-76200000D01*
G37*
D11*
X126152000Y-59435000D03*
X122102000Y-59435000D03*
D12*
X129301000Y-66746000D03*
X126801000Y-66746000D03*
X124301000Y-66746000D03*
X121801000Y-66746000D03*
X121801000Y-56246000D03*
X124301000Y-56246000D03*
X126801000Y-56246000D03*
X129301000Y-56246000D03*
D13*
X129177051Y-44468051D03*
X125584949Y-40875949D03*
D14*
X111633000Y-40156000D03*
X111633000Y-43156000D03*
X117221000Y-40156000D03*
X117221000Y-43156000D03*
D15*
X128143000Y-71247000D03*
X128143000Y-73787000D03*
X98298000Y-70104000D03*
X100838000Y-70104000D03*
D14*
X106045000Y-40156000D03*
X106045000Y-43156000D03*
D15*
X123190000Y-48062000D03*
X123190000Y-51562000D03*
D13*
X134239000Y-65726000D03*
X134239000Y-58226000D03*
D16*
X105171000Y-65405000D03*
X105171000Y-62865000D03*
X105171000Y-47625000D03*
X105171000Y-55245000D03*
X97551000Y-62865000D03*
X97551000Y-65405000D03*
X117109000Y-65405000D03*
X117109000Y-62865000D03*
X117109000Y-47625000D03*
X117109000Y-55245000D03*
X109489000Y-62865000D03*
X109489000Y-65405000D03*
D17*
X114300000Y-78232000D03*
X116332000Y-78232000D03*
D18*
X115855000Y-73841000D03*
X115855000Y-75841000D03*
X113855000Y-73841000D03*
X113855000Y-75841000D03*
X111855000Y-73841000D03*
X111855000Y-75841000D03*
X109855000Y-73841000D03*
X109855000Y-75841000D03*
X107855000Y-73841000D03*
X107855000Y-75841000D03*
X105855000Y-73841000D03*
X105855000Y-75841000D03*
X103855000Y-73841000D03*
X103855000Y-75841000D03*
D19*
X120777000Y-75057000D03*
D20*
X120777000Y-77458000D03*
D21*
X119276000Y-77557000D03*
X122278000Y-77557000D03*
D22*
X110260000Y-69535000D03*
X110260000Y-71435000D03*
X113260000Y-71435000D03*
X113260000Y-70485000D03*
X113260000Y-69535000D03*
D23*
X114722000Y-69850000D03*
X115570000Y-69850000D03*
D24*
X105791000Y-71925000D03*
X105791000Y-71077000D03*
X107188000Y-71925000D03*
X107188000Y-71077000D03*
X131318000Y-60706000D03*
X131318000Y-59858000D03*
X133604000Y-55626000D03*
X133604000Y-54778000D03*
D25*
X108823000Y-68199000D03*
X107823000Y-68199000D03*
X108831000Y-69723000D03*
X107831000Y-69723000D03*
D26*
X125222000Y-71755000D03*
X122822000Y-71755000D03*
X121412000Y-69723000D03*
X119012000Y-69723000D03*
X118999000Y-71628000D03*
X121399000Y-71628000D03*
X112579000Y-67818000D03*
X110179000Y-67818000D03*
X101473000Y-71571000D03*
X101473000Y-73971000D03*
D27*
X129159000Y-58014000D03*
X129159000Y-62128000D03*
G04 #@! TA.AperFunction,SMDPad,CuDef*
D10*
G36*
X99373919Y-47964411D02*
G01*
X97450589Y-46041081D01*
X99069863Y-44421807D01*
X100993193Y-46345137D01*
X99373919Y-47964411D01*
G37*
G04 #@! TD.AperFunction*
G04 #@! TA.AperFunction,SMDPad,CuDef*
G36*
X96510137Y-50828193D02*
G01*
X94586807Y-48904863D01*
X96206081Y-47285589D01*
X98129411Y-49208919D01*
X96510137Y-50828193D01*
G37*
G04 #@! TD.AperFunction*
D28*
X113157000Y-58449000D03*
X113157000Y-61849000D03*
D29*
X110851000Y-46103000D03*
X113431000Y-46103000D03*
X113431000Y-52703000D03*
X110851000Y-52703000D03*
D30*
X126009000Y-64135000D03*
X121895000Y-64135000D03*
D31*
X103632000Y-71608000D03*
X104582000Y-69108000D03*
X102682000Y-69108000D03*
G04 #@! TA.AperFunction,SMDPad,CuDef*
D10*
G36*
X95610244Y-56086649D02*
G01*
X93488923Y-58207970D01*
X92357552Y-57076599D01*
X94478873Y-54955278D01*
X95610244Y-56086649D01*
G37*
G04 #@! TD.AperFunction*
G04 #@! TA.AperFunction,SMDPad,CuDef*
G36*
X95584788Y-60312319D02*
G01*
X97706109Y-58190998D01*
X98837480Y-59322369D01*
X96716159Y-61443690D01*
X95584788Y-60312319D01*
G37*
G04 #@! TD.AperFunction*
G04 #@! TA.AperFunction,SMDPad,CuDef*
G36*
X96291188Y-53263172D02*
G01*
X100887382Y-48666978D01*
X105130022Y-52909618D01*
X100533828Y-57505812D01*
X96291188Y-53263172D01*
G37*
G04 #@! TD.AperFunction*
D32*
X134874000Y-55197000D03*
X132334000Y-55197000D03*
X132334000Y-49197000D03*
X134874000Y-49197000D03*
D33*
X130556000Y-53012000D03*
X129286000Y-53012000D03*
X126746000Y-53012000D03*
X126746000Y-47572000D03*
X128016000Y-47572000D03*
X129286000Y-47572000D03*
X130556000Y-47572000D03*
D17*
X116713000Y-67818000D03*
X114681000Y-67818000D03*
X123444000Y-69215000D03*
X125476000Y-69215000D03*
X127508000Y-69215000D03*
X129540000Y-69215000D03*
D34*
X107315000Y-60579000D03*
X105915000Y-60579000D03*
D35*
X127076000Y-44323000D03*
X123876000Y-44323000D03*
D36*
X123698000Y-44323000D03*
X113411000Y-46101000D03*
X110851000Y-48113000D03*
X112776000Y-48895000D03*
X114808000Y-48895000D03*
X110871000Y-44762000D03*
X110871000Y-46482000D03*
X108104000Y-72490000D03*
X130429000Y-64389000D03*
X114935000Y-55245000D03*
X113665000Y-55245000D03*
X112395000Y-55245000D03*
X111252000Y-55245000D03*
X110109000Y-55245000D03*
X109093000Y-55245000D03*
X108077000Y-55245000D03*
X107061000Y-55245000D03*
X100965000Y-49784000D03*
X102489000Y-51308000D03*
X104013000Y-52578000D03*
X99568000Y-51562000D03*
X100965000Y-52832000D03*
X102616000Y-54356000D03*
X97917000Y-53467000D03*
X99441000Y-54991000D03*
X100965000Y-56261000D03*
X102235000Y-48387000D03*
X103759000Y-49911000D03*
X105283000Y-51181000D03*
X106553000Y-51181000D03*
X107950000Y-51181000D03*
X106553000Y-52578000D03*
X107950000Y-52578000D03*
X106553000Y-53848000D03*
X107950000Y-53848000D03*
X120015000Y-40132000D03*
X121539000Y-40132000D03*
X123063000Y-40132000D03*
X107950000Y-67310000D03*
X117856000Y-67818000D03*
X126111000Y-76454000D03*
X125349000Y-77216000D03*
X124460000Y-77724000D03*
X123444000Y-78105000D03*
X133096000Y-62865000D03*
X134239000Y-63754000D03*
X135255000Y-62865000D03*
X136017000Y-52832000D03*
X136271000Y-53975000D03*
X136398000Y-55118000D03*
X136525000Y-56261000D03*
X136398000Y-57404000D03*
X133096000Y-61722000D03*
X135255000Y-61722000D03*
X94107000Y-58547000D03*
X94869000Y-57912000D03*
X93853000Y-60706000D03*
X94234000Y-61976000D03*
X94996000Y-64135000D03*
X94615000Y-63119000D03*
X95123000Y-52578000D03*
X94488000Y-53213000D03*
X96012000Y-68834000D03*
X95631000Y-67818000D03*
X95250000Y-66675000D03*
X94869000Y-65405000D03*
X93345000Y-55118000D03*
X94107000Y-54483000D03*
X97917000Y-72009000D03*
X98679000Y-73025000D03*
X99568000Y-74041000D03*
X94996000Y-50927000D03*
X94361000Y-51562000D03*
X133223000Y-69088000D03*
X132588000Y-69977000D03*
X131826000Y-70866000D03*
X130937000Y-71755000D03*
X130175000Y-72517000D03*
X133858000Y-68072000D03*
X134239000Y-60833000D03*
X118237000Y-79375000D03*
X104902000Y-77597000D03*
X115316000Y-80137000D03*
X110998000Y-79883000D03*
X107950000Y-77851000D03*
X105537000Y-45339000D03*
X117729000Y-69215000D03*
X122682000Y-72771000D03*
X111760000Y-69469000D03*
X133604000Y-53848000D03*
X130556000Y-51689000D03*
X129286000Y-49276000D03*
D37*
X125476000Y-69215000D02*
X127508000Y-69215000D01*
D38*
X113431000Y-46103000D02*
X114068000Y-45466000D01*
X114068000Y-45466000D02*
X122809000Y-45466000D01*
X122809000Y-45466000D02*
X123749000Y-44526000D01*
X123749000Y-44526000D02*
X123749000Y-44323000D01*
D37*
X98298000Y-70104000D02*
X98298000Y-70739000D01*
X98298000Y-70739000D02*
X101473000Y-73914000D01*
X101473000Y-73914000D02*
X101473000Y-73970000D01*
D39*
X105171000Y-65405000D02*
X101219000Y-65405000D01*
X101219000Y-65405000D02*
X98171000Y-68453000D01*
X98171000Y-68453000D02*
X98171000Y-70104000D01*
X117109000Y-62865000D02*
X117109000Y-65405000D01*
X105171000Y-62865000D02*
X105171000Y-65405000D01*
X117109000Y-65405000D02*
X119012000Y-67308000D01*
X119012000Y-67308000D02*
X119012000Y-69723000D01*
D37*
X121399000Y-71628000D02*
X119494000Y-69723000D01*
X119494000Y-69723000D02*
X119012000Y-69723000D01*
X103855000Y-73841000D02*
X103725000Y-73971000D01*
X103725000Y-73971000D02*
X101473000Y-73971000D01*
D40*
X115854000Y-75839000D02*
X117094000Y-74602000D01*
X117094000Y-74602000D02*
X117094000Y-73152000D01*
X117094000Y-73152000D02*
X116586000Y-72644000D01*
X116586000Y-72644000D02*
X109220000Y-72644000D01*
X109220000Y-72644000D02*
X108374000Y-71798000D01*
X108374000Y-71798000D02*
X107315000Y-71798000D01*
X107315000Y-71798000D02*
X107188000Y-71925000D01*
D37*
X116000000Y-78232000D02*
X116676000Y-77556000D01*
X116676000Y-77556000D02*
X119276000Y-77556000D01*
X115855000Y-75841000D02*
X116000000Y-75986000D01*
X116000000Y-75986000D02*
X116000000Y-78232000D01*
D41*
X110851000Y-46484000D02*
X110851000Y-44764000D01*
X110851000Y-44764000D02*
X111633000Y-43156000D01*
X117109000Y-47625000D02*
X115839000Y-48895000D01*
X115839000Y-48895000D02*
X115839000Y-48895000D01*
X115839000Y-48895000D02*
X114808000Y-48895000D01*
X114808000Y-48895000D02*
X113792000Y-48895000D01*
X113792000Y-48895000D02*
X112776000Y-48895000D01*
X112776000Y-48895000D02*
X111633000Y-48895000D01*
X111633000Y-48895000D02*
X111633000Y-48895000D01*
X111633000Y-48895000D02*
X110851000Y-48113000D01*
X110851000Y-48113000D02*
X110851000Y-48113000D01*
X110851000Y-48113000D02*
X110851000Y-46485000D01*
X111633000Y-40156000D02*
X111633000Y-43156000D01*
D39*
X121801000Y-56246000D02*
X121801000Y-52951000D01*
X121801000Y-52951000D02*
X123190000Y-51562000D01*
X121801000Y-56246000D02*
X121711000Y-56336000D01*
X121711000Y-56336000D02*
X121711000Y-59690000D01*
X113431000Y-53084000D02*
X121668000Y-53084000D01*
X121668000Y-53084000D02*
X123190000Y-51562000D01*
D42*
X108105000Y-72489000D02*
X107950000Y-72644000D01*
X107950000Y-72644000D02*
X107051000Y-72644000D01*
X107051000Y-72644000D02*
X105855000Y-73840000D01*
D37*
X130429000Y-64262000D02*
X130302000Y-64135000D01*
X130302000Y-64135000D02*
X126009000Y-64135000D01*
D43*
X131318000Y-60706000D02*
X131318000Y-63500000D01*
X131318000Y-63500000D02*
X130429000Y-64389000D01*
D37*
X129540000Y-69342000D02*
X129540000Y-70231000D01*
X129540000Y-70231000D02*
X128524000Y-71247000D01*
X128524000Y-71247000D02*
X128143000Y-71247000D01*
X121412000Y-69723000D02*
X122301000Y-70612000D01*
X122301000Y-70612000D02*
X123825000Y-70612000D01*
X123825000Y-70612000D02*
X124968000Y-71755000D01*
X124968000Y-71755000D02*
X125222000Y-71755000D01*
X124968000Y-71755000D02*
X127635000Y-71755000D01*
X127635000Y-71755000D02*
X128143000Y-71247000D01*
D39*
X129159000Y-62281000D02*
X126568000Y-59690000D01*
X126568000Y-59690000D02*
X126111000Y-59690000D01*
D41*
X99223000Y-46192000D02*
X100965000Y-47935000D01*
X100965000Y-47935000D02*
X100965000Y-49784000D01*
X100965000Y-49784000D02*
X100965000Y-50546000D01*
X100965000Y-50546000D02*
X100965000Y-52832000D01*
X100965000Y-52832000D02*
X100965000Y-52832000D01*
X100965000Y-52832000D02*
X100711000Y-53086000D01*
X105171000Y-55245000D02*
X107061000Y-55245000D01*
X107061000Y-55245000D02*
X108077000Y-55245000D01*
X108077000Y-55245000D02*
X109093000Y-55245000D01*
X109093000Y-55245000D02*
X110109000Y-55245000D01*
X110109000Y-55245000D02*
X111252000Y-55245000D01*
X111252000Y-55245000D02*
X112395000Y-55245000D01*
X112395000Y-55245000D02*
X113665000Y-55245000D01*
X113665000Y-55245000D02*
X114935000Y-55245000D01*
X114935000Y-55245000D02*
X117109000Y-55245000D01*
X105171000Y-55245000D02*
X103012000Y-53086000D01*
X103012000Y-53086000D02*
X103012000Y-53086000D01*
X103012000Y-53086000D02*
X100711000Y-53086000D01*
D39*
X113157000Y-58449000D02*
X113185000Y-58421000D01*
X113185000Y-58421000D02*
X113185000Y-55245000D01*
D44*
X102235000Y-51562000D02*
X100965000Y-52832000D01*
X102235000Y-48387000D02*
X102235000Y-51562000D01*
D41*
X122809000Y-40156000D02*
X122833000Y-40132000D01*
X122833000Y-40132000D02*
X123825000Y-40132000D01*
X123825000Y-40132000D02*
X124841000Y-40132000D01*
X124841000Y-40132000D02*
X125585000Y-40876000D01*
X117983000Y-40156000D02*
X120523000Y-40156000D01*
X120523000Y-40156000D02*
X121666000Y-40156000D01*
X121666000Y-40156000D02*
X122809000Y-40156000D01*
X117221000Y-40156000D02*
X117221000Y-43156000D01*
D37*
X100711000Y-70104000D02*
X100711000Y-68199000D01*
X100711000Y-68199000D02*
X101346000Y-67564000D01*
X101346000Y-67564000D02*
X107188000Y-67564000D01*
X107188000Y-67564000D02*
X107823000Y-68199000D01*
D45*
X113236000Y-70678000D02*
X113297000Y-70739000D01*
X113297000Y-70739000D02*
X115316000Y-70739000D01*
X115316000Y-70739000D02*
X115570000Y-70485000D01*
X115570000Y-70485000D02*
X115570000Y-69850000D01*
X115570000Y-69850000D02*
X116713000Y-68707000D01*
X116713000Y-68707000D02*
X116713000Y-67818000D01*
D40*
X107950000Y-67310000D02*
X107823000Y-67437000D01*
X107823000Y-67437000D02*
X107823000Y-68199000D01*
D37*
X116713000Y-67818000D02*
X117856000Y-67818000D01*
X100711000Y-70104000D02*
X101473000Y-70866000D01*
X101473000Y-70866000D02*
X101473000Y-71571000D01*
X104582000Y-69108000D02*
X104584000Y-69106000D01*
X104584000Y-69106000D02*
X104584000Y-67564000D01*
D38*
X126949000Y-44323000D02*
X129032000Y-44323000D01*
X129032000Y-44323000D02*
X129177000Y-44468000D01*
D41*
X105171000Y-47625000D02*
X105537000Y-47259000D01*
X105537000Y-47259000D02*
X105537000Y-45339000D01*
X105537000Y-45339000D02*
X105537000Y-44554000D01*
X105537000Y-44554000D02*
X105537000Y-44554000D01*
X105537000Y-44554000D02*
X106045000Y-43156000D01*
X106045000Y-40156000D02*
X106045000Y-43156000D01*
D37*
X97212000Y-59817000D02*
X97974000Y-60579000D01*
X97974000Y-60579000D02*
X105915000Y-60579000D01*
D40*
X107831000Y-69723000D02*
X107323000Y-70231000D01*
X107323000Y-70231000D02*
X103505000Y-70231000D01*
X103505000Y-70231000D02*
X102682000Y-69408000D01*
X102682000Y-69408000D02*
X102682000Y-69108000D01*
X105791000Y-71077000D02*
X104163000Y-71077000D01*
X104163000Y-71077000D02*
X103632000Y-71608000D01*
D37*
X118999000Y-71628000D02*
X118999000Y-73279000D01*
X118999000Y-73279000D02*
X120777000Y-75057000D01*
X118999000Y-71628000D02*
X117729000Y-70358000D01*
X117729000Y-70358000D02*
X117729000Y-69215000D01*
X122822000Y-71755000D02*
X122822000Y-72631000D01*
X122822000Y-72631000D02*
X122682000Y-72771000D01*
X120777000Y-75057000D02*
X120777000Y-74676000D01*
X120777000Y-74676000D02*
X122682000Y-72771000D01*
D44*
X120777000Y-75057000D02*
X120777000Y-77458000D01*
D39*
X121869000Y-64008000D02*
X121801000Y-64076000D01*
X121801000Y-64076000D02*
X121801000Y-66746000D01*
X123444000Y-69596000D02*
X121801000Y-67953000D01*
X121801000Y-67953000D02*
X121801000Y-66746000D01*
D43*
X114681000Y-67818000D02*
X114722000Y-67859000D01*
X114722000Y-67859000D02*
X114722000Y-69850000D01*
X113236000Y-69728000D02*
X113358000Y-69850000D01*
X113358000Y-69850000D02*
X114722000Y-69850000D01*
X112579000Y-67945000D02*
X113236000Y-68602000D01*
X113236000Y-68602000D02*
X113236000Y-69728000D01*
D40*
X105791000Y-71925000D02*
X106129000Y-71925000D01*
X106129000Y-71925000D02*
X106553000Y-71501000D01*
X106553000Y-71501000D02*
X106553000Y-71247000D01*
X106553000Y-71247000D02*
X106723000Y-71077000D01*
X106723000Y-71077000D02*
X107188000Y-71077000D01*
X107188000Y-71077000D02*
X108542000Y-71077000D01*
X108542000Y-71077000D02*
X109601000Y-72136000D01*
X109601000Y-72136000D02*
X112776000Y-72136000D01*
X112776000Y-72136000D02*
X113260000Y-71652000D01*
X113260000Y-71652000D02*
X113260000Y-71435000D01*
D43*
X108831000Y-69723000D02*
X108831000Y-70604000D01*
X108831000Y-70604000D02*
X109667000Y-71435000D01*
X109667000Y-71435000D02*
X110261000Y-71435000D01*
X108823000Y-68199000D02*
X108823000Y-67167000D01*
X108823000Y-67167000D02*
X107315000Y-65659000D01*
X107315000Y-65659000D02*
X107315000Y-60579000D01*
X108823000Y-68199000D02*
X108831000Y-68207000D01*
X108831000Y-68207000D02*
X108831000Y-69723000D01*
D39*
X113157000Y-61849000D02*
X113157000Y-64967000D01*
X113157000Y-64967000D02*
X110179000Y-67945000D01*
D37*
X110236000Y-69728000D02*
X110236000Y-69469000D01*
X110236000Y-69469000D02*
X111760000Y-69469000D01*
X110236000Y-69728000D02*
X110179000Y-69671000D01*
X110179000Y-69671000D02*
X110179000Y-67945000D01*
D43*
X133604000Y-55626000D02*
X134445000Y-55626000D01*
X134445000Y-55626000D02*
X134874000Y-55197000D01*
X133604000Y-55626000D02*
X133604000Y-55880000D01*
X133604000Y-55880000D02*
X131318000Y-58166000D01*
X131318000Y-58166000D02*
X131318000Y-59858000D01*
X133604000Y-54778000D02*
X132753000Y-54778000D01*
X132753000Y-54778000D02*
X132334000Y-55197000D01*
X133604000Y-53848000D02*
X133604000Y-54778000D01*
D37*
X129286000Y-53012000D02*
X129286000Y-51308000D01*
X129286000Y-51308000D02*
X131397000Y-49197000D01*
X131397000Y-49197000D02*
X132334000Y-49197000D01*
X130556000Y-51689000D02*
X130556000Y-53012000D01*
X130556000Y-51689000D02*
X132382000Y-51689000D01*
X132382000Y-51689000D02*
X134874000Y-49197000D01*
D39*
X129159000Y-56388000D02*
X129159000Y-55626000D01*
X129159000Y-55626000D02*
X126746000Y-53213000D01*
X126746000Y-53213000D02*
X126746000Y-53012000D01*
X129301000Y-56246000D02*
X129159000Y-56388000D01*
X129159000Y-56388000D02*
X129159000Y-58166000D01*
X110851000Y-53083000D02*
X110851000Y-51582000D01*
X110851000Y-51582000D02*
X111379000Y-51054000D01*
X111379000Y-51054000D02*
X119634000Y-51054000D01*
X119634000Y-51054000D02*
X122626000Y-48062000D01*
X122626000Y-48062000D02*
X123190000Y-48062000D01*
X123190000Y-48062000D02*
X123680000Y-47572000D01*
X123680000Y-47572000D02*
X126746000Y-47572000D01*
X126746000Y-47572000D02*
X128016000Y-47572000D01*
X128016000Y-47572000D02*
X129286000Y-47572000D01*
X129286000Y-47572000D02*
X130556000Y-47572000D01*
D37*
X129286000Y-49276000D02*
X129286000Y-47572000D01*
D40*
G36*
X97108079Y-47300101D02*
G01*
X98573154Y-48765176D01*
X98744762Y-48906011D01*
X98822000Y-48947296D01*
X98822000Y-49063181D01*
X95469091Y-52416091D01*
X95401858Y-52497941D01*
X95333880Y-52579532D01*
X95331987Y-52583004D01*
X95329481Y-52586055D01*
X95279411Y-52679436D01*
X95228591Y-52772646D01*
X95227408Y-52776420D01*
X95225543Y-52779899D01*
X95194551Y-52881268D01*
X95178767Y-52931637D01*
X94395669Y-53760799D01*
X94382403Y-53777443D01*
X94370667Y-53799399D01*
X94363440Y-53823224D01*
X94361000Y-53848000D01*
X94363440Y-53872776D01*
X94370667Y-53896601D01*
X94382403Y-53918557D01*
X94398197Y-53937803D01*
X96724915Y-56264521D01*
X93759680Y-59476858D01*
X93749433Y-59489496D01*
X93737083Y-59511113D01*
X93729188Y-59534725D01*
X93726050Y-59559422D01*
X93727792Y-59584258D01*
X93734345Y-59608276D01*
X95611804Y-64528514D01*
X95505739Y-64784577D01*
X95424000Y-65195509D01*
X95424000Y-65614491D01*
X95505739Y-66025423D01*
X95666077Y-66412512D01*
X95898851Y-66760884D01*
X96195116Y-67057149D01*
X96543488Y-67289923D01*
X96688405Y-67349950D01*
X96839308Y-67745419D01*
X96800512Y-67818000D01*
X96771049Y-67873122D01*
X96699197Y-68109988D01*
X96684820Y-68157381D01*
X96663000Y-68378923D01*
X96663000Y-68378930D01*
X96655705Y-68453000D01*
X96663000Y-68527070D01*
X96663000Y-69082442D01*
X96590315Y-69191223D01*
X96445053Y-69541915D01*
X96371000Y-69914207D01*
X96371000Y-70293793D01*
X96445053Y-70666085D01*
X96590315Y-71016777D01*
X96801201Y-71332391D01*
X97069609Y-71600799D01*
X97385223Y-71811685D01*
X97440591Y-71834619D01*
X99840547Y-74234576D01*
X99840547Y-74471000D01*
X99862307Y-74691931D01*
X99926750Y-74904371D01*
X100031400Y-75100157D01*
X100172235Y-75271765D01*
X100343843Y-75412600D01*
X100539629Y-75517250D01*
X100752069Y-75581693D01*
X100973000Y-75603453D01*
X101973000Y-75603453D01*
X101988788Y-75601898D01*
X101978000Y-75656132D01*
X101978000Y-76025868D01*
X102050132Y-76388501D01*
X102191624Y-76730093D01*
X102397039Y-77037518D01*
X102658482Y-77298961D01*
X102965907Y-77504376D01*
X103307499Y-77645868D01*
X103670132Y-77718000D01*
X104039868Y-77718000D01*
X104402501Y-77645868D01*
X104744093Y-77504376D01*
X104855000Y-77430270D01*
X104965907Y-77504376D01*
X105307499Y-77645868D01*
X105670132Y-77718000D01*
X106039868Y-77718000D01*
X106402501Y-77645868D01*
X106744093Y-77504376D01*
X106855000Y-77430270D01*
X106965907Y-77504376D01*
X107307499Y-77645868D01*
X107670132Y-77718000D01*
X108039868Y-77718000D01*
X108175848Y-77690952D01*
X108105000Y-78047132D01*
X108105000Y-78416868D01*
X108177132Y-78779501D01*
X108318624Y-79121093D01*
X108524039Y-79428518D01*
X108785482Y-79689961D01*
X109092907Y-79895376D01*
X109434499Y-80036868D01*
X109797132Y-80109000D01*
X110166868Y-80109000D01*
X110529501Y-80036868D01*
X110871093Y-79895376D01*
X111178518Y-79689961D01*
X111439961Y-79428518D01*
X111645376Y-79121093D01*
X111786868Y-78779501D01*
X111859000Y-78416868D01*
X111859000Y-78047132D01*
X111793532Y-77718000D01*
X112039868Y-77718000D01*
X112402501Y-77645868D01*
X112744093Y-77504376D01*
X113051518Y-77298961D01*
X113312961Y-77037518D01*
X113518376Y-76730093D01*
X113659868Y-76388501D01*
X113732000Y-76025868D01*
X113732000Y-75718000D01*
X113978000Y-75718000D01*
X113978000Y-76025868D01*
X114050132Y-76388501D01*
X114191624Y-76730093D01*
X114397039Y-77037518D01*
X114619001Y-77259480D01*
X114619001Y-78164158D01*
X114612319Y-78232000D01*
X114619001Y-78299843D01*
X114619547Y-78305387D01*
X114619547Y-78957000D01*
X114641307Y-79177931D01*
X114705750Y-79390371D01*
X114810400Y-79586157D01*
X114951235Y-79757765D01*
X115122843Y-79898600D01*
X115318629Y-80003250D01*
X115531069Y-80067693D01*
X115752000Y-80089453D01*
X116912000Y-80089453D01*
X117132931Y-80067693D01*
X117345371Y-80003250D01*
X117541157Y-79898600D01*
X117712765Y-79757765D01*
X117853600Y-79586157D01*
X117958250Y-79390371D01*
X118022693Y-79177931D01*
X118042029Y-78981608D01*
X118226550Y-79206450D01*
X118451453Y-79391022D01*
X118708042Y-79528172D01*
X118986457Y-79612629D01*
X119276000Y-79641146D01*
X119565542Y-79612629D01*
X119843957Y-79528172D01*
X120025564Y-79431101D01*
X120209042Y-79529172D01*
X120487457Y-79613629D01*
X120777000Y-79642146D01*
X121066542Y-79613629D01*
X121344957Y-79529172D01*
X121601546Y-79392022D01*
X121826450Y-79207450D01*
X122011022Y-78982547D01*
X122148172Y-78725958D01*
X122232629Y-78447543D01*
X122254000Y-78230556D01*
X122254000Y-77346437D01*
X122277683Y-77327000D01*
X124841000Y-77327000D01*
X124946470Y-77316658D01*
X125052179Y-77307038D01*
X125055974Y-77305921D01*
X125059902Y-77305536D01*
X125161357Y-77274905D01*
X125263182Y-77244936D01*
X125266686Y-77243104D01*
X125270466Y-77241963D01*
X125364075Y-77192190D01*
X125458104Y-77143033D01*
X125461184Y-77140557D01*
X125464672Y-77138702D01*
X125546822Y-77071703D01*
X125629521Y-77005211D01*
X125632063Y-77002182D01*
X125635123Y-76999686D01*
X125702677Y-76918027D01*
X125770903Y-76836718D01*
X125772808Y-76833252D01*
X125775325Y-76830210D01*
X125825730Y-76736988D01*
X125876866Y-76643973D01*
X125878062Y-76640204D01*
X125879940Y-76636730D01*
X125911301Y-76535420D01*
X125943372Y-76434316D01*
X125943812Y-76430390D01*
X125944981Y-76426615D01*
X125956073Y-76321083D01*
X125967890Y-76215735D01*
X125967943Y-76208153D01*
X125967973Y-76207868D01*
X125967947Y-76207582D01*
X125968000Y-76200000D01*
X125968000Y-74384206D01*
X126867685Y-74421889D01*
X126888839Y-74421008D01*
X126913118Y-74415497D01*
X126935855Y-74405355D01*
X126956176Y-74390973D01*
X126973301Y-74372902D01*
X126986572Y-74351837D01*
X126995478Y-74328588D01*
X126999677Y-74304048D01*
X127083109Y-73136000D01*
X127567167Y-73136000D01*
X127635000Y-73142681D01*
X127702833Y-73136000D01*
X127702843Y-73136000D01*
X127742520Y-73132092D01*
X127953207Y-73174000D01*
X128332793Y-73174000D01*
X128705085Y-73099947D01*
X129055777Y-72954685D01*
X129371391Y-72743799D01*
X129639799Y-72475391D01*
X129850685Y-72159777D01*
X129995947Y-71809085D01*
X130016060Y-71707968D01*
X130468545Y-71255484D01*
X130521239Y-71212239D01*
X130584062Y-71135690D01*
X130693815Y-71001955D01*
X130765171Y-70868458D01*
X130920765Y-70740765D01*
X131061600Y-70569157D01*
X131166250Y-70373371D01*
X131230693Y-70160931D01*
X131252453Y-69940000D01*
X131252453Y-68490000D01*
X131230693Y-68269069D01*
X131166250Y-68056629D01*
X131061600Y-67860843D01*
X130920765Y-67689235D01*
X130749157Y-67548400D01*
X130553371Y-67443750D01*
X130340931Y-67379307D01*
X130120000Y-67357547D01*
X128960000Y-67357547D01*
X128822453Y-67371094D01*
X128822453Y-65857000D01*
X128800693Y-65636069D01*
X128764270Y-65516000D01*
X129538143Y-65516000D01*
X129750694Y-65658022D01*
X130011301Y-65765969D01*
X130287960Y-65821000D01*
X130570040Y-65821000D01*
X130846699Y-65765969D01*
X131107306Y-65658022D01*
X131341847Y-65501307D01*
X131541307Y-65301847D01*
X131698022Y-65067306D01*
X131795491Y-64831996D01*
X132178308Y-64449179D01*
X132227120Y-64409120D01*
X132267179Y-64360308D01*
X132267184Y-64360303D01*
X132387012Y-64214291D01*
X132429394Y-64135000D01*
X132505823Y-63992012D01*
X132578986Y-63750826D01*
X132597500Y-63562849D01*
X132597500Y-63562838D01*
X132603689Y-63500000D01*
X132597500Y-63437162D01*
X132597500Y-61611023D01*
X132689250Y-61439371D01*
X132753693Y-61226931D01*
X132775453Y-61006000D01*
X132775453Y-60406000D01*
X132763240Y-60282000D01*
X132775453Y-60158000D01*
X132775453Y-59629064D01*
X132946863Y-59800474D01*
X133278855Y-60022304D01*
X133647746Y-60175104D01*
X134039358Y-60253000D01*
X134438642Y-60253000D01*
X134830254Y-60175104D01*
X135199145Y-60022304D01*
X135531137Y-59800474D01*
X135813474Y-59518137D01*
X136035304Y-59186145D01*
X136188104Y-58817254D01*
X136266000Y-58425642D01*
X136266000Y-58026358D01*
X136188104Y-57634746D01*
X136035304Y-57265855D01*
X135842613Y-56977472D01*
X135958976Y-56881976D01*
X136149797Y-56649460D01*
X136291590Y-56384185D01*
X136378905Y-56096344D01*
X136401000Y-55872011D01*
X136401000Y-54521989D01*
X136378905Y-54297656D01*
X136291590Y-54009815D01*
X136149797Y-53744540D01*
X135958976Y-53512024D01*
X135726460Y-53321203D01*
X135461185Y-53179410D01*
X135173344Y-53092095D01*
X134874000Y-53062612D01*
X134805951Y-53069314D01*
X134716307Y-52935153D01*
X134516847Y-52735693D01*
X134282306Y-52578978D01*
X134021699Y-52471031D01*
X133745040Y-52416000D01*
X133608028Y-52416000D01*
X134708901Y-51315127D01*
X134874000Y-51331388D01*
X135173343Y-51301905D01*
X135461184Y-51214590D01*
X135726459Y-51072797D01*
X135958976Y-50881976D01*
X136149797Y-50649460D01*
X136220080Y-50517970D01*
X136793701Y-52121135D01*
X137339104Y-54298503D01*
X137668459Y-56518836D01*
X137778599Y-58760771D01*
X137668459Y-61002706D01*
X137339104Y-63223039D01*
X136793701Y-65400407D01*
X136037508Y-67513828D01*
X135077803Y-69542953D01*
X133923826Y-71468248D01*
X132586703Y-73271148D01*
X131079296Y-74934315D01*
X129416129Y-76441722D01*
X127613229Y-77778845D01*
X125687934Y-78932822D01*
X123658809Y-79892527D01*
X121545388Y-80648720D01*
X119368020Y-81194123D01*
X117147687Y-81523478D01*
X114905752Y-81633618D01*
X112663817Y-81523478D01*
X110443484Y-81194123D01*
X108266116Y-80648720D01*
X106152695Y-79892527D01*
X104123570Y-78932822D01*
X102198275Y-77778845D01*
X100395375Y-76441722D01*
X98732208Y-74934315D01*
X97224801Y-73271148D01*
X95887678Y-71468248D01*
X94733701Y-69542953D01*
X93773996Y-67513828D01*
X93017803Y-65400407D01*
X92472400Y-63223039D01*
X92143045Y-61002706D01*
X92032905Y-58760771D01*
X92143045Y-56518836D01*
X92472400Y-54298503D01*
X93017803Y-52121135D01*
X93773996Y-50007714D01*
X94733701Y-47978589D01*
X95149069Y-47285590D01*
X97108079Y-47300101D01*
G37*
X97108079Y-47300101D02*
X98573154Y-48765176D01*
X98744762Y-48906011D01*
X98822000Y-48947296D01*
X98822000Y-49063181D01*
X95469091Y-52416091D01*
X95401858Y-52497941D01*
X95333880Y-52579532D01*
X95331987Y-52583004D01*
X95329481Y-52586055D01*
X95279411Y-52679436D01*
X95228591Y-52772646D01*
X95227408Y-52776420D01*
X95225543Y-52779899D01*
X95194551Y-52881268D01*
X95178767Y-52931637D01*
X94395669Y-53760799D01*
X94382403Y-53777443D01*
X94370667Y-53799399D01*
X94363440Y-53823224D01*
X94361000Y-53848000D01*
X94363440Y-53872776D01*
X94370667Y-53896601D01*
X94382403Y-53918557D01*
X94398197Y-53937803D01*
X96724915Y-56264521D01*
X93759680Y-59476858D01*
X93749433Y-59489496D01*
X93737083Y-59511113D01*
X93729188Y-59534725D01*
X93726050Y-59559422D01*
X93727792Y-59584258D01*
X93734345Y-59608276D01*
X95611804Y-64528514D01*
X95505739Y-64784577D01*
X95424000Y-65195509D01*
X95424000Y-65614491D01*
X95505739Y-66025423D01*
X95666077Y-66412512D01*
X95898851Y-66760884D01*
X96195116Y-67057149D01*
X96543488Y-67289923D01*
X96688405Y-67349950D01*
X96839308Y-67745419D01*
X96800512Y-67818000D01*
X96771049Y-67873122D01*
X96699197Y-68109988D01*
X96684820Y-68157381D01*
X96663000Y-68378923D01*
X96663000Y-68378930D01*
X96655705Y-68453000D01*
X96663000Y-68527070D01*
X96663000Y-69082442D01*
X96590315Y-69191223D01*
X96445053Y-69541915D01*
X96371000Y-69914207D01*
X96371000Y-70293793D01*
X96445053Y-70666085D01*
X96590315Y-71016777D01*
X96801201Y-71332391D01*
X97069609Y-71600799D01*
X97385223Y-71811685D01*
X97440591Y-71834619D01*
X99840547Y-74234576D01*
X99840547Y-74471000D01*
X99862307Y-74691931D01*
X99926750Y-74904371D01*
X100031400Y-75100157D01*
X100172235Y-75271765D01*
X100343843Y-75412600D01*
X100539629Y-75517250D01*
X100752069Y-75581693D01*
X100973000Y-75603453D01*
X101973000Y-75603453D01*
X101988788Y-75601898D01*
X101978000Y-75656132D01*
X101978000Y-76025868D01*
X102050132Y-76388501D01*
X102191624Y-76730093D01*
X102397039Y-77037518D01*
X102658482Y-77298961D01*
X102965907Y-77504376D01*
X103307499Y-77645868D01*
X103670132Y-77718000D01*
X104039868Y-77718000D01*
X104402501Y-77645868D01*
X104744093Y-77504376D01*
X104855000Y-77430270D01*
X104965907Y-77504376D01*
X105307499Y-77645868D01*
X105670132Y-77718000D01*
X106039868Y-77718000D01*
X106402501Y-77645868D01*
X106744093Y-77504376D01*
X106855000Y-77430270D01*
X106965907Y-77504376D01*
X107307499Y-77645868D01*
X107670132Y-77718000D01*
X108039868Y-77718000D01*
X108175848Y-77690952D01*
X108105000Y-78047132D01*
X108105000Y-78416868D01*
X108177132Y-78779501D01*
X108318624Y-79121093D01*
X108524039Y-79428518D01*
X108785482Y-79689961D01*
X109092907Y-79895376D01*
X109434499Y-80036868D01*
X109797132Y-80109000D01*
X110166868Y-80109000D01*
X110529501Y-80036868D01*
X110871093Y-79895376D01*
X111178518Y-79689961D01*
X111439961Y-79428518D01*
X111645376Y-79121093D01*
X111786868Y-78779501D01*
X111859000Y-78416868D01*
X111859000Y-78047132D01*
X111793532Y-77718000D01*
X112039868Y-77718000D01*
X112402501Y-77645868D01*
X112744093Y-77504376D01*
X113051518Y-77298961D01*
X113312961Y-77037518D01*
X113518376Y-76730093D01*
X113659868Y-76388501D01*
X113732000Y-76025868D01*
X113732000Y-75718000D01*
X113978000Y-75718000D01*
X113978000Y-76025868D01*
X114050132Y-76388501D01*
X114191624Y-76730093D01*
X114397039Y-77037518D01*
X114619001Y-77259480D01*
X114619001Y-78164158D01*
X114612319Y-78232000D01*
X114619001Y-78299843D01*
X114619547Y-78305387D01*
X114619547Y-78957000D01*
X114641307Y-79177931D01*
X114705750Y-79390371D01*
X114810400Y-79586157D01*
X114951235Y-79757765D01*
X115122843Y-79898600D01*
X115318629Y-80003250D01*
X115531069Y-80067693D01*
X115752000Y-80089453D01*
X116912000Y-80089453D01*
X117132931Y-80067693D01*
X117345371Y-80003250D01*
X117541157Y-79898600D01*
X117712765Y-79757765D01*
X117853600Y-79586157D01*
X117958250Y-79390371D01*
X118022693Y-79177931D01*
X118042029Y-78981608D01*
X118226550Y-79206450D01*
X118451453Y-79391022D01*
X118708042Y-79528172D01*
X118986457Y-79612629D01*
X119276000Y-79641146D01*
X119565542Y-79612629D01*
X119843957Y-79528172D01*
X120025564Y-79431101D01*
X120209042Y-79529172D01*
X120487457Y-79613629D01*
X120777000Y-79642146D01*
X121066542Y-79613629D01*
X121344957Y-79529172D01*
X121601546Y-79392022D01*
X121826450Y-79207450D01*
X122011022Y-78982547D01*
X122148172Y-78725958D01*
X122232629Y-78447543D01*
X122254000Y-78230556D01*
X122254000Y-77346437D01*
X122277683Y-77327000D01*
X124841000Y-77327000D01*
X124946470Y-77316658D01*
X125052179Y-77307038D01*
X125055974Y-77305921D01*
X125059902Y-77305536D01*
X125161357Y-77274905D01*
X125263182Y-77244936D01*
X125266686Y-77243104D01*
X125270466Y-77241963D01*
X125364075Y-77192190D01*
X125458104Y-77143033D01*
X125461184Y-77140557D01*
X125464672Y-77138702D01*
X125546822Y-77071703D01*
X125629521Y-77005211D01*
X125632063Y-77002182D01*
X125635123Y-76999686D01*
X125702677Y-76918027D01*
X125770903Y-76836718D01*
X125772808Y-76833252D01*
X125775325Y-76830210D01*
X125825730Y-76736988D01*
X125876866Y-76643973D01*
X125878062Y-76640204D01*
X125879940Y-76636730D01*
X125911301Y-76535420D01*
X125943372Y-76434316D01*
X125943812Y-76430390D01*
X125944981Y-76426615D01*
X125956073Y-76321083D01*
X125967890Y-76215735D01*
X125967943Y-76208153D01*
X125967973Y-76207868D01*
X125967947Y-76207582D01*
X125968000Y-76200000D01*
X125968000Y-74384206D01*
X126867685Y-74421889D01*
X126888839Y-74421008D01*
X126913118Y-74415497D01*
X126935855Y-74405355D01*
X126956176Y-74390973D01*
X126973301Y-74372902D01*
X126986572Y-74351837D01*
X126995478Y-74328588D01*
X126999677Y-74304048D01*
X127083109Y-73136000D01*
X127567167Y-73136000D01*
X127635000Y-73142681D01*
X127702833Y-73136000D01*
X127702843Y-73136000D01*
X127742520Y-73132092D01*
X127953207Y-73174000D01*
X128332793Y-73174000D01*
X128705085Y-73099947D01*
X129055777Y-72954685D01*
X129371391Y-72743799D01*
X129639799Y-72475391D01*
X129850685Y-72159777D01*
X129995947Y-71809085D01*
X130016060Y-71707968D01*
X130468545Y-71255484D01*
X130521239Y-71212239D01*
X130584062Y-71135690D01*
X130693815Y-71001955D01*
X130765171Y-70868458D01*
X130920765Y-70740765D01*
X131061600Y-70569157D01*
X131166250Y-70373371D01*
X131230693Y-70160931D01*
X131252453Y-69940000D01*
X131252453Y-68490000D01*
X131230693Y-68269069D01*
X131166250Y-68056629D01*
X131061600Y-67860843D01*
X130920765Y-67689235D01*
X130749157Y-67548400D01*
X130553371Y-67443750D01*
X130340931Y-67379307D01*
X130120000Y-67357547D01*
X128960000Y-67357547D01*
X128822453Y-67371094D01*
X128822453Y-65857000D01*
X128800693Y-65636069D01*
X128764270Y-65516000D01*
X129538143Y-65516000D01*
X129750694Y-65658022D01*
X130011301Y-65765969D01*
X130287960Y-65821000D01*
X130570040Y-65821000D01*
X130846699Y-65765969D01*
X131107306Y-65658022D01*
X131341847Y-65501307D01*
X131541307Y-65301847D01*
X131698022Y-65067306D01*
X131795491Y-64831996D01*
X132178308Y-64449179D01*
X132227120Y-64409120D01*
X132267179Y-64360308D01*
X132267184Y-64360303D01*
X132387012Y-64214291D01*
X132429394Y-64135000D01*
X132505823Y-63992012D01*
X132578986Y-63750826D01*
X132597500Y-63562849D01*
X132597500Y-63562838D01*
X132603689Y-63500000D01*
X132597500Y-63437162D01*
X132597500Y-61611023D01*
X132689250Y-61439371D01*
X132753693Y-61226931D01*
X132775453Y-61006000D01*
X132775453Y-60406000D01*
X132763240Y-60282000D01*
X132775453Y-60158000D01*
X132775453Y-59629064D01*
X132946863Y-59800474D01*
X133278855Y-60022304D01*
X133647746Y-60175104D01*
X134039358Y-60253000D01*
X134438642Y-60253000D01*
X134830254Y-60175104D01*
X135199145Y-60022304D01*
X135531137Y-59800474D01*
X135813474Y-59518137D01*
X136035304Y-59186145D01*
X136188104Y-58817254D01*
X136266000Y-58425642D01*
X136266000Y-58026358D01*
X136188104Y-57634746D01*
X136035304Y-57265855D01*
X135842613Y-56977472D01*
X135958976Y-56881976D01*
X136149797Y-56649460D01*
X136291590Y-56384185D01*
X136378905Y-56096344D01*
X136401000Y-55872011D01*
X136401000Y-54521989D01*
X136378905Y-54297656D01*
X136291590Y-54009815D01*
X136149797Y-53744540D01*
X135958976Y-53512024D01*
X135726460Y-53321203D01*
X135461185Y-53179410D01*
X135173344Y-53092095D01*
X134874000Y-53062612D01*
X134805951Y-53069314D01*
X134716307Y-52935153D01*
X134516847Y-52735693D01*
X134282306Y-52578978D01*
X134021699Y-52471031D01*
X133745040Y-52416000D01*
X133608028Y-52416000D01*
X134708901Y-51315127D01*
X134874000Y-51331388D01*
X135173343Y-51301905D01*
X135461184Y-51214590D01*
X135726459Y-51072797D01*
X135958976Y-50881976D01*
X136149797Y-50649460D01*
X136220080Y-50517970D01*
X136793701Y-52121135D01*
X137339104Y-54298503D01*
X137668459Y-56518836D01*
X137778599Y-58760771D01*
X137668459Y-61002706D01*
X137339104Y-63223039D01*
X136793701Y-65400407D01*
X136037508Y-67513828D01*
X135077803Y-69542953D01*
X133923826Y-71468248D01*
X132586703Y-73271148D01*
X131079296Y-74934315D01*
X129416129Y-76441722D01*
X127613229Y-77778845D01*
X125687934Y-78932822D01*
X123658809Y-79892527D01*
X121545388Y-80648720D01*
X119368020Y-81194123D01*
X117147687Y-81523478D01*
X114905752Y-81633618D01*
X112663817Y-81523478D01*
X110443484Y-81194123D01*
X108266116Y-80648720D01*
X106152695Y-79892527D01*
X104123570Y-78932822D01*
X102198275Y-77778845D01*
X100395375Y-76441722D01*
X98732208Y-74934315D01*
X97224801Y-73271148D01*
X95887678Y-71468248D01*
X94733701Y-69542953D01*
X93773996Y-67513828D01*
X93017803Y-65400407D01*
X92472400Y-63223039D01*
X92143045Y-61002706D01*
X92032905Y-58760771D01*
X92143045Y-56518836D01*
X92472400Y-54298503D01*
X93017803Y-52121135D01*
X93773996Y-50007714D01*
X94733701Y-47978589D01*
X95149069Y-47285590D01*
X97108079Y-47300101D01*
M02*
