%TF.GenerationSoftware,KiCad,Pcbnew,no-vcs-found-835c19f~60~ubuntu16.04.1*%
%TF.CreationDate,2017-10-10T15:28:50+03:00*%
%TF.ProjectId,rpi_zero,7270695F7A65726F2E6B696361645F70,rev?*%
%TF.SameCoordinates,Original*%
%TF.FileFunction,Legend,Bot*%
%TF.FilePolarity,Positive*%
%FSLAX46Y46*%
G04 Gerber Fmt 4.6, Leading zero omitted, Abs format (unit mm)*
G04 Created by KiCad (PCBNEW no-vcs-found-835c19f~60~ubuntu16.04.1) date Tue Oct 10 15:28:50 2017*
%MOMM*%
%LPD*%
G01*
G04 APERTURE LIST*
%ADD10C,0.120000*%
%ADD11O,1.200000X2.200000*%
%ADD12C,3.200000*%
%ADD13O,1.700000X1.700000*%
%ADD14R,1.700000X1.700000*%
%ADD15R,1.500000X1.250000*%
%ADD16R,0.900000X1.500000*%
%ADD17O,0.900000X1.500000*%
%ADD18R,1.350000X1.350000*%
%ADD19R,0.900000X1.200000*%
G04 APERTURE END LIST*
D10*
%TO.C,C7*%
X122511880Y-87409420D02*
X121511880Y-87409420D01*
X121511880Y-85709420D02*
X122511880Y-85709420D01*
%TO.C,R12*%
X120531880Y-99659420D02*
X120531880Y-100659420D01*
X121891880Y-100659420D02*
X121891880Y-99659420D01*
%TO.C,R13*%
X127191880Y-103159420D02*
X127191880Y-102159420D01*
X125831880Y-102159420D02*
X125831880Y-103159420D01*
%TO.C,C7*%
X125245213Y-86745134D02*
X125283308Y-86783229D01*
X125397594Y-86821324D01*
X125473784Y-86821324D01*
X125588070Y-86783229D01*
X125664260Y-86707039D01*
X125702356Y-86630848D01*
X125740451Y-86478467D01*
X125740451Y-86364181D01*
X125702356Y-86211800D01*
X125664260Y-86135610D01*
X125588070Y-86059420D01*
X125473784Y-86021324D01*
X125397594Y-86021324D01*
X125283308Y-86059420D01*
X125245213Y-86097515D01*
X124978546Y-86021324D02*
X124445213Y-86021324D01*
X124788070Y-86821324D01*
%TO.C,R12*%
X120123784Y-99645134D02*
X119742832Y-99378467D01*
X120123784Y-99187991D02*
X119323784Y-99187991D01*
X119323784Y-99492753D01*
X119361880Y-99568943D01*
X119399975Y-99607039D01*
X119476165Y-99645134D01*
X119590451Y-99645134D01*
X119666641Y-99607039D01*
X119704737Y-99568943D01*
X119742832Y-99492753D01*
X119742832Y-99187991D01*
X120123784Y-100407039D02*
X120123784Y-99949896D01*
X120123784Y-100178467D02*
X119323784Y-100178467D01*
X119438070Y-100102277D01*
X119514260Y-100026086D01*
X119552356Y-99949896D01*
X119399975Y-100711800D02*
X119361880Y-100749896D01*
X119323784Y-100826086D01*
X119323784Y-101016562D01*
X119361880Y-101092753D01*
X119399975Y-101130848D01*
X119476165Y-101168943D01*
X119552356Y-101168943D01*
X119666641Y-101130848D01*
X120123784Y-100673705D01*
X120123784Y-101168943D01*
%TO.C,R13*%
X128373784Y-101945134D02*
X127992832Y-101678467D01*
X128373784Y-101487991D02*
X127573784Y-101487991D01*
X127573784Y-101792753D01*
X127611880Y-101868943D01*
X127649975Y-101907039D01*
X127726165Y-101945134D01*
X127840451Y-101945134D01*
X127916641Y-101907039D01*
X127954737Y-101868943D01*
X127992832Y-101792753D01*
X127992832Y-101487991D01*
X128373784Y-102707039D02*
X128373784Y-102249896D01*
X128373784Y-102478467D02*
X127573784Y-102478467D01*
X127688070Y-102402277D01*
X127764260Y-102326086D01*
X127802356Y-102249896D01*
X127573784Y-102973705D02*
X127573784Y-103468943D01*
X127878546Y-103202277D01*
X127878546Y-103316562D01*
X127916641Y-103392753D01*
X127954737Y-103430848D01*
X128030927Y-103468943D01*
X128221403Y-103468943D01*
X128297594Y-103430848D01*
X128335689Y-103392753D01*
X128373784Y-103316562D01*
X128373784Y-103087991D01*
X128335689Y-103011800D01*
X128297594Y-102973705D01*
%TD*%
%LPC*%
D11*
%TO.C,BAR1*%
X171411880Y-94979420D03*
X168871880Y-94979420D03*
X166331880Y-94979420D03*
X163791880Y-94979420D03*
X151091880Y-87359420D03*
X148551880Y-87359420D03*
X148551880Y-94979420D03*
X151091880Y-94979420D03*
X153631880Y-87359420D03*
X156171880Y-87359420D03*
X158711880Y-87359420D03*
X161251880Y-87359420D03*
X161251880Y-94979420D03*
X158711880Y-94979420D03*
X156171880Y-94979420D03*
X153631880Y-94979420D03*
X163791880Y-87359420D03*
X166331880Y-87359420D03*
X168871880Y-87359420D03*
X171411880Y-87359420D03*
%TD*%
D12*
%TO.C,REF\002A\002A*%
X112711880Y-82659420D03*
%TD*%
%TO.C,REF\002A\002A*%
X112711880Y-106359420D03*
%TD*%
%TO.C,REF\002A\002A*%
X171311880Y-106359420D03*
%TD*%
%TO.C,REF\002A\002A*%
X171311880Y-82659420D03*
%TD*%
D13*
%TO.C,J1*%
X166171880Y-81719420D03*
X166171880Y-84259420D03*
X163631880Y-81719420D03*
X163631880Y-84259420D03*
X161091880Y-81719420D03*
X161091880Y-84259420D03*
X158551880Y-81719420D03*
X158551880Y-84259420D03*
X156011880Y-81719420D03*
X156011880Y-84259420D03*
X153471880Y-81719420D03*
X153471880Y-84259420D03*
X150931880Y-81719420D03*
X150931880Y-84259420D03*
X148391880Y-81719420D03*
X148391880Y-84259420D03*
X145851880Y-81719420D03*
X145851880Y-84259420D03*
X143311880Y-81719420D03*
X143311880Y-84259420D03*
X140771880Y-81719420D03*
X140771880Y-84259420D03*
X138231880Y-81719420D03*
X138231880Y-84259420D03*
X135691880Y-81719420D03*
X135691880Y-84259420D03*
X133151880Y-81719420D03*
X133151880Y-84259420D03*
X130611880Y-81719420D03*
X130611880Y-84259420D03*
X128071880Y-81719420D03*
X128071880Y-84259420D03*
X125531880Y-81719420D03*
X125531880Y-84259420D03*
X122991880Y-81719420D03*
X122991880Y-84259420D03*
X120451880Y-81719420D03*
X120451880Y-84259420D03*
X117911880Y-81719420D03*
D14*
X117911880Y-84259420D03*
%TD*%
D15*
%TO.C,C7*%
X120761880Y-86559420D03*
X123261880Y-86559420D03*
%TD*%
D16*
%TO.C,U3*%
X120711880Y-88359420D03*
D17*
X123251880Y-88359420D03*
X121981880Y-88359420D03*
%TD*%
D18*
%TO.C,J2*%
X142911880Y-91659420D03*
%TD*%
D13*
%TO.C,J3*%
X123711880Y-99039420D03*
X123711880Y-101579420D03*
X123711880Y-104119420D03*
D14*
X123711880Y-106659420D03*
%TD*%
D19*
%TO.C,R12*%
X121211880Y-101259420D03*
X121211880Y-99059420D03*
%TD*%
%TO.C,R13*%
X126511880Y-101559420D03*
X126511880Y-103759420D03*
%TD*%
M02*
