%TF.GenerationSoftware,KiCad,Pcbnew,no-vcs-found-47f37ef~60~ubuntu16.04.1*%
%TF.CreationDate,2017-10-11T09:36:54+03:00*%
%TF.ProjectId,rpi_zero,7270695F7A65726F2E6B696361645F70,rev?*%
%TF.SameCoordinates,Original*%
%TF.FileFunction,Legend,Bot*%
%TF.FilePolarity,Positive*%
%FSLAX46Y46*%
G04 Gerber Fmt 4.6, Leading zero omitted, Abs format (unit mm)*
G04 Created by KiCad (PCBNEW no-vcs-found-47f37ef~60~ubuntu16.04.1) date Wed Oct 11 09:36:54 2017*
%MOMM*%
%LPD*%
G01*
G04 APERTURE LIST*
%ADD10C,0.120000*%
%ADD11O,1.200000X2.200000*%
%ADD12C,3.200000*%
%ADD13O,1.700000X1.700000*%
%ADD14R,1.700000X1.700000*%
%ADD15R,0.900000X1.200000*%
%ADD16R,1.500000X1.250000*%
%ADD17R,0.900000X1.500000*%
%ADD18O,0.900000X1.500000*%
%ADD19R,1.350000X1.350000*%
G04 APERTURE END LIST*
D10*
X145731880Y-97759420D02*
X145731880Y-98759420D01*
X147091880Y-98759420D02*
X147091880Y-97759420D01*
X149491880Y-98759420D02*
X149491880Y-97759420D01*
X148131880Y-97759420D02*
X148131880Y-98759420D01*
X150731880Y-97759420D02*
X150731880Y-98759420D01*
X152091880Y-98759420D02*
X152091880Y-97759420D01*
X154691880Y-98759420D02*
X154691880Y-97759420D01*
X153331880Y-97759420D02*
X153331880Y-98759420D01*
X155731880Y-97759420D02*
X155731880Y-98759420D01*
X157091880Y-98759420D02*
X157091880Y-97759420D01*
X159691880Y-98759420D02*
X159691880Y-97759420D01*
X158331880Y-97759420D02*
X158331880Y-98759420D01*
X160731880Y-97759420D02*
X160731880Y-98759420D01*
X162091880Y-98759420D02*
X162091880Y-97759420D01*
X164691880Y-98759420D02*
X164691880Y-97759420D01*
X163331880Y-97759420D02*
X163331880Y-98759420D01*
X165931880Y-97759420D02*
X165931880Y-98759420D01*
X167291880Y-98759420D02*
X167291880Y-97759420D01*
X169891880Y-98759420D02*
X169891880Y-97759420D01*
X168531880Y-97759420D02*
X168531880Y-98759420D01*
X122511880Y-87409420D02*
X121511880Y-87409420D01*
X121511880Y-85709420D02*
X122511880Y-85709420D01*
X120531880Y-99659420D02*
X120531880Y-100659420D01*
X121891880Y-100659420D02*
X121891880Y-99659420D01*
X127191880Y-103159420D02*
X127191880Y-102159420D01*
X125831880Y-102159420D02*
X125831880Y-103159420D01*
X170591880Y-91559420D02*
X170591880Y-90559420D01*
X169231880Y-90559420D02*
X169231880Y-91559420D01*
X146445213Y-101121324D02*
X146711880Y-100740372D01*
X146902356Y-101121324D02*
X146902356Y-100321324D01*
X146597594Y-100321324D01*
X146521403Y-100359420D01*
X146483308Y-100397515D01*
X146445213Y-100473705D01*
X146445213Y-100587991D01*
X146483308Y-100664181D01*
X146521403Y-100702277D01*
X146597594Y-100740372D01*
X146902356Y-100740372D01*
X145683308Y-101121324D02*
X146140451Y-101121324D01*
X145911880Y-101121324D02*
X145911880Y-100321324D01*
X145988070Y-100435610D01*
X146064260Y-100511800D01*
X146140451Y-100549896D01*
X148845213Y-101121324D02*
X149111880Y-100740372D01*
X149302356Y-101121324D02*
X149302356Y-100321324D01*
X148997594Y-100321324D01*
X148921403Y-100359420D01*
X148883308Y-100397515D01*
X148845213Y-100473705D01*
X148845213Y-100587991D01*
X148883308Y-100664181D01*
X148921403Y-100702277D01*
X148997594Y-100740372D01*
X149302356Y-100740372D01*
X148540451Y-100397515D02*
X148502356Y-100359420D01*
X148426165Y-100321324D01*
X148235689Y-100321324D01*
X148159499Y-100359420D01*
X148121403Y-100397515D01*
X148083308Y-100473705D01*
X148083308Y-100549896D01*
X148121403Y-100664181D01*
X148578546Y-101121324D01*
X148083308Y-101121324D01*
X151445213Y-101121324D02*
X151711880Y-100740372D01*
X151902356Y-101121324D02*
X151902356Y-100321324D01*
X151597594Y-100321324D01*
X151521403Y-100359420D01*
X151483308Y-100397515D01*
X151445213Y-100473705D01*
X151445213Y-100587991D01*
X151483308Y-100664181D01*
X151521403Y-100702277D01*
X151597594Y-100740372D01*
X151902356Y-100740372D01*
X151178546Y-100321324D02*
X150683308Y-100321324D01*
X150949975Y-100626086D01*
X150835689Y-100626086D01*
X150759499Y-100664181D01*
X150721403Y-100702277D01*
X150683308Y-100778467D01*
X150683308Y-100968943D01*
X150721403Y-101045134D01*
X150759499Y-101083229D01*
X150835689Y-101121324D01*
X151064260Y-101121324D01*
X151140451Y-101083229D01*
X151178546Y-101045134D01*
X154045213Y-101121324D02*
X154311880Y-100740372D01*
X154502356Y-101121324D02*
X154502356Y-100321324D01*
X154197594Y-100321324D01*
X154121403Y-100359420D01*
X154083308Y-100397515D01*
X154045213Y-100473705D01*
X154045213Y-100587991D01*
X154083308Y-100664181D01*
X154121403Y-100702277D01*
X154197594Y-100740372D01*
X154502356Y-100740372D01*
X153359499Y-100587991D02*
X153359499Y-101121324D01*
X153549975Y-100283229D02*
X153740451Y-100854658D01*
X153245213Y-100854658D01*
X156445213Y-101121324D02*
X156711880Y-100740372D01*
X156902356Y-101121324D02*
X156902356Y-100321324D01*
X156597594Y-100321324D01*
X156521403Y-100359420D01*
X156483308Y-100397515D01*
X156445213Y-100473705D01*
X156445213Y-100587991D01*
X156483308Y-100664181D01*
X156521403Y-100702277D01*
X156597594Y-100740372D01*
X156902356Y-100740372D01*
X155721403Y-100321324D02*
X156102356Y-100321324D01*
X156140451Y-100702277D01*
X156102356Y-100664181D01*
X156026165Y-100626086D01*
X155835689Y-100626086D01*
X155759499Y-100664181D01*
X155721403Y-100702277D01*
X155683308Y-100778467D01*
X155683308Y-100968943D01*
X155721403Y-101045134D01*
X155759499Y-101083229D01*
X155835689Y-101121324D01*
X156026165Y-101121324D01*
X156102356Y-101083229D01*
X156140451Y-101045134D01*
X159045213Y-101121324D02*
X159311880Y-100740372D01*
X159502356Y-101121324D02*
X159502356Y-100321324D01*
X159197594Y-100321324D01*
X159121403Y-100359420D01*
X159083308Y-100397515D01*
X159045213Y-100473705D01*
X159045213Y-100587991D01*
X159083308Y-100664181D01*
X159121403Y-100702277D01*
X159197594Y-100740372D01*
X159502356Y-100740372D01*
X158359499Y-100321324D02*
X158511880Y-100321324D01*
X158588070Y-100359420D01*
X158626165Y-100397515D01*
X158702356Y-100511800D01*
X158740451Y-100664181D01*
X158740451Y-100968943D01*
X158702356Y-101045134D01*
X158664260Y-101083229D01*
X158588070Y-101121324D01*
X158435689Y-101121324D01*
X158359499Y-101083229D01*
X158321403Y-101045134D01*
X158283308Y-100968943D01*
X158283308Y-100778467D01*
X158321403Y-100702277D01*
X158359499Y-100664181D01*
X158435689Y-100626086D01*
X158588070Y-100626086D01*
X158664260Y-100664181D01*
X158702356Y-100702277D01*
X158740451Y-100778467D01*
X161445213Y-101121324D02*
X161711880Y-100740372D01*
X161902356Y-101121324D02*
X161902356Y-100321324D01*
X161597594Y-100321324D01*
X161521403Y-100359420D01*
X161483308Y-100397515D01*
X161445213Y-100473705D01*
X161445213Y-100587991D01*
X161483308Y-100664181D01*
X161521403Y-100702277D01*
X161597594Y-100740372D01*
X161902356Y-100740372D01*
X161178546Y-100321324D02*
X160645213Y-100321324D01*
X160988070Y-101121324D01*
X163945213Y-101121324D02*
X164211880Y-100740372D01*
X164402356Y-101121324D02*
X164402356Y-100321324D01*
X164097594Y-100321324D01*
X164021403Y-100359420D01*
X163983308Y-100397515D01*
X163945213Y-100473705D01*
X163945213Y-100587991D01*
X163983308Y-100664181D01*
X164021403Y-100702277D01*
X164097594Y-100740372D01*
X164402356Y-100740372D01*
X163488070Y-100664181D02*
X163564260Y-100626086D01*
X163602356Y-100587991D01*
X163640451Y-100511800D01*
X163640451Y-100473705D01*
X163602356Y-100397515D01*
X163564260Y-100359420D01*
X163488070Y-100321324D01*
X163335689Y-100321324D01*
X163259499Y-100359420D01*
X163221403Y-100397515D01*
X163183308Y-100473705D01*
X163183308Y-100511800D01*
X163221403Y-100587991D01*
X163259499Y-100626086D01*
X163335689Y-100664181D01*
X163488070Y-100664181D01*
X163564260Y-100702277D01*
X163602356Y-100740372D01*
X163640451Y-100816562D01*
X163640451Y-100968943D01*
X163602356Y-101045134D01*
X163564260Y-101083229D01*
X163488070Y-101121324D01*
X163335689Y-101121324D01*
X163259499Y-101083229D01*
X163221403Y-101045134D01*
X163183308Y-100968943D01*
X163183308Y-100816562D01*
X163221403Y-100740372D01*
X163259499Y-100702277D01*
X163335689Y-100664181D01*
X166645213Y-101121324D02*
X166911880Y-100740372D01*
X167102356Y-101121324D02*
X167102356Y-100321324D01*
X166797594Y-100321324D01*
X166721403Y-100359420D01*
X166683308Y-100397515D01*
X166645213Y-100473705D01*
X166645213Y-100587991D01*
X166683308Y-100664181D01*
X166721403Y-100702277D01*
X166797594Y-100740372D01*
X167102356Y-100740372D01*
X166264260Y-101121324D02*
X166111880Y-101121324D01*
X166035689Y-101083229D01*
X165997594Y-101045134D01*
X165921403Y-100930848D01*
X165883308Y-100778467D01*
X165883308Y-100473705D01*
X165921403Y-100397515D01*
X165959499Y-100359420D01*
X166035689Y-100321324D01*
X166188070Y-100321324D01*
X166264260Y-100359420D01*
X166302356Y-100397515D01*
X166340451Y-100473705D01*
X166340451Y-100664181D01*
X166302356Y-100740372D01*
X166264260Y-100778467D01*
X166188070Y-100816562D01*
X166035689Y-100816562D01*
X165959499Y-100778467D01*
X165921403Y-100740372D01*
X165883308Y-100664181D01*
X169626165Y-101121324D02*
X169892832Y-100740372D01*
X170083308Y-101121324D02*
X170083308Y-100321324D01*
X169778546Y-100321324D01*
X169702356Y-100359420D01*
X169664260Y-100397515D01*
X169626165Y-100473705D01*
X169626165Y-100587991D01*
X169664260Y-100664181D01*
X169702356Y-100702277D01*
X169778546Y-100740372D01*
X170083308Y-100740372D01*
X168864260Y-101121324D02*
X169321403Y-101121324D01*
X169092832Y-101121324D02*
X169092832Y-100321324D01*
X169169022Y-100435610D01*
X169245213Y-100511800D01*
X169321403Y-100549896D01*
X168369022Y-100321324D02*
X168292832Y-100321324D01*
X168216641Y-100359420D01*
X168178546Y-100397515D01*
X168140451Y-100473705D01*
X168102356Y-100626086D01*
X168102356Y-100816562D01*
X168140451Y-100968943D01*
X168178546Y-101045134D01*
X168216641Y-101083229D01*
X168292832Y-101121324D01*
X168369022Y-101121324D01*
X168445213Y-101083229D01*
X168483308Y-101045134D01*
X168521403Y-100968943D01*
X168559499Y-100816562D01*
X168559499Y-100626086D01*
X168521403Y-100473705D01*
X168483308Y-100397515D01*
X168445213Y-100359420D01*
X168369022Y-100321324D01*
X125245213Y-86745134D02*
X125283308Y-86783229D01*
X125397594Y-86821324D01*
X125473784Y-86821324D01*
X125588070Y-86783229D01*
X125664260Y-86707039D01*
X125702356Y-86630848D01*
X125740451Y-86478467D01*
X125740451Y-86364181D01*
X125702356Y-86211800D01*
X125664260Y-86135610D01*
X125588070Y-86059420D01*
X125473784Y-86021324D01*
X125397594Y-86021324D01*
X125283308Y-86059420D01*
X125245213Y-86097515D01*
X124978546Y-86021324D02*
X124445213Y-86021324D01*
X124788070Y-86821324D01*
X120123784Y-99645134D02*
X119742832Y-99378467D01*
X120123784Y-99187991D02*
X119323784Y-99187991D01*
X119323784Y-99492753D01*
X119361880Y-99568943D01*
X119399975Y-99607039D01*
X119476165Y-99645134D01*
X119590451Y-99645134D01*
X119666641Y-99607039D01*
X119704737Y-99568943D01*
X119742832Y-99492753D01*
X119742832Y-99187991D01*
X120123784Y-100407039D02*
X120123784Y-99949896D01*
X120123784Y-100178467D02*
X119323784Y-100178467D01*
X119438070Y-100102277D01*
X119514260Y-100026086D01*
X119552356Y-99949896D01*
X119399975Y-100711800D02*
X119361880Y-100749896D01*
X119323784Y-100826086D01*
X119323784Y-101016562D01*
X119361880Y-101092753D01*
X119399975Y-101130848D01*
X119476165Y-101168943D01*
X119552356Y-101168943D01*
X119666641Y-101130848D01*
X120123784Y-100673705D01*
X120123784Y-101168943D01*
X128373784Y-101945134D02*
X127992832Y-101678467D01*
X128373784Y-101487991D02*
X127573784Y-101487991D01*
X127573784Y-101792753D01*
X127611880Y-101868943D01*
X127649975Y-101907039D01*
X127726165Y-101945134D01*
X127840451Y-101945134D01*
X127916641Y-101907039D01*
X127954737Y-101868943D01*
X127992832Y-101792753D01*
X127992832Y-101487991D01*
X128373784Y-102707039D02*
X128373784Y-102249896D01*
X128373784Y-102478467D02*
X127573784Y-102478467D01*
X127688070Y-102402277D01*
X127764260Y-102326086D01*
X127802356Y-102249896D01*
X127573784Y-102973705D02*
X127573784Y-103468943D01*
X127878546Y-103202277D01*
X127878546Y-103316562D01*
X127916641Y-103392753D01*
X127954737Y-103430848D01*
X128030927Y-103468943D01*
X128221403Y-103468943D01*
X128297594Y-103430848D01*
X128335689Y-103392753D01*
X128373784Y-103316562D01*
X128373784Y-103087991D01*
X128335689Y-103011800D01*
X128297594Y-102973705D01*
X171723784Y-90545134D02*
X171342832Y-90278467D01*
X171723784Y-90087991D02*
X170923784Y-90087991D01*
X170923784Y-90392753D01*
X170961880Y-90468943D01*
X170999975Y-90507039D01*
X171076165Y-90545134D01*
X171190451Y-90545134D01*
X171266641Y-90507039D01*
X171304737Y-90468943D01*
X171342832Y-90392753D01*
X171342832Y-90087991D01*
X171723784Y-91307039D02*
X171723784Y-90849896D01*
X171723784Y-91078467D02*
X170923784Y-91078467D01*
X171038070Y-91002277D01*
X171114260Y-90926086D01*
X171152356Y-90849896D01*
X171190451Y-91992753D02*
X171723784Y-91992753D01*
X170885689Y-91802277D02*
X171457118Y-91611800D01*
X171457118Y-92107039D01*
%LPC*%
D11*
X169211880Y-94979420D03*
X166671880Y-94979420D03*
X164131880Y-94979420D03*
X161591880Y-94979420D03*
X148891880Y-87359420D03*
X146351880Y-87359420D03*
X146351880Y-94979420D03*
X148891880Y-94979420D03*
X151431880Y-87359420D03*
X153971880Y-87359420D03*
X156511880Y-87359420D03*
X159051880Y-87359420D03*
X159051880Y-94979420D03*
X156511880Y-94979420D03*
X153971880Y-94979420D03*
X151431880Y-94979420D03*
X161591880Y-87359420D03*
X164131880Y-87359420D03*
X166671880Y-87359420D03*
X169211880Y-87359420D03*
D12*
X112711880Y-82659420D03*
X112711880Y-106359420D03*
X171311880Y-106359420D03*
X171311880Y-82659420D03*
D13*
X166171880Y-81719420D03*
X166171880Y-84259420D03*
X163631880Y-81719420D03*
X163631880Y-84259420D03*
X161091880Y-81719420D03*
X161091880Y-84259420D03*
X158551880Y-81719420D03*
X158551880Y-84259420D03*
X156011880Y-81719420D03*
X156011880Y-84259420D03*
X153471880Y-81719420D03*
X153471880Y-84259420D03*
X150931880Y-81719420D03*
X150931880Y-84259420D03*
X148391880Y-81719420D03*
X148391880Y-84259420D03*
X145851880Y-81719420D03*
X145851880Y-84259420D03*
X143311880Y-81719420D03*
X143311880Y-84259420D03*
X140771880Y-81719420D03*
X140771880Y-84259420D03*
X138231880Y-81719420D03*
X138231880Y-84259420D03*
X135691880Y-81719420D03*
X135691880Y-84259420D03*
X133151880Y-81719420D03*
X133151880Y-84259420D03*
X130611880Y-81719420D03*
X130611880Y-84259420D03*
X128071880Y-81719420D03*
X128071880Y-84259420D03*
X125531880Y-81719420D03*
X125531880Y-84259420D03*
X122991880Y-81719420D03*
X122991880Y-84259420D03*
X120451880Y-81719420D03*
X120451880Y-84259420D03*
X117911880Y-81719420D03*
D14*
X117911880Y-84259420D03*
D15*
X146411880Y-99359420D03*
X146411880Y-97159420D03*
X148811880Y-97159420D03*
X148811880Y-99359420D03*
X151411880Y-99359420D03*
X151411880Y-97159420D03*
X154011880Y-97159420D03*
X154011880Y-99359420D03*
X156411880Y-99359420D03*
X156411880Y-97159420D03*
X159011880Y-97159420D03*
X159011880Y-99359420D03*
X161411880Y-99359420D03*
X161411880Y-97159420D03*
X164011880Y-97159420D03*
X164011880Y-99359420D03*
X166611880Y-99359420D03*
X166611880Y-97159420D03*
X169211880Y-97159420D03*
X169211880Y-99359420D03*
D16*
X120761880Y-86559420D03*
X123261880Y-86559420D03*
D17*
X120711880Y-88359420D03*
D18*
X123251880Y-88359420D03*
X121981880Y-88359420D03*
D19*
X142911880Y-91659420D03*
D13*
X123711880Y-99039420D03*
X123711880Y-101579420D03*
X123711880Y-104119420D03*
D14*
X123711880Y-106659420D03*
D15*
X121211880Y-101259420D03*
X121211880Y-99059420D03*
X126511880Y-101559420D03*
X126511880Y-103759420D03*
X169911880Y-89959420D03*
X169911880Y-92159420D03*
M02*
