M48
;DRILL file {KiCad no-vcs-found-835c19f~60~ubuntu16.04.1} date Tue Oct 10 15:28:52 2017
;FORMAT={-:-/ absolute / metric / decimal}
FMAT,2
METRIC,TZ
T1C0.300
T2C0.600
T3C0.800
T4C0.914
T5C1.000
%
G90
G05
M71
T1
X128.312Y-105.259
X130.312Y-89.759
X130.312Y-91.259
X132.312Y-90.559
X134.312Y-92.159
X156.112Y-90.509
X162.512Y-86.459
X163.712Y-90.509
X166.112Y-90.509
X168.912Y-90.509
X171.396Y-90.509
X166.916Y-107.603
X148.916Y-101.603
X146.916Y-97.603
X172.916Y-89.603
X160.916Y-97.603
X170.916Y-99.603
X136.916Y-99.603
X144.916Y-97.603
X118.916Y-87.603
X134.916Y-95.603
X160.916Y-105.603
X172.916Y-103.603
X150.916Y-97.603
X164.916Y-93.603
X170.916Y-85.603
X112.916Y-95.603
X118.916Y-107.603
X130.916Y-103.603
X166.916Y-97.603
X168.916Y-103.603
X168.916Y-105.603
X114.916Y-103.603
X156.916Y-107.603
X168.916Y-101.603
X144.916Y-99.603
X152.916Y-105.603
X150.916Y-99.603
X118.916Y-97.603
X148.916Y-105.603
X152.916Y-103.603
X116.916Y-99.603
X112.916Y-99.603
X144.916Y-95.603
X154.916Y-103.603
X166.916Y-101.603
X116.916Y-101.603
X158.916Y-101.603
X138.916Y-101.603
X138.916Y-95.603
X148.916Y-103.603
X164.916Y-107.603
X146.916Y-101.603
X168.916Y-99.603
X158.916Y-97.603
X134.916Y-99.603
X142.916Y-97.603
X168.916Y-85.603
X132.916Y-95.603
X160.916Y-99.603
X154.916Y-93.603
X172.916Y-93.603
X148.916Y-97.603
X116.916Y-107.603
X116.916Y-87.603
X120.916Y-103.603
X112.916Y-101.603
X164.916Y-97.603
X166.916Y-103.603
X166.916Y-105.603
X112.916Y-103.603
X154.916Y-107.603
X164.916Y-89.603
X150.916Y-105.603
X120.916Y-105.603
X110.916Y-99.603
X114.916Y-99.603
X114.916Y-101.603
X136.916Y-95.603
X164.916Y-101.603
X156.916Y-101.603
X136.916Y-101.603
X110.916Y-103.603
X158.916Y-105.603
X112.916Y-85.603
X114.916Y-97.603
X138.916Y-103.603
X162.916Y-107.603
X134.916Y-97.603
X166.916Y-99.603
X156.916Y-97.603
X138.916Y-97.603
X130.916Y-95.603
X160.916Y-103.603
X114.916Y-93.603
X158.916Y-99.603
X168.916Y-107.603
X118.916Y-93.603
X110.916Y-85.603
X152.916Y-101.603
X110.916Y-87.603
X110.916Y-101.603
X162.916Y-97.603
X144.916Y-91.603
X164.916Y-103.603
X164.916Y-105.603
X124.916Y-89.603
X146.916Y-89.603
X152.916Y-107.603
X118.916Y-105.603
X172.916Y-97.603
X134.916Y-103.603
X148.916Y-107.603
X162.916Y-101.603
X154.916Y-101.603
X134.916Y-101.603
X114.916Y-81.603
X172.916Y-101.603
X112.916Y-97.603
X148.916Y-99.603
X156.916Y-105.603
X154.916Y-97.603
X118.916Y-103.603
X136.916Y-97.603
X136.916Y-103.603
X160.916Y-107.603
X168.916Y-83.603
X132.916Y-97.603
X164.916Y-99.603
X112.916Y-93.603
X158.916Y-103.603
X130.916Y-99.603
X156.916Y-99.603
X154.916Y-95.603
X130.916Y-101.603
X172.916Y-85.603
X150.916Y-101.603
X172.916Y-99.603
X138.916Y-99.603
X124.916Y-91.603
X146.916Y-87.603
X162.916Y-103.603
X162.916Y-105.603
X152.916Y-97.603
X144.916Y-89.603
X150.916Y-107.603
X116.916Y-105.603
X170.916Y-97.603
X114.916Y-95.603
X120.916Y-107.603
X132.916Y-103.603
X142.916Y-99.603
X168.916Y-81.603
X168.916Y-97.603
X170.916Y-103.603
X160.916Y-101.603
X172.916Y-95.603
X132.916Y-101.603
X158.916Y-107.603
X116.916Y-103.603
X170.916Y-101.603
X146.916Y-99.603
X154.916Y-105.603
X162.916Y-99.603
X152.916Y-99.603
X172.916Y-91.603
X130.916Y-97.603
X154.916Y-99.603
X118.916Y-99.603
X156.916Y-103.603
X132.916Y-99.603
X146.916Y-95.603
X118.916Y-101.603
X142.916Y-95.603
X150.916Y-103.603
T2
X120.712Y-88.359
X121.982Y-88.359
X123.252Y-88.359
T3
X142.912Y-91.659
T4
X148.552Y-87.359
X148.552Y-94.979
X151.092Y-87.359
X151.092Y-94.979
X153.632Y-87.359
X153.632Y-94.979
X156.172Y-87.359
X156.172Y-94.979
X158.712Y-87.359
X158.712Y-94.979
X161.252Y-87.359
X161.252Y-94.979
X163.792Y-87.359
X163.792Y-94.979
X166.332Y-87.359
X166.332Y-94.979
X168.872Y-87.359
X168.872Y-94.979
X171.412Y-87.359
X171.412Y-94.979
T5
X117.912Y-81.719
X117.912Y-84.259
X120.452Y-81.719
X120.452Y-84.259
X122.992Y-81.719
X122.992Y-84.259
X125.532Y-81.719
X125.532Y-84.259
X128.072Y-81.719
X128.072Y-84.259
X130.612Y-81.719
X130.612Y-84.259
X133.152Y-81.719
X133.152Y-84.259
X135.692Y-81.719
X135.692Y-84.259
X138.232Y-81.719
X138.232Y-84.259
X140.772Y-81.719
X140.772Y-84.259
X143.312Y-81.719
X143.312Y-84.259
X145.852Y-81.719
X145.852Y-84.259
X148.392Y-81.719
X148.392Y-84.259
X150.932Y-81.719
X150.932Y-84.259
X153.472Y-81.719
X153.472Y-84.259
X156.012Y-81.719
X156.012Y-84.259
X158.552Y-81.719
X158.552Y-84.259
X161.092Y-81.719
X161.092Y-84.259
X163.632Y-81.719
X163.632Y-84.259
X166.172Y-81.719
X166.172Y-84.259
X123.712Y-99.039
X123.712Y-101.579
X123.712Y-104.119
X123.712Y-106.659
T0
M30
