%TF.GenerationSoftware,KiCad,Pcbnew,no-vcs-found-47f37ef~60~ubuntu16.04.1*%
%TF.CreationDate,2017-10-11T15:33:38+03:00*%
%TF.ProjectId,rpi_zero,7270695F7A65726F2E6B696361645F70,rev?*%
%TF.SameCoordinates,Original*%
%TF.FileFunction,Soldermask,Bot*%
%TF.FilePolarity,Negative*%
%FSLAX46Y46*%
G04 Gerber Fmt 4.6, Leading zero omitted, Abs format (unit mm)*
G04 Created by KiCad (PCBNEW no-vcs-found-47f37ef~60~ubuntu16.04.1) date Wed Oct 11 15:33:38 2017*
%MOMM*%
%LPD*%
G01*
G04 APERTURE LIST*
%ADD10O,1.200000X2.200000*%
%ADD11C,3.200000*%
%ADD12O,1.700000X1.700000*%
%ADD13R,1.700000X1.700000*%
%ADD14R,0.900000X1.200000*%
%ADD15R,1.500000X1.250000*%
%ADD16R,0.900000X1.500000*%
%ADD17O,0.900000X1.500000*%
%ADD18R,1.350000X1.350000*%
G04 APERTURE END LIST*
D10*
X169211880Y-94979420D03*
X166671880Y-94979420D03*
X164131880Y-94979420D03*
X161591880Y-94979420D03*
X148891880Y-87359420D03*
X146351880Y-87359420D03*
X146351880Y-94979420D03*
X148891880Y-94979420D03*
X151431880Y-87359420D03*
X153971880Y-87359420D03*
X156511880Y-87359420D03*
X159051880Y-87359420D03*
X159051880Y-94979420D03*
X156511880Y-94979420D03*
X153971880Y-94979420D03*
X151431880Y-94979420D03*
X161591880Y-87359420D03*
X164131880Y-87359420D03*
X166671880Y-87359420D03*
X169211880Y-87359420D03*
D11*
X112711880Y-82659420D03*
X112711880Y-106359420D03*
X171311880Y-106359420D03*
X171311880Y-82659420D03*
D12*
X166171880Y-81719420D03*
X166171880Y-84259420D03*
X163631880Y-81719420D03*
X163631880Y-84259420D03*
X161091880Y-81719420D03*
X161091880Y-84259420D03*
X158551880Y-81719420D03*
X158551880Y-84259420D03*
X156011880Y-81719420D03*
X156011880Y-84259420D03*
X153471880Y-81719420D03*
X153471880Y-84259420D03*
X150931880Y-81719420D03*
X150931880Y-84259420D03*
X148391880Y-81719420D03*
X148391880Y-84259420D03*
X145851880Y-81719420D03*
X145851880Y-84259420D03*
X143311880Y-81719420D03*
X143311880Y-84259420D03*
X140771880Y-81719420D03*
X140771880Y-84259420D03*
X138231880Y-81719420D03*
X138231880Y-84259420D03*
X135691880Y-81719420D03*
X135691880Y-84259420D03*
X133151880Y-81719420D03*
X133151880Y-84259420D03*
X130611880Y-81719420D03*
X130611880Y-84259420D03*
X128071880Y-81719420D03*
X128071880Y-84259420D03*
X125531880Y-81719420D03*
X125531880Y-84259420D03*
X122991880Y-81719420D03*
X122991880Y-84259420D03*
X120451880Y-81719420D03*
X120451880Y-84259420D03*
X117911880Y-81719420D03*
D13*
X117911880Y-84259420D03*
D14*
X146411880Y-99359420D03*
X146411880Y-97159420D03*
X148811880Y-97159420D03*
X148811880Y-99359420D03*
X151411880Y-99359420D03*
X151411880Y-97159420D03*
X154011880Y-97159420D03*
X154011880Y-99359420D03*
X156411880Y-99359420D03*
X156411880Y-97159420D03*
X159011880Y-97159420D03*
X159011880Y-99359420D03*
X161411880Y-99359420D03*
X161411880Y-97159420D03*
X164011880Y-97159420D03*
X164011880Y-99359420D03*
X166611880Y-99359420D03*
X166611880Y-97159420D03*
X169211880Y-97159420D03*
X169211880Y-99359420D03*
D15*
X120761880Y-86559420D03*
X123261880Y-86559420D03*
D16*
X120711880Y-88359420D03*
D17*
X123251880Y-88359420D03*
X121981880Y-88359420D03*
D18*
X142911880Y-91659420D03*
D12*
X123711880Y-99039420D03*
X123711880Y-101579420D03*
X123711880Y-104119420D03*
D13*
X123711880Y-106659420D03*
D14*
X121211880Y-101259420D03*
X121211880Y-99059420D03*
X126511880Y-101559420D03*
X126511880Y-103759420D03*
M02*
