%TF.GenerationSoftware,KiCad,Pcbnew,no-vcs-found-e0b9a21~60~ubuntu16.04.1*%
%TF.CreationDate,2017-10-13T14:54:20+03:00*%
%TF.ProjectId,livolo_1_channel_1way_eu_switch,6C69766F6C6F5F315F6368616E6E656C,rev?*%
%TF.SameCoordinates,Original*%
%TF.FileFunction,Legend,Top*%
%TF.FilePolarity,Positive*%
%FSLAX46Y46*%
G04 Gerber Fmt 4.6, Leading zero omitted, Abs format (unit mm)*
G04 Created by KiCad (PCBNEW no-vcs-found-e0b9a21~60~ubuntu16.04.1) date Fri Oct 13 14:54:20 2017*
%MOMM*%
%LPD*%
G01*
G04 APERTURE LIST*
%ADD10C,0.200000*%
%ADD11C,0.010000*%
%ADD12C,0.150000*%
%ADD13C,0.120000*%
%ADD14C,0.100000*%
%ADD15R,0.550000X1.600000*%
%ADD16R,1.600000X0.550000*%
%ADD17R,0.900000X0.800000*%
%ADD18R,2.000000X1.000000*%
%ADD19O,1.300000X1.600000*%
%ADD20R,1.200000X0.900000*%
%ADD21R,0.900000X1.200000*%
%ADD22C,1.500000*%
%ADD23R,1.200000X0.750000*%
%ADD24R,1.750000X1.260000*%
%ADD25R,0.750000X1.200000*%
%ADD26R,1.450000X0.450000*%
%ADD27R,1.900000X0.800000*%
G04 APERTURE END LIST*
D10*
X148690476Y-112552380D02*
X148357142Y-112076190D01*
X148119047Y-112552380D02*
X148119047Y-111552380D01*
X148500000Y-111552380D01*
X148595238Y-111600000D01*
X148642857Y-111647619D01*
X148690476Y-111742857D01*
X148690476Y-111885714D01*
X148642857Y-111980952D01*
X148595238Y-112028571D01*
X148500000Y-112076190D01*
X148119047Y-112076190D01*
X149500000Y-112504761D02*
X149404761Y-112552380D01*
X149214285Y-112552380D01*
X149119047Y-112504761D01*
X149071428Y-112409523D01*
X149071428Y-112028571D01*
X149119047Y-111933333D01*
X149214285Y-111885714D01*
X149404761Y-111885714D01*
X149500000Y-111933333D01*
X149547619Y-112028571D01*
X149547619Y-112123809D01*
X149071428Y-112219047D01*
X149880952Y-111885714D02*
X150119047Y-112552380D01*
X150357142Y-111885714D01*
X150738095Y-112457142D02*
X150785714Y-112504761D01*
X150738095Y-112552380D01*
X150690476Y-112504761D01*
X150738095Y-112457142D01*
X150738095Y-112552380D01*
X152166666Y-111552380D02*
X152261904Y-111552380D01*
X152357142Y-111600000D01*
X152404761Y-111647619D01*
X152452380Y-111742857D01*
X152500000Y-111933333D01*
X152500000Y-112171428D01*
X152452380Y-112361904D01*
X152404761Y-112457142D01*
X152357142Y-112504761D01*
X152261904Y-112552380D01*
X152166666Y-112552380D01*
X152071428Y-112504761D01*
X152023809Y-112457142D01*
X151976190Y-112361904D01*
X151928571Y-112171428D01*
X151928571Y-111933333D01*
X151976190Y-111742857D01*
X152023809Y-111647619D01*
X152071428Y-111600000D01*
X152166666Y-111552380D01*
X152928571Y-112457142D02*
X152976190Y-112504761D01*
X152928571Y-112552380D01*
X152880952Y-112504761D01*
X152928571Y-112457142D01*
X152928571Y-112552380D01*
X153357142Y-111647619D02*
X153404761Y-111600000D01*
X153500000Y-111552380D01*
X153738095Y-111552380D01*
X153833333Y-111600000D01*
X153880952Y-111647619D01*
X153928571Y-111742857D01*
X153928571Y-111838095D01*
X153880952Y-111980952D01*
X153309523Y-112552380D01*
X153928571Y-112552380D01*
D11*
G36*
X146278629Y-109969066D02*
X146318111Y-109969467D01*
X146433800Y-109972259D01*
X146530689Y-109980550D01*
X146612081Y-109995232D01*
X146681277Y-110017193D01*
X146741580Y-110047322D01*
X146796292Y-110086510D01*
X146815833Y-110103532D01*
X146848250Y-110143363D01*
X146877480Y-110197413D01*
X146900009Y-110257323D01*
X146912321Y-110314739D01*
X146913600Y-110335956D01*
X146905583Y-110394769D01*
X146884101Y-110459013D01*
X146853001Y-110519821D01*
X146816134Y-110568330D01*
X146810146Y-110574182D01*
X146759421Y-110615321D01*
X146703875Y-110647435D01*
X146640304Y-110671365D01*
X146565506Y-110687953D01*
X146476278Y-110698041D01*
X146369418Y-110702469D01*
X146320472Y-110702845D01*
X146258238Y-110702545D01*
X146214472Y-110701292D01*
X146185069Y-110698554D01*
X146165921Y-110693801D01*
X146152923Y-110686501D01*
X146145955Y-110680267D01*
X146139374Y-110672694D01*
X146134212Y-110662924D01*
X146130297Y-110648340D01*
X146127457Y-110626326D01*
X146125520Y-110594264D01*
X146124316Y-110549536D01*
X146123672Y-110489526D01*
X146123417Y-110411617D01*
X146123378Y-110335956D01*
X146123130Y-110235041D01*
X146123183Y-110154427D01*
X146124143Y-110115822D01*
X146270133Y-110115822D01*
X146270133Y-110556089D01*
X146363266Y-110556004D01*
X146419307Y-110554396D01*
X146478001Y-110550256D01*
X146526972Y-110544464D01*
X146528462Y-110544226D01*
X146607608Y-110525090D01*
X146668998Y-110495287D01*
X146715695Y-110452878D01*
X146745365Y-110406961D01*
X146763647Y-110356026D01*
X146762229Y-110308200D01*
X146741012Y-110256933D01*
X146699511Y-110203899D01*
X146642002Y-110164600D01*
X146567250Y-110138331D01*
X146517292Y-110129035D01*
X146460584Y-110122507D01*
X146400481Y-110117782D01*
X146349361Y-110115817D01*
X146346333Y-110115808D01*
X146270133Y-110115822D01*
X146124143Y-110115822D01*
X146124740Y-110091851D01*
X146129002Y-110045055D01*
X146137170Y-110011778D01*
X146150444Y-109989759D01*
X146170026Y-109976739D01*
X146197117Y-109970457D01*
X146232918Y-109968653D01*
X146278629Y-109969066D01*
X146278629Y-109969066D01*
G37*
X146278629Y-109969066D02*
X146318111Y-109969467D01*
X146433800Y-109972259D01*
X146530689Y-109980550D01*
X146612081Y-109995232D01*
X146681277Y-110017193D01*
X146741580Y-110047322D01*
X146796292Y-110086510D01*
X146815833Y-110103532D01*
X146848250Y-110143363D01*
X146877480Y-110197413D01*
X146900009Y-110257323D01*
X146912321Y-110314739D01*
X146913600Y-110335956D01*
X146905583Y-110394769D01*
X146884101Y-110459013D01*
X146853001Y-110519821D01*
X146816134Y-110568330D01*
X146810146Y-110574182D01*
X146759421Y-110615321D01*
X146703875Y-110647435D01*
X146640304Y-110671365D01*
X146565506Y-110687953D01*
X146476278Y-110698041D01*
X146369418Y-110702469D01*
X146320472Y-110702845D01*
X146258238Y-110702545D01*
X146214472Y-110701292D01*
X146185069Y-110698554D01*
X146165921Y-110693801D01*
X146152923Y-110686501D01*
X146145955Y-110680267D01*
X146139374Y-110672694D01*
X146134212Y-110662924D01*
X146130297Y-110648340D01*
X146127457Y-110626326D01*
X146125520Y-110594264D01*
X146124316Y-110549536D01*
X146123672Y-110489526D01*
X146123417Y-110411617D01*
X146123378Y-110335956D01*
X146123130Y-110235041D01*
X146123183Y-110154427D01*
X146124143Y-110115822D01*
X146270133Y-110115822D01*
X146270133Y-110556089D01*
X146363266Y-110556004D01*
X146419307Y-110554396D01*
X146478001Y-110550256D01*
X146526972Y-110544464D01*
X146528462Y-110544226D01*
X146607608Y-110525090D01*
X146668998Y-110495287D01*
X146715695Y-110452878D01*
X146745365Y-110406961D01*
X146763647Y-110356026D01*
X146762229Y-110308200D01*
X146741012Y-110256933D01*
X146699511Y-110203899D01*
X146642002Y-110164600D01*
X146567250Y-110138331D01*
X146517292Y-110129035D01*
X146460584Y-110122507D01*
X146400481Y-110117782D01*
X146349361Y-110115817D01*
X146346333Y-110115808D01*
X146270133Y-110115822D01*
X146124143Y-110115822D01*
X146124740Y-110091851D01*
X146129002Y-110045055D01*
X146137170Y-110011778D01*
X146150444Y-109989759D01*
X146170026Y-109976739D01*
X146197117Y-109970457D01*
X146232918Y-109968653D01*
X146278629Y-109969066D01*
G36*
X147687206Y-109969146D02*
X147756614Y-109969518D01*
X147809003Y-109970385D01*
X147847153Y-109971946D01*
X147873841Y-109974403D01*
X147891847Y-109977957D01*
X147903951Y-109982810D01*
X147912931Y-109989161D01*
X147916182Y-109992084D01*
X147935957Y-110023142D01*
X147939518Y-110058828D01*
X147926509Y-110090510D01*
X147920494Y-110096913D01*
X147910765Y-110103121D01*
X147895099Y-110107910D01*
X147870592Y-110111514D01*
X147834339Y-110114164D01*
X147783435Y-110116095D01*
X147714974Y-110117539D01*
X147652383Y-110118418D01*
X147404666Y-110121467D01*
X147401281Y-110186378D01*
X147397895Y-110251289D01*
X147566042Y-110251289D01*
X147639041Y-110251919D01*
X147692483Y-110254553D01*
X147729372Y-110260309D01*
X147752712Y-110270304D01*
X147765506Y-110285656D01*
X147770758Y-110307482D01*
X147771555Y-110327738D01*
X147769077Y-110352592D01*
X147759723Y-110370906D01*
X147740617Y-110383637D01*
X147708882Y-110391741D01*
X147661641Y-110396176D01*
X147596017Y-110397899D01*
X147560199Y-110398045D01*
X147399022Y-110398045D01*
X147399022Y-110556089D01*
X147647378Y-110556089D01*
X147728787Y-110556202D01*
X147790658Y-110556712D01*
X147836032Y-110557870D01*
X147867946Y-110559930D01*
X147889441Y-110563146D01*
X147903557Y-110567772D01*
X147913332Y-110574059D01*
X147918311Y-110578667D01*
X147935390Y-110605560D01*
X147940889Y-110629467D01*
X147933037Y-110658667D01*
X147918311Y-110680267D01*
X147910454Y-110687066D01*
X147900312Y-110692346D01*
X147885156Y-110696298D01*
X147862259Y-110699113D01*
X147828891Y-110700982D01*
X147782325Y-110702098D01*
X147719833Y-110702651D01*
X147638686Y-110702833D01*
X147596578Y-110702845D01*
X147506402Y-110702765D01*
X147436076Y-110702398D01*
X147382871Y-110701552D01*
X147344060Y-110700036D01*
X147316913Y-110697659D01*
X147298702Y-110694229D01*
X147286700Y-110689554D01*
X147278178Y-110683444D01*
X147274844Y-110680267D01*
X147268245Y-110672670D01*
X147263073Y-110662870D01*
X147259154Y-110648239D01*
X147256316Y-110626152D01*
X147254385Y-110593982D01*
X147253188Y-110549103D01*
X147252552Y-110488889D01*
X147252303Y-110410713D01*
X147252266Y-110337923D01*
X147252300Y-110244707D01*
X147252535Y-110171431D01*
X147253170Y-110115458D01*
X147254406Y-110074151D01*
X147256444Y-110044872D01*
X147259483Y-110024984D01*
X147263723Y-110011850D01*
X147269365Y-110002832D01*
X147276609Y-109995293D01*
X147278394Y-109993612D01*
X147287055Y-109986172D01*
X147297118Y-109980409D01*
X147311375Y-109976112D01*
X147332617Y-109973064D01*
X147363636Y-109971051D01*
X147407223Y-109969860D01*
X147466169Y-109969275D01*
X147543266Y-109969083D01*
X147597999Y-109969067D01*
X147687206Y-109969146D01*
X147687206Y-109969146D01*
G37*
X147687206Y-109969146D02*
X147756614Y-109969518D01*
X147809003Y-109970385D01*
X147847153Y-109971946D01*
X147873841Y-109974403D01*
X147891847Y-109977957D01*
X147903951Y-109982810D01*
X147912931Y-109989161D01*
X147916182Y-109992084D01*
X147935957Y-110023142D01*
X147939518Y-110058828D01*
X147926509Y-110090510D01*
X147920494Y-110096913D01*
X147910765Y-110103121D01*
X147895099Y-110107910D01*
X147870592Y-110111514D01*
X147834339Y-110114164D01*
X147783435Y-110116095D01*
X147714974Y-110117539D01*
X147652383Y-110118418D01*
X147404666Y-110121467D01*
X147401281Y-110186378D01*
X147397895Y-110251289D01*
X147566042Y-110251289D01*
X147639041Y-110251919D01*
X147692483Y-110254553D01*
X147729372Y-110260309D01*
X147752712Y-110270304D01*
X147765506Y-110285656D01*
X147770758Y-110307482D01*
X147771555Y-110327738D01*
X147769077Y-110352592D01*
X147759723Y-110370906D01*
X147740617Y-110383637D01*
X147708882Y-110391741D01*
X147661641Y-110396176D01*
X147596017Y-110397899D01*
X147560199Y-110398045D01*
X147399022Y-110398045D01*
X147399022Y-110556089D01*
X147647378Y-110556089D01*
X147728787Y-110556202D01*
X147790658Y-110556712D01*
X147836032Y-110557870D01*
X147867946Y-110559930D01*
X147889441Y-110563146D01*
X147903557Y-110567772D01*
X147913332Y-110574059D01*
X147918311Y-110578667D01*
X147935390Y-110605560D01*
X147940889Y-110629467D01*
X147933037Y-110658667D01*
X147918311Y-110680267D01*
X147910454Y-110687066D01*
X147900312Y-110692346D01*
X147885156Y-110696298D01*
X147862259Y-110699113D01*
X147828891Y-110700982D01*
X147782325Y-110702098D01*
X147719833Y-110702651D01*
X147638686Y-110702833D01*
X147596578Y-110702845D01*
X147506402Y-110702765D01*
X147436076Y-110702398D01*
X147382871Y-110701552D01*
X147344060Y-110700036D01*
X147316913Y-110697659D01*
X147298702Y-110694229D01*
X147286700Y-110689554D01*
X147278178Y-110683444D01*
X147274844Y-110680267D01*
X147268245Y-110672670D01*
X147263073Y-110662870D01*
X147259154Y-110648239D01*
X147256316Y-110626152D01*
X147254385Y-110593982D01*
X147253188Y-110549103D01*
X147252552Y-110488889D01*
X147252303Y-110410713D01*
X147252266Y-110337923D01*
X147252300Y-110244707D01*
X147252535Y-110171431D01*
X147253170Y-110115458D01*
X147254406Y-110074151D01*
X147256444Y-110044872D01*
X147259483Y-110024984D01*
X147263723Y-110011850D01*
X147269365Y-110002832D01*
X147276609Y-109995293D01*
X147278394Y-109993612D01*
X147287055Y-109986172D01*
X147297118Y-109980409D01*
X147311375Y-109976112D01*
X147332617Y-109973064D01*
X147363636Y-109971051D01*
X147407223Y-109969860D01*
X147466169Y-109969275D01*
X147543266Y-109969083D01*
X147597999Y-109969067D01*
X147687206Y-109969146D01*
G36*
X148708297Y-109970351D02*
X148783112Y-109975581D01*
X148852694Y-109983750D01*
X148912998Y-109994550D01*
X148959980Y-110007673D01*
X148989594Y-110022813D01*
X148994140Y-110027269D01*
X149009946Y-110061850D01*
X149005153Y-110097351D01*
X148980636Y-110127725D01*
X148979466Y-110128596D01*
X148965046Y-110137954D01*
X148949992Y-110142876D01*
X148928995Y-110143473D01*
X148896743Y-110139861D01*
X148847927Y-110132154D01*
X148844000Y-110131505D01*
X148771261Y-110122569D01*
X148692783Y-110118161D01*
X148614073Y-110118119D01*
X148540639Y-110122279D01*
X148477989Y-110130479D01*
X148431630Y-110142557D01*
X148428584Y-110143771D01*
X148394952Y-110162615D01*
X148383136Y-110181685D01*
X148392386Y-110200439D01*
X148421953Y-110218337D01*
X148471089Y-110234837D01*
X148539043Y-110249396D01*
X148584355Y-110256406D01*
X148678544Y-110269889D01*
X148753456Y-110282214D01*
X148812283Y-110294449D01*
X148858215Y-110307661D01*
X148894445Y-110322917D01*
X148924162Y-110341285D01*
X148950558Y-110363831D01*
X148971770Y-110385971D01*
X148996935Y-110416819D01*
X149009319Y-110443345D01*
X149013192Y-110476026D01*
X149013333Y-110487995D01*
X149010424Y-110527712D01*
X148998798Y-110557259D01*
X148978677Y-110583486D01*
X148937784Y-110623576D01*
X148892183Y-110654149D01*
X148838487Y-110676203D01*
X148773308Y-110690735D01*
X148693256Y-110698741D01*
X148594943Y-110701218D01*
X148578711Y-110701177D01*
X148513151Y-110699818D01*
X148448134Y-110696730D01*
X148390748Y-110692356D01*
X148348078Y-110687140D01*
X148344628Y-110686541D01*
X148302204Y-110676491D01*
X148266220Y-110663796D01*
X148245850Y-110652190D01*
X148226893Y-110621572D01*
X148225573Y-110585918D01*
X148241915Y-110554144D01*
X148245571Y-110550551D01*
X148260685Y-110539876D01*
X148279585Y-110535276D01*
X148308838Y-110536059D01*
X148344349Y-110540127D01*
X148384030Y-110543762D01*
X148439655Y-110546828D01*
X148504594Y-110549053D01*
X148572215Y-110550164D01*
X148590000Y-110550237D01*
X148657872Y-110549964D01*
X148707546Y-110548646D01*
X148743390Y-110545827D01*
X148769776Y-110541050D01*
X148791074Y-110533857D01*
X148803874Y-110527867D01*
X148832000Y-110511233D01*
X148849932Y-110496168D01*
X148852553Y-110491897D01*
X148847024Y-110474263D01*
X148820740Y-110457192D01*
X148775522Y-110441458D01*
X148713192Y-110427838D01*
X148694829Y-110424804D01*
X148598910Y-110409738D01*
X148522359Y-110397146D01*
X148462220Y-110386111D01*
X148415540Y-110375720D01*
X148379363Y-110365056D01*
X148350735Y-110353205D01*
X148326702Y-110339251D01*
X148304308Y-110322281D01*
X148280598Y-110301378D01*
X148272620Y-110294049D01*
X148244647Y-110266699D01*
X148229840Y-110245029D01*
X148224048Y-110220232D01*
X148223111Y-110188983D01*
X148233425Y-110127705D01*
X148264248Y-110075640D01*
X148315405Y-110032958D01*
X148386717Y-109999825D01*
X148437600Y-109984964D01*
X148492900Y-109975366D01*
X148559147Y-109969936D01*
X148632294Y-109968367D01*
X148708297Y-109970351D01*
X148708297Y-109970351D01*
G37*
X148708297Y-109970351D02*
X148783112Y-109975581D01*
X148852694Y-109983750D01*
X148912998Y-109994550D01*
X148959980Y-110007673D01*
X148989594Y-110022813D01*
X148994140Y-110027269D01*
X149009946Y-110061850D01*
X149005153Y-110097351D01*
X148980636Y-110127725D01*
X148979466Y-110128596D01*
X148965046Y-110137954D01*
X148949992Y-110142876D01*
X148928995Y-110143473D01*
X148896743Y-110139861D01*
X148847927Y-110132154D01*
X148844000Y-110131505D01*
X148771261Y-110122569D01*
X148692783Y-110118161D01*
X148614073Y-110118119D01*
X148540639Y-110122279D01*
X148477989Y-110130479D01*
X148431630Y-110142557D01*
X148428584Y-110143771D01*
X148394952Y-110162615D01*
X148383136Y-110181685D01*
X148392386Y-110200439D01*
X148421953Y-110218337D01*
X148471089Y-110234837D01*
X148539043Y-110249396D01*
X148584355Y-110256406D01*
X148678544Y-110269889D01*
X148753456Y-110282214D01*
X148812283Y-110294449D01*
X148858215Y-110307661D01*
X148894445Y-110322917D01*
X148924162Y-110341285D01*
X148950558Y-110363831D01*
X148971770Y-110385971D01*
X148996935Y-110416819D01*
X149009319Y-110443345D01*
X149013192Y-110476026D01*
X149013333Y-110487995D01*
X149010424Y-110527712D01*
X148998798Y-110557259D01*
X148978677Y-110583486D01*
X148937784Y-110623576D01*
X148892183Y-110654149D01*
X148838487Y-110676203D01*
X148773308Y-110690735D01*
X148693256Y-110698741D01*
X148594943Y-110701218D01*
X148578711Y-110701177D01*
X148513151Y-110699818D01*
X148448134Y-110696730D01*
X148390748Y-110692356D01*
X148348078Y-110687140D01*
X148344628Y-110686541D01*
X148302204Y-110676491D01*
X148266220Y-110663796D01*
X148245850Y-110652190D01*
X148226893Y-110621572D01*
X148225573Y-110585918D01*
X148241915Y-110554144D01*
X148245571Y-110550551D01*
X148260685Y-110539876D01*
X148279585Y-110535276D01*
X148308838Y-110536059D01*
X148344349Y-110540127D01*
X148384030Y-110543762D01*
X148439655Y-110546828D01*
X148504594Y-110549053D01*
X148572215Y-110550164D01*
X148590000Y-110550237D01*
X148657872Y-110549964D01*
X148707546Y-110548646D01*
X148743390Y-110545827D01*
X148769776Y-110541050D01*
X148791074Y-110533857D01*
X148803874Y-110527867D01*
X148832000Y-110511233D01*
X148849932Y-110496168D01*
X148852553Y-110491897D01*
X148847024Y-110474263D01*
X148820740Y-110457192D01*
X148775522Y-110441458D01*
X148713192Y-110427838D01*
X148694829Y-110424804D01*
X148598910Y-110409738D01*
X148522359Y-110397146D01*
X148462220Y-110386111D01*
X148415540Y-110375720D01*
X148379363Y-110365056D01*
X148350735Y-110353205D01*
X148326702Y-110339251D01*
X148304308Y-110322281D01*
X148280598Y-110301378D01*
X148272620Y-110294049D01*
X148244647Y-110266699D01*
X148229840Y-110245029D01*
X148224048Y-110220232D01*
X148223111Y-110188983D01*
X148233425Y-110127705D01*
X148264248Y-110075640D01*
X148315405Y-110032958D01*
X148386717Y-109999825D01*
X148437600Y-109984964D01*
X148492900Y-109975366D01*
X148559147Y-109969936D01*
X148632294Y-109968367D01*
X148708297Y-109970351D01*
G36*
X149476178Y-109991645D02*
X149482758Y-109999218D01*
X149487921Y-110008987D01*
X149491836Y-110023571D01*
X149494676Y-110045585D01*
X149496613Y-110077648D01*
X149497817Y-110122375D01*
X149498461Y-110182385D01*
X149498716Y-110260294D01*
X149498755Y-110335956D01*
X149498686Y-110429802D01*
X149498362Y-110503689D01*
X149497614Y-110560232D01*
X149496268Y-110602049D01*
X149494154Y-110631757D01*
X149491100Y-110651973D01*
X149486934Y-110665314D01*
X149481484Y-110674398D01*
X149476178Y-110680267D01*
X149443174Y-110699947D01*
X149408009Y-110698181D01*
X149376545Y-110676717D01*
X149369316Y-110668337D01*
X149363666Y-110658614D01*
X149359401Y-110644861D01*
X149356327Y-110624389D01*
X149354248Y-110594512D01*
X149352970Y-110552541D01*
X149352299Y-110495789D01*
X149352041Y-110421567D01*
X149352000Y-110337537D01*
X149352000Y-110024485D01*
X149379709Y-109996776D01*
X149413863Y-109973463D01*
X149446994Y-109972623D01*
X149476178Y-109991645D01*
X149476178Y-109991645D01*
G37*
X149476178Y-109991645D02*
X149482758Y-109999218D01*
X149487921Y-110008987D01*
X149491836Y-110023571D01*
X149494676Y-110045585D01*
X149496613Y-110077648D01*
X149497817Y-110122375D01*
X149498461Y-110182385D01*
X149498716Y-110260294D01*
X149498755Y-110335956D01*
X149498686Y-110429802D01*
X149498362Y-110503689D01*
X149497614Y-110560232D01*
X149496268Y-110602049D01*
X149494154Y-110631757D01*
X149491100Y-110651973D01*
X149486934Y-110665314D01*
X149481484Y-110674398D01*
X149476178Y-110680267D01*
X149443174Y-110699947D01*
X149408009Y-110698181D01*
X149376545Y-110676717D01*
X149369316Y-110668337D01*
X149363666Y-110658614D01*
X149359401Y-110644861D01*
X149356327Y-110624389D01*
X149354248Y-110594512D01*
X149352970Y-110552541D01*
X149352299Y-110495789D01*
X149352041Y-110421567D01*
X149352000Y-110337537D01*
X149352000Y-110024485D01*
X149379709Y-109996776D01*
X149413863Y-109973463D01*
X149446994Y-109972623D01*
X149476178Y-109991645D01*
G36*
X150449919Y-109974599D02*
X150518435Y-109986095D01*
X150571057Y-110003967D01*
X150605292Y-110027499D01*
X150614621Y-110040924D01*
X150624107Y-110072148D01*
X150617723Y-110100395D01*
X150597570Y-110127182D01*
X150566255Y-110139713D01*
X150520817Y-110138696D01*
X150485674Y-110131906D01*
X150407581Y-110118971D01*
X150327774Y-110117742D01*
X150238445Y-110128241D01*
X150213771Y-110132690D01*
X150130709Y-110156108D01*
X150065727Y-110190945D01*
X150019539Y-110236604D01*
X149992855Y-110292494D01*
X149987337Y-110321388D01*
X149990949Y-110380012D01*
X150014271Y-110431879D01*
X150055176Y-110475978D01*
X150111541Y-110511299D01*
X150181240Y-110536829D01*
X150262148Y-110551559D01*
X150352140Y-110554478D01*
X150449090Y-110544575D01*
X150454564Y-110543641D01*
X150493125Y-110536459D01*
X150514506Y-110529521D01*
X150523773Y-110519227D01*
X150525994Y-110501976D01*
X150526044Y-110492841D01*
X150526044Y-110454489D01*
X150457569Y-110454489D01*
X150397100Y-110450347D01*
X150355835Y-110437147D01*
X150331825Y-110413730D01*
X150323123Y-110378936D01*
X150323017Y-110374394D01*
X150328108Y-110344654D01*
X150345567Y-110323419D01*
X150378061Y-110309366D01*
X150428257Y-110301173D01*
X150476877Y-110298161D01*
X150547544Y-110296433D01*
X150598802Y-110299070D01*
X150633761Y-110308800D01*
X150655530Y-110328353D01*
X150667220Y-110360456D01*
X150671940Y-110407838D01*
X150672800Y-110470071D01*
X150671391Y-110539535D01*
X150667152Y-110586786D01*
X150660064Y-110612012D01*
X150658689Y-110613988D01*
X150619772Y-110645508D01*
X150562714Y-110670470D01*
X150491131Y-110688340D01*
X150408642Y-110698586D01*
X150318861Y-110700673D01*
X150225408Y-110694068D01*
X150170444Y-110685956D01*
X150084234Y-110661554D01*
X150004108Y-110621662D01*
X149937023Y-110569887D01*
X149926827Y-110559539D01*
X149893698Y-110516035D01*
X149863806Y-110462118D01*
X149840643Y-110405592D01*
X149827702Y-110354259D01*
X149826142Y-110334544D01*
X149832782Y-110293419D01*
X149850432Y-110242252D01*
X149875703Y-110188394D01*
X149905211Y-110139195D01*
X149931281Y-110106334D01*
X149992235Y-110057452D01*
X150071031Y-110018545D01*
X150164843Y-109990494D01*
X150270850Y-109974179D01*
X150368000Y-109970192D01*
X150449919Y-109974599D01*
X150449919Y-109974599D01*
G37*
X150449919Y-109974599D02*
X150518435Y-109986095D01*
X150571057Y-110003967D01*
X150605292Y-110027499D01*
X150614621Y-110040924D01*
X150624107Y-110072148D01*
X150617723Y-110100395D01*
X150597570Y-110127182D01*
X150566255Y-110139713D01*
X150520817Y-110138696D01*
X150485674Y-110131906D01*
X150407581Y-110118971D01*
X150327774Y-110117742D01*
X150238445Y-110128241D01*
X150213771Y-110132690D01*
X150130709Y-110156108D01*
X150065727Y-110190945D01*
X150019539Y-110236604D01*
X149992855Y-110292494D01*
X149987337Y-110321388D01*
X149990949Y-110380012D01*
X150014271Y-110431879D01*
X150055176Y-110475978D01*
X150111541Y-110511299D01*
X150181240Y-110536829D01*
X150262148Y-110551559D01*
X150352140Y-110554478D01*
X150449090Y-110544575D01*
X150454564Y-110543641D01*
X150493125Y-110536459D01*
X150514506Y-110529521D01*
X150523773Y-110519227D01*
X150525994Y-110501976D01*
X150526044Y-110492841D01*
X150526044Y-110454489D01*
X150457569Y-110454489D01*
X150397100Y-110450347D01*
X150355835Y-110437147D01*
X150331825Y-110413730D01*
X150323123Y-110378936D01*
X150323017Y-110374394D01*
X150328108Y-110344654D01*
X150345567Y-110323419D01*
X150378061Y-110309366D01*
X150428257Y-110301173D01*
X150476877Y-110298161D01*
X150547544Y-110296433D01*
X150598802Y-110299070D01*
X150633761Y-110308800D01*
X150655530Y-110328353D01*
X150667220Y-110360456D01*
X150671940Y-110407838D01*
X150672800Y-110470071D01*
X150671391Y-110539535D01*
X150667152Y-110586786D01*
X150660064Y-110612012D01*
X150658689Y-110613988D01*
X150619772Y-110645508D01*
X150562714Y-110670470D01*
X150491131Y-110688340D01*
X150408642Y-110698586D01*
X150318861Y-110700673D01*
X150225408Y-110694068D01*
X150170444Y-110685956D01*
X150084234Y-110661554D01*
X150004108Y-110621662D01*
X149937023Y-110569887D01*
X149926827Y-110559539D01*
X149893698Y-110516035D01*
X149863806Y-110462118D01*
X149840643Y-110405592D01*
X149827702Y-110354259D01*
X149826142Y-110334544D01*
X149832782Y-110293419D01*
X149850432Y-110242252D01*
X149875703Y-110188394D01*
X149905211Y-110139195D01*
X149931281Y-110106334D01*
X149992235Y-110057452D01*
X150071031Y-110018545D01*
X150164843Y-109990494D01*
X150270850Y-109974179D01*
X150368000Y-109970192D01*
X150449919Y-109974599D01*
G36*
X151099886Y-109973448D02*
X151123452Y-109987273D01*
X151154265Y-110009881D01*
X151193922Y-110042338D01*
X151244020Y-110085708D01*
X151306157Y-110141058D01*
X151381928Y-110209451D01*
X151468666Y-110288084D01*
X151649289Y-110451878D01*
X151654933Y-110232029D01*
X151656971Y-110156351D01*
X151658937Y-110099994D01*
X151661266Y-110059706D01*
X151664394Y-110032235D01*
X151668755Y-110014329D01*
X151674784Y-110002737D01*
X151682916Y-109994208D01*
X151687228Y-109990623D01*
X151721759Y-109971670D01*
X151754617Y-109974441D01*
X151780682Y-109990633D01*
X151807333Y-110012199D01*
X151810648Y-110327151D01*
X151811565Y-110419779D01*
X151812032Y-110492544D01*
X151811887Y-110548161D01*
X151810968Y-110589342D01*
X151809113Y-110618803D01*
X151806161Y-110639255D01*
X151801950Y-110653413D01*
X151796318Y-110663991D01*
X151790073Y-110672474D01*
X151776561Y-110688207D01*
X151763117Y-110698636D01*
X151747876Y-110702639D01*
X151728974Y-110699094D01*
X151704545Y-110686879D01*
X151672727Y-110664871D01*
X151631652Y-110631949D01*
X151579458Y-110586991D01*
X151514278Y-110528875D01*
X151440444Y-110462099D01*
X151175155Y-110221458D01*
X151169511Y-110440589D01*
X151167469Y-110516128D01*
X151165498Y-110572354D01*
X151163161Y-110612524D01*
X151160019Y-110639896D01*
X151155636Y-110657728D01*
X151149576Y-110669279D01*
X151141400Y-110677807D01*
X151137216Y-110681282D01*
X151100235Y-110700372D01*
X151065292Y-110697493D01*
X151034864Y-110673100D01*
X151027903Y-110663286D01*
X151022477Y-110651826D01*
X151018397Y-110635968D01*
X151015471Y-110612963D01*
X151013508Y-110580062D01*
X151012317Y-110534516D01*
X151011708Y-110473573D01*
X151011489Y-110394486D01*
X151011466Y-110335956D01*
X151011540Y-110244407D01*
X151011887Y-110172687D01*
X151012699Y-110118045D01*
X151014167Y-110077732D01*
X151016481Y-110048998D01*
X151019833Y-110029093D01*
X151024412Y-110015268D01*
X151030411Y-110004772D01*
X151034864Y-109998811D01*
X151046150Y-109984691D01*
X151056699Y-109974029D01*
X151068107Y-109967892D01*
X151081970Y-109967343D01*
X151099886Y-109973448D01*
X151099886Y-109973448D01*
G37*
X151099886Y-109973448D02*
X151123452Y-109987273D01*
X151154265Y-110009881D01*
X151193922Y-110042338D01*
X151244020Y-110085708D01*
X151306157Y-110141058D01*
X151381928Y-110209451D01*
X151468666Y-110288084D01*
X151649289Y-110451878D01*
X151654933Y-110232029D01*
X151656971Y-110156351D01*
X151658937Y-110099994D01*
X151661266Y-110059706D01*
X151664394Y-110032235D01*
X151668755Y-110014329D01*
X151674784Y-110002737D01*
X151682916Y-109994208D01*
X151687228Y-109990623D01*
X151721759Y-109971670D01*
X151754617Y-109974441D01*
X151780682Y-109990633D01*
X151807333Y-110012199D01*
X151810648Y-110327151D01*
X151811565Y-110419779D01*
X151812032Y-110492544D01*
X151811887Y-110548161D01*
X151810968Y-110589342D01*
X151809113Y-110618803D01*
X151806161Y-110639255D01*
X151801950Y-110653413D01*
X151796318Y-110663991D01*
X151790073Y-110672474D01*
X151776561Y-110688207D01*
X151763117Y-110698636D01*
X151747876Y-110702639D01*
X151728974Y-110699094D01*
X151704545Y-110686879D01*
X151672727Y-110664871D01*
X151631652Y-110631949D01*
X151579458Y-110586991D01*
X151514278Y-110528875D01*
X151440444Y-110462099D01*
X151175155Y-110221458D01*
X151169511Y-110440589D01*
X151167469Y-110516128D01*
X151165498Y-110572354D01*
X151163161Y-110612524D01*
X151160019Y-110639896D01*
X151155636Y-110657728D01*
X151149576Y-110669279D01*
X151141400Y-110677807D01*
X151137216Y-110681282D01*
X151100235Y-110700372D01*
X151065292Y-110697493D01*
X151034864Y-110673100D01*
X151027903Y-110663286D01*
X151022477Y-110651826D01*
X151018397Y-110635968D01*
X151015471Y-110612963D01*
X151013508Y-110580062D01*
X151012317Y-110534516D01*
X151011708Y-110473573D01*
X151011489Y-110394486D01*
X151011466Y-110335956D01*
X151011540Y-110244407D01*
X151011887Y-110172687D01*
X151012699Y-110118045D01*
X151014167Y-110077732D01*
X151016481Y-110048998D01*
X151019833Y-110029093D01*
X151024412Y-110015268D01*
X151030411Y-110004772D01*
X151034864Y-109998811D01*
X151046150Y-109984691D01*
X151056699Y-109974029D01*
X151068107Y-109967892D01*
X151081970Y-109967343D01*
X151099886Y-109973448D01*
G36*
X152630343Y-109969260D02*
X152706701Y-109970174D01*
X152765217Y-109972311D01*
X152808255Y-109976175D01*
X152838183Y-109982267D01*
X152857368Y-109991090D01*
X152868176Y-110003146D01*
X152872973Y-110018939D01*
X152874127Y-110038970D01*
X152874133Y-110041335D01*
X152873131Y-110063992D01*
X152868396Y-110081503D01*
X152857333Y-110094574D01*
X152837348Y-110103913D01*
X152805846Y-110110227D01*
X152760232Y-110114222D01*
X152697913Y-110116606D01*
X152616293Y-110118086D01*
X152591277Y-110118414D01*
X152349200Y-110121467D01*
X152345814Y-110186378D01*
X152342429Y-110251289D01*
X152510576Y-110251289D01*
X152576266Y-110251531D01*
X152623172Y-110252556D01*
X152655083Y-110254811D01*
X152675791Y-110258742D01*
X152689084Y-110264798D01*
X152698755Y-110273424D01*
X152698817Y-110273493D01*
X152716356Y-110307112D01*
X152715722Y-110343448D01*
X152697314Y-110374423D01*
X152693671Y-110377607D01*
X152680741Y-110385812D01*
X152663024Y-110391521D01*
X152636570Y-110395162D01*
X152597432Y-110397167D01*
X152541662Y-110397964D01*
X152505994Y-110398045D01*
X152343555Y-110398045D01*
X152343555Y-110556089D01*
X152590161Y-110556089D01*
X152671580Y-110556231D01*
X152733410Y-110556814D01*
X152778637Y-110558068D01*
X152810248Y-110560227D01*
X152831231Y-110563523D01*
X152844573Y-110568189D01*
X152853261Y-110574457D01*
X152855450Y-110576733D01*
X152871614Y-110608280D01*
X152872797Y-110644168D01*
X152859536Y-110675285D01*
X152849043Y-110685271D01*
X152838129Y-110690769D01*
X152821217Y-110695022D01*
X152795633Y-110698180D01*
X152758701Y-110700392D01*
X152707746Y-110701806D01*
X152640094Y-110702572D01*
X152553069Y-110702838D01*
X152533394Y-110702845D01*
X152444911Y-110702787D01*
X152376227Y-110702467D01*
X152324564Y-110701667D01*
X152287145Y-110700167D01*
X152261190Y-110697749D01*
X152243922Y-110694194D01*
X152232562Y-110689282D01*
X152224332Y-110682795D01*
X152219817Y-110678138D01*
X152213021Y-110669889D01*
X152207712Y-110659669D01*
X152203706Y-110644800D01*
X152200821Y-110622602D01*
X152198874Y-110590393D01*
X152197681Y-110545496D01*
X152197061Y-110485228D01*
X152196829Y-110406911D01*
X152196800Y-110340994D01*
X152196871Y-110248628D01*
X152197208Y-110176117D01*
X152197998Y-110120737D01*
X152199426Y-110079765D01*
X152201679Y-110050478D01*
X152204943Y-110030153D01*
X152209404Y-110016066D01*
X152215248Y-110005495D01*
X152220197Y-109998811D01*
X152243594Y-109969067D01*
X152533774Y-109969067D01*
X152630343Y-109969260D01*
X152630343Y-109969260D01*
G37*
X152630343Y-109969260D02*
X152706701Y-109970174D01*
X152765217Y-109972311D01*
X152808255Y-109976175D01*
X152838183Y-109982267D01*
X152857368Y-109991090D01*
X152868176Y-110003146D01*
X152872973Y-110018939D01*
X152874127Y-110038970D01*
X152874133Y-110041335D01*
X152873131Y-110063992D01*
X152868396Y-110081503D01*
X152857333Y-110094574D01*
X152837348Y-110103913D01*
X152805846Y-110110227D01*
X152760232Y-110114222D01*
X152697913Y-110116606D01*
X152616293Y-110118086D01*
X152591277Y-110118414D01*
X152349200Y-110121467D01*
X152345814Y-110186378D01*
X152342429Y-110251289D01*
X152510576Y-110251289D01*
X152576266Y-110251531D01*
X152623172Y-110252556D01*
X152655083Y-110254811D01*
X152675791Y-110258742D01*
X152689084Y-110264798D01*
X152698755Y-110273424D01*
X152698817Y-110273493D01*
X152716356Y-110307112D01*
X152715722Y-110343448D01*
X152697314Y-110374423D01*
X152693671Y-110377607D01*
X152680741Y-110385812D01*
X152663024Y-110391521D01*
X152636570Y-110395162D01*
X152597432Y-110397167D01*
X152541662Y-110397964D01*
X152505994Y-110398045D01*
X152343555Y-110398045D01*
X152343555Y-110556089D01*
X152590161Y-110556089D01*
X152671580Y-110556231D01*
X152733410Y-110556814D01*
X152778637Y-110558068D01*
X152810248Y-110560227D01*
X152831231Y-110563523D01*
X152844573Y-110568189D01*
X152853261Y-110574457D01*
X152855450Y-110576733D01*
X152871614Y-110608280D01*
X152872797Y-110644168D01*
X152859536Y-110675285D01*
X152849043Y-110685271D01*
X152838129Y-110690769D01*
X152821217Y-110695022D01*
X152795633Y-110698180D01*
X152758701Y-110700392D01*
X152707746Y-110701806D01*
X152640094Y-110702572D01*
X152553069Y-110702838D01*
X152533394Y-110702845D01*
X152444911Y-110702787D01*
X152376227Y-110702467D01*
X152324564Y-110701667D01*
X152287145Y-110700167D01*
X152261190Y-110697749D01*
X152243922Y-110694194D01*
X152232562Y-110689282D01*
X152224332Y-110682795D01*
X152219817Y-110678138D01*
X152213021Y-110669889D01*
X152207712Y-110659669D01*
X152203706Y-110644800D01*
X152200821Y-110622602D01*
X152198874Y-110590393D01*
X152197681Y-110545496D01*
X152197061Y-110485228D01*
X152196829Y-110406911D01*
X152196800Y-110340994D01*
X152196871Y-110248628D01*
X152197208Y-110176117D01*
X152197998Y-110120737D01*
X152199426Y-110079765D01*
X152201679Y-110050478D01*
X152204943Y-110030153D01*
X152209404Y-110016066D01*
X152215248Y-110005495D01*
X152220197Y-109998811D01*
X152243594Y-109969067D01*
X152533774Y-109969067D01*
X152630343Y-109969260D01*
G36*
X153418309Y-109969275D02*
X153547288Y-109973636D01*
X153656991Y-109986861D01*
X153749226Y-110009741D01*
X153825802Y-110043070D01*
X153888527Y-110087638D01*
X153939212Y-110144236D01*
X153979663Y-110213658D01*
X153980459Y-110215351D01*
X154004601Y-110277483D01*
X154013203Y-110332509D01*
X154006231Y-110387887D01*
X153983654Y-110451073D01*
X153979372Y-110460689D01*
X153950172Y-110516966D01*
X153917356Y-110560451D01*
X153875002Y-110597417D01*
X153817190Y-110634135D01*
X153813831Y-110636052D01*
X153763504Y-110660227D01*
X153706621Y-110678282D01*
X153639527Y-110690839D01*
X153558565Y-110698522D01*
X153460082Y-110701953D01*
X153425286Y-110702251D01*
X153259594Y-110702845D01*
X153236197Y-110673100D01*
X153229257Y-110663319D01*
X153223842Y-110651897D01*
X153219765Y-110636095D01*
X153216837Y-110613175D01*
X153214867Y-110580396D01*
X153214225Y-110556089D01*
X153370844Y-110556089D01*
X153464726Y-110556089D01*
X153519664Y-110554483D01*
X153576060Y-110550255D01*
X153622345Y-110544292D01*
X153625139Y-110543790D01*
X153707348Y-110521736D01*
X153771114Y-110488600D01*
X153818452Y-110442847D01*
X153851382Y-110382939D01*
X153857108Y-110367061D01*
X153862721Y-110342333D01*
X153860291Y-110317902D01*
X153848467Y-110285400D01*
X153841340Y-110269434D01*
X153818000Y-110227006D01*
X153789880Y-110197240D01*
X153758940Y-110176511D01*
X153696966Y-110149537D01*
X153617651Y-110129998D01*
X153525253Y-110118746D01*
X153458333Y-110116270D01*
X153370844Y-110115822D01*
X153370844Y-110556089D01*
X153214225Y-110556089D01*
X153213668Y-110535021D01*
X153213050Y-110474311D01*
X153212825Y-110395526D01*
X153212800Y-110333920D01*
X153212800Y-110024485D01*
X153240509Y-109996776D01*
X153252806Y-109985544D01*
X153266103Y-109977853D01*
X153284672Y-109973040D01*
X153312786Y-109970446D01*
X153354717Y-109969410D01*
X153414737Y-109969270D01*
X153418309Y-109969275D01*
X153418309Y-109969275D01*
G37*
X153418309Y-109969275D02*
X153547288Y-109973636D01*
X153656991Y-109986861D01*
X153749226Y-110009741D01*
X153825802Y-110043070D01*
X153888527Y-110087638D01*
X153939212Y-110144236D01*
X153979663Y-110213658D01*
X153980459Y-110215351D01*
X154004601Y-110277483D01*
X154013203Y-110332509D01*
X154006231Y-110387887D01*
X153983654Y-110451073D01*
X153979372Y-110460689D01*
X153950172Y-110516966D01*
X153917356Y-110560451D01*
X153875002Y-110597417D01*
X153817190Y-110634135D01*
X153813831Y-110636052D01*
X153763504Y-110660227D01*
X153706621Y-110678282D01*
X153639527Y-110690839D01*
X153558565Y-110698522D01*
X153460082Y-110701953D01*
X153425286Y-110702251D01*
X153259594Y-110702845D01*
X153236197Y-110673100D01*
X153229257Y-110663319D01*
X153223842Y-110651897D01*
X153219765Y-110636095D01*
X153216837Y-110613175D01*
X153214867Y-110580396D01*
X153214225Y-110556089D01*
X153370844Y-110556089D01*
X153464726Y-110556089D01*
X153519664Y-110554483D01*
X153576060Y-110550255D01*
X153622345Y-110544292D01*
X153625139Y-110543790D01*
X153707348Y-110521736D01*
X153771114Y-110488600D01*
X153818452Y-110442847D01*
X153851382Y-110382939D01*
X153857108Y-110367061D01*
X153862721Y-110342333D01*
X153860291Y-110317902D01*
X153848467Y-110285400D01*
X153841340Y-110269434D01*
X153818000Y-110227006D01*
X153789880Y-110197240D01*
X153758940Y-110176511D01*
X153696966Y-110149537D01*
X153617651Y-110129998D01*
X153525253Y-110118746D01*
X153458333Y-110116270D01*
X153370844Y-110115822D01*
X153370844Y-110556089D01*
X153214225Y-110556089D01*
X153213668Y-110535021D01*
X153213050Y-110474311D01*
X153212825Y-110395526D01*
X153212800Y-110333920D01*
X153212800Y-110024485D01*
X153240509Y-109996776D01*
X153252806Y-109985544D01*
X153266103Y-109977853D01*
X153284672Y-109973040D01*
X153312786Y-109970446D01*
X153354717Y-109969410D01*
X153414737Y-109969270D01*
X153418309Y-109969275D01*
G36*
X156144665Y-109971034D02*
X156164255Y-109978035D01*
X156165010Y-109978377D01*
X156191613Y-109998678D01*
X156206270Y-110019561D01*
X156209138Y-110029352D01*
X156208996Y-110042361D01*
X156204961Y-110060895D01*
X156196146Y-110087257D01*
X156181669Y-110123752D01*
X156160645Y-110172687D01*
X156132188Y-110236365D01*
X156095415Y-110317093D01*
X156075175Y-110361216D01*
X156038625Y-110439985D01*
X156004315Y-110512423D01*
X155973552Y-110575880D01*
X155947648Y-110627708D01*
X155927910Y-110665259D01*
X155915650Y-110685884D01*
X155913224Y-110688733D01*
X155882183Y-110701302D01*
X155847121Y-110699619D01*
X155819000Y-110684332D01*
X155817854Y-110683089D01*
X155806668Y-110666154D01*
X155787904Y-110633170D01*
X155763875Y-110588380D01*
X155736897Y-110536032D01*
X155727201Y-110516742D01*
X155654014Y-110370150D01*
X155574240Y-110529393D01*
X155545767Y-110584415D01*
X155519350Y-110632132D01*
X155497148Y-110668893D01*
X155481319Y-110691044D01*
X155475954Y-110695741D01*
X155434257Y-110702102D01*
X155399849Y-110688733D01*
X155389728Y-110674446D01*
X155372214Y-110642692D01*
X155348735Y-110596597D01*
X155320720Y-110539285D01*
X155289599Y-110473880D01*
X155256799Y-110403507D01*
X155223750Y-110331291D01*
X155191881Y-110260355D01*
X155162619Y-110193825D01*
X155137395Y-110134826D01*
X155117636Y-110086481D01*
X155104772Y-110051915D01*
X155100231Y-110034253D01*
X155100277Y-110033613D01*
X155111326Y-110011388D01*
X155133410Y-109988753D01*
X155134710Y-109987768D01*
X155161853Y-109972425D01*
X155186958Y-109972574D01*
X155196368Y-109975466D01*
X155207834Y-109981718D01*
X155220010Y-109994014D01*
X155234357Y-110014908D01*
X155252336Y-110046949D01*
X155275407Y-110092688D01*
X155305030Y-110154677D01*
X155331745Y-110211898D01*
X155362480Y-110278226D01*
X155390021Y-110337874D01*
X155412938Y-110387725D01*
X155429798Y-110424664D01*
X155439173Y-110445573D01*
X155440540Y-110448845D01*
X155446689Y-110443497D01*
X155460822Y-110421109D01*
X155481057Y-110384946D01*
X155505515Y-110338277D01*
X155515248Y-110319022D01*
X155548217Y-110254004D01*
X155573643Y-110206654D01*
X155593612Y-110174219D01*
X155610210Y-110153946D01*
X155625524Y-110143082D01*
X155641640Y-110138875D01*
X155652143Y-110138400D01*
X155670670Y-110140042D01*
X155686904Y-110146831D01*
X155703035Y-110161566D01*
X155721251Y-110187044D01*
X155743739Y-110226061D01*
X155772689Y-110281414D01*
X155788662Y-110312903D01*
X155814570Y-110363087D01*
X155837167Y-110404704D01*
X155854458Y-110434242D01*
X155864450Y-110448189D01*
X155865809Y-110448770D01*
X155872261Y-110437793D01*
X155886708Y-110409290D01*
X155907703Y-110366244D01*
X155933797Y-110311638D01*
X155963546Y-110248454D01*
X155978180Y-110217071D01*
X156016250Y-110136078D01*
X156046905Y-110073756D01*
X156071737Y-110028071D01*
X156092337Y-109996989D01*
X156110298Y-109978478D01*
X156127210Y-109970504D01*
X156144665Y-109971034D01*
X156144665Y-109971034D01*
G37*
X156144665Y-109971034D02*
X156164255Y-109978035D01*
X156165010Y-109978377D01*
X156191613Y-109998678D01*
X156206270Y-110019561D01*
X156209138Y-110029352D01*
X156208996Y-110042361D01*
X156204961Y-110060895D01*
X156196146Y-110087257D01*
X156181669Y-110123752D01*
X156160645Y-110172687D01*
X156132188Y-110236365D01*
X156095415Y-110317093D01*
X156075175Y-110361216D01*
X156038625Y-110439985D01*
X156004315Y-110512423D01*
X155973552Y-110575880D01*
X155947648Y-110627708D01*
X155927910Y-110665259D01*
X155915650Y-110685884D01*
X155913224Y-110688733D01*
X155882183Y-110701302D01*
X155847121Y-110699619D01*
X155819000Y-110684332D01*
X155817854Y-110683089D01*
X155806668Y-110666154D01*
X155787904Y-110633170D01*
X155763875Y-110588380D01*
X155736897Y-110536032D01*
X155727201Y-110516742D01*
X155654014Y-110370150D01*
X155574240Y-110529393D01*
X155545767Y-110584415D01*
X155519350Y-110632132D01*
X155497148Y-110668893D01*
X155481319Y-110691044D01*
X155475954Y-110695741D01*
X155434257Y-110702102D01*
X155399849Y-110688733D01*
X155389728Y-110674446D01*
X155372214Y-110642692D01*
X155348735Y-110596597D01*
X155320720Y-110539285D01*
X155289599Y-110473880D01*
X155256799Y-110403507D01*
X155223750Y-110331291D01*
X155191881Y-110260355D01*
X155162619Y-110193825D01*
X155137395Y-110134826D01*
X155117636Y-110086481D01*
X155104772Y-110051915D01*
X155100231Y-110034253D01*
X155100277Y-110033613D01*
X155111326Y-110011388D01*
X155133410Y-109988753D01*
X155134710Y-109987768D01*
X155161853Y-109972425D01*
X155186958Y-109972574D01*
X155196368Y-109975466D01*
X155207834Y-109981718D01*
X155220010Y-109994014D01*
X155234357Y-110014908D01*
X155252336Y-110046949D01*
X155275407Y-110092688D01*
X155305030Y-110154677D01*
X155331745Y-110211898D01*
X155362480Y-110278226D01*
X155390021Y-110337874D01*
X155412938Y-110387725D01*
X155429798Y-110424664D01*
X155439173Y-110445573D01*
X155440540Y-110448845D01*
X155446689Y-110443497D01*
X155460822Y-110421109D01*
X155481057Y-110384946D01*
X155505515Y-110338277D01*
X155515248Y-110319022D01*
X155548217Y-110254004D01*
X155573643Y-110206654D01*
X155593612Y-110174219D01*
X155610210Y-110153946D01*
X155625524Y-110143082D01*
X155641640Y-110138875D01*
X155652143Y-110138400D01*
X155670670Y-110140042D01*
X155686904Y-110146831D01*
X155703035Y-110161566D01*
X155721251Y-110187044D01*
X155743739Y-110226061D01*
X155772689Y-110281414D01*
X155788662Y-110312903D01*
X155814570Y-110363087D01*
X155837167Y-110404704D01*
X155854458Y-110434242D01*
X155864450Y-110448189D01*
X155865809Y-110448770D01*
X155872261Y-110437793D01*
X155886708Y-110409290D01*
X155907703Y-110366244D01*
X155933797Y-110311638D01*
X155963546Y-110248454D01*
X155978180Y-110217071D01*
X156016250Y-110136078D01*
X156046905Y-110073756D01*
X156071737Y-110028071D01*
X156092337Y-109996989D01*
X156110298Y-109978478D01*
X156127210Y-109970504D01*
X156144665Y-109971034D01*
G36*
X156588614Y-109975877D02*
X156612327Y-109990647D01*
X156638978Y-110012227D01*
X156638978Y-110333773D01*
X156638893Y-110427830D01*
X156638529Y-110501932D01*
X156637724Y-110558704D01*
X156636313Y-110600768D01*
X156634133Y-110630748D01*
X156631021Y-110651267D01*
X156626814Y-110664949D01*
X156621348Y-110674416D01*
X156617472Y-110679082D01*
X156586034Y-110699575D01*
X156550233Y-110698739D01*
X156518873Y-110681264D01*
X156492222Y-110659684D01*
X156492222Y-110012227D01*
X156518873Y-109990647D01*
X156544594Y-109974949D01*
X156565600Y-109969067D01*
X156588614Y-109975877D01*
X156588614Y-109975877D01*
G37*
X156588614Y-109975877D02*
X156612327Y-109990647D01*
X156638978Y-110012227D01*
X156638978Y-110333773D01*
X156638893Y-110427830D01*
X156638529Y-110501932D01*
X156637724Y-110558704D01*
X156636313Y-110600768D01*
X156634133Y-110630748D01*
X156631021Y-110651267D01*
X156626814Y-110664949D01*
X156621348Y-110674416D01*
X156617472Y-110679082D01*
X156586034Y-110699575D01*
X156550233Y-110698739D01*
X156518873Y-110681264D01*
X156492222Y-110659684D01*
X156492222Y-110012227D01*
X156518873Y-109990647D01*
X156544594Y-109974949D01*
X156565600Y-109969067D01*
X156588614Y-109975877D01*
G36*
X157363065Y-109969163D02*
X157441772Y-109969542D01*
X157502863Y-109970333D01*
X157548817Y-109971670D01*
X157582114Y-109973683D01*
X157605236Y-109976506D01*
X157620662Y-109980269D01*
X157630871Y-109985105D01*
X157635813Y-109988822D01*
X157661457Y-110021358D01*
X157664559Y-110055138D01*
X157648711Y-110085826D01*
X157638348Y-110098089D01*
X157627196Y-110106450D01*
X157611035Y-110111657D01*
X157585642Y-110114457D01*
X157546798Y-110115596D01*
X157490280Y-110115821D01*
X157479180Y-110115822D01*
X157333244Y-110115822D01*
X157333244Y-110386756D01*
X157333148Y-110472154D01*
X157332711Y-110537864D01*
X157331712Y-110586774D01*
X157329928Y-110621773D01*
X157327137Y-110645749D01*
X157323117Y-110661593D01*
X157317645Y-110672191D01*
X157310666Y-110680267D01*
X157277734Y-110700112D01*
X157243354Y-110698548D01*
X157212176Y-110675906D01*
X157209886Y-110673100D01*
X157202429Y-110662492D01*
X157196747Y-110650081D01*
X157192601Y-110632850D01*
X157189750Y-110607784D01*
X157187954Y-110571867D01*
X157186972Y-110522083D01*
X157186564Y-110455417D01*
X157186489Y-110379589D01*
X157186489Y-110115822D01*
X157047127Y-110115822D01*
X156987322Y-110115418D01*
X156945918Y-110113840D01*
X156918748Y-110110547D01*
X156901646Y-110104992D01*
X156890443Y-110096631D01*
X156889083Y-110095178D01*
X156872725Y-110061939D01*
X156874172Y-110024362D01*
X156892978Y-109991645D01*
X156900250Y-109985298D01*
X156909627Y-109980266D01*
X156923609Y-109976396D01*
X156944696Y-109973537D01*
X156975389Y-109971535D01*
X157018189Y-109970239D01*
X157075595Y-109969498D01*
X157150110Y-109969158D01*
X157244233Y-109969068D01*
X157264260Y-109969067D01*
X157363065Y-109969163D01*
X157363065Y-109969163D01*
G37*
X157363065Y-109969163D02*
X157441772Y-109969542D01*
X157502863Y-109970333D01*
X157548817Y-109971670D01*
X157582114Y-109973683D01*
X157605236Y-109976506D01*
X157620662Y-109980269D01*
X157630871Y-109985105D01*
X157635813Y-109988822D01*
X157661457Y-110021358D01*
X157664559Y-110055138D01*
X157648711Y-110085826D01*
X157638348Y-110098089D01*
X157627196Y-110106450D01*
X157611035Y-110111657D01*
X157585642Y-110114457D01*
X157546798Y-110115596D01*
X157490280Y-110115821D01*
X157479180Y-110115822D01*
X157333244Y-110115822D01*
X157333244Y-110386756D01*
X157333148Y-110472154D01*
X157332711Y-110537864D01*
X157331712Y-110586774D01*
X157329928Y-110621773D01*
X157327137Y-110645749D01*
X157323117Y-110661593D01*
X157317645Y-110672191D01*
X157310666Y-110680267D01*
X157277734Y-110700112D01*
X157243354Y-110698548D01*
X157212176Y-110675906D01*
X157209886Y-110673100D01*
X157202429Y-110662492D01*
X157196747Y-110650081D01*
X157192601Y-110632850D01*
X157189750Y-110607784D01*
X157187954Y-110571867D01*
X157186972Y-110522083D01*
X157186564Y-110455417D01*
X157186489Y-110379589D01*
X157186489Y-110115822D01*
X157047127Y-110115822D01*
X156987322Y-110115418D01*
X156945918Y-110113840D01*
X156918748Y-110110547D01*
X156901646Y-110104992D01*
X156890443Y-110096631D01*
X156889083Y-110095178D01*
X156872725Y-110061939D01*
X156874172Y-110024362D01*
X156892978Y-109991645D01*
X156900250Y-109985298D01*
X156909627Y-109980266D01*
X156923609Y-109976396D01*
X156944696Y-109973537D01*
X156975389Y-109971535D01*
X157018189Y-109970239D01*
X157075595Y-109969498D01*
X157150110Y-109969158D01*
X157244233Y-109969068D01*
X157264260Y-109969067D01*
X157363065Y-109969163D01*
G36*
X158628823Y-109974533D02*
X158660202Y-109996776D01*
X158687911Y-110024485D01*
X158687911Y-110333920D01*
X158687838Y-110425799D01*
X158687495Y-110497840D01*
X158686692Y-110552780D01*
X158685241Y-110593360D01*
X158682952Y-110622317D01*
X158679636Y-110642391D01*
X158675105Y-110656321D01*
X158669169Y-110666845D01*
X158664514Y-110673100D01*
X158633783Y-110697673D01*
X158598496Y-110700341D01*
X158566245Y-110685271D01*
X158555588Y-110676374D01*
X158548464Y-110664557D01*
X158544167Y-110645526D01*
X158541991Y-110614992D01*
X158541228Y-110568662D01*
X158541155Y-110532871D01*
X158541155Y-110398045D01*
X158044444Y-110398045D01*
X158044444Y-110520700D01*
X158043931Y-110576787D01*
X158041876Y-110615333D01*
X158037508Y-110641361D01*
X158030056Y-110659897D01*
X158021047Y-110673100D01*
X157990144Y-110697604D01*
X157955196Y-110700506D01*
X157921738Y-110683089D01*
X157912604Y-110673959D01*
X157906152Y-110661855D01*
X157901897Y-110643001D01*
X157899352Y-110613620D01*
X157898029Y-110569937D01*
X157897443Y-110508175D01*
X157897375Y-110494000D01*
X157896891Y-110377631D01*
X157896641Y-110281727D01*
X157896723Y-110204177D01*
X157897231Y-110142869D01*
X157898262Y-110095690D01*
X157899913Y-110060530D01*
X157902279Y-110035276D01*
X157905457Y-110017817D01*
X157909544Y-110006041D01*
X157914634Y-109997835D01*
X157920266Y-109991645D01*
X157952128Y-109971844D01*
X157985357Y-109974533D01*
X158016735Y-109996776D01*
X158029433Y-110011126D01*
X158037526Y-110026978D01*
X158042042Y-110049554D01*
X158044006Y-110084078D01*
X158044444Y-110135776D01*
X158044444Y-110251289D01*
X158541155Y-110251289D01*
X158541155Y-110132756D01*
X158541662Y-110078148D01*
X158543698Y-110041275D01*
X158548035Y-110017307D01*
X158555447Y-110001415D01*
X158563733Y-109991645D01*
X158595594Y-109971844D01*
X158628823Y-109974533D01*
X158628823Y-109974533D01*
G37*
X158628823Y-109974533D02*
X158660202Y-109996776D01*
X158687911Y-110024485D01*
X158687911Y-110333920D01*
X158687838Y-110425799D01*
X158687495Y-110497840D01*
X158686692Y-110552780D01*
X158685241Y-110593360D01*
X158682952Y-110622317D01*
X158679636Y-110642391D01*
X158675105Y-110656321D01*
X158669169Y-110666845D01*
X158664514Y-110673100D01*
X158633783Y-110697673D01*
X158598496Y-110700341D01*
X158566245Y-110685271D01*
X158555588Y-110676374D01*
X158548464Y-110664557D01*
X158544167Y-110645526D01*
X158541991Y-110614992D01*
X158541228Y-110568662D01*
X158541155Y-110532871D01*
X158541155Y-110398045D01*
X158044444Y-110398045D01*
X158044444Y-110520700D01*
X158043931Y-110576787D01*
X158041876Y-110615333D01*
X158037508Y-110641361D01*
X158030056Y-110659897D01*
X158021047Y-110673100D01*
X157990144Y-110697604D01*
X157955196Y-110700506D01*
X157921738Y-110683089D01*
X157912604Y-110673959D01*
X157906152Y-110661855D01*
X157901897Y-110643001D01*
X157899352Y-110613620D01*
X157898029Y-110569937D01*
X157897443Y-110508175D01*
X157897375Y-110494000D01*
X157896891Y-110377631D01*
X157896641Y-110281727D01*
X157896723Y-110204177D01*
X157897231Y-110142869D01*
X157898262Y-110095690D01*
X157899913Y-110060530D01*
X157902279Y-110035276D01*
X157905457Y-110017817D01*
X157909544Y-110006041D01*
X157914634Y-109997835D01*
X157920266Y-109991645D01*
X157952128Y-109971844D01*
X157985357Y-109974533D01*
X158016735Y-109996776D01*
X158029433Y-110011126D01*
X158037526Y-110026978D01*
X158042042Y-110049554D01*
X158044006Y-110084078D01*
X158044444Y-110135776D01*
X158044444Y-110251289D01*
X158541155Y-110251289D01*
X158541155Y-110132756D01*
X158541662Y-110078148D01*
X158543698Y-110041275D01*
X158548035Y-110017307D01*
X158555447Y-110001415D01*
X158563733Y-109991645D01*
X158595594Y-109971844D01*
X158628823Y-109974533D01*
G36*
X149453600Y-105189054D02*
X149464465Y-105302993D01*
X149496082Y-105410616D01*
X149546985Y-105509615D01*
X149615707Y-105597684D01*
X149700781Y-105672516D01*
X149797768Y-105730384D01*
X149904036Y-105770005D01*
X150011050Y-105788573D01*
X150116700Y-105787434D01*
X150218875Y-105767930D01*
X150315466Y-105731406D01*
X150404362Y-105679205D01*
X150483454Y-105612673D01*
X150550631Y-105533152D01*
X150603783Y-105441987D01*
X150640801Y-105340523D01*
X150659573Y-105230102D01*
X150661511Y-105180206D01*
X150661511Y-105092267D01*
X150713440Y-105092267D01*
X150749747Y-105095111D01*
X150776645Y-105106911D01*
X150803751Y-105130649D01*
X150842133Y-105169031D01*
X150842133Y-107360602D01*
X150842124Y-107622739D01*
X150842092Y-107863241D01*
X150842028Y-108083048D01*
X150841924Y-108283101D01*
X150841773Y-108464344D01*
X150841566Y-108627716D01*
X150841294Y-108774160D01*
X150840950Y-108904617D01*
X150840526Y-109020029D01*
X150840013Y-109121338D01*
X150839403Y-109209484D01*
X150838688Y-109285410D01*
X150837860Y-109350057D01*
X150836911Y-109404367D01*
X150835833Y-109449280D01*
X150834617Y-109485740D01*
X150833255Y-109514687D01*
X150831739Y-109537063D01*
X150830062Y-109553809D01*
X150828214Y-109565868D01*
X150826187Y-109574180D01*
X150823975Y-109579687D01*
X150822892Y-109581537D01*
X150818729Y-109588549D01*
X150815195Y-109594996D01*
X150811365Y-109600900D01*
X150806318Y-109606286D01*
X150799129Y-109611178D01*
X150788877Y-109615598D01*
X150774636Y-109619572D01*
X150755486Y-109623121D01*
X150730501Y-109626270D01*
X150698760Y-109629042D01*
X150659338Y-109631461D01*
X150611314Y-109633551D01*
X150553763Y-109635335D01*
X150485763Y-109636837D01*
X150406390Y-109638080D01*
X150314721Y-109639089D01*
X150209834Y-109639885D01*
X150090804Y-109640494D01*
X149956710Y-109640939D01*
X149806627Y-109641243D01*
X149639633Y-109641430D01*
X149454804Y-109641524D01*
X149251217Y-109641548D01*
X149027950Y-109641525D01*
X148784078Y-109641480D01*
X148518679Y-109641437D01*
X148480296Y-109641432D01*
X148213318Y-109641389D01*
X147967998Y-109641318D01*
X147743417Y-109641213D01*
X147538655Y-109641066D01*
X147352794Y-109640869D01*
X147184912Y-109640616D01*
X147034092Y-109640300D01*
X146899413Y-109639913D01*
X146779956Y-109639447D01*
X146674801Y-109638897D01*
X146583029Y-109638253D01*
X146503721Y-109637511D01*
X146435957Y-109636661D01*
X146378818Y-109635697D01*
X146331383Y-109634611D01*
X146292734Y-109633397D01*
X146261951Y-109632047D01*
X146238115Y-109630555D01*
X146220306Y-109628911D01*
X146207605Y-109627111D01*
X146199092Y-109625145D01*
X146194734Y-109623477D01*
X146186272Y-109619906D01*
X146178503Y-109617270D01*
X146171398Y-109614634D01*
X146164927Y-109611062D01*
X146159061Y-109605621D01*
X146153771Y-109597375D01*
X146149026Y-109585390D01*
X146144798Y-109568731D01*
X146141057Y-109546463D01*
X146137773Y-109517652D01*
X146134917Y-109481363D01*
X146132460Y-109436661D01*
X146130371Y-109382611D01*
X146128622Y-109318279D01*
X146127183Y-109242730D01*
X146126024Y-109155030D01*
X146125117Y-109054243D01*
X146124431Y-108939434D01*
X146123937Y-108809670D01*
X146123605Y-108664015D01*
X146123407Y-108501535D01*
X146123313Y-108321295D01*
X146123292Y-108122360D01*
X146123315Y-107903796D01*
X146123354Y-107664668D01*
X146123378Y-107404040D01*
X146123378Y-107361889D01*
X146123364Y-107098992D01*
X146123339Y-106857732D01*
X146123329Y-106637165D01*
X146123358Y-106436352D01*
X146123452Y-106254349D01*
X146123638Y-106090216D01*
X146123941Y-105943011D01*
X146124386Y-105811792D01*
X146124966Y-105701867D01*
X146427803Y-105701867D01*
X146467593Y-105759711D01*
X146478764Y-105775479D01*
X146488834Y-105789441D01*
X146497862Y-105802784D01*
X146505903Y-105816693D01*
X146513014Y-105832356D01*
X146519253Y-105850958D01*
X146524675Y-105873686D01*
X146529338Y-105901727D01*
X146533299Y-105936267D01*
X146536615Y-105978492D01*
X146539341Y-106029589D01*
X146541536Y-106090744D01*
X146543255Y-106163144D01*
X146544556Y-106247975D01*
X146545495Y-106346422D01*
X146546130Y-106459674D01*
X146546516Y-106588916D01*
X146546712Y-106735334D01*
X146546773Y-106900116D01*
X146546757Y-107084447D01*
X146546720Y-107289513D01*
X146546711Y-107412133D01*
X146546735Y-107629082D01*
X146546769Y-107824642D01*
X146546757Y-107999999D01*
X146546642Y-108156341D01*
X146546370Y-108294857D01*
X146545882Y-108416734D01*
X146545124Y-108523160D01*
X146544038Y-108615322D01*
X146542569Y-108694409D01*
X146540660Y-108761608D01*
X146538256Y-108818107D01*
X146535299Y-108865093D01*
X146531734Y-108903755D01*
X146527505Y-108935280D01*
X146522554Y-108960855D01*
X146516827Y-108981670D01*
X146510267Y-108998911D01*
X146502817Y-109013765D01*
X146494421Y-109027422D01*
X146485024Y-109041069D01*
X146474568Y-109055893D01*
X146468477Y-109064783D01*
X146429704Y-109122400D01*
X146961268Y-109122400D01*
X147084517Y-109122365D01*
X147187013Y-109122215D01*
X147270580Y-109121878D01*
X147337044Y-109121286D01*
X147388229Y-109120367D01*
X147425959Y-109119051D01*
X147452060Y-109117269D01*
X147468356Y-109114951D01*
X147476672Y-109112026D01*
X147478832Y-109108424D01*
X147476661Y-109104075D01*
X147475465Y-109102645D01*
X147450315Y-109065573D01*
X147424417Y-109012772D01*
X147400808Y-108950770D01*
X147392539Y-108924357D01*
X147387922Y-108906416D01*
X147384021Y-108885355D01*
X147380752Y-108859089D01*
X147378034Y-108825532D01*
X147375785Y-108782599D01*
X147373923Y-108728204D01*
X147372364Y-108660262D01*
X147371028Y-108576688D01*
X147369831Y-108475395D01*
X147368692Y-108354300D01*
X147368315Y-108309600D01*
X147367298Y-108184449D01*
X147366540Y-108080082D01*
X147366097Y-107994707D01*
X147366030Y-107926533D01*
X147366395Y-107873765D01*
X147367252Y-107834614D01*
X147368659Y-107807285D01*
X147370675Y-107789986D01*
X147373357Y-107780926D01*
X147376764Y-107778312D01*
X147380956Y-107780351D01*
X147385429Y-107784667D01*
X147395784Y-107797602D01*
X147417842Y-107826676D01*
X147450043Y-107869759D01*
X147490826Y-107924718D01*
X147538630Y-107989423D01*
X147591895Y-108061742D01*
X147649060Y-108139544D01*
X147708563Y-108220698D01*
X147768845Y-108303072D01*
X147828345Y-108384536D01*
X147885502Y-108462957D01*
X147938755Y-108536204D01*
X147986543Y-108602147D01*
X148027307Y-108658654D01*
X148059484Y-108703593D01*
X148081515Y-108734834D01*
X148086083Y-108741466D01*
X148109004Y-108778369D01*
X148135812Y-108826359D01*
X148161211Y-108875897D01*
X148164432Y-108882577D01*
X148186110Y-108930772D01*
X148198696Y-108968334D01*
X148204426Y-109004160D01*
X148205544Y-109046200D01*
X148204910Y-109122400D01*
X149359349Y-109122400D01*
X149268185Y-109028669D01*
X149221388Y-108978775D01*
X149171101Y-108922295D01*
X149125056Y-108868026D01*
X149104631Y-108842673D01*
X149074193Y-108803128D01*
X149034138Y-108749916D01*
X148985639Y-108684667D01*
X148929865Y-108609011D01*
X148867989Y-108524577D01*
X148801181Y-108432994D01*
X148730613Y-108335892D01*
X148657455Y-108234901D01*
X148582879Y-108131650D01*
X148508056Y-108027768D01*
X148434157Y-107924885D01*
X148362354Y-107824631D01*
X148293816Y-107728636D01*
X148229716Y-107638527D01*
X148171225Y-107555936D01*
X148119514Y-107482492D01*
X148075753Y-107419824D01*
X148041115Y-107369561D01*
X148016770Y-107333334D01*
X148003889Y-107312771D01*
X148002131Y-107308668D01*
X148010090Y-107297342D01*
X148030885Y-107270162D01*
X148063153Y-107228829D01*
X148105530Y-107175044D01*
X148156653Y-107110506D01*
X148215159Y-107036918D01*
X148279686Y-106955978D01*
X148348869Y-106869388D01*
X148421347Y-106778848D01*
X148495754Y-106686060D01*
X148555483Y-106611702D01*
X149566489Y-106611702D01*
X149572398Y-106624659D01*
X149586728Y-106646908D01*
X149587775Y-106648391D01*
X149606562Y-106678544D01*
X149626209Y-106715375D01*
X149630108Y-106723511D01*
X149633644Y-106731940D01*
X149636770Y-106742059D01*
X149639514Y-106755260D01*
X149641908Y-106772938D01*
X149643981Y-106796484D01*
X149645765Y-106827293D01*
X149647288Y-106866757D01*
X149648581Y-106916269D01*
X149649674Y-106977223D01*
X149650597Y-107051011D01*
X149651381Y-107139028D01*
X149652055Y-107242665D01*
X149652650Y-107363316D01*
X149653195Y-107502374D01*
X149653721Y-107661232D01*
X149654255Y-107840089D01*
X149654794Y-108025207D01*
X149655228Y-108189145D01*
X149655491Y-108333303D01*
X149655516Y-108459079D01*
X149655235Y-108567871D01*
X149654581Y-108661077D01*
X149653486Y-108740097D01*
X149651882Y-108806328D01*
X149649703Y-108861170D01*
X149646881Y-108906021D01*
X149643349Y-108942278D01*
X149639039Y-108971341D01*
X149633883Y-108994609D01*
X149627815Y-109013479D01*
X149620767Y-109029351D01*
X149612671Y-109043622D01*
X149603460Y-109057691D01*
X149594960Y-109070158D01*
X149577824Y-109096452D01*
X149567678Y-109114037D01*
X149566489Y-109117257D01*
X149577396Y-109118334D01*
X149608589Y-109119335D01*
X149657777Y-109120235D01*
X149722667Y-109121010D01*
X149800970Y-109121637D01*
X149890393Y-109122091D01*
X149988644Y-109122349D01*
X150057555Y-109122400D01*
X150162548Y-109122180D01*
X150259390Y-109121548D01*
X150345893Y-109120549D01*
X150419868Y-109119227D01*
X150479126Y-109117626D01*
X150521480Y-109115791D01*
X150544740Y-109113765D01*
X150548622Y-109112493D01*
X150540924Y-109097591D01*
X150532926Y-109089560D01*
X150519754Y-109072434D01*
X150502515Y-109042183D01*
X150490593Y-109017622D01*
X150463955Y-108958711D01*
X150460880Y-107781845D01*
X150457805Y-106604978D01*
X150012147Y-106604978D01*
X149914330Y-106605142D01*
X149823936Y-106605611D01*
X149743370Y-106606347D01*
X149675038Y-106607316D01*
X149621344Y-106608480D01*
X149584695Y-106609803D01*
X149567496Y-106611249D01*
X149566489Y-106611702D01*
X148555483Y-106611702D01*
X148570730Y-106592722D01*
X148644910Y-106500537D01*
X148716931Y-106411204D01*
X148785431Y-106326424D01*
X148849045Y-106247898D01*
X148906412Y-106177326D01*
X148956167Y-106116409D01*
X148996948Y-106066847D01*
X149014112Y-106046178D01*
X149100404Y-105945516D01*
X149177003Y-105862259D01*
X149245817Y-105794438D01*
X149308752Y-105740089D01*
X149318133Y-105732722D01*
X149357644Y-105702117D01*
X148225884Y-105701867D01*
X148231173Y-105749844D01*
X148227870Y-105807188D01*
X148206339Y-105875463D01*
X148166365Y-105955212D01*
X148121057Y-106027495D01*
X148104839Y-106050140D01*
X148076786Y-106087696D01*
X148038570Y-106138021D01*
X147991863Y-106198973D01*
X147938339Y-106268411D01*
X147879669Y-106344194D01*
X147817525Y-106424180D01*
X147753579Y-106506228D01*
X147689505Y-106588196D01*
X147626973Y-106667943D01*
X147567657Y-106743327D01*
X147513229Y-106812207D01*
X147465361Y-106872442D01*
X147425725Y-106921889D01*
X147395994Y-106958408D01*
X147377839Y-106979858D01*
X147374780Y-106983156D01*
X147371921Y-106975149D01*
X147369707Y-106944855D01*
X147368143Y-106892556D01*
X147367233Y-106818531D01*
X147366980Y-106723063D01*
X147367387Y-106606434D01*
X147368296Y-106486445D01*
X147369618Y-106354333D01*
X147371143Y-106242594D01*
X147373119Y-106149025D01*
X147375794Y-106071419D01*
X147379418Y-106007574D01*
X147384239Y-105955283D01*
X147390506Y-105912344D01*
X147398468Y-105876551D01*
X147408373Y-105845700D01*
X147420469Y-105817586D01*
X147435007Y-105790005D01*
X147449689Y-105764966D01*
X147487686Y-105701867D01*
X146427803Y-105701867D01*
X146124966Y-105701867D01*
X146124999Y-105695617D01*
X146125805Y-105593544D01*
X146126830Y-105504633D01*
X146128100Y-105427941D01*
X146129640Y-105362527D01*
X146131476Y-105307449D01*
X146133633Y-105261765D01*
X146136137Y-105224534D01*
X146139013Y-105194813D01*
X146142287Y-105171662D01*
X146145985Y-105154139D01*
X146150131Y-105141301D01*
X146154753Y-105132208D01*
X146159874Y-105125918D01*
X146165522Y-105121488D01*
X146171721Y-105117978D01*
X146178496Y-105114445D01*
X146184492Y-105110876D01*
X146189725Y-105108300D01*
X146197901Y-105105972D01*
X146210114Y-105103878D01*
X146227459Y-105102007D01*
X146251031Y-105100347D01*
X146281923Y-105098884D01*
X146321232Y-105097608D01*
X146370050Y-105096504D01*
X146429473Y-105095561D01*
X146500596Y-105094767D01*
X146584512Y-105094109D01*
X146682317Y-105093575D01*
X146795106Y-105093153D01*
X146923971Y-105092829D01*
X147070009Y-105092592D01*
X147234314Y-105092430D01*
X147417980Y-105092330D01*
X147622103Y-105092280D01*
X147833247Y-105092267D01*
X149453600Y-105092267D01*
X149453600Y-105189054D01*
X149453600Y-105189054D01*
G37*
X149453600Y-105189054D02*
X149464465Y-105302993D01*
X149496082Y-105410616D01*
X149546985Y-105509615D01*
X149615707Y-105597684D01*
X149700781Y-105672516D01*
X149797768Y-105730384D01*
X149904036Y-105770005D01*
X150011050Y-105788573D01*
X150116700Y-105787434D01*
X150218875Y-105767930D01*
X150315466Y-105731406D01*
X150404362Y-105679205D01*
X150483454Y-105612673D01*
X150550631Y-105533152D01*
X150603783Y-105441987D01*
X150640801Y-105340523D01*
X150659573Y-105230102D01*
X150661511Y-105180206D01*
X150661511Y-105092267D01*
X150713440Y-105092267D01*
X150749747Y-105095111D01*
X150776645Y-105106911D01*
X150803751Y-105130649D01*
X150842133Y-105169031D01*
X150842133Y-107360602D01*
X150842124Y-107622739D01*
X150842092Y-107863241D01*
X150842028Y-108083048D01*
X150841924Y-108283101D01*
X150841773Y-108464344D01*
X150841566Y-108627716D01*
X150841294Y-108774160D01*
X150840950Y-108904617D01*
X150840526Y-109020029D01*
X150840013Y-109121338D01*
X150839403Y-109209484D01*
X150838688Y-109285410D01*
X150837860Y-109350057D01*
X150836911Y-109404367D01*
X150835833Y-109449280D01*
X150834617Y-109485740D01*
X150833255Y-109514687D01*
X150831739Y-109537063D01*
X150830062Y-109553809D01*
X150828214Y-109565868D01*
X150826187Y-109574180D01*
X150823975Y-109579687D01*
X150822892Y-109581537D01*
X150818729Y-109588549D01*
X150815195Y-109594996D01*
X150811365Y-109600900D01*
X150806318Y-109606286D01*
X150799129Y-109611178D01*
X150788877Y-109615598D01*
X150774636Y-109619572D01*
X150755486Y-109623121D01*
X150730501Y-109626270D01*
X150698760Y-109629042D01*
X150659338Y-109631461D01*
X150611314Y-109633551D01*
X150553763Y-109635335D01*
X150485763Y-109636837D01*
X150406390Y-109638080D01*
X150314721Y-109639089D01*
X150209834Y-109639885D01*
X150090804Y-109640494D01*
X149956710Y-109640939D01*
X149806627Y-109641243D01*
X149639633Y-109641430D01*
X149454804Y-109641524D01*
X149251217Y-109641548D01*
X149027950Y-109641525D01*
X148784078Y-109641480D01*
X148518679Y-109641437D01*
X148480296Y-109641432D01*
X148213318Y-109641389D01*
X147967998Y-109641318D01*
X147743417Y-109641213D01*
X147538655Y-109641066D01*
X147352794Y-109640869D01*
X147184912Y-109640616D01*
X147034092Y-109640300D01*
X146899413Y-109639913D01*
X146779956Y-109639447D01*
X146674801Y-109638897D01*
X146583029Y-109638253D01*
X146503721Y-109637511D01*
X146435957Y-109636661D01*
X146378818Y-109635697D01*
X146331383Y-109634611D01*
X146292734Y-109633397D01*
X146261951Y-109632047D01*
X146238115Y-109630555D01*
X146220306Y-109628911D01*
X146207605Y-109627111D01*
X146199092Y-109625145D01*
X146194734Y-109623477D01*
X146186272Y-109619906D01*
X146178503Y-109617270D01*
X146171398Y-109614634D01*
X146164927Y-109611062D01*
X146159061Y-109605621D01*
X146153771Y-109597375D01*
X146149026Y-109585390D01*
X146144798Y-109568731D01*
X146141057Y-109546463D01*
X146137773Y-109517652D01*
X146134917Y-109481363D01*
X146132460Y-109436661D01*
X146130371Y-109382611D01*
X146128622Y-109318279D01*
X146127183Y-109242730D01*
X146126024Y-109155030D01*
X146125117Y-109054243D01*
X146124431Y-108939434D01*
X146123937Y-108809670D01*
X146123605Y-108664015D01*
X146123407Y-108501535D01*
X146123313Y-108321295D01*
X146123292Y-108122360D01*
X146123315Y-107903796D01*
X146123354Y-107664668D01*
X146123378Y-107404040D01*
X146123378Y-107361889D01*
X146123364Y-107098992D01*
X146123339Y-106857732D01*
X146123329Y-106637165D01*
X146123358Y-106436352D01*
X146123452Y-106254349D01*
X146123638Y-106090216D01*
X146123941Y-105943011D01*
X146124386Y-105811792D01*
X146124966Y-105701867D01*
X146427803Y-105701867D01*
X146467593Y-105759711D01*
X146478764Y-105775479D01*
X146488834Y-105789441D01*
X146497862Y-105802784D01*
X146505903Y-105816693D01*
X146513014Y-105832356D01*
X146519253Y-105850958D01*
X146524675Y-105873686D01*
X146529338Y-105901727D01*
X146533299Y-105936267D01*
X146536615Y-105978492D01*
X146539341Y-106029589D01*
X146541536Y-106090744D01*
X146543255Y-106163144D01*
X146544556Y-106247975D01*
X146545495Y-106346422D01*
X146546130Y-106459674D01*
X146546516Y-106588916D01*
X146546712Y-106735334D01*
X146546773Y-106900116D01*
X146546757Y-107084447D01*
X146546720Y-107289513D01*
X146546711Y-107412133D01*
X146546735Y-107629082D01*
X146546769Y-107824642D01*
X146546757Y-107999999D01*
X146546642Y-108156341D01*
X146546370Y-108294857D01*
X146545882Y-108416734D01*
X146545124Y-108523160D01*
X146544038Y-108615322D01*
X146542569Y-108694409D01*
X146540660Y-108761608D01*
X146538256Y-108818107D01*
X146535299Y-108865093D01*
X146531734Y-108903755D01*
X146527505Y-108935280D01*
X146522554Y-108960855D01*
X146516827Y-108981670D01*
X146510267Y-108998911D01*
X146502817Y-109013765D01*
X146494421Y-109027422D01*
X146485024Y-109041069D01*
X146474568Y-109055893D01*
X146468477Y-109064783D01*
X146429704Y-109122400D01*
X146961268Y-109122400D01*
X147084517Y-109122365D01*
X147187013Y-109122215D01*
X147270580Y-109121878D01*
X147337044Y-109121286D01*
X147388229Y-109120367D01*
X147425959Y-109119051D01*
X147452060Y-109117269D01*
X147468356Y-109114951D01*
X147476672Y-109112026D01*
X147478832Y-109108424D01*
X147476661Y-109104075D01*
X147475465Y-109102645D01*
X147450315Y-109065573D01*
X147424417Y-109012772D01*
X147400808Y-108950770D01*
X147392539Y-108924357D01*
X147387922Y-108906416D01*
X147384021Y-108885355D01*
X147380752Y-108859089D01*
X147378034Y-108825532D01*
X147375785Y-108782599D01*
X147373923Y-108728204D01*
X147372364Y-108660262D01*
X147371028Y-108576688D01*
X147369831Y-108475395D01*
X147368692Y-108354300D01*
X147368315Y-108309600D01*
X147367298Y-108184449D01*
X147366540Y-108080082D01*
X147366097Y-107994707D01*
X147366030Y-107926533D01*
X147366395Y-107873765D01*
X147367252Y-107834614D01*
X147368659Y-107807285D01*
X147370675Y-107789986D01*
X147373357Y-107780926D01*
X147376764Y-107778312D01*
X147380956Y-107780351D01*
X147385429Y-107784667D01*
X147395784Y-107797602D01*
X147417842Y-107826676D01*
X147450043Y-107869759D01*
X147490826Y-107924718D01*
X147538630Y-107989423D01*
X147591895Y-108061742D01*
X147649060Y-108139544D01*
X147708563Y-108220698D01*
X147768845Y-108303072D01*
X147828345Y-108384536D01*
X147885502Y-108462957D01*
X147938755Y-108536204D01*
X147986543Y-108602147D01*
X148027307Y-108658654D01*
X148059484Y-108703593D01*
X148081515Y-108734834D01*
X148086083Y-108741466D01*
X148109004Y-108778369D01*
X148135812Y-108826359D01*
X148161211Y-108875897D01*
X148164432Y-108882577D01*
X148186110Y-108930772D01*
X148198696Y-108968334D01*
X148204426Y-109004160D01*
X148205544Y-109046200D01*
X148204910Y-109122400D01*
X149359349Y-109122400D01*
X149268185Y-109028669D01*
X149221388Y-108978775D01*
X149171101Y-108922295D01*
X149125056Y-108868026D01*
X149104631Y-108842673D01*
X149074193Y-108803128D01*
X149034138Y-108749916D01*
X148985639Y-108684667D01*
X148929865Y-108609011D01*
X148867989Y-108524577D01*
X148801181Y-108432994D01*
X148730613Y-108335892D01*
X148657455Y-108234901D01*
X148582879Y-108131650D01*
X148508056Y-108027768D01*
X148434157Y-107924885D01*
X148362354Y-107824631D01*
X148293816Y-107728636D01*
X148229716Y-107638527D01*
X148171225Y-107555936D01*
X148119514Y-107482492D01*
X148075753Y-107419824D01*
X148041115Y-107369561D01*
X148016770Y-107333334D01*
X148003889Y-107312771D01*
X148002131Y-107308668D01*
X148010090Y-107297342D01*
X148030885Y-107270162D01*
X148063153Y-107228829D01*
X148105530Y-107175044D01*
X148156653Y-107110506D01*
X148215159Y-107036918D01*
X148279686Y-106955978D01*
X148348869Y-106869388D01*
X148421347Y-106778848D01*
X148495754Y-106686060D01*
X148555483Y-106611702D01*
X149566489Y-106611702D01*
X149572398Y-106624659D01*
X149586728Y-106646908D01*
X149587775Y-106648391D01*
X149606562Y-106678544D01*
X149626209Y-106715375D01*
X149630108Y-106723511D01*
X149633644Y-106731940D01*
X149636770Y-106742059D01*
X149639514Y-106755260D01*
X149641908Y-106772938D01*
X149643981Y-106796484D01*
X149645765Y-106827293D01*
X149647288Y-106866757D01*
X149648581Y-106916269D01*
X149649674Y-106977223D01*
X149650597Y-107051011D01*
X149651381Y-107139028D01*
X149652055Y-107242665D01*
X149652650Y-107363316D01*
X149653195Y-107502374D01*
X149653721Y-107661232D01*
X149654255Y-107840089D01*
X149654794Y-108025207D01*
X149655228Y-108189145D01*
X149655491Y-108333303D01*
X149655516Y-108459079D01*
X149655235Y-108567871D01*
X149654581Y-108661077D01*
X149653486Y-108740097D01*
X149651882Y-108806328D01*
X149649703Y-108861170D01*
X149646881Y-108906021D01*
X149643349Y-108942278D01*
X149639039Y-108971341D01*
X149633883Y-108994609D01*
X149627815Y-109013479D01*
X149620767Y-109029351D01*
X149612671Y-109043622D01*
X149603460Y-109057691D01*
X149594960Y-109070158D01*
X149577824Y-109096452D01*
X149567678Y-109114037D01*
X149566489Y-109117257D01*
X149577396Y-109118334D01*
X149608589Y-109119335D01*
X149657777Y-109120235D01*
X149722667Y-109121010D01*
X149800970Y-109121637D01*
X149890393Y-109122091D01*
X149988644Y-109122349D01*
X150057555Y-109122400D01*
X150162548Y-109122180D01*
X150259390Y-109121548D01*
X150345893Y-109120549D01*
X150419868Y-109119227D01*
X150479126Y-109117626D01*
X150521480Y-109115791D01*
X150544740Y-109113765D01*
X150548622Y-109112493D01*
X150540924Y-109097591D01*
X150532926Y-109089560D01*
X150519754Y-109072434D01*
X150502515Y-109042183D01*
X150490593Y-109017622D01*
X150463955Y-108958711D01*
X150460880Y-107781845D01*
X150457805Y-106604978D01*
X150012147Y-106604978D01*
X149914330Y-106605142D01*
X149823936Y-106605611D01*
X149743370Y-106606347D01*
X149675038Y-106607316D01*
X149621344Y-106608480D01*
X149584695Y-106609803D01*
X149567496Y-106611249D01*
X149566489Y-106611702D01*
X148555483Y-106611702D01*
X148570730Y-106592722D01*
X148644910Y-106500537D01*
X148716931Y-106411204D01*
X148785431Y-106326424D01*
X148849045Y-106247898D01*
X148906412Y-106177326D01*
X148956167Y-106116409D01*
X148996948Y-106066847D01*
X149014112Y-106046178D01*
X149100404Y-105945516D01*
X149177003Y-105862259D01*
X149245817Y-105794438D01*
X149308752Y-105740089D01*
X149318133Y-105732722D01*
X149357644Y-105702117D01*
X148225884Y-105701867D01*
X148231173Y-105749844D01*
X148227870Y-105807188D01*
X148206339Y-105875463D01*
X148166365Y-105955212D01*
X148121057Y-106027495D01*
X148104839Y-106050140D01*
X148076786Y-106087696D01*
X148038570Y-106138021D01*
X147991863Y-106198973D01*
X147938339Y-106268411D01*
X147879669Y-106344194D01*
X147817525Y-106424180D01*
X147753579Y-106506228D01*
X147689505Y-106588196D01*
X147626973Y-106667943D01*
X147567657Y-106743327D01*
X147513229Y-106812207D01*
X147465361Y-106872442D01*
X147425725Y-106921889D01*
X147395994Y-106958408D01*
X147377839Y-106979858D01*
X147374780Y-106983156D01*
X147371921Y-106975149D01*
X147369707Y-106944855D01*
X147368143Y-106892556D01*
X147367233Y-106818531D01*
X147366980Y-106723063D01*
X147367387Y-106606434D01*
X147368296Y-106486445D01*
X147369618Y-106354333D01*
X147371143Y-106242594D01*
X147373119Y-106149025D01*
X147375794Y-106071419D01*
X147379418Y-106007574D01*
X147384239Y-105955283D01*
X147390506Y-105912344D01*
X147398468Y-105876551D01*
X147408373Y-105845700D01*
X147420469Y-105817586D01*
X147435007Y-105790005D01*
X147449689Y-105764966D01*
X147487686Y-105701867D01*
X146427803Y-105701867D01*
X146124966Y-105701867D01*
X146124999Y-105695617D01*
X146125805Y-105593544D01*
X146126830Y-105504633D01*
X146128100Y-105427941D01*
X146129640Y-105362527D01*
X146131476Y-105307449D01*
X146133633Y-105261765D01*
X146136137Y-105224534D01*
X146139013Y-105194813D01*
X146142287Y-105171662D01*
X146145985Y-105154139D01*
X146150131Y-105141301D01*
X146154753Y-105132208D01*
X146159874Y-105125918D01*
X146165522Y-105121488D01*
X146171721Y-105117978D01*
X146178496Y-105114445D01*
X146184492Y-105110876D01*
X146189725Y-105108300D01*
X146197901Y-105105972D01*
X146210114Y-105103878D01*
X146227459Y-105102007D01*
X146251031Y-105100347D01*
X146281923Y-105098884D01*
X146321232Y-105097608D01*
X146370050Y-105096504D01*
X146429473Y-105095561D01*
X146500596Y-105094767D01*
X146584512Y-105094109D01*
X146682317Y-105093575D01*
X146795106Y-105093153D01*
X146923971Y-105092829D01*
X147070009Y-105092592D01*
X147234314Y-105092430D01*
X147417980Y-105092330D01*
X147622103Y-105092280D01*
X147833247Y-105092267D01*
X149453600Y-105092267D01*
X149453600Y-105189054D01*
G36*
X152728429Y-105649071D02*
X152888570Y-105670245D01*
X153052510Y-105710385D01*
X153222313Y-105769889D01*
X153400043Y-105849154D01*
X153411310Y-105854699D01*
X153469005Y-105882725D01*
X153520552Y-105906802D01*
X153562191Y-105925249D01*
X153590162Y-105936386D01*
X153599733Y-105938933D01*
X153618950Y-105943941D01*
X153623561Y-105948147D01*
X153618458Y-105958580D01*
X153602418Y-105984868D01*
X153577288Y-106024257D01*
X153544914Y-106073991D01*
X153507143Y-106131315D01*
X153465822Y-106193476D01*
X153422798Y-106257718D01*
X153379917Y-106321285D01*
X153339026Y-106381425D01*
X153301971Y-106435380D01*
X153270600Y-106480397D01*
X153246759Y-106513721D01*
X153232294Y-106532597D01*
X153230309Y-106534787D01*
X153220191Y-106530138D01*
X153197850Y-106512962D01*
X153167280Y-106486440D01*
X153151536Y-106471964D01*
X153055047Y-106396682D01*
X152948336Y-106341241D01*
X152832832Y-106306141D01*
X152709962Y-106291880D01*
X152640561Y-106293051D01*
X152519423Y-106310212D01*
X152410205Y-106346094D01*
X152312582Y-106400959D01*
X152226228Y-106475070D01*
X152150815Y-106568688D01*
X152086018Y-106682076D01*
X152048601Y-106768667D01*
X152004748Y-106904366D01*
X151972428Y-107051850D01*
X151951557Y-107207314D01*
X151942051Y-107366956D01*
X151943827Y-107526973D01*
X151956803Y-107683561D01*
X151980894Y-107832918D01*
X152016018Y-107971240D01*
X152062092Y-108094724D01*
X152078373Y-108128978D01*
X152146620Y-108243064D01*
X152227079Y-108339557D01*
X152318570Y-108417670D01*
X152419911Y-108476617D01*
X152529920Y-108515612D01*
X152647415Y-108533868D01*
X152688883Y-108535211D01*
X152810441Y-108524290D01*
X152930878Y-108491474D01*
X153048666Y-108437439D01*
X153162277Y-108362865D01*
X153253685Y-108284539D01*
X153300215Y-108240008D01*
X153481483Y-108537271D01*
X153526580Y-108611433D01*
X153567819Y-108679646D01*
X153603735Y-108739459D01*
X153632866Y-108788420D01*
X153653750Y-108824079D01*
X153664924Y-108843984D01*
X153666375Y-108847079D01*
X153658146Y-108856718D01*
X153632567Y-108873999D01*
X153592873Y-108897283D01*
X153542297Y-108924934D01*
X153484074Y-108955315D01*
X153421437Y-108986790D01*
X153357621Y-109017722D01*
X153295860Y-109046473D01*
X153239388Y-109071408D01*
X153191438Y-109090889D01*
X153167986Y-109099318D01*
X153034221Y-109137133D01*
X152896327Y-109162136D01*
X152748622Y-109175140D01*
X152621833Y-109177468D01*
X152553878Y-109176373D01*
X152488277Y-109174275D01*
X152430847Y-109171434D01*
X152387403Y-109168106D01*
X152373298Y-109166422D01*
X152234284Y-109137587D01*
X152092757Y-109092468D01*
X151955275Y-109033750D01*
X151828394Y-108964120D01*
X151750889Y-108911441D01*
X151623481Y-108803239D01*
X151505178Y-108676671D01*
X151398172Y-108534866D01*
X151304652Y-108380951D01*
X151226810Y-108218053D01*
X151182956Y-108100756D01*
X151132708Y-107917128D01*
X151099209Y-107722581D01*
X151082449Y-107521325D01*
X151082416Y-107317568D01*
X151099101Y-107115521D01*
X151132493Y-106919392D01*
X151182580Y-106733391D01*
X151186397Y-106721803D01*
X151249281Y-106559750D01*
X151326028Y-106411832D01*
X151419242Y-106273865D01*
X151531527Y-106141661D01*
X151575392Y-106096399D01*
X151711534Y-105972457D01*
X151851491Y-105869915D01*
X151997411Y-105787656D01*
X152151442Y-105724564D01*
X152315732Y-105679523D01*
X152411289Y-105662033D01*
X152570023Y-105646466D01*
X152728429Y-105649071D01*
X152728429Y-105649071D01*
G37*
X152728429Y-105649071D02*
X152888570Y-105670245D01*
X153052510Y-105710385D01*
X153222313Y-105769889D01*
X153400043Y-105849154D01*
X153411310Y-105854699D01*
X153469005Y-105882725D01*
X153520552Y-105906802D01*
X153562191Y-105925249D01*
X153590162Y-105936386D01*
X153599733Y-105938933D01*
X153618950Y-105943941D01*
X153623561Y-105948147D01*
X153618458Y-105958580D01*
X153602418Y-105984868D01*
X153577288Y-106024257D01*
X153544914Y-106073991D01*
X153507143Y-106131315D01*
X153465822Y-106193476D01*
X153422798Y-106257718D01*
X153379917Y-106321285D01*
X153339026Y-106381425D01*
X153301971Y-106435380D01*
X153270600Y-106480397D01*
X153246759Y-106513721D01*
X153232294Y-106532597D01*
X153230309Y-106534787D01*
X153220191Y-106530138D01*
X153197850Y-106512962D01*
X153167280Y-106486440D01*
X153151536Y-106471964D01*
X153055047Y-106396682D01*
X152948336Y-106341241D01*
X152832832Y-106306141D01*
X152709962Y-106291880D01*
X152640561Y-106293051D01*
X152519423Y-106310212D01*
X152410205Y-106346094D01*
X152312582Y-106400959D01*
X152226228Y-106475070D01*
X152150815Y-106568688D01*
X152086018Y-106682076D01*
X152048601Y-106768667D01*
X152004748Y-106904366D01*
X151972428Y-107051850D01*
X151951557Y-107207314D01*
X151942051Y-107366956D01*
X151943827Y-107526973D01*
X151956803Y-107683561D01*
X151980894Y-107832918D01*
X152016018Y-107971240D01*
X152062092Y-108094724D01*
X152078373Y-108128978D01*
X152146620Y-108243064D01*
X152227079Y-108339557D01*
X152318570Y-108417670D01*
X152419911Y-108476617D01*
X152529920Y-108515612D01*
X152647415Y-108533868D01*
X152688883Y-108535211D01*
X152810441Y-108524290D01*
X152930878Y-108491474D01*
X153048666Y-108437439D01*
X153162277Y-108362865D01*
X153253685Y-108284539D01*
X153300215Y-108240008D01*
X153481483Y-108537271D01*
X153526580Y-108611433D01*
X153567819Y-108679646D01*
X153603735Y-108739459D01*
X153632866Y-108788420D01*
X153653750Y-108824079D01*
X153664924Y-108843984D01*
X153666375Y-108847079D01*
X153658146Y-108856718D01*
X153632567Y-108873999D01*
X153592873Y-108897283D01*
X153542297Y-108924934D01*
X153484074Y-108955315D01*
X153421437Y-108986790D01*
X153357621Y-109017722D01*
X153295860Y-109046473D01*
X153239388Y-109071408D01*
X153191438Y-109090889D01*
X153167986Y-109099318D01*
X153034221Y-109137133D01*
X152896327Y-109162136D01*
X152748622Y-109175140D01*
X152621833Y-109177468D01*
X152553878Y-109176373D01*
X152488277Y-109174275D01*
X152430847Y-109171434D01*
X152387403Y-109168106D01*
X152373298Y-109166422D01*
X152234284Y-109137587D01*
X152092757Y-109092468D01*
X151955275Y-109033750D01*
X151828394Y-108964120D01*
X151750889Y-108911441D01*
X151623481Y-108803239D01*
X151505178Y-108676671D01*
X151398172Y-108534866D01*
X151304652Y-108380951D01*
X151226810Y-108218053D01*
X151182956Y-108100756D01*
X151132708Y-107917128D01*
X151099209Y-107722581D01*
X151082449Y-107521325D01*
X151082416Y-107317568D01*
X151099101Y-107115521D01*
X151132493Y-106919392D01*
X151182580Y-106733391D01*
X151186397Y-106721803D01*
X151249281Y-106559750D01*
X151326028Y-106411832D01*
X151419242Y-106273865D01*
X151531527Y-106141661D01*
X151575392Y-106096399D01*
X151711534Y-105972457D01*
X151851491Y-105869915D01*
X151997411Y-105787656D01*
X152151442Y-105724564D01*
X152315732Y-105679523D01*
X152411289Y-105662033D01*
X152570023Y-105646466D01*
X152728429Y-105649071D01*
G36*
X155073574Y-106566552D02*
X155225492Y-106586567D01*
X155360756Y-106620202D01*
X155480239Y-106667725D01*
X155584815Y-106729405D01*
X155662424Y-106792965D01*
X155731265Y-106867099D01*
X155785006Y-106946871D01*
X155827910Y-107039091D01*
X155843384Y-107082161D01*
X155856244Y-107121142D01*
X155867446Y-107157289D01*
X155877120Y-107192434D01*
X155885396Y-107228410D01*
X155892403Y-107267050D01*
X155898272Y-107310185D01*
X155903131Y-107359649D01*
X155907110Y-107417273D01*
X155910340Y-107484891D01*
X155912949Y-107564334D01*
X155915067Y-107657436D01*
X155916824Y-107766027D01*
X155918349Y-107891942D01*
X155919772Y-108037012D01*
X155921025Y-108179778D01*
X155922351Y-108335968D01*
X155923556Y-108471239D01*
X155924766Y-108587246D01*
X155926106Y-108685645D01*
X155927700Y-108768093D01*
X155929675Y-108836246D01*
X155932156Y-108891760D01*
X155935269Y-108936292D01*
X155939138Y-108971498D01*
X155943889Y-108999034D01*
X155949648Y-109020556D01*
X155956539Y-109037722D01*
X155964689Y-109052186D01*
X155974223Y-109065606D01*
X155985266Y-109079638D01*
X155989566Y-109085071D01*
X156005386Y-109107910D01*
X156012422Y-109123463D01*
X156012444Y-109123922D01*
X156001567Y-109126121D01*
X155970582Y-109128147D01*
X155921957Y-109129942D01*
X155858163Y-109131451D01*
X155781669Y-109132616D01*
X155694944Y-109133380D01*
X155600457Y-109133686D01*
X155589550Y-109133689D01*
X155166657Y-109133689D01*
X155163395Y-109037622D01*
X155160133Y-108941556D01*
X155098044Y-108992543D01*
X155000714Y-109060057D01*
X154890813Y-109114749D01*
X154804349Y-109144978D01*
X154735278Y-109159666D01*
X154651925Y-109169659D01*
X154562159Y-109174646D01*
X154473845Y-109174313D01*
X154394851Y-109168351D01*
X154358622Y-109162638D01*
X154218603Y-109124776D01*
X154092178Y-109069932D01*
X153980260Y-108998924D01*
X153883762Y-108912568D01*
X153803600Y-108811679D01*
X153740687Y-108697076D01*
X153696312Y-108570984D01*
X153683978Y-108514401D01*
X153676368Y-108452202D01*
X153672739Y-108377363D01*
X153672245Y-108343467D01*
X153672310Y-108340282D01*
X154432248Y-108340282D01*
X154441541Y-108415333D01*
X154469728Y-108479160D01*
X154518197Y-108534798D01*
X154523254Y-108539211D01*
X154571548Y-108574037D01*
X154623257Y-108596620D01*
X154683989Y-108608540D01*
X154759352Y-108611383D01*
X154777459Y-108610978D01*
X154831278Y-108608325D01*
X154871308Y-108602909D01*
X154906324Y-108592745D01*
X154945103Y-108575850D01*
X154955745Y-108570672D01*
X155016396Y-108534844D01*
X155063215Y-108492212D01*
X155075952Y-108476973D01*
X155120622Y-108420462D01*
X155120622Y-108224586D01*
X155120086Y-108145939D01*
X155118396Y-108087988D01*
X155115428Y-108048875D01*
X155111057Y-108026741D01*
X155106972Y-108020274D01*
X155091047Y-108017111D01*
X155057264Y-108014488D01*
X155010340Y-108012655D01*
X154954993Y-108011857D01*
X154946106Y-108011842D01*
X154825330Y-108017096D01*
X154722660Y-108033263D01*
X154636106Y-108060961D01*
X154563681Y-108100808D01*
X154508751Y-108147758D01*
X154464204Y-108205645D01*
X154439480Y-108268693D01*
X154432248Y-108340282D01*
X153672310Y-108340282D01*
X153674178Y-108249712D01*
X153682522Y-108170812D01*
X153698768Y-108099590D01*
X153724405Y-108028864D01*
X153748401Y-107976493D01*
X153807020Y-107881196D01*
X153885117Y-107793170D01*
X153980315Y-107714017D01*
X154090238Y-107645340D01*
X154212510Y-107588741D01*
X154344755Y-107545821D01*
X154409422Y-107530882D01*
X154545604Y-107508777D01*
X154694049Y-107494194D01*
X154845505Y-107487813D01*
X154972064Y-107489445D01*
X155133950Y-107496224D01*
X155126530Y-107437245D01*
X155107238Y-107338092D01*
X155076104Y-107257372D01*
X155032269Y-107194466D01*
X154974871Y-107148756D01*
X154903048Y-107119622D01*
X154815941Y-107106447D01*
X154712686Y-107108611D01*
X154674711Y-107112612D01*
X154533520Y-107137780D01*
X154396707Y-107178814D01*
X154302178Y-107216815D01*
X154257018Y-107236190D01*
X154218585Y-107251760D01*
X154192234Y-107261405D01*
X154184546Y-107263452D01*
X154174802Y-107254374D01*
X154158083Y-107225405D01*
X154134232Y-107176217D01*
X154103093Y-107106484D01*
X154064507Y-107015879D01*
X154057910Y-107000089D01*
X154027853Y-106927772D01*
X154000874Y-106862425D01*
X153978136Y-106806906D01*
X153960806Y-106764072D01*
X153950048Y-106736781D01*
X153946941Y-106727942D01*
X153956940Y-106723187D01*
X153983217Y-106717910D01*
X154011489Y-106714231D01*
X154041646Y-106709474D01*
X154089433Y-106700028D01*
X154150612Y-106686820D01*
X154220946Y-106670776D01*
X154296194Y-106652820D01*
X154324755Y-106645797D01*
X154429816Y-106620209D01*
X154517480Y-106600147D01*
X154592068Y-106584969D01*
X154657903Y-106574035D01*
X154719307Y-106566704D01*
X154780602Y-106562335D01*
X154846110Y-106560287D01*
X154904128Y-106559889D01*
X155073574Y-106566552D01*
X155073574Y-106566552D01*
G37*
X155073574Y-106566552D02*
X155225492Y-106586567D01*
X155360756Y-106620202D01*
X155480239Y-106667725D01*
X155584815Y-106729405D01*
X155662424Y-106792965D01*
X155731265Y-106867099D01*
X155785006Y-106946871D01*
X155827910Y-107039091D01*
X155843384Y-107082161D01*
X155856244Y-107121142D01*
X155867446Y-107157289D01*
X155877120Y-107192434D01*
X155885396Y-107228410D01*
X155892403Y-107267050D01*
X155898272Y-107310185D01*
X155903131Y-107359649D01*
X155907110Y-107417273D01*
X155910340Y-107484891D01*
X155912949Y-107564334D01*
X155915067Y-107657436D01*
X155916824Y-107766027D01*
X155918349Y-107891942D01*
X155919772Y-108037012D01*
X155921025Y-108179778D01*
X155922351Y-108335968D01*
X155923556Y-108471239D01*
X155924766Y-108587246D01*
X155926106Y-108685645D01*
X155927700Y-108768093D01*
X155929675Y-108836246D01*
X155932156Y-108891760D01*
X155935269Y-108936292D01*
X155939138Y-108971498D01*
X155943889Y-108999034D01*
X155949648Y-109020556D01*
X155956539Y-109037722D01*
X155964689Y-109052186D01*
X155974223Y-109065606D01*
X155985266Y-109079638D01*
X155989566Y-109085071D01*
X156005386Y-109107910D01*
X156012422Y-109123463D01*
X156012444Y-109123922D01*
X156001567Y-109126121D01*
X155970582Y-109128147D01*
X155921957Y-109129942D01*
X155858163Y-109131451D01*
X155781669Y-109132616D01*
X155694944Y-109133380D01*
X155600457Y-109133686D01*
X155589550Y-109133689D01*
X155166657Y-109133689D01*
X155163395Y-109037622D01*
X155160133Y-108941556D01*
X155098044Y-108992543D01*
X155000714Y-109060057D01*
X154890813Y-109114749D01*
X154804349Y-109144978D01*
X154735278Y-109159666D01*
X154651925Y-109169659D01*
X154562159Y-109174646D01*
X154473845Y-109174313D01*
X154394851Y-109168351D01*
X154358622Y-109162638D01*
X154218603Y-109124776D01*
X154092178Y-109069932D01*
X153980260Y-108998924D01*
X153883762Y-108912568D01*
X153803600Y-108811679D01*
X153740687Y-108697076D01*
X153696312Y-108570984D01*
X153683978Y-108514401D01*
X153676368Y-108452202D01*
X153672739Y-108377363D01*
X153672245Y-108343467D01*
X153672310Y-108340282D01*
X154432248Y-108340282D01*
X154441541Y-108415333D01*
X154469728Y-108479160D01*
X154518197Y-108534798D01*
X154523254Y-108539211D01*
X154571548Y-108574037D01*
X154623257Y-108596620D01*
X154683989Y-108608540D01*
X154759352Y-108611383D01*
X154777459Y-108610978D01*
X154831278Y-108608325D01*
X154871308Y-108602909D01*
X154906324Y-108592745D01*
X154945103Y-108575850D01*
X154955745Y-108570672D01*
X155016396Y-108534844D01*
X155063215Y-108492212D01*
X155075952Y-108476973D01*
X155120622Y-108420462D01*
X155120622Y-108224586D01*
X155120086Y-108145939D01*
X155118396Y-108087988D01*
X155115428Y-108048875D01*
X155111057Y-108026741D01*
X155106972Y-108020274D01*
X155091047Y-108017111D01*
X155057264Y-108014488D01*
X155010340Y-108012655D01*
X154954993Y-108011857D01*
X154946106Y-108011842D01*
X154825330Y-108017096D01*
X154722660Y-108033263D01*
X154636106Y-108060961D01*
X154563681Y-108100808D01*
X154508751Y-108147758D01*
X154464204Y-108205645D01*
X154439480Y-108268693D01*
X154432248Y-108340282D01*
X153672310Y-108340282D01*
X153674178Y-108249712D01*
X153682522Y-108170812D01*
X153698768Y-108099590D01*
X153724405Y-108028864D01*
X153748401Y-107976493D01*
X153807020Y-107881196D01*
X153885117Y-107793170D01*
X153980315Y-107714017D01*
X154090238Y-107645340D01*
X154212510Y-107588741D01*
X154344755Y-107545821D01*
X154409422Y-107530882D01*
X154545604Y-107508777D01*
X154694049Y-107494194D01*
X154845505Y-107487813D01*
X154972064Y-107489445D01*
X155133950Y-107496224D01*
X155126530Y-107437245D01*
X155107238Y-107338092D01*
X155076104Y-107257372D01*
X155032269Y-107194466D01*
X154974871Y-107148756D01*
X154903048Y-107119622D01*
X154815941Y-107106447D01*
X154712686Y-107108611D01*
X154674711Y-107112612D01*
X154533520Y-107137780D01*
X154396707Y-107178814D01*
X154302178Y-107216815D01*
X154257018Y-107236190D01*
X154218585Y-107251760D01*
X154192234Y-107261405D01*
X154184546Y-107263452D01*
X154174802Y-107254374D01*
X154158083Y-107225405D01*
X154134232Y-107176217D01*
X154103093Y-107106484D01*
X154064507Y-107015879D01*
X154057910Y-107000089D01*
X154027853Y-106927772D01*
X154000874Y-106862425D01*
X153978136Y-106806906D01*
X153960806Y-106764072D01*
X153950048Y-106736781D01*
X153946941Y-106727942D01*
X153956940Y-106723187D01*
X153983217Y-106717910D01*
X154011489Y-106714231D01*
X154041646Y-106709474D01*
X154089433Y-106700028D01*
X154150612Y-106686820D01*
X154220946Y-106670776D01*
X154296194Y-106652820D01*
X154324755Y-106645797D01*
X154429816Y-106620209D01*
X154517480Y-106600147D01*
X154592068Y-106584969D01*
X154657903Y-106574035D01*
X154719307Y-106566704D01*
X154780602Y-106562335D01*
X154846110Y-106560287D01*
X154904128Y-106559889D01*
X155073574Y-106566552D01*
G36*
X158586507Y-107172245D02*
X158586526Y-107406662D01*
X158586552Y-107619603D01*
X158586625Y-107812168D01*
X158586782Y-107985459D01*
X158587064Y-108140576D01*
X158587509Y-108278620D01*
X158588156Y-108400692D01*
X158589045Y-108507894D01*
X158590213Y-108601326D01*
X158591701Y-108682090D01*
X158593546Y-108751286D01*
X158595789Y-108810015D01*
X158598469Y-108859379D01*
X158601623Y-108900478D01*
X158605292Y-108934413D01*
X158609513Y-108962286D01*
X158614327Y-108985198D01*
X158619773Y-109004249D01*
X158625888Y-109020540D01*
X158632712Y-109035173D01*
X158640285Y-109049249D01*
X158648645Y-109063868D01*
X158653839Y-109072974D01*
X158688104Y-109133689D01*
X157829955Y-109133689D01*
X157829955Y-109037733D01*
X157829224Y-108994370D01*
X157827272Y-108961205D01*
X157824463Y-108943424D01*
X157823221Y-108941778D01*
X157811799Y-108948662D01*
X157789084Y-108966505D01*
X157766385Y-108985879D01*
X157711800Y-109026614D01*
X157642321Y-109067617D01*
X157565270Y-109105123D01*
X157487965Y-109135364D01*
X157457113Y-109145012D01*
X157388616Y-109159578D01*
X157305764Y-109169539D01*
X157216371Y-109174583D01*
X157128248Y-109174396D01*
X157049207Y-109168666D01*
X157011511Y-109162858D01*
X156873414Y-109124797D01*
X156746113Y-109067073D01*
X156630292Y-108990211D01*
X156526637Y-108894739D01*
X156435833Y-108781179D01*
X156369031Y-108670381D01*
X156314164Y-108553625D01*
X156272163Y-108434276D01*
X156242167Y-108308283D01*
X156223311Y-108171594D01*
X156214732Y-108020158D01*
X156214006Y-107942711D01*
X156216100Y-107885934D01*
X157045217Y-107885934D01*
X157045424Y-107979002D01*
X157048337Y-108066692D01*
X157054000Y-108143772D01*
X157062455Y-108205009D01*
X157065038Y-108217350D01*
X157096840Y-108324633D01*
X157138498Y-108411658D01*
X157190363Y-108478642D01*
X157252781Y-108525805D01*
X157326100Y-108553365D01*
X157410669Y-108561541D01*
X157506835Y-108550551D01*
X157570311Y-108534829D01*
X157619454Y-108516639D01*
X157673583Y-108490791D01*
X157714244Y-108467089D01*
X157784800Y-108420721D01*
X157784800Y-107270530D01*
X157717392Y-107226962D01*
X157638867Y-107186040D01*
X157554681Y-107159389D01*
X157469557Y-107147465D01*
X157388216Y-107150722D01*
X157315380Y-107169615D01*
X157283426Y-107185184D01*
X157225501Y-107228181D01*
X157176544Y-107284953D01*
X157135390Y-107357575D01*
X157100874Y-107448121D01*
X157071833Y-107558666D01*
X157070552Y-107564533D01*
X157060381Y-107626788D01*
X157052739Y-107704594D01*
X157047670Y-107792720D01*
X157045217Y-107885934D01*
X156216100Y-107885934D01*
X156221857Y-107729895D01*
X156243802Y-107534059D01*
X156279786Y-107355332D01*
X156329759Y-107193845D01*
X156393668Y-107049726D01*
X156471462Y-106923106D01*
X156563089Y-106814115D01*
X156668497Y-106722883D01*
X156713662Y-106691932D01*
X156814611Y-106635785D01*
X156917901Y-106596174D01*
X157027989Y-106572014D01*
X157149330Y-106562219D01*
X157241836Y-106563265D01*
X157371490Y-106574231D01*
X157484084Y-106596046D01*
X157582875Y-106629714D01*
X157671121Y-106676236D01*
X157719986Y-106710448D01*
X157749353Y-106732362D01*
X157771043Y-106747333D01*
X157779253Y-106751733D01*
X157780868Y-106740904D01*
X157782159Y-106710251D01*
X157783138Y-106662526D01*
X157783817Y-106600479D01*
X157784210Y-106526862D01*
X157784330Y-106444427D01*
X157784188Y-106355925D01*
X157783797Y-106264107D01*
X157783171Y-106171724D01*
X157782320Y-106081528D01*
X157781260Y-105996271D01*
X157780001Y-105918703D01*
X157778556Y-105851576D01*
X157776938Y-105797641D01*
X157775161Y-105759650D01*
X157774669Y-105752667D01*
X157767092Y-105682251D01*
X157755531Y-105627102D01*
X157737792Y-105579981D01*
X157711682Y-105533647D01*
X157705415Y-105524067D01*
X157680983Y-105487378D01*
X158586311Y-105487378D01*
X158586507Y-107172245D01*
X158586507Y-107172245D01*
G37*
X158586507Y-107172245D02*
X158586526Y-107406662D01*
X158586552Y-107619603D01*
X158586625Y-107812168D01*
X158586782Y-107985459D01*
X158587064Y-108140576D01*
X158587509Y-108278620D01*
X158588156Y-108400692D01*
X158589045Y-108507894D01*
X158590213Y-108601326D01*
X158591701Y-108682090D01*
X158593546Y-108751286D01*
X158595789Y-108810015D01*
X158598469Y-108859379D01*
X158601623Y-108900478D01*
X158605292Y-108934413D01*
X158609513Y-108962286D01*
X158614327Y-108985198D01*
X158619773Y-109004249D01*
X158625888Y-109020540D01*
X158632712Y-109035173D01*
X158640285Y-109049249D01*
X158648645Y-109063868D01*
X158653839Y-109072974D01*
X158688104Y-109133689D01*
X157829955Y-109133689D01*
X157829955Y-109037733D01*
X157829224Y-108994370D01*
X157827272Y-108961205D01*
X157824463Y-108943424D01*
X157823221Y-108941778D01*
X157811799Y-108948662D01*
X157789084Y-108966505D01*
X157766385Y-108985879D01*
X157711800Y-109026614D01*
X157642321Y-109067617D01*
X157565270Y-109105123D01*
X157487965Y-109135364D01*
X157457113Y-109145012D01*
X157388616Y-109159578D01*
X157305764Y-109169539D01*
X157216371Y-109174583D01*
X157128248Y-109174396D01*
X157049207Y-109168666D01*
X157011511Y-109162858D01*
X156873414Y-109124797D01*
X156746113Y-109067073D01*
X156630292Y-108990211D01*
X156526637Y-108894739D01*
X156435833Y-108781179D01*
X156369031Y-108670381D01*
X156314164Y-108553625D01*
X156272163Y-108434276D01*
X156242167Y-108308283D01*
X156223311Y-108171594D01*
X156214732Y-108020158D01*
X156214006Y-107942711D01*
X156216100Y-107885934D01*
X157045217Y-107885934D01*
X157045424Y-107979002D01*
X157048337Y-108066692D01*
X157054000Y-108143772D01*
X157062455Y-108205009D01*
X157065038Y-108217350D01*
X157096840Y-108324633D01*
X157138498Y-108411658D01*
X157190363Y-108478642D01*
X157252781Y-108525805D01*
X157326100Y-108553365D01*
X157410669Y-108561541D01*
X157506835Y-108550551D01*
X157570311Y-108534829D01*
X157619454Y-108516639D01*
X157673583Y-108490791D01*
X157714244Y-108467089D01*
X157784800Y-108420721D01*
X157784800Y-107270530D01*
X157717392Y-107226962D01*
X157638867Y-107186040D01*
X157554681Y-107159389D01*
X157469557Y-107147465D01*
X157388216Y-107150722D01*
X157315380Y-107169615D01*
X157283426Y-107185184D01*
X157225501Y-107228181D01*
X157176544Y-107284953D01*
X157135390Y-107357575D01*
X157100874Y-107448121D01*
X157071833Y-107558666D01*
X157070552Y-107564533D01*
X157060381Y-107626788D01*
X157052739Y-107704594D01*
X157047670Y-107792720D01*
X157045217Y-107885934D01*
X156216100Y-107885934D01*
X156221857Y-107729895D01*
X156243802Y-107534059D01*
X156279786Y-107355332D01*
X156329759Y-107193845D01*
X156393668Y-107049726D01*
X156471462Y-106923106D01*
X156563089Y-106814115D01*
X156668497Y-106722883D01*
X156713662Y-106691932D01*
X156814611Y-106635785D01*
X156917901Y-106596174D01*
X157027989Y-106572014D01*
X157149330Y-106562219D01*
X157241836Y-106563265D01*
X157371490Y-106574231D01*
X157484084Y-106596046D01*
X157582875Y-106629714D01*
X157671121Y-106676236D01*
X157719986Y-106710448D01*
X157749353Y-106732362D01*
X157771043Y-106747333D01*
X157779253Y-106751733D01*
X157780868Y-106740904D01*
X157782159Y-106710251D01*
X157783138Y-106662526D01*
X157783817Y-106600479D01*
X157784210Y-106526862D01*
X157784330Y-106444427D01*
X157784188Y-106355925D01*
X157783797Y-106264107D01*
X157783171Y-106171724D01*
X157782320Y-106081528D01*
X157781260Y-105996271D01*
X157780001Y-105918703D01*
X157778556Y-105851576D01*
X157776938Y-105797641D01*
X157775161Y-105759650D01*
X157774669Y-105752667D01*
X157767092Y-105682251D01*
X157755531Y-105627102D01*
X157737792Y-105579981D01*
X157711682Y-105533647D01*
X157705415Y-105524067D01*
X157680983Y-105487378D01*
X158586311Y-105487378D01*
X158586507Y-107172245D01*
G36*
X150126957Y-104726571D02*
X150223232Y-104750809D01*
X150309816Y-104793641D01*
X150384627Y-104853419D01*
X150445582Y-104928494D01*
X150490601Y-105017220D01*
X150516864Y-105113530D01*
X150522714Y-105210795D01*
X150507860Y-105304654D01*
X150474160Y-105392511D01*
X150423472Y-105471770D01*
X150357655Y-105539836D01*
X150278566Y-105594112D01*
X150188066Y-105632002D01*
X150136800Y-105644426D01*
X150092302Y-105651947D01*
X150058001Y-105654919D01*
X150025040Y-105653094D01*
X149984566Y-105646225D01*
X149951469Y-105639250D01*
X149858053Y-105607741D01*
X149774381Y-105556617D01*
X149702335Y-105487429D01*
X149643800Y-105401728D01*
X149629852Y-105374489D01*
X149613414Y-105338122D01*
X149603106Y-105307582D01*
X149597540Y-105275450D01*
X149595331Y-105234307D01*
X149595052Y-105188222D01*
X149599139Y-105103865D01*
X149612554Y-105034586D01*
X149637744Y-104973961D01*
X149677154Y-104915567D01*
X149715702Y-104871302D01*
X149787594Y-104805484D01*
X149862687Y-104760053D01*
X149945438Y-104732850D01*
X150023072Y-104722576D01*
X150126957Y-104726571D01*
X150126957Y-104726571D01*
G37*
X150126957Y-104726571D02*
X150223232Y-104750809D01*
X150309816Y-104793641D01*
X150384627Y-104853419D01*
X150445582Y-104928494D01*
X150490601Y-105017220D01*
X150516864Y-105113530D01*
X150522714Y-105210795D01*
X150507860Y-105304654D01*
X150474160Y-105392511D01*
X150423472Y-105471770D01*
X150357655Y-105539836D01*
X150278566Y-105594112D01*
X150188066Y-105632002D01*
X150136800Y-105644426D01*
X150092302Y-105651947D01*
X150058001Y-105654919D01*
X150025040Y-105653094D01*
X149984566Y-105646225D01*
X149951469Y-105639250D01*
X149858053Y-105607741D01*
X149774381Y-105556617D01*
X149702335Y-105487429D01*
X149643800Y-105401728D01*
X149629852Y-105374489D01*
X149613414Y-105338122D01*
X149603106Y-105307582D01*
X149597540Y-105275450D01*
X149595331Y-105234307D01*
X149595052Y-105188222D01*
X149599139Y-105103865D01*
X149612554Y-105034586D01*
X149637744Y-104973961D01*
X149677154Y-104915567D01*
X149715702Y-104871302D01*
X149787594Y-104805484D01*
X149862687Y-104760053D01*
X149945438Y-104732850D01*
X150023072Y-104722576D01*
X150126957Y-104726571D01*
D12*
X131075000Y-91700000D02*
X132500000Y-91700000D01*
X123825000Y-91925000D02*
X124150000Y-91925000D01*
X123825000Y-84675000D02*
X124150000Y-84675000D01*
X131075000Y-84675000D02*
X130750000Y-84675000D01*
X131075000Y-91925000D02*
X130750000Y-91925000D01*
X131075000Y-84675000D02*
X131075000Y-85000000D01*
X123825000Y-84675000D02*
X123825000Y-85000000D01*
X123825000Y-91925000D02*
X123825000Y-91600000D01*
X131075000Y-91925000D02*
X131075000Y-91700000D01*
D13*
X127060000Y-81730000D02*
X125600000Y-81730000D01*
X127060000Y-78570000D02*
X124900000Y-78570000D01*
X127060000Y-78570000D02*
X127060000Y-79500000D01*
X127060000Y-81730000D02*
X127060000Y-80800000D01*
D12*
X146800000Y-71000000D02*
X146800000Y-83000000D01*
X135300000Y-71000000D02*
X153300000Y-71000000D01*
X135300000Y-71800000D02*
X135300000Y-71000000D01*
X153300000Y-83000000D02*
X135300000Y-83000000D01*
X153300000Y-71000000D02*
X153300000Y-83000000D01*
X135300000Y-83000000D02*
X135300000Y-82200000D01*
X146800000Y-71000000D02*
X153300000Y-82900000D01*
X146800000Y-83000000D02*
X153300000Y-71000000D01*
D13*
X130590000Y-110610000D02*
X130590000Y-109550000D01*
X131650000Y-110610000D02*
X130590000Y-110610000D01*
X132650000Y-108550000D02*
X132650000Y-110610000D01*
X130590000Y-108550000D02*
X132650000Y-108550000D01*
X130590000Y-106490000D02*
X130590000Y-108550000D01*
X144710000Y-106490000D02*
X130590000Y-106490000D01*
X144710000Y-110610000D02*
X144710000Y-106490000D01*
X132650000Y-110610000D02*
X144710000Y-110610000D01*
D12*
X133600000Y-100375000D02*
X132600000Y-100375000D01*
X132600000Y-99025000D02*
X133600000Y-99025000D01*
X123475000Y-104000000D02*
X123475000Y-105000000D01*
X122125000Y-105000000D02*
X122125000Y-104000000D01*
X131300000Y-75875000D02*
X130300000Y-75875000D01*
X130300000Y-74525000D02*
X131300000Y-74525000D01*
X139900000Y-102525000D02*
X140900000Y-102525000D01*
X140900000Y-103875000D02*
X139900000Y-103875000D01*
X145000000Y-103875000D02*
X144000000Y-103875000D01*
X144000000Y-102525000D02*
X145000000Y-102525000D01*
X125250000Y-107200000D02*
X125950000Y-107200000D01*
X125950000Y-108400000D02*
X125250000Y-108400000D01*
D13*
X133700000Y-73650000D02*
X133700000Y-71850000D01*
X133700000Y-71850000D02*
X130250000Y-71850000D01*
X133700000Y-73650000D02*
X130250000Y-73650000D01*
X127850000Y-95800000D02*
X127150000Y-95800000D01*
X127150000Y-94600000D02*
X127850000Y-94600000D01*
X126800000Y-101420000D02*
X127800000Y-101420000D01*
X127800000Y-102780000D02*
X126800000Y-102780000D01*
X127100000Y-96020000D02*
X128100000Y-96020000D01*
X128100000Y-97380000D02*
X127100000Y-97380000D01*
X130600000Y-102950000D02*
X130600000Y-103650000D01*
X129400000Y-103650000D02*
X129400000Y-102950000D01*
X124600000Y-79750000D02*
X124600000Y-80450000D01*
X123400000Y-80450000D02*
X123400000Y-79750000D01*
D12*
X129275000Y-100900000D02*
X130525000Y-100900000D01*
X129275000Y-97725000D02*
X125925000Y-97725000D01*
X129275000Y-101075000D02*
X125925000Y-101075000D01*
X129275000Y-97725000D02*
X129275000Y-97975000D01*
X125925000Y-97725000D02*
X125925000Y-97975000D01*
X125925000Y-101075000D02*
X125925000Y-100825000D01*
X129275000Y-101075000D02*
X129275000Y-100900000D01*
D13*
X127160000Y-106680000D02*
X125700000Y-106680000D01*
X127160000Y-103520000D02*
X124000000Y-103520000D01*
X127160000Y-103520000D02*
X127160000Y-104450000D01*
X127160000Y-106680000D02*
X127160000Y-105750000D01*
D14*
X126914285Y-86771428D02*
X126914285Y-86171428D01*
X127542857Y-86714285D02*
X127514285Y-86742857D01*
X127428571Y-86771428D01*
X127371428Y-86771428D01*
X127285714Y-86742857D01*
X127228571Y-86685714D01*
X127200000Y-86628571D01*
X127171428Y-86514285D01*
X127171428Y-86428571D01*
X127200000Y-86314285D01*
X127228571Y-86257142D01*
X127285714Y-86200000D01*
X127371428Y-86171428D01*
X127428571Y-86171428D01*
X127514285Y-86200000D01*
X127542857Y-86228571D01*
X128114285Y-86771428D02*
X127771428Y-86771428D01*
X127942857Y-86771428D02*
X127942857Y-86171428D01*
X127885714Y-86257142D01*
X127828571Y-86314285D01*
X127771428Y-86342857D01*
X123857142Y-88800000D02*
X124142857Y-88800000D01*
X123800000Y-88971428D02*
X124000000Y-88371428D01*
X124200000Y-88971428D01*
X124314285Y-88371428D02*
X124657142Y-88371428D01*
X124485714Y-88971428D02*
X124485714Y-88371428D01*
X124857142Y-88971428D02*
X124857142Y-88371428D01*
X125057142Y-88800000D01*
X125257142Y-88371428D01*
X125257142Y-88971428D01*
X125542857Y-88657142D02*
X125742857Y-88657142D01*
X125828571Y-88971428D02*
X125542857Y-88971428D01*
X125542857Y-88371428D01*
X125828571Y-88371428D01*
X126400000Y-88400000D02*
X126342857Y-88371428D01*
X126257142Y-88371428D01*
X126171428Y-88400000D01*
X126114285Y-88457142D01*
X126085714Y-88514285D01*
X126057142Y-88628571D01*
X126057142Y-88714285D01*
X126085714Y-88828571D01*
X126114285Y-88885714D01*
X126171428Y-88942857D01*
X126257142Y-88971428D01*
X126314285Y-88971428D01*
X126400000Y-88942857D01*
X126428571Y-88914285D01*
X126428571Y-88714285D01*
X126314285Y-88714285D01*
X126657142Y-88800000D02*
X126942857Y-88800000D01*
X126600000Y-88971428D02*
X126800000Y-88371428D01*
X127000000Y-88971428D01*
X127142857Y-88371428D02*
X127514285Y-88371428D01*
X127314285Y-88600000D01*
X127400000Y-88600000D01*
X127457142Y-88628571D01*
X127485714Y-88657142D01*
X127514285Y-88714285D01*
X127514285Y-88857142D01*
X127485714Y-88914285D01*
X127457142Y-88942857D01*
X127400000Y-88971428D01*
X127228571Y-88971428D01*
X127171428Y-88942857D01*
X127142857Y-88914285D01*
X127742857Y-88428571D02*
X127771428Y-88400000D01*
X127828571Y-88371428D01*
X127971428Y-88371428D01*
X128028571Y-88400000D01*
X128057142Y-88428571D01*
X128085714Y-88485714D01*
X128085714Y-88542857D01*
X128057142Y-88628571D01*
X127714285Y-88971428D01*
X128085714Y-88971428D01*
X128428571Y-88628571D02*
X128371428Y-88600000D01*
X128342857Y-88571428D01*
X128314285Y-88514285D01*
X128314285Y-88485714D01*
X128342857Y-88428571D01*
X128371428Y-88400000D01*
X128428571Y-88371428D01*
X128542857Y-88371428D01*
X128600000Y-88400000D01*
X128628571Y-88428571D01*
X128657142Y-88485714D01*
X128657142Y-88514285D01*
X128628571Y-88571428D01*
X128600000Y-88600000D01*
X128542857Y-88628571D01*
X128428571Y-88628571D01*
X128371428Y-88657142D01*
X128342857Y-88685714D01*
X128314285Y-88742857D01*
X128314285Y-88857142D01*
X128342857Y-88914285D01*
X128371428Y-88942857D01*
X128428571Y-88971428D01*
X128542857Y-88971428D01*
X128600000Y-88942857D01*
X128628571Y-88914285D01*
X128657142Y-88857142D01*
X128657142Y-88742857D01*
X128628571Y-88685714D01*
X128600000Y-88657142D01*
X128542857Y-88628571D01*
X128914285Y-88971428D02*
X128914285Y-88371428D01*
X129142857Y-88371428D01*
X129200000Y-88400000D01*
X129228571Y-88428571D01*
X129257142Y-88485714D01*
X129257142Y-88571428D01*
X129228571Y-88628571D01*
X129200000Y-88657142D01*
X129142857Y-88685714D01*
X128914285Y-88685714D01*
X129514285Y-88742857D02*
X129971428Y-88742857D01*
X130228571Y-88800000D02*
X130514285Y-88800000D01*
X130171428Y-88971428D02*
X130371428Y-88371428D01*
X130571428Y-88971428D01*
X130771428Y-88371428D02*
X130771428Y-88857142D01*
X130800000Y-88914285D01*
X130828571Y-88942857D01*
X130885714Y-88971428D01*
X131000000Y-88971428D01*
X131057142Y-88942857D01*
X131085714Y-88914285D01*
X131114285Y-88857142D01*
X131114285Y-88371428D01*
X126042857Y-76671428D02*
X126042857Y-77157142D01*
X126071428Y-77214285D01*
X126100000Y-77242857D01*
X126157142Y-77271428D01*
X126271428Y-77271428D01*
X126328571Y-77242857D01*
X126357142Y-77214285D01*
X126385714Y-77157142D01*
X126385714Y-76671428D01*
X126614285Y-76671428D02*
X126985714Y-76671428D01*
X126785714Y-76900000D01*
X126871428Y-76900000D01*
X126928571Y-76928571D01*
X126957142Y-76957142D01*
X126985714Y-77014285D01*
X126985714Y-77157142D01*
X126957142Y-77214285D01*
X126928571Y-77242857D01*
X126871428Y-77271428D01*
X126700000Y-77271428D01*
X126642857Y-77242857D01*
X126614285Y-77214285D01*
X121757142Y-78171428D02*
X121757142Y-77571428D01*
X121957142Y-78000000D01*
X122157142Y-77571428D01*
X122157142Y-78171428D01*
X122785714Y-78114285D02*
X122757142Y-78142857D01*
X122671428Y-78171428D01*
X122614285Y-78171428D01*
X122528571Y-78142857D01*
X122471428Y-78085714D01*
X122442857Y-78028571D01*
X122414285Y-77914285D01*
X122414285Y-77828571D01*
X122442857Y-77714285D01*
X122471428Y-77657142D01*
X122528571Y-77600000D01*
X122614285Y-77571428D01*
X122671428Y-77571428D01*
X122757142Y-77600000D01*
X122785714Y-77628571D01*
X123042857Y-78171428D02*
X123042857Y-77571428D01*
X123271428Y-77571428D01*
X123328571Y-77600000D01*
X123357142Y-77628571D01*
X123385714Y-77685714D01*
X123385714Y-77771428D01*
X123357142Y-77828571D01*
X123328571Y-77857142D01*
X123271428Y-77885714D01*
X123042857Y-77885714D01*
X123671428Y-78171428D02*
X123785714Y-78171428D01*
X123842857Y-78142857D01*
X123871428Y-78114285D01*
X123928571Y-78028571D01*
X123957142Y-77914285D01*
X123957142Y-77685714D01*
X123928571Y-77628571D01*
X123900000Y-77600000D01*
X123842857Y-77571428D01*
X123728571Y-77571428D01*
X123671428Y-77600000D01*
X123642857Y-77628571D01*
X123614285Y-77685714D01*
X123614285Y-77828571D01*
X123642857Y-77885714D01*
X123671428Y-77914285D01*
X123728571Y-77942857D01*
X123842857Y-77942857D01*
X123900000Y-77914285D01*
X123928571Y-77885714D01*
X123957142Y-77828571D01*
X124157142Y-77571428D02*
X124557142Y-77571428D01*
X124300000Y-78171428D01*
X124900000Y-77571428D02*
X124957142Y-77571428D01*
X125014285Y-77600000D01*
X125042857Y-77628571D01*
X125071428Y-77685714D01*
X125100000Y-77800000D01*
X125100000Y-77942857D01*
X125071428Y-78057142D01*
X125042857Y-78114285D01*
X125014285Y-78142857D01*
X124957142Y-78171428D01*
X124900000Y-78171428D01*
X124842857Y-78142857D01*
X124814285Y-78114285D01*
X124785714Y-78057142D01*
X124757142Y-77942857D01*
X124757142Y-77800000D01*
X124785714Y-77685714D01*
X124814285Y-77628571D01*
X124842857Y-77600000D01*
X124900000Y-77571428D01*
X125471428Y-77571428D02*
X125528571Y-77571428D01*
X125585714Y-77600000D01*
X125614285Y-77628571D01*
X125642857Y-77685714D01*
X125671428Y-77800000D01*
X125671428Y-77942857D01*
X125642857Y-78057142D01*
X125614285Y-78114285D01*
X125585714Y-78142857D01*
X125528571Y-78171428D01*
X125471428Y-78171428D01*
X125414285Y-78142857D01*
X125385714Y-78114285D01*
X125357142Y-78057142D01*
X125328571Y-77942857D01*
X125328571Y-77800000D01*
X125357142Y-77685714D01*
X125385714Y-77628571D01*
X125414285Y-77600000D01*
X125471428Y-77571428D01*
X125900000Y-78000000D02*
X126185714Y-78000000D01*
X125842857Y-78171428D02*
X126042857Y-77571428D01*
X126242857Y-78171428D01*
X126357142Y-77571428D02*
X126700000Y-77571428D01*
X126528571Y-78171428D02*
X126528571Y-77571428D01*
X126900000Y-77942857D02*
X127357142Y-77942857D01*
X127642857Y-77857142D02*
X127842857Y-77857142D01*
X127928571Y-78171428D02*
X127642857Y-78171428D01*
X127642857Y-77571428D01*
X127928571Y-77571428D01*
X128614285Y-77542857D02*
X128100000Y-78314285D01*
X128728571Y-77571428D02*
X129071428Y-77571428D01*
X128900000Y-78171428D02*
X128900000Y-77571428D01*
X129185714Y-77571428D02*
X129528571Y-77571428D01*
X129357142Y-78171428D02*
X129357142Y-77571428D01*
X144071428Y-77257142D02*
X144557142Y-77257142D01*
X144614285Y-77228571D01*
X144642857Y-77200000D01*
X144671428Y-77142857D01*
X144671428Y-77028571D01*
X144642857Y-76971428D01*
X144614285Y-76942857D01*
X144557142Y-76914285D01*
X144071428Y-76914285D01*
X144071428Y-76342857D02*
X144071428Y-76628571D01*
X144357142Y-76657142D01*
X144328571Y-76628571D01*
X144300000Y-76571428D01*
X144300000Y-76428571D01*
X144328571Y-76371428D01*
X144357142Y-76342857D01*
X144414285Y-76314285D01*
X144557142Y-76314285D01*
X144614285Y-76342857D01*
X144642857Y-76371428D01*
X144671428Y-76428571D01*
X144671428Y-76571428D01*
X144642857Y-76628571D01*
X144614285Y-76657142D01*
X145971428Y-79014285D02*
X145371428Y-79014285D01*
X145971428Y-78671428D01*
X145371428Y-78671428D01*
X145971428Y-78042857D02*
X145685714Y-78242857D01*
X145971428Y-78385714D02*
X145371428Y-78385714D01*
X145371428Y-78157142D01*
X145400000Y-78100000D01*
X145428571Y-78071428D01*
X145485714Y-78042857D01*
X145571428Y-78042857D01*
X145628571Y-78071428D01*
X145657142Y-78100000D01*
X145685714Y-78157142D01*
X145685714Y-78385714D01*
X145657142Y-77585714D02*
X145657142Y-77785714D01*
X145971428Y-77785714D02*
X145371428Y-77785714D01*
X145371428Y-77500000D01*
X145428571Y-77300000D02*
X145400000Y-77271428D01*
X145371428Y-77214285D01*
X145371428Y-77071428D01*
X145400000Y-77014285D01*
X145428571Y-76985714D01*
X145485714Y-76957142D01*
X145542857Y-76957142D01*
X145628571Y-76985714D01*
X145971428Y-77328571D01*
X145971428Y-76957142D01*
X145571428Y-76442857D02*
X145971428Y-76442857D01*
X145342857Y-76585714D02*
X145771428Y-76728571D01*
X145771428Y-76357142D01*
X145971428Y-75842857D02*
X145971428Y-76128571D01*
X145371428Y-76128571D01*
X145371428Y-75528571D02*
X145371428Y-75471428D01*
X145400000Y-75414285D01*
X145428571Y-75385714D01*
X145485714Y-75357142D01*
X145600000Y-75328571D01*
X145742857Y-75328571D01*
X145857142Y-75357142D01*
X145914285Y-75385714D01*
X145942857Y-75414285D01*
X145971428Y-75471428D01*
X145971428Y-75528571D01*
X145942857Y-75585714D01*
X145914285Y-75614285D01*
X145857142Y-75642857D01*
X145742857Y-75671428D01*
X145600000Y-75671428D01*
X145485714Y-75642857D01*
X145428571Y-75614285D01*
X145400000Y-75585714D01*
X145371428Y-75528571D01*
X145971428Y-74757142D02*
X145971428Y-75100000D01*
X145971428Y-74928571D02*
X145371428Y-74928571D01*
X145457142Y-74985714D01*
X145514285Y-75042857D01*
X145542857Y-75100000D01*
X131557142Y-112021428D02*
X131557142Y-111421428D01*
X131785714Y-111421428D01*
X131842857Y-111450000D01*
X131871428Y-111478571D01*
X131900000Y-111535714D01*
X131900000Y-111621428D01*
X131871428Y-111678571D01*
X131842857Y-111707142D01*
X131785714Y-111735714D01*
X131557142Y-111735714D01*
X132414285Y-111621428D02*
X132414285Y-112021428D01*
X132271428Y-111392857D02*
X132128571Y-111821428D01*
X132500000Y-111821428D01*
X133285714Y-112021428D02*
X133285714Y-111421428D01*
X133514285Y-111421428D01*
X133571428Y-111450000D01*
X133600000Y-111478571D01*
X133628571Y-111535714D01*
X133628571Y-111621428D01*
X133600000Y-111678571D01*
X133571428Y-111707142D01*
X133514285Y-111735714D01*
X133285714Y-111735714D01*
X133971428Y-112021428D02*
X133914285Y-111992857D01*
X133885714Y-111964285D01*
X133857142Y-111907142D01*
X133857142Y-111735714D01*
X133885714Y-111678571D01*
X133914285Y-111650000D01*
X133971428Y-111621428D01*
X134057142Y-111621428D01*
X134114285Y-111650000D01*
X134142857Y-111678571D01*
X134171428Y-111735714D01*
X134171428Y-111907142D01*
X134142857Y-111964285D01*
X134114285Y-111992857D01*
X134057142Y-112021428D01*
X133971428Y-112021428D01*
X134371428Y-111621428D02*
X134485714Y-112021428D01*
X134600000Y-111735714D01*
X134714285Y-112021428D01*
X134828571Y-111621428D01*
X135285714Y-111992857D02*
X135228571Y-112021428D01*
X135114285Y-112021428D01*
X135057142Y-111992857D01*
X135028571Y-111935714D01*
X135028571Y-111707142D01*
X135057142Y-111650000D01*
X135114285Y-111621428D01*
X135228571Y-111621428D01*
X135285714Y-111650000D01*
X135314285Y-111707142D01*
X135314285Y-111764285D01*
X135028571Y-111821428D01*
X135571428Y-112021428D02*
X135571428Y-111621428D01*
X135571428Y-111735714D02*
X135600000Y-111678571D01*
X135628571Y-111650000D01*
X135685714Y-111621428D01*
X135742857Y-111621428D01*
X136600000Y-111707142D02*
X136685714Y-111735714D01*
X136714285Y-111764285D01*
X136742857Y-111821428D01*
X136742857Y-111907142D01*
X136714285Y-111964285D01*
X136685714Y-111992857D01*
X136628571Y-112021428D01*
X136400000Y-112021428D01*
X136400000Y-111421428D01*
X136600000Y-111421428D01*
X136657142Y-111450000D01*
X136685714Y-111478571D01*
X136714285Y-111535714D01*
X136714285Y-111592857D01*
X136685714Y-111650000D01*
X136657142Y-111678571D01*
X136600000Y-111707142D01*
X136400000Y-111707142D01*
X137085714Y-112021428D02*
X137028571Y-111992857D01*
X137000000Y-111964285D01*
X136971428Y-111907142D01*
X136971428Y-111735714D01*
X137000000Y-111678571D01*
X137028571Y-111650000D01*
X137085714Y-111621428D01*
X137171428Y-111621428D01*
X137228571Y-111650000D01*
X137257142Y-111678571D01*
X137285714Y-111735714D01*
X137285714Y-111907142D01*
X137257142Y-111964285D01*
X137228571Y-111992857D01*
X137171428Y-112021428D01*
X137085714Y-112021428D01*
X137800000Y-112021428D02*
X137800000Y-111707142D01*
X137771428Y-111650000D01*
X137714285Y-111621428D01*
X137600000Y-111621428D01*
X137542857Y-111650000D01*
X137800000Y-111992857D02*
X137742857Y-112021428D01*
X137600000Y-112021428D01*
X137542857Y-111992857D01*
X137514285Y-111935714D01*
X137514285Y-111878571D01*
X137542857Y-111821428D01*
X137600000Y-111792857D01*
X137742857Y-111792857D01*
X137800000Y-111764285D01*
X138085714Y-112021428D02*
X138085714Y-111621428D01*
X138085714Y-111735714D02*
X138114285Y-111678571D01*
X138142857Y-111650000D01*
X138200000Y-111621428D01*
X138257142Y-111621428D01*
X138714285Y-112021428D02*
X138714285Y-111421428D01*
X138714285Y-111992857D02*
X138657142Y-112021428D01*
X138542857Y-112021428D01*
X138485714Y-111992857D01*
X138457142Y-111964285D01*
X138428571Y-111907142D01*
X138428571Y-111735714D01*
X138457142Y-111678571D01*
X138485714Y-111650000D01*
X138542857Y-111621428D01*
X138657142Y-111621428D01*
X138714285Y-111650000D01*
X131800000Y-98571428D02*
X131600000Y-98285714D01*
X131457142Y-98571428D02*
X131457142Y-97971428D01*
X131685714Y-97971428D01*
X131742857Y-98000000D01*
X131771428Y-98028571D01*
X131800000Y-98085714D01*
X131800000Y-98171428D01*
X131771428Y-98228571D01*
X131742857Y-98257142D01*
X131685714Y-98285714D01*
X131457142Y-98285714D01*
X132028571Y-98028571D02*
X132057142Y-98000000D01*
X132114285Y-97971428D01*
X132257142Y-97971428D01*
X132314285Y-98000000D01*
X132342857Y-98028571D01*
X132371428Y-98085714D01*
X132371428Y-98142857D01*
X132342857Y-98228571D01*
X132000000Y-98571428D01*
X132371428Y-98571428D01*
X133128571Y-98171428D02*
X133128571Y-98571428D01*
X132985714Y-97942857D02*
X132842857Y-98371428D01*
X133214285Y-98371428D01*
X133442857Y-98571428D02*
X133442857Y-97971428D01*
X133785714Y-98571428D02*
X133528571Y-98228571D01*
X133785714Y-97971428D02*
X133442857Y-98314285D01*
X133985714Y-97971428D02*
X134385714Y-97971428D01*
X134128571Y-98571428D01*
X122671428Y-101885714D02*
X122385714Y-102085714D01*
X122671428Y-102228571D02*
X122071428Y-102228571D01*
X122071428Y-102000000D01*
X122100000Y-101942857D01*
X122128571Y-101914285D01*
X122185714Y-101885714D01*
X122271428Y-101885714D01*
X122328571Y-101914285D01*
X122357142Y-101942857D01*
X122385714Y-102000000D01*
X122385714Y-102228571D01*
X122671428Y-101314285D02*
X122671428Y-101657142D01*
X122671428Y-101485714D02*
X122071428Y-101485714D01*
X122157142Y-101542857D01*
X122214285Y-101600000D01*
X122242857Y-101657142D01*
X122071428Y-100942857D02*
X122071428Y-100885714D01*
X122100000Y-100828571D01*
X122128571Y-100800000D01*
X122185714Y-100771428D01*
X122300000Y-100742857D01*
X122442857Y-100742857D01*
X122557142Y-100771428D01*
X122614285Y-100800000D01*
X122642857Y-100828571D01*
X122671428Y-100885714D01*
X122671428Y-100942857D01*
X122642857Y-101000000D01*
X122614285Y-101028571D01*
X122557142Y-101057142D01*
X122442857Y-101085714D01*
X122300000Y-101085714D01*
X122185714Y-101057142D01*
X122128571Y-101028571D01*
X122100000Y-101000000D01*
X122071428Y-100942857D01*
X123771428Y-101928571D02*
X123771428Y-102271428D01*
X123771428Y-102100000D02*
X123171428Y-102100000D01*
X123257142Y-102157142D01*
X123314285Y-102214285D01*
X123342857Y-102271428D01*
X123771428Y-101671428D02*
X123171428Y-101671428D01*
X123771428Y-101328571D02*
X123428571Y-101585714D01*
X123171428Y-101328571D02*
X123514285Y-101671428D01*
X128050000Y-74821428D02*
X127850000Y-74535714D01*
X127707142Y-74821428D02*
X127707142Y-74221428D01*
X127935714Y-74221428D01*
X127992857Y-74250000D01*
X128021428Y-74278571D01*
X128050000Y-74335714D01*
X128050000Y-74421428D01*
X128021428Y-74478571D01*
X127992857Y-74507142D01*
X127935714Y-74535714D01*
X127707142Y-74535714D01*
X128564285Y-74421428D02*
X128564285Y-74821428D01*
X128421428Y-74192857D02*
X128278571Y-74621428D01*
X128650000Y-74621428D01*
X127707142Y-75121428D02*
X127421428Y-75121428D01*
X127392857Y-75407142D01*
X127421428Y-75378571D01*
X127478571Y-75350000D01*
X127621428Y-75350000D01*
X127678571Y-75378571D01*
X127707142Y-75407142D01*
X127735714Y-75464285D01*
X127735714Y-75607142D01*
X127707142Y-75664285D01*
X127678571Y-75692857D01*
X127621428Y-75721428D01*
X127478571Y-75721428D01*
X127421428Y-75692857D01*
X127392857Y-75664285D01*
X128250000Y-75121428D02*
X128135714Y-75121428D01*
X128078571Y-75150000D01*
X128050000Y-75178571D01*
X127992857Y-75264285D01*
X127964285Y-75378571D01*
X127964285Y-75607142D01*
X127992857Y-75664285D01*
X128021428Y-75692857D01*
X128078571Y-75721428D01*
X128192857Y-75721428D01*
X128250000Y-75692857D01*
X128278571Y-75664285D01*
X128307142Y-75607142D01*
X128307142Y-75464285D01*
X128278571Y-75407142D01*
X128250000Y-75378571D01*
X128192857Y-75350000D01*
X128078571Y-75350000D01*
X128021428Y-75378571D01*
X127992857Y-75407142D01*
X127964285Y-75464285D01*
X128564285Y-75721428D02*
X128564285Y-75121428D01*
X128907142Y-75721428D02*
X128650000Y-75378571D01*
X128907142Y-75121428D02*
X128564285Y-75464285D01*
X139600000Y-104971428D02*
X139400000Y-104685714D01*
X139257142Y-104971428D02*
X139257142Y-104371428D01*
X139485714Y-104371428D01*
X139542857Y-104400000D01*
X139571428Y-104428571D01*
X139600000Y-104485714D01*
X139600000Y-104571428D01*
X139571428Y-104628571D01*
X139542857Y-104657142D01*
X139485714Y-104685714D01*
X139257142Y-104685714D01*
X140142857Y-104371428D02*
X139857142Y-104371428D01*
X139828571Y-104657142D01*
X139857142Y-104628571D01*
X139914285Y-104600000D01*
X140057142Y-104600000D01*
X140114285Y-104628571D01*
X140142857Y-104657142D01*
X140171428Y-104714285D01*
X140171428Y-104857142D01*
X140142857Y-104914285D01*
X140114285Y-104942857D01*
X140057142Y-104971428D01*
X139914285Y-104971428D01*
X139857142Y-104942857D01*
X139828571Y-104914285D01*
X141042857Y-104971428D02*
X140700000Y-104971428D01*
X140871428Y-104971428D02*
X140871428Y-104371428D01*
X140814285Y-104457142D01*
X140757142Y-104514285D01*
X140700000Y-104542857D01*
X141300000Y-104971428D02*
X141300000Y-104371428D01*
X141642857Y-104971428D02*
X141385714Y-104628571D01*
X141642857Y-104371428D02*
X141300000Y-104714285D01*
X141985714Y-104371428D02*
X141985714Y-104514285D01*
X141842857Y-104457142D02*
X141985714Y-104514285D01*
X142128571Y-104457142D01*
X141900000Y-104628571D02*
X141985714Y-104514285D01*
X142071428Y-104628571D01*
X143400000Y-104971428D02*
X143200000Y-104685714D01*
X143057142Y-104971428D02*
X143057142Y-104371428D01*
X143285714Y-104371428D01*
X143342857Y-104400000D01*
X143371428Y-104428571D01*
X143400000Y-104485714D01*
X143400000Y-104571428D01*
X143371428Y-104628571D01*
X143342857Y-104657142D01*
X143285714Y-104685714D01*
X143057142Y-104685714D01*
X143914285Y-104371428D02*
X143800000Y-104371428D01*
X143742857Y-104400000D01*
X143714285Y-104428571D01*
X143657142Y-104514285D01*
X143628571Y-104628571D01*
X143628571Y-104857142D01*
X143657142Y-104914285D01*
X143685714Y-104942857D01*
X143742857Y-104971428D01*
X143857142Y-104971428D01*
X143914285Y-104942857D01*
X143942857Y-104914285D01*
X143971428Y-104857142D01*
X143971428Y-104714285D01*
X143942857Y-104657142D01*
X143914285Y-104628571D01*
X143857142Y-104600000D01*
X143742857Y-104600000D01*
X143685714Y-104628571D01*
X143657142Y-104657142D01*
X143628571Y-104714285D01*
X144842857Y-104971428D02*
X144500000Y-104971428D01*
X144671428Y-104971428D02*
X144671428Y-104371428D01*
X144614285Y-104457142D01*
X144557142Y-104514285D01*
X144500000Y-104542857D01*
X145100000Y-104971428D02*
X145100000Y-104371428D01*
X145442857Y-104971428D02*
X145185714Y-104628571D01*
X145442857Y-104371428D02*
X145100000Y-104714285D01*
X145785714Y-104371428D02*
X145785714Y-104514285D01*
X145642857Y-104457142D02*
X145785714Y-104514285D01*
X145928571Y-104457142D01*
X145700000Y-104628571D02*
X145785714Y-104514285D01*
X145871428Y-104628571D01*
X126514285Y-109314285D02*
X126485714Y-109342857D01*
X126400000Y-109371428D01*
X126342857Y-109371428D01*
X126257142Y-109342857D01*
X126200000Y-109285714D01*
X126171428Y-109228571D01*
X126142857Y-109114285D01*
X126142857Y-109028571D01*
X126171428Y-108914285D01*
X126200000Y-108857142D01*
X126257142Y-108800000D01*
X126342857Y-108771428D01*
X126400000Y-108771428D01*
X126485714Y-108800000D01*
X126514285Y-108828571D01*
X127085714Y-109371428D02*
X126742857Y-109371428D01*
X126914285Y-109371428D02*
X126914285Y-108771428D01*
X126857142Y-108857142D01*
X126800000Y-108914285D01*
X126742857Y-108942857D01*
X127600000Y-108771428D02*
X127485714Y-108771428D01*
X127428571Y-108800000D01*
X127400000Y-108828571D01*
X127342857Y-108914285D01*
X127314285Y-109028571D01*
X127314285Y-109257142D01*
X127342857Y-109314285D01*
X127371428Y-109342857D01*
X127428571Y-109371428D01*
X127542857Y-109371428D01*
X127600000Y-109342857D01*
X127628571Y-109314285D01*
X127657142Y-109257142D01*
X127657142Y-109114285D01*
X127628571Y-109057142D01*
X127600000Y-109028571D01*
X127542857Y-109000000D01*
X127428571Y-109000000D01*
X127371428Y-109028571D01*
X127342857Y-109057142D01*
X127314285Y-109114285D01*
X126428571Y-110171428D02*
X126085714Y-110171428D01*
X126257142Y-110171428D02*
X126257142Y-109571428D01*
X126200000Y-109657142D01*
X126142857Y-109714285D01*
X126085714Y-109742857D01*
X126800000Y-109571428D02*
X126857142Y-109571428D01*
X126914285Y-109600000D01*
X126942857Y-109628571D01*
X126971428Y-109685714D01*
X127000000Y-109800000D01*
X127000000Y-109942857D01*
X126971428Y-110057142D01*
X126942857Y-110114285D01*
X126914285Y-110142857D01*
X126857142Y-110171428D01*
X126800000Y-110171428D01*
X126742857Y-110142857D01*
X126714285Y-110114285D01*
X126685714Y-110057142D01*
X126657142Y-109942857D01*
X126657142Y-109800000D01*
X126685714Y-109685714D01*
X126714285Y-109628571D01*
X126742857Y-109600000D01*
X126800000Y-109571428D01*
X127371428Y-109571428D02*
X127428571Y-109571428D01*
X127485714Y-109600000D01*
X127514285Y-109628571D01*
X127542857Y-109685714D01*
X127571428Y-109800000D01*
X127571428Y-109942857D01*
X127542857Y-110057142D01*
X127514285Y-110114285D01*
X127485714Y-110142857D01*
X127428571Y-110171428D01*
X127371428Y-110171428D01*
X127314285Y-110142857D01*
X127285714Y-110114285D01*
X127257142Y-110057142D01*
X127228571Y-109942857D01*
X127228571Y-109800000D01*
X127257142Y-109685714D01*
X127285714Y-109628571D01*
X127314285Y-109600000D01*
X127371428Y-109571428D01*
X127828571Y-109771428D02*
X127828571Y-110171428D01*
X127828571Y-109828571D02*
X127857142Y-109800000D01*
X127914285Y-109771428D01*
X128000000Y-109771428D01*
X128057142Y-109800000D01*
X128085714Y-109857142D01*
X128085714Y-110171428D01*
X127714285Y-72714285D02*
X127685714Y-72742857D01*
X127600000Y-72771428D01*
X127542857Y-72771428D01*
X127457142Y-72742857D01*
X127400000Y-72685714D01*
X127371428Y-72628571D01*
X127342857Y-72514285D01*
X127342857Y-72428571D01*
X127371428Y-72314285D01*
X127400000Y-72257142D01*
X127457142Y-72200000D01*
X127542857Y-72171428D01*
X127600000Y-72171428D01*
X127685714Y-72200000D01*
X127714285Y-72228571D01*
X128285714Y-72771428D02*
X127942857Y-72771428D01*
X128114285Y-72771428D02*
X128114285Y-72171428D01*
X128057142Y-72257142D01*
X128000000Y-72314285D01*
X127942857Y-72342857D01*
X128828571Y-72171428D02*
X128542857Y-72171428D01*
X128514285Y-72457142D01*
X128542857Y-72428571D01*
X128600000Y-72400000D01*
X128742857Y-72400000D01*
X128800000Y-72428571D01*
X128828571Y-72457142D01*
X128857142Y-72514285D01*
X128857142Y-72657142D01*
X128828571Y-72714285D01*
X128800000Y-72742857D01*
X128742857Y-72771428D01*
X128600000Y-72771428D01*
X128542857Y-72742857D01*
X128514285Y-72714285D01*
X127657142Y-73271428D02*
X127657142Y-73671428D01*
X127514285Y-73042857D02*
X127371428Y-73471428D01*
X127742857Y-73471428D01*
X127914285Y-73071428D02*
X128314285Y-73071428D01*
X128057142Y-73671428D01*
X128800000Y-73271428D02*
X128800000Y-73671428D01*
X128542857Y-73271428D02*
X128542857Y-73585714D01*
X128571428Y-73642857D01*
X128628571Y-73671428D01*
X128714285Y-73671428D01*
X128771428Y-73642857D01*
X128800000Y-73614285D01*
X130000000Y-95114285D02*
X129971428Y-95142857D01*
X129885714Y-95171428D01*
X129828571Y-95171428D01*
X129742857Y-95142857D01*
X129685714Y-95085714D01*
X129657142Y-95028571D01*
X129628571Y-94914285D01*
X129628571Y-94828571D01*
X129657142Y-94714285D01*
X129685714Y-94657142D01*
X129742857Y-94600000D01*
X129828571Y-94571428D01*
X129885714Y-94571428D01*
X129971428Y-94600000D01*
X130000000Y-94628571D01*
X130542857Y-94571428D02*
X130257142Y-94571428D01*
X130228571Y-94857142D01*
X130257142Y-94828571D01*
X130314285Y-94800000D01*
X130457142Y-94800000D01*
X130514285Y-94828571D01*
X130542857Y-94857142D01*
X130571428Y-94914285D01*
X130571428Y-95057142D01*
X130542857Y-95114285D01*
X130514285Y-95142857D01*
X130457142Y-95171428D01*
X130314285Y-95171428D01*
X130257142Y-95142857D01*
X130228571Y-95114285D01*
X130100000Y-96071428D02*
X129757142Y-96071428D01*
X129928571Y-96071428D02*
X129928571Y-95471428D01*
X129871428Y-95557142D01*
X129814285Y-95614285D01*
X129757142Y-95642857D01*
X130614285Y-95671428D02*
X130614285Y-96071428D01*
X130357142Y-95671428D02*
X130357142Y-95985714D01*
X130385714Y-96042857D01*
X130442857Y-96071428D01*
X130528571Y-96071428D01*
X130585714Y-96042857D01*
X130614285Y-96014285D01*
X124600000Y-102171428D02*
X124400000Y-101885714D01*
X124257142Y-102171428D02*
X124257142Y-101571428D01*
X124485714Y-101571428D01*
X124542857Y-101600000D01*
X124571428Y-101628571D01*
X124600000Y-101685714D01*
X124600000Y-101771428D01*
X124571428Y-101828571D01*
X124542857Y-101857142D01*
X124485714Y-101885714D01*
X124257142Y-101885714D01*
X124885714Y-102171428D02*
X125000000Y-102171428D01*
X125057142Y-102142857D01*
X125085714Y-102114285D01*
X125142857Y-102028571D01*
X125171428Y-101914285D01*
X125171428Y-101685714D01*
X125142857Y-101628571D01*
X125114285Y-101600000D01*
X125057142Y-101571428D01*
X124942857Y-101571428D01*
X124885714Y-101600000D01*
X124857142Y-101628571D01*
X124828571Y-101685714D01*
X124828571Y-101828571D01*
X124857142Y-101885714D01*
X124885714Y-101914285D01*
X124942857Y-101942857D01*
X125057142Y-101942857D01*
X125114285Y-101914285D01*
X125142857Y-101885714D01*
X125171428Y-101828571D01*
X124285714Y-103171428D02*
X123942857Y-103171428D01*
X124114285Y-103171428D02*
X124114285Y-102571428D01*
X124057142Y-102657142D01*
X124000000Y-102714285D01*
X123942857Y-102742857D01*
X124657142Y-102571428D02*
X124714285Y-102571428D01*
X124771428Y-102600000D01*
X124800000Y-102628571D01*
X124828571Y-102685714D01*
X124857142Y-102800000D01*
X124857142Y-102942857D01*
X124828571Y-103057142D01*
X124800000Y-103114285D01*
X124771428Y-103142857D01*
X124714285Y-103171428D01*
X124657142Y-103171428D01*
X124600000Y-103142857D01*
X124571428Y-103114285D01*
X124542857Y-103057142D01*
X124514285Y-102942857D01*
X124514285Y-102800000D01*
X124542857Y-102685714D01*
X124571428Y-102628571D01*
X124600000Y-102600000D01*
X124657142Y-102571428D01*
X125114285Y-103171428D02*
X125114285Y-102571428D01*
X125457142Y-103171428D02*
X125200000Y-102828571D01*
X125457142Y-102571428D02*
X125114285Y-102914285D01*
X124514285Y-96371428D02*
X124314285Y-96085714D01*
X124171428Y-96371428D02*
X124171428Y-95771428D01*
X124400000Y-95771428D01*
X124457142Y-95800000D01*
X124485714Y-95828571D01*
X124514285Y-95885714D01*
X124514285Y-95971428D01*
X124485714Y-96028571D01*
X124457142Y-96057142D01*
X124400000Y-96085714D01*
X124171428Y-96085714D01*
X125085714Y-96371428D02*
X124742857Y-96371428D01*
X124914285Y-96371428D02*
X124914285Y-95771428D01*
X124857142Y-95857142D01*
X124800000Y-95914285D01*
X124742857Y-95942857D01*
X125314285Y-95828571D02*
X125342857Y-95800000D01*
X125400000Y-95771428D01*
X125542857Y-95771428D01*
X125600000Y-95800000D01*
X125628571Y-95828571D01*
X125657142Y-95885714D01*
X125657142Y-95942857D01*
X125628571Y-96028571D01*
X125285714Y-96371428D01*
X125657142Y-96371428D01*
X124528571Y-96871428D02*
X124528571Y-97271428D01*
X124385714Y-96642857D02*
X124242857Y-97071428D01*
X124614285Y-97071428D01*
X124842857Y-97271428D02*
X124842857Y-96671428D01*
X125185714Y-97271428D02*
X124928571Y-96928571D01*
X125185714Y-96671428D02*
X124842857Y-97014285D01*
X125385714Y-96671428D02*
X125785714Y-96671428D01*
X125528571Y-97271428D01*
X131414285Y-104800000D02*
X131442857Y-104828571D01*
X131471428Y-104914285D01*
X131471428Y-104971428D01*
X131442857Y-105057142D01*
X131385714Y-105114285D01*
X131328571Y-105142857D01*
X131214285Y-105171428D01*
X131128571Y-105171428D01*
X131014285Y-105142857D01*
X130957142Y-105114285D01*
X130900000Y-105057142D01*
X130871428Y-104971428D01*
X130871428Y-104914285D01*
X130900000Y-104828571D01*
X130928571Y-104800000D01*
X130871428Y-104600000D02*
X130871428Y-104228571D01*
X131100000Y-104428571D01*
X131100000Y-104342857D01*
X131128571Y-104285714D01*
X131157142Y-104257142D01*
X131214285Y-104228571D01*
X131357142Y-104228571D01*
X131414285Y-104257142D01*
X131442857Y-104285714D01*
X131471428Y-104342857D01*
X131471428Y-104514285D01*
X131442857Y-104571428D01*
X131414285Y-104600000D01*
X131471428Y-103371428D02*
X131471428Y-103714285D01*
X131471428Y-103542857D02*
X130871428Y-103542857D01*
X130957142Y-103600000D01*
X131014285Y-103657142D01*
X131042857Y-103714285D01*
X130871428Y-103000000D02*
X130871428Y-102942857D01*
X130900000Y-102885714D01*
X130928571Y-102857142D01*
X130985714Y-102828571D01*
X131100000Y-102800000D01*
X131242857Y-102800000D01*
X131357142Y-102828571D01*
X131414285Y-102857142D01*
X131442857Y-102885714D01*
X131471428Y-102942857D01*
X131471428Y-103000000D01*
X131442857Y-103057142D01*
X131414285Y-103085714D01*
X131357142Y-103114285D01*
X131242857Y-103142857D01*
X131100000Y-103142857D01*
X130985714Y-103114285D01*
X130928571Y-103085714D01*
X130900000Y-103057142D01*
X130871428Y-103000000D01*
X130871428Y-102428571D02*
X130871428Y-102371428D01*
X130900000Y-102314285D01*
X130928571Y-102285714D01*
X130985714Y-102257142D01*
X131100000Y-102228571D01*
X131242857Y-102228571D01*
X131357142Y-102257142D01*
X131414285Y-102285714D01*
X131442857Y-102314285D01*
X131471428Y-102371428D01*
X131471428Y-102428571D01*
X131442857Y-102485714D01*
X131414285Y-102514285D01*
X131357142Y-102542857D01*
X131242857Y-102571428D01*
X131100000Y-102571428D01*
X130985714Y-102542857D01*
X130928571Y-102514285D01*
X130900000Y-102485714D01*
X130871428Y-102428571D01*
X131071428Y-101971428D02*
X131471428Y-101971428D01*
X131128571Y-101971428D02*
X131100000Y-101942857D01*
X131071428Y-101885714D01*
X131071428Y-101800000D01*
X131100000Y-101742857D01*
X131157142Y-101714285D01*
X131471428Y-101714285D01*
D12*
X140528571Y-91652380D02*
X141100000Y-91652380D01*
X140814285Y-92652380D02*
X140814285Y-91652380D01*
X141576190Y-92652380D02*
X141480952Y-92604761D01*
X141433333Y-92557142D01*
X141385714Y-92461904D01*
X141385714Y-92176190D01*
X141433333Y-92080952D01*
X141480952Y-92033333D01*
X141576190Y-91985714D01*
X141719047Y-91985714D01*
X141814285Y-92033333D01*
X141861904Y-92080952D01*
X141909523Y-92176190D01*
X141909523Y-92461904D01*
X141861904Y-92557142D01*
X141814285Y-92604761D01*
X141719047Y-92652380D01*
X141576190Y-92652380D01*
X142766666Y-91985714D02*
X142766666Y-92652380D01*
X142338095Y-91985714D02*
X142338095Y-92509523D01*
X142385714Y-92604761D01*
X142480952Y-92652380D01*
X142623809Y-92652380D01*
X142719047Y-92604761D01*
X142766666Y-92557142D01*
X143671428Y-92604761D02*
X143576190Y-92652380D01*
X143385714Y-92652380D01*
X143290476Y-92604761D01*
X143242857Y-92557142D01*
X143195238Y-92461904D01*
X143195238Y-92176190D01*
X143242857Y-92080952D01*
X143290476Y-92033333D01*
X143385714Y-91985714D01*
X143576190Y-91985714D01*
X143671428Y-92033333D01*
X144100000Y-92652380D02*
X144100000Y-91652380D01*
X144528571Y-92652380D02*
X144528571Y-92128571D01*
X144480952Y-92033333D01*
X144385714Y-91985714D01*
X144242857Y-91985714D01*
X144147619Y-92033333D01*
X144100000Y-92080952D01*
D14*
X123014285Y-81800000D02*
X123042857Y-81828571D01*
X123071428Y-81914285D01*
X123071428Y-81971428D01*
X123042857Y-82057142D01*
X122985714Y-82114285D01*
X122928571Y-82142857D01*
X122814285Y-82171428D01*
X122728571Y-82171428D01*
X122614285Y-82142857D01*
X122557142Y-82114285D01*
X122500000Y-82057142D01*
X122471428Y-81971428D01*
X122471428Y-81914285D01*
X122500000Y-81828571D01*
X122528571Y-81800000D01*
X122471428Y-81285714D02*
X122471428Y-81400000D01*
X122500000Y-81457142D01*
X122528571Y-81485714D01*
X122614285Y-81542857D01*
X122728571Y-81571428D01*
X122957142Y-81571428D01*
X123014285Y-81542857D01*
X123042857Y-81514285D01*
X123071428Y-81457142D01*
X123071428Y-81342857D01*
X123042857Y-81285714D01*
X123014285Y-81257142D01*
X122957142Y-81228571D01*
X122814285Y-81228571D01*
X122757142Y-81257142D01*
X122728571Y-81285714D01*
X122700000Y-81342857D01*
X122700000Y-81457142D01*
X122728571Y-81514285D01*
X122757142Y-81542857D01*
X122814285Y-81571428D01*
X123071428Y-80321428D02*
X123071428Y-80664285D01*
X123071428Y-80492857D02*
X122471428Y-80492857D01*
X122557142Y-80550000D01*
X122614285Y-80607142D01*
X122642857Y-80664285D01*
X122471428Y-79950000D02*
X122471428Y-79892857D01*
X122500000Y-79835714D01*
X122528571Y-79807142D01*
X122585714Y-79778571D01*
X122700000Y-79750000D01*
X122842857Y-79750000D01*
X122957142Y-79778571D01*
X123014285Y-79807142D01*
X123042857Y-79835714D01*
X123071428Y-79892857D01*
X123071428Y-79950000D01*
X123042857Y-80007142D01*
X123014285Y-80035714D01*
X122957142Y-80064285D01*
X122842857Y-80092857D01*
X122700000Y-80092857D01*
X122585714Y-80064285D01*
X122528571Y-80035714D01*
X122500000Y-80007142D01*
X122471428Y-79950000D01*
X122471428Y-79378571D02*
X122471428Y-79321428D01*
X122500000Y-79264285D01*
X122528571Y-79235714D01*
X122585714Y-79207142D01*
X122700000Y-79178571D01*
X122842857Y-79178571D01*
X122957142Y-79207142D01*
X123014285Y-79235714D01*
X123042857Y-79264285D01*
X123071428Y-79321428D01*
X123071428Y-79378571D01*
X123042857Y-79435714D01*
X123014285Y-79464285D01*
X122957142Y-79492857D01*
X122842857Y-79521428D01*
X122700000Y-79521428D01*
X122585714Y-79492857D01*
X122528571Y-79464285D01*
X122500000Y-79435714D01*
X122471428Y-79378571D01*
X122671428Y-78921428D02*
X123071428Y-78921428D01*
X122728571Y-78921428D02*
X122700000Y-78892857D01*
X122671428Y-78835714D01*
X122671428Y-78750000D01*
X122700000Y-78692857D01*
X122757142Y-78664285D01*
X123071428Y-78664285D01*
X122171428Y-98957142D02*
X122657142Y-98957142D01*
X122714285Y-98928571D01*
X122742857Y-98900000D01*
X122771428Y-98842857D01*
X122771428Y-98728571D01*
X122742857Y-98671428D01*
X122714285Y-98642857D01*
X122657142Y-98614285D01*
X122171428Y-98614285D01*
X122371428Y-98071428D02*
X122771428Y-98071428D01*
X122142857Y-98214285D02*
X122571428Y-98357142D01*
X122571428Y-97985714D01*
X123771428Y-100400000D02*
X123171428Y-100400000D01*
X123600000Y-100200000D01*
X123171428Y-100000000D01*
X123771428Y-100000000D01*
X123171428Y-99800000D02*
X123171428Y-99457142D01*
X123771428Y-99628571D02*
X123171428Y-99628571D01*
X123714285Y-98914285D02*
X123742857Y-98942857D01*
X123771428Y-99028571D01*
X123771428Y-99085714D01*
X123742857Y-99171428D01*
X123685714Y-99228571D01*
X123628571Y-99257142D01*
X123514285Y-99285714D01*
X123428571Y-99285714D01*
X123314285Y-99257142D01*
X123257142Y-99228571D01*
X123200000Y-99171428D01*
X123171428Y-99085714D01*
X123171428Y-99028571D01*
X123200000Y-98942857D01*
X123228571Y-98914285D01*
X123771428Y-98657142D02*
X123171428Y-98657142D01*
X123457142Y-98657142D02*
X123457142Y-98314285D01*
X123771428Y-98314285D02*
X123171428Y-98314285D01*
X123771428Y-97714285D02*
X123771428Y-98057142D01*
X123771428Y-97885714D02*
X123171428Y-97885714D01*
X123257142Y-97942857D01*
X123314285Y-98000000D01*
X123342857Y-98057142D01*
X123171428Y-97342857D02*
X123171428Y-97285714D01*
X123200000Y-97228571D01*
X123228571Y-97200000D01*
X123285714Y-97171428D01*
X123400000Y-97142857D01*
X123542857Y-97142857D01*
X123657142Y-97171428D01*
X123714285Y-97200000D01*
X123742857Y-97228571D01*
X123771428Y-97285714D01*
X123771428Y-97342857D01*
X123742857Y-97400000D01*
X123714285Y-97428571D01*
X123657142Y-97457142D01*
X123542857Y-97485714D01*
X123400000Y-97485714D01*
X123285714Y-97457142D01*
X123228571Y-97428571D01*
X123200000Y-97400000D01*
X123171428Y-97342857D01*
X123228571Y-96914285D02*
X123200000Y-96885714D01*
X123171428Y-96828571D01*
X123171428Y-96685714D01*
X123200000Y-96628571D01*
X123228571Y-96600000D01*
X123285714Y-96571428D01*
X123342857Y-96571428D01*
X123428571Y-96600000D01*
X123771428Y-96942857D01*
X123771428Y-96571428D01*
X128171428Y-108357142D02*
X128657142Y-108357142D01*
X128714285Y-108328571D01*
X128742857Y-108300000D01*
X128771428Y-108242857D01*
X128771428Y-108128571D01*
X128742857Y-108071428D01*
X128714285Y-108042857D01*
X128657142Y-108014285D01*
X128171428Y-108014285D01*
X128171428Y-107471428D02*
X128171428Y-107585714D01*
X128200000Y-107642857D01*
X128228571Y-107671428D01*
X128314285Y-107728571D01*
X128428571Y-107757142D01*
X128657142Y-107757142D01*
X128714285Y-107728571D01*
X128742857Y-107700000D01*
X128771428Y-107642857D01*
X128771428Y-107528571D01*
X128742857Y-107471428D01*
X128714285Y-107442857D01*
X128657142Y-107414285D01*
X128514285Y-107414285D01*
X128457142Y-107442857D01*
X128428571Y-107471428D01*
X128400000Y-107528571D01*
X128400000Y-107642857D01*
X128428571Y-107700000D01*
X128457142Y-107728571D01*
X128514285Y-107757142D01*
X129600000Y-112142857D02*
X129600000Y-111857142D01*
X129771428Y-112200000D02*
X129171428Y-112000000D01*
X129771428Y-111800000D01*
X129171428Y-111685714D02*
X129171428Y-111342857D01*
X129771428Y-111514285D02*
X129171428Y-111514285D01*
X129742857Y-111171428D02*
X129771428Y-111085714D01*
X129771428Y-110942857D01*
X129742857Y-110885714D01*
X129714285Y-110857142D01*
X129657142Y-110828571D01*
X129600000Y-110828571D01*
X129542857Y-110857142D01*
X129514285Y-110885714D01*
X129485714Y-110942857D01*
X129457142Y-111057142D01*
X129428571Y-111114285D01*
X129400000Y-111142857D01*
X129342857Y-111171428D01*
X129285714Y-111171428D01*
X129228571Y-111142857D01*
X129200000Y-111114285D01*
X129171428Y-111057142D01*
X129171428Y-110914285D01*
X129200000Y-110828571D01*
X129771428Y-110571428D02*
X129171428Y-110571428D01*
X129457142Y-110571428D02*
X129457142Y-110228571D01*
X129771428Y-110228571D02*
X129171428Y-110228571D01*
X129600000Y-109971428D02*
X129600000Y-109685714D01*
X129771428Y-110028571D02*
X129171428Y-109828571D01*
X129771428Y-109628571D01*
X129228571Y-109457142D02*
X129200000Y-109428571D01*
X129171428Y-109371428D01*
X129171428Y-109228571D01*
X129200000Y-109171428D01*
X129228571Y-109142857D01*
X129285714Y-109114285D01*
X129342857Y-109114285D01*
X129428571Y-109142857D01*
X129771428Y-109485714D01*
X129771428Y-109114285D01*
X129171428Y-108742857D02*
X129171428Y-108685714D01*
X129200000Y-108628571D01*
X129228571Y-108600000D01*
X129285714Y-108571428D01*
X129400000Y-108542857D01*
X129542857Y-108542857D01*
X129657142Y-108571428D01*
X129714285Y-108600000D01*
X129742857Y-108628571D01*
X129771428Y-108685714D01*
X129771428Y-108742857D01*
X129742857Y-108800000D01*
X129714285Y-108828571D01*
X129657142Y-108857142D01*
X129542857Y-108885714D01*
X129400000Y-108885714D01*
X129285714Y-108857142D01*
X129228571Y-108828571D01*
X129200000Y-108800000D01*
X129171428Y-108742857D01*
X129371428Y-108028571D02*
X129771428Y-108028571D01*
X129142857Y-108171428D02*
X129571428Y-108314285D01*
X129571428Y-107942857D01*
X129600000Y-107742857D02*
X129600000Y-107457142D01*
X129771428Y-107800000D02*
X129171428Y-107600000D01*
X129771428Y-107400000D01*
%LPC*%
D15*
X130250000Y-92550000D03*
X129450000Y-92550000D03*
X128650000Y-92550000D03*
X127850000Y-92550000D03*
X127050000Y-92550000D03*
X126250000Y-92550000D03*
X125450000Y-92550000D03*
X124650000Y-92550000D03*
D16*
X123200000Y-91100000D03*
X123200000Y-90300000D03*
X123200000Y-89500000D03*
X123200000Y-88700000D03*
X123200000Y-87900000D03*
X123200000Y-87100000D03*
X123200000Y-86300000D03*
X123200000Y-85500000D03*
D15*
X124650000Y-84050000D03*
X125450000Y-84050000D03*
X126250000Y-84050000D03*
X127050000Y-84050000D03*
X127850000Y-84050000D03*
X128650000Y-84050000D03*
X129450000Y-84050000D03*
X130250000Y-84050000D03*
D16*
X131700000Y-85500000D03*
X131700000Y-86300000D03*
X131700000Y-87100000D03*
X131700000Y-87900000D03*
X131700000Y-88700000D03*
X131700000Y-89500000D03*
X131700000Y-90300000D03*
X131700000Y-91100000D03*
D17*
X127300000Y-80150000D03*
X125300000Y-81100000D03*
X125300000Y-79200000D03*
D18*
X135300000Y-72600000D03*
X135300000Y-73870000D03*
X135300000Y-75140000D03*
X135300000Y-76410000D03*
X135300000Y-77680000D03*
X135300000Y-78950000D03*
X135300000Y-80220000D03*
X135300000Y-81490000D03*
D19*
X143650000Y-107550000D03*
X143650000Y-109550000D03*
X141650000Y-107550000D03*
X141650000Y-109550000D03*
X139650000Y-107550000D03*
X139650000Y-109550000D03*
X137650000Y-107550000D03*
X137650000Y-109550000D03*
X135650000Y-107550000D03*
X135650000Y-109550000D03*
X133650000Y-107550000D03*
X133650000Y-109550000D03*
X131650000Y-107550000D03*
X131650000Y-109550000D03*
D20*
X132000000Y-99700000D03*
X134200000Y-99700000D03*
D21*
X122800000Y-105600000D03*
X122800000Y-103400000D03*
D22*
X146700000Y-100700000D03*
X138500000Y-100700000D03*
D20*
X129700000Y-75200000D03*
X131900000Y-75200000D03*
X141500000Y-103200000D03*
X139300000Y-103200000D03*
X143400000Y-103200000D03*
X145600000Y-103200000D03*
D23*
X124650000Y-107800000D03*
X126550000Y-107800000D03*
D24*
X129975000Y-72750000D03*
X132525000Y-72750000D03*
D23*
X128450000Y-95200000D03*
X126550000Y-95200000D03*
D20*
X128400000Y-102100000D03*
X126200000Y-102100000D03*
X128700000Y-96700000D03*
X126500000Y-96700000D03*
D25*
X130000000Y-102350000D03*
X130000000Y-104250000D03*
X124000000Y-79150000D03*
X124000000Y-81050000D03*
D26*
X125400000Y-100375000D03*
X125400000Y-99725000D03*
X125400000Y-99075000D03*
X125400000Y-98425000D03*
X129800000Y-98425000D03*
X129800000Y-99075000D03*
X129800000Y-99725000D03*
X129800000Y-100375000D03*
D27*
X127900000Y-105100000D03*
X124900000Y-106050000D03*
X124900000Y-104150000D03*
M02*
