G04 #@! TF.GenerationSoftware,KiCad,Pcbnew,no-vcs-found-4f2ed1b~58~ubuntu16.04.1*
G04 #@! TF.CreationDate,2017-05-08T18:53:11+03:00*
G04 #@! TF.ProjectId,livolo_1_channel_1way_eu_switch,6C69766F6C6F5F315F6368616E6E656C,rev?*
G04 #@! TF.FileFunction,Copper,L1,Top,Signal*
G04 #@! TF.FilePolarity,Positive*
%FSLAX46Y46*%
G04 Gerber Fmt 4.6, Leading zero omitted, Abs format (unit mm)*
G04 Created by KiCad (PCBNEW no-vcs-found-4f2ed1b~58~ubuntu16.04.1) date Mon May  8 18:53:11 2017*
%MOMM*%
%LPD*%
G01*
G04 APERTURE LIST*
%ADD10C,0.100000*%
%ADD11R,1.200000X0.900000*%
%ADD12R,1.000000X1.250000*%
%ADD13R,4.000000X2.000000*%
%ADD14R,1.200000X2.000000*%
%ADD15R,1.200000X1.400000*%
%ADD16R,0.900000X1.200000*%
%ADD17R,0.650000X1.060000*%
%ADD18R,2.500000X1.270000*%
%ADD19R,1.750000X1.260000*%
%ADD20R,1.200000X0.750000*%
%ADD21R,0.500000X0.600000*%
%ADD22R,0.750000X1.200000*%
%ADD23R,0.550000X1.600000*%
%ADD24R,1.600000X0.550000*%
%ADD25C,1.998980*%
%ADD26R,1.998980X1.399540*%
%ADD27R,0.600000X1.550000*%
%ADD28R,0.800000X1.900000*%
%ADD29R,0.500000X0.900000*%
%ADD30R,1.260000X1.750000*%
%ADD31O,1.350000X1.350000*%
%ADD32R,1.350000X1.350000*%
%ADD33C,0.800000*%
%ADD34C,0.300000*%
%ADD35C,0.450000*%
%ADD36C,0.800000*%
%ADD37C,0.500000*%
%ADD38C,0.254000*%
G04 APERTURE END LIST*
D10*
D11*
X130200000Y-98600000D03*
X128000000Y-98600000D03*
D12*
X149400000Y-109300000D03*
X151400000Y-109300000D03*
D13*
X157800000Y-103050000D03*
X157800000Y-106300000D03*
D14*
X154600000Y-105500000D03*
D15*
X154600000Y-108500000D03*
D16*
X146200000Y-109100000D03*
X146200000Y-106900000D03*
D17*
X150400000Y-107600000D03*
X151350000Y-107600000D03*
X149450000Y-107600000D03*
X149450000Y-105400000D03*
X150400000Y-105400000D03*
X151350000Y-105400000D03*
D18*
X126050000Y-82440000D03*
X126050000Y-79900000D03*
X126050000Y-77360000D03*
X130050000Y-77360000D03*
X130050000Y-79900000D03*
X130050000Y-82400000D03*
D19*
X154675000Y-96092000D03*
X157225000Y-96092000D03*
D11*
X124034000Y-98588000D03*
X126234000Y-98588000D03*
D20*
X152675000Y-72600000D03*
X154575000Y-72600000D03*
D21*
X121900000Y-92050000D03*
X121900000Y-90950000D03*
X121900000Y-88250000D03*
X121900000Y-89350000D03*
X133400000Y-90050000D03*
X133400000Y-91150000D03*
D22*
X153400000Y-99950000D03*
X153400000Y-98050000D03*
X159000000Y-99650000D03*
X159000000Y-97750000D03*
X153000000Y-107450000D03*
X153000000Y-105550000D03*
D20*
X134750000Y-102500000D03*
X132850000Y-102500000D03*
X132850000Y-97200000D03*
X134750000Y-97200000D03*
D16*
X155150000Y-103300000D03*
X151850000Y-103300000D03*
D23*
X130350000Y-95650000D03*
X129550000Y-95650000D03*
X128750000Y-95650000D03*
X127950000Y-95650000D03*
X127150000Y-95650000D03*
X126350000Y-95650000D03*
X125550000Y-95650000D03*
X124750000Y-95650000D03*
D24*
X123300000Y-94200000D03*
X123300000Y-93400000D03*
X123300000Y-92600000D03*
X123300000Y-91800000D03*
X123300000Y-91000000D03*
X123300000Y-90200000D03*
X123300000Y-89400000D03*
X123300000Y-88600000D03*
D23*
X124750000Y-87150000D03*
X125550000Y-87150000D03*
X126350000Y-87150000D03*
X127150000Y-87150000D03*
X127950000Y-87150000D03*
X128750000Y-87150000D03*
X129550000Y-87150000D03*
X130350000Y-87150000D03*
D24*
X131800000Y-88600000D03*
X131800000Y-89400000D03*
X131800000Y-90200000D03*
X131800000Y-91000000D03*
X131800000Y-91800000D03*
X131800000Y-92600000D03*
X131800000Y-93400000D03*
X131800000Y-94200000D03*
D25*
X131550000Y-72550000D03*
D16*
X147800000Y-107600000D03*
X147800000Y-105400000D03*
X132500000Y-81200000D03*
X132500000Y-83400000D03*
D11*
X141400000Y-103400000D03*
X139200000Y-103400000D03*
X143300000Y-103400000D03*
X145500000Y-103400000D03*
D17*
X155000000Y-97650000D03*
X156900000Y-97650000D03*
X156900000Y-99850000D03*
X155950000Y-99850000D03*
X155000000Y-99850000D03*
X133850000Y-98750000D03*
X132900000Y-98750000D03*
X134800000Y-98750000D03*
X134800000Y-100950000D03*
X133850000Y-100950000D03*
X132900000Y-100950000D03*
D26*
X134499800Y-72598780D03*
X134471860Y-74600300D03*
X134471860Y-76599280D03*
X134471860Y-78550000D03*
X134471860Y-80500720D03*
X134471860Y-82499700D03*
X134471860Y-84501220D03*
X150372260Y-84501220D03*
X150372260Y-82499700D03*
X150372260Y-80500720D03*
X150372260Y-78550000D03*
X150372260Y-76599280D03*
X150372260Y-74600300D03*
X150372260Y-72598780D03*
D22*
X122500000Y-99100000D03*
X122500000Y-101000000D03*
D11*
X153200000Y-81700000D03*
X155400000Y-81700000D03*
D27*
X153120000Y-74400000D03*
X154390000Y-74400000D03*
X155660000Y-74400000D03*
X156930000Y-74400000D03*
X156930000Y-79800000D03*
X155660000Y-79800000D03*
X154390000Y-79800000D03*
X153120000Y-79800000D03*
D28*
X125000000Y-103550000D03*
X124050000Y-100550000D03*
X125950000Y-100550000D03*
D29*
X156600000Y-94300000D03*
X155100000Y-94300000D03*
D30*
X132400000Y-77275000D03*
X132400000Y-74725000D03*
D31*
X143650000Y-107550000D03*
X143650000Y-109550000D03*
X141650000Y-107550000D03*
X141650000Y-109550000D03*
X139650000Y-107550000D03*
X139650000Y-109550000D03*
X137650000Y-107550000D03*
X137650000Y-109550000D03*
X135650000Y-107550000D03*
X135650000Y-109550000D03*
X133650000Y-107550000D03*
X133650000Y-109550000D03*
X131650000Y-107550000D03*
D32*
X131650000Y-109550000D03*
D33*
X144600000Y-104900000D03*
X132100000Y-79800000D03*
X154000000Y-94400000D03*
X131325001Y-95202310D03*
X133700010Y-95500000D03*
X130900000Y-74700000D03*
X129850010Y-90400000D03*
X127999989Y-90400000D03*
X139900000Y-105800000D03*
X121700000Y-87300004D03*
X128007994Y-92400000D03*
X129708005Y-92352866D03*
X121700004Y-93000000D03*
X150600002Y-109300000D03*
X150400000Y-106369998D03*
X127786691Y-93623201D03*
X128100000Y-77400000D03*
X147700000Y-111000000D03*
X136900000Y-98400000D03*
X128100000Y-83600006D03*
X154200000Y-78400000D03*
X136398952Y-82698952D03*
X155500000Y-75900000D03*
X147900000Y-75900000D03*
X130219337Y-88650002D03*
X138600000Y-77500000D03*
X156900000Y-76900000D03*
X124000000Y-80000000D03*
X125600000Y-85700000D03*
X145900000Y-102200000D03*
X142199944Y-102100000D03*
X128900006Y-89450010D03*
X148500000Y-82700000D03*
X129799990Y-93449025D03*
X135885951Y-101414049D03*
X126300000Y-93400000D03*
X125493191Y-94147720D03*
X131000000Y-85400000D03*
X152156138Y-81645958D03*
D34*
X144034311Y-104900004D02*
X144034315Y-104900000D01*
X144034315Y-104900000D02*
X144600000Y-104900000D01*
X129650002Y-104900004D02*
X144034311Y-104900004D01*
X126699999Y-101950001D02*
X129650002Y-104900004D01*
X124034000Y-98588000D02*
X123012000Y-98588000D01*
X123012000Y-98588000D02*
X122500000Y-99100000D01*
X129850010Y-90400000D02*
X130500000Y-90400000D01*
X130500000Y-90400000D02*
X130700000Y-90200000D01*
X132500000Y-81200000D02*
X132499999Y-80199999D01*
X132499999Y-80199999D02*
X132100000Y-79800000D01*
X126050000Y-82440000D02*
X127260000Y-82440000D01*
X127260000Y-82440000D02*
X128500000Y-81200000D01*
X128500000Y-81200000D02*
X132500000Y-81200000D01*
X154390000Y-77331998D02*
X154390000Y-74400000D01*
X155660000Y-78601998D02*
X154390000Y-77331998D01*
X155660000Y-79800000D02*
X155660000Y-78601998D01*
X123300000Y-89400000D02*
X121950000Y-89400000D01*
X121950000Y-89400000D02*
X121900000Y-89350000D01*
X130200000Y-98600000D02*
X131100000Y-97700000D01*
X131100000Y-97700000D02*
X131100000Y-96875002D01*
X131100000Y-96875002D02*
X131125001Y-96850001D01*
X131125001Y-96850001D02*
X131125001Y-95402310D01*
X131125001Y-95402310D02*
X131325001Y-95202310D01*
X155100000Y-94300000D02*
X154100000Y-94300000D01*
X154100000Y-94300000D02*
X154000000Y-94400000D01*
X134800000Y-98750000D02*
X133850000Y-98750000D01*
X134800000Y-98750000D02*
X134800000Y-97250000D01*
X134800000Y-97250000D02*
X134750000Y-97200000D01*
X133700010Y-95500000D02*
X133700010Y-96150010D01*
X133700010Y-96150010D02*
X134750000Y-97200000D01*
X130900000Y-74700000D02*
X132375000Y-74700000D01*
X132375000Y-74700000D02*
X132400000Y-74725000D01*
X155100000Y-94300000D02*
X155100000Y-82000000D01*
X155100000Y-82000000D02*
X155400000Y-81700000D01*
X124050000Y-100550000D02*
X124050000Y-101100000D01*
X124050000Y-101100000D02*
X124900001Y-101950001D01*
X124900001Y-101950001D02*
X126699999Y-101950001D01*
X126699999Y-101950001D02*
X130050000Y-98600000D01*
X130050000Y-98600000D02*
X130200000Y-98600000D01*
X130758002Y-91800000D02*
X131800000Y-91800000D01*
X130549999Y-90350001D02*
X130549999Y-91591997D01*
X130549999Y-91591997D02*
X130758002Y-91800000D01*
X123300000Y-89400000D02*
X126999989Y-89400000D01*
X126999989Y-89400000D02*
X127999989Y-90400000D01*
X131800000Y-90200000D02*
X130700000Y-90200000D01*
X130700000Y-90200000D02*
X130549999Y-90350001D01*
X124050000Y-100550000D02*
X124050000Y-98604000D01*
X124050000Y-98604000D02*
X124034000Y-98588000D01*
X131800000Y-91800000D02*
X131874999Y-91874999D01*
X155660000Y-79800000D02*
X155660000Y-81440000D01*
X155660000Y-81440000D02*
X155400000Y-81700000D01*
X154390000Y-74400000D02*
X154390000Y-72785000D01*
X154390000Y-72785000D02*
X154575000Y-72600000D01*
X153120000Y-74400000D02*
X154390000Y-74400000D01*
X133400000Y-90050000D02*
X133250000Y-90200000D01*
X133250000Y-90200000D02*
X131800000Y-90200000D01*
X134471860Y-74600300D02*
X132524700Y-74600300D01*
X132524700Y-74600300D02*
X132400000Y-74725000D01*
X123300000Y-91800000D02*
X122150000Y-91800000D01*
X122150000Y-91800000D02*
X121900000Y-92050000D01*
X121700000Y-87300004D02*
X121700000Y-88050000D01*
X121700000Y-88050000D02*
X121900000Y-88250000D01*
X121700004Y-93000000D02*
X121700004Y-92249996D01*
X121700004Y-92249996D02*
X121900000Y-92050000D01*
X151400000Y-109300000D02*
X152400000Y-109300000D01*
X152400000Y-109300000D02*
X152900000Y-108800000D01*
X152900000Y-108800000D02*
X154300000Y-108800000D01*
X154300000Y-108800000D02*
X154600000Y-108500000D01*
X123300000Y-91800000D02*
X127407994Y-91800000D01*
X131800000Y-92600000D02*
X129955139Y-92600000D01*
X127407994Y-91800000D02*
X128007994Y-92400000D01*
X129955139Y-92600000D02*
X129708005Y-92352866D01*
X155950000Y-99850000D02*
X155950000Y-99020000D01*
X155950000Y-99020000D02*
X155560001Y-98630001D01*
X153980001Y-98630001D02*
X153400000Y-98050000D01*
X155560001Y-98630001D02*
X153980001Y-98630001D01*
X121700000Y-92999996D02*
X121700004Y-93000000D01*
X150600002Y-109300000D02*
X151400000Y-109300000D01*
X150400000Y-105400000D02*
X150400000Y-106369998D01*
X132850000Y-97200000D02*
X132850000Y-95035002D01*
X133050001Y-92750001D02*
X132900000Y-92600000D01*
X132850000Y-95035002D02*
X133050001Y-94835001D01*
X133050001Y-94835001D02*
X133050001Y-92750001D01*
X133850000Y-100950000D02*
X133850000Y-100120000D01*
X133850000Y-100120000D02*
X133460001Y-99730001D01*
X133460001Y-99730001D02*
X133050001Y-99730001D01*
X133050001Y-99730001D02*
X132900000Y-99580000D01*
X132900000Y-99580000D02*
X132900000Y-98750000D01*
X132850000Y-102500000D02*
X133850000Y-101500000D01*
X133850000Y-101500000D02*
X133850000Y-100950000D01*
X132850000Y-97200000D02*
X132850000Y-98700000D01*
X132850000Y-98700000D02*
X132900000Y-98750000D01*
X131800000Y-92600000D02*
X132900000Y-92600000D01*
X132900000Y-92600000D02*
X133400000Y-92100000D01*
X133400000Y-92100000D02*
X133400000Y-91150000D01*
X133400000Y-91150000D02*
X133250000Y-91000000D01*
X133250000Y-91000000D02*
X131800000Y-91000000D01*
X132400000Y-77275000D02*
X132400000Y-77030000D01*
X134471860Y-76599280D02*
X133075720Y-76599280D01*
X133075720Y-76599280D02*
X132400000Y-77275000D01*
X123300000Y-91000000D02*
X121950000Y-91000000D01*
X121950000Y-91000000D02*
X121900000Y-90950000D01*
X159000000Y-97750000D02*
X157000000Y-97750000D01*
X157000000Y-97750000D02*
X156900000Y-97650000D01*
D35*
X147800000Y-105400000D02*
X147800000Y-105200000D01*
X147800000Y-105200000D02*
X153050000Y-99950000D01*
X153050000Y-99950000D02*
X153400000Y-99950000D01*
X156900000Y-99850000D02*
X156900000Y-100680000D01*
X156900000Y-100680000D02*
X156800001Y-100779999D01*
X156800001Y-100779999D02*
X156800001Y-100800001D01*
X156695001Y-100905001D02*
X155204999Y-100905001D01*
X156800001Y-100800001D02*
X156695001Y-100905001D01*
X155204999Y-100905001D02*
X155199998Y-100900000D01*
X155199998Y-100900000D02*
X155100000Y-100900000D01*
X155100000Y-100900000D02*
X155000000Y-100800000D01*
X155000000Y-99850000D02*
X155000000Y-100800000D01*
X155000000Y-100800000D02*
X155000000Y-103150000D01*
X155000000Y-103150000D02*
X155150000Y-103300000D01*
X155000000Y-99850000D02*
X153500000Y-99850000D01*
X153500000Y-99850000D02*
X153400000Y-99950000D01*
D36*
X157800000Y-103050000D02*
X155400000Y-103050000D01*
D35*
X155400000Y-103050000D02*
X155150000Y-103300000D01*
D34*
X127950000Y-95650000D02*
X127950000Y-93786510D01*
X127950000Y-93786510D02*
X127786691Y-93623201D01*
X128000000Y-95700000D02*
X127950000Y-95650000D01*
X128000000Y-98600000D02*
X128000000Y-95700000D01*
X130050000Y-77360000D02*
X128140000Y-77360000D01*
X128140000Y-77360000D02*
X128100000Y-77400000D01*
D35*
X153000000Y-107450000D02*
X151500000Y-107450000D01*
X151500000Y-107450000D02*
X151350000Y-107600000D01*
X153000000Y-107450000D02*
X154600000Y-105850000D01*
X154600000Y-105850000D02*
X154600000Y-105500000D01*
D36*
X157800000Y-106300000D02*
X155500000Y-106300000D01*
X155500000Y-106300000D02*
X154700000Y-105500000D01*
D35*
X154700000Y-105500000D02*
X154600000Y-105500000D01*
X151350000Y-105400000D02*
X151350000Y-103800000D01*
X151350000Y-103800000D02*
X151850000Y-103300000D01*
X153000000Y-105550000D02*
X151500000Y-105550000D01*
X151500000Y-105550000D02*
X151350000Y-105400000D01*
D37*
X149400000Y-109300000D02*
X147700000Y-111000000D01*
X150400000Y-107600000D02*
X149450000Y-107600000D01*
X149400000Y-109300000D02*
X149400000Y-107650000D01*
X149400000Y-107650000D02*
X149450000Y-107600000D01*
D34*
X134800000Y-100950000D02*
X134800000Y-102450000D01*
X134800000Y-102450000D02*
X134750000Y-102500000D01*
X134800000Y-100950000D02*
X134800000Y-100745000D01*
X134800000Y-100745000D02*
X136900000Y-98645000D01*
X136900000Y-98645000D02*
X136900000Y-98400000D01*
X128234994Y-83600006D02*
X128100000Y-83600006D01*
X126299994Y-83600006D02*
X128100000Y-83600006D01*
X124750000Y-85150000D02*
X126299994Y-83600006D01*
X124750000Y-87150000D02*
X124750000Y-85150000D01*
X130050000Y-82400000D02*
X129435000Y-82400000D01*
X129435000Y-82400000D02*
X128234994Y-83600006D01*
X154200000Y-78400000D02*
X154200000Y-79610000D01*
X154200000Y-79610000D02*
X154390000Y-79800000D01*
X150372260Y-84501220D02*
X149501220Y-84501220D01*
X152456782Y-84501220D02*
X150372260Y-84501220D01*
X154250001Y-82708001D02*
X152456782Y-84501220D01*
X154390000Y-80875000D02*
X154250001Y-81014999D01*
X154390000Y-79800000D02*
X154390000Y-80875000D01*
X154250001Y-81014999D02*
X154250001Y-82708001D01*
X136199700Y-82499700D02*
X136398952Y-82698952D01*
X143197904Y-75900000D02*
X136398952Y-82698952D01*
X147900000Y-75900000D02*
X143197904Y-75900000D01*
X134471860Y-82499700D02*
X136199700Y-82499700D01*
X130050000Y-79900000D02*
X128745002Y-79900000D01*
X128745002Y-79900000D02*
X127445002Y-81200000D01*
X127445002Y-81200000D02*
X124594998Y-81200000D01*
X124594998Y-81200000D02*
X123300000Y-82494998D01*
X123300000Y-82494998D02*
X123300000Y-88600000D01*
X155500000Y-75900000D02*
X155500000Y-74560000D01*
X155500000Y-74560000D02*
X155660000Y-74400000D01*
X123300000Y-88600000D02*
X130169335Y-88600000D01*
X130169335Y-88600000D02*
X130219337Y-88650002D01*
X134471860Y-82499700D02*
X134913102Y-82499700D01*
X123300000Y-88600000D02*
X123458002Y-88600000D01*
X123458002Y-88600000D02*
X123300000Y-88441998D01*
X134471860Y-80500720D02*
X133913318Y-80500720D01*
X133913318Y-80500720D02*
X133000000Y-79587402D01*
X133000000Y-79587402D02*
X133000000Y-79100000D01*
X133000000Y-79100000D02*
X132700000Y-78800000D01*
X132700000Y-78800000D02*
X127765000Y-78800000D01*
X127765000Y-78800000D02*
X126665000Y-79900000D01*
X126665000Y-79900000D02*
X126050000Y-79900000D01*
X135599280Y-80500720D02*
X138600000Y-77500000D01*
X134471860Y-80500720D02*
X135599280Y-80500720D01*
X156930000Y-74400000D02*
X156930000Y-76870000D01*
X156930000Y-76870000D02*
X156900000Y-76900000D01*
X124000000Y-80000000D02*
X125950000Y-80000000D01*
X125950000Y-80000000D02*
X126050000Y-79900000D01*
X125550000Y-87150000D02*
X125550000Y-85750000D01*
X125550000Y-85750000D02*
X125600000Y-85700000D01*
X145500000Y-103400000D02*
X145500000Y-102600000D01*
X145500000Y-102600000D02*
X145900000Y-102200000D01*
X141950000Y-102100000D02*
X142199944Y-102100000D01*
X141400000Y-102650000D02*
X141950000Y-102100000D01*
X141400000Y-103400000D02*
X141400000Y-102650000D01*
X130350000Y-95650000D02*
X130350000Y-94550000D01*
X130350000Y-94550000D02*
X130199999Y-94399999D01*
X130199999Y-94399999D02*
X129532117Y-94399999D01*
X129532117Y-94399999D02*
X128858004Y-93725886D01*
X128858004Y-93725886D02*
X128858004Y-89492012D01*
X128858004Y-89492012D02*
X128900006Y-89450010D01*
X148700300Y-82499700D02*
X148500000Y-82700000D01*
X150372260Y-82499700D02*
X148700300Y-82499700D01*
X132900000Y-100950000D02*
X132900000Y-100745000D01*
X131799999Y-99644999D02*
X131799999Y-96055906D01*
X132199989Y-95655916D02*
X132199989Y-94599989D01*
X131799999Y-96055906D02*
X132199989Y-95655916D01*
X132900000Y-100745000D02*
X131799999Y-99644999D01*
X132199989Y-94599989D02*
X131800000Y-94200000D01*
X129849015Y-93400000D02*
X129799990Y-93449025D01*
X131800000Y-93400000D02*
X129849015Y-93400000D01*
X137871902Y-103400000D02*
X135885951Y-101414049D01*
X139200000Y-103400000D02*
X137871902Y-103400000D01*
X143300000Y-103400000D02*
X143300000Y-104150000D01*
X143300000Y-104150000D02*
X143149999Y-104300001D01*
X143149999Y-104300001D02*
X140250001Y-104300001D01*
X140250001Y-104300001D02*
X139350000Y-103400000D01*
X139350000Y-103400000D02*
X139200000Y-103400000D01*
X134499800Y-72598780D02*
X131598780Y-72598780D01*
X131598780Y-72598780D02*
X131550000Y-72550000D01*
X146200000Y-109100000D02*
X146300000Y-109100000D01*
D35*
X146300000Y-109100000D02*
X147800000Y-107600000D01*
X147800000Y-107600000D02*
X147800000Y-107400000D01*
X149450000Y-105400000D02*
X149450000Y-105950000D01*
X149450000Y-105950000D02*
X147800000Y-107600000D01*
D34*
X127150000Y-95650000D02*
X127150000Y-94250000D01*
X127150000Y-94250000D02*
X126300000Y-93400000D01*
X126199999Y-94399999D02*
X125745470Y-94399999D01*
X126350000Y-95650000D02*
X126350000Y-94550000D01*
X126350000Y-94550000D02*
X126199999Y-94399999D01*
X125745470Y-94399999D02*
X125493191Y-94147720D01*
X125550000Y-97904000D02*
X126234000Y-98588000D01*
X125550000Y-95650000D02*
X125550000Y-97904000D01*
X125950000Y-100550000D02*
X125950000Y-98872000D01*
X125950000Y-98872000D02*
X126234000Y-98588000D01*
X126350000Y-87150000D02*
X126424999Y-87075001D01*
X126424999Y-87075001D02*
X126424999Y-85975001D01*
X132498780Y-84500000D02*
X132500000Y-84501220D01*
X126424999Y-85975001D02*
X127900000Y-84500000D01*
X127900000Y-84500000D02*
X132498780Y-84500000D01*
X132500000Y-84501220D02*
X134471860Y-84501220D01*
X132500000Y-83400000D02*
X132500000Y-84501220D01*
X128600000Y-85400000D02*
X131000000Y-85400000D01*
X127950000Y-86050000D02*
X128600000Y-85400000D01*
X127950000Y-87150000D02*
X127950000Y-86050000D01*
X152210180Y-81700000D02*
X152156138Y-81645958D01*
X153200000Y-81700000D02*
X152210180Y-81700000D01*
X153120000Y-79800000D02*
X153120000Y-81620000D01*
X153120000Y-81620000D02*
X153200000Y-81700000D01*
X154675000Y-96092000D02*
X154808000Y-96092000D01*
X154808000Y-96092000D02*
X156600000Y-94300000D01*
X155000000Y-97650000D02*
X155000000Y-96417000D01*
X155000000Y-96417000D02*
X154675000Y-96092000D01*
D38*
G36*
X159526215Y-76973786D02*
X159564537Y-77005263D01*
X159602642Y-77037011D01*
X159604264Y-77037896D01*
X159605693Y-77039069D01*
X159649445Y-77062529D01*
X159692945Y-77086246D01*
X159694705Y-77086798D01*
X159696336Y-77087672D01*
X159743811Y-77102186D01*
X159791091Y-77117003D01*
X159792927Y-77117202D01*
X159794695Y-77117743D01*
X159844081Y-77122760D01*
X159893342Y-77128111D01*
X159895181Y-77127950D01*
X159897020Y-77128137D01*
X159946445Y-77123465D01*
X159995802Y-77119147D01*
X159997574Y-77118632D01*
X159999417Y-77118458D01*
X160047003Y-77104272D01*
X160094571Y-77090452D01*
X160096211Y-77089602D01*
X160097982Y-77089074D01*
X160141903Y-77065917D01*
X160185885Y-77043119D01*
X160187326Y-77041969D01*
X160188964Y-77041105D01*
X160227565Y-77009846D01*
X160266266Y-76978952D01*
X160268788Y-76976465D01*
X160268895Y-76976378D01*
X160268983Y-76976272D01*
X160271505Y-76973785D01*
X161332691Y-75912600D01*
X163372360Y-78768965D01*
X163372360Y-105476525D01*
X162476417Y-107278338D01*
X158564921Y-111192740D01*
X155738965Y-113074320D01*
X129060095Y-113074320D01*
X126235317Y-111193525D01*
X123943074Y-108875000D01*
X130495693Y-108875000D01*
X130495693Y-110225000D01*
X130504903Y-110318508D01*
X130532178Y-110408423D01*
X130576471Y-110491289D01*
X130636079Y-110563921D01*
X130708711Y-110623529D01*
X130791577Y-110667822D01*
X130881492Y-110695097D01*
X130975000Y-110704307D01*
X132325000Y-110704307D01*
X132418508Y-110695097D01*
X132508423Y-110667822D01*
X132591289Y-110623529D01*
X132663921Y-110563921D01*
X132723529Y-110491289D01*
X132767822Y-110408423D01*
X132794466Y-110320587D01*
X132832575Y-110367313D01*
X133005810Y-110510625D01*
X133203582Y-110617560D01*
X133418358Y-110684045D01*
X133641958Y-110707546D01*
X133865863Y-110687169D01*
X134081547Y-110623690D01*
X134280793Y-110519526D01*
X134456012Y-110378647D01*
X134600531Y-110206416D01*
X134649858Y-110116691D01*
X134690475Y-110193081D01*
X134832575Y-110367313D01*
X135005810Y-110510625D01*
X135203582Y-110617560D01*
X135418358Y-110684045D01*
X135641958Y-110707546D01*
X135865863Y-110687169D01*
X136081547Y-110623690D01*
X136280793Y-110519526D01*
X136456012Y-110378647D01*
X136600531Y-110206416D01*
X136649858Y-110116691D01*
X136690475Y-110193081D01*
X136832575Y-110367313D01*
X137005810Y-110510625D01*
X137203582Y-110617560D01*
X137418358Y-110684045D01*
X137641958Y-110707546D01*
X137865863Y-110687169D01*
X138081547Y-110623690D01*
X138280793Y-110519526D01*
X138456012Y-110378647D01*
X138600531Y-110206416D01*
X138649858Y-110116691D01*
X138690475Y-110193081D01*
X138832575Y-110367313D01*
X139005810Y-110510625D01*
X139203582Y-110617560D01*
X139418358Y-110684045D01*
X139641958Y-110707546D01*
X139865863Y-110687169D01*
X140081547Y-110623690D01*
X140280793Y-110519526D01*
X140456012Y-110378647D01*
X140600531Y-110206416D01*
X140651461Y-110113774D01*
X140693690Y-110192323D01*
X140837376Y-110366548D01*
X141012291Y-110509393D01*
X141211713Y-110615369D01*
X141422535Y-110679320D01*
X141602000Y-110581634D01*
X141602000Y-109598000D01*
X141582000Y-109598000D01*
X141582000Y-109502000D01*
X141602000Y-109502000D01*
X141602000Y-109482000D01*
X141698000Y-109482000D01*
X141698000Y-109502000D01*
X141718000Y-109502000D01*
X141718000Y-109598000D01*
X141698000Y-109598000D01*
X141698000Y-110581634D01*
X141877465Y-110679320D01*
X142088287Y-110615369D01*
X142287709Y-110509393D01*
X142462624Y-110366548D01*
X142606310Y-110192323D01*
X142648422Y-110113991D01*
X142690475Y-110193081D01*
X142832575Y-110367313D01*
X143005810Y-110510625D01*
X143203582Y-110617560D01*
X143418358Y-110684045D01*
X143641958Y-110707546D01*
X143865863Y-110687169D01*
X144081547Y-110623690D01*
X144280793Y-110519526D01*
X144456012Y-110378647D01*
X144600531Y-110206416D01*
X144708844Y-110009395D01*
X144776826Y-109795088D01*
X144801888Y-109571658D01*
X144802000Y-109555574D01*
X144802000Y-109544426D01*
X144780060Y-109320668D01*
X144715077Y-109105433D01*
X144609525Y-108906919D01*
X144467425Y-108732687D01*
X144294190Y-108589375D01*
X144221925Y-108550302D01*
X144280793Y-108519526D01*
X144456012Y-108378647D01*
X144600531Y-108206416D01*
X144708844Y-108009395D01*
X144776826Y-107795088D01*
X144801888Y-107571658D01*
X144802000Y-107555574D01*
X144802000Y-107544426D01*
X144780060Y-107320668D01*
X144715077Y-107105433D01*
X144694775Y-107067250D01*
X145273000Y-107067250D01*
X145273000Y-107546980D01*
X145291331Y-107639135D01*
X145327288Y-107725944D01*
X145379490Y-107804069D01*
X145445930Y-107870510D01*
X145524055Y-107922712D01*
X145610864Y-107958669D01*
X145703019Y-107977000D01*
X146032750Y-107977000D01*
X146152000Y-107857750D01*
X146152000Y-106948000D01*
X145392250Y-106948000D01*
X145273000Y-107067250D01*
X144694775Y-107067250D01*
X144609525Y-106906919D01*
X144467425Y-106732687D01*
X144294190Y-106589375D01*
X144096418Y-106482440D01*
X143881642Y-106415955D01*
X143658042Y-106392454D01*
X143434137Y-106412831D01*
X143218453Y-106476310D01*
X143019207Y-106580474D01*
X142843988Y-106721353D01*
X142699469Y-106893584D01*
X142650142Y-106983309D01*
X142609525Y-106906919D01*
X142467425Y-106732687D01*
X142294190Y-106589375D01*
X142096418Y-106482440D01*
X141881642Y-106415955D01*
X141658042Y-106392454D01*
X141434137Y-106412831D01*
X141218453Y-106476310D01*
X141019207Y-106580474D01*
X140843988Y-106721353D01*
X140699469Y-106893584D01*
X140650142Y-106983309D01*
X140609525Y-106906919D01*
X140467425Y-106732687D01*
X140294190Y-106589375D01*
X140096418Y-106482440D01*
X139881642Y-106415955D01*
X139658042Y-106392454D01*
X139434137Y-106412831D01*
X139218453Y-106476310D01*
X139019207Y-106580474D01*
X138843988Y-106721353D01*
X138699469Y-106893584D01*
X138650142Y-106983309D01*
X138609525Y-106906919D01*
X138467425Y-106732687D01*
X138294190Y-106589375D01*
X138096418Y-106482440D01*
X137881642Y-106415955D01*
X137658042Y-106392454D01*
X137434137Y-106412831D01*
X137218453Y-106476310D01*
X137019207Y-106580474D01*
X136843988Y-106721353D01*
X136699469Y-106893584D01*
X136650142Y-106983309D01*
X136609525Y-106906919D01*
X136467425Y-106732687D01*
X136294190Y-106589375D01*
X136096418Y-106482440D01*
X135881642Y-106415955D01*
X135658042Y-106392454D01*
X135434137Y-106412831D01*
X135218453Y-106476310D01*
X135019207Y-106580474D01*
X134843988Y-106721353D01*
X134699469Y-106893584D01*
X134650142Y-106983309D01*
X134609525Y-106906919D01*
X134467425Y-106732687D01*
X134294190Y-106589375D01*
X134096418Y-106482440D01*
X133881642Y-106415955D01*
X133658042Y-106392454D01*
X133434137Y-106412831D01*
X133218453Y-106476310D01*
X133019207Y-106580474D01*
X132843988Y-106721353D01*
X132699469Y-106893584D01*
X132650142Y-106983309D01*
X132609525Y-106906919D01*
X132467425Y-106732687D01*
X132294190Y-106589375D01*
X132096418Y-106482440D01*
X131881642Y-106415955D01*
X131658042Y-106392454D01*
X131434137Y-106412831D01*
X131218453Y-106476310D01*
X131019207Y-106580474D01*
X130843988Y-106721353D01*
X130699469Y-106893584D01*
X130591156Y-107090605D01*
X130523174Y-107304912D01*
X130498112Y-107528342D01*
X130498000Y-107544426D01*
X130498000Y-107555574D01*
X130519940Y-107779332D01*
X130584923Y-107994567D01*
X130690475Y-108193081D01*
X130832575Y-108367313D01*
X130878947Y-108405675D01*
X130791577Y-108432178D01*
X130708711Y-108476471D01*
X130636079Y-108536079D01*
X130576471Y-108608711D01*
X130532178Y-108691577D01*
X130504903Y-108781492D01*
X130495693Y-108875000D01*
X123943074Y-108875000D01*
X123348937Y-108274051D01*
X121978855Y-106253020D01*
X145273000Y-106253020D01*
X145273000Y-106732750D01*
X145392250Y-106852000D01*
X146152000Y-106852000D01*
X146152000Y-105942250D01*
X146032750Y-105823000D01*
X145703019Y-105823000D01*
X145610864Y-105841331D01*
X145524055Y-105877288D01*
X145445930Y-105929490D01*
X145379490Y-105995931D01*
X145327288Y-106074056D01*
X145291331Y-106160865D01*
X145273000Y-106253020D01*
X121978855Y-106253020D01*
X121426700Y-105438527D01*
X121426700Y-103717250D01*
X124123000Y-103717250D01*
X124123000Y-104546980D01*
X124141331Y-104639135D01*
X124177288Y-104725944D01*
X124229490Y-104804069D01*
X124295930Y-104870510D01*
X124374055Y-104922712D01*
X124460864Y-104958669D01*
X124553019Y-104977000D01*
X124832750Y-104977000D01*
X124952000Y-104857750D01*
X124952000Y-103598000D01*
X125048000Y-103598000D01*
X125048000Y-104857750D01*
X125167250Y-104977000D01*
X125446981Y-104977000D01*
X125539136Y-104958669D01*
X125625945Y-104922712D01*
X125704070Y-104870510D01*
X125770510Y-104804069D01*
X125822712Y-104725944D01*
X125858669Y-104639135D01*
X125877000Y-104546980D01*
X125877000Y-103717250D01*
X125757750Y-103598000D01*
X125048000Y-103598000D01*
X124952000Y-103598000D01*
X124242250Y-103598000D01*
X124123000Y-103717250D01*
X121426700Y-103717250D01*
X121426700Y-101167250D01*
X121648000Y-101167250D01*
X121648000Y-101646980D01*
X121666331Y-101739135D01*
X121702288Y-101825944D01*
X121754490Y-101904069D01*
X121820930Y-101970510D01*
X121899055Y-102022712D01*
X121985864Y-102058669D01*
X122078019Y-102077000D01*
X122332750Y-102077000D01*
X122452000Y-101957750D01*
X122452000Y-101048000D01*
X121767250Y-101048000D01*
X121648000Y-101167250D01*
X121426700Y-101167250D01*
X121426700Y-92773808D01*
X121510864Y-92808669D01*
X121603019Y-92827000D01*
X121732750Y-92827000D01*
X121852000Y-92707750D01*
X121852000Y-92098000D01*
X121832000Y-92098000D01*
X121832000Y-92002000D01*
X121852000Y-92002000D01*
X121852000Y-91982000D01*
X121948000Y-91982000D01*
X121948000Y-92002000D01*
X121968000Y-92002000D01*
X121968000Y-92098000D01*
X121948000Y-92098000D01*
X121948000Y-92707750D01*
X122020693Y-92780443D01*
X122020693Y-92875000D01*
X122029903Y-92968508D01*
X122039456Y-93000000D01*
X122029903Y-93031492D01*
X122020693Y-93125000D01*
X122020693Y-93675000D01*
X122029903Y-93768508D01*
X122039456Y-93800000D01*
X122029903Y-93831492D01*
X122020693Y-93925000D01*
X122020693Y-94475000D01*
X122029903Y-94568508D01*
X122057178Y-94658423D01*
X122101471Y-94741289D01*
X122161079Y-94813921D01*
X122233711Y-94873529D01*
X122316577Y-94917822D01*
X122406492Y-94945097D01*
X122500000Y-94954307D01*
X123995693Y-94954307D01*
X123995693Y-96450000D01*
X124004903Y-96543508D01*
X124032178Y-96633423D01*
X124076471Y-96716289D01*
X124136079Y-96788921D01*
X124208711Y-96848529D01*
X124291577Y-96892822D01*
X124381492Y-96920097D01*
X124475000Y-96929307D01*
X124923000Y-96929307D01*
X124923000Y-97758110D01*
X124900289Y-97739471D01*
X124817423Y-97695178D01*
X124727508Y-97667903D01*
X124634000Y-97658693D01*
X123434000Y-97658693D01*
X123340492Y-97667903D01*
X123250577Y-97695178D01*
X123167711Y-97739471D01*
X123095079Y-97799079D01*
X123035471Y-97871711D01*
X122991178Y-97954577D01*
X122988532Y-97963301D01*
X122954308Y-97966657D01*
X122896662Y-97971700D01*
X122893499Y-97972619D01*
X122890215Y-97972941D01*
X122834790Y-97989675D01*
X122779152Y-98005839D01*
X122776221Y-98007358D01*
X122773069Y-98008310D01*
X122749780Y-98020693D01*
X122125000Y-98020693D01*
X122031492Y-98029903D01*
X121941577Y-98057178D01*
X121858711Y-98101471D01*
X121786079Y-98161079D01*
X121726471Y-98233711D01*
X121682178Y-98316577D01*
X121654903Y-98406492D01*
X121645693Y-98500000D01*
X121645693Y-99700000D01*
X121654903Y-99793508D01*
X121682178Y-99883423D01*
X121726471Y-99966289D01*
X121786079Y-100038921D01*
X121800041Y-100050379D01*
X121754490Y-100095931D01*
X121702288Y-100174056D01*
X121666331Y-100260865D01*
X121648000Y-100353020D01*
X121648000Y-100832750D01*
X121767250Y-100952000D01*
X122452000Y-100952000D01*
X122452000Y-100932000D01*
X122548000Y-100932000D01*
X122548000Y-100952000D01*
X122568000Y-100952000D01*
X122568000Y-101048000D01*
X122548000Y-101048000D01*
X122548000Y-101957750D01*
X122667250Y-102077000D01*
X122921981Y-102077000D01*
X123014136Y-102058669D01*
X123100945Y-102022712D01*
X123179070Y-101970510D01*
X123245510Y-101904069D01*
X123297712Y-101825944D01*
X123298623Y-101823744D01*
X123311079Y-101838921D01*
X123383711Y-101898529D01*
X123466577Y-101942822D01*
X123556492Y-101970097D01*
X123650000Y-101979307D01*
X124042595Y-101979307D01*
X124294354Y-102231066D01*
X124229490Y-102295931D01*
X124177288Y-102374056D01*
X124141331Y-102460865D01*
X124123000Y-102553020D01*
X124123000Y-103382750D01*
X124242250Y-103502000D01*
X124952000Y-103502000D01*
X124952000Y-103482000D01*
X125048000Y-103482000D01*
X125048000Y-103502000D01*
X125757750Y-103502000D01*
X125877000Y-103382750D01*
X125877000Y-102577001D01*
X126440287Y-102577001D01*
X129206646Y-105343360D01*
X129251429Y-105380145D01*
X129295768Y-105417350D01*
X129298655Y-105418937D01*
X129301204Y-105421031D01*
X129352216Y-105448383D01*
X129403000Y-105476302D01*
X129406148Y-105477301D01*
X129409049Y-105478856D01*
X129464355Y-105495765D01*
X129519641Y-105513303D01*
X129522921Y-105513671D01*
X129526071Y-105514634D01*
X129583657Y-105520483D01*
X129641248Y-105526943D01*
X129647694Y-105526988D01*
X129647813Y-105527000D01*
X129647924Y-105526990D01*
X129650002Y-105527004D01*
X143986266Y-105527004D01*
X144028849Y-105571100D01*
X144170077Y-105669256D01*
X144327681Y-105738112D01*
X144495657Y-105775044D01*
X144667608Y-105778646D01*
X144836984Y-105748780D01*
X144997333Y-105686585D01*
X145142547Y-105594429D01*
X145267097Y-105475822D01*
X145366236Y-105335283D01*
X145436190Y-105178164D01*
X145474294Y-105010449D01*
X145477037Y-104814006D01*
X145443631Y-104645293D01*
X145378091Y-104486281D01*
X145282914Y-104343029D01*
X145269287Y-104329307D01*
X146100000Y-104329307D01*
X146193508Y-104320097D01*
X146283423Y-104292822D01*
X146366289Y-104248529D01*
X146438921Y-104188921D01*
X146498529Y-104116289D01*
X146542822Y-104033423D01*
X146570097Y-103943508D01*
X146579307Y-103850000D01*
X146579307Y-102950000D01*
X146570097Y-102856492D01*
X146550439Y-102791686D01*
X146567097Y-102775822D01*
X146666236Y-102635283D01*
X146736190Y-102478164D01*
X146774294Y-102310449D01*
X146777037Y-102114006D01*
X146758050Y-102018113D01*
X146931561Y-101987519D01*
X147155904Y-101900502D01*
X147359072Y-101771568D01*
X147533327Y-101605626D01*
X147672032Y-101408999D01*
X147769904Y-101189175D01*
X147823215Y-100954528D01*
X147827053Y-100679686D01*
X147805311Y-100569881D01*
X151988426Y-96512139D01*
X152017333Y-96469582D01*
X152027000Y-96420981D01*
X152027000Y-86864796D01*
X152011924Y-86804778D01*
X151980436Y-86766516D01*
X150653244Y-85680297D01*
X151371750Y-85680297D01*
X151465258Y-85671087D01*
X151555173Y-85643812D01*
X151638039Y-85599519D01*
X151710671Y-85539911D01*
X151770279Y-85467279D01*
X151814572Y-85384413D01*
X151841847Y-85294498D01*
X151851057Y-85200990D01*
X151851057Y-85128220D01*
X152456782Y-85128220D01*
X152514474Y-85122563D01*
X152572120Y-85117520D01*
X152575283Y-85116601D01*
X152578567Y-85116279D01*
X152634006Y-85099541D01*
X152689629Y-85083381D01*
X152692559Y-85081862D01*
X152695713Y-85080910D01*
X152746826Y-85053733D01*
X152798271Y-85027067D01*
X152800848Y-85025010D01*
X152803759Y-85023462D01*
X152848642Y-84986857D01*
X152893905Y-84950723D01*
X152898492Y-84946199D01*
X152898588Y-84946121D01*
X152898662Y-84946032D01*
X152900138Y-84944576D01*
X154473000Y-83371714D01*
X154473000Y-93557478D01*
X154451471Y-93583711D01*
X154426755Y-93629952D01*
X154419141Y-93624816D01*
X154260591Y-93558168D01*
X154092115Y-93523585D01*
X153920131Y-93522384D01*
X153751189Y-93554611D01*
X153591724Y-93619039D01*
X153447810Y-93713214D01*
X153324929Y-93833548D01*
X153227761Y-93975458D01*
X153160007Y-94133539D01*
X153124249Y-94301769D01*
X153121848Y-94473741D01*
X153152895Y-94642903D01*
X153216208Y-94802814D01*
X153309376Y-94947382D01*
X153428849Y-95071100D01*
X153480594Y-95107064D01*
X153461079Y-95123079D01*
X153401471Y-95195711D01*
X153357178Y-95278577D01*
X153329903Y-95368492D01*
X153320693Y-95462000D01*
X153320693Y-96722000D01*
X153329903Y-96815508D01*
X153357178Y-96905423D01*
X153393299Y-96973000D01*
X153351998Y-96973000D01*
X153351998Y-97092248D01*
X153232750Y-96973000D01*
X152978019Y-96973000D01*
X152885864Y-96991331D01*
X152799055Y-97027288D01*
X152720930Y-97079490D01*
X152654490Y-97145931D01*
X152602288Y-97224056D01*
X152566331Y-97310865D01*
X152548000Y-97403020D01*
X152548000Y-97882750D01*
X152667250Y-98002000D01*
X153352000Y-98002000D01*
X153352000Y-97982000D01*
X153448000Y-97982000D01*
X153448000Y-98002000D01*
X153468000Y-98002000D01*
X153468000Y-98098000D01*
X153448000Y-98098000D01*
X153448000Y-98118000D01*
X153352000Y-98118000D01*
X153352000Y-98098000D01*
X152667250Y-98098000D01*
X152548000Y-98217250D01*
X152548000Y-98696980D01*
X152566331Y-98789135D01*
X152602288Y-98875944D01*
X152654490Y-98954069D01*
X152700041Y-98999621D01*
X152686079Y-99011079D01*
X152626471Y-99083711D01*
X152582178Y-99166577D01*
X152554903Y-99256492D01*
X152545693Y-99350000D01*
X152545693Y-99461529D01*
X151034222Y-100973000D01*
X150600000Y-100973000D01*
X150555945Y-100980886D01*
X150513715Y-101006812D01*
X147813715Y-103506812D01*
X147782667Y-103551399D01*
X147773000Y-103600000D01*
X147773000Y-104234222D01*
X147686529Y-104320693D01*
X147350000Y-104320693D01*
X147256492Y-104329903D01*
X147166577Y-104357178D01*
X147083711Y-104401471D01*
X147011079Y-104461079D01*
X146951471Y-104533711D01*
X146907178Y-104616577D01*
X146879903Y-104706492D01*
X146870693Y-104800000D01*
X146870693Y-105875113D01*
X146789136Y-105841331D01*
X146696981Y-105823000D01*
X146367250Y-105823000D01*
X146248000Y-105942250D01*
X146248000Y-106852000D01*
X146268000Y-106852000D01*
X146268000Y-106948000D01*
X146248000Y-106948000D01*
X146248000Y-107857750D01*
X146367250Y-107977000D01*
X146430222Y-107977000D01*
X146386529Y-108020693D01*
X145750000Y-108020693D01*
X145656492Y-108029903D01*
X145566577Y-108057178D01*
X145483711Y-108101471D01*
X145411079Y-108161079D01*
X145351471Y-108233711D01*
X145307178Y-108316577D01*
X145279903Y-108406492D01*
X145270693Y-108500000D01*
X145270693Y-109700000D01*
X145279903Y-109793508D01*
X145307178Y-109883423D01*
X145351471Y-109966289D01*
X145411079Y-110038921D01*
X145483711Y-110098529D01*
X145566577Y-110142822D01*
X145656492Y-110170097D01*
X145750000Y-110179307D01*
X146650000Y-110179307D01*
X146743508Y-110170097D01*
X146833423Y-110142822D01*
X146916289Y-110098529D01*
X146988921Y-110038921D01*
X147048529Y-109966289D01*
X147092822Y-109883423D01*
X147120097Y-109793508D01*
X147129307Y-109700000D01*
X147129307Y-109263471D01*
X147713471Y-108679307D01*
X148250000Y-108679307D01*
X148343508Y-108670097D01*
X148423568Y-108645811D01*
X148420693Y-108675000D01*
X148420693Y-109251173D01*
X147532828Y-110139038D01*
X147451189Y-110154611D01*
X147291724Y-110219039D01*
X147147810Y-110313214D01*
X147024929Y-110433548D01*
X146927761Y-110575458D01*
X146860007Y-110733539D01*
X146824249Y-110901769D01*
X146821848Y-111073741D01*
X146852895Y-111242903D01*
X146916208Y-111402814D01*
X147009376Y-111547382D01*
X147128849Y-111671100D01*
X147270077Y-111769256D01*
X147427681Y-111838112D01*
X147595657Y-111875044D01*
X147767608Y-111878646D01*
X147936984Y-111848780D01*
X148097333Y-111786585D01*
X148242547Y-111694429D01*
X148367097Y-111575822D01*
X148466236Y-111435283D01*
X148536190Y-111278164D01*
X148561538Y-111166596D01*
X149323827Y-110404307D01*
X149900000Y-110404307D01*
X149993508Y-110395097D01*
X150083423Y-110367822D01*
X150166289Y-110323529D01*
X150238921Y-110263921D01*
X150298529Y-110191289D01*
X150342822Y-110108423D01*
X150370097Y-110018508D01*
X150379307Y-109925000D01*
X150379307Y-109467250D01*
X150423000Y-109467250D01*
X150423000Y-109971981D01*
X150441331Y-110064136D01*
X150477288Y-110150945D01*
X150529490Y-110229070D01*
X150595931Y-110295510D01*
X150674056Y-110347712D01*
X150760865Y-110383669D01*
X150853020Y-110402000D01*
X151232750Y-110402000D01*
X151352000Y-110282750D01*
X151352000Y-109348000D01*
X151448000Y-109348000D01*
X151448000Y-110282750D01*
X151567250Y-110402000D01*
X151946980Y-110402000D01*
X152039135Y-110383669D01*
X152125944Y-110347712D01*
X152204069Y-110295510D01*
X152270510Y-110229070D01*
X152322712Y-110150945D01*
X152358669Y-110064136D01*
X152377000Y-109971981D01*
X152377000Y-109467250D01*
X152257750Y-109348000D01*
X151448000Y-109348000D01*
X151352000Y-109348000D01*
X150542250Y-109348000D01*
X150423000Y-109467250D01*
X150379307Y-109467250D01*
X150379307Y-108675000D01*
X150374579Y-108627000D01*
X150423203Y-108627000D01*
X150423000Y-108628019D01*
X150423000Y-109132750D01*
X150542250Y-109252000D01*
X151352000Y-109252000D01*
X151352000Y-109232000D01*
X151448000Y-109232000D01*
X151448000Y-109252000D01*
X152257750Y-109252000D01*
X152377000Y-109132750D01*
X152377000Y-108628019D01*
X152376797Y-108627000D01*
X153563250Y-108627000D01*
X153523000Y-108667250D01*
X153523000Y-109246980D01*
X153541331Y-109339135D01*
X153577288Y-109425944D01*
X153629490Y-109504069D01*
X153695930Y-109570510D01*
X153774055Y-109622712D01*
X153860864Y-109658669D01*
X153953019Y-109677000D01*
X154432750Y-109677000D01*
X154552000Y-109557750D01*
X154552000Y-108627000D01*
X154648000Y-108627000D01*
X154648000Y-109557750D01*
X154767250Y-109677000D01*
X155246981Y-109677000D01*
X155339136Y-109658669D01*
X155425945Y-109622712D01*
X155504070Y-109570510D01*
X155570510Y-109504069D01*
X155622712Y-109425944D01*
X155658669Y-109339135D01*
X155677000Y-109246980D01*
X155677000Y-108667250D01*
X155636750Y-108627000D01*
X160200000Y-108627000D01*
X160248601Y-108617333D01*
X160289803Y-108589803D01*
X160317333Y-108548601D01*
X160327000Y-108500000D01*
X160327000Y-101100000D01*
X160317333Y-101051399D01*
X160289803Y-101010197D01*
X160248601Y-100982667D01*
X160200000Y-100973000D01*
X157536188Y-100973000D01*
X157545233Y-100956547D01*
X157546350Y-100953026D01*
X157548093Y-100949775D01*
X157567049Y-100887776D01*
X157586660Y-100825954D01*
X157587071Y-100822288D01*
X157588151Y-100818756D01*
X157594705Y-100754229D01*
X157601932Y-100689801D01*
X157601982Y-100682588D01*
X157601996Y-100682451D01*
X157601984Y-100682323D01*
X157602000Y-100680000D01*
X157602000Y-100672522D01*
X157623529Y-100646289D01*
X157667822Y-100563423D01*
X157695097Y-100473508D01*
X157704307Y-100380000D01*
X157704307Y-99817250D01*
X158148000Y-99817250D01*
X158148000Y-100296980D01*
X158166331Y-100389135D01*
X158202288Y-100475944D01*
X158254490Y-100554069D01*
X158320930Y-100620510D01*
X158399055Y-100672712D01*
X158485864Y-100708669D01*
X158578019Y-100727000D01*
X158832750Y-100727000D01*
X158952000Y-100607750D01*
X158952000Y-99698000D01*
X159048000Y-99698000D01*
X159048000Y-100607750D01*
X159167250Y-100727000D01*
X159421981Y-100727000D01*
X159514136Y-100708669D01*
X159600945Y-100672712D01*
X159679070Y-100620510D01*
X159745510Y-100554069D01*
X159797712Y-100475944D01*
X159833669Y-100389135D01*
X159852000Y-100296980D01*
X159852000Y-99817250D01*
X159732750Y-99698000D01*
X159048000Y-99698000D01*
X158952000Y-99698000D01*
X158267250Y-99698000D01*
X158148000Y-99817250D01*
X157704307Y-99817250D01*
X157704307Y-99320000D01*
X157695097Y-99226492D01*
X157667822Y-99136577D01*
X157623529Y-99053711D01*
X157563921Y-98981079D01*
X157491289Y-98921471D01*
X157408423Y-98877178D01*
X157318508Y-98849903D01*
X157225000Y-98840693D01*
X156575000Y-98840693D01*
X156481492Y-98849903D01*
X156426684Y-98866529D01*
X156414136Y-98861331D01*
X156321981Y-98843000D01*
X156117250Y-98843000D01*
X155998000Y-98962250D01*
X155998000Y-99802000D01*
X156018000Y-99802000D01*
X156018000Y-99898000D01*
X155998000Y-99898000D01*
X155998000Y-99918000D01*
X155902000Y-99918000D01*
X155902000Y-99898000D01*
X155882000Y-99898000D01*
X155882000Y-99802000D01*
X155902000Y-99802000D01*
X155902000Y-98962250D01*
X155782750Y-98843000D01*
X155578019Y-98843000D01*
X155485864Y-98861331D01*
X155473316Y-98866529D01*
X155418508Y-98849903D01*
X155325000Y-98840693D01*
X154675000Y-98840693D01*
X154581492Y-98849903D01*
X154491577Y-98877178D01*
X154408711Y-98921471D01*
X154336079Y-98981079D01*
X154276471Y-99053711D01*
X154232178Y-99136577D01*
X154228713Y-99148000D01*
X154207892Y-99148000D01*
X154173529Y-99083711D01*
X154113921Y-99011079D01*
X154099959Y-98999621D01*
X154145510Y-98954069D01*
X154197712Y-98875944D01*
X154233669Y-98789135D01*
X154252000Y-98696980D01*
X154252000Y-98400507D01*
X154276471Y-98446289D01*
X154336079Y-98518921D01*
X154408711Y-98578529D01*
X154491577Y-98622822D01*
X154581492Y-98650097D01*
X154675000Y-98659307D01*
X155325000Y-98659307D01*
X155418508Y-98650097D01*
X155508423Y-98622822D01*
X155591289Y-98578529D01*
X155663921Y-98518921D01*
X155723529Y-98446289D01*
X155767822Y-98363423D01*
X155795097Y-98273508D01*
X155804307Y-98180000D01*
X155804307Y-97126934D01*
X155816289Y-97120529D01*
X155888921Y-97060921D01*
X155948529Y-96988289D01*
X155951069Y-96983536D01*
X155979490Y-97026070D01*
X156045931Y-97092510D01*
X156095693Y-97125760D01*
X156095693Y-98180000D01*
X156104903Y-98273508D01*
X156132178Y-98363423D01*
X156176471Y-98446289D01*
X156236079Y-98518921D01*
X156308711Y-98578529D01*
X156391577Y-98622822D01*
X156481492Y-98650097D01*
X156575000Y-98659307D01*
X157225000Y-98659307D01*
X157318508Y-98650097D01*
X157408423Y-98622822D01*
X157491289Y-98578529D01*
X157563921Y-98518921D01*
X157623529Y-98446289D01*
X157660565Y-98377000D01*
X158148352Y-98377000D01*
X158154903Y-98443508D01*
X158182178Y-98533423D01*
X158226471Y-98616289D01*
X158286079Y-98688921D01*
X158300041Y-98700379D01*
X158254490Y-98745931D01*
X158202288Y-98824056D01*
X158166331Y-98910865D01*
X158148000Y-99003020D01*
X158148000Y-99482750D01*
X158267250Y-99602000D01*
X158952000Y-99602000D01*
X158952000Y-99582000D01*
X159048000Y-99582000D01*
X159048000Y-99602000D01*
X159732750Y-99602000D01*
X159852000Y-99482750D01*
X159852000Y-99003020D01*
X159833669Y-98910865D01*
X159797712Y-98824056D01*
X159745510Y-98745931D01*
X159699959Y-98700379D01*
X159713921Y-98688921D01*
X159773529Y-98616289D01*
X159817822Y-98533423D01*
X159845097Y-98443508D01*
X159854307Y-98350000D01*
X159854307Y-97150000D01*
X159845097Y-97056492D01*
X159817822Y-96966577D01*
X159773529Y-96883711D01*
X159713921Y-96811079D01*
X159641289Y-96751471D01*
X159558423Y-96707178D01*
X159468508Y-96679903D01*
X159375000Y-96670693D01*
X158625000Y-96670693D01*
X158577000Y-96675421D01*
X158577000Y-96259250D01*
X158457750Y-96140000D01*
X157273000Y-96140000D01*
X157273000Y-96160000D01*
X157177000Y-96160000D01*
X157177000Y-96140000D01*
X157157000Y-96140000D01*
X157157000Y-96044000D01*
X157177000Y-96044000D01*
X157177000Y-96024000D01*
X157273000Y-96024000D01*
X157273000Y-96044000D01*
X158457750Y-96044000D01*
X158577000Y-95924750D01*
X158577000Y-95415019D01*
X158558669Y-95322864D01*
X158522712Y-95236055D01*
X158470510Y-95157930D01*
X158404069Y-95091490D01*
X158325944Y-95039288D01*
X158239135Y-95003331D01*
X158146980Y-94985000D01*
X157392250Y-94985000D01*
X157273002Y-95104248D01*
X157273002Y-94985000D01*
X157265253Y-94985000D01*
X157292822Y-94933423D01*
X157320097Y-94843508D01*
X157329307Y-94750000D01*
X157329307Y-93850000D01*
X157320097Y-93756492D01*
X157292822Y-93666577D01*
X157248529Y-93583711D01*
X157188921Y-93511079D01*
X157116289Y-93451471D01*
X157033423Y-93407178D01*
X156943508Y-93379903D01*
X156850000Y-93370693D01*
X156350000Y-93370693D01*
X156256492Y-93379903D01*
X156166577Y-93407178D01*
X156083711Y-93451471D01*
X156011079Y-93511079D01*
X155951471Y-93583711D01*
X155907178Y-93666577D01*
X155879903Y-93756492D01*
X155870693Y-93850000D01*
X155870693Y-94142595D01*
X155829307Y-94183981D01*
X155829307Y-93850000D01*
X155820097Y-93756492D01*
X155792822Y-93666577D01*
X155748529Y-93583711D01*
X155727000Y-93557478D01*
X155727000Y-82629307D01*
X156000000Y-82629307D01*
X156093508Y-82620097D01*
X156183423Y-82592822D01*
X156266289Y-82548529D01*
X156338921Y-82488921D01*
X156398529Y-82416289D01*
X156442822Y-82333423D01*
X156470097Y-82243508D01*
X156479307Y-82150000D01*
X156479307Y-81250000D01*
X156470097Y-81156492D01*
X156442822Y-81066577D01*
X156406569Y-80998753D01*
X156490864Y-81033669D01*
X156583019Y-81052000D01*
X156762750Y-81052000D01*
X156882000Y-80932750D01*
X156882000Y-79848000D01*
X156978000Y-79848000D01*
X156978000Y-80932750D01*
X157097250Y-81052000D01*
X157276981Y-81052000D01*
X157369136Y-81033669D01*
X157455945Y-80997712D01*
X157534070Y-80945510D01*
X157600510Y-80879069D01*
X157652712Y-80800944D01*
X157688669Y-80714135D01*
X157707000Y-80621980D01*
X157707000Y-79967250D01*
X157587750Y-79848000D01*
X156978000Y-79848000D01*
X156882000Y-79848000D01*
X156862000Y-79848000D01*
X156862000Y-79752000D01*
X156882000Y-79752000D01*
X156882000Y-78667250D01*
X156978000Y-78667250D01*
X156978000Y-79752000D01*
X157587750Y-79752000D01*
X157707000Y-79632750D01*
X157707000Y-78978020D01*
X157688669Y-78885865D01*
X157652712Y-78799056D01*
X157600510Y-78720931D01*
X157534070Y-78654490D01*
X157455945Y-78602288D01*
X157369136Y-78566331D01*
X157276981Y-78548000D01*
X157097250Y-78548000D01*
X156978000Y-78667250D01*
X156882000Y-78667250D01*
X156762750Y-78548000D01*
X156583019Y-78548000D01*
X156490864Y-78566331D01*
X156404055Y-78602288D01*
X156325930Y-78654490D01*
X156296406Y-78684015D01*
X156287000Y-78676296D01*
X156287000Y-78601998D01*
X156281343Y-78544306D01*
X156276300Y-78486660D01*
X156275381Y-78483497D01*
X156275059Y-78480213D01*
X156258325Y-78424788D01*
X156242161Y-78369150D01*
X156240642Y-78366219D01*
X156239690Y-78363067D01*
X156212523Y-78311972D01*
X156185847Y-78260509D01*
X156183790Y-78257932D01*
X156182242Y-78255021D01*
X156145637Y-78210138D01*
X156109503Y-78164875D01*
X156104979Y-78160288D01*
X156104901Y-78160192D01*
X156104812Y-78160118D01*
X156103356Y-78158642D01*
X155017000Y-77072286D01*
X155017000Y-76632367D01*
X155070077Y-76669256D01*
X155227681Y-76738112D01*
X155395657Y-76775044D01*
X155567608Y-76778646D01*
X155736984Y-76748780D01*
X155897333Y-76686585D01*
X156042547Y-76594429D01*
X156100370Y-76539365D01*
X156060007Y-76633539D01*
X156024249Y-76801769D01*
X156021848Y-76973741D01*
X156052895Y-77142903D01*
X156116208Y-77302814D01*
X156209376Y-77447382D01*
X156328849Y-77571100D01*
X156470077Y-77669256D01*
X156627681Y-77738112D01*
X156795657Y-77775044D01*
X156967608Y-77778646D01*
X157136984Y-77748780D01*
X157297333Y-77686585D01*
X157442547Y-77594429D01*
X157567097Y-77475822D01*
X157666236Y-77335283D01*
X157736190Y-77178164D01*
X157774294Y-77010449D01*
X157777037Y-76814006D01*
X157743631Y-76645293D01*
X157678091Y-76486281D01*
X157582914Y-76343029D01*
X157557000Y-76316933D01*
X157557000Y-75523704D01*
X157568921Y-75513921D01*
X157628529Y-75441289D01*
X157672822Y-75358423D01*
X157700097Y-75268508D01*
X157709307Y-75175000D01*
X157709307Y-75156877D01*
X159526215Y-76973786D01*
X159526215Y-76973786D01*
G37*
X159526215Y-76973786D02*
X159564537Y-77005263D01*
X159602642Y-77037011D01*
X159604264Y-77037896D01*
X159605693Y-77039069D01*
X159649445Y-77062529D01*
X159692945Y-77086246D01*
X159694705Y-77086798D01*
X159696336Y-77087672D01*
X159743811Y-77102186D01*
X159791091Y-77117003D01*
X159792927Y-77117202D01*
X159794695Y-77117743D01*
X159844081Y-77122760D01*
X159893342Y-77128111D01*
X159895181Y-77127950D01*
X159897020Y-77128137D01*
X159946445Y-77123465D01*
X159995802Y-77119147D01*
X159997574Y-77118632D01*
X159999417Y-77118458D01*
X160047003Y-77104272D01*
X160094571Y-77090452D01*
X160096211Y-77089602D01*
X160097982Y-77089074D01*
X160141903Y-77065917D01*
X160185885Y-77043119D01*
X160187326Y-77041969D01*
X160188964Y-77041105D01*
X160227565Y-77009846D01*
X160266266Y-76978952D01*
X160268788Y-76976465D01*
X160268895Y-76976378D01*
X160268983Y-76976272D01*
X160271505Y-76973785D01*
X161332691Y-75912600D01*
X163372360Y-78768965D01*
X163372360Y-105476525D01*
X162476417Y-107278338D01*
X158564921Y-111192740D01*
X155738965Y-113074320D01*
X129060095Y-113074320D01*
X126235317Y-111193525D01*
X123943074Y-108875000D01*
X130495693Y-108875000D01*
X130495693Y-110225000D01*
X130504903Y-110318508D01*
X130532178Y-110408423D01*
X130576471Y-110491289D01*
X130636079Y-110563921D01*
X130708711Y-110623529D01*
X130791577Y-110667822D01*
X130881492Y-110695097D01*
X130975000Y-110704307D01*
X132325000Y-110704307D01*
X132418508Y-110695097D01*
X132508423Y-110667822D01*
X132591289Y-110623529D01*
X132663921Y-110563921D01*
X132723529Y-110491289D01*
X132767822Y-110408423D01*
X132794466Y-110320587D01*
X132832575Y-110367313D01*
X133005810Y-110510625D01*
X133203582Y-110617560D01*
X133418358Y-110684045D01*
X133641958Y-110707546D01*
X133865863Y-110687169D01*
X134081547Y-110623690D01*
X134280793Y-110519526D01*
X134456012Y-110378647D01*
X134600531Y-110206416D01*
X134649858Y-110116691D01*
X134690475Y-110193081D01*
X134832575Y-110367313D01*
X135005810Y-110510625D01*
X135203582Y-110617560D01*
X135418358Y-110684045D01*
X135641958Y-110707546D01*
X135865863Y-110687169D01*
X136081547Y-110623690D01*
X136280793Y-110519526D01*
X136456012Y-110378647D01*
X136600531Y-110206416D01*
X136649858Y-110116691D01*
X136690475Y-110193081D01*
X136832575Y-110367313D01*
X137005810Y-110510625D01*
X137203582Y-110617560D01*
X137418358Y-110684045D01*
X137641958Y-110707546D01*
X137865863Y-110687169D01*
X138081547Y-110623690D01*
X138280793Y-110519526D01*
X138456012Y-110378647D01*
X138600531Y-110206416D01*
X138649858Y-110116691D01*
X138690475Y-110193081D01*
X138832575Y-110367313D01*
X139005810Y-110510625D01*
X139203582Y-110617560D01*
X139418358Y-110684045D01*
X139641958Y-110707546D01*
X139865863Y-110687169D01*
X140081547Y-110623690D01*
X140280793Y-110519526D01*
X140456012Y-110378647D01*
X140600531Y-110206416D01*
X140651461Y-110113774D01*
X140693690Y-110192323D01*
X140837376Y-110366548D01*
X141012291Y-110509393D01*
X141211713Y-110615369D01*
X141422535Y-110679320D01*
X141602000Y-110581634D01*
X141602000Y-109598000D01*
X141582000Y-109598000D01*
X141582000Y-109502000D01*
X141602000Y-109502000D01*
X141602000Y-109482000D01*
X141698000Y-109482000D01*
X141698000Y-109502000D01*
X141718000Y-109502000D01*
X141718000Y-109598000D01*
X141698000Y-109598000D01*
X141698000Y-110581634D01*
X141877465Y-110679320D01*
X142088287Y-110615369D01*
X142287709Y-110509393D01*
X142462624Y-110366548D01*
X142606310Y-110192323D01*
X142648422Y-110113991D01*
X142690475Y-110193081D01*
X142832575Y-110367313D01*
X143005810Y-110510625D01*
X143203582Y-110617560D01*
X143418358Y-110684045D01*
X143641958Y-110707546D01*
X143865863Y-110687169D01*
X144081547Y-110623690D01*
X144280793Y-110519526D01*
X144456012Y-110378647D01*
X144600531Y-110206416D01*
X144708844Y-110009395D01*
X144776826Y-109795088D01*
X144801888Y-109571658D01*
X144802000Y-109555574D01*
X144802000Y-109544426D01*
X144780060Y-109320668D01*
X144715077Y-109105433D01*
X144609525Y-108906919D01*
X144467425Y-108732687D01*
X144294190Y-108589375D01*
X144221925Y-108550302D01*
X144280793Y-108519526D01*
X144456012Y-108378647D01*
X144600531Y-108206416D01*
X144708844Y-108009395D01*
X144776826Y-107795088D01*
X144801888Y-107571658D01*
X144802000Y-107555574D01*
X144802000Y-107544426D01*
X144780060Y-107320668D01*
X144715077Y-107105433D01*
X144694775Y-107067250D01*
X145273000Y-107067250D01*
X145273000Y-107546980D01*
X145291331Y-107639135D01*
X145327288Y-107725944D01*
X145379490Y-107804069D01*
X145445930Y-107870510D01*
X145524055Y-107922712D01*
X145610864Y-107958669D01*
X145703019Y-107977000D01*
X146032750Y-107977000D01*
X146152000Y-107857750D01*
X146152000Y-106948000D01*
X145392250Y-106948000D01*
X145273000Y-107067250D01*
X144694775Y-107067250D01*
X144609525Y-106906919D01*
X144467425Y-106732687D01*
X144294190Y-106589375D01*
X144096418Y-106482440D01*
X143881642Y-106415955D01*
X143658042Y-106392454D01*
X143434137Y-106412831D01*
X143218453Y-106476310D01*
X143019207Y-106580474D01*
X142843988Y-106721353D01*
X142699469Y-106893584D01*
X142650142Y-106983309D01*
X142609525Y-106906919D01*
X142467425Y-106732687D01*
X142294190Y-106589375D01*
X142096418Y-106482440D01*
X141881642Y-106415955D01*
X141658042Y-106392454D01*
X141434137Y-106412831D01*
X141218453Y-106476310D01*
X141019207Y-106580474D01*
X140843988Y-106721353D01*
X140699469Y-106893584D01*
X140650142Y-106983309D01*
X140609525Y-106906919D01*
X140467425Y-106732687D01*
X140294190Y-106589375D01*
X140096418Y-106482440D01*
X139881642Y-106415955D01*
X139658042Y-106392454D01*
X139434137Y-106412831D01*
X139218453Y-106476310D01*
X139019207Y-106580474D01*
X138843988Y-106721353D01*
X138699469Y-106893584D01*
X138650142Y-106983309D01*
X138609525Y-106906919D01*
X138467425Y-106732687D01*
X138294190Y-106589375D01*
X138096418Y-106482440D01*
X137881642Y-106415955D01*
X137658042Y-106392454D01*
X137434137Y-106412831D01*
X137218453Y-106476310D01*
X137019207Y-106580474D01*
X136843988Y-106721353D01*
X136699469Y-106893584D01*
X136650142Y-106983309D01*
X136609525Y-106906919D01*
X136467425Y-106732687D01*
X136294190Y-106589375D01*
X136096418Y-106482440D01*
X135881642Y-106415955D01*
X135658042Y-106392454D01*
X135434137Y-106412831D01*
X135218453Y-106476310D01*
X135019207Y-106580474D01*
X134843988Y-106721353D01*
X134699469Y-106893584D01*
X134650142Y-106983309D01*
X134609525Y-106906919D01*
X134467425Y-106732687D01*
X134294190Y-106589375D01*
X134096418Y-106482440D01*
X133881642Y-106415955D01*
X133658042Y-106392454D01*
X133434137Y-106412831D01*
X133218453Y-106476310D01*
X133019207Y-106580474D01*
X132843988Y-106721353D01*
X132699469Y-106893584D01*
X132650142Y-106983309D01*
X132609525Y-106906919D01*
X132467425Y-106732687D01*
X132294190Y-106589375D01*
X132096418Y-106482440D01*
X131881642Y-106415955D01*
X131658042Y-106392454D01*
X131434137Y-106412831D01*
X131218453Y-106476310D01*
X131019207Y-106580474D01*
X130843988Y-106721353D01*
X130699469Y-106893584D01*
X130591156Y-107090605D01*
X130523174Y-107304912D01*
X130498112Y-107528342D01*
X130498000Y-107544426D01*
X130498000Y-107555574D01*
X130519940Y-107779332D01*
X130584923Y-107994567D01*
X130690475Y-108193081D01*
X130832575Y-108367313D01*
X130878947Y-108405675D01*
X130791577Y-108432178D01*
X130708711Y-108476471D01*
X130636079Y-108536079D01*
X130576471Y-108608711D01*
X130532178Y-108691577D01*
X130504903Y-108781492D01*
X130495693Y-108875000D01*
X123943074Y-108875000D01*
X123348937Y-108274051D01*
X121978855Y-106253020D01*
X145273000Y-106253020D01*
X145273000Y-106732750D01*
X145392250Y-106852000D01*
X146152000Y-106852000D01*
X146152000Y-105942250D01*
X146032750Y-105823000D01*
X145703019Y-105823000D01*
X145610864Y-105841331D01*
X145524055Y-105877288D01*
X145445930Y-105929490D01*
X145379490Y-105995931D01*
X145327288Y-106074056D01*
X145291331Y-106160865D01*
X145273000Y-106253020D01*
X121978855Y-106253020D01*
X121426700Y-105438527D01*
X121426700Y-103717250D01*
X124123000Y-103717250D01*
X124123000Y-104546980D01*
X124141331Y-104639135D01*
X124177288Y-104725944D01*
X124229490Y-104804069D01*
X124295930Y-104870510D01*
X124374055Y-104922712D01*
X124460864Y-104958669D01*
X124553019Y-104977000D01*
X124832750Y-104977000D01*
X124952000Y-104857750D01*
X124952000Y-103598000D01*
X125048000Y-103598000D01*
X125048000Y-104857750D01*
X125167250Y-104977000D01*
X125446981Y-104977000D01*
X125539136Y-104958669D01*
X125625945Y-104922712D01*
X125704070Y-104870510D01*
X125770510Y-104804069D01*
X125822712Y-104725944D01*
X125858669Y-104639135D01*
X125877000Y-104546980D01*
X125877000Y-103717250D01*
X125757750Y-103598000D01*
X125048000Y-103598000D01*
X124952000Y-103598000D01*
X124242250Y-103598000D01*
X124123000Y-103717250D01*
X121426700Y-103717250D01*
X121426700Y-101167250D01*
X121648000Y-101167250D01*
X121648000Y-101646980D01*
X121666331Y-101739135D01*
X121702288Y-101825944D01*
X121754490Y-101904069D01*
X121820930Y-101970510D01*
X121899055Y-102022712D01*
X121985864Y-102058669D01*
X122078019Y-102077000D01*
X122332750Y-102077000D01*
X122452000Y-101957750D01*
X122452000Y-101048000D01*
X121767250Y-101048000D01*
X121648000Y-101167250D01*
X121426700Y-101167250D01*
X121426700Y-92773808D01*
X121510864Y-92808669D01*
X121603019Y-92827000D01*
X121732750Y-92827000D01*
X121852000Y-92707750D01*
X121852000Y-92098000D01*
X121832000Y-92098000D01*
X121832000Y-92002000D01*
X121852000Y-92002000D01*
X121852000Y-91982000D01*
X121948000Y-91982000D01*
X121948000Y-92002000D01*
X121968000Y-92002000D01*
X121968000Y-92098000D01*
X121948000Y-92098000D01*
X121948000Y-92707750D01*
X122020693Y-92780443D01*
X122020693Y-92875000D01*
X122029903Y-92968508D01*
X122039456Y-93000000D01*
X122029903Y-93031492D01*
X122020693Y-93125000D01*
X122020693Y-93675000D01*
X122029903Y-93768508D01*
X122039456Y-93800000D01*
X122029903Y-93831492D01*
X122020693Y-93925000D01*
X122020693Y-94475000D01*
X122029903Y-94568508D01*
X122057178Y-94658423D01*
X122101471Y-94741289D01*
X122161079Y-94813921D01*
X122233711Y-94873529D01*
X122316577Y-94917822D01*
X122406492Y-94945097D01*
X122500000Y-94954307D01*
X123995693Y-94954307D01*
X123995693Y-96450000D01*
X124004903Y-96543508D01*
X124032178Y-96633423D01*
X124076471Y-96716289D01*
X124136079Y-96788921D01*
X124208711Y-96848529D01*
X124291577Y-96892822D01*
X124381492Y-96920097D01*
X124475000Y-96929307D01*
X124923000Y-96929307D01*
X124923000Y-97758110D01*
X124900289Y-97739471D01*
X124817423Y-97695178D01*
X124727508Y-97667903D01*
X124634000Y-97658693D01*
X123434000Y-97658693D01*
X123340492Y-97667903D01*
X123250577Y-97695178D01*
X123167711Y-97739471D01*
X123095079Y-97799079D01*
X123035471Y-97871711D01*
X122991178Y-97954577D01*
X122988532Y-97963301D01*
X122954308Y-97966657D01*
X122896662Y-97971700D01*
X122893499Y-97972619D01*
X122890215Y-97972941D01*
X122834790Y-97989675D01*
X122779152Y-98005839D01*
X122776221Y-98007358D01*
X122773069Y-98008310D01*
X122749780Y-98020693D01*
X122125000Y-98020693D01*
X122031492Y-98029903D01*
X121941577Y-98057178D01*
X121858711Y-98101471D01*
X121786079Y-98161079D01*
X121726471Y-98233711D01*
X121682178Y-98316577D01*
X121654903Y-98406492D01*
X121645693Y-98500000D01*
X121645693Y-99700000D01*
X121654903Y-99793508D01*
X121682178Y-99883423D01*
X121726471Y-99966289D01*
X121786079Y-100038921D01*
X121800041Y-100050379D01*
X121754490Y-100095931D01*
X121702288Y-100174056D01*
X121666331Y-100260865D01*
X121648000Y-100353020D01*
X121648000Y-100832750D01*
X121767250Y-100952000D01*
X122452000Y-100952000D01*
X122452000Y-100932000D01*
X122548000Y-100932000D01*
X122548000Y-100952000D01*
X122568000Y-100952000D01*
X122568000Y-101048000D01*
X122548000Y-101048000D01*
X122548000Y-101957750D01*
X122667250Y-102077000D01*
X122921981Y-102077000D01*
X123014136Y-102058669D01*
X123100945Y-102022712D01*
X123179070Y-101970510D01*
X123245510Y-101904069D01*
X123297712Y-101825944D01*
X123298623Y-101823744D01*
X123311079Y-101838921D01*
X123383711Y-101898529D01*
X123466577Y-101942822D01*
X123556492Y-101970097D01*
X123650000Y-101979307D01*
X124042595Y-101979307D01*
X124294354Y-102231066D01*
X124229490Y-102295931D01*
X124177288Y-102374056D01*
X124141331Y-102460865D01*
X124123000Y-102553020D01*
X124123000Y-103382750D01*
X124242250Y-103502000D01*
X124952000Y-103502000D01*
X124952000Y-103482000D01*
X125048000Y-103482000D01*
X125048000Y-103502000D01*
X125757750Y-103502000D01*
X125877000Y-103382750D01*
X125877000Y-102577001D01*
X126440287Y-102577001D01*
X129206646Y-105343360D01*
X129251429Y-105380145D01*
X129295768Y-105417350D01*
X129298655Y-105418937D01*
X129301204Y-105421031D01*
X129352216Y-105448383D01*
X129403000Y-105476302D01*
X129406148Y-105477301D01*
X129409049Y-105478856D01*
X129464355Y-105495765D01*
X129519641Y-105513303D01*
X129522921Y-105513671D01*
X129526071Y-105514634D01*
X129583657Y-105520483D01*
X129641248Y-105526943D01*
X129647694Y-105526988D01*
X129647813Y-105527000D01*
X129647924Y-105526990D01*
X129650002Y-105527004D01*
X143986266Y-105527004D01*
X144028849Y-105571100D01*
X144170077Y-105669256D01*
X144327681Y-105738112D01*
X144495657Y-105775044D01*
X144667608Y-105778646D01*
X144836984Y-105748780D01*
X144997333Y-105686585D01*
X145142547Y-105594429D01*
X145267097Y-105475822D01*
X145366236Y-105335283D01*
X145436190Y-105178164D01*
X145474294Y-105010449D01*
X145477037Y-104814006D01*
X145443631Y-104645293D01*
X145378091Y-104486281D01*
X145282914Y-104343029D01*
X145269287Y-104329307D01*
X146100000Y-104329307D01*
X146193508Y-104320097D01*
X146283423Y-104292822D01*
X146366289Y-104248529D01*
X146438921Y-104188921D01*
X146498529Y-104116289D01*
X146542822Y-104033423D01*
X146570097Y-103943508D01*
X146579307Y-103850000D01*
X146579307Y-102950000D01*
X146570097Y-102856492D01*
X146550439Y-102791686D01*
X146567097Y-102775822D01*
X146666236Y-102635283D01*
X146736190Y-102478164D01*
X146774294Y-102310449D01*
X146777037Y-102114006D01*
X146758050Y-102018113D01*
X146931561Y-101987519D01*
X147155904Y-101900502D01*
X147359072Y-101771568D01*
X147533327Y-101605626D01*
X147672032Y-101408999D01*
X147769904Y-101189175D01*
X147823215Y-100954528D01*
X147827053Y-100679686D01*
X147805311Y-100569881D01*
X151988426Y-96512139D01*
X152017333Y-96469582D01*
X152027000Y-96420981D01*
X152027000Y-86864796D01*
X152011924Y-86804778D01*
X151980436Y-86766516D01*
X150653244Y-85680297D01*
X151371750Y-85680297D01*
X151465258Y-85671087D01*
X151555173Y-85643812D01*
X151638039Y-85599519D01*
X151710671Y-85539911D01*
X151770279Y-85467279D01*
X151814572Y-85384413D01*
X151841847Y-85294498D01*
X151851057Y-85200990D01*
X151851057Y-85128220D01*
X152456782Y-85128220D01*
X152514474Y-85122563D01*
X152572120Y-85117520D01*
X152575283Y-85116601D01*
X152578567Y-85116279D01*
X152634006Y-85099541D01*
X152689629Y-85083381D01*
X152692559Y-85081862D01*
X152695713Y-85080910D01*
X152746826Y-85053733D01*
X152798271Y-85027067D01*
X152800848Y-85025010D01*
X152803759Y-85023462D01*
X152848642Y-84986857D01*
X152893905Y-84950723D01*
X152898492Y-84946199D01*
X152898588Y-84946121D01*
X152898662Y-84946032D01*
X152900138Y-84944576D01*
X154473000Y-83371714D01*
X154473000Y-93557478D01*
X154451471Y-93583711D01*
X154426755Y-93629952D01*
X154419141Y-93624816D01*
X154260591Y-93558168D01*
X154092115Y-93523585D01*
X153920131Y-93522384D01*
X153751189Y-93554611D01*
X153591724Y-93619039D01*
X153447810Y-93713214D01*
X153324929Y-93833548D01*
X153227761Y-93975458D01*
X153160007Y-94133539D01*
X153124249Y-94301769D01*
X153121848Y-94473741D01*
X153152895Y-94642903D01*
X153216208Y-94802814D01*
X153309376Y-94947382D01*
X153428849Y-95071100D01*
X153480594Y-95107064D01*
X153461079Y-95123079D01*
X153401471Y-95195711D01*
X153357178Y-95278577D01*
X153329903Y-95368492D01*
X153320693Y-95462000D01*
X153320693Y-96722000D01*
X153329903Y-96815508D01*
X153357178Y-96905423D01*
X153393299Y-96973000D01*
X153351998Y-96973000D01*
X153351998Y-97092248D01*
X153232750Y-96973000D01*
X152978019Y-96973000D01*
X152885864Y-96991331D01*
X152799055Y-97027288D01*
X152720930Y-97079490D01*
X152654490Y-97145931D01*
X152602288Y-97224056D01*
X152566331Y-97310865D01*
X152548000Y-97403020D01*
X152548000Y-97882750D01*
X152667250Y-98002000D01*
X153352000Y-98002000D01*
X153352000Y-97982000D01*
X153448000Y-97982000D01*
X153448000Y-98002000D01*
X153468000Y-98002000D01*
X153468000Y-98098000D01*
X153448000Y-98098000D01*
X153448000Y-98118000D01*
X153352000Y-98118000D01*
X153352000Y-98098000D01*
X152667250Y-98098000D01*
X152548000Y-98217250D01*
X152548000Y-98696980D01*
X152566331Y-98789135D01*
X152602288Y-98875944D01*
X152654490Y-98954069D01*
X152700041Y-98999621D01*
X152686079Y-99011079D01*
X152626471Y-99083711D01*
X152582178Y-99166577D01*
X152554903Y-99256492D01*
X152545693Y-99350000D01*
X152545693Y-99461529D01*
X151034222Y-100973000D01*
X150600000Y-100973000D01*
X150555945Y-100980886D01*
X150513715Y-101006812D01*
X147813715Y-103506812D01*
X147782667Y-103551399D01*
X147773000Y-103600000D01*
X147773000Y-104234222D01*
X147686529Y-104320693D01*
X147350000Y-104320693D01*
X147256492Y-104329903D01*
X147166577Y-104357178D01*
X147083711Y-104401471D01*
X147011079Y-104461079D01*
X146951471Y-104533711D01*
X146907178Y-104616577D01*
X146879903Y-104706492D01*
X146870693Y-104800000D01*
X146870693Y-105875113D01*
X146789136Y-105841331D01*
X146696981Y-105823000D01*
X146367250Y-105823000D01*
X146248000Y-105942250D01*
X146248000Y-106852000D01*
X146268000Y-106852000D01*
X146268000Y-106948000D01*
X146248000Y-106948000D01*
X146248000Y-107857750D01*
X146367250Y-107977000D01*
X146430222Y-107977000D01*
X146386529Y-108020693D01*
X145750000Y-108020693D01*
X145656492Y-108029903D01*
X145566577Y-108057178D01*
X145483711Y-108101471D01*
X145411079Y-108161079D01*
X145351471Y-108233711D01*
X145307178Y-108316577D01*
X145279903Y-108406492D01*
X145270693Y-108500000D01*
X145270693Y-109700000D01*
X145279903Y-109793508D01*
X145307178Y-109883423D01*
X145351471Y-109966289D01*
X145411079Y-110038921D01*
X145483711Y-110098529D01*
X145566577Y-110142822D01*
X145656492Y-110170097D01*
X145750000Y-110179307D01*
X146650000Y-110179307D01*
X146743508Y-110170097D01*
X146833423Y-110142822D01*
X146916289Y-110098529D01*
X146988921Y-110038921D01*
X147048529Y-109966289D01*
X147092822Y-109883423D01*
X147120097Y-109793508D01*
X147129307Y-109700000D01*
X147129307Y-109263471D01*
X147713471Y-108679307D01*
X148250000Y-108679307D01*
X148343508Y-108670097D01*
X148423568Y-108645811D01*
X148420693Y-108675000D01*
X148420693Y-109251173D01*
X147532828Y-110139038D01*
X147451189Y-110154611D01*
X147291724Y-110219039D01*
X147147810Y-110313214D01*
X147024929Y-110433548D01*
X146927761Y-110575458D01*
X146860007Y-110733539D01*
X146824249Y-110901769D01*
X146821848Y-111073741D01*
X146852895Y-111242903D01*
X146916208Y-111402814D01*
X147009376Y-111547382D01*
X147128849Y-111671100D01*
X147270077Y-111769256D01*
X147427681Y-111838112D01*
X147595657Y-111875044D01*
X147767608Y-111878646D01*
X147936984Y-111848780D01*
X148097333Y-111786585D01*
X148242547Y-111694429D01*
X148367097Y-111575822D01*
X148466236Y-111435283D01*
X148536190Y-111278164D01*
X148561538Y-111166596D01*
X149323827Y-110404307D01*
X149900000Y-110404307D01*
X149993508Y-110395097D01*
X150083423Y-110367822D01*
X150166289Y-110323529D01*
X150238921Y-110263921D01*
X150298529Y-110191289D01*
X150342822Y-110108423D01*
X150370097Y-110018508D01*
X150379307Y-109925000D01*
X150379307Y-109467250D01*
X150423000Y-109467250D01*
X150423000Y-109971981D01*
X150441331Y-110064136D01*
X150477288Y-110150945D01*
X150529490Y-110229070D01*
X150595931Y-110295510D01*
X150674056Y-110347712D01*
X150760865Y-110383669D01*
X150853020Y-110402000D01*
X151232750Y-110402000D01*
X151352000Y-110282750D01*
X151352000Y-109348000D01*
X151448000Y-109348000D01*
X151448000Y-110282750D01*
X151567250Y-110402000D01*
X151946980Y-110402000D01*
X152039135Y-110383669D01*
X152125944Y-110347712D01*
X152204069Y-110295510D01*
X152270510Y-110229070D01*
X152322712Y-110150945D01*
X152358669Y-110064136D01*
X152377000Y-109971981D01*
X152377000Y-109467250D01*
X152257750Y-109348000D01*
X151448000Y-109348000D01*
X151352000Y-109348000D01*
X150542250Y-109348000D01*
X150423000Y-109467250D01*
X150379307Y-109467250D01*
X150379307Y-108675000D01*
X150374579Y-108627000D01*
X150423203Y-108627000D01*
X150423000Y-108628019D01*
X150423000Y-109132750D01*
X150542250Y-109252000D01*
X151352000Y-109252000D01*
X151352000Y-109232000D01*
X151448000Y-109232000D01*
X151448000Y-109252000D01*
X152257750Y-109252000D01*
X152377000Y-109132750D01*
X152377000Y-108628019D01*
X152376797Y-108627000D01*
X153563250Y-108627000D01*
X153523000Y-108667250D01*
X153523000Y-109246980D01*
X153541331Y-109339135D01*
X153577288Y-109425944D01*
X153629490Y-109504069D01*
X153695930Y-109570510D01*
X153774055Y-109622712D01*
X153860864Y-109658669D01*
X153953019Y-109677000D01*
X154432750Y-109677000D01*
X154552000Y-109557750D01*
X154552000Y-108627000D01*
X154648000Y-108627000D01*
X154648000Y-109557750D01*
X154767250Y-109677000D01*
X155246981Y-109677000D01*
X155339136Y-109658669D01*
X155425945Y-109622712D01*
X155504070Y-109570510D01*
X155570510Y-109504069D01*
X155622712Y-109425944D01*
X155658669Y-109339135D01*
X155677000Y-109246980D01*
X155677000Y-108667250D01*
X155636750Y-108627000D01*
X160200000Y-108627000D01*
X160248601Y-108617333D01*
X160289803Y-108589803D01*
X160317333Y-108548601D01*
X160327000Y-108500000D01*
X160327000Y-101100000D01*
X160317333Y-101051399D01*
X160289803Y-101010197D01*
X160248601Y-100982667D01*
X160200000Y-100973000D01*
X157536188Y-100973000D01*
X157545233Y-100956547D01*
X157546350Y-100953026D01*
X157548093Y-100949775D01*
X157567049Y-100887776D01*
X157586660Y-100825954D01*
X157587071Y-100822288D01*
X157588151Y-100818756D01*
X157594705Y-100754229D01*
X157601932Y-100689801D01*
X157601982Y-100682588D01*
X157601996Y-100682451D01*
X157601984Y-100682323D01*
X157602000Y-100680000D01*
X157602000Y-100672522D01*
X157623529Y-100646289D01*
X157667822Y-100563423D01*
X157695097Y-100473508D01*
X157704307Y-100380000D01*
X157704307Y-99817250D01*
X158148000Y-99817250D01*
X158148000Y-100296980D01*
X158166331Y-100389135D01*
X158202288Y-100475944D01*
X158254490Y-100554069D01*
X158320930Y-100620510D01*
X158399055Y-100672712D01*
X158485864Y-100708669D01*
X158578019Y-100727000D01*
X158832750Y-100727000D01*
X158952000Y-100607750D01*
X158952000Y-99698000D01*
X159048000Y-99698000D01*
X159048000Y-100607750D01*
X159167250Y-100727000D01*
X159421981Y-100727000D01*
X159514136Y-100708669D01*
X159600945Y-100672712D01*
X159679070Y-100620510D01*
X159745510Y-100554069D01*
X159797712Y-100475944D01*
X159833669Y-100389135D01*
X159852000Y-100296980D01*
X159852000Y-99817250D01*
X159732750Y-99698000D01*
X159048000Y-99698000D01*
X158952000Y-99698000D01*
X158267250Y-99698000D01*
X158148000Y-99817250D01*
X157704307Y-99817250D01*
X157704307Y-99320000D01*
X157695097Y-99226492D01*
X157667822Y-99136577D01*
X157623529Y-99053711D01*
X157563921Y-98981079D01*
X157491289Y-98921471D01*
X157408423Y-98877178D01*
X157318508Y-98849903D01*
X157225000Y-98840693D01*
X156575000Y-98840693D01*
X156481492Y-98849903D01*
X156426684Y-98866529D01*
X156414136Y-98861331D01*
X156321981Y-98843000D01*
X156117250Y-98843000D01*
X155998000Y-98962250D01*
X155998000Y-99802000D01*
X156018000Y-99802000D01*
X156018000Y-99898000D01*
X155998000Y-99898000D01*
X155998000Y-99918000D01*
X155902000Y-99918000D01*
X155902000Y-99898000D01*
X155882000Y-99898000D01*
X155882000Y-99802000D01*
X155902000Y-99802000D01*
X155902000Y-98962250D01*
X155782750Y-98843000D01*
X155578019Y-98843000D01*
X155485864Y-98861331D01*
X155473316Y-98866529D01*
X155418508Y-98849903D01*
X155325000Y-98840693D01*
X154675000Y-98840693D01*
X154581492Y-98849903D01*
X154491577Y-98877178D01*
X154408711Y-98921471D01*
X154336079Y-98981079D01*
X154276471Y-99053711D01*
X154232178Y-99136577D01*
X154228713Y-99148000D01*
X154207892Y-99148000D01*
X154173529Y-99083711D01*
X154113921Y-99011079D01*
X154099959Y-98999621D01*
X154145510Y-98954069D01*
X154197712Y-98875944D01*
X154233669Y-98789135D01*
X154252000Y-98696980D01*
X154252000Y-98400507D01*
X154276471Y-98446289D01*
X154336079Y-98518921D01*
X154408711Y-98578529D01*
X154491577Y-98622822D01*
X154581492Y-98650097D01*
X154675000Y-98659307D01*
X155325000Y-98659307D01*
X155418508Y-98650097D01*
X155508423Y-98622822D01*
X155591289Y-98578529D01*
X155663921Y-98518921D01*
X155723529Y-98446289D01*
X155767822Y-98363423D01*
X155795097Y-98273508D01*
X155804307Y-98180000D01*
X155804307Y-97126934D01*
X155816289Y-97120529D01*
X155888921Y-97060921D01*
X155948529Y-96988289D01*
X155951069Y-96983536D01*
X155979490Y-97026070D01*
X156045931Y-97092510D01*
X156095693Y-97125760D01*
X156095693Y-98180000D01*
X156104903Y-98273508D01*
X156132178Y-98363423D01*
X156176471Y-98446289D01*
X156236079Y-98518921D01*
X156308711Y-98578529D01*
X156391577Y-98622822D01*
X156481492Y-98650097D01*
X156575000Y-98659307D01*
X157225000Y-98659307D01*
X157318508Y-98650097D01*
X157408423Y-98622822D01*
X157491289Y-98578529D01*
X157563921Y-98518921D01*
X157623529Y-98446289D01*
X157660565Y-98377000D01*
X158148352Y-98377000D01*
X158154903Y-98443508D01*
X158182178Y-98533423D01*
X158226471Y-98616289D01*
X158286079Y-98688921D01*
X158300041Y-98700379D01*
X158254490Y-98745931D01*
X158202288Y-98824056D01*
X158166331Y-98910865D01*
X158148000Y-99003020D01*
X158148000Y-99482750D01*
X158267250Y-99602000D01*
X158952000Y-99602000D01*
X158952000Y-99582000D01*
X159048000Y-99582000D01*
X159048000Y-99602000D01*
X159732750Y-99602000D01*
X159852000Y-99482750D01*
X159852000Y-99003020D01*
X159833669Y-98910865D01*
X159797712Y-98824056D01*
X159745510Y-98745931D01*
X159699959Y-98700379D01*
X159713921Y-98688921D01*
X159773529Y-98616289D01*
X159817822Y-98533423D01*
X159845097Y-98443508D01*
X159854307Y-98350000D01*
X159854307Y-97150000D01*
X159845097Y-97056492D01*
X159817822Y-96966577D01*
X159773529Y-96883711D01*
X159713921Y-96811079D01*
X159641289Y-96751471D01*
X159558423Y-96707178D01*
X159468508Y-96679903D01*
X159375000Y-96670693D01*
X158625000Y-96670693D01*
X158577000Y-96675421D01*
X158577000Y-96259250D01*
X158457750Y-96140000D01*
X157273000Y-96140000D01*
X157273000Y-96160000D01*
X157177000Y-96160000D01*
X157177000Y-96140000D01*
X157157000Y-96140000D01*
X157157000Y-96044000D01*
X157177000Y-96044000D01*
X157177000Y-96024000D01*
X157273000Y-96024000D01*
X157273000Y-96044000D01*
X158457750Y-96044000D01*
X158577000Y-95924750D01*
X158577000Y-95415019D01*
X158558669Y-95322864D01*
X158522712Y-95236055D01*
X158470510Y-95157930D01*
X158404069Y-95091490D01*
X158325944Y-95039288D01*
X158239135Y-95003331D01*
X158146980Y-94985000D01*
X157392250Y-94985000D01*
X157273002Y-95104248D01*
X157273002Y-94985000D01*
X157265253Y-94985000D01*
X157292822Y-94933423D01*
X157320097Y-94843508D01*
X157329307Y-94750000D01*
X157329307Y-93850000D01*
X157320097Y-93756492D01*
X157292822Y-93666577D01*
X157248529Y-93583711D01*
X157188921Y-93511079D01*
X157116289Y-93451471D01*
X157033423Y-93407178D01*
X156943508Y-93379903D01*
X156850000Y-93370693D01*
X156350000Y-93370693D01*
X156256492Y-93379903D01*
X156166577Y-93407178D01*
X156083711Y-93451471D01*
X156011079Y-93511079D01*
X155951471Y-93583711D01*
X155907178Y-93666577D01*
X155879903Y-93756492D01*
X155870693Y-93850000D01*
X155870693Y-94142595D01*
X155829307Y-94183981D01*
X155829307Y-93850000D01*
X155820097Y-93756492D01*
X155792822Y-93666577D01*
X155748529Y-93583711D01*
X155727000Y-93557478D01*
X155727000Y-82629307D01*
X156000000Y-82629307D01*
X156093508Y-82620097D01*
X156183423Y-82592822D01*
X156266289Y-82548529D01*
X156338921Y-82488921D01*
X156398529Y-82416289D01*
X156442822Y-82333423D01*
X156470097Y-82243508D01*
X156479307Y-82150000D01*
X156479307Y-81250000D01*
X156470097Y-81156492D01*
X156442822Y-81066577D01*
X156406569Y-80998753D01*
X156490864Y-81033669D01*
X156583019Y-81052000D01*
X156762750Y-81052000D01*
X156882000Y-80932750D01*
X156882000Y-79848000D01*
X156978000Y-79848000D01*
X156978000Y-80932750D01*
X157097250Y-81052000D01*
X157276981Y-81052000D01*
X157369136Y-81033669D01*
X157455945Y-80997712D01*
X157534070Y-80945510D01*
X157600510Y-80879069D01*
X157652712Y-80800944D01*
X157688669Y-80714135D01*
X157707000Y-80621980D01*
X157707000Y-79967250D01*
X157587750Y-79848000D01*
X156978000Y-79848000D01*
X156882000Y-79848000D01*
X156862000Y-79848000D01*
X156862000Y-79752000D01*
X156882000Y-79752000D01*
X156882000Y-78667250D01*
X156978000Y-78667250D01*
X156978000Y-79752000D01*
X157587750Y-79752000D01*
X157707000Y-79632750D01*
X157707000Y-78978020D01*
X157688669Y-78885865D01*
X157652712Y-78799056D01*
X157600510Y-78720931D01*
X157534070Y-78654490D01*
X157455945Y-78602288D01*
X157369136Y-78566331D01*
X157276981Y-78548000D01*
X157097250Y-78548000D01*
X156978000Y-78667250D01*
X156882000Y-78667250D01*
X156762750Y-78548000D01*
X156583019Y-78548000D01*
X156490864Y-78566331D01*
X156404055Y-78602288D01*
X156325930Y-78654490D01*
X156296406Y-78684015D01*
X156287000Y-78676296D01*
X156287000Y-78601998D01*
X156281343Y-78544306D01*
X156276300Y-78486660D01*
X156275381Y-78483497D01*
X156275059Y-78480213D01*
X156258325Y-78424788D01*
X156242161Y-78369150D01*
X156240642Y-78366219D01*
X156239690Y-78363067D01*
X156212523Y-78311972D01*
X156185847Y-78260509D01*
X156183790Y-78257932D01*
X156182242Y-78255021D01*
X156145637Y-78210138D01*
X156109503Y-78164875D01*
X156104979Y-78160288D01*
X156104901Y-78160192D01*
X156104812Y-78160118D01*
X156103356Y-78158642D01*
X155017000Y-77072286D01*
X155017000Y-76632367D01*
X155070077Y-76669256D01*
X155227681Y-76738112D01*
X155395657Y-76775044D01*
X155567608Y-76778646D01*
X155736984Y-76748780D01*
X155897333Y-76686585D01*
X156042547Y-76594429D01*
X156100370Y-76539365D01*
X156060007Y-76633539D01*
X156024249Y-76801769D01*
X156021848Y-76973741D01*
X156052895Y-77142903D01*
X156116208Y-77302814D01*
X156209376Y-77447382D01*
X156328849Y-77571100D01*
X156470077Y-77669256D01*
X156627681Y-77738112D01*
X156795657Y-77775044D01*
X156967608Y-77778646D01*
X157136984Y-77748780D01*
X157297333Y-77686585D01*
X157442547Y-77594429D01*
X157567097Y-77475822D01*
X157666236Y-77335283D01*
X157736190Y-77178164D01*
X157774294Y-77010449D01*
X157777037Y-76814006D01*
X157743631Y-76645293D01*
X157678091Y-76486281D01*
X157582914Y-76343029D01*
X157557000Y-76316933D01*
X157557000Y-75523704D01*
X157568921Y-75513921D01*
X157628529Y-75441289D01*
X157672822Y-75358423D01*
X157700097Y-75268508D01*
X157709307Y-75175000D01*
X157709307Y-75156877D01*
X159526215Y-76973786D01*
G36*
X131172999Y-99644999D02*
X131178656Y-99702691D01*
X131183699Y-99760337D01*
X131184618Y-99763500D01*
X131184940Y-99766784D01*
X131201678Y-99822223D01*
X131217838Y-99877846D01*
X131219357Y-99880776D01*
X131220309Y-99883930D01*
X131247486Y-99935043D01*
X131274152Y-99986488D01*
X131276209Y-99989065D01*
X131277757Y-99991976D01*
X131314362Y-100036859D01*
X131350496Y-100082122D01*
X131355020Y-100086709D01*
X131355098Y-100086805D01*
X131355187Y-100086879D01*
X131356643Y-100088355D01*
X132095693Y-100827405D01*
X132095693Y-101480000D01*
X132104903Y-101573508D01*
X132131797Y-101662167D01*
X132110865Y-101666331D01*
X132024056Y-101702288D01*
X131945931Y-101754490D01*
X131879490Y-101820930D01*
X131827288Y-101899055D01*
X131791331Y-101985864D01*
X131773000Y-102078019D01*
X131773000Y-102332750D01*
X131892250Y-102452000D01*
X132802000Y-102452000D01*
X132802000Y-102432000D01*
X132898000Y-102432000D01*
X132898000Y-102452000D01*
X132918000Y-102452000D01*
X132918000Y-102548000D01*
X132898000Y-102548000D01*
X132898000Y-103232750D01*
X133017250Y-103352000D01*
X133496980Y-103352000D01*
X133589135Y-103333669D01*
X133675944Y-103297712D01*
X133754069Y-103245510D01*
X133799621Y-103199959D01*
X133811079Y-103213921D01*
X133883711Y-103273529D01*
X133966577Y-103317822D01*
X134056492Y-103345097D01*
X134150000Y-103354307D01*
X135350000Y-103354307D01*
X135443508Y-103345097D01*
X135533423Y-103317822D01*
X135616289Y-103273529D01*
X135688921Y-103213921D01*
X135748529Y-103141289D01*
X135792822Y-103058423D01*
X135820097Y-102968508D01*
X135829307Y-102875000D01*
X135829307Y-102290092D01*
X135876266Y-102291076D01*
X137428546Y-103843356D01*
X137473334Y-103880145D01*
X137517668Y-103917346D01*
X137520554Y-103918933D01*
X137523105Y-103921028D01*
X137574169Y-103948408D01*
X137624900Y-103976298D01*
X137628044Y-103977295D01*
X137630949Y-103978853D01*
X137686342Y-103995789D01*
X137741541Y-104013299D01*
X137744816Y-104013666D01*
X137747971Y-104014631D01*
X137805646Y-104020489D01*
X137863148Y-104026939D01*
X137869585Y-104026984D01*
X137869714Y-104026997D01*
X137869835Y-104026986D01*
X137871902Y-104027000D01*
X138155230Y-104027000D01*
X138157178Y-104033423D01*
X138201471Y-104116289D01*
X138261079Y-104188921D01*
X138333711Y-104248529D01*
X138379500Y-104273004D01*
X129909714Y-104273004D01*
X128303960Y-102667250D01*
X131773000Y-102667250D01*
X131773000Y-102921981D01*
X131791331Y-103014136D01*
X131827288Y-103100945D01*
X131879490Y-103179070D01*
X131945931Y-103245510D01*
X132024056Y-103297712D01*
X132110865Y-103333669D01*
X132203020Y-103352000D01*
X132682750Y-103352000D01*
X132802000Y-103232750D01*
X132802000Y-102548000D01*
X131892250Y-102548000D01*
X131773000Y-102667250D01*
X128303960Y-102667250D01*
X127586711Y-101950001D01*
X130007405Y-99529307D01*
X130800000Y-99529307D01*
X130893508Y-99520097D01*
X130983423Y-99492822D01*
X131066289Y-99448529D01*
X131138921Y-99388921D01*
X131172999Y-99347397D01*
X131172999Y-99644999D01*
X131172999Y-99644999D01*
G37*
X131172999Y-99644999D02*
X131178656Y-99702691D01*
X131183699Y-99760337D01*
X131184618Y-99763500D01*
X131184940Y-99766784D01*
X131201678Y-99822223D01*
X131217838Y-99877846D01*
X131219357Y-99880776D01*
X131220309Y-99883930D01*
X131247486Y-99935043D01*
X131274152Y-99986488D01*
X131276209Y-99989065D01*
X131277757Y-99991976D01*
X131314362Y-100036859D01*
X131350496Y-100082122D01*
X131355020Y-100086709D01*
X131355098Y-100086805D01*
X131355187Y-100086879D01*
X131356643Y-100088355D01*
X132095693Y-100827405D01*
X132095693Y-101480000D01*
X132104903Y-101573508D01*
X132131797Y-101662167D01*
X132110865Y-101666331D01*
X132024056Y-101702288D01*
X131945931Y-101754490D01*
X131879490Y-101820930D01*
X131827288Y-101899055D01*
X131791331Y-101985864D01*
X131773000Y-102078019D01*
X131773000Y-102332750D01*
X131892250Y-102452000D01*
X132802000Y-102452000D01*
X132802000Y-102432000D01*
X132898000Y-102432000D01*
X132898000Y-102452000D01*
X132918000Y-102452000D01*
X132918000Y-102548000D01*
X132898000Y-102548000D01*
X132898000Y-103232750D01*
X133017250Y-103352000D01*
X133496980Y-103352000D01*
X133589135Y-103333669D01*
X133675944Y-103297712D01*
X133754069Y-103245510D01*
X133799621Y-103199959D01*
X133811079Y-103213921D01*
X133883711Y-103273529D01*
X133966577Y-103317822D01*
X134056492Y-103345097D01*
X134150000Y-103354307D01*
X135350000Y-103354307D01*
X135443508Y-103345097D01*
X135533423Y-103317822D01*
X135616289Y-103273529D01*
X135688921Y-103213921D01*
X135748529Y-103141289D01*
X135792822Y-103058423D01*
X135820097Y-102968508D01*
X135829307Y-102875000D01*
X135829307Y-102290092D01*
X135876266Y-102291076D01*
X137428546Y-103843356D01*
X137473334Y-103880145D01*
X137517668Y-103917346D01*
X137520554Y-103918933D01*
X137523105Y-103921028D01*
X137574169Y-103948408D01*
X137624900Y-103976298D01*
X137628044Y-103977295D01*
X137630949Y-103978853D01*
X137686342Y-103995789D01*
X137741541Y-104013299D01*
X137744816Y-104013666D01*
X137747971Y-104014631D01*
X137805646Y-104020489D01*
X137863148Y-104026939D01*
X137869585Y-104026984D01*
X137869714Y-104026997D01*
X137869835Y-104026986D01*
X137871902Y-104027000D01*
X138155230Y-104027000D01*
X138157178Y-104033423D01*
X138201471Y-104116289D01*
X138261079Y-104188921D01*
X138333711Y-104248529D01*
X138379500Y-104273004D01*
X129909714Y-104273004D01*
X128303960Y-102667250D01*
X131773000Y-102667250D01*
X131773000Y-102921981D01*
X131791331Y-103014136D01*
X131827288Y-103100945D01*
X131879490Y-103179070D01*
X131945931Y-103245510D01*
X132024056Y-103297712D01*
X132110865Y-103333669D01*
X132203020Y-103352000D01*
X132682750Y-103352000D01*
X132802000Y-103232750D01*
X132802000Y-102548000D01*
X131892250Y-102548000D01*
X131773000Y-102667250D01*
X128303960Y-102667250D01*
X127586711Y-101950001D01*
X130007405Y-99529307D01*
X130800000Y-99529307D01*
X130893508Y-99520097D01*
X130983423Y-99492822D01*
X131066289Y-99448529D01*
X131138921Y-99388921D01*
X131172999Y-99347397D01*
X131172999Y-99644999D01*
G36*
X132948000Y-98702000D02*
X132968000Y-98702000D01*
X132968000Y-98798000D01*
X132948000Y-98798000D01*
X132948000Y-99637750D01*
X133067250Y-99757000D01*
X133271981Y-99757000D01*
X133364136Y-99738669D01*
X133376684Y-99733471D01*
X133431492Y-99750097D01*
X133525000Y-99759307D01*
X134175000Y-99759307D01*
X134268508Y-99750097D01*
X134325000Y-99732961D01*
X134381492Y-99750097D01*
X134475000Y-99759307D01*
X134898981Y-99759307D01*
X134717595Y-99940693D01*
X134475000Y-99940693D01*
X134381492Y-99949903D01*
X134326684Y-99966529D01*
X134314136Y-99961331D01*
X134221981Y-99943000D01*
X134017250Y-99943000D01*
X133898000Y-100062250D01*
X133898000Y-100902000D01*
X133918000Y-100902000D01*
X133918000Y-100998000D01*
X133898000Y-100998000D01*
X133898000Y-101018000D01*
X133802000Y-101018000D01*
X133802000Y-100998000D01*
X133782000Y-100998000D01*
X133782000Y-100902000D01*
X133802000Y-100902000D01*
X133802000Y-100062250D01*
X133682750Y-99943000D01*
X133478019Y-99943000D01*
X133385864Y-99961331D01*
X133373316Y-99966529D01*
X133318508Y-99949903D01*
X133225000Y-99940693D01*
X132982405Y-99940693D01*
X132765731Y-99724019D01*
X132852000Y-99637750D01*
X132852000Y-98798000D01*
X132832000Y-98798000D01*
X132832000Y-98702000D01*
X132852000Y-98702000D01*
X132852000Y-98682000D01*
X132948000Y-98682000D01*
X132948000Y-98702000D01*
X132948000Y-98702000D01*
G37*
X132948000Y-98702000D02*
X132968000Y-98702000D01*
X132968000Y-98798000D01*
X132948000Y-98798000D01*
X132948000Y-99637750D01*
X133067250Y-99757000D01*
X133271981Y-99757000D01*
X133364136Y-99738669D01*
X133376684Y-99733471D01*
X133431492Y-99750097D01*
X133525000Y-99759307D01*
X134175000Y-99759307D01*
X134268508Y-99750097D01*
X134325000Y-99732961D01*
X134381492Y-99750097D01*
X134475000Y-99759307D01*
X134898981Y-99759307D01*
X134717595Y-99940693D01*
X134475000Y-99940693D01*
X134381492Y-99949903D01*
X134326684Y-99966529D01*
X134314136Y-99961331D01*
X134221981Y-99943000D01*
X134017250Y-99943000D01*
X133898000Y-100062250D01*
X133898000Y-100902000D01*
X133918000Y-100902000D01*
X133918000Y-100998000D01*
X133898000Y-100998000D01*
X133898000Y-101018000D01*
X133802000Y-101018000D01*
X133802000Y-100998000D01*
X133782000Y-100998000D01*
X133782000Y-100902000D01*
X133802000Y-100902000D01*
X133802000Y-100062250D01*
X133682750Y-99943000D01*
X133478019Y-99943000D01*
X133385864Y-99961331D01*
X133373316Y-99966529D01*
X133318508Y-99949903D01*
X133225000Y-99940693D01*
X132982405Y-99940693D01*
X132765731Y-99724019D01*
X132852000Y-99637750D01*
X132852000Y-98798000D01*
X132832000Y-98798000D01*
X132832000Y-98702000D01*
X132852000Y-98702000D01*
X132852000Y-98682000D01*
X132948000Y-98682000D01*
X132948000Y-98702000D01*
G36*
X132852905Y-95742903D02*
X132916218Y-95902814D01*
X133009386Y-96047382D01*
X133073010Y-96113267D01*
X133073010Y-96150010D01*
X133078667Y-96207702D01*
X133083710Y-96265348D01*
X133084629Y-96268511D01*
X133084951Y-96271795D01*
X133101689Y-96327234D01*
X133107722Y-96348000D01*
X133017250Y-96348000D01*
X132898000Y-96467250D01*
X132898000Y-97152000D01*
X132918000Y-97152000D01*
X132918000Y-97248000D01*
X132898000Y-97248000D01*
X132898000Y-97268000D01*
X132802000Y-97268000D01*
X132802000Y-97248000D01*
X132782000Y-97248000D01*
X132782000Y-97152000D01*
X132802000Y-97152000D01*
X132802000Y-96467250D01*
X132682750Y-96348000D01*
X132426999Y-96348000D01*
X132426999Y-96315618D01*
X132643345Y-96099272D01*
X132680130Y-96054489D01*
X132717335Y-96010150D01*
X132718922Y-96007263D01*
X132721016Y-96004714D01*
X132748368Y-95953702D01*
X132776287Y-95902918D01*
X132777286Y-95899770D01*
X132778841Y-95896869D01*
X132795750Y-95841563D01*
X132813288Y-95786277D01*
X132813656Y-95782997D01*
X132814619Y-95779847D01*
X132820468Y-95722261D01*
X132826928Y-95664670D01*
X132826973Y-95658224D01*
X132826985Y-95658105D01*
X132826975Y-95657994D01*
X132826989Y-95655916D01*
X132826989Y-95601698D01*
X132852905Y-95742903D01*
X132852905Y-95742903D01*
G37*
X132852905Y-95742903D02*
X132916218Y-95902814D01*
X133009386Y-96047382D01*
X133073010Y-96113267D01*
X133073010Y-96150010D01*
X133078667Y-96207702D01*
X133083710Y-96265348D01*
X133084629Y-96268511D01*
X133084951Y-96271795D01*
X133101689Y-96327234D01*
X133107722Y-96348000D01*
X133017250Y-96348000D01*
X132898000Y-96467250D01*
X132898000Y-97152000D01*
X132918000Y-97152000D01*
X132918000Y-97248000D01*
X132898000Y-97248000D01*
X132898000Y-97268000D01*
X132802000Y-97268000D01*
X132802000Y-97248000D01*
X132782000Y-97248000D01*
X132782000Y-97152000D01*
X132802000Y-97152000D01*
X132802000Y-96467250D01*
X132682750Y-96348000D01*
X132426999Y-96348000D01*
X132426999Y-96315618D01*
X132643345Y-96099272D01*
X132680130Y-96054489D01*
X132717335Y-96010150D01*
X132718922Y-96007263D01*
X132721016Y-96004714D01*
X132748368Y-95953702D01*
X132776287Y-95902918D01*
X132777286Y-95899770D01*
X132778841Y-95896869D01*
X132795750Y-95841563D01*
X132813288Y-95786277D01*
X132813656Y-95782997D01*
X132814619Y-95779847D01*
X132820468Y-95722261D01*
X132826928Y-95664670D01*
X132826973Y-95658224D01*
X132826985Y-95658105D01*
X132826975Y-95657994D01*
X132826989Y-95655916D01*
X132826989Y-95601698D01*
X132852905Y-95742903D01*
G36*
X129577691Y-91238112D02*
X129745667Y-91275044D01*
X129917618Y-91278646D01*
X129922999Y-91277697D01*
X129922999Y-91591997D01*
X129928656Y-91649689D01*
X129933699Y-91707335D01*
X129934618Y-91710498D01*
X129934940Y-91713782D01*
X129951678Y-91769221D01*
X129967838Y-91824844D01*
X129969357Y-91827774D01*
X129970309Y-91830928D01*
X129997486Y-91882041D01*
X130024152Y-91933486D01*
X130026209Y-91936063D01*
X130027757Y-91938974D01*
X130064362Y-91983857D01*
X130100496Y-92029120D01*
X130105020Y-92033707D01*
X130105098Y-92033803D01*
X130105187Y-92033877D01*
X130106643Y-92035353D01*
X130314646Y-92243356D01*
X130359434Y-92280145D01*
X130403768Y-92317346D01*
X130406654Y-92318933D01*
X130409205Y-92321028D01*
X130460269Y-92348408D01*
X130511000Y-92376298D01*
X130514144Y-92377295D01*
X130517049Y-92378853D01*
X130523000Y-92380672D01*
X130523000Y-92432750D01*
X130642250Y-92552000D01*
X130976577Y-92552000D01*
X131000000Y-92554307D01*
X132600000Y-92554307D01*
X132623423Y-92552000D01*
X132957750Y-92552000D01*
X133077000Y-92432750D01*
X133077000Y-92278019D01*
X133061110Y-92198135D01*
X133070097Y-92168508D01*
X133079307Y-92075000D01*
X133079307Y-91922283D01*
X133103019Y-91927000D01*
X133232750Y-91927000D01*
X133351998Y-91807752D01*
X133351998Y-91927000D01*
X133373000Y-91927000D01*
X133373000Y-94686205D01*
X133291734Y-94719039D01*
X133147820Y-94813214D01*
X133024939Y-94933548D01*
X132927771Y-95075458D01*
X132860017Y-95233539D01*
X132826989Y-95388925D01*
X132826989Y-94894535D01*
X132866289Y-94873529D01*
X132938921Y-94813921D01*
X132998529Y-94741289D01*
X133042822Y-94658423D01*
X133070097Y-94568508D01*
X133079307Y-94475000D01*
X133079307Y-93925000D01*
X133070097Y-93831492D01*
X133060544Y-93800000D01*
X133070097Y-93768508D01*
X133079307Y-93675000D01*
X133079307Y-93125000D01*
X133070097Y-93031492D01*
X133061110Y-93001865D01*
X133077000Y-92921981D01*
X133077000Y-92767250D01*
X132957750Y-92648000D01*
X132623423Y-92648000D01*
X132600000Y-92645693D01*
X131000000Y-92645693D01*
X130976577Y-92648000D01*
X130642250Y-92648000D01*
X130523000Y-92767250D01*
X130523000Y-92773000D01*
X130364678Y-92773000D01*
X130361715Y-92770016D01*
X130219131Y-92673841D01*
X130060581Y-92607193D01*
X129892105Y-92572610D01*
X129720121Y-92571409D01*
X129551179Y-92603636D01*
X129485004Y-92630372D01*
X129485004Y-91197618D01*
X129577691Y-91238112D01*
X129577691Y-91238112D01*
G37*
X129577691Y-91238112D02*
X129745667Y-91275044D01*
X129917618Y-91278646D01*
X129922999Y-91277697D01*
X129922999Y-91591997D01*
X129928656Y-91649689D01*
X129933699Y-91707335D01*
X129934618Y-91710498D01*
X129934940Y-91713782D01*
X129951678Y-91769221D01*
X129967838Y-91824844D01*
X129969357Y-91827774D01*
X129970309Y-91830928D01*
X129997486Y-91882041D01*
X130024152Y-91933486D01*
X130026209Y-91936063D01*
X130027757Y-91938974D01*
X130064362Y-91983857D01*
X130100496Y-92029120D01*
X130105020Y-92033707D01*
X130105098Y-92033803D01*
X130105187Y-92033877D01*
X130106643Y-92035353D01*
X130314646Y-92243356D01*
X130359434Y-92280145D01*
X130403768Y-92317346D01*
X130406654Y-92318933D01*
X130409205Y-92321028D01*
X130460269Y-92348408D01*
X130511000Y-92376298D01*
X130514144Y-92377295D01*
X130517049Y-92378853D01*
X130523000Y-92380672D01*
X130523000Y-92432750D01*
X130642250Y-92552000D01*
X130976577Y-92552000D01*
X131000000Y-92554307D01*
X132600000Y-92554307D01*
X132623423Y-92552000D01*
X132957750Y-92552000D01*
X133077000Y-92432750D01*
X133077000Y-92278019D01*
X133061110Y-92198135D01*
X133070097Y-92168508D01*
X133079307Y-92075000D01*
X133079307Y-91922283D01*
X133103019Y-91927000D01*
X133232750Y-91927000D01*
X133351998Y-91807752D01*
X133351998Y-91927000D01*
X133373000Y-91927000D01*
X133373000Y-94686205D01*
X133291734Y-94719039D01*
X133147820Y-94813214D01*
X133024939Y-94933548D01*
X132927771Y-95075458D01*
X132860017Y-95233539D01*
X132826989Y-95388925D01*
X132826989Y-94894535D01*
X132866289Y-94873529D01*
X132938921Y-94813921D01*
X132998529Y-94741289D01*
X133042822Y-94658423D01*
X133070097Y-94568508D01*
X133079307Y-94475000D01*
X133079307Y-93925000D01*
X133070097Y-93831492D01*
X133060544Y-93800000D01*
X133070097Y-93768508D01*
X133079307Y-93675000D01*
X133079307Y-93125000D01*
X133070097Y-93031492D01*
X133061110Y-93001865D01*
X133077000Y-92921981D01*
X133077000Y-92767250D01*
X132957750Y-92648000D01*
X132623423Y-92648000D01*
X132600000Y-92645693D01*
X131000000Y-92645693D01*
X130976577Y-92648000D01*
X130642250Y-92648000D01*
X130523000Y-92767250D01*
X130523000Y-92773000D01*
X130364678Y-92773000D01*
X130361715Y-92770016D01*
X130219131Y-92673841D01*
X130060581Y-92607193D01*
X129892105Y-92572610D01*
X129720121Y-92571409D01*
X129551179Y-92603636D01*
X129485004Y-92630372D01*
X129485004Y-91197618D01*
X129577691Y-91238112D01*
G36*
X127122734Y-90409457D02*
X127121837Y-90473741D01*
X127152884Y-90642903D01*
X127216197Y-90802814D01*
X127309365Y-90947382D01*
X127428838Y-91071100D01*
X127570066Y-91169256D01*
X127727670Y-91238112D01*
X127895646Y-91275044D01*
X128067597Y-91278646D01*
X128231004Y-91249833D01*
X128231004Y-92864996D01*
X128205832Y-92848017D01*
X128047282Y-92781369D01*
X127878806Y-92746786D01*
X127706822Y-92745585D01*
X127537880Y-92777812D01*
X127378415Y-92842240D01*
X127234501Y-92936415D01*
X127111620Y-93056749D01*
X127108821Y-93060837D01*
X127078091Y-92986281D01*
X126982914Y-92843029D01*
X126861725Y-92720991D01*
X126719141Y-92624816D01*
X126560591Y-92558168D01*
X126392115Y-92523585D01*
X126220131Y-92522384D01*
X126051189Y-92554611D01*
X125891724Y-92619039D01*
X125747810Y-92713214D01*
X125624929Y-92833548D01*
X125527761Y-92975458D01*
X125460007Y-93133539D01*
X125430953Y-93270227D01*
X125413322Y-93270104D01*
X125244380Y-93302331D01*
X125084915Y-93366759D01*
X124941001Y-93460934D01*
X124818120Y-93581268D01*
X124720952Y-93723178D01*
X124653198Y-93881259D01*
X124617440Y-94049489D01*
X124615039Y-94221461D01*
X124642428Y-94370693D01*
X124579307Y-94370693D01*
X124579307Y-93925000D01*
X124570097Y-93831492D01*
X124560544Y-93800000D01*
X124570097Y-93768508D01*
X124579307Y-93675000D01*
X124579307Y-93125000D01*
X124570097Y-93031492D01*
X124560544Y-93000000D01*
X124570097Y-92968508D01*
X124579307Y-92875000D01*
X124579307Y-92325000D01*
X124570097Y-92231492D01*
X124561110Y-92201865D01*
X124577000Y-92121981D01*
X124577000Y-91967250D01*
X124457750Y-91848000D01*
X124123423Y-91848000D01*
X124100000Y-91845693D01*
X123232000Y-91845693D01*
X123232000Y-91754307D01*
X124100000Y-91754307D01*
X124123423Y-91752000D01*
X124457750Y-91752000D01*
X124577000Y-91632750D01*
X124577000Y-91478019D01*
X124561110Y-91398135D01*
X124570097Y-91368508D01*
X124579307Y-91275000D01*
X124579307Y-90725000D01*
X124570097Y-90631492D01*
X124560544Y-90600000D01*
X124570097Y-90568508D01*
X124579307Y-90475000D01*
X124579307Y-90027000D01*
X126740277Y-90027000D01*
X127122734Y-90409457D01*
X127122734Y-90409457D01*
G37*
X127122734Y-90409457D02*
X127121837Y-90473741D01*
X127152884Y-90642903D01*
X127216197Y-90802814D01*
X127309365Y-90947382D01*
X127428838Y-91071100D01*
X127570066Y-91169256D01*
X127727670Y-91238112D01*
X127895646Y-91275044D01*
X128067597Y-91278646D01*
X128231004Y-91249833D01*
X128231004Y-92864996D01*
X128205832Y-92848017D01*
X128047282Y-92781369D01*
X127878806Y-92746786D01*
X127706822Y-92745585D01*
X127537880Y-92777812D01*
X127378415Y-92842240D01*
X127234501Y-92936415D01*
X127111620Y-93056749D01*
X127108821Y-93060837D01*
X127078091Y-92986281D01*
X126982914Y-92843029D01*
X126861725Y-92720991D01*
X126719141Y-92624816D01*
X126560591Y-92558168D01*
X126392115Y-92523585D01*
X126220131Y-92522384D01*
X126051189Y-92554611D01*
X125891724Y-92619039D01*
X125747810Y-92713214D01*
X125624929Y-92833548D01*
X125527761Y-92975458D01*
X125460007Y-93133539D01*
X125430953Y-93270227D01*
X125413322Y-93270104D01*
X125244380Y-93302331D01*
X125084915Y-93366759D01*
X124941001Y-93460934D01*
X124818120Y-93581268D01*
X124720952Y-93723178D01*
X124653198Y-93881259D01*
X124617440Y-94049489D01*
X124615039Y-94221461D01*
X124642428Y-94370693D01*
X124579307Y-94370693D01*
X124579307Y-93925000D01*
X124570097Y-93831492D01*
X124560544Y-93800000D01*
X124570097Y-93768508D01*
X124579307Y-93675000D01*
X124579307Y-93125000D01*
X124570097Y-93031492D01*
X124560544Y-93000000D01*
X124570097Y-92968508D01*
X124579307Y-92875000D01*
X124579307Y-92325000D01*
X124570097Y-92231492D01*
X124561110Y-92201865D01*
X124577000Y-92121981D01*
X124577000Y-91967250D01*
X124457750Y-91848000D01*
X124123423Y-91848000D01*
X124100000Y-91845693D01*
X123232000Y-91845693D01*
X123232000Y-91754307D01*
X124100000Y-91754307D01*
X124123423Y-91752000D01*
X124457750Y-91752000D01*
X124577000Y-91632750D01*
X124577000Y-91478019D01*
X124561110Y-91398135D01*
X124570097Y-91368508D01*
X124579307Y-91275000D01*
X124579307Y-90725000D01*
X124570097Y-90631492D01*
X124560544Y-90600000D01*
X124570097Y-90568508D01*
X124579307Y-90475000D01*
X124579307Y-90027000D01*
X126740277Y-90027000D01*
X127122734Y-90409457D01*
G36*
X131868000Y-91045693D02*
X131732000Y-91045693D01*
X131732000Y-90954307D01*
X131868000Y-90954307D01*
X131868000Y-91045693D01*
X131868000Y-91045693D01*
G37*
X131868000Y-91045693D02*
X131732000Y-91045693D01*
X131732000Y-90954307D01*
X131868000Y-90954307D01*
X131868000Y-91045693D01*
G36*
X158617157Y-73137745D02*
X157709307Y-74047133D01*
X157709307Y-73625000D01*
X157700097Y-73531492D01*
X157672822Y-73441577D01*
X157628529Y-73358711D01*
X157568921Y-73286079D01*
X157496289Y-73226471D01*
X157413423Y-73182178D01*
X157323508Y-73154903D01*
X157230000Y-73145693D01*
X156630000Y-73145693D01*
X156536492Y-73154903D01*
X156446577Y-73182178D01*
X156363711Y-73226471D01*
X156295000Y-73282861D01*
X156226289Y-73226471D01*
X156143423Y-73182178D01*
X156053508Y-73154903D01*
X155960000Y-73145693D01*
X155621684Y-73145693D01*
X155645097Y-73068508D01*
X155654307Y-72975000D01*
X155654307Y-72225000D01*
X155645097Y-72131492D01*
X155617822Y-72041577D01*
X155573529Y-71958711D01*
X155513921Y-71886079D01*
X155441289Y-71826471D01*
X155358423Y-71782178D01*
X155268508Y-71754903D01*
X155175000Y-71745693D01*
X153975000Y-71745693D01*
X153881492Y-71754903D01*
X153791577Y-71782178D01*
X153708711Y-71826471D01*
X153636079Y-71886079D01*
X153624621Y-71900041D01*
X153579069Y-71854490D01*
X153500944Y-71802288D01*
X153414135Y-71766331D01*
X153321980Y-71748000D01*
X152842250Y-71748000D01*
X152723000Y-71867250D01*
X152723000Y-72552000D01*
X152743000Y-72552000D01*
X152743000Y-72648000D01*
X152723000Y-72648000D01*
X152723000Y-72668000D01*
X152627000Y-72668000D01*
X152627000Y-72648000D01*
X151730720Y-72648000D01*
X151729500Y-72646780D01*
X150420260Y-72646780D01*
X150420260Y-72666780D01*
X150324260Y-72666780D01*
X150324260Y-72646780D01*
X149015020Y-72646780D01*
X148895770Y-72766030D01*
X148895770Y-73345531D01*
X148914101Y-73437686D01*
X148950058Y-73524495D01*
X149001332Y-73601231D01*
X148974241Y-73634241D01*
X148929948Y-73717107D01*
X148902673Y-73807022D01*
X148893463Y-73900530D01*
X148893463Y-75300070D01*
X148902673Y-75393578D01*
X148929948Y-75483493D01*
X148974241Y-75566359D01*
X149001677Y-75599790D01*
X148974241Y-75633221D01*
X148929948Y-75716087D01*
X148902673Y-75806002D01*
X148893463Y-75899510D01*
X148893463Y-77299050D01*
X148902673Y-77392558D01*
X148929948Y-77482473D01*
X148974241Y-77565339D01*
X148981874Y-77574640D01*
X148974241Y-77583941D01*
X148929948Y-77666807D01*
X148902673Y-77756722D01*
X148893463Y-77850230D01*
X148893463Y-79249770D01*
X148902673Y-79343278D01*
X148929948Y-79433193D01*
X148974241Y-79516059D01*
X148981874Y-79525360D01*
X148974241Y-79534661D01*
X148929948Y-79617527D01*
X148902673Y-79707442D01*
X148893463Y-79800950D01*
X148893463Y-81200490D01*
X148902673Y-81293998D01*
X148929948Y-81383913D01*
X148974241Y-81466779D01*
X149001677Y-81500210D01*
X148974241Y-81533641D01*
X148929948Y-81616507D01*
X148902673Y-81706422D01*
X148893463Y-81799930D01*
X148893463Y-81872700D01*
X148795161Y-81872700D01*
X148760591Y-81858168D01*
X148592115Y-81823585D01*
X148420131Y-81822384D01*
X148251189Y-81854611D01*
X148091724Y-81919039D01*
X147947810Y-82013214D01*
X147824929Y-82133548D01*
X147727761Y-82275458D01*
X147660007Y-82433539D01*
X147624249Y-82601769D01*
X147621848Y-82773741D01*
X147652895Y-82942903D01*
X147716208Y-83102814D01*
X147809376Y-83247382D01*
X147928849Y-83371100D01*
X148070077Y-83469256D01*
X148227681Y-83538112D01*
X148395657Y-83575044D01*
X148567608Y-83578646D01*
X148736984Y-83548780D01*
X148897333Y-83486585D01*
X148963073Y-83444865D01*
X148974241Y-83465759D01*
X149002720Y-83500460D01*
X148974241Y-83535161D01*
X148929948Y-83618027D01*
X148902673Y-83707942D01*
X148893463Y-83801450D01*
X148893463Y-84240033D01*
X147380436Y-83001720D01*
X147348601Y-82982667D01*
X147300000Y-82973000D01*
X137300000Y-82973000D01*
X137249752Y-82983363D01*
X137224669Y-83000639D01*
X137235142Y-82977116D01*
X137273246Y-82809401D01*
X137274634Y-82709982D01*
X143457616Y-76527000D01*
X147286262Y-76527000D01*
X147328849Y-76571100D01*
X147470077Y-76669256D01*
X147627681Y-76738112D01*
X147795657Y-76775044D01*
X147967608Y-76778646D01*
X148136984Y-76748780D01*
X148297333Y-76686585D01*
X148442547Y-76594429D01*
X148567097Y-76475822D01*
X148666236Y-76335283D01*
X148736190Y-76178164D01*
X148774294Y-76010449D01*
X148777037Y-75814006D01*
X148743631Y-75645293D01*
X148678091Y-75486281D01*
X148582914Y-75343029D01*
X148461725Y-75220991D01*
X148319141Y-75124816D01*
X148160591Y-75058168D01*
X147992115Y-75023585D01*
X147820131Y-75022384D01*
X147651189Y-75054611D01*
X147491724Y-75119039D01*
X147347810Y-75213214D01*
X147286759Y-75273000D01*
X143197904Y-75273000D01*
X143140212Y-75278657D01*
X143082566Y-75283700D01*
X143079403Y-75284619D01*
X143076119Y-75284941D01*
X143020694Y-75301675D01*
X142965056Y-75317839D01*
X142962125Y-75319358D01*
X142958973Y-75320310D01*
X142907878Y-75347477D01*
X142856415Y-75374153D01*
X142853838Y-75376210D01*
X142850927Y-75377758D01*
X142806044Y-75414363D01*
X142760781Y-75450497D01*
X142756194Y-75455021D01*
X142756098Y-75455099D01*
X142756024Y-75455188D01*
X142754548Y-75456644D01*
X136389365Y-81821827D01*
X136319083Y-81821336D01*
X136150141Y-81853563D01*
X136102775Y-81872700D01*
X135950657Y-81872700D01*
X135950657Y-81799930D01*
X135941447Y-81706422D01*
X135914172Y-81616507D01*
X135869879Y-81533641D01*
X135842443Y-81500210D01*
X135869879Y-81466779D01*
X135914172Y-81383913D01*
X135941447Y-81293998D01*
X135950657Y-81200490D01*
X135950657Y-81019373D01*
X135991140Y-80986357D01*
X136036403Y-80950223D01*
X136040990Y-80945699D01*
X136041086Y-80945621D01*
X136041160Y-80945532D01*
X136042636Y-80944076D01*
X138609288Y-78377424D01*
X138667608Y-78378646D01*
X138836984Y-78348780D01*
X138997333Y-78286585D01*
X139142547Y-78194429D01*
X139267097Y-78075822D01*
X139366236Y-77935283D01*
X139436190Y-77778164D01*
X139474294Y-77610449D01*
X139477037Y-77414006D01*
X139443631Y-77245293D01*
X139378091Y-77086281D01*
X139282914Y-76943029D01*
X139161725Y-76820991D01*
X139019141Y-76724816D01*
X138860591Y-76658168D01*
X138692115Y-76623585D01*
X138520131Y-76622384D01*
X138351189Y-76654611D01*
X138191724Y-76719039D01*
X138047810Y-76813214D01*
X137924929Y-76933548D01*
X137827761Y-77075458D01*
X137760007Y-77233539D01*
X137724249Y-77401769D01*
X137723013Y-77490275D01*
X135949252Y-79264036D01*
X135950657Y-79249770D01*
X135950657Y-77850230D01*
X135941447Y-77756722D01*
X135914172Y-77666807D01*
X135869879Y-77583941D01*
X135861498Y-77573729D01*
X135894062Y-77524995D01*
X135930019Y-77438186D01*
X135948350Y-77346031D01*
X135948350Y-76766530D01*
X135829100Y-76647280D01*
X134519860Y-76647280D01*
X134519860Y-76667280D01*
X134423860Y-76667280D01*
X134423860Y-76647280D01*
X134403860Y-76647280D01*
X134403860Y-76551280D01*
X134423860Y-76551280D01*
X134423860Y-76531280D01*
X134519860Y-76531280D01*
X134519860Y-76551280D01*
X135829100Y-76551280D01*
X135948350Y-76432030D01*
X135948350Y-75852529D01*
X135930019Y-75760374D01*
X135894062Y-75673565D01*
X135843724Y-75598229D01*
X135869879Y-75566359D01*
X135914172Y-75483493D01*
X135941447Y-75393578D01*
X135950657Y-75300070D01*
X135950657Y-73900530D01*
X135941447Y-73807022D01*
X135914172Y-73717107D01*
X135869879Y-73634241D01*
X135855370Y-73616562D01*
X135897819Y-73564839D01*
X135942112Y-73481973D01*
X135969387Y-73392058D01*
X135978597Y-73298550D01*
X135978597Y-71899010D01*
X135973970Y-71852029D01*
X148895770Y-71852029D01*
X148895770Y-72431530D01*
X149015020Y-72550780D01*
X150324260Y-72550780D01*
X150324260Y-71541260D01*
X150420260Y-71541260D01*
X150420260Y-72550780D01*
X151716030Y-72550780D01*
X151717250Y-72552000D01*
X152627000Y-72552000D01*
X152627000Y-71867250D01*
X152507750Y-71748000D01*
X152028020Y-71748000D01*
X151935865Y-71766331D01*
X151849056Y-71802288D01*
X151840052Y-71808304D01*
X151830419Y-71759874D01*
X151794462Y-71673065D01*
X151742260Y-71594940D01*
X151675819Y-71528500D01*
X151597694Y-71476298D01*
X151510885Y-71440341D01*
X151418730Y-71422010D01*
X150539510Y-71422010D01*
X150420260Y-71541260D01*
X150324260Y-71541260D01*
X150205010Y-71422010D01*
X149325790Y-71422010D01*
X149233635Y-71440341D01*
X149146826Y-71476298D01*
X149068701Y-71528500D01*
X149002260Y-71594940D01*
X148950058Y-71673065D01*
X148914101Y-71759874D01*
X148895770Y-71852029D01*
X135973970Y-71852029D01*
X135969387Y-71805502D01*
X135942112Y-71715587D01*
X135897819Y-71632721D01*
X135838211Y-71560089D01*
X135765579Y-71500481D01*
X135682713Y-71456188D01*
X135592798Y-71428913D01*
X135499290Y-71419703D01*
X133500310Y-71419703D01*
X133406802Y-71428913D01*
X133316887Y-71456188D01*
X133234021Y-71500481D01*
X133161389Y-71560089D01*
X133101781Y-71632721D01*
X133057488Y-71715587D01*
X133030213Y-71805502D01*
X133021003Y-71899010D01*
X133021003Y-71971780D01*
X132908732Y-71971780D01*
X132859971Y-71853476D01*
X132699734Y-71612300D01*
X132495704Y-71406840D01*
X132255652Y-71244923D01*
X131988723Y-71132717D01*
X131705082Y-71074494D01*
X131415534Y-71072472D01*
X131131109Y-71126729D01*
X130862638Y-71235198D01*
X130620349Y-71393748D01*
X130413470Y-71596338D01*
X130249882Y-71835254D01*
X130135814Y-72101394D01*
X130075612Y-72384621D01*
X130071569Y-72674147D01*
X130123839Y-72958945D01*
X130230432Y-73228166D01*
X130387286Y-73471556D01*
X130588427Y-73679844D01*
X130799247Y-73826368D01*
X130651189Y-73854611D01*
X130491724Y-73919039D01*
X130347810Y-74013214D01*
X130224929Y-74133548D01*
X130127761Y-74275458D01*
X130060007Y-74433539D01*
X130024249Y-74601769D01*
X130021848Y-74773741D01*
X130052895Y-74942903D01*
X130116208Y-75102814D01*
X130209376Y-75247382D01*
X130328849Y-75371100D01*
X130470077Y-75469256D01*
X130627681Y-75538112D01*
X130795657Y-75575044D01*
X130967608Y-75578646D01*
X131136984Y-75548780D01*
X131290693Y-75489160D01*
X131290693Y-75600000D01*
X131299903Y-75693508D01*
X131327178Y-75783423D01*
X131371471Y-75866289D01*
X131431079Y-75938921D01*
X131503711Y-75998529D01*
X131508464Y-76001069D01*
X131465930Y-76029490D01*
X131399490Y-76095931D01*
X131347288Y-76174056D01*
X131316925Y-76247360D01*
X131300000Y-76245693D01*
X128800000Y-76245693D01*
X128706492Y-76254903D01*
X128616577Y-76282178D01*
X128533711Y-76326471D01*
X128461079Y-76386079D01*
X128401471Y-76458711D01*
X128357178Y-76541577D01*
X128352640Y-76556536D01*
X128192115Y-76523585D01*
X128020131Y-76522384D01*
X127851189Y-76554611D01*
X127759797Y-76591536D01*
X127758669Y-76585865D01*
X127722712Y-76499056D01*
X127670510Y-76420931D01*
X127604070Y-76354490D01*
X127525945Y-76302288D01*
X127439136Y-76266331D01*
X127346981Y-76248000D01*
X126217250Y-76248000D01*
X126098000Y-76367250D01*
X126098000Y-77312000D01*
X126118000Y-77312000D01*
X126118000Y-77408000D01*
X126098000Y-77408000D01*
X126098000Y-78352750D01*
X126217250Y-78472000D01*
X127206288Y-78472000D01*
X126892595Y-78785693D01*
X124800000Y-78785693D01*
X124706492Y-78794903D01*
X124616577Y-78822178D01*
X124533711Y-78866471D01*
X124461079Y-78926079D01*
X124401471Y-78998711D01*
X124357178Y-79081577D01*
X124329903Y-79171492D01*
X124328408Y-79186675D01*
X124260591Y-79158168D01*
X124092115Y-79123585D01*
X123920131Y-79122384D01*
X123751189Y-79154611D01*
X123591724Y-79219039D01*
X123447810Y-79313214D01*
X123324929Y-79433548D01*
X123227761Y-79575458D01*
X123160007Y-79733539D01*
X123124249Y-79901769D01*
X123121848Y-80073741D01*
X123152895Y-80242903D01*
X123216208Y-80402814D01*
X123309376Y-80547382D01*
X123428849Y-80671100D01*
X123570077Y-80769256D01*
X123727681Y-80838112D01*
X123895657Y-80875044D01*
X124030419Y-80877867D01*
X122856644Y-82051642D01*
X122819877Y-82096403D01*
X122782654Y-82140764D01*
X122781065Y-82143654D01*
X122778973Y-82146201D01*
X122751632Y-82197192D01*
X122723702Y-82247996D01*
X122722703Y-82251144D01*
X122721148Y-82254045D01*
X122704226Y-82309393D01*
X122686701Y-82364637D01*
X122686334Y-82367912D01*
X122685369Y-82371067D01*
X122679511Y-82428742D01*
X122673061Y-82486244D01*
X122673016Y-82492681D01*
X122673003Y-82492810D01*
X122673014Y-82492931D01*
X122673000Y-82494998D01*
X122673000Y-87845693D01*
X122615597Y-87845693D01*
X122608669Y-87810865D01*
X122572712Y-87724056D01*
X122520510Y-87645931D01*
X122454070Y-87579490D01*
X122375945Y-87527288D01*
X122289136Y-87491331D01*
X122196981Y-87473000D01*
X122067250Y-87473000D01*
X121948000Y-87592250D01*
X121948000Y-88202000D01*
X121968000Y-88202000D01*
X121968000Y-88298000D01*
X121948000Y-88298000D01*
X121948000Y-88318000D01*
X121852000Y-88318000D01*
X121852000Y-88298000D01*
X121832000Y-88298000D01*
X121832000Y-88202000D01*
X121852000Y-88202000D01*
X121852000Y-87592250D01*
X121732750Y-87473000D01*
X121603019Y-87473000D01*
X121510864Y-87491331D01*
X121426700Y-87526192D01*
X121426700Y-78768966D01*
X122313382Y-77527250D01*
X124323000Y-77527250D01*
X124323000Y-78041980D01*
X124341331Y-78134135D01*
X124377288Y-78220944D01*
X124429490Y-78299069D01*
X124495930Y-78365510D01*
X124574055Y-78417712D01*
X124660864Y-78453669D01*
X124753019Y-78472000D01*
X125882750Y-78472000D01*
X126002000Y-78352750D01*
X126002000Y-77408000D01*
X124442250Y-77408000D01*
X124323000Y-77527250D01*
X122313382Y-77527250D01*
X123466369Y-75912599D01*
X124323000Y-76769231D01*
X124323000Y-77192750D01*
X124442250Y-77312000D01*
X126002000Y-77312000D01*
X126002000Y-76367250D01*
X125940690Y-76305940D01*
X127271826Y-74974805D01*
X127303198Y-74936611D01*
X127334800Y-74898746D01*
X127335792Y-74896931D01*
X127337109Y-74895327D01*
X127360456Y-74851786D01*
X127384112Y-74808486D01*
X127384733Y-74806509D01*
X127385712Y-74804684D01*
X127400140Y-74757493D01*
X127414952Y-74710366D01*
X127415178Y-74708305D01*
X127415783Y-74706325D01*
X127420775Y-74657183D01*
X127426146Y-74608124D01*
X127425967Y-74606063D01*
X127426177Y-74604000D01*
X127421527Y-74554804D01*
X127417269Y-74505656D01*
X127416693Y-74503668D01*
X127416498Y-74501603D01*
X127402374Y-74454226D01*
X127388657Y-74406863D01*
X127387707Y-74405025D01*
X127387114Y-74403038D01*
X127364063Y-74359318D01*
X127341402Y-74315509D01*
X127340112Y-74313891D01*
X127339145Y-74312056D01*
X127308046Y-74273652D01*
X127277303Y-74235074D01*
X127274503Y-74232231D01*
X127274418Y-74232125D01*
X127274315Y-74232039D01*
X127272140Y-74229830D01*
X126181957Y-73137799D01*
X129090037Y-70727000D01*
X155709924Y-70727000D01*
X158617157Y-73137745D01*
X158617157Y-73137745D01*
G37*
X158617157Y-73137745D02*
X157709307Y-74047133D01*
X157709307Y-73625000D01*
X157700097Y-73531492D01*
X157672822Y-73441577D01*
X157628529Y-73358711D01*
X157568921Y-73286079D01*
X157496289Y-73226471D01*
X157413423Y-73182178D01*
X157323508Y-73154903D01*
X157230000Y-73145693D01*
X156630000Y-73145693D01*
X156536492Y-73154903D01*
X156446577Y-73182178D01*
X156363711Y-73226471D01*
X156295000Y-73282861D01*
X156226289Y-73226471D01*
X156143423Y-73182178D01*
X156053508Y-73154903D01*
X155960000Y-73145693D01*
X155621684Y-73145693D01*
X155645097Y-73068508D01*
X155654307Y-72975000D01*
X155654307Y-72225000D01*
X155645097Y-72131492D01*
X155617822Y-72041577D01*
X155573529Y-71958711D01*
X155513921Y-71886079D01*
X155441289Y-71826471D01*
X155358423Y-71782178D01*
X155268508Y-71754903D01*
X155175000Y-71745693D01*
X153975000Y-71745693D01*
X153881492Y-71754903D01*
X153791577Y-71782178D01*
X153708711Y-71826471D01*
X153636079Y-71886079D01*
X153624621Y-71900041D01*
X153579069Y-71854490D01*
X153500944Y-71802288D01*
X153414135Y-71766331D01*
X153321980Y-71748000D01*
X152842250Y-71748000D01*
X152723000Y-71867250D01*
X152723000Y-72552000D01*
X152743000Y-72552000D01*
X152743000Y-72648000D01*
X152723000Y-72648000D01*
X152723000Y-72668000D01*
X152627000Y-72668000D01*
X152627000Y-72648000D01*
X151730720Y-72648000D01*
X151729500Y-72646780D01*
X150420260Y-72646780D01*
X150420260Y-72666780D01*
X150324260Y-72666780D01*
X150324260Y-72646780D01*
X149015020Y-72646780D01*
X148895770Y-72766030D01*
X148895770Y-73345531D01*
X148914101Y-73437686D01*
X148950058Y-73524495D01*
X149001332Y-73601231D01*
X148974241Y-73634241D01*
X148929948Y-73717107D01*
X148902673Y-73807022D01*
X148893463Y-73900530D01*
X148893463Y-75300070D01*
X148902673Y-75393578D01*
X148929948Y-75483493D01*
X148974241Y-75566359D01*
X149001677Y-75599790D01*
X148974241Y-75633221D01*
X148929948Y-75716087D01*
X148902673Y-75806002D01*
X148893463Y-75899510D01*
X148893463Y-77299050D01*
X148902673Y-77392558D01*
X148929948Y-77482473D01*
X148974241Y-77565339D01*
X148981874Y-77574640D01*
X148974241Y-77583941D01*
X148929948Y-77666807D01*
X148902673Y-77756722D01*
X148893463Y-77850230D01*
X148893463Y-79249770D01*
X148902673Y-79343278D01*
X148929948Y-79433193D01*
X148974241Y-79516059D01*
X148981874Y-79525360D01*
X148974241Y-79534661D01*
X148929948Y-79617527D01*
X148902673Y-79707442D01*
X148893463Y-79800950D01*
X148893463Y-81200490D01*
X148902673Y-81293998D01*
X148929948Y-81383913D01*
X148974241Y-81466779D01*
X149001677Y-81500210D01*
X148974241Y-81533641D01*
X148929948Y-81616507D01*
X148902673Y-81706422D01*
X148893463Y-81799930D01*
X148893463Y-81872700D01*
X148795161Y-81872700D01*
X148760591Y-81858168D01*
X148592115Y-81823585D01*
X148420131Y-81822384D01*
X148251189Y-81854611D01*
X148091724Y-81919039D01*
X147947810Y-82013214D01*
X147824929Y-82133548D01*
X147727761Y-82275458D01*
X147660007Y-82433539D01*
X147624249Y-82601769D01*
X147621848Y-82773741D01*
X147652895Y-82942903D01*
X147716208Y-83102814D01*
X147809376Y-83247382D01*
X147928849Y-83371100D01*
X148070077Y-83469256D01*
X148227681Y-83538112D01*
X148395657Y-83575044D01*
X148567608Y-83578646D01*
X148736984Y-83548780D01*
X148897333Y-83486585D01*
X148963073Y-83444865D01*
X148974241Y-83465759D01*
X149002720Y-83500460D01*
X148974241Y-83535161D01*
X148929948Y-83618027D01*
X148902673Y-83707942D01*
X148893463Y-83801450D01*
X148893463Y-84240033D01*
X147380436Y-83001720D01*
X147348601Y-82982667D01*
X147300000Y-82973000D01*
X137300000Y-82973000D01*
X137249752Y-82983363D01*
X137224669Y-83000639D01*
X137235142Y-82977116D01*
X137273246Y-82809401D01*
X137274634Y-82709982D01*
X143457616Y-76527000D01*
X147286262Y-76527000D01*
X147328849Y-76571100D01*
X147470077Y-76669256D01*
X147627681Y-76738112D01*
X147795657Y-76775044D01*
X147967608Y-76778646D01*
X148136984Y-76748780D01*
X148297333Y-76686585D01*
X148442547Y-76594429D01*
X148567097Y-76475822D01*
X148666236Y-76335283D01*
X148736190Y-76178164D01*
X148774294Y-76010449D01*
X148777037Y-75814006D01*
X148743631Y-75645293D01*
X148678091Y-75486281D01*
X148582914Y-75343029D01*
X148461725Y-75220991D01*
X148319141Y-75124816D01*
X148160591Y-75058168D01*
X147992115Y-75023585D01*
X147820131Y-75022384D01*
X147651189Y-75054611D01*
X147491724Y-75119039D01*
X147347810Y-75213214D01*
X147286759Y-75273000D01*
X143197904Y-75273000D01*
X143140212Y-75278657D01*
X143082566Y-75283700D01*
X143079403Y-75284619D01*
X143076119Y-75284941D01*
X143020694Y-75301675D01*
X142965056Y-75317839D01*
X142962125Y-75319358D01*
X142958973Y-75320310D01*
X142907878Y-75347477D01*
X142856415Y-75374153D01*
X142853838Y-75376210D01*
X142850927Y-75377758D01*
X142806044Y-75414363D01*
X142760781Y-75450497D01*
X142756194Y-75455021D01*
X142756098Y-75455099D01*
X142756024Y-75455188D01*
X142754548Y-75456644D01*
X136389365Y-81821827D01*
X136319083Y-81821336D01*
X136150141Y-81853563D01*
X136102775Y-81872700D01*
X135950657Y-81872700D01*
X135950657Y-81799930D01*
X135941447Y-81706422D01*
X135914172Y-81616507D01*
X135869879Y-81533641D01*
X135842443Y-81500210D01*
X135869879Y-81466779D01*
X135914172Y-81383913D01*
X135941447Y-81293998D01*
X135950657Y-81200490D01*
X135950657Y-81019373D01*
X135991140Y-80986357D01*
X136036403Y-80950223D01*
X136040990Y-80945699D01*
X136041086Y-80945621D01*
X136041160Y-80945532D01*
X136042636Y-80944076D01*
X138609288Y-78377424D01*
X138667608Y-78378646D01*
X138836984Y-78348780D01*
X138997333Y-78286585D01*
X139142547Y-78194429D01*
X139267097Y-78075822D01*
X139366236Y-77935283D01*
X139436190Y-77778164D01*
X139474294Y-77610449D01*
X139477037Y-77414006D01*
X139443631Y-77245293D01*
X139378091Y-77086281D01*
X139282914Y-76943029D01*
X139161725Y-76820991D01*
X139019141Y-76724816D01*
X138860591Y-76658168D01*
X138692115Y-76623585D01*
X138520131Y-76622384D01*
X138351189Y-76654611D01*
X138191724Y-76719039D01*
X138047810Y-76813214D01*
X137924929Y-76933548D01*
X137827761Y-77075458D01*
X137760007Y-77233539D01*
X137724249Y-77401769D01*
X137723013Y-77490275D01*
X135949252Y-79264036D01*
X135950657Y-79249770D01*
X135950657Y-77850230D01*
X135941447Y-77756722D01*
X135914172Y-77666807D01*
X135869879Y-77583941D01*
X135861498Y-77573729D01*
X135894062Y-77524995D01*
X135930019Y-77438186D01*
X135948350Y-77346031D01*
X135948350Y-76766530D01*
X135829100Y-76647280D01*
X134519860Y-76647280D01*
X134519860Y-76667280D01*
X134423860Y-76667280D01*
X134423860Y-76647280D01*
X134403860Y-76647280D01*
X134403860Y-76551280D01*
X134423860Y-76551280D01*
X134423860Y-76531280D01*
X134519860Y-76531280D01*
X134519860Y-76551280D01*
X135829100Y-76551280D01*
X135948350Y-76432030D01*
X135948350Y-75852529D01*
X135930019Y-75760374D01*
X135894062Y-75673565D01*
X135843724Y-75598229D01*
X135869879Y-75566359D01*
X135914172Y-75483493D01*
X135941447Y-75393578D01*
X135950657Y-75300070D01*
X135950657Y-73900530D01*
X135941447Y-73807022D01*
X135914172Y-73717107D01*
X135869879Y-73634241D01*
X135855370Y-73616562D01*
X135897819Y-73564839D01*
X135942112Y-73481973D01*
X135969387Y-73392058D01*
X135978597Y-73298550D01*
X135978597Y-71899010D01*
X135973970Y-71852029D01*
X148895770Y-71852029D01*
X148895770Y-72431530D01*
X149015020Y-72550780D01*
X150324260Y-72550780D01*
X150324260Y-71541260D01*
X150420260Y-71541260D01*
X150420260Y-72550780D01*
X151716030Y-72550780D01*
X151717250Y-72552000D01*
X152627000Y-72552000D01*
X152627000Y-71867250D01*
X152507750Y-71748000D01*
X152028020Y-71748000D01*
X151935865Y-71766331D01*
X151849056Y-71802288D01*
X151840052Y-71808304D01*
X151830419Y-71759874D01*
X151794462Y-71673065D01*
X151742260Y-71594940D01*
X151675819Y-71528500D01*
X151597694Y-71476298D01*
X151510885Y-71440341D01*
X151418730Y-71422010D01*
X150539510Y-71422010D01*
X150420260Y-71541260D01*
X150324260Y-71541260D01*
X150205010Y-71422010D01*
X149325790Y-71422010D01*
X149233635Y-71440341D01*
X149146826Y-71476298D01*
X149068701Y-71528500D01*
X149002260Y-71594940D01*
X148950058Y-71673065D01*
X148914101Y-71759874D01*
X148895770Y-71852029D01*
X135973970Y-71852029D01*
X135969387Y-71805502D01*
X135942112Y-71715587D01*
X135897819Y-71632721D01*
X135838211Y-71560089D01*
X135765579Y-71500481D01*
X135682713Y-71456188D01*
X135592798Y-71428913D01*
X135499290Y-71419703D01*
X133500310Y-71419703D01*
X133406802Y-71428913D01*
X133316887Y-71456188D01*
X133234021Y-71500481D01*
X133161389Y-71560089D01*
X133101781Y-71632721D01*
X133057488Y-71715587D01*
X133030213Y-71805502D01*
X133021003Y-71899010D01*
X133021003Y-71971780D01*
X132908732Y-71971780D01*
X132859971Y-71853476D01*
X132699734Y-71612300D01*
X132495704Y-71406840D01*
X132255652Y-71244923D01*
X131988723Y-71132717D01*
X131705082Y-71074494D01*
X131415534Y-71072472D01*
X131131109Y-71126729D01*
X130862638Y-71235198D01*
X130620349Y-71393748D01*
X130413470Y-71596338D01*
X130249882Y-71835254D01*
X130135814Y-72101394D01*
X130075612Y-72384621D01*
X130071569Y-72674147D01*
X130123839Y-72958945D01*
X130230432Y-73228166D01*
X130387286Y-73471556D01*
X130588427Y-73679844D01*
X130799247Y-73826368D01*
X130651189Y-73854611D01*
X130491724Y-73919039D01*
X130347810Y-74013214D01*
X130224929Y-74133548D01*
X130127761Y-74275458D01*
X130060007Y-74433539D01*
X130024249Y-74601769D01*
X130021848Y-74773741D01*
X130052895Y-74942903D01*
X130116208Y-75102814D01*
X130209376Y-75247382D01*
X130328849Y-75371100D01*
X130470077Y-75469256D01*
X130627681Y-75538112D01*
X130795657Y-75575044D01*
X130967608Y-75578646D01*
X131136984Y-75548780D01*
X131290693Y-75489160D01*
X131290693Y-75600000D01*
X131299903Y-75693508D01*
X131327178Y-75783423D01*
X131371471Y-75866289D01*
X131431079Y-75938921D01*
X131503711Y-75998529D01*
X131508464Y-76001069D01*
X131465930Y-76029490D01*
X131399490Y-76095931D01*
X131347288Y-76174056D01*
X131316925Y-76247360D01*
X131300000Y-76245693D01*
X128800000Y-76245693D01*
X128706492Y-76254903D01*
X128616577Y-76282178D01*
X128533711Y-76326471D01*
X128461079Y-76386079D01*
X128401471Y-76458711D01*
X128357178Y-76541577D01*
X128352640Y-76556536D01*
X128192115Y-76523585D01*
X128020131Y-76522384D01*
X127851189Y-76554611D01*
X127759797Y-76591536D01*
X127758669Y-76585865D01*
X127722712Y-76499056D01*
X127670510Y-76420931D01*
X127604070Y-76354490D01*
X127525945Y-76302288D01*
X127439136Y-76266331D01*
X127346981Y-76248000D01*
X126217250Y-76248000D01*
X126098000Y-76367250D01*
X126098000Y-77312000D01*
X126118000Y-77312000D01*
X126118000Y-77408000D01*
X126098000Y-77408000D01*
X126098000Y-78352750D01*
X126217250Y-78472000D01*
X127206288Y-78472000D01*
X126892595Y-78785693D01*
X124800000Y-78785693D01*
X124706492Y-78794903D01*
X124616577Y-78822178D01*
X124533711Y-78866471D01*
X124461079Y-78926079D01*
X124401471Y-78998711D01*
X124357178Y-79081577D01*
X124329903Y-79171492D01*
X124328408Y-79186675D01*
X124260591Y-79158168D01*
X124092115Y-79123585D01*
X123920131Y-79122384D01*
X123751189Y-79154611D01*
X123591724Y-79219039D01*
X123447810Y-79313214D01*
X123324929Y-79433548D01*
X123227761Y-79575458D01*
X123160007Y-79733539D01*
X123124249Y-79901769D01*
X123121848Y-80073741D01*
X123152895Y-80242903D01*
X123216208Y-80402814D01*
X123309376Y-80547382D01*
X123428849Y-80671100D01*
X123570077Y-80769256D01*
X123727681Y-80838112D01*
X123895657Y-80875044D01*
X124030419Y-80877867D01*
X122856644Y-82051642D01*
X122819877Y-82096403D01*
X122782654Y-82140764D01*
X122781065Y-82143654D01*
X122778973Y-82146201D01*
X122751632Y-82197192D01*
X122723702Y-82247996D01*
X122722703Y-82251144D01*
X122721148Y-82254045D01*
X122704226Y-82309393D01*
X122686701Y-82364637D01*
X122686334Y-82367912D01*
X122685369Y-82371067D01*
X122679511Y-82428742D01*
X122673061Y-82486244D01*
X122673016Y-82492681D01*
X122673003Y-82492810D01*
X122673014Y-82492931D01*
X122673000Y-82494998D01*
X122673000Y-87845693D01*
X122615597Y-87845693D01*
X122608669Y-87810865D01*
X122572712Y-87724056D01*
X122520510Y-87645931D01*
X122454070Y-87579490D01*
X122375945Y-87527288D01*
X122289136Y-87491331D01*
X122196981Y-87473000D01*
X122067250Y-87473000D01*
X121948000Y-87592250D01*
X121948000Y-88202000D01*
X121968000Y-88202000D01*
X121968000Y-88298000D01*
X121948000Y-88298000D01*
X121948000Y-88318000D01*
X121852000Y-88318000D01*
X121852000Y-88298000D01*
X121832000Y-88298000D01*
X121832000Y-88202000D01*
X121852000Y-88202000D01*
X121852000Y-87592250D01*
X121732750Y-87473000D01*
X121603019Y-87473000D01*
X121510864Y-87491331D01*
X121426700Y-87526192D01*
X121426700Y-78768966D01*
X122313382Y-77527250D01*
X124323000Y-77527250D01*
X124323000Y-78041980D01*
X124341331Y-78134135D01*
X124377288Y-78220944D01*
X124429490Y-78299069D01*
X124495930Y-78365510D01*
X124574055Y-78417712D01*
X124660864Y-78453669D01*
X124753019Y-78472000D01*
X125882750Y-78472000D01*
X126002000Y-78352750D01*
X126002000Y-77408000D01*
X124442250Y-77408000D01*
X124323000Y-77527250D01*
X122313382Y-77527250D01*
X123466369Y-75912599D01*
X124323000Y-76769231D01*
X124323000Y-77192750D01*
X124442250Y-77312000D01*
X126002000Y-77312000D01*
X126002000Y-76367250D01*
X125940690Y-76305940D01*
X127271826Y-74974805D01*
X127303198Y-74936611D01*
X127334800Y-74898746D01*
X127335792Y-74896931D01*
X127337109Y-74895327D01*
X127360456Y-74851786D01*
X127384112Y-74808486D01*
X127384733Y-74806509D01*
X127385712Y-74804684D01*
X127400140Y-74757493D01*
X127414952Y-74710366D01*
X127415178Y-74708305D01*
X127415783Y-74706325D01*
X127420775Y-74657183D01*
X127426146Y-74608124D01*
X127425967Y-74606063D01*
X127426177Y-74604000D01*
X127421527Y-74554804D01*
X127417269Y-74505656D01*
X127416693Y-74503668D01*
X127416498Y-74501603D01*
X127402374Y-74454226D01*
X127388657Y-74406863D01*
X127387707Y-74405025D01*
X127387114Y-74403038D01*
X127364063Y-74359318D01*
X127341402Y-74315509D01*
X127340112Y-74313891D01*
X127339145Y-74312056D01*
X127308046Y-74273652D01*
X127277303Y-74235074D01*
X127274503Y-74232231D01*
X127274418Y-74232125D01*
X127274315Y-74232039D01*
X127272140Y-74229830D01*
X126181957Y-73137799D01*
X129090037Y-70727000D01*
X155709924Y-70727000D01*
X158617157Y-73137745D01*
G36*
X132448000Y-77227000D02*
X132468000Y-77227000D01*
X132468000Y-77323000D01*
X132448000Y-77323000D01*
X132448000Y-77343000D01*
X132352000Y-77343000D01*
X132352000Y-77323000D01*
X132332000Y-77323000D01*
X132332000Y-77227000D01*
X132352000Y-77227000D01*
X132352000Y-77207000D01*
X132448000Y-77207000D01*
X132448000Y-77227000D01*
X132448000Y-77227000D01*
G37*
X132448000Y-77227000D02*
X132468000Y-77227000D01*
X132468000Y-77323000D01*
X132448000Y-77323000D01*
X132448000Y-77343000D01*
X132352000Y-77343000D01*
X132352000Y-77323000D01*
X132332000Y-77323000D01*
X132332000Y-77227000D01*
X132352000Y-77227000D01*
X132352000Y-77207000D01*
X132448000Y-77207000D01*
X132448000Y-77227000D01*
M02*
