G04 #@! TF.GenerationSoftware,KiCad,Pcbnew,no-vcs-found-7448~57~ubuntu16.04.1*
G04 #@! TF.CreationDate,2017-01-12T14:24:43+02:00*
G04 #@! TF.ProjectId,sd_wav_pcm5100,73645F7761765F70636D353130302E6B,rev?*
G04 #@! TF.FileFunction,Soldermask,Top*
G04 #@! TF.FilePolarity,Negative*
%FSLAX46Y46*%
G04 Gerber Fmt 4.6, Leading zero omitted, Abs format (unit mm)*
G04 Created by KiCad (PCBNEW no-vcs-found-7448~57~ubuntu16.04.1) date Thu Jan 12 14:24:43 2017*
%MOMM*%
%LPD*%
G01*
G04 APERTURE LIST*
%ADD10C,0.100000*%
%ADD11R,1.700000X1.800000*%
%ADD12R,1.400000X1.400000*%
%ADD13C,2.000000*%
%ADD14R,1.700000X1.700000*%
%ADD15O,1.700000X1.700000*%
%ADD16R,1.200000X0.900000*%
%ADD17R,1.200000X0.750000*%
%ADD18R,0.750000X1.200000*%
%ADD19R,2.700000X3.750000*%
%ADD20O,1.998980X1.998980*%
%ADD21R,1.998980X1.998980*%
%ADD22R,2.032000X2.032000*%
%ADD23O,2.032000X2.032000*%
%ADD24R,0.250000X1.000000*%
%ADD25R,1.000000X0.250000*%
%ADD26R,1.450000X0.450000*%
%ADD27R,1.500000X0.500000*%
%ADD28R,1.400000X0.800000*%
%ADD29R,2.800000X1.000000*%
%ADD30R,3.400000X1.000000*%
%ADD31R,2.000000X1.200000*%
%ADD32R,1.200000X1.000000*%
%ADD33R,1.000000X1.000000*%
%ADD34R,0.900000X1.200000*%
G04 APERTURE END LIST*
D10*
D11*
X78796620Y-103242220D03*
D12*
X81997020Y-104217580D03*
X81999560Y-102249080D03*
D13*
X81110000Y-98380000D03*
X65040000Y-74550000D03*
X88460000Y-82470000D03*
X63040000Y-90680000D03*
X82720000Y-116150000D03*
D14*
X69820000Y-71700000D03*
D15*
X72360000Y-71700000D03*
X74900000Y-71700000D03*
X77440000Y-71700000D03*
X79980000Y-71700000D03*
X82520000Y-71700000D03*
D16*
X72950000Y-75625000D03*
X75150000Y-75625000D03*
D11*
X65693380Y-103175000D03*
D12*
X62492980Y-102199640D03*
X62490440Y-104168140D03*
D17*
X79525000Y-91225000D03*
X77625000Y-91225000D03*
D18*
X66825000Y-87625000D03*
X66825000Y-85725000D03*
D17*
X70875000Y-75600000D03*
X68975000Y-75600000D03*
D18*
X82100000Y-90575000D03*
X82100000Y-88675000D03*
D17*
X71750000Y-91250000D03*
X69850000Y-91250000D03*
D18*
X82150000Y-77800000D03*
X82150000Y-79700000D03*
D17*
X62525000Y-93650000D03*
X64425000Y-93650000D03*
X62550000Y-98700000D03*
X64450000Y-98700000D03*
D18*
X76175000Y-102600000D03*
X76175000Y-104500000D03*
D17*
X68575000Y-95125000D03*
X66675000Y-95125000D03*
X66650000Y-98825000D03*
X68550000Y-98825000D03*
X68550000Y-93525000D03*
X66650000Y-93525000D03*
X66675000Y-96775000D03*
X68575000Y-96775000D03*
X80025000Y-109125000D03*
X78125000Y-109125000D03*
X78075000Y-106575000D03*
X79975000Y-106575000D03*
X81400000Y-93325000D03*
X79500000Y-93325000D03*
D18*
X69600000Y-102575000D03*
X69600000Y-104475000D03*
X68350000Y-107375000D03*
X68350000Y-109275000D03*
D17*
X79475000Y-95400000D03*
X81375000Y-95400000D03*
D19*
X62725000Y-108175000D03*
X62725000Y-115725000D03*
D20*
X62775000Y-84565000D03*
X62775000Y-82025000D03*
D21*
X62775000Y-79485000D03*
D20*
X62775000Y-87105000D03*
X94850000Y-80600000D03*
D21*
X94850000Y-83140000D03*
D20*
X94850000Y-78060000D03*
X88845000Y-71900000D03*
D21*
X96465000Y-71900000D03*
D20*
X93925000Y-71900000D03*
X91385000Y-71900000D03*
D16*
X79525000Y-75600000D03*
X77325000Y-75600000D03*
X81600000Y-75625000D03*
X83800000Y-75625000D03*
D22*
X79200000Y-112410000D03*
D23*
X79200000Y-114950000D03*
X67675000Y-112500000D03*
D22*
X67675000Y-115040000D03*
D24*
X70950000Y-77700000D03*
X71450000Y-77700000D03*
X71950000Y-77700000D03*
X72450000Y-77700000D03*
X72950000Y-77700000D03*
X73450000Y-77700000D03*
X73950000Y-77700000D03*
X74450000Y-77700000D03*
X74950000Y-77700000D03*
X75450000Y-77700000D03*
X75950000Y-77700000D03*
X76450000Y-77700000D03*
X76950000Y-77700000D03*
X77450000Y-77700000D03*
X77950000Y-77700000D03*
X78450000Y-77700000D03*
D25*
X80400000Y-79650000D03*
X80400000Y-80150000D03*
X80400000Y-80650000D03*
X80400000Y-81150000D03*
X80400000Y-81650000D03*
X80400000Y-82150000D03*
X80400000Y-82650000D03*
X80400000Y-83150000D03*
X80400000Y-83650000D03*
X80400000Y-84150000D03*
X80400000Y-84650000D03*
X80400000Y-85150000D03*
X80400000Y-85650000D03*
X80400000Y-86150000D03*
X80400000Y-86650000D03*
X80400000Y-87150000D03*
D24*
X78450000Y-89100000D03*
X77950000Y-89100000D03*
X77450000Y-89100000D03*
X76950000Y-89100000D03*
X76450000Y-89100000D03*
X75950000Y-89100000D03*
X75450000Y-89100000D03*
X74950000Y-89100000D03*
X74450000Y-89100000D03*
X73950000Y-89100000D03*
X73450000Y-89100000D03*
X72950000Y-89100000D03*
X72450000Y-89100000D03*
X71950000Y-89100000D03*
X71450000Y-89100000D03*
X70950000Y-89100000D03*
D25*
X69000000Y-87150000D03*
X69000000Y-86650000D03*
X69000000Y-86150000D03*
X69000000Y-85650000D03*
X69000000Y-85150000D03*
X69000000Y-84650000D03*
X69000000Y-84150000D03*
X69000000Y-83650000D03*
X69000000Y-83150000D03*
X69000000Y-82650000D03*
X69000000Y-82150000D03*
X69000000Y-81650000D03*
X69000000Y-81150000D03*
X69000000Y-80650000D03*
X69000000Y-80150000D03*
X69000000Y-79650000D03*
D26*
X77470000Y-93280000D03*
X77470000Y-93930000D03*
X77470000Y-94580000D03*
X77470000Y-95230000D03*
X77470000Y-95880000D03*
X77470000Y-96530000D03*
X77470000Y-97180000D03*
X77470000Y-97830000D03*
X77470000Y-98480000D03*
X77470000Y-99130000D03*
X71570000Y-99130000D03*
X71570000Y-98480000D03*
X71570000Y-97830000D03*
X71570000Y-97180000D03*
X71570000Y-96530000D03*
X71570000Y-95880000D03*
X71570000Y-95230000D03*
X71570000Y-94580000D03*
X71570000Y-93930000D03*
X71570000Y-93280000D03*
D27*
X75984002Y-115470328D03*
X75984002Y-114200328D03*
X75984002Y-112930328D03*
X75984002Y-111660328D03*
X75984002Y-110390328D03*
X75984002Y-109120328D03*
X75984002Y-107850328D03*
X75984002Y-106580328D03*
X70584002Y-106580328D03*
X70584002Y-107850328D03*
X70584002Y-109120328D03*
X70584002Y-110390328D03*
X70584002Y-111660328D03*
X70584002Y-112930328D03*
X70584002Y-114200328D03*
X70584002Y-115470328D03*
D28*
X97161620Y-98016380D03*
X97161620Y-96916380D03*
X97161620Y-95816380D03*
X97161620Y-94716380D03*
X97161620Y-93616380D03*
X97161620Y-92516380D03*
X97161620Y-91416380D03*
X97161620Y-90316380D03*
D29*
X96661240Y-99288260D03*
D30*
X85884020Y-99374620D03*
X85891640Y-86015540D03*
D31*
X97136220Y-86241600D03*
D32*
X84497840Y-88521860D03*
D33*
X84419100Y-92789060D03*
D34*
X67175000Y-78000000D03*
X67175000Y-80200000D03*
D16*
X64450000Y-95300000D03*
X62250000Y-95300000D03*
X62275000Y-97025000D03*
X64475000Y-97025000D03*
D34*
X74375000Y-102625000D03*
X74375000Y-104825000D03*
X71950000Y-102475000D03*
X71950000Y-104675000D03*
D15*
X82720000Y-112320000D03*
D14*
X82720000Y-109780000D03*
M02*
