G04 #@! TF.GenerationSoftware,KiCad,Pcbnew,no-vcs-found-feba091~58~ubuntu16.04.1*
G04 #@! TF.CreationDate,2017-03-28T10:55:59+03:00*
G04 #@! TF.ProjectId,led_strip_actuator_node,6C65645F73747269705F616374756174,rev?*
G04 #@! TF.FileFunction,Legend,Top*
G04 #@! TF.FilePolarity,Positive*
%FSLAX46Y46*%
G04 Gerber Fmt 4.6, Leading zero omitted, Abs format (unit mm)*
G04 Created by KiCad (PCBNEW no-vcs-found-feba091~58~ubuntu16.04.1) date Tue Mar 28 10:55:59 2017*
%MOMM*%
%LPD*%
G01*
G04 APERTURE LIST*
%ADD10C,0.100000*%
%ADD11C,0.150000*%
%ADD12C,0.200000*%
%ADD13C,0.120000*%
%ADD14R,1.600000X2.000000*%
%ADD15R,2.500000X3.200000*%
%ADD16O,1.600000X1.600000*%
%ADD17R,1.600000X1.600000*%
%ADD18R,1.700000X1.700000*%
%ADD19R,1.300000X1.500000*%
%ADD20C,2.500000*%
%ADD21C,3.000000*%
%ADD22R,3.000000X1.200000*%
%ADD23R,2.400000X2.400000*%
%ADD24C,2.400000*%
%ADD25O,1.000000X1.000000*%
%ADD26R,1.000000X1.000000*%
%ADD27R,0.400000X0.600000*%
G04 APERTURE END LIST*
D10*
D11*
X115385714Y-92561904D02*
X115385714Y-91761904D01*
X115652380Y-92333333D01*
X115919047Y-91761904D01*
X115919047Y-92561904D01*
X116223809Y-92028571D02*
X116414285Y-92561904D01*
X116604761Y-92028571D02*
X116414285Y-92561904D01*
X116338095Y-92752380D01*
X116300000Y-92790476D01*
X116223809Y-92828571D01*
X116871428Y-92523809D02*
X116985714Y-92561904D01*
X117176190Y-92561904D01*
X117252380Y-92523809D01*
X117290476Y-92485714D01*
X117328571Y-92409523D01*
X117328571Y-92333333D01*
X117290476Y-92257142D01*
X117252380Y-92219047D01*
X117176190Y-92180952D01*
X117023809Y-92142857D01*
X116947619Y-92104761D01*
X116909523Y-92066666D01*
X116871428Y-91990476D01*
X116871428Y-91914285D01*
X116909523Y-91838095D01*
X116947619Y-91800000D01*
X117023809Y-91761904D01*
X117214285Y-91761904D01*
X117328571Y-91800000D01*
X117976190Y-92523809D02*
X117900000Y-92561904D01*
X117747619Y-92561904D01*
X117671428Y-92523809D01*
X117633333Y-92447619D01*
X117633333Y-92142857D01*
X117671428Y-92066666D01*
X117747619Y-92028571D01*
X117900000Y-92028571D01*
X117976190Y-92066666D01*
X118014285Y-92142857D01*
X118014285Y-92219047D01*
X117633333Y-92295238D01*
X118357142Y-92028571D02*
X118357142Y-92561904D01*
X118357142Y-92104761D02*
X118395238Y-92066666D01*
X118471428Y-92028571D01*
X118585714Y-92028571D01*
X118661904Y-92066666D01*
X118700000Y-92142857D01*
X118700000Y-92561904D01*
X119042857Y-92523809D02*
X119119047Y-92561904D01*
X119271428Y-92561904D01*
X119347619Y-92523809D01*
X119385714Y-92447619D01*
X119385714Y-92409523D01*
X119347619Y-92333333D01*
X119271428Y-92295238D01*
X119157142Y-92295238D01*
X119080952Y-92257142D01*
X119042857Y-92180952D01*
X119042857Y-92142857D01*
X119080952Y-92066666D01*
X119157142Y-92028571D01*
X119271428Y-92028571D01*
X119347619Y-92066666D01*
X119842857Y-92561904D02*
X119766666Y-92523809D01*
X119728571Y-92485714D01*
X119690476Y-92409523D01*
X119690476Y-92180952D01*
X119728571Y-92104761D01*
X119766666Y-92066666D01*
X119842857Y-92028571D01*
X119957142Y-92028571D01*
X120033333Y-92066666D01*
X120071428Y-92104761D01*
X120109523Y-92180952D01*
X120109523Y-92409523D01*
X120071428Y-92485714D01*
X120033333Y-92523809D01*
X119957142Y-92561904D01*
X119842857Y-92561904D01*
X120452380Y-92561904D02*
X120452380Y-92028571D01*
X120452380Y-92180952D02*
X120490476Y-92104761D01*
X120528571Y-92066666D01*
X120604761Y-92028571D01*
X120680952Y-92028571D01*
X120909523Y-92523809D02*
X120985714Y-92561904D01*
X121138095Y-92561904D01*
X121214285Y-92523809D01*
X121252380Y-92447619D01*
X121252380Y-92409523D01*
X121214285Y-92333333D01*
X121138095Y-92295238D01*
X121023809Y-92295238D01*
X120947619Y-92257142D01*
X120909523Y-92180952D01*
X120909523Y-92142857D01*
X120947619Y-92066666D01*
X121023809Y-92028571D01*
X121138095Y-92028571D01*
X121214285Y-92066666D01*
X122661904Y-92561904D02*
X122395238Y-92180952D01*
X122204761Y-92561904D02*
X122204761Y-91761904D01*
X122509523Y-91761904D01*
X122585714Y-91800000D01*
X122623809Y-91838095D01*
X122661904Y-91914285D01*
X122661904Y-92028571D01*
X122623809Y-92104761D01*
X122585714Y-92142857D01*
X122509523Y-92180952D01*
X122204761Y-92180952D01*
X123271428Y-92142857D02*
X123004761Y-92142857D01*
X123004761Y-92561904D02*
X123004761Y-91761904D01*
X123385714Y-91761904D01*
X123690476Y-92561904D02*
X123690476Y-91761904D01*
X123957142Y-92333333D01*
X124223809Y-91761904D01*
X124223809Y-92561904D01*
X124947619Y-91761904D02*
X124795238Y-91761904D01*
X124719047Y-91800000D01*
X124680952Y-91838095D01*
X124604761Y-91952380D01*
X124566666Y-92104761D01*
X124566666Y-92409523D01*
X124604761Y-92485714D01*
X124642857Y-92523809D01*
X124719047Y-92561904D01*
X124871428Y-92561904D01*
X124947619Y-92523809D01*
X124985714Y-92485714D01*
X125023809Y-92409523D01*
X125023809Y-92219047D01*
X124985714Y-92142857D01*
X124947619Y-92104761D01*
X124871428Y-92066666D01*
X124719047Y-92066666D01*
X124642857Y-92104761D01*
X124604761Y-92142857D01*
X124566666Y-92219047D01*
X125404761Y-92561904D02*
X125557142Y-92561904D01*
X125633333Y-92523809D01*
X125671428Y-92485714D01*
X125747619Y-92371428D01*
X125785714Y-92219047D01*
X125785714Y-91914285D01*
X125747619Y-91838095D01*
X125709523Y-91800000D01*
X125633333Y-91761904D01*
X125480952Y-91761904D01*
X125404761Y-91800000D01*
X125366666Y-91838095D01*
X125328571Y-91914285D01*
X125328571Y-92104761D01*
X125366666Y-92180952D01*
X125404761Y-92219047D01*
X125480952Y-92257142D01*
X125633333Y-92257142D01*
X125709523Y-92219047D01*
X125747619Y-92180952D01*
X125785714Y-92104761D01*
X126052380Y-91761904D02*
X126242857Y-92561904D01*
X126395238Y-91990476D01*
X126547619Y-92561904D01*
X126738095Y-91761904D01*
X128033333Y-92561904D02*
X127652380Y-92561904D01*
X127652380Y-91761904D01*
X128300000Y-92142857D02*
X128566666Y-92142857D01*
X128680952Y-92561904D02*
X128300000Y-92561904D01*
X128300000Y-91761904D01*
X128680952Y-91761904D01*
X129023809Y-92561904D02*
X129023809Y-91761904D01*
X129214285Y-91761904D01*
X129328571Y-91800000D01*
X129404761Y-91876190D01*
X129442857Y-91952380D01*
X129480952Y-92104761D01*
X129480952Y-92219047D01*
X129442857Y-92371428D01*
X129404761Y-92447619D01*
X129328571Y-92523809D01*
X129214285Y-92561904D01*
X129023809Y-92561904D01*
X130395238Y-92523809D02*
X130509523Y-92561904D01*
X130700000Y-92561904D01*
X130776190Y-92523809D01*
X130814285Y-92485714D01*
X130852380Y-92409523D01*
X130852380Y-92333333D01*
X130814285Y-92257142D01*
X130776190Y-92219047D01*
X130700000Y-92180952D01*
X130547619Y-92142857D01*
X130471428Y-92104761D01*
X130433333Y-92066666D01*
X130395238Y-91990476D01*
X130395238Y-91914285D01*
X130433333Y-91838095D01*
X130471428Y-91800000D01*
X130547619Y-91761904D01*
X130738095Y-91761904D01*
X130852380Y-91800000D01*
X131080952Y-92028571D02*
X131385714Y-92028571D01*
X131195238Y-91761904D02*
X131195238Y-92447619D01*
X131233333Y-92523809D01*
X131309523Y-92561904D01*
X131385714Y-92561904D01*
X131652380Y-92561904D02*
X131652380Y-92028571D01*
X131652380Y-92180952D02*
X131690476Y-92104761D01*
X131728571Y-92066666D01*
X131804761Y-92028571D01*
X131880952Y-92028571D01*
X132147619Y-92561904D02*
X132147619Y-92028571D01*
X132147619Y-91761904D02*
X132109523Y-91800000D01*
X132147619Y-91838095D01*
X132185714Y-91800000D01*
X132147619Y-91761904D01*
X132147619Y-91838095D01*
X132528571Y-92028571D02*
X132528571Y-92828571D01*
X132528571Y-92066666D02*
X132604761Y-92028571D01*
X132757142Y-92028571D01*
X132833333Y-92066666D01*
X132871428Y-92104761D01*
X132909523Y-92180952D01*
X132909523Y-92409523D01*
X132871428Y-92485714D01*
X132833333Y-92523809D01*
X132757142Y-92561904D01*
X132604761Y-92561904D01*
X132528571Y-92523809D01*
X133823809Y-92333333D02*
X134204761Y-92333333D01*
X133747619Y-92561904D02*
X134014285Y-91761904D01*
X134280952Y-92561904D01*
X134890476Y-92523809D02*
X134814285Y-92561904D01*
X134661904Y-92561904D01*
X134585714Y-92523809D01*
X134547619Y-92485714D01*
X134509523Y-92409523D01*
X134509523Y-92180952D01*
X134547619Y-92104761D01*
X134585714Y-92066666D01*
X134661904Y-92028571D01*
X134814285Y-92028571D01*
X134890476Y-92066666D01*
X135119047Y-92028571D02*
X135423809Y-92028571D01*
X135233333Y-91761904D02*
X135233333Y-92447619D01*
X135271428Y-92523809D01*
X135347619Y-92561904D01*
X135423809Y-92561904D01*
X136033333Y-92028571D02*
X136033333Y-92561904D01*
X135690476Y-92028571D02*
X135690476Y-92447619D01*
X135728571Y-92523809D01*
X135804761Y-92561904D01*
X135919047Y-92561904D01*
X135995238Y-92523809D01*
X136033333Y-92485714D01*
X136757142Y-92561904D02*
X136757142Y-92142857D01*
X136719047Y-92066666D01*
X136642857Y-92028571D01*
X136490476Y-92028571D01*
X136414285Y-92066666D01*
X136757142Y-92523809D02*
X136680952Y-92561904D01*
X136490476Y-92561904D01*
X136414285Y-92523809D01*
X136376190Y-92447619D01*
X136376190Y-92371428D01*
X136414285Y-92295238D01*
X136490476Y-92257142D01*
X136680952Y-92257142D01*
X136757142Y-92219047D01*
X137023809Y-92028571D02*
X137328571Y-92028571D01*
X137138095Y-91761904D02*
X137138095Y-92447619D01*
X137176190Y-92523809D01*
X137252380Y-92561904D01*
X137328571Y-92561904D01*
X137709523Y-92561904D02*
X137633333Y-92523809D01*
X137595238Y-92485714D01*
X137557142Y-92409523D01*
X137557142Y-92180952D01*
X137595238Y-92104761D01*
X137633333Y-92066666D01*
X137709523Y-92028571D01*
X137823809Y-92028571D01*
X137900000Y-92066666D01*
X137938095Y-92104761D01*
X137976190Y-92180952D01*
X137976190Y-92409523D01*
X137938095Y-92485714D01*
X137900000Y-92523809D01*
X137823809Y-92561904D01*
X137709523Y-92561904D01*
X138319047Y-92561904D02*
X138319047Y-92028571D01*
X138319047Y-92180952D02*
X138357142Y-92104761D01*
X138395238Y-92066666D01*
X138471428Y-92028571D01*
X138547619Y-92028571D01*
X139423809Y-92561904D02*
X139423809Y-91761904D01*
X139880952Y-92561904D01*
X139880952Y-91761904D01*
X140376190Y-92561904D02*
X140300000Y-92523809D01*
X140261904Y-92485714D01*
X140223809Y-92409523D01*
X140223809Y-92180952D01*
X140261904Y-92104761D01*
X140300000Y-92066666D01*
X140376190Y-92028571D01*
X140490476Y-92028571D01*
X140566666Y-92066666D01*
X140604761Y-92104761D01*
X140642857Y-92180952D01*
X140642857Y-92409523D01*
X140604761Y-92485714D01*
X140566666Y-92523809D01*
X140490476Y-92561904D01*
X140376190Y-92561904D01*
X141328571Y-92561904D02*
X141328571Y-91761904D01*
X141328571Y-92523809D02*
X141252380Y-92561904D01*
X141100000Y-92561904D01*
X141023809Y-92523809D01*
X140985714Y-92485714D01*
X140947619Y-92409523D01*
X140947619Y-92180952D01*
X140985714Y-92104761D01*
X141023809Y-92066666D01*
X141100000Y-92028571D01*
X141252380Y-92028571D01*
X141328571Y-92066666D01*
X142014285Y-92523809D02*
X141938095Y-92561904D01*
X141785714Y-92561904D01*
X141709523Y-92523809D01*
X141671428Y-92447619D01*
X141671428Y-92142857D01*
X141709523Y-92066666D01*
X141785714Y-92028571D01*
X141938095Y-92028571D01*
X142014285Y-92066666D01*
X142052380Y-92142857D01*
X142052380Y-92219047D01*
X141671428Y-92295238D01*
D12*
X143800000Y-90100000D02*
X143800000Y-90100000D01*
X144000000Y-89900000D02*
X143800000Y-90100000D01*
X144900000Y-89900000D02*
X144000000Y-89900000D01*
X144900000Y-85500000D02*
X144900000Y-89900000D01*
X146200000Y-85500000D02*
X144900000Y-85500000D01*
X146200000Y-92300000D02*
X146200000Y-85500000D01*
X146000000Y-92500000D02*
X146200000Y-92300000D01*
X144000000Y-92500000D02*
X146000000Y-92500000D01*
X143800000Y-92300000D02*
X144000000Y-92500000D01*
X143800000Y-90100000D02*
X143800000Y-92300000D01*
D11*
X145216666Y-89633333D02*
X145916666Y-89400000D01*
X145216666Y-89166666D01*
X145883333Y-88633333D02*
X145916666Y-88700000D01*
X145916666Y-88833333D01*
X145883333Y-88900000D01*
X145850000Y-88933333D01*
X145783333Y-88966666D01*
X145583333Y-88966666D01*
X145516666Y-88933333D01*
X145483333Y-88900000D01*
X145450000Y-88833333D01*
X145450000Y-88700000D01*
X145483333Y-88633333D01*
X145883333Y-88033333D02*
X145916666Y-88100000D01*
X145916666Y-88233333D01*
X145883333Y-88300000D01*
X145850000Y-88333333D01*
X145783333Y-88366666D01*
X145583333Y-88366666D01*
X145516666Y-88333333D01*
X145483333Y-88300000D01*
X145450000Y-88233333D01*
X145450000Y-88100000D01*
X145483333Y-88033333D01*
X145983333Y-87900000D02*
X145983333Y-87366666D01*
X145916666Y-86800000D02*
X145583333Y-87033333D01*
X145916666Y-87200000D02*
X145216666Y-87200000D01*
X145216666Y-86933333D01*
X145250000Y-86866666D01*
X145283333Y-86833333D01*
X145350000Y-86800000D01*
X145450000Y-86800000D01*
X145516666Y-86833333D01*
X145550000Y-86866666D01*
X145583333Y-86933333D01*
X145583333Y-87200000D01*
X145883333Y-86233333D02*
X145916666Y-86300000D01*
X145916666Y-86433333D01*
X145883333Y-86500000D01*
X145816666Y-86533333D01*
X145550000Y-86533333D01*
X145483333Y-86500000D01*
X145450000Y-86433333D01*
X145450000Y-86300000D01*
X145483333Y-86233333D01*
X145550000Y-86200000D01*
X145616666Y-86200000D01*
X145683333Y-86533333D01*
X145916666Y-85800000D02*
X145883333Y-85866666D01*
X145816666Y-85900000D01*
X145216666Y-85900000D01*
X146961904Y-61357142D02*
X146580952Y-61623809D01*
X146961904Y-61814285D02*
X146161904Y-61814285D01*
X146161904Y-61509523D01*
X146200000Y-61433333D01*
X146238095Y-61395238D01*
X146314285Y-61357142D01*
X146428571Y-61357142D01*
X146504761Y-61395238D01*
X146542857Y-61433333D01*
X146580952Y-61509523D01*
X146580952Y-61814285D01*
X146923809Y-60709523D02*
X146961904Y-60785714D01*
X146961904Y-60938095D01*
X146923809Y-61014285D01*
X146847619Y-61052380D01*
X146542857Y-61052380D01*
X146466666Y-61014285D01*
X146428571Y-60938095D01*
X146428571Y-60785714D01*
X146466666Y-60709523D01*
X146542857Y-60671428D01*
X146619047Y-60671428D01*
X146695238Y-61052380D01*
X146428571Y-60404761D02*
X146961904Y-60214285D01*
X146428571Y-60023809D01*
X146161904Y-58957142D02*
X146161904Y-58880952D01*
X146200000Y-58804761D01*
X146238095Y-58766666D01*
X146314285Y-58728571D01*
X146466666Y-58690476D01*
X146657142Y-58690476D01*
X146809523Y-58728571D01*
X146885714Y-58766666D01*
X146923809Y-58804761D01*
X146961904Y-58880952D01*
X146961904Y-58957142D01*
X146923809Y-59033333D01*
X146885714Y-59071428D01*
X146809523Y-59109523D01*
X146657142Y-59147619D01*
X146466666Y-59147619D01*
X146314285Y-59109523D01*
X146238095Y-59071428D01*
X146200000Y-59033333D01*
X146161904Y-58957142D01*
X146885714Y-58347619D02*
X146923809Y-58309523D01*
X146961904Y-58347619D01*
X146923809Y-58385714D01*
X146885714Y-58347619D01*
X146961904Y-58347619D01*
X146961904Y-57547619D02*
X146961904Y-58004761D01*
X146961904Y-57776190D02*
X146161904Y-57776190D01*
X146276190Y-57852380D01*
X146352380Y-57928571D01*
X146390476Y-58004761D01*
D12*
X112480952Y-84871428D02*
X111719047Y-84871428D01*
X112100000Y-85252380D02*
X112100000Y-84490476D01*
X112071428Y-90219047D02*
X112071428Y-90980952D01*
X112171428Y-76219047D02*
X112171428Y-76980952D01*
X112580952Y-82471428D02*
X111819047Y-82471428D01*
X112200000Y-82852380D02*
X112200000Y-82090476D01*
D13*
X112950000Y-58900000D02*
X113600000Y-58900000D01*
X116650000Y-58900000D02*
X116000000Y-58900000D01*
X116000000Y-65100000D02*
X116650000Y-65100000D01*
X112950000Y-65100000D02*
X113600000Y-65100000D01*
X112950000Y-58900000D02*
X112950000Y-65100000D01*
X116650000Y-65100000D02*
X116650000Y-58900000D01*
X113150000Y-75250000D02*
X116450000Y-75250000D01*
X116450000Y-75250000D02*
X116450000Y-69450000D01*
X113150000Y-75250000D02*
X113150000Y-69450000D01*
X142880000Y-85120000D02*
X145000000Y-85120000D01*
X143940000Y-79620000D02*
X143940000Y-81660000D01*
X143940000Y-87820000D02*
X143940000Y-85780000D01*
X142880000Y-81660000D02*
X142880000Y-85780000D01*
X145000000Y-81660000D02*
X142880000Y-81660000D01*
X145000000Y-85780000D02*
X145000000Y-81660000D01*
X142880000Y-85780000D02*
X145000000Y-85780000D01*
X144470000Y-74730000D02*
X144470000Y-73400000D01*
X145800000Y-74730000D02*
X144470000Y-74730000D01*
X147070000Y-72070000D02*
X147070000Y-74730000D01*
X147130000Y-72070000D02*
X147070000Y-72070000D01*
X147130000Y-74730000D02*
X147130000Y-72070000D01*
X147070000Y-74730000D02*
X147130000Y-74730000D01*
X141970000Y-63100000D02*
X141970000Y-61900000D01*
X143730000Y-61900000D02*
X143730000Y-63100000D01*
D11*
X126900000Y-76000000D02*
X125100000Y-76000000D01*
X125100000Y-76000000D02*
X121800000Y-76000000D01*
X121800000Y-76000000D02*
X121800000Y-91400000D01*
X141400000Y-82350000D02*
X141400000Y-76000000D01*
X141400000Y-76000000D02*
X126850000Y-76000000D01*
X141400000Y-85100000D02*
X141400000Y-91400000D01*
X141400000Y-91400000D02*
X121800000Y-91400000D01*
X141400000Y-91350000D02*
X141400000Y-85100000D01*
X125900000Y-82100000D02*
X125900000Y-79600000D01*
X136550000Y-77650000D02*
X134050000Y-77650000D01*
X137450000Y-83650000D02*
X138250000Y-83650000D01*
X134050000Y-89650000D02*
X136550000Y-89650000D01*
X130650000Y-83650000D02*
X129150000Y-83650000D01*
X129150000Y-83650000D02*
X124400000Y-81800000D01*
X130650000Y-80050000D02*
X137450000Y-80050000D01*
X130650000Y-83650000D02*
X130650000Y-80050000D01*
X137450000Y-83650000D02*
X137450000Y-80050000D01*
X134050000Y-89650000D02*
X134050000Y-85450000D01*
X134050000Y-81850000D02*
X134050000Y-77650000D01*
X132050000Y-81850000D02*
X136050000Y-85450000D01*
X136050000Y-81850000D02*
X136050000Y-85450000D01*
X136050000Y-85450000D02*
X132050000Y-85450000D01*
X132050000Y-85450000D02*
X132050000Y-81850000D01*
X132050000Y-81850000D02*
X136050000Y-81850000D01*
X117565935Y-58168221D02*
X141265935Y-58168221D01*
X141265935Y-58168221D02*
X141265935Y-74168221D01*
X141265935Y-74168221D02*
X117565935Y-74168221D01*
X117565935Y-74168221D02*
X117565935Y-58168221D01*
X120500000Y-83050000D02*
X120500000Y-76050000D01*
X112900000Y-83050000D02*
X120500000Y-83050000D01*
X120500000Y-76050000D02*
X112900000Y-76050000D01*
X113300000Y-76050000D02*
X113300000Y-83050000D01*
X114400000Y-76050000D02*
X114400000Y-83050000D01*
X113300000Y-79550000D02*
X112900000Y-79550000D01*
X113200000Y-87750000D02*
X112800000Y-87750000D01*
X114300000Y-84250000D02*
X114300000Y-91250000D01*
X113200000Y-84250000D02*
X113200000Y-91250000D01*
X120400000Y-84250000D02*
X112800000Y-84250000D01*
X112800000Y-91250000D02*
X120400000Y-91250000D01*
X120400000Y-91250000D02*
X120400000Y-84250000D01*
D13*
X147030000Y-69895000D02*
X145700000Y-69895000D01*
X147030000Y-69200000D02*
X147030000Y-69895000D01*
X144370000Y-68565000D02*
X147030000Y-68565000D01*
X144370000Y-65965000D02*
X144370000Y-68565000D01*
X147030000Y-65965000D02*
X144370000Y-65965000D01*
X147030000Y-68565000D02*
X147030000Y-65965000D01*
D11*
X113766666Y-57583333D02*
X113866666Y-57616666D01*
X114033333Y-57616666D01*
X114100000Y-57583333D01*
X114133333Y-57550000D01*
X114166666Y-57483333D01*
X114166666Y-57416666D01*
X114133333Y-57350000D01*
X114100000Y-57316666D01*
X114033333Y-57283333D01*
X113900000Y-57250000D01*
X113833333Y-57216666D01*
X113800000Y-57183333D01*
X113766666Y-57116666D01*
X113766666Y-57050000D01*
X113800000Y-56983333D01*
X113833333Y-56950000D01*
X113900000Y-56916666D01*
X114066666Y-56916666D01*
X114166666Y-56950000D01*
X114400000Y-56916666D02*
X114566666Y-57616666D01*
X114700000Y-57116666D01*
X114833333Y-57616666D01*
X115000000Y-56916666D01*
X115633333Y-57616666D02*
X115233333Y-57616666D01*
X115433333Y-57616666D02*
X115433333Y-56916666D01*
X115366666Y-57016666D01*
X115300000Y-57083333D01*
X115233333Y-57116666D01*
X116316666Y-62916666D02*
X115983333Y-63150000D01*
X116316666Y-63316666D02*
X115616666Y-63316666D01*
X115616666Y-63050000D01*
X115650000Y-62983333D01*
X115683333Y-62950000D01*
X115750000Y-62916666D01*
X115850000Y-62916666D01*
X115916666Y-62950000D01*
X115950000Y-62983333D01*
X115983333Y-63050000D01*
X115983333Y-63316666D01*
X115950000Y-62616666D02*
X115950000Y-62383333D01*
X116316666Y-62283333D02*
X116316666Y-62616666D01*
X115616666Y-62616666D01*
X115616666Y-62283333D01*
X116283333Y-62016666D02*
X116316666Y-61916666D01*
X116316666Y-61750000D01*
X116283333Y-61683333D01*
X116250000Y-61650000D01*
X116183333Y-61616666D01*
X116116666Y-61616666D01*
X116050000Y-61650000D01*
X116016666Y-61683333D01*
X115983333Y-61750000D01*
X115950000Y-61883333D01*
X115916666Y-61950000D01*
X115883333Y-61983333D01*
X115816666Y-62016666D01*
X115750000Y-62016666D01*
X115683333Y-61983333D01*
X115650000Y-61950000D01*
X115616666Y-61883333D01*
X115616666Y-61716666D01*
X115650000Y-61616666D01*
X115950000Y-61316666D02*
X115950000Y-61083333D01*
X116316666Y-60983333D02*
X116316666Y-61316666D01*
X115616666Y-61316666D01*
X115616666Y-60983333D01*
X115616666Y-60783333D02*
X115616666Y-60383333D01*
X116316666Y-60583333D02*
X115616666Y-60583333D01*
X117283333Y-75350000D02*
X117250000Y-75383333D01*
X117150000Y-75416666D01*
X117083333Y-75416666D01*
X116983333Y-75383333D01*
X116916666Y-75316666D01*
X116883333Y-75250000D01*
X116850000Y-75116666D01*
X116850000Y-75016666D01*
X116883333Y-74883333D01*
X116916666Y-74816666D01*
X116983333Y-74750000D01*
X117083333Y-74716666D01*
X117150000Y-74716666D01*
X117250000Y-74750000D01*
X117283333Y-74783333D01*
X117683333Y-75016666D02*
X117616666Y-74983333D01*
X117583333Y-74950000D01*
X117550000Y-74883333D01*
X117550000Y-74850000D01*
X117583333Y-74783333D01*
X117616666Y-74750000D01*
X117683333Y-74716666D01*
X117816666Y-74716666D01*
X117883333Y-74750000D01*
X117916666Y-74783333D01*
X117950000Y-74850000D01*
X117950000Y-74883333D01*
X117916666Y-74950000D01*
X117883333Y-74983333D01*
X117816666Y-75016666D01*
X117683333Y-75016666D01*
X117616666Y-75050000D01*
X117583333Y-75083333D01*
X117550000Y-75150000D01*
X117550000Y-75283333D01*
X117583333Y-75350000D01*
X117616666Y-75383333D01*
X117683333Y-75416666D01*
X117816666Y-75416666D01*
X117883333Y-75383333D01*
X117916666Y-75350000D01*
X117950000Y-75283333D01*
X117950000Y-75150000D01*
X117916666Y-75083333D01*
X117883333Y-75050000D01*
X117816666Y-75016666D01*
X118950000Y-75416666D02*
X118550000Y-75416666D01*
X118750000Y-75416666D02*
X118750000Y-74716666D01*
X118683333Y-74816666D01*
X118616666Y-74883333D01*
X118550000Y-74916666D01*
X119383333Y-74716666D02*
X119450000Y-74716666D01*
X119516666Y-74750000D01*
X119550000Y-74783333D01*
X119583333Y-74850000D01*
X119616666Y-74983333D01*
X119616666Y-75150000D01*
X119583333Y-75283333D01*
X119550000Y-75350000D01*
X119516666Y-75383333D01*
X119450000Y-75416666D01*
X119383333Y-75416666D01*
X119316666Y-75383333D01*
X119283333Y-75350000D01*
X119250000Y-75283333D01*
X119216666Y-75150000D01*
X119216666Y-74983333D01*
X119250000Y-74850000D01*
X119283333Y-74783333D01*
X119316666Y-74750000D01*
X119383333Y-74716666D01*
X120216666Y-74950000D02*
X120216666Y-75416666D01*
X119916666Y-74950000D02*
X119916666Y-75316666D01*
X119950000Y-75383333D01*
X120016666Y-75416666D01*
X120116666Y-75416666D01*
X120183333Y-75383333D01*
X120216666Y-75350000D01*
X146016666Y-82816666D02*
X145316666Y-82816666D01*
X145316666Y-82650000D01*
X145350000Y-82550000D01*
X145416666Y-82483333D01*
X145483333Y-82450000D01*
X145616666Y-82416666D01*
X145716666Y-82416666D01*
X145850000Y-82450000D01*
X145916666Y-82483333D01*
X145983333Y-82550000D01*
X146016666Y-82650000D01*
X146016666Y-82816666D01*
X146016666Y-81750000D02*
X146016666Y-82150000D01*
X146016666Y-81950000D02*
X145316666Y-81950000D01*
X145416666Y-82016666D01*
X145483333Y-82083333D01*
X145516666Y-82150000D01*
X146016666Y-80800000D02*
X146016666Y-81200000D01*
X146016666Y-81000000D02*
X145316666Y-81000000D01*
X145416666Y-81066666D01*
X145483333Y-81133333D01*
X145516666Y-81200000D01*
X146016666Y-80500000D02*
X145316666Y-80500000D01*
X146016666Y-80100000D01*
X145316666Y-80100000D01*
X145550000Y-79466666D02*
X146016666Y-79466666D01*
X145283333Y-79633333D02*
X145783333Y-79800000D01*
X145783333Y-79366666D01*
X146016666Y-78733333D02*
X146016666Y-79133333D01*
X146016666Y-78933333D02*
X145316666Y-78933333D01*
X145416666Y-79000000D01*
X145483333Y-79066666D01*
X145516666Y-79133333D01*
X145550000Y-78133333D02*
X146016666Y-78133333D01*
X145283333Y-78300000D02*
X145783333Y-78466666D01*
X145783333Y-78033333D01*
X145616666Y-77666666D02*
X145583333Y-77733333D01*
X145550000Y-77766666D01*
X145483333Y-77800000D01*
X145450000Y-77800000D01*
X145383333Y-77766666D01*
X145350000Y-77733333D01*
X145316666Y-77666666D01*
X145316666Y-77533333D01*
X145350000Y-77466666D01*
X145383333Y-77433333D01*
X145450000Y-77400000D01*
X145483333Y-77400000D01*
X145550000Y-77433333D01*
X145583333Y-77466666D01*
X145616666Y-77533333D01*
X145616666Y-77666666D01*
X145650000Y-77733333D01*
X145683333Y-77766666D01*
X145750000Y-77800000D01*
X145883333Y-77800000D01*
X145950000Y-77766666D01*
X145983333Y-77733333D01*
X146016666Y-77666666D01*
X146016666Y-77533333D01*
X145983333Y-77466666D01*
X145950000Y-77433333D01*
X145883333Y-77400000D01*
X145750000Y-77400000D01*
X145683333Y-77433333D01*
X145650000Y-77466666D01*
X145616666Y-77533333D01*
X142716666Y-73616666D02*
X142016666Y-73616666D01*
X142016666Y-73350000D01*
X142050000Y-73283333D01*
X142083333Y-73250000D01*
X142150000Y-73216666D01*
X142250000Y-73216666D01*
X142316666Y-73250000D01*
X142350000Y-73283333D01*
X142383333Y-73350000D01*
X142383333Y-73616666D01*
X142716666Y-72550000D02*
X142716666Y-72950000D01*
X142716666Y-72750000D02*
X142016666Y-72750000D01*
X142116666Y-72816666D01*
X142183333Y-72883333D01*
X142216666Y-72950000D01*
X143716666Y-75550000D02*
X143716666Y-75216666D01*
X143916666Y-75616666D02*
X143216666Y-75383333D01*
X143916666Y-75150000D01*
X143916666Y-74916666D02*
X143216666Y-74916666D01*
X143916666Y-74516666D01*
X143216666Y-74516666D01*
X143216666Y-74283333D02*
X143216666Y-73883333D01*
X143916666Y-74083333D02*
X143216666Y-74083333D01*
X143550000Y-73650000D02*
X143550000Y-73416666D01*
X143916666Y-73316666D02*
X143916666Y-73650000D01*
X143216666Y-73650000D01*
X143216666Y-73316666D01*
X143916666Y-73016666D02*
X143216666Y-73016666D01*
X143916666Y-72616666D01*
X143216666Y-72616666D01*
X143916666Y-72283333D02*
X143216666Y-72283333D01*
X143916666Y-71883333D01*
X143216666Y-71883333D01*
X143716666Y-71583333D02*
X143716666Y-71250000D01*
X143916666Y-71650000D02*
X143216666Y-71416666D01*
X143916666Y-71183333D01*
X144816666Y-62616666D02*
X144483333Y-62850000D01*
X144816666Y-63016666D02*
X144116666Y-63016666D01*
X144116666Y-62750000D01*
X144150000Y-62683333D01*
X144183333Y-62650000D01*
X144250000Y-62616666D01*
X144350000Y-62616666D01*
X144416666Y-62650000D01*
X144450000Y-62683333D01*
X144483333Y-62750000D01*
X144483333Y-63016666D01*
X144116666Y-61983333D02*
X144116666Y-62316666D01*
X144450000Y-62350000D01*
X144416666Y-62316666D01*
X144383333Y-62250000D01*
X144383333Y-62083333D01*
X144416666Y-62016666D01*
X144450000Y-61983333D01*
X144516666Y-61950000D01*
X144683333Y-61950000D01*
X144750000Y-61983333D01*
X144783333Y-62016666D01*
X144816666Y-62083333D01*
X144816666Y-62250000D01*
X144783333Y-62316666D01*
X144750000Y-62350000D01*
X144116666Y-60916666D02*
X144116666Y-61250000D01*
X144450000Y-61283333D01*
X144416666Y-61250000D01*
X144383333Y-61183333D01*
X144383333Y-61016666D01*
X144416666Y-60950000D01*
X144450000Y-60916666D01*
X144516666Y-60883333D01*
X144683333Y-60883333D01*
X144750000Y-60916666D01*
X144783333Y-60950000D01*
X144816666Y-61016666D01*
X144816666Y-61183333D01*
X144783333Y-61250000D01*
X144750000Y-61283333D01*
X144116666Y-60283333D02*
X144116666Y-60416666D01*
X144150000Y-60483333D01*
X144183333Y-60516666D01*
X144283333Y-60583333D01*
X144416666Y-60616666D01*
X144683333Y-60616666D01*
X144750000Y-60583333D01*
X144783333Y-60550000D01*
X144816666Y-60483333D01*
X144816666Y-60350000D01*
X144783333Y-60283333D01*
X144750000Y-60250000D01*
X144683333Y-60216666D01*
X144516666Y-60216666D01*
X144450000Y-60250000D01*
X144416666Y-60283333D01*
X144383333Y-60350000D01*
X144383333Y-60483333D01*
X144416666Y-60550000D01*
X144450000Y-60583333D01*
X144516666Y-60616666D01*
X144816666Y-59916666D02*
X144116666Y-59916666D01*
X144816666Y-59516666D02*
X144416666Y-59816666D01*
X144116666Y-59516666D02*
X144516666Y-59916666D01*
X126400000Y-75516666D02*
X126166666Y-75183333D01*
X126000000Y-75516666D02*
X126000000Y-74816666D01*
X126266666Y-74816666D01*
X126333333Y-74850000D01*
X126366666Y-74883333D01*
X126400000Y-74950000D01*
X126400000Y-75050000D01*
X126366666Y-75116666D01*
X126333333Y-75150000D01*
X126266666Y-75183333D01*
X126000000Y-75183333D01*
X127033333Y-75516666D02*
X126700000Y-75516666D01*
X126700000Y-74816666D01*
X127633333Y-75516666D02*
X127233333Y-75516666D01*
X127433333Y-75516666D02*
X127433333Y-74816666D01*
X127366666Y-74916666D01*
X127300000Y-74983333D01*
X127233333Y-75016666D01*
X129966666Y-75516666D02*
X129733333Y-75183333D01*
X129566666Y-75516666D02*
X129566666Y-74816666D01*
X129833333Y-74816666D01*
X129900000Y-74850000D01*
X129933333Y-74883333D01*
X129966666Y-74950000D01*
X129966666Y-75050000D01*
X129933333Y-75116666D01*
X129900000Y-75150000D01*
X129833333Y-75183333D01*
X129566666Y-75183333D01*
X130266666Y-75516666D02*
X130266666Y-74816666D01*
X130500000Y-75316666D01*
X130733333Y-74816666D01*
X130733333Y-75516666D01*
X131400000Y-74816666D02*
X131066666Y-74816666D01*
X131033333Y-75150000D01*
X131066666Y-75116666D01*
X131133333Y-75083333D01*
X131300000Y-75083333D01*
X131366666Y-75116666D01*
X131400000Y-75150000D01*
X131433333Y-75216666D01*
X131433333Y-75383333D01*
X131400000Y-75450000D01*
X131366666Y-75483333D01*
X131300000Y-75516666D01*
X131133333Y-75516666D01*
X131066666Y-75483333D01*
X131033333Y-75450000D01*
X131866666Y-74816666D02*
X131933333Y-74816666D01*
X132000000Y-74850000D01*
X132033333Y-74883333D01*
X132066666Y-74950000D01*
X132100000Y-75083333D01*
X132100000Y-75250000D01*
X132066666Y-75383333D01*
X132033333Y-75450000D01*
X132000000Y-75483333D01*
X131933333Y-75516666D01*
X131866666Y-75516666D01*
X131800000Y-75483333D01*
X131766666Y-75450000D01*
X131733333Y-75383333D01*
X131700000Y-75250000D01*
X131700000Y-75083333D01*
X131733333Y-74950000D01*
X131766666Y-74883333D01*
X131800000Y-74850000D01*
X131866666Y-74816666D01*
X132400000Y-75250000D02*
X132933333Y-75250000D01*
X133266666Y-75516666D02*
X133266666Y-74816666D01*
X133533333Y-74816666D01*
X133600000Y-74850000D01*
X133633333Y-74883333D01*
X133666666Y-74950000D01*
X133666666Y-75050000D01*
X133633333Y-75116666D01*
X133600000Y-75150000D01*
X133533333Y-75183333D01*
X133266666Y-75183333D01*
X120686601Y-57006887D02*
X120686601Y-57573554D01*
X120719935Y-57640221D01*
X120753268Y-57673554D01*
X120819935Y-57706887D01*
X120953268Y-57706887D01*
X121019935Y-57673554D01*
X121053268Y-57640221D01*
X121086601Y-57573554D01*
X121086601Y-57006887D01*
X121719935Y-57240221D02*
X121719935Y-57706887D01*
X121553268Y-56973554D02*
X121386601Y-57473554D01*
X121819935Y-57473554D01*
X123250000Y-57716666D02*
X123016666Y-57383333D01*
X122850000Y-57716666D02*
X122850000Y-57016666D01*
X123116666Y-57016666D01*
X123183333Y-57050000D01*
X123216666Y-57083333D01*
X123250000Y-57150000D01*
X123250000Y-57250000D01*
X123216666Y-57316666D01*
X123183333Y-57350000D01*
X123116666Y-57383333D01*
X122850000Y-57383333D01*
X123783333Y-57350000D02*
X123550000Y-57350000D01*
X123550000Y-57716666D02*
X123550000Y-57016666D01*
X123883333Y-57016666D01*
X124150000Y-57716666D02*
X124150000Y-57016666D01*
X124383333Y-57516666D01*
X124616666Y-57016666D01*
X124616666Y-57716666D01*
X125250000Y-57016666D02*
X125116666Y-57016666D01*
X125050000Y-57050000D01*
X125016666Y-57083333D01*
X124950000Y-57183333D01*
X124916666Y-57316666D01*
X124916666Y-57583333D01*
X124950000Y-57650000D01*
X124983333Y-57683333D01*
X125050000Y-57716666D01*
X125183333Y-57716666D01*
X125250000Y-57683333D01*
X125283333Y-57650000D01*
X125316666Y-57583333D01*
X125316666Y-57416666D01*
X125283333Y-57350000D01*
X125250000Y-57316666D01*
X125183333Y-57283333D01*
X125050000Y-57283333D01*
X124983333Y-57316666D01*
X124950000Y-57350000D01*
X124916666Y-57416666D01*
X125650000Y-57716666D02*
X125783333Y-57716666D01*
X125850000Y-57683333D01*
X125883333Y-57650000D01*
X125950000Y-57550000D01*
X125983333Y-57416666D01*
X125983333Y-57150000D01*
X125950000Y-57083333D01*
X125916666Y-57050000D01*
X125850000Y-57016666D01*
X125716666Y-57016666D01*
X125650000Y-57050000D01*
X125616666Y-57083333D01*
X125583333Y-57150000D01*
X125583333Y-57316666D01*
X125616666Y-57383333D01*
X125650000Y-57416666D01*
X125716666Y-57450000D01*
X125850000Y-57450000D01*
X125916666Y-57416666D01*
X125950000Y-57383333D01*
X125983333Y-57316666D01*
X126216666Y-57016666D02*
X126383333Y-57716666D01*
X126516666Y-57216666D01*
X126650000Y-57716666D01*
X126816666Y-57016666D01*
X114816666Y-80066666D02*
X115516666Y-79600000D01*
X114816666Y-79600000D02*
X115516666Y-80066666D01*
X115516666Y-78966666D02*
X115516666Y-79366666D01*
X115516666Y-79166666D02*
X114816666Y-79166666D01*
X114916666Y-79233333D01*
X114983333Y-79300000D01*
X115016666Y-79366666D01*
X112516666Y-81050000D02*
X112516666Y-81383333D01*
X111816666Y-81383333D01*
X112150000Y-80816666D02*
X112150000Y-80583333D01*
X112516666Y-80483333D02*
X112516666Y-80816666D01*
X111816666Y-80816666D01*
X111816666Y-80483333D01*
X112516666Y-80183333D02*
X111816666Y-80183333D01*
X111816666Y-80016666D01*
X111850000Y-79916666D01*
X111916666Y-79850000D01*
X111983333Y-79816666D01*
X112116666Y-79783333D01*
X112216666Y-79783333D01*
X112350000Y-79816666D01*
X112416666Y-79850000D01*
X112483333Y-79916666D01*
X112516666Y-80016666D01*
X112516666Y-80183333D01*
X112583333Y-79650000D02*
X112583333Y-79116666D01*
X112483333Y-78983333D02*
X112516666Y-78883333D01*
X112516666Y-78716666D01*
X112483333Y-78650000D01*
X112450000Y-78616666D01*
X112383333Y-78583333D01*
X112316666Y-78583333D01*
X112250000Y-78616666D01*
X112216666Y-78650000D01*
X112183333Y-78716666D01*
X112150000Y-78850000D01*
X112116666Y-78916666D01*
X112083333Y-78950000D01*
X112016666Y-78983333D01*
X111950000Y-78983333D01*
X111883333Y-78950000D01*
X111850000Y-78916666D01*
X111816666Y-78850000D01*
X111816666Y-78683333D01*
X111850000Y-78583333D01*
X111816666Y-78350000D02*
X112516666Y-78183333D01*
X112016666Y-78050000D01*
X112516666Y-77916666D01*
X111816666Y-77750000D01*
X114916666Y-88566666D02*
X115616666Y-88100000D01*
X114916666Y-88100000D02*
X115616666Y-88566666D01*
X114983333Y-87866666D02*
X114950000Y-87833333D01*
X114916666Y-87766666D01*
X114916666Y-87600000D01*
X114950000Y-87533333D01*
X114983333Y-87500000D01*
X115050000Y-87466666D01*
X115116666Y-87466666D01*
X115216666Y-87500000D01*
X115616666Y-87900000D01*
X115616666Y-87466666D01*
X112416666Y-88400000D02*
X112416666Y-88800000D01*
X112416666Y-88600000D02*
X111716666Y-88600000D01*
X111816666Y-88666666D01*
X111883333Y-88733333D01*
X111916666Y-88800000D01*
X111783333Y-88133333D02*
X111750000Y-88100000D01*
X111716666Y-88033333D01*
X111716666Y-87866666D01*
X111750000Y-87800000D01*
X111783333Y-87766666D01*
X111850000Y-87733333D01*
X111916666Y-87733333D01*
X112016666Y-87766666D01*
X112416666Y-88166666D01*
X112416666Y-87733333D01*
X111716666Y-87533333D02*
X112416666Y-87300000D01*
X111716666Y-87066666D01*
X142116666Y-69733333D02*
X142616666Y-69733333D01*
X142716666Y-69766666D01*
X142783333Y-69833333D01*
X142816666Y-69933333D01*
X142816666Y-70000000D01*
X142183333Y-69433333D02*
X142150000Y-69400000D01*
X142116666Y-69333333D01*
X142116666Y-69166666D01*
X142150000Y-69100000D01*
X142183333Y-69066666D01*
X142250000Y-69033333D01*
X142316666Y-69033333D01*
X142416666Y-69066666D01*
X142816666Y-69466666D01*
X142816666Y-69033333D01*
X144016666Y-69600000D02*
X144016666Y-69933333D01*
X143316666Y-69933333D01*
X143650000Y-69366666D02*
X143650000Y-69133333D01*
X144016666Y-69033333D02*
X144016666Y-69366666D01*
X143316666Y-69366666D01*
X143316666Y-69033333D01*
X144016666Y-68733333D02*
X143316666Y-68733333D01*
X143316666Y-68566666D01*
X143350000Y-68466666D01*
X143416666Y-68400000D01*
X143483333Y-68366666D01*
X143616666Y-68333333D01*
X143716666Y-68333333D01*
X143850000Y-68366666D01*
X143916666Y-68400000D01*
X143983333Y-68466666D01*
X144016666Y-68566666D01*
X144016666Y-68733333D01*
X144083333Y-68200000D02*
X144083333Y-67666666D01*
X143650000Y-67266666D02*
X143683333Y-67166666D01*
X143716666Y-67133333D01*
X143783333Y-67100000D01*
X143883333Y-67100000D01*
X143950000Y-67133333D01*
X143983333Y-67166666D01*
X144016666Y-67233333D01*
X144016666Y-67500000D01*
X143316666Y-67500000D01*
X143316666Y-67266666D01*
X143350000Y-67200000D01*
X143383333Y-67166666D01*
X143450000Y-67133333D01*
X143516666Y-67133333D01*
X143583333Y-67166666D01*
X143616666Y-67200000D01*
X143650000Y-67266666D01*
X143650000Y-67500000D01*
X143316666Y-66900000D02*
X143316666Y-66500000D01*
X144016666Y-66700000D02*
X143316666Y-66700000D01*
X144016666Y-66266666D02*
X143316666Y-66266666D01*
X144016666Y-65866666D01*
X143316666Y-65866666D01*
X144133333Y-90216666D02*
X144566666Y-90216666D01*
X144333333Y-90483333D01*
X144433333Y-90483333D01*
X144500000Y-90516666D01*
X144533333Y-90550000D01*
X144566666Y-90616666D01*
X144566666Y-90783333D01*
X144533333Y-90850000D01*
X144500000Y-90883333D01*
X144433333Y-90916666D01*
X144233333Y-90916666D01*
X144166666Y-90883333D01*
X144133333Y-90850000D01*
X144766666Y-90216666D02*
X145000000Y-90916666D01*
X145233333Y-90216666D01*
X145400000Y-90216666D02*
X145833333Y-90216666D01*
X145600000Y-90483333D01*
X145700000Y-90483333D01*
X145766666Y-90516666D01*
X145800000Y-90550000D01*
X145833333Y-90616666D01*
X145833333Y-90783333D01*
X145800000Y-90850000D01*
X145766666Y-90883333D01*
X145700000Y-90916666D01*
X145500000Y-90916666D01*
X145433333Y-90883333D01*
X145400000Y-90850000D01*
X144566666Y-92116666D02*
X144166666Y-92116666D01*
X144366666Y-92116666D02*
X144366666Y-91416666D01*
X144300000Y-91516666D01*
X144233333Y-91583333D01*
X144166666Y-91616666D01*
X144833333Y-91483333D02*
X144866666Y-91450000D01*
X144933333Y-91416666D01*
X145100000Y-91416666D01*
X145166666Y-91450000D01*
X145200000Y-91483333D01*
X145233333Y-91550000D01*
X145233333Y-91616666D01*
X145200000Y-91716666D01*
X144800000Y-92116666D01*
X145233333Y-92116666D01*
X145433333Y-91416666D02*
X145666666Y-92116666D01*
X145900000Y-91416666D01*
%LPC*%
D14*
X114800000Y-59300000D03*
X114800000Y-64700000D03*
D15*
X114800000Y-69050000D03*
X114800000Y-73350000D03*
D16*
X143940000Y-78640000D03*
D17*
X143940000Y-88800000D03*
D18*
X145800000Y-73400000D03*
D19*
X142850000Y-61150000D03*
X142850000Y-63850000D03*
D20*
X138150000Y-77650000D03*
X138150000Y-89650000D03*
D21*
X140100000Y-83700000D03*
X125900000Y-77700000D03*
X125900000Y-89700000D03*
D22*
X139265935Y-59168221D03*
X139265935Y-61168221D03*
X139265935Y-63168221D03*
X139265935Y-65168221D03*
X139265935Y-67168221D03*
X139265935Y-69168221D03*
X139265935Y-71168221D03*
X139265935Y-73168221D03*
X119565935Y-73168221D03*
X119565935Y-71168221D03*
X119565935Y-69168221D03*
X119565935Y-67168221D03*
X119565935Y-65168221D03*
X119565935Y-63168221D03*
X119565935Y-61168221D03*
X119565935Y-59168221D03*
D23*
X117400000Y-77800000D03*
D24*
X117400000Y-81300000D03*
X117300000Y-89500000D03*
D23*
X117300000Y-86000000D03*
D25*
X145700000Y-66660000D03*
X145700000Y-67930000D03*
D26*
X145700000Y-69200000D03*
D27*
X143450000Y-90700000D03*
X142550000Y-90700000D03*
X143450000Y-91800000D03*
X142550000Y-91800000D03*
M02*
