M48
;DRILL file {KiCad no-vcs-found-feba091~58~ubuntu16.04.1} date Tue Mar 28 10:56:02 2017
;FORMAT={-:-/ absolute / metric / decimal}
FMAT,2
METRIC,TZ
T1C0.400
T2C0.650
T3C0.800
T4C1.000
T5C1.200
T6C1.500
%
G90
G05
M71
T1
X112.4Y-57.8
X112.4Y-59.
X112.4Y-60.2
X112.4Y-61.4
X112.4Y-62.6
X112.4Y-63.8
X112.4Y-65.
X112.4Y-66.2
X112.4Y-67.4
X112.4Y-68.6
X112.4Y-69.8
X112.4Y-71.
X112.4Y-72.2
X112.4Y-73.4
X112.4Y-74.6
X114.9Y-66.5
X120.1Y-88.3
X120.1Y-89.3
X120.1Y-90.3
X120.1Y-91.3
X121.1Y-88.3
X121.1Y-89.3
X121.1Y-90.3
X121.1Y-91.3
X122.1Y-88.3
X122.1Y-89.3
X122.1Y-90.3
X122.1Y-91.3
X123.1Y-88.3
X123.1Y-89.3
X123.1Y-90.3
X123.1Y-91.3
X124.3Y-60.5
X125.2Y-62.8
X126.8Y-66.4
X127.775Y-68.
X127.8Y-83.9
X128.4Y-57.6
X128.6Y-75.6
X131.075Y-69.4
X131.7Y-65.2
X131.9Y-66.3
X131.95Y-68.505
X132.Y-81.3
X132.Y-82.3
X132.Y-83.3
X132.Y-84.3
X132.216Y-67.354
X132.225Y-64.056
X132.294Y-69.55
X133.Y-81.3
X133.Y-82.3
X133.Y-83.3
X133.Y-84.3
X133.8Y-71.9
X134.Y-81.3
X134.Y-82.3
X134.Y-83.3
X134.Y-84.3
X135.7Y-71.2
X135.9Y-75.3
X136.028Y-59.328
X136.5Y-67.8
X141.5Y-74.9
X142.Y-65.365
X142.Y-68.035
X142.6Y-86.4
X142.7Y-58.725
X144.825Y-63.556
X146.7Y-76.7
X146.7Y-77.9
X146.7Y-79.1
X146.7Y-80.3
X146.7Y-81.5
X146.7Y-82.7
X146.7Y-83.9
X146.7Y-85.1
X146.7Y-86.3
X146.7Y-87.5
X146.7Y-88.7
X146.7Y-89.9
X146.7Y-91.1
T2
X145.7Y-66.66
X145.7Y-67.93
X145.7Y-69.2
T3
X143.94Y-78.64
X143.94Y-88.8
T4
X145.8Y-73.4
T5
X117.3Y-86.
X117.3Y-89.5
X117.4Y-77.8
X117.4Y-81.3
X138.15Y-77.65
X138.15Y-89.65
T6
X125.9Y-77.7
X125.9Y-89.7
X140.1Y-83.7
T0
M30
