G04 #@! TF.FileFunction,Other,Fab,Top*
%FSLAX46Y46*%
G04 Gerber Fmt 4.6, Leading zero omitted, Abs format (unit mm)*
G04 Created by KiCad (PCBNEW 4.0.2+e4-6225~38~ubuntu14.04.1-stable) date Wed 15 Jun 2016 03:11:21 PM EEST*
%MOMM*%
G01*
G04 APERTURE LIST*
%ADD10C,0.100000*%
%ADD11C,0.150000*%
G04 APERTURE END LIST*
D10*
D11*
X113792000Y-57023000D02*
X113919000Y-57023000D01*
X113792000Y-116840000D02*
X113792000Y-57023000D01*
X166751000Y-116840000D02*
X113792000Y-116840000D01*
X166751000Y-57023000D02*
X166751000Y-116840000D01*
X113919000Y-57023000D02*
X166751000Y-57023000D01*
X137013905Y-60077286D02*
X137013905Y-60534429D01*
X137013905Y-60305858D02*
X136213905Y-60305858D01*
X136328190Y-60382048D01*
X136404381Y-60458239D01*
X136442476Y-60534429D01*
X136213905Y-59582048D02*
X136213905Y-59505857D01*
X136252000Y-59429667D01*
X136290095Y-59391572D01*
X136366286Y-59353476D01*
X136518667Y-59315381D01*
X136709143Y-59315381D01*
X136861524Y-59353476D01*
X136937714Y-59391572D01*
X136975810Y-59429667D01*
X137013905Y-59505857D01*
X137013905Y-59582048D01*
X136975810Y-59658238D01*
X136937714Y-59696334D01*
X136861524Y-59734429D01*
X136709143Y-59772524D01*
X136518667Y-59772524D01*
X136366286Y-59734429D01*
X136290095Y-59696334D01*
X136252000Y-59658238D01*
X136213905Y-59582048D01*
X136480571Y-58629667D02*
X137013905Y-58629667D01*
X136480571Y-58972524D02*
X136899619Y-58972524D01*
X136975810Y-58934429D01*
X137013905Y-58858238D01*
X137013905Y-58743952D01*
X136975810Y-58667762D01*
X136937714Y-58629667D01*
X141598714Y-78085905D02*
X141141571Y-78085905D01*
X141370142Y-78085905D02*
X141370142Y-77285905D01*
X141293952Y-77400190D01*
X141217761Y-77476381D01*
X141141571Y-77514476D01*
X142093952Y-77285905D02*
X142170143Y-77285905D01*
X142246333Y-77324000D01*
X142284428Y-77362095D01*
X142322524Y-77438286D01*
X142360619Y-77590667D01*
X142360619Y-77781143D01*
X142322524Y-77933524D01*
X142284428Y-78009714D01*
X142246333Y-78047810D01*
X142170143Y-78085905D01*
X142093952Y-78085905D01*
X142017762Y-78047810D01*
X141979666Y-78009714D01*
X141941571Y-77933524D01*
X141903476Y-77781143D01*
X141903476Y-77590667D01*
X141941571Y-77438286D01*
X141979666Y-77362095D01*
X142017762Y-77324000D01*
X142093952Y-77285905D01*
X142703476Y-77552571D02*
X142703476Y-78085905D01*
X142703476Y-77628762D02*
X142741571Y-77590667D01*
X142817762Y-77552571D01*
X142932048Y-77552571D01*
X143008238Y-77590667D01*
X143046333Y-77666857D01*
X143046333Y-78085905D01*
X117830905Y-62871405D02*
X117830905Y-63519024D01*
X117869000Y-63595214D01*
X117907096Y-63633310D01*
X117983286Y-63671405D01*
X118135667Y-63671405D01*
X118211858Y-63633310D01*
X118249953Y-63595214D01*
X118288048Y-63519024D01*
X118288048Y-62871405D01*
X118630905Y-63633310D02*
X118745191Y-63671405D01*
X118935667Y-63671405D01*
X119011857Y-63633310D01*
X119049953Y-63595214D01*
X119088048Y-63519024D01*
X119088048Y-63442833D01*
X119049953Y-63366643D01*
X119011857Y-63328548D01*
X118935667Y-63290452D01*
X118783286Y-63252357D01*
X118707095Y-63214262D01*
X118669000Y-63176167D01*
X118630905Y-63099976D01*
X118630905Y-63023786D01*
X118669000Y-62947595D01*
X118707095Y-62909500D01*
X118783286Y-62871405D01*
X118973762Y-62871405D01*
X119088048Y-62909500D01*
X119697572Y-63252357D02*
X119811858Y-63290452D01*
X119849953Y-63328548D01*
X119888048Y-63404738D01*
X119888048Y-63519024D01*
X119849953Y-63595214D01*
X119811858Y-63633310D01*
X119735667Y-63671405D01*
X119430905Y-63671405D01*
X119430905Y-62871405D01*
X119697572Y-62871405D01*
X119773762Y-62909500D01*
X119811858Y-62947595D01*
X119849953Y-63023786D01*
X119849953Y-63099976D01*
X119811858Y-63176167D01*
X119773762Y-63214262D01*
X119697572Y-63252357D01*
X119430905Y-63252357D01*
X120040429Y-63747595D02*
X120649953Y-63747595D01*
X120992810Y-62871405D02*
X121145191Y-62871405D01*
X121221382Y-62909500D01*
X121297572Y-62985690D01*
X121335667Y-63138071D01*
X121335667Y-63404738D01*
X121297572Y-63557119D01*
X121221382Y-63633310D01*
X121145191Y-63671405D01*
X120992810Y-63671405D01*
X120916620Y-63633310D01*
X120840429Y-63557119D01*
X120802334Y-63404738D01*
X120802334Y-63138071D01*
X120840429Y-62985690D01*
X120916620Y-62909500D01*
X120992810Y-62871405D01*
X121564238Y-62871405D02*
X122021381Y-62871405D01*
X121792810Y-63671405D02*
X121792810Y-62871405D01*
X122707096Y-62909500D02*
X122630905Y-62871405D01*
X122516620Y-62871405D01*
X122402334Y-62909500D01*
X122326143Y-62985690D01*
X122288048Y-63061881D01*
X122249953Y-63214262D01*
X122249953Y-63328548D01*
X122288048Y-63480929D01*
X122326143Y-63557119D01*
X122402334Y-63633310D01*
X122516620Y-63671405D01*
X122592810Y-63671405D01*
X122707096Y-63633310D01*
X122745191Y-63595214D01*
X122745191Y-63328548D01*
X122592810Y-63328548D01*
X137775905Y-109454838D02*
X137775905Y-109911981D01*
X137775905Y-109683410D02*
X136975905Y-109683410D01*
X137090190Y-109759600D01*
X137166381Y-109835791D01*
X137204476Y-109911981D01*
X136975905Y-108959600D02*
X136975905Y-108883409D01*
X137014000Y-108807219D01*
X137052095Y-108769124D01*
X137128286Y-108731028D01*
X137280667Y-108692933D01*
X137471143Y-108692933D01*
X137623524Y-108731028D01*
X137699714Y-108769124D01*
X137737810Y-108807219D01*
X137775905Y-108883409D01*
X137775905Y-108959600D01*
X137737810Y-109035790D01*
X137699714Y-109073886D01*
X137623524Y-109111981D01*
X137471143Y-109150076D01*
X137280667Y-109150076D01*
X137128286Y-109111981D01*
X137052095Y-109073886D01*
X137014000Y-109035790D01*
X136975905Y-108959600D01*
X136975905Y-108197695D02*
X136975905Y-108121504D01*
X137014000Y-108045314D01*
X137052095Y-108007219D01*
X137128286Y-107969123D01*
X137280667Y-107931028D01*
X137471143Y-107931028D01*
X137623524Y-107969123D01*
X137699714Y-108007219D01*
X137737810Y-108045314D01*
X137775905Y-108121504D01*
X137775905Y-108197695D01*
X137737810Y-108273885D01*
X137699714Y-108311981D01*
X137623524Y-108350076D01*
X137471143Y-108388171D01*
X137280667Y-108388171D01*
X137128286Y-108350076D01*
X137052095Y-108311981D01*
X137014000Y-108273885D01*
X136975905Y-108197695D01*
X137242571Y-107588171D02*
X137775905Y-107588171D01*
X137318762Y-107588171D02*
X137280667Y-107550076D01*
X137242571Y-107473885D01*
X137242571Y-107359599D01*
X137280667Y-107283409D01*
X137356857Y-107245314D01*
X137775905Y-107245314D01*
X137267905Y-81921238D02*
X137267905Y-82378381D01*
X137267905Y-82149810D02*
X136467905Y-82149810D01*
X136582190Y-82226000D01*
X136658381Y-82302191D01*
X136696476Y-82378381D01*
X136467905Y-81426000D02*
X136467905Y-81349809D01*
X136506000Y-81273619D01*
X136544095Y-81235524D01*
X136620286Y-81197428D01*
X136772667Y-81159333D01*
X136963143Y-81159333D01*
X137115524Y-81197428D01*
X137191714Y-81235524D01*
X137229810Y-81273619D01*
X137267905Y-81349809D01*
X137267905Y-81426000D01*
X137229810Y-81502190D01*
X137191714Y-81540286D01*
X137115524Y-81578381D01*
X136963143Y-81616476D01*
X136772667Y-81616476D01*
X136620286Y-81578381D01*
X136544095Y-81540286D01*
X136506000Y-81502190D01*
X136467905Y-81426000D01*
X136467905Y-80664095D02*
X136467905Y-80587904D01*
X136506000Y-80511714D01*
X136544095Y-80473619D01*
X136620286Y-80435523D01*
X136772667Y-80397428D01*
X136963143Y-80397428D01*
X137115524Y-80435523D01*
X137191714Y-80473619D01*
X137229810Y-80511714D01*
X137267905Y-80587904D01*
X137267905Y-80664095D01*
X137229810Y-80740285D01*
X137191714Y-80778381D01*
X137115524Y-80816476D01*
X136963143Y-80854571D01*
X136772667Y-80854571D01*
X136620286Y-80816476D01*
X136544095Y-80778381D01*
X136506000Y-80740285D01*
X136467905Y-80664095D01*
X136734571Y-80054571D02*
X137267905Y-80054571D01*
X136810762Y-80054571D02*
X136772667Y-80016476D01*
X136734571Y-79940285D01*
X136734571Y-79825999D01*
X136772667Y-79749809D01*
X136848857Y-79711714D01*
X137267905Y-79711714D01*
X133915105Y-109708838D02*
X133915105Y-110165981D01*
X133915105Y-109937410D02*
X133115105Y-109937410D01*
X133229390Y-110013600D01*
X133305581Y-110089791D01*
X133343676Y-110165981D01*
X133115105Y-109213600D02*
X133115105Y-109137409D01*
X133153200Y-109061219D01*
X133191295Y-109023124D01*
X133267486Y-108985028D01*
X133419867Y-108946933D01*
X133610343Y-108946933D01*
X133762724Y-108985028D01*
X133838914Y-109023124D01*
X133877010Y-109061219D01*
X133915105Y-109137409D01*
X133915105Y-109213600D01*
X133877010Y-109289790D01*
X133838914Y-109327886D01*
X133762724Y-109365981D01*
X133610343Y-109404076D01*
X133419867Y-109404076D01*
X133267486Y-109365981D01*
X133191295Y-109327886D01*
X133153200Y-109289790D01*
X133115105Y-109213600D01*
X133115105Y-108451695D02*
X133115105Y-108375504D01*
X133153200Y-108299314D01*
X133191295Y-108261219D01*
X133267486Y-108223123D01*
X133419867Y-108185028D01*
X133610343Y-108185028D01*
X133762724Y-108223123D01*
X133838914Y-108261219D01*
X133877010Y-108299314D01*
X133915105Y-108375504D01*
X133915105Y-108451695D01*
X133877010Y-108527885D01*
X133838914Y-108565981D01*
X133762724Y-108604076D01*
X133610343Y-108642171D01*
X133419867Y-108642171D01*
X133267486Y-108604076D01*
X133191295Y-108565981D01*
X133153200Y-108527885D01*
X133115105Y-108451695D01*
X133381771Y-107842171D02*
X133915105Y-107842171D01*
X133457962Y-107842171D02*
X133419867Y-107804076D01*
X133381771Y-107727885D01*
X133381771Y-107613599D01*
X133419867Y-107537409D01*
X133496057Y-107499314D01*
X133915105Y-107499314D01*
X133965905Y-81638143D02*
X133965905Y-82095286D01*
X133965905Y-81866715D02*
X133165905Y-81866715D01*
X133280190Y-81942905D01*
X133356381Y-82019096D01*
X133394476Y-82095286D01*
X133165905Y-81142905D02*
X133165905Y-81066714D01*
X133204000Y-80990524D01*
X133242095Y-80952429D01*
X133318286Y-80914333D01*
X133470667Y-80876238D01*
X133661143Y-80876238D01*
X133813524Y-80914333D01*
X133889714Y-80952429D01*
X133927810Y-80990524D01*
X133965905Y-81066714D01*
X133965905Y-81142905D01*
X133927810Y-81219095D01*
X133889714Y-81257191D01*
X133813524Y-81295286D01*
X133661143Y-81333381D01*
X133470667Y-81333381D01*
X133318286Y-81295286D01*
X133242095Y-81257191D01*
X133204000Y-81219095D01*
X133165905Y-81142905D01*
X133165905Y-80381000D02*
X133165905Y-80304809D01*
X133204000Y-80228619D01*
X133242095Y-80190524D01*
X133318286Y-80152428D01*
X133470667Y-80114333D01*
X133661143Y-80114333D01*
X133813524Y-80152428D01*
X133889714Y-80190524D01*
X133927810Y-80228619D01*
X133965905Y-80304809D01*
X133965905Y-80381000D01*
X133927810Y-80457190D01*
X133889714Y-80495286D01*
X133813524Y-80533381D01*
X133661143Y-80571476D01*
X133470667Y-80571476D01*
X133318286Y-80533381D01*
X133242095Y-80495286D01*
X133204000Y-80457190D01*
X133165905Y-80381000D01*
X133432571Y-79771476D02*
X133965905Y-79771476D01*
X133508762Y-79771476D02*
X133470667Y-79733381D01*
X133432571Y-79657190D01*
X133432571Y-79542904D01*
X133470667Y-79466714D01*
X133546857Y-79428619D01*
X133965905Y-79428619D01*
X122142362Y-115830305D02*
X121685219Y-115830305D01*
X121913790Y-115830305D02*
X121913790Y-115030305D01*
X121837600Y-115144590D01*
X121761409Y-115220781D01*
X121685219Y-115258876D01*
X122637600Y-115030305D02*
X122713791Y-115030305D01*
X122789981Y-115068400D01*
X122828076Y-115106495D01*
X122866172Y-115182686D01*
X122904267Y-115335067D01*
X122904267Y-115525543D01*
X122866172Y-115677924D01*
X122828076Y-115754114D01*
X122789981Y-115792210D01*
X122713791Y-115830305D01*
X122637600Y-115830305D01*
X122561410Y-115792210D01*
X122523314Y-115754114D01*
X122485219Y-115677924D01*
X122447124Y-115525543D01*
X122447124Y-115335067D01*
X122485219Y-115182686D01*
X122523314Y-115106495D01*
X122561410Y-115068400D01*
X122637600Y-115030305D01*
X123399505Y-115030305D02*
X123475696Y-115030305D01*
X123551886Y-115068400D01*
X123589981Y-115106495D01*
X123628077Y-115182686D01*
X123666172Y-115335067D01*
X123666172Y-115525543D01*
X123628077Y-115677924D01*
X123589981Y-115754114D01*
X123551886Y-115792210D01*
X123475696Y-115830305D01*
X123399505Y-115830305D01*
X123323315Y-115792210D01*
X123285219Y-115754114D01*
X123247124Y-115677924D01*
X123209029Y-115525543D01*
X123209029Y-115335067D01*
X123247124Y-115182686D01*
X123285219Y-115106495D01*
X123323315Y-115068400D01*
X123399505Y-115030305D01*
X124009029Y-115296971D02*
X124009029Y-115830305D01*
X124009029Y-115373162D02*
X124047124Y-115335067D01*
X124123315Y-115296971D01*
X124237601Y-115296971D01*
X124313791Y-115335067D01*
X124351886Y-115411257D01*
X124351886Y-115830305D01*
X155746571Y-80283095D02*
X155784666Y-80245000D01*
X155860857Y-80206905D01*
X156051333Y-80206905D01*
X156127523Y-80245000D01*
X156165619Y-80283095D01*
X156203714Y-80359286D01*
X156203714Y-80435476D01*
X156165619Y-80549762D01*
X155708476Y-81006905D01*
X156203714Y-81006905D01*
X156508476Y-80283095D02*
X156546571Y-80245000D01*
X156622762Y-80206905D01*
X156813238Y-80206905D01*
X156889428Y-80245000D01*
X156927524Y-80283095D01*
X156965619Y-80359286D01*
X156965619Y-80435476D01*
X156927524Y-80549762D01*
X156470381Y-81006905D01*
X156965619Y-81006905D01*
X157651333Y-80473571D02*
X157651333Y-81006905D01*
X157308476Y-80473571D02*
X157308476Y-80892619D01*
X157346571Y-80968810D01*
X157422762Y-81006905D01*
X157537048Y-81006905D01*
X157613238Y-80968810D01*
X157651333Y-80930714D01*
X156203714Y-110191505D02*
X155746571Y-110191505D01*
X155975142Y-110191505D02*
X155975142Y-109391505D01*
X155898952Y-109505790D01*
X155822761Y-109581981D01*
X155746571Y-109620076D01*
X156698952Y-109391505D02*
X156775143Y-109391505D01*
X156851333Y-109429600D01*
X156889428Y-109467695D01*
X156927524Y-109543886D01*
X156965619Y-109696267D01*
X156965619Y-109886743D01*
X156927524Y-110039124D01*
X156889428Y-110115314D01*
X156851333Y-110153410D01*
X156775143Y-110191505D01*
X156698952Y-110191505D01*
X156622762Y-110153410D01*
X156584666Y-110115314D01*
X156546571Y-110039124D01*
X156508476Y-109886743D01*
X156508476Y-109696267D01*
X156546571Y-109543886D01*
X156584666Y-109467695D01*
X156622762Y-109429600D01*
X156698952Y-109391505D01*
X157651333Y-109658171D02*
X157651333Y-110191505D01*
X157308476Y-109658171D02*
X157308476Y-110077219D01*
X157346571Y-110153410D01*
X157422762Y-110191505D01*
X157537048Y-110191505D01*
X157613238Y-110153410D01*
X157651333Y-110115314D01*
X115322333Y-101320142D02*
X115322333Y-100939190D01*
X115550905Y-101396333D02*
X114750905Y-101129666D01*
X115550905Y-100862999D01*
X114750905Y-100710619D02*
X115550905Y-100443952D01*
X114750905Y-100177285D01*
X115550905Y-99453476D02*
X115169952Y-99720143D01*
X115550905Y-99910619D02*
X114750905Y-99910619D01*
X114750905Y-99605857D01*
X114789000Y-99529666D01*
X114827095Y-99491571D01*
X114903286Y-99453476D01*
X115017571Y-99453476D01*
X115093762Y-99491571D01*
X115131857Y-99529666D01*
X115169952Y-99605857D01*
X115169952Y-99910619D01*
X115246143Y-99110619D02*
X115246143Y-98501095D01*
X115550905Y-98120143D02*
X114750905Y-98120143D01*
X115512810Y-97777286D02*
X115550905Y-97663000D01*
X115550905Y-97472524D01*
X115512810Y-97396334D01*
X115474714Y-97358238D01*
X115398524Y-97320143D01*
X115322333Y-97320143D01*
X115246143Y-97358238D01*
X115208048Y-97396334D01*
X115169952Y-97472524D01*
X115131857Y-97624905D01*
X115093762Y-97701096D01*
X115055667Y-97739191D01*
X114979476Y-97777286D01*
X114903286Y-97777286D01*
X114827095Y-97739191D01*
X114789000Y-97701096D01*
X114750905Y-97624905D01*
X114750905Y-97434429D01*
X114789000Y-97320143D01*
X115550905Y-96977286D02*
X114750905Y-96977286D01*
X114750905Y-96672524D01*
X114789000Y-96596333D01*
X114827095Y-96558238D01*
X114903286Y-96520143D01*
X115017571Y-96520143D01*
X115093762Y-96558238D01*
X115131857Y-96596333D01*
X115169952Y-96672524D01*
X115169952Y-96977286D01*
X115246143Y-96177286D02*
X115246143Y-95567762D01*
X115550905Y-94767762D02*
X115550905Y-95224905D01*
X115550905Y-94996334D02*
X114750905Y-94996334D01*
X114865190Y-95072524D01*
X114941381Y-95148715D01*
X114979476Y-95224905D01*
X114750905Y-94272524D02*
X114750905Y-94196333D01*
X114789000Y-94120143D01*
X114827095Y-94082048D01*
X114903286Y-94043952D01*
X115055667Y-94005857D01*
X115246143Y-94005857D01*
X115398524Y-94043952D01*
X115474714Y-94082048D01*
X115512810Y-94120143D01*
X115550905Y-94196333D01*
X115550905Y-94272524D01*
X115512810Y-94348714D01*
X115474714Y-94386810D01*
X115398524Y-94424905D01*
X115246143Y-94463000D01*
X115055667Y-94463000D01*
X114903286Y-94424905D01*
X114827095Y-94386810D01*
X114789000Y-94348714D01*
X114750905Y-94272524D01*
X125355333Y-98926095D02*
X125355333Y-98545143D01*
X125583905Y-99002286D02*
X124783905Y-98735619D01*
X125583905Y-98468952D01*
X124783905Y-98316572D02*
X124783905Y-97859429D01*
X125583905Y-98088000D02*
X124783905Y-98088000D01*
X125583905Y-97592762D02*
X124783905Y-97592762D01*
X125355333Y-97326095D01*
X124783905Y-97059428D01*
X125583905Y-97059428D01*
X125164857Y-96678476D02*
X125164857Y-96411809D01*
X125583905Y-96297523D02*
X125583905Y-96678476D01*
X124783905Y-96678476D01*
X124783905Y-96297523D01*
X124822000Y-95535618D02*
X124783905Y-95611809D01*
X124783905Y-95726094D01*
X124822000Y-95840380D01*
X124898190Y-95916571D01*
X124974381Y-95954666D01*
X125126762Y-95992761D01*
X125241048Y-95992761D01*
X125393429Y-95954666D01*
X125469619Y-95916571D01*
X125545810Y-95840380D01*
X125583905Y-95726094D01*
X125583905Y-95649904D01*
X125545810Y-95535618D01*
X125507714Y-95497523D01*
X125241048Y-95497523D01*
X125241048Y-95649904D01*
X125355333Y-95192761D02*
X125355333Y-94811809D01*
X125583905Y-95268952D02*
X124783905Y-95002285D01*
X125583905Y-94735618D01*
X124783905Y-94545142D02*
X124783905Y-94049904D01*
X125088667Y-94316571D01*
X125088667Y-94202285D01*
X125126762Y-94126095D01*
X125164857Y-94087999D01*
X125241048Y-94049904D01*
X125431524Y-94049904D01*
X125507714Y-94087999D01*
X125545810Y-94126095D01*
X125583905Y-94202285D01*
X125583905Y-94430857D01*
X125545810Y-94507047D01*
X125507714Y-94545142D01*
X124860095Y-93745142D02*
X124822000Y-93707047D01*
X124783905Y-93630856D01*
X124783905Y-93440380D01*
X124822000Y-93364190D01*
X124860095Y-93326094D01*
X124936286Y-93287999D01*
X125012476Y-93287999D01*
X125126762Y-93326094D01*
X125583905Y-93783237D01*
X125583905Y-93287999D01*
X125126762Y-92830856D02*
X125088667Y-92907047D01*
X125050571Y-92945142D01*
X124974381Y-92983237D01*
X124936286Y-92983237D01*
X124860095Y-92945142D01*
X124822000Y-92907047D01*
X124783905Y-92830856D01*
X124783905Y-92678475D01*
X124822000Y-92602285D01*
X124860095Y-92564189D01*
X124936286Y-92526094D01*
X124974381Y-92526094D01*
X125050571Y-92564189D01*
X125088667Y-92602285D01*
X125126762Y-92678475D01*
X125126762Y-92830856D01*
X125164857Y-92907047D01*
X125202952Y-92945142D01*
X125279143Y-92983237D01*
X125431524Y-92983237D01*
X125507714Y-92945142D01*
X125545810Y-92907047D01*
X125583905Y-92830856D01*
X125583905Y-92678475D01*
X125545810Y-92602285D01*
X125507714Y-92564189D01*
X125431524Y-92526094D01*
X125279143Y-92526094D01*
X125202952Y-92564189D01*
X125164857Y-92602285D01*
X125126762Y-92678475D01*
X125583905Y-92183237D02*
X124783905Y-92183237D01*
X124783905Y-91878475D01*
X124822000Y-91802284D01*
X124860095Y-91764189D01*
X124936286Y-91726094D01*
X125050571Y-91726094D01*
X125126762Y-91764189D01*
X125164857Y-91802284D01*
X125202952Y-91878475D01*
X125202952Y-92183237D01*
X125279143Y-91383237D02*
X125279143Y-90773713D01*
X125355333Y-90430856D02*
X125355333Y-90049904D01*
X125583905Y-90507047D02*
X124783905Y-90240380D01*
X125583905Y-89973713D01*
X164344333Y-75355142D02*
X164344333Y-74974190D01*
X164572905Y-75431333D02*
X163772905Y-75164666D01*
X164572905Y-74897999D01*
X164572905Y-74631333D02*
X163772905Y-74631333D01*
X164572905Y-74174190D01*
X163772905Y-74174190D01*
X163772905Y-73907524D02*
X163772905Y-73450381D01*
X164572905Y-73678952D02*
X163772905Y-73678952D01*
X164153857Y-73183714D02*
X164153857Y-72917047D01*
X164572905Y-72802761D02*
X164572905Y-73183714D01*
X163772905Y-73183714D01*
X163772905Y-72802761D01*
X164572905Y-72459904D02*
X163772905Y-72459904D01*
X164572905Y-72002761D01*
X163772905Y-72002761D01*
X164572905Y-71621809D02*
X163772905Y-71621809D01*
X164572905Y-71164666D01*
X163772905Y-71164666D01*
X164344333Y-70821809D02*
X164344333Y-70440857D01*
X164572905Y-70898000D02*
X163772905Y-70631333D01*
X164572905Y-70364666D01*
X127666819Y-100260105D02*
X127209676Y-100260105D01*
X127438247Y-100260105D02*
X127438247Y-99460105D01*
X127362057Y-99574390D01*
X127285866Y-99650581D01*
X127209676Y-99688676D01*
X128162057Y-99460105D02*
X128238248Y-99460105D01*
X128314438Y-99498200D01*
X128352533Y-99536295D01*
X128390629Y-99612486D01*
X128428724Y-99764867D01*
X128428724Y-99955343D01*
X128390629Y-100107724D01*
X128352533Y-100183914D01*
X128314438Y-100222010D01*
X128238248Y-100260105D01*
X128162057Y-100260105D01*
X128085867Y-100222010D01*
X128047771Y-100183914D01*
X128009676Y-100107724D01*
X127971581Y-99955343D01*
X127971581Y-99764867D01*
X128009676Y-99612486D01*
X128047771Y-99536295D01*
X128085867Y-99498200D01*
X128162057Y-99460105D01*
X128771581Y-100260105D02*
X128771581Y-99460105D01*
X129228724Y-100260105D02*
X128885867Y-99802962D01*
X129228724Y-99460105D02*
X128771581Y-99917248D01*
X138004571Y-88004572D02*
X138537905Y-88004572D01*
X137699810Y-88195048D02*
X138271238Y-88385524D01*
X138271238Y-87890286D01*
X138537905Y-87585524D02*
X137737905Y-87585524D01*
X138537905Y-87128381D02*
X138080762Y-87471238D01*
X137737905Y-87128381D02*
X138195048Y-87585524D01*
X137737905Y-86861714D02*
X137737905Y-86328381D01*
X138537905Y-86671238D01*
X142195666Y-82149905D02*
X142348047Y-82149905D01*
X142424238Y-82111810D01*
X142462333Y-82073714D01*
X142538524Y-81959429D01*
X142576619Y-81807048D01*
X142576619Y-81502286D01*
X142538524Y-81426095D01*
X142500428Y-81388000D01*
X142424238Y-81349905D01*
X142271857Y-81349905D01*
X142195666Y-81388000D01*
X142157571Y-81426095D01*
X142119476Y-81502286D01*
X142119476Y-81692762D01*
X142157571Y-81768952D01*
X142195666Y-81807048D01*
X142271857Y-81845143D01*
X142424238Y-81845143D01*
X142500428Y-81807048D01*
X142538524Y-81768952D01*
X142576619Y-81692762D01*
X142919476Y-82149905D02*
X142919476Y-81349905D01*
X143376619Y-82149905D02*
X143033762Y-81692762D01*
X143376619Y-81349905D02*
X142919476Y-81807048D01*
X144138524Y-82149905D02*
X143681381Y-82149905D01*
X143909952Y-82149905D02*
X143909952Y-81349905D01*
X143833762Y-81464190D01*
X143757571Y-81540381D01*
X143681381Y-81578476D01*
X145548428Y-94824571D02*
X145548428Y-95357905D01*
X145357952Y-94519810D02*
X145167476Y-95091238D01*
X145662714Y-95091238D01*
X145967476Y-95357905D02*
X145967476Y-94557905D01*
X146424619Y-95357905D02*
X146081762Y-94900762D01*
X146424619Y-94557905D02*
X145967476Y-95015048D01*
X146691286Y-94557905D02*
X147224619Y-94557905D01*
X146881762Y-95357905D01*
X142601905Y-88309334D02*
X142601905Y-88156953D01*
X142563810Y-88080762D01*
X142525714Y-88042667D01*
X142411429Y-87966476D01*
X142259048Y-87928381D01*
X141954286Y-87928381D01*
X141878095Y-87966476D01*
X141840000Y-88004572D01*
X141801905Y-88080762D01*
X141801905Y-88233143D01*
X141840000Y-88309334D01*
X141878095Y-88347429D01*
X141954286Y-88385524D01*
X142144762Y-88385524D01*
X142220952Y-88347429D01*
X142259048Y-88309334D01*
X142297143Y-88233143D01*
X142297143Y-88080762D01*
X142259048Y-88004572D01*
X142220952Y-87966476D01*
X142144762Y-87928381D01*
X142601905Y-87585524D02*
X141801905Y-87585524D01*
X142601905Y-87128381D02*
X142144762Y-87471238D01*
X141801905Y-87128381D02*
X142259048Y-87585524D01*
X142601905Y-86366476D02*
X142601905Y-86823619D01*
X142601905Y-86595048D02*
X141801905Y-86595048D01*
X141916190Y-86671238D01*
X141992381Y-86747429D01*
X142030476Y-86823619D01*
X145624619Y-98913905D02*
X145167476Y-98913905D01*
X145396047Y-98913905D02*
X145396047Y-98113905D01*
X145319857Y-98228190D01*
X145243666Y-98304381D01*
X145167476Y-98342476D01*
X146119857Y-98113905D02*
X146196048Y-98113905D01*
X146272238Y-98152000D01*
X146310333Y-98190095D01*
X146348429Y-98266286D01*
X146386524Y-98418667D01*
X146386524Y-98609143D01*
X146348429Y-98761524D01*
X146310333Y-98837714D01*
X146272238Y-98875810D01*
X146196048Y-98913905D01*
X146119857Y-98913905D01*
X146043667Y-98875810D01*
X146005571Y-98837714D01*
X145967476Y-98761524D01*
X145929381Y-98609143D01*
X145929381Y-98418667D01*
X145967476Y-98266286D01*
X146005571Y-98190095D01*
X146043667Y-98152000D01*
X146119857Y-98113905D01*
X146729381Y-98913905D02*
X146729381Y-98113905D01*
X147186524Y-98913905D02*
X146843667Y-98456762D01*
X147186524Y-98113905D02*
X146729381Y-98571048D01*
X122396210Y-112528001D02*
X122434305Y-112413715D01*
X122434305Y-112223239D01*
X122396210Y-112147049D01*
X122358114Y-112108953D01*
X122281924Y-112070858D01*
X122205733Y-112070858D01*
X122129543Y-112108953D01*
X122091448Y-112147049D01*
X122053352Y-112223239D01*
X122015257Y-112375620D01*
X121977162Y-112451811D01*
X121939067Y-112489906D01*
X121862876Y-112528001D01*
X121786686Y-112528001D01*
X121710495Y-112489906D01*
X121672400Y-112451811D01*
X121634305Y-112375620D01*
X121634305Y-112185144D01*
X121672400Y-112070858D01*
X121634305Y-111804191D02*
X122434305Y-111613715D01*
X121862876Y-111461334D01*
X122434305Y-111308953D01*
X121634305Y-111118477D01*
X122510495Y-111004191D02*
X122510495Y-110394667D01*
X122434305Y-109747048D02*
X122053352Y-110013715D01*
X122434305Y-110204191D02*
X121634305Y-110204191D01*
X121634305Y-109899429D01*
X121672400Y-109823238D01*
X121710495Y-109785143D01*
X121786686Y-109747048D01*
X121900971Y-109747048D01*
X121977162Y-109785143D01*
X122015257Y-109823238D01*
X122053352Y-109899429D01*
X122053352Y-110204191D01*
X122015257Y-109404191D02*
X122015257Y-109137524D01*
X122434305Y-109023238D02*
X122434305Y-109404191D01*
X121634305Y-109404191D01*
X121634305Y-109023238D01*
X122396210Y-108718476D02*
X122434305Y-108604190D01*
X122434305Y-108413714D01*
X122396210Y-108337524D01*
X122358114Y-108299428D01*
X122281924Y-108261333D01*
X122205733Y-108261333D01*
X122129543Y-108299428D01*
X122091448Y-108337524D01*
X122053352Y-108413714D01*
X122015257Y-108566095D01*
X121977162Y-108642286D01*
X121939067Y-108680381D01*
X121862876Y-108718476D01*
X121786686Y-108718476D01*
X121710495Y-108680381D01*
X121672400Y-108642286D01*
X121634305Y-108566095D01*
X121634305Y-108375619D01*
X121672400Y-108261333D01*
X122015257Y-107918476D02*
X122015257Y-107651809D01*
X122434305Y-107537523D02*
X122434305Y-107918476D01*
X121634305Y-107918476D01*
X121634305Y-107537523D01*
X121634305Y-107308952D02*
X121634305Y-106851809D01*
X122434305Y-107080380D02*
X121634305Y-107080380D01*
X156794905Y-96424476D02*
X156413952Y-96691143D01*
X156794905Y-96881619D02*
X155994905Y-96881619D01*
X155994905Y-96576857D01*
X156033000Y-96500666D01*
X156071095Y-96462571D01*
X156147286Y-96424476D01*
X156261571Y-96424476D01*
X156337762Y-96462571D01*
X156375857Y-96500666D01*
X156413952Y-96576857D01*
X156413952Y-96881619D01*
X156375857Y-95814952D02*
X156375857Y-96081619D01*
X156794905Y-96081619D02*
X155994905Y-96081619D01*
X155994905Y-95700666D01*
X156794905Y-95395905D02*
X155994905Y-95395905D01*
X156566333Y-95129238D01*
X155994905Y-94862571D01*
X156794905Y-94862571D01*
X155994905Y-94138762D02*
X155994905Y-94291143D01*
X156033000Y-94367333D01*
X156071095Y-94405428D01*
X156185381Y-94481619D01*
X156337762Y-94519714D01*
X156642524Y-94519714D01*
X156718714Y-94481619D01*
X156756810Y-94443524D01*
X156794905Y-94367333D01*
X156794905Y-94214952D01*
X156756810Y-94138762D01*
X156718714Y-94100666D01*
X156642524Y-94062571D01*
X156452048Y-94062571D01*
X156375857Y-94100666D01*
X156337762Y-94138762D01*
X156299667Y-94214952D01*
X156299667Y-94367333D01*
X156337762Y-94443524D01*
X156375857Y-94481619D01*
X156452048Y-94519714D01*
X156794905Y-93681619D02*
X156794905Y-93529238D01*
X156756810Y-93453047D01*
X156718714Y-93414952D01*
X156604429Y-93338761D01*
X156452048Y-93300666D01*
X156147286Y-93300666D01*
X156071095Y-93338761D01*
X156033000Y-93376857D01*
X155994905Y-93453047D01*
X155994905Y-93605428D01*
X156033000Y-93681619D01*
X156071095Y-93719714D01*
X156147286Y-93757809D01*
X156337762Y-93757809D01*
X156413952Y-93719714D01*
X156452048Y-93681619D01*
X156490143Y-93605428D01*
X156490143Y-93453047D01*
X156452048Y-93376857D01*
X156413952Y-93338761D01*
X156337762Y-93300666D01*
X156794905Y-92957809D02*
X155994905Y-92957809D01*
X156375857Y-92957809D02*
X156375857Y-92500666D01*
X156794905Y-92500666D02*
X155994905Y-92500666D01*
X155994905Y-92195904D02*
X156794905Y-92005428D01*
X156223476Y-91853047D01*
X156794905Y-91700666D01*
X155994905Y-91510190D01*
X130238714Y-74199714D02*
X130200619Y-74237810D01*
X130086333Y-74275905D01*
X130010143Y-74275905D01*
X129895857Y-74237810D01*
X129819666Y-74161619D01*
X129781571Y-74085429D01*
X129743476Y-73933048D01*
X129743476Y-73818762D01*
X129781571Y-73666381D01*
X129819666Y-73590190D01*
X129895857Y-73514000D01*
X130010143Y-73475905D01*
X130086333Y-73475905D01*
X130200619Y-73514000D01*
X130238714Y-73552095D01*
X130581571Y-74275905D02*
X130581571Y-73475905D01*
X130581571Y-73856857D02*
X131038714Y-73856857D01*
X131038714Y-74275905D02*
X131038714Y-73475905D01*
X131343476Y-73475905D02*
X131838714Y-73475905D01*
X131572047Y-73780667D01*
X131686333Y-73780667D01*
X131762523Y-73818762D01*
X131800619Y-73856857D01*
X131838714Y-73933048D01*
X131838714Y-74123524D01*
X131800619Y-74199714D01*
X131762523Y-74237810D01*
X131686333Y-74275905D01*
X131457761Y-74275905D01*
X131381571Y-74237810D01*
X131343476Y-74199714D01*
X132524428Y-73742571D02*
X132524428Y-74275905D01*
X132333952Y-73437810D02*
X132143476Y-74009238D01*
X132638714Y-74009238D01*
X133095857Y-73475905D02*
X133172048Y-73475905D01*
X133248238Y-73514000D01*
X133286333Y-73552095D01*
X133324429Y-73628286D01*
X133362524Y-73780667D01*
X133362524Y-73971143D01*
X133324429Y-74123524D01*
X133286333Y-74199714D01*
X133248238Y-74237810D01*
X133172048Y-74275905D01*
X133095857Y-74275905D01*
X133019667Y-74237810D01*
X132981571Y-74199714D01*
X132943476Y-74123524D01*
X132905381Y-73971143D01*
X132905381Y-73780667D01*
X132943476Y-73628286D01*
X132981571Y-73552095D01*
X133019667Y-73514000D01*
X133095857Y-73475905D01*
X134124429Y-73514000D02*
X134048238Y-73475905D01*
X133933953Y-73475905D01*
X133819667Y-73514000D01*
X133743476Y-73590190D01*
X133705381Y-73666381D01*
X133667286Y-73818762D01*
X133667286Y-73933048D01*
X133705381Y-74085429D01*
X133743476Y-74161619D01*
X133819667Y-74237810D01*
X133933953Y-74275905D01*
X134010143Y-74275905D01*
X134124429Y-74237810D01*
X134162524Y-74199714D01*
X134162524Y-73933048D01*
X134010143Y-73933048D01*
X152718000Y-64395333D02*
X153098952Y-64395333D01*
X152641809Y-64623905D02*
X152908476Y-63823905D01*
X153175143Y-64623905D01*
X153441809Y-64623905D02*
X153441809Y-63823905D01*
X153708476Y-64395333D01*
X153975143Y-63823905D01*
X153975143Y-64623905D01*
X154318000Y-64585810D02*
X154432286Y-64623905D01*
X154622762Y-64623905D01*
X154698952Y-64585810D01*
X154737048Y-64547714D01*
X154775143Y-64471524D01*
X154775143Y-64395333D01*
X154737048Y-64319143D01*
X154698952Y-64281048D01*
X154622762Y-64242952D01*
X154470381Y-64204857D01*
X154394190Y-64166762D01*
X154356095Y-64128667D01*
X154318000Y-64052476D01*
X154318000Y-63976286D01*
X154356095Y-63900095D01*
X154394190Y-63862000D01*
X154470381Y-63823905D01*
X154660857Y-63823905D01*
X154775143Y-63862000D01*
X155537048Y-64623905D02*
X155079905Y-64623905D01*
X155308476Y-64623905D02*
X155308476Y-63823905D01*
X155232286Y-63938190D01*
X155156095Y-64014381D01*
X155079905Y-64052476D01*
X156298953Y-64623905D02*
X155841810Y-64623905D01*
X156070381Y-64623905D02*
X156070381Y-63823905D01*
X155994191Y-63938190D01*
X155918000Y-64014381D01*
X155841810Y-64052476D01*
X157060858Y-64623905D02*
X156603715Y-64623905D01*
X156832286Y-64623905D02*
X156832286Y-63823905D01*
X156756096Y-63938190D01*
X156679905Y-64014381D01*
X156603715Y-64052476D01*
X157327525Y-63823905D02*
X157860858Y-63823905D01*
X157518001Y-64623905D01*
X158165620Y-64319143D02*
X158775144Y-64319143D01*
X159079906Y-63823905D02*
X159575144Y-63823905D01*
X159308477Y-64128667D01*
X159422763Y-64128667D01*
X159498953Y-64166762D01*
X159537049Y-64204857D01*
X159575144Y-64281048D01*
X159575144Y-64471524D01*
X159537049Y-64547714D01*
X159498953Y-64585810D01*
X159422763Y-64623905D01*
X159194191Y-64623905D01*
X159118001Y-64585810D01*
X159079906Y-64547714D01*
X159918001Y-64547714D02*
X159956096Y-64585810D01*
X159918001Y-64623905D01*
X159879906Y-64585810D01*
X159918001Y-64547714D01*
X159918001Y-64623905D01*
X160222763Y-63823905D02*
X160718001Y-63823905D01*
X160451334Y-64128667D01*
X160565620Y-64128667D01*
X160641810Y-64166762D01*
X160679906Y-64204857D01*
X160718001Y-64281048D01*
X160718001Y-64471524D01*
X160679906Y-64547714D01*
X160641810Y-64585810D01*
X160565620Y-64623905D01*
X160337048Y-64623905D01*
X160260858Y-64585810D01*
X160222763Y-64547714D01*
X115043000Y-80200333D02*
X115004905Y-80276524D01*
X115004905Y-80390809D01*
X115043000Y-80505095D01*
X115119190Y-80581286D01*
X115195381Y-80619381D01*
X115347762Y-80657476D01*
X115462048Y-80657476D01*
X115614429Y-80619381D01*
X115690619Y-80581286D01*
X115766810Y-80505095D01*
X115804905Y-80390809D01*
X115804905Y-80314619D01*
X115766810Y-80200333D01*
X115728714Y-80162238D01*
X115462048Y-80162238D01*
X115462048Y-80314619D01*
X115004905Y-79895571D02*
X115804905Y-79705095D01*
X115233476Y-79552714D01*
X115804905Y-79400333D01*
X115004905Y-79209857D01*
X115881095Y-79095571D02*
X115881095Y-78486047D01*
X115804905Y-77838428D02*
X115423952Y-78105095D01*
X115804905Y-78295571D02*
X115004905Y-78295571D01*
X115004905Y-77990809D01*
X115043000Y-77914618D01*
X115081095Y-77876523D01*
X115157286Y-77838428D01*
X115271571Y-77838428D01*
X115347762Y-77876523D01*
X115385857Y-77914618D01*
X115423952Y-77990809D01*
X115423952Y-78295571D01*
X115004905Y-77571761D02*
X115804905Y-77038428D01*
X115004905Y-77038428D02*
X115804905Y-77571761D01*
X115043000Y-85185095D02*
X115004905Y-85261286D01*
X115004905Y-85375571D01*
X115043000Y-85489857D01*
X115119190Y-85566048D01*
X115195381Y-85604143D01*
X115347762Y-85642238D01*
X115462048Y-85642238D01*
X115614429Y-85604143D01*
X115690619Y-85566048D01*
X115766810Y-85489857D01*
X115804905Y-85375571D01*
X115804905Y-85299381D01*
X115766810Y-85185095D01*
X115728714Y-85147000D01*
X115462048Y-85147000D01*
X115462048Y-85299381D01*
X115004905Y-84880333D02*
X115804905Y-84689857D01*
X115233476Y-84537476D01*
X115804905Y-84385095D01*
X115004905Y-84194619D01*
X115881095Y-84080333D02*
X115881095Y-83470809D01*
X115004905Y-83394619D02*
X115004905Y-82937476D01*
X115804905Y-83166047D02*
X115004905Y-83166047D01*
X115004905Y-82746999D02*
X115804905Y-82213666D01*
X115004905Y-82213666D02*
X115804905Y-82746999D01*
X115043000Y-91503286D02*
X115004905Y-91579477D01*
X115004905Y-91693762D01*
X115043000Y-91808048D01*
X115119190Y-91884239D01*
X115195381Y-91922334D01*
X115347762Y-91960429D01*
X115462048Y-91960429D01*
X115614429Y-91922334D01*
X115690619Y-91884239D01*
X115766810Y-91808048D01*
X115804905Y-91693762D01*
X115804905Y-91617572D01*
X115766810Y-91503286D01*
X115728714Y-91465191D01*
X115462048Y-91465191D01*
X115462048Y-91617572D01*
X115004905Y-91198524D02*
X115804905Y-91008048D01*
X115233476Y-90855667D01*
X115804905Y-90703286D01*
X115004905Y-90512810D01*
X115881095Y-90398524D02*
X115881095Y-89789000D01*
X115385857Y-89598524D02*
X115385857Y-89331857D01*
X115804905Y-89217571D02*
X115804905Y-89598524D01*
X115004905Y-89598524D01*
X115004905Y-89217571D01*
X115804905Y-88417571D02*
X115423952Y-88684238D01*
X115804905Y-88874714D02*
X115004905Y-88874714D01*
X115004905Y-88569952D01*
X115043000Y-88493761D01*
X115081095Y-88455666D01*
X115157286Y-88417571D01*
X115271571Y-88417571D01*
X115347762Y-88455666D01*
X115385857Y-88493761D01*
X115423952Y-88569952D01*
X115423952Y-88874714D01*
X115804905Y-87617571D02*
X115423952Y-87884238D01*
X115804905Y-88074714D02*
X115004905Y-88074714D01*
X115004905Y-87769952D01*
X115043000Y-87693761D01*
X115081095Y-87655666D01*
X115157286Y-87617571D01*
X115271571Y-87617571D01*
X115347762Y-87655666D01*
X115385857Y-87693761D01*
X115423952Y-87769952D01*
X115423952Y-88074714D01*
X128257429Y-76142905D02*
X128752667Y-76142905D01*
X128486000Y-76447667D01*
X128600286Y-76447667D01*
X128676476Y-76485762D01*
X128714572Y-76523857D01*
X128752667Y-76600048D01*
X128752667Y-76790524D01*
X128714572Y-76866714D01*
X128676476Y-76904810D01*
X128600286Y-76942905D01*
X128371714Y-76942905D01*
X128295524Y-76904810D01*
X128257429Y-76866714D01*
X129019334Y-76142905D02*
X129514572Y-76142905D01*
X129247905Y-76447667D01*
X129362191Y-76447667D01*
X129438381Y-76485762D01*
X129476477Y-76523857D01*
X129514572Y-76600048D01*
X129514572Y-76790524D01*
X129476477Y-76866714D01*
X129438381Y-76904810D01*
X129362191Y-76942905D01*
X129133619Y-76942905D01*
X129057429Y-76904810D01*
X129019334Y-76866714D01*
X130009810Y-76142905D02*
X130086001Y-76142905D01*
X130162191Y-76181000D01*
X130200286Y-76219095D01*
X130238382Y-76295286D01*
X130276477Y-76447667D01*
X130276477Y-76638143D01*
X130238382Y-76790524D01*
X130200286Y-76866714D01*
X130162191Y-76904810D01*
X130086001Y-76942905D01*
X130009810Y-76942905D01*
X129933620Y-76904810D01*
X129895524Y-76866714D01*
X129857429Y-76790524D01*
X129819334Y-76638143D01*
X129819334Y-76447667D01*
X129857429Y-76295286D01*
X129895524Y-76219095D01*
X129933620Y-76181000D01*
X130009810Y-76142905D01*
X127368429Y-80460905D02*
X127863667Y-80460905D01*
X127597000Y-80765667D01*
X127711286Y-80765667D01*
X127787476Y-80803762D01*
X127825572Y-80841857D01*
X127863667Y-80918048D01*
X127863667Y-81108524D01*
X127825572Y-81184714D01*
X127787476Y-81222810D01*
X127711286Y-81260905D01*
X127482714Y-81260905D01*
X127406524Y-81222810D01*
X127368429Y-81184714D01*
X128130334Y-80460905D02*
X128625572Y-80460905D01*
X128358905Y-80765667D01*
X128473191Y-80765667D01*
X128549381Y-80803762D01*
X128587477Y-80841857D01*
X128625572Y-80918048D01*
X128625572Y-81108524D01*
X128587477Y-81184714D01*
X128549381Y-81222810D01*
X128473191Y-81260905D01*
X128244619Y-81260905D01*
X128168429Y-81222810D01*
X128130334Y-81184714D01*
X129120810Y-80460905D02*
X129197001Y-80460905D01*
X129273191Y-80499000D01*
X129311286Y-80537095D01*
X129349382Y-80613286D01*
X129387477Y-80765667D01*
X129387477Y-80956143D01*
X129349382Y-81108524D01*
X129311286Y-81184714D01*
X129273191Y-81222810D01*
X129197001Y-81260905D01*
X129120810Y-81260905D01*
X129044620Y-81222810D01*
X129006524Y-81184714D01*
X128968429Y-81108524D01*
X128930334Y-80956143D01*
X128930334Y-80765667D01*
X128968429Y-80613286D01*
X129006524Y-80537095D01*
X129044620Y-80499000D01*
X129120810Y-80460905D01*
X126606429Y-84524905D02*
X127101667Y-84524905D01*
X126835000Y-84829667D01*
X126949286Y-84829667D01*
X127025476Y-84867762D01*
X127063572Y-84905857D01*
X127101667Y-84982048D01*
X127101667Y-85172524D01*
X127063572Y-85248714D01*
X127025476Y-85286810D01*
X126949286Y-85324905D01*
X126720714Y-85324905D01*
X126644524Y-85286810D01*
X126606429Y-85248714D01*
X127368334Y-84524905D02*
X127863572Y-84524905D01*
X127596905Y-84829667D01*
X127711191Y-84829667D01*
X127787381Y-84867762D01*
X127825477Y-84905857D01*
X127863572Y-84982048D01*
X127863572Y-85172524D01*
X127825477Y-85248714D01*
X127787381Y-85286810D01*
X127711191Y-85324905D01*
X127482619Y-85324905D01*
X127406429Y-85286810D01*
X127368334Y-85248714D01*
X128358810Y-84524905D02*
X128435001Y-84524905D01*
X128511191Y-84563000D01*
X128549286Y-84601095D01*
X128587382Y-84677286D01*
X128625477Y-84829667D01*
X128625477Y-85020143D01*
X128587382Y-85172524D01*
X128549286Y-85248714D01*
X128511191Y-85286810D01*
X128435001Y-85324905D01*
X128358810Y-85324905D01*
X128282620Y-85286810D01*
X128244524Y-85248714D01*
X128206429Y-85172524D01*
X128168334Y-85020143D01*
X128168334Y-84829667D01*
X128206429Y-84677286D01*
X128244524Y-84601095D01*
X128282620Y-84563000D01*
X128358810Y-84524905D01*
X123742928Y-62655405D02*
X123742928Y-61855405D01*
X124009595Y-62426833D01*
X124276262Y-61855405D01*
X124276262Y-62655405D01*
X124923881Y-62236357D02*
X124657214Y-62236357D01*
X124657214Y-62655405D02*
X124657214Y-61855405D01*
X125038167Y-61855405D01*
X125342928Y-62350643D02*
X125952452Y-62350643D01*
X126295309Y-62617310D02*
X126409595Y-62655405D01*
X126600071Y-62655405D01*
X126676261Y-62617310D01*
X126714357Y-62579214D01*
X126752452Y-62503024D01*
X126752452Y-62426833D01*
X126714357Y-62350643D01*
X126676261Y-62312548D01*
X126600071Y-62274452D01*
X126447690Y-62236357D01*
X126371499Y-62198262D01*
X126333404Y-62160167D01*
X126295309Y-62083976D01*
X126295309Y-62007786D01*
X126333404Y-61931595D01*
X126371499Y-61893500D01*
X126447690Y-61855405D01*
X126638166Y-61855405D01*
X126752452Y-61893500D01*
X127095309Y-62655405D02*
X127095309Y-61855405D01*
X127361976Y-62426833D01*
X127628643Y-61855405D01*
X127628643Y-62655405D01*
X128009595Y-62655405D02*
X128009595Y-61855405D01*
X128200071Y-61855405D01*
X128314357Y-61893500D01*
X128390548Y-61969690D01*
X128428643Y-62045881D01*
X128466738Y-62198262D01*
X128466738Y-62312548D01*
X128428643Y-62464929D01*
X128390548Y-62541119D01*
X128314357Y-62617310D01*
X128200071Y-62655405D01*
X128009595Y-62655405D01*
X129076262Y-62236357D02*
X128809595Y-62236357D01*
X128809595Y-62655405D02*
X128809595Y-61855405D01*
X129190548Y-61855405D01*
X129647690Y-61855405D02*
X129723881Y-61855405D01*
X129800071Y-61893500D01*
X129838166Y-61931595D01*
X129876262Y-62007786D01*
X129914357Y-62160167D01*
X129914357Y-62350643D01*
X129876262Y-62503024D01*
X129838166Y-62579214D01*
X129800071Y-62617310D01*
X129723881Y-62655405D01*
X129647690Y-62655405D01*
X129571500Y-62617310D01*
X129533404Y-62579214D01*
X129495309Y-62503024D01*
X129457214Y-62350643D01*
X129457214Y-62160167D01*
X129495309Y-62007786D01*
X129533404Y-61931595D01*
X129571500Y-61893500D01*
X129647690Y-61855405D01*
X130638167Y-61855405D02*
X130257214Y-61855405D01*
X130219119Y-62236357D01*
X130257214Y-62198262D01*
X130333405Y-62160167D01*
X130523881Y-62160167D01*
X130600071Y-62198262D01*
X130638167Y-62236357D01*
X130676262Y-62312548D01*
X130676262Y-62503024D01*
X130638167Y-62579214D01*
X130600071Y-62617310D01*
X130523881Y-62655405D01*
X130333405Y-62655405D01*
X130257214Y-62617310D01*
X130219119Y-62579214D01*
X131171500Y-61855405D02*
X131247691Y-61855405D01*
X131323881Y-61893500D01*
X131361976Y-61931595D01*
X131400072Y-62007786D01*
X131438167Y-62160167D01*
X131438167Y-62350643D01*
X131400072Y-62503024D01*
X131361976Y-62579214D01*
X131323881Y-62617310D01*
X131247691Y-62655405D01*
X131171500Y-62655405D01*
X131095310Y-62617310D01*
X131057214Y-62579214D01*
X131019119Y-62503024D01*
X130981024Y-62350643D01*
X130981024Y-62160167D01*
X131019119Y-62007786D01*
X131057214Y-61931595D01*
X131095310Y-61893500D01*
X131171500Y-61855405D01*
X141676381Y-61952047D02*
X141676381Y-62523476D01*
X141676381Y-62237762D02*
X140676381Y-62237762D01*
X140819238Y-62333000D01*
X140914476Y-62428238D01*
X140962095Y-62523476D01*
X140676381Y-61333000D02*
X140676381Y-61237761D01*
X140724000Y-61142523D01*
X140771619Y-61094904D01*
X140866857Y-61047285D01*
X141057333Y-60999666D01*
X141295429Y-60999666D01*
X141485905Y-61047285D01*
X141581143Y-61094904D01*
X141628762Y-61142523D01*
X141676381Y-61237761D01*
X141676381Y-61333000D01*
X141628762Y-61428238D01*
X141581143Y-61475857D01*
X141485905Y-61523476D01*
X141295429Y-61571095D01*
X141057333Y-61571095D01*
X140866857Y-61523476D01*
X140771619Y-61475857D01*
X140724000Y-61428238D01*
X140676381Y-61333000D01*
X140676381Y-60380619D02*
X140676381Y-60285380D01*
X140724000Y-60190142D01*
X140771619Y-60142523D01*
X140866857Y-60094904D01*
X141057333Y-60047285D01*
X141295429Y-60047285D01*
X141485905Y-60094904D01*
X141581143Y-60142523D01*
X141628762Y-60190142D01*
X141676381Y-60285380D01*
X141676381Y-60380619D01*
X141628762Y-60475857D01*
X141581143Y-60523476D01*
X141485905Y-60571095D01*
X141295429Y-60618714D01*
X141057333Y-60618714D01*
X140866857Y-60571095D01*
X140771619Y-60523476D01*
X140724000Y-60475857D01*
X140676381Y-60380619D01*
X141009714Y-59618714D02*
X141676381Y-59618714D01*
X141104952Y-59618714D02*
X141057333Y-59571095D01*
X141009714Y-59475857D01*
X141009714Y-59332999D01*
X141057333Y-59237761D01*
X141152571Y-59190142D01*
X141676381Y-59190142D01*
X146488114Y-61194895D02*
X146526210Y-61232990D01*
X146564305Y-61347276D01*
X146564305Y-61423466D01*
X146526210Y-61537752D01*
X146450019Y-61613943D01*
X146373829Y-61652038D01*
X146221448Y-61690133D01*
X146107162Y-61690133D01*
X145954781Y-61652038D01*
X145878590Y-61613943D01*
X145802400Y-61537752D01*
X145764305Y-61423466D01*
X145764305Y-61347276D01*
X145802400Y-61232990D01*
X145840495Y-61194895D01*
X145764305Y-60966324D02*
X145764305Y-60509181D01*
X146564305Y-60737752D02*
X145764305Y-60737752D01*
X146526210Y-60280609D02*
X146564305Y-60166323D01*
X146564305Y-59975847D01*
X146526210Y-59899657D01*
X146488114Y-59861561D01*
X146411924Y-59823466D01*
X146335733Y-59823466D01*
X146259543Y-59861561D01*
X146221448Y-59899657D01*
X146183352Y-59975847D01*
X146145257Y-60128228D01*
X146107162Y-60204419D01*
X146069067Y-60242514D01*
X145992876Y-60280609D01*
X145916686Y-60280609D01*
X145840495Y-60242514D01*
X145802400Y-60204419D01*
X145764305Y-60128228D01*
X145764305Y-59937752D01*
X145802400Y-59823466D01*
X145518286Y-79922714D02*
X145518286Y-80589381D01*
X145280190Y-79541762D02*
X145042095Y-80256048D01*
X145661143Y-80256048D01*
X146042095Y-80589381D02*
X146042095Y-79589381D01*
X146613524Y-80589381D02*
X146184952Y-80017952D01*
X146613524Y-79589381D02*
X146042095Y-80160810D01*
X146946857Y-79589381D02*
X147613524Y-79589381D01*
X147184952Y-80589381D01*
X145391333Y-77541381D02*
X145581809Y-77541381D01*
X145677048Y-77493762D01*
X145724667Y-77446143D01*
X145819905Y-77303286D01*
X145867524Y-77112810D01*
X145867524Y-76731857D01*
X145819905Y-76636619D01*
X145772286Y-76589000D01*
X145677048Y-76541381D01*
X145486571Y-76541381D01*
X145391333Y-76589000D01*
X145343714Y-76636619D01*
X145296095Y-76731857D01*
X145296095Y-76969952D01*
X145343714Y-77065190D01*
X145391333Y-77112810D01*
X145486571Y-77160429D01*
X145677048Y-77160429D01*
X145772286Y-77112810D01*
X145819905Y-77065190D01*
X145867524Y-76969952D01*
X146296095Y-77541381D02*
X146296095Y-76541381D01*
X146867524Y-77541381D02*
X146438952Y-76969952D01*
X146867524Y-76541381D02*
X146296095Y-77112810D01*
X147819905Y-77541381D02*
X147248476Y-77541381D01*
X147534190Y-77541381D02*
X147534190Y-76541381D01*
X147438952Y-76684238D01*
X147343714Y-76779476D01*
X147248476Y-76827095D01*
X134029405Y-62788477D02*
X133229405Y-62788477D01*
X133800833Y-62521810D01*
X133229405Y-62255143D01*
X134029405Y-62255143D01*
X133610357Y-61607524D02*
X133648452Y-61493238D01*
X133686548Y-61455143D01*
X133762738Y-61417048D01*
X133877024Y-61417048D01*
X133953214Y-61455143D01*
X133991310Y-61493238D01*
X134029405Y-61569429D01*
X134029405Y-61874191D01*
X133229405Y-61874191D01*
X133229405Y-61607524D01*
X133267500Y-61531334D01*
X133305595Y-61493238D01*
X133381786Y-61455143D01*
X133457976Y-61455143D01*
X133534167Y-61493238D01*
X133572262Y-61531334D01*
X133610357Y-61607524D01*
X133610357Y-61874191D01*
X134029405Y-60617048D02*
X133648452Y-60883715D01*
X134029405Y-61074191D02*
X133229405Y-61074191D01*
X133229405Y-60769429D01*
X133267500Y-60693238D01*
X133305595Y-60655143D01*
X133381786Y-60617048D01*
X133496071Y-60617048D01*
X133572262Y-60655143D01*
X133610357Y-60693238D01*
X133648452Y-60769429D01*
X133648452Y-61074191D01*
X133229405Y-60121810D02*
X133229405Y-60045619D01*
X133267500Y-59969429D01*
X133305595Y-59931334D01*
X133381786Y-59893238D01*
X133534167Y-59855143D01*
X133724643Y-59855143D01*
X133877024Y-59893238D01*
X133953214Y-59931334D01*
X133991310Y-59969429D01*
X134029405Y-60045619D01*
X134029405Y-60121810D01*
X133991310Y-60198000D01*
X133953214Y-60236096D01*
X133877024Y-60274191D01*
X133724643Y-60312286D01*
X133534167Y-60312286D01*
X133381786Y-60274191D01*
X133305595Y-60236096D01*
X133267500Y-60198000D01*
X133229405Y-60121810D01*
X133229405Y-59131333D02*
X133229405Y-59512286D01*
X133610357Y-59550381D01*
X133572262Y-59512286D01*
X133534167Y-59436095D01*
X133534167Y-59245619D01*
X133572262Y-59169429D01*
X133610357Y-59131333D01*
X133686548Y-59093238D01*
X133877024Y-59093238D01*
X133953214Y-59131333D01*
X133991310Y-59169429D01*
X134029405Y-59245619D01*
X134029405Y-59436095D01*
X133991310Y-59512286D01*
X133953214Y-59550381D01*
X133305595Y-58788476D02*
X133267500Y-58750381D01*
X133229405Y-58674190D01*
X133229405Y-58483714D01*
X133267500Y-58407524D01*
X133305595Y-58369428D01*
X133381786Y-58331333D01*
X133457976Y-58331333D01*
X133572262Y-58369428D01*
X134029405Y-58826571D01*
X134029405Y-58331333D01*
X133229405Y-57836095D02*
X133229405Y-57759904D01*
X133267500Y-57683714D01*
X133305595Y-57645619D01*
X133381786Y-57607523D01*
X133534167Y-57569428D01*
X133724643Y-57569428D01*
X133877024Y-57607523D01*
X133953214Y-57645619D01*
X133991310Y-57683714D01*
X134029405Y-57759904D01*
X134029405Y-57836095D01*
X133991310Y-57912285D01*
X133953214Y-57950381D01*
X133877024Y-57988476D01*
X133724643Y-58026571D01*
X133534167Y-58026571D01*
X133381786Y-57988476D01*
X133305595Y-57950381D01*
X133267500Y-57912285D01*
X133229405Y-57836095D01*
X143224419Y-108819905D02*
X142767276Y-108819905D01*
X142995847Y-108819905D02*
X142995847Y-108019905D01*
X142919657Y-108134190D01*
X142843466Y-108210381D01*
X142767276Y-108248476D01*
X143910133Y-108019905D02*
X143757752Y-108019905D01*
X143681562Y-108058000D01*
X143643467Y-108096095D01*
X143567276Y-108210381D01*
X143529181Y-108362762D01*
X143529181Y-108667524D01*
X143567276Y-108743714D01*
X143605371Y-108781810D01*
X143681562Y-108819905D01*
X143833943Y-108819905D01*
X143910133Y-108781810D01*
X143948229Y-108743714D01*
X143986324Y-108667524D01*
X143986324Y-108477048D01*
X143948229Y-108400857D01*
X143910133Y-108362762D01*
X143833943Y-108324667D01*
X143681562Y-108324667D01*
X143605371Y-108362762D01*
X143567276Y-108400857D01*
X143529181Y-108477048D01*
X144329181Y-108819905D02*
X144329181Y-108019905D01*
X144595848Y-108591333D01*
X144862515Y-108019905D01*
X144862515Y-108819905D01*
X145243467Y-108819905D02*
X145243467Y-108019905D01*
X145243467Y-108400857D02*
X145700610Y-108400857D01*
X145700610Y-108819905D02*
X145700610Y-108019905D01*
X146005372Y-108286571D02*
X146424419Y-108286571D01*
X146005372Y-108819905D01*
X146424419Y-108819905D01*
X147796419Y-66859105D02*
X147339276Y-66859105D01*
X147567847Y-66859105D02*
X147567847Y-66059105D01*
X147491657Y-66173390D01*
X147415466Y-66249581D01*
X147339276Y-66287676D01*
X148101181Y-66135295D02*
X148139276Y-66097200D01*
X148215467Y-66059105D01*
X148405943Y-66059105D01*
X148482133Y-66097200D01*
X148520229Y-66135295D01*
X148558324Y-66211486D01*
X148558324Y-66287676D01*
X148520229Y-66401962D01*
X148063086Y-66859105D01*
X148558324Y-66859105D01*
X148901181Y-66859105D02*
X148901181Y-66059105D01*
X149167848Y-66630533D01*
X149434515Y-66059105D01*
X149434515Y-66859105D01*
X149815467Y-66859105D02*
X149815467Y-66059105D01*
X149815467Y-66440057D02*
X150272610Y-66440057D01*
X150272610Y-66859105D02*
X150272610Y-66059105D01*
X150577372Y-66325771D02*
X150996419Y-66325771D01*
X150577372Y-66859105D01*
X150996419Y-66859105D01*
M02*
