M48
METRIC,TZ
T1C0.400
T2C0.813
T3C1.001
T4C1.016
T5C3.500
%
G90
G05
T1
X122.936Y-92.837
X124.206Y-89.789
X126.619Y-99.06
X128.651Y-91.821
X129.794Y-91.937
X132.715Y-93.345
X133.604Y-94.996
X136.272Y-76.582
X136.586Y-90.054
X136.652Y-74.93
X136.906Y-101.346
X137.795Y-62.23
X137.795Y-69.723
X137.795Y-88.138
X138.176Y-85.598
X143.129Y-99.187
X145.288Y-81.407
X151.003Y-100.076
X153.416Y-81.28
X155.321Y-88.138
X156.972Y-89.154
X158.242Y-79.756
X158.369Y-91.821
X162.56Y-71.501
T2
X124.587Y-105.029
X124.587Y-112.649
X129.667Y-105.029
X129.667Y-112.649
T3
X117.983Y-78.613
X117.983Y-84.201
X117.983Y-89.789
X120.523Y-78.613
X120.523Y-84.201
X120.523Y-89.789
T4
X117.602Y-94.615
X117.602Y-97.155
X117.602Y-99.695
X117.602Y-102.235
X117.602Y-104.775
X120.142Y-94.615
X120.142Y-97.155
X120.142Y-99.695
X120.142Y-102.235
X120.142Y-104.775
X163.195Y-78.486
T5
X116.967Y-60.325
X116.967Y-113.665
X163.576Y-60.325
X163.576Y-113.665
T0
M30
