M48
;DRILL file {KiCad 4.0.2+e4-6225~38~ubuntu14.04.1-stable} date Thu 16 Jun 2016 02:21:42 PM EEST
;FORMAT={3:3/ absolute / metric / suppress leading zeros}
FMAT,2
METRIC,TZ
T1C0.400
T2C0.813
T3C1.001
T4C1.016
T5C3.500
T6C0.899
%
G90
G05
M71
T1
X122428Y-92202
X125095Y-88900
X126874Y-99315
X128651Y-91821
X129794Y-91937
X132715Y-93726
X133604Y-94996
X136272Y-76582
X136586Y-90054
X136652Y-74930
X137795Y-88138
X137897Y-69520
X138176Y-85598
X138455Y-62789
X138989Y-103327
X143129Y-99074
X144018Y-81280
X146812Y-88646
X151003Y-100076
X153416Y-81280
X155321Y-87376
X158242Y-79756
X158369Y-91821
X162560Y-71501
T2
X124308Y-104546
X124308Y-112166
X129388Y-104546
X129388Y-112166
T3
X117805Y-84176
X117831Y-78791
X117831Y-89637
X120345Y-84176
X120371Y-78791
X120371Y-89637
T4
X117602Y-94615
X117602Y-97155
X117602Y-99695
X117602Y-102235
X117602Y-104775
X120142Y-94615
X120142Y-97155
X120142Y-99695
X120142Y-102235
X120142Y-104775
X163195Y-78486
T5
X116789Y-60096
X116891Y-113792
X163652Y-60122
X163652Y-113843
T6
X119469Y-67841
X119469Y-72240
T0
M30
