G04 #@! TF.FileFunction,Soldermask,Top*
%FSLAX46Y46*%
G04 Gerber Fmt 4.6, Leading zero omitted, Abs format (unit mm)*
G04 Created by KiCad (PCBNEW 4.0.2+e4-6225~38~ubuntu14.04.1-stable) date Wed 15 Jun 2016 02:47:12 PM EEST*
%MOMM*%
G01*
G04 APERTURE LIST*
%ADD10C,0.100000*%
%ADD11C,0.150000*%
%ADD12C,4.900000*%
%ADD13R,1.650000X1.900000*%
%ADD14R,1.900000X1.650000*%
%ADD15R,2.701240X0.900380*%
%ADD16R,2.899360X2.398980*%
%ADD17C,1.299160*%
%ADD18R,2.350720X2.899360*%
%ADD19R,2.127200X2.127200*%
%ADD20O,2.127200X2.127200*%
%ADD21R,0.950000X2.000000*%
%ADD22R,2.000000X0.950000*%
%ADD23R,2.635200X2.635200*%
%ADD24R,1.900000X1.700000*%
%ADD25R,1.700000X1.900000*%
%ADD26C,1.797000*%
%ADD27R,1.600000X3.400000*%
%ADD28R,1.000000X1.900000*%
%ADD29R,4.057600X2.432000*%
%ADD30R,1.416000X2.432000*%
%ADD31R,2.400000X2.400000*%
%ADD32C,2.400000*%
%ADD33R,1.860000X5.240000*%
%ADD34R,1.300000X1.600000*%
%ADD35R,1.620000X1.310000*%
%ADD36R,1.200000X5.500000*%
%ADD37R,1.700000X5.500000*%
%ADD38R,5.500000X1.200000*%
%ADD39R,5.500000X1.700000*%
G04 APERTURE END LIST*
D10*
D11*
X113792000Y-57023000D02*
X113919000Y-57023000D01*
X113792000Y-116840000D02*
X113792000Y-57023000D01*
X166751000Y-116840000D02*
X113792000Y-116840000D01*
X166751000Y-57023000D02*
X166751000Y-116840000D01*
X113919000Y-57023000D02*
X166751000Y-57023000D01*
D12*
X116967000Y-113665000D03*
X163576000Y-113665000D03*
X163576000Y-60325000D03*
D13*
X135636000Y-64750000D03*
X135636000Y-62250000D03*
D14*
X139720000Y-75692000D03*
X142220000Y-75692000D03*
D15*
X122067320Y-68440300D03*
X122067320Y-69240400D03*
X122067320Y-70040500D03*
X122067320Y-70840600D03*
X122067320Y-71640700D03*
D16*
X121968260Y-65590420D03*
X116469160Y-65590420D03*
X121968260Y-74490580D03*
X116469160Y-74490580D03*
D17*
X119468900Y-67840860D03*
X119468900Y-72240140D03*
D13*
X136906000Y-103271000D03*
X136906000Y-105771000D03*
X135890000Y-84475000D03*
X135890000Y-86975000D03*
X132842000Y-105898000D03*
X132842000Y-103398000D03*
X132969000Y-84348000D03*
X132969000Y-86848000D03*
D14*
X117368000Y-109093000D03*
X119868000Y-109093000D03*
D18*
X158242000Y-77470000D03*
X155194000Y-77470000D03*
D14*
X161397000Y-108204000D03*
X158897000Y-108204000D03*
D19*
X120142000Y-104775000D03*
D20*
X117602000Y-104775000D03*
X120142000Y-102235000D03*
X117602000Y-102235000D03*
X120142000Y-99695000D03*
X117602000Y-99695000D03*
X120142000Y-97155000D03*
X117602000Y-97155000D03*
X120142000Y-94615000D03*
X117602000Y-94615000D03*
D21*
X128372981Y-98513095D03*
X129172981Y-98513095D03*
X129972981Y-98513095D03*
X130772981Y-98513095D03*
X131572981Y-98513095D03*
X132372981Y-98513095D03*
X133172981Y-98513095D03*
X133972981Y-98513095D03*
D22*
X135422981Y-97063095D03*
X135422981Y-96263095D03*
X135422981Y-95463095D03*
X135422981Y-94663095D03*
X135422981Y-93863095D03*
X135422981Y-93063095D03*
X135422981Y-92263095D03*
X135422981Y-91463095D03*
D21*
X133972981Y-90013095D03*
X133172981Y-90013095D03*
X132372981Y-90013095D03*
X131572981Y-90013095D03*
X130772981Y-90013095D03*
X129972981Y-90013095D03*
X129172981Y-90013095D03*
X128372981Y-90013095D03*
D22*
X126922981Y-91463095D03*
X126922981Y-92263095D03*
X126922981Y-93063095D03*
X126922981Y-93863095D03*
X126922981Y-94663095D03*
X126922981Y-95463095D03*
X126922981Y-96263095D03*
X126922981Y-97063095D03*
D23*
X163195000Y-78486000D03*
D24*
X128604000Y-102489000D03*
X125904000Y-102489000D03*
D25*
X140030800Y-87336674D03*
X140030800Y-90036674D03*
D24*
X143209000Y-83566000D03*
X140509000Y-83566000D03*
X143336000Y-93853000D03*
X140636000Y-93853000D03*
D25*
X143840800Y-90036674D03*
X143840800Y-87336674D03*
D24*
X140509000Y-97282000D03*
X143209000Y-97282000D03*
D26*
X124587000Y-105029000D03*
X129667000Y-105029000D03*
X124587000Y-112649000D03*
X129667000Y-112649000D03*
D27*
X149321000Y-104016000D03*
X151321000Y-104016000D03*
X153321000Y-104016000D03*
X155321000Y-104016000D03*
X157321000Y-104016000D03*
X159321000Y-104016000D03*
X161321000Y-104016000D03*
X163321000Y-104016000D03*
X163321000Y-84316000D03*
X161321000Y-84316000D03*
X159321000Y-84316000D03*
X157321000Y-84316000D03*
X155321000Y-84316000D03*
X153321000Y-84316000D03*
X151321000Y-84316000D03*
X149321000Y-84316000D03*
D28*
X135509000Y-72931000D03*
X136779000Y-72931000D03*
X138049000Y-72931000D03*
X139319000Y-72931000D03*
X140589000Y-72931000D03*
X141859000Y-72931000D03*
X143129000Y-72931000D03*
X144399000Y-72931000D03*
X144399000Y-67531000D03*
X143129000Y-67531000D03*
X141859000Y-67531000D03*
X140589000Y-67531000D03*
X139319000Y-67531000D03*
X138049000Y-67531000D03*
X136779000Y-67531000D03*
X135509000Y-67531000D03*
D29*
X156972000Y-67056000D03*
D30*
X156972000Y-73660000D03*
X159258000Y-73660000D03*
X154686000Y-73660000D03*
D31*
X120523000Y-78613000D03*
D32*
X117983000Y-78613000D03*
D31*
X120523000Y-84201000D03*
D32*
X117983000Y-84201000D03*
D31*
X120523000Y-89789000D03*
D32*
X117983000Y-89789000D03*
D24*
X126539000Y-78486000D03*
X129239000Y-78486000D03*
X125904000Y-82550000D03*
X128604000Y-82550000D03*
X125142000Y-86614000D03*
X127842000Y-86614000D03*
D33*
X125548500Y-65722500D03*
X129848500Y-65722500D03*
D12*
X116967000Y-60325000D03*
D13*
X139319000Y-62250000D03*
X139319000Y-64750000D03*
D34*
X144399000Y-62230000D03*
X144399000Y-64430000D03*
D24*
X151972000Y-79375000D03*
X149272000Y-79375000D03*
X152019000Y-76454000D03*
X149319000Y-76454000D03*
D35*
X132588000Y-67246500D03*
X132588000Y-63976500D03*
D36*
X145104400Y-103835200D03*
D37*
X143154400Y-103835200D03*
D36*
X141204400Y-103835200D03*
D38*
X148844000Y-68535000D03*
D39*
X148844000Y-70485000D03*
D38*
X148844000Y-72435000D03*
M02*
