G04 #@! TF.FileFunction,Other,Fab,Top*
%FSLAX46Y46*%
G04 Gerber Fmt 4.6, Leading zero omitted, Abs format (unit mm)*
G04 Created by KiCad (PCBNEW 4.1.0-alpha+201606141244+6933~45~ubuntu14.04.1-product) date Wed Jun 15 10:52:03 2016*
%MOMM*%
%LPD*%
G01*
G04 APERTURE LIST*
%ADD10C,0.100000*%
%ADD11C,0.150000*%
G04 APERTURE END LIST*
D10*
D11*
X113792000Y-57023000D02*
X113919000Y-57023000D01*
X113792000Y-116840000D02*
X113792000Y-57023000D01*
X166751000Y-116840000D02*
X113792000Y-116840000D01*
X166751000Y-57023000D02*
X166751000Y-116840000D01*
X113919000Y-57023000D02*
X166751000Y-57023000D01*
X137013904Y-60077285D02*
X137013904Y-60534428D01*
X137013904Y-60305857D02*
X136213904Y-60305857D01*
X136328190Y-60382047D01*
X136404380Y-60458238D01*
X136442476Y-60534428D01*
X136213904Y-59582047D02*
X136213904Y-59505857D01*
X136252000Y-59429666D01*
X136290095Y-59391571D01*
X136366285Y-59353476D01*
X136518666Y-59315380D01*
X136709142Y-59315380D01*
X136861523Y-59353476D01*
X136937714Y-59391571D01*
X136975809Y-59429666D01*
X137013904Y-59505857D01*
X137013904Y-59582047D01*
X136975809Y-59658238D01*
X136937714Y-59696333D01*
X136861523Y-59734428D01*
X136709142Y-59772523D01*
X136518666Y-59772523D01*
X136366285Y-59734428D01*
X136290095Y-59696333D01*
X136252000Y-59658238D01*
X136213904Y-59582047D01*
X136480571Y-58629666D02*
X137013904Y-58629666D01*
X136480571Y-58972523D02*
X136899619Y-58972523D01*
X136975809Y-58934428D01*
X137013904Y-58858238D01*
X137013904Y-58743952D01*
X136975809Y-58667761D01*
X136937714Y-58629666D01*
X141598714Y-78085904D02*
X141141571Y-78085904D01*
X141370142Y-78085904D02*
X141370142Y-77285904D01*
X141293952Y-77400190D01*
X141217761Y-77476380D01*
X141141571Y-77514476D01*
X142093952Y-77285904D02*
X142170142Y-77285904D01*
X142246333Y-77324000D01*
X142284428Y-77362095D01*
X142322523Y-77438285D01*
X142360619Y-77590666D01*
X142360619Y-77781142D01*
X142322523Y-77933523D01*
X142284428Y-78009714D01*
X142246333Y-78047809D01*
X142170142Y-78085904D01*
X142093952Y-78085904D01*
X142017761Y-78047809D01*
X141979666Y-78009714D01*
X141941571Y-77933523D01*
X141903476Y-77781142D01*
X141903476Y-77590666D01*
X141941571Y-77438285D01*
X141979666Y-77362095D01*
X142017761Y-77324000D01*
X142093952Y-77285904D01*
X142703476Y-77552571D02*
X142703476Y-78085904D01*
X142703476Y-77628761D02*
X142741571Y-77590666D01*
X142817761Y-77552571D01*
X142932047Y-77552571D01*
X143008238Y-77590666D01*
X143046333Y-77666857D01*
X143046333Y-78085904D01*
X117957904Y-62807904D02*
X117957904Y-63455523D01*
X117996000Y-63531714D01*
X118034095Y-63569809D01*
X118110285Y-63607904D01*
X118262666Y-63607904D01*
X118338857Y-63569809D01*
X118376952Y-63531714D01*
X118415047Y-63455523D01*
X118415047Y-62807904D01*
X118757904Y-63569809D02*
X118872190Y-63607904D01*
X119062666Y-63607904D01*
X119138857Y-63569809D01*
X119176952Y-63531714D01*
X119215047Y-63455523D01*
X119215047Y-63379333D01*
X119176952Y-63303142D01*
X119138857Y-63265047D01*
X119062666Y-63226952D01*
X118910285Y-63188857D01*
X118834095Y-63150761D01*
X118796000Y-63112666D01*
X118757904Y-63036476D01*
X118757904Y-62960285D01*
X118796000Y-62884095D01*
X118834095Y-62846000D01*
X118910285Y-62807904D01*
X119100761Y-62807904D01*
X119215047Y-62846000D01*
X119824571Y-63188857D02*
X119938857Y-63226952D01*
X119976952Y-63265047D01*
X120015047Y-63341238D01*
X120015047Y-63455523D01*
X119976952Y-63531714D01*
X119938857Y-63569809D01*
X119862666Y-63607904D01*
X119557904Y-63607904D01*
X119557904Y-62807904D01*
X119824571Y-62807904D01*
X119900761Y-62846000D01*
X119938857Y-62884095D01*
X119976952Y-62960285D01*
X119976952Y-63036476D01*
X119938857Y-63112666D01*
X119900761Y-63150761D01*
X119824571Y-63188857D01*
X119557904Y-63188857D01*
X120167428Y-63684095D02*
X120776952Y-63684095D01*
X121119809Y-62807904D02*
X121272190Y-62807904D01*
X121348380Y-62846000D01*
X121424571Y-62922190D01*
X121462666Y-63074571D01*
X121462666Y-63341238D01*
X121424571Y-63493619D01*
X121348380Y-63569809D01*
X121272190Y-63607904D01*
X121119809Y-63607904D01*
X121043619Y-63569809D01*
X120967428Y-63493619D01*
X120929333Y-63341238D01*
X120929333Y-63074571D01*
X120967428Y-62922190D01*
X121043619Y-62846000D01*
X121119809Y-62807904D01*
X121691238Y-62807904D02*
X122148380Y-62807904D01*
X121919809Y-63607904D02*
X121919809Y-62807904D01*
X122834095Y-62846000D02*
X122757904Y-62807904D01*
X122643619Y-62807904D01*
X122529333Y-62846000D01*
X122453142Y-62922190D01*
X122415047Y-62998380D01*
X122376952Y-63150761D01*
X122376952Y-63265047D01*
X122415047Y-63417428D01*
X122453142Y-63493619D01*
X122529333Y-63569809D01*
X122643619Y-63607904D01*
X122719809Y-63607904D01*
X122834095Y-63569809D01*
X122872190Y-63531714D01*
X122872190Y-63265047D01*
X122719809Y-63265047D01*
X150729904Y-65360380D02*
X150729904Y-65817523D01*
X150729904Y-65588952D02*
X149929904Y-65588952D01*
X150044190Y-65665142D01*
X150120380Y-65741333D01*
X150158476Y-65817523D01*
X150006095Y-65055619D02*
X149968000Y-65017523D01*
X149929904Y-64941333D01*
X149929904Y-64750857D01*
X149968000Y-64674666D01*
X150006095Y-64636571D01*
X150082285Y-64598476D01*
X150158476Y-64598476D01*
X150272761Y-64636571D01*
X150729904Y-65093714D01*
X150729904Y-64598476D01*
X150729904Y-64255619D02*
X149929904Y-64255619D01*
X150501333Y-63988952D01*
X149929904Y-63722285D01*
X150729904Y-63722285D01*
X150729904Y-63341333D02*
X149929904Y-63341333D01*
X150310857Y-63341333D02*
X150310857Y-62884190D01*
X150729904Y-62884190D02*
X149929904Y-62884190D01*
X150196571Y-62579428D02*
X150196571Y-62160380D01*
X150729904Y-62579428D01*
X150729904Y-62160380D01*
X139299904Y-103765238D02*
X139299904Y-104222380D01*
X139299904Y-103993809D02*
X138499904Y-103993809D01*
X138614190Y-104070000D01*
X138690380Y-104146190D01*
X138728476Y-104222380D01*
X138499904Y-103270000D02*
X138499904Y-103193809D01*
X138538000Y-103117619D01*
X138576095Y-103079523D01*
X138652285Y-103041428D01*
X138804666Y-103003333D01*
X138995142Y-103003333D01*
X139147523Y-103041428D01*
X139223714Y-103079523D01*
X139261809Y-103117619D01*
X139299904Y-103193809D01*
X139299904Y-103270000D01*
X139261809Y-103346190D01*
X139223714Y-103384285D01*
X139147523Y-103422380D01*
X138995142Y-103460476D01*
X138804666Y-103460476D01*
X138652285Y-103422380D01*
X138576095Y-103384285D01*
X138538000Y-103346190D01*
X138499904Y-103270000D01*
X138499904Y-102508095D02*
X138499904Y-102431904D01*
X138538000Y-102355714D01*
X138576095Y-102317619D01*
X138652285Y-102279523D01*
X138804666Y-102241428D01*
X138995142Y-102241428D01*
X139147523Y-102279523D01*
X139223714Y-102317619D01*
X139261809Y-102355714D01*
X139299904Y-102431904D01*
X139299904Y-102508095D01*
X139261809Y-102584285D01*
X139223714Y-102622380D01*
X139147523Y-102660476D01*
X138995142Y-102698571D01*
X138804666Y-102698571D01*
X138652285Y-102660476D01*
X138576095Y-102622380D01*
X138538000Y-102584285D01*
X138499904Y-102508095D01*
X138766571Y-101898571D02*
X139299904Y-101898571D01*
X138842761Y-101898571D02*
X138804666Y-101860476D01*
X138766571Y-101784285D01*
X138766571Y-101670000D01*
X138804666Y-101593809D01*
X138880857Y-101555714D01*
X139299904Y-101555714D01*
X137267904Y-81921238D02*
X137267904Y-82378380D01*
X137267904Y-82149809D02*
X136467904Y-82149809D01*
X136582190Y-82226000D01*
X136658380Y-82302190D01*
X136696476Y-82378380D01*
X136467904Y-81426000D02*
X136467904Y-81349809D01*
X136506000Y-81273619D01*
X136544095Y-81235523D01*
X136620285Y-81197428D01*
X136772666Y-81159333D01*
X136963142Y-81159333D01*
X137115523Y-81197428D01*
X137191714Y-81235523D01*
X137229809Y-81273619D01*
X137267904Y-81349809D01*
X137267904Y-81426000D01*
X137229809Y-81502190D01*
X137191714Y-81540285D01*
X137115523Y-81578380D01*
X136963142Y-81616476D01*
X136772666Y-81616476D01*
X136620285Y-81578380D01*
X136544095Y-81540285D01*
X136506000Y-81502190D01*
X136467904Y-81426000D01*
X136467904Y-80664095D02*
X136467904Y-80587904D01*
X136506000Y-80511714D01*
X136544095Y-80473619D01*
X136620285Y-80435523D01*
X136772666Y-80397428D01*
X136963142Y-80397428D01*
X137115523Y-80435523D01*
X137191714Y-80473619D01*
X137229809Y-80511714D01*
X137267904Y-80587904D01*
X137267904Y-80664095D01*
X137229809Y-80740285D01*
X137191714Y-80778380D01*
X137115523Y-80816476D01*
X136963142Y-80854571D01*
X136772666Y-80854571D01*
X136620285Y-80816476D01*
X136544095Y-80778380D01*
X136506000Y-80740285D01*
X136467904Y-80664095D01*
X136734571Y-80054571D02*
X137267904Y-80054571D01*
X136810761Y-80054571D02*
X136772666Y-80016476D01*
X136734571Y-79940285D01*
X136734571Y-79826000D01*
X136772666Y-79749809D01*
X136848857Y-79711714D01*
X137267904Y-79711714D01*
X135235904Y-104400238D02*
X135235904Y-104857380D01*
X135235904Y-104628809D02*
X134435904Y-104628809D01*
X134550190Y-104705000D01*
X134626380Y-104781190D01*
X134664476Y-104857380D01*
X134435904Y-103905000D02*
X134435904Y-103828809D01*
X134474000Y-103752619D01*
X134512095Y-103714523D01*
X134588285Y-103676428D01*
X134740666Y-103638333D01*
X134931142Y-103638333D01*
X135083523Y-103676428D01*
X135159714Y-103714523D01*
X135197809Y-103752619D01*
X135235904Y-103828809D01*
X135235904Y-103905000D01*
X135197809Y-103981190D01*
X135159714Y-104019285D01*
X135083523Y-104057380D01*
X134931142Y-104095476D01*
X134740666Y-104095476D01*
X134588285Y-104057380D01*
X134512095Y-104019285D01*
X134474000Y-103981190D01*
X134435904Y-103905000D01*
X134435904Y-103143095D02*
X134435904Y-103066904D01*
X134474000Y-102990714D01*
X134512095Y-102952619D01*
X134588285Y-102914523D01*
X134740666Y-102876428D01*
X134931142Y-102876428D01*
X135083523Y-102914523D01*
X135159714Y-102952619D01*
X135197809Y-102990714D01*
X135235904Y-103066904D01*
X135235904Y-103143095D01*
X135197809Y-103219285D01*
X135159714Y-103257380D01*
X135083523Y-103295476D01*
X134931142Y-103333571D01*
X134740666Y-103333571D01*
X134588285Y-103295476D01*
X134512095Y-103257380D01*
X134474000Y-103219285D01*
X134435904Y-103143095D01*
X134702571Y-102533571D02*
X135235904Y-102533571D01*
X134778761Y-102533571D02*
X134740666Y-102495476D01*
X134702571Y-102419285D01*
X134702571Y-102305000D01*
X134740666Y-102228809D01*
X134816857Y-102190714D01*
X135235904Y-102190714D01*
X133965904Y-81638143D02*
X133965904Y-82095285D01*
X133965904Y-81866714D02*
X133165904Y-81866714D01*
X133280190Y-81942905D01*
X133356380Y-82019095D01*
X133394476Y-82095285D01*
X133165904Y-81142905D02*
X133165904Y-81066714D01*
X133204000Y-80990524D01*
X133242095Y-80952428D01*
X133318285Y-80914333D01*
X133470666Y-80876238D01*
X133661142Y-80876238D01*
X133813523Y-80914333D01*
X133889714Y-80952428D01*
X133927809Y-80990524D01*
X133965904Y-81066714D01*
X133965904Y-81142905D01*
X133927809Y-81219095D01*
X133889714Y-81257190D01*
X133813523Y-81295285D01*
X133661142Y-81333381D01*
X133470666Y-81333381D01*
X133318285Y-81295285D01*
X133242095Y-81257190D01*
X133204000Y-81219095D01*
X133165904Y-81142905D01*
X133165904Y-80381000D02*
X133165904Y-80304809D01*
X133204000Y-80228619D01*
X133242095Y-80190524D01*
X133318285Y-80152428D01*
X133470666Y-80114333D01*
X133661142Y-80114333D01*
X133813523Y-80152428D01*
X133889714Y-80190524D01*
X133927809Y-80228619D01*
X133965904Y-80304809D01*
X133965904Y-80381000D01*
X133927809Y-80457190D01*
X133889714Y-80495285D01*
X133813523Y-80533381D01*
X133661142Y-80571476D01*
X133470666Y-80571476D01*
X133318285Y-80533381D01*
X133242095Y-80495285D01*
X133204000Y-80457190D01*
X133165904Y-80381000D01*
X133432571Y-79771476D02*
X133965904Y-79771476D01*
X133508761Y-79771476D02*
X133470666Y-79733381D01*
X133432571Y-79657190D01*
X133432571Y-79542905D01*
X133470666Y-79466714D01*
X133546857Y-79428619D01*
X133965904Y-79428619D01*
X118992761Y-107803904D02*
X118535619Y-107803904D01*
X118764190Y-107803904D02*
X118764190Y-107003904D01*
X118688000Y-107118190D01*
X118611809Y-107194380D01*
X118535619Y-107232476D01*
X119488000Y-107003904D02*
X119564190Y-107003904D01*
X119640380Y-107042000D01*
X119678476Y-107080095D01*
X119716571Y-107156285D01*
X119754666Y-107308666D01*
X119754666Y-107499142D01*
X119716571Y-107651523D01*
X119678476Y-107727714D01*
X119640380Y-107765809D01*
X119564190Y-107803904D01*
X119488000Y-107803904D01*
X119411809Y-107765809D01*
X119373714Y-107727714D01*
X119335619Y-107651523D01*
X119297523Y-107499142D01*
X119297523Y-107308666D01*
X119335619Y-107156285D01*
X119373714Y-107080095D01*
X119411809Y-107042000D01*
X119488000Y-107003904D01*
X120249904Y-107003904D02*
X120326095Y-107003904D01*
X120402285Y-107042000D01*
X120440380Y-107080095D01*
X120478476Y-107156285D01*
X120516571Y-107308666D01*
X120516571Y-107499142D01*
X120478476Y-107651523D01*
X120440380Y-107727714D01*
X120402285Y-107765809D01*
X120326095Y-107803904D01*
X120249904Y-107803904D01*
X120173714Y-107765809D01*
X120135619Y-107727714D01*
X120097523Y-107651523D01*
X120059428Y-107499142D01*
X120059428Y-107308666D01*
X120097523Y-107156285D01*
X120135619Y-107080095D01*
X120173714Y-107042000D01*
X120249904Y-107003904D01*
X120859428Y-107270571D02*
X120859428Y-107803904D01*
X120859428Y-107346761D02*
X120897523Y-107308666D01*
X120973714Y-107270571D01*
X121088000Y-107270571D01*
X121164190Y-107308666D01*
X121202285Y-107384857D01*
X121202285Y-107803904D01*
X155746571Y-80283095D02*
X155784666Y-80245000D01*
X155860857Y-80206904D01*
X156051333Y-80206904D01*
X156127523Y-80245000D01*
X156165619Y-80283095D01*
X156203714Y-80359285D01*
X156203714Y-80435476D01*
X156165619Y-80549761D01*
X155708476Y-81006904D01*
X156203714Y-81006904D01*
X156508476Y-80283095D02*
X156546571Y-80245000D01*
X156622761Y-80206904D01*
X156813238Y-80206904D01*
X156889428Y-80245000D01*
X156927523Y-80283095D01*
X156965619Y-80359285D01*
X156965619Y-80435476D01*
X156927523Y-80549761D01*
X156470380Y-81006904D01*
X156965619Y-81006904D01*
X157651333Y-80473571D02*
X157651333Y-81006904D01*
X157308476Y-80473571D02*
X157308476Y-80892619D01*
X157346571Y-80968809D01*
X157422761Y-81006904D01*
X157537047Y-81006904D01*
X157613238Y-80968809D01*
X157651333Y-80930714D01*
X160648714Y-110724904D02*
X160191571Y-110724904D01*
X160420142Y-110724904D02*
X160420142Y-109924904D01*
X160343952Y-110039190D01*
X160267761Y-110115380D01*
X160191571Y-110153476D01*
X161143952Y-109924904D02*
X161220142Y-109924904D01*
X161296333Y-109963000D01*
X161334428Y-110001095D01*
X161372523Y-110077285D01*
X161410619Y-110229666D01*
X161410619Y-110420142D01*
X161372523Y-110572523D01*
X161334428Y-110648714D01*
X161296333Y-110686809D01*
X161220142Y-110724904D01*
X161143952Y-110724904D01*
X161067761Y-110686809D01*
X161029666Y-110648714D01*
X160991571Y-110572523D01*
X160953476Y-110420142D01*
X160953476Y-110229666D01*
X160991571Y-110077285D01*
X161029666Y-110001095D01*
X161067761Y-109963000D01*
X161143952Y-109924904D01*
X162096333Y-110191571D02*
X162096333Y-110724904D01*
X161753476Y-110191571D02*
X161753476Y-110610619D01*
X161791571Y-110686809D01*
X161867761Y-110724904D01*
X161982047Y-110724904D01*
X162058238Y-110686809D01*
X162096333Y-110648714D01*
X115322333Y-101320142D02*
X115322333Y-100939190D01*
X115550904Y-101396333D02*
X114750904Y-101129666D01*
X115550904Y-100863000D01*
X114750904Y-100710619D02*
X115550904Y-100443952D01*
X114750904Y-100177285D01*
X115550904Y-99453476D02*
X115169952Y-99720142D01*
X115550904Y-99910619D02*
X114750904Y-99910619D01*
X114750904Y-99605857D01*
X114789000Y-99529666D01*
X114827095Y-99491571D01*
X114903285Y-99453476D01*
X115017571Y-99453476D01*
X115093761Y-99491571D01*
X115131857Y-99529666D01*
X115169952Y-99605857D01*
X115169952Y-99910619D01*
X115246142Y-99110619D02*
X115246142Y-98501095D01*
X115550904Y-98120142D02*
X114750904Y-98120142D01*
X115512809Y-97777285D02*
X115550904Y-97663000D01*
X115550904Y-97472523D01*
X115512809Y-97396333D01*
X115474714Y-97358238D01*
X115398523Y-97320142D01*
X115322333Y-97320142D01*
X115246142Y-97358238D01*
X115208047Y-97396333D01*
X115169952Y-97472523D01*
X115131857Y-97624904D01*
X115093761Y-97701095D01*
X115055666Y-97739190D01*
X114979476Y-97777285D01*
X114903285Y-97777285D01*
X114827095Y-97739190D01*
X114789000Y-97701095D01*
X114750904Y-97624904D01*
X114750904Y-97434428D01*
X114789000Y-97320142D01*
X115550904Y-96977285D02*
X114750904Y-96977285D01*
X114750904Y-96672523D01*
X114789000Y-96596333D01*
X114827095Y-96558238D01*
X114903285Y-96520142D01*
X115017571Y-96520142D01*
X115093761Y-96558238D01*
X115131857Y-96596333D01*
X115169952Y-96672523D01*
X115169952Y-96977285D01*
X115246142Y-96177285D02*
X115246142Y-95567761D01*
X115550904Y-94767761D02*
X115550904Y-95224904D01*
X115550904Y-94996333D02*
X114750904Y-94996333D01*
X114865190Y-95072523D01*
X114941380Y-95148714D01*
X114979476Y-95224904D01*
X114750904Y-94272523D02*
X114750904Y-94196333D01*
X114789000Y-94120142D01*
X114827095Y-94082047D01*
X114903285Y-94043952D01*
X115055666Y-94005857D01*
X115246142Y-94005857D01*
X115398523Y-94043952D01*
X115474714Y-94082047D01*
X115512809Y-94120142D01*
X115550904Y-94196333D01*
X115550904Y-94272523D01*
X115512809Y-94348714D01*
X115474714Y-94386809D01*
X115398523Y-94424904D01*
X115246142Y-94463000D01*
X115055666Y-94463000D01*
X114903285Y-94424904D01*
X114827095Y-94386809D01*
X114789000Y-94348714D01*
X114750904Y-94272523D01*
X125355333Y-98926095D02*
X125355333Y-98545142D01*
X125583904Y-99002285D02*
X124783904Y-98735619D01*
X125583904Y-98468952D01*
X124783904Y-98316571D02*
X124783904Y-97859428D01*
X125583904Y-98088000D02*
X124783904Y-98088000D01*
X125583904Y-97592761D02*
X124783904Y-97592761D01*
X125355333Y-97326095D01*
X124783904Y-97059428D01*
X125583904Y-97059428D01*
X125164857Y-96678476D02*
X125164857Y-96411809D01*
X125583904Y-96297523D02*
X125583904Y-96678476D01*
X124783904Y-96678476D01*
X124783904Y-96297523D01*
X124822000Y-95535619D02*
X124783904Y-95611809D01*
X124783904Y-95726095D01*
X124822000Y-95840380D01*
X124898190Y-95916571D01*
X124974380Y-95954666D01*
X125126761Y-95992761D01*
X125241047Y-95992761D01*
X125393428Y-95954666D01*
X125469619Y-95916571D01*
X125545809Y-95840380D01*
X125583904Y-95726095D01*
X125583904Y-95649904D01*
X125545809Y-95535619D01*
X125507714Y-95497523D01*
X125241047Y-95497523D01*
X125241047Y-95649904D01*
X125355333Y-95192761D02*
X125355333Y-94811809D01*
X125583904Y-95268952D02*
X124783904Y-95002285D01*
X125583904Y-94735619D01*
X124783904Y-94545142D02*
X124783904Y-94049904D01*
X125088666Y-94316571D01*
X125088666Y-94202285D01*
X125126761Y-94126095D01*
X125164857Y-94088000D01*
X125241047Y-94049904D01*
X125431523Y-94049904D01*
X125507714Y-94088000D01*
X125545809Y-94126095D01*
X125583904Y-94202285D01*
X125583904Y-94430857D01*
X125545809Y-94507047D01*
X125507714Y-94545142D01*
X124860095Y-93745142D02*
X124822000Y-93707047D01*
X124783904Y-93630857D01*
X124783904Y-93440380D01*
X124822000Y-93364190D01*
X124860095Y-93326095D01*
X124936285Y-93288000D01*
X125012476Y-93288000D01*
X125126761Y-93326095D01*
X125583904Y-93783238D01*
X125583904Y-93288000D01*
X125126761Y-92830857D02*
X125088666Y-92907047D01*
X125050571Y-92945142D01*
X124974380Y-92983238D01*
X124936285Y-92983238D01*
X124860095Y-92945142D01*
X124822000Y-92907047D01*
X124783904Y-92830857D01*
X124783904Y-92678476D01*
X124822000Y-92602285D01*
X124860095Y-92564190D01*
X124936285Y-92526095D01*
X124974380Y-92526095D01*
X125050571Y-92564190D01*
X125088666Y-92602285D01*
X125126761Y-92678476D01*
X125126761Y-92830857D01*
X125164857Y-92907047D01*
X125202952Y-92945142D01*
X125279142Y-92983238D01*
X125431523Y-92983238D01*
X125507714Y-92945142D01*
X125545809Y-92907047D01*
X125583904Y-92830857D01*
X125583904Y-92678476D01*
X125545809Y-92602285D01*
X125507714Y-92564190D01*
X125431523Y-92526095D01*
X125279142Y-92526095D01*
X125202952Y-92564190D01*
X125164857Y-92602285D01*
X125126761Y-92678476D01*
X125583904Y-92183238D02*
X124783904Y-92183238D01*
X124783904Y-91878476D01*
X124822000Y-91802285D01*
X124860095Y-91764190D01*
X124936285Y-91726095D01*
X125050571Y-91726095D01*
X125126761Y-91764190D01*
X125164857Y-91802285D01*
X125202952Y-91878476D01*
X125202952Y-92183238D01*
X125279142Y-91383238D02*
X125279142Y-90773714D01*
X125355333Y-90430857D02*
X125355333Y-90049904D01*
X125583904Y-90507047D02*
X124783904Y-90240380D01*
X125583904Y-89973714D01*
X164344333Y-75355142D02*
X164344333Y-74974190D01*
X164572904Y-75431333D02*
X163772904Y-75164666D01*
X164572904Y-74898000D01*
X164572904Y-74631333D02*
X163772904Y-74631333D01*
X164572904Y-74174190D01*
X163772904Y-74174190D01*
X163772904Y-73907523D02*
X163772904Y-73450380D01*
X164572904Y-73678952D02*
X163772904Y-73678952D01*
X164153857Y-73183714D02*
X164153857Y-72917047D01*
X164572904Y-72802761D02*
X164572904Y-73183714D01*
X163772904Y-73183714D01*
X163772904Y-72802761D01*
X164572904Y-72459904D02*
X163772904Y-72459904D01*
X164572904Y-72002761D01*
X163772904Y-72002761D01*
X164572904Y-71621809D02*
X163772904Y-71621809D01*
X164572904Y-71164666D01*
X163772904Y-71164666D01*
X164344333Y-70821809D02*
X164344333Y-70440857D01*
X164572904Y-70898000D02*
X163772904Y-70631333D01*
X164572904Y-70364666D01*
X127717619Y-100945904D02*
X127260476Y-100945904D01*
X127489047Y-100945904D02*
X127489047Y-100145904D01*
X127412857Y-100260190D01*
X127336666Y-100336380D01*
X127260476Y-100374476D01*
X128212857Y-100145904D02*
X128289047Y-100145904D01*
X128365238Y-100184000D01*
X128403333Y-100222095D01*
X128441428Y-100298285D01*
X128479523Y-100450666D01*
X128479523Y-100641142D01*
X128441428Y-100793523D01*
X128403333Y-100869714D01*
X128365238Y-100907809D01*
X128289047Y-100945904D01*
X128212857Y-100945904D01*
X128136666Y-100907809D01*
X128098571Y-100869714D01*
X128060476Y-100793523D01*
X128022380Y-100641142D01*
X128022380Y-100450666D01*
X128060476Y-100298285D01*
X128098571Y-100222095D01*
X128136666Y-100184000D01*
X128212857Y-100145904D01*
X128822380Y-100945904D02*
X128822380Y-100145904D01*
X129279523Y-100945904D02*
X128936666Y-100488761D01*
X129279523Y-100145904D02*
X128822380Y-100603047D01*
X138004571Y-88004571D02*
X138537904Y-88004571D01*
X137699809Y-88195047D02*
X138271238Y-88385523D01*
X138271238Y-87890285D01*
X138537904Y-87585523D02*
X137737904Y-87585523D01*
X138537904Y-87128380D02*
X138080761Y-87471238D01*
X137737904Y-87128380D02*
X138195047Y-87585523D01*
X137737904Y-86861714D02*
X137737904Y-86328380D01*
X138537904Y-86671238D01*
X142195666Y-82149904D02*
X142348047Y-82149904D01*
X142424238Y-82111809D01*
X142462333Y-82073714D01*
X142538523Y-81959428D01*
X142576619Y-81807047D01*
X142576619Y-81502285D01*
X142538523Y-81426095D01*
X142500428Y-81388000D01*
X142424238Y-81349904D01*
X142271857Y-81349904D01*
X142195666Y-81388000D01*
X142157571Y-81426095D01*
X142119476Y-81502285D01*
X142119476Y-81692761D01*
X142157571Y-81768952D01*
X142195666Y-81807047D01*
X142271857Y-81845142D01*
X142424238Y-81845142D01*
X142500428Y-81807047D01*
X142538523Y-81768952D01*
X142576619Y-81692761D01*
X142919476Y-82149904D02*
X142919476Y-81349904D01*
X143376619Y-82149904D02*
X143033761Y-81692761D01*
X143376619Y-81349904D02*
X142919476Y-81807047D01*
X144138523Y-82149904D02*
X143681380Y-82149904D01*
X143909952Y-82149904D02*
X143909952Y-81349904D01*
X143833761Y-81464190D01*
X143757571Y-81540380D01*
X143681380Y-81578476D01*
X145548428Y-94824571D02*
X145548428Y-95357904D01*
X145357952Y-94519809D02*
X145167476Y-95091238D01*
X145662714Y-95091238D01*
X145967476Y-95357904D02*
X145967476Y-94557904D01*
X146424619Y-95357904D02*
X146081761Y-94900761D01*
X146424619Y-94557904D02*
X145967476Y-95015047D01*
X146691285Y-94557904D02*
X147224619Y-94557904D01*
X146881761Y-95357904D01*
X142601904Y-88309333D02*
X142601904Y-88156952D01*
X142563809Y-88080761D01*
X142525714Y-88042666D01*
X142411428Y-87966476D01*
X142259047Y-87928380D01*
X141954285Y-87928380D01*
X141878095Y-87966476D01*
X141840000Y-88004571D01*
X141801904Y-88080761D01*
X141801904Y-88233142D01*
X141840000Y-88309333D01*
X141878095Y-88347428D01*
X141954285Y-88385523D01*
X142144761Y-88385523D01*
X142220952Y-88347428D01*
X142259047Y-88309333D01*
X142297142Y-88233142D01*
X142297142Y-88080761D01*
X142259047Y-88004571D01*
X142220952Y-87966476D01*
X142144761Y-87928380D01*
X142601904Y-87585523D02*
X141801904Y-87585523D01*
X142601904Y-87128380D02*
X142144761Y-87471238D01*
X141801904Y-87128380D02*
X142259047Y-87585523D01*
X142601904Y-86366476D02*
X142601904Y-86823619D01*
X142601904Y-86595047D02*
X141801904Y-86595047D01*
X141916190Y-86671238D01*
X141992380Y-86747428D01*
X142030476Y-86823619D01*
X145624619Y-98913904D02*
X145167476Y-98913904D01*
X145396047Y-98913904D02*
X145396047Y-98113904D01*
X145319857Y-98228190D01*
X145243666Y-98304380D01*
X145167476Y-98342476D01*
X146119857Y-98113904D02*
X146196047Y-98113904D01*
X146272238Y-98152000D01*
X146310333Y-98190095D01*
X146348428Y-98266285D01*
X146386523Y-98418666D01*
X146386523Y-98609142D01*
X146348428Y-98761523D01*
X146310333Y-98837714D01*
X146272238Y-98875809D01*
X146196047Y-98913904D01*
X146119857Y-98913904D01*
X146043666Y-98875809D01*
X146005571Y-98837714D01*
X145967476Y-98761523D01*
X145929380Y-98609142D01*
X145929380Y-98418666D01*
X145967476Y-98266285D01*
X146005571Y-98190095D01*
X146043666Y-98152000D01*
X146119857Y-98113904D01*
X146729380Y-98913904D02*
X146729380Y-98113904D01*
X147186523Y-98913904D02*
X146843666Y-98456761D01*
X147186523Y-98113904D02*
X146729380Y-98571047D01*
X124200000Y-115258809D02*
X124314285Y-115296904D01*
X124504761Y-115296904D01*
X124580952Y-115258809D01*
X124619047Y-115220714D01*
X124657142Y-115144523D01*
X124657142Y-115068333D01*
X124619047Y-114992142D01*
X124580952Y-114954047D01*
X124504761Y-114915952D01*
X124352380Y-114877857D01*
X124276190Y-114839761D01*
X124238095Y-114801666D01*
X124200000Y-114725476D01*
X124200000Y-114649285D01*
X124238095Y-114573095D01*
X124276190Y-114535000D01*
X124352380Y-114496904D01*
X124542857Y-114496904D01*
X124657142Y-114535000D01*
X124923809Y-114496904D02*
X125114285Y-115296904D01*
X125266666Y-114725476D01*
X125419047Y-115296904D01*
X125609523Y-114496904D01*
X125723809Y-115373095D02*
X126333333Y-115373095D01*
X126980952Y-115296904D02*
X126714285Y-114915952D01*
X126523809Y-115296904D02*
X126523809Y-114496904D01*
X126828571Y-114496904D01*
X126904761Y-114535000D01*
X126942857Y-114573095D01*
X126980952Y-114649285D01*
X126980952Y-114763571D01*
X126942857Y-114839761D01*
X126904761Y-114877857D01*
X126828571Y-114915952D01*
X126523809Y-114915952D01*
X127323809Y-114877857D02*
X127590476Y-114877857D01*
X127704761Y-115296904D02*
X127323809Y-115296904D01*
X127323809Y-114496904D01*
X127704761Y-114496904D01*
X128009523Y-115258809D02*
X128123809Y-115296904D01*
X128314285Y-115296904D01*
X128390476Y-115258809D01*
X128428571Y-115220714D01*
X128466666Y-115144523D01*
X128466666Y-115068333D01*
X128428571Y-114992142D01*
X128390476Y-114954047D01*
X128314285Y-114915952D01*
X128161904Y-114877857D01*
X128085714Y-114839761D01*
X128047619Y-114801666D01*
X128009523Y-114725476D01*
X128009523Y-114649285D01*
X128047619Y-114573095D01*
X128085714Y-114535000D01*
X128161904Y-114496904D01*
X128352380Y-114496904D01*
X128466666Y-114535000D01*
X128809523Y-114877857D02*
X129076190Y-114877857D01*
X129190476Y-115296904D02*
X128809523Y-115296904D01*
X128809523Y-114496904D01*
X129190476Y-114496904D01*
X129419047Y-114496904D02*
X129876190Y-114496904D01*
X129647619Y-115296904D02*
X129647619Y-114496904D01*
X156794904Y-96424476D02*
X156413952Y-96691142D01*
X156794904Y-96881619D02*
X155994904Y-96881619D01*
X155994904Y-96576857D01*
X156033000Y-96500666D01*
X156071095Y-96462571D01*
X156147285Y-96424476D01*
X156261571Y-96424476D01*
X156337761Y-96462571D01*
X156375857Y-96500666D01*
X156413952Y-96576857D01*
X156413952Y-96881619D01*
X156375857Y-95814952D02*
X156375857Y-96081619D01*
X156794904Y-96081619D02*
X155994904Y-96081619D01*
X155994904Y-95700666D01*
X156794904Y-95395904D02*
X155994904Y-95395904D01*
X156566333Y-95129238D01*
X155994904Y-94862571D01*
X156794904Y-94862571D01*
X155994904Y-94138761D02*
X155994904Y-94291142D01*
X156033000Y-94367333D01*
X156071095Y-94405428D01*
X156185380Y-94481619D01*
X156337761Y-94519714D01*
X156642523Y-94519714D01*
X156718714Y-94481619D01*
X156756809Y-94443523D01*
X156794904Y-94367333D01*
X156794904Y-94214952D01*
X156756809Y-94138761D01*
X156718714Y-94100666D01*
X156642523Y-94062571D01*
X156452047Y-94062571D01*
X156375857Y-94100666D01*
X156337761Y-94138761D01*
X156299666Y-94214952D01*
X156299666Y-94367333D01*
X156337761Y-94443523D01*
X156375857Y-94481619D01*
X156452047Y-94519714D01*
X156794904Y-93681619D02*
X156794904Y-93529238D01*
X156756809Y-93453047D01*
X156718714Y-93414952D01*
X156604428Y-93338761D01*
X156452047Y-93300666D01*
X156147285Y-93300666D01*
X156071095Y-93338761D01*
X156033000Y-93376857D01*
X155994904Y-93453047D01*
X155994904Y-93605428D01*
X156033000Y-93681619D01*
X156071095Y-93719714D01*
X156147285Y-93757809D01*
X156337761Y-93757809D01*
X156413952Y-93719714D01*
X156452047Y-93681619D01*
X156490142Y-93605428D01*
X156490142Y-93453047D01*
X156452047Y-93376857D01*
X156413952Y-93338761D01*
X156337761Y-93300666D01*
X156794904Y-92957809D02*
X155994904Y-92957809D01*
X156375857Y-92957809D02*
X156375857Y-92500666D01*
X156794904Y-92500666D02*
X155994904Y-92500666D01*
X155994904Y-92195904D02*
X156794904Y-92005428D01*
X156223476Y-91853047D01*
X156794904Y-91700666D01*
X155994904Y-91510190D01*
X130238714Y-74199714D02*
X130200619Y-74237809D01*
X130086333Y-74275904D01*
X130010142Y-74275904D01*
X129895857Y-74237809D01*
X129819666Y-74161619D01*
X129781571Y-74085428D01*
X129743476Y-73933047D01*
X129743476Y-73818761D01*
X129781571Y-73666380D01*
X129819666Y-73590190D01*
X129895857Y-73514000D01*
X130010142Y-73475904D01*
X130086333Y-73475904D01*
X130200619Y-73514000D01*
X130238714Y-73552095D01*
X130581571Y-74275904D02*
X130581571Y-73475904D01*
X130581571Y-73856857D02*
X131038714Y-73856857D01*
X131038714Y-74275904D02*
X131038714Y-73475904D01*
X131343476Y-73475904D02*
X131838714Y-73475904D01*
X131572047Y-73780666D01*
X131686333Y-73780666D01*
X131762523Y-73818761D01*
X131800619Y-73856857D01*
X131838714Y-73933047D01*
X131838714Y-74123523D01*
X131800619Y-74199714D01*
X131762523Y-74237809D01*
X131686333Y-74275904D01*
X131457761Y-74275904D01*
X131381571Y-74237809D01*
X131343476Y-74199714D01*
X132524428Y-73742571D02*
X132524428Y-74275904D01*
X132333952Y-73437809D02*
X132143476Y-74009238D01*
X132638714Y-74009238D01*
X133095857Y-73475904D02*
X133172047Y-73475904D01*
X133248238Y-73514000D01*
X133286333Y-73552095D01*
X133324428Y-73628285D01*
X133362523Y-73780666D01*
X133362523Y-73971142D01*
X133324428Y-74123523D01*
X133286333Y-74199714D01*
X133248238Y-74237809D01*
X133172047Y-74275904D01*
X133095857Y-74275904D01*
X133019666Y-74237809D01*
X132981571Y-74199714D01*
X132943476Y-74123523D01*
X132905380Y-73971142D01*
X132905380Y-73780666D01*
X132943476Y-73628285D01*
X132981571Y-73552095D01*
X133019666Y-73514000D01*
X133095857Y-73475904D01*
X134124428Y-73514000D02*
X134048238Y-73475904D01*
X133933952Y-73475904D01*
X133819666Y-73514000D01*
X133743476Y-73590190D01*
X133705380Y-73666380D01*
X133667285Y-73818761D01*
X133667285Y-73933047D01*
X133705380Y-74085428D01*
X133743476Y-74161619D01*
X133819666Y-74237809D01*
X133933952Y-74275904D01*
X134010142Y-74275904D01*
X134124428Y-74237809D01*
X134162523Y-74199714D01*
X134162523Y-73933047D01*
X134010142Y-73933047D01*
X152718000Y-64395333D02*
X153098952Y-64395333D01*
X152641809Y-64623904D02*
X152908476Y-63823904D01*
X153175142Y-64623904D01*
X153441809Y-64623904D02*
X153441809Y-63823904D01*
X153708476Y-64395333D01*
X153975142Y-63823904D01*
X153975142Y-64623904D01*
X154318000Y-64585809D02*
X154432285Y-64623904D01*
X154622761Y-64623904D01*
X154698952Y-64585809D01*
X154737047Y-64547714D01*
X154775142Y-64471523D01*
X154775142Y-64395333D01*
X154737047Y-64319142D01*
X154698952Y-64281047D01*
X154622761Y-64242952D01*
X154470380Y-64204857D01*
X154394190Y-64166761D01*
X154356095Y-64128666D01*
X154318000Y-64052476D01*
X154318000Y-63976285D01*
X154356095Y-63900095D01*
X154394190Y-63862000D01*
X154470380Y-63823904D01*
X154660857Y-63823904D01*
X154775142Y-63862000D01*
X155537047Y-64623904D02*
X155079904Y-64623904D01*
X155308476Y-64623904D02*
X155308476Y-63823904D01*
X155232285Y-63938190D01*
X155156095Y-64014380D01*
X155079904Y-64052476D01*
X156298952Y-64623904D02*
X155841809Y-64623904D01*
X156070380Y-64623904D02*
X156070380Y-63823904D01*
X155994190Y-63938190D01*
X155918000Y-64014380D01*
X155841809Y-64052476D01*
X157060857Y-64623904D02*
X156603714Y-64623904D01*
X156832285Y-64623904D02*
X156832285Y-63823904D01*
X156756095Y-63938190D01*
X156679904Y-64014380D01*
X156603714Y-64052476D01*
X157327523Y-63823904D02*
X157860857Y-63823904D01*
X157518000Y-64623904D01*
X158165619Y-64319142D02*
X158775142Y-64319142D01*
X159079904Y-63823904D02*
X159575142Y-63823904D01*
X159308476Y-64128666D01*
X159422761Y-64128666D01*
X159498952Y-64166761D01*
X159537047Y-64204857D01*
X159575142Y-64281047D01*
X159575142Y-64471523D01*
X159537047Y-64547714D01*
X159498952Y-64585809D01*
X159422761Y-64623904D01*
X159194190Y-64623904D01*
X159118000Y-64585809D01*
X159079904Y-64547714D01*
X159918000Y-64547714D02*
X159956095Y-64585809D01*
X159918000Y-64623904D01*
X159879904Y-64585809D01*
X159918000Y-64547714D01*
X159918000Y-64623904D01*
X160222761Y-63823904D02*
X160718000Y-63823904D01*
X160451333Y-64128666D01*
X160565619Y-64128666D01*
X160641809Y-64166761D01*
X160679904Y-64204857D01*
X160718000Y-64281047D01*
X160718000Y-64471523D01*
X160679904Y-64547714D01*
X160641809Y-64585809D01*
X160565619Y-64623904D01*
X160337047Y-64623904D01*
X160260857Y-64585809D01*
X160222761Y-64547714D01*
X147046904Y-103968380D02*
X147046904Y-104425523D01*
X147046904Y-104196952D02*
X146246904Y-104196952D01*
X146361190Y-104273142D01*
X146437380Y-104349333D01*
X146475476Y-104425523D01*
X146246904Y-103282666D02*
X146246904Y-103435047D01*
X146285000Y-103511238D01*
X146323095Y-103549333D01*
X146437380Y-103625523D01*
X146589761Y-103663619D01*
X146894523Y-103663619D01*
X146970714Y-103625523D01*
X147008809Y-103587428D01*
X147046904Y-103511238D01*
X147046904Y-103358857D01*
X147008809Y-103282666D01*
X146970714Y-103244571D01*
X146894523Y-103206476D01*
X146704047Y-103206476D01*
X146627857Y-103244571D01*
X146589761Y-103282666D01*
X146551666Y-103358857D01*
X146551666Y-103511238D01*
X146589761Y-103587428D01*
X146627857Y-103625523D01*
X146704047Y-103663619D01*
X147046904Y-102863619D02*
X146246904Y-102863619D01*
X146818333Y-102596952D01*
X146246904Y-102330285D01*
X147046904Y-102330285D01*
X147046904Y-101949333D02*
X146246904Y-101949333D01*
X146627857Y-101949333D02*
X146627857Y-101492190D01*
X147046904Y-101492190D02*
X146246904Y-101492190D01*
X146513571Y-101187428D02*
X146513571Y-100768380D01*
X147046904Y-101187428D01*
X147046904Y-100768380D01*
X115043000Y-80200333D02*
X115004904Y-80276523D01*
X115004904Y-80390809D01*
X115043000Y-80505095D01*
X115119190Y-80581285D01*
X115195380Y-80619380D01*
X115347761Y-80657476D01*
X115462047Y-80657476D01*
X115614428Y-80619380D01*
X115690619Y-80581285D01*
X115766809Y-80505095D01*
X115804904Y-80390809D01*
X115804904Y-80314619D01*
X115766809Y-80200333D01*
X115728714Y-80162238D01*
X115462047Y-80162238D01*
X115462047Y-80314619D01*
X115004904Y-79895571D02*
X115804904Y-79705095D01*
X115233476Y-79552714D01*
X115804904Y-79400333D01*
X115004904Y-79209857D01*
X115881095Y-79095571D02*
X115881095Y-78486047D01*
X115804904Y-77838428D02*
X115423952Y-78105095D01*
X115804904Y-78295571D02*
X115004904Y-78295571D01*
X115004904Y-77990809D01*
X115043000Y-77914619D01*
X115081095Y-77876523D01*
X115157285Y-77838428D01*
X115271571Y-77838428D01*
X115347761Y-77876523D01*
X115385857Y-77914619D01*
X115423952Y-77990809D01*
X115423952Y-78295571D01*
X115004904Y-77571761D02*
X115804904Y-77038428D01*
X115004904Y-77038428D02*
X115804904Y-77571761D01*
X115043000Y-85185095D02*
X115004904Y-85261285D01*
X115004904Y-85375571D01*
X115043000Y-85489857D01*
X115119190Y-85566047D01*
X115195380Y-85604142D01*
X115347761Y-85642238D01*
X115462047Y-85642238D01*
X115614428Y-85604142D01*
X115690619Y-85566047D01*
X115766809Y-85489857D01*
X115804904Y-85375571D01*
X115804904Y-85299380D01*
X115766809Y-85185095D01*
X115728714Y-85147000D01*
X115462047Y-85147000D01*
X115462047Y-85299380D01*
X115004904Y-84880333D02*
X115804904Y-84689857D01*
X115233476Y-84537476D01*
X115804904Y-84385095D01*
X115004904Y-84194619D01*
X115881095Y-84080333D02*
X115881095Y-83470809D01*
X115004904Y-83394619D02*
X115004904Y-82937476D01*
X115804904Y-83166047D02*
X115004904Y-83166047D01*
X115004904Y-82747000D02*
X115804904Y-82213666D01*
X115004904Y-82213666D02*
X115804904Y-82747000D01*
X115043000Y-91503285D02*
X115004904Y-91579476D01*
X115004904Y-91693761D01*
X115043000Y-91808047D01*
X115119190Y-91884238D01*
X115195380Y-91922333D01*
X115347761Y-91960428D01*
X115462047Y-91960428D01*
X115614428Y-91922333D01*
X115690619Y-91884238D01*
X115766809Y-91808047D01*
X115804904Y-91693761D01*
X115804904Y-91617571D01*
X115766809Y-91503285D01*
X115728714Y-91465190D01*
X115462047Y-91465190D01*
X115462047Y-91617571D01*
X115004904Y-91198523D02*
X115804904Y-91008047D01*
X115233476Y-90855666D01*
X115804904Y-90703285D01*
X115004904Y-90512809D01*
X115881095Y-90398523D02*
X115881095Y-89789000D01*
X115385857Y-89598523D02*
X115385857Y-89331857D01*
X115804904Y-89217571D02*
X115804904Y-89598523D01*
X115004904Y-89598523D01*
X115004904Y-89217571D01*
X115804904Y-88417571D02*
X115423952Y-88684238D01*
X115804904Y-88874714D02*
X115004904Y-88874714D01*
X115004904Y-88569952D01*
X115043000Y-88493761D01*
X115081095Y-88455666D01*
X115157285Y-88417571D01*
X115271571Y-88417571D01*
X115347761Y-88455666D01*
X115385857Y-88493761D01*
X115423952Y-88569952D01*
X115423952Y-88874714D01*
X115804904Y-87617571D02*
X115423952Y-87884238D01*
X115804904Y-88074714D02*
X115004904Y-88074714D01*
X115004904Y-87769952D01*
X115043000Y-87693761D01*
X115081095Y-87655666D01*
X115157285Y-87617571D01*
X115271571Y-87617571D01*
X115347761Y-87655666D01*
X115385857Y-87693761D01*
X115423952Y-87769952D01*
X115423952Y-88074714D01*
X128257428Y-76142904D02*
X128752666Y-76142904D01*
X128486000Y-76447666D01*
X128600285Y-76447666D01*
X128676476Y-76485761D01*
X128714571Y-76523857D01*
X128752666Y-76600047D01*
X128752666Y-76790523D01*
X128714571Y-76866714D01*
X128676476Y-76904809D01*
X128600285Y-76942904D01*
X128371714Y-76942904D01*
X128295523Y-76904809D01*
X128257428Y-76866714D01*
X129019333Y-76142904D02*
X129514571Y-76142904D01*
X129247904Y-76447666D01*
X129362190Y-76447666D01*
X129438380Y-76485761D01*
X129476476Y-76523857D01*
X129514571Y-76600047D01*
X129514571Y-76790523D01*
X129476476Y-76866714D01*
X129438380Y-76904809D01*
X129362190Y-76942904D01*
X129133619Y-76942904D01*
X129057428Y-76904809D01*
X129019333Y-76866714D01*
X130009809Y-76142904D02*
X130086000Y-76142904D01*
X130162190Y-76181000D01*
X130200285Y-76219095D01*
X130238380Y-76295285D01*
X130276476Y-76447666D01*
X130276476Y-76638142D01*
X130238380Y-76790523D01*
X130200285Y-76866714D01*
X130162190Y-76904809D01*
X130086000Y-76942904D01*
X130009809Y-76942904D01*
X129933619Y-76904809D01*
X129895523Y-76866714D01*
X129857428Y-76790523D01*
X129819333Y-76638142D01*
X129819333Y-76447666D01*
X129857428Y-76295285D01*
X129895523Y-76219095D01*
X129933619Y-76181000D01*
X130009809Y-76142904D01*
X127368428Y-80460904D02*
X127863666Y-80460904D01*
X127597000Y-80765666D01*
X127711285Y-80765666D01*
X127787476Y-80803761D01*
X127825571Y-80841857D01*
X127863666Y-80918047D01*
X127863666Y-81108523D01*
X127825571Y-81184714D01*
X127787476Y-81222809D01*
X127711285Y-81260904D01*
X127482714Y-81260904D01*
X127406523Y-81222809D01*
X127368428Y-81184714D01*
X128130333Y-80460904D02*
X128625571Y-80460904D01*
X128358904Y-80765666D01*
X128473190Y-80765666D01*
X128549380Y-80803761D01*
X128587476Y-80841857D01*
X128625571Y-80918047D01*
X128625571Y-81108523D01*
X128587476Y-81184714D01*
X128549380Y-81222809D01*
X128473190Y-81260904D01*
X128244619Y-81260904D01*
X128168428Y-81222809D01*
X128130333Y-81184714D01*
X129120809Y-80460904D02*
X129197000Y-80460904D01*
X129273190Y-80499000D01*
X129311285Y-80537095D01*
X129349380Y-80613285D01*
X129387476Y-80765666D01*
X129387476Y-80956142D01*
X129349380Y-81108523D01*
X129311285Y-81184714D01*
X129273190Y-81222809D01*
X129197000Y-81260904D01*
X129120809Y-81260904D01*
X129044619Y-81222809D01*
X129006523Y-81184714D01*
X128968428Y-81108523D01*
X128930333Y-80956142D01*
X128930333Y-80765666D01*
X128968428Y-80613285D01*
X129006523Y-80537095D01*
X129044619Y-80499000D01*
X129120809Y-80460904D01*
X126606428Y-84524904D02*
X127101666Y-84524904D01*
X126835000Y-84829666D01*
X126949285Y-84829666D01*
X127025476Y-84867761D01*
X127063571Y-84905857D01*
X127101666Y-84982047D01*
X127101666Y-85172523D01*
X127063571Y-85248714D01*
X127025476Y-85286809D01*
X126949285Y-85324904D01*
X126720714Y-85324904D01*
X126644523Y-85286809D01*
X126606428Y-85248714D01*
X127368333Y-84524904D02*
X127863571Y-84524904D01*
X127596904Y-84829666D01*
X127711190Y-84829666D01*
X127787380Y-84867761D01*
X127825476Y-84905857D01*
X127863571Y-84982047D01*
X127863571Y-85172523D01*
X127825476Y-85248714D01*
X127787380Y-85286809D01*
X127711190Y-85324904D01*
X127482619Y-85324904D01*
X127406428Y-85286809D01*
X127368333Y-85248714D01*
X128358809Y-84524904D02*
X128435000Y-84524904D01*
X128511190Y-84563000D01*
X128549285Y-84601095D01*
X128587380Y-84677285D01*
X128625476Y-84829666D01*
X128625476Y-85020142D01*
X128587380Y-85172523D01*
X128549285Y-85248714D01*
X128511190Y-85286809D01*
X128435000Y-85324904D01*
X128358809Y-85324904D01*
X128282619Y-85286809D01*
X128244523Y-85248714D01*
X128206428Y-85172523D01*
X128168333Y-85020142D01*
X128168333Y-84829666D01*
X128206428Y-84677285D01*
X128244523Y-84601095D01*
X128282619Y-84563000D01*
X128358809Y-84524904D01*
X126219428Y-63988904D02*
X126219428Y-63188904D01*
X126486095Y-63760333D01*
X126752761Y-63188904D01*
X126752761Y-63988904D01*
X127400380Y-63569857D02*
X127133714Y-63569857D01*
X127133714Y-63988904D02*
X127133714Y-63188904D01*
X127514666Y-63188904D01*
X127819428Y-63684142D02*
X128428952Y-63684142D01*
X128771809Y-63950809D02*
X128886095Y-63988904D01*
X129076571Y-63988904D01*
X129152761Y-63950809D01*
X129190857Y-63912714D01*
X129228952Y-63836523D01*
X129228952Y-63760333D01*
X129190857Y-63684142D01*
X129152761Y-63646047D01*
X129076571Y-63607952D01*
X128924190Y-63569857D01*
X128848000Y-63531761D01*
X128809904Y-63493666D01*
X128771809Y-63417476D01*
X128771809Y-63341285D01*
X128809904Y-63265095D01*
X128848000Y-63227000D01*
X128924190Y-63188904D01*
X129114666Y-63188904D01*
X129228952Y-63227000D01*
X129571809Y-63988904D02*
X129571809Y-63188904D01*
X129838476Y-63760333D01*
X130105142Y-63188904D01*
X130105142Y-63988904D01*
X130486095Y-63988904D02*
X130486095Y-63188904D01*
X130676571Y-63188904D01*
X130790857Y-63227000D01*
X130867047Y-63303190D01*
X130905142Y-63379380D01*
X130943238Y-63531761D01*
X130943238Y-63646047D01*
X130905142Y-63798428D01*
X130867047Y-63874619D01*
X130790857Y-63950809D01*
X130676571Y-63988904D01*
X130486095Y-63988904D01*
X131552761Y-63569857D02*
X131286095Y-63569857D01*
X131286095Y-63988904D02*
X131286095Y-63188904D01*
X131667047Y-63188904D01*
X132124190Y-63188904D02*
X132200380Y-63188904D01*
X132276571Y-63227000D01*
X132314666Y-63265095D01*
X132352761Y-63341285D01*
X132390857Y-63493666D01*
X132390857Y-63684142D01*
X132352761Y-63836523D01*
X132314666Y-63912714D01*
X132276571Y-63950809D01*
X132200380Y-63988904D01*
X132124190Y-63988904D01*
X132048000Y-63950809D01*
X132009904Y-63912714D01*
X131971809Y-63836523D01*
X131933714Y-63684142D01*
X131933714Y-63493666D01*
X131971809Y-63341285D01*
X132009904Y-63265095D01*
X132048000Y-63227000D01*
X132124190Y-63188904D01*
X133114666Y-63188904D02*
X132733714Y-63188904D01*
X132695619Y-63569857D01*
X132733714Y-63531761D01*
X132809904Y-63493666D01*
X133000380Y-63493666D01*
X133076571Y-63531761D01*
X133114666Y-63569857D01*
X133152761Y-63646047D01*
X133152761Y-63836523D01*
X133114666Y-63912714D01*
X133076571Y-63950809D01*
X133000380Y-63988904D01*
X132809904Y-63988904D01*
X132733714Y-63950809D01*
X132695619Y-63912714D01*
X133648000Y-63188904D02*
X133724190Y-63188904D01*
X133800380Y-63227000D01*
X133838476Y-63265095D01*
X133876571Y-63341285D01*
X133914666Y-63493666D01*
X133914666Y-63684142D01*
X133876571Y-63836523D01*
X133838476Y-63912714D01*
X133800380Y-63950809D01*
X133724190Y-63988904D01*
X133648000Y-63988904D01*
X133571809Y-63950809D01*
X133533714Y-63912714D01*
X133495619Y-63836523D01*
X133457523Y-63684142D01*
X133457523Y-63493666D01*
X133495619Y-63341285D01*
X133533714Y-63265095D01*
X133571809Y-63227000D01*
X133648000Y-63188904D01*
X141676380Y-61952047D02*
X141676380Y-62523476D01*
X141676380Y-62237761D02*
X140676380Y-62237761D01*
X140819238Y-62333000D01*
X140914476Y-62428238D01*
X140962095Y-62523476D01*
X140676380Y-61333000D02*
X140676380Y-61237761D01*
X140724000Y-61142523D01*
X140771619Y-61094904D01*
X140866857Y-61047285D01*
X141057333Y-60999666D01*
X141295428Y-60999666D01*
X141485904Y-61047285D01*
X141581142Y-61094904D01*
X141628761Y-61142523D01*
X141676380Y-61237761D01*
X141676380Y-61333000D01*
X141628761Y-61428238D01*
X141581142Y-61475857D01*
X141485904Y-61523476D01*
X141295428Y-61571095D01*
X141057333Y-61571095D01*
X140866857Y-61523476D01*
X140771619Y-61475857D01*
X140724000Y-61428238D01*
X140676380Y-61333000D01*
X140676380Y-60380619D02*
X140676380Y-60285380D01*
X140724000Y-60190142D01*
X140771619Y-60142523D01*
X140866857Y-60094904D01*
X141057333Y-60047285D01*
X141295428Y-60047285D01*
X141485904Y-60094904D01*
X141581142Y-60142523D01*
X141628761Y-60190142D01*
X141676380Y-60285380D01*
X141676380Y-60380619D01*
X141628761Y-60475857D01*
X141581142Y-60523476D01*
X141485904Y-60571095D01*
X141295428Y-60618714D01*
X141057333Y-60618714D01*
X140866857Y-60571095D01*
X140771619Y-60523476D01*
X140724000Y-60475857D01*
X140676380Y-60380619D01*
X141009714Y-59618714D02*
X141676380Y-59618714D01*
X141104952Y-59618714D02*
X141057333Y-59571095D01*
X141009714Y-59475857D01*
X141009714Y-59333000D01*
X141057333Y-59237761D01*
X141152571Y-59190142D01*
X141676380Y-59190142D01*
X146661142Y-61888619D02*
X146708761Y-61936238D01*
X146756380Y-62079095D01*
X146756380Y-62174333D01*
X146708761Y-62317190D01*
X146613523Y-62412428D01*
X146518285Y-62460047D01*
X146327809Y-62507666D01*
X146184952Y-62507666D01*
X145994476Y-62460047D01*
X145899238Y-62412428D01*
X145804000Y-62317190D01*
X145756380Y-62174333D01*
X145756380Y-62079095D01*
X145804000Y-61936238D01*
X145851619Y-61888619D01*
X145756380Y-61602904D02*
X145756380Y-61031476D01*
X146756380Y-61317190D02*
X145756380Y-61317190D01*
X146708761Y-60745761D02*
X146756380Y-60602904D01*
X146756380Y-60364809D01*
X146708761Y-60269571D01*
X146661142Y-60221952D01*
X146565904Y-60174333D01*
X146470666Y-60174333D01*
X146375428Y-60221952D01*
X146327809Y-60269571D01*
X146280190Y-60364809D01*
X146232571Y-60555285D01*
X146184952Y-60650523D01*
X146137333Y-60698142D01*
X146042095Y-60745761D01*
X145946857Y-60745761D01*
X145851619Y-60698142D01*
X145804000Y-60650523D01*
X145756380Y-60555285D01*
X145756380Y-60317190D01*
X145804000Y-60174333D01*
X145518285Y-79922714D02*
X145518285Y-80589380D01*
X145280190Y-79541761D02*
X145042095Y-80256047D01*
X145661142Y-80256047D01*
X146042095Y-80589380D02*
X146042095Y-79589380D01*
X146613523Y-80589380D02*
X146184952Y-80017952D01*
X146613523Y-79589380D02*
X146042095Y-80160809D01*
X146946857Y-79589380D02*
X147613523Y-79589380D01*
X147184952Y-80589380D01*
X145391333Y-77541380D02*
X145581809Y-77541380D01*
X145677047Y-77493761D01*
X145724666Y-77446142D01*
X145819904Y-77303285D01*
X145867523Y-77112809D01*
X145867523Y-76731857D01*
X145819904Y-76636619D01*
X145772285Y-76589000D01*
X145677047Y-76541380D01*
X145486571Y-76541380D01*
X145391333Y-76589000D01*
X145343714Y-76636619D01*
X145296095Y-76731857D01*
X145296095Y-76969952D01*
X145343714Y-77065190D01*
X145391333Y-77112809D01*
X145486571Y-77160428D01*
X145677047Y-77160428D01*
X145772285Y-77112809D01*
X145819904Y-77065190D01*
X145867523Y-76969952D01*
X146296095Y-77541380D02*
X146296095Y-76541380D01*
X146867523Y-77541380D02*
X146438952Y-76969952D01*
X146867523Y-76541380D02*
X146296095Y-77112809D01*
X147819904Y-77541380D02*
X147248476Y-77541380D01*
X147534190Y-77541380D02*
X147534190Y-76541380D01*
X147438952Y-76684238D01*
X147343714Y-76779476D01*
X147248476Y-76827095D01*
M02*
