G04 #@! TF.FileFunction,Legend,Bot*
%FSLAX46Y46*%
G04 Gerber Fmt 4.6, Leading zero omitted, Abs format (unit mm)*
G04 Created by KiCad (PCBNEW 4.1.0-alpha+201606141244+6933~45~ubuntu14.04.1-product) date Wed Jun 15 10:52:02 2016*
%MOMM*%
%LPD*%
G01*
G04 APERTURE LIST*
%ADD10C,0.100000*%
%ADD11C,0.150000*%
%ADD12C,4.900000*%
%ADD13C,1.299160*%
%ADD14R,2.127200X2.127200*%
%ADD15O,2.127200X2.127200*%
%ADD16R,2.635200X2.635200*%
%ADD17C,1.797000*%
%ADD18R,2.400000X2.400000*%
%ADD19C,2.400000*%
G04 APERTURE END LIST*
D10*
D11*
X160124666Y-84947857D02*
X160124666Y-85424047D01*
X160410380Y-84852619D02*
X159410380Y-85185952D01*
X160410380Y-85519285D01*
X159743714Y-85852619D02*
X160410380Y-85852619D01*
X159838952Y-85852619D02*
X159791333Y-85900238D01*
X159743714Y-85995476D01*
X159743714Y-86138333D01*
X159791333Y-86233571D01*
X159886571Y-86281190D01*
X160410380Y-86281190D01*
X159743714Y-86614523D02*
X159743714Y-86995476D01*
X159410380Y-86757380D02*
X160267523Y-86757380D01*
X160362761Y-86805000D01*
X160410380Y-86900238D01*
X160410380Y-86995476D01*
X160362761Y-87709761D02*
X160410380Y-87614523D01*
X160410380Y-87424047D01*
X160362761Y-87328809D01*
X160267523Y-87281190D01*
X159886571Y-87281190D01*
X159791333Y-87328809D01*
X159743714Y-87424047D01*
X159743714Y-87614523D01*
X159791333Y-87709761D01*
X159886571Y-87757380D01*
X159981809Y-87757380D01*
X160077047Y-87281190D01*
X159743714Y-88185952D02*
X160410380Y-88185952D01*
X159838952Y-88185952D02*
X159791333Y-88233571D01*
X159743714Y-88328809D01*
X159743714Y-88471666D01*
X159791333Y-88566904D01*
X159886571Y-88614523D01*
X160410380Y-88614523D01*
X159743714Y-89090714D02*
X160410380Y-89090714D01*
X159838952Y-89090714D02*
X159791333Y-89138333D01*
X159743714Y-89233571D01*
X159743714Y-89376428D01*
X159791333Y-89471666D01*
X159886571Y-89519285D01*
X160410380Y-89519285D01*
X160410380Y-90424047D02*
X159886571Y-90424047D01*
X159791333Y-90376428D01*
X159743714Y-90281190D01*
X159743714Y-90090714D01*
X159791333Y-89995476D01*
X160362761Y-90424047D02*
X160410380Y-90328809D01*
X160410380Y-90090714D01*
X160362761Y-89995476D01*
X160267523Y-89947857D01*
X160172285Y-89947857D01*
X160077047Y-89995476D01*
X160029428Y-90090714D01*
X160029428Y-90328809D01*
X159981809Y-90424047D01*
X160410380Y-92138333D02*
X160410380Y-91662142D01*
X159410380Y-91662142D01*
X160362761Y-92852619D02*
X160410380Y-92757380D01*
X160410380Y-92566904D01*
X160362761Y-92471666D01*
X160267523Y-92424047D01*
X159886571Y-92424047D01*
X159791333Y-92471666D01*
X159743714Y-92566904D01*
X159743714Y-92757380D01*
X159791333Y-92852619D01*
X159886571Y-92900238D01*
X159981809Y-92900238D01*
X160077047Y-92424047D01*
X159743714Y-93328809D02*
X160410380Y-93328809D01*
X159838952Y-93328809D02*
X159791333Y-93376428D01*
X159743714Y-93471666D01*
X159743714Y-93614523D01*
X159791333Y-93709761D01*
X159886571Y-93757380D01*
X160410380Y-93757380D01*
X159743714Y-94662142D02*
X160553238Y-94662142D01*
X160648476Y-94614523D01*
X160696095Y-94566904D01*
X160743714Y-94471666D01*
X160743714Y-94328809D01*
X160696095Y-94233571D01*
X160362761Y-94662142D02*
X160410380Y-94566904D01*
X160410380Y-94376428D01*
X160362761Y-94281190D01*
X160315142Y-94233571D01*
X160219904Y-94185952D01*
X159934190Y-94185952D01*
X159838952Y-94233571D01*
X159791333Y-94281190D01*
X159743714Y-94376428D01*
X159743714Y-94566904D01*
X159791333Y-94662142D01*
X159743714Y-94995476D02*
X159743714Y-95376428D01*
X159410380Y-95138333D02*
X160267523Y-95138333D01*
X160362761Y-95185952D01*
X160410380Y-95281190D01*
X160410380Y-95376428D01*
X160410380Y-95709761D02*
X159410380Y-95709761D01*
X160410380Y-96138333D02*
X159886571Y-96138333D01*
X159791333Y-96090714D01*
X159743714Y-95995476D01*
X159743714Y-95852619D01*
X159791333Y-95757380D01*
X159838952Y-95709761D01*
X160315142Y-96614523D02*
X160362761Y-96662142D01*
X160410380Y-96614523D01*
X160362761Y-96566904D01*
X160315142Y-96614523D01*
X160410380Y-96614523D01*
X159791333Y-96614523D02*
X159838952Y-96662142D01*
X159886571Y-96614523D01*
X159838952Y-96566904D01*
X159791333Y-96614523D01*
X159886571Y-96614523D01*
X161393714Y-83019285D02*
X162060380Y-83019285D01*
X161012761Y-82781190D02*
X161727047Y-82543095D01*
X161727047Y-83162142D01*
X161060380Y-83447857D02*
X161060380Y-84066904D01*
X161441333Y-83733571D01*
X161441333Y-83876428D01*
X161488952Y-83971666D01*
X161536571Y-84019285D01*
X161631809Y-84066904D01*
X161869904Y-84066904D01*
X161965142Y-84019285D01*
X162012761Y-83971666D01*
X162060380Y-83876428D01*
X162060380Y-83590714D01*
X162012761Y-83495476D01*
X161965142Y-83447857D01*
X161060380Y-84400238D02*
X161060380Y-85019285D01*
X161441333Y-84685952D01*
X161441333Y-84828809D01*
X161488952Y-84924047D01*
X161536571Y-84971666D01*
X161631809Y-85019285D01*
X161869904Y-85019285D01*
X161965142Y-84971666D01*
X162012761Y-84924047D01*
X162060380Y-84828809D01*
X162060380Y-84543095D01*
X162012761Y-84447857D01*
X161965142Y-84400238D01*
X162060380Y-86209761D02*
X161060380Y-86209761D01*
X161774666Y-86543095D01*
X161060380Y-86876428D01*
X162060380Y-86876428D01*
X162060380Y-87352619D02*
X161060380Y-87352619D01*
X161536571Y-87352619D02*
X161536571Y-87924047D01*
X162060380Y-87924047D02*
X161060380Y-87924047D01*
X161393714Y-88305000D02*
X161393714Y-88828809D01*
X162060380Y-88305000D01*
X162060380Y-88828809D01*
X161679428Y-89971666D02*
X161679428Y-90733571D01*
X161393714Y-91209761D02*
X161679428Y-91971666D01*
X161965142Y-91209761D01*
X162060380Y-93733571D02*
X162060380Y-93162142D01*
X162060380Y-93447857D02*
X161060380Y-93447857D01*
X161203238Y-93352619D01*
X161298476Y-93257380D01*
X161346095Y-93162142D01*
X161060380Y-94590714D02*
X161060380Y-94400238D01*
X161108000Y-94305000D01*
X161155619Y-94257380D01*
X161298476Y-94162142D01*
X161488952Y-94114523D01*
X161869904Y-94114523D01*
X161965142Y-94162142D01*
X162012761Y-94209761D01*
X162060380Y-94305000D01*
X162060380Y-94495476D01*
X162012761Y-94590714D01*
X161965142Y-94638333D01*
X161869904Y-94685952D01*
X161631809Y-94685952D01*
X161536571Y-94638333D01*
X161488952Y-94590714D01*
X161441333Y-94495476D01*
X161441333Y-94305000D01*
X161488952Y-94209761D01*
X161536571Y-94162142D01*
X161631809Y-94114523D01*
X161060380Y-95590714D02*
X161060380Y-95114523D01*
X161536571Y-95066904D01*
X161488952Y-95114523D01*
X161441333Y-95209761D01*
X161441333Y-95447857D01*
X161488952Y-95543095D01*
X161536571Y-95590714D01*
X161631809Y-95638333D01*
X161869904Y-95638333D01*
X161965142Y-95590714D01*
X162012761Y-95543095D01*
X162060380Y-95447857D01*
X162060380Y-95209761D01*
X162012761Y-95114523D01*
X161965142Y-95066904D01*
X162060380Y-96828809D02*
X161393714Y-96828809D01*
X161488952Y-96828809D02*
X161441333Y-96876428D01*
X161393714Y-96971666D01*
X161393714Y-97114523D01*
X161441333Y-97209761D01*
X161536571Y-97257380D01*
X162060380Y-97257380D01*
X161536571Y-97257380D02*
X161441333Y-97305000D01*
X161393714Y-97400238D01*
X161393714Y-97543095D01*
X161441333Y-97638333D01*
X161536571Y-97685952D01*
X162060380Y-97685952D01*
X162060380Y-98162142D02*
X161393714Y-98162142D01*
X161488952Y-98162142D02*
X161441333Y-98209761D01*
X161393714Y-98305000D01*
X161393714Y-98447857D01*
X161441333Y-98543095D01*
X161536571Y-98590714D01*
X162060380Y-98590714D01*
X161536571Y-98590714D02*
X161441333Y-98638333D01*
X161393714Y-98733571D01*
X161393714Y-98876428D01*
X161441333Y-98971666D01*
X161536571Y-99019285D01*
X162060380Y-99019285D01*
X163138952Y-82828809D02*
X163091333Y-82733571D01*
X163043714Y-82685952D01*
X162948476Y-82638333D01*
X162900857Y-82638333D01*
X162805619Y-82685952D01*
X162758000Y-82733571D01*
X162710380Y-82828809D01*
X162710380Y-83019285D01*
X162758000Y-83114523D01*
X162805619Y-83162142D01*
X162900857Y-83209761D01*
X162948476Y-83209761D01*
X163043714Y-83162142D01*
X163091333Y-83114523D01*
X163138952Y-83019285D01*
X163138952Y-82828809D01*
X163186571Y-82733571D01*
X163234190Y-82685952D01*
X163329428Y-82638333D01*
X163519904Y-82638333D01*
X163615142Y-82685952D01*
X163662761Y-82733571D01*
X163710380Y-82828809D01*
X163710380Y-83019285D01*
X163662761Y-83114523D01*
X163615142Y-83162142D01*
X163519904Y-83209761D01*
X163329428Y-83209761D01*
X163234190Y-83162142D01*
X163186571Y-83114523D01*
X163138952Y-83019285D01*
X162710380Y-84066904D02*
X162710380Y-83876428D01*
X162758000Y-83781190D01*
X162805619Y-83733571D01*
X162948476Y-83638333D01*
X163138952Y-83590714D01*
X163519904Y-83590714D01*
X163615142Y-83638333D01*
X163662761Y-83685952D01*
X163710380Y-83781190D01*
X163710380Y-83971666D01*
X163662761Y-84066904D01*
X163615142Y-84114523D01*
X163519904Y-84162142D01*
X163281809Y-84162142D01*
X163186571Y-84114523D01*
X163138952Y-84066904D01*
X163091333Y-83971666D01*
X163091333Y-83781190D01*
X163138952Y-83685952D01*
X163186571Y-83638333D01*
X163281809Y-83590714D01*
X163138952Y-84733571D02*
X163091333Y-84638333D01*
X163043714Y-84590714D01*
X162948476Y-84543095D01*
X162900857Y-84543095D01*
X162805619Y-84590714D01*
X162758000Y-84638333D01*
X162710380Y-84733571D01*
X162710380Y-84924047D01*
X162758000Y-85019285D01*
X162805619Y-85066904D01*
X162900857Y-85114523D01*
X162948476Y-85114523D01*
X163043714Y-85066904D01*
X163091333Y-85019285D01*
X163138952Y-84924047D01*
X163138952Y-84733571D01*
X163186571Y-84638333D01*
X163234190Y-84590714D01*
X163329428Y-84543095D01*
X163519904Y-84543095D01*
X163615142Y-84590714D01*
X163662761Y-84638333D01*
X163710380Y-84733571D01*
X163710380Y-84924047D01*
X163662761Y-85019285D01*
X163615142Y-85066904D01*
X163519904Y-85114523D01*
X163329428Y-85114523D01*
X163234190Y-85066904D01*
X163186571Y-85019285D01*
X163138952Y-84924047D01*
X163710380Y-86305000D02*
X162710380Y-86305000D01*
X163424666Y-86638333D01*
X162710380Y-86971666D01*
X163710380Y-86971666D01*
X163710380Y-87447857D02*
X162710380Y-87447857D01*
X163186571Y-87447857D02*
X163186571Y-88019285D01*
X163710380Y-88019285D02*
X162710380Y-88019285D01*
X163043714Y-88400238D02*
X163043714Y-88924047D01*
X163710380Y-88400238D01*
X163710380Y-88924047D01*
X163329428Y-90066904D02*
X163329428Y-90828809D01*
X163043714Y-91305000D02*
X163329428Y-92066904D01*
X163615142Y-91305000D01*
X163138952Y-94209761D02*
X163091333Y-94114523D01*
X163043714Y-94066904D01*
X162948476Y-94019285D01*
X162900857Y-94019285D01*
X162805619Y-94066904D01*
X162758000Y-94114523D01*
X162710380Y-94209761D01*
X162710380Y-94400238D01*
X162758000Y-94495476D01*
X162805619Y-94543095D01*
X162900857Y-94590714D01*
X162948476Y-94590714D01*
X163043714Y-94543095D01*
X163091333Y-94495476D01*
X163138952Y-94400238D01*
X163138952Y-94209761D01*
X163186571Y-94114523D01*
X163234190Y-94066904D01*
X163329428Y-94019285D01*
X163519904Y-94019285D01*
X163615142Y-94066904D01*
X163662761Y-94114523D01*
X163710380Y-94209761D01*
X163710380Y-94400238D01*
X163662761Y-94495476D01*
X163615142Y-94543095D01*
X163519904Y-94590714D01*
X163329428Y-94590714D01*
X163234190Y-94543095D01*
X163186571Y-94495476D01*
X163138952Y-94400238D01*
X162805619Y-94971666D02*
X162758000Y-95019285D01*
X162710380Y-95114523D01*
X162710380Y-95352619D01*
X162758000Y-95447857D01*
X162805619Y-95495476D01*
X162900857Y-95543095D01*
X162996095Y-95543095D01*
X163138952Y-95495476D01*
X163710380Y-94924047D01*
X163710380Y-95543095D01*
X163710380Y-96733571D02*
X163043714Y-96733571D01*
X163138952Y-96733571D02*
X163091333Y-96781190D01*
X163043714Y-96876428D01*
X163043714Y-97019285D01*
X163091333Y-97114523D01*
X163186571Y-97162142D01*
X163710380Y-97162142D01*
X163186571Y-97162142D02*
X163091333Y-97209761D01*
X163043714Y-97305000D01*
X163043714Y-97447857D01*
X163091333Y-97543095D01*
X163186571Y-97590714D01*
X163710380Y-97590714D01*
X163710380Y-98066904D02*
X163043714Y-98066904D01*
X163138952Y-98066904D02*
X163091333Y-98114523D01*
X163043714Y-98209761D01*
X163043714Y-98352619D01*
X163091333Y-98447857D01*
X163186571Y-98495476D01*
X163710380Y-98495476D01*
X163186571Y-98495476D02*
X163091333Y-98543095D01*
X163043714Y-98638333D01*
X163043714Y-98781190D01*
X163091333Y-98876428D01*
X163186571Y-98924047D01*
X163710380Y-98924047D01*
X165360380Y-82352619D02*
X165360380Y-82543095D01*
X165312761Y-82638333D01*
X165265142Y-82685952D01*
X165122285Y-82781190D01*
X164931809Y-82828809D01*
X164550857Y-82828809D01*
X164455619Y-82781190D01*
X164408000Y-82733571D01*
X164360380Y-82638333D01*
X164360380Y-82447857D01*
X164408000Y-82352619D01*
X164455619Y-82305000D01*
X164550857Y-82257380D01*
X164788952Y-82257380D01*
X164884190Y-82305000D01*
X164931809Y-82352619D01*
X164979428Y-82447857D01*
X164979428Y-82638333D01*
X164931809Y-82733571D01*
X164884190Y-82781190D01*
X164788952Y-82828809D01*
X165360380Y-83781190D02*
X165360380Y-83209761D01*
X165360380Y-83495476D02*
X164360380Y-83495476D01*
X164503238Y-83400238D01*
X164598476Y-83304999D01*
X164646095Y-83209761D01*
X164360380Y-84685952D02*
X164360380Y-84209761D01*
X164836571Y-84162142D01*
X164788952Y-84209761D01*
X164741333Y-84304999D01*
X164741333Y-84543095D01*
X164788952Y-84638333D01*
X164836571Y-84685952D01*
X164931809Y-84733571D01*
X165169904Y-84733571D01*
X165265142Y-84685952D01*
X165312761Y-84638333D01*
X165360380Y-84543095D01*
X165360380Y-84304999D01*
X165312761Y-84209761D01*
X165265142Y-84162142D01*
X165360380Y-85924047D02*
X164360380Y-85924047D01*
X165074666Y-86257380D01*
X164360380Y-86590714D01*
X165360380Y-86590714D01*
X165360380Y-87066904D02*
X164360380Y-87066904D01*
X164836571Y-87066904D02*
X164836571Y-87638333D01*
X165360380Y-87638333D02*
X164360380Y-87638333D01*
X164693714Y-88019285D02*
X164693714Y-88543095D01*
X165360380Y-88019285D01*
X165360380Y-88543095D01*
X164979428Y-89685952D02*
X164979428Y-90447857D01*
X164693714Y-90924047D02*
X164979428Y-91685952D01*
X165265142Y-90924047D01*
X164360380Y-93590714D02*
X164360380Y-94257380D01*
X165360380Y-93828809D01*
X164788952Y-94781190D02*
X164741333Y-94685952D01*
X164693714Y-94638333D01*
X164598476Y-94590714D01*
X164550857Y-94590714D01*
X164455619Y-94638333D01*
X164408000Y-94685952D01*
X164360380Y-94781190D01*
X164360380Y-94971666D01*
X164408000Y-95066904D01*
X164455619Y-95114523D01*
X164550857Y-95162142D01*
X164598476Y-95162142D01*
X164693714Y-95114523D01*
X164741333Y-95066904D01*
X164788952Y-94971666D01*
X164788952Y-94781190D01*
X164836571Y-94685952D01*
X164884190Y-94638333D01*
X164979428Y-94590714D01*
X165169904Y-94590714D01*
X165265142Y-94638333D01*
X165312761Y-94685952D01*
X165360380Y-94781190D01*
X165360380Y-94971666D01*
X165312761Y-95066904D01*
X165265142Y-95114523D01*
X165169904Y-95162142D01*
X164979428Y-95162142D01*
X164884190Y-95114523D01*
X164836571Y-95066904D01*
X164788952Y-94971666D01*
X165360380Y-96352619D02*
X164693714Y-96352619D01*
X164788952Y-96352619D02*
X164741333Y-96400238D01*
X164693714Y-96495476D01*
X164693714Y-96638333D01*
X164741333Y-96733571D01*
X164836571Y-96781190D01*
X165360380Y-96781190D01*
X164836571Y-96781190D02*
X164741333Y-96828809D01*
X164693714Y-96924047D01*
X164693714Y-97066904D01*
X164741333Y-97162142D01*
X164836571Y-97209761D01*
X165360380Y-97209761D01*
X165360380Y-97685952D02*
X164693714Y-97685952D01*
X164788952Y-97685952D02*
X164741333Y-97733571D01*
X164693714Y-97828809D01*
X164693714Y-97971666D01*
X164741333Y-98066904D01*
X164836571Y-98114523D01*
X165360380Y-98114523D01*
X164836571Y-98114523D02*
X164741333Y-98162142D01*
X164693714Y-98257380D01*
X164693714Y-98400238D01*
X164741333Y-98495476D01*
X164836571Y-98543095D01*
X165360380Y-98543095D01*
X113792000Y-57023000D02*
X113919000Y-57023000D01*
X113792000Y-116840000D02*
X113792000Y-57023000D01*
X166751000Y-116840000D02*
X113792000Y-116840000D01*
X166751000Y-57023000D02*
X166751000Y-116840000D01*
X113919000Y-57023000D02*
X166751000Y-57023000D01*
%LPC*%
D12*
X116967000Y-113665000D03*
X163576000Y-113665000D03*
X163576000Y-60325000D03*
D13*
X119595900Y-67777360D03*
X119595900Y-72176640D03*
D14*
X120142000Y-104775000D03*
D15*
X117602000Y-104775000D03*
X120142000Y-102235000D03*
X117602000Y-102235000D03*
X120142000Y-99695000D03*
X117602000Y-99695000D03*
X120142000Y-97155000D03*
X117602000Y-97155000D03*
X120142000Y-94615000D03*
X117602000Y-94615000D03*
D16*
X163195000Y-78486000D03*
D17*
X124587000Y-105029000D03*
X129667000Y-105029000D03*
X124587000Y-112649000D03*
X129667000Y-112649000D03*
D18*
X120523000Y-78613000D03*
D19*
X117983000Y-78613000D03*
D18*
X120523000Y-84201000D03*
D19*
X117983000Y-84201000D03*
D18*
X120523000Y-89789000D03*
D19*
X117983000Y-89789000D03*
D12*
X116967000Y-60325000D03*
M02*
