G04 #@! TF.FileFunction,Legend,Top*
%FSLAX46Y46*%
G04 Gerber Fmt 4.6, Leading zero omitted, Abs format (unit mm)*
G04 Created by KiCad (PCBNEW 4.1.0-alpha+201606220816+6945~45~ubuntu14.04.1-product) date Thu Jun 23 12:53:23 2016*
%MOMM*%
%LPD*%
G01*
G04 APERTURE LIST*
%ADD10C,0.100000*%
%ADD11C,0.150000*%
%ADD12C,0.200000*%
%ADD13C,4.900000*%
%ADD14R,1.900000X1.650000*%
%ADD15R,2.701240X0.900380*%
%ADD16R,2.899360X2.398980*%
%ADD17C,1.299160*%
%ADD18R,1.650000X1.900000*%
%ADD19R,2.350720X2.899360*%
%ADD20R,2.127200X2.127200*%
%ADD21O,2.127200X2.127200*%
%ADD22R,0.950000X2.000000*%
%ADD23R,2.000000X0.950000*%
%ADD24R,2.635200X2.635200*%
%ADD25R,1.900000X1.700000*%
%ADD26R,1.700000X1.900000*%
%ADD27C,1.797000*%
%ADD28R,1.600000X3.400000*%
%ADD29R,1.000000X1.900000*%
%ADD30R,4.057600X2.432000*%
%ADD31R,1.416000X2.432000*%
%ADD32R,2.400000X2.400000*%
%ADD33C,2.400000*%
%ADD34R,1.860000X5.240000*%
%ADD35R,1.300000X1.600000*%
%ADD36R,1.620000X1.310000*%
%ADD37R,5.500000X1.200000*%
%ADD38R,5.500000X1.700000*%
%ADD39R,2.899360X2.350720*%
G04 APERTURE END LIST*
D10*
D11*
X122853404Y-105567976D02*
X122053404Y-105567976D01*
X122624833Y-105301309D01*
X122053404Y-105034642D01*
X122853404Y-105034642D01*
X122053404Y-104501309D02*
X122053404Y-104348928D01*
X122091500Y-104272738D01*
X122167690Y-104196547D01*
X122320071Y-104158452D01*
X122586738Y-104158452D01*
X122739119Y-104196547D01*
X122815309Y-104272738D01*
X122853404Y-104348928D01*
X122853404Y-104501309D01*
X122815309Y-104577500D01*
X122739119Y-104653690D01*
X122586738Y-104691785D01*
X122320071Y-104691785D01*
X122167690Y-104653690D01*
X122091500Y-104577500D01*
X122053404Y-104501309D01*
X122815309Y-103853690D02*
X122853404Y-103739404D01*
X122853404Y-103548928D01*
X122815309Y-103472738D01*
X122777214Y-103434642D01*
X122701023Y-103396547D01*
X122624833Y-103396547D01*
X122548642Y-103434642D01*
X122510547Y-103472738D01*
X122472452Y-103548928D01*
X122434357Y-103701309D01*
X122396261Y-103777500D01*
X122358166Y-103815595D01*
X122281976Y-103853690D01*
X122205785Y-103853690D01*
X122129595Y-103815595D01*
X122091500Y-103777500D01*
X122053404Y-103701309D01*
X122053404Y-103510833D01*
X122091500Y-103396547D01*
X122853404Y-103053690D02*
X122053404Y-103053690D01*
X122853404Y-100996547D02*
X122472452Y-101263214D01*
X122853404Y-101453690D02*
X122053404Y-101453690D01*
X122053404Y-101148928D01*
X122091500Y-101072738D01*
X122129595Y-101034642D01*
X122205785Y-100996547D01*
X122320071Y-100996547D01*
X122396261Y-101034642D01*
X122434357Y-101072738D01*
X122472452Y-101148928D01*
X122472452Y-101453690D01*
X122815309Y-100691785D02*
X122853404Y-100577500D01*
X122853404Y-100387023D01*
X122815309Y-100310833D01*
X122777214Y-100272738D01*
X122701023Y-100234642D01*
X122624833Y-100234642D01*
X122548642Y-100272738D01*
X122510547Y-100310833D01*
X122472452Y-100387023D01*
X122434357Y-100539404D01*
X122396261Y-100615595D01*
X122358166Y-100653690D01*
X122281976Y-100691785D01*
X122205785Y-100691785D01*
X122129595Y-100653690D01*
X122091500Y-100615595D01*
X122053404Y-100539404D01*
X122053404Y-100348928D01*
X122091500Y-100234642D01*
X122053404Y-100006071D02*
X122053404Y-99548928D01*
X122853404Y-99777500D02*
X122053404Y-99777500D01*
X122815309Y-98710833D02*
X122853404Y-98596547D01*
X122853404Y-98406071D01*
X122815309Y-98329880D01*
X122777214Y-98291785D01*
X122701023Y-98253690D01*
X122624833Y-98253690D01*
X122548642Y-98291785D01*
X122510547Y-98329880D01*
X122472452Y-98406071D01*
X122434357Y-98558452D01*
X122396261Y-98634642D01*
X122358166Y-98672738D01*
X122281976Y-98710833D01*
X122205785Y-98710833D01*
X122129595Y-98672738D01*
X122091500Y-98634642D01*
X122053404Y-98558452D01*
X122053404Y-98367976D01*
X122091500Y-98253690D01*
X122777214Y-97453690D02*
X122815309Y-97491785D01*
X122853404Y-97606071D01*
X122853404Y-97682261D01*
X122815309Y-97796547D01*
X122739119Y-97872738D01*
X122662928Y-97910833D01*
X122510547Y-97948928D01*
X122396261Y-97948928D01*
X122243880Y-97910833D01*
X122167690Y-97872738D01*
X122091500Y-97796547D01*
X122053404Y-97682261D01*
X122053404Y-97606071D01*
X122091500Y-97491785D01*
X122129595Y-97453690D01*
X122853404Y-97110833D02*
X122053404Y-97110833D01*
X122853404Y-96653690D02*
X122396261Y-96996547D01*
X122053404Y-96653690D02*
X122510547Y-97110833D01*
X122853404Y-95701309D02*
X122053404Y-95701309D01*
X122624833Y-95434642D01*
X122053404Y-95167976D01*
X122853404Y-95167976D01*
X122853404Y-94787023D02*
X122053404Y-94787023D01*
X122815309Y-94444166D02*
X122853404Y-94329880D01*
X122853404Y-94139404D01*
X122815309Y-94063214D01*
X122777214Y-94025119D01*
X122701023Y-93987023D01*
X122624833Y-93987023D01*
X122548642Y-94025119D01*
X122510547Y-94063214D01*
X122472452Y-94139404D01*
X122434357Y-94291785D01*
X122396261Y-94367976D01*
X122358166Y-94406071D01*
X122281976Y-94444166D01*
X122205785Y-94444166D01*
X122129595Y-94406071D01*
X122091500Y-94367976D01*
X122053404Y-94291785D01*
X122053404Y-94101309D01*
X122091500Y-93987023D01*
X122053404Y-93491785D02*
X122053404Y-93339404D01*
X122091500Y-93263214D01*
X122167690Y-93187023D01*
X122320071Y-93148928D01*
X122586738Y-93148928D01*
X122739119Y-93187023D01*
X122815309Y-93263214D01*
X122853404Y-93339404D01*
X122853404Y-93491785D01*
X122815309Y-93567976D01*
X122739119Y-93644166D01*
X122586738Y-93682261D01*
X122320071Y-93682261D01*
X122167690Y-93644166D01*
X122091500Y-93567976D01*
X122053404Y-93491785D01*
D12*
X128666408Y-97028000D02*
G75*
G03X128666408Y-97028000I-269408J0D01*
G01*
X163804638Y-108591342D02*
X164414161Y-108591342D01*
X164109400Y-108896104D02*
X164109400Y-108286580D01*
X159715238Y-77527142D02*
X160324761Y-77527142D01*
X160020000Y-77831904D02*
X160020000Y-77222380D01*
X135229638Y-65970142D02*
X135839161Y-65970142D01*
X135534400Y-66274904D02*
X135534400Y-65665380D01*
D11*
X132962714Y-112720380D02*
X132962714Y-111720380D01*
X133200809Y-111720380D01*
X133343666Y-111768000D01*
X133438904Y-111863238D01*
X133486523Y-111958476D01*
X133534142Y-112148952D01*
X133534142Y-112291809D01*
X133486523Y-112482285D01*
X133438904Y-112577523D01*
X133343666Y-112672761D01*
X133200809Y-112720380D01*
X132962714Y-112720380D01*
X134343666Y-112672761D02*
X134248428Y-112720380D01*
X134057952Y-112720380D01*
X133962714Y-112672761D01*
X133915095Y-112577523D01*
X133915095Y-112196571D01*
X133962714Y-112101333D01*
X134057952Y-112053714D01*
X134248428Y-112053714D01*
X134343666Y-112101333D01*
X134391285Y-112196571D01*
X134391285Y-112291809D01*
X133915095Y-112387047D01*
X134772238Y-112672761D02*
X134867476Y-112720380D01*
X135057952Y-112720380D01*
X135153190Y-112672761D01*
X135200809Y-112577523D01*
X135200809Y-112529904D01*
X135153190Y-112434666D01*
X135057952Y-112387047D01*
X134915095Y-112387047D01*
X134819857Y-112339428D01*
X134772238Y-112244190D01*
X134772238Y-112196571D01*
X134819857Y-112101333D01*
X134915095Y-112053714D01*
X135057952Y-112053714D01*
X135153190Y-112101333D01*
X135629380Y-112720380D02*
X135629380Y-112053714D01*
X135629380Y-111720380D02*
X135581761Y-111768000D01*
X135629380Y-111815619D01*
X135677000Y-111768000D01*
X135629380Y-111720380D01*
X135629380Y-111815619D01*
X136534142Y-112053714D02*
X136534142Y-112863238D01*
X136486523Y-112958476D01*
X136438904Y-113006095D01*
X136343666Y-113053714D01*
X136200809Y-113053714D01*
X136105571Y-113006095D01*
X136534142Y-112672761D02*
X136438904Y-112720380D01*
X136248428Y-112720380D01*
X136153190Y-112672761D01*
X136105571Y-112625142D01*
X136057952Y-112529904D01*
X136057952Y-112244190D01*
X136105571Y-112148952D01*
X136153190Y-112101333D01*
X136248428Y-112053714D01*
X136438904Y-112053714D01*
X136534142Y-112101333D01*
X137010333Y-112053714D02*
X137010333Y-112720380D01*
X137010333Y-112148952D02*
X137057952Y-112101333D01*
X137153190Y-112053714D01*
X137296047Y-112053714D01*
X137391285Y-112101333D01*
X137438904Y-112196571D01*
X137438904Y-112720380D01*
X138296047Y-112672761D02*
X138200809Y-112720380D01*
X138010333Y-112720380D01*
X137915095Y-112672761D01*
X137867476Y-112577523D01*
X137867476Y-112196571D01*
X137915095Y-112101333D01*
X138010333Y-112053714D01*
X138200809Y-112053714D01*
X138296047Y-112101333D01*
X138343666Y-112196571D01*
X138343666Y-112291809D01*
X137867476Y-112387047D01*
X139200809Y-112720380D02*
X139200809Y-111720380D01*
X139200809Y-112672761D02*
X139105571Y-112720380D01*
X138915095Y-112720380D01*
X138819857Y-112672761D01*
X138772238Y-112625142D01*
X138724619Y-112529904D01*
X138724619Y-112244190D01*
X138772238Y-112148952D01*
X138819857Y-112101333D01*
X138915095Y-112053714D01*
X139105571Y-112053714D01*
X139200809Y-112101333D01*
X140343666Y-112053714D02*
X140534142Y-112720380D01*
X140724619Y-112244190D01*
X140915095Y-112720380D01*
X141105571Y-112053714D01*
X141486523Y-112720380D02*
X141486523Y-112053714D01*
X141486523Y-111720380D02*
X141438904Y-111768000D01*
X141486523Y-111815619D01*
X141534142Y-111768000D01*
X141486523Y-111720380D01*
X141486523Y-111815619D01*
X141819857Y-112053714D02*
X142200809Y-112053714D01*
X141962714Y-111720380D02*
X141962714Y-112577523D01*
X142010333Y-112672761D01*
X142105571Y-112720380D01*
X142200809Y-112720380D01*
X142534142Y-112720380D02*
X142534142Y-111720380D01*
X142962714Y-112720380D02*
X142962714Y-112196571D01*
X142915095Y-112101333D01*
X142819857Y-112053714D01*
X142677000Y-112053714D01*
X142581761Y-112101333D01*
X142534142Y-112148952D01*
X144629380Y-112672761D02*
X144534142Y-112720380D01*
X144343666Y-112720380D01*
X144248428Y-112672761D01*
X144200809Y-112625142D01*
X144153190Y-112529904D01*
X144153190Y-112244190D01*
X144200809Y-112148952D01*
X144248428Y-112101333D01*
X144343666Y-112053714D01*
X144534142Y-112053714D01*
X144629380Y-112101333D01*
X145486523Y-112720380D02*
X145486523Y-112196571D01*
X145438904Y-112101333D01*
X145343666Y-112053714D01*
X145153190Y-112053714D01*
X145057952Y-112101333D01*
X145486523Y-112672761D02*
X145391285Y-112720380D01*
X145153190Y-112720380D01*
X145057952Y-112672761D01*
X145010333Y-112577523D01*
X145010333Y-112482285D01*
X145057952Y-112387047D01*
X145153190Y-112339428D01*
X145391285Y-112339428D01*
X145486523Y-112291809D01*
X145962714Y-112720380D02*
X145962714Y-112053714D01*
X145962714Y-112244190D02*
X146010333Y-112148952D01*
X146057952Y-112101333D01*
X146153190Y-112053714D01*
X146248428Y-112053714D01*
X146962714Y-112672761D02*
X146867476Y-112720380D01*
X146677000Y-112720380D01*
X146581761Y-112672761D01*
X146534142Y-112577523D01*
X146534142Y-112196571D01*
X146581761Y-112101333D01*
X146677000Y-112053714D01*
X146867476Y-112053714D01*
X146962714Y-112101333D01*
X147010333Y-112196571D01*
X147010333Y-112291809D01*
X146534142Y-112387047D01*
X148057952Y-112053714D02*
X148438904Y-112053714D01*
X148200809Y-112720380D02*
X148200809Y-111863238D01*
X148248428Y-111768000D01*
X148343666Y-111720380D01*
X148438904Y-111720380D01*
X148915095Y-112720380D02*
X148819857Y-112672761D01*
X148772238Y-112625142D01*
X148724619Y-112529904D01*
X148724619Y-112244190D01*
X148772238Y-112148952D01*
X148819857Y-112101333D01*
X148915095Y-112053714D01*
X149057952Y-112053714D01*
X149153190Y-112101333D01*
X149200809Y-112148952D01*
X149248428Y-112244190D01*
X149248428Y-112529904D01*
X149200809Y-112625142D01*
X149153190Y-112672761D01*
X149057952Y-112720380D01*
X148915095Y-112720380D01*
X149677000Y-112720380D02*
X149677000Y-112053714D01*
X149677000Y-112244190D02*
X149724619Y-112148952D01*
X149772238Y-112101333D01*
X149867476Y-112053714D01*
X149962714Y-112053714D01*
X151391285Y-112196571D02*
X151534142Y-112244190D01*
X151581761Y-112291809D01*
X151629380Y-112387047D01*
X151629380Y-112529904D01*
X151581761Y-112625142D01*
X151534142Y-112672761D01*
X151438904Y-112720380D01*
X151057952Y-112720380D01*
X151057952Y-111720380D01*
X151391285Y-111720380D01*
X151486523Y-111768000D01*
X151534142Y-111815619D01*
X151581761Y-111910857D01*
X151581761Y-112006095D01*
X151534142Y-112101333D01*
X151486523Y-112148952D01*
X151391285Y-112196571D01*
X151057952Y-112196571D01*
X152057952Y-112625142D02*
X152105571Y-112672761D01*
X152057952Y-112720380D01*
X152010333Y-112672761D01*
X152057952Y-112625142D01*
X152057952Y-112720380D01*
X153153190Y-111720380D02*
X153724619Y-111720380D01*
X153438904Y-112720380D02*
X153438904Y-111720380D01*
X154486523Y-112720380D02*
X154486523Y-112196571D01*
X154438904Y-112101333D01*
X154343666Y-112053714D01*
X154153190Y-112053714D01*
X154057952Y-112101333D01*
X154486523Y-112672761D02*
X154391285Y-112720380D01*
X154153190Y-112720380D01*
X154057952Y-112672761D01*
X154010333Y-112577523D01*
X154010333Y-112482285D01*
X154057952Y-112387047D01*
X154153190Y-112339428D01*
X154391285Y-112339428D01*
X154486523Y-112291809D01*
X154962714Y-112053714D02*
X154962714Y-112720380D01*
X154962714Y-112148952D02*
X155010333Y-112101333D01*
X155105571Y-112053714D01*
X155248428Y-112053714D01*
X155343666Y-112101333D01*
X155391285Y-112196571D01*
X155391285Y-112720380D01*
X156296047Y-112720380D02*
X156296047Y-112196571D01*
X156248428Y-112101333D01*
X156153190Y-112053714D01*
X155962714Y-112053714D01*
X155867476Y-112101333D01*
X156296047Y-112672761D02*
X156200809Y-112720380D01*
X155962714Y-112720380D01*
X155867476Y-112672761D01*
X155819857Y-112577523D01*
X155819857Y-112482285D01*
X155867476Y-112387047D01*
X155962714Y-112339428D01*
X156200809Y-112339428D01*
X156296047Y-112291809D01*
X156724619Y-112672761D02*
X156819857Y-112720380D01*
X157010333Y-112720380D01*
X157105571Y-112672761D01*
X157153190Y-112577523D01*
X157153190Y-112529904D01*
X157105571Y-112434666D01*
X157010333Y-112387047D01*
X156867476Y-112387047D01*
X156772238Y-112339428D01*
X156724619Y-112244190D01*
X156724619Y-112196571D01*
X156772238Y-112101333D01*
X156867476Y-112053714D01*
X157010333Y-112053714D01*
X157105571Y-112101333D01*
X157724619Y-112720380D02*
X157629380Y-112672761D01*
X157581761Y-112625142D01*
X157534142Y-112529904D01*
X157534142Y-112244190D01*
X157581761Y-112148952D01*
X157629380Y-112101333D01*
X157724619Y-112053714D01*
X157867476Y-112053714D01*
X157962714Y-112101333D01*
X158010333Y-112148952D01*
X158057952Y-112244190D01*
X158057952Y-112529904D01*
X158010333Y-112625142D01*
X157962714Y-112672761D01*
X157867476Y-112720380D01*
X157724619Y-112720380D01*
X158486523Y-112720380D02*
X158486523Y-112053714D01*
X158486523Y-111720380D02*
X158438904Y-111768000D01*
X158486523Y-111815619D01*
X158534142Y-111768000D01*
X158486523Y-111720380D01*
X158486523Y-111815619D01*
X159391285Y-112053714D02*
X159391285Y-112720380D01*
X158962714Y-112053714D02*
X158962714Y-112577523D01*
X159010333Y-112672761D01*
X159105571Y-112720380D01*
X159248428Y-112720380D01*
X159343666Y-112672761D01*
X159391285Y-112625142D01*
X133486523Y-114752380D02*
X133486523Y-113752380D01*
X133819857Y-114466666D01*
X134153190Y-113752380D01*
X134153190Y-114752380D01*
X134534142Y-114085714D02*
X134772238Y-114752380D01*
X135010333Y-114085714D02*
X134772238Y-114752380D01*
X134677000Y-114990476D01*
X134629380Y-115038095D01*
X134534142Y-115085714D01*
X135343666Y-114704761D02*
X135438904Y-114752380D01*
X135629380Y-114752380D01*
X135724619Y-114704761D01*
X135772238Y-114609523D01*
X135772238Y-114561904D01*
X135724619Y-114466666D01*
X135629380Y-114419047D01*
X135486523Y-114419047D01*
X135391285Y-114371428D01*
X135343666Y-114276190D01*
X135343666Y-114228571D01*
X135391285Y-114133333D01*
X135486523Y-114085714D01*
X135629380Y-114085714D01*
X135724619Y-114133333D01*
X136581761Y-114704761D02*
X136486523Y-114752380D01*
X136296047Y-114752380D01*
X136200809Y-114704761D01*
X136153190Y-114609523D01*
X136153190Y-114228571D01*
X136200809Y-114133333D01*
X136296047Y-114085714D01*
X136486523Y-114085714D01*
X136581761Y-114133333D01*
X136629380Y-114228571D01*
X136629380Y-114323809D01*
X136153190Y-114419047D01*
X137057952Y-114085714D02*
X137057952Y-114752380D01*
X137057952Y-114180952D02*
X137105571Y-114133333D01*
X137200809Y-114085714D01*
X137343666Y-114085714D01*
X137438904Y-114133333D01*
X137486523Y-114228571D01*
X137486523Y-114752380D01*
X137915095Y-114704761D02*
X138010333Y-114752380D01*
X138200809Y-114752380D01*
X138296047Y-114704761D01*
X138343666Y-114609523D01*
X138343666Y-114561904D01*
X138296047Y-114466666D01*
X138200809Y-114419047D01*
X138057952Y-114419047D01*
X137962714Y-114371428D01*
X137915095Y-114276190D01*
X137915095Y-114228571D01*
X137962714Y-114133333D01*
X138057952Y-114085714D01*
X138200809Y-114085714D01*
X138296047Y-114133333D01*
X138915095Y-114752380D02*
X138819857Y-114704761D01*
X138772238Y-114657142D01*
X138724619Y-114561904D01*
X138724619Y-114276190D01*
X138772238Y-114180952D01*
X138819857Y-114133333D01*
X138915095Y-114085714D01*
X139057952Y-114085714D01*
X139153190Y-114133333D01*
X139200809Y-114180952D01*
X139248428Y-114276190D01*
X139248428Y-114561904D01*
X139200809Y-114657142D01*
X139153190Y-114704761D01*
X139057952Y-114752380D01*
X138915095Y-114752380D01*
X139677000Y-114752380D02*
X139677000Y-114085714D01*
X139677000Y-114276190D02*
X139724619Y-114180952D01*
X139772238Y-114133333D01*
X139867476Y-114085714D01*
X139962714Y-114085714D01*
X140248428Y-114704761D02*
X140343666Y-114752380D01*
X140534142Y-114752380D01*
X140629380Y-114704761D01*
X140677000Y-114609523D01*
X140677000Y-114561904D01*
X140629380Y-114466666D01*
X140534142Y-114419047D01*
X140391285Y-114419047D01*
X140296047Y-114371428D01*
X140248428Y-114276190D01*
X140248428Y-114228571D01*
X140296047Y-114133333D01*
X140391285Y-114085714D01*
X140534142Y-114085714D01*
X140629380Y-114133333D01*
X142438904Y-114752380D02*
X142105571Y-114276190D01*
X141867476Y-114752380D02*
X141867476Y-113752380D01*
X142248428Y-113752380D01*
X142343666Y-113800000D01*
X142391285Y-113847619D01*
X142438904Y-113942857D01*
X142438904Y-114085714D01*
X142391285Y-114180952D01*
X142343666Y-114228571D01*
X142248428Y-114276190D01*
X141867476Y-114276190D01*
X143200809Y-114228571D02*
X142867476Y-114228571D01*
X142867476Y-114752380D02*
X142867476Y-113752380D01*
X143343666Y-113752380D01*
X143724619Y-114752380D02*
X143724619Y-113752380D01*
X144057952Y-114466666D01*
X144391285Y-113752380D01*
X144391285Y-114752380D01*
X145296047Y-113752380D02*
X145105571Y-113752380D01*
X145010333Y-113800000D01*
X144962714Y-113847619D01*
X144867476Y-113990476D01*
X144819857Y-114180952D01*
X144819857Y-114561904D01*
X144867476Y-114657142D01*
X144915095Y-114704761D01*
X145010333Y-114752380D01*
X145200809Y-114752380D01*
X145296047Y-114704761D01*
X145343666Y-114657142D01*
X145391285Y-114561904D01*
X145391285Y-114323809D01*
X145343666Y-114228571D01*
X145296047Y-114180952D01*
X145200809Y-114133333D01*
X145010333Y-114133333D01*
X144915095Y-114180952D01*
X144867476Y-114228571D01*
X144819857Y-114323809D01*
X145867476Y-114752380D02*
X146057952Y-114752380D01*
X146153190Y-114704761D01*
X146200809Y-114657142D01*
X146296047Y-114514285D01*
X146343666Y-114323809D01*
X146343666Y-113942857D01*
X146296047Y-113847619D01*
X146248428Y-113800000D01*
X146153190Y-113752380D01*
X145962714Y-113752380D01*
X145867476Y-113800000D01*
X145819857Y-113847619D01*
X145772238Y-113942857D01*
X145772238Y-114180952D01*
X145819857Y-114276190D01*
X145867476Y-114323809D01*
X145962714Y-114371428D01*
X146153190Y-114371428D01*
X146248428Y-114323809D01*
X146296047Y-114276190D01*
X146343666Y-114180952D01*
X148057952Y-113800000D02*
X147962714Y-113752380D01*
X147819857Y-113752380D01*
X147677000Y-113800000D01*
X147581761Y-113895238D01*
X147534142Y-113990476D01*
X147486523Y-114180952D01*
X147486523Y-114323809D01*
X147534142Y-114514285D01*
X147581761Y-114609523D01*
X147677000Y-114704761D01*
X147819857Y-114752380D01*
X147915095Y-114752380D01*
X148057952Y-114704761D01*
X148105571Y-114657142D01*
X148105571Y-114323809D01*
X147915095Y-114323809D01*
X148962714Y-114752380D02*
X148962714Y-114228571D01*
X148915095Y-114133333D01*
X148819857Y-114085714D01*
X148629380Y-114085714D01*
X148534142Y-114133333D01*
X148962714Y-114704761D02*
X148867476Y-114752380D01*
X148629380Y-114752380D01*
X148534142Y-114704761D01*
X148486523Y-114609523D01*
X148486523Y-114514285D01*
X148534142Y-114419047D01*
X148629380Y-114371428D01*
X148867476Y-114371428D01*
X148962714Y-114323809D01*
X149296047Y-114085714D02*
X149677000Y-114085714D01*
X149438904Y-113752380D02*
X149438904Y-114609523D01*
X149486523Y-114704761D01*
X149581761Y-114752380D01*
X149677000Y-114752380D01*
X150391285Y-114704761D02*
X150296047Y-114752380D01*
X150105571Y-114752380D01*
X150010333Y-114704761D01*
X149962714Y-114609523D01*
X149962714Y-114228571D01*
X150010333Y-114133333D01*
X150105571Y-114085714D01*
X150296047Y-114085714D01*
X150391285Y-114133333D01*
X150438904Y-114228571D01*
X150438904Y-114323809D01*
X149962714Y-114419047D01*
X150772238Y-114085714D02*
X150962714Y-114752380D01*
X151153190Y-114276190D01*
X151343666Y-114752380D01*
X151534142Y-114085714D01*
X152343666Y-114752380D02*
X152343666Y-114228571D01*
X152296047Y-114133333D01*
X152200809Y-114085714D01*
X152010333Y-114085714D01*
X151915095Y-114133333D01*
X152343666Y-114704761D02*
X152248428Y-114752380D01*
X152010333Y-114752380D01*
X151915095Y-114704761D01*
X151867476Y-114609523D01*
X151867476Y-114514285D01*
X151915095Y-114419047D01*
X152010333Y-114371428D01*
X152248428Y-114371428D01*
X152343666Y-114323809D01*
X152724619Y-114085714D02*
X152962714Y-114752380D01*
X153200809Y-114085714D02*
X152962714Y-114752380D01*
X152867476Y-114990476D01*
X152819857Y-115038095D01*
X152724619Y-115085714D01*
X154915095Y-114752380D02*
X154581761Y-114276190D01*
X154343666Y-114752380D02*
X154343666Y-113752380D01*
X154724619Y-113752380D01*
X154819857Y-113800000D01*
X154867476Y-113847619D01*
X154915095Y-113942857D01*
X154915095Y-114085714D01*
X154867476Y-114180952D01*
X154819857Y-114228571D01*
X154724619Y-114276190D01*
X154343666Y-114276190D01*
X155724619Y-114704761D02*
X155629380Y-114752380D01*
X155438904Y-114752380D01*
X155343666Y-114704761D01*
X155296047Y-114609523D01*
X155296047Y-114228571D01*
X155343666Y-114133333D01*
X155438904Y-114085714D01*
X155629380Y-114085714D01*
X155724619Y-114133333D01*
X155772238Y-114228571D01*
X155772238Y-114323809D01*
X155296047Y-114419047D01*
X156105571Y-114085714D02*
X156343666Y-114752380D01*
X156581761Y-114085714D01*
X157486523Y-114752380D02*
X156915095Y-114752380D01*
X157200809Y-114752380D02*
X157200809Y-113752380D01*
X157105571Y-113895238D01*
X157010333Y-113990476D01*
X156915095Y-114038095D01*
X157915095Y-114657142D02*
X157962714Y-114704761D01*
X157915095Y-114752380D01*
X157867476Y-114704761D01*
X157915095Y-114657142D01*
X157915095Y-114752380D01*
X158581761Y-113752380D02*
X158677000Y-113752380D01*
X158772238Y-113800000D01*
X158819857Y-113847619D01*
X158867476Y-113942857D01*
X158915095Y-114133333D01*
X158915095Y-114371428D01*
X158867476Y-114561904D01*
X158819857Y-114657142D01*
X158772238Y-114704761D01*
X158677000Y-114752380D01*
X158581761Y-114752380D01*
X158486523Y-114704761D01*
X158438904Y-114657142D01*
X158391285Y-114561904D01*
X158343666Y-114371428D01*
X158343666Y-114133333D01*
X158391285Y-113942857D01*
X158438904Y-113847619D01*
X158486523Y-113800000D01*
X158581761Y-113752380D01*
X113792000Y-57023000D02*
X113919000Y-57023000D01*
X113792000Y-116840000D02*
X113792000Y-57023000D01*
X166751000Y-116840000D02*
X113792000Y-116840000D01*
X166751000Y-57023000D02*
X166751000Y-116840000D01*
X113919000Y-57023000D02*
X166751000Y-57023000D01*
X119176800Y-113792000D02*
G75*
G03X119176800Y-113792000I-2286000J0D01*
G01*
X165938200Y-113842800D02*
G75*
G03X165938200Y-113842800I-2286000J0D01*
G01*
X165938200Y-60121800D02*
G75*
G03X165938200Y-60121800I-2286000J0D01*
G01*
X141470000Y-74842000D02*
X140470000Y-74842000D01*
X140470000Y-76542000D02*
X141470000Y-76542000D01*
X115018820Y-66189860D02*
X115018820Y-73891140D01*
X114018060Y-66189860D02*
X114018060Y-73891140D01*
X114018060Y-73891140D02*
X123217940Y-73891140D01*
X123217940Y-73891140D02*
X123217940Y-66189860D01*
X123217940Y-66189860D02*
X114018060Y-66189860D01*
X136930500Y-105084500D02*
X136930500Y-104084500D01*
X135230500Y-104084500D02*
X135230500Y-105084500D01*
X136740000Y-86225000D02*
X136740000Y-85225000D01*
X135040000Y-85225000D02*
X135040000Y-86225000D01*
X131992000Y-104148000D02*
X131992000Y-105148000D01*
X133692000Y-105148000D02*
X133692000Y-104148000D01*
X133819000Y-86098000D02*
X133819000Y-85098000D01*
X132119000Y-85098000D02*
X132119000Y-86098000D01*
X126601600Y-115556400D02*
X127601600Y-115556400D01*
X127601600Y-113856400D02*
X126601600Y-113856400D01*
X157924500Y-76073000D02*
X157924500Y-78867000D01*
X158496000Y-76073000D02*
X154940000Y-76073000D01*
X154940000Y-76073000D02*
X154940000Y-78867000D01*
X154940000Y-78867000D02*
X158496000Y-78867000D01*
X158496000Y-78867000D02*
X158496000Y-76073000D01*
X116332000Y-106045000D02*
X116332000Y-93345000D01*
X116332000Y-93345000D02*
X121412000Y-93345000D01*
X121412000Y-93345000D02*
X121412000Y-103505000D01*
X116332000Y-106045000D02*
X118872000Y-106045000D01*
X120142000Y-106325000D02*
X121692000Y-106325000D01*
X118872000Y-106045000D02*
X118872000Y-103505000D01*
X118872000Y-103505000D02*
X121412000Y-103505000D01*
X121692000Y-106325000D02*
X121692000Y-104775000D01*
X127547981Y-97888095D02*
X127872981Y-97888095D01*
X127547981Y-90638095D02*
X127872981Y-90638095D01*
X134797981Y-90638095D02*
X134472981Y-90638095D01*
X134797981Y-97888095D02*
X134472981Y-97888095D01*
X127547981Y-97888095D02*
X127547981Y-97563095D01*
X134797981Y-97888095D02*
X134797981Y-97563095D01*
X134797981Y-90638095D02*
X134797981Y-90963095D01*
X127547981Y-90638095D02*
X127547981Y-90963095D01*
X127872981Y-97888095D02*
X127872981Y-99313095D01*
X164745000Y-80036000D02*
X163195000Y-80036000D01*
X163195000Y-76936000D02*
X164745000Y-76936000D01*
X164745000Y-76936000D02*
X164745000Y-80036000D01*
X161925000Y-77216000D02*
X161925000Y-79756000D01*
X126603200Y-100928200D02*
X127803200Y-100928200D01*
X127803200Y-102678200D02*
X126603200Y-102678200D01*
X139155800Y-89286674D02*
X139155800Y-88086674D01*
X140905800Y-88086674D02*
X140905800Y-89286674D01*
X141259000Y-82691000D02*
X142459000Y-82691000D01*
X142459000Y-84441000D02*
X141259000Y-84441000D01*
X141386000Y-92978000D02*
X142586000Y-92978000D01*
X142586000Y-94728000D02*
X141386000Y-94728000D01*
X144715800Y-88086674D02*
X144715800Y-89286674D01*
X142965800Y-89286674D02*
X142965800Y-88086674D01*
X142586000Y-97712500D02*
X141386000Y-97712500D01*
X141386000Y-95962500D02*
X142586000Y-95962500D01*
X129387600Y-108356400D02*
G75*
G03X129387600Y-108356400I-2540000J0D01*
G01*
X123037600Y-112166400D02*
X123037600Y-104546400D01*
X123037600Y-104546400D02*
X130657600Y-104546400D01*
X130657600Y-104546400D02*
X130657600Y-112166400D01*
X123037600Y-112166400D02*
X130657600Y-112166400D01*
X164321000Y-106016000D02*
X148321000Y-106016000D01*
X164321000Y-82316000D02*
X164321000Y-106016000D01*
X148321000Y-82316000D02*
X164321000Y-82316000D01*
X148321000Y-106016000D02*
X148321000Y-82316000D01*
X134879000Y-72306000D02*
X134984000Y-72306000D01*
X134879000Y-68156000D02*
X134984000Y-68156000D01*
X145029000Y-68156000D02*
X144924000Y-68156000D01*
X145029000Y-72306000D02*
X144924000Y-72306000D01*
X134879000Y-72306000D02*
X134879000Y-68156000D01*
X145029000Y-72306000D02*
X145029000Y-68156000D01*
X134984000Y-72306000D02*
X134984000Y-73681000D01*
X153416000Y-71882000D02*
X153416000Y-74930000D01*
X153416000Y-74930000D02*
X160528000Y-74930000D01*
X160528000Y-74930000D02*
X160528000Y-71882000D01*
X153416000Y-68834000D02*
X153416000Y-68072000D01*
X153416000Y-68072000D02*
X154940000Y-65786000D01*
X154940000Y-65786000D02*
X159004000Y-65786000D01*
X159004000Y-65786000D02*
X160528000Y-68072000D01*
X160528000Y-68072000D02*
X160528000Y-68834000D01*
X117631600Y-80104800D02*
X117631600Y-79904800D01*
X117631600Y-77510800D02*
X117631600Y-77690800D01*
X120859344Y-77821157D02*
G75*
G03X117631600Y-77504800I-1727744J-1003643D01*
G01*
X120183606Y-77691732D02*
G75*
G03X118080600Y-77690800I-1052006J-1133068D01*
G01*
X117644380Y-80131526D02*
G75*
G03X120881600Y-79784800I1497220J1306726D01*
G01*
X118117711Y-79904053D02*
G75*
G03X120165600Y-79884800I1013889J1079253D01*
G01*
X117606200Y-85489600D02*
X117606200Y-85289600D01*
X117606200Y-82895600D02*
X117606200Y-83075600D01*
X120833944Y-83205957D02*
G75*
G03X117606200Y-82889600I-1727744J-1003643D01*
G01*
X120158206Y-83076532D02*
G75*
G03X118055200Y-83075600I-1052006J-1133068D01*
G01*
X117618980Y-85516326D02*
G75*
G03X120856200Y-85169600I1497220J1306726D01*
G01*
X118092311Y-85288853D02*
G75*
G03X120140200Y-85269600I1013889J1079253D01*
G01*
X117631600Y-90950600D02*
X117631600Y-90750600D01*
X117631600Y-88356600D02*
X117631600Y-88536600D01*
X120859344Y-88666957D02*
G75*
G03X117631600Y-88350600I-1727744J-1003643D01*
G01*
X120183606Y-88537532D02*
G75*
G03X118080600Y-88536600I-1052006J-1133068D01*
G01*
X117644380Y-90977326D02*
G75*
G03X120881600Y-90630600I1497220J1306726D01*
G01*
X118117711Y-90749853D02*
G75*
G03X120165600Y-90730600I1013889J1079253D01*
G01*
X128489000Y-79361000D02*
X127289000Y-79361000D01*
X127289000Y-77611000D02*
X128489000Y-77611000D01*
X127854000Y-83425000D02*
X126654000Y-83425000D01*
X126654000Y-81675000D02*
X127854000Y-81675000D01*
X127092000Y-87489000D02*
X125892000Y-87489000D01*
X125892000Y-85739000D02*
X127092000Y-85739000D01*
X130418500Y-63232500D02*
X124978500Y-63232500D01*
X130418500Y-68212500D02*
X124978500Y-68212500D01*
X141439000Y-63949200D02*
X141439000Y-62949200D01*
X139739000Y-62949200D02*
X139739000Y-63949200D01*
X143724000Y-63830000D02*
X143724000Y-62830000D01*
X145074000Y-62830000D02*
X145074000Y-63830000D01*
X150022000Y-78500000D02*
X151222000Y-78500000D01*
X151222000Y-80250000D02*
X150022000Y-80250000D01*
X150069000Y-75579000D02*
X151269000Y-75579000D01*
X151269000Y-77329000D02*
X150069000Y-77329000D01*
X132588000Y-65294000D02*
X132588000Y-64913000D01*
X132588000Y-66310000D02*
X132588000Y-65929000D01*
X132588000Y-65929000D02*
X132207000Y-65294000D01*
X132207000Y-65294000D02*
X132969000Y-65294000D01*
X132969000Y-65294000D02*
X132588000Y-65929000D01*
X132080000Y-65929000D02*
X133096000Y-65929000D01*
X133488000Y-67611500D02*
X133488000Y-64071500D01*
X131688000Y-67611500D02*
X131688000Y-64071500D01*
X145097500Y-98501200D02*
X138999500Y-98500000D01*
X138999500Y-98500000D02*
X138999500Y-104700000D01*
X138999500Y-104700000D02*
X145099500Y-104700000D01*
X145099500Y-104700000D02*
X145097500Y-98501200D01*
X151892000Y-67386200D02*
X145794000Y-67385000D01*
X145794000Y-67385000D02*
X145794000Y-73585000D01*
X145794000Y-73585000D02*
X151894000Y-73585000D01*
X151894000Y-73585000D02*
X151892000Y-67386200D01*
X137083800Y-63969900D02*
X134289800Y-63969900D01*
X137083800Y-64541400D02*
X137083800Y-60985400D01*
X137083800Y-60985400D02*
X134289800Y-60985400D01*
X134289800Y-60985400D02*
X134289800Y-64541400D01*
X134289800Y-64541400D02*
X137083800Y-64541400D01*
X162013900Y-107086400D02*
X162013900Y-109880400D01*
X162585400Y-107086400D02*
X159029400Y-107086400D01*
X159029400Y-107086400D02*
X159029400Y-109880400D01*
X159029400Y-109880400D02*
X162585400Y-109880400D01*
X162585400Y-109880400D02*
X162585400Y-107086400D01*
X119075200Y-60096400D02*
G75*
G03X119075200Y-60096400I-2286000J0D01*
G01*
X139439666Y-78009714D02*
X139401571Y-78047809D01*
X139287285Y-78085904D01*
X139211095Y-78085904D01*
X139096809Y-78047809D01*
X139020619Y-77971619D01*
X138982523Y-77895428D01*
X138944428Y-77743047D01*
X138944428Y-77628761D01*
X138982523Y-77476380D01*
X139020619Y-77400190D01*
X139096809Y-77324000D01*
X139211095Y-77285904D01*
X139287285Y-77285904D01*
X139401571Y-77324000D01*
X139439666Y-77362095D01*
X139744428Y-77362095D02*
X139782523Y-77324000D01*
X139858714Y-77285904D01*
X140049190Y-77285904D01*
X140125380Y-77324000D01*
X140163476Y-77362095D01*
X140201571Y-77438285D01*
X140201571Y-77514476D01*
X140163476Y-77628761D01*
X139706333Y-78085904D01*
X140201571Y-78085904D01*
X141598714Y-78085904D02*
X141141571Y-78085904D01*
X141370142Y-78085904D02*
X141370142Y-77285904D01*
X141293952Y-77400190D01*
X141217761Y-77476380D01*
X141141571Y-77514476D01*
X142093952Y-77285904D02*
X142170142Y-77285904D01*
X142246333Y-77324000D01*
X142284428Y-77362095D01*
X142322523Y-77438285D01*
X142360619Y-77590666D01*
X142360619Y-77781142D01*
X142322523Y-77933523D01*
X142284428Y-78009714D01*
X142246333Y-78047809D01*
X142170142Y-78085904D01*
X142093952Y-78085904D01*
X142017761Y-78047809D01*
X141979666Y-78009714D01*
X141941571Y-77933523D01*
X141903476Y-77781142D01*
X141903476Y-77590666D01*
X141941571Y-77438285D01*
X141979666Y-77362095D01*
X142017761Y-77324000D01*
X142093952Y-77285904D01*
X142703476Y-77552571D02*
X142703476Y-78085904D01*
X142703476Y-77628761D02*
X142741571Y-77590666D01*
X142817761Y-77552571D01*
X142932047Y-77552571D01*
X143008238Y-77590666D01*
X143046333Y-77666857D01*
X143046333Y-78085904D01*
X116249523Y-70529404D02*
X116249523Y-69729404D01*
X116554285Y-69729404D01*
X116630476Y-69767500D01*
X116668571Y-69805595D01*
X116706666Y-69881785D01*
X116706666Y-69996071D01*
X116668571Y-70072261D01*
X116630476Y-70110357D01*
X116554285Y-70148452D01*
X116249523Y-70148452D01*
X117468571Y-70529404D02*
X117011428Y-70529404D01*
X117240000Y-70529404D02*
X117240000Y-69729404D01*
X117163809Y-69843690D01*
X117087619Y-69919880D01*
X117011428Y-69957976D01*
X117811676Y-63061904D02*
X117811676Y-63709523D01*
X117849771Y-63785714D01*
X117887866Y-63823809D01*
X117964057Y-63861904D01*
X118116438Y-63861904D01*
X118192628Y-63823809D01*
X118230723Y-63785714D01*
X118268819Y-63709523D01*
X118268819Y-63061904D01*
X118611676Y-63823809D02*
X118725961Y-63861904D01*
X118916438Y-63861904D01*
X118992628Y-63823809D01*
X119030723Y-63785714D01*
X119068819Y-63709523D01*
X119068819Y-63633333D01*
X119030723Y-63557142D01*
X118992628Y-63519047D01*
X118916438Y-63480952D01*
X118764057Y-63442857D01*
X118687866Y-63404761D01*
X118649771Y-63366666D01*
X118611676Y-63290476D01*
X118611676Y-63214285D01*
X118649771Y-63138095D01*
X118687866Y-63100000D01*
X118764057Y-63061904D01*
X118954533Y-63061904D01*
X119068819Y-63100000D01*
X119678342Y-63442857D02*
X119792628Y-63480952D01*
X119830723Y-63519047D01*
X119868819Y-63595238D01*
X119868819Y-63709523D01*
X119830723Y-63785714D01*
X119792628Y-63823809D01*
X119716438Y-63861904D01*
X119411676Y-63861904D01*
X119411676Y-63061904D01*
X119678342Y-63061904D01*
X119754533Y-63100000D01*
X119792628Y-63138095D01*
X119830723Y-63214285D01*
X119830723Y-63290476D01*
X119792628Y-63366666D01*
X119754533Y-63404761D01*
X119678342Y-63442857D01*
X119411676Y-63442857D01*
X135553414Y-108908833D02*
X135591509Y-108946928D01*
X135629604Y-109061214D01*
X135629604Y-109137404D01*
X135591509Y-109251690D01*
X135515319Y-109327880D01*
X135439128Y-109365976D01*
X135286747Y-109404071D01*
X135172461Y-109404071D01*
X135020080Y-109365976D01*
X134943890Y-109327880D01*
X134867700Y-109251690D01*
X134829604Y-109137404D01*
X134829604Y-109061214D01*
X134867700Y-108946928D01*
X134905795Y-108908833D01*
X134829604Y-108642166D02*
X134829604Y-108146928D01*
X135134366Y-108413595D01*
X135134366Y-108299309D01*
X135172461Y-108223119D01*
X135210557Y-108185023D01*
X135286747Y-108146928D01*
X135477223Y-108146928D01*
X135553414Y-108185023D01*
X135591509Y-108223119D01*
X135629604Y-108299309D01*
X135629604Y-108527880D01*
X135591509Y-108604071D01*
X135553414Y-108642166D01*
X136950404Y-109518338D02*
X136950404Y-109975480D01*
X136950404Y-109746909D02*
X136150404Y-109746909D01*
X136264690Y-109823100D01*
X136340880Y-109899290D01*
X136378976Y-109975480D01*
X136150404Y-109023100D02*
X136150404Y-108946909D01*
X136188500Y-108870719D01*
X136226595Y-108832623D01*
X136302785Y-108794528D01*
X136455166Y-108756433D01*
X136645642Y-108756433D01*
X136798023Y-108794528D01*
X136874214Y-108832623D01*
X136912309Y-108870719D01*
X136950404Y-108946909D01*
X136950404Y-109023100D01*
X136912309Y-109099290D01*
X136874214Y-109137385D01*
X136798023Y-109175480D01*
X136645642Y-109213576D01*
X136455166Y-109213576D01*
X136302785Y-109175480D01*
X136226595Y-109137385D01*
X136188500Y-109099290D01*
X136150404Y-109023100D01*
X136150404Y-108261195D02*
X136150404Y-108185004D01*
X136188500Y-108108814D01*
X136226595Y-108070719D01*
X136302785Y-108032623D01*
X136455166Y-107994528D01*
X136645642Y-107994528D01*
X136798023Y-108032623D01*
X136874214Y-108070719D01*
X136912309Y-108108814D01*
X136950404Y-108185004D01*
X136950404Y-108261195D01*
X136912309Y-108337385D01*
X136874214Y-108375480D01*
X136798023Y-108413576D01*
X136645642Y-108451671D01*
X136455166Y-108451671D01*
X136302785Y-108413576D01*
X136226595Y-108375480D01*
X136188500Y-108337385D01*
X136150404Y-108261195D01*
X136417071Y-107651671D02*
X136950404Y-107651671D01*
X136493261Y-107651671D02*
X136455166Y-107613576D01*
X136417071Y-107537385D01*
X136417071Y-107423100D01*
X136455166Y-107346909D01*
X136531357Y-107308814D01*
X136950404Y-107308814D01*
X135667714Y-81794333D02*
X135705809Y-81832428D01*
X135743904Y-81946714D01*
X135743904Y-82022904D01*
X135705809Y-82137190D01*
X135629619Y-82213380D01*
X135553428Y-82251476D01*
X135401047Y-82289571D01*
X135286761Y-82289571D01*
X135134380Y-82251476D01*
X135058190Y-82213380D01*
X134982000Y-82137190D01*
X134943904Y-82022904D01*
X134943904Y-81946714D01*
X134982000Y-81832428D01*
X135020095Y-81794333D01*
X135210571Y-81108619D02*
X135743904Y-81108619D01*
X134905809Y-81299095D02*
X135477238Y-81489571D01*
X135477238Y-80994333D01*
X137267904Y-81921238D02*
X137267904Y-82378380D01*
X137267904Y-82149809D02*
X136467904Y-82149809D01*
X136582190Y-82226000D01*
X136658380Y-82302190D01*
X136696476Y-82378380D01*
X136467904Y-81426000D02*
X136467904Y-81349809D01*
X136506000Y-81273619D01*
X136544095Y-81235523D01*
X136620285Y-81197428D01*
X136772666Y-81159333D01*
X136963142Y-81159333D01*
X137115523Y-81197428D01*
X137191714Y-81235523D01*
X137229809Y-81273619D01*
X137267904Y-81349809D01*
X137267904Y-81426000D01*
X137229809Y-81502190D01*
X137191714Y-81540285D01*
X137115523Y-81578380D01*
X136963142Y-81616476D01*
X136772666Y-81616476D01*
X136620285Y-81578380D01*
X136544095Y-81540285D01*
X136506000Y-81502190D01*
X136467904Y-81426000D01*
X136467904Y-80664095D02*
X136467904Y-80587904D01*
X136506000Y-80511714D01*
X136544095Y-80473619D01*
X136620285Y-80435523D01*
X136772666Y-80397428D01*
X136963142Y-80397428D01*
X137115523Y-80435523D01*
X137191714Y-80473619D01*
X137229809Y-80511714D01*
X137267904Y-80587904D01*
X137267904Y-80664095D01*
X137229809Y-80740285D01*
X137191714Y-80778380D01*
X137115523Y-80816476D01*
X136963142Y-80854571D01*
X136772666Y-80854571D01*
X136620285Y-80816476D01*
X136544095Y-80778380D01*
X136506000Y-80740285D01*
X136467904Y-80664095D01*
X136734571Y-80054571D02*
X137267904Y-80054571D01*
X136810761Y-80054571D02*
X136772666Y-80016476D01*
X136734571Y-79940285D01*
X136734571Y-79826000D01*
X136772666Y-79749809D01*
X136848857Y-79711714D01*
X137267904Y-79711714D01*
X132467314Y-108845333D02*
X132505409Y-108883428D01*
X132543504Y-108997714D01*
X132543504Y-109073904D01*
X132505409Y-109188190D01*
X132429219Y-109264380D01*
X132353028Y-109302476D01*
X132200647Y-109340571D01*
X132086361Y-109340571D01*
X131933980Y-109302476D01*
X131857790Y-109264380D01*
X131781600Y-109188190D01*
X131743504Y-109073904D01*
X131743504Y-108997714D01*
X131781600Y-108883428D01*
X131819695Y-108845333D01*
X131743504Y-108121523D02*
X131743504Y-108502476D01*
X132124457Y-108540571D01*
X132086361Y-108502476D01*
X132048266Y-108426285D01*
X132048266Y-108235809D01*
X132086361Y-108159619D01*
X132124457Y-108121523D01*
X132200647Y-108083428D01*
X132391123Y-108083428D01*
X132467314Y-108121523D01*
X132505409Y-108159619D01*
X132543504Y-108235809D01*
X132543504Y-108426285D01*
X132505409Y-108502476D01*
X132467314Y-108540571D01*
X133915104Y-109708838D02*
X133915104Y-110165980D01*
X133915104Y-109937409D02*
X133115104Y-109937409D01*
X133229390Y-110013600D01*
X133305580Y-110089790D01*
X133343676Y-110165980D01*
X133115104Y-109213600D02*
X133115104Y-109137409D01*
X133153200Y-109061219D01*
X133191295Y-109023123D01*
X133267485Y-108985028D01*
X133419866Y-108946933D01*
X133610342Y-108946933D01*
X133762723Y-108985028D01*
X133838914Y-109023123D01*
X133877009Y-109061219D01*
X133915104Y-109137409D01*
X133915104Y-109213600D01*
X133877009Y-109289790D01*
X133838914Y-109327885D01*
X133762723Y-109365980D01*
X133610342Y-109404076D01*
X133419866Y-109404076D01*
X133267485Y-109365980D01*
X133191295Y-109327885D01*
X133153200Y-109289790D01*
X133115104Y-109213600D01*
X133115104Y-108451695D02*
X133115104Y-108375504D01*
X133153200Y-108299314D01*
X133191295Y-108261219D01*
X133267485Y-108223123D01*
X133419866Y-108185028D01*
X133610342Y-108185028D01*
X133762723Y-108223123D01*
X133838914Y-108261219D01*
X133877009Y-108299314D01*
X133915104Y-108375504D01*
X133915104Y-108451695D01*
X133877009Y-108527885D01*
X133838914Y-108565980D01*
X133762723Y-108604076D01*
X133610342Y-108642171D01*
X133419866Y-108642171D01*
X133267485Y-108604076D01*
X133191295Y-108565980D01*
X133153200Y-108527885D01*
X133115104Y-108451695D01*
X133381771Y-107842171D02*
X133915104Y-107842171D01*
X133457961Y-107842171D02*
X133419866Y-107804076D01*
X133381771Y-107727885D01*
X133381771Y-107613600D01*
X133419866Y-107537409D01*
X133496057Y-107499314D01*
X133915104Y-107499314D01*
X132365714Y-81765238D02*
X132403809Y-81803333D01*
X132441904Y-81917619D01*
X132441904Y-81993809D01*
X132403809Y-82108095D01*
X132327619Y-82184285D01*
X132251428Y-82222381D01*
X132099047Y-82260476D01*
X131984761Y-82260476D01*
X131832380Y-82222381D01*
X131756190Y-82184285D01*
X131680000Y-82108095D01*
X131641904Y-81993809D01*
X131641904Y-81917619D01*
X131680000Y-81803333D01*
X131718095Y-81765238D01*
X131641904Y-81079524D02*
X131641904Y-81231905D01*
X131680000Y-81308095D01*
X131718095Y-81346190D01*
X131832380Y-81422381D01*
X131984761Y-81460476D01*
X132289523Y-81460476D01*
X132365714Y-81422381D01*
X132403809Y-81384285D01*
X132441904Y-81308095D01*
X132441904Y-81155714D01*
X132403809Y-81079524D01*
X132365714Y-81041428D01*
X132289523Y-81003333D01*
X132099047Y-81003333D01*
X132022857Y-81041428D01*
X131984761Y-81079524D01*
X131946666Y-81155714D01*
X131946666Y-81308095D01*
X131984761Y-81384285D01*
X132022857Y-81422381D01*
X132099047Y-81460476D01*
X133965904Y-81638143D02*
X133965904Y-82095285D01*
X133965904Y-81866714D02*
X133165904Y-81866714D01*
X133280190Y-81942905D01*
X133356380Y-82019095D01*
X133394476Y-82095285D01*
X133165904Y-81142905D02*
X133165904Y-81066714D01*
X133204000Y-80990524D01*
X133242095Y-80952428D01*
X133318285Y-80914333D01*
X133470666Y-80876238D01*
X133661142Y-80876238D01*
X133813523Y-80914333D01*
X133889714Y-80952428D01*
X133927809Y-80990524D01*
X133965904Y-81066714D01*
X133965904Y-81142905D01*
X133927809Y-81219095D01*
X133889714Y-81257190D01*
X133813523Y-81295285D01*
X133661142Y-81333381D01*
X133470666Y-81333381D01*
X133318285Y-81295285D01*
X133242095Y-81257190D01*
X133204000Y-81219095D01*
X133165904Y-81142905D01*
X133165904Y-80381000D02*
X133165904Y-80304809D01*
X133204000Y-80228619D01*
X133242095Y-80190524D01*
X133318285Y-80152428D01*
X133470666Y-80114333D01*
X133661142Y-80114333D01*
X133813523Y-80152428D01*
X133889714Y-80190524D01*
X133927809Y-80228619D01*
X133965904Y-80304809D01*
X133965904Y-80381000D01*
X133927809Y-80457190D01*
X133889714Y-80495285D01*
X133813523Y-80533381D01*
X133661142Y-80571476D01*
X133470666Y-80571476D01*
X133318285Y-80533381D01*
X133242095Y-80495285D01*
X133204000Y-80457190D01*
X133165904Y-80381000D01*
X133432571Y-79771476D02*
X133965904Y-79771476D01*
X133508761Y-79771476D02*
X133470666Y-79733381D01*
X133432571Y-79657190D01*
X133432571Y-79542905D01*
X133470666Y-79466714D01*
X133546857Y-79428619D01*
X133965904Y-79428619D01*
X122802666Y-114382514D02*
X122764571Y-114420609D01*
X122650285Y-114458704D01*
X122574095Y-114458704D01*
X122459809Y-114420609D01*
X122383619Y-114344419D01*
X122345523Y-114268228D01*
X122307428Y-114115847D01*
X122307428Y-114001561D01*
X122345523Y-113849180D01*
X122383619Y-113772990D01*
X122459809Y-113696800D01*
X122574095Y-113658704D01*
X122650285Y-113658704D01*
X122764571Y-113696800D01*
X122802666Y-113734895D01*
X123069333Y-113658704D02*
X123602666Y-113658704D01*
X123259809Y-114458704D01*
X122142361Y-115830304D02*
X121685219Y-115830304D01*
X121913790Y-115830304D02*
X121913790Y-115030304D01*
X121837600Y-115144590D01*
X121761409Y-115220780D01*
X121685219Y-115258876D01*
X122637600Y-115030304D02*
X122713790Y-115030304D01*
X122789980Y-115068400D01*
X122828076Y-115106495D01*
X122866171Y-115182685D01*
X122904266Y-115335066D01*
X122904266Y-115525542D01*
X122866171Y-115677923D01*
X122828076Y-115754114D01*
X122789980Y-115792209D01*
X122713790Y-115830304D01*
X122637600Y-115830304D01*
X122561409Y-115792209D01*
X122523314Y-115754114D01*
X122485219Y-115677923D01*
X122447123Y-115525542D01*
X122447123Y-115335066D01*
X122485219Y-115182685D01*
X122523314Y-115106495D01*
X122561409Y-115068400D01*
X122637600Y-115030304D01*
X123399504Y-115030304D02*
X123475695Y-115030304D01*
X123551885Y-115068400D01*
X123589980Y-115106495D01*
X123628076Y-115182685D01*
X123666171Y-115335066D01*
X123666171Y-115525542D01*
X123628076Y-115677923D01*
X123589980Y-115754114D01*
X123551885Y-115792209D01*
X123475695Y-115830304D01*
X123399504Y-115830304D01*
X123323314Y-115792209D01*
X123285219Y-115754114D01*
X123247123Y-115677923D01*
X123209028Y-115525542D01*
X123209028Y-115335066D01*
X123247123Y-115182685D01*
X123285219Y-115106495D01*
X123323314Y-115068400D01*
X123399504Y-115030304D01*
X124009028Y-115296971D02*
X124009028Y-115830304D01*
X124009028Y-115373161D02*
X124047123Y-115335066D01*
X124123314Y-115296971D01*
X124237600Y-115296971D01*
X124313790Y-115335066D01*
X124351885Y-115411257D01*
X124351885Y-115830304D01*
X154222466Y-80295714D02*
X154184371Y-80333809D01*
X154070085Y-80371904D01*
X153993895Y-80371904D01*
X153879609Y-80333809D01*
X153803419Y-80257619D01*
X153765323Y-80181428D01*
X153727228Y-80029047D01*
X153727228Y-79914761D01*
X153765323Y-79762380D01*
X153803419Y-79686190D01*
X153879609Y-79610000D01*
X153993895Y-79571904D01*
X154070085Y-79571904D01*
X154184371Y-79610000D01*
X154222466Y-79648095D01*
X154679609Y-79914761D02*
X154603419Y-79876666D01*
X154565323Y-79838571D01*
X154527228Y-79762380D01*
X154527228Y-79724285D01*
X154565323Y-79648095D01*
X154603419Y-79610000D01*
X154679609Y-79571904D01*
X154831990Y-79571904D01*
X154908180Y-79610000D01*
X154946276Y-79648095D01*
X154984371Y-79724285D01*
X154984371Y-79762380D01*
X154946276Y-79838571D01*
X154908180Y-79876666D01*
X154831990Y-79914761D01*
X154679609Y-79914761D01*
X154603419Y-79952857D01*
X154565323Y-79990952D01*
X154527228Y-80067142D01*
X154527228Y-80219523D01*
X154565323Y-80295714D01*
X154603419Y-80333809D01*
X154679609Y-80371904D01*
X154831990Y-80371904D01*
X154908180Y-80333809D01*
X154946276Y-80295714D01*
X154984371Y-80219523D01*
X154984371Y-80067142D01*
X154946276Y-79990952D01*
X154908180Y-79952857D01*
X154831990Y-79914761D01*
X155695771Y-79648095D02*
X155733866Y-79610000D01*
X155810057Y-79571904D01*
X156000533Y-79571904D01*
X156076723Y-79610000D01*
X156114819Y-79648095D01*
X156152914Y-79724285D01*
X156152914Y-79800476D01*
X156114819Y-79914761D01*
X155657676Y-80371904D01*
X156152914Y-80371904D01*
X156457676Y-79648095D02*
X156495771Y-79610000D01*
X156571961Y-79571904D01*
X156762438Y-79571904D01*
X156838628Y-79610000D01*
X156876723Y-79648095D01*
X156914819Y-79724285D01*
X156914819Y-79800476D01*
X156876723Y-79914761D01*
X156419580Y-80371904D01*
X156914819Y-80371904D01*
X157600533Y-79838571D02*
X157600533Y-80371904D01*
X157257676Y-79838571D02*
X157257676Y-80257619D01*
X157295771Y-80333809D01*
X157371961Y-80371904D01*
X157486247Y-80371904D01*
X157562438Y-80333809D01*
X157600533Y-80295714D01*
X115474714Y-104984428D02*
X115512809Y-105022523D01*
X115550904Y-105136809D01*
X115550904Y-105213000D01*
X115512809Y-105327285D01*
X115436619Y-105403476D01*
X115360428Y-105441571D01*
X115208047Y-105479666D01*
X115093761Y-105479666D01*
X114941380Y-105441571D01*
X114865190Y-105403476D01*
X114789000Y-105327285D01*
X114750904Y-105213000D01*
X114750904Y-105136809D01*
X114789000Y-105022523D01*
X114827095Y-104984428D01*
X114750904Y-104489190D02*
X114750904Y-104336809D01*
X114789000Y-104260619D01*
X114865190Y-104184428D01*
X115017571Y-104146333D01*
X115284238Y-104146333D01*
X115436619Y-104184428D01*
X115512809Y-104260619D01*
X115550904Y-104336809D01*
X115550904Y-104489190D01*
X115512809Y-104565380D01*
X115436619Y-104641571D01*
X115284238Y-104679666D01*
X115017571Y-104679666D01*
X114865190Y-104641571D01*
X114789000Y-104565380D01*
X114750904Y-104489190D01*
X115550904Y-103803476D02*
X114750904Y-103803476D01*
X115550904Y-103346333D01*
X114750904Y-103346333D01*
X115550904Y-102546333D02*
X115550904Y-103003476D01*
X115550904Y-102774904D02*
X114750904Y-102774904D01*
X114865190Y-102851095D01*
X114941380Y-102927285D01*
X114979476Y-103003476D01*
X115322333Y-101320142D02*
X115322333Y-100939190D01*
X115550904Y-101396333D02*
X114750904Y-101129666D01*
X115550904Y-100863000D01*
X114750904Y-100710619D02*
X115550904Y-100443952D01*
X114750904Y-100177285D01*
X115550904Y-99453476D02*
X115169952Y-99720142D01*
X115550904Y-99910619D02*
X114750904Y-99910619D01*
X114750904Y-99605857D01*
X114789000Y-99529666D01*
X114827095Y-99491571D01*
X114903285Y-99453476D01*
X115017571Y-99453476D01*
X115093761Y-99491571D01*
X115131857Y-99529666D01*
X115169952Y-99605857D01*
X115169952Y-99910619D01*
X115246142Y-99110619D02*
X115246142Y-98501095D01*
X115550904Y-98120142D02*
X114750904Y-98120142D01*
X115512809Y-97777285D02*
X115550904Y-97663000D01*
X115550904Y-97472523D01*
X115512809Y-97396333D01*
X115474714Y-97358238D01*
X115398523Y-97320142D01*
X115322333Y-97320142D01*
X115246142Y-97358238D01*
X115208047Y-97396333D01*
X115169952Y-97472523D01*
X115131857Y-97624904D01*
X115093761Y-97701095D01*
X115055666Y-97739190D01*
X114979476Y-97777285D01*
X114903285Y-97777285D01*
X114827095Y-97739190D01*
X114789000Y-97701095D01*
X114750904Y-97624904D01*
X114750904Y-97434428D01*
X114789000Y-97320142D01*
X115550904Y-96977285D02*
X114750904Y-96977285D01*
X114750904Y-96672523D01*
X114789000Y-96596333D01*
X114827095Y-96558238D01*
X114903285Y-96520142D01*
X115017571Y-96520142D01*
X115093761Y-96558238D01*
X115131857Y-96596333D01*
X115169952Y-96672523D01*
X115169952Y-96977285D01*
X115246142Y-96177285D02*
X115246142Y-95567761D01*
X115550904Y-94767761D02*
X115550904Y-95224904D01*
X115550904Y-94996333D02*
X114750904Y-94996333D01*
X114865190Y-95072523D01*
X114941380Y-95148714D01*
X114979476Y-95224904D01*
X114750904Y-94272523D02*
X114750904Y-94196333D01*
X114789000Y-94120142D01*
X114827095Y-94082047D01*
X114903285Y-94043952D01*
X115055666Y-94005857D01*
X115246142Y-94005857D01*
X115398523Y-94043952D01*
X115474714Y-94082047D01*
X115512809Y-94120142D01*
X115550904Y-94196333D01*
X115550904Y-94272523D01*
X115512809Y-94348714D01*
X115474714Y-94386809D01*
X115398523Y-94424904D01*
X115246142Y-94463000D01*
X115055666Y-94463000D01*
X114903285Y-94424904D01*
X114827095Y-94386809D01*
X114789000Y-94348714D01*
X114750904Y-94272523D01*
X124313904Y-98570952D02*
X123513904Y-98570952D01*
X124237714Y-97732857D02*
X124275809Y-97770952D01*
X124313904Y-97885238D01*
X124313904Y-97961428D01*
X124275809Y-98075714D01*
X124199619Y-98151904D01*
X124123428Y-98190000D01*
X123971047Y-98228095D01*
X123856761Y-98228095D01*
X123704380Y-98190000D01*
X123628190Y-98151904D01*
X123552000Y-98075714D01*
X123513904Y-97961428D01*
X123513904Y-97885238D01*
X123552000Y-97770952D01*
X123590095Y-97732857D01*
X124313904Y-96970952D02*
X124313904Y-97428095D01*
X124313904Y-97199523D02*
X123513904Y-97199523D01*
X123628190Y-97275714D01*
X123704380Y-97351904D01*
X123742476Y-97428095D01*
X125355333Y-98926095D02*
X125355333Y-98545142D01*
X125583904Y-99002285D02*
X124783904Y-98735619D01*
X125583904Y-98468952D01*
X124783904Y-98316571D02*
X124783904Y-97859428D01*
X125583904Y-98088000D02*
X124783904Y-98088000D01*
X125583904Y-97592761D02*
X124783904Y-97592761D01*
X125355333Y-97326095D01*
X124783904Y-97059428D01*
X125583904Y-97059428D01*
X125164857Y-96678476D02*
X125164857Y-96411809D01*
X125583904Y-96297523D02*
X125583904Y-96678476D01*
X124783904Y-96678476D01*
X124783904Y-96297523D01*
X124822000Y-95535619D02*
X124783904Y-95611809D01*
X124783904Y-95726095D01*
X124822000Y-95840380D01*
X124898190Y-95916571D01*
X124974380Y-95954666D01*
X125126761Y-95992761D01*
X125241047Y-95992761D01*
X125393428Y-95954666D01*
X125469619Y-95916571D01*
X125545809Y-95840380D01*
X125583904Y-95726095D01*
X125583904Y-95649904D01*
X125545809Y-95535619D01*
X125507714Y-95497523D01*
X125241047Y-95497523D01*
X125241047Y-95649904D01*
X125355333Y-95192761D02*
X125355333Y-94811809D01*
X125583904Y-95268952D02*
X124783904Y-95002285D01*
X125583904Y-94735619D01*
X124783904Y-94545142D02*
X124783904Y-94049904D01*
X125088666Y-94316571D01*
X125088666Y-94202285D01*
X125126761Y-94126095D01*
X125164857Y-94088000D01*
X125241047Y-94049904D01*
X125431523Y-94049904D01*
X125507714Y-94088000D01*
X125545809Y-94126095D01*
X125583904Y-94202285D01*
X125583904Y-94430857D01*
X125545809Y-94507047D01*
X125507714Y-94545142D01*
X124860095Y-93745142D02*
X124822000Y-93707047D01*
X124783904Y-93630857D01*
X124783904Y-93440380D01*
X124822000Y-93364190D01*
X124860095Y-93326095D01*
X124936285Y-93288000D01*
X125012476Y-93288000D01*
X125126761Y-93326095D01*
X125583904Y-93783238D01*
X125583904Y-93288000D01*
X125126761Y-92830857D02*
X125088666Y-92907047D01*
X125050571Y-92945142D01*
X124974380Y-92983238D01*
X124936285Y-92983238D01*
X124860095Y-92945142D01*
X124822000Y-92907047D01*
X124783904Y-92830857D01*
X124783904Y-92678476D01*
X124822000Y-92602285D01*
X124860095Y-92564190D01*
X124936285Y-92526095D01*
X124974380Y-92526095D01*
X125050571Y-92564190D01*
X125088666Y-92602285D01*
X125126761Y-92678476D01*
X125126761Y-92830857D01*
X125164857Y-92907047D01*
X125202952Y-92945142D01*
X125279142Y-92983238D01*
X125431523Y-92983238D01*
X125507714Y-92945142D01*
X125545809Y-92907047D01*
X125583904Y-92830857D01*
X125583904Y-92678476D01*
X125545809Y-92602285D01*
X125507714Y-92564190D01*
X125431523Y-92526095D01*
X125279142Y-92526095D01*
X125202952Y-92564190D01*
X125164857Y-92602285D01*
X125126761Y-92678476D01*
X125583904Y-92183238D02*
X124783904Y-92183238D01*
X124783904Y-91878476D01*
X124822000Y-91802285D01*
X124860095Y-91764190D01*
X124936285Y-91726095D01*
X125050571Y-91726095D01*
X125126761Y-91764190D01*
X125164857Y-91802285D01*
X125202952Y-91878476D01*
X125202952Y-92183238D01*
X125279142Y-91383238D02*
X125279142Y-90773714D01*
X125355333Y-90430857D02*
X125355333Y-90049904D01*
X125583904Y-90507047D02*
X124783904Y-90240380D01*
X125583904Y-89973714D01*
X162794904Y-75520476D02*
X161994904Y-75520476D01*
X161994904Y-75215714D01*
X162033000Y-75139523D01*
X162071095Y-75101428D01*
X162147285Y-75063333D01*
X162261571Y-75063333D01*
X162337761Y-75101428D01*
X162375857Y-75139523D01*
X162413952Y-75215714D01*
X162413952Y-75520476D01*
X162071095Y-74758571D02*
X162033000Y-74720476D01*
X161994904Y-74644285D01*
X161994904Y-74453809D01*
X162033000Y-74377619D01*
X162071095Y-74339523D01*
X162147285Y-74301428D01*
X162223476Y-74301428D01*
X162337761Y-74339523D01*
X162794904Y-74796666D01*
X162794904Y-74301428D01*
X164344333Y-75355142D02*
X164344333Y-74974190D01*
X164572904Y-75431333D02*
X163772904Y-75164666D01*
X164572904Y-74898000D01*
X164572904Y-74631333D02*
X163772904Y-74631333D01*
X164572904Y-74174190D01*
X163772904Y-74174190D01*
X163772904Y-73907523D02*
X163772904Y-73450380D01*
X164572904Y-73678952D02*
X163772904Y-73678952D01*
X164153857Y-73183714D02*
X164153857Y-72917047D01*
X164572904Y-72802761D02*
X164572904Y-73183714D01*
X163772904Y-73183714D01*
X163772904Y-72802761D01*
X164572904Y-72459904D02*
X163772904Y-72459904D01*
X164572904Y-72002761D01*
X163772904Y-72002761D01*
X164572904Y-71621809D02*
X163772904Y-71621809D01*
X164572904Y-71164666D01*
X163772904Y-71164666D01*
X164344333Y-70821809D02*
X164344333Y-70440857D01*
X164572904Y-70898000D02*
X163772904Y-70631333D01*
X164572904Y-70364666D01*
X125723666Y-100564904D02*
X125457000Y-100183952D01*
X125266523Y-100564904D02*
X125266523Y-99764904D01*
X125571285Y-99764904D01*
X125647476Y-99803000D01*
X125685571Y-99841095D01*
X125723666Y-99917285D01*
X125723666Y-100031571D01*
X125685571Y-100107761D01*
X125647476Y-100145857D01*
X125571285Y-100183952D01*
X125266523Y-100183952D01*
X126485571Y-100564904D02*
X126028428Y-100564904D01*
X126257000Y-100564904D02*
X126257000Y-99764904D01*
X126180809Y-99879190D01*
X126104619Y-99955380D01*
X126028428Y-99993476D01*
X127844619Y-100564904D02*
X127387476Y-100564904D01*
X127616047Y-100564904D02*
X127616047Y-99764904D01*
X127539857Y-99879190D01*
X127463666Y-99955380D01*
X127387476Y-99993476D01*
X128339857Y-99764904D02*
X128416047Y-99764904D01*
X128492238Y-99803000D01*
X128530333Y-99841095D01*
X128568428Y-99917285D01*
X128606523Y-100069666D01*
X128606523Y-100260142D01*
X128568428Y-100412523D01*
X128530333Y-100488714D01*
X128492238Y-100526809D01*
X128416047Y-100564904D01*
X128339857Y-100564904D01*
X128263666Y-100526809D01*
X128225571Y-100488714D01*
X128187476Y-100412523D01*
X128149380Y-100260142D01*
X128149380Y-100069666D01*
X128187476Y-99917285D01*
X128225571Y-99841095D01*
X128263666Y-99803000D01*
X128339857Y-99764904D01*
X128949380Y-100564904D02*
X128949380Y-99764904D01*
X129406523Y-100564904D02*
X129063666Y-100107761D01*
X129406523Y-99764904D02*
X128949380Y-100222047D01*
X138855404Y-92462333D02*
X138474452Y-92729000D01*
X138855404Y-92919476D02*
X138055404Y-92919476D01*
X138055404Y-92614714D01*
X138093500Y-92538523D01*
X138131595Y-92500428D01*
X138207785Y-92462333D01*
X138322071Y-92462333D01*
X138398261Y-92500428D01*
X138436357Y-92538523D01*
X138474452Y-92614714D01*
X138474452Y-92919476D01*
X138131595Y-92157571D02*
X138093500Y-92119476D01*
X138055404Y-92043285D01*
X138055404Y-91852809D01*
X138093500Y-91776619D01*
X138131595Y-91738523D01*
X138207785Y-91700428D01*
X138283976Y-91700428D01*
X138398261Y-91738523D01*
X138855404Y-92195666D01*
X138855404Y-91700428D01*
X138322071Y-90608071D02*
X138855404Y-90608071D01*
X138017309Y-90798547D02*
X138588738Y-90989023D01*
X138588738Y-90493785D01*
X138855404Y-90189023D02*
X138055404Y-90189023D01*
X138855404Y-89731880D02*
X138398261Y-90074738D01*
X138055404Y-89731880D02*
X138512547Y-90189023D01*
X138055404Y-89465214D02*
X138055404Y-88931880D01*
X138855404Y-89274738D01*
X140100066Y-82124504D02*
X139833400Y-81743552D01*
X139642923Y-82124504D02*
X139642923Y-81324504D01*
X139947685Y-81324504D01*
X140023876Y-81362600D01*
X140061971Y-81400695D01*
X140100066Y-81476885D01*
X140100066Y-81591171D01*
X140061971Y-81667361D01*
X140023876Y-81705457D01*
X139947685Y-81743552D01*
X139642923Y-81743552D01*
X140366733Y-81324504D02*
X140861971Y-81324504D01*
X140595304Y-81629266D01*
X140709590Y-81629266D01*
X140785780Y-81667361D01*
X140823876Y-81705457D01*
X140861971Y-81781647D01*
X140861971Y-81972123D01*
X140823876Y-82048314D01*
X140785780Y-82086409D01*
X140709590Y-82124504D01*
X140481019Y-82124504D01*
X140404828Y-82086409D01*
X140366733Y-82048314D01*
X141560666Y-82099104D02*
X141713047Y-82099104D01*
X141789238Y-82061009D01*
X141827333Y-82022914D01*
X141903523Y-81908628D01*
X141941619Y-81756247D01*
X141941619Y-81451485D01*
X141903523Y-81375295D01*
X141865428Y-81337200D01*
X141789238Y-81299104D01*
X141636857Y-81299104D01*
X141560666Y-81337200D01*
X141522571Y-81375295D01*
X141484476Y-81451485D01*
X141484476Y-81641961D01*
X141522571Y-81718152D01*
X141560666Y-81756247D01*
X141636857Y-81794342D01*
X141789238Y-81794342D01*
X141865428Y-81756247D01*
X141903523Y-81718152D01*
X141941619Y-81641961D01*
X142284476Y-82099104D02*
X142284476Y-81299104D01*
X142741619Y-82099104D02*
X142398761Y-81641961D01*
X142741619Y-81299104D02*
X142284476Y-81756247D01*
X143503523Y-82099104D02*
X143046380Y-82099104D01*
X143274952Y-82099104D02*
X143274952Y-81299104D01*
X143198761Y-81413390D01*
X143122571Y-81489580D01*
X143046380Y-81527676D01*
X145472166Y-93325904D02*
X145205500Y-92944952D01*
X145015023Y-93325904D02*
X145015023Y-92525904D01*
X145319785Y-92525904D01*
X145395976Y-92564000D01*
X145434071Y-92602095D01*
X145472166Y-92678285D01*
X145472166Y-92792571D01*
X145434071Y-92868761D01*
X145395976Y-92906857D01*
X145319785Y-92944952D01*
X145015023Y-92944952D01*
X146157880Y-92792571D02*
X146157880Y-93325904D01*
X145967404Y-92487809D02*
X145776928Y-93059238D01*
X146272166Y-93059238D01*
X145294428Y-94189571D02*
X145294428Y-94722904D01*
X145103952Y-93884809D02*
X144913476Y-94456238D01*
X145408714Y-94456238D01*
X145713476Y-94722904D02*
X145713476Y-93922904D01*
X146170619Y-94722904D02*
X145827761Y-94265761D01*
X146170619Y-93922904D02*
X145713476Y-94380047D01*
X146437285Y-93922904D02*
X146970619Y-93922904D01*
X146627761Y-94722904D01*
X142538404Y-90874833D02*
X142157452Y-91141500D01*
X142538404Y-91331976D02*
X141738404Y-91331976D01*
X141738404Y-91027214D01*
X141776500Y-90951023D01*
X141814595Y-90912928D01*
X141890785Y-90874833D01*
X142005071Y-90874833D01*
X142081261Y-90912928D01*
X142119357Y-90951023D01*
X142157452Y-91027214D01*
X142157452Y-91331976D01*
X141738404Y-90151023D02*
X141738404Y-90531976D01*
X142119357Y-90570071D01*
X142081261Y-90531976D01*
X142043166Y-90455785D01*
X142043166Y-90265309D01*
X142081261Y-90189119D01*
X142119357Y-90151023D01*
X142195547Y-90112928D01*
X142386023Y-90112928D01*
X142462214Y-90151023D01*
X142500309Y-90189119D01*
X142538404Y-90265309D01*
X142538404Y-90455785D01*
X142500309Y-90531976D01*
X142462214Y-90570071D01*
X142601904Y-88944333D02*
X142601904Y-88791952D01*
X142563809Y-88715761D01*
X142525714Y-88677666D01*
X142411428Y-88601476D01*
X142259047Y-88563380D01*
X141954285Y-88563380D01*
X141878095Y-88601476D01*
X141840000Y-88639571D01*
X141801904Y-88715761D01*
X141801904Y-88868142D01*
X141840000Y-88944333D01*
X141878095Y-88982428D01*
X141954285Y-89020523D01*
X142144761Y-89020523D01*
X142220952Y-88982428D01*
X142259047Y-88944333D01*
X142297142Y-88868142D01*
X142297142Y-88715761D01*
X142259047Y-88639571D01*
X142220952Y-88601476D01*
X142144761Y-88563380D01*
X142601904Y-88220523D02*
X141801904Y-88220523D01*
X142601904Y-87763380D02*
X142144761Y-88106238D01*
X141801904Y-87763380D02*
X142259047Y-88220523D01*
X142601904Y-87001476D02*
X142601904Y-87458619D01*
X142601904Y-87230047D02*
X141801904Y-87230047D01*
X141916190Y-87306238D01*
X141992380Y-87382428D01*
X142030476Y-87458619D01*
X138169666Y-96310404D02*
X137903000Y-95929452D01*
X137712523Y-96310404D02*
X137712523Y-95510404D01*
X138017285Y-95510404D01*
X138093476Y-95548500D01*
X138131571Y-95586595D01*
X138169666Y-95662785D01*
X138169666Y-95777071D01*
X138131571Y-95853261D01*
X138093476Y-95891357D01*
X138017285Y-95929452D01*
X137712523Y-95929452D01*
X138855380Y-95510404D02*
X138703000Y-95510404D01*
X138626809Y-95548500D01*
X138588714Y-95586595D01*
X138512523Y-95700880D01*
X138474428Y-95853261D01*
X138474428Y-96158023D01*
X138512523Y-96234214D01*
X138550619Y-96272309D01*
X138626809Y-96310404D01*
X138779190Y-96310404D01*
X138855380Y-96272309D01*
X138893476Y-96234214D01*
X138931571Y-96158023D01*
X138931571Y-95967547D01*
X138893476Y-95891357D01*
X138855380Y-95853261D01*
X138779190Y-95815166D01*
X138626809Y-95815166D01*
X138550619Y-95853261D01*
X138512523Y-95891357D01*
X138474428Y-95967547D01*
X137566476Y-97047071D02*
X137566476Y-97580404D01*
X137376000Y-96742309D02*
X137185523Y-97313738D01*
X137680761Y-97313738D01*
X137909333Y-96780404D02*
X138442666Y-96780404D01*
X138099809Y-97580404D01*
X138899809Y-96780404D02*
X138976000Y-96780404D01*
X139052190Y-96818500D01*
X139090285Y-96856595D01*
X139128380Y-96932785D01*
X139166476Y-97085166D01*
X139166476Y-97275642D01*
X139128380Y-97428023D01*
X139090285Y-97504214D01*
X139052190Y-97542309D01*
X138976000Y-97580404D01*
X138899809Y-97580404D01*
X138823619Y-97542309D01*
X138785523Y-97504214D01*
X138747428Y-97428023D01*
X138709333Y-97275642D01*
X138709333Y-97085166D01*
X138747428Y-96932785D01*
X138785523Y-96856595D01*
X138823619Y-96818500D01*
X138899809Y-96780404D01*
X121024609Y-111048666D02*
X121062704Y-110934380D01*
X121062704Y-110743904D01*
X121024609Y-110667714D01*
X120986514Y-110629619D01*
X120910323Y-110591523D01*
X120834133Y-110591523D01*
X120757942Y-110629619D01*
X120719847Y-110667714D01*
X120681752Y-110743904D01*
X120643657Y-110896285D01*
X120605561Y-110972476D01*
X120567466Y-111010571D01*
X120491276Y-111048666D01*
X120415085Y-111048666D01*
X120338895Y-111010571D01*
X120300800Y-110972476D01*
X120262704Y-110896285D01*
X120262704Y-110705809D01*
X120300800Y-110591523D01*
X120262704Y-110324857D02*
X121062704Y-110134380D01*
X120491276Y-109982000D01*
X121062704Y-109829619D01*
X120262704Y-109639142D01*
X121062704Y-108915333D02*
X121062704Y-109372476D01*
X121062704Y-109143904D02*
X120262704Y-109143904D01*
X120376990Y-109220095D01*
X120453180Y-109296285D01*
X120491276Y-109372476D01*
X122396209Y-112528000D02*
X122434304Y-112413714D01*
X122434304Y-112223238D01*
X122396209Y-112147047D01*
X122358114Y-112108952D01*
X122281923Y-112070857D01*
X122205733Y-112070857D01*
X122129542Y-112108952D01*
X122091447Y-112147047D01*
X122053352Y-112223238D01*
X122015257Y-112375619D01*
X121977161Y-112451809D01*
X121939066Y-112489904D01*
X121862876Y-112528000D01*
X121786685Y-112528000D01*
X121710495Y-112489904D01*
X121672400Y-112451809D01*
X121634304Y-112375619D01*
X121634304Y-112185142D01*
X121672400Y-112070857D01*
X121634304Y-111804190D02*
X122434304Y-111613714D01*
X121862876Y-111461333D01*
X122434304Y-111308952D01*
X121634304Y-111118476D01*
X122510495Y-111004190D02*
X122510495Y-110394666D01*
X122434304Y-109747047D02*
X122053352Y-110013714D01*
X122434304Y-110204190D02*
X121634304Y-110204190D01*
X121634304Y-109899428D01*
X121672400Y-109823238D01*
X121710495Y-109785142D01*
X121786685Y-109747047D01*
X121900971Y-109747047D01*
X121977161Y-109785142D01*
X122015257Y-109823238D01*
X122053352Y-109899428D01*
X122053352Y-110204190D01*
X122015257Y-109404190D02*
X122015257Y-109137523D01*
X122434304Y-109023238D02*
X122434304Y-109404190D01*
X121634304Y-109404190D01*
X121634304Y-109023238D01*
X122396209Y-108718476D02*
X122434304Y-108604190D01*
X122434304Y-108413714D01*
X122396209Y-108337523D01*
X122358114Y-108299428D01*
X122281923Y-108261333D01*
X122205733Y-108261333D01*
X122129542Y-108299428D01*
X122091447Y-108337523D01*
X122053352Y-108413714D01*
X122015257Y-108566095D01*
X121977161Y-108642285D01*
X121939066Y-108680380D01*
X121862876Y-108718476D01*
X121786685Y-108718476D01*
X121710495Y-108680380D01*
X121672400Y-108642285D01*
X121634304Y-108566095D01*
X121634304Y-108375619D01*
X121672400Y-108261333D01*
X122015257Y-107918476D02*
X122015257Y-107651809D01*
X122434304Y-107537523D02*
X122434304Y-107918476D01*
X121634304Y-107918476D01*
X121634304Y-107537523D01*
X121634304Y-107308952D02*
X121634304Y-106851809D01*
X122434304Y-107080380D02*
X121634304Y-107080380D01*
X153612904Y-94843523D02*
X154260523Y-94843523D01*
X154336714Y-94805428D01*
X154374809Y-94767333D01*
X154412904Y-94691142D01*
X154412904Y-94538761D01*
X154374809Y-94462571D01*
X154336714Y-94424476D01*
X154260523Y-94386380D01*
X153612904Y-94386380D01*
X154412904Y-93586380D02*
X154412904Y-94043523D01*
X154412904Y-93814952D02*
X153612904Y-93814952D01*
X153727190Y-93891142D01*
X153803380Y-93967333D01*
X153841476Y-94043523D01*
X156794904Y-96424476D02*
X156413952Y-96691142D01*
X156794904Y-96881619D02*
X155994904Y-96881619D01*
X155994904Y-96576857D01*
X156033000Y-96500666D01*
X156071095Y-96462571D01*
X156147285Y-96424476D01*
X156261571Y-96424476D01*
X156337761Y-96462571D01*
X156375857Y-96500666D01*
X156413952Y-96576857D01*
X156413952Y-96881619D01*
X156375857Y-95814952D02*
X156375857Y-96081619D01*
X156794904Y-96081619D02*
X155994904Y-96081619D01*
X155994904Y-95700666D01*
X156794904Y-95395904D02*
X155994904Y-95395904D01*
X156566333Y-95129238D01*
X155994904Y-94862571D01*
X156794904Y-94862571D01*
X155994904Y-94138761D02*
X155994904Y-94291142D01*
X156033000Y-94367333D01*
X156071095Y-94405428D01*
X156185380Y-94481619D01*
X156337761Y-94519714D01*
X156642523Y-94519714D01*
X156718714Y-94481619D01*
X156756809Y-94443523D01*
X156794904Y-94367333D01*
X156794904Y-94214952D01*
X156756809Y-94138761D01*
X156718714Y-94100666D01*
X156642523Y-94062571D01*
X156452047Y-94062571D01*
X156375857Y-94100666D01*
X156337761Y-94138761D01*
X156299666Y-94214952D01*
X156299666Y-94367333D01*
X156337761Y-94443523D01*
X156375857Y-94481619D01*
X156452047Y-94519714D01*
X156794904Y-93681619D02*
X156794904Y-93529238D01*
X156756809Y-93453047D01*
X156718714Y-93414952D01*
X156604428Y-93338761D01*
X156452047Y-93300666D01*
X156147285Y-93300666D01*
X156071095Y-93338761D01*
X156033000Y-93376857D01*
X155994904Y-93453047D01*
X155994904Y-93605428D01*
X156033000Y-93681619D01*
X156071095Y-93719714D01*
X156147285Y-93757809D01*
X156337761Y-93757809D01*
X156413952Y-93719714D01*
X156452047Y-93681619D01*
X156490142Y-93605428D01*
X156490142Y-93453047D01*
X156452047Y-93376857D01*
X156413952Y-93338761D01*
X156337761Y-93300666D01*
X156794904Y-92957809D02*
X155994904Y-92957809D01*
X156375857Y-92957809D02*
X156375857Y-92500666D01*
X156794904Y-92500666D02*
X155994904Y-92500666D01*
X155994904Y-92195904D02*
X156794904Y-92005428D01*
X156223476Y-91853047D01*
X156794904Y-91700666D01*
X155994904Y-91510190D01*
X131343476Y-72205904D02*
X131343476Y-72853523D01*
X131381571Y-72929714D01*
X131419666Y-72967809D01*
X131495857Y-73005904D01*
X131648238Y-73005904D01*
X131724428Y-72967809D01*
X131762523Y-72929714D01*
X131800619Y-72853523D01*
X131800619Y-72205904D01*
X132143476Y-72282095D02*
X132181571Y-72244000D01*
X132257761Y-72205904D01*
X132448238Y-72205904D01*
X132524428Y-72244000D01*
X132562523Y-72282095D01*
X132600619Y-72358285D01*
X132600619Y-72434476D01*
X132562523Y-72548761D01*
X132105380Y-73005904D01*
X132600619Y-73005904D01*
X130238714Y-74199714D02*
X130200619Y-74237809D01*
X130086333Y-74275904D01*
X130010142Y-74275904D01*
X129895857Y-74237809D01*
X129819666Y-74161619D01*
X129781571Y-74085428D01*
X129743476Y-73933047D01*
X129743476Y-73818761D01*
X129781571Y-73666380D01*
X129819666Y-73590190D01*
X129895857Y-73514000D01*
X130010142Y-73475904D01*
X130086333Y-73475904D01*
X130200619Y-73514000D01*
X130238714Y-73552095D01*
X130581571Y-74275904D02*
X130581571Y-73475904D01*
X130581571Y-73856857D02*
X131038714Y-73856857D01*
X131038714Y-74275904D02*
X131038714Y-73475904D01*
X131343476Y-73475904D02*
X131838714Y-73475904D01*
X131572047Y-73780666D01*
X131686333Y-73780666D01*
X131762523Y-73818761D01*
X131800619Y-73856857D01*
X131838714Y-73933047D01*
X131838714Y-74123523D01*
X131800619Y-74199714D01*
X131762523Y-74237809D01*
X131686333Y-74275904D01*
X131457761Y-74275904D01*
X131381571Y-74237809D01*
X131343476Y-74199714D01*
X132524428Y-73742571D02*
X132524428Y-74275904D01*
X132333952Y-73437809D02*
X132143476Y-74009238D01*
X132638714Y-74009238D01*
X133095857Y-73475904D02*
X133172047Y-73475904D01*
X133248238Y-73514000D01*
X133286333Y-73552095D01*
X133324428Y-73628285D01*
X133362523Y-73780666D01*
X133362523Y-73971142D01*
X133324428Y-74123523D01*
X133286333Y-74199714D01*
X133248238Y-74237809D01*
X133172047Y-74275904D01*
X133095857Y-74275904D01*
X133019666Y-74237809D01*
X132981571Y-74199714D01*
X132943476Y-74123523D01*
X132905380Y-73971142D01*
X132905380Y-73780666D01*
X132943476Y-73628285D01*
X132981571Y-73552095D01*
X133019666Y-73514000D01*
X133095857Y-73475904D01*
X134124428Y-73514000D02*
X134048238Y-73475904D01*
X133933952Y-73475904D01*
X133819666Y-73514000D01*
X133743476Y-73590190D01*
X133705380Y-73666380D01*
X133667285Y-73818761D01*
X133667285Y-73933047D01*
X133705380Y-74085428D01*
X133743476Y-74161619D01*
X133819666Y-74237809D01*
X133933952Y-74275904D01*
X134010142Y-74275904D01*
X134124428Y-74237809D01*
X134162523Y-74199714D01*
X134162523Y-73933047D01*
X134010142Y-73933047D01*
X155981476Y-62299904D02*
X155981476Y-62947523D01*
X156019571Y-63023714D01*
X156057666Y-63061809D01*
X156133857Y-63099904D01*
X156286238Y-63099904D01*
X156362428Y-63061809D01*
X156400523Y-63023714D01*
X156438619Y-62947523D01*
X156438619Y-62299904D01*
X156743380Y-62299904D02*
X157238619Y-62299904D01*
X156971952Y-62604666D01*
X157086238Y-62604666D01*
X157162428Y-62642761D01*
X157200523Y-62680857D01*
X157238619Y-62757047D01*
X157238619Y-62947523D01*
X157200523Y-63023714D01*
X157162428Y-63061809D01*
X157086238Y-63099904D01*
X156857666Y-63099904D01*
X156781476Y-63061809D01*
X156743380Y-63023714D01*
X152718000Y-64395333D02*
X153098952Y-64395333D01*
X152641809Y-64623904D02*
X152908476Y-63823904D01*
X153175142Y-64623904D01*
X153441809Y-64623904D02*
X153441809Y-63823904D01*
X153708476Y-64395333D01*
X153975142Y-63823904D01*
X153975142Y-64623904D01*
X154318000Y-64585809D02*
X154432285Y-64623904D01*
X154622761Y-64623904D01*
X154698952Y-64585809D01*
X154737047Y-64547714D01*
X154775142Y-64471523D01*
X154775142Y-64395333D01*
X154737047Y-64319142D01*
X154698952Y-64281047D01*
X154622761Y-64242952D01*
X154470380Y-64204857D01*
X154394190Y-64166761D01*
X154356095Y-64128666D01*
X154318000Y-64052476D01*
X154318000Y-63976285D01*
X154356095Y-63900095D01*
X154394190Y-63862000D01*
X154470380Y-63823904D01*
X154660857Y-63823904D01*
X154775142Y-63862000D01*
X155537047Y-64623904D02*
X155079904Y-64623904D01*
X155308476Y-64623904D02*
X155308476Y-63823904D01*
X155232285Y-63938190D01*
X155156095Y-64014380D01*
X155079904Y-64052476D01*
X156298952Y-64623904D02*
X155841809Y-64623904D01*
X156070380Y-64623904D02*
X156070380Y-63823904D01*
X155994190Y-63938190D01*
X155918000Y-64014380D01*
X155841809Y-64052476D01*
X157060857Y-64623904D02*
X156603714Y-64623904D01*
X156832285Y-64623904D02*
X156832285Y-63823904D01*
X156756095Y-63938190D01*
X156679904Y-64014380D01*
X156603714Y-64052476D01*
X157327523Y-63823904D02*
X157860857Y-63823904D01*
X157518000Y-64623904D01*
X158165619Y-64319142D02*
X158775142Y-64319142D01*
X159079904Y-63823904D02*
X159575142Y-63823904D01*
X159308476Y-64128666D01*
X159422761Y-64128666D01*
X159498952Y-64166761D01*
X159537047Y-64204857D01*
X159575142Y-64281047D01*
X159575142Y-64471523D01*
X159537047Y-64547714D01*
X159498952Y-64585809D01*
X159422761Y-64623904D01*
X159194190Y-64623904D01*
X159118000Y-64585809D01*
X159079904Y-64547714D01*
X159918000Y-64547714D02*
X159956095Y-64585809D01*
X159918000Y-64623904D01*
X159879904Y-64585809D01*
X159918000Y-64547714D01*
X159918000Y-64623904D01*
X160222761Y-63823904D02*
X160718000Y-63823904D01*
X160451333Y-64128666D01*
X160565619Y-64128666D01*
X160641809Y-64166761D01*
X160679904Y-64204857D01*
X160718000Y-64281047D01*
X160718000Y-64471523D01*
X160679904Y-64547714D01*
X160641809Y-64585809D01*
X160565619Y-64623904D01*
X160337047Y-64623904D01*
X160260857Y-64585809D01*
X160222761Y-64547714D01*
X115906504Y-78238276D02*
X115106504Y-78238276D01*
X115106504Y-78047800D01*
X115144600Y-77933514D01*
X115220790Y-77857323D01*
X115296980Y-77819228D01*
X115449361Y-77781133D01*
X115563647Y-77781133D01*
X115716028Y-77819228D01*
X115792219Y-77857323D01*
X115868409Y-77933514D01*
X115906504Y-78047800D01*
X115906504Y-78238276D01*
X115906504Y-77019228D02*
X115906504Y-77476371D01*
X115906504Y-77247800D02*
X115106504Y-77247800D01*
X115220790Y-77323990D01*
X115296980Y-77400180D01*
X115335076Y-77476371D01*
X122510600Y-79870133D02*
X122472504Y-79946323D01*
X122472504Y-80060609D01*
X122510600Y-80174895D01*
X122586790Y-80251085D01*
X122662980Y-80289180D01*
X122815361Y-80327276D01*
X122929647Y-80327276D01*
X123082028Y-80289180D01*
X123158219Y-80251085D01*
X123234409Y-80174895D01*
X123272504Y-80060609D01*
X123272504Y-79984419D01*
X123234409Y-79870133D01*
X123196314Y-79832038D01*
X122929647Y-79832038D01*
X122929647Y-79984419D01*
X122472504Y-79565371D02*
X123272504Y-79374895D01*
X122701076Y-79222514D01*
X123272504Y-79070133D01*
X122472504Y-78879657D01*
X123348695Y-78765371D02*
X123348695Y-78155847D01*
X123272504Y-77508228D02*
X122891552Y-77774895D01*
X123272504Y-77965371D02*
X122472504Y-77965371D01*
X122472504Y-77660609D01*
X122510600Y-77584419D01*
X122548695Y-77546323D01*
X122624885Y-77508228D01*
X122739171Y-77508228D01*
X122815361Y-77546323D01*
X122853457Y-77584419D01*
X122891552Y-77660609D01*
X122891552Y-77965371D01*
X122472504Y-77241561D02*
X123272504Y-76708228D01*
X122472504Y-76708228D02*
X123272504Y-77241561D01*
X115878695Y-80983180D02*
X115878695Y-79983180D01*
X116450123Y-80983180D02*
X116021552Y-80411752D01*
X116450123Y-79983180D02*
X115878695Y-80554609D01*
X116008104Y-83623076D02*
X115208104Y-83623076D01*
X115208104Y-83432600D01*
X115246200Y-83318314D01*
X115322390Y-83242123D01*
X115398580Y-83204028D01*
X115550961Y-83165933D01*
X115665247Y-83165933D01*
X115817628Y-83204028D01*
X115893819Y-83242123D01*
X115970009Y-83318314D01*
X116008104Y-83432600D01*
X116008104Y-83623076D01*
X115284295Y-82861171D02*
X115246200Y-82823076D01*
X115208104Y-82746885D01*
X115208104Y-82556409D01*
X115246200Y-82480219D01*
X115284295Y-82442123D01*
X115360485Y-82404028D01*
X115436676Y-82404028D01*
X115550961Y-82442123D01*
X116008104Y-82899266D01*
X116008104Y-82404028D01*
X122485200Y-85667695D02*
X122447104Y-85743885D01*
X122447104Y-85858171D01*
X122485200Y-85972457D01*
X122561390Y-86048647D01*
X122637580Y-86086742D01*
X122789961Y-86124838D01*
X122904247Y-86124838D01*
X123056628Y-86086742D01*
X123132819Y-86048647D01*
X123209009Y-85972457D01*
X123247104Y-85858171D01*
X123247104Y-85781980D01*
X123209009Y-85667695D01*
X123170914Y-85629600D01*
X122904247Y-85629600D01*
X122904247Y-85781980D01*
X122447104Y-85362933D02*
X123247104Y-85172457D01*
X122675676Y-85020076D01*
X123247104Y-84867695D01*
X122447104Y-84677219D01*
X123323295Y-84562933D02*
X123323295Y-83953409D01*
X122447104Y-83877219D02*
X122447104Y-83420076D01*
X123247104Y-83648647D02*
X122447104Y-83648647D01*
X122447104Y-83229600D02*
X123247104Y-82696266D01*
X122447104Y-82696266D02*
X123247104Y-83229600D01*
X115853295Y-86367980D02*
X115853295Y-85367980D01*
X116424723Y-86367980D02*
X115996152Y-85796552D01*
X116424723Y-85367980D02*
X115853295Y-85939409D01*
X116033504Y-88957076D02*
X115233504Y-88957076D01*
X115233504Y-88766600D01*
X115271600Y-88652314D01*
X115347790Y-88576123D01*
X115423980Y-88538028D01*
X115576361Y-88499933D01*
X115690647Y-88499933D01*
X115843028Y-88538028D01*
X115919219Y-88576123D01*
X115995409Y-88652314D01*
X116033504Y-88766600D01*
X116033504Y-88957076D01*
X115233504Y-88233266D02*
X115233504Y-87738028D01*
X115538266Y-88004695D01*
X115538266Y-87890409D01*
X115576361Y-87814219D01*
X115614457Y-87776123D01*
X115690647Y-87738028D01*
X115881123Y-87738028D01*
X115957314Y-87776123D01*
X115995409Y-87814219D01*
X116033504Y-87890409D01*
X116033504Y-88118980D01*
X115995409Y-88195171D01*
X115957314Y-88233266D01*
X122510600Y-91350885D02*
X122472504Y-91427076D01*
X122472504Y-91541361D01*
X122510600Y-91655647D01*
X122586790Y-91731838D01*
X122662980Y-91769933D01*
X122815361Y-91808028D01*
X122929647Y-91808028D01*
X123082028Y-91769933D01*
X123158219Y-91731838D01*
X123234409Y-91655647D01*
X123272504Y-91541361D01*
X123272504Y-91465171D01*
X123234409Y-91350885D01*
X123196314Y-91312790D01*
X122929647Y-91312790D01*
X122929647Y-91465171D01*
X122472504Y-91046123D02*
X123272504Y-90855647D01*
X122701076Y-90703266D01*
X123272504Y-90550885D01*
X122472504Y-90360409D01*
X123348695Y-90246123D02*
X123348695Y-89636600D01*
X122853457Y-89446123D02*
X122853457Y-89179457D01*
X123272504Y-89065171D02*
X123272504Y-89446123D01*
X122472504Y-89446123D01*
X122472504Y-89065171D01*
X123272504Y-88265171D02*
X122891552Y-88531838D01*
X123272504Y-88722314D02*
X122472504Y-88722314D01*
X122472504Y-88417552D01*
X122510600Y-88341361D01*
X122548695Y-88303266D01*
X122624885Y-88265171D01*
X122739171Y-88265171D01*
X122815361Y-88303266D01*
X122853457Y-88341361D01*
X122891552Y-88417552D01*
X122891552Y-88722314D01*
X123272504Y-87465171D02*
X122891552Y-87731838D01*
X123272504Y-87922314D02*
X122472504Y-87922314D01*
X122472504Y-87617552D01*
X122510600Y-87541361D01*
X122548695Y-87503266D01*
X122624885Y-87465171D01*
X122739171Y-87465171D01*
X122815361Y-87503266D01*
X122853457Y-87541361D01*
X122891552Y-87617552D01*
X122891552Y-87922314D01*
X115878695Y-91828980D02*
X115878695Y-90828980D01*
X116450123Y-91828980D02*
X116021552Y-91257552D01*
X116450123Y-90828980D02*
X115878695Y-91400409D01*
X126358666Y-76942904D02*
X126092000Y-76561952D01*
X125901523Y-76942904D02*
X125901523Y-76142904D01*
X126206285Y-76142904D01*
X126282476Y-76181000D01*
X126320571Y-76219095D01*
X126358666Y-76295285D01*
X126358666Y-76409571D01*
X126320571Y-76485761D01*
X126282476Y-76523857D01*
X126206285Y-76561952D01*
X125901523Y-76561952D01*
X126625333Y-76142904D02*
X127158666Y-76142904D01*
X126815809Y-76942904D01*
X128257428Y-76142904D02*
X128752666Y-76142904D01*
X128486000Y-76447666D01*
X128600285Y-76447666D01*
X128676476Y-76485761D01*
X128714571Y-76523857D01*
X128752666Y-76600047D01*
X128752666Y-76790523D01*
X128714571Y-76866714D01*
X128676476Y-76904809D01*
X128600285Y-76942904D01*
X128371714Y-76942904D01*
X128295523Y-76904809D01*
X128257428Y-76866714D01*
X129019333Y-76142904D02*
X129514571Y-76142904D01*
X129247904Y-76447666D01*
X129362190Y-76447666D01*
X129438380Y-76485761D01*
X129476476Y-76523857D01*
X129514571Y-76600047D01*
X129514571Y-76790523D01*
X129476476Y-76866714D01*
X129438380Y-76904809D01*
X129362190Y-76942904D01*
X129133619Y-76942904D01*
X129057428Y-76904809D01*
X129019333Y-76866714D01*
X130009809Y-76142904D02*
X130086000Y-76142904D01*
X130162190Y-76181000D01*
X130200285Y-76219095D01*
X130238380Y-76295285D01*
X130276476Y-76447666D01*
X130276476Y-76638142D01*
X130238380Y-76790523D01*
X130200285Y-76866714D01*
X130162190Y-76904809D01*
X130086000Y-76942904D01*
X130009809Y-76942904D01*
X129933619Y-76904809D01*
X129895523Y-76866714D01*
X129857428Y-76790523D01*
X129819333Y-76638142D01*
X129819333Y-76447666D01*
X129857428Y-76295285D01*
X129895523Y-76219095D01*
X129933619Y-76181000D01*
X130009809Y-76142904D01*
X125596666Y-81260904D02*
X125330000Y-80879952D01*
X125139523Y-81260904D02*
X125139523Y-80460904D01*
X125444285Y-80460904D01*
X125520476Y-80499000D01*
X125558571Y-80537095D01*
X125596666Y-80613285D01*
X125596666Y-80727571D01*
X125558571Y-80803761D01*
X125520476Y-80841857D01*
X125444285Y-80879952D01*
X125139523Y-80879952D01*
X126053809Y-80803761D02*
X125977619Y-80765666D01*
X125939523Y-80727571D01*
X125901428Y-80651380D01*
X125901428Y-80613285D01*
X125939523Y-80537095D01*
X125977619Y-80499000D01*
X126053809Y-80460904D01*
X126206190Y-80460904D01*
X126282380Y-80499000D01*
X126320476Y-80537095D01*
X126358571Y-80613285D01*
X126358571Y-80651380D01*
X126320476Y-80727571D01*
X126282380Y-80765666D01*
X126206190Y-80803761D01*
X126053809Y-80803761D01*
X125977619Y-80841857D01*
X125939523Y-80879952D01*
X125901428Y-80956142D01*
X125901428Y-81108523D01*
X125939523Y-81184714D01*
X125977619Y-81222809D01*
X126053809Y-81260904D01*
X126206190Y-81260904D01*
X126282380Y-81222809D01*
X126320476Y-81184714D01*
X126358571Y-81108523D01*
X126358571Y-80956142D01*
X126320476Y-80879952D01*
X126282380Y-80841857D01*
X126206190Y-80803761D01*
X127368428Y-80460904D02*
X127863666Y-80460904D01*
X127597000Y-80765666D01*
X127711285Y-80765666D01*
X127787476Y-80803761D01*
X127825571Y-80841857D01*
X127863666Y-80918047D01*
X127863666Y-81108523D01*
X127825571Y-81184714D01*
X127787476Y-81222809D01*
X127711285Y-81260904D01*
X127482714Y-81260904D01*
X127406523Y-81222809D01*
X127368428Y-81184714D01*
X128130333Y-80460904D02*
X128625571Y-80460904D01*
X128358904Y-80765666D01*
X128473190Y-80765666D01*
X128549380Y-80803761D01*
X128587476Y-80841857D01*
X128625571Y-80918047D01*
X128625571Y-81108523D01*
X128587476Y-81184714D01*
X128549380Y-81222809D01*
X128473190Y-81260904D01*
X128244619Y-81260904D01*
X128168428Y-81222809D01*
X128130333Y-81184714D01*
X129120809Y-80460904D02*
X129197000Y-80460904D01*
X129273190Y-80499000D01*
X129311285Y-80537095D01*
X129349380Y-80613285D01*
X129387476Y-80765666D01*
X129387476Y-80956142D01*
X129349380Y-81108523D01*
X129311285Y-81184714D01*
X129273190Y-81222809D01*
X129197000Y-81260904D01*
X129120809Y-81260904D01*
X129044619Y-81222809D01*
X129006523Y-81184714D01*
X128968428Y-81108523D01*
X128930333Y-80956142D01*
X128930333Y-80765666D01*
X128968428Y-80613285D01*
X129006523Y-80537095D01*
X129044619Y-80499000D01*
X129120809Y-80460904D01*
X124707666Y-85197904D02*
X124441000Y-84816952D01*
X124250523Y-85197904D02*
X124250523Y-84397904D01*
X124555285Y-84397904D01*
X124631476Y-84436000D01*
X124669571Y-84474095D01*
X124707666Y-84550285D01*
X124707666Y-84664571D01*
X124669571Y-84740761D01*
X124631476Y-84778857D01*
X124555285Y-84816952D01*
X124250523Y-84816952D01*
X125088619Y-85197904D02*
X125241000Y-85197904D01*
X125317190Y-85159809D01*
X125355285Y-85121714D01*
X125431476Y-85007428D01*
X125469571Y-84855047D01*
X125469571Y-84550285D01*
X125431476Y-84474095D01*
X125393380Y-84436000D01*
X125317190Y-84397904D01*
X125164809Y-84397904D01*
X125088619Y-84436000D01*
X125050523Y-84474095D01*
X125012428Y-84550285D01*
X125012428Y-84740761D01*
X125050523Y-84816952D01*
X125088619Y-84855047D01*
X125164809Y-84893142D01*
X125317190Y-84893142D01*
X125393380Y-84855047D01*
X125431476Y-84816952D01*
X125469571Y-84740761D01*
X126606428Y-84524904D02*
X127101666Y-84524904D01*
X126835000Y-84829666D01*
X126949285Y-84829666D01*
X127025476Y-84867761D01*
X127063571Y-84905857D01*
X127101666Y-84982047D01*
X127101666Y-85172523D01*
X127063571Y-85248714D01*
X127025476Y-85286809D01*
X126949285Y-85324904D01*
X126720714Y-85324904D01*
X126644523Y-85286809D01*
X126606428Y-85248714D01*
X127368333Y-84524904D02*
X127863571Y-84524904D01*
X127596904Y-84829666D01*
X127711190Y-84829666D01*
X127787380Y-84867761D01*
X127825476Y-84905857D01*
X127863571Y-84982047D01*
X127863571Y-85172523D01*
X127825476Y-85248714D01*
X127787380Y-85286809D01*
X127711190Y-85324904D01*
X127482619Y-85324904D01*
X127406428Y-85286809D01*
X127368333Y-85248714D01*
X128358809Y-84524904D02*
X128435000Y-84524904D01*
X128511190Y-84563000D01*
X128549285Y-84601095D01*
X128587380Y-84677285D01*
X128625476Y-84829666D01*
X128625476Y-85020142D01*
X128587380Y-85172523D01*
X128549285Y-85248714D01*
X128511190Y-85286809D01*
X128435000Y-85324904D01*
X128358809Y-85324904D01*
X128282619Y-85286809D01*
X128244523Y-85248714D01*
X128206428Y-85172523D01*
X128168333Y-85020142D01*
X128168333Y-84829666D01*
X128206428Y-84677285D01*
X128244523Y-84601095D01*
X128282619Y-84563000D01*
X128358809Y-84524904D01*
X127495333Y-60839357D02*
X127228666Y-60839357D01*
X127228666Y-61258404D02*
X127228666Y-60458404D01*
X127609619Y-60458404D01*
X128333428Y-61258404D02*
X127876285Y-61258404D01*
X128104857Y-61258404D02*
X128104857Y-60458404D01*
X128028666Y-60572690D01*
X127952476Y-60648880D01*
X127876285Y-60686976D01*
X123577828Y-62693504D02*
X123577828Y-61893504D01*
X123844495Y-62464933D01*
X124111161Y-61893504D01*
X124111161Y-62693504D01*
X124758780Y-62274457D02*
X124492114Y-62274457D01*
X124492114Y-62693504D02*
X124492114Y-61893504D01*
X124873066Y-61893504D01*
X125177828Y-62388742D02*
X125787352Y-62388742D01*
X126130209Y-62655409D02*
X126244495Y-62693504D01*
X126434971Y-62693504D01*
X126511161Y-62655409D01*
X126549257Y-62617314D01*
X126587352Y-62541123D01*
X126587352Y-62464933D01*
X126549257Y-62388742D01*
X126511161Y-62350647D01*
X126434971Y-62312552D01*
X126282590Y-62274457D01*
X126206400Y-62236361D01*
X126168304Y-62198266D01*
X126130209Y-62122076D01*
X126130209Y-62045885D01*
X126168304Y-61969695D01*
X126206400Y-61931600D01*
X126282590Y-61893504D01*
X126473066Y-61893504D01*
X126587352Y-61931600D01*
X126930209Y-62693504D02*
X126930209Y-61893504D01*
X127196876Y-62464933D01*
X127463542Y-61893504D01*
X127463542Y-62693504D01*
X127844495Y-62693504D02*
X127844495Y-61893504D01*
X128034971Y-61893504D01*
X128149257Y-61931600D01*
X128225447Y-62007790D01*
X128263542Y-62083980D01*
X128301638Y-62236361D01*
X128301638Y-62350647D01*
X128263542Y-62503028D01*
X128225447Y-62579219D01*
X128149257Y-62655409D01*
X128034971Y-62693504D01*
X127844495Y-62693504D01*
X128911161Y-62274457D02*
X128644495Y-62274457D01*
X128644495Y-62693504D02*
X128644495Y-61893504D01*
X129025447Y-61893504D01*
X129482590Y-61893504D02*
X129558780Y-61893504D01*
X129634971Y-61931600D01*
X129673066Y-61969695D01*
X129711161Y-62045885D01*
X129749257Y-62198266D01*
X129749257Y-62388742D01*
X129711161Y-62541123D01*
X129673066Y-62617314D01*
X129634971Y-62655409D01*
X129558780Y-62693504D01*
X129482590Y-62693504D01*
X129406400Y-62655409D01*
X129368304Y-62617314D01*
X129330209Y-62541123D01*
X129292114Y-62388742D01*
X129292114Y-62198266D01*
X129330209Y-62045885D01*
X129368304Y-61969695D01*
X129406400Y-61931600D01*
X129482590Y-61893504D01*
X130473066Y-61893504D02*
X130092114Y-61893504D01*
X130054019Y-62274457D01*
X130092114Y-62236361D01*
X130168304Y-62198266D01*
X130358780Y-62198266D01*
X130434971Y-62236361D01*
X130473066Y-62274457D01*
X130511161Y-62350647D01*
X130511161Y-62541123D01*
X130473066Y-62617314D01*
X130434971Y-62655409D01*
X130358780Y-62693504D01*
X130168304Y-62693504D01*
X130092114Y-62655409D01*
X130054019Y-62617314D01*
X131006400Y-61893504D02*
X131082590Y-61893504D01*
X131158780Y-61931600D01*
X131196876Y-61969695D01*
X131234971Y-62045885D01*
X131273066Y-62198266D01*
X131273066Y-62388742D01*
X131234971Y-62541123D01*
X131196876Y-62617314D01*
X131158780Y-62655409D01*
X131082590Y-62693504D01*
X131006400Y-62693504D01*
X130930209Y-62655409D01*
X130892114Y-62617314D01*
X130854019Y-62541123D01*
X130815923Y-62388742D01*
X130815923Y-62198266D01*
X130854019Y-62045885D01*
X130892114Y-61969695D01*
X130930209Y-61931600D01*
X131006400Y-61893504D01*
X142551114Y-65614485D02*
X142589209Y-65652580D01*
X142627304Y-65766866D01*
X142627304Y-65843057D01*
X142589209Y-65957342D01*
X142513019Y-66033533D01*
X142436828Y-66071628D01*
X142284447Y-66109723D01*
X142170161Y-66109723D01*
X142017780Y-66071628D01*
X141941590Y-66033533D01*
X141865400Y-65957342D01*
X141827304Y-65843057D01*
X141827304Y-65766866D01*
X141865400Y-65652580D01*
X141903495Y-65614485D01*
X142627304Y-64852580D02*
X142627304Y-65309723D01*
X142627304Y-65081152D02*
X141827304Y-65081152D01*
X141941590Y-65157342D01*
X142017780Y-65233533D01*
X142055876Y-65309723D01*
X141827304Y-64357342D02*
X141827304Y-64281152D01*
X141865400Y-64204961D01*
X141903495Y-64166866D01*
X141979685Y-64128771D01*
X142132066Y-64090676D01*
X142322542Y-64090676D01*
X142474923Y-64128771D01*
X142551114Y-64166866D01*
X142589209Y-64204961D01*
X142627304Y-64281152D01*
X142627304Y-64357342D01*
X142589209Y-64433533D01*
X142551114Y-64471628D01*
X142474923Y-64509723D01*
X142322542Y-64547819D01*
X142132066Y-64547819D01*
X141979685Y-64509723D01*
X141903495Y-64471628D01*
X141865400Y-64433533D01*
X141827304Y-64357342D01*
X142678104Y-62972838D02*
X142678104Y-63429980D01*
X142678104Y-63201409D02*
X141878104Y-63201409D01*
X141992390Y-63277600D01*
X142068580Y-63353790D01*
X142106676Y-63429980D01*
X141878104Y-62477600D02*
X141878104Y-62401409D01*
X141916200Y-62325219D01*
X141954295Y-62287123D01*
X142030485Y-62249028D01*
X142182866Y-62210933D01*
X142373342Y-62210933D01*
X142525723Y-62249028D01*
X142601914Y-62287123D01*
X142640009Y-62325219D01*
X142678104Y-62401409D01*
X142678104Y-62477600D01*
X142640009Y-62553790D01*
X142601914Y-62591885D01*
X142525723Y-62629980D01*
X142373342Y-62668076D01*
X142182866Y-62668076D01*
X142030485Y-62629980D01*
X141954295Y-62591885D01*
X141916200Y-62553790D01*
X141878104Y-62477600D01*
X141878104Y-61715695D02*
X141878104Y-61639504D01*
X141916200Y-61563314D01*
X141954295Y-61525219D01*
X142030485Y-61487123D01*
X142182866Y-61449028D01*
X142373342Y-61449028D01*
X142525723Y-61487123D01*
X142601914Y-61525219D01*
X142640009Y-61563314D01*
X142678104Y-61639504D01*
X142678104Y-61715695D01*
X142640009Y-61791885D01*
X142601914Y-61829980D01*
X142525723Y-61868076D01*
X142373342Y-61906171D01*
X142182866Y-61906171D01*
X142030485Y-61868076D01*
X141954295Y-61829980D01*
X141916200Y-61791885D01*
X141878104Y-61715695D01*
X142144771Y-61106171D02*
X142678104Y-61106171D01*
X142220961Y-61106171D02*
X142182866Y-61068076D01*
X142144771Y-60991885D01*
X142144771Y-60877600D01*
X142182866Y-60801409D01*
X142259057Y-60763314D01*
X142678104Y-60763314D01*
X145764304Y-64268266D02*
X146335733Y-64268266D01*
X146450019Y-64306361D01*
X146526209Y-64382552D01*
X146564304Y-64496838D01*
X146564304Y-64573028D01*
X146564304Y-63887314D02*
X145764304Y-63887314D01*
X145764304Y-63582552D01*
X145802400Y-63506361D01*
X145840495Y-63468266D01*
X145916685Y-63430171D01*
X146030971Y-63430171D01*
X146107161Y-63468266D01*
X146145257Y-63506361D01*
X146183352Y-63582552D01*
X146183352Y-63887314D01*
X146564304Y-62668266D02*
X146564304Y-63125409D01*
X146564304Y-62896838D02*
X145764304Y-62896838D01*
X145878590Y-62973028D01*
X145954780Y-63049219D01*
X145992876Y-63125409D01*
X146488114Y-61194895D02*
X146526209Y-61232990D01*
X146564304Y-61347276D01*
X146564304Y-61423466D01*
X146526209Y-61537752D01*
X146450019Y-61613942D01*
X146373828Y-61652038D01*
X146221447Y-61690133D01*
X146107161Y-61690133D01*
X145954780Y-61652038D01*
X145878590Y-61613942D01*
X145802400Y-61537752D01*
X145764304Y-61423466D01*
X145764304Y-61347276D01*
X145802400Y-61232990D01*
X145840495Y-61194895D01*
X145764304Y-60966323D02*
X145764304Y-60509180D01*
X146564304Y-60737752D02*
X145764304Y-60737752D01*
X146526209Y-60280609D02*
X146564304Y-60166323D01*
X146564304Y-59975847D01*
X146526209Y-59899657D01*
X146488114Y-59861561D01*
X146411923Y-59823466D01*
X146335733Y-59823466D01*
X146259542Y-59861561D01*
X146221447Y-59899657D01*
X146183352Y-59975847D01*
X146145257Y-60128228D01*
X146107161Y-60204419D01*
X146069066Y-60242514D01*
X145992876Y-60280609D01*
X145916685Y-60280609D01*
X145840495Y-60242514D01*
X145802400Y-60204419D01*
X145764304Y-60128228D01*
X145764304Y-59937752D01*
X145802400Y-59823466D01*
X145789714Y-78974904D02*
X145523047Y-78593952D01*
X145332571Y-78974904D02*
X145332571Y-78174904D01*
X145637333Y-78174904D01*
X145713523Y-78213000D01*
X145751619Y-78251095D01*
X145789714Y-78327285D01*
X145789714Y-78441571D01*
X145751619Y-78517761D01*
X145713523Y-78555857D01*
X145637333Y-78593952D01*
X145332571Y-78593952D01*
X146551619Y-78974904D02*
X146094476Y-78974904D01*
X146323047Y-78974904D02*
X146323047Y-78174904D01*
X146246857Y-78289190D01*
X146170666Y-78365380D01*
X146094476Y-78403476D01*
X147046857Y-78174904D02*
X147123047Y-78174904D01*
X147199238Y-78213000D01*
X147237333Y-78251095D01*
X147275428Y-78327285D01*
X147313523Y-78479666D01*
X147313523Y-78670142D01*
X147275428Y-78822523D01*
X147237333Y-78898714D01*
X147199238Y-78936809D01*
X147123047Y-78974904D01*
X147046857Y-78974904D01*
X146970666Y-78936809D01*
X146932571Y-78898714D01*
X146894476Y-78822523D01*
X146856380Y-78670142D01*
X146856380Y-78479666D01*
X146894476Y-78327285D01*
X146932571Y-78251095D01*
X146970666Y-78213000D01*
X147046857Y-78174904D01*
X145675428Y-79965571D02*
X145675428Y-80498904D01*
X145484952Y-79660809D02*
X145294476Y-80232238D01*
X145789714Y-80232238D01*
X146094476Y-80498904D02*
X146094476Y-79698904D01*
X146551619Y-80498904D02*
X146208761Y-80041761D01*
X146551619Y-79698904D02*
X146094476Y-80156047D01*
X146818285Y-79698904D02*
X147351619Y-79698904D01*
X147008761Y-80498904D01*
X146043714Y-75926904D02*
X145777047Y-75545952D01*
X145586571Y-75926904D02*
X145586571Y-75126904D01*
X145891333Y-75126904D01*
X145967523Y-75165000D01*
X146005619Y-75203095D01*
X146043714Y-75279285D01*
X146043714Y-75393571D01*
X146005619Y-75469761D01*
X145967523Y-75507857D01*
X145891333Y-75545952D01*
X145586571Y-75545952D01*
X146805619Y-75926904D02*
X146348476Y-75926904D01*
X146577047Y-75926904D02*
X146577047Y-75126904D01*
X146500857Y-75241190D01*
X146424666Y-75317380D01*
X146348476Y-75355476D01*
X147567523Y-75926904D02*
X147110380Y-75926904D01*
X147338952Y-75926904D02*
X147338952Y-75126904D01*
X147262761Y-75241190D01*
X147186571Y-75317380D01*
X147110380Y-75355476D01*
X145624666Y-77450904D02*
X145777047Y-77450904D01*
X145853238Y-77412809D01*
X145891333Y-77374714D01*
X145967523Y-77260428D01*
X146005619Y-77108047D01*
X146005619Y-76803285D01*
X145967523Y-76727095D01*
X145929428Y-76689000D01*
X145853238Y-76650904D01*
X145700857Y-76650904D01*
X145624666Y-76689000D01*
X145586571Y-76727095D01*
X145548476Y-76803285D01*
X145548476Y-76993761D01*
X145586571Y-77069952D01*
X145624666Y-77108047D01*
X145700857Y-77146142D01*
X145853238Y-77146142D01*
X145929428Y-77108047D01*
X145967523Y-77069952D01*
X146005619Y-76993761D01*
X146348476Y-77450904D02*
X146348476Y-76650904D01*
X146805619Y-77450904D02*
X146462761Y-76993761D01*
X146805619Y-76650904D02*
X146348476Y-77108047D01*
X147567523Y-77450904D02*
X147110380Y-77450904D01*
X147338952Y-77450904D02*
X147338952Y-76650904D01*
X147262761Y-76765190D01*
X147186571Y-76841380D01*
X147110380Y-76879476D01*
X132391104Y-62972876D02*
X131591104Y-62972876D01*
X131591104Y-62782400D01*
X131629200Y-62668114D01*
X131705390Y-62591923D01*
X131781580Y-62553828D01*
X131933961Y-62515733D01*
X132048247Y-62515733D01*
X132200628Y-62553828D01*
X132276819Y-62591923D01*
X132353009Y-62668114D01*
X132391104Y-62782400D01*
X132391104Y-62972876D01*
X131857771Y-61830019D02*
X132391104Y-61830019D01*
X131553009Y-62020495D02*
X132124438Y-62210971D01*
X132124438Y-61715733D01*
X133508704Y-62940876D02*
X132708704Y-62940876D01*
X133280133Y-62674209D01*
X132708704Y-62407542D01*
X133508704Y-62407542D01*
X133089657Y-61759923D02*
X133127752Y-61645638D01*
X133165847Y-61607542D01*
X133242038Y-61569447D01*
X133356323Y-61569447D01*
X133432514Y-61607542D01*
X133470609Y-61645638D01*
X133508704Y-61721828D01*
X133508704Y-62026590D01*
X132708704Y-62026590D01*
X132708704Y-61759923D01*
X132746800Y-61683733D01*
X132784895Y-61645638D01*
X132861085Y-61607542D01*
X132937276Y-61607542D01*
X133013466Y-61645638D01*
X133051561Y-61683733D01*
X133089657Y-61759923D01*
X133089657Y-62026590D01*
X133508704Y-60769447D02*
X133127752Y-61036114D01*
X133508704Y-61226590D02*
X132708704Y-61226590D01*
X132708704Y-60921828D01*
X132746800Y-60845638D01*
X132784895Y-60807542D01*
X132861085Y-60769447D01*
X132975371Y-60769447D01*
X133051561Y-60807542D01*
X133089657Y-60845638D01*
X133127752Y-60921828D01*
X133127752Y-61226590D01*
X132708704Y-60274209D02*
X132708704Y-60198019D01*
X132746800Y-60121828D01*
X132784895Y-60083733D01*
X132861085Y-60045638D01*
X133013466Y-60007542D01*
X133203942Y-60007542D01*
X133356323Y-60045638D01*
X133432514Y-60083733D01*
X133470609Y-60121828D01*
X133508704Y-60198019D01*
X133508704Y-60274209D01*
X133470609Y-60350400D01*
X133432514Y-60388495D01*
X133356323Y-60426590D01*
X133203942Y-60464685D01*
X133013466Y-60464685D01*
X132861085Y-60426590D01*
X132784895Y-60388495D01*
X132746800Y-60350400D01*
X132708704Y-60274209D01*
X132708704Y-59283733D02*
X132708704Y-59664685D01*
X133089657Y-59702780D01*
X133051561Y-59664685D01*
X133013466Y-59588495D01*
X133013466Y-59398019D01*
X133051561Y-59321828D01*
X133089657Y-59283733D01*
X133165847Y-59245638D01*
X133356323Y-59245638D01*
X133432514Y-59283733D01*
X133470609Y-59321828D01*
X133508704Y-59398019D01*
X133508704Y-59588495D01*
X133470609Y-59664685D01*
X133432514Y-59702780D01*
X132784895Y-58940876D02*
X132746800Y-58902780D01*
X132708704Y-58826590D01*
X132708704Y-58636114D01*
X132746800Y-58559923D01*
X132784895Y-58521828D01*
X132861085Y-58483733D01*
X132937276Y-58483733D01*
X133051561Y-58521828D01*
X133508704Y-58978971D01*
X133508704Y-58483733D01*
X132708704Y-57988495D02*
X132708704Y-57912304D01*
X132746800Y-57836114D01*
X132784895Y-57798019D01*
X132861085Y-57759923D01*
X133013466Y-57721828D01*
X133203942Y-57721828D01*
X133356323Y-57759923D01*
X133432514Y-57798019D01*
X133470609Y-57836114D01*
X133508704Y-57912304D01*
X133508704Y-57988495D01*
X133470609Y-58064685D01*
X133432514Y-58102780D01*
X133356323Y-58140876D01*
X133203942Y-58178971D01*
X133013466Y-58178971D01*
X132861085Y-58140876D01*
X132784895Y-58102780D01*
X132746800Y-58064685D01*
X132708704Y-57988495D01*
X142036880Y-105289404D02*
X142570214Y-106089404D01*
X142570214Y-105289404D02*
X142036880Y-106089404D01*
X142836880Y-105365595D02*
X142874976Y-105327500D01*
X142951166Y-105289404D01*
X143141642Y-105289404D01*
X143217833Y-105327500D01*
X143255928Y-105365595D01*
X143294023Y-105441785D01*
X143294023Y-105517976D01*
X143255928Y-105632261D01*
X142798785Y-106089404D01*
X143294023Y-106089404D01*
X141586119Y-107422904D02*
X141128976Y-107422904D01*
X141357547Y-107422904D02*
X141357547Y-106622904D01*
X141281357Y-106737190D01*
X141205166Y-106813380D01*
X141128976Y-106851476D01*
X142271833Y-106622904D02*
X142119452Y-106622904D01*
X142043261Y-106661000D01*
X142005166Y-106699095D01*
X141928976Y-106813380D01*
X141890880Y-106965761D01*
X141890880Y-107270523D01*
X141928976Y-107346714D01*
X141967071Y-107384809D01*
X142043261Y-107422904D01*
X142195642Y-107422904D01*
X142271833Y-107384809D01*
X142309928Y-107346714D01*
X142348023Y-107270523D01*
X142348023Y-107080047D01*
X142309928Y-107003857D01*
X142271833Y-106965761D01*
X142195642Y-106927666D01*
X142043261Y-106927666D01*
X141967071Y-106965761D01*
X141928976Y-107003857D01*
X141890880Y-107080047D01*
X142690880Y-107422904D02*
X142690880Y-106622904D01*
X142957547Y-107194333D01*
X143224214Y-106622904D01*
X143224214Y-107422904D01*
X143605166Y-107422904D02*
X143605166Y-106622904D01*
X143605166Y-107003857D02*
X144062309Y-107003857D01*
X144062309Y-107422904D02*
X144062309Y-106622904D01*
X144367071Y-106889571D02*
X144786119Y-106889571D01*
X144367071Y-107422904D01*
X144786119Y-107422904D01*
X148501180Y-64687504D02*
X149034514Y-65487504D01*
X149034514Y-64687504D02*
X148501180Y-65487504D01*
X149758323Y-65487504D02*
X149301180Y-65487504D01*
X149529752Y-65487504D02*
X149529752Y-64687504D01*
X149453561Y-64801790D01*
X149377371Y-64877980D01*
X149301180Y-64916076D01*
X147796419Y-66859104D02*
X147339276Y-66859104D01*
X147567847Y-66859104D02*
X147567847Y-66059104D01*
X147491657Y-66173390D01*
X147415466Y-66249580D01*
X147339276Y-66287676D01*
X148101180Y-66135295D02*
X148139276Y-66097200D01*
X148215466Y-66059104D01*
X148405942Y-66059104D01*
X148482133Y-66097200D01*
X148520228Y-66135295D01*
X148558323Y-66211485D01*
X148558323Y-66287676D01*
X148520228Y-66401961D01*
X148063085Y-66859104D01*
X148558323Y-66859104D01*
X148901180Y-66859104D02*
X148901180Y-66059104D01*
X149167847Y-66630533D01*
X149434514Y-66059104D01*
X149434514Y-66859104D01*
X149815466Y-66859104D02*
X149815466Y-66059104D01*
X149815466Y-66440057D02*
X150272609Y-66440057D01*
X150272609Y-66859104D02*
X150272609Y-66059104D01*
X150577371Y-66325771D02*
X150996419Y-66325771D01*
X150577371Y-66859104D01*
X150996419Y-66859104D01*
X135108914Y-58959733D02*
X135147009Y-58997828D01*
X135185104Y-59112114D01*
X135185104Y-59188304D01*
X135147009Y-59302590D01*
X135070819Y-59378780D01*
X134994628Y-59416876D01*
X134842247Y-59454971D01*
X134727961Y-59454971D01*
X134575580Y-59416876D01*
X134499390Y-59378780D01*
X134423200Y-59302590D01*
X134385104Y-59188304D01*
X134385104Y-59112114D01*
X134423200Y-58997828D01*
X134461295Y-58959733D01*
X135185104Y-58197828D02*
X135185104Y-58654971D01*
X135185104Y-58426400D02*
X134385104Y-58426400D01*
X134499390Y-58502590D01*
X134575580Y-58578780D01*
X134613676Y-58654971D01*
X136759904Y-59137485D02*
X136759904Y-59594628D01*
X136759904Y-59366057D02*
X135959904Y-59366057D01*
X136074190Y-59442247D01*
X136150380Y-59518438D01*
X136188476Y-59594628D01*
X135959904Y-58642247D02*
X135959904Y-58566057D01*
X135998000Y-58489866D01*
X136036095Y-58451771D01*
X136112285Y-58413676D01*
X136264666Y-58375580D01*
X136455142Y-58375580D01*
X136607523Y-58413676D01*
X136683714Y-58451771D01*
X136721809Y-58489866D01*
X136759904Y-58566057D01*
X136759904Y-58642247D01*
X136721809Y-58718438D01*
X136683714Y-58756533D01*
X136607523Y-58794628D01*
X136455142Y-58832723D01*
X136264666Y-58832723D01*
X136112285Y-58794628D01*
X136036095Y-58756533D01*
X135998000Y-58718438D01*
X135959904Y-58642247D01*
X136226571Y-57689866D02*
X136759904Y-57689866D01*
X136226571Y-58032723D02*
X136645619Y-58032723D01*
X136721809Y-57994628D01*
X136759904Y-57918438D01*
X136759904Y-57804152D01*
X136721809Y-57727961D01*
X136683714Y-57689866D01*
X156102066Y-108108714D02*
X156063971Y-108146809D01*
X155949685Y-108184904D01*
X155873495Y-108184904D01*
X155759209Y-108146809D01*
X155683019Y-108070619D01*
X155644923Y-107994428D01*
X155606828Y-107842047D01*
X155606828Y-107727761D01*
X155644923Y-107575380D01*
X155683019Y-107499190D01*
X155759209Y-107423000D01*
X155873495Y-107384904D01*
X155949685Y-107384904D01*
X156063971Y-107423000D01*
X156102066Y-107461095D01*
X156483019Y-108184904D02*
X156635400Y-108184904D01*
X156711590Y-108146809D01*
X156749685Y-108108714D01*
X156825876Y-107994428D01*
X156863971Y-107842047D01*
X156863971Y-107537285D01*
X156825876Y-107461095D01*
X156787780Y-107423000D01*
X156711590Y-107384904D01*
X156559209Y-107384904D01*
X156483019Y-107423000D01*
X156444923Y-107461095D01*
X156406828Y-107537285D01*
X156406828Y-107727761D01*
X156444923Y-107803952D01*
X156483019Y-107842047D01*
X156559209Y-107880142D01*
X156711590Y-107880142D01*
X156787780Y-107842047D01*
X156825876Y-107803952D01*
X156863971Y-107727761D01*
X155771914Y-109759704D02*
X155314771Y-109759704D01*
X155543342Y-109759704D02*
X155543342Y-108959704D01*
X155467152Y-109073990D01*
X155390961Y-109150180D01*
X155314771Y-109188276D01*
X156267152Y-108959704D02*
X156343342Y-108959704D01*
X156419533Y-108997800D01*
X156457628Y-109035895D01*
X156495723Y-109112085D01*
X156533819Y-109264466D01*
X156533819Y-109454942D01*
X156495723Y-109607323D01*
X156457628Y-109683514D01*
X156419533Y-109721609D01*
X156343342Y-109759704D01*
X156267152Y-109759704D01*
X156190961Y-109721609D01*
X156152866Y-109683514D01*
X156114771Y-109607323D01*
X156076676Y-109454942D01*
X156076676Y-109264466D01*
X156114771Y-109112085D01*
X156152866Y-109035895D01*
X156190961Y-108997800D01*
X156267152Y-108959704D01*
X157219533Y-109226371D02*
X157219533Y-109759704D01*
X156876676Y-109226371D02*
X156876676Y-109645419D01*
X156914771Y-109721609D01*
X156990961Y-109759704D01*
X157105247Y-109759704D01*
X157181438Y-109721609D01*
X157219533Y-109683514D01*
%LPC*%
D13*
X116890800Y-113792000D03*
X163652200Y-113842800D03*
X163652200Y-60121800D03*
D14*
X139720000Y-75692000D03*
X142220000Y-75692000D03*
D15*
X122067320Y-68440300D03*
X122067320Y-69240400D03*
X122067320Y-70040500D03*
X122067320Y-70840600D03*
X122067320Y-71640700D03*
D16*
X121968260Y-65590420D03*
X116469160Y-65590420D03*
X121968260Y-74490580D03*
X116469160Y-74490580D03*
D17*
X119468900Y-67840860D03*
X119468900Y-72240140D03*
D18*
X136080500Y-103334500D03*
X136080500Y-105834500D03*
X135890000Y-84475000D03*
X135890000Y-86975000D03*
X132842000Y-105898000D03*
X132842000Y-103398000D03*
X132969000Y-84348000D03*
X132969000Y-86848000D03*
D14*
X128351600Y-114706400D03*
X125851600Y-114706400D03*
D19*
X158242000Y-77470000D03*
X155194000Y-77470000D03*
D20*
X120142000Y-104775000D03*
D21*
X117602000Y-104775000D03*
X120142000Y-102235000D03*
X117602000Y-102235000D03*
X120142000Y-99695000D03*
X117602000Y-99695000D03*
X120142000Y-97155000D03*
X117602000Y-97155000D03*
X120142000Y-94615000D03*
X117602000Y-94615000D03*
D22*
X128372981Y-98513095D03*
X129172981Y-98513095D03*
X129972981Y-98513095D03*
X130772981Y-98513095D03*
X131572981Y-98513095D03*
X132372981Y-98513095D03*
X133172981Y-98513095D03*
X133972981Y-98513095D03*
D23*
X135422981Y-97063095D03*
X135422981Y-96263095D03*
X135422981Y-95463095D03*
X135422981Y-94663095D03*
X135422981Y-93863095D03*
X135422981Y-93063095D03*
X135422981Y-92263095D03*
X135422981Y-91463095D03*
D22*
X133972981Y-90013095D03*
X133172981Y-90013095D03*
X132372981Y-90013095D03*
X131572981Y-90013095D03*
X130772981Y-90013095D03*
X129972981Y-90013095D03*
X129172981Y-90013095D03*
X128372981Y-90013095D03*
D23*
X126922981Y-91463095D03*
X126922981Y-92263095D03*
X126922981Y-93063095D03*
X126922981Y-93863095D03*
X126922981Y-94663095D03*
X126922981Y-95463095D03*
X126922981Y-96263095D03*
X126922981Y-97063095D03*
D24*
X163195000Y-78486000D03*
D25*
X128553200Y-101803200D03*
X125853200Y-101803200D03*
D26*
X140030800Y-87336674D03*
X140030800Y-90036674D03*
D25*
X143209000Y-83566000D03*
X140509000Y-83566000D03*
X143336000Y-93853000D03*
X140636000Y-93853000D03*
D26*
X143840800Y-90036674D03*
X143840800Y-87336674D03*
D25*
X140636000Y-96837500D03*
X143336000Y-96837500D03*
D27*
X124307600Y-104546400D03*
X129387600Y-104546400D03*
X124307600Y-112166400D03*
X129387600Y-112166400D03*
D28*
X149321000Y-104016000D03*
X151321000Y-104016000D03*
X153321000Y-104016000D03*
X155321000Y-104016000D03*
X157321000Y-104016000D03*
X159321000Y-104016000D03*
X161321000Y-104016000D03*
X163321000Y-104016000D03*
X163321000Y-84316000D03*
X161321000Y-84316000D03*
X159321000Y-84316000D03*
X157321000Y-84316000D03*
X155321000Y-84316000D03*
X153321000Y-84316000D03*
X151321000Y-84316000D03*
X149321000Y-84316000D03*
D29*
X135509000Y-72931000D03*
X136779000Y-72931000D03*
X138049000Y-72931000D03*
X139319000Y-72931000D03*
X140589000Y-72931000D03*
X141859000Y-72931000D03*
X143129000Y-72931000D03*
X144399000Y-72931000D03*
X144399000Y-67531000D03*
X143129000Y-67531000D03*
X141859000Y-67531000D03*
X140589000Y-67531000D03*
X139319000Y-67531000D03*
X138049000Y-67531000D03*
X136779000Y-67531000D03*
X135509000Y-67531000D03*
D30*
X156972000Y-67056000D03*
D31*
X156972000Y-73660000D03*
X159258000Y-73660000D03*
X154686000Y-73660000D03*
D32*
X117830600Y-78790800D03*
D33*
X120370600Y-78790800D03*
D32*
X117805200Y-84175600D03*
D33*
X120345200Y-84175600D03*
D32*
X117830600Y-89636600D03*
D33*
X120370600Y-89636600D03*
D25*
X126539000Y-78486000D03*
X129239000Y-78486000D03*
X125904000Y-82550000D03*
X128604000Y-82550000D03*
X125142000Y-86614000D03*
X127842000Y-86614000D03*
D34*
X125548500Y-65722500D03*
X129848500Y-65722500D03*
D18*
X140589000Y-62199200D03*
X140589000Y-64699200D03*
D35*
X144399000Y-62230000D03*
X144399000Y-64430000D03*
D25*
X151972000Y-79375000D03*
X149272000Y-79375000D03*
X152019000Y-76454000D03*
X149319000Y-76454000D03*
D36*
X132588000Y-67246500D03*
X132588000Y-63976500D03*
D37*
X142049500Y-99650000D03*
D38*
X142049500Y-101600000D03*
D37*
X142049500Y-103550000D03*
X148844000Y-68535000D03*
D38*
X148844000Y-70485000D03*
D37*
X148844000Y-72435000D03*
D39*
X135686800Y-64287400D03*
X135686800Y-61239400D03*
D19*
X162331400Y-108483400D03*
X159283400Y-108483400D03*
D13*
X116789200Y-60096400D03*
M02*
