%TF.GenerationSoftware,KiCad,Pcbnew,5.1.7-a382d34a8~87~ubuntu20.04.1*%
%TF.CreationDate,2020-10-15T10:11:22+03:00*%
%TF.ProjectId,BL_PCB_latest,424c5f50-4342-45f6-9c61-746573742e6b,rev?*%
%TF.SameCoordinates,Original*%
%TF.FileFunction,Legend,Top*%
%TF.FilePolarity,Positive*%
%FSLAX46Y46*%
G04 Gerber Fmt 4.6, Leading zero omitted, Abs format (unit mm)*
G04 Created by KiCad (PCBNEW 5.1.7-a382d34a8~87~ubuntu20.04.1) date 2020-10-15 10:11:22*
%MOMM*%
%LPD*%
G01*
G04 APERTURE LIST*
%ADD10C,0.254000*%
%ADD11C,0.150000*%
%ADD12C,0.152000*%
%ADD13R,1.524000X1.524000*%
%ADD14C,1.600000*%
%ADD15C,3.000000*%
G04 APERTURE END LIST*
D10*
%TO.C,LED30*%
X173482000Y-74422000D02*
X173482000Y-78232000D01*
X177419000Y-77851000D02*
X176657000Y-77851000D01*
X177038000Y-77470000D02*
X177038000Y-78232000D01*
X178562000Y-76327000D02*
G75*
G03*
X178562000Y-76327000I-2540000J0D01*
G01*
X173482007Y-78232009D02*
G75*
G03*
X173482000Y-74422000I2539993J1905009D01*
G01*
%TO.C,LED23*%
X155575000Y-32385000D02*
X155575000Y-36195000D01*
X159512000Y-35814000D02*
X158750000Y-35814000D01*
X159131000Y-35433000D02*
X159131000Y-36195000D01*
X160655000Y-34290000D02*
G75*
G03*
X160655000Y-34290000I-2540000J0D01*
G01*
X155575007Y-36195009D02*
G75*
G03*
X155575000Y-32385000I2539993J1905009D01*
G01*
%TO.C,LED24*%
X161544000Y-38227000D02*
X161544000Y-42037000D01*
X165481000Y-41656000D02*
X164719000Y-41656000D01*
X165100000Y-41275000D02*
X165100000Y-42037000D01*
X166624000Y-40132000D02*
G75*
G03*
X166624000Y-40132000I-2540000J0D01*
G01*
X161544007Y-42037009D02*
G75*
G03*
X161544000Y-38227000I2539993J1905009D01*
G01*
%TO.C,LED25*%
X167513000Y-44450000D02*
X167513000Y-48260000D01*
X171450000Y-47879000D02*
X170688000Y-47879000D01*
X171069000Y-47498000D02*
X171069000Y-48260000D01*
X172593000Y-46355000D02*
G75*
G03*
X172593000Y-46355000I-2540000J0D01*
G01*
X167513007Y-48260009D02*
G75*
G03*
X167513000Y-44450000I2539993J1905009D01*
G01*
%TO.C,LED26*%
X173482000Y-50419000D02*
X173482000Y-54229000D01*
X177419000Y-53848000D02*
X176657000Y-53848000D01*
X177038000Y-53467000D02*
X177038000Y-54229000D01*
X178562000Y-52324000D02*
G75*
G03*
X178562000Y-52324000I-2540000J0D01*
G01*
X173482007Y-54229009D02*
G75*
G03*
X173482000Y-50419000I2539993J1905009D01*
G01*
%TO.C,LED27*%
X179578000Y-56515000D02*
X179578000Y-60325000D01*
X183515000Y-59944000D02*
X182753000Y-59944000D01*
X183134000Y-59563000D02*
X183134000Y-60325000D01*
X184658000Y-58420000D02*
G75*
G03*
X184658000Y-58420000I-2540000J0D01*
G01*
X179578007Y-60325009D02*
G75*
G03*
X179578000Y-56515000I2539993J1905009D01*
G01*
%TO.C,LED28*%
X185547000Y-62484000D02*
X185547000Y-66294000D01*
X189484000Y-65913000D02*
X188722000Y-65913000D01*
X189103000Y-65532000D02*
X189103000Y-66294000D01*
X190627000Y-64389000D02*
G75*
G03*
X190627000Y-64389000I-2540000J0D01*
G01*
X185547007Y-66294009D02*
G75*
G03*
X185547000Y-62484000I2539993J1905009D01*
G01*
%TO.C,LED29*%
X179578000Y-68453000D02*
X179578000Y-72263000D01*
X183515000Y-71882000D02*
X182753000Y-71882000D01*
X183134000Y-71501000D02*
X183134000Y-72263000D01*
X184658000Y-70358000D02*
G75*
G03*
X184658000Y-70358000I-2540000J0D01*
G01*
X179578007Y-72263009D02*
G75*
G03*
X179578000Y-68453000I2539993J1905009D01*
G01*
%TO.C,LED31*%
X167259000Y-80518000D02*
X167259000Y-84328000D01*
X171196000Y-83947000D02*
X170434000Y-83947000D01*
X170815000Y-83566000D02*
X170815000Y-84328000D01*
X172339000Y-82423000D02*
G75*
G03*
X172339000Y-82423000I-2540000J0D01*
G01*
X167259007Y-84328009D02*
G75*
G03*
X167259000Y-80518000I2539993J1905009D01*
G01*
%TO.C,LED32*%
X161290000Y-86487000D02*
X161290000Y-90297000D01*
X165227000Y-89916000D02*
X164465000Y-89916000D01*
X164846000Y-89535000D02*
X164846000Y-90297000D01*
X166370000Y-88392000D02*
G75*
G03*
X166370000Y-88392000I-2540000J0D01*
G01*
X161290007Y-90297009D02*
G75*
G03*
X161290000Y-86487000I2539993J1905009D01*
G01*
%TO.C,LED33*%
X155321000Y-92456000D02*
X155321000Y-96266000D01*
X159258000Y-95885000D02*
X158496000Y-95885000D01*
X158877000Y-95504000D02*
X158877000Y-96266000D01*
X160401000Y-94361000D02*
G75*
G03*
X160401000Y-94361000I-2540000J0D01*
G01*
X155321007Y-96266009D02*
G75*
G03*
X155321000Y-92456000I2539993J1905009D01*
G01*
%TO.C,LED34*%
X150622000Y-96266000D02*
X150622000Y-92456000D01*
X146685000Y-92837000D02*
X147447000Y-92837000D01*
X147066000Y-93218000D02*
X147066000Y-92456000D01*
X150622000Y-94361000D02*
G75*
G03*
X150622000Y-94361000I-2540000J0D01*
G01*
X150621993Y-92455991D02*
G75*
G03*
X150622000Y-96266000I-2539993J-1905009D01*
G01*
%TO.C,LED35*%
X144653000Y-90170000D02*
X144653000Y-86360000D01*
X140716000Y-86741000D02*
X141478000Y-86741000D01*
X141097000Y-87122000D02*
X141097000Y-86360000D01*
X144653000Y-88265000D02*
G75*
G03*
X144653000Y-88265000I-2540000J0D01*
G01*
X144652993Y-86359991D02*
G75*
G03*
X144653000Y-90170000I-2539993J-1905009D01*
G01*
%TO.C,LED36*%
X138684000Y-84328000D02*
X138684000Y-80518000D01*
X134747000Y-80899000D02*
X135509000Y-80899000D01*
X135128000Y-81280000D02*
X135128000Y-80518000D01*
X138684000Y-82423000D02*
G75*
G03*
X138684000Y-82423000I-2540000J0D01*
G01*
X138683993Y-80517991D02*
G75*
G03*
X138684000Y-84328000I-2539993J-1905009D01*
G01*
%TO.C,LED37*%
X132461000Y-78232000D02*
X132461000Y-74422000D01*
X128524000Y-74803000D02*
X129286000Y-74803000D01*
X128905000Y-75184000D02*
X128905000Y-74422000D01*
X132461000Y-76327000D02*
G75*
G03*
X132461000Y-76327000I-2540000J0D01*
G01*
X132460993Y-74421991D02*
G75*
G03*
X132461000Y-78232000I-2539993J-1905009D01*
G01*
%TO.C,LED38*%
X126365000Y-72263000D02*
X126365000Y-68453000D01*
X122428000Y-68834000D02*
X123190000Y-68834000D01*
X122809000Y-69215000D02*
X122809000Y-68453000D01*
X126365000Y-70358000D02*
G75*
G03*
X126365000Y-70358000I-2540000J0D01*
G01*
X126364993Y-68452991D02*
G75*
G03*
X126365000Y-72263000I-2539993J-1905009D01*
G01*
%TO.C,LED39*%
X120396000Y-66294000D02*
X120396000Y-62484000D01*
X116459000Y-62865000D02*
X117221000Y-62865000D01*
X116840000Y-63246000D02*
X116840000Y-62484000D01*
X120396000Y-64389000D02*
G75*
G03*
X120396000Y-64389000I-2540000J0D01*
G01*
X120395993Y-62483991D02*
G75*
G03*
X120396000Y-66294000I-2539993J-1905009D01*
G01*
%TO.C,LED40*%
X126365000Y-60198000D02*
X126365000Y-56388000D01*
X122428000Y-56769000D02*
X123190000Y-56769000D01*
X122809000Y-57150000D02*
X122809000Y-56388000D01*
X126365000Y-58293000D02*
G75*
G03*
X126365000Y-58293000I-2540000J0D01*
G01*
X126364993Y-56387991D02*
G75*
G03*
X126365000Y-60198000I-2539993J-1905009D01*
G01*
%TO.C,LED41*%
X132461000Y-54229000D02*
X132461000Y-50419000D01*
X128524000Y-50800000D02*
X129286000Y-50800000D01*
X128905000Y-51181000D02*
X128905000Y-50419000D01*
X132461000Y-52324000D02*
G75*
G03*
X132461000Y-52324000I-2540000J0D01*
G01*
X132460993Y-50418991D02*
G75*
G03*
X132461000Y-54229000I-2539993J-1905009D01*
G01*
%TO.C,LED42*%
X138430000Y-48260000D02*
X138430000Y-44450000D01*
X134493000Y-44831000D02*
X135255000Y-44831000D01*
X134874000Y-45212000D02*
X134874000Y-44450000D01*
X138430000Y-46355000D02*
G75*
G03*
X138430000Y-46355000I-2540000J0D01*
G01*
X138429993Y-44449991D02*
G75*
G03*
X138430000Y-48260000I-2539993J-1905009D01*
G01*
%TO.C,LED43*%
X144399000Y-42037000D02*
X144399000Y-38227000D01*
X140462000Y-38608000D02*
X141224000Y-38608000D01*
X140843000Y-38989000D02*
X140843000Y-38227000D01*
X144399000Y-40132000D02*
G75*
G03*
X144399000Y-40132000I-2540000J0D01*
G01*
X144398993Y-38226991D02*
G75*
G03*
X144399000Y-42037000I-2539993J-1905009D01*
G01*
%TO.C,LED44*%
X150368000Y-36322000D02*
X150368000Y-32512000D01*
X146431000Y-32893000D02*
X147193000Y-32893000D01*
X146812000Y-33274000D02*
X146812000Y-32512000D01*
X150368000Y-34417000D02*
G75*
G03*
X150368000Y-34417000I-2540000J0D01*
G01*
X150367993Y-32511991D02*
G75*
G03*
X150368000Y-36322000I-2539993J-1905009D01*
G01*
%TO.C,LED45*%
X135636000Y-96266000D02*
X135636000Y-92456000D01*
X131699000Y-92837000D02*
X132461000Y-92837000D01*
X132080000Y-93218000D02*
X132080000Y-92456000D01*
X135636000Y-94361000D02*
G75*
G03*
X135636000Y-94361000I-2540000J0D01*
G01*
X135635993Y-92455991D02*
G75*
G03*
X135636000Y-96266000I-2539993J-1905009D01*
G01*
%TO.C,LED46*%
X129667000Y-90297000D02*
X129667000Y-86487000D01*
X125730000Y-86868000D02*
X126492000Y-86868000D01*
X126111000Y-87249000D02*
X126111000Y-86487000D01*
X129667000Y-88392000D02*
G75*
G03*
X129667000Y-88392000I-2540000J0D01*
G01*
X129666993Y-86486991D02*
G75*
G03*
X129667000Y-90297000I-2539993J-1905009D01*
G01*
%TO.C,LED47*%
X123571000Y-84328000D02*
X123571000Y-80518000D01*
X119634000Y-80899000D02*
X120396000Y-80899000D01*
X120015000Y-81280000D02*
X120015000Y-80518000D01*
X123571000Y-82423000D02*
G75*
G03*
X123571000Y-82423000I-2540000J0D01*
G01*
X123570993Y-80517991D02*
G75*
G03*
X123571000Y-84328000I-2539993J-1905009D01*
G01*
%TO.C,LED48*%
X117348000Y-78232000D02*
X117348000Y-74422000D01*
X113411000Y-74803000D02*
X114173000Y-74803000D01*
X113792000Y-75184000D02*
X113792000Y-74422000D01*
X117348000Y-76327000D02*
G75*
G03*
X117348000Y-76327000I-2540000J0D01*
G01*
X117347993Y-74421991D02*
G75*
G03*
X117348000Y-78232000I-2539993J-1905009D01*
G01*
%TO.C,LED49*%
X111379000Y-72263000D02*
X111379000Y-68453000D01*
X107442000Y-68834000D02*
X108204000Y-68834000D01*
X107823000Y-69215000D02*
X107823000Y-68453000D01*
X111379000Y-70358000D02*
G75*
G03*
X111379000Y-70358000I-2540000J0D01*
G01*
X111378993Y-68452991D02*
G75*
G03*
X111379000Y-72263000I-2539993J-1905009D01*
G01*
%TO.C,LED50*%
X105410000Y-66294000D02*
X105410000Y-62484000D01*
X101473000Y-62865000D02*
X102235000Y-62865000D01*
X101854000Y-63246000D02*
X101854000Y-62484000D01*
X105410000Y-64389000D02*
G75*
G03*
X105410000Y-64389000I-2540000J0D01*
G01*
X105409993Y-62483991D02*
G75*
G03*
X105410000Y-66294000I-2539993J-1905009D01*
G01*
%TO.C,LED51*%
X111379000Y-60325000D02*
X111379000Y-56515000D01*
X107442000Y-56896000D02*
X108204000Y-56896000D01*
X107823000Y-57277000D02*
X107823000Y-56515000D01*
X111379000Y-58420000D02*
G75*
G03*
X111379000Y-58420000I-2540000J0D01*
G01*
X111378993Y-56514991D02*
G75*
G03*
X111379000Y-60325000I-2539993J-1905009D01*
G01*
%TO.C,LED52*%
X117475000Y-54229000D02*
X117475000Y-50419000D01*
X113538000Y-50800000D02*
X114300000Y-50800000D01*
X113919000Y-51181000D02*
X113919000Y-50419000D01*
X117475000Y-52324000D02*
G75*
G03*
X117475000Y-52324000I-2540000J0D01*
G01*
X117474993Y-50418991D02*
G75*
G03*
X117475000Y-54229000I-2539993J-1905009D01*
G01*
%TO.C,LED53*%
X123444000Y-48260000D02*
X123444000Y-44450000D01*
X119507000Y-44831000D02*
X120269000Y-44831000D01*
X119888000Y-45212000D02*
X119888000Y-44450000D01*
X123444000Y-46355000D02*
G75*
G03*
X123444000Y-46355000I-2540000J0D01*
G01*
X123443993Y-44449991D02*
G75*
G03*
X123444000Y-48260000I-2539993J-1905009D01*
G01*
%TO.C,LED54*%
X129413000Y-42037000D02*
X129413000Y-38227000D01*
X125476000Y-38608000D02*
X126238000Y-38608000D01*
X125857000Y-38989000D02*
X125857000Y-38227000D01*
X129413000Y-40132000D02*
G75*
G03*
X129413000Y-40132000I-2540000J0D01*
G01*
X129412993Y-38226991D02*
G75*
G03*
X129413000Y-42037000I-2539993J-1905009D01*
G01*
%TO.C,LED55*%
X135382000Y-36195000D02*
X135382000Y-32385000D01*
X131445000Y-32766000D02*
X132207000Y-32766000D01*
X131826000Y-33147000D02*
X131826000Y-32385000D01*
X135382000Y-34290000D02*
G75*
G03*
X135382000Y-34290000I-2540000J0D01*
G01*
X135381993Y-32384991D02*
G75*
G03*
X135382000Y-36195000I-2539993J-1905009D01*
G01*
%TO.C,LED56*%
X120650000Y-96266000D02*
X120650000Y-92456000D01*
X116713000Y-92837000D02*
X117475000Y-92837000D01*
X117094000Y-93218000D02*
X117094000Y-92456000D01*
X120650000Y-94361000D02*
G75*
G03*
X120650000Y-94361000I-2540000J0D01*
G01*
X120649993Y-92455991D02*
G75*
G03*
X120650000Y-96266000I-2539993J-1905009D01*
G01*
%TO.C,LED57*%
X114681000Y-90297000D02*
X114681000Y-86487000D01*
X110744000Y-86868000D02*
X111506000Y-86868000D01*
X111125000Y-87249000D02*
X111125000Y-86487000D01*
X114681000Y-88392000D02*
G75*
G03*
X114681000Y-88392000I-2540000J0D01*
G01*
X114680993Y-86486991D02*
G75*
G03*
X114681000Y-90297000I-2539993J-1905009D01*
G01*
%TO.C,LED58*%
X108585000Y-84328000D02*
X108585000Y-80518000D01*
X104648000Y-80899000D02*
X105410000Y-80899000D01*
X105029000Y-81280000D02*
X105029000Y-80518000D01*
X108585000Y-82423000D02*
G75*
G03*
X108585000Y-82423000I-2540000J0D01*
G01*
X108584993Y-80517991D02*
G75*
G03*
X108585000Y-84328000I-2539993J-1905009D01*
G01*
%TO.C,LED59*%
X102362000Y-78232000D02*
X102362000Y-74422000D01*
X98425000Y-74803000D02*
X99187000Y-74803000D01*
X98806000Y-75184000D02*
X98806000Y-74422000D01*
X102362000Y-76327000D02*
G75*
G03*
X102362000Y-76327000I-2540000J0D01*
G01*
X102361993Y-74421991D02*
G75*
G03*
X102362000Y-78232000I-2539993J-1905009D01*
G01*
%TO.C,LED60*%
X96393000Y-72263000D02*
X96393000Y-68453000D01*
X92456000Y-68834000D02*
X93218000Y-68834000D01*
X92837000Y-69215000D02*
X92837000Y-68453000D01*
X96393000Y-70358000D02*
G75*
G03*
X96393000Y-70358000I-2540000J0D01*
G01*
X96392993Y-68452991D02*
G75*
G03*
X96393000Y-72263000I-2539993J-1905009D01*
G01*
%TO.C,LED61*%
X90424000Y-66294000D02*
X90424000Y-62484000D01*
X86487000Y-62865000D02*
X87249000Y-62865000D01*
X86868000Y-63246000D02*
X86868000Y-62484000D01*
X90424000Y-64389000D02*
G75*
G03*
X90424000Y-64389000I-2540000J0D01*
G01*
X90423993Y-62483991D02*
G75*
G03*
X90424000Y-66294000I-2539993J-1905009D01*
G01*
%TO.C,LED62*%
X96393000Y-60198000D02*
X96393000Y-56388000D01*
X92456000Y-56769000D02*
X93218000Y-56769000D01*
X92837000Y-57150000D02*
X92837000Y-56388000D01*
X96393000Y-58293000D02*
G75*
G03*
X96393000Y-58293000I-2540000J0D01*
G01*
X96392993Y-56387991D02*
G75*
G03*
X96393000Y-60198000I-2539993J-1905009D01*
G01*
%TO.C,LED63*%
X102489000Y-54229000D02*
X102489000Y-50419000D01*
X98552000Y-50800000D02*
X99314000Y-50800000D01*
X98933000Y-51181000D02*
X98933000Y-50419000D01*
X102489000Y-52324000D02*
G75*
G03*
X102489000Y-52324000I-2540000J0D01*
G01*
X102488993Y-50418991D02*
G75*
G03*
X102489000Y-54229000I-2539993J-1905009D01*
G01*
%TO.C,LED64*%
X108458000Y-48260000D02*
X108458000Y-44450000D01*
X104521000Y-44831000D02*
X105283000Y-44831000D01*
X104902000Y-45212000D02*
X104902000Y-44450000D01*
X108458000Y-46355000D02*
G75*
G03*
X108458000Y-46355000I-2540000J0D01*
G01*
X108457993Y-44449991D02*
G75*
G03*
X108458000Y-48260000I-2539993J-1905009D01*
G01*
%TO.C,LED65*%
X114427000Y-42037000D02*
X114427000Y-38227000D01*
X110490000Y-38608000D02*
X111252000Y-38608000D01*
X110871000Y-38989000D02*
X110871000Y-38227000D01*
X114427000Y-40132000D02*
G75*
G03*
X114427000Y-40132000I-2540000J0D01*
G01*
X114426993Y-38226991D02*
G75*
G03*
X114427000Y-42037000I-2539993J-1905009D01*
G01*
%TO.C,LED66*%
X120396000Y-36195000D02*
X120396000Y-32385000D01*
X116459000Y-32766000D02*
X117221000Y-32766000D01*
X116840000Y-33147000D02*
X116840000Y-32385000D01*
X120396000Y-34290000D02*
G75*
G03*
X120396000Y-34290000I-2540000J0D01*
G01*
X120395993Y-32384991D02*
G75*
G03*
X120396000Y-36195000I-2539993J-1905009D01*
G01*
%TO.C,LED7*%
X209550000Y-68453000D02*
X209550000Y-72263000D01*
X213487000Y-71882000D02*
X212725000Y-71882000D01*
X213106000Y-71501000D02*
X213106000Y-72263000D01*
X214630000Y-70358000D02*
G75*
G03*
X214630000Y-70358000I-2540000J0D01*
G01*
X209550007Y-72263009D02*
G75*
G03*
X209550000Y-68453000I2539993J1905009D01*
G01*
%TO.C,LED2*%
X191516000Y-38227000D02*
X191516000Y-42037000D01*
X195453000Y-41656000D02*
X194691000Y-41656000D01*
X195072000Y-41275000D02*
X195072000Y-42037000D01*
X196596000Y-40132000D02*
G75*
G03*
X196596000Y-40132000I-2540000J0D01*
G01*
X191516007Y-42037009D02*
G75*
G03*
X191516000Y-38227000I2539993J1905009D01*
G01*
%TO.C,LED10*%
X191389000Y-86487000D02*
X191389000Y-90297000D01*
X195326000Y-89916000D02*
X194564000Y-89916000D01*
X194945000Y-89535000D02*
X194945000Y-90297000D01*
X196469000Y-88392000D02*
G75*
G03*
X196469000Y-88392000I-2540000J0D01*
G01*
X191389007Y-90297009D02*
G75*
G03*
X191389000Y-86487000I2539993J1905009D01*
G01*
%TO.C,LED9*%
X197358000Y-80518000D02*
X197358000Y-84328000D01*
X201295000Y-83947000D02*
X200533000Y-83947000D01*
X200914000Y-83566000D02*
X200914000Y-84328000D01*
X202438000Y-82423000D02*
G75*
G03*
X202438000Y-82423000I-2540000J0D01*
G01*
X197358007Y-84328009D02*
G75*
G03*
X197358000Y-80518000I2539993J1905009D01*
G01*
%TO.C,LED8*%
X203581000Y-74422000D02*
X203581000Y-78232000D01*
X207518000Y-77851000D02*
X206756000Y-77851000D01*
X207137000Y-77470000D02*
X207137000Y-78232000D01*
X208661000Y-76327000D02*
G75*
G03*
X208661000Y-76327000I-2540000J0D01*
G01*
X203581007Y-78232009D02*
G75*
G03*
X203581000Y-74422000I2539993J1905009D01*
G01*
%TO.C,LED11*%
X185293000Y-92456000D02*
X185293000Y-96266000D01*
X189230000Y-95885000D02*
X188468000Y-95885000D01*
X188849000Y-95504000D02*
X188849000Y-96266000D01*
X190373000Y-94361000D02*
G75*
G03*
X190373000Y-94361000I-2540000J0D01*
G01*
X185293007Y-96266009D02*
G75*
G03*
X185293000Y-92456000I2539993J1905009D01*
G01*
%TO.C,LED6*%
X215519000Y-62484000D02*
X215519000Y-66294000D01*
X219456000Y-65913000D02*
X218694000Y-65913000D01*
X219075000Y-65532000D02*
X219075000Y-66294000D01*
X220599000Y-64389000D02*
G75*
G03*
X220599000Y-64389000I-2540000J0D01*
G01*
X215519007Y-66294009D02*
G75*
G03*
X215519000Y-62484000I2539993J1905009D01*
G01*
%TO.C,LED5*%
X209550000Y-56388000D02*
X209550000Y-60198000D01*
X213487000Y-59817000D02*
X212725000Y-59817000D01*
X213106000Y-59436000D02*
X213106000Y-60198000D01*
X214630000Y-58293000D02*
G75*
G03*
X214630000Y-58293000I-2540000J0D01*
G01*
X209550007Y-60198009D02*
G75*
G03*
X209550000Y-56388000I2539993J1905009D01*
G01*
%TO.C,LED4*%
X203581000Y-50419000D02*
X203581000Y-54229000D01*
X207518000Y-53848000D02*
X206756000Y-53848000D01*
X207137000Y-53467000D02*
X207137000Y-54229000D01*
X208661000Y-52324000D02*
G75*
G03*
X208661000Y-52324000I-2540000J0D01*
G01*
X203581007Y-54229009D02*
G75*
G03*
X203581000Y-50419000I2539993J1905009D01*
G01*
%TO.C,LED3*%
X197485000Y-44450000D02*
X197485000Y-48260000D01*
X201422000Y-47879000D02*
X200660000Y-47879000D01*
X201041000Y-47498000D02*
X201041000Y-48260000D01*
X202565000Y-46355000D02*
G75*
G03*
X202565000Y-46355000I-2540000J0D01*
G01*
X197485007Y-48260009D02*
G75*
G03*
X197485000Y-44450000I2539993J1905009D01*
G01*
%TO.C,LED1*%
X185547000Y-32385000D02*
X185547000Y-36195000D01*
X189484000Y-35814000D02*
X188722000Y-35814000D01*
X189103000Y-35433000D02*
X189103000Y-36195000D01*
X190627000Y-34290000D02*
G75*
G03*
X190627000Y-34290000I-2540000J0D01*
G01*
X185547007Y-36195009D02*
G75*
G03*
X185547000Y-32385000I2539993J1905009D01*
G01*
%TO.C,LED12*%
X170307000Y-92456000D02*
X170307000Y-96266000D01*
X174244000Y-95885000D02*
X173482000Y-95885000D01*
X173863000Y-95504000D02*
X173863000Y-96266000D01*
X175387000Y-94361000D02*
G75*
G03*
X175387000Y-94361000I-2540000J0D01*
G01*
X170307007Y-96266009D02*
G75*
G03*
X170307000Y-92456000I2539993J1905009D01*
G01*
%TO.C,LED13*%
X176276000Y-86487000D02*
X176276000Y-90297000D01*
X180213000Y-89916000D02*
X179451000Y-89916000D01*
X179832000Y-89535000D02*
X179832000Y-90297000D01*
X181356000Y-88392000D02*
G75*
G03*
X181356000Y-88392000I-2540000J0D01*
G01*
X176276007Y-90297009D02*
G75*
G03*
X176276000Y-86487000I2539993J1905009D01*
G01*
%TO.C,LED14*%
X182372000Y-80518000D02*
X182372000Y-84328000D01*
X186309000Y-83947000D02*
X185547000Y-83947000D01*
X185928000Y-83566000D02*
X185928000Y-84328000D01*
X187452000Y-82423000D02*
G75*
G03*
X187452000Y-82423000I-2540000J0D01*
G01*
X182372007Y-84328009D02*
G75*
G03*
X182372000Y-80518000I2539993J1905009D01*
G01*
%TO.C,LED15*%
X188595000Y-74422000D02*
X188595000Y-78232000D01*
X192532000Y-77851000D02*
X191770000Y-77851000D01*
X192151000Y-77470000D02*
X192151000Y-78232000D01*
X193675000Y-76327000D02*
G75*
G03*
X193675000Y-76327000I-2540000J0D01*
G01*
X188595007Y-78232009D02*
G75*
G03*
X188595000Y-74422000I2539993J1905009D01*
G01*
%TO.C,LED16*%
X194564000Y-68453000D02*
X194564000Y-72263000D01*
X198501000Y-71882000D02*
X197739000Y-71882000D01*
X198120000Y-71501000D02*
X198120000Y-72263000D01*
X199644000Y-70358000D02*
G75*
G03*
X199644000Y-70358000I-2540000J0D01*
G01*
X194564007Y-72263009D02*
G75*
G03*
X194564000Y-68453000I2539993J1905009D01*
G01*
%TO.C,LED17*%
X200533000Y-62484000D02*
X200533000Y-66294000D01*
X204470000Y-65913000D02*
X203708000Y-65913000D01*
X204089000Y-65532000D02*
X204089000Y-66294000D01*
X205613000Y-64389000D02*
G75*
G03*
X205613000Y-64389000I-2540000J0D01*
G01*
X200533007Y-66294009D02*
G75*
G03*
X200533000Y-62484000I2539993J1905009D01*
G01*
%TO.C,LED18*%
X194564000Y-56515000D02*
X194564000Y-60325000D01*
X198501000Y-59944000D02*
X197739000Y-59944000D01*
X198120000Y-59563000D02*
X198120000Y-60325000D01*
X199644000Y-58420000D02*
G75*
G03*
X199644000Y-58420000I-2540000J0D01*
G01*
X194564007Y-60325009D02*
G75*
G03*
X194564000Y-56515000I2539993J1905009D01*
G01*
%TO.C,LED19*%
X188468000Y-50419000D02*
X188468000Y-54229000D01*
X192405000Y-53848000D02*
X191643000Y-53848000D01*
X192024000Y-53467000D02*
X192024000Y-54229000D01*
X193548000Y-52324000D02*
G75*
G03*
X193548000Y-52324000I-2540000J0D01*
G01*
X188468007Y-54229009D02*
G75*
G03*
X188468000Y-50419000I2539993J1905009D01*
G01*
%TO.C,LED20*%
X182499000Y-44450000D02*
X182499000Y-48260000D01*
X186436000Y-47879000D02*
X185674000Y-47879000D01*
X186055000Y-47498000D02*
X186055000Y-48260000D01*
X187579000Y-46355000D02*
G75*
G03*
X187579000Y-46355000I-2540000J0D01*
G01*
X182499007Y-48260009D02*
G75*
G03*
X182499000Y-44450000I2539993J1905009D01*
G01*
%TO.C,LED21*%
X176530000Y-38227000D02*
X176530000Y-42037000D01*
X180467000Y-41656000D02*
X179705000Y-41656000D01*
X180086000Y-41275000D02*
X180086000Y-42037000D01*
X181610000Y-40132000D02*
G75*
G03*
X181610000Y-40132000I-2540000J0D01*
G01*
X176530007Y-42037009D02*
G75*
G03*
X176530000Y-38227000I2539993J1905009D01*
G01*
%TO.C,LED22*%
X170561000Y-32385000D02*
X170561000Y-36195000D01*
X174498000Y-35814000D02*
X173736000Y-35814000D01*
X174117000Y-35433000D02*
X174117000Y-36195000D01*
X175641000Y-34290000D02*
G75*
G03*
X175641000Y-34290000I-2540000J0D01*
G01*
X170561007Y-36195009D02*
G75*
G03*
X170561000Y-32385000I2539993J1905009D01*
G01*
%TO.C,*%
D11*
%TO.C,LED30*%
D12*
X171313928Y-74829228D02*
X171313928Y-74284942D01*
X172456928Y-74284942D01*
X171912642Y-75210228D02*
X171912642Y-75591228D01*
X171313928Y-75754514D02*
X171313928Y-75210228D01*
X172456928Y-75210228D01*
X172456928Y-75754514D01*
X171313928Y-76244371D02*
X172456928Y-76244371D01*
X172456928Y-76516514D01*
X172402500Y-76679800D01*
X172293642Y-76788657D01*
X172184785Y-76843085D01*
X171967071Y-76897514D01*
X171803785Y-76897514D01*
X171586071Y-76843085D01*
X171477214Y-76788657D01*
X171368357Y-76679800D01*
X171313928Y-76516514D01*
X171313928Y-76244371D01*
X172456928Y-77278514D02*
X172456928Y-77986085D01*
X172021500Y-77605085D01*
X172021500Y-77768371D01*
X171967071Y-77877228D01*
X171912642Y-77931657D01*
X171803785Y-77986085D01*
X171531642Y-77986085D01*
X171422785Y-77931657D01*
X171368357Y-77877228D01*
X171313928Y-77768371D01*
X171313928Y-77441800D01*
X171368357Y-77332942D01*
X171422785Y-77278514D01*
X172456928Y-78693657D02*
X172456928Y-78802514D01*
X172402500Y-78911371D01*
X172348071Y-78965800D01*
X172239214Y-79020228D01*
X172021500Y-79074657D01*
X171749357Y-79074657D01*
X171531642Y-79020228D01*
X171422785Y-78965800D01*
X171368357Y-78911371D01*
X171313928Y-78802514D01*
X171313928Y-78693657D01*
X171368357Y-78584800D01*
X171422785Y-78530371D01*
X171531642Y-78475942D01*
X171749357Y-78421514D01*
X172021500Y-78421514D01*
X172239214Y-78475942D01*
X172348071Y-78530371D01*
X172402500Y-78584800D01*
X172456928Y-78693657D01*
%TO.C,LED23*%
X153406928Y-32538228D02*
X153406928Y-31993942D01*
X154549928Y-31993942D01*
X154005642Y-32919228D02*
X154005642Y-33300228D01*
X153406928Y-33463514D02*
X153406928Y-32919228D01*
X154549928Y-32919228D01*
X154549928Y-33463514D01*
X153406928Y-33953371D02*
X154549928Y-33953371D01*
X154549928Y-34225514D01*
X154495500Y-34388800D01*
X154386642Y-34497657D01*
X154277785Y-34552085D01*
X154060071Y-34606514D01*
X153896785Y-34606514D01*
X153679071Y-34552085D01*
X153570214Y-34497657D01*
X153461357Y-34388800D01*
X153406928Y-34225514D01*
X153406928Y-33953371D01*
X154441071Y-35041942D02*
X154495500Y-35096371D01*
X154549928Y-35205228D01*
X154549928Y-35477371D01*
X154495500Y-35586228D01*
X154441071Y-35640657D01*
X154332214Y-35695085D01*
X154223357Y-35695085D01*
X154060071Y-35640657D01*
X153406928Y-34987514D01*
X153406928Y-35695085D01*
X154549928Y-36076085D02*
X154549928Y-36783657D01*
X154114500Y-36402657D01*
X154114500Y-36565942D01*
X154060071Y-36674800D01*
X154005642Y-36729228D01*
X153896785Y-36783657D01*
X153624642Y-36783657D01*
X153515785Y-36729228D01*
X153461357Y-36674800D01*
X153406928Y-36565942D01*
X153406928Y-36239371D01*
X153461357Y-36130514D01*
X153515785Y-36076085D01*
%TO.C,LED24*%
X159375928Y-38761228D02*
X159375928Y-38216942D01*
X160518928Y-38216942D01*
X159974642Y-39142228D02*
X159974642Y-39523228D01*
X159375928Y-39686514D02*
X159375928Y-39142228D01*
X160518928Y-39142228D01*
X160518928Y-39686514D01*
X159375928Y-40176371D02*
X160518928Y-40176371D01*
X160518928Y-40448514D01*
X160464500Y-40611800D01*
X160355642Y-40720657D01*
X160246785Y-40775085D01*
X160029071Y-40829514D01*
X159865785Y-40829514D01*
X159648071Y-40775085D01*
X159539214Y-40720657D01*
X159430357Y-40611800D01*
X159375928Y-40448514D01*
X159375928Y-40176371D01*
X160410071Y-41264942D02*
X160464500Y-41319371D01*
X160518928Y-41428228D01*
X160518928Y-41700371D01*
X160464500Y-41809228D01*
X160410071Y-41863657D01*
X160301214Y-41918085D01*
X160192357Y-41918085D01*
X160029071Y-41863657D01*
X159375928Y-41210514D01*
X159375928Y-41918085D01*
X160137928Y-42897800D02*
X159375928Y-42897800D01*
X160573357Y-42625657D02*
X159756928Y-42353514D01*
X159756928Y-43061085D01*
%TO.C,LED25*%
X165471928Y-44857228D02*
X165471928Y-44312942D01*
X166614928Y-44312942D01*
X166070642Y-45238228D02*
X166070642Y-45619228D01*
X165471928Y-45782514D02*
X165471928Y-45238228D01*
X166614928Y-45238228D01*
X166614928Y-45782514D01*
X165471928Y-46272371D02*
X166614928Y-46272371D01*
X166614928Y-46544514D01*
X166560500Y-46707800D01*
X166451642Y-46816657D01*
X166342785Y-46871085D01*
X166125071Y-46925514D01*
X165961785Y-46925514D01*
X165744071Y-46871085D01*
X165635214Y-46816657D01*
X165526357Y-46707800D01*
X165471928Y-46544514D01*
X165471928Y-46272371D01*
X166506071Y-47360942D02*
X166560500Y-47415371D01*
X166614928Y-47524228D01*
X166614928Y-47796371D01*
X166560500Y-47905228D01*
X166506071Y-47959657D01*
X166397214Y-48014085D01*
X166288357Y-48014085D01*
X166125071Y-47959657D01*
X165471928Y-47306514D01*
X165471928Y-48014085D01*
X166614928Y-49048228D02*
X166614928Y-48503942D01*
X166070642Y-48449514D01*
X166125071Y-48503942D01*
X166179500Y-48612800D01*
X166179500Y-48884942D01*
X166125071Y-48993800D01*
X166070642Y-49048228D01*
X165961785Y-49102657D01*
X165689642Y-49102657D01*
X165580785Y-49048228D01*
X165526357Y-48993800D01*
X165471928Y-48884942D01*
X165471928Y-48612800D01*
X165526357Y-48503942D01*
X165580785Y-48449514D01*
%TO.C,LED26*%
X171440928Y-50826228D02*
X171440928Y-50281942D01*
X172583928Y-50281942D01*
X172039642Y-51207228D02*
X172039642Y-51588228D01*
X171440928Y-51751514D02*
X171440928Y-51207228D01*
X172583928Y-51207228D01*
X172583928Y-51751514D01*
X171440928Y-52241371D02*
X172583928Y-52241371D01*
X172583928Y-52513514D01*
X172529500Y-52676800D01*
X172420642Y-52785657D01*
X172311785Y-52840085D01*
X172094071Y-52894514D01*
X171930785Y-52894514D01*
X171713071Y-52840085D01*
X171604214Y-52785657D01*
X171495357Y-52676800D01*
X171440928Y-52513514D01*
X171440928Y-52241371D01*
X172475071Y-53329942D02*
X172529500Y-53384371D01*
X172583928Y-53493228D01*
X172583928Y-53765371D01*
X172529500Y-53874228D01*
X172475071Y-53928657D01*
X172366214Y-53983085D01*
X172257357Y-53983085D01*
X172094071Y-53928657D01*
X171440928Y-53275514D01*
X171440928Y-53983085D01*
X172583928Y-54962800D02*
X172583928Y-54745085D01*
X172529500Y-54636228D01*
X172475071Y-54581800D01*
X172311785Y-54472942D01*
X172094071Y-54418514D01*
X171658642Y-54418514D01*
X171549785Y-54472942D01*
X171495357Y-54527371D01*
X171440928Y-54636228D01*
X171440928Y-54853942D01*
X171495357Y-54962800D01*
X171549785Y-55017228D01*
X171658642Y-55071657D01*
X171930785Y-55071657D01*
X172039642Y-55017228D01*
X172094071Y-54962800D01*
X172148500Y-54853942D01*
X172148500Y-54636228D01*
X172094071Y-54527371D01*
X172039642Y-54472942D01*
X171930785Y-54418514D01*
%TO.C,LED27*%
X177409928Y-56922228D02*
X177409928Y-56377942D01*
X178552928Y-56377942D01*
X178008642Y-57303228D02*
X178008642Y-57684228D01*
X177409928Y-57847514D02*
X177409928Y-57303228D01*
X178552928Y-57303228D01*
X178552928Y-57847514D01*
X177409928Y-58337371D02*
X178552928Y-58337371D01*
X178552928Y-58609514D01*
X178498500Y-58772800D01*
X178389642Y-58881657D01*
X178280785Y-58936085D01*
X178063071Y-58990514D01*
X177899785Y-58990514D01*
X177682071Y-58936085D01*
X177573214Y-58881657D01*
X177464357Y-58772800D01*
X177409928Y-58609514D01*
X177409928Y-58337371D01*
X178444071Y-59425942D02*
X178498500Y-59480371D01*
X178552928Y-59589228D01*
X178552928Y-59861371D01*
X178498500Y-59970228D01*
X178444071Y-60024657D01*
X178335214Y-60079085D01*
X178226357Y-60079085D01*
X178063071Y-60024657D01*
X177409928Y-59371514D01*
X177409928Y-60079085D01*
X178552928Y-60460085D02*
X178552928Y-61222085D01*
X177409928Y-60732228D01*
%TO.C,LED28*%
X183378928Y-62764228D02*
X183378928Y-62219942D01*
X184521928Y-62219942D01*
X183977642Y-63145228D02*
X183977642Y-63526228D01*
X183378928Y-63689514D02*
X183378928Y-63145228D01*
X184521928Y-63145228D01*
X184521928Y-63689514D01*
X183378928Y-64179371D02*
X184521928Y-64179371D01*
X184521928Y-64451514D01*
X184467500Y-64614800D01*
X184358642Y-64723657D01*
X184249785Y-64778085D01*
X184032071Y-64832514D01*
X183868785Y-64832514D01*
X183651071Y-64778085D01*
X183542214Y-64723657D01*
X183433357Y-64614800D01*
X183378928Y-64451514D01*
X183378928Y-64179371D01*
X184413071Y-65267942D02*
X184467500Y-65322371D01*
X184521928Y-65431228D01*
X184521928Y-65703371D01*
X184467500Y-65812228D01*
X184413071Y-65866657D01*
X184304214Y-65921085D01*
X184195357Y-65921085D01*
X184032071Y-65866657D01*
X183378928Y-65213514D01*
X183378928Y-65921085D01*
X184032071Y-66574228D02*
X184086500Y-66465371D01*
X184140928Y-66410942D01*
X184249785Y-66356514D01*
X184304214Y-66356514D01*
X184413071Y-66410942D01*
X184467500Y-66465371D01*
X184521928Y-66574228D01*
X184521928Y-66791942D01*
X184467500Y-66900800D01*
X184413071Y-66955228D01*
X184304214Y-67009657D01*
X184249785Y-67009657D01*
X184140928Y-66955228D01*
X184086500Y-66900800D01*
X184032071Y-66791942D01*
X184032071Y-66574228D01*
X183977642Y-66465371D01*
X183923214Y-66410942D01*
X183814357Y-66356514D01*
X183596642Y-66356514D01*
X183487785Y-66410942D01*
X183433357Y-66465371D01*
X183378928Y-66574228D01*
X183378928Y-66791942D01*
X183433357Y-66900800D01*
X183487785Y-66955228D01*
X183596642Y-67009657D01*
X183814357Y-67009657D01*
X183923214Y-66955228D01*
X183977642Y-66900800D01*
X184032071Y-66791942D01*
%TO.C,LED29*%
X177409928Y-68987228D02*
X177409928Y-68442942D01*
X178552928Y-68442942D01*
X178008642Y-69368228D02*
X178008642Y-69749228D01*
X177409928Y-69912514D02*
X177409928Y-69368228D01*
X178552928Y-69368228D01*
X178552928Y-69912514D01*
X177409928Y-70402371D02*
X178552928Y-70402371D01*
X178552928Y-70674514D01*
X178498500Y-70837800D01*
X178389642Y-70946657D01*
X178280785Y-71001085D01*
X178063071Y-71055514D01*
X177899785Y-71055514D01*
X177682071Y-71001085D01*
X177573214Y-70946657D01*
X177464357Y-70837800D01*
X177409928Y-70674514D01*
X177409928Y-70402371D01*
X178444071Y-71490942D02*
X178498500Y-71545371D01*
X178552928Y-71654228D01*
X178552928Y-71926371D01*
X178498500Y-72035228D01*
X178444071Y-72089657D01*
X178335214Y-72144085D01*
X178226357Y-72144085D01*
X178063071Y-72089657D01*
X177409928Y-71436514D01*
X177409928Y-72144085D01*
X177409928Y-72688371D02*
X177409928Y-72906085D01*
X177464357Y-73014942D01*
X177518785Y-73069371D01*
X177682071Y-73178228D01*
X177899785Y-73232657D01*
X178335214Y-73232657D01*
X178444071Y-73178228D01*
X178498500Y-73123800D01*
X178552928Y-73014942D01*
X178552928Y-72797228D01*
X178498500Y-72688371D01*
X178444071Y-72633942D01*
X178335214Y-72579514D01*
X178063071Y-72579514D01*
X177954214Y-72633942D01*
X177899785Y-72688371D01*
X177845357Y-72797228D01*
X177845357Y-73014942D01*
X177899785Y-73123800D01*
X177954214Y-73178228D01*
X178063071Y-73232657D01*
%TO.C,LED31*%
X165217928Y-81179228D02*
X165217928Y-80634942D01*
X166360928Y-80634942D01*
X165816642Y-81560228D02*
X165816642Y-81941228D01*
X165217928Y-82104514D02*
X165217928Y-81560228D01*
X166360928Y-81560228D01*
X166360928Y-82104514D01*
X165217928Y-82594371D02*
X166360928Y-82594371D01*
X166360928Y-82866514D01*
X166306500Y-83029800D01*
X166197642Y-83138657D01*
X166088785Y-83193085D01*
X165871071Y-83247514D01*
X165707785Y-83247514D01*
X165490071Y-83193085D01*
X165381214Y-83138657D01*
X165272357Y-83029800D01*
X165217928Y-82866514D01*
X165217928Y-82594371D01*
X166360928Y-83628514D02*
X166360928Y-84336085D01*
X165925500Y-83955085D01*
X165925500Y-84118371D01*
X165871071Y-84227228D01*
X165816642Y-84281657D01*
X165707785Y-84336085D01*
X165435642Y-84336085D01*
X165326785Y-84281657D01*
X165272357Y-84227228D01*
X165217928Y-84118371D01*
X165217928Y-83791800D01*
X165272357Y-83682942D01*
X165326785Y-83628514D01*
X165217928Y-85424657D02*
X165217928Y-84771514D01*
X165217928Y-85098085D02*
X166360928Y-85098085D01*
X166197642Y-84989228D01*
X166088785Y-84880371D01*
X166034357Y-84771514D01*
%TO.C,LED32*%
X159121928Y-87148228D02*
X159121928Y-86603942D01*
X160264928Y-86603942D01*
X159720642Y-87529228D02*
X159720642Y-87910228D01*
X159121928Y-88073514D02*
X159121928Y-87529228D01*
X160264928Y-87529228D01*
X160264928Y-88073514D01*
X159121928Y-88563371D02*
X160264928Y-88563371D01*
X160264928Y-88835514D01*
X160210500Y-88998800D01*
X160101642Y-89107657D01*
X159992785Y-89162085D01*
X159775071Y-89216514D01*
X159611785Y-89216514D01*
X159394071Y-89162085D01*
X159285214Y-89107657D01*
X159176357Y-88998800D01*
X159121928Y-88835514D01*
X159121928Y-88563371D01*
X160264928Y-89597514D02*
X160264928Y-90305085D01*
X159829500Y-89924085D01*
X159829500Y-90087371D01*
X159775071Y-90196228D01*
X159720642Y-90250657D01*
X159611785Y-90305085D01*
X159339642Y-90305085D01*
X159230785Y-90250657D01*
X159176357Y-90196228D01*
X159121928Y-90087371D01*
X159121928Y-89760800D01*
X159176357Y-89651942D01*
X159230785Y-89597514D01*
X160156071Y-90740514D02*
X160210500Y-90794942D01*
X160264928Y-90903800D01*
X160264928Y-91175942D01*
X160210500Y-91284800D01*
X160156071Y-91339228D01*
X160047214Y-91393657D01*
X159938357Y-91393657D01*
X159775071Y-91339228D01*
X159121928Y-90686085D01*
X159121928Y-91393657D01*
%TO.C,LED33*%
X153152928Y-92990228D02*
X153152928Y-92445942D01*
X154295928Y-92445942D01*
X153751642Y-93371228D02*
X153751642Y-93752228D01*
X153152928Y-93915514D02*
X153152928Y-93371228D01*
X154295928Y-93371228D01*
X154295928Y-93915514D01*
X153152928Y-94405371D02*
X154295928Y-94405371D01*
X154295928Y-94677514D01*
X154241500Y-94840800D01*
X154132642Y-94949657D01*
X154023785Y-95004085D01*
X153806071Y-95058514D01*
X153642785Y-95058514D01*
X153425071Y-95004085D01*
X153316214Y-94949657D01*
X153207357Y-94840800D01*
X153152928Y-94677514D01*
X153152928Y-94405371D01*
X154295928Y-95439514D02*
X154295928Y-96147085D01*
X153860500Y-95766085D01*
X153860500Y-95929371D01*
X153806071Y-96038228D01*
X153751642Y-96092657D01*
X153642785Y-96147085D01*
X153370642Y-96147085D01*
X153261785Y-96092657D01*
X153207357Y-96038228D01*
X153152928Y-95929371D01*
X153152928Y-95602800D01*
X153207357Y-95493942D01*
X153261785Y-95439514D01*
X154295928Y-96528085D02*
X154295928Y-97235657D01*
X153860500Y-96854657D01*
X153860500Y-97017942D01*
X153806071Y-97126800D01*
X153751642Y-97181228D01*
X153642785Y-97235657D01*
X153370642Y-97235657D01*
X153261785Y-97181228D01*
X153207357Y-97126800D01*
X153152928Y-97017942D01*
X153152928Y-96691371D01*
X153207357Y-96582514D01*
X153261785Y-96528085D01*
%TO.C,LED34*%
X152663071Y-95985771D02*
X152663071Y-96530057D01*
X151520071Y-96530057D01*
X152064357Y-95604771D02*
X152064357Y-95223771D01*
X152663071Y-95060485D02*
X152663071Y-95604771D01*
X151520071Y-95604771D01*
X151520071Y-95060485D01*
X152663071Y-94570628D02*
X151520071Y-94570628D01*
X151520071Y-94298485D01*
X151574500Y-94135200D01*
X151683357Y-94026342D01*
X151792214Y-93971914D01*
X152009928Y-93917485D01*
X152173214Y-93917485D01*
X152390928Y-93971914D01*
X152499785Y-94026342D01*
X152608642Y-94135200D01*
X152663071Y-94298485D01*
X152663071Y-94570628D01*
X151520071Y-93536485D02*
X151520071Y-92828914D01*
X151955500Y-93209914D01*
X151955500Y-93046628D01*
X152009928Y-92937771D01*
X152064357Y-92883342D01*
X152173214Y-92828914D01*
X152445357Y-92828914D01*
X152554214Y-92883342D01*
X152608642Y-92937771D01*
X152663071Y-93046628D01*
X152663071Y-93373200D01*
X152608642Y-93482057D01*
X152554214Y-93536485D01*
X151901071Y-91849200D02*
X152663071Y-91849200D01*
X151465642Y-92121342D02*
X152282071Y-92393485D01*
X152282071Y-91685914D01*
%TO.C,LED35*%
X146694071Y-90143771D02*
X146694071Y-90688057D01*
X145551071Y-90688057D01*
X146095357Y-89762771D02*
X146095357Y-89381771D01*
X146694071Y-89218485D02*
X146694071Y-89762771D01*
X145551071Y-89762771D01*
X145551071Y-89218485D01*
X146694071Y-88728628D02*
X145551071Y-88728628D01*
X145551071Y-88456485D01*
X145605500Y-88293200D01*
X145714357Y-88184342D01*
X145823214Y-88129914D01*
X146040928Y-88075485D01*
X146204214Y-88075485D01*
X146421928Y-88129914D01*
X146530785Y-88184342D01*
X146639642Y-88293200D01*
X146694071Y-88456485D01*
X146694071Y-88728628D01*
X145551071Y-87694485D02*
X145551071Y-86986914D01*
X145986500Y-87367914D01*
X145986500Y-87204628D01*
X146040928Y-87095771D01*
X146095357Y-87041342D01*
X146204214Y-86986914D01*
X146476357Y-86986914D01*
X146585214Y-87041342D01*
X146639642Y-87095771D01*
X146694071Y-87204628D01*
X146694071Y-87531200D01*
X146639642Y-87640057D01*
X146585214Y-87694485D01*
X145551071Y-85952771D02*
X145551071Y-86497057D01*
X146095357Y-86551485D01*
X146040928Y-86497057D01*
X145986500Y-86388200D01*
X145986500Y-86116057D01*
X146040928Y-86007200D01*
X146095357Y-85952771D01*
X146204214Y-85898342D01*
X146476357Y-85898342D01*
X146585214Y-85952771D01*
X146639642Y-86007200D01*
X146694071Y-86116057D01*
X146694071Y-86388200D01*
X146639642Y-86497057D01*
X146585214Y-86551485D01*
%TO.C,LED36*%
X140852071Y-84047771D02*
X140852071Y-84592057D01*
X139709071Y-84592057D01*
X140253357Y-83666771D02*
X140253357Y-83285771D01*
X140852071Y-83122485D02*
X140852071Y-83666771D01*
X139709071Y-83666771D01*
X139709071Y-83122485D01*
X140852071Y-82632628D02*
X139709071Y-82632628D01*
X139709071Y-82360485D01*
X139763500Y-82197200D01*
X139872357Y-82088342D01*
X139981214Y-82033914D01*
X140198928Y-81979485D01*
X140362214Y-81979485D01*
X140579928Y-82033914D01*
X140688785Y-82088342D01*
X140797642Y-82197200D01*
X140852071Y-82360485D01*
X140852071Y-82632628D01*
X139709071Y-81598485D02*
X139709071Y-80890914D01*
X140144500Y-81271914D01*
X140144500Y-81108628D01*
X140198928Y-80999771D01*
X140253357Y-80945342D01*
X140362214Y-80890914D01*
X140634357Y-80890914D01*
X140743214Y-80945342D01*
X140797642Y-80999771D01*
X140852071Y-81108628D01*
X140852071Y-81435200D01*
X140797642Y-81544057D01*
X140743214Y-81598485D01*
X139709071Y-79911200D02*
X139709071Y-80128914D01*
X139763500Y-80237771D01*
X139817928Y-80292200D01*
X139981214Y-80401057D01*
X140198928Y-80455485D01*
X140634357Y-80455485D01*
X140743214Y-80401057D01*
X140797642Y-80346628D01*
X140852071Y-80237771D01*
X140852071Y-80020057D01*
X140797642Y-79911200D01*
X140743214Y-79856771D01*
X140634357Y-79802342D01*
X140362214Y-79802342D01*
X140253357Y-79856771D01*
X140198928Y-79911200D01*
X140144500Y-80020057D01*
X140144500Y-80237771D01*
X140198928Y-80346628D01*
X140253357Y-80401057D01*
X140362214Y-80455485D01*
%TO.C,LED37*%
X134502071Y-77697771D02*
X134502071Y-78242057D01*
X133359071Y-78242057D01*
X133903357Y-77316771D02*
X133903357Y-76935771D01*
X134502071Y-76772485D02*
X134502071Y-77316771D01*
X133359071Y-77316771D01*
X133359071Y-76772485D01*
X134502071Y-76282628D02*
X133359071Y-76282628D01*
X133359071Y-76010485D01*
X133413500Y-75847200D01*
X133522357Y-75738342D01*
X133631214Y-75683914D01*
X133848928Y-75629485D01*
X134012214Y-75629485D01*
X134229928Y-75683914D01*
X134338785Y-75738342D01*
X134447642Y-75847200D01*
X134502071Y-76010485D01*
X134502071Y-76282628D01*
X133359071Y-75248485D02*
X133359071Y-74540914D01*
X133794500Y-74921914D01*
X133794500Y-74758628D01*
X133848928Y-74649771D01*
X133903357Y-74595342D01*
X134012214Y-74540914D01*
X134284357Y-74540914D01*
X134393214Y-74595342D01*
X134447642Y-74649771D01*
X134502071Y-74758628D01*
X134502071Y-75085200D01*
X134447642Y-75194057D01*
X134393214Y-75248485D01*
X133359071Y-74159914D02*
X133359071Y-73397914D01*
X134502071Y-73887771D01*
%TO.C,LED38*%
X128406071Y-71855771D02*
X128406071Y-72400057D01*
X127263071Y-72400057D01*
X127807357Y-71474771D02*
X127807357Y-71093771D01*
X128406071Y-70930485D02*
X128406071Y-71474771D01*
X127263071Y-71474771D01*
X127263071Y-70930485D01*
X128406071Y-70440628D02*
X127263071Y-70440628D01*
X127263071Y-70168485D01*
X127317500Y-70005200D01*
X127426357Y-69896342D01*
X127535214Y-69841914D01*
X127752928Y-69787485D01*
X127916214Y-69787485D01*
X128133928Y-69841914D01*
X128242785Y-69896342D01*
X128351642Y-70005200D01*
X128406071Y-70168485D01*
X128406071Y-70440628D01*
X127263071Y-69406485D02*
X127263071Y-68698914D01*
X127698500Y-69079914D01*
X127698500Y-68916628D01*
X127752928Y-68807771D01*
X127807357Y-68753342D01*
X127916214Y-68698914D01*
X128188357Y-68698914D01*
X128297214Y-68753342D01*
X128351642Y-68807771D01*
X128406071Y-68916628D01*
X128406071Y-69243200D01*
X128351642Y-69352057D01*
X128297214Y-69406485D01*
X127752928Y-68045771D02*
X127698500Y-68154628D01*
X127644071Y-68209057D01*
X127535214Y-68263485D01*
X127480785Y-68263485D01*
X127371928Y-68209057D01*
X127317500Y-68154628D01*
X127263071Y-68045771D01*
X127263071Y-67828057D01*
X127317500Y-67719200D01*
X127371928Y-67664771D01*
X127480785Y-67610342D01*
X127535214Y-67610342D01*
X127644071Y-67664771D01*
X127698500Y-67719200D01*
X127752928Y-67828057D01*
X127752928Y-68045771D01*
X127807357Y-68154628D01*
X127861785Y-68209057D01*
X127970642Y-68263485D01*
X128188357Y-68263485D01*
X128297214Y-68209057D01*
X128351642Y-68154628D01*
X128406071Y-68045771D01*
X128406071Y-67828057D01*
X128351642Y-67719200D01*
X128297214Y-67664771D01*
X128188357Y-67610342D01*
X127970642Y-67610342D01*
X127861785Y-67664771D01*
X127807357Y-67719200D01*
X127752928Y-67828057D01*
%TO.C,LED39*%
X122564071Y-65886771D02*
X122564071Y-66431057D01*
X121421071Y-66431057D01*
X121965357Y-65505771D02*
X121965357Y-65124771D01*
X122564071Y-64961485D02*
X122564071Y-65505771D01*
X121421071Y-65505771D01*
X121421071Y-64961485D01*
X122564071Y-64471628D02*
X121421071Y-64471628D01*
X121421071Y-64199485D01*
X121475500Y-64036200D01*
X121584357Y-63927342D01*
X121693214Y-63872914D01*
X121910928Y-63818485D01*
X122074214Y-63818485D01*
X122291928Y-63872914D01*
X122400785Y-63927342D01*
X122509642Y-64036200D01*
X122564071Y-64199485D01*
X122564071Y-64471628D01*
X121421071Y-63437485D02*
X121421071Y-62729914D01*
X121856500Y-63110914D01*
X121856500Y-62947628D01*
X121910928Y-62838771D01*
X121965357Y-62784342D01*
X122074214Y-62729914D01*
X122346357Y-62729914D01*
X122455214Y-62784342D01*
X122509642Y-62838771D01*
X122564071Y-62947628D01*
X122564071Y-63274200D01*
X122509642Y-63383057D01*
X122455214Y-63437485D01*
X122564071Y-62185628D02*
X122564071Y-61967914D01*
X122509642Y-61859057D01*
X122455214Y-61804628D01*
X122291928Y-61695771D01*
X122074214Y-61641342D01*
X121638785Y-61641342D01*
X121529928Y-61695771D01*
X121475500Y-61750200D01*
X121421071Y-61859057D01*
X121421071Y-62076771D01*
X121475500Y-62185628D01*
X121529928Y-62240057D01*
X121638785Y-62294485D01*
X121910928Y-62294485D01*
X122019785Y-62240057D01*
X122074214Y-62185628D01*
X122128642Y-62076771D01*
X122128642Y-61859057D01*
X122074214Y-61750200D01*
X122019785Y-61695771D01*
X121910928Y-61641342D01*
%TO.C,LED40*%
X128533071Y-59790771D02*
X128533071Y-60335057D01*
X127390071Y-60335057D01*
X127934357Y-59409771D02*
X127934357Y-59028771D01*
X128533071Y-58865485D02*
X128533071Y-59409771D01*
X127390071Y-59409771D01*
X127390071Y-58865485D01*
X128533071Y-58375628D02*
X127390071Y-58375628D01*
X127390071Y-58103485D01*
X127444500Y-57940200D01*
X127553357Y-57831342D01*
X127662214Y-57776914D01*
X127879928Y-57722485D01*
X128043214Y-57722485D01*
X128260928Y-57776914D01*
X128369785Y-57831342D01*
X128478642Y-57940200D01*
X128533071Y-58103485D01*
X128533071Y-58375628D01*
X127771071Y-56742771D02*
X128533071Y-56742771D01*
X127335642Y-57014914D02*
X128152071Y-57287057D01*
X128152071Y-56579485D01*
X127390071Y-55926342D02*
X127390071Y-55817485D01*
X127444500Y-55708628D01*
X127498928Y-55654200D01*
X127607785Y-55599771D01*
X127825500Y-55545342D01*
X128097642Y-55545342D01*
X128315357Y-55599771D01*
X128424214Y-55654200D01*
X128478642Y-55708628D01*
X128533071Y-55817485D01*
X128533071Y-55926342D01*
X128478642Y-56035200D01*
X128424214Y-56089628D01*
X128315357Y-56144057D01*
X128097642Y-56198485D01*
X127825500Y-56198485D01*
X127607785Y-56144057D01*
X127498928Y-56089628D01*
X127444500Y-56035200D01*
X127390071Y-55926342D01*
%TO.C,LED41*%
X134502071Y-53694771D02*
X134502071Y-54239057D01*
X133359071Y-54239057D01*
X133903357Y-53313771D02*
X133903357Y-52932771D01*
X134502071Y-52769485D02*
X134502071Y-53313771D01*
X133359071Y-53313771D01*
X133359071Y-52769485D01*
X134502071Y-52279628D02*
X133359071Y-52279628D01*
X133359071Y-52007485D01*
X133413500Y-51844200D01*
X133522357Y-51735342D01*
X133631214Y-51680914D01*
X133848928Y-51626485D01*
X134012214Y-51626485D01*
X134229928Y-51680914D01*
X134338785Y-51735342D01*
X134447642Y-51844200D01*
X134502071Y-52007485D01*
X134502071Y-52279628D01*
X133740071Y-50646771D02*
X134502071Y-50646771D01*
X133304642Y-50918914D02*
X134121071Y-51191057D01*
X134121071Y-50483485D01*
X134502071Y-49449342D02*
X134502071Y-50102485D01*
X134502071Y-49775914D02*
X133359071Y-49775914D01*
X133522357Y-49884771D01*
X133631214Y-49993628D01*
X133685642Y-50102485D01*
%TO.C,LED42*%
X140471071Y-47852771D02*
X140471071Y-48397057D01*
X139328071Y-48397057D01*
X139872357Y-47471771D02*
X139872357Y-47090771D01*
X140471071Y-46927485D02*
X140471071Y-47471771D01*
X139328071Y-47471771D01*
X139328071Y-46927485D01*
X140471071Y-46437628D02*
X139328071Y-46437628D01*
X139328071Y-46165485D01*
X139382500Y-46002200D01*
X139491357Y-45893342D01*
X139600214Y-45838914D01*
X139817928Y-45784485D01*
X139981214Y-45784485D01*
X140198928Y-45838914D01*
X140307785Y-45893342D01*
X140416642Y-46002200D01*
X140471071Y-46165485D01*
X140471071Y-46437628D01*
X139709071Y-44804771D02*
X140471071Y-44804771D01*
X139273642Y-45076914D02*
X140090071Y-45349057D01*
X140090071Y-44641485D01*
X139436928Y-44260485D02*
X139382500Y-44206057D01*
X139328071Y-44097200D01*
X139328071Y-43825057D01*
X139382500Y-43716200D01*
X139436928Y-43661771D01*
X139545785Y-43607342D01*
X139654642Y-43607342D01*
X139817928Y-43661771D01*
X140471071Y-44314914D01*
X140471071Y-43607342D01*
%TO.C,LED43*%
X146567071Y-41883771D02*
X146567071Y-42428057D01*
X145424071Y-42428057D01*
X145968357Y-41502771D02*
X145968357Y-41121771D01*
X146567071Y-40958485D02*
X146567071Y-41502771D01*
X145424071Y-41502771D01*
X145424071Y-40958485D01*
X146567071Y-40468628D02*
X145424071Y-40468628D01*
X145424071Y-40196485D01*
X145478500Y-40033200D01*
X145587357Y-39924342D01*
X145696214Y-39869914D01*
X145913928Y-39815485D01*
X146077214Y-39815485D01*
X146294928Y-39869914D01*
X146403785Y-39924342D01*
X146512642Y-40033200D01*
X146567071Y-40196485D01*
X146567071Y-40468628D01*
X145805071Y-38835771D02*
X146567071Y-38835771D01*
X145369642Y-39107914D02*
X146186071Y-39380057D01*
X146186071Y-38672485D01*
X145424071Y-38345914D02*
X145424071Y-37638342D01*
X145859500Y-38019342D01*
X145859500Y-37856057D01*
X145913928Y-37747200D01*
X145968357Y-37692771D01*
X146077214Y-37638342D01*
X146349357Y-37638342D01*
X146458214Y-37692771D01*
X146512642Y-37747200D01*
X146567071Y-37856057D01*
X146567071Y-38182628D01*
X146512642Y-38291485D01*
X146458214Y-38345914D01*
%TO.C,LED44*%
X152409071Y-35914771D02*
X152409071Y-36459057D01*
X151266071Y-36459057D01*
X151810357Y-35533771D02*
X151810357Y-35152771D01*
X152409071Y-34989485D02*
X152409071Y-35533771D01*
X151266071Y-35533771D01*
X151266071Y-34989485D01*
X152409071Y-34499628D02*
X151266071Y-34499628D01*
X151266071Y-34227485D01*
X151320500Y-34064200D01*
X151429357Y-33955342D01*
X151538214Y-33900914D01*
X151755928Y-33846485D01*
X151919214Y-33846485D01*
X152136928Y-33900914D01*
X152245785Y-33955342D01*
X152354642Y-34064200D01*
X152409071Y-34227485D01*
X152409071Y-34499628D01*
X151647071Y-32866771D02*
X152409071Y-32866771D01*
X151211642Y-33138914D02*
X152028071Y-33411057D01*
X152028071Y-32703485D01*
X151647071Y-31778200D02*
X152409071Y-31778200D01*
X151211642Y-32050342D02*
X152028071Y-32322485D01*
X152028071Y-31614914D01*
%TO.C,LED45*%
X137677071Y-95731771D02*
X137677071Y-96276057D01*
X136534071Y-96276057D01*
X137078357Y-95350771D02*
X137078357Y-94969771D01*
X137677071Y-94806485D02*
X137677071Y-95350771D01*
X136534071Y-95350771D01*
X136534071Y-94806485D01*
X137677071Y-94316628D02*
X136534071Y-94316628D01*
X136534071Y-94044485D01*
X136588500Y-93881200D01*
X136697357Y-93772342D01*
X136806214Y-93717914D01*
X137023928Y-93663485D01*
X137187214Y-93663485D01*
X137404928Y-93717914D01*
X137513785Y-93772342D01*
X137622642Y-93881200D01*
X137677071Y-94044485D01*
X137677071Y-94316628D01*
X136915071Y-92683771D02*
X137677071Y-92683771D01*
X136479642Y-92955914D02*
X137296071Y-93228057D01*
X137296071Y-92520485D01*
X136534071Y-91540771D02*
X136534071Y-92085057D01*
X137078357Y-92139485D01*
X137023928Y-92085057D01*
X136969500Y-91976200D01*
X136969500Y-91704057D01*
X137023928Y-91595200D01*
X137078357Y-91540771D01*
X137187214Y-91486342D01*
X137459357Y-91486342D01*
X137568214Y-91540771D01*
X137622642Y-91595200D01*
X137677071Y-91704057D01*
X137677071Y-91976200D01*
X137622642Y-92085057D01*
X137568214Y-92139485D01*
%TO.C,LED46*%
X131708071Y-89889771D02*
X131708071Y-90434057D01*
X130565071Y-90434057D01*
X131109357Y-89508771D02*
X131109357Y-89127771D01*
X131708071Y-88964485D02*
X131708071Y-89508771D01*
X130565071Y-89508771D01*
X130565071Y-88964485D01*
X131708071Y-88474628D02*
X130565071Y-88474628D01*
X130565071Y-88202485D01*
X130619500Y-88039200D01*
X130728357Y-87930342D01*
X130837214Y-87875914D01*
X131054928Y-87821485D01*
X131218214Y-87821485D01*
X131435928Y-87875914D01*
X131544785Y-87930342D01*
X131653642Y-88039200D01*
X131708071Y-88202485D01*
X131708071Y-88474628D01*
X130946071Y-86841771D02*
X131708071Y-86841771D01*
X130510642Y-87113914D02*
X131327071Y-87386057D01*
X131327071Y-86678485D01*
X130565071Y-85753200D02*
X130565071Y-85970914D01*
X130619500Y-86079771D01*
X130673928Y-86134200D01*
X130837214Y-86243057D01*
X131054928Y-86297485D01*
X131490357Y-86297485D01*
X131599214Y-86243057D01*
X131653642Y-86188628D01*
X131708071Y-86079771D01*
X131708071Y-85862057D01*
X131653642Y-85753200D01*
X131599214Y-85698771D01*
X131490357Y-85644342D01*
X131218214Y-85644342D01*
X131109357Y-85698771D01*
X131054928Y-85753200D01*
X131000500Y-85862057D01*
X131000500Y-86079771D01*
X131054928Y-86188628D01*
X131109357Y-86243057D01*
X131218214Y-86297485D01*
%TO.C,LED47*%
X125739071Y-83920771D02*
X125739071Y-84465057D01*
X124596071Y-84465057D01*
X125140357Y-83539771D02*
X125140357Y-83158771D01*
X125739071Y-82995485D02*
X125739071Y-83539771D01*
X124596071Y-83539771D01*
X124596071Y-82995485D01*
X125739071Y-82505628D02*
X124596071Y-82505628D01*
X124596071Y-82233485D01*
X124650500Y-82070200D01*
X124759357Y-81961342D01*
X124868214Y-81906914D01*
X125085928Y-81852485D01*
X125249214Y-81852485D01*
X125466928Y-81906914D01*
X125575785Y-81961342D01*
X125684642Y-82070200D01*
X125739071Y-82233485D01*
X125739071Y-82505628D01*
X124977071Y-80872771D02*
X125739071Y-80872771D01*
X124541642Y-81144914D02*
X125358071Y-81417057D01*
X125358071Y-80709485D01*
X124596071Y-80382914D02*
X124596071Y-79620914D01*
X125739071Y-80110771D01*
%TO.C,LED48*%
X119516071Y-77824771D02*
X119516071Y-78369057D01*
X118373071Y-78369057D01*
X118917357Y-77443771D02*
X118917357Y-77062771D01*
X119516071Y-76899485D02*
X119516071Y-77443771D01*
X118373071Y-77443771D01*
X118373071Y-76899485D01*
X119516071Y-76409628D02*
X118373071Y-76409628D01*
X118373071Y-76137485D01*
X118427500Y-75974200D01*
X118536357Y-75865342D01*
X118645214Y-75810914D01*
X118862928Y-75756485D01*
X119026214Y-75756485D01*
X119243928Y-75810914D01*
X119352785Y-75865342D01*
X119461642Y-75974200D01*
X119516071Y-76137485D01*
X119516071Y-76409628D01*
X118754071Y-74776771D02*
X119516071Y-74776771D01*
X118318642Y-75048914D02*
X119135071Y-75321057D01*
X119135071Y-74613485D01*
X118862928Y-74014771D02*
X118808500Y-74123628D01*
X118754071Y-74178057D01*
X118645214Y-74232485D01*
X118590785Y-74232485D01*
X118481928Y-74178057D01*
X118427500Y-74123628D01*
X118373071Y-74014771D01*
X118373071Y-73797057D01*
X118427500Y-73688200D01*
X118481928Y-73633771D01*
X118590785Y-73579342D01*
X118645214Y-73579342D01*
X118754071Y-73633771D01*
X118808500Y-73688200D01*
X118862928Y-73797057D01*
X118862928Y-74014771D01*
X118917357Y-74123628D01*
X118971785Y-74178057D01*
X119080642Y-74232485D01*
X119298357Y-74232485D01*
X119407214Y-74178057D01*
X119461642Y-74123628D01*
X119516071Y-74014771D01*
X119516071Y-73797057D01*
X119461642Y-73688200D01*
X119407214Y-73633771D01*
X119298357Y-73579342D01*
X119080642Y-73579342D01*
X118971785Y-73633771D01*
X118917357Y-73688200D01*
X118862928Y-73797057D01*
%TO.C,LED49*%
X113420071Y-71982771D02*
X113420071Y-72527057D01*
X112277071Y-72527057D01*
X112821357Y-71601771D02*
X112821357Y-71220771D01*
X113420071Y-71057485D02*
X113420071Y-71601771D01*
X112277071Y-71601771D01*
X112277071Y-71057485D01*
X113420071Y-70567628D02*
X112277071Y-70567628D01*
X112277071Y-70295485D01*
X112331500Y-70132200D01*
X112440357Y-70023342D01*
X112549214Y-69968914D01*
X112766928Y-69914485D01*
X112930214Y-69914485D01*
X113147928Y-69968914D01*
X113256785Y-70023342D01*
X113365642Y-70132200D01*
X113420071Y-70295485D01*
X113420071Y-70567628D01*
X112658071Y-68934771D02*
X113420071Y-68934771D01*
X112222642Y-69206914D02*
X113039071Y-69479057D01*
X113039071Y-68771485D01*
X113420071Y-68281628D02*
X113420071Y-68063914D01*
X113365642Y-67955057D01*
X113311214Y-67900628D01*
X113147928Y-67791771D01*
X112930214Y-67737342D01*
X112494785Y-67737342D01*
X112385928Y-67791771D01*
X112331500Y-67846200D01*
X112277071Y-67955057D01*
X112277071Y-68172771D01*
X112331500Y-68281628D01*
X112385928Y-68336057D01*
X112494785Y-68390485D01*
X112766928Y-68390485D01*
X112875785Y-68336057D01*
X112930214Y-68281628D01*
X112984642Y-68172771D01*
X112984642Y-67955057D01*
X112930214Y-67846200D01*
X112875785Y-67791771D01*
X112766928Y-67737342D01*
%TO.C,LED50*%
X107451071Y-66013771D02*
X107451071Y-66558057D01*
X106308071Y-66558057D01*
X106852357Y-65632771D02*
X106852357Y-65251771D01*
X107451071Y-65088485D02*
X107451071Y-65632771D01*
X106308071Y-65632771D01*
X106308071Y-65088485D01*
X107451071Y-64598628D02*
X106308071Y-64598628D01*
X106308071Y-64326485D01*
X106362500Y-64163200D01*
X106471357Y-64054342D01*
X106580214Y-63999914D01*
X106797928Y-63945485D01*
X106961214Y-63945485D01*
X107178928Y-63999914D01*
X107287785Y-64054342D01*
X107396642Y-64163200D01*
X107451071Y-64326485D01*
X107451071Y-64598628D01*
X106308071Y-62911342D02*
X106308071Y-63455628D01*
X106852357Y-63510057D01*
X106797928Y-63455628D01*
X106743500Y-63346771D01*
X106743500Y-63074628D01*
X106797928Y-62965771D01*
X106852357Y-62911342D01*
X106961214Y-62856914D01*
X107233357Y-62856914D01*
X107342214Y-62911342D01*
X107396642Y-62965771D01*
X107451071Y-63074628D01*
X107451071Y-63346771D01*
X107396642Y-63455628D01*
X107342214Y-63510057D01*
X106308071Y-62149342D02*
X106308071Y-62040485D01*
X106362500Y-61931628D01*
X106416928Y-61877200D01*
X106525785Y-61822771D01*
X106743500Y-61768342D01*
X107015642Y-61768342D01*
X107233357Y-61822771D01*
X107342214Y-61877200D01*
X107396642Y-61931628D01*
X107451071Y-62040485D01*
X107451071Y-62149342D01*
X107396642Y-62258200D01*
X107342214Y-62312628D01*
X107233357Y-62367057D01*
X107015642Y-62421485D01*
X106743500Y-62421485D01*
X106525785Y-62367057D01*
X106416928Y-62312628D01*
X106362500Y-62258200D01*
X106308071Y-62149342D01*
%TO.C,LED51*%
X113547071Y-59790771D02*
X113547071Y-60335057D01*
X112404071Y-60335057D01*
X112948357Y-59409771D02*
X112948357Y-59028771D01*
X113547071Y-58865485D02*
X113547071Y-59409771D01*
X112404071Y-59409771D01*
X112404071Y-58865485D01*
X113547071Y-58375628D02*
X112404071Y-58375628D01*
X112404071Y-58103485D01*
X112458500Y-57940200D01*
X112567357Y-57831342D01*
X112676214Y-57776914D01*
X112893928Y-57722485D01*
X113057214Y-57722485D01*
X113274928Y-57776914D01*
X113383785Y-57831342D01*
X113492642Y-57940200D01*
X113547071Y-58103485D01*
X113547071Y-58375628D01*
X112404071Y-56688342D02*
X112404071Y-57232628D01*
X112948357Y-57287057D01*
X112893928Y-57232628D01*
X112839500Y-57123771D01*
X112839500Y-56851628D01*
X112893928Y-56742771D01*
X112948357Y-56688342D01*
X113057214Y-56633914D01*
X113329357Y-56633914D01*
X113438214Y-56688342D01*
X113492642Y-56742771D01*
X113547071Y-56851628D01*
X113547071Y-57123771D01*
X113492642Y-57232628D01*
X113438214Y-57287057D01*
X113547071Y-55545342D02*
X113547071Y-56198485D01*
X113547071Y-55871914D02*
X112404071Y-55871914D01*
X112567357Y-55980771D01*
X112676214Y-56089628D01*
X112730642Y-56198485D01*
%TO.C,LED52*%
X119516071Y-53821771D02*
X119516071Y-54366057D01*
X118373071Y-54366057D01*
X118917357Y-53440771D02*
X118917357Y-53059771D01*
X119516071Y-52896485D02*
X119516071Y-53440771D01*
X118373071Y-53440771D01*
X118373071Y-52896485D01*
X119516071Y-52406628D02*
X118373071Y-52406628D01*
X118373071Y-52134485D01*
X118427500Y-51971200D01*
X118536357Y-51862342D01*
X118645214Y-51807914D01*
X118862928Y-51753485D01*
X119026214Y-51753485D01*
X119243928Y-51807914D01*
X119352785Y-51862342D01*
X119461642Y-51971200D01*
X119516071Y-52134485D01*
X119516071Y-52406628D01*
X118373071Y-50719342D02*
X118373071Y-51263628D01*
X118917357Y-51318057D01*
X118862928Y-51263628D01*
X118808500Y-51154771D01*
X118808500Y-50882628D01*
X118862928Y-50773771D01*
X118917357Y-50719342D01*
X119026214Y-50664914D01*
X119298357Y-50664914D01*
X119407214Y-50719342D01*
X119461642Y-50773771D01*
X119516071Y-50882628D01*
X119516071Y-51154771D01*
X119461642Y-51263628D01*
X119407214Y-51318057D01*
X118481928Y-50229485D02*
X118427500Y-50175057D01*
X118373071Y-50066200D01*
X118373071Y-49794057D01*
X118427500Y-49685200D01*
X118481928Y-49630771D01*
X118590785Y-49576342D01*
X118699642Y-49576342D01*
X118862928Y-49630771D01*
X119516071Y-50283914D01*
X119516071Y-49576342D01*
%TO.C,LED53*%
X125485071Y-47725771D02*
X125485071Y-48270057D01*
X124342071Y-48270057D01*
X124886357Y-47344771D02*
X124886357Y-46963771D01*
X125485071Y-46800485D02*
X125485071Y-47344771D01*
X124342071Y-47344771D01*
X124342071Y-46800485D01*
X125485071Y-46310628D02*
X124342071Y-46310628D01*
X124342071Y-46038485D01*
X124396500Y-45875200D01*
X124505357Y-45766342D01*
X124614214Y-45711914D01*
X124831928Y-45657485D01*
X124995214Y-45657485D01*
X125212928Y-45711914D01*
X125321785Y-45766342D01*
X125430642Y-45875200D01*
X125485071Y-46038485D01*
X125485071Y-46310628D01*
X124342071Y-44623342D02*
X124342071Y-45167628D01*
X124886357Y-45222057D01*
X124831928Y-45167628D01*
X124777500Y-45058771D01*
X124777500Y-44786628D01*
X124831928Y-44677771D01*
X124886357Y-44623342D01*
X124995214Y-44568914D01*
X125267357Y-44568914D01*
X125376214Y-44623342D01*
X125430642Y-44677771D01*
X125485071Y-44786628D01*
X125485071Y-45058771D01*
X125430642Y-45167628D01*
X125376214Y-45222057D01*
X124342071Y-44187914D02*
X124342071Y-43480342D01*
X124777500Y-43861342D01*
X124777500Y-43698057D01*
X124831928Y-43589200D01*
X124886357Y-43534771D01*
X124995214Y-43480342D01*
X125267357Y-43480342D01*
X125376214Y-43534771D01*
X125430642Y-43589200D01*
X125485071Y-43698057D01*
X125485071Y-44024628D01*
X125430642Y-44133485D01*
X125376214Y-44187914D01*
%TO.C,LED54*%
X131454071Y-41502771D02*
X131454071Y-42047057D01*
X130311071Y-42047057D01*
X130855357Y-41121771D02*
X130855357Y-40740771D01*
X131454071Y-40577485D02*
X131454071Y-41121771D01*
X130311071Y-41121771D01*
X130311071Y-40577485D01*
X131454071Y-40087628D02*
X130311071Y-40087628D01*
X130311071Y-39815485D01*
X130365500Y-39652200D01*
X130474357Y-39543342D01*
X130583214Y-39488914D01*
X130800928Y-39434485D01*
X130964214Y-39434485D01*
X131181928Y-39488914D01*
X131290785Y-39543342D01*
X131399642Y-39652200D01*
X131454071Y-39815485D01*
X131454071Y-40087628D01*
X130311071Y-38400342D02*
X130311071Y-38944628D01*
X130855357Y-38999057D01*
X130800928Y-38944628D01*
X130746500Y-38835771D01*
X130746500Y-38563628D01*
X130800928Y-38454771D01*
X130855357Y-38400342D01*
X130964214Y-38345914D01*
X131236357Y-38345914D01*
X131345214Y-38400342D01*
X131399642Y-38454771D01*
X131454071Y-38563628D01*
X131454071Y-38835771D01*
X131399642Y-38944628D01*
X131345214Y-38999057D01*
X130692071Y-37366200D02*
X131454071Y-37366200D01*
X130256642Y-37638342D02*
X131073071Y-37910485D01*
X131073071Y-37202914D01*
%TO.C,LED55*%
X137550071Y-36041771D02*
X137550071Y-36586057D01*
X136407071Y-36586057D01*
X136951357Y-35660771D02*
X136951357Y-35279771D01*
X137550071Y-35116485D02*
X137550071Y-35660771D01*
X136407071Y-35660771D01*
X136407071Y-35116485D01*
X137550071Y-34626628D02*
X136407071Y-34626628D01*
X136407071Y-34354485D01*
X136461500Y-34191200D01*
X136570357Y-34082342D01*
X136679214Y-34027914D01*
X136896928Y-33973485D01*
X137060214Y-33973485D01*
X137277928Y-34027914D01*
X137386785Y-34082342D01*
X137495642Y-34191200D01*
X137550071Y-34354485D01*
X137550071Y-34626628D01*
X136407071Y-32939342D02*
X136407071Y-33483628D01*
X136951357Y-33538057D01*
X136896928Y-33483628D01*
X136842500Y-33374771D01*
X136842500Y-33102628D01*
X136896928Y-32993771D01*
X136951357Y-32939342D01*
X137060214Y-32884914D01*
X137332357Y-32884914D01*
X137441214Y-32939342D01*
X137495642Y-32993771D01*
X137550071Y-33102628D01*
X137550071Y-33374771D01*
X137495642Y-33483628D01*
X137441214Y-33538057D01*
X136407071Y-31850771D02*
X136407071Y-32395057D01*
X136951357Y-32449485D01*
X136896928Y-32395057D01*
X136842500Y-32286200D01*
X136842500Y-32014057D01*
X136896928Y-31905200D01*
X136951357Y-31850771D01*
X137060214Y-31796342D01*
X137332357Y-31796342D01*
X137441214Y-31850771D01*
X137495642Y-31905200D01*
X137550071Y-32014057D01*
X137550071Y-32286200D01*
X137495642Y-32395057D01*
X137441214Y-32449485D01*
%TO.C,LED56*%
X122691071Y-95858771D02*
X122691071Y-96403057D01*
X121548071Y-96403057D01*
X122092357Y-95477771D02*
X122092357Y-95096771D01*
X122691071Y-94933485D02*
X122691071Y-95477771D01*
X121548071Y-95477771D01*
X121548071Y-94933485D01*
X122691071Y-94443628D02*
X121548071Y-94443628D01*
X121548071Y-94171485D01*
X121602500Y-94008200D01*
X121711357Y-93899342D01*
X121820214Y-93844914D01*
X122037928Y-93790485D01*
X122201214Y-93790485D01*
X122418928Y-93844914D01*
X122527785Y-93899342D01*
X122636642Y-94008200D01*
X122691071Y-94171485D01*
X122691071Y-94443628D01*
X121548071Y-92756342D02*
X121548071Y-93300628D01*
X122092357Y-93355057D01*
X122037928Y-93300628D01*
X121983500Y-93191771D01*
X121983500Y-92919628D01*
X122037928Y-92810771D01*
X122092357Y-92756342D01*
X122201214Y-92701914D01*
X122473357Y-92701914D01*
X122582214Y-92756342D01*
X122636642Y-92810771D01*
X122691071Y-92919628D01*
X122691071Y-93191771D01*
X122636642Y-93300628D01*
X122582214Y-93355057D01*
X121548071Y-91722200D02*
X121548071Y-91939914D01*
X121602500Y-92048771D01*
X121656928Y-92103200D01*
X121820214Y-92212057D01*
X122037928Y-92266485D01*
X122473357Y-92266485D01*
X122582214Y-92212057D01*
X122636642Y-92157628D01*
X122691071Y-92048771D01*
X122691071Y-91831057D01*
X122636642Y-91722200D01*
X122582214Y-91667771D01*
X122473357Y-91613342D01*
X122201214Y-91613342D01*
X122092357Y-91667771D01*
X122037928Y-91722200D01*
X121983500Y-91831057D01*
X121983500Y-92048771D01*
X122037928Y-92157628D01*
X122092357Y-92212057D01*
X122201214Y-92266485D01*
%TO.C,LED57*%
X116722071Y-89889771D02*
X116722071Y-90434057D01*
X115579071Y-90434057D01*
X116123357Y-89508771D02*
X116123357Y-89127771D01*
X116722071Y-88964485D02*
X116722071Y-89508771D01*
X115579071Y-89508771D01*
X115579071Y-88964485D01*
X116722071Y-88474628D02*
X115579071Y-88474628D01*
X115579071Y-88202485D01*
X115633500Y-88039200D01*
X115742357Y-87930342D01*
X115851214Y-87875914D01*
X116068928Y-87821485D01*
X116232214Y-87821485D01*
X116449928Y-87875914D01*
X116558785Y-87930342D01*
X116667642Y-88039200D01*
X116722071Y-88202485D01*
X116722071Y-88474628D01*
X115579071Y-86787342D02*
X115579071Y-87331628D01*
X116123357Y-87386057D01*
X116068928Y-87331628D01*
X116014500Y-87222771D01*
X116014500Y-86950628D01*
X116068928Y-86841771D01*
X116123357Y-86787342D01*
X116232214Y-86732914D01*
X116504357Y-86732914D01*
X116613214Y-86787342D01*
X116667642Y-86841771D01*
X116722071Y-86950628D01*
X116722071Y-87222771D01*
X116667642Y-87331628D01*
X116613214Y-87386057D01*
X115579071Y-86351914D02*
X115579071Y-85589914D01*
X116722071Y-86079771D01*
%TO.C,LED58*%
X110753071Y-83920771D02*
X110753071Y-84465057D01*
X109610071Y-84465057D01*
X110154357Y-83539771D02*
X110154357Y-83158771D01*
X110753071Y-82995485D02*
X110753071Y-83539771D01*
X109610071Y-83539771D01*
X109610071Y-82995485D01*
X110753071Y-82505628D02*
X109610071Y-82505628D01*
X109610071Y-82233485D01*
X109664500Y-82070200D01*
X109773357Y-81961342D01*
X109882214Y-81906914D01*
X110099928Y-81852485D01*
X110263214Y-81852485D01*
X110480928Y-81906914D01*
X110589785Y-81961342D01*
X110698642Y-82070200D01*
X110753071Y-82233485D01*
X110753071Y-82505628D01*
X109610071Y-80818342D02*
X109610071Y-81362628D01*
X110154357Y-81417057D01*
X110099928Y-81362628D01*
X110045500Y-81253771D01*
X110045500Y-80981628D01*
X110099928Y-80872771D01*
X110154357Y-80818342D01*
X110263214Y-80763914D01*
X110535357Y-80763914D01*
X110644214Y-80818342D01*
X110698642Y-80872771D01*
X110753071Y-80981628D01*
X110753071Y-81253771D01*
X110698642Y-81362628D01*
X110644214Y-81417057D01*
X110099928Y-80110771D02*
X110045500Y-80219628D01*
X109991071Y-80274057D01*
X109882214Y-80328485D01*
X109827785Y-80328485D01*
X109718928Y-80274057D01*
X109664500Y-80219628D01*
X109610071Y-80110771D01*
X109610071Y-79893057D01*
X109664500Y-79784200D01*
X109718928Y-79729771D01*
X109827785Y-79675342D01*
X109882214Y-79675342D01*
X109991071Y-79729771D01*
X110045500Y-79784200D01*
X110099928Y-79893057D01*
X110099928Y-80110771D01*
X110154357Y-80219628D01*
X110208785Y-80274057D01*
X110317642Y-80328485D01*
X110535357Y-80328485D01*
X110644214Y-80274057D01*
X110698642Y-80219628D01*
X110753071Y-80110771D01*
X110753071Y-79893057D01*
X110698642Y-79784200D01*
X110644214Y-79729771D01*
X110535357Y-79675342D01*
X110317642Y-79675342D01*
X110208785Y-79729771D01*
X110154357Y-79784200D01*
X110099928Y-79893057D01*
%TO.C,LED59*%
X104403071Y-77824771D02*
X104403071Y-78369057D01*
X103260071Y-78369057D01*
X103804357Y-77443771D02*
X103804357Y-77062771D01*
X104403071Y-76899485D02*
X104403071Y-77443771D01*
X103260071Y-77443771D01*
X103260071Y-76899485D01*
X104403071Y-76409628D02*
X103260071Y-76409628D01*
X103260071Y-76137485D01*
X103314500Y-75974200D01*
X103423357Y-75865342D01*
X103532214Y-75810914D01*
X103749928Y-75756485D01*
X103913214Y-75756485D01*
X104130928Y-75810914D01*
X104239785Y-75865342D01*
X104348642Y-75974200D01*
X104403071Y-76137485D01*
X104403071Y-76409628D01*
X103260071Y-74722342D02*
X103260071Y-75266628D01*
X103804357Y-75321057D01*
X103749928Y-75266628D01*
X103695500Y-75157771D01*
X103695500Y-74885628D01*
X103749928Y-74776771D01*
X103804357Y-74722342D01*
X103913214Y-74667914D01*
X104185357Y-74667914D01*
X104294214Y-74722342D01*
X104348642Y-74776771D01*
X104403071Y-74885628D01*
X104403071Y-75157771D01*
X104348642Y-75266628D01*
X104294214Y-75321057D01*
X104403071Y-74123628D02*
X104403071Y-73905914D01*
X104348642Y-73797057D01*
X104294214Y-73742628D01*
X104130928Y-73633771D01*
X103913214Y-73579342D01*
X103477785Y-73579342D01*
X103368928Y-73633771D01*
X103314500Y-73688200D01*
X103260071Y-73797057D01*
X103260071Y-74014771D01*
X103314500Y-74123628D01*
X103368928Y-74178057D01*
X103477785Y-74232485D01*
X103749928Y-74232485D01*
X103858785Y-74178057D01*
X103913214Y-74123628D01*
X103967642Y-74014771D01*
X103967642Y-73797057D01*
X103913214Y-73688200D01*
X103858785Y-73633771D01*
X103749928Y-73579342D01*
%TO.C,LED60*%
X98561071Y-71855771D02*
X98561071Y-72400057D01*
X97418071Y-72400057D01*
X97962357Y-71474771D02*
X97962357Y-71093771D01*
X98561071Y-70930485D02*
X98561071Y-71474771D01*
X97418071Y-71474771D01*
X97418071Y-70930485D01*
X98561071Y-70440628D02*
X97418071Y-70440628D01*
X97418071Y-70168485D01*
X97472500Y-70005200D01*
X97581357Y-69896342D01*
X97690214Y-69841914D01*
X97907928Y-69787485D01*
X98071214Y-69787485D01*
X98288928Y-69841914D01*
X98397785Y-69896342D01*
X98506642Y-70005200D01*
X98561071Y-70168485D01*
X98561071Y-70440628D01*
X97418071Y-68807771D02*
X97418071Y-69025485D01*
X97472500Y-69134342D01*
X97526928Y-69188771D01*
X97690214Y-69297628D01*
X97907928Y-69352057D01*
X98343357Y-69352057D01*
X98452214Y-69297628D01*
X98506642Y-69243200D01*
X98561071Y-69134342D01*
X98561071Y-68916628D01*
X98506642Y-68807771D01*
X98452214Y-68753342D01*
X98343357Y-68698914D01*
X98071214Y-68698914D01*
X97962357Y-68753342D01*
X97907928Y-68807771D01*
X97853500Y-68916628D01*
X97853500Y-69134342D01*
X97907928Y-69243200D01*
X97962357Y-69297628D01*
X98071214Y-69352057D01*
X97418071Y-67991342D02*
X97418071Y-67882485D01*
X97472500Y-67773628D01*
X97526928Y-67719200D01*
X97635785Y-67664771D01*
X97853500Y-67610342D01*
X98125642Y-67610342D01*
X98343357Y-67664771D01*
X98452214Y-67719200D01*
X98506642Y-67773628D01*
X98561071Y-67882485D01*
X98561071Y-67991342D01*
X98506642Y-68100200D01*
X98452214Y-68154628D01*
X98343357Y-68209057D01*
X98125642Y-68263485D01*
X97853500Y-68263485D01*
X97635785Y-68209057D01*
X97526928Y-68154628D01*
X97472500Y-68100200D01*
X97418071Y-67991342D01*
%TO.C,LED61*%
X92465071Y-65632771D02*
X92465071Y-66177057D01*
X91322071Y-66177057D01*
X91866357Y-65251771D02*
X91866357Y-64870771D01*
X92465071Y-64707485D02*
X92465071Y-65251771D01*
X91322071Y-65251771D01*
X91322071Y-64707485D01*
X92465071Y-64217628D02*
X91322071Y-64217628D01*
X91322071Y-63945485D01*
X91376500Y-63782200D01*
X91485357Y-63673342D01*
X91594214Y-63618914D01*
X91811928Y-63564485D01*
X91975214Y-63564485D01*
X92192928Y-63618914D01*
X92301785Y-63673342D01*
X92410642Y-63782200D01*
X92465071Y-63945485D01*
X92465071Y-64217628D01*
X91322071Y-62584771D02*
X91322071Y-62802485D01*
X91376500Y-62911342D01*
X91430928Y-62965771D01*
X91594214Y-63074628D01*
X91811928Y-63129057D01*
X92247357Y-63129057D01*
X92356214Y-63074628D01*
X92410642Y-63020200D01*
X92465071Y-62911342D01*
X92465071Y-62693628D01*
X92410642Y-62584771D01*
X92356214Y-62530342D01*
X92247357Y-62475914D01*
X91975214Y-62475914D01*
X91866357Y-62530342D01*
X91811928Y-62584771D01*
X91757500Y-62693628D01*
X91757500Y-62911342D01*
X91811928Y-63020200D01*
X91866357Y-63074628D01*
X91975214Y-63129057D01*
X92465071Y-61387342D02*
X92465071Y-62040485D01*
X92465071Y-61713914D02*
X91322071Y-61713914D01*
X91485357Y-61822771D01*
X91594214Y-61931628D01*
X91648642Y-62040485D01*
%TO.C,LED62*%
X98434071Y-59790771D02*
X98434071Y-60335057D01*
X97291071Y-60335057D01*
X97835357Y-59409771D02*
X97835357Y-59028771D01*
X98434071Y-58865485D02*
X98434071Y-59409771D01*
X97291071Y-59409771D01*
X97291071Y-58865485D01*
X98434071Y-58375628D02*
X97291071Y-58375628D01*
X97291071Y-58103485D01*
X97345500Y-57940200D01*
X97454357Y-57831342D01*
X97563214Y-57776914D01*
X97780928Y-57722485D01*
X97944214Y-57722485D01*
X98161928Y-57776914D01*
X98270785Y-57831342D01*
X98379642Y-57940200D01*
X98434071Y-58103485D01*
X98434071Y-58375628D01*
X97291071Y-56742771D02*
X97291071Y-56960485D01*
X97345500Y-57069342D01*
X97399928Y-57123771D01*
X97563214Y-57232628D01*
X97780928Y-57287057D01*
X98216357Y-57287057D01*
X98325214Y-57232628D01*
X98379642Y-57178200D01*
X98434071Y-57069342D01*
X98434071Y-56851628D01*
X98379642Y-56742771D01*
X98325214Y-56688342D01*
X98216357Y-56633914D01*
X97944214Y-56633914D01*
X97835357Y-56688342D01*
X97780928Y-56742771D01*
X97726500Y-56851628D01*
X97726500Y-57069342D01*
X97780928Y-57178200D01*
X97835357Y-57232628D01*
X97944214Y-57287057D01*
X97399928Y-56198485D02*
X97345500Y-56144057D01*
X97291071Y-56035200D01*
X97291071Y-55763057D01*
X97345500Y-55654200D01*
X97399928Y-55599771D01*
X97508785Y-55545342D01*
X97617642Y-55545342D01*
X97780928Y-55599771D01*
X98434071Y-56252914D01*
X98434071Y-55545342D01*
%TO.C,LED63*%
X104657071Y-53948771D02*
X104657071Y-54493057D01*
X103514071Y-54493057D01*
X104058357Y-53567771D02*
X104058357Y-53186771D01*
X104657071Y-53023485D02*
X104657071Y-53567771D01*
X103514071Y-53567771D01*
X103514071Y-53023485D01*
X104657071Y-52533628D02*
X103514071Y-52533628D01*
X103514071Y-52261485D01*
X103568500Y-52098200D01*
X103677357Y-51989342D01*
X103786214Y-51934914D01*
X104003928Y-51880485D01*
X104167214Y-51880485D01*
X104384928Y-51934914D01*
X104493785Y-51989342D01*
X104602642Y-52098200D01*
X104657071Y-52261485D01*
X104657071Y-52533628D01*
X103514071Y-50900771D02*
X103514071Y-51118485D01*
X103568500Y-51227342D01*
X103622928Y-51281771D01*
X103786214Y-51390628D01*
X104003928Y-51445057D01*
X104439357Y-51445057D01*
X104548214Y-51390628D01*
X104602642Y-51336200D01*
X104657071Y-51227342D01*
X104657071Y-51009628D01*
X104602642Y-50900771D01*
X104548214Y-50846342D01*
X104439357Y-50791914D01*
X104167214Y-50791914D01*
X104058357Y-50846342D01*
X104003928Y-50900771D01*
X103949500Y-51009628D01*
X103949500Y-51227342D01*
X104003928Y-51336200D01*
X104058357Y-51390628D01*
X104167214Y-51445057D01*
X103514071Y-50410914D02*
X103514071Y-49703342D01*
X103949500Y-50084342D01*
X103949500Y-49921057D01*
X104003928Y-49812200D01*
X104058357Y-49757771D01*
X104167214Y-49703342D01*
X104439357Y-49703342D01*
X104548214Y-49757771D01*
X104602642Y-49812200D01*
X104657071Y-49921057D01*
X104657071Y-50247628D01*
X104602642Y-50356485D01*
X104548214Y-50410914D01*
%TO.C,LED64*%
X110499071Y-47725771D02*
X110499071Y-48270057D01*
X109356071Y-48270057D01*
X109900357Y-47344771D02*
X109900357Y-46963771D01*
X110499071Y-46800485D02*
X110499071Y-47344771D01*
X109356071Y-47344771D01*
X109356071Y-46800485D01*
X110499071Y-46310628D02*
X109356071Y-46310628D01*
X109356071Y-46038485D01*
X109410500Y-45875200D01*
X109519357Y-45766342D01*
X109628214Y-45711914D01*
X109845928Y-45657485D01*
X110009214Y-45657485D01*
X110226928Y-45711914D01*
X110335785Y-45766342D01*
X110444642Y-45875200D01*
X110499071Y-46038485D01*
X110499071Y-46310628D01*
X109356071Y-44677771D02*
X109356071Y-44895485D01*
X109410500Y-45004342D01*
X109464928Y-45058771D01*
X109628214Y-45167628D01*
X109845928Y-45222057D01*
X110281357Y-45222057D01*
X110390214Y-45167628D01*
X110444642Y-45113200D01*
X110499071Y-45004342D01*
X110499071Y-44786628D01*
X110444642Y-44677771D01*
X110390214Y-44623342D01*
X110281357Y-44568914D01*
X110009214Y-44568914D01*
X109900357Y-44623342D01*
X109845928Y-44677771D01*
X109791500Y-44786628D01*
X109791500Y-45004342D01*
X109845928Y-45113200D01*
X109900357Y-45167628D01*
X110009214Y-45222057D01*
X109737071Y-43589200D02*
X110499071Y-43589200D01*
X109301642Y-43861342D02*
X110118071Y-44133485D01*
X110118071Y-43425914D01*
%TO.C,LED65*%
X116595071Y-41629771D02*
X116595071Y-42174057D01*
X115452071Y-42174057D01*
X115996357Y-41248771D02*
X115996357Y-40867771D01*
X116595071Y-40704485D02*
X116595071Y-41248771D01*
X115452071Y-41248771D01*
X115452071Y-40704485D01*
X116595071Y-40214628D02*
X115452071Y-40214628D01*
X115452071Y-39942485D01*
X115506500Y-39779200D01*
X115615357Y-39670342D01*
X115724214Y-39615914D01*
X115941928Y-39561485D01*
X116105214Y-39561485D01*
X116322928Y-39615914D01*
X116431785Y-39670342D01*
X116540642Y-39779200D01*
X116595071Y-39942485D01*
X116595071Y-40214628D01*
X115452071Y-38581771D02*
X115452071Y-38799485D01*
X115506500Y-38908342D01*
X115560928Y-38962771D01*
X115724214Y-39071628D01*
X115941928Y-39126057D01*
X116377357Y-39126057D01*
X116486214Y-39071628D01*
X116540642Y-39017200D01*
X116595071Y-38908342D01*
X116595071Y-38690628D01*
X116540642Y-38581771D01*
X116486214Y-38527342D01*
X116377357Y-38472914D01*
X116105214Y-38472914D01*
X115996357Y-38527342D01*
X115941928Y-38581771D01*
X115887500Y-38690628D01*
X115887500Y-38908342D01*
X115941928Y-39017200D01*
X115996357Y-39071628D01*
X116105214Y-39126057D01*
X115452071Y-37438771D02*
X115452071Y-37983057D01*
X115996357Y-38037485D01*
X115941928Y-37983057D01*
X115887500Y-37874200D01*
X115887500Y-37602057D01*
X115941928Y-37493200D01*
X115996357Y-37438771D01*
X116105214Y-37384342D01*
X116377357Y-37384342D01*
X116486214Y-37438771D01*
X116540642Y-37493200D01*
X116595071Y-37602057D01*
X116595071Y-37874200D01*
X116540642Y-37983057D01*
X116486214Y-38037485D01*
%TO.C,LED66*%
X122437071Y-35787771D02*
X122437071Y-36332057D01*
X121294071Y-36332057D01*
X121838357Y-35406771D02*
X121838357Y-35025771D01*
X122437071Y-34862485D02*
X122437071Y-35406771D01*
X121294071Y-35406771D01*
X121294071Y-34862485D01*
X122437071Y-34372628D02*
X121294071Y-34372628D01*
X121294071Y-34100485D01*
X121348500Y-33937200D01*
X121457357Y-33828342D01*
X121566214Y-33773914D01*
X121783928Y-33719485D01*
X121947214Y-33719485D01*
X122164928Y-33773914D01*
X122273785Y-33828342D01*
X122382642Y-33937200D01*
X122437071Y-34100485D01*
X122437071Y-34372628D01*
X121294071Y-32739771D02*
X121294071Y-32957485D01*
X121348500Y-33066342D01*
X121402928Y-33120771D01*
X121566214Y-33229628D01*
X121783928Y-33284057D01*
X122219357Y-33284057D01*
X122328214Y-33229628D01*
X122382642Y-33175200D01*
X122437071Y-33066342D01*
X122437071Y-32848628D01*
X122382642Y-32739771D01*
X122328214Y-32685342D01*
X122219357Y-32630914D01*
X121947214Y-32630914D01*
X121838357Y-32685342D01*
X121783928Y-32739771D01*
X121729500Y-32848628D01*
X121729500Y-33066342D01*
X121783928Y-33175200D01*
X121838357Y-33229628D01*
X121947214Y-33284057D01*
X121294071Y-31651200D02*
X121294071Y-31868914D01*
X121348500Y-31977771D01*
X121402928Y-32032200D01*
X121566214Y-32141057D01*
X121783928Y-32195485D01*
X122219357Y-32195485D01*
X122328214Y-32141057D01*
X122382642Y-32086628D01*
X122437071Y-31977771D01*
X122437071Y-31760057D01*
X122382642Y-31651200D01*
X122328214Y-31596771D01*
X122219357Y-31542342D01*
X121947214Y-31542342D01*
X121838357Y-31596771D01*
X121783928Y-31651200D01*
X121729500Y-31760057D01*
X121729500Y-31977771D01*
X121783928Y-32086628D01*
X121838357Y-32141057D01*
X121947214Y-32195485D01*
%TO.C,LED7*%
X207381928Y-69495228D02*
X207381928Y-68950942D01*
X208524928Y-68950942D01*
X207980642Y-69876228D02*
X207980642Y-70257228D01*
X207381928Y-70420514D02*
X207381928Y-69876228D01*
X208524928Y-69876228D01*
X208524928Y-70420514D01*
X207381928Y-70910371D02*
X208524928Y-70910371D01*
X208524928Y-71182514D01*
X208470500Y-71345800D01*
X208361642Y-71454657D01*
X208252785Y-71509085D01*
X208035071Y-71563514D01*
X207871785Y-71563514D01*
X207654071Y-71509085D01*
X207545214Y-71454657D01*
X207436357Y-71345800D01*
X207381928Y-71182514D01*
X207381928Y-70910371D01*
X208524928Y-71944514D02*
X208524928Y-72706514D01*
X207381928Y-72216657D01*
%TO.C,LED2*%
X189220928Y-39396228D02*
X189220928Y-38851942D01*
X190363928Y-38851942D01*
X189819642Y-39777228D02*
X189819642Y-40158228D01*
X189220928Y-40321514D02*
X189220928Y-39777228D01*
X190363928Y-39777228D01*
X190363928Y-40321514D01*
X189220928Y-40811371D02*
X190363928Y-40811371D01*
X190363928Y-41083514D01*
X190309500Y-41246800D01*
X190200642Y-41355657D01*
X190091785Y-41410085D01*
X189874071Y-41464514D01*
X189710785Y-41464514D01*
X189493071Y-41410085D01*
X189384214Y-41355657D01*
X189275357Y-41246800D01*
X189220928Y-41083514D01*
X189220928Y-40811371D01*
X190255071Y-41899942D02*
X190309500Y-41954371D01*
X190363928Y-42063228D01*
X190363928Y-42335371D01*
X190309500Y-42444228D01*
X190255071Y-42498657D01*
X190146214Y-42553085D01*
X190037357Y-42553085D01*
X189874071Y-42498657D01*
X189220928Y-41845514D01*
X189220928Y-42553085D01*
%TO.C,LED10*%
X189220928Y-87275228D02*
X189220928Y-86730942D01*
X190363928Y-86730942D01*
X189819642Y-87656228D02*
X189819642Y-88037228D01*
X189220928Y-88200514D02*
X189220928Y-87656228D01*
X190363928Y-87656228D01*
X190363928Y-88200514D01*
X189220928Y-88690371D02*
X190363928Y-88690371D01*
X190363928Y-88962514D01*
X190309500Y-89125800D01*
X190200642Y-89234657D01*
X190091785Y-89289085D01*
X189874071Y-89343514D01*
X189710785Y-89343514D01*
X189493071Y-89289085D01*
X189384214Y-89234657D01*
X189275357Y-89125800D01*
X189220928Y-88962514D01*
X189220928Y-88690371D01*
X189220928Y-90432085D02*
X189220928Y-89778942D01*
X189220928Y-90105514D02*
X190363928Y-90105514D01*
X190200642Y-89996657D01*
X190091785Y-89887800D01*
X190037357Y-89778942D01*
X190363928Y-91139657D02*
X190363928Y-91248514D01*
X190309500Y-91357371D01*
X190255071Y-91411800D01*
X190146214Y-91466228D01*
X189928500Y-91520657D01*
X189656357Y-91520657D01*
X189438642Y-91466228D01*
X189329785Y-91411800D01*
X189275357Y-91357371D01*
X189220928Y-91248514D01*
X189220928Y-91139657D01*
X189275357Y-91030800D01*
X189329785Y-90976371D01*
X189438642Y-90921942D01*
X189656357Y-90867514D01*
X189928500Y-90867514D01*
X190146214Y-90921942D01*
X190255071Y-90976371D01*
X190309500Y-91030800D01*
X190363928Y-91139657D01*
%TO.C,LED9*%
X195316928Y-81433228D02*
X195316928Y-80888942D01*
X196459928Y-80888942D01*
X195915642Y-81814228D02*
X195915642Y-82195228D01*
X195316928Y-82358514D02*
X195316928Y-81814228D01*
X196459928Y-81814228D01*
X196459928Y-82358514D01*
X195316928Y-82848371D02*
X196459928Y-82848371D01*
X196459928Y-83120514D01*
X196405500Y-83283800D01*
X196296642Y-83392657D01*
X196187785Y-83447085D01*
X195970071Y-83501514D01*
X195806785Y-83501514D01*
X195589071Y-83447085D01*
X195480214Y-83392657D01*
X195371357Y-83283800D01*
X195316928Y-83120514D01*
X195316928Y-82848371D01*
X195316928Y-84045800D02*
X195316928Y-84263514D01*
X195371357Y-84372371D01*
X195425785Y-84426800D01*
X195589071Y-84535657D01*
X195806785Y-84590085D01*
X196242214Y-84590085D01*
X196351071Y-84535657D01*
X196405500Y-84481228D01*
X196459928Y-84372371D01*
X196459928Y-84154657D01*
X196405500Y-84045800D01*
X196351071Y-83991371D01*
X196242214Y-83936942D01*
X195970071Y-83936942D01*
X195861214Y-83991371D01*
X195806785Y-84045800D01*
X195752357Y-84154657D01*
X195752357Y-84372371D01*
X195806785Y-84481228D01*
X195861214Y-84535657D01*
X195970071Y-84590085D01*
%TO.C,LED8*%
X201285928Y-75337228D02*
X201285928Y-74792942D01*
X202428928Y-74792942D01*
X201884642Y-75718228D02*
X201884642Y-76099228D01*
X201285928Y-76262514D02*
X201285928Y-75718228D01*
X202428928Y-75718228D01*
X202428928Y-76262514D01*
X201285928Y-76752371D02*
X202428928Y-76752371D01*
X202428928Y-77024514D01*
X202374500Y-77187800D01*
X202265642Y-77296657D01*
X202156785Y-77351085D01*
X201939071Y-77405514D01*
X201775785Y-77405514D01*
X201558071Y-77351085D01*
X201449214Y-77296657D01*
X201340357Y-77187800D01*
X201285928Y-77024514D01*
X201285928Y-76752371D01*
X201939071Y-78058657D02*
X201993500Y-77949800D01*
X202047928Y-77895371D01*
X202156785Y-77840942D01*
X202211214Y-77840942D01*
X202320071Y-77895371D01*
X202374500Y-77949800D01*
X202428928Y-78058657D01*
X202428928Y-78276371D01*
X202374500Y-78385228D01*
X202320071Y-78439657D01*
X202211214Y-78494085D01*
X202156785Y-78494085D01*
X202047928Y-78439657D01*
X201993500Y-78385228D01*
X201939071Y-78276371D01*
X201939071Y-78058657D01*
X201884642Y-77949800D01*
X201830214Y-77895371D01*
X201721357Y-77840942D01*
X201503642Y-77840942D01*
X201394785Y-77895371D01*
X201340357Y-77949800D01*
X201285928Y-78058657D01*
X201285928Y-78276371D01*
X201340357Y-78385228D01*
X201394785Y-78439657D01*
X201503642Y-78494085D01*
X201721357Y-78494085D01*
X201830214Y-78439657D01*
X201884642Y-78385228D01*
X201939071Y-78276371D01*
%TO.C,LED11*%
X183251928Y-93498228D02*
X183251928Y-92953942D01*
X184394928Y-92953942D01*
X183850642Y-93879228D02*
X183850642Y-94260228D01*
X183251928Y-94423514D02*
X183251928Y-93879228D01*
X184394928Y-93879228D01*
X184394928Y-94423514D01*
X183251928Y-94913371D02*
X184394928Y-94913371D01*
X184394928Y-95185514D01*
X184340500Y-95348800D01*
X184231642Y-95457657D01*
X184122785Y-95512085D01*
X183905071Y-95566514D01*
X183741785Y-95566514D01*
X183524071Y-95512085D01*
X183415214Y-95457657D01*
X183306357Y-95348800D01*
X183251928Y-95185514D01*
X183251928Y-94913371D01*
X183251928Y-96655085D02*
X183251928Y-96001942D01*
X183251928Y-96328514D02*
X184394928Y-96328514D01*
X184231642Y-96219657D01*
X184122785Y-96110800D01*
X184068357Y-96001942D01*
X183251928Y-97743657D02*
X183251928Y-97090514D01*
X183251928Y-97417085D02*
X184394928Y-97417085D01*
X184231642Y-97308228D01*
X184122785Y-97199371D01*
X184068357Y-97090514D01*
%TO.C,LED6*%
X213477928Y-63399228D02*
X213477928Y-62854942D01*
X214620928Y-62854942D01*
X214076642Y-63780228D02*
X214076642Y-64161228D01*
X213477928Y-64324514D02*
X213477928Y-63780228D01*
X214620928Y-63780228D01*
X214620928Y-64324514D01*
X213477928Y-64814371D02*
X214620928Y-64814371D01*
X214620928Y-65086514D01*
X214566500Y-65249800D01*
X214457642Y-65358657D01*
X214348785Y-65413085D01*
X214131071Y-65467514D01*
X213967785Y-65467514D01*
X213750071Y-65413085D01*
X213641214Y-65358657D01*
X213532357Y-65249800D01*
X213477928Y-65086514D01*
X213477928Y-64814371D01*
X214620928Y-66447228D02*
X214620928Y-66229514D01*
X214566500Y-66120657D01*
X214512071Y-66066228D01*
X214348785Y-65957371D01*
X214131071Y-65902942D01*
X213695642Y-65902942D01*
X213586785Y-65957371D01*
X213532357Y-66011800D01*
X213477928Y-66120657D01*
X213477928Y-66338371D01*
X213532357Y-66447228D01*
X213586785Y-66501657D01*
X213695642Y-66556085D01*
X213967785Y-66556085D01*
X214076642Y-66501657D01*
X214131071Y-66447228D01*
X214185500Y-66338371D01*
X214185500Y-66120657D01*
X214131071Y-66011800D01*
X214076642Y-65957371D01*
X213967785Y-65902942D01*
%TO.C,LED5*%
X207381928Y-57430228D02*
X207381928Y-56885942D01*
X208524928Y-56885942D01*
X207980642Y-57811228D02*
X207980642Y-58192228D01*
X207381928Y-58355514D02*
X207381928Y-57811228D01*
X208524928Y-57811228D01*
X208524928Y-58355514D01*
X207381928Y-58845371D02*
X208524928Y-58845371D01*
X208524928Y-59117514D01*
X208470500Y-59280800D01*
X208361642Y-59389657D01*
X208252785Y-59444085D01*
X208035071Y-59498514D01*
X207871785Y-59498514D01*
X207654071Y-59444085D01*
X207545214Y-59389657D01*
X207436357Y-59280800D01*
X207381928Y-59117514D01*
X207381928Y-58845371D01*
X208524928Y-60532657D02*
X208524928Y-59988371D01*
X207980642Y-59933942D01*
X208035071Y-59988371D01*
X208089500Y-60097228D01*
X208089500Y-60369371D01*
X208035071Y-60478228D01*
X207980642Y-60532657D01*
X207871785Y-60587085D01*
X207599642Y-60587085D01*
X207490785Y-60532657D01*
X207436357Y-60478228D01*
X207381928Y-60369371D01*
X207381928Y-60097228D01*
X207436357Y-59988371D01*
X207490785Y-59933942D01*
%TO.C,LED4*%
X201412928Y-51461228D02*
X201412928Y-50916942D01*
X202555928Y-50916942D01*
X202011642Y-51842228D02*
X202011642Y-52223228D01*
X201412928Y-52386514D02*
X201412928Y-51842228D01*
X202555928Y-51842228D01*
X202555928Y-52386514D01*
X201412928Y-52876371D02*
X202555928Y-52876371D01*
X202555928Y-53148514D01*
X202501500Y-53311800D01*
X202392642Y-53420657D01*
X202283785Y-53475085D01*
X202066071Y-53529514D01*
X201902785Y-53529514D01*
X201685071Y-53475085D01*
X201576214Y-53420657D01*
X201467357Y-53311800D01*
X201412928Y-53148514D01*
X201412928Y-52876371D01*
X202174928Y-54509228D02*
X201412928Y-54509228D01*
X202610357Y-54237085D02*
X201793928Y-53964942D01*
X201793928Y-54672514D01*
%TO.C,LED3*%
X195189928Y-45365228D02*
X195189928Y-44820942D01*
X196332928Y-44820942D01*
X195788642Y-45746228D02*
X195788642Y-46127228D01*
X195189928Y-46290514D02*
X195189928Y-45746228D01*
X196332928Y-45746228D01*
X196332928Y-46290514D01*
X195189928Y-46780371D02*
X196332928Y-46780371D01*
X196332928Y-47052514D01*
X196278500Y-47215800D01*
X196169642Y-47324657D01*
X196060785Y-47379085D01*
X195843071Y-47433514D01*
X195679785Y-47433514D01*
X195462071Y-47379085D01*
X195353214Y-47324657D01*
X195244357Y-47215800D01*
X195189928Y-47052514D01*
X195189928Y-46780371D01*
X196332928Y-47814514D02*
X196332928Y-48522085D01*
X195897500Y-48141085D01*
X195897500Y-48304371D01*
X195843071Y-48413228D01*
X195788642Y-48467657D01*
X195679785Y-48522085D01*
X195407642Y-48522085D01*
X195298785Y-48467657D01*
X195244357Y-48413228D01*
X195189928Y-48304371D01*
X195189928Y-47977800D01*
X195244357Y-47868942D01*
X195298785Y-47814514D01*
%TO.C,LED1*%
X183251928Y-33554228D02*
X183251928Y-33009942D01*
X184394928Y-33009942D01*
X183850642Y-33935228D02*
X183850642Y-34316228D01*
X183251928Y-34479514D02*
X183251928Y-33935228D01*
X184394928Y-33935228D01*
X184394928Y-34479514D01*
X183251928Y-34969371D02*
X184394928Y-34969371D01*
X184394928Y-35241514D01*
X184340500Y-35404800D01*
X184231642Y-35513657D01*
X184122785Y-35568085D01*
X183905071Y-35622514D01*
X183741785Y-35622514D01*
X183524071Y-35568085D01*
X183415214Y-35513657D01*
X183306357Y-35404800D01*
X183251928Y-35241514D01*
X183251928Y-34969371D01*
X183251928Y-36711085D02*
X183251928Y-36057942D01*
X183251928Y-36384514D02*
X184394928Y-36384514D01*
X184231642Y-36275657D01*
X184122785Y-36166800D01*
X184068357Y-36057942D01*
%TO.C,LED12*%
X168138928Y-93117228D02*
X168138928Y-92572942D01*
X169281928Y-92572942D01*
X168737642Y-93498228D02*
X168737642Y-93879228D01*
X168138928Y-94042514D02*
X168138928Y-93498228D01*
X169281928Y-93498228D01*
X169281928Y-94042514D01*
X168138928Y-94532371D02*
X169281928Y-94532371D01*
X169281928Y-94804514D01*
X169227500Y-94967800D01*
X169118642Y-95076657D01*
X169009785Y-95131085D01*
X168792071Y-95185514D01*
X168628785Y-95185514D01*
X168411071Y-95131085D01*
X168302214Y-95076657D01*
X168193357Y-94967800D01*
X168138928Y-94804514D01*
X168138928Y-94532371D01*
X168138928Y-96274085D02*
X168138928Y-95620942D01*
X168138928Y-95947514D02*
X169281928Y-95947514D01*
X169118642Y-95838657D01*
X169009785Y-95729800D01*
X168955357Y-95620942D01*
X169173071Y-96709514D02*
X169227500Y-96763942D01*
X169281928Y-96872800D01*
X169281928Y-97144942D01*
X169227500Y-97253800D01*
X169173071Y-97308228D01*
X169064214Y-97362657D01*
X168955357Y-97362657D01*
X168792071Y-97308228D01*
X168138928Y-96655085D01*
X168138928Y-97362657D01*
%TO.C,LED13*%
X174234928Y-87275228D02*
X174234928Y-86730942D01*
X175377928Y-86730942D01*
X174833642Y-87656228D02*
X174833642Y-88037228D01*
X174234928Y-88200514D02*
X174234928Y-87656228D01*
X175377928Y-87656228D01*
X175377928Y-88200514D01*
X174234928Y-88690371D02*
X175377928Y-88690371D01*
X175377928Y-88962514D01*
X175323500Y-89125800D01*
X175214642Y-89234657D01*
X175105785Y-89289085D01*
X174888071Y-89343514D01*
X174724785Y-89343514D01*
X174507071Y-89289085D01*
X174398214Y-89234657D01*
X174289357Y-89125800D01*
X174234928Y-88962514D01*
X174234928Y-88690371D01*
X174234928Y-90432085D02*
X174234928Y-89778942D01*
X174234928Y-90105514D02*
X175377928Y-90105514D01*
X175214642Y-89996657D01*
X175105785Y-89887800D01*
X175051357Y-89778942D01*
X175377928Y-90813085D02*
X175377928Y-91520657D01*
X174942500Y-91139657D01*
X174942500Y-91302942D01*
X174888071Y-91411800D01*
X174833642Y-91466228D01*
X174724785Y-91520657D01*
X174452642Y-91520657D01*
X174343785Y-91466228D01*
X174289357Y-91411800D01*
X174234928Y-91302942D01*
X174234928Y-90976371D01*
X174289357Y-90867514D01*
X174343785Y-90813085D01*
%TO.C,LED14*%
X180203928Y-81433228D02*
X180203928Y-80888942D01*
X181346928Y-80888942D01*
X180802642Y-81814228D02*
X180802642Y-82195228D01*
X180203928Y-82358514D02*
X180203928Y-81814228D01*
X181346928Y-81814228D01*
X181346928Y-82358514D01*
X180203928Y-82848371D02*
X181346928Y-82848371D01*
X181346928Y-83120514D01*
X181292500Y-83283800D01*
X181183642Y-83392657D01*
X181074785Y-83447085D01*
X180857071Y-83501514D01*
X180693785Y-83501514D01*
X180476071Y-83447085D01*
X180367214Y-83392657D01*
X180258357Y-83283800D01*
X180203928Y-83120514D01*
X180203928Y-82848371D01*
X180203928Y-84590085D02*
X180203928Y-83936942D01*
X180203928Y-84263514D02*
X181346928Y-84263514D01*
X181183642Y-84154657D01*
X181074785Y-84045800D01*
X181020357Y-83936942D01*
X180965928Y-85569800D02*
X180203928Y-85569800D01*
X181401357Y-85297657D02*
X180584928Y-85025514D01*
X180584928Y-85733085D01*
%TO.C,LED15*%
X186426928Y-75337228D02*
X186426928Y-74792942D01*
X187569928Y-74792942D01*
X187025642Y-75718228D02*
X187025642Y-76099228D01*
X186426928Y-76262514D02*
X186426928Y-75718228D01*
X187569928Y-75718228D01*
X187569928Y-76262514D01*
X186426928Y-76752371D02*
X187569928Y-76752371D01*
X187569928Y-77024514D01*
X187515500Y-77187800D01*
X187406642Y-77296657D01*
X187297785Y-77351085D01*
X187080071Y-77405514D01*
X186916785Y-77405514D01*
X186699071Y-77351085D01*
X186590214Y-77296657D01*
X186481357Y-77187800D01*
X186426928Y-77024514D01*
X186426928Y-76752371D01*
X186426928Y-78494085D02*
X186426928Y-77840942D01*
X186426928Y-78167514D02*
X187569928Y-78167514D01*
X187406642Y-78058657D01*
X187297785Y-77949800D01*
X187243357Y-77840942D01*
X187569928Y-79528228D02*
X187569928Y-78983942D01*
X187025642Y-78929514D01*
X187080071Y-78983942D01*
X187134500Y-79092800D01*
X187134500Y-79364942D01*
X187080071Y-79473800D01*
X187025642Y-79528228D01*
X186916785Y-79582657D01*
X186644642Y-79582657D01*
X186535785Y-79528228D01*
X186481357Y-79473800D01*
X186426928Y-79364942D01*
X186426928Y-79092800D01*
X186481357Y-78983942D01*
X186535785Y-78929514D01*
%TO.C,LED16*%
X192522928Y-69114228D02*
X192522928Y-68569942D01*
X193665928Y-68569942D01*
X193121642Y-69495228D02*
X193121642Y-69876228D01*
X192522928Y-70039514D02*
X192522928Y-69495228D01*
X193665928Y-69495228D01*
X193665928Y-70039514D01*
X192522928Y-70529371D02*
X193665928Y-70529371D01*
X193665928Y-70801514D01*
X193611500Y-70964800D01*
X193502642Y-71073657D01*
X193393785Y-71128085D01*
X193176071Y-71182514D01*
X193012785Y-71182514D01*
X192795071Y-71128085D01*
X192686214Y-71073657D01*
X192577357Y-70964800D01*
X192522928Y-70801514D01*
X192522928Y-70529371D01*
X192522928Y-72271085D02*
X192522928Y-71617942D01*
X192522928Y-71944514D02*
X193665928Y-71944514D01*
X193502642Y-71835657D01*
X193393785Y-71726800D01*
X193339357Y-71617942D01*
X193665928Y-73250800D02*
X193665928Y-73033085D01*
X193611500Y-72924228D01*
X193557071Y-72869800D01*
X193393785Y-72760942D01*
X193176071Y-72706514D01*
X192740642Y-72706514D01*
X192631785Y-72760942D01*
X192577357Y-72815371D01*
X192522928Y-72924228D01*
X192522928Y-73141942D01*
X192577357Y-73250800D01*
X192631785Y-73305228D01*
X192740642Y-73359657D01*
X193012785Y-73359657D01*
X193121642Y-73305228D01*
X193176071Y-73250800D01*
X193230500Y-73141942D01*
X193230500Y-72924228D01*
X193176071Y-72815371D01*
X193121642Y-72760942D01*
X193012785Y-72706514D01*
%TO.C,LED17*%
X198237928Y-63399228D02*
X198237928Y-62854942D01*
X199380928Y-62854942D01*
X198836642Y-63780228D02*
X198836642Y-64161228D01*
X198237928Y-64324514D02*
X198237928Y-63780228D01*
X199380928Y-63780228D01*
X199380928Y-64324514D01*
X198237928Y-64814371D02*
X199380928Y-64814371D01*
X199380928Y-65086514D01*
X199326500Y-65249800D01*
X199217642Y-65358657D01*
X199108785Y-65413085D01*
X198891071Y-65467514D01*
X198727785Y-65467514D01*
X198510071Y-65413085D01*
X198401214Y-65358657D01*
X198292357Y-65249800D01*
X198237928Y-65086514D01*
X198237928Y-64814371D01*
X198237928Y-66556085D02*
X198237928Y-65902942D01*
X198237928Y-66229514D02*
X199380928Y-66229514D01*
X199217642Y-66120657D01*
X199108785Y-66011800D01*
X199054357Y-65902942D01*
X199380928Y-66937085D02*
X199380928Y-67699085D01*
X198237928Y-67209228D01*
%TO.C,LED18*%
X192395928Y-57303228D02*
X192395928Y-56758942D01*
X193538928Y-56758942D01*
X192994642Y-57684228D02*
X192994642Y-58065228D01*
X192395928Y-58228514D02*
X192395928Y-57684228D01*
X193538928Y-57684228D01*
X193538928Y-58228514D01*
X192395928Y-58718371D02*
X193538928Y-58718371D01*
X193538928Y-58990514D01*
X193484500Y-59153800D01*
X193375642Y-59262657D01*
X193266785Y-59317085D01*
X193049071Y-59371514D01*
X192885785Y-59371514D01*
X192668071Y-59317085D01*
X192559214Y-59262657D01*
X192450357Y-59153800D01*
X192395928Y-58990514D01*
X192395928Y-58718371D01*
X192395928Y-60460085D02*
X192395928Y-59806942D01*
X192395928Y-60133514D02*
X193538928Y-60133514D01*
X193375642Y-60024657D01*
X193266785Y-59915800D01*
X193212357Y-59806942D01*
X193049071Y-61113228D02*
X193103500Y-61004371D01*
X193157928Y-60949942D01*
X193266785Y-60895514D01*
X193321214Y-60895514D01*
X193430071Y-60949942D01*
X193484500Y-61004371D01*
X193538928Y-61113228D01*
X193538928Y-61330942D01*
X193484500Y-61439800D01*
X193430071Y-61494228D01*
X193321214Y-61548657D01*
X193266785Y-61548657D01*
X193157928Y-61494228D01*
X193103500Y-61439800D01*
X193049071Y-61330942D01*
X193049071Y-61113228D01*
X192994642Y-61004371D01*
X192940214Y-60949942D01*
X192831357Y-60895514D01*
X192613642Y-60895514D01*
X192504785Y-60949942D01*
X192450357Y-61004371D01*
X192395928Y-61113228D01*
X192395928Y-61330942D01*
X192450357Y-61439800D01*
X192504785Y-61494228D01*
X192613642Y-61548657D01*
X192831357Y-61548657D01*
X192940214Y-61494228D01*
X192994642Y-61439800D01*
X193049071Y-61330942D01*
%TO.C,LED19*%
X186299928Y-51334228D02*
X186299928Y-50789942D01*
X187442928Y-50789942D01*
X186898642Y-51715228D02*
X186898642Y-52096228D01*
X186299928Y-52259514D02*
X186299928Y-51715228D01*
X187442928Y-51715228D01*
X187442928Y-52259514D01*
X186299928Y-52749371D02*
X187442928Y-52749371D01*
X187442928Y-53021514D01*
X187388500Y-53184800D01*
X187279642Y-53293657D01*
X187170785Y-53348085D01*
X186953071Y-53402514D01*
X186789785Y-53402514D01*
X186572071Y-53348085D01*
X186463214Y-53293657D01*
X186354357Y-53184800D01*
X186299928Y-53021514D01*
X186299928Y-52749371D01*
X186299928Y-54491085D02*
X186299928Y-53837942D01*
X186299928Y-54164514D02*
X187442928Y-54164514D01*
X187279642Y-54055657D01*
X187170785Y-53946800D01*
X187116357Y-53837942D01*
X186299928Y-55035371D02*
X186299928Y-55253085D01*
X186354357Y-55361942D01*
X186408785Y-55416371D01*
X186572071Y-55525228D01*
X186789785Y-55579657D01*
X187225214Y-55579657D01*
X187334071Y-55525228D01*
X187388500Y-55470800D01*
X187442928Y-55361942D01*
X187442928Y-55144228D01*
X187388500Y-55035371D01*
X187334071Y-54980942D01*
X187225214Y-54926514D01*
X186953071Y-54926514D01*
X186844214Y-54980942D01*
X186789785Y-55035371D01*
X186735357Y-55144228D01*
X186735357Y-55361942D01*
X186789785Y-55470800D01*
X186844214Y-55525228D01*
X186953071Y-55579657D01*
%TO.C,LED20*%
X180457928Y-44984228D02*
X180457928Y-44439942D01*
X181600928Y-44439942D01*
X181056642Y-45365228D02*
X181056642Y-45746228D01*
X180457928Y-45909514D02*
X180457928Y-45365228D01*
X181600928Y-45365228D01*
X181600928Y-45909514D01*
X180457928Y-46399371D02*
X181600928Y-46399371D01*
X181600928Y-46671514D01*
X181546500Y-46834800D01*
X181437642Y-46943657D01*
X181328785Y-46998085D01*
X181111071Y-47052514D01*
X180947785Y-47052514D01*
X180730071Y-46998085D01*
X180621214Y-46943657D01*
X180512357Y-46834800D01*
X180457928Y-46671514D01*
X180457928Y-46399371D01*
X181492071Y-47487942D02*
X181546500Y-47542371D01*
X181600928Y-47651228D01*
X181600928Y-47923371D01*
X181546500Y-48032228D01*
X181492071Y-48086657D01*
X181383214Y-48141085D01*
X181274357Y-48141085D01*
X181111071Y-48086657D01*
X180457928Y-47433514D01*
X180457928Y-48141085D01*
X181600928Y-48848657D02*
X181600928Y-48957514D01*
X181546500Y-49066371D01*
X181492071Y-49120800D01*
X181383214Y-49175228D01*
X181165500Y-49229657D01*
X180893357Y-49229657D01*
X180675642Y-49175228D01*
X180566785Y-49120800D01*
X180512357Y-49066371D01*
X180457928Y-48957514D01*
X180457928Y-48848657D01*
X180512357Y-48739800D01*
X180566785Y-48685371D01*
X180675642Y-48630942D01*
X180893357Y-48576514D01*
X181165500Y-48576514D01*
X181383214Y-48630942D01*
X181492071Y-48685371D01*
X181546500Y-48739800D01*
X181600928Y-48848657D01*
%TO.C,LED21*%
X174361928Y-39015228D02*
X174361928Y-38470942D01*
X175504928Y-38470942D01*
X174960642Y-39396228D02*
X174960642Y-39777228D01*
X174361928Y-39940514D02*
X174361928Y-39396228D01*
X175504928Y-39396228D01*
X175504928Y-39940514D01*
X174361928Y-40430371D02*
X175504928Y-40430371D01*
X175504928Y-40702514D01*
X175450500Y-40865800D01*
X175341642Y-40974657D01*
X175232785Y-41029085D01*
X175015071Y-41083514D01*
X174851785Y-41083514D01*
X174634071Y-41029085D01*
X174525214Y-40974657D01*
X174416357Y-40865800D01*
X174361928Y-40702514D01*
X174361928Y-40430371D01*
X175396071Y-41518942D02*
X175450500Y-41573371D01*
X175504928Y-41682228D01*
X175504928Y-41954371D01*
X175450500Y-42063228D01*
X175396071Y-42117657D01*
X175287214Y-42172085D01*
X175178357Y-42172085D01*
X175015071Y-42117657D01*
X174361928Y-41464514D01*
X174361928Y-42172085D01*
X174361928Y-43260657D02*
X174361928Y-42607514D01*
X174361928Y-42934085D02*
X175504928Y-42934085D01*
X175341642Y-42825228D01*
X175232785Y-42716371D01*
X175178357Y-42607514D01*
%TO.C,LED22*%
X168265928Y-33046228D02*
X168265928Y-32501942D01*
X169408928Y-32501942D01*
X168864642Y-33427228D02*
X168864642Y-33808228D01*
X168265928Y-33971514D02*
X168265928Y-33427228D01*
X169408928Y-33427228D01*
X169408928Y-33971514D01*
X168265928Y-34461371D02*
X169408928Y-34461371D01*
X169408928Y-34733514D01*
X169354500Y-34896800D01*
X169245642Y-35005657D01*
X169136785Y-35060085D01*
X168919071Y-35114514D01*
X168755785Y-35114514D01*
X168538071Y-35060085D01*
X168429214Y-35005657D01*
X168320357Y-34896800D01*
X168265928Y-34733514D01*
X168265928Y-34461371D01*
X169300071Y-35549942D02*
X169354500Y-35604371D01*
X169408928Y-35713228D01*
X169408928Y-35985371D01*
X169354500Y-36094228D01*
X169300071Y-36148657D01*
X169191214Y-36203085D01*
X169082357Y-36203085D01*
X168919071Y-36148657D01*
X168265928Y-35495514D01*
X168265928Y-36203085D01*
X169300071Y-36638514D02*
X169354500Y-36692942D01*
X169408928Y-36801800D01*
X169408928Y-37073942D01*
X169354500Y-37182800D01*
X169300071Y-37237228D01*
X169191214Y-37291657D01*
X169082357Y-37291657D01*
X168919071Y-37237228D01*
X168265928Y-36584085D01*
X168265928Y-37291657D01*
%TO.C,*%
D11*
%TD*%
%LPC*%
D13*
%TO.C,*%
X165989000Y-52959000D03*
%TD*%
%TO.C,*%
X165989000Y-54991000D03*
%TD*%
%TO.C,*%
X165989000Y-57023000D03*
%TD*%
%TO.C,*%
X165989000Y-59055000D03*
%TD*%
%TO.C,*%
X165989000Y-61087000D03*
%TD*%
%TO.C,*%
X162560000Y-48895000D03*
%TD*%
%TO.C,*%
X164592000Y-50673000D03*
%TD*%
D14*
%TO.C,LED30*%
X177292000Y-76327000D03*
X174752000Y-76327000D03*
%TD*%
%TO.C,LED23*%
X159385000Y-34290000D03*
X156845000Y-34290000D03*
%TD*%
%TO.C,LED24*%
X165354000Y-40132000D03*
X162814000Y-40132000D03*
%TD*%
%TO.C,LED25*%
X171323000Y-46355000D03*
X168783000Y-46355000D03*
%TD*%
%TO.C,LED26*%
X177292000Y-52324000D03*
X174752000Y-52324000D03*
%TD*%
%TO.C,LED27*%
X183388000Y-58420000D03*
X180848000Y-58420000D03*
%TD*%
%TO.C,LED28*%
X189357000Y-64389000D03*
X186817000Y-64389000D03*
%TD*%
%TO.C,LED29*%
X183388000Y-70358000D03*
X180848000Y-70358000D03*
%TD*%
%TO.C,LED31*%
X171069000Y-82423000D03*
X168529000Y-82423000D03*
%TD*%
%TO.C,LED32*%
X165100000Y-88392000D03*
X162560000Y-88392000D03*
%TD*%
%TO.C,LED33*%
X159131000Y-94361000D03*
X156591000Y-94361000D03*
%TD*%
%TO.C,LED34*%
X146812000Y-94361000D03*
X149352000Y-94361000D03*
%TD*%
%TO.C,LED35*%
X140843000Y-88265000D03*
X143383000Y-88265000D03*
%TD*%
%TO.C,LED36*%
X134874000Y-82423000D03*
X137414000Y-82423000D03*
%TD*%
%TO.C,LED37*%
X128651000Y-76327000D03*
X131191000Y-76327000D03*
%TD*%
%TO.C,LED38*%
X122555000Y-70358000D03*
X125095000Y-70358000D03*
%TD*%
%TO.C,LED39*%
X116586000Y-64389000D03*
X119126000Y-64389000D03*
%TD*%
%TO.C,LED40*%
X122555000Y-58293000D03*
X125095000Y-58293000D03*
%TD*%
%TO.C,LED41*%
X128651000Y-52324000D03*
X131191000Y-52324000D03*
%TD*%
%TO.C,LED42*%
X134620000Y-46355000D03*
X137160000Y-46355000D03*
%TD*%
%TO.C,LED43*%
X140589000Y-40132000D03*
X143129000Y-40132000D03*
%TD*%
%TO.C,LED44*%
X146558000Y-34417000D03*
X149098000Y-34417000D03*
%TD*%
%TO.C,LED45*%
X131826000Y-94361000D03*
X134366000Y-94361000D03*
%TD*%
%TO.C,LED46*%
X125857000Y-88392000D03*
X128397000Y-88392000D03*
%TD*%
%TO.C,LED47*%
X119761000Y-82423000D03*
X122301000Y-82423000D03*
%TD*%
%TO.C,LED48*%
X113538000Y-76327000D03*
X116078000Y-76327000D03*
%TD*%
%TO.C,LED49*%
X107569000Y-70358000D03*
X110109000Y-70358000D03*
%TD*%
%TO.C,LED50*%
X101600000Y-64389000D03*
X104140000Y-64389000D03*
%TD*%
%TO.C,LED51*%
X107569000Y-58420000D03*
X110109000Y-58420000D03*
%TD*%
%TO.C,LED52*%
X113665000Y-52324000D03*
X116205000Y-52324000D03*
%TD*%
%TO.C,LED53*%
X119634000Y-46355000D03*
X122174000Y-46355000D03*
%TD*%
%TO.C,LED54*%
X125603000Y-40132000D03*
X128143000Y-40132000D03*
%TD*%
%TO.C,LED55*%
X131572000Y-34290000D03*
X134112000Y-34290000D03*
%TD*%
%TO.C,LED56*%
X116840000Y-94361000D03*
X119380000Y-94361000D03*
%TD*%
%TO.C,LED57*%
X110871000Y-88392000D03*
X113411000Y-88392000D03*
%TD*%
%TO.C,LED58*%
X104775000Y-82423000D03*
X107315000Y-82423000D03*
%TD*%
%TO.C,LED59*%
X98552000Y-76327000D03*
X101092000Y-76327000D03*
%TD*%
%TO.C,LED60*%
X92583000Y-70358000D03*
X95123000Y-70358000D03*
%TD*%
%TO.C,LED61*%
X86614000Y-64389000D03*
X89154000Y-64389000D03*
%TD*%
%TO.C,LED62*%
X92583000Y-58293000D03*
X95123000Y-58293000D03*
%TD*%
%TO.C,LED63*%
X98679000Y-52324000D03*
X101219000Y-52324000D03*
%TD*%
%TO.C,LED64*%
X104648000Y-46355000D03*
X107188000Y-46355000D03*
%TD*%
%TO.C,LED65*%
X110617000Y-40132000D03*
X113157000Y-40132000D03*
%TD*%
%TO.C,LED66*%
X116586000Y-34290000D03*
X119126000Y-34290000D03*
%TD*%
%TO.C,LED7*%
X213360000Y-70358000D03*
X210820000Y-70358000D03*
%TD*%
%TO.C,LED2*%
X195326000Y-40132000D03*
X192786000Y-40132000D03*
%TD*%
%TO.C,LED10*%
X195199000Y-88392000D03*
X192659000Y-88392000D03*
%TD*%
%TO.C,LED9*%
X201168000Y-82423000D03*
X198628000Y-82423000D03*
%TD*%
%TO.C,LED8*%
X207391000Y-76327000D03*
X204851000Y-76327000D03*
%TD*%
%TO.C,LED11*%
X189103000Y-94361000D03*
X186563000Y-94361000D03*
%TD*%
%TO.C,LED6*%
X219329000Y-64389000D03*
X216789000Y-64389000D03*
%TD*%
%TO.C,LED5*%
X213360000Y-58293000D03*
X210820000Y-58293000D03*
%TD*%
%TO.C,LED4*%
X207391000Y-52324000D03*
X204851000Y-52324000D03*
%TD*%
%TO.C,LED3*%
X201295000Y-46355000D03*
X198755000Y-46355000D03*
%TD*%
%TO.C,LED1*%
X189357000Y-34290000D03*
X186817000Y-34290000D03*
%TD*%
%TO.C,LED12*%
X174117000Y-94361000D03*
X171577000Y-94361000D03*
%TD*%
%TO.C,LED13*%
X180086000Y-88392000D03*
X177546000Y-88392000D03*
%TD*%
%TO.C,LED14*%
X186182000Y-82423000D03*
X183642000Y-82423000D03*
%TD*%
%TO.C,LED15*%
X192405000Y-76327000D03*
X189865000Y-76327000D03*
%TD*%
%TO.C,LED16*%
X198374000Y-70358000D03*
X195834000Y-70358000D03*
%TD*%
%TO.C,LED17*%
X204343000Y-64389000D03*
X201803000Y-64389000D03*
%TD*%
%TO.C,LED18*%
X198374000Y-58420000D03*
X195834000Y-58420000D03*
%TD*%
%TO.C,LED19*%
X192278000Y-52324000D03*
X189738000Y-52324000D03*
%TD*%
%TO.C,LED20*%
X186309000Y-46355000D03*
X183769000Y-46355000D03*
%TD*%
%TO.C,LED21*%
X180340000Y-40132000D03*
X177800000Y-40132000D03*
%TD*%
%TO.C,LED22*%
X174371000Y-34290000D03*
X171831000Y-34290000D03*
%TD*%
D15*
%TO.C,*%
X139700000Y-64262000D03*
%TD*%
%TO.C,*%
X166497000Y-64135000D03*
%TD*%
M02*
