G04 #@! TF.GenerationSoftware,KiCad,Pcbnew,(2017-11-08 revision cd21218)-HEAD*
G04 #@! TF.CreationDate,2018-02-21T13:37:35+02:00*
G04 #@! TF.ProjectId,heater_actuator_node,6865617465725F6163747561746F725F,rev?*
G04 #@! TF.SameCoordinates,Original*
G04 #@! TF.FileFunction,Soldermask,Top*
G04 #@! TF.FilePolarity,Negative*
%FSLAX46Y46*%
G04 Gerber Fmt 4.6, Leading zero omitted, Abs format (unit mm)*
G04 Created by KiCad (PCBNEW (2017-11-08 revision cd21218)-HEAD) date Wed Feb 21 13:37:35 2018*
%MOMM*%
%LPD*%
G01*
G04 APERTURE LIST*
%ADD10C,2.200000*%
%ADD11C,1.400000*%
%ADD12O,1.400000X1.400000*%
%ADD13R,1.500000X1.250000*%
%ADD14R,1.250000X1.500000*%
%ADD15R,3.200000X2.500000*%
%ADD16O,1.600000X1.600000*%
%ADD17R,1.600000X1.600000*%
%ADD18C,1.800000*%
%ADD19R,1.800000X1.800000*%
%ADD20C,2.349500*%
%ADD21R,1.000000X1.000000*%
%ADD22C,1.000000*%
%ADD23R,1.500000X1.300000*%
%ADD24C,2.500000*%
%ADD25C,3.000000*%
%ADD26R,2.000000X1.500000*%
%ADD27R,2.000000X3.800000*%
%ADD28C,2.400000*%
%ADD29R,2.400000X2.400000*%
%ADD30R,2.500000X1.950000*%
%ADD31R,1.700000X1.700000*%
%ADD32O,1.700000X1.700000*%
%ADD33R,0.900000X0.800000*%
%ADD34C,2.000000*%
%ADD35O,2.400000X1.100000*%
%ADD36R,2.400000X1.100000*%
G04 APERTURE END LIST*
D10*
X117650000Y-59875000D03*
X181800000Y-59925000D03*
X181800000Y-95275000D03*
X181800000Y-120475000D03*
X117750000Y-87175000D03*
X117650000Y-120475000D03*
D11*
X166750000Y-106500000D03*
D12*
X174370000Y-106500000D03*
D11*
X166750000Y-112250000D03*
D12*
X174370000Y-112250000D03*
D13*
X122000000Y-98250000D03*
X119500000Y-98250000D03*
D14*
X150750000Y-100750000D03*
X150750000Y-103250000D03*
D15*
X133600000Y-93000000D03*
X137900000Y-93000000D03*
D16*
X150950000Y-97775000D03*
D17*
X150950000Y-87615000D03*
D18*
X179710000Y-115000000D03*
D19*
X182250000Y-115000000D03*
X182250000Y-110250000D03*
D18*
X179710000Y-110250000D03*
D20*
X163089360Y-80415000D03*
X163089360Y-75335000D03*
X178410640Y-80415000D03*
X178410640Y-75335000D03*
D21*
X146350000Y-90875000D03*
D22*
X143810000Y-90875000D03*
X145080000Y-92145000D03*
D23*
X150100000Y-110250000D03*
X147400000Y-110250000D03*
X150100000Y-114250000D03*
X147400000Y-114250000D03*
D24*
X157500000Y-99325000D03*
X157500000Y-87325000D03*
D25*
X155550000Y-93275000D03*
X169750000Y-99275000D03*
D26*
X129400000Y-93550000D03*
X129400000Y-88950000D03*
X129400000Y-91250000D03*
D27*
X123100000Y-91250000D03*
D25*
X153350000Y-75175000D03*
X153350000Y-70175000D03*
X123950000Y-80375000D03*
X123950000Y-64975000D03*
D18*
X162250000Y-63775000D03*
X169750000Y-66875000D03*
D28*
X179450000Y-86775000D03*
D29*
X179450000Y-90275000D03*
X179350000Y-69375000D03*
D28*
X179350000Y-65875000D03*
D15*
X133600000Y-89000000D03*
X137900000Y-89000000D03*
D30*
X148000000Y-100725000D03*
X148000000Y-103775000D03*
D31*
X161250000Y-107250000D03*
D32*
X161250000Y-109790000D03*
X161250000Y-112330000D03*
X161250000Y-114870000D03*
X161250000Y-117410000D03*
X161250000Y-119950000D03*
D33*
X155000000Y-112200000D03*
X155000000Y-110300000D03*
X153000000Y-111250000D03*
X156750000Y-110300000D03*
X156750000Y-112200000D03*
X158750000Y-111250000D03*
D34*
X117500000Y-106875000D03*
X117500000Y-102375000D03*
X124000000Y-106875000D03*
X124000000Y-102375000D03*
D35*
X128750000Y-114250000D03*
X128750000Y-112250000D03*
X128750000Y-110250000D03*
X128750000Y-108250000D03*
X128750000Y-106250000D03*
X128750000Y-104250000D03*
X128750000Y-102250000D03*
X128750000Y-100250000D03*
X144750000Y-100250000D03*
X144750000Y-102250000D03*
X144750000Y-104250000D03*
X144750000Y-106250000D03*
X144750000Y-108250000D03*
X144750000Y-110250000D03*
X144750000Y-112250000D03*
D36*
X144750000Y-114250000D03*
M02*
