G04 #@! TF.GenerationSoftware,KiCad,Pcbnew,5.0.1-33cea8e~68~ubuntu16.04.1*
G04 #@! TF.CreationDate,2018-11-21T16:15:50+02:00*
G04 #@! TF.ProjectId,livolo_2_channels_1way_eu_switch,6C69766F6C6F5F325F6368616E6E656C,rev?*
G04 #@! TF.SameCoordinates,Original*
G04 #@! TF.FileFunction,Copper,L1,Top,Signal*
G04 #@! TF.FilePolarity,Positive*
%FSLAX46Y46*%
G04 Gerber Fmt 4.6, Leading zero omitted, Abs format (unit mm)*
G04 Created by KiCad (PCBNEW 5.0.1-33cea8e~68~ubuntu16.04.1) date Wed 21 Nov 2018 16:15:50 EET*
%MOMM*%
%LPD*%
G01*
G04 APERTURE LIST*
G04 #@! TA.AperFunction,EtchedComponent*
%ADD10C,0.300000*%
G04 #@! TD*
G04 #@! TA.AperFunction,SMDPad,CuDef*
%ADD11R,0.500000X0.900000*%
G04 #@! TD*
G04 #@! TA.AperFunction,SMDPad,CuDef*
%ADD12R,1.000000X2.000000*%
G04 #@! TD*
G04 #@! TA.AperFunction,SMDPad,CuDef*
%ADD13R,4.000000X2.000000*%
G04 #@! TD*
G04 #@! TA.AperFunction,SMDPad,CuDef*
%ADD14R,1.200000X2.000000*%
G04 #@! TD*
G04 #@! TA.AperFunction,SMDPad,CuDef*
%ADD15R,1.200000X1.400000*%
G04 #@! TD*
G04 #@! TA.AperFunction,SMDPad,CuDef*
%ADD16R,0.900000X1.200000*%
G04 #@! TD*
G04 #@! TA.AperFunction,SMDPad,CuDef*
%ADD17R,0.650000X1.060000*%
G04 #@! TD*
G04 #@! TA.AperFunction,SMDPad,CuDef*
%ADD18R,1.200000X0.750000*%
G04 #@! TD*
G04 #@! TA.AperFunction,SMDPad,CuDef*
%ADD19R,0.750000X1.200000*%
G04 #@! TD*
G04 #@! TA.AperFunction,SMDPad,CuDef*
%ADD20R,1.200000X0.900000*%
G04 #@! TD*
G04 #@! TA.AperFunction,SMDPad,CuDef*
%ADD21R,0.900000X0.500000*%
G04 #@! TD*
G04 #@! TA.AperFunction,ComponentPad*
%ADD22O,1.350000X1.350000*%
G04 #@! TD*
G04 #@! TA.AperFunction,ComponentPad*
%ADD23R,1.350000X1.350000*%
G04 #@! TD*
G04 #@! TA.AperFunction,SMDPad,CuDef*
%ADD24R,1.260000X1.750000*%
G04 #@! TD*
G04 #@! TA.AperFunction,SMDPad,CuDef*
%ADD25R,1.000000X1.600000*%
G04 #@! TD*
G04 #@! TA.AperFunction,SMDPad,CuDef*
%ADD26R,0.400000X1.200000*%
G04 #@! TD*
G04 #@! TA.AperFunction,Conductor*
%ADD27C,0.500000*%
G04 #@! TD*
G04 #@! TA.AperFunction,ComponentPad*
%ADD28C,0.600000*%
G04 #@! TD*
G04 #@! TA.AperFunction,SMDPad,CuDef*
%ADD29R,1.500000X1.000000*%
G04 #@! TD*
G04 #@! TA.AperFunction,SMDPad,CuDef*
%ADD30R,1.000000X1.500000*%
G04 #@! TD*
G04 #@! TA.AperFunction,ViaPad*
%ADD31C,0.800000*%
G04 #@! TD*
G04 #@! TA.AperFunction,Conductor*
%ADD32C,0.300000*%
G04 #@! TD*
G04 #@! TA.AperFunction,Conductor*
%ADD33C,1.000000*%
G04 #@! TD*
G04 #@! TA.AperFunction,Conductor*
%ADD34C,0.450000*%
G04 #@! TD*
G04 #@! TA.AperFunction,Conductor*
%ADD35C,0.500000*%
G04 #@! TD*
G04 #@! TA.AperFunction,Conductor*
%ADD36C,0.254000*%
G04 #@! TD*
G04 APERTURE END LIST*
D10*
G04 #@! TO.C,U1*
X120889541Y-95391903D02*
G75*
G03X132999999Y-99649999I7785459J2791903D01*
G01*
X134992909Y-98012685D02*
G75*
G03X120925000Y-89575000I-6317909J5412685D01*
G01*
X120900000Y-89624946D02*
X120900000Y-95425000D01*
X135538257Y-97261758D02*
X124025721Y-85749222D01*
X125605965Y-84905888D02*
X120892966Y-89618887D01*
X136739542Y-90739531D02*
X126838572Y-100640501D01*
X131616559Y-84856670D02*
X136442473Y-89682584D01*
X132246678Y-96395119D02*
X122725478Y-86873919D01*
X133039443Y-99610914D02*
X121664197Y-88235668D01*
X125920933Y-100346130D02*
X136458534Y-89808529D01*
X136873884Y-91326195D02*
X129973672Y-84425983D01*
X121430323Y-96485994D02*
X124884838Y-99940509D01*
X134093456Y-97022197D02*
X136757837Y-94357816D01*
X136362306Y-95662707D02*
X125612119Y-84912520D01*
X122934367Y-98484666D02*
X134597050Y-86821983D01*
X133966056Y-86240957D02*
X122353385Y-97853628D01*
X130767479Y-84592474D02*
X120892474Y-94467479D01*
X122156953Y-87517334D02*
X131638715Y-96999096D01*
X136102544Y-88952499D02*
X125039834Y-100015209D01*
X124781631Y-85293082D02*
X135994360Y-96505811D01*
X120898895Y-93248958D02*
X129748964Y-84398889D01*
X131660268Y-98243585D02*
X129064128Y-100839725D01*
X120908553Y-91116094D02*
X130446253Y-100653794D01*
X128654907Y-84319318D02*
X136955296Y-92619707D01*
X129402779Y-100822310D02*
X120890230Y-92309761D01*
X126790720Y-100634321D02*
X120915566Y-94759167D01*
X120908963Y-93540574D02*
X128221843Y-100853454D01*
X132516979Y-85266974D02*
X121366974Y-96416979D01*
X126518178Y-84606639D02*
X136680815Y-94769276D01*
X136886801Y-93763212D02*
X127511723Y-84388134D01*
X123344181Y-86280652D02*
X135019466Y-97955937D01*
X121220690Y-89004121D02*
X132245878Y-100029309D01*
X131402299Y-100397770D02*
X120927137Y-89922608D01*
X127882698Y-100808445D02*
X136920686Y-91770457D01*
X121822505Y-97172548D02*
X133272526Y-85722527D01*
X128617929Y-84317924D02*
X120892722Y-92043131D01*
X135178001Y-87453002D02*
X123565154Y-99065849D01*
X124271291Y-99571732D02*
X135671547Y-88171476D01*
X121011018Y-95561035D02*
X131648526Y-84923527D01*
X120899332Y-90824421D02*
X127286887Y-84436866D01*
X130460061Y-100664290D02*
X132257809Y-98866542D01*
X136939651Y-92964202D02*
X133487744Y-96416109D01*
G04 #@! TO.C,U6*
X164010459Y-95291903D02*
G75*
G02X151900001Y-99549999I-7785459J2791903D01*
G01*
X149907091Y-97912685D02*
G75*
G02X163975000Y-89475000I6317909J5412685D01*
G01*
X164000000Y-89524946D02*
X164000000Y-95325000D01*
X149361743Y-97161758D02*
X160874279Y-85649222D01*
X159294035Y-84805888D02*
X164007034Y-89518887D01*
X148160458Y-90639531D02*
X158061428Y-100540501D01*
X153283441Y-84756670D02*
X148457527Y-89582584D01*
X152653322Y-96295119D02*
X162174522Y-86773919D01*
X151860557Y-99510914D02*
X163235803Y-88135668D01*
X158979067Y-100246130D02*
X148441466Y-89708529D01*
X148026116Y-91226195D02*
X154926328Y-84325983D01*
X163469677Y-96385994D02*
X160015162Y-99840509D01*
X150806544Y-96922197D02*
X148142163Y-94257816D01*
X148537694Y-95562707D02*
X159287881Y-84812520D01*
X161965633Y-98384666D02*
X150302950Y-86721983D01*
X150933944Y-86140957D02*
X162546615Y-97753628D01*
X154132521Y-84492474D02*
X164007526Y-94367479D01*
X162743047Y-87417334D02*
X153261285Y-96899096D01*
X148797456Y-88852499D02*
X159860166Y-99915209D01*
X160118369Y-85193082D02*
X148905640Y-96405811D01*
X164001105Y-93148958D02*
X155151036Y-84298889D01*
X153239732Y-98143585D02*
X155835872Y-100739725D01*
X163991447Y-91016094D02*
X154453747Y-100553794D01*
X156245093Y-84219318D02*
X147944704Y-92519707D01*
X155497221Y-100722310D02*
X164009770Y-92209761D01*
X158109280Y-100534321D02*
X163984434Y-94659167D01*
X163991037Y-93440574D02*
X156678157Y-100753454D01*
X152383021Y-85166974D02*
X163533026Y-96316979D01*
X158381822Y-84506639D02*
X148219185Y-94669276D01*
X148013199Y-93663212D02*
X157388277Y-84288134D01*
X161555819Y-86180652D02*
X149880534Y-97855937D01*
X163679310Y-88904121D02*
X152654122Y-99929309D01*
X153497701Y-100297770D02*
X163972863Y-89822608D01*
X157017302Y-100708445D02*
X147979314Y-91670457D01*
X163077495Y-97072548D02*
X151627474Y-85622527D01*
X156282071Y-84217924D02*
X164007278Y-91943131D01*
X149721999Y-87353002D02*
X161334846Y-98965849D01*
X160628709Y-99471732D02*
X149228453Y-88071476D01*
X163888982Y-95461035D02*
X153251474Y-84823527D01*
X164000668Y-90724421D02*
X157613113Y-84336866D01*
X154439939Y-100564290D02*
X152642191Y-98766542D01*
X147960349Y-92864202D02*
X151412256Y-96316109D01*
G04 #@! TD*
D11*
G04 #@! TO.P,R4,1*
G04 #@! TO.N,Net-(R4-Pad1)*
X146350000Y-100800000D03*
G04 #@! TO.P,R4,2*
G04 #@! TO.N,Net-(R4-Pad2)*
X147850000Y-100800000D03*
G04 #@! TD*
G04 #@! TO.P,R9,1*
G04 #@! TO.N,Net-(R3-Pad2)*
X146350000Y-99200000D03*
G04 #@! TO.P,R9,2*
G04 #@! TO.N,Net-(R9-Pad2)*
X147850000Y-99200000D03*
G04 #@! TD*
G04 #@! TO.P,R10,1*
G04 #@! TO.N,Net-(R10-Pad1)*
X136100000Y-100700000D03*
G04 #@! TO.P,R10,2*
G04 #@! TO.N,Net-(R10-Pad2)*
X137600000Y-100700000D03*
G04 #@! TD*
G04 #@! TO.P,R3,1*
G04 #@! TO.N,Net-(R3-Pad1)*
X136100000Y-99100000D03*
G04 #@! TO.P,R3,2*
G04 #@! TO.N,Net-(R3-Pad2)*
X137600000Y-99100000D03*
G04 #@! TD*
D12*
G04 #@! TO.P,J1,4*
G04 #@! TO.N,+3V3*
X152000000Y-79250000D03*
G04 #@! TO.P,J1,3*
G04 #@! TO.N,/SWCLK*
X152000000Y-73000000D03*
G04 #@! TO.P,J1,2*
G04 #@! TO.N,GND*
X154000000Y-79250000D03*
G04 #@! TO.P,J1,1*
G04 #@! TO.N,/SWDIO*
X154000000Y-73000000D03*
G04 #@! TD*
D13*
G04 #@! TO.P,L2,1*
G04 #@! TO.N,Net-(C7-Pad1)*
X157700000Y-105850000D03*
G04 #@! TO.P,L2,2*
G04 #@! TO.N,Net-(C9-Pad2)*
X157700000Y-109100000D03*
G04 #@! TD*
D14*
G04 #@! TO.P,D2,1*
G04 #@! TO.N,Net-(C9-Pad2)*
X154200000Y-107800000D03*
D15*
G04 #@! TO.P,D2,2*
G04 #@! TO.N,GND*
X154200000Y-110800000D03*
G04 #@! TD*
D16*
G04 #@! TO.P,R2,2*
G04 #@! TO.N,Net-(R1-Pad1)*
X145800000Y-107700000D03*
G04 #@! TO.P,R2,1*
G04 #@! TO.N,GND*
X145800000Y-109900000D03*
G04 #@! TD*
D17*
G04 #@! TO.P,U2,5*
G04 #@! TO.N,/12Vcc*
X150000000Y-109900000D03*
G04 #@! TO.P,U2,6*
G04 #@! TO.N,Net-(C9-Pad2)*
X150950000Y-109900000D03*
G04 #@! TO.P,U2,4*
G04 #@! TO.N,/12Vcc*
X149050000Y-109900000D03*
G04 #@! TO.P,U2,3*
G04 #@! TO.N,Net-(R1-Pad1)*
X149050000Y-107700000D03*
G04 #@! TO.P,U2,2*
G04 #@! TO.N,GND*
X150000000Y-107700000D03*
G04 #@! TO.P,U2,1*
G04 #@! TO.N,Net-(C9-Pad1)*
X150950000Y-107700000D03*
G04 #@! TD*
D18*
G04 #@! TO.P,C7,1*
G04 #@! TO.N,Net-(C7-Pad1)*
X147850000Y-105300000D03*
G04 #@! TO.P,C7,2*
G04 #@! TO.N,GND*
X149750000Y-105300000D03*
G04 #@! TD*
D19*
G04 #@! TO.P,C9,2*
G04 #@! TO.N,Net-(C9-Pad2)*
X152600000Y-109750000D03*
G04 #@! TO.P,C9,1*
G04 #@! TO.N,Net-(C9-Pad1)*
X152600000Y-107850000D03*
G04 #@! TD*
D16*
G04 #@! TO.P,D1,2*
G04 #@! TO.N,Net-(C7-Pad1)*
X154750000Y-105600000D03*
G04 #@! TO.P,D1,1*
G04 #@! TO.N,Net-(C9-Pad1)*
X151450000Y-105600000D03*
G04 #@! TD*
G04 #@! TO.P,R1,1*
G04 #@! TO.N,Net-(R1-Pad1)*
X147400000Y-109900000D03*
G04 #@! TO.P,R1,2*
G04 #@! TO.N,Net-(C7-Pad1)*
X147400000Y-107700000D03*
G04 #@! TD*
D20*
G04 #@! TO.P,R5,1*
G04 #@! TO.N,Net-(D6-Pad2)*
X155300000Y-103400000D03*
G04 #@! TO.P,R5,2*
G04 #@! TO.N,/S1_LEDs*
X153100000Y-103400000D03*
G04 #@! TD*
G04 #@! TO.P,R6,2*
G04 #@! TO.N,/S1_LEDs*
X157200000Y-103400000D03*
G04 #@! TO.P,R6,1*
G04 #@! TO.N,Net-(D5-Pad1)*
X159400000Y-103400000D03*
G04 #@! TD*
G04 #@! TO.P,R7,1*
G04 #@! TO.N,Net-(D3-Pad2)*
X129600000Y-103400000D03*
G04 #@! TO.P,R7,2*
G04 #@! TO.N,/S2_LEDs*
X131800000Y-103400000D03*
G04 #@! TD*
G04 #@! TO.P,R8,2*
G04 #@! TO.N,/S2_LEDs*
X127700000Y-103400000D03*
G04 #@! TO.P,R8,1*
G04 #@! TO.N,Net-(D4-Pad1)*
X125500000Y-103400000D03*
G04 #@! TD*
D21*
G04 #@! TO.P,L1,2*
G04 #@! TO.N,+3V3*
X146100000Y-104150000D03*
G04 #@! TO.P,L1,1*
G04 #@! TO.N,Net-(C7-Pad1)*
X146100000Y-105650000D03*
G04 #@! TD*
D22*
G04 #@! TO.P,P4,14*
G04 #@! TO.N,N/C*
X143650000Y-107550000D03*
G04 #@! TO.P,P4,13*
G04 #@! TO.N,Net-(J2-Pad1)*
X143650000Y-109550000D03*
G04 #@! TO.P,P4,12*
G04 #@! TO.N,N/C*
X141650000Y-107550000D03*
G04 #@! TO.P,P4,11*
G04 #@! TO.N,GND*
X141650000Y-109550000D03*
G04 #@! TO.P,P4,10*
G04 #@! TO.N,N/C*
X139650000Y-107550000D03*
G04 #@! TO.P,P4,9*
X139650000Y-109550000D03*
G04 #@! TO.P,P4,8*
X137650000Y-107550000D03*
G04 #@! TO.P,P4,7*
X137650000Y-109550000D03*
G04 #@! TO.P,P4,6*
G04 #@! TO.N,/Relay1_Reset*
X135650000Y-107550000D03*
G04 #@! TO.P,P4,5*
G04 #@! TO.N,/Relay2_Set*
X135650000Y-109550000D03*
G04 #@! TO.P,P4,4*
G04 #@! TO.N,/Relay1_Set*
X133650000Y-107550000D03*
G04 #@! TO.P,P4,3*
G04 #@! TO.N,/Relay2_Reset*
X133650000Y-109550000D03*
G04 #@! TO.P,P4,2*
G04 #@! TO.N,/12Vcc*
X131650000Y-107550000D03*
D23*
G04 #@! TO.P,P4,1*
G04 #@! TO.N,N/C*
X131650000Y-109550000D03*
G04 #@! TD*
D24*
G04 #@! TO.P,C1,2*
G04 #@! TO.N,GND*
X132400000Y-76325000D03*
G04 #@! TO.P,C1,1*
G04 #@! TO.N,+3V3*
X132400000Y-78875000D03*
G04 #@! TD*
D19*
G04 #@! TO.P,C2,2*
G04 #@! TO.N,+3V3*
X134500000Y-78600000D03*
G04 #@! TO.P,C2,1*
G04 #@! TO.N,GND*
X134500000Y-76700000D03*
G04 #@! TD*
D25*
G04 #@! TO.P,C10,2*
G04 #@! TO.N,GND*
X152000000Y-111700000D03*
G04 #@! TO.P,C10,1*
G04 #@! TO.N,/12Vcc*
X149000000Y-111700000D03*
G04 #@! TD*
D18*
G04 #@! TO.P,C3,2*
G04 #@! TO.N,GND*
X136150000Y-105000000D03*
G04 #@! TO.P,C3,1*
G04 #@! TO.N,+3V3*
X138050000Y-105000000D03*
G04 #@! TD*
G04 #@! TO.P,C4,1*
G04 #@! TO.N,GND*
X145250000Y-96500000D03*
G04 #@! TO.P,C4,2*
G04 #@! TO.N,Net-(C4-Pad2)*
X143350000Y-96500000D03*
G04 #@! TD*
D16*
G04 #@! TO.P,R12,1*
G04 #@! TO.N,+3V3*
X139600000Y-93600000D03*
G04 #@! TO.P,R12,2*
G04 #@! TO.N,/TS1*
X139600000Y-95800000D03*
G04 #@! TD*
D20*
G04 #@! TO.P,R13,1*
G04 #@! TO.N,/MTSA*
X145900000Y-94900000D03*
G04 #@! TO.P,R13,2*
G04 #@! TO.N,Net-(C4-Pad2)*
X143700000Y-94900000D03*
G04 #@! TD*
D16*
G04 #@! TO.P,R14,2*
G04 #@! TO.N,/TS2*
X141100000Y-95800000D03*
G04 #@! TO.P,R14,1*
G04 #@! TO.N,+3V3*
X141100000Y-93600000D03*
G04 #@! TD*
D26*
G04 #@! TO.P,U7,14*
G04 #@! TO.N,GND*
X139650000Y-98150000D03*
G04 #@! TO.P,U7,13*
G04 #@! TO.N,/TS1*
X140300000Y-98150000D03*
G04 #@! TO.P,U7,12*
G04 #@! TO.N,/TS2*
X140950000Y-98150000D03*
G04 #@! TO.P,U7,11*
G04 #@! TO.N,Net-(C4-Pad2)*
X141600000Y-98150000D03*
G04 #@! TO.P,U7,10*
G04 #@! TO.N,GND*
X142250000Y-98150000D03*
G04 #@! TO.P,U7,9*
G04 #@! TO.N,N/C*
X142900000Y-98150000D03*
G04 #@! TO.P,U7,8*
X143550000Y-98150000D03*
G04 #@! TO.P,U7,7*
X143550000Y-105050000D03*
G04 #@! TO.P,U7,6*
X142900000Y-105050000D03*
G04 #@! TO.P,U7,5*
G04 #@! TO.N,Net-(R3-Pad2)*
X142250000Y-105050000D03*
G04 #@! TO.P,U7,4*
G04 #@! TO.N,/MTPM*
X141600000Y-105050000D03*
G04 #@! TO.P,U7,3*
G04 #@! TO.N,Net-(R4-Pad1)*
X140950000Y-105050000D03*
G04 #@! TO.P,U7,2*
G04 #@! TO.N,Net-(R10-Pad2)*
X140300000Y-105050000D03*
G04 #@! TO.P,U7,1*
G04 #@! TO.N,+3V3*
X139650000Y-105050000D03*
G04 #@! TD*
D27*
G04 #@! TO.N,Net-(R3-Pad1)*
G04 #@! TO.C,U1*
X132950000Y-99575000D03*
X135000000Y-97900000D03*
G04 #@! TD*
G04 #@! TO.N,Net-(R9-Pad2)*
G04 #@! TO.C,U6*
X151950000Y-99475000D03*
X149900000Y-97800000D03*
G04 #@! TD*
D28*
G04 #@! TO.P,U3,11*
G04 #@! TO.N,/MTPM*
X147550000Y-78580000D03*
G04 #@! TO.P,U3,12*
G04 #@! TO.N,/S1_LEDs*
X147550000Y-77310000D03*
G04 #@! TO.P,U3,13*
G04 #@! TO.N,/MTSA*
X147550000Y-76040000D03*
G04 #@! TO.P,U3,14*
G04 #@! TO.N,/SWDIO*
X147550000Y-74770000D03*
D29*
G04 #@! TO.P,U3,11*
G04 #@! TO.N,/MTPM*
X147600000Y-78580000D03*
G04 #@! TO.P,U3,12*
G04 #@! TO.N,/S1_LEDs*
X147600000Y-77310000D03*
G04 #@! TO.P,U3,13*
G04 #@! TO.N,/MTSA*
X147600000Y-76040000D03*
G04 #@! TO.P,U3,14*
G04 #@! TO.N,/SWDIO*
X147600000Y-74770000D03*
G04 #@! TO.P,U3,15*
G04 #@! TO.N,/SWCLK*
X147600000Y-73500000D03*
D28*
X147550000Y-73500000D03*
G04 #@! TO.P,U3,6*
G04 #@! TO.N,/TS1*
X139520000Y-80450000D03*
G04 #@! TO.P,U3,7*
G04 #@! TO.N,/TS2*
X140790000Y-80450000D03*
G04 #@! TO.P,U3,8*
G04 #@! TO.N,/S2_LEDs*
X142060000Y-80450000D03*
G04 #@! TO.P,U3,9*
G04 #@! TO.N,/Relay1_Set*
X143330000Y-80450000D03*
G04 #@! TO.P,U3,10*
G04 #@! TO.N,/Relay1_Reset*
X144600000Y-80450000D03*
D30*
G04 #@! TO.P,U3,6*
G04 #@! TO.N,/TS1*
X139520000Y-80400000D03*
G04 #@! TO.P,U3,7*
G04 #@! TO.N,/TS2*
X140790000Y-80400000D03*
G04 #@! TO.P,U3,8*
G04 #@! TO.N,/S2_LEDs*
X142060000Y-80400000D03*
G04 #@! TO.P,U3,9*
G04 #@! TO.N,/Relay1_Set*
X143330000Y-80400000D03*
G04 #@! TO.P,U3,10*
G04 #@! TO.N,/Relay1_Reset*
X144600000Y-80400000D03*
D28*
G04 #@! TO.P,U3,5*
G04 #@! TO.N,+3V3*
X136450000Y-78580000D03*
G04 #@! TO.P,U3,4*
G04 #@! TO.N,/Relay2_Set*
X136450000Y-77310000D03*
G04 #@! TO.P,U3,3*
G04 #@! TO.N,/Relay2_Reset*
X136450000Y-76040000D03*
G04 #@! TO.P,U3,2*
G04 #@! TO.N,Net-(U3-Pad2)*
X136450000Y-74770000D03*
D29*
G04 #@! TO.P,U3,1*
G04 #@! TO.N,GND*
X136500000Y-73500000D03*
G04 #@! TO.P,U3,2*
G04 #@! TO.N,Net-(U3-Pad2)*
X136500000Y-74770000D03*
G04 #@! TO.P,U3,3*
G04 #@! TO.N,/Relay2_Reset*
X136500000Y-76040000D03*
G04 #@! TO.P,U3,4*
G04 #@! TO.N,/Relay2_Set*
X136500000Y-77310000D03*
G04 #@! TO.P,U3,5*
G04 #@! TO.N,+3V3*
X136500000Y-78580000D03*
D28*
G04 #@! TO.P,U3,1*
G04 #@! TO.N,GND*
X136450000Y-73500000D03*
G04 #@! TD*
D31*
G04 #@! TO.N,+3V3*
X127899996Y-104900000D03*
X146300000Y-103300000D03*
X145000000Y-83400004D03*
X141000000Y-83400000D03*
X144804123Y-99745239D03*
G04 #@! TO.N,GND*
X146100000Y-97700000D03*
X139300000Y-97200000D03*
X150035090Y-103249990D03*
X128800000Y-105750032D03*
X150800000Y-111800000D03*
X150000000Y-108669998D03*
X133577499Y-77563829D03*
G04 #@! TO.N,Net-(C7-Pad1)*
X153700000Y-105300000D03*
X148449998Y-105300000D03*
G04 #@! TO.N,/12Vcc*
X146400000Y-111599998D03*
G04 #@! TO.N,Net-(D3-Pad2)*
X128900000Y-102200000D03*
G04 #@! TO.N,Net-(D4-Pad1)*
X125194336Y-102172950D03*
G04 #@! TO.N,Net-(D5-Pad1)*
X159591515Y-102115141D03*
G04 #@! TO.N,Net-(D6-Pad2)*
X156099946Y-102100000D03*
G04 #@! TO.N,/S2_LEDs*
X137207897Y-103342742D03*
G04 #@! TO.N,/S1_LEDs*
X150000000Y-101200000D03*
G04 #@! TO.N,/Relay2_Reset*
X129905440Y-107104681D03*
G04 #@! TO.N,/Relay2_Set*
X133551048Y-106151048D03*
G04 #@! TO.N,Net-(R3-Pad2)*
X143347890Y-103154207D03*
X143660372Y-100650010D03*
G04 #@! TO.N,Net-(R4-Pad2)*
X150800000Y-98700000D03*
G04 #@! TO.N,Net-(R10-Pad1)*
X134100005Y-98899995D03*
G04 #@! TO.N,/MTSA*
X149800000Y-80200000D03*
G04 #@! TO.N,/MTPM*
X141850802Y-103448768D03*
G04 #@! TD*
D32*
G04 #@! TO.N,+3V3*
X141100000Y-93600000D02*
X141100000Y-93450000D01*
X141100000Y-93600000D02*
X139600000Y-93600000D01*
X128465689Y-104900008D02*
X128465681Y-104900000D01*
X136999999Y-104174999D02*
X132776458Y-104174999D01*
X132776458Y-104174999D02*
X132051449Y-104900008D01*
X128465681Y-104900000D02*
X127899996Y-104900000D01*
X137825000Y-105000000D02*
X136999999Y-104174999D01*
X138050000Y-105000000D02*
X137825000Y-105000000D01*
X132051449Y-104900008D02*
X128465689Y-104900008D01*
X146300000Y-103300000D02*
X146300000Y-103950000D01*
X146300000Y-103950000D02*
X146100000Y-104150000D01*
X139800000Y-106100000D02*
X143950000Y-106100000D01*
X143950000Y-106100000D02*
X145900000Y-104150000D01*
X145900000Y-104150000D02*
X146100000Y-104150000D01*
X139650000Y-105050000D02*
X139650000Y-105950000D01*
X139650000Y-105950000D02*
X139800000Y-106100000D01*
X139650000Y-105050000D02*
X138100000Y-105050000D01*
X138100000Y-105050000D02*
X138050000Y-105000000D01*
X134225000Y-78875000D02*
X134500000Y-78600000D01*
X132400000Y-78875000D02*
X134225000Y-78875000D01*
X134500000Y-78600000D02*
X136480000Y-78600000D01*
X149600004Y-78800000D02*
X145000000Y-83400004D01*
X152000000Y-79250000D02*
X152000000Y-78750000D01*
X152000000Y-78750000D02*
X151950000Y-78800000D01*
X151950000Y-78800000D02*
X149600004Y-78800000D01*
X145000000Y-83400004D02*
X141000004Y-83400004D01*
X141000004Y-83400004D02*
X141000000Y-83400000D01*
X139400000Y-99800000D02*
X144749362Y-99800000D01*
X138400000Y-98800000D02*
X139400000Y-99800000D01*
X139600000Y-93750000D02*
X138400000Y-94950000D01*
X139600000Y-93600000D02*
X139600000Y-93750000D01*
X138400000Y-94950000D02*
X138400000Y-98800000D01*
X144749362Y-99800000D02*
X144804123Y-99745239D01*
G04 #@! TO.N,GND*
X145250000Y-96500000D02*
X145250000Y-97700000D01*
X145250000Y-97700000D02*
X145250000Y-97900000D01*
X146100000Y-97700000D02*
X145250000Y-97700000D01*
X145250000Y-96500000D02*
X145250000Y-97175000D01*
X139650000Y-98150000D02*
X139650000Y-97550000D01*
X139650000Y-97550000D02*
X139300000Y-97200000D01*
X145250000Y-97900000D02*
X145250000Y-97750000D01*
X149750000Y-105300000D02*
X149750000Y-103535080D01*
X149750000Y-103535080D02*
X150035090Y-103249990D01*
X132579422Y-105500023D02*
X129050009Y-105500023D01*
X136150000Y-105000000D02*
X133079445Y-105000000D01*
X129050009Y-105500023D02*
X128800000Y-105750032D01*
X133079445Y-105000000D02*
X132579422Y-105500023D01*
X144101448Y-99200000D02*
X142000000Y-99200000D01*
X145250000Y-97900000D02*
X145250000Y-98051448D01*
X145250000Y-98051448D02*
X144101448Y-99200000D01*
X142250000Y-98150000D02*
X142250000Y-98950000D01*
X142250000Y-98950000D02*
X142000000Y-99200000D01*
X150800000Y-111800000D02*
X154200000Y-111800000D01*
X154200000Y-111800000D02*
X154200000Y-110800000D01*
X150165685Y-113000000D02*
X146200000Y-113000000D01*
X150800000Y-112365685D02*
X150165685Y-113000000D01*
X146200000Y-113000000D02*
X144500000Y-111300000D01*
X150800000Y-111800000D02*
X150800000Y-112365685D01*
X144500000Y-111300000D02*
X144500000Y-110675001D01*
X144500000Y-111200000D02*
X144500000Y-110675001D01*
X144500000Y-110675001D02*
X144500000Y-110400000D01*
X144500000Y-110400000D02*
X145000000Y-109900000D01*
X145000000Y-109900000D02*
X145800000Y-109900000D01*
X150000000Y-107700000D02*
X150000000Y-108669998D01*
X134125000Y-76325000D02*
X134500000Y-76700000D01*
X134500000Y-74450000D02*
X134500000Y-76700000D01*
X135450000Y-73500000D02*
X134500000Y-74450000D01*
X136500000Y-73500000D02*
X135450000Y-73500000D01*
X154000000Y-80200000D02*
X154000000Y-79250000D01*
X150000000Y-81200000D02*
X153000000Y-81200000D01*
X153000000Y-81200000D02*
X154000000Y-80200000D01*
X145250000Y-96500000D02*
X146150000Y-96500000D01*
X146950001Y-84249999D02*
X150000000Y-81200000D01*
X146150000Y-96500000D02*
X146950001Y-95699999D01*
X146950001Y-95699999D02*
X146950001Y-84249999D01*
X132400000Y-76570000D02*
X132400000Y-76325000D01*
X133600000Y-77541328D02*
X133577499Y-77563829D01*
X133600000Y-76325000D02*
X133600000Y-77541328D01*
X132400000Y-76325000D02*
X133600000Y-76325000D01*
X133600000Y-76325000D02*
X134125000Y-76325000D01*
X139650000Y-98150000D02*
X139650000Y-99050000D01*
X139650000Y-99050000D02*
X139800000Y-99200000D01*
X139800000Y-99200000D02*
X142000000Y-99200000D01*
D33*
G04 #@! TO.N,Net-(C7-Pad1)*
X157700000Y-105850000D02*
X155000000Y-105850000D01*
X155000000Y-105850000D02*
X154750000Y-105600000D01*
D34*
X147400000Y-107700000D02*
X147400000Y-105800000D01*
X147250000Y-105650000D02*
X146100000Y-105650000D01*
X147400000Y-105800000D02*
X147250000Y-105650000D01*
X147850000Y-105300000D02*
X147550000Y-105600000D01*
X147550000Y-105600000D02*
X146150000Y-105600000D01*
X146150000Y-105600000D02*
X146100000Y-105650000D01*
X153700000Y-105300000D02*
X154450000Y-105300000D01*
X154450000Y-105300000D02*
X154750000Y-105600000D01*
X147850000Y-105300000D02*
X148449998Y-105300000D01*
X147850000Y-105300000D02*
X148075000Y-105300000D01*
D33*
G04 #@! TO.N,Net-(C9-Pad2)*
X157700000Y-109100000D02*
X155500000Y-109100000D01*
X155500000Y-109100000D02*
X154200000Y-107800000D01*
D34*
X152600000Y-109750000D02*
X154200000Y-108150000D01*
X152600000Y-109750000D02*
X151100000Y-109750000D01*
X151100000Y-109750000D02*
X150950000Y-109900000D01*
G04 #@! TO.N,Net-(C9-Pad1)*
X152600000Y-107850000D02*
X151100000Y-107850000D01*
X151100000Y-107850000D02*
X150950000Y-107700000D01*
X150950000Y-107700000D02*
X150950000Y-106100000D01*
X150950000Y-106100000D02*
X151450000Y-105600000D01*
D35*
G04 #@! TO.N,/12Vcc*
X146400002Y-111600000D02*
X146400000Y-111599998D01*
X149000000Y-111600000D02*
X146400002Y-111600000D01*
X131650000Y-107550000D02*
X131600000Y-107500000D01*
X149000000Y-111600000D02*
X149000000Y-109950000D01*
X149000000Y-109950000D02*
X149050000Y-109900000D01*
X150000000Y-109900000D02*
X149050000Y-109900000D01*
D32*
G04 #@! TO.N,Net-(D3-Pad2)*
X129600000Y-103400000D02*
X129600000Y-102900000D01*
X129600000Y-102900000D02*
X128900000Y-102200000D01*
G04 #@! TO.N,Net-(D4-Pad1)*
X125500000Y-103400000D02*
X125500000Y-102478614D01*
X125500000Y-102478614D02*
X125194336Y-102172950D01*
G04 #@! TO.N,Net-(D5-Pad1)*
X159400000Y-103400000D02*
X159600000Y-103200000D01*
X159600000Y-103200000D02*
X159600000Y-102123626D01*
X159600000Y-102123626D02*
X159591515Y-102115141D01*
G04 #@! TO.N,Net-(D6-Pad2)*
X155300000Y-103400000D02*
X155300000Y-102900000D01*
X155300000Y-102900000D02*
X156099946Y-102100054D01*
X156099946Y-102100054D02*
X156099946Y-102100000D01*
G04 #@! TO.N,/TS2*
X140950000Y-98150000D02*
X140950000Y-95950000D01*
X140950000Y-95950000D02*
X141100000Y-95800000D01*
X140790000Y-81210000D02*
X140790000Y-80400000D01*
X140149998Y-81850002D02*
X140790000Y-81210000D01*
X140149998Y-84549998D02*
X140149998Y-81850002D01*
X141100000Y-95800000D02*
X141850000Y-95800000D01*
X142600012Y-95049988D02*
X142600012Y-87000012D01*
X141850000Y-95800000D02*
X142600012Y-95049988D01*
X142600012Y-87000012D02*
X140149998Y-84549998D01*
G04 #@! TO.N,/S2_LEDs*
X137150639Y-103400000D02*
X137207897Y-103342742D01*
X131800000Y-103400000D02*
X137150639Y-103400000D01*
X127850000Y-103400000D02*
X128750001Y-104300001D01*
X130749999Y-104300001D02*
X131650000Y-103400000D01*
X131650000Y-103400000D02*
X131800000Y-103400000D01*
X128750001Y-104300001D02*
X130749999Y-104300001D01*
X127700000Y-103400000D02*
X127850000Y-103400000D01*
G04 #@! TO.N,/TS1*
X139558004Y-96200000D02*
X139500000Y-96200000D01*
X140300000Y-96941996D02*
X139558004Y-96200000D01*
X140300000Y-98150000D02*
X140300000Y-96941996D01*
X139600000Y-94900000D02*
X139600000Y-95800000D01*
X141910001Y-94650001D02*
X139849999Y-94650001D01*
X139520000Y-80450000D02*
X139520000Y-84920000D01*
X139520000Y-84920000D02*
X142000001Y-87400001D01*
X142000001Y-87400001D02*
X142000001Y-94560001D01*
X142000001Y-94560001D02*
X141910001Y-94650001D01*
X139849999Y-94650001D02*
X139600000Y-94900000D01*
G04 #@! TO.N,/S1_LEDs*
X157200000Y-103400000D02*
X157050000Y-103400000D01*
X157050000Y-103400000D02*
X156149999Y-104300001D01*
X156149999Y-104300001D02*
X154150001Y-104300001D01*
X154150001Y-104300001D02*
X153250000Y-103400000D01*
X153250000Y-103400000D02*
X153100000Y-103400000D01*
X153100000Y-103400000D02*
X152950000Y-103400000D01*
X152950000Y-103400000D02*
X150750000Y-101200000D01*
X150750000Y-101200000D02*
X150000000Y-101200000D01*
D34*
G04 #@! TO.N,Net-(R1-Pad1)*
X147400000Y-109900000D02*
X147400000Y-109504998D01*
X147400000Y-109504998D02*
X145800000Y-107904998D01*
X145800000Y-107904998D02*
X145800000Y-107700000D01*
X149050000Y-107700000D02*
X149050000Y-108250000D01*
X149050000Y-108250000D02*
X147400000Y-109900000D01*
D32*
X149050000Y-107905000D02*
X149050000Y-107700000D01*
G04 #@! TO.N,/Relay2_Reset*
X133650000Y-109550000D02*
X132524999Y-110675001D01*
X132524999Y-110675001D02*
X130614999Y-110675001D01*
X130614999Y-110675001D02*
X129905440Y-109965442D01*
X129905440Y-109965442D02*
X129905440Y-107104681D01*
G04 #@! TO.N,/Relay2_Set*
X135650000Y-109550000D02*
X133900000Y-111300000D01*
X133900000Y-111300000D02*
X129600000Y-111300000D01*
X129600000Y-111300000D02*
X128857146Y-110557146D01*
X128857146Y-110557146D02*
X128857146Y-106950878D01*
X128857146Y-106950878D02*
X129656976Y-106151048D01*
X129656976Y-106151048D02*
X133551048Y-106151048D01*
G04 #@! TO.N,/Relay1_Set*
X133650000Y-107550000D02*
X133650000Y-107250000D01*
G04 #@! TO.N,/SWCLK*
X151500000Y-73500000D02*
X152000000Y-73000000D01*
X147550000Y-73500000D02*
X151500000Y-73500000D01*
G04 #@! TO.N,/SWDIO*
X154000000Y-73500000D02*
X154000000Y-73000000D01*
X152730000Y-74770000D02*
X154000000Y-73500000D01*
X147550000Y-74770000D02*
X152730000Y-74770000D01*
G04 #@! TO.N,Net-(C4-Pad2)*
X143350000Y-96500000D02*
X143350000Y-95250000D01*
X143350000Y-95250000D02*
X143700000Y-94900000D01*
X141600000Y-98150000D02*
X141600000Y-97150000D01*
X141600000Y-97150000D02*
X142250000Y-96500000D01*
X142250000Y-96500000D02*
X143150000Y-96500000D01*
G04 #@! TO.N,Net-(R3-Pad2)*
X142250000Y-105050000D02*
X142250000Y-104252097D01*
X142250000Y-104252097D02*
X143347890Y-103154207D01*
X138350000Y-99850000D02*
X139150010Y-100650010D01*
X137600000Y-99100000D02*
X137600000Y-99300000D01*
X138150000Y-99850000D02*
X138350000Y-99850000D01*
X139150010Y-100650010D02*
X143660372Y-100650010D01*
X137600000Y-99300000D02*
X138150000Y-99850000D01*
X143671079Y-100650010D02*
X143660372Y-100650010D01*
X143721069Y-100700000D02*
X143671079Y-100650010D01*
X145101448Y-100650010D02*
X143660372Y-100650010D01*
X146350000Y-99400000D02*
X145800000Y-99950000D01*
X146350000Y-99200000D02*
X146350000Y-99400000D01*
X145800000Y-99951458D02*
X145101448Y-100650010D01*
X145800000Y-99950000D02*
X145800000Y-99951458D01*
G04 #@! TO.N,Net-(R3-Pad1)*
X135000000Y-97900000D02*
X135000000Y-98000000D01*
X135000000Y-98000000D02*
X136100000Y-99100000D01*
X132950000Y-99575000D02*
X133075000Y-99575000D01*
X132950000Y-99575000D02*
X132950000Y-99610002D01*
X135000000Y-97900000D02*
X132900000Y-95800000D01*
X132900000Y-95800000D02*
X131100000Y-97600000D01*
X131100000Y-97600000D02*
X131100000Y-97725000D01*
X131100000Y-97725000D02*
X132950000Y-99575000D01*
G04 #@! TO.N,Net-(R4-Pad1)*
X145800000Y-100800000D02*
X145050000Y-101550000D01*
X140950000Y-102501457D02*
X140950000Y-105050000D01*
X141901457Y-101550000D02*
X140950000Y-102501457D01*
X145050000Y-101550000D02*
X141901457Y-101550000D01*
X146350000Y-100800000D02*
X145800000Y-100800000D01*
G04 #@! TO.N,Net-(R4-Pad2)*
X150800000Y-98700000D02*
X148700000Y-100800000D01*
X148700000Y-100800000D02*
X147850000Y-100800000D01*
G04 #@! TO.N,Net-(R9-Pad2)*
X147850000Y-99200000D02*
X148500000Y-99200000D01*
X148500000Y-99200000D02*
X149900000Y-97800000D01*
X153800000Y-97500000D02*
X153800000Y-97625000D01*
X153800000Y-97625000D02*
X151950000Y-99475000D01*
X152000000Y-95700000D02*
X153800000Y-97500000D01*
X149900000Y-97800000D02*
X152000000Y-95700000D01*
G04 #@! TO.N,Net-(R10-Pad2)*
X138300000Y-100700000D02*
X137600000Y-100700000D01*
X140300000Y-102700000D02*
X140300000Y-105050000D01*
X138300000Y-100700000D02*
X140300000Y-102700000D01*
G04 #@! TO.N,Net-(R10-Pad1)*
X136100000Y-100700000D02*
X135900000Y-100700000D01*
X135900000Y-100700000D02*
X134100005Y-98900005D01*
X134100005Y-98900005D02*
X134100005Y-98899995D01*
G04 #@! TO.N,/MTSA*
X145600000Y-84400000D02*
X149800000Y-80200000D01*
X145600000Y-94600000D02*
X145600000Y-84400000D01*
X145900000Y-94900000D02*
X145600000Y-94600000D01*
G04 #@! TO.N,/MTPM*
X141600000Y-105050000D02*
X141600000Y-103699570D01*
X141600000Y-103699570D02*
X141850802Y-103448768D01*
G04 #@! TD*
D36*
G04 #@! TO.N,GND*
G36*
X150511888Y-110998650D02*
X150625000Y-111009791D01*
X150923000Y-111009791D01*
X150923000Y-111457750D01*
X151067250Y-111602000D01*
X151902000Y-111602000D01*
X151902000Y-111582000D01*
X152098000Y-111582000D01*
X152098000Y-111602000D01*
X152118000Y-111602000D01*
X152118000Y-111798000D01*
X152098000Y-111798000D01*
X152098000Y-111818000D01*
X151902000Y-111818000D01*
X151902000Y-111798000D01*
X151067250Y-111798000D01*
X150923000Y-111942250D01*
X150923000Y-112556829D01*
X150945174Y-112668304D01*
X150988669Y-112773312D01*
X151051815Y-112867816D01*
X151132184Y-112948185D01*
X151171298Y-112974320D01*
X149831569Y-112974320D01*
X149909974Y-112909974D01*
X149982079Y-112822115D01*
X150035657Y-112721876D01*
X150068650Y-112613112D01*
X150079791Y-112500000D01*
X150079791Y-111009791D01*
X150325000Y-111009791D01*
X150438112Y-110998650D01*
X150475000Y-110987460D01*
X150511888Y-110998650D01*
X150511888Y-110998650D01*
G37*
X150511888Y-110998650D02*
X150625000Y-111009791D01*
X150923000Y-111009791D01*
X150923000Y-111457750D01*
X151067250Y-111602000D01*
X151902000Y-111602000D01*
X151902000Y-111582000D01*
X152098000Y-111582000D01*
X152098000Y-111602000D01*
X152118000Y-111602000D01*
X152118000Y-111798000D01*
X152098000Y-111798000D01*
X152098000Y-111818000D01*
X151902000Y-111818000D01*
X151902000Y-111798000D01*
X151067250Y-111798000D01*
X150923000Y-111942250D01*
X150923000Y-112556829D01*
X150945174Y-112668304D01*
X150988669Y-112773312D01*
X151051815Y-112867816D01*
X151132184Y-112948185D01*
X151171298Y-112974320D01*
X149831569Y-112974320D01*
X149909974Y-112909974D01*
X149982079Y-112822115D01*
X150035657Y-112721876D01*
X150068650Y-112613112D01*
X150079791Y-112500000D01*
X150079791Y-111009791D01*
X150325000Y-111009791D01*
X150438112Y-110998650D01*
X150475000Y-110987460D01*
X150511888Y-110998650D01*
G36*
X126960542Y-104615020D02*
X126922996Y-104803774D01*
X126922996Y-104996226D01*
X126960542Y-105184980D01*
X127034190Y-105362783D01*
X127141111Y-105522801D01*
X127277195Y-105658885D01*
X127437213Y-105765806D01*
X127615016Y-105839454D01*
X127803770Y-105877000D01*
X127996222Y-105877000D01*
X128184976Y-105839454D01*
X128362779Y-105765806D01*
X128522797Y-105658885D01*
X128554674Y-105627008D01*
X129149544Y-105627008D01*
X129140422Y-105634494D01*
X129117655Y-105662236D01*
X128368335Y-106411557D01*
X128340593Y-106434324D01*
X128270706Y-106519483D01*
X128249744Y-106545025D01*
X128182236Y-106671322D01*
X128140666Y-106808361D01*
X128126629Y-106950878D01*
X128130147Y-106986596D01*
X128130146Y-110521438D01*
X128126629Y-110557146D01*
X128140666Y-110699663D01*
X128171709Y-110802000D01*
X128182236Y-110836702D01*
X128249743Y-110962998D01*
X128340592Y-111073699D01*
X128368335Y-111096467D01*
X129060679Y-111788811D01*
X129083446Y-111816554D01*
X129194147Y-111907403D01*
X129320443Y-111974910D01*
X129425587Y-112006805D01*
X129457482Y-112016480D01*
X129599999Y-112030517D01*
X129635707Y-112027000D01*
X133864292Y-112027000D01*
X133900000Y-112030517D01*
X134042517Y-112016480D01*
X134059491Y-112011331D01*
X134179557Y-111974910D01*
X134305853Y-111907403D01*
X134416554Y-111816554D01*
X134439325Y-111788807D01*
X135440691Y-110787442D01*
X135588502Y-110802000D01*
X135711498Y-110802000D01*
X135895435Y-110783884D01*
X136131438Y-110712293D01*
X136348939Y-110596036D01*
X136539581Y-110439581D01*
X136650000Y-110305034D01*
X136760419Y-110439581D01*
X136951061Y-110596036D01*
X137168562Y-110712293D01*
X137404565Y-110783884D01*
X137588502Y-110802000D01*
X137711498Y-110802000D01*
X137895435Y-110783884D01*
X138131438Y-110712293D01*
X138348939Y-110596036D01*
X138539581Y-110439581D01*
X138650000Y-110305034D01*
X138760419Y-110439581D01*
X138951061Y-110596036D01*
X139168562Y-110712293D01*
X139404565Y-110783884D01*
X139588502Y-110802000D01*
X139711498Y-110802000D01*
X139895435Y-110783884D01*
X140131438Y-110712293D01*
X140348939Y-110596036D01*
X140539581Y-110439581D01*
X140651981Y-110302620D01*
X140799968Y-110469217D01*
X140995631Y-110617388D01*
X141216442Y-110724539D01*
X141357951Y-110767462D01*
X141552000Y-110653407D01*
X141552000Y-109648000D01*
X141532000Y-109648000D01*
X141532000Y-109452000D01*
X141552000Y-109452000D01*
X141552000Y-109432000D01*
X141748000Y-109432000D01*
X141748000Y-109452000D01*
X141768000Y-109452000D01*
X141768000Y-109648000D01*
X141748000Y-109648000D01*
X141748000Y-110653407D01*
X141942049Y-110767462D01*
X142083558Y-110724539D01*
X142304369Y-110617388D01*
X142500032Y-110469217D01*
X142648019Y-110302620D01*
X142760419Y-110439581D01*
X142951061Y-110596036D01*
X143168562Y-110712293D01*
X143404565Y-110783884D01*
X143588502Y-110802000D01*
X143711498Y-110802000D01*
X143895435Y-110783884D01*
X144131438Y-110712293D01*
X144348939Y-110596036D01*
X144539581Y-110439581D01*
X144696036Y-110248939D01*
X144812293Y-110031438D01*
X144822436Y-109998002D01*
X144917248Y-109998002D01*
X144773000Y-110142250D01*
X144773000Y-110556830D01*
X144795174Y-110668305D01*
X144838669Y-110773312D01*
X144901815Y-110867816D01*
X144982184Y-110948185D01*
X145076688Y-111011331D01*
X145181696Y-111054826D01*
X145293171Y-111077000D01*
X145557750Y-111077000D01*
X145608014Y-111026736D01*
X145534194Y-111137215D01*
X145460546Y-111315018D01*
X145423000Y-111503772D01*
X145423000Y-111696224D01*
X145460546Y-111884978D01*
X145534194Y-112062781D01*
X145641115Y-112222799D01*
X145777199Y-112358883D01*
X145937217Y-112465804D01*
X146115020Y-112539452D01*
X146303774Y-112576998D01*
X146496226Y-112576998D01*
X146684980Y-112539452D01*
X146862783Y-112465804D01*
X146920857Y-112427000D01*
X147920209Y-112427000D01*
X147920209Y-112500000D01*
X147931350Y-112613112D01*
X147964343Y-112721876D01*
X148017921Y-112822115D01*
X148090026Y-112909974D01*
X148168431Y-112974320D01*
X129090340Y-112974320D01*
X126299248Y-111115954D01*
X123416768Y-108200426D01*
X121327000Y-105392301D01*
X121327000Y-104527000D01*
X126997001Y-104527000D01*
X126960542Y-104615020D01*
X126960542Y-104615020D01*
G37*
X126960542Y-104615020D02*
X126922996Y-104803774D01*
X126922996Y-104996226D01*
X126960542Y-105184980D01*
X127034190Y-105362783D01*
X127141111Y-105522801D01*
X127277195Y-105658885D01*
X127437213Y-105765806D01*
X127615016Y-105839454D01*
X127803770Y-105877000D01*
X127996222Y-105877000D01*
X128184976Y-105839454D01*
X128362779Y-105765806D01*
X128522797Y-105658885D01*
X128554674Y-105627008D01*
X129149544Y-105627008D01*
X129140422Y-105634494D01*
X129117655Y-105662236D01*
X128368335Y-106411557D01*
X128340593Y-106434324D01*
X128270706Y-106519483D01*
X128249744Y-106545025D01*
X128182236Y-106671322D01*
X128140666Y-106808361D01*
X128126629Y-106950878D01*
X128130147Y-106986596D01*
X128130146Y-110521438D01*
X128126629Y-110557146D01*
X128140666Y-110699663D01*
X128171709Y-110802000D01*
X128182236Y-110836702D01*
X128249743Y-110962998D01*
X128340592Y-111073699D01*
X128368335Y-111096467D01*
X129060679Y-111788811D01*
X129083446Y-111816554D01*
X129194147Y-111907403D01*
X129320443Y-111974910D01*
X129425587Y-112006805D01*
X129457482Y-112016480D01*
X129599999Y-112030517D01*
X129635707Y-112027000D01*
X133864292Y-112027000D01*
X133900000Y-112030517D01*
X134042517Y-112016480D01*
X134059491Y-112011331D01*
X134179557Y-111974910D01*
X134305853Y-111907403D01*
X134416554Y-111816554D01*
X134439325Y-111788807D01*
X135440691Y-110787442D01*
X135588502Y-110802000D01*
X135711498Y-110802000D01*
X135895435Y-110783884D01*
X136131438Y-110712293D01*
X136348939Y-110596036D01*
X136539581Y-110439581D01*
X136650000Y-110305034D01*
X136760419Y-110439581D01*
X136951061Y-110596036D01*
X137168562Y-110712293D01*
X137404565Y-110783884D01*
X137588502Y-110802000D01*
X137711498Y-110802000D01*
X137895435Y-110783884D01*
X138131438Y-110712293D01*
X138348939Y-110596036D01*
X138539581Y-110439581D01*
X138650000Y-110305034D01*
X138760419Y-110439581D01*
X138951061Y-110596036D01*
X139168562Y-110712293D01*
X139404565Y-110783884D01*
X139588502Y-110802000D01*
X139711498Y-110802000D01*
X139895435Y-110783884D01*
X140131438Y-110712293D01*
X140348939Y-110596036D01*
X140539581Y-110439581D01*
X140651981Y-110302620D01*
X140799968Y-110469217D01*
X140995631Y-110617388D01*
X141216442Y-110724539D01*
X141357951Y-110767462D01*
X141552000Y-110653407D01*
X141552000Y-109648000D01*
X141532000Y-109648000D01*
X141532000Y-109452000D01*
X141552000Y-109452000D01*
X141552000Y-109432000D01*
X141748000Y-109432000D01*
X141748000Y-109452000D01*
X141768000Y-109452000D01*
X141768000Y-109648000D01*
X141748000Y-109648000D01*
X141748000Y-110653407D01*
X141942049Y-110767462D01*
X142083558Y-110724539D01*
X142304369Y-110617388D01*
X142500032Y-110469217D01*
X142648019Y-110302620D01*
X142760419Y-110439581D01*
X142951061Y-110596036D01*
X143168562Y-110712293D01*
X143404565Y-110783884D01*
X143588502Y-110802000D01*
X143711498Y-110802000D01*
X143895435Y-110783884D01*
X144131438Y-110712293D01*
X144348939Y-110596036D01*
X144539581Y-110439581D01*
X144696036Y-110248939D01*
X144812293Y-110031438D01*
X144822436Y-109998002D01*
X144917248Y-109998002D01*
X144773000Y-110142250D01*
X144773000Y-110556830D01*
X144795174Y-110668305D01*
X144838669Y-110773312D01*
X144901815Y-110867816D01*
X144982184Y-110948185D01*
X145076688Y-111011331D01*
X145181696Y-111054826D01*
X145293171Y-111077000D01*
X145557750Y-111077000D01*
X145608014Y-111026736D01*
X145534194Y-111137215D01*
X145460546Y-111315018D01*
X145423000Y-111503772D01*
X145423000Y-111696224D01*
X145460546Y-111884978D01*
X145534194Y-112062781D01*
X145641115Y-112222799D01*
X145777199Y-112358883D01*
X145937217Y-112465804D01*
X146115020Y-112539452D01*
X146303774Y-112576998D01*
X146496226Y-112576998D01*
X146684980Y-112539452D01*
X146862783Y-112465804D01*
X146920857Y-112427000D01*
X147920209Y-112427000D01*
X147920209Y-112500000D01*
X147931350Y-112613112D01*
X147964343Y-112721876D01*
X148017921Y-112822115D01*
X148090026Y-112909974D01*
X148168431Y-112974320D01*
X129090340Y-112974320D01*
X126299248Y-111115954D01*
X123416768Y-108200426D01*
X121327000Y-105392301D01*
X121327000Y-104527000D01*
X126997001Y-104527000D01*
X126960542Y-104615020D01*
G36*
X155377885Y-110582079D02*
X155478124Y-110635657D01*
X155586888Y-110668650D01*
X155700000Y-110679791D01*
X158936122Y-110679791D01*
X158501220Y-111115016D01*
X155708722Y-112974320D01*
X152828702Y-112974320D01*
X152867816Y-112948185D01*
X152948185Y-112867816D01*
X153011331Y-112773312D01*
X153054826Y-112668304D01*
X153077000Y-112556829D01*
X153077000Y-111942250D01*
X152932752Y-111798002D01*
X153077000Y-111798002D01*
X153077000Y-111745140D01*
X153088669Y-111773312D01*
X153151815Y-111867816D01*
X153232184Y-111948185D01*
X153326688Y-112011331D01*
X153431696Y-112054826D01*
X153543171Y-112077000D01*
X153957750Y-112077000D01*
X154102000Y-111932750D01*
X154102000Y-110898000D01*
X154298000Y-110898000D01*
X154298000Y-111932750D01*
X154442250Y-112077000D01*
X154856829Y-112077000D01*
X154968304Y-112054826D01*
X155073312Y-112011331D01*
X155167816Y-111948185D01*
X155248185Y-111867816D01*
X155311331Y-111773312D01*
X155354826Y-111668305D01*
X155377000Y-111556830D01*
X155377000Y-111042250D01*
X155232750Y-110898000D01*
X154298000Y-110898000D01*
X154102000Y-110898000D01*
X154082000Y-110898000D01*
X154082000Y-110702000D01*
X154102000Y-110702000D01*
X154102000Y-110682000D01*
X154298000Y-110682000D01*
X154298000Y-110702000D01*
X155232750Y-110702000D01*
X155364036Y-110570714D01*
X155377885Y-110582079D01*
X155377885Y-110582079D01*
G37*
X155377885Y-110582079D02*
X155478124Y-110635657D01*
X155586888Y-110668650D01*
X155700000Y-110679791D01*
X158936122Y-110679791D01*
X158501220Y-111115016D01*
X155708722Y-112974320D01*
X152828702Y-112974320D01*
X152867816Y-112948185D01*
X152948185Y-112867816D01*
X153011331Y-112773312D01*
X153054826Y-112668304D01*
X153077000Y-112556829D01*
X153077000Y-111942250D01*
X152932752Y-111798002D01*
X153077000Y-111798002D01*
X153077000Y-111745140D01*
X153088669Y-111773312D01*
X153151815Y-111867816D01*
X153232184Y-111948185D01*
X153326688Y-112011331D01*
X153431696Y-112054826D01*
X153543171Y-112077000D01*
X153957750Y-112077000D01*
X154102000Y-111932750D01*
X154102000Y-110898000D01*
X154298000Y-110898000D01*
X154298000Y-111932750D01*
X154442250Y-112077000D01*
X154856829Y-112077000D01*
X154968304Y-112054826D01*
X155073312Y-112011331D01*
X155167816Y-111948185D01*
X155248185Y-111867816D01*
X155311331Y-111773312D01*
X155354826Y-111668305D01*
X155377000Y-111556830D01*
X155377000Y-111042250D01*
X155232750Y-110898000D01*
X154298000Y-110898000D01*
X154102000Y-110898000D01*
X154082000Y-110898000D01*
X154082000Y-110702000D01*
X154102000Y-110702000D01*
X154102000Y-110682000D01*
X154298000Y-110682000D01*
X154298000Y-110702000D01*
X155232750Y-110702000D01*
X155364036Y-110570714D01*
X155377885Y-110582079D01*
G36*
X145898000Y-109802000D02*
X145918000Y-109802000D01*
X145918000Y-109998000D01*
X145898000Y-109998000D01*
X145898000Y-110018000D01*
X145702000Y-110018000D01*
X145702000Y-109998000D01*
X145682000Y-109998000D01*
X145682000Y-109802000D01*
X145702000Y-109802000D01*
X145702000Y-109782000D01*
X145898000Y-109782000D01*
X145898000Y-109802000D01*
X145898000Y-109802000D01*
G37*
X145898000Y-109802000D02*
X145918000Y-109802000D01*
X145918000Y-109998000D01*
X145898000Y-109998000D01*
X145898000Y-110018000D01*
X145702000Y-110018000D01*
X145702000Y-109998000D01*
X145682000Y-109998000D01*
X145682000Y-109802000D01*
X145702000Y-109802000D01*
X145702000Y-109782000D01*
X145898000Y-109782000D01*
X145898000Y-109802000D01*
G36*
X144917248Y-109801998D02*
X144881893Y-109801998D01*
X144883884Y-109795435D01*
X144886287Y-109771037D01*
X144917248Y-109801998D01*
X144917248Y-109801998D01*
G37*
X144917248Y-109801998D02*
X144881893Y-109801998D01*
X144883884Y-109795435D01*
X144886287Y-109771037D01*
X144917248Y-109801998D01*
G36*
X149901998Y-108790209D02*
X149774541Y-108790209D01*
X149901998Y-108662752D01*
X149901998Y-108790209D01*
X149901998Y-108790209D01*
G37*
X149901998Y-108790209D02*
X149774541Y-108790209D01*
X149901998Y-108662752D01*
X149901998Y-108790209D01*
G36*
X150225459Y-108790209D02*
X150098002Y-108790209D01*
X150098002Y-108662752D01*
X150225459Y-108790209D01*
X150225459Y-108790209D01*
G37*
X150225459Y-108790209D02*
X150098002Y-108790209D01*
X150098002Y-108662752D01*
X150225459Y-108790209D01*
G36*
X149848000Y-105202000D02*
X149868000Y-105202000D01*
X149868000Y-105398000D01*
X149848000Y-105398000D01*
X149848000Y-106107750D01*
X149992250Y-106252000D01*
X150148001Y-106252000D01*
X150148001Y-106687249D01*
X150098000Y-106737250D01*
X150098000Y-106931928D01*
X150089343Y-106948124D01*
X150056350Y-107056888D01*
X150045209Y-107170000D01*
X150045209Y-107818000D01*
X149954791Y-107818000D01*
X149954791Y-107170000D01*
X149943650Y-107056888D01*
X149910657Y-106948124D01*
X149902000Y-106931928D01*
X149902000Y-106737250D01*
X149757750Y-106593000D01*
X149618171Y-106593000D01*
X149522996Y-106611932D01*
X149488112Y-106601350D01*
X149375000Y-106590209D01*
X148725000Y-106590209D01*
X148611888Y-106601350D01*
X148503124Y-106634343D01*
X148402885Y-106687921D01*
X148316458Y-106758851D01*
X148259974Y-106690026D01*
X148202000Y-106642447D01*
X148202000Y-106254791D01*
X148242121Y-106254791D01*
X148353772Y-106277000D01*
X148546224Y-106277000D01*
X148734978Y-106239454D01*
X148871537Y-106182890D01*
X148876688Y-106186331D01*
X148981695Y-106229826D01*
X149093170Y-106252000D01*
X149507750Y-106252000D01*
X149652000Y-106107750D01*
X149652000Y-105398000D01*
X149632000Y-105398000D01*
X149632000Y-105202000D01*
X149652000Y-105202000D01*
X149652000Y-105182000D01*
X149848000Y-105182000D01*
X149848000Y-105202000D01*
X149848000Y-105202000D01*
G37*
X149848000Y-105202000D02*
X149868000Y-105202000D01*
X149868000Y-105398000D01*
X149848000Y-105398000D01*
X149848000Y-106107750D01*
X149992250Y-106252000D01*
X150148001Y-106252000D01*
X150148001Y-106687249D01*
X150098000Y-106737250D01*
X150098000Y-106931928D01*
X150089343Y-106948124D01*
X150056350Y-107056888D01*
X150045209Y-107170000D01*
X150045209Y-107818000D01*
X149954791Y-107818000D01*
X149954791Y-107170000D01*
X149943650Y-107056888D01*
X149910657Y-106948124D01*
X149902000Y-106931928D01*
X149902000Y-106737250D01*
X149757750Y-106593000D01*
X149618171Y-106593000D01*
X149522996Y-106611932D01*
X149488112Y-106601350D01*
X149375000Y-106590209D01*
X148725000Y-106590209D01*
X148611888Y-106601350D01*
X148503124Y-106634343D01*
X148402885Y-106687921D01*
X148316458Y-106758851D01*
X148259974Y-106690026D01*
X148202000Y-106642447D01*
X148202000Y-106254791D01*
X148242121Y-106254791D01*
X148353772Y-106277000D01*
X148546224Y-106277000D01*
X148734978Y-106239454D01*
X148871537Y-106182890D01*
X148876688Y-106186331D01*
X148981695Y-106229826D01*
X149093170Y-106252000D01*
X149507750Y-106252000D01*
X149652000Y-106107750D01*
X149652000Y-105398000D01*
X149632000Y-105398000D01*
X149632000Y-105202000D01*
X149652000Y-105202000D01*
X149652000Y-105182000D01*
X149848000Y-105182000D01*
X149848000Y-105202000D01*
G36*
X135117250Y-104902000D02*
X136052000Y-104902000D01*
X136052000Y-104901999D01*
X136248000Y-104901999D01*
X136248000Y-104902000D01*
X136268000Y-104902000D01*
X136268000Y-105098000D01*
X136248000Y-105098000D01*
X136248000Y-105807750D01*
X136392250Y-105952000D01*
X136806830Y-105952000D01*
X136918305Y-105929826D01*
X137023312Y-105886331D01*
X137100601Y-105834688D01*
X137127885Y-105857079D01*
X137228124Y-105910657D01*
X137336888Y-105943650D01*
X137450000Y-105954791D01*
X138650000Y-105954791D01*
X138763112Y-105943650D01*
X138871876Y-105910657D01*
X138921029Y-105884385D01*
X138923000Y-105888072D01*
X138923000Y-105914292D01*
X138919483Y-105950000D01*
X138933520Y-106092517D01*
X138975090Y-106229556D01*
X139011675Y-106298000D01*
X139042598Y-106355853D01*
X139099176Y-106424795D01*
X138951061Y-106503964D01*
X138760419Y-106660419D01*
X138650000Y-106794966D01*
X138539581Y-106660419D01*
X138348939Y-106503964D01*
X138131438Y-106387707D01*
X137895435Y-106316116D01*
X137711498Y-106298000D01*
X137588502Y-106298000D01*
X137404565Y-106316116D01*
X137168562Y-106387707D01*
X136951061Y-106503964D01*
X136760419Y-106660419D01*
X136650000Y-106794966D01*
X136539581Y-106660419D01*
X136348939Y-106503964D01*
X136131438Y-106387707D01*
X135895435Y-106316116D01*
X135711498Y-106298000D01*
X135588502Y-106298000D01*
X135404565Y-106316116D01*
X135168562Y-106387707D01*
X134951061Y-106503964D01*
X134760419Y-106660419D01*
X134650000Y-106794966D01*
X134539581Y-106660419D01*
X134433587Y-106573433D01*
X134490502Y-106436028D01*
X134528048Y-106247274D01*
X134528048Y-106054822D01*
X134490502Y-105866068D01*
X134416854Y-105688265D01*
X134309933Y-105528247D01*
X134173849Y-105392163D01*
X134013831Y-105285242D01*
X133910039Y-105242250D01*
X134973000Y-105242250D01*
X134973000Y-105431829D01*
X134995174Y-105543304D01*
X135038669Y-105648312D01*
X135101815Y-105742816D01*
X135182184Y-105823185D01*
X135276688Y-105886331D01*
X135381695Y-105929826D01*
X135493170Y-105952000D01*
X135907750Y-105952000D01*
X136052000Y-105807750D01*
X136052000Y-105098000D01*
X135117250Y-105098000D01*
X134973000Y-105242250D01*
X133910039Y-105242250D01*
X133836028Y-105211594D01*
X133647274Y-105174048D01*
X133454822Y-105174048D01*
X133266068Y-105211594D01*
X133088265Y-105285242D01*
X132928247Y-105392163D01*
X132896362Y-105424048D01*
X132558881Y-105424048D01*
X132568003Y-105416562D01*
X132590774Y-105388815D01*
X133077591Y-104901999D01*
X135117249Y-104901999D01*
X135117250Y-104902000D01*
X135117250Y-104902000D01*
G37*
X135117250Y-104902000D02*
X136052000Y-104902000D01*
X136052000Y-104901999D01*
X136248000Y-104901999D01*
X136248000Y-104902000D01*
X136268000Y-104902000D01*
X136268000Y-105098000D01*
X136248000Y-105098000D01*
X136248000Y-105807750D01*
X136392250Y-105952000D01*
X136806830Y-105952000D01*
X136918305Y-105929826D01*
X137023312Y-105886331D01*
X137100601Y-105834688D01*
X137127885Y-105857079D01*
X137228124Y-105910657D01*
X137336888Y-105943650D01*
X137450000Y-105954791D01*
X138650000Y-105954791D01*
X138763112Y-105943650D01*
X138871876Y-105910657D01*
X138921029Y-105884385D01*
X138923000Y-105888072D01*
X138923000Y-105914292D01*
X138919483Y-105950000D01*
X138933520Y-106092517D01*
X138975090Y-106229556D01*
X139011675Y-106298000D01*
X139042598Y-106355853D01*
X139099176Y-106424795D01*
X138951061Y-106503964D01*
X138760419Y-106660419D01*
X138650000Y-106794966D01*
X138539581Y-106660419D01*
X138348939Y-106503964D01*
X138131438Y-106387707D01*
X137895435Y-106316116D01*
X137711498Y-106298000D01*
X137588502Y-106298000D01*
X137404565Y-106316116D01*
X137168562Y-106387707D01*
X136951061Y-106503964D01*
X136760419Y-106660419D01*
X136650000Y-106794966D01*
X136539581Y-106660419D01*
X136348939Y-106503964D01*
X136131438Y-106387707D01*
X135895435Y-106316116D01*
X135711498Y-106298000D01*
X135588502Y-106298000D01*
X135404565Y-106316116D01*
X135168562Y-106387707D01*
X134951061Y-106503964D01*
X134760419Y-106660419D01*
X134650000Y-106794966D01*
X134539581Y-106660419D01*
X134433587Y-106573433D01*
X134490502Y-106436028D01*
X134528048Y-106247274D01*
X134528048Y-106054822D01*
X134490502Y-105866068D01*
X134416854Y-105688265D01*
X134309933Y-105528247D01*
X134173849Y-105392163D01*
X134013831Y-105285242D01*
X133910039Y-105242250D01*
X134973000Y-105242250D01*
X134973000Y-105431829D01*
X134995174Y-105543304D01*
X135038669Y-105648312D01*
X135101815Y-105742816D01*
X135182184Y-105823185D01*
X135276688Y-105886331D01*
X135381695Y-105929826D01*
X135493170Y-105952000D01*
X135907750Y-105952000D01*
X136052000Y-105807750D01*
X136052000Y-105098000D01*
X135117250Y-105098000D01*
X134973000Y-105242250D01*
X133910039Y-105242250D01*
X133836028Y-105211594D01*
X133647274Y-105174048D01*
X133454822Y-105174048D01*
X133266068Y-105211594D01*
X133088265Y-105285242D01*
X132928247Y-105392163D01*
X132896362Y-105424048D01*
X132558881Y-105424048D01*
X132568003Y-105416562D01*
X132590774Y-105388815D01*
X133077591Y-104901999D01*
X135117249Y-104901999D01*
X135117250Y-104902000D01*
G04 #@! TD*
M02*
