G04 #@! TF.GenerationSoftware,KiCad,Pcbnew,no-vcs-found-e3c64f1~59~ubuntu16.04.1*
G04 #@! TF.CreationDate,2017-08-28T13:01:16+03:00*
G04 #@! TF.ProjectId,wifi_lights,776966695F6C69676874732E6B696361,rev?*
G04 #@! TF.SameCoordinates,Original*
G04 #@! TF.FileFunction,Soldermask,Top*
G04 #@! TF.FilePolarity,Negative*
%FSLAX46Y46*%
G04 Gerber Fmt 4.6, Leading zero omitted, Abs format (unit mm)*
G04 Created by KiCad (PCBNEW no-vcs-found-e3c64f1~59~ubuntu16.04.1) date Mon Aug 28 13:01:16 2017*
%MOMM*%
%LPD*%
G01*
G04 APERTURE LIST*
%ADD10C,2.400000*%
%ADD11O,1.700000X1.700000*%
%ADD12R,1.700000X1.700000*%
%ADD13C,2.500000*%
%ADD14C,3.000000*%
%ADD15C,1.600000*%
%ADD16C,2.000000*%
%ADD17R,1.100000X2.500000*%
%ADD18O,1.100000X2.500000*%
G04 APERTURE END LIST*
D10*
X112750000Y-56000000D03*
X109250000Y-56000000D03*
X135500000Y-56000000D03*
X139000000Y-56000000D03*
X131000000Y-56000000D03*
X127500000Y-56000000D03*
D11*
X127800000Y-94000000D03*
X130340000Y-94000000D03*
X132880000Y-94000000D03*
X135420000Y-94000000D03*
X137960000Y-94000000D03*
D12*
X140500000Y-94000000D03*
D13*
X129200000Y-73300000D03*
X129200000Y-61300000D03*
D14*
X127250000Y-67250000D03*
X141450000Y-73250000D03*
X141450000Y-61250000D03*
X141450000Y-77250000D03*
X141450000Y-89250000D03*
X127250000Y-83250000D03*
D13*
X129200000Y-77300000D03*
X129200000Y-89300000D03*
D15*
X117500000Y-52450000D03*
X122500000Y-53750000D03*
D16*
X122330000Y-57260000D03*
X117250000Y-57250000D03*
D11*
X110300000Y-96000000D03*
X112840000Y-96000000D03*
X115380000Y-96000000D03*
X117920000Y-96000000D03*
X120460000Y-96000000D03*
D12*
X123000000Y-96000000D03*
D14*
X115200000Y-61799982D03*
X110200000Y-61799982D03*
X120400000Y-91199982D03*
X105000000Y-91199982D03*
D17*
X109000000Y-69300000D03*
D18*
X111000000Y-69300000D03*
X113000000Y-69300000D03*
X115000000Y-69300000D03*
X117000000Y-69300000D03*
X119000000Y-69300000D03*
X121000000Y-69300000D03*
X123000000Y-69300000D03*
X123000000Y-84700000D03*
X121000000Y-84600000D03*
X119000000Y-84700000D03*
X117000000Y-84700000D03*
X115000000Y-84700000D03*
X113000000Y-84700000D03*
X111000000Y-84700000D03*
X109000000Y-84700000D03*
M02*
