G04 #@! TF.GenerationSoftware,KiCad,Pcbnew,no-vcs-found-aeac415~59~ubuntu16.04.1*
G04 #@! TF.CreationDate,2017-08-24T18:22:22+03:00*
G04 #@! TF.ProjectId,wifi_lights,776966695F6C69676874732E6B696361,rev?*
G04 #@! TF.SameCoordinates,Original*
G04 #@! TF.FileFunction,Copper,L2,Bot,Signal*
G04 #@! TF.FilePolarity,Positive*
%FSLAX46Y46*%
G04 Gerber Fmt 4.6, Leading zero omitted, Abs format (unit mm)*
G04 Created by KiCad (PCBNEW no-vcs-found-aeac415~59~ubuntu16.04.1) date Thu Aug 24 18:22:22 2017*
%MOMM*%
%LPD*%
G01*
G04 APERTURE LIST*
%ADD10C,2.400000*%
%ADD11R,1.200000X0.900000*%
%ADD12O,1.700000X1.700000*%
%ADD13R,1.700000X1.700000*%
%ADD14R,0.900000X0.800000*%
%ADD15C,2.500000*%
%ADD16C,3.000000*%
%ADD17C,1.600000*%
%ADD18R,2.000000X1.500000*%
%ADD19R,2.000000X3.800000*%
%ADD20C,2.000000*%
%ADD21R,2.150000X1.100000*%
%ADD22R,1.100000X2.150000*%
%ADD23R,1.100000X2.500000*%
%ADD24O,1.100000X2.500000*%
%ADD25C,0.800000*%
%ADD26C,0.350000*%
%ADD27C,0.500000*%
%ADD28C,1.500000*%
%ADD29C,0.254000*%
G04 APERTURE END LIST*
D10*
X112750000Y-56000000D03*
X109250000Y-56000000D03*
X135500000Y-56000000D03*
X139000000Y-56000000D03*
X131000000Y-56000000D03*
X127500000Y-56000000D03*
D11*
X131250000Y-67600000D03*
X131250000Y-70900000D03*
X131750000Y-85000000D03*
X131750000Y-81700000D03*
D12*
X127800000Y-94000000D03*
X130340000Y-94000000D03*
X132880000Y-94000000D03*
X135420000Y-94000000D03*
X137960000Y-94000000D03*
D13*
X140500000Y-94000000D03*
D14*
X134000000Y-69000000D03*
X136000000Y-69950000D03*
X136000000Y-68050000D03*
X136500000Y-83000000D03*
X136500000Y-84900000D03*
X134500000Y-83950000D03*
D11*
X113300000Y-67000000D03*
X115500000Y-67000000D03*
X111250000Y-67000000D03*
X109050000Y-67000000D03*
X119650000Y-88500000D03*
X121850000Y-88500000D03*
X117850000Y-87000000D03*
X115650000Y-87000000D03*
X121850000Y-87000000D03*
X119650000Y-87000000D03*
X136450000Y-65250000D03*
X134250000Y-65250000D03*
X134050000Y-80250000D03*
X136250000Y-80250000D03*
D15*
X129200000Y-73300000D03*
X129200000Y-61300000D03*
D16*
X127250000Y-67250000D03*
X141450000Y-73250000D03*
X141450000Y-61250000D03*
X141450000Y-77250000D03*
X141450000Y-89250000D03*
X127250000Y-83250000D03*
D15*
X129200000Y-77300000D03*
X129200000Y-89300000D03*
D17*
X117500000Y-52450000D03*
X122500000Y-53750000D03*
D18*
X110750000Y-93300000D03*
X110750000Y-88700000D03*
X110750000Y-91000000D03*
D19*
X117050000Y-91000000D03*
D20*
X122330000Y-57260000D03*
X117250000Y-57250000D03*
D12*
X110300000Y-96000000D03*
X112840000Y-96000000D03*
X115380000Y-96000000D03*
X117920000Y-96000000D03*
X120460000Y-96000000D03*
D13*
X123000000Y-96000000D03*
D21*
X106975000Y-87500000D03*
X104025000Y-87500000D03*
D22*
X108000000Y-93225000D03*
X108000000Y-90275000D03*
D21*
X133550000Y-96500000D03*
X136500000Y-96500000D03*
D16*
X115200000Y-61799982D03*
X110200000Y-61799982D03*
X120400000Y-91199982D03*
X105000000Y-91199982D03*
D21*
X120025000Y-67000000D03*
X122975000Y-67000000D03*
D23*
X109000000Y-69300000D03*
D24*
X111000000Y-69300000D03*
X113000000Y-69300000D03*
X115000000Y-69300000D03*
X117000000Y-69300000D03*
X119000000Y-69300000D03*
X121000000Y-69300000D03*
X123000000Y-69300000D03*
X123000000Y-84700000D03*
X121000000Y-84600000D03*
X119000000Y-84700000D03*
X117000000Y-84700000D03*
X115000000Y-84700000D03*
X113000000Y-84700000D03*
X111000000Y-84700000D03*
X109000000Y-84700000D03*
D25*
X122999984Y-80750000D03*
X118000000Y-67000000D03*
X121962638Y-86097411D03*
X123250000Y-79000000D03*
X114250000Y-87000000D03*
X112500000Y-87000000D03*
X116750001Y-88000000D03*
D26*
X137960000Y-94000000D02*
X137750000Y-94000000D01*
X137750000Y-94000000D02*
X136500000Y-95250000D01*
X136500000Y-95250000D02*
X136500000Y-96500000D01*
X137960000Y-94000000D02*
X136634999Y-92674999D01*
X136634999Y-92674999D02*
X129125001Y-92674999D01*
X129125001Y-92674999D02*
X127800000Y-94000000D01*
X136000000Y-69950000D02*
X136000000Y-70000000D01*
X136550000Y-84900000D02*
X136500000Y-84900000D01*
X121850000Y-88500000D02*
X122800000Y-88500000D01*
X122800000Y-88500000D02*
X123000000Y-88300000D01*
X123000000Y-88300000D02*
X123000000Y-84000000D01*
X122999984Y-83999984D02*
X122999984Y-80750000D01*
X123000000Y-84000000D02*
X122999984Y-83999984D01*
X120000000Y-66750000D02*
X118250000Y-66750000D01*
X118250000Y-66750000D02*
X118000000Y-67000000D01*
X109050000Y-67000000D02*
X109050000Y-69950000D01*
X109050000Y-69950000D02*
X109000000Y-70000000D01*
D27*
X135420000Y-94000000D02*
X135420000Y-94330000D01*
X135420000Y-94330000D02*
X133550000Y-96200000D01*
X133550000Y-96200000D02*
X133550000Y-96500000D01*
X133550000Y-96500000D02*
X133500000Y-96500000D01*
X132500000Y-97500000D02*
X121750000Y-97500000D01*
X133500000Y-96500000D02*
X132500000Y-97500000D01*
X121750000Y-97500000D02*
X120460000Y-96210000D01*
X120460000Y-96210000D02*
X120460000Y-96000000D01*
X123250000Y-79000000D02*
X124250000Y-80000000D01*
X120460000Y-95540000D02*
X120460000Y-96000000D01*
X124250000Y-80000000D02*
X124250000Y-91750000D01*
X124250000Y-91750000D02*
X120460000Y-95540000D01*
X123000000Y-70000000D02*
X122950000Y-69950000D01*
X121750000Y-65750000D02*
X115500000Y-65750000D01*
X122950000Y-69950000D02*
X122950000Y-66750000D01*
X122950000Y-66750000D02*
X122750000Y-66750000D01*
X122750000Y-66750000D02*
X121750000Y-65750000D01*
X111250000Y-67000000D02*
X111250000Y-66750000D01*
X111250000Y-66750000D02*
X112250000Y-65750000D01*
X112250000Y-65750000D02*
X115500000Y-65750000D01*
X115500000Y-65750000D02*
X115500000Y-67000000D01*
X111500000Y-91000000D02*
X114250000Y-88250000D01*
X114250000Y-88250000D02*
X114250000Y-87000000D01*
X121850000Y-87000000D02*
X121850000Y-86150000D01*
X121850000Y-86150000D02*
X121902589Y-86097411D01*
X121902589Y-86097411D02*
X121962638Y-86097411D01*
X114250000Y-87000000D02*
X115650000Y-87000000D01*
X111500000Y-91000000D02*
X110750000Y-91000000D01*
X115650000Y-87000000D02*
X115500000Y-87000000D01*
X110750000Y-91000000D02*
X108725000Y-91000000D01*
X108725000Y-91000000D02*
X108000000Y-90275000D01*
D28*
X115200000Y-61799982D02*
X118200018Y-61799982D01*
X118200018Y-61799982D02*
X122330000Y-57670000D01*
X122330000Y-57670000D02*
X122330000Y-57260000D01*
X122330000Y-57260000D02*
X122500000Y-57090000D01*
X122500000Y-57090000D02*
X122500000Y-53750000D01*
D26*
X109000000Y-84000000D02*
X109000000Y-84849583D01*
X109000000Y-84849583D02*
X111150417Y-87000000D01*
X111150417Y-87000000D02*
X112500000Y-87000000D01*
X117000000Y-84000000D02*
X117000000Y-86000000D01*
X117000000Y-86000000D02*
X117850000Y-86850000D01*
X117850000Y-86850000D02*
X117850000Y-87000000D01*
X117649999Y-87350001D02*
X117000000Y-88000000D01*
X117000000Y-88000000D02*
X116750001Y-88000000D01*
X117850000Y-87150000D02*
X117649999Y-87350001D01*
X117750000Y-87100000D02*
X117750000Y-87250000D01*
X117850000Y-87000000D02*
X117850000Y-87150000D01*
X117750000Y-87250000D02*
X117649999Y-87350001D01*
X136450000Y-65250000D02*
X136450000Y-67600000D01*
X136450000Y-67600000D02*
X136000000Y-68050000D01*
X136250000Y-80250000D02*
X136250000Y-82750000D01*
X136250000Y-82750000D02*
X136500000Y-83000000D01*
X119650000Y-88500000D02*
X120600000Y-88500000D01*
X120600000Y-88500000D02*
X120750000Y-88350000D01*
X120750000Y-88350000D02*
X120750000Y-84250000D01*
X120750000Y-84250000D02*
X121000000Y-84000000D01*
X119000000Y-84000000D02*
X119250000Y-84250000D01*
X119250000Y-84250000D02*
X119250000Y-86750000D01*
X119250000Y-86750000D02*
X119500000Y-87000000D01*
D27*
X107725000Y-87500000D02*
X108750000Y-87500000D01*
X110450000Y-88700000D02*
X110750000Y-88700000D01*
X108750000Y-87500000D02*
X109950000Y-88700000D01*
X109950000Y-88700000D02*
X110450000Y-88700000D01*
X107725000Y-87500000D02*
X107250000Y-87500000D01*
X107250000Y-87500000D02*
X105000000Y-89750000D01*
X105000000Y-89750000D02*
X105000000Y-91199982D01*
X129200000Y-77300000D02*
X113450000Y-77300000D01*
X113450000Y-77300000D02*
X107750000Y-83000000D01*
X107750000Y-83000000D02*
X107750000Y-87475000D01*
X107750000Y-87475000D02*
X107725000Y-87500000D01*
X131750000Y-79850000D02*
X129200000Y-77300000D01*
X131250000Y-67600000D02*
X131250000Y-63350000D01*
X131250000Y-63350000D02*
X129200000Y-61300000D01*
X131750000Y-81700000D02*
X131750000Y-79850000D01*
X131250000Y-70900000D02*
X132350000Y-70900000D01*
X132350000Y-70900000D02*
X134000000Y-69250000D01*
X134000000Y-69250000D02*
X134000000Y-69000000D01*
X129200000Y-73300000D02*
X129200000Y-72950000D01*
X129200000Y-72950000D02*
X131250000Y-70900000D01*
X131750000Y-85000000D02*
X132750000Y-85000000D01*
X132750000Y-85000000D02*
X133800000Y-83950000D01*
X133800000Y-83950000D02*
X134500000Y-83950000D01*
X131750000Y-85000000D02*
X131750000Y-86750000D01*
X131750000Y-86750000D02*
X129200000Y-89300000D01*
D28*
X112750000Y-56000000D02*
X116000000Y-56000000D01*
X116000000Y-56000000D02*
X117250000Y-57250000D01*
X112250000Y-51000000D02*
X117750000Y-51000000D01*
X117750000Y-51000000D02*
X128450000Y-51000000D01*
X117500000Y-52450000D02*
X117500000Y-51250000D01*
X117500000Y-51250000D02*
X117750000Y-51000000D01*
X109250000Y-56000000D02*
X109250000Y-54000000D01*
X109250000Y-54000000D02*
X112250000Y-51000000D01*
X128450000Y-51000000D02*
X131000000Y-53550000D01*
X131000000Y-53550000D02*
X131000000Y-55750000D01*
X131000000Y-55750000D02*
X135500000Y-55750000D01*
X109250000Y-56000000D02*
X109250000Y-60849982D01*
X109250000Y-60849982D02*
X110200000Y-61799982D01*
D26*
X121000000Y-70000000D02*
X122250000Y-71250000D01*
X122250000Y-71250000D02*
X128500000Y-71250000D01*
X128500000Y-71250000D02*
X130500000Y-69250000D01*
X130500000Y-69250000D02*
X131505002Y-69250000D01*
X131505002Y-69250000D02*
X134250000Y-66505002D01*
X134250000Y-66505002D02*
X134250000Y-65250000D01*
X119000000Y-70000000D02*
X119000000Y-70250000D01*
X119000000Y-70250000D02*
X124000000Y-75250000D01*
X124000000Y-75250000D02*
X131750000Y-75250000D01*
X131750000Y-75250000D02*
X134050000Y-77550000D01*
X134050000Y-77550000D02*
X134050000Y-80250000D01*
X113000000Y-70000000D02*
X113000000Y-67300000D01*
X113000000Y-67300000D02*
X113300000Y-67000000D01*
D29*
G36*
X102373000Y-86893171D02*
X102373000Y-87257750D01*
X102517250Y-87402000D01*
X103927000Y-87402000D01*
X103927000Y-87382000D01*
X104123000Y-87382000D01*
X104123000Y-87402000D01*
X104143000Y-87402000D01*
X104143000Y-87598000D01*
X104123000Y-87598000D01*
X104123000Y-88482750D01*
X104267250Y-88627000D01*
X104953446Y-88627000D01*
X104415223Y-89165223D01*
X104377343Y-89211339D01*
X104033078Y-89350431D01*
X103692247Y-89573465D01*
X103401227Y-89858452D01*
X103171104Y-90194538D01*
X103010643Y-90568921D01*
X102925957Y-90967341D01*
X102920270Y-91374622D01*
X102993799Y-91775251D01*
X103143744Y-92153968D01*
X103364393Y-92496348D01*
X103647341Y-92789351D01*
X103981812Y-93021814D01*
X104355066Y-93184885D01*
X104752885Y-93272351D01*
X105160116Y-93280881D01*
X105561249Y-93210150D01*
X105941004Y-93062853D01*
X106284916Y-92844600D01*
X106579887Y-92563703D01*
X106814679Y-92230863D01*
X106873000Y-92099872D01*
X106873000Y-92982750D01*
X107017250Y-93127000D01*
X107902000Y-93127000D01*
X107902000Y-93107000D01*
X108098000Y-93107000D01*
X108098000Y-93127000D01*
X108982750Y-93127000D01*
X109127000Y-92982750D01*
X109127000Y-92093170D01*
X109104826Y-91981695D01*
X109061331Y-91876688D01*
X109028130Y-91827000D01*
X109177793Y-91827000D01*
X109181350Y-91863112D01*
X109214343Y-91971876D01*
X109267921Y-92072115D01*
X109332813Y-92151186D01*
X109301815Y-92182184D01*
X109238669Y-92276688D01*
X109195174Y-92381696D01*
X109173000Y-92493171D01*
X109173000Y-93057750D01*
X109317250Y-93202000D01*
X110652000Y-93202000D01*
X110652000Y-93182000D01*
X110848000Y-93182000D01*
X110848000Y-93202000D01*
X112182750Y-93202000D01*
X112327000Y-93057750D01*
X112327000Y-92493171D01*
X112304826Y-92381696D01*
X112261331Y-92276688D01*
X112198185Y-92182184D01*
X112167187Y-92151186D01*
X112232079Y-92072115D01*
X112285657Y-91971876D01*
X112318650Y-91863112D01*
X112329791Y-91750000D01*
X112329791Y-91339763D01*
X114834777Y-88834778D01*
X114883258Y-88775756D01*
X114932369Y-88717228D01*
X114934464Y-88713417D01*
X114937224Y-88710057D01*
X114973329Y-88642722D01*
X115010125Y-88575790D01*
X115011439Y-88571647D01*
X115013495Y-88567813D01*
X115035833Y-88494748D01*
X115058928Y-88421943D01*
X115059413Y-88417621D01*
X115060684Y-88413463D01*
X115068400Y-88337495D01*
X115076919Y-88261547D01*
X115076979Y-88253038D01*
X115076994Y-88252887D01*
X115076981Y-88252747D01*
X115077000Y-88250000D01*
X115077000Y-88029791D01*
X115772448Y-88029791D01*
X115771717Y-88082149D01*
X115806304Y-88270601D01*
X115876837Y-88448745D01*
X115931187Y-88533079D01*
X115828124Y-88564343D01*
X115727885Y-88617921D01*
X115640026Y-88690026D01*
X115567921Y-88777885D01*
X115514343Y-88878124D01*
X115481350Y-88986888D01*
X115470209Y-89100000D01*
X115470209Y-92900000D01*
X115481350Y-93013112D01*
X115514343Y-93121876D01*
X115567921Y-93222115D01*
X115640026Y-93309974D01*
X115727885Y-93382079D01*
X115828124Y-93435657D01*
X115936888Y-93468650D01*
X116050000Y-93479791D01*
X118050000Y-93479791D01*
X118163112Y-93468650D01*
X118271876Y-93435657D01*
X118372115Y-93382079D01*
X118459974Y-93309974D01*
X118532079Y-93222115D01*
X118585657Y-93121876D01*
X118618650Y-93013112D01*
X118629791Y-92900000D01*
X118629791Y-92641297D01*
X119097278Y-92641297D01*
X119253899Y-92944182D01*
X119616198Y-93134261D01*
X120008618Y-93250006D01*
X120416078Y-93286971D01*
X120822921Y-93243733D01*
X121213511Y-93121955D01*
X121546101Y-92944182D01*
X121702722Y-92641297D01*
X120400000Y-91338575D01*
X119097278Y-92641297D01*
X118629791Y-92641297D01*
X118629791Y-92297424D01*
X118655800Y-92346083D01*
X118958685Y-92502704D01*
X120261407Y-91199982D01*
X120538593Y-91199982D01*
X121841315Y-92502704D01*
X122144200Y-92346083D01*
X122334279Y-91983784D01*
X122450024Y-91591364D01*
X122486989Y-91183904D01*
X122443751Y-90777061D01*
X122321973Y-90386471D01*
X122144200Y-90053881D01*
X121841315Y-89897260D01*
X120538593Y-91199982D01*
X120261407Y-91199982D01*
X118958685Y-89897260D01*
X118655800Y-90053881D01*
X118629791Y-90103455D01*
X118629791Y-89347503D01*
X118640026Y-89359974D01*
X118727885Y-89432079D01*
X118828124Y-89485657D01*
X118936888Y-89518650D01*
X119050000Y-89529791D01*
X119215629Y-89529791D01*
X119097278Y-89758667D01*
X120400000Y-91061389D01*
X121702722Y-89758667D01*
X121582928Y-89527000D01*
X121607750Y-89527000D01*
X121752000Y-89382750D01*
X121752000Y-88598000D01*
X121948000Y-88598000D01*
X121948000Y-89382750D01*
X122092250Y-89527000D01*
X122506830Y-89527000D01*
X122618305Y-89504826D01*
X122723312Y-89461331D01*
X122817816Y-89398185D01*
X122898185Y-89317816D01*
X122961331Y-89223312D01*
X123004826Y-89118304D01*
X123027000Y-89006829D01*
X123027000Y-88742250D01*
X122882750Y-88598000D01*
X121948000Y-88598000D01*
X121752000Y-88598000D01*
X121732000Y-88598000D01*
X121732000Y-88402000D01*
X121752000Y-88402000D01*
X121752000Y-88382000D01*
X121948000Y-88382000D01*
X121948000Y-88402000D01*
X122882750Y-88402000D01*
X123027000Y-88257750D01*
X123027000Y-87993171D01*
X123004826Y-87881696D01*
X122961331Y-87776688D01*
X122943721Y-87750333D01*
X122985657Y-87671876D01*
X123018650Y-87563112D01*
X123029791Y-87450000D01*
X123029791Y-86877000D01*
X123423000Y-86877000D01*
X123423000Y-91407445D01*
X120243727Y-94586719D01*
X120192607Y-94591371D01*
X119925436Y-94670004D01*
X119678627Y-94799032D01*
X119461580Y-94973542D01*
X119282563Y-95186887D01*
X119189655Y-95355887D01*
X119108579Y-95203405D01*
X118932557Y-94987582D01*
X118717968Y-94810058D01*
X118472985Y-94677596D01*
X118206938Y-94595241D01*
X117929962Y-94566130D01*
X117652607Y-94591371D01*
X117385436Y-94670004D01*
X117138627Y-94799032D01*
X116921580Y-94973542D01*
X116742563Y-95186887D01*
X116649655Y-95355887D01*
X116568579Y-95203405D01*
X116392557Y-94987582D01*
X116177968Y-94810058D01*
X115932985Y-94677596D01*
X115666938Y-94595241D01*
X115389962Y-94566130D01*
X115112607Y-94591371D01*
X114845436Y-94670004D01*
X114598627Y-94799032D01*
X114381580Y-94973542D01*
X114202563Y-95186887D01*
X114109655Y-95355887D01*
X114028579Y-95203405D01*
X113852557Y-94987582D01*
X113637968Y-94810058D01*
X113392985Y-94677596D01*
X113126938Y-94595241D01*
X112849962Y-94566130D01*
X112572607Y-94591371D01*
X112305436Y-94670004D01*
X112058627Y-94799032D01*
X111841580Y-94973542D01*
X111662563Y-95186887D01*
X111569655Y-95355887D01*
X111488579Y-95203405D01*
X111312557Y-94987582D01*
X111097968Y-94810058D01*
X110852985Y-94677596D01*
X110586938Y-94595241D01*
X110544020Y-94590730D01*
X110652000Y-94482750D01*
X110652000Y-93398000D01*
X110848000Y-93398000D01*
X110848000Y-94482750D01*
X110992250Y-94627000D01*
X111806830Y-94627000D01*
X111918305Y-94604826D01*
X112023312Y-94561331D01*
X112117816Y-94498185D01*
X112198185Y-94417816D01*
X112261331Y-94323312D01*
X112304826Y-94218304D01*
X112327000Y-94106829D01*
X112327000Y-93542250D01*
X112182750Y-93398000D01*
X110848000Y-93398000D01*
X110652000Y-93398000D01*
X109317250Y-93398000D01*
X109173000Y-93542250D01*
X109173000Y-94106829D01*
X109195174Y-94218304D01*
X109238669Y-94323312D01*
X109301815Y-94417816D01*
X109382184Y-94498185D01*
X109476688Y-94561331D01*
X109581695Y-94604826D01*
X109693170Y-94627000D01*
X109911551Y-94627000D01*
X109765436Y-94670004D01*
X109518627Y-94799032D01*
X109301580Y-94973542D01*
X109122563Y-95186887D01*
X108988394Y-95430940D01*
X108904183Y-95696405D01*
X108873139Y-95973171D01*
X108873000Y-95993095D01*
X108873000Y-96006905D01*
X108900177Y-96284077D01*
X108980673Y-96550692D01*
X109111421Y-96796595D01*
X109287443Y-97012418D01*
X109502032Y-97189942D01*
X109687731Y-97290349D01*
X108582904Y-97182020D01*
X106738837Y-96625263D01*
X105038028Y-95720926D01*
X103545268Y-94503461D01*
X102688040Y-93467250D01*
X106873000Y-93467250D01*
X106873000Y-94356830D01*
X106895174Y-94468305D01*
X106938669Y-94573312D01*
X107001815Y-94667816D01*
X107082184Y-94748185D01*
X107176688Y-94811331D01*
X107281696Y-94854826D01*
X107393171Y-94877000D01*
X107757750Y-94877000D01*
X107902000Y-94732750D01*
X107902000Y-93323000D01*
X108098000Y-93323000D01*
X108098000Y-94732750D01*
X108242250Y-94877000D01*
X108606829Y-94877000D01*
X108718304Y-94854826D01*
X108823312Y-94811331D01*
X108917816Y-94748185D01*
X108998185Y-94667816D01*
X109061331Y-94573312D01*
X109104826Y-94468305D01*
X109127000Y-94356830D01*
X109127000Y-93467250D01*
X108982750Y-93323000D01*
X108098000Y-93323000D01*
X107902000Y-93323000D01*
X107017250Y-93323000D01*
X106873000Y-93467250D01*
X102688040Y-93467250D01*
X102317404Y-93019229D01*
X101401216Y-91324774D01*
X100831598Y-89484634D01*
X100648467Y-87742250D01*
X102373000Y-87742250D01*
X102373000Y-88106829D01*
X102395174Y-88218304D01*
X102438669Y-88323312D01*
X102501815Y-88417816D01*
X102582184Y-88498185D01*
X102676688Y-88561331D01*
X102781695Y-88604826D01*
X102893170Y-88627000D01*
X103782750Y-88627000D01*
X103927000Y-88482750D01*
X103927000Y-87598000D01*
X102517250Y-87598000D01*
X102373000Y-87742250D01*
X100648467Y-87742250D01*
X100627141Y-87539352D01*
X100627000Y-87498955D01*
X100627000Y-86877000D01*
X102376217Y-86877000D01*
X102373000Y-86893171D01*
X102373000Y-86893171D01*
G37*
X102373000Y-86893171D02*
X102373000Y-87257750D01*
X102517250Y-87402000D01*
X103927000Y-87402000D01*
X103927000Y-87382000D01*
X104123000Y-87382000D01*
X104123000Y-87402000D01*
X104143000Y-87402000D01*
X104143000Y-87598000D01*
X104123000Y-87598000D01*
X104123000Y-88482750D01*
X104267250Y-88627000D01*
X104953446Y-88627000D01*
X104415223Y-89165223D01*
X104377343Y-89211339D01*
X104033078Y-89350431D01*
X103692247Y-89573465D01*
X103401227Y-89858452D01*
X103171104Y-90194538D01*
X103010643Y-90568921D01*
X102925957Y-90967341D01*
X102920270Y-91374622D01*
X102993799Y-91775251D01*
X103143744Y-92153968D01*
X103364393Y-92496348D01*
X103647341Y-92789351D01*
X103981812Y-93021814D01*
X104355066Y-93184885D01*
X104752885Y-93272351D01*
X105160116Y-93280881D01*
X105561249Y-93210150D01*
X105941004Y-93062853D01*
X106284916Y-92844600D01*
X106579887Y-92563703D01*
X106814679Y-92230863D01*
X106873000Y-92099872D01*
X106873000Y-92982750D01*
X107017250Y-93127000D01*
X107902000Y-93127000D01*
X107902000Y-93107000D01*
X108098000Y-93107000D01*
X108098000Y-93127000D01*
X108982750Y-93127000D01*
X109127000Y-92982750D01*
X109127000Y-92093170D01*
X109104826Y-91981695D01*
X109061331Y-91876688D01*
X109028130Y-91827000D01*
X109177793Y-91827000D01*
X109181350Y-91863112D01*
X109214343Y-91971876D01*
X109267921Y-92072115D01*
X109332813Y-92151186D01*
X109301815Y-92182184D01*
X109238669Y-92276688D01*
X109195174Y-92381696D01*
X109173000Y-92493171D01*
X109173000Y-93057750D01*
X109317250Y-93202000D01*
X110652000Y-93202000D01*
X110652000Y-93182000D01*
X110848000Y-93182000D01*
X110848000Y-93202000D01*
X112182750Y-93202000D01*
X112327000Y-93057750D01*
X112327000Y-92493171D01*
X112304826Y-92381696D01*
X112261331Y-92276688D01*
X112198185Y-92182184D01*
X112167187Y-92151186D01*
X112232079Y-92072115D01*
X112285657Y-91971876D01*
X112318650Y-91863112D01*
X112329791Y-91750000D01*
X112329791Y-91339763D01*
X114834777Y-88834778D01*
X114883258Y-88775756D01*
X114932369Y-88717228D01*
X114934464Y-88713417D01*
X114937224Y-88710057D01*
X114973329Y-88642722D01*
X115010125Y-88575790D01*
X115011439Y-88571647D01*
X115013495Y-88567813D01*
X115035833Y-88494748D01*
X115058928Y-88421943D01*
X115059413Y-88417621D01*
X115060684Y-88413463D01*
X115068400Y-88337495D01*
X115076919Y-88261547D01*
X115076979Y-88253038D01*
X115076994Y-88252887D01*
X115076981Y-88252747D01*
X115077000Y-88250000D01*
X115077000Y-88029791D01*
X115772448Y-88029791D01*
X115771717Y-88082149D01*
X115806304Y-88270601D01*
X115876837Y-88448745D01*
X115931187Y-88533079D01*
X115828124Y-88564343D01*
X115727885Y-88617921D01*
X115640026Y-88690026D01*
X115567921Y-88777885D01*
X115514343Y-88878124D01*
X115481350Y-88986888D01*
X115470209Y-89100000D01*
X115470209Y-92900000D01*
X115481350Y-93013112D01*
X115514343Y-93121876D01*
X115567921Y-93222115D01*
X115640026Y-93309974D01*
X115727885Y-93382079D01*
X115828124Y-93435657D01*
X115936888Y-93468650D01*
X116050000Y-93479791D01*
X118050000Y-93479791D01*
X118163112Y-93468650D01*
X118271876Y-93435657D01*
X118372115Y-93382079D01*
X118459974Y-93309974D01*
X118532079Y-93222115D01*
X118585657Y-93121876D01*
X118618650Y-93013112D01*
X118629791Y-92900000D01*
X118629791Y-92641297D01*
X119097278Y-92641297D01*
X119253899Y-92944182D01*
X119616198Y-93134261D01*
X120008618Y-93250006D01*
X120416078Y-93286971D01*
X120822921Y-93243733D01*
X121213511Y-93121955D01*
X121546101Y-92944182D01*
X121702722Y-92641297D01*
X120400000Y-91338575D01*
X119097278Y-92641297D01*
X118629791Y-92641297D01*
X118629791Y-92297424D01*
X118655800Y-92346083D01*
X118958685Y-92502704D01*
X120261407Y-91199982D01*
X120538593Y-91199982D01*
X121841315Y-92502704D01*
X122144200Y-92346083D01*
X122334279Y-91983784D01*
X122450024Y-91591364D01*
X122486989Y-91183904D01*
X122443751Y-90777061D01*
X122321973Y-90386471D01*
X122144200Y-90053881D01*
X121841315Y-89897260D01*
X120538593Y-91199982D01*
X120261407Y-91199982D01*
X118958685Y-89897260D01*
X118655800Y-90053881D01*
X118629791Y-90103455D01*
X118629791Y-89347503D01*
X118640026Y-89359974D01*
X118727885Y-89432079D01*
X118828124Y-89485657D01*
X118936888Y-89518650D01*
X119050000Y-89529791D01*
X119215629Y-89529791D01*
X119097278Y-89758667D01*
X120400000Y-91061389D01*
X121702722Y-89758667D01*
X121582928Y-89527000D01*
X121607750Y-89527000D01*
X121752000Y-89382750D01*
X121752000Y-88598000D01*
X121948000Y-88598000D01*
X121948000Y-89382750D01*
X122092250Y-89527000D01*
X122506830Y-89527000D01*
X122618305Y-89504826D01*
X122723312Y-89461331D01*
X122817816Y-89398185D01*
X122898185Y-89317816D01*
X122961331Y-89223312D01*
X123004826Y-89118304D01*
X123027000Y-89006829D01*
X123027000Y-88742250D01*
X122882750Y-88598000D01*
X121948000Y-88598000D01*
X121752000Y-88598000D01*
X121732000Y-88598000D01*
X121732000Y-88402000D01*
X121752000Y-88402000D01*
X121752000Y-88382000D01*
X121948000Y-88382000D01*
X121948000Y-88402000D01*
X122882750Y-88402000D01*
X123027000Y-88257750D01*
X123027000Y-87993171D01*
X123004826Y-87881696D01*
X122961331Y-87776688D01*
X122943721Y-87750333D01*
X122985657Y-87671876D01*
X123018650Y-87563112D01*
X123029791Y-87450000D01*
X123029791Y-86877000D01*
X123423000Y-86877000D01*
X123423000Y-91407445D01*
X120243727Y-94586719D01*
X120192607Y-94591371D01*
X119925436Y-94670004D01*
X119678627Y-94799032D01*
X119461580Y-94973542D01*
X119282563Y-95186887D01*
X119189655Y-95355887D01*
X119108579Y-95203405D01*
X118932557Y-94987582D01*
X118717968Y-94810058D01*
X118472985Y-94677596D01*
X118206938Y-94595241D01*
X117929962Y-94566130D01*
X117652607Y-94591371D01*
X117385436Y-94670004D01*
X117138627Y-94799032D01*
X116921580Y-94973542D01*
X116742563Y-95186887D01*
X116649655Y-95355887D01*
X116568579Y-95203405D01*
X116392557Y-94987582D01*
X116177968Y-94810058D01*
X115932985Y-94677596D01*
X115666938Y-94595241D01*
X115389962Y-94566130D01*
X115112607Y-94591371D01*
X114845436Y-94670004D01*
X114598627Y-94799032D01*
X114381580Y-94973542D01*
X114202563Y-95186887D01*
X114109655Y-95355887D01*
X114028579Y-95203405D01*
X113852557Y-94987582D01*
X113637968Y-94810058D01*
X113392985Y-94677596D01*
X113126938Y-94595241D01*
X112849962Y-94566130D01*
X112572607Y-94591371D01*
X112305436Y-94670004D01*
X112058627Y-94799032D01*
X111841580Y-94973542D01*
X111662563Y-95186887D01*
X111569655Y-95355887D01*
X111488579Y-95203405D01*
X111312557Y-94987582D01*
X111097968Y-94810058D01*
X110852985Y-94677596D01*
X110586938Y-94595241D01*
X110544020Y-94590730D01*
X110652000Y-94482750D01*
X110652000Y-93398000D01*
X110848000Y-93398000D01*
X110848000Y-94482750D01*
X110992250Y-94627000D01*
X111806830Y-94627000D01*
X111918305Y-94604826D01*
X112023312Y-94561331D01*
X112117816Y-94498185D01*
X112198185Y-94417816D01*
X112261331Y-94323312D01*
X112304826Y-94218304D01*
X112327000Y-94106829D01*
X112327000Y-93542250D01*
X112182750Y-93398000D01*
X110848000Y-93398000D01*
X110652000Y-93398000D01*
X109317250Y-93398000D01*
X109173000Y-93542250D01*
X109173000Y-94106829D01*
X109195174Y-94218304D01*
X109238669Y-94323312D01*
X109301815Y-94417816D01*
X109382184Y-94498185D01*
X109476688Y-94561331D01*
X109581695Y-94604826D01*
X109693170Y-94627000D01*
X109911551Y-94627000D01*
X109765436Y-94670004D01*
X109518627Y-94799032D01*
X109301580Y-94973542D01*
X109122563Y-95186887D01*
X108988394Y-95430940D01*
X108904183Y-95696405D01*
X108873139Y-95973171D01*
X108873000Y-95993095D01*
X108873000Y-96006905D01*
X108900177Y-96284077D01*
X108980673Y-96550692D01*
X109111421Y-96796595D01*
X109287443Y-97012418D01*
X109502032Y-97189942D01*
X109687731Y-97290349D01*
X108582904Y-97182020D01*
X106738837Y-96625263D01*
X105038028Y-95720926D01*
X103545268Y-94503461D01*
X102688040Y-93467250D01*
X106873000Y-93467250D01*
X106873000Y-94356830D01*
X106895174Y-94468305D01*
X106938669Y-94573312D01*
X107001815Y-94667816D01*
X107082184Y-94748185D01*
X107176688Y-94811331D01*
X107281696Y-94854826D01*
X107393171Y-94877000D01*
X107757750Y-94877000D01*
X107902000Y-94732750D01*
X107902000Y-93323000D01*
X108098000Y-93323000D01*
X108098000Y-94732750D01*
X108242250Y-94877000D01*
X108606829Y-94877000D01*
X108718304Y-94854826D01*
X108823312Y-94811331D01*
X108917816Y-94748185D01*
X108998185Y-94667816D01*
X109061331Y-94573312D01*
X109104826Y-94468305D01*
X109127000Y-94356830D01*
X109127000Y-93467250D01*
X108982750Y-93323000D01*
X108098000Y-93323000D01*
X107902000Y-93323000D01*
X107017250Y-93323000D01*
X106873000Y-93467250D01*
X102688040Y-93467250D01*
X102317404Y-93019229D01*
X101401216Y-91324774D01*
X100831598Y-89484634D01*
X100648467Y-87742250D01*
X102373000Y-87742250D01*
X102373000Y-88106829D01*
X102395174Y-88218304D01*
X102438669Y-88323312D01*
X102501815Y-88417816D01*
X102582184Y-88498185D01*
X102676688Y-88561331D01*
X102781695Y-88604826D01*
X102893170Y-88627000D01*
X103782750Y-88627000D01*
X103927000Y-88482750D01*
X103927000Y-87598000D01*
X102517250Y-87598000D01*
X102373000Y-87742250D01*
X100648467Y-87742250D01*
X100627141Y-87539352D01*
X100627000Y-87498955D01*
X100627000Y-86877000D01*
X102376217Y-86877000D01*
X102373000Y-86893171D01*
G36*
X137873000Y-92573000D02*
X137861998Y-92573000D01*
X137861998Y-92720998D01*
X137640502Y-92609227D01*
X137452980Y-92666107D01*
X137202493Y-92790652D01*
X136981116Y-92961672D01*
X136797357Y-93172594D01*
X136690942Y-93358308D01*
X136608579Y-93203405D01*
X136432557Y-92987582D01*
X136217968Y-92810058D01*
X135972985Y-92677596D01*
X135706938Y-92595241D01*
X135429962Y-92566130D01*
X135152607Y-92591371D01*
X134885436Y-92670004D01*
X134638627Y-92799032D01*
X134421580Y-92973542D01*
X134242563Y-93186887D01*
X134149655Y-93355887D01*
X134068579Y-93203405D01*
X133892557Y-92987582D01*
X133677968Y-92810058D01*
X133432985Y-92677596D01*
X133166938Y-92595241D01*
X132889962Y-92566130D01*
X132612607Y-92591371D01*
X132345436Y-92670004D01*
X132098627Y-92799032D01*
X131881580Y-92973542D01*
X131702563Y-93186887D01*
X131609655Y-93355887D01*
X131528579Y-93203405D01*
X131352557Y-92987582D01*
X131137968Y-92810058D01*
X130892985Y-92677596D01*
X130626938Y-92595241D01*
X130349962Y-92566130D01*
X130072607Y-92591371D01*
X129805436Y-92670004D01*
X129558627Y-92799032D01*
X129341580Y-92973542D01*
X129162563Y-93186887D01*
X129068683Y-93357654D01*
X128962643Y-93172594D01*
X128778884Y-92961672D01*
X128557507Y-92790652D01*
X128307020Y-92666107D01*
X128119498Y-92609227D01*
X127898000Y-92720999D01*
X127898000Y-93902000D01*
X127918000Y-93902000D01*
X127918000Y-94098000D01*
X127898000Y-94098000D01*
X127898000Y-95279001D01*
X128119498Y-95390773D01*
X128307020Y-95333893D01*
X128557507Y-95209348D01*
X128778884Y-95038328D01*
X128962643Y-94827406D01*
X129069058Y-94641692D01*
X129151421Y-94796595D01*
X129327443Y-95012418D01*
X129542032Y-95189942D01*
X129787015Y-95322404D01*
X130053062Y-95404759D01*
X130330038Y-95433870D01*
X130607393Y-95408629D01*
X130874564Y-95329996D01*
X131121373Y-95200968D01*
X131338420Y-95026458D01*
X131517437Y-94813113D01*
X131610345Y-94644113D01*
X131691421Y-94796595D01*
X131867443Y-95012418D01*
X132082032Y-95189942D01*
X132327015Y-95322404D01*
X132481449Y-95370209D01*
X132475000Y-95370209D01*
X132361888Y-95381350D01*
X132253124Y-95414343D01*
X132152885Y-95467921D01*
X132065026Y-95540026D01*
X131992921Y-95627885D01*
X131939343Y-95728124D01*
X131906350Y-95836888D01*
X131895209Y-95950000D01*
X131895209Y-96673000D01*
X124427000Y-96673000D01*
X124427000Y-96242250D01*
X124282750Y-96098000D01*
X123098000Y-96098000D01*
X123098000Y-96118000D01*
X122902000Y-96118000D01*
X122902000Y-96098000D01*
X122882000Y-96098000D01*
X122882000Y-95902000D01*
X122902000Y-95902000D01*
X122902000Y-94717250D01*
X123098000Y-94717250D01*
X123098000Y-95902000D01*
X124282750Y-95902000D01*
X124427000Y-95757750D01*
X124427000Y-95093170D01*
X124404826Y-94981695D01*
X124361331Y-94876688D01*
X124298185Y-94782184D01*
X124217816Y-94701815D01*
X124123312Y-94638669D01*
X124018304Y-94595174D01*
X123906829Y-94573000D01*
X123242250Y-94573000D01*
X123098000Y-94717250D01*
X122902000Y-94717250D01*
X122757750Y-94573000D01*
X122596554Y-94573000D01*
X122850055Y-94319499D01*
X126409223Y-94319499D01*
X126498278Y-94584687D01*
X126637357Y-94827406D01*
X126821116Y-95038328D01*
X127042493Y-95209348D01*
X127292980Y-95333893D01*
X127480502Y-95390773D01*
X127702000Y-95279001D01*
X127702000Y-94098000D01*
X126520615Y-94098000D01*
X126409223Y-94319499D01*
X122850055Y-94319499D01*
X123489053Y-93680501D01*
X126409223Y-93680501D01*
X126520615Y-93902000D01*
X127702000Y-93902000D01*
X127702000Y-92720999D01*
X127480502Y-92609227D01*
X127292980Y-92666107D01*
X127042493Y-92790652D01*
X126821116Y-92961672D01*
X126637357Y-93172594D01*
X126498278Y-93415313D01*
X126409223Y-93680501D01*
X123489053Y-93680501D01*
X124834777Y-92334778D01*
X124883258Y-92275756D01*
X124932369Y-92217228D01*
X124934464Y-92213417D01*
X124937224Y-92210057D01*
X124973329Y-92142722D01*
X125010125Y-92075790D01*
X125011439Y-92071647D01*
X125013495Y-92067813D01*
X125035833Y-91994748D01*
X125058928Y-91921943D01*
X125059413Y-91917621D01*
X125060684Y-91913463D01*
X125068400Y-91837495D01*
X125076919Y-91761547D01*
X125076979Y-91753038D01*
X125076994Y-91752887D01*
X125076981Y-91752747D01*
X125077000Y-91750000D01*
X125077000Y-86877000D01*
X130453445Y-86877000D01*
X129771958Y-87558488D01*
X129742873Y-87546262D01*
X129391898Y-87474217D01*
X129033613Y-87471716D01*
X128681666Y-87538853D01*
X128349463Y-87673072D01*
X128049656Y-87869260D01*
X127793665Y-88119945D01*
X127591241Y-88415577D01*
X127450094Y-88744897D01*
X127375601Y-89095361D01*
X127370599Y-89453619D01*
X127435277Y-89806026D01*
X127567174Y-90139159D01*
X127761264Y-90440328D01*
X128010156Y-90698062D01*
X128304368Y-90902545D01*
X128632694Y-91045988D01*
X128982629Y-91122926D01*
X129340844Y-91130429D01*
X129693694Y-91068212D01*
X130027739Y-90938645D01*
X130330256Y-90746662D01*
X130589722Y-90499576D01*
X130796254Y-90206798D01*
X130941985Y-89879481D01*
X131021364Y-89530092D01*
X131027078Y-89120853D01*
X130957485Y-88769384D01*
X130940757Y-88728798D01*
X132334778Y-87334777D01*
X132383266Y-87275746D01*
X132432369Y-87217228D01*
X132434464Y-87213417D01*
X132437225Y-87210056D01*
X132473329Y-87142723D01*
X132510125Y-87075790D01*
X132511440Y-87071645D01*
X132513495Y-87067812D01*
X132535838Y-86994733D01*
X132558928Y-86921943D01*
X132559412Y-86917624D01*
X132560685Y-86913462D01*
X132568410Y-86837405D01*
X132576919Y-86761547D01*
X132576979Y-86753048D01*
X132576995Y-86752887D01*
X132576981Y-86752737D01*
X132577000Y-86750000D01*
X132577000Y-85982918D01*
X132672115Y-85932079D01*
X132759974Y-85859974D01*
X132790276Y-85823051D01*
X132825991Y-85819549D01*
X132902128Y-85812888D01*
X132906306Y-85811674D01*
X132910632Y-85811250D01*
X132983755Y-85789173D01*
X133057121Y-85767858D01*
X133060981Y-85765857D01*
X133065145Y-85764600D01*
X133132604Y-85728731D01*
X133200416Y-85693581D01*
X133203814Y-85690868D01*
X133207655Y-85688826D01*
X133266866Y-85640535D01*
X133326555Y-85592885D01*
X133332607Y-85586917D01*
X133332732Y-85586815D01*
X133332828Y-85586699D01*
X133334777Y-85584777D01*
X133777304Y-85142250D01*
X135473000Y-85142250D01*
X135473000Y-85356829D01*
X135495174Y-85468304D01*
X135538669Y-85573312D01*
X135601815Y-85667816D01*
X135682184Y-85748185D01*
X135776688Y-85811331D01*
X135881695Y-85854826D01*
X135993170Y-85877000D01*
X136257750Y-85877000D01*
X136402000Y-85732750D01*
X136402000Y-84998000D01*
X136598000Y-84998000D01*
X136598000Y-85732750D01*
X136742250Y-85877000D01*
X137006830Y-85877000D01*
X137118305Y-85854826D01*
X137223312Y-85811331D01*
X137317816Y-85748185D01*
X137398185Y-85667816D01*
X137461331Y-85573312D01*
X137504826Y-85468304D01*
X137527000Y-85356829D01*
X137527000Y-85142250D01*
X137382750Y-84998000D01*
X136598000Y-84998000D01*
X136402000Y-84998000D01*
X135617250Y-84998000D01*
X135473000Y-85142250D01*
X133777304Y-85142250D01*
X133995164Y-84924390D01*
X134050000Y-84929791D01*
X134950000Y-84929791D01*
X135063112Y-84918650D01*
X135171876Y-84885657D01*
X135272115Y-84832079D01*
X135359974Y-84759974D01*
X135432079Y-84672115D01*
X135473000Y-84595556D01*
X135473000Y-84657750D01*
X135617250Y-84802000D01*
X136402000Y-84802000D01*
X136402000Y-84782000D01*
X136598000Y-84782000D01*
X136598000Y-84802000D01*
X137382750Y-84802000D01*
X137527000Y-84657750D01*
X137527000Y-84443171D01*
X137504826Y-84331696D01*
X137461331Y-84226688D01*
X137398185Y-84132184D01*
X137317816Y-84051815D01*
X137223312Y-83988669D01*
X137127689Y-83949061D01*
X137171876Y-83935657D01*
X137272115Y-83882079D01*
X137359974Y-83809974D01*
X137432079Y-83722115D01*
X137485657Y-83621876D01*
X137518650Y-83513112D01*
X137529791Y-83400000D01*
X137529791Y-82600000D01*
X137518650Y-82486888D01*
X137485657Y-82378124D01*
X137432079Y-82277885D01*
X137359974Y-82190026D01*
X137272115Y-82117921D01*
X137171876Y-82064343D01*
X137063112Y-82031350D01*
X137002000Y-82025331D01*
X137002000Y-81256854D01*
X137071876Y-81235657D01*
X137172115Y-81182079D01*
X137259974Y-81109974D01*
X137332079Y-81022115D01*
X137385657Y-80921876D01*
X137418650Y-80813112D01*
X137429791Y-80700000D01*
X137429791Y-79800000D01*
X137418650Y-79686888D01*
X137385657Y-79578124D01*
X137332079Y-79477885D01*
X137259974Y-79390026D01*
X137172115Y-79317921D01*
X137071876Y-79264343D01*
X136963112Y-79231350D01*
X136850000Y-79220209D01*
X135650000Y-79220209D01*
X135536888Y-79231350D01*
X135428124Y-79264343D01*
X135327885Y-79317921D01*
X135240026Y-79390026D01*
X135167921Y-79477885D01*
X135150000Y-79511413D01*
X135132079Y-79477885D01*
X135059974Y-79390026D01*
X134972115Y-79317921D01*
X134871876Y-79264343D01*
X134802000Y-79243146D01*
X134802000Y-77550000D01*
X134795218Y-77480829D01*
X134789167Y-77411669D01*
X134788064Y-77407872D01*
X134787678Y-77403936D01*
X134767591Y-77337405D01*
X134748221Y-77270731D01*
X134746403Y-77267223D01*
X134745259Y-77263435D01*
X134712625Y-77202059D01*
X134680680Y-77140432D01*
X134678215Y-77137344D01*
X134676357Y-77133850D01*
X134632447Y-77080010D01*
X134589117Y-77025732D01*
X134583691Y-77020230D01*
X134583597Y-77020115D01*
X134583490Y-77020027D01*
X134581744Y-77018256D01*
X132281744Y-74718256D01*
X132228078Y-74674174D01*
X132174855Y-74629515D01*
X132171389Y-74627610D01*
X132168334Y-74625100D01*
X132127000Y-74602937D01*
X132127000Y-71856193D01*
X132172115Y-71832079D01*
X132259974Y-71759974D01*
X132287035Y-71727000D01*
X132350000Y-71727000D01*
X132425991Y-71719549D01*
X132502128Y-71712888D01*
X132506306Y-71711674D01*
X132510632Y-71711250D01*
X132583755Y-71689173D01*
X132657121Y-71667858D01*
X132660981Y-71665857D01*
X132665145Y-71664600D01*
X132732604Y-71628731D01*
X132800416Y-71593581D01*
X132803814Y-71590868D01*
X132807655Y-71588826D01*
X132866866Y-71540535D01*
X132926555Y-71492885D01*
X132932607Y-71486917D01*
X132932732Y-71486815D01*
X132932828Y-71486699D01*
X132934777Y-71484777D01*
X134227304Y-70192250D01*
X134973000Y-70192250D01*
X134973000Y-70406829D01*
X134995174Y-70518304D01*
X135038669Y-70623312D01*
X135101815Y-70717816D01*
X135182184Y-70798185D01*
X135276688Y-70861331D01*
X135381695Y-70904826D01*
X135493170Y-70927000D01*
X135757750Y-70927000D01*
X135902000Y-70782750D01*
X135902000Y-70048000D01*
X136098000Y-70048000D01*
X136098000Y-70782750D01*
X136242250Y-70927000D01*
X136506830Y-70927000D01*
X136618305Y-70904826D01*
X136723312Y-70861331D01*
X136817816Y-70798185D01*
X136898185Y-70717816D01*
X136961331Y-70623312D01*
X137004826Y-70518304D01*
X137027000Y-70406829D01*
X137027000Y-70192250D01*
X136882750Y-70048000D01*
X136098000Y-70048000D01*
X135902000Y-70048000D01*
X135117250Y-70048000D01*
X134973000Y-70192250D01*
X134227304Y-70192250D01*
X134439764Y-69979791D01*
X134450000Y-69979791D01*
X134563112Y-69968650D01*
X134671876Y-69935657D01*
X134772115Y-69882079D01*
X134859974Y-69809974D01*
X134932079Y-69722115D01*
X134973000Y-69645556D01*
X134973000Y-69707750D01*
X135117250Y-69852000D01*
X135902000Y-69852000D01*
X135902000Y-69832000D01*
X136098000Y-69832000D01*
X136098000Y-69852000D01*
X136882750Y-69852000D01*
X137027000Y-69707750D01*
X137027000Y-69493171D01*
X137004826Y-69381696D01*
X136961331Y-69276688D01*
X136898185Y-69182184D01*
X136817816Y-69101815D01*
X136723312Y-69038669D01*
X136627689Y-68999061D01*
X136671876Y-68985657D01*
X136772115Y-68932079D01*
X136859974Y-68859974D01*
X136932079Y-68772115D01*
X136985657Y-68671876D01*
X137018650Y-68563112D01*
X137029791Y-68450000D01*
X137029791Y-68127000D01*
X137873000Y-68127000D01*
X137873000Y-92573000D01*
X137873000Y-92573000D01*
G37*
X137873000Y-92573000D02*
X137861998Y-92573000D01*
X137861998Y-92720998D01*
X137640502Y-92609227D01*
X137452980Y-92666107D01*
X137202493Y-92790652D01*
X136981116Y-92961672D01*
X136797357Y-93172594D01*
X136690942Y-93358308D01*
X136608579Y-93203405D01*
X136432557Y-92987582D01*
X136217968Y-92810058D01*
X135972985Y-92677596D01*
X135706938Y-92595241D01*
X135429962Y-92566130D01*
X135152607Y-92591371D01*
X134885436Y-92670004D01*
X134638627Y-92799032D01*
X134421580Y-92973542D01*
X134242563Y-93186887D01*
X134149655Y-93355887D01*
X134068579Y-93203405D01*
X133892557Y-92987582D01*
X133677968Y-92810058D01*
X133432985Y-92677596D01*
X133166938Y-92595241D01*
X132889962Y-92566130D01*
X132612607Y-92591371D01*
X132345436Y-92670004D01*
X132098627Y-92799032D01*
X131881580Y-92973542D01*
X131702563Y-93186887D01*
X131609655Y-93355887D01*
X131528579Y-93203405D01*
X131352557Y-92987582D01*
X131137968Y-92810058D01*
X130892985Y-92677596D01*
X130626938Y-92595241D01*
X130349962Y-92566130D01*
X130072607Y-92591371D01*
X129805436Y-92670004D01*
X129558627Y-92799032D01*
X129341580Y-92973542D01*
X129162563Y-93186887D01*
X129068683Y-93357654D01*
X128962643Y-93172594D01*
X128778884Y-92961672D01*
X128557507Y-92790652D01*
X128307020Y-92666107D01*
X128119498Y-92609227D01*
X127898000Y-92720999D01*
X127898000Y-93902000D01*
X127918000Y-93902000D01*
X127918000Y-94098000D01*
X127898000Y-94098000D01*
X127898000Y-95279001D01*
X128119498Y-95390773D01*
X128307020Y-95333893D01*
X128557507Y-95209348D01*
X128778884Y-95038328D01*
X128962643Y-94827406D01*
X129069058Y-94641692D01*
X129151421Y-94796595D01*
X129327443Y-95012418D01*
X129542032Y-95189942D01*
X129787015Y-95322404D01*
X130053062Y-95404759D01*
X130330038Y-95433870D01*
X130607393Y-95408629D01*
X130874564Y-95329996D01*
X131121373Y-95200968D01*
X131338420Y-95026458D01*
X131517437Y-94813113D01*
X131610345Y-94644113D01*
X131691421Y-94796595D01*
X131867443Y-95012418D01*
X132082032Y-95189942D01*
X132327015Y-95322404D01*
X132481449Y-95370209D01*
X132475000Y-95370209D01*
X132361888Y-95381350D01*
X132253124Y-95414343D01*
X132152885Y-95467921D01*
X132065026Y-95540026D01*
X131992921Y-95627885D01*
X131939343Y-95728124D01*
X131906350Y-95836888D01*
X131895209Y-95950000D01*
X131895209Y-96673000D01*
X124427000Y-96673000D01*
X124427000Y-96242250D01*
X124282750Y-96098000D01*
X123098000Y-96098000D01*
X123098000Y-96118000D01*
X122902000Y-96118000D01*
X122902000Y-96098000D01*
X122882000Y-96098000D01*
X122882000Y-95902000D01*
X122902000Y-95902000D01*
X122902000Y-94717250D01*
X123098000Y-94717250D01*
X123098000Y-95902000D01*
X124282750Y-95902000D01*
X124427000Y-95757750D01*
X124427000Y-95093170D01*
X124404826Y-94981695D01*
X124361331Y-94876688D01*
X124298185Y-94782184D01*
X124217816Y-94701815D01*
X124123312Y-94638669D01*
X124018304Y-94595174D01*
X123906829Y-94573000D01*
X123242250Y-94573000D01*
X123098000Y-94717250D01*
X122902000Y-94717250D01*
X122757750Y-94573000D01*
X122596554Y-94573000D01*
X122850055Y-94319499D01*
X126409223Y-94319499D01*
X126498278Y-94584687D01*
X126637357Y-94827406D01*
X126821116Y-95038328D01*
X127042493Y-95209348D01*
X127292980Y-95333893D01*
X127480502Y-95390773D01*
X127702000Y-95279001D01*
X127702000Y-94098000D01*
X126520615Y-94098000D01*
X126409223Y-94319499D01*
X122850055Y-94319499D01*
X123489053Y-93680501D01*
X126409223Y-93680501D01*
X126520615Y-93902000D01*
X127702000Y-93902000D01*
X127702000Y-92720999D01*
X127480502Y-92609227D01*
X127292980Y-92666107D01*
X127042493Y-92790652D01*
X126821116Y-92961672D01*
X126637357Y-93172594D01*
X126498278Y-93415313D01*
X126409223Y-93680501D01*
X123489053Y-93680501D01*
X124834777Y-92334778D01*
X124883258Y-92275756D01*
X124932369Y-92217228D01*
X124934464Y-92213417D01*
X124937224Y-92210057D01*
X124973329Y-92142722D01*
X125010125Y-92075790D01*
X125011439Y-92071647D01*
X125013495Y-92067813D01*
X125035833Y-91994748D01*
X125058928Y-91921943D01*
X125059413Y-91917621D01*
X125060684Y-91913463D01*
X125068400Y-91837495D01*
X125076919Y-91761547D01*
X125076979Y-91753038D01*
X125076994Y-91752887D01*
X125076981Y-91752747D01*
X125077000Y-91750000D01*
X125077000Y-86877000D01*
X130453445Y-86877000D01*
X129771958Y-87558488D01*
X129742873Y-87546262D01*
X129391898Y-87474217D01*
X129033613Y-87471716D01*
X128681666Y-87538853D01*
X128349463Y-87673072D01*
X128049656Y-87869260D01*
X127793665Y-88119945D01*
X127591241Y-88415577D01*
X127450094Y-88744897D01*
X127375601Y-89095361D01*
X127370599Y-89453619D01*
X127435277Y-89806026D01*
X127567174Y-90139159D01*
X127761264Y-90440328D01*
X128010156Y-90698062D01*
X128304368Y-90902545D01*
X128632694Y-91045988D01*
X128982629Y-91122926D01*
X129340844Y-91130429D01*
X129693694Y-91068212D01*
X130027739Y-90938645D01*
X130330256Y-90746662D01*
X130589722Y-90499576D01*
X130796254Y-90206798D01*
X130941985Y-89879481D01*
X131021364Y-89530092D01*
X131027078Y-89120853D01*
X130957485Y-88769384D01*
X130940757Y-88728798D01*
X132334778Y-87334777D01*
X132383266Y-87275746D01*
X132432369Y-87217228D01*
X132434464Y-87213417D01*
X132437225Y-87210056D01*
X132473329Y-87142723D01*
X132510125Y-87075790D01*
X132511440Y-87071645D01*
X132513495Y-87067812D01*
X132535838Y-86994733D01*
X132558928Y-86921943D01*
X132559412Y-86917624D01*
X132560685Y-86913462D01*
X132568410Y-86837405D01*
X132576919Y-86761547D01*
X132576979Y-86753048D01*
X132576995Y-86752887D01*
X132576981Y-86752737D01*
X132577000Y-86750000D01*
X132577000Y-85982918D01*
X132672115Y-85932079D01*
X132759974Y-85859974D01*
X132790276Y-85823051D01*
X132825991Y-85819549D01*
X132902128Y-85812888D01*
X132906306Y-85811674D01*
X132910632Y-85811250D01*
X132983755Y-85789173D01*
X133057121Y-85767858D01*
X133060981Y-85765857D01*
X133065145Y-85764600D01*
X133132604Y-85728731D01*
X133200416Y-85693581D01*
X133203814Y-85690868D01*
X133207655Y-85688826D01*
X133266866Y-85640535D01*
X133326555Y-85592885D01*
X133332607Y-85586917D01*
X133332732Y-85586815D01*
X133332828Y-85586699D01*
X133334777Y-85584777D01*
X133777304Y-85142250D01*
X135473000Y-85142250D01*
X135473000Y-85356829D01*
X135495174Y-85468304D01*
X135538669Y-85573312D01*
X135601815Y-85667816D01*
X135682184Y-85748185D01*
X135776688Y-85811331D01*
X135881695Y-85854826D01*
X135993170Y-85877000D01*
X136257750Y-85877000D01*
X136402000Y-85732750D01*
X136402000Y-84998000D01*
X136598000Y-84998000D01*
X136598000Y-85732750D01*
X136742250Y-85877000D01*
X137006830Y-85877000D01*
X137118305Y-85854826D01*
X137223312Y-85811331D01*
X137317816Y-85748185D01*
X137398185Y-85667816D01*
X137461331Y-85573312D01*
X137504826Y-85468304D01*
X137527000Y-85356829D01*
X137527000Y-85142250D01*
X137382750Y-84998000D01*
X136598000Y-84998000D01*
X136402000Y-84998000D01*
X135617250Y-84998000D01*
X135473000Y-85142250D01*
X133777304Y-85142250D01*
X133995164Y-84924390D01*
X134050000Y-84929791D01*
X134950000Y-84929791D01*
X135063112Y-84918650D01*
X135171876Y-84885657D01*
X135272115Y-84832079D01*
X135359974Y-84759974D01*
X135432079Y-84672115D01*
X135473000Y-84595556D01*
X135473000Y-84657750D01*
X135617250Y-84802000D01*
X136402000Y-84802000D01*
X136402000Y-84782000D01*
X136598000Y-84782000D01*
X136598000Y-84802000D01*
X137382750Y-84802000D01*
X137527000Y-84657750D01*
X137527000Y-84443171D01*
X137504826Y-84331696D01*
X137461331Y-84226688D01*
X137398185Y-84132184D01*
X137317816Y-84051815D01*
X137223312Y-83988669D01*
X137127689Y-83949061D01*
X137171876Y-83935657D01*
X137272115Y-83882079D01*
X137359974Y-83809974D01*
X137432079Y-83722115D01*
X137485657Y-83621876D01*
X137518650Y-83513112D01*
X137529791Y-83400000D01*
X137529791Y-82600000D01*
X137518650Y-82486888D01*
X137485657Y-82378124D01*
X137432079Y-82277885D01*
X137359974Y-82190026D01*
X137272115Y-82117921D01*
X137171876Y-82064343D01*
X137063112Y-82031350D01*
X137002000Y-82025331D01*
X137002000Y-81256854D01*
X137071876Y-81235657D01*
X137172115Y-81182079D01*
X137259974Y-81109974D01*
X137332079Y-81022115D01*
X137385657Y-80921876D01*
X137418650Y-80813112D01*
X137429791Y-80700000D01*
X137429791Y-79800000D01*
X137418650Y-79686888D01*
X137385657Y-79578124D01*
X137332079Y-79477885D01*
X137259974Y-79390026D01*
X137172115Y-79317921D01*
X137071876Y-79264343D01*
X136963112Y-79231350D01*
X136850000Y-79220209D01*
X135650000Y-79220209D01*
X135536888Y-79231350D01*
X135428124Y-79264343D01*
X135327885Y-79317921D01*
X135240026Y-79390026D01*
X135167921Y-79477885D01*
X135150000Y-79511413D01*
X135132079Y-79477885D01*
X135059974Y-79390026D01*
X134972115Y-79317921D01*
X134871876Y-79264343D01*
X134802000Y-79243146D01*
X134802000Y-77550000D01*
X134795218Y-77480829D01*
X134789167Y-77411669D01*
X134788064Y-77407872D01*
X134787678Y-77403936D01*
X134767591Y-77337405D01*
X134748221Y-77270731D01*
X134746403Y-77267223D01*
X134745259Y-77263435D01*
X134712625Y-77202059D01*
X134680680Y-77140432D01*
X134678215Y-77137344D01*
X134676357Y-77133850D01*
X134632447Y-77080010D01*
X134589117Y-77025732D01*
X134583691Y-77020230D01*
X134583597Y-77020115D01*
X134583490Y-77020027D01*
X134581744Y-77018256D01*
X132281744Y-74718256D01*
X132228078Y-74674174D01*
X132174855Y-74629515D01*
X132171389Y-74627610D01*
X132168334Y-74625100D01*
X132127000Y-74602937D01*
X132127000Y-71856193D01*
X132172115Y-71832079D01*
X132259974Y-71759974D01*
X132287035Y-71727000D01*
X132350000Y-71727000D01*
X132425991Y-71719549D01*
X132502128Y-71712888D01*
X132506306Y-71711674D01*
X132510632Y-71711250D01*
X132583755Y-71689173D01*
X132657121Y-71667858D01*
X132660981Y-71665857D01*
X132665145Y-71664600D01*
X132732604Y-71628731D01*
X132800416Y-71593581D01*
X132803814Y-71590868D01*
X132807655Y-71588826D01*
X132866866Y-71540535D01*
X132926555Y-71492885D01*
X132932607Y-71486917D01*
X132932732Y-71486815D01*
X132932828Y-71486699D01*
X132934777Y-71484777D01*
X134227304Y-70192250D01*
X134973000Y-70192250D01*
X134973000Y-70406829D01*
X134995174Y-70518304D01*
X135038669Y-70623312D01*
X135101815Y-70717816D01*
X135182184Y-70798185D01*
X135276688Y-70861331D01*
X135381695Y-70904826D01*
X135493170Y-70927000D01*
X135757750Y-70927000D01*
X135902000Y-70782750D01*
X135902000Y-70048000D01*
X136098000Y-70048000D01*
X136098000Y-70782750D01*
X136242250Y-70927000D01*
X136506830Y-70927000D01*
X136618305Y-70904826D01*
X136723312Y-70861331D01*
X136817816Y-70798185D01*
X136898185Y-70717816D01*
X136961331Y-70623312D01*
X137004826Y-70518304D01*
X137027000Y-70406829D01*
X137027000Y-70192250D01*
X136882750Y-70048000D01*
X136098000Y-70048000D01*
X135902000Y-70048000D01*
X135117250Y-70048000D01*
X134973000Y-70192250D01*
X134227304Y-70192250D01*
X134439764Y-69979791D01*
X134450000Y-69979791D01*
X134563112Y-69968650D01*
X134671876Y-69935657D01*
X134772115Y-69882079D01*
X134859974Y-69809974D01*
X134932079Y-69722115D01*
X134973000Y-69645556D01*
X134973000Y-69707750D01*
X135117250Y-69852000D01*
X135902000Y-69852000D01*
X135902000Y-69832000D01*
X136098000Y-69832000D01*
X136098000Y-69852000D01*
X136882750Y-69852000D01*
X137027000Y-69707750D01*
X137027000Y-69493171D01*
X137004826Y-69381696D01*
X136961331Y-69276688D01*
X136898185Y-69182184D01*
X136817816Y-69101815D01*
X136723312Y-69038669D01*
X136627689Y-68999061D01*
X136671876Y-68985657D01*
X136772115Y-68932079D01*
X136859974Y-68859974D01*
X136932079Y-68772115D01*
X136985657Y-68671876D01*
X137018650Y-68563112D01*
X137029791Y-68450000D01*
X137029791Y-68127000D01*
X137873000Y-68127000D01*
X137873000Y-92573000D01*
G36*
X136797357Y-94827406D02*
X136981116Y-95038328D01*
X137202493Y-95209348D01*
X137452980Y-95333893D01*
X137581908Y-95373000D01*
X136742250Y-95373000D01*
X136598000Y-95517250D01*
X136598000Y-96402000D01*
X136618000Y-96402000D01*
X136618000Y-96598000D01*
X136598000Y-96598000D01*
X136598000Y-96618000D01*
X136402000Y-96618000D01*
X136402000Y-96598000D01*
X136382000Y-96598000D01*
X136382000Y-96402000D01*
X136402000Y-96402000D01*
X136402000Y-95517250D01*
X136257750Y-95373000D01*
X135808449Y-95373000D01*
X135954564Y-95329996D01*
X136201373Y-95200968D01*
X136418420Y-95026458D01*
X136597437Y-94813113D01*
X136691317Y-94642346D01*
X136797357Y-94827406D01*
X136797357Y-94827406D01*
G37*
X136797357Y-94827406D02*
X136981116Y-95038328D01*
X137202493Y-95209348D01*
X137452980Y-95333893D01*
X137581908Y-95373000D01*
X136742250Y-95373000D01*
X136598000Y-95517250D01*
X136598000Y-96402000D01*
X136618000Y-96402000D01*
X136618000Y-96598000D01*
X136598000Y-96598000D01*
X136598000Y-96618000D01*
X136402000Y-96618000D01*
X136402000Y-96598000D01*
X136382000Y-96598000D01*
X136382000Y-96402000D01*
X136402000Y-96402000D01*
X136402000Y-95517250D01*
X136257750Y-95373000D01*
X135808449Y-95373000D01*
X135954564Y-95329996D01*
X136201373Y-95200968D01*
X136418420Y-95026458D01*
X136597437Y-94813113D01*
X136691317Y-94642346D01*
X136797357Y-94827406D01*
M02*
