M48
METRIC,TZ
T1C0.300
T2C0.400
T3C0.600
T4C0.762
T5C0.900
T6C0.914
T7C1.000
T8C3.000
%
G90
G05
T1
X117580Y-60335
X145520Y-62875
X150600Y-90815
X148060Y-52715
X158220Y-93355
X145520Y-75575
X140440Y-93355
X132820Y-95895
X115040Y-57795
X127740Y-62875
X120120Y-78115
X130280Y-55255
X120120Y-57795
X145520Y-93355
X125200Y-60335
X153140Y-80655
X145520Y-73035
X145520Y-52715
X150600Y-93355
X120120Y-67955
X130280Y-60335
X130280Y-57795
X120120Y-75575
X120120Y-80655
X120120Y-70495
X125200Y-67955
X137900Y-57795
X132820Y-80655
X122660Y-57795
X122660Y-73035
X153140Y-83195
X130280Y-67955
X125200Y-88275
X127740Y-70495
X125200Y-70495
X117580Y-62875
X122660Y-83195
X127740Y-57795
X127740Y-73035
X122660Y-85735
X145520Y-67955
X145520Y-70495
X142980Y-52715
X122660Y-62875
X130280Y-75575
X145520Y-85735
X127740Y-67955
X142980Y-90815
X117580Y-88275
X122660Y-52715
X148060Y-60335
X132820Y-65415
X148060Y-90815
X135360Y-52715
X127740Y-52715
X153140Y-95895
X142980Y-95895
X120120Y-65415
X153140Y-60335
X140440Y-52715
X148060Y-95895
X125200Y-65415
X122660Y-78115
X122660Y-55255
X130280Y-83195
X122660Y-60335
X145520Y-78115
X145520Y-83195
X158220Y-57795
X132820Y-62875
X132820Y-73035
X120120Y-60335
X132820Y-75575
X130280Y-93355
X153140Y-52715
X120120Y-95895
X153140Y-55255
X120120Y-52715
X117580Y-78115
X142980Y-93355
X127740Y-55255
X137900Y-95895
X117580Y-57795
X155680Y-57795
X150600Y-83195
X148060Y-55255
X148060Y-93355
X117580Y-67955
X127740Y-60335
X117580Y-75575
X117580Y-70495
X153140Y-93355
X122660Y-67955
X135360Y-57795
X125200Y-80655
X120120Y-73035
X122660Y-88275
X125200Y-55255
X122660Y-70495
X117580Y-83195
X153140Y-57795
X145520Y-80655
X125200Y-57795
X125200Y-73035
X120120Y-85735
X132820Y-67955
X120120Y-88275
X127740Y-88275
X130280Y-70495
X120120Y-62875
X125200Y-83195
X117580Y-73035
X125200Y-62875
X132820Y-85735
X122660Y-75575
X117580Y-90815
X150600Y-85735
X140440Y-60335
X130280Y-65415
X145520Y-90815
X132820Y-52715
X125200Y-52715
X150600Y-95895
X140440Y-95895
X117580Y-65415
X150600Y-60335
X145520Y-65415
X137900Y-52715
X130280Y-52715
X145520Y-95895
X122660Y-65415
X125200Y-75575
X127740Y-83195
X127740Y-65415
X132820Y-78115
X120120Y-55255
X132820Y-83195
X117580Y-80655
X130280Y-62875
T2
X135250Y-92000
T3
X144250Y-54250
X144250Y-55520
X144250Y-56790
T4
X114540Y-59400
X114540Y-61940
X114540Y-64480
X114540Y-67020
X114540Y-69560
X114540Y-72100
X114540Y-74640
X114540Y-77180
X114540Y-79720
X114540Y-82260
X114540Y-84800
X114540Y-87340
X114540Y-89880
X149560Y-52820
X149560Y-55360
X149560Y-57900
X155180Y-59400
X155180Y-61940
X155180Y-64480
X155180Y-67020
X155180Y-69560
X155180Y-72100
X155180Y-74640
X155180Y-77180
X155180Y-79720
X155180Y-82260
X155180Y-84800
X155180Y-87340
X155180Y-89880
X157720Y-59400
X157720Y-61940
X157720Y-64480
X157720Y-67020
X157720Y-69560
X157720Y-72100
X157720Y-74640
X157720Y-77180
X157720Y-79720
X157720Y-82260
X157720Y-84800
X157720Y-87340
X157720Y-89880
T5
X131920Y-55500
X134460Y-55500
X137000Y-55500
T6
X140380Y-62890
X140380Y-65430
X140380Y-67970
X140380Y-70510
X140380Y-73050
X140380Y-75590
X140380Y-78130
X140380Y-80670
X140380Y-83210
X140380Y-85750
X148000Y-62890
X148000Y-65430
X148000Y-67970
X148000Y-70510
X148000Y-73050
X148000Y-75590
X148000Y-78130
X148000Y-80670
X148000Y-83210
X148000Y-85750
T7
X121150Y-94000
X123690Y-94000
X126230Y-94000
X128770Y-94000
T8
X116000Y-53500
X116000Y-95500
X156000Y-53500
X156000Y-95500
T0
M30
