M48
;DRILL file {KiCad no-vcs-found-200df95~58~ubuntu16.04.1} date Mon May 29 15:13:29 2017
;FORMAT={-:-/ absolute / metric / decimal}
FMAT,2
METRIC,TZ
T1C0.400
T2C1.000
%
G90
G05
M71
T1
X85.8Y-89.1
X90.752Y-80.948
X92.2Y-81.3
X93.052Y-84.548
X95.2Y-79.9
X97.8Y-84.1
X97.85Y-81.86
X98.1Y-80.4
X98.4Y-76.2
X99.9Y-90.
X105.226Y-81.217
X105.315Y-77.003
X106.Y-75.2
X106.Y-83.5
X107.503Y-77.85
X107.575Y-78.95
X107.939Y-81.842
X108.094Y-90.698
X108.917Y-82.224
X109.126Y-92.4
X109.2Y-90.7
X109.9Y-81.7
X110.228Y-78.917
X110.7Y-87.625
X111.8Y-85.3
X112.3Y-79.585
X112.4Y-90.7
X112.7Y-86.85
X113.8Y-86.2
X114.2Y-77.1
X114.291Y-81.444
X88.1Y-76.5
X79.6Y-77.8
X79.6Y-79.8
X78.6Y-78.8
X89.1Y-76.5
X89.1Y-91.8
X88.1Y-90.8
X88.1Y-89.8
X89.1Y-89.8
X88.1Y-77.5
X77.6Y-77.8
X80.6Y-77.8
X77.6Y-78.8
X87.1Y-77.5
X80.6Y-79.8
X91.4Y-75.3
X77.1Y-75.
X87.1Y-89.8
X89.1Y-77.5
X90.4Y-75.3
X75.1Y-74.
X75.1Y-75.
X79.6Y-78.8
X87.1Y-90.8
X78.6Y-77.8
X78.6Y-79.8
X89.1Y-90.8
X80.6Y-78.8
X77.6Y-79.8
X76.1Y-74.
X87.1Y-76.5
X89.4Y-75.3
X88.1Y-91.8
X77.1Y-74.
X76.1Y-75.
X87.1Y-91.8
T2
X75.5Y-77.4
X75.5Y-79.94
X116.2Y-85.76
X116.2Y-88.3
X116.2Y-90.84
T0
M30
