G04 #@! TF.GenerationSoftware,KiCad,Pcbnew,no-vcs-found-342f28f~58~ubuntu16.04.1*
G04 #@! TF.CreationDate,2017-05-03T19:02:58+03:00*
G04 #@! TF.ProjectId,ws281x_led_strip_controller,7773323831785F6C65645F7374726970,rev?*
G04 #@! TF.FileFunction,Copper,L1,Top,Signal*
G04 #@! TF.FilePolarity,Positive*
%FSLAX46Y46*%
G04 Gerber Fmt 4.6, Leading zero omitted, Abs format (unit mm)*
G04 Created by KiCad (PCBNEW no-vcs-found-342f28f~58~ubuntu16.04.1) date Wed May  3 19:02:58 2017*
%MOMM*%
%LPD*%
G01*
G04 APERTURE LIST*
%ADD10C,0.100000*%
%ADD11R,1.600000X2.000000*%
%ADD12R,0.900000X1.200000*%
%ADD13R,3.000000X1.200000*%
%ADD14R,1.200000X0.750000*%
%ADD15R,0.900000X0.800000*%
%ADD16O,1.700000X1.700000*%
%ADD17R,1.700000X1.700000*%
%ADD18R,3.000000X1.500000*%
%ADD19C,0.800000*%
%ADD20C,0.250000*%
%ADD21C,0.400000*%
%ADD22C,0.300000*%
%ADD23C,0.254000*%
G04 APERTURE END LIST*
D10*
D11*
X111506000Y-76040000D03*
X111506000Y-81440000D03*
D12*
X106426000Y-76878000D03*
X106426000Y-79078000D03*
D13*
X103180000Y-76264000D03*
X103180000Y-78264000D03*
X103180000Y-80264000D03*
X103180000Y-82264000D03*
X103180000Y-84264000D03*
X103180000Y-86264000D03*
X103180000Y-88264000D03*
X103180000Y-90264000D03*
X83480000Y-90264000D03*
X83480000Y-88264000D03*
X83480000Y-86264000D03*
X83480000Y-84264000D03*
X83480000Y-82264000D03*
X83480000Y-80264000D03*
X83480000Y-78264000D03*
X83480000Y-76264000D03*
D14*
X110950000Y-89400000D03*
X109050000Y-89400000D03*
D12*
X107200000Y-87500000D03*
X107200000Y-85300000D03*
D15*
X111500000Y-86400000D03*
X109500000Y-87350000D03*
X109500000Y-85450000D03*
D16*
X76700000Y-77160000D03*
D17*
X76700000Y-79700000D03*
D16*
X116200000Y-85760000D03*
X116200000Y-88300000D03*
D17*
X116200000Y-90840000D03*
D18*
X107400000Y-91700000D03*
D19*
X105966754Y-84283246D03*
X88050010Y-82650000D03*
X89250000Y-89250000D03*
X89442189Y-85697136D03*
X100838000Y-84836000D03*
X107500000Y-89000000D03*
X114500000Y-87000000D03*
X89127626Y-82603499D03*
X99060000Y-82513010D03*
X95930001Y-76861151D03*
X106000000Y-81500000D03*
X109762998Y-81500000D03*
X96250000Y-83000000D03*
X93726000Y-89916000D03*
X87600008Y-74800000D03*
X87250000Y-89250000D03*
X97655635Y-81087092D03*
X100064291Y-75897378D03*
X105410000Y-74701009D03*
X105933838Y-83225010D03*
X113500000Y-79750000D03*
X115400000Y-80000000D03*
X109750000Y-75893000D03*
X108500000Y-86250000D03*
X86075000Y-88275000D03*
X93263653Y-82513653D03*
X97250000Y-87277001D03*
X100095976Y-76896888D03*
X100235021Y-79964283D03*
X100226992Y-78883000D03*
X100063857Y-77896384D03*
X98500000Y-88228001D03*
X100750000Y-91250000D03*
D20*
X105966754Y-84284854D02*
X105966754Y-84283246D01*
X106012950Y-84331050D02*
X105966754Y-84284854D01*
X89442189Y-84042179D02*
X88050010Y-82650000D01*
X89442189Y-85697136D02*
X89442189Y-84042179D01*
X89442189Y-85697136D02*
X89442189Y-89057811D01*
X89442189Y-89057811D02*
X89250000Y-89250000D01*
X106012950Y-84331050D02*
X104080000Y-86264000D01*
X111506000Y-76040000D02*
X111506000Y-76240000D01*
X104080000Y-86264000D02*
X103180000Y-86264000D01*
X100838000Y-84836000D02*
X101075000Y-85073000D01*
X101075000Y-85073000D02*
X101075000Y-85925000D01*
X101075000Y-85925000D02*
X101414000Y-86264000D01*
X101414000Y-86264000D02*
X103180000Y-86264000D01*
X103180000Y-86264000D02*
X101430000Y-86264000D01*
X101430000Y-86264000D02*
X101092000Y-86602000D01*
X101092000Y-86602000D02*
X101092000Y-90170000D01*
X101092000Y-90170000D02*
X101186000Y-90264000D01*
X101186000Y-90264000D02*
X103180000Y-90264000D01*
D21*
X109050000Y-89400000D02*
X109500000Y-88950000D01*
X109500000Y-88950000D02*
X109500000Y-87350000D01*
X116200000Y-90840000D02*
X114590000Y-90840000D01*
X114590000Y-90840000D02*
X114500000Y-90750000D01*
X114500000Y-90750000D02*
X114500000Y-87000000D01*
D20*
X107200000Y-87500000D02*
X107200000Y-88700000D01*
X107200000Y-88700000D02*
X107500000Y-89000000D01*
D21*
X109050000Y-89400000D02*
X109275000Y-89400000D01*
X109275000Y-89400000D02*
X110715000Y-90840000D01*
X110715000Y-90840000D02*
X116200000Y-90840000D01*
D22*
X95947575Y-80952885D02*
X96644688Y-81649998D01*
X96644688Y-81649998D02*
X96649998Y-81649998D01*
X96649998Y-81649998D02*
X97513010Y-82513010D01*
X97513010Y-82513010D02*
X99060000Y-82513010D01*
X95947575Y-80952885D02*
X95150460Y-81750000D01*
X89981125Y-81750000D02*
X89127626Y-82603499D01*
X95150460Y-81750000D02*
X89981125Y-81750000D01*
D21*
X109500000Y-87350000D02*
X107350000Y-87350000D01*
X107350000Y-87350000D02*
X107200000Y-87500000D01*
D22*
X95930001Y-80935311D02*
X95930001Y-76861151D01*
X95947575Y-80952885D02*
X95930001Y-80935311D01*
D20*
X111506000Y-81440000D02*
X109822998Y-81440000D01*
X109822998Y-81440000D02*
X109762998Y-81500000D01*
X93726000Y-85524000D02*
X96250000Y-83000000D01*
X93726000Y-89916000D02*
X93726000Y-85524000D01*
D21*
X105410000Y-74701009D02*
X105298991Y-74701009D01*
X105298991Y-74701009D02*
X105200000Y-74800000D01*
X105200000Y-74800000D02*
X100000000Y-74800000D01*
X100000000Y-74800000D02*
X87600008Y-74800000D01*
X100064291Y-75897378D02*
X100064291Y-74864291D01*
X100064291Y-74864291D02*
X100000000Y-74800000D01*
X100064291Y-75897378D02*
X99911484Y-75897378D01*
X99911484Y-75897378D02*
X97655635Y-78153227D01*
X97655635Y-78153227D02*
X97655635Y-81087092D01*
X83480000Y-90264000D02*
X86236000Y-90264000D01*
X86236000Y-90264000D02*
X87250000Y-89250000D01*
X106426000Y-75717009D02*
X105410000Y-74701009D01*
X106426000Y-76878000D02*
X106426000Y-75717009D01*
D20*
X109408848Y-79750000D02*
X105933838Y-83225010D01*
X113500000Y-79750000D02*
X109408848Y-79750000D01*
X115400000Y-80000000D02*
X115400000Y-79800000D01*
X115400000Y-79800000D02*
X114200000Y-78600000D01*
X109750000Y-77150000D02*
X109750000Y-75893000D01*
X114200000Y-78600000D02*
X111200000Y-78600000D01*
X111200000Y-78600000D02*
X109750000Y-77150000D01*
X109500000Y-85450000D02*
X108500000Y-85450000D01*
X108500000Y-85450000D02*
X107350000Y-85450000D01*
X108500000Y-86250000D02*
X108500000Y-85450000D01*
X107350000Y-85450000D02*
X107200000Y-85300000D01*
X86050000Y-79934000D02*
X86050000Y-88250000D01*
X84380000Y-78264000D02*
X86050000Y-79934000D01*
X86050000Y-88250000D02*
X86075000Y-88275000D01*
X83480000Y-78264000D02*
X84380000Y-78264000D01*
X93263653Y-82513653D02*
X93502307Y-82274999D01*
X93502307Y-82274999D02*
X96598001Y-82274999D01*
X96598001Y-82274999D02*
X97250000Y-82926998D01*
X97250000Y-82926998D02*
X97250000Y-87277001D01*
D21*
X107400000Y-91700000D02*
X107400000Y-90700000D01*
X104964000Y-88264000D02*
X103180000Y-88264000D01*
X107400000Y-90700000D02*
X104964000Y-88264000D01*
D20*
X103180000Y-88264000D02*
X103864000Y-88264000D01*
X100912888Y-76896888D02*
X100095976Y-76896888D01*
X102280000Y-78264000D02*
X100912888Y-76896888D01*
X103180000Y-78264000D02*
X102280000Y-78264000D01*
X103180000Y-78264000D02*
X105950000Y-78264000D01*
X105950000Y-78264000D02*
X106426000Y-78740000D01*
X106426000Y-78740000D02*
X106426000Y-79078000D01*
X100235021Y-82219021D02*
X100235021Y-79964283D01*
X102280000Y-84264000D02*
X100235021Y-82219021D01*
X103180000Y-84264000D02*
X102280000Y-84264000D01*
X103180000Y-82264000D02*
X101822000Y-82264000D01*
X101822000Y-82264000D02*
X101092000Y-81534000D01*
X101092000Y-81534000D02*
X101092000Y-79748008D01*
X101092000Y-79748008D02*
X100226992Y-78883000D01*
X103180000Y-80264000D02*
X102280000Y-80264000D01*
X102280000Y-80264000D02*
X101092000Y-79076000D01*
X101092000Y-79076000D02*
X101092000Y-78486000D01*
X101092000Y-78486000D02*
X100502384Y-77896384D01*
X100502384Y-77896384D02*
X100063857Y-77896384D01*
D22*
X100750000Y-91250000D02*
X98500000Y-89000000D01*
X98500000Y-89000000D02*
X98500000Y-88228001D01*
D23*
G36*
X117614000Y-93898000D02*
X74368000Y-93898000D01*
X74368000Y-78850000D01*
X75312676Y-78850000D01*
X75312676Y-80550000D01*
X75353577Y-80755625D01*
X75470055Y-80929945D01*
X75644375Y-81046423D01*
X75850000Y-81087324D01*
X77550000Y-81087324D01*
X77755625Y-81046423D01*
X77929945Y-80929945D01*
X78046423Y-80755625D01*
X78087324Y-80550000D01*
X78087324Y-78850000D01*
X78046423Y-78644375D01*
X77929945Y-78470055D01*
X77755625Y-78353577D01*
X77550000Y-78312676D01*
X77438017Y-78312676D01*
X77480715Y-78294297D01*
X77855363Y-77909187D01*
X78046715Y-77447209D01*
X77943108Y-77233000D01*
X76773000Y-77233000D01*
X76773000Y-77253000D01*
X76627000Y-77253000D01*
X76627000Y-77233000D01*
X75456892Y-77233000D01*
X75353285Y-77447209D01*
X75544637Y-77909187D01*
X75919285Y-78294297D01*
X75961983Y-78312676D01*
X75850000Y-78312676D01*
X75644375Y-78353577D01*
X75470055Y-78470055D01*
X75353577Y-78644375D01*
X75312676Y-78850000D01*
X74368000Y-78850000D01*
X74368000Y-76872791D01*
X75353285Y-76872791D01*
X75456892Y-77087000D01*
X76627000Y-77087000D01*
X76627000Y-75916680D01*
X76773000Y-75916680D01*
X76773000Y-77087000D01*
X77943108Y-77087000D01*
X78046715Y-76872791D01*
X77855363Y-76410813D01*
X77480715Y-76025703D01*
X76987210Y-75813279D01*
X76773000Y-75916680D01*
X76627000Y-75916680D01*
X76412790Y-75813279D01*
X75919285Y-76025703D01*
X75544637Y-76410813D01*
X75353285Y-76872791D01*
X74368000Y-76872791D01*
X74368000Y-75664000D01*
X81442676Y-75664000D01*
X81442676Y-76864000D01*
X81483577Y-77069625D01*
X81600055Y-77243945D01*
X81630069Y-77264000D01*
X81600055Y-77284055D01*
X81483577Y-77458375D01*
X81442676Y-77664000D01*
X81442676Y-78864000D01*
X81483577Y-79069625D01*
X81600055Y-79243945D01*
X81630069Y-79264000D01*
X81600055Y-79284055D01*
X81483577Y-79458375D01*
X81442676Y-79664000D01*
X81442676Y-80864000D01*
X81483577Y-81069625D01*
X81600055Y-81243945D01*
X81630069Y-81264000D01*
X81600055Y-81284055D01*
X81483577Y-81458375D01*
X81442676Y-81664000D01*
X81442676Y-82864000D01*
X81483577Y-83069625D01*
X81600055Y-83243945D01*
X81630069Y-83264000D01*
X81600055Y-83284055D01*
X81483577Y-83458375D01*
X81442676Y-83664000D01*
X81442676Y-84864000D01*
X81483577Y-85069625D01*
X81600055Y-85243945D01*
X81630069Y-85264000D01*
X81600055Y-85284055D01*
X81483577Y-85458375D01*
X81442676Y-85664000D01*
X81442676Y-86864000D01*
X81483577Y-87069625D01*
X81600055Y-87243945D01*
X81630069Y-87264000D01*
X81600055Y-87284055D01*
X81483577Y-87458375D01*
X81442676Y-87664000D01*
X81442676Y-88864000D01*
X81483577Y-89069625D01*
X81600055Y-89243945D01*
X81630069Y-89264000D01*
X81600055Y-89284055D01*
X81483577Y-89458375D01*
X81442676Y-89664000D01*
X81442676Y-90864000D01*
X81483577Y-91069625D01*
X81600055Y-91243945D01*
X81774375Y-91360423D01*
X81980000Y-91401324D01*
X84980000Y-91401324D01*
X85185625Y-91360423D01*
X85359945Y-91243945D01*
X85476423Y-91069625D01*
X85492062Y-90991000D01*
X86235995Y-90991000D01*
X86236000Y-90991001D01*
X86468052Y-90944842D01*
X86514211Y-90935660D01*
X86750067Y-90778067D01*
X87351044Y-90177089D01*
X87433583Y-90177161D01*
X87774417Y-90036331D01*
X88035414Y-89775789D01*
X88176839Y-89435201D01*
X88177161Y-89066417D01*
X88036331Y-88725583D01*
X87775789Y-88464586D01*
X87435201Y-88323161D01*
X87066417Y-88322839D01*
X87001936Y-88349482D01*
X87002161Y-88091417D01*
X86861331Y-87750583D01*
X86702000Y-87590974D01*
X86702000Y-79934005D01*
X86702001Y-79934000D01*
X86652370Y-79684491D01*
X86603933Y-79612000D01*
X86511034Y-79472966D01*
X86511031Y-79472964D01*
X85517324Y-78479256D01*
X85517324Y-77664000D01*
X85476423Y-77458375D01*
X85359945Y-77284055D01*
X85329931Y-77264000D01*
X85359945Y-77243945D01*
X85476423Y-77069625D01*
X85517324Y-76864000D01*
X85517324Y-75664000D01*
X85476423Y-75458375D01*
X85359945Y-75284055D01*
X85185625Y-75167577D01*
X84980000Y-75126676D01*
X81980000Y-75126676D01*
X81774375Y-75167577D01*
X81600055Y-75284055D01*
X81483577Y-75458375D01*
X81442676Y-75664000D01*
X74368000Y-75664000D01*
X74368000Y-74983583D01*
X86672847Y-74983583D01*
X86813677Y-75324417D01*
X87074219Y-75585414D01*
X87414807Y-75726839D01*
X87783591Y-75727161D01*
X88124425Y-75586331D01*
X88183860Y-75527000D01*
X99214344Y-75527000D01*
X99186378Y-75594351D01*
X97141568Y-77639160D01*
X96983975Y-77875016D01*
X96979725Y-77896384D01*
X96928634Y-78153227D01*
X96928635Y-78153232D01*
X96928635Y-80502991D01*
X96870221Y-80561303D01*
X96765532Y-80813420D01*
X96607001Y-80654889D01*
X96607001Y-77495165D01*
X96715415Y-77386940D01*
X96856840Y-77046352D01*
X96857162Y-76677568D01*
X96716332Y-76336734D01*
X96455790Y-76075737D01*
X96115202Y-75934312D01*
X95746418Y-75933990D01*
X95405584Y-76074820D01*
X95144587Y-76335362D01*
X95003162Y-76675950D01*
X95002840Y-77044734D01*
X95143670Y-77385568D01*
X95253001Y-77495090D01*
X95253001Y-80690037D01*
X94870038Y-81073000D01*
X89981125Y-81073000D01*
X89722048Y-81124534D01*
X89543337Y-81243945D01*
X89502414Y-81271289D01*
X89097231Y-81676472D01*
X88944043Y-81676338D01*
X88603209Y-81817168D01*
X88342212Y-82077710D01*
X88200787Y-82418298D01*
X88200465Y-82787082D01*
X88341295Y-83127916D01*
X88601837Y-83388913D01*
X88942425Y-83530338D01*
X89311209Y-83530660D01*
X89652043Y-83389830D01*
X89913040Y-83129288D01*
X90054465Y-82788700D01*
X90054600Y-82633947D01*
X90261547Y-82427000D01*
X92336728Y-82427000D01*
X92336492Y-82697236D01*
X92477322Y-83038070D01*
X92737864Y-83299067D01*
X93078452Y-83440492D01*
X93447236Y-83440814D01*
X93788070Y-83299984D01*
X94049067Y-83039442D01*
X94095758Y-82926999D01*
X95323063Y-82926999D01*
X95322995Y-83004937D01*
X93264966Y-85062966D01*
X93123631Y-85274490D01*
X93118557Y-85300000D01*
X93073999Y-85524000D01*
X93074000Y-85524005D01*
X93074000Y-89257030D01*
X92940586Y-89390211D01*
X92799161Y-89730799D01*
X92798839Y-90099583D01*
X92939669Y-90440417D01*
X93200211Y-90701414D01*
X93540799Y-90842839D01*
X93909583Y-90843161D01*
X94250417Y-90702331D01*
X94511414Y-90441789D01*
X94652839Y-90101201D01*
X94653161Y-89732417D01*
X94512331Y-89391583D01*
X94378000Y-89257017D01*
X94378000Y-85794068D01*
X96245072Y-83926996D01*
X96433583Y-83927161D01*
X96598000Y-83859225D01*
X96598000Y-86618031D01*
X96464586Y-86751212D01*
X96323161Y-87091800D01*
X96322839Y-87460584D01*
X96463669Y-87801418D01*
X96724211Y-88062415D01*
X97064799Y-88203840D01*
X97433583Y-88204162D01*
X97573070Y-88146527D01*
X97572839Y-88411584D01*
X97713669Y-88752418D01*
X97823000Y-88861940D01*
X97823000Y-89000000D01*
X97874534Y-89259077D01*
X98003893Y-89452676D01*
X98021289Y-89478711D01*
X99822973Y-91280396D01*
X99822839Y-91433583D01*
X99963669Y-91774417D01*
X100224211Y-92035414D01*
X100564799Y-92176839D01*
X100933583Y-92177161D01*
X101274417Y-92036331D01*
X101535414Y-91775789D01*
X101676839Y-91435201D01*
X101676878Y-91391000D01*
X102975250Y-91391000D01*
X103107000Y-91259250D01*
X103107000Y-90337000D01*
X103253000Y-90337000D01*
X103253000Y-91259250D01*
X103384750Y-91391000D01*
X104784827Y-91391000D01*
X104978522Y-91310769D01*
X105126769Y-91162521D01*
X105207000Y-90968827D01*
X105207000Y-90468750D01*
X105075250Y-90337000D01*
X103253000Y-90337000D01*
X103107000Y-90337000D01*
X101284750Y-90337000D01*
X101191969Y-90429781D01*
X100935201Y-90323161D01*
X100780449Y-90323026D01*
X99248281Y-88790859D01*
X99285414Y-88753790D01*
X99426839Y-88413202D01*
X99427161Y-88044418D01*
X99286331Y-87703584D01*
X99246817Y-87664000D01*
X101142676Y-87664000D01*
X101142676Y-88864000D01*
X101183577Y-89069625D01*
X101300055Y-89243945D01*
X101332851Y-89265859D01*
X101233231Y-89365479D01*
X101153000Y-89559173D01*
X101153000Y-90059250D01*
X101284750Y-90191000D01*
X103107000Y-90191000D01*
X103107000Y-90171000D01*
X103253000Y-90171000D01*
X103253000Y-90191000D01*
X105075250Y-90191000D01*
X105207000Y-90059250D01*
X105207000Y-89559173D01*
X105190002Y-89518135D01*
X106084543Y-90412676D01*
X105900000Y-90412676D01*
X105694375Y-90453577D01*
X105520055Y-90570055D01*
X105403577Y-90744375D01*
X105362676Y-90950000D01*
X105362676Y-92450000D01*
X105403577Y-92655625D01*
X105520055Y-92829945D01*
X105694375Y-92946423D01*
X105900000Y-92987324D01*
X108900000Y-92987324D01*
X109105625Y-92946423D01*
X109279945Y-92829945D01*
X109396423Y-92655625D01*
X109437324Y-92450000D01*
X109437324Y-90950000D01*
X109396423Y-90744375D01*
X109279945Y-90570055D01*
X109105625Y-90453577D01*
X108900000Y-90412676D01*
X108065571Y-90412676D01*
X107914067Y-90185933D01*
X107914064Y-90185931D01*
X107655269Y-89927136D01*
X107683583Y-89927161D01*
X107923245Y-89828134D01*
X107953577Y-89980625D01*
X108070055Y-90154945D01*
X108244375Y-90271423D01*
X108450000Y-90312324D01*
X109159190Y-90312324D01*
X110200931Y-91354064D01*
X110200933Y-91354067D01*
X110358527Y-91459367D01*
X110436790Y-91511661D01*
X110715000Y-91567001D01*
X110715005Y-91567000D01*
X114812676Y-91567000D01*
X114812676Y-91690000D01*
X114853577Y-91895625D01*
X114970055Y-92069945D01*
X115144375Y-92186423D01*
X115350000Y-92227324D01*
X117050000Y-92227324D01*
X117255625Y-92186423D01*
X117429945Y-92069945D01*
X117546423Y-91895625D01*
X117587324Y-91690000D01*
X117587324Y-89990000D01*
X117546423Y-89784375D01*
X117429945Y-89610055D01*
X117255625Y-89493577D01*
X117050000Y-89452676D01*
X116932785Y-89452676D01*
X117200663Y-89273686D01*
X117499159Y-88826955D01*
X117603977Y-88300000D01*
X117499159Y-87773045D01*
X117200663Y-87326314D01*
X116753932Y-87027818D01*
X116696882Y-87016470D01*
X116980715Y-86894297D01*
X117355363Y-86509187D01*
X117546715Y-86047209D01*
X117443108Y-85833000D01*
X116273000Y-85833000D01*
X116273000Y-85853000D01*
X116127000Y-85853000D01*
X116127000Y-85833000D01*
X114956892Y-85833000D01*
X114853285Y-86047209D01*
X114901181Y-86162844D01*
X114685201Y-86073161D01*
X114316417Y-86072839D01*
X113975583Y-86213669D01*
X113714586Y-86474211D01*
X113573161Y-86814799D01*
X113572839Y-87183583D01*
X113713669Y-87524417D01*
X113773000Y-87583852D01*
X113773000Y-90113000D01*
X111957290Y-90113000D01*
X111996769Y-90073521D01*
X112077000Y-89879827D01*
X112077000Y-89604750D01*
X111945250Y-89473000D01*
X111023000Y-89473000D01*
X111023000Y-89493000D01*
X110877000Y-89493000D01*
X110877000Y-89473000D01*
X110857000Y-89473000D01*
X110857000Y-89327000D01*
X110877000Y-89327000D01*
X110877000Y-88629750D01*
X111023000Y-88629750D01*
X111023000Y-89327000D01*
X111945250Y-89327000D01*
X112077000Y-89195250D01*
X112077000Y-88920173D01*
X111996769Y-88726479D01*
X111848522Y-88578231D01*
X111654827Y-88498000D01*
X111154750Y-88498000D01*
X111023000Y-88629750D01*
X110877000Y-88629750D01*
X110745250Y-88498000D01*
X110245173Y-88498000D01*
X110227000Y-88505527D01*
X110227000Y-88198731D01*
X110329945Y-88129945D01*
X110446423Y-87955625D01*
X110487324Y-87750000D01*
X110487324Y-86950000D01*
X110446423Y-86744375D01*
X110353128Y-86604750D01*
X110523000Y-86604750D01*
X110523000Y-86904827D01*
X110603231Y-87098521D01*
X110751478Y-87246769D01*
X110945173Y-87327000D01*
X111295250Y-87327000D01*
X111427000Y-87195250D01*
X111427000Y-86473000D01*
X111573000Y-86473000D01*
X111573000Y-87195250D01*
X111704750Y-87327000D01*
X112054827Y-87327000D01*
X112248522Y-87246769D01*
X112396769Y-87098521D01*
X112477000Y-86904827D01*
X112477000Y-86604750D01*
X112345250Y-86473000D01*
X111573000Y-86473000D01*
X111427000Y-86473000D01*
X110654750Y-86473000D01*
X110523000Y-86604750D01*
X110353128Y-86604750D01*
X110329945Y-86570055D01*
X110155625Y-86453577D01*
X109950000Y-86412676D01*
X109426859Y-86412676D01*
X109426881Y-86387324D01*
X109950000Y-86387324D01*
X110155625Y-86346423D01*
X110329945Y-86229945D01*
X110446423Y-86055625D01*
X110478338Y-85895173D01*
X110523000Y-85895173D01*
X110523000Y-86195250D01*
X110654750Y-86327000D01*
X111427000Y-86327000D01*
X111427000Y-85604750D01*
X111573000Y-85604750D01*
X111573000Y-86327000D01*
X112345250Y-86327000D01*
X112477000Y-86195250D01*
X112477000Y-85895173D01*
X112396769Y-85701479D01*
X112248522Y-85553231D01*
X112054827Y-85473000D01*
X111704750Y-85473000D01*
X111573000Y-85604750D01*
X111427000Y-85604750D01*
X111295250Y-85473000D01*
X110945173Y-85473000D01*
X110751478Y-85553231D01*
X110603231Y-85701479D01*
X110523000Y-85895173D01*
X110478338Y-85895173D01*
X110487324Y-85850000D01*
X110487324Y-85472791D01*
X114853285Y-85472791D01*
X114956892Y-85687000D01*
X116127000Y-85687000D01*
X116127000Y-84516680D01*
X116273000Y-84516680D01*
X116273000Y-85687000D01*
X117443108Y-85687000D01*
X117546715Y-85472791D01*
X117355363Y-85010813D01*
X116980715Y-84625703D01*
X116487210Y-84413279D01*
X116273000Y-84516680D01*
X116127000Y-84516680D01*
X115912790Y-84413279D01*
X115419285Y-84625703D01*
X115044637Y-85010813D01*
X114853285Y-85472791D01*
X110487324Y-85472791D01*
X110487324Y-85050000D01*
X110446423Y-84844375D01*
X110329945Y-84670055D01*
X110155625Y-84553577D01*
X109950000Y-84512676D01*
X109050000Y-84512676D01*
X108844375Y-84553577D01*
X108670055Y-84670055D01*
X108584564Y-84798000D01*
X108187324Y-84798000D01*
X108187324Y-84700000D01*
X108146423Y-84494375D01*
X108029945Y-84320055D01*
X107855625Y-84203577D01*
X107650000Y-84162676D01*
X106750000Y-84162676D01*
X106544375Y-84203577D01*
X106370055Y-84320055D01*
X106253577Y-84494375D01*
X106212676Y-84700000D01*
X106212676Y-85900000D01*
X106253577Y-86105625D01*
X106370055Y-86279945D01*
X106544375Y-86396423D01*
X106562358Y-86400000D01*
X106544375Y-86403577D01*
X106370055Y-86520055D01*
X106253577Y-86694375D01*
X106212676Y-86900000D01*
X106212676Y-88100000D01*
X106253577Y-88305625D01*
X106370055Y-88479945D01*
X106544375Y-88596423D01*
X106548000Y-88597144D01*
X106548000Y-88699995D01*
X106547999Y-88700000D01*
X106567775Y-88799417D01*
X106573151Y-88826441D01*
X106573135Y-88845001D01*
X105478067Y-87749933D01*
X105349458Y-87664000D01*
X105242211Y-87592340D01*
X105201458Y-87584234D01*
X105176423Y-87458375D01*
X105059945Y-87284055D01*
X105027149Y-87262141D01*
X105126769Y-87162521D01*
X105207000Y-86968827D01*
X105207000Y-86468750D01*
X105075250Y-86337000D01*
X103253000Y-86337000D01*
X103253000Y-86357000D01*
X103107000Y-86357000D01*
X103107000Y-86337000D01*
X101284750Y-86337000D01*
X101153000Y-86468750D01*
X101153000Y-86968827D01*
X101233231Y-87162521D01*
X101332851Y-87262141D01*
X101300055Y-87284055D01*
X101183577Y-87458375D01*
X101142676Y-87664000D01*
X99246817Y-87664000D01*
X99025789Y-87442587D01*
X98685201Y-87301162D01*
X98316417Y-87300840D01*
X98176930Y-87358475D01*
X98177161Y-87093418D01*
X98036331Y-86752584D01*
X97902000Y-86618018D01*
X97902000Y-83190010D01*
X98425986Y-83190010D01*
X98534211Y-83298424D01*
X98874799Y-83439849D01*
X99243583Y-83440171D01*
X99584417Y-83299341D01*
X99845414Y-83038799D01*
X99929714Y-82835782D01*
X101142676Y-84048744D01*
X101142676Y-84864000D01*
X101183577Y-85069625D01*
X101300055Y-85243945D01*
X101332851Y-85265859D01*
X101233231Y-85365479D01*
X101153000Y-85559173D01*
X101153000Y-86059250D01*
X101284750Y-86191000D01*
X103107000Y-86191000D01*
X103107000Y-86171000D01*
X103253000Y-86171000D01*
X103253000Y-86191000D01*
X105075250Y-86191000D01*
X105207000Y-86059250D01*
X105207000Y-85559173D01*
X105126769Y-85365479D01*
X105027149Y-85265859D01*
X105059945Y-85243945D01*
X105176423Y-85069625D01*
X105217324Y-84864000D01*
X105217324Y-83819366D01*
X105408049Y-84010424D01*
X105748637Y-84151849D01*
X106117421Y-84152171D01*
X106458255Y-84011341D01*
X106719252Y-83750799D01*
X106860677Y-83410211D01*
X106860843Y-83220073D01*
X108885896Y-81195019D01*
X108836159Y-81314799D01*
X108835837Y-81683583D01*
X108976667Y-82024417D01*
X109237209Y-82285414D01*
X109577797Y-82426839D01*
X109946581Y-82427161D01*
X110168676Y-82335393D01*
X110168676Y-82440000D01*
X110209577Y-82645625D01*
X110326055Y-82819945D01*
X110500375Y-82936423D01*
X110706000Y-82977324D01*
X112306000Y-82977324D01*
X112511625Y-82936423D01*
X112685945Y-82819945D01*
X112802423Y-82645625D01*
X112843324Y-82440000D01*
X112843324Y-80440000D01*
X112835765Y-80402000D01*
X112841030Y-80402000D01*
X112974211Y-80535414D01*
X113314799Y-80676839D01*
X113683583Y-80677161D01*
X114024417Y-80536331D01*
X114285414Y-80275789D01*
X114426839Y-79935201D01*
X114427002Y-79749069D01*
X114478903Y-79800970D01*
X114473161Y-79814799D01*
X114472839Y-80183583D01*
X114613669Y-80524417D01*
X114874211Y-80785414D01*
X115214799Y-80926839D01*
X115583583Y-80927161D01*
X115924417Y-80786331D01*
X116185414Y-80525789D01*
X116326839Y-80185201D01*
X116327161Y-79816417D01*
X116186331Y-79475583D01*
X115925789Y-79214586D01*
X115602349Y-79080281D01*
X114661034Y-78138966D01*
X114599104Y-78097586D01*
X114449510Y-77997631D01*
X114408113Y-77989396D01*
X114200000Y-77947999D01*
X114199995Y-77948000D01*
X111470067Y-77948000D01*
X111089067Y-77567000D01*
X111301250Y-77567000D01*
X111433000Y-77435250D01*
X111433000Y-76113000D01*
X111579000Y-76113000D01*
X111579000Y-77435250D01*
X111710750Y-77567000D01*
X112410827Y-77567000D01*
X112604521Y-77486769D01*
X112752769Y-77338522D01*
X112833000Y-77144827D01*
X112833000Y-76244750D01*
X112701250Y-76113000D01*
X111579000Y-76113000D01*
X111433000Y-76113000D01*
X111413000Y-76113000D01*
X111413000Y-75967000D01*
X111433000Y-75967000D01*
X111433000Y-74644750D01*
X111579000Y-74644750D01*
X111579000Y-75967000D01*
X112701250Y-75967000D01*
X112833000Y-75835250D01*
X112833000Y-74935173D01*
X112752769Y-74741478D01*
X112604521Y-74593231D01*
X112410827Y-74513000D01*
X111710750Y-74513000D01*
X111579000Y-74644750D01*
X111433000Y-74644750D01*
X111301250Y-74513000D01*
X110601173Y-74513000D01*
X110407479Y-74593231D01*
X110259231Y-74741478D01*
X110179000Y-74935173D01*
X110179000Y-75067396D01*
X109935201Y-74966161D01*
X109566417Y-74965839D01*
X109225583Y-75106669D01*
X108964586Y-75367211D01*
X108823161Y-75707799D01*
X108822839Y-76076583D01*
X108963669Y-76417417D01*
X109098000Y-76551983D01*
X109098000Y-77149995D01*
X109097999Y-77150000D01*
X109135500Y-77338522D01*
X109147631Y-77399510D01*
X109259544Y-77567000D01*
X109288966Y-77611034D01*
X110738964Y-79061031D01*
X110738966Y-79061034D01*
X110791309Y-79096008D01*
X110794290Y-79098000D01*
X109408848Y-79098000D01*
X109159338Y-79147631D01*
X108947814Y-79288966D01*
X108947812Y-79288969D01*
X106925174Y-81311607D01*
X106786331Y-80975583D01*
X106525789Y-80714586D01*
X106185201Y-80573161D01*
X105816417Y-80572839D01*
X105475583Y-80713669D01*
X105214586Y-80974211D01*
X105177762Y-81062892D01*
X105217324Y-80864000D01*
X105217324Y-79664000D01*
X105176423Y-79458375D01*
X105059945Y-79284055D01*
X105029931Y-79264000D01*
X105059945Y-79243945D01*
X105176423Y-79069625D01*
X105206981Y-78916000D01*
X105438676Y-78916000D01*
X105438676Y-79678000D01*
X105479577Y-79883625D01*
X105596055Y-80057945D01*
X105770375Y-80174423D01*
X105976000Y-80215324D01*
X106876000Y-80215324D01*
X107081625Y-80174423D01*
X107255945Y-80057945D01*
X107372423Y-79883625D01*
X107413324Y-79678000D01*
X107413324Y-78478000D01*
X107372423Y-78272375D01*
X107255945Y-78098055D01*
X107081625Y-77981577D01*
X107063642Y-77978000D01*
X107081625Y-77974423D01*
X107255945Y-77857945D01*
X107372423Y-77683625D01*
X107413324Y-77478000D01*
X107413324Y-76278000D01*
X107372423Y-76072375D01*
X107255945Y-75898055D01*
X107153000Y-75829269D01*
X107153000Y-75717014D01*
X107153001Y-75717009D01*
X107097660Y-75438799D01*
X107097660Y-75438798D01*
X106940067Y-75202942D01*
X106337089Y-74599964D01*
X106337161Y-74517426D01*
X106196331Y-74176592D01*
X105935789Y-73915595D01*
X105595201Y-73774170D01*
X105226417Y-73773848D01*
X104885583Y-73914678D01*
X104726985Y-74073000D01*
X100000005Y-74073000D01*
X100000000Y-74072999D01*
X99999995Y-74073000D01*
X88184109Y-74073000D01*
X88125797Y-74014586D01*
X87785209Y-73873161D01*
X87416425Y-73872839D01*
X87075591Y-74013669D01*
X86814594Y-74274211D01*
X86673169Y-74614799D01*
X86672847Y-74983583D01*
X74368000Y-74983583D01*
X74368000Y-73352000D01*
X117614000Y-73352000D01*
X117614000Y-93898000D01*
X117614000Y-93898000D01*
G37*
X117614000Y-93898000D02*
X74368000Y-93898000D01*
X74368000Y-78850000D01*
X75312676Y-78850000D01*
X75312676Y-80550000D01*
X75353577Y-80755625D01*
X75470055Y-80929945D01*
X75644375Y-81046423D01*
X75850000Y-81087324D01*
X77550000Y-81087324D01*
X77755625Y-81046423D01*
X77929945Y-80929945D01*
X78046423Y-80755625D01*
X78087324Y-80550000D01*
X78087324Y-78850000D01*
X78046423Y-78644375D01*
X77929945Y-78470055D01*
X77755625Y-78353577D01*
X77550000Y-78312676D01*
X77438017Y-78312676D01*
X77480715Y-78294297D01*
X77855363Y-77909187D01*
X78046715Y-77447209D01*
X77943108Y-77233000D01*
X76773000Y-77233000D01*
X76773000Y-77253000D01*
X76627000Y-77253000D01*
X76627000Y-77233000D01*
X75456892Y-77233000D01*
X75353285Y-77447209D01*
X75544637Y-77909187D01*
X75919285Y-78294297D01*
X75961983Y-78312676D01*
X75850000Y-78312676D01*
X75644375Y-78353577D01*
X75470055Y-78470055D01*
X75353577Y-78644375D01*
X75312676Y-78850000D01*
X74368000Y-78850000D01*
X74368000Y-76872791D01*
X75353285Y-76872791D01*
X75456892Y-77087000D01*
X76627000Y-77087000D01*
X76627000Y-75916680D01*
X76773000Y-75916680D01*
X76773000Y-77087000D01*
X77943108Y-77087000D01*
X78046715Y-76872791D01*
X77855363Y-76410813D01*
X77480715Y-76025703D01*
X76987210Y-75813279D01*
X76773000Y-75916680D01*
X76627000Y-75916680D01*
X76412790Y-75813279D01*
X75919285Y-76025703D01*
X75544637Y-76410813D01*
X75353285Y-76872791D01*
X74368000Y-76872791D01*
X74368000Y-75664000D01*
X81442676Y-75664000D01*
X81442676Y-76864000D01*
X81483577Y-77069625D01*
X81600055Y-77243945D01*
X81630069Y-77264000D01*
X81600055Y-77284055D01*
X81483577Y-77458375D01*
X81442676Y-77664000D01*
X81442676Y-78864000D01*
X81483577Y-79069625D01*
X81600055Y-79243945D01*
X81630069Y-79264000D01*
X81600055Y-79284055D01*
X81483577Y-79458375D01*
X81442676Y-79664000D01*
X81442676Y-80864000D01*
X81483577Y-81069625D01*
X81600055Y-81243945D01*
X81630069Y-81264000D01*
X81600055Y-81284055D01*
X81483577Y-81458375D01*
X81442676Y-81664000D01*
X81442676Y-82864000D01*
X81483577Y-83069625D01*
X81600055Y-83243945D01*
X81630069Y-83264000D01*
X81600055Y-83284055D01*
X81483577Y-83458375D01*
X81442676Y-83664000D01*
X81442676Y-84864000D01*
X81483577Y-85069625D01*
X81600055Y-85243945D01*
X81630069Y-85264000D01*
X81600055Y-85284055D01*
X81483577Y-85458375D01*
X81442676Y-85664000D01*
X81442676Y-86864000D01*
X81483577Y-87069625D01*
X81600055Y-87243945D01*
X81630069Y-87264000D01*
X81600055Y-87284055D01*
X81483577Y-87458375D01*
X81442676Y-87664000D01*
X81442676Y-88864000D01*
X81483577Y-89069625D01*
X81600055Y-89243945D01*
X81630069Y-89264000D01*
X81600055Y-89284055D01*
X81483577Y-89458375D01*
X81442676Y-89664000D01*
X81442676Y-90864000D01*
X81483577Y-91069625D01*
X81600055Y-91243945D01*
X81774375Y-91360423D01*
X81980000Y-91401324D01*
X84980000Y-91401324D01*
X85185625Y-91360423D01*
X85359945Y-91243945D01*
X85476423Y-91069625D01*
X85492062Y-90991000D01*
X86235995Y-90991000D01*
X86236000Y-90991001D01*
X86468052Y-90944842D01*
X86514211Y-90935660D01*
X86750067Y-90778067D01*
X87351044Y-90177089D01*
X87433583Y-90177161D01*
X87774417Y-90036331D01*
X88035414Y-89775789D01*
X88176839Y-89435201D01*
X88177161Y-89066417D01*
X88036331Y-88725583D01*
X87775789Y-88464586D01*
X87435201Y-88323161D01*
X87066417Y-88322839D01*
X87001936Y-88349482D01*
X87002161Y-88091417D01*
X86861331Y-87750583D01*
X86702000Y-87590974D01*
X86702000Y-79934005D01*
X86702001Y-79934000D01*
X86652370Y-79684491D01*
X86603933Y-79612000D01*
X86511034Y-79472966D01*
X86511031Y-79472964D01*
X85517324Y-78479256D01*
X85517324Y-77664000D01*
X85476423Y-77458375D01*
X85359945Y-77284055D01*
X85329931Y-77264000D01*
X85359945Y-77243945D01*
X85476423Y-77069625D01*
X85517324Y-76864000D01*
X85517324Y-75664000D01*
X85476423Y-75458375D01*
X85359945Y-75284055D01*
X85185625Y-75167577D01*
X84980000Y-75126676D01*
X81980000Y-75126676D01*
X81774375Y-75167577D01*
X81600055Y-75284055D01*
X81483577Y-75458375D01*
X81442676Y-75664000D01*
X74368000Y-75664000D01*
X74368000Y-74983583D01*
X86672847Y-74983583D01*
X86813677Y-75324417D01*
X87074219Y-75585414D01*
X87414807Y-75726839D01*
X87783591Y-75727161D01*
X88124425Y-75586331D01*
X88183860Y-75527000D01*
X99214344Y-75527000D01*
X99186378Y-75594351D01*
X97141568Y-77639160D01*
X96983975Y-77875016D01*
X96979725Y-77896384D01*
X96928634Y-78153227D01*
X96928635Y-78153232D01*
X96928635Y-80502991D01*
X96870221Y-80561303D01*
X96765532Y-80813420D01*
X96607001Y-80654889D01*
X96607001Y-77495165D01*
X96715415Y-77386940D01*
X96856840Y-77046352D01*
X96857162Y-76677568D01*
X96716332Y-76336734D01*
X96455790Y-76075737D01*
X96115202Y-75934312D01*
X95746418Y-75933990D01*
X95405584Y-76074820D01*
X95144587Y-76335362D01*
X95003162Y-76675950D01*
X95002840Y-77044734D01*
X95143670Y-77385568D01*
X95253001Y-77495090D01*
X95253001Y-80690037D01*
X94870038Y-81073000D01*
X89981125Y-81073000D01*
X89722048Y-81124534D01*
X89543337Y-81243945D01*
X89502414Y-81271289D01*
X89097231Y-81676472D01*
X88944043Y-81676338D01*
X88603209Y-81817168D01*
X88342212Y-82077710D01*
X88200787Y-82418298D01*
X88200465Y-82787082D01*
X88341295Y-83127916D01*
X88601837Y-83388913D01*
X88942425Y-83530338D01*
X89311209Y-83530660D01*
X89652043Y-83389830D01*
X89913040Y-83129288D01*
X90054465Y-82788700D01*
X90054600Y-82633947D01*
X90261547Y-82427000D01*
X92336728Y-82427000D01*
X92336492Y-82697236D01*
X92477322Y-83038070D01*
X92737864Y-83299067D01*
X93078452Y-83440492D01*
X93447236Y-83440814D01*
X93788070Y-83299984D01*
X94049067Y-83039442D01*
X94095758Y-82926999D01*
X95323063Y-82926999D01*
X95322995Y-83004937D01*
X93264966Y-85062966D01*
X93123631Y-85274490D01*
X93118557Y-85300000D01*
X93073999Y-85524000D01*
X93074000Y-85524005D01*
X93074000Y-89257030D01*
X92940586Y-89390211D01*
X92799161Y-89730799D01*
X92798839Y-90099583D01*
X92939669Y-90440417D01*
X93200211Y-90701414D01*
X93540799Y-90842839D01*
X93909583Y-90843161D01*
X94250417Y-90702331D01*
X94511414Y-90441789D01*
X94652839Y-90101201D01*
X94653161Y-89732417D01*
X94512331Y-89391583D01*
X94378000Y-89257017D01*
X94378000Y-85794068D01*
X96245072Y-83926996D01*
X96433583Y-83927161D01*
X96598000Y-83859225D01*
X96598000Y-86618031D01*
X96464586Y-86751212D01*
X96323161Y-87091800D01*
X96322839Y-87460584D01*
X96463669Y-87801418D01*
X96724211Y-88062415D01*
X97064799Y-88203840D01*
X97433583Y-88204162D01*
X97573070Y-88146527D01*
X97572839Y-88411584D01*
X97713669Y-88752418D01*
X97823000Y-88861940D01*
X97823000Y-89000000D01*
X97874534Y-89259077D01*
X98003893Y-89452676D01*
X98021289Y-89478711D01*
X99822973Y-91280396D01*
X99822839Y-91433583D01*
X99963669Y-91774417D01*
X100224211Y-92035414D01*
X100564799Y-92176839D01*
X100933583Y-92177161D01*
X101274417Y-92036331D01*
X101535414Y-91775789D01*
X101676839Y-91435201D01*
X101676878Y-91391000D01*
X102975250Y-91391000D01*
X103107000Y-91259250D01*
X103107000Y-90337000D01*
X103253000Y-90337000D01*
X103253000Y-91259250D01*
X103384750Y-91391000D01*
X104784827Y-91391000D01*
X104978522Y-91310769D01*
X105126769Y-91162521D01*
X105207000Y-90968827D01*
X105207000Y-90468750D01*
X105075250Y-90337000D01*
X103253000Y-90337000D01*
X103107000Y-90337000D01*
X101284750Y-90337000D01*
X101191969Y-90429781D01*
X100935201Y-90323161D01*
X100780449Y-90323026D01*
X99248281Y-88790859D01*
X99285414Y-88753790D01*
X99426839Y-88413202D01*
X99427161Y-88044418D01*
X99286331Y-87703584D01*
X99246817Y-87664000D01*
X101142676Y-87664000D01*
X101142676Y-88864000D01*
X101183577Y-89069625D01*
X101300055Y-89243945D01*
X101332851Y-89265859D01*
X101233231Y-89365479D01*
X101153000Y-89559173D01*
X101153000Y-90059250D01*
X101284750Y-90191000D01*
X103107000Y-90191000D01*
X103107000Y-90171000D01*
X103253000Y-90171000D01*
X103253000Y-90191000D01*
X105075250Y-90191000D01*
X105207000Y-90059250D01*
X105207000Y-89559173D01*
X105190002Y-89518135D01*
X106084543Y-90412676D01*
X105900000Y-90412676D01*
X105694375Y-90453577D01*
X105520055Y-90570055D01*
X105403577Y-90744375D01*
X105362676Y-90950000D01*
X105362676Y-92450000D01*
X105403577Y-92655625D01*
X105520055Y-92829945D01*
X105694375Y-92946423D01*
X105900000Y-92987324D01*
X108900000Y-92987324D01*
X109105625Y-92946423D01*
X109279945Y-92829945D01*
X109396423Y-92655625D01*
X109437324Y-92450000D01*
X109437324Y-90950000D01*
X109396423Y-90744375D01*
X109279945Y-90570055D01*
X109105625Y-90453577D01*
X108900000Y-90412676D01*
X108065571Y-90412676D01*
X107914067Y-90185933D01*
X107914064Y-90185931D01*
X107655269Y-89927136D01*
X107683583Y-89927161D01*
X107923245Y-89828134D01*
X107953577Y-89980625D01*
X108070055Y-90154945D01*
X108244375Y-90271423D01*
X108450000Y-90312324D01*
X109159190Y-90312324D01*
X110200931Y-91354064D01*
X110200933Y-91354067D01*
X110358527Y-91459367D01*
X110436790Y-91511661D01*
X110715000Y-91567001D01*
X110715005Y-91567000D01*
X114812676Y-91567000D01*
X114812676Y-91690000D01*
X114853577Y-91895625D01*
X114970055Y-92069945D01*
X115144375Y-92186423D01*
X115350000Y-92227324D01*
X117050000Y-92227324D01*
X117255625Y-92186423D01*
X117429945Y-92069945D01*
X117546423Y-91895625D01*
X117587324Y-91690000D01*
X117587324Y-89990000D01*
X117546423Y-89784375D01*
X117429945Y-89610055D01*
X117255625Y-89493577D01*
X117050000Y-89452676D01*
X116932785Y-89452676D01*
X117200663Y-89273686D01*
X117499159Y-88826955D01*
X117603977Y-88300000D01*
X117499159Y-87773045D01*
X117200663Y-87326314D01*
X116753932Y-87027818D01*
X116696882Y-87016470D01*
X116980715Y-86894297D01*
X117355363Y-86509187D01*
X117546715Y-86047209D01*
X117443108Y-85833000D01*
X116273000Y-85833000D01*
X116273000Y-85853000D01*
X116127000Y-85853000D01*
X116127000Y-85833000D01*
X114956892Y-85833000D01*
X114853285Y-86047209D01*
X114901181Y-86162844D01*
X114685201Y-86073161D01*
X114316417Y-86072839D01*
X113975583Y-86213669D01*
X113714586Y-86474211D01*
X113573161Y-86814799D01*
X113572839Y-87183583D01*
X113713669Y-87524417D01*
X113773000Y-87583852D01*
X113773000Y-90113000D01*
X111957290Y-90113000D01*
X111996769Y-90073521D01*
X112077000Y-89879827D01*
X112077000Y-89604750D01*
X111945250Y-89473000D01*
X111023000Y-89473000D01*
X111023000Y-89493000D01*
X110877000Y-89493000D01*
X110877000Y-89473000D01*
X110857000Y-89473000D01*
X110857000Y-89327000D01*
X110877000Y-89327000D01*
X110877000Y-88629750D01*
X111023000Y-88629750D01*
X111023000Y-89327000D01*
X111945250Y-89327000D01*
X112077000Y-89195250D01*
X112077000Y-88920173D01*
X111996769Y-88726479D01*
X111848522Y-88578231D01*
X111654827Y-88498000D01*
X111154750Y-88498000D01*
X111023000Y-88629750D01*
X110877000Y-88629750D01*
X110745250Y-88498000D01*
X110245173Y-88498000D01*
X110227000Y-88505527D01*
X110227000Y-88198731D01*
X110329945Y-88129945D01*
X110446423Y-87955625D01*
X110487324Y-87750000D01*
X110487324Y-86950000D01*
X110446423Y-86744375D01*
X110353128Y-86604750D01*
X110523000Y-86604750D01*
X110523000Y-86904827D01*
X110603231Y-87098521D01*
X110751478Y-87246769D01*
X110945173Y-87327000D01*
X111295250Y-87327000D01*
X111427000Y-87195250D01*
X111427000Y-86473000D01*
X111573000Y-86473000D01*
X111573000Y-87195250D01*
X111704750Y-87327000D01*
X112054827Y-87327000D01*
X112248522Y-87246769D01*
X112396769Y-87098521D01*
X112477000Y-86904827D01*
X112477000Y-86604750D01*
X112345250Y-86473000D01*
X111573000Y-86473000D01*
X111427000Y-86473000D01*
X110654750Y-86473000D01*
X110523000Y-86604750D01*
X110353128Y-86604750D01*
X110329945Y-86570055D01*
X110155625Y-86453577D01*
X109950000Y-86412676D01*
X109426859Y-86412676D01*
X109426881Y-86387324D01*
X109950000Y-86387324D01*
X110155625Y-86346423D01*
X110329945Y-86229945D01*
X110446423Y-86055625D01*
X110478338Y-85895173D01*
X110523000Y-85895173D01*
X110523000Y-86195250D01*
X110654750Y-86327000D01*
X111427000Y-86327000D01*
X111427000Y-85604750D01*
X111573000Y-85604750D01*
X111573000Y-86327000D01*
X112345250Y-86327000D01*
X112477000Y-86195250D01*
X112477000Y-85895173D01*
X112396769Y-85701479D01*
X112248522Y-85553231D01*
X112054827Y-85473000D01*
X111704750Y-85473000D01*
X111573000Y-85604750D01*
X111427000Y-85604750D01*
X111295250Y-85473000D01*
X110945173Y-85473000D01*
X110751478Y-85553231D01*
X110603231Y-85701479D01*
X110523000Y-85895173D01*
X110478338Y-85895173D01*
X110487324Y-85850000D01*
X110487324Y-85472791D01*
X114853285Y-85472791D01*
X114956892Y-85687000D01*
X116127000Y-85687000D01*
X116127000Y-84516680D01*
X116273000Y-84516680D01*
X116273000Y-85687000D01*
X117443108Y-85687000D01*
X117546715Y-85472791D01*
X117355363Y-85010813D01*
X116980715Y-84625703D01*
X116487210Y-84413279D01*
X116273000Y-84516680D01*
X116127000Y-84516680D01*
X115912790Y-84413279D01*
X115419285Y-84625703D01*
X115044637Y-85010813D01*
X114853285Y-85472791D01*
X110487324Y-85472791D01*
X110487324Y-85050000D01*
X110446423Y-84844375D01*
X110329945Y-84670055D01*
X110155625Y-84553577D01*
X109950000Y-84512676D01*
X109050000Y-84512676D01*
X108844375Y-84553577D01*
X108670055Y-84670055D01*
X108584564Y-84798000D01*
X108187324Y-84798000D01*
X108187324Y-84700000D01*
X108146423Y-84494375D01*
X108029945Y-84320055D01*
X107855625Y-84203577D01*
X107650000Y-84162676D01*
X106750000Y-84162676D01*
X106544375Y-84203577D01*
X106370055Y-84320055D01*
X106253577Y-84494375D01*
X106212676Y-84700000D01*
X106212676Y-85900000D01*
X106253577Y-86105625D01*
X106370055Y-86279945D01*
X106544375Y-86396423D01*
X106562358Y-86400000D01*
X106544375Y-86403577D01*
X106370055Y-86520055D01*
X106253577Y-86694375D01*
X106212676Y-86900000D01*
X106212676Y-88100000D01*
X106253577Y-88305625D01*
X106370055Y-88479945D01*
X106544375Y-88596423D01*
X106548000Y-88597144D01*
X106548000Y-88699995D01*
X106547999Y-88700000D01*
X106567775Y-88799417D01*
X106573151Y-88826441D01*
X106573135Y-88845001D01*
X105478067Y-87749933D01*
X105349458Y-87664000D01*
X105242211Y-87592340D01*
X105201458Y-87584234D01*
X105176423Y-87458375D01*
X105059945Y-87284055D01*
X105027149Y-87262141D01*
X105126769Y-87162521D01*
X105207000Y-86968827D01*
X105207000Y-86468750D01*
X105075250Y-86337000D01*
X103253000Y-86337000D01*
X103253000Y-86357000D01*
X103107000Y-86357000D01*
X103107000Y-86337000D01*
X101284750Y-86337000D01*
X101153000Y-86468750D01*
X101153000Y-86968827D01*
X101233231Y-87162521D01*
X101332851Y-87262141D01*
X101300055Y-87284055D01*
X101183577Y-87458375D01*
X101142676Y-87664000D01*
X99246817Y-87664000D01*
X99025789Y-87442587D01*
X98685201Y-87301162D01*
X98316417Y-87300840D01*
X98176930Y-87358475D01*
X98177161Y-87093418D01*
X98036331Y-86752584D01*
X97902000Y-86618018D01*
X97902000Y-83190010D01*
X98425986Y-83190010D01*
X98534211Y-83298424D01*
X98874799Y-83439849D01*
X99243583Y-83440171D01*
X99584417Y-83299341D01*
X99845414Y-83038799D01*
X99929714Y-82835782D01*
X101142676Y-84048744D01*
X101142676Y-84864000D01*
X101183577Y-85069625D01*
X101300055Y-85243945D01*
X101332851Y-85265859D01*
X101233231Y-85365479D01*
X101153000Y-85559173D01*
X101153000Y-86059250D01*
X101284750Y-86191000D01*
X103107000Y-86191000D01*
X103107000Y-86171000D01*
X103253000Y-86171000D01*
X103253000Y-86191000D01*
X105075250Y-86191000D01*
X105207000Y-86059250D01*
X105207000Y-85559173D01*
X105126769Y-85365479D01*
X105027149Y-85265859D01*
X105059945Y-85243945D01*
X105176423Y-85069625D01*
X105217324Y-84864000D01*
X105217324Y-83819366D01*
X105408049Y-84010424D01*
X105748637Y-84151849D01*
X106117421Y-84152171D01*
X106458255Y-84011341D01*
X106719252Y-83750799D01*
X106860677Y-83410211D01*
X106860843Y-83220073D01*
X108885896Y-81195019D01*
X108836159Y-81314799D01*
X108835837Y-81683583D01*
X108976667Y-82024417D01*
X109237209Y-82285414D01*
X109577797Y-82426839D01*
X109946581Y-82427161D01*
X110168676Y-82335393D01*
X110168676Y-82440000D01*
X110209577Y-82645625D01*
X110326055Y-82819945D01*
X110500375Y-82936423D01*
X110706000Y-82977324D01*
X112306000Y-82977324D01*
X112511625Y-82936423D01*
X112685945Y-82819945D01*
X112802423Y-82645625D01*
X112843324Y-82440000D01*
X112843324Y-80440000D01*
X112835765Y-80402000D01*
X112841030Y-80402000D01*
X112974211Y-80535414D01*
X113314799Y-80676839D01*
X113683583Y-80677161D01*
X114024417Y-80536331D01*
X114285414Y-80275789D01*
X114426839Y-79935201D01*
X114427002Y-79749069D01*
X114478903Y-79800970D01*
X114473161Y-79814799D01*
X114472839Y-80183583D01*
X114613669Y-80524417D01*
X114874211Y-80785414D01*
X115214799Y-80926839D01*
X115583583Y-80927161D01*
X115924417Y-80786331D01*
X116185414Y-80525789D01*
X116326839Y-80185201D01*
X116327161Y-79816417D01*
X116186331Y-79475583D01*
X115925789Y-79214586D01*
X115602349Y-79080281D01*
X114661034Y-78138966D01*
X114599104Y-78097586D01*
X114449510Y-77997631D01*
X114408113Y-77989396D01*
X114200000Y-77947999D01*
X114199995Y-77948000D01*
X111470067Y-77948000D01*
X111089067Y-77567000D01*
X111301250Y-77567000D01*
X111433000Y-77435250D01*
X111433000Y-76113000D01*
X111579000Y-76113000D01*
X111579000Y-77435250D01*
X111710750Y-77567000D01*
X112410827Y-77567000D01*
X112604521Y-77486769D01*
X112752769Y-77338522D01*
X112833000Y-77144827D01*
X112833000Y-76244750D01*
X112701250Y-76113000D01*
X111579000Y-76113000D01*
X111433000Y-76113000D01*
X111413000Y-76113000D01*
X111413000Y-75967000D01*
X111433000Y-75967000D01*
X111433000Y-74644750D01*
X111579000Y-74644750D01*
X111579000Y-75967000D01*
X112701250Y-75967000D01*
X112833000Y-75835250D01*
X112833000Y-74935173D01*
X112752769Y-74741478D01*
X112604521Y-74593231D01*
X112410827Y-74513000D01*
X111710750Y-74513000D01*
X111579000Y-74644750D01*
X111433000Y-74644750D01*
X111301250Y-74513000D01*
X110601173Y-74513000D01*
X110407479Y-74593231D01*
X110259231Y-74741478D01*
X110179000Y-74935173D01*
X110179000Y-75067396D01*
X109935201Y-74966161D01*
X109566417Y-74965839D01*
X109225583Y-75106669D01*
X108964586Y-75367211D01*
X108823161Y-75707799D01*
X108822839Y-76076583D01*
X108963669Y-76417417D01*
X109098000Y-76551983D01*
X109098000Y-77149995D01*
X109097999Y-77150000D01*
X109135500Y-77338522D01*
X109147631Y-77399510D01*
X109259544Y-77567000D01*
X109288966Y-77611034D01*
X110738964Y-79061031D01*
X110738966Y-79061034D01*
X110791309Y-79096008D01*
X110794290Y-79098000D01*
X109408848Y-79098000D01*
X109159338Y-79147631D01*
X108947814Y-79288966D01*
X108947812Y-79288969D01*
X106925174Y-81311607D01*
X106786331Y-80975583D01*
X106525789Y-80714586D01*
X106185201Y-80573161D01*
X105816417Y-80572839D01*
X105475583Y-80713669D01*
X105214586Y-80974211D01*
X105177762Y-81062892D01*
X105217324Y-80864000D01*
X105217324Y-79664000D01*
X105176423Y-79458375D01*
X105059945Y-79284055D01*
X105029931Y-79264000D01*
X105059945Y-79243945D01*
X105176423Y-79069625D01*
X105206981Y-78916000D01*
X105438676Y-78916000D01*
X105438676Y-79678000D01*
X105479577Y-79883625D01*
X105596055Y-80057945D01*
X105770375Y-80174423D01*
X105976000Y-80215324D01*
X106876000Y-80215324D01*
X107081625Y-80174423D01*
X107255945Y-80057945D01*
X107372423Y-79883625D01*
X107413324Y-79678000D01*
X107413324Y-78478000D01*
X107372423Y-78272375D01*
X107255945Y-78098055D01*
X107081625Y-77981577D01*
X107063642Y-77978000D01*
X107081625Y-77974423D01*
X107255945Y-77857945D01*
X107372423Y-77683625D01*
X107413324Y-77478000D01*
X107413324Y-76278000D01*
X107372423Y-76072375D01*
X107255945Y-75898055D01*
X107153000Y-75829269D01*
X107153000Y-75717014D01*
X107153001Y-75717009D01*
X107097660Y-75438799D01*
X107097660Y-75438798D01*
X106940067Y-75202942D01*
X106337089Y-74599964D01*
X106337161Y-74517426D01*
X106196331Y-74176592D01*
X105935789Y-73915595D01*
X105595201Y-73774170D01*
X105226417Y-73773848D01*
X104885583Y-73914678D01*
X104726985Y-74073000D01*
X100000005Y-74073000D01*
X100000000Y-74072999D01*
X99999995Y-74073000D01*
X88184109Y-74073000D01*
X88125797Y-74014586D01*
X87785209Y-73873161D01*
X87416425Y-73872839D01*
X87075591Y-74013669D01*
X86814594Y-74274211D01*
X86673169Y-74614799D01*
X86672847Y-74983583D01*
X74368000Y-74983583D01*
X74368000Y-73352000D01*
X117614000Y-73352000D01*
X117614000Y-93898000D01*
M02*
