G04 #@! TF.GenerationSoftware,KiCad,Pcbnew,no-vcs-found-342f28f~58~ubuntu16.04.1*
G04 #@! TF.CreationDate,2017-05-04T10:48:30+03:00*
G04 #@! TF.ProjectId,ws281x_led_strip_controller,7773323831785F6C65645F7374726970,rev?*
G04 #@! TF.FileFunction,Copper,L2,Bot,Signal*
G04 #@! TF.FilePolarity,Positive*
%FSLAX46Y46*%
G04 Gerber Fmt 4.6, Leading zero omitted, Abs format (unit mm)*
G04 Created by KiCad (PCBNEW no-vcs-found-342f28f~58~ubuntu16.04.1) date Thu May  4 10:48:30 2017*
%MOMM*%
%LPD*%
G01*
G04 APERTURE LIST*
%ADD10C,0.100000*%
%ADD11C,0.800000*%
%ADD12R,0.800000X5.100000*%
%ADD13R,1.300000X5.100000*%
%ADD14R,1.200000X0.750000*%
%ADD15R,1.270000X2.500000*%
%ADD16R,1.725000X1.725000*%
%ADD17R,0.250000X0.700000*%
%ADD18R,0.700000X0.250000*%
%ADD19R,1.200000X0.900000*%
%ADD20R,1.450000X0.450000*%
%ADD21R,2.500000X1.950000*%
%ADD22R,1.550000X0.600000*%
%ADD23R,1.500000X2.000000*%
%ADD24R,3.800000X2.000000*%
%ADD25R,0.750000X1.200000*%
%ADD26R,0.900000X1.200000*%
%ADD27O,1.700000X1.700000*%
%ADD28R,1.700000X1.700000*%
%ADD29C,0.250000*%
%ADD30C,3.000000*%
%ADD31C,0.500000*%
%ADD32C,0.400000*%
%ADD33C,0.300000*%
%ADD34C,2.000000*%
%ADD35C,0.254000*%
G04 APERTURE END LIST*
D10*
D11*
X74750000Y-74750000D03*
X77750000Y-74750000D03*
X77750000Y-73750000D03*
X75750000Y-73750000D03*
X76750000Y-73750000D03*
X74750000Y-73750000D03*
X76750000Y-74750000D03*
X75750000Y-74750000D03*
X117000000Y-76075000D03*
X116000000Y-76075000D03*
X115000000Y-76075000D03*
X114000000Y-74075000D03*
X112000000Y-74075000D03*
X114000000Y-75075000D03*
X115000000Y-75075000D03*
X115000000Y-74075000D03*
X116000000Y-75075000D03*
X116000000Y-74075000D03*
X117000000Y-74075000D03*
X117000000Y-75075000D03*
X113000000Y-75075000D03*
X113000000Y-74075000D03*
X79250000Y-91475000D03*
X80250000Y-91475000D03*
X79250000Y-90475000D03*
X80250000Y-90475000D03*
X78250000Y-90475000D03*
X87250000Y-80750000D03*
X87250000Y-79750000D03*
X87250000Y-78750000D03*
X87250000Y-77750000D03*
X87250000Y-76750000D03*
X79750000Y-78750000D03*
X78750000Y-78750000D03*
X79750000Y-77750000D03*
X78750000Y-77750000D03*
X79750000Y-76750000D03*
X78750000Y-76750000D03*
X79750000Y-75750000D03*
X78750000Y-75750000D03*
X79750000Y-74750000D03*
X78750000Y-74750000D03*
X79750000Y-73750000D03*
X78750000Y-73750000D03*
D12*
X89490000Y-78740000D03*
D13*
X91440000Y-78740000D03*
D12*
X93390000Y-78740000D03*
D14*
X87150000Y-90700000D03*
X89050000Y-90700000D03*
X97282000Y-74676000D03*
X95382000Y-74676000D03*
X99690000Y-83566000D03*
X97790000Y-83566000D03*
X88326000Y-84728000D03*
X86426000Y-84728000D03*
X86426000Y-86868000D03*
X88326000Y-86868000D03*
X97790000Y-85852000D03*
X99690000Y-85852000D03*
X107320000Y-74676000D03*
X109220000Y-74676000D03*
D15*
X113498000Y-81756000D03*
X110998000Y-81756000D03*
X108458000Y-81756000D03*
X108458000Y-77756000D03*
X110998000Y-77756000D03*
X113538000Y-77756000D03*
D16*
X92456000Y-86740500D03*
X92456000Y-85015500D03*
X94181000Y-86740500D03*
X94181000Y-85015500D03*
D17*
X91568500Y-88278000D03*
X92068500Y-88278000D03*
X92568500Y-88278000D03*
X93068500Y-88278000D03*
X93568500Y-88278000D03*
X94068500Y-88278000D03*
X94568500Y-88278000D03*
X95068500Y-88278000D03*
D18*
X95718500Y-87628000D03*
X95718500Y-87128000D03*
X95718500Y-86628000D03*
X95718500Y-86128000D03*
X95718500Y-85628000D03*
X95718500Y-85128000D03*
X95718500Y-84628000D03*
X95718500Y-84128000D03*
D17*
X95068500Y-83478000D03*
X94568500Y-83478000D03*
X94068500Y-83478000D03*
X93568500Y-83478000D03*
X93068500Y-83478000D03*
X92568500Y-83478000D03*
X92068500Y-83478000D03*
X91568500Y-83478000D03*
D18*
X90918500Y-84128000D03*
X90918500Y-84628000D03*
X90918500Y-85128000D03*
X90918500Y-85628000D03*
X90918500Y-86128000D03*
X90918500Y-86628000D03*
X90918500Y-87128000D03*
X90918500Y-87628000D03*
D19*
X97200000Y-89900000D03*
X99400000Y-89900000D03*
D20*
X97790000Y-76282000D03*
X97790000Y-76932000D03*
X97790000Y-77582000D03*
X97790000Y-78232000D03*
X97790000Y-78882000D03*
X97790000Y-79532000D03*
X97790000Y-80182000D03*
X103690000Y-80182000D03*
X103690000Y-79532000D03*
X103690000Y-78882000D03*
X103690000Y-78232000D03*
X103690000Y-77582000D03*
X103690000Y-76932000D03*
X103690000Y-76282000D03*
D21*
X78600000Y-85275000D03*
X78600000Y-88325000D03*
X82700000Y-88325000D03*
X82700000Y-85275000D03*
D22*
X111000000Y-89370000D03*
X111000000Y-88100000D03*
X111000000Y-86830000D03*
X111000000Y-85560000D03*
X105600000Y-85560000D03*
X105600000Y-86830000D03*
X105600000Y-88100000D03*
X105600000Y-89370000D03*
D23*
X85200000Y-81750000D03*
X80600000Y-81750000D03*
X82900000Y-81750000D03*
D24*
X82900000Y-75450000D03*
D25*
X113200000Y-87200000D03*
X113200000Y-89100000D03*
D26*
X103100000Y-86800000D03*
X103100000Y-89000000D03*
D27*
X76700000Y-77160000D03*
D28*
X76700000Y-79700000D03*
D27*
X116200000Y-85760000D03*
X116200000Y-88300000D03*
D28*
X116200000Y-90840000D03*
D11*
X105966754Y-84283246D03*
X88050010Y-82650000D03*
X89250000Y-89250000D03*
X89442189Y-85697136D03*
X100838000Y-84836000D03*
X107500000Y-89000000D03*
X114500000Y-87000000D03*
X89127626Y-82603499D03*
X99060000Y-82513010D03*
X95930001Y-76861151D03*
X106000000Y-81500000D03*
X109762998Y-81500000D03*
X96250000Y-83000000D03*
X93726000Y-89916000D03*
X87600008Y-74800000D03*
X87250000Y-89250000D03*
X97655635Y-81087092D03*
X100064291Y-75897378D03*
X105410000Y-74701009D03*
X105933838Y-83225010D03*
X113500000Y-79750000D03*
X115400000Y-80000000D03*
X109750000Y-75893000D03*
X108500000Y-86250000D03*
X86075000Y-88275000D03*
X93263653Y-82513653D03*
X97250000Y-87277001D03*
X100095976Y-76896888D03*
X100235021Y-79964283D03*
X100226992Y-78883000D03*
X100063857Y-77896384D03*
X98500000Y-88228001D03*
X100750000Y-91250000D03*
D29*
X89050000Y-90700000D02*
X89050000Y-90950000D01*
X105600000Y-84650000D02*
X105966754Y-84283246D01*
X105600000Y-85560000D02*
X105600000Y-84650000D01*
X86426000Y-84728000D02*
X86651000Y-84728000D01*
X87150010Y-81750000D02*
X88050010Y-82650000D01*
X85200000Y-81750000D02*
X87150010Y-81750000D01*
X89250000Y-89250000D02*
X89250000Y-90500000D01*
X89250000Y-90500000D02*
X89050000Y-90700000D01*
X89503765Y-87568001D02*
X87351001Y-87568001D01*
X89511325Y-85628000D02*
X89442189Y-85697136D01*
X90918500Y-85628000D02*
X89511325Y-85628000D01*
X86651000Y-86868000D02*
X86426000Y-86868000D01*
X87351001Y-87568001D02*
X86651000Y-86868000D01*
X90443766Y-86628000D02*
X89503765Y-87568001D01*
X90918500Y-86628000D02*
X90443766Y-86628000D01*
X108458000Y-77756000D02*
X109252000Y-77756000D01*
X109252000Y-77756000D02*
X109728000Y-78232000D01*
X109728000Y-78232000D02*
X109728000Y-78956002D01*
X112268000Y-76200000D02*
X110744000Y-74676000D01*
X109728000Y-78956002D02*
X110102999Y-79331001D01*
X110102999Y-79331001D02*
X111893001Y-79331001D01*
X112268000Y-78956002D02*
X112268000Y-76200000D01*
X111893001Y-79331001D02*
X112268000Y-78956002D01*
X110744000Y-74676000D02*
X109220000Y-74676000D01*
X109220000Y-74676000D02*
X108995000Y-74676000D01*
X99690000Y-84836000D02*
X99690000Y-85852000D01*
X99690000Y-83566000D02*
X99690000Y-84836000D01*
X99690000Y-84836000D02*
X100838000Y-84836000D01*
X95718500Y-86128000D02*
X96318500Y-86128000D01*
X96318500Y-86128000D02*
X96742501Y-86552001D01*
X96742501Y-86552001D02*
X98764999Y-86552001D01*
X98764999Y-86552001D02*
X99465000Y-85852000D01*
X99465000Y-85852000D02*
X99690000Y-85852000D01*
X103690000Y-80182000D02*
X104665000Y-80182000D01*
X104665000Y-80182000D02*
X107091000Y-77756000D01*
X107091000Y-77756000D02*
X108458000Y-77756000D01*
X86426000Y-84728000D02*
X86426000Y-86868000D01*
D30*
X76750000Y-80000000D02*
X75250000Y-81500000D01*
X75250000Y-81500000D02*
X75250000Y-85250000D01*
X99250000Y-94075011D02*
X113424989Y-94075011D01*
X113424989Y-94075011D02*
X116000000Y-91500000D01*
X77975011Y-94075011D02*
X99250000Y-94075011D01*
D31*
X99400000Y-89900000D02*
X99400000Y-93925011D01*
X99400000Y-93925011D02*
X99250000Y-94075011D01*
D30*
X75250000Y-85250000D02*
X75250000Y-91350000D01*
X75250000Y-91350000D02*
X77975011Y-94075011D01*
D29*
X103113010Y-82500000D02*
X103100000Y-82513010D01*
X103100000Y-82513010D02*
X99060000Y-82513010D01*
X106308105Y-82500000D02*
X103113010Y-82500000D01*
X103100000Y-86800000D02*
X103100000Y-82513010D01*
X76700000Y-79700000D02*
X76700000Y-79800000D01*
X116200000Y-90840000D02*
X116200000Y-91050000D01*
D32*
X113538000Y-77756000D02*
X114994000Y-77756000D01*
X117750000Y-90000000D02*
X116910000Y-90840000D01*
X117750000Y-79000000D02*
X117750000Y-90000000D01*
X114994000Y-77756000D02*
X115000000Y-77750000D01*
X116500000Y-77750000D02*
X117750000Y-79000000D01*
X115000000Y-77750000D02*
X116500000Y-77750000D01*
X116910000Y-90840000D02*
X116200000Y-90840000D01*
D29*
X106308105Y-82500000D02*
X107500000Y-83691895D01*
X107500000Y-83691895D02*
X107500000Y-89000000D01*
D33*
X88326000Y-83970810D02*
X89127626Y-83169184D01*
X88326000Y-84728000D02*
X88326000Y-83970810D01*
X89127626Y-83169184D02*
X89127626Y-82603499D01*
D34*
X78600000Y-85275000D02*
X78600000Y-83750000D01*
X78600000Y-83750000D02*
X80600000Y-81750000D01*
X78600000Y-85275000D02*
X75275000Y-85275000D01*
X75275000Y-85275000D02*
X75250000Y-85250000D01*
D32*
X113200000Y-89100000D02*
X113825000Y-89100000D01*
X113825000Y-89100000D02*
X114500000Y-88425000D01*
X114500000Y-88425000D02*
X114500000Y-87000000D01*
X80600000Y-81500000D02*
X80600000Y-81750000D01*
D29*
X105600000Y-86830000D02*
X104575000Y-86830000D01*
X104575000Y-86830000D02*
X104545000Y-86800000D01*
X104545000Y-86800000D02*
X103100000Y-86800000D01*
D32*
X111000000Y-89370000D02*
X112930000Y-89370000D01*
X112930000Y-89370000D02*
X113200000Y-89100000D01*
X111000000Y-89370000D02*
X111000000Y-88100000D01*
X113538000Y-77756000D02*
X113538000Y-78738000D01*
D33*
X89998556Y-85128000D02*
X89598556Y-84728000D01*
X89598556Y-84728000D02*
X88326000Y-84728000D01*
X90072000Y-86128000D02*
X89332000Y-86868000D01*
X90918500Y-86128000D02*
X90072000Y-86128000D01*
X90918500Y-85128000D02*
X89998556Y-85128000D01*
X89332000Y-86868000D02*
X88326000Y-86868000D01*
X88326000Y-86868000D02*
X88375000Y-86819000D01*
X88375000Y-86819000D02*
X88375000Y-84777000D01*
X88375000Y-84777000D02*
X88326000Y-84728000D01*
X99060000Y-82521000D02*
X99060000Y-82513010D01*
X97790000Y-83566000D02*
X98015000Y-83566000D01*
X98015000Y-83566000D02*
X99060000Y-82521000D01*
X97790000Y-76282000D02*
X96509152Y-76282000D01*
X96509152Y-76282000D02*
X95930001Y-76861151D01*
X97790000Y-83566000D02*
X97565000Y-83566000D01*
X97565000Y-83566000D02*
X96503000Y-84628000D01*
X96503000Y-84628000D02*
X95718500Y-84628000D01*
X97790000Y-76282000D02*
X97790000Y-75184000D01*
X97790000Y-75184000D02*
X97282000Y-74676000D01*
D29*
X97790000Y-85852000D02*
X97566000Y-85628000D01*
X97566000Y-85628000D02*
X95718500Y-85628000D01*
X106256000Y-81756000D02*
X106000000Y-81500000D01*
X96815685Y-83000000D02*
X98027685Y-81788000D01*
X98027685Y-81788000D02*
X105712000Y-81788000D01*
X96250000Y-83000000D02*
X96815685Y-83000000D01*
X108458000Y-81756000D02*
X106256000Y-81756000D01*
X105712000Y-81788000D02*
X106000000Y-81500000D01*
X109762998Y-81500000D02*
X108714000Y-81500000D01*
X108714000Y-81500000D02*
X108458000Y-81756000D01*
X93726000Y-89916000D02*
X97184000Y-89916000D01*
X97184000Y-89916000D02*
X97200000Y-89900000D01*
X93068500Y-89268500D02*
X93716000Y-89916000D01*
X93068500Y-88278000D02*
X93068500Y-89268500D01*
X93716000Y-89916000D02*
X93726000Y-89916000D01*
D32*
X82900000Y-79500008D02*
X87600008Y-74800000D01*
X82900000Y-81750000D02*
X82900000Y-79500008D01*
X87250000Y-89250000D02*
X85475000Y-89250000D01*
X85475000Y-89250000D02*
X85000000Y-88775000D01*
X87150000Y-90700000D02*
X87150000Y-89350000D01*
X87150000Y-89350000D02*
X87250000Y-89250000D01*
X86925000Y-90700000D02*
X87150000Y-90700000D01*
X82700000Y-85275000D02*
X84200000Y-85275000D01*
X84200000Y-85275000D02*
X85000000Y-86075000D01*
X85000000Y-86075000D02*
X85000000Y-88775000D01*
D34*
X82900000Y-81750000D02*
X82900000Y-85075000D01*
D32*
X82900000Y-85075000D02*
X82700000Y-85275000D01*
X97790000Y-80182000D02*
X97790000Y-80952727D01*
X97790000Y-80952727D02*
X97655635Y-81087092D01*
X100629976Y-75897378D02*
X100064291Y-75897378D01*
X101014598Y-76282000D02*
X100629976Y-75897378D01*
X103690000Y-76282000D02*
X101014598Y-76282000D01*
X107320000Y-74676000D02*
X105435009Y-74676000D01*
X105435009Y-74676000D02*
X105410000Y-74701009D01*
D29*
X107000000Y-87175000D02*
X107000000Y-84291172D01*
X105600000Y-88100000D02*
X106075000Y-88100000D01*
X106075000Y-88100000D02*
X107000000Y-87175000D01*
X107000000Y-84291172D02*
X105933838Y-83225010D01*
X113500000Y-79750000D02*
X113500000Y-81754000D01*
X113500000Y-81754000D02*
X113498000Y-81756000D01*
X95792023Y-81498564D02*
X95068500Y-82222087D01*
X95792023Y-79316366D02*
X95792023Y-81498564D01*
X95068500Y-82222087D02*
X95068500Y-83478000D01*
X97790000Y-78232000D02*
X96876389Y-78232000D01*
X96876389Y-78232000D02*
X95792023Y-79316366D01*
X104818022Y-80855978D02*
X106172000Y-79502000D01*
X112138012Y-79781012D02*
X113498000Y-81141000D01*
X98751411Y-78232000D02*
X99510011Y-78990600D01*
X109916599Y-79781012D02*
X112138012Y-79781012D01*
X106172000Y-79502000D02*
X109637587Y-79502000D01*
X99905978Y-80855978D02*
X104818022Y-80855978D01*
X99510011Y-80460011D02*
X99905978Y-80855978D01*
X99510011Y-78990600D02*
X99510011Y-80460011D01*
X97790000Y-78232000D02*
X98751411Y-78232000D01*
X109637587Y-79502000D02*
X109916599Y-79781012D01*
X113498000Y-81141000D02*
X113498000Y-81756000D01*
X95524998Y-82651998D02*
X95524998Y-83559498D01*
X97790000Y-78882000D02*
X96862800Y-78882000D01*
X96862800Y-78882000D02*
X96242034Y-79502766D01*
X96242034Y-79502766D02*
X96242034Y-81934962D01*
X96242034Y-81934962D02*
X95524998Y-82651998D01*
X95524998Y-83559498D02*
X95718500Y-83753000D01*
X95718500Y-83753000D02*
X95718500Y-84128000D01*
X111000000Y-86830000D02*
X110525000Y-86830000D01*
X110525000Y-86830000D02*
X109899999Y-86204999D01*
X109899999Y-86204999D02*
X109899999Y-84354001D01*
X109899999Y-84354001D02*
X110998000Y-83256000D01*
X110998000Y-83256000D02*
X110998000Y-81756000D01*
X99060000Y-79177000D02*
X99060000Y-80772000D01*
X109498000Y-80256000D02*
X110113000Y-80256000D01*
X98765000Y-78882000D02*
X99060000Y-79177000D01*
X106300411Y-80010000D02*
X109252000Y-80010000D01*
X97790000Y-78882000D02*
X98765000Y-78882000D01*
X99060000Y-80772000D02*
X99593989Y-81305989D01*
X99593989Y-81305989D02*
X105004422Y-81305989D01*
X105004422Y-81305989D02*
X106300411Y-80010000D01*
X109252000Y-80010000D02*
X109498000Y-80256000D01*
X110113000Y-80256000D02*
X110998000Y-81141000D01*
X110998000Y-81141000D02*
X110998000Y-81756000D01*
X115400000Y-82324002D02*
X115400000Y-80000000D01*
X111000000Y-85560000D02*
X112164002Y-85560000D01*
X112164002Y-85560000D02*
X115400000Y-82324002D01*
X109549000Y-75692000D02*
X109750000Y-75893000D01*
X109750000Y-75893000D02*
X110998000Y-77141000D01*
X95342012Y-79129966D02*
X96889980Y-77582000D01*
X96889980Y-77582000D02*
X97790000Y-77582000D01*
X95342012Y-81312165D02*
X95342012Y-79129966D01*
X94568500Y-82085677D02*
X95342012Y-81312165D01*
X94568500Y-83478000D02*
X94568500Y-82085677D01*
X110998000Y-77141000D02*
X110998000Y-77756000D01*
X103874377Y-75172377D02*
X104394000Y-75692000D01*
X99339290Y-75549377D02*
X99716290Y-75172377D01*
X98765000Y-77582000D02*
X99339290Y-77007710D01*
X104394000Y-75692000D02*
X109549000Y-75692000D01*
X99339290Y-77007710D02*
X99339290Y-75549377D01*
X99716290Y-75172377D02*
X103874377Y-75172377D01*
X97790000Y-77582000D02*
X98765000Y-77582000D01*
X90918500Y-84128000D02*
X90918500Y-82563500D01*
X90918500Y-82563500D02*
X91186000Y-82296000D01*
X91186000Y-82296000D02*
X92456000Y-82296000D01*
X92456000Y-82296000D02*
X93390000Y-81362000D01*
X93390000Y-81362000D02*
X93390000Y-78740000D01*
X89852627Y-79978637D02*
X89490000Y-79616010D01*
X90918500Y-84628000D02*
X90358498Y-84628000D01*
X89852627Y-84122129D02*
X89852627Y-79978637D01*
X90358498Y-84628000D02*
X89852627Y-84122129D01*
X89490000Y-79166000D02*
X89490000Y-78740000D01*
X102250000Y-90500000D02*
X107073002Y-90500000D01*
X107073002Y-90500000D02*
X108500000Y-89073002D01*
X108500000Y-89073002D02*
X108500000Y-86250000D01*
X94643501Y-88953001D02*
X94568500Y-88878000D01*
X102250000Y-90500000D02*
X100703001Y-88953001D01*
X100703001Y-88953001D02*
X94643501Y-88953001D01*
X94568500Y-88878000D02*
X94568500Y-88278000D01*
X86078000Y-88278000D02*
X86075000Y-88275000D01*
X91568500Y-88278000D02*
X86078000Y-88278000D01*
X94742000Y-79093569D02*
X96903569Y-76932000D01*
X94742000Y-81275766D02*
X94742000Y-79093569D01*
X96903569Y-76932000D02*
X97790000Y-76932000D01*
X94068500Y-81949266D02*
X94742000Y-81275766D01*
X94068500Y-83478000D02*
X94068500Y-81949266D01*
X93068500Y-83478000D02*
X93068500Y-82708806D01*
X93068500Y-82708806D02*
X93263653Y-82513653D01*
X103100000Y-89000000D02*
X102400000Y-89000000D01*
X102400000Y-89000000D02*
X100677001Y-87277001D01*
X100677001Y-87277001D02*
X97250000Y-87277001D01*
X105600000Y-89370000D02*
X103470000Y-89370000D01*
X103470000Y-89370000D02*
X103100000Y-89000000D01*
X103690000Y-76932000D02*
X100131088Y-76932000D01*
X100131088Y-76932000D02*
X100095976Y-76896888D01*
X101317304Y-78882000D02*
X100235021Y-79964283D01*
X103690000Y-78882000D02*
X101317304Y-78882000D01*
X103690000Y-78232000D02*
X100877992Y-78232000D01*
X100877992Y-78232000D02*
X100226992Y-78883000D01*
X103690000Y-77582000D02*
X100378241Y-77582000D01*
X100378241Y-77582000D02*
X100063857Y-77896384D01*
D33*
X116200000Y-88300000D02*
X113250000Y-91250000D01*
X113250000Y-91250000D02*
X100750000Y-91250000D01*
X98500000Y-88228001D02*
X95943501Y-88228001D01*
X95943501Y-88228001D02*
X95718500Y-88003000D01*
X95718500Y-88003000D02*
X95718500Y-87628000D01*
D35*
G36*
X81273000Y-83698480D02*
X81208897Y-83717925D01*
X81099972Y-83776147D01*
X81004499Y-83854499D01*
X80926147Y-83949972D01*
X80867925Y-84058897D01*
X80832073Y-84177087D01*
X80819967Y-84300000D01*
X80819967Y-86250000D01*
X80832073Y-86372913D01*
X80867925Y-86491103D01*
X80926147Y-86600028D01*
X81004499Y-86695501D01*
X81099972Y-86773853D01*
X81146486Y-86798715D01*
X81050311Y-86862977D01*
X80962977Y-86950311D01*
X80894360Y-87053004D01*
X80847095Y-87167111D01*
X80823000Y-87288246D01*
X80823000Y-88045250D01*
X80979750Y-88202000D01*
X82577000Y-88202000D01*
X82577000Y-88182000D01*
X82823000Y-88182000D01*
X82823000Y-88202000D01*
X82843000Y-88202000D01*
X82843000Y-88448000D01*
X82823000Y-88448000D01*
X82823000Y-89770250D01*
X82979750Y-89927000D01*
X84011754Y-89927000D01*
X84132889Y-89902905D01*
X84246996Y-89855640D01*
X84349689Y-89787023D01*
X84437023Y-89699689D01*
X84505640Y-89596996D01*
X84548637Y-89493192D01*
X84890222Y-89834777D01*
X84949244Y-89883258D01*
X85007772Y-89932369D01*
X85011583Y-89934464D01*
X85014943Y-89937224D01*
X85082278Y-89973329D01*
X85149210Y-90010125D01*
X85153353Y-90011439D01*
X85157187Y-90013495D01*
X85230252Y-90035833D01*
X85303057Y-90058928D01*
X85307379Y-90059413D01*
X85311537Y-90060684D01*
X85387505Y-90068400D01*
X85463453Y-90076919D01*
X85471962Y-90076979D01*
X85472113Y-90076994D01*
X85472253Y-90076981D01*
X85475000Y-90077000D01*
X85971612Y-90077000D01*
X85967925Y-90083897D01*
X85932073Y-90202087D01*
X85919967Y-90325000D01*
X85919967Y-91075000D01*
X85932073Y-91197913D01*
X85967925Y-91316103D01*
X86026147Y-91425028D01*
X86104499Y-91520501D01*
X86199972Y-91598853D01*
X86308897Y-91657075D01*
X86427087Y-91692927D01*
X86550000Y-91705033D01*
X87750000Y-91705033D01*
X87872913Y-91692927D01*
X87991103Y-91657075D01*
X88100028Y-91598853D01*
X88102453Y-91596863D01*
X88153004Y-91630640D01*
X88267111Y-91677905D01*
X88388246Y-91702000D01*
X88770250Y-91702000D01*
X88927000Y-91545250D01*
X88927000Y-90823000D01*
X89173000Y-90823000D01*
X89173000Y-91545250D01*
X89329750Y-91702000D01*
X89711754Y-91702000D01*
X89832889Y-91677905D01*
X89946996Y-91630640D01*
X90049689Y-91562023D01*
X90137023Y-91474689D01*
X90205640Y-91371996D01*
X90252905Y-91257889D01*
X90277000Y-91136754D01*
X90277000Y-90979750D01*
X90120250Y-90823000D01*
X89173000Y-90823000D01*
X88927000Y-90823000D01*
X88907000Y-90823000D01*
X88907000Y-90577000D01*
X88927000Y-90577000D01*
X88927000Y-89854750D01*
X89173000Y-89854750D01*
X89173000Y-90577000D01*
X90120250Y-90577000D01*
X90277000Y-90420250D01*
X90277000Y-90263246D01*
X90252905Y-90142111D01*
X90205640Y-90028004D01*
X90137023Y-89925311D01*
X90049689Y-89837977D01*
X89946996Y-89769360D01*
X89832889Y-89722095D01*
X89711754Y-89698000D01*
X89329750Y-89698000D01*
X89173000Y-89854750D01*
X88927000Y-89854750D01*
X88770250Y-89698000D01*
X88388246Y-89698000D01*
X88267111Y-89722095D01*
X88153004Y-89769360D01*
X88129353Y-89785163D01*
X88147292Y-89759733D01*
X88229211Y-89575740D01*
X88273832Y-89379340D01*
X88277044Y-89149297D01*
X88253422Y-89030000D01*
X90962299Y-89030000D01*
X90997999Y-89073501D01*
X91093472Y-89151853D01*
X91202397Y-89210075D01*
X91320587Y-89245927D01*
X91443500Y-89258033D01*
X91693500Y-89258033D01*
X91816413Y-89245927D01*
X91818500Y-89245294D01*
X91820587Y-89245927D01*
X91943500Y-89258033D01*
X92193500Y-89258033D01*
X92316413Y-89245927D01*
X92316500Y-89245901D01*
X92316500Y-89268500D01*
X92323278Y-89337626D01*
X92329333Y-89406831D01*
X92330436Y-89410628D01*
X92330822Y-89414564D01*
X92350909Y-89481095D01*
X92370279Y-89547769D01*
X92372097Y-89551277D01*
X92373241Y-89555065D01*
X92405854Y-89616401D01*
X92437819Y-89678068D01*
X92440287Y-89681160D01*
X92442143Y-89684650D01*
X92486031Y-89738462D01*
X92529383Y-89792768D01*
X92534809Y-89798270D01*
X92534903Y-89798385D01*
X92535010Y-89798473D01*
X92536756Y-89800244D01*
X92698218Y-89961706D01*
X92697650Y-90002353D01*
X92734008Y-90200449D01*
X92808150Y-90387711D01*
X92917253Y-90557005D01*
X93057160Y-90701884D01*
X93222544Y-90816829D01*
X93407104Y-90897461D01*
X93603811Y-90940710D01*
X93805172Y-90944928D01*
X94003517Y-90909954D01*
X94191292Y-90837121D01*
X94361344Y-90729203D01*
X94425613Y-90668000D01*
X96059028Y-90668000D01*
X96076147Y-90700028D01*
X96154499Y-90795501D01*
X96249972Y-90873853D01*
X96358897Y-90932075D01*
X96477087Y-90967927D01*
X96600000Y-90980033D01*
X97800000Y-90980033D01*
X97922913Y-90967927D01*
X98041103Y-90932075D01*
X98150028Y-90873853D01*
X98245501Y-90795501D01*
X98300000Y-90729093D01*
X98354499Y-90795501D01*
X98449972Y-90873853D01*
X98523000Y-90912888D01*
X98523000Y-91948011D01*
X78856043Y-91948011D01*
X77377000Y-90468968D01*
X77377000Y-89927000D01*
X78320250Y-89927000D01*
X78477000Y-89770250D01*
X78477000Y-88448000D01*
X78723000Y-88448000D01*
X78723000Y-89770250D01*
X78879750Y-89927000D01*
X79911754Y-89927000D01*
X80032889Y-89902905D01*
X80146996Y-89855640D01*
X80249689Y-89787023D01*
X80337023Y-89699689D01*
X80405640Y-89596996D01*
X80452905Y-89482889D01*
X80477000Y-89361754D01*
X80477000Y-88604750D01*
X80823000Y-88604750D01*
X80823000Y-89361754D01*
X80847095Y-89482889D01*
X80894360Y-89596996D01*
X80962977Y-89699689D01*
X81050311Y-89787023D01*
X81153004Y-89855640D01*
X81267111Y-89902905D01*
X81388246Y-89927000D01*
X82420250Y-89927000D01*
X82577000Y-89770250D01*
X82577000Y-88448000D01*
X80979750Y-88448000D01*
X80823000Y-88604750D01*
X80477000Y-88604750D01*
X80320250Y-88448000D01*
X78723000Y-88448000D01*
X78477000Y-88448000D01*
X78457000Y-88448000D01*
X78457000Y-88202000D01*
X78477000Y-88202000D01*
X78477000Y-88182000D01*
X78723000Y-88182000D01*
X78723000Y-88202000D01*
X80320250Y-88202000D01*
X80477000Y-88045250D01*
X80477000Y-87288246D01*
X80452905Y-87167111D01*
X80405640Y-87053004D01*
X80337023Y-86950311D01*
X80249689Y-86862977D01*
X80153514Y-86798715D01*
X80200028Y-86773853D01*
X80295501Y-86695501D01*
X80373853Y-86600028D01*
X80432075Y-86491103D01*
X80467927Y-86372913D01*
X80480033Y-86250000D01*
X80480033Y-84300000D01*
X80468457Y-84182469D01*
X81270893Y-83380033D01*
X81273000Y-83380033D01*
X81273000Y-83698480D01*
X81273000Y-83698480D01*
G37*
X81273000Y-83698480D02*
X81208897Y-83717925D01*
X81099972Y-83776147D01*
X81004499Y-83854499D01*
X80926147Y-83949972D01*
X80867925Y-84058897D01*
X80832073Y-84177087D01*
X80819967Y-84300000D01*
X80819967Y-86250000D01*
X80832073Y-86372913D01*
X80867925Y-86491103D01*
X80926147Y-86600028D01*
X81004499Y-86695501D01*
X81099972Y-86773853D01*
X81146486Y-86798715D01*
X81050311Y-86862977D01*
X80962977Y-86950311D01*
X80894360Y-87053004D01*
X80847095Y-87167111D01*
X80823000Y-87288246D01*
X80823000Y-88045250D01*
X80979750Y-88202000D01*
X82577000Y-88202000D01*
X82577000Y-88182000D01*
X82823000Y-88182000D01*
X82823000Y-88202000D01*
X82843000Y-88202000D01*
X82843000Y-88448000D01*
X82823000Y-88448000D01*
X82823000Y-89770250D01*
X82979750Y-89927000D01*
X84011754Y-89927000D01*
X84132889Y-89902905D01*
X84246996Y-89855640D01*
X84349689Y-89787023D01*
X84437023Y-89699689D01*
X84505640Y-89596996D01*
X84548637Y-89493192D01*
X84890222Y-89834777D01*
X84949244Y-89883258D01*
X85007772Y-89932369D01*
X85011583Y-89934464D01*
X85014943Y-89937224D01*
X85082278Y-89973329D01*
X85149210Y-90010125D01*
X85153353Y-90011439D01*
X85157187Y-90013495D01*
X85230252Y-90035833D01*
X85303057Y-90058928D01*
X85307379Y-90059413D01*
X85311537Y-90060684D01*
X85387505Y-90068400D01*
X85463453Y-90076919D01*
X85471962Y-90076979D01*
X85472113Y-90076994D01*
X85472253Y-90076981D01*
X85475000Y-90077000D01*
X85971612Y-90077000D01*
X85967925Y-90083897D01*
X85932073Y-90202087D01*
X85919967Y-90325000D01*
X85919967Y-91075000D01*
X85932073Y-91197913D01*
X85967925Y-91316103D01*
X86026147Y-91425028D01*
X86104499Y-91520501D01*
X86199972Y-91598853D01*
X86308897Y-91657075D01*
X86427087Y-91692927D01*
X86550000Y-91705033D01*
X87750000Y-91705033D01*
X87872913Y-91692927D01*
X87991103Y-91657075D01*
X88100028Y-91598853D01*
X88102453Y-91596863D01*
X88153004Y-91630640D01*
X88267111Y-91677905D01*
X88388246Y-91702000D01*
X88770250Y-91702000D01*
X88927000Y-91545250D01*
X88927000Y-90823000D01*
X89173000Y-90823000D01*
X89173000Y-91545250D01*
X89329750Y-91702000D01*
X89711754Y-91702000D01*
X89832889Y-91677905D01*
X89946996Y-91630640D01*
X90049689Y-91562023D01*
X90137023Y-91474689D01*
X90205640Y-91371996D01*
X90252905Y-91257889D01*
X90277000Y-91136754D01*
X90277000Y-90979750D01*
X90120250Y-90823000D01*
X89173000Y-90823000D01*
X88927000Y-90823000D01*
X88907000Y-90823000D01*
X88907000Y-90577000D01*
X88927000Y-90577000D01*
X88927000Y-89854750D01*
X89173000Y-89854750D01*
X89173000Y-90577000D01*
X90120250Y-90577000D01*
X90277000Y-90420250D01*
X90277000Y-90263246D01*
X90252905Y-90142111D01*
X90205640Y-90028004D01*
X90137023Y-89925311D01*
X90049689Y-89837977D01*
X89946996Y-89769360D01*
X89832889Y-89722095D01*
X89711754Y-89698000D01*
X89329750Y-89698000D01*
X89173000Y-89854750D01*
X88927000Y-89854750D01*
X88770250Y-89698000D01*
X88388246Y-89698000D01*
X88267111Y-89722095D01*
X88153004Y-89769360D01*
X88129353Y-89785163D01*
X88147292Y-89759733D01*
X88229211Y-89575740D01*
X88273832Y-89379340D01*
X88277044Y-89149297D01*
X88253422Y-89030000D01*
X90962299Y-89030000D01*
X90997999Y-89073501D01*
X91093472Y-89151853D01*
X91202397Y-89210075D01*
X91320587Y-89245927D01*
X91443500Y-89258033D01*
X91693500Y-89258033D01*
X91816413Y-89245927D01*
X91818500Y-89245294D01*
X91820587Y-89245927D01*
X91943500Y-89258033D01*
X92193500Y-89258033D01*
X92316413Y-89245927D01*
X92316500Y-89245901D01*
X92316500Y-89268500D01*
X92323278Y-89337626D01*
X92329333Y-89406831D01*
X92330436Y-89410628D01*
X92330822Y-89414564D01*
X92350909Y-89481095D01*
X92370279Y-89547769D01*
X92372097Y-89551277D01*
X92373241Y-89555065D01*
X92405854Y-89616401D01*
X92437819Y-89678068D01*
X92440287Y-89681160D01*
X92442143Y-89684650D01*
X92486031Y-89738462D01*
X92529383Y-89792768D01*
X92534809Y-89798270D01*
X92534903Y-89798385D01*
X92535010Y-89798473D01*
X92536756Y-89800244D01*
X92698218Y-89961706D01*
X92697650Y-90002353D01*
X92734008Y-90200449D01*
X92808150Y-90387711D01*
X92917253Y-90557005D01*
X93057160Y-90701884D01*
X93222544Y-90816829D01*
X93407104Y-90897461D01*
X93603811Y-90940710D01*
X93805172Y-90944928D01*
X94003517Y-90909954D01*
X94191292Y-90837121D01*
X94361344Y-90729203D01*
X94425613Y-90668000D01*
X96059028Y-90668000D01*
X96076147Y-90700028D01*
X96154499Y-90795501D01*
X96249972Y-90873853D01*
X96358897Y-90932075D01*
X96477087Y-90967927D01*
X96600000Y-90980033D01*
X97800000Y-90980033D01*
X97922913Y-90967927D01*
X98041103Y-90932075D01*
X98150028Y-90873853D01*
X98245501Y-90795501D01*
X98300000Y-90729093D01*
X98354499Y-90795501D01*
X98449972Y-90873853D01*
X98523000Y-90912888D01*
X98523000Y-91948011D01*
X78856043Y-91948011D01*
X77377000Y-90468968D01*
X77377000Y-89927000D01*
X78320250Y-89927000D01*
X78477000Y-89770250D01*
X78477000Y-88448000D01*
X78723000Y-88448000D01*
X78723000Y-89770250D01*
X78879750Y-89927000D01*
X79911754Y-89927000D01*
X80032889Y-89902905D01*
X80146996Y-89855640D01*
X80249689Y-89787023D01*
X80337023Y-89699689D01*
X80405640Y-89596996D01*
X80452905Y-89482889D01*
X80477000Y-89361754D01*
X80477000Y-88604750D01*
X80823000Y-88604750D01*
X80823000Y-89361754D01*
X80847095Y-89482889D01*
X80894360Y-89596996D01*
X80962977Y-89699689D01*
X81050311Y-89787023D01*
X81153004Y-89855640D01*
X81267111Y-89902905D01*
X81388246Y-89927000D01*
X82420250Y-89927000D01*
X82577000Y-89770250D01*
X82577000Y-88448000D01*
X80979750Y-88448000D01*
X80823000Y-88604750D01*
X80477000Y-88604750D01*
X80320250Y-88448000D01*
X78723000Y-88448000D01*
X78477000Y-88448000D01*
X78457000Y-88448000D01*
X78457000Y-88202000D01*
X78477000Y-88202000D01*
X78477000Y-88182000D01*
X78723000Y-88182000D01*
X78723000Y-88202000D01*
X80320250Y-88202000D01*
X80477000Y-88045250D01*
X80477000Y-87288246D01*
X80452905Y-87167111D01*
X80405640Y-87053004D01*
X80337023Y-86950311D01*
X80249689Y-86862977D01*
X80153514Y-86798715D01*
X80200028Y-86773853D01*
X80295501Y-86695501D01*
X80373853Y-86600028D01*
X80432075Y-86491103D01*
X80467927Y-86372913D01*
X80480033Y-86250000D01*
X80480033Y-84300000D01*
X80468457Y-84182469D01*
X81270893Y-83380033D01*
X81273000Y-83380033D01*
X81273000Y-83698480D01*
G36*
X102348000Y-85650475D02*
X102299972Y-85676147D01*
X102204499Y-85754499D01*
X102126147Y-85849972D01*
X102067925Y-85958897D01*
X102032073Y-86077087D01*
X102019967Y-86200000D01*
X102019967Y-87400000D01*
X102032073Y-87522913D01*
X102051960Y-87588471D01*
X101208745Y-86745257D01*
X101155079Y-86701175D01*
X101101856Y-86656516D01*
X101098390Y-86654611D01*
X101095335Y-86652101D01*
X101034126Y-86619281D01*
X100973245Y-86585811D01*
X100969475Y-86584615D01*
X100965991Y-86582747D01*
X100899567Y-86562439D01*
X100833877Y-86541601D01*
X100845640Y-86523996D01*
X100892905Y-86409889D01*
X100917000Y-86288754D01*
X100917000Y-86131750D01*
X100760250Y-85975000D01*
X99813000Y-85975000D01*
X99813000Y-85995000D01*
X99567000Y-85995000D01*
X99567000Y-85975000D01*
X99547000Y-85975000D01*
X99547000Y-85729000D01*
X99567000Y-85729000D01*
X99567000Y-85006750D01*
X99813000Y-85006750D01*
X99813000Y-85729000D01*
X100760250Y-85729000D01*
X100917000Y-85572250D01*
X100917000Y-85415246D01*
X100892905Y-85294111D01*
X100845640Y-85180004D01*
X100777023Y-85077311D01*
X100689689Y-84989977D01*
X100586996Y-84921360D01*
X100472889Y-84874095D01*
X100351754Y-84850000D01*
X99969750Y-84850000D01*
X99813000Y-85006750D01*
X99567000Y-85006750D01*
X99410250Y-84850000D01*
X99028246Y-84850000D01*
X98907111Y-84874095D01*
X98793004Y-84921360D01*
X98742453Y-84955137D01*
X98740028Y-84953147D01*
X98631103Y-84894925D01*
X98512913Y-84859073D01*
X98390000Y-84846967D01*
X97382877Y-84846967D01*
X97658811Y-84571033D01*
X98390000Y-84571033D01*
X98512913Y-84558927D01*
X98631103Y-84523075D01*
X98740028Y-84464853D01*
X98742453Y-84462863D01*
X98793004Y-84496640D01*
X98907111Y-84543905D01*
X99028246Y-84568000D01*
X99410250Y-84568000D01*
X99567000Y-84411250D01*
X99567000Y-83689000D01*
X99813000Y-83689000D01*
X99813000Y-84411250D01*
X99969750Y-84568000D01*
X100351754Y-84568000D01*
X100472889Y-84543905D01*
X100586996Y-84496640D01*
X100689689Y-84428023D01*
X100777023Y-84340689D01*
X100845640Y-84237996D01*
X100892905Y-84123889D01*
X100917000Y-84002754D01*
X100917000Y-83845750D01*
X100760250Y-83689000D01*
X99813000Y-83689000D01*
X99567000Y-83689000D01*
X99547000Y-83689000D01*
X99547000Y-83443000D01*
X99567000Y-83443000D01*
X99567000Y-83423000D01*
X99813000Y-83423000D01*
X99813000Y-83443000D01*
X100760250Y-83443000D01*
X100917000Y-83286250D01*
X100917000Y-83265010D01*
X102348000Y-83265010D01*
X102348000Y-85650475D01*
X102348000Y-85650475D01*
G37*
X102348000Y-85650475D02*
X102299972Y-85676147D01*
X102204499Y-85754499D01*
X102126147Y-85849972D01*
X102067925Y-85958897D01*
X102032073Y-86077087D01*
X102019967Y-86200000D01*
X102019967Y-87400000D01*
X102032073Y-87522913D01*
X102051960Y-87588471D01*
X101208745Y-86745257D01*
X101155079Y-86701175D01*
X101101856Y-86656516D01*
X101098390Y-86654611D01*
X101095335Y-86652101D01*
X101034126Y-86619281D01*
X100973245Y-86585811D01*
X100969475Y-86584615D01*
X100965991Y-86582747D01*
X100899567Y-86562439D01*
X100833877Y-86541601D01*
X100845640Y-86523996D01*
X100892905Y-86409889D01*
X100917000Y-86288754D01*
X100917000Y-86131750D01*
X100760250Y-85975000D01*
X99813000Y-85975000D01*
X99813000Y-85995000D01*
X99567000Y-85995000D01*
X99567000Y-85975000D01*
X99547000Y-85975000D01*
X99547000Y-85729000D01*
X99567000Y-85729000D01*
X99567000Y-85006750D01*
X99813000Y-85006750D01*
X99813000Y-85729000D01*
X100760250Y-85729000D01*
X100917000Y-85572250D01*
X100917000Y-85415246D01*
X100892905Y-85294111D01*
X100845640Y-85180004D01*
X100777023Y-85077311D01*
X100689689Y-84989977D01*
X100586996Y-84921360D01*
X100472889Y-84874095D01*
X100351754Y-84850000D01*
X99969750Y-84850000D01*
X99813000Y-85006750D01*
X99567000Y-85006750D01*
X99410250Y-84850000D01*
X99028246Y-84850000D01*
X98907111Y-84874095D01*
X98793004Y-84921360D01*
X98742453Y-84955137D01*
X98740028Y-84953147D01*
X98631103Y-84894925D01*
X98512913Y-84859073D01*
X98390000Y-84846967D01*
X97382877Y-84846967D01*
X97658811Y-84571033D01*
X98390000Y-84571033D01*
X98512913Y-84558927D01*
X98631103Y-84523075D01*
X98740028Y-84464853D01*
X98742453Y-84462863D01*
X98793004Y-84496640D01*
X98907111Y-84543905D01*
X99028246Y-84568000D01*
X99410250Y-84568000D01*
X99567000Y-84411250D01*
X99567000Y-83689000D01*
X99813000Y-83689000D01*
X99813000Y-84411250D01*
X99969750Y-84568000D01*
X100351754Y-84568000D01*
X100472889Y-84543905D01*
X100586996Y-84496640D01*
X100689689Y-84428023D01*
X100777023Y-84340689D01*
X100845640Y-84237996D01*
X100892905Y-84123889D01*
X100917000Y-84002754D01*
X100917000Y-83845750D01*
X100760250Y-83689000D01*
X99813000Y-83689000D01*
X99567000Y-83689000D01*
X99547000Y-83689000D01*
X99547000Y-83443000D01*
X99567000Y-83443000D01*
X99567000Y-83423000D01*
X99813000Y-83423000D01*
X99813000Y-83443000D01*
X100760250Y-83443000D01*
X100917000Y-83286250D01*
X100917000Y-83265010D01*
X102348000Y-83265010D01*
X102348000Y-85650475D01*
G36*
X116923000Y-79342554D02*
X116923000Y-84479846D01*
X116824838Y-84421673D01*
X116551737Y-84325489D01*
X116323000Y-84444876D01*
X116323000Y-85637000D01*
X116343000Y-85637000D01*
X116343000Y-85883000D01*
X116323000Y-85883000D01*
X116323000Y-85903000D01*
X116077000Y-85903000D01*
X116077000Y-85883000D01*
X114885492Y-85883000D01*
X114814592Y-86018146D01*
X114805162Y-86014182D01*
X114607870Y-85973684D01*
X114406470Y-85972278D01*
X114208632Y-86010018D01*
X114021893Y-86085465D01*
X113976730Y-86115018D01*
X113974689Y-86112977D01*
X113871996Y-86044360D01*
X113757889Y-85997095D01*
X113636754Y-85973000D01*
X113479750Y-85973000D01*
X113323000Y-86129750D01*
X113323000Y-87077000D01*
X113343000Y-87077000D01*
X113343000Y-87323000D01*
X113323000Y-87323000D01*
X113323000Y-87343000D01*
X113077000Y-87343000D01*
X113077000Y-87323000D01*
X113057000Y-87323000D01*
X113057000Y-87077000D01*
X113077000Y-87077000D01*
X113077000Y-86129750D01*
X112920250Y-85973000D01*
X112814490Y-85973000D01*
X113379227Y-85408263D01*
X114765493Y-85408263D01*
X114885492Y-85637000D01*
X116077000Y-85637000D01*
X116077000Y-84444876D01*
X115848263Y-84325489D01*
X115575162Y-84421673D01*
X115326073Y-84569288D01*
X115110569Y-84762662D01*
X114936931Y-84994363D01*
X114811832Y-85255487D01*
X114765493Y-85408263D01*
X113379227Y-85408263D01*
X115931744Y-82855746D01*
X115975826Y-82802080D01*
X116020485Y-82748857D01*
X116022390Y-82745391D01*
X116024900Y-82742336D01*
X116057720Y-82681127D01*
X116091190Y-82620246D01*
X116092386Y-82616476D01*
X116094254Y-82612992D01*
X116114562Y-82546568D01*
X116135567Y-82480352D01*
X116136008Y-82476423D01*
X116137164Y-82472641D01*
X116144180Y-82403563D01*
X116151927Y-82334502D01*
X116151981Y-82326767D01*
X116151995Y-82326627D01*
X116151983Y-82326496D01*
X116152000Y-82324002D01*
X116152000Y-80702112D01*
X116181195Y-80674310D01*
X116297292Y-80509733D01*
X116379211Y-80325740D01*
X116423832Y-80129340D01*
X116427044Y-79899297D01*
X116387924Y-79701728D01*
X116311175Y-79515520D01*
X116199719Y-79347765D01*
X116057802Y-79204854D01*
X115890829Y-79092230D01*
X115705162Y-79014182D01*
X115507870Y-78973684D01*
X115306470Y-78972278D01*
X115108632Y-79010018D01*
X114921893Y-79085465D01*
X114774935Y-79181631D01*
X114790927Y-79128913D01*
X114803033Y-79006000D01*
X114803033Y-78583000D01*
X114994000Y-78583000D01*
X115055193Y-78577000D01*
X116157446Y-78577000D01*
X116923000Y-79342554D01*
X116923000Y-79342554D01*
G37*
X116923000Y-79342554D02*
X116923000Y-84479846D01*
X116824838Y-84421673D01*
X116551737Y-84325489D01*
X116323000Y-84444876D01*
X116323000Y-85637000D01*
X116343000Y-85637000D01*
X116343000Y-85883000D01*
X116323000Y-85883000D01*
X116323000Y-85903000D01*
X116077000Y-85903000D01*
X116077000Y-85883000D01*
X114885492Y-85883000D01*
X114814592Y-86018146D01*
X114805162Y-86014182D01*
X114607870Y-85973684D01*
X114406470Y-85972278D01*
X114208632Y-86010018D01*
X114021893Y-86085465D01*
X113976730Y-86115018D01*
X113974689Y-86112977D01*
X113871996Y-86044360D01*
X113757889Y-85997095D01*
X113636754Y-85973000D01*
X113479750Y-85973000D01*
X113323000Y-86129750D01*
X113323000Y-87077000D01*
X113343000Y-87077000D01*
X113343000Y-87323000D01*
X113323000Y-87323000D01*
X113323000Y-87343000D01*
X113077000Y-87343000D01*
X113077000Y-87323000D01*
X113057000Y-87323000D01*
X113057000Y-87077000D01*
X113077000Y-87077000D01*
X113077000Y-86129750D01*
X112920250Y-85973000D01*
X112814490Y-85973000D01*
X113379227Y-85408263D01*
X114765493Y-85408263D01*
X114885492Y-85637000D01*
X116077000Y-85637000D01*
X116077000Y-84444876D01*
X115848263Y-84325489D01*
X115575162Y-84421673D01*
X115326073Y-84569288D01*
X115110569Y-84762662D01*
X114936931Y-84994363D01*
X114811832Y-85255487D01*
X114765493Y-85408263D01*
X113379227Y-85408263D01*
X115931744Y-82855746D01*
X115975826Y-82802080D01*
X116020485Y-82748857D01*
X116022390Y-82745391D01*
X116024900Y-82742336D01*
X116057720Y-82681127D01*
X116091190Y-82620246D01*
X116092386Y-82616476D01*
X116094254Y-82612992D01*
X116114562Y-82546568D01*
X116135567Y-82480352D01*
X116136008Y-82476423D01*
X116137164Y-82472641D01*
X116144180Y-82403563D01*
X116151927Y-82334502D01*
X116151981Y-82326767D01*
X116151995Y-82326627D01*
X116151983Y-82326496D01*
X116152000Y-82324002D01*
X116152000Y-80702112D01*
X116181195Y-80674310D01*
X116297292Y-80509733D01*
X116379211Y-80325740D01*
X116423832Y-80129340D01*
X116427044Y-79899297D01*
X116387924Y-79701728D01*
X116311175Y-79515520D01*
X116199719Y-79347765D01*
X116057802Y-79204854D01*
X115890829Y-79092230D01*
X115705162Y-79014182D01*
X115507870Y-78973684D01*
X115306470Y-78972278D01*
X115108632Y-79010018D01*
X114921893Y-79085465D01*
X114774935Y-79181631D01*
X114790927Y-79128913D01*
X114803033Y-79006000D01*
X114803033Y-78583000D01*
X114994000Y-78583000D01*
X115055193Y-78577000D01*
X116157446Y-78577000D01*
X116923000Y-79342554D01*
G36*
X117514000Y-77594446D02*
X117084777Y-77165223D01*
X117025803Y-77116781D01*
X116967228Y-77067631D01*
X116963414Y-77065534D01*
X116960056Y-77062776D01*
X116892743Y-77026682D01*
X116825790Y-76989875D01*
X116821647Y-76988561D01*
X116817813Y-76986505D01*
X116744748Y-76964167D01*
X116671943Y-76941072D01*
X116667621Y-76940587D01*
X116663463Y-76939316D01*
X116587450Y-76931595D01*
X116511547Y-76923081D01*
X116503048Y-76923021D01*
X116502887Y-76923005D01*
X116502737Y-76923019D01*
X116500000Y-76923000D01*
X115000000Y-76923000D01*
X114938807Y-76929000D01*
X114803033Y-76929000D01*
X114803033Y-76506000D01*
X114790927Y-76383087D01*
X114755075Y-76264897D01*
X114696853Y-76155972D01*
X114618501Y-76060499D01*
X114523028Y-75982147D01*
X114414103Y-75923925D01*
X114295913Y-75888073D01*
X114173000Y-75875967D01*
X112903000Y-75875967D01*
X112780087Y-75888073D01*
X112661897Y-75923925D01*
X112552972Y-75982147D01*
X112457499Y-76060499D01*
X112379147Y-76155972D01*
X112320925Y-76264897D01*
X112285073Y-76383087D01*
X112272967Y-76506000D01*
X112272967Y-79006000D01*
X112276594Y-79042826D01*
X112259576Y-79041098D01*
X112263033Y-79006000D01*
X112263033Y-76506000D01*
X112250927Y-76383087D01*
X112215075Y-76264897D01*
X112156853Y-76155972D01*
X112078501Y-76060499D01*
X111983028Y-75982147D01*
X111874103Y-75923925D01*
X111755913Y-75888073D01*
X111633000Y-75875967D01*
X110796455Y-75875967D01*
X110776159Y-75855671D01*
X110777044Y-75792297D01*
X110737924Y-75594728D01*
X110661175Y-75408520D01*
X110549719Y-75240765D01*
X110442928Y-75133226D01*
X110447000Y-75112754D01*
X110447000Y-74955750D01*
X110290250Y-74799000D01*
X109343000Y-74799000D01*
X109343000Y-74819000D01*
X109097000Y-74819000D01*
X109097000Y-74799000D01*
X109077000Y-74799000D01*
X109077000Y-74553000D01*
X109097000Y-74553000D01*
X109097000Y-73830750D01*
X109343000Y-73830750D01*
X109343000Y-74553000D01*
X110290250Y-74553000D01*
X110447000Y-74396250D01*
X110447000Y-74239246D01*
X110422905Y-74118111D01*
X110375640Y-74004004D01*
X110307023Y-73901311D01*
X110219689Y-73813977D01*
X110116996Y-73745360D01*
X110002889Y-73698095D01*
X109881754Y-73674000D01*
X109499750Y-73674000D01*
X109343000Y-73830750D01*
X109097000Y-73830750D01*
X108940250Y-73674000D01*
X108558246Y-73674000D01*
X108437111Y-73698095D01*
X108323004Y-73745360D01*
X108272453Y-73779137D01*
X108270028Y-73777147D01*
X108161103Y-73718925D01*
X108042913Y-73683073D01*
X107920000Y-73670967D01*
X106720000Y-73670967D01*
X106597087Y-73683073D01*
X106478897Y-73718925D01*
X106369972Y-73777147D01*
X106282418Y-73849000D01*
X105983499Y-73849000D01*
X105900829Y-73793239D01*
X105715162Y-73715191D01*
X105517870Y-73674693D01*
X105316470Y-73673287D01*
X105118632Y-73711027D01*
X104931893Y-73786474D01*
X104763364Y-73896756D01*
X104619466Y-74037672D01*
X104505679Y-74203854D01*
X104426337Y-74388973D01*
X104384462Y-74585977D01*
X104383953Y-74622424D01*
X104352455Y-74596551D01*
X104299232Y-74551892D01*
X104295766Y-74549987D01*
X104292711Y-74547477D01*
X104231502Y-74514657D01*
X104170621Y-74481187D01*
X104166851Y-74479991D01*
X104163367Y-74478123D01*
X104096943Y-74457815D01*
X104030727Y-74436810D01*
X104026798Y-74436369D01*
X104023016Y-74435213D01*
X103953938Y-74428197D01*
X103884877Y-74420450D01*
X103877142Y-74420396D01*
X103877002Y-74420382D01*
X103876871Y-74420394D01*
X103874377Y-74420377D01*
X99716290Y-74420377D01*
X99647160Y-74427155D01*
X99577959Y-74433210D01*
X99574162Y-74434313D01*
X99570226Y-74434699D01*
X99503741Y-74454772D01*
X99437021Y-74474155D01*
X99433509Y-74475976D01*
X99429725Y-74477118D01*
X99368431Y-74509709D01*
X99306722Y-74541696D01*
X99303630Y-74544164D01*
X99300140Y-74546020D01*
X99246358Y-74589883D01*
X99192022Y-74633259D01*
X99186514Y-74638691D01*
X99186405Y-74638780D01*
X99186321Y-74638881D01*
X99184546Y-74640632D01*
X98807546Y-75017633D01*
X98763464Y-75071299D01*
X98718805Y-75124522D01*
X98716900Y-75127988D01*
X98714390Y-75131043D01*
X98681570Y-75192252D01*
X98648100Y-75253133D01*
X98646904Y-75256903D01*
X98645036Y-75260387D01*
X98624728Y-75326811D01*
X98603723Y-75393027D01*
X98603282Y-75396956D01*
X98602126Y-75400738D01*
X98598625Y-75435203D01*
X98567000Y-75432089D01*
X98567000Y-75184000D01*
X98559992Y-75112527D01*
X98553740Y-75041069D01*
X98552601Y-75037148D01*
X98552202Y-75033080D01*
X98531449Y-74964344D01*
X98512033Y-74897512D01*
X98512033Y-74301000D01*
X98499927Y-74178087D01*
X98464075Y-74059897D01*
X98405853Y-73950972D01*
X98327501Y-73855499D01*
X98232028Y-73777147D01*
X98123103Y-73718925D01*
X98004913Y-73683073D01*
X97882000Y-73670967D01*
X96682000Y-73670967D01*
X96559087Y-73683073D01*
X96440897Y-73718925D01*
X96331972Y-73777147D01*
X96329547Y-73779137D01*
X96278996Y-73745360D01*
X96164889Y-73698095D01*
X96043754Y-73674000D01*
X95661750Y-73674000D01*
X95505000Y-73830750D01*
X95505000Y-74553000D01*
X95525000Y-74553000D01*
X95525000Y-74799000D01*
X95505000Y-74799000D01*
X95505000Y-75521250D01*
X95661750Y-75678000D01*
X96026223Y-75678000D01*
X96023540Y-75680188D01*
X95967455Y-75724961D01*
X95961768Y-75730569D01*
X95961651Y-75730664D01*
X95961562Y-75730772D01*
X95959730Y-75732578D01*
X95858724Y-75833584D01*
X95836471Y-75833429D01*
X95638633Y-75871169D01*
X95451894Y-75946616D01*
X95283365Y-76056898D01*
X95139467Y-76197814D01*
X95025680Y-76363996D01*
X94946338Y-76549115D01*
X94904463Y-76746119D01*
X94901651Y-76947504D01*
X94938009Y-77145600D01*
X95012151Y-77332862D01*
X95121254Y-77502156D01*
X95194292Y-77577789D01*
X94420033Y-78352048D01*
X94420033Y-76190000D01*
X94407927Y-76067087D01*
X94372075Y-75948897D01*
X94313853Y-75839972D01*
X94235501Y-75744499D01*
X94140028Y-75666147D01*
X94031103Y-75607925D01*
X93912913Y-75572073D01*
X93790000Y-75559967D01*
X92990000Y-75559967D01*
X92867087Y-75572073D01*
X92748897Y-75607925D01*
X92639972Y-75666147D01*
X92544499Y-75744499D01*
X92538509Y-75751797D01*
X92489689Y-75702977D01*
X92386996Y-75634360D01*
X92272889Y-75587095D01*
X92151754Y-75563000D01*
X91719750Y-75563000D01*
X91563000Y-75719750D01*
X91563000Y-78617000D01*
X91583000Y-78617000D01*
X91583000Y-78863000D01*
X91563000Y-78863000D01*
X91563000Y-78883000D01*
X91317000Y-78883000D01*
X91317000Y-78863000D01*
X91297000Y-78863000D01*
X91297000Y-78617000D01*
X91317000Y-78617000D01*
X91317000Y-75719750D01*
X91160250Y-75563000D01*
X90728246Y-75563000D01*
X90607111Y-75587095D01*
X90493004Y-75634360D01*
X90390311Y-75702977D01*
X90341491Y-75751797D01*
X90335501Y-75744499D01*
X90240028Y-75666147D01*
X90131103Y-75607925D01*
X90012913Y-75572073D01*
X89890000Y-75559967D01*
X89090000Y-75559967D01*
X88967087Y-75572073D01*
X88848897Y-75607925D01*
X88739972Y-75666147D01*
X88644499Y-75744499D01*
X88566147Y-75839972D01*
X88507925Y-75948897D01*
X88472073Y-76067087D01*
X88459967Y-76190000D01*
X88459967Y-81290000D01*
X88472073Y-81412913D01*
X88507925Y-81531103D01*
X88566147Y-81640028D01*
X88621405Y-81707361D01*
X88480990Y-81799246D01*
X88337092Y-81940162D01*
X88223305Y-82106344D01*
X88143963Y-82291463D01*
X88102088Y-82488467D01*
X88099276Y-82689852D01*
X88135634Y-82887948D01*
X88185095Y-83012871D01*
X87776578Y-83421388D01*
X87730987Y-83476891D01*
X87684887Y-83531831D01*
X87682920Y-83535409D01*
X87680325Y-83538568D01*
X87646406Y-83601827D01*
X87611832Y-83664717D01*
X87610596Y-83668614D01*
X87608666Y-83672213D01*
X87588053Y-83739633D01*
X87484897Y-83770925D01*
X87375972Y-83829147D01*
X87373547Y-83831137D01*
X87322996Y-83797360D01*
X87208889Y-83750095D01*
X87087754Y-83726000D01*
X86705750Y-83726000D01*
X86549000Y-83882750D01*
X86549000Y-84605000D01*
X86569000Y-84605000D01*
X86569000Y-84851000D01*
X86549000Y-84851000D01*
X86549000Y-85573250D01*
X86705750Y-85730000D01*
X87087754Y-85730000D01*
X87208889Y-85705905D01*
X87322996Y-85658640D01*
X87373547Y-85624863D01*
X87375972Y-85626853D01*
X87484897Y-85685075D01*
X87598000Y-85719384D01*
X87598000Y-85876616D01*
X87484897Y-85910925D01*
X87375972Y-85969147D01*
X87373547Y-85971137D01*
X87322996Y-85937360D01*
X87208889Y-85890095D01*
X87087754Y-85866000D01*
X86705750Y-85866000D01*
X86549000Y-86022750D01*
X86549000Y-86745000D01*
X86569000Y-86745000D01*
X86569000Y-86991000D01*
X86549000Y-86991000D01*
X86549000Y-87011000D01*
X86303000Y-87011000D01*
X86303000Y-86991000D01*
X86283000Y-86991000D01*
X86283000Y-86745000D01*
X86303000Y-86745000D01*
X86303000Y-86022750D01*
X86146250Y-85866000D01*
X85796647Y-85866000D01*
X85789173Y-85841245D01*
X85767858Y-85767879D01*
X85765857Y-85764019D01*
X85764600Y-85759855D01*
X85746890Y-85726548D01*
X85764246Y-85730000D01*
X86146250Y-85730000D01*
X86303000Y-85573250D01*
X86303000Y-84851000D01*
X85355750Y-84851000D01*
X85199000Y-85007750D01*
X85199000Y-85104446D01*
X84784777Y-84690223D01*
X84725803Y-84641781D01*
X84667228Y-84592631D01*
X84663414Y-84590534D01*
X84660056Y-84587776D01*
X84592743Y-84551682D01*
X84580033Y-84544695D01*
X84580033Y-84300000D01*
X84579171Y-84291246D01*
X85199000Y-84291246D01*
X85199000Y-84448250D01*
X85355750Y-84605000D01*
X86303000Y-84605000D01*
X86303000Y-83882750D01*
X86146250Y-83726000D01*
X85764246Y-83726000D01*
X85643111Y-83750095D01*
X85529004Y-83797360D01*
X85426311Y-83865977D01*
X85338977Y-83953311D01*
X85270360Y-84056004D01*
X85223095Y-84170111D01*
X85199000Y-84291246D01*
X84579171Y-84291246D01*
X84567927Y-84177087D01*
X84532075Y-84058897D01*
X84527000Y-84049402D01*
X84527000Y-83377000D01*
X84920250Y-83377000D01*
X85077000Y-83220250D01*
X85077000Y-81873000D01*
X85323000Y-81873000D01*
X85323000Y-83220250D01*
X85479750Y-83377000D01*
X86011754Y-83377000D01*
X86132889Y-83352905D01*
X86246996Y-83305640D01*
X86349689Y-83237023D01*
X86437023Y-83149689D01*
X86505640Y-83046996D01*
X86552905Y-82932889D01*
X86577000Y-82811754D01*
X86577000Y-82029750D01*
X86420250Y-81873000D01*
X85323000Y-81873000D01*
X85077000Y-81873000D01*
X85057000Y-81873000D01*
X85057000Y-81627000D01*
X85077000Y-81627000D01*
X85077000Y-80279750D01*
X85323000Y-80279750D01*
X85323000Y-81627000D01*
X86420250Y-81627000D01*
X86577000Y-81470250D01*
X86577000Y-80688246D01*
X86552905Y-80567111D01*
X86505640Y-80453004D01*
X86437023Y-80350311D01*
X86349689Y-80262977D01*
X86246996Y-80194360D01*
X86132889Y-80147095D01*
X86011754Y-80123000D01*
X85479750Y-80123000D01*
X85323000Y-80279750D01*
X85077000Y-80279750D01*
X84920250Y-80123000D01*
X84388246Y-80123000D01*
X84267111Y-80147095D01*
X84153004Y-80194360D01*
X84050311Y-80262977D01*
X84047875Y-80265413D01*
X84000028Y-80226147D01*
X83891103Y-80167925D01*
X83772913Y-80132073D01*
X83727000Y-80127551D01*
X83727000Y-79842562D01*
X87753790Y-75815772D01*
X87877525Y-75793954D01*
X88065300Y-75721121D01*
X88235352Y-75613203D01*
X88381203Y-75474310D01*
X88497300Y-75309733D01*
X88579219Y-75125740D01*
X88617839Y-74955750D01*
X94155000Y-74955750D01*
X94155000Y-75112754D01*
X94179095Y-75233889D01*
X94226360Y-75347996D01*
X94294977Y-75450689D01*
X94382311Y-75538023D01*
X94485004Y-75606640D01*
X94599111Y-75653905D01*
X94720246Y-75678000D01*
X95102250Y-75678000D01*
X95259000Y-75521250D01*
X95259000Y-74799000D01*
X94311750Y-74799000D01*
X94155000Y-74955750D01*
X88617839Y-74955750D01*
X88623840Y-74929340D01*
X88627052Y-74699297D01*
X88587932Y-74501728D01*
X88511183Y-74315520D01*
X88460507Y-74239246D01*
X94155000Y-74239246D01*
X94155000Y-74396250D01*
X94311750Y-74553000D01*
X95259000Y-74553000D01*
X95259000Y-73830750D01*
X95102250Y-73674000D01*
X94720246Y-73674000D01*
X94599111Y-73698095D01*
X94485004Y-73745360D01*
X94382311Y-73813977D01*
X94294977Y-73901311D01*
X94226360Y-74004004D01*
X94179095Y-74118111D01*
X94155000Y-74239246D01*
X88460507Y-74239246D01*
X88399727Y-74147765D01*
X88257810Y-74004854D01*
X88090837Y-73892230D01*
X87905170Y-73814182D01*
X87707878Y-73773684D01*
X87506478Y-73772278D01*
X87308640Y-73810018D01*
X87121901Y-73885465D01*
X86953372Y-73995747D01*
X86809474Y-74136663D01*
X86695687Y-74302845D01*
X86616345Y-74487964D01*
X86582294Y-74648160D01*
X85430033Y-75800421D01*
X85430033Y-74450000D01*
X85417927Y-74327087D01*
X85382075Y-74208897D01*
X85323853Y-74099972D01*
X85245501Y-74004499D01*
X85150028Y-73926147D01*
X85041103Y-73867925D01*
X84922913Y-73832073D01*
X84800000Y-73819967D01*
X81000000Y-73819967D01*
X80877087Y-73832073D01*
X80758897Y-73867925D01*
X80649972Y-73926147D01*
X80554499Y-74004499D01*
X80476147Y-74099972D01*
X80417925Y-74208897D01*
X80382073Y-74327087D01*
X80369967Y-74450000D01*
X80369967Y-76450000D01*
X80382073Y-76572913D01*
X80417925Y-76691103D01*
X80476147Y-76800028D01*
X80554499Y-76895501D01*
X80649972Y-76973853D01*
X80758897Y-77032075D01*
X80877087Y-77067927D01*
X81000000Y-77080033D01*
X84150421Y-77080033D01*
X82315223Y-78915231D01*
X82266781Y-78974205D01*
X82217631Y-79032780D01*
X82215534Y-79036594D01*
X82212776Y-79039952D01*
X82176682Y-79107265D01*
X82139875Y-79174218D01*
X82138561Y-79178361D01*
X82136505Y-79182195D01*
X82114167Y-79255260D01*
X82091072Y-79328065D01*
X82090587Y-79332387D01*
X82089316Y-79336545D01*
X82081595Y-79412558D01*
X82073081Y-79488461D01*
X82073021Y-79496960D01*
X82073005Y-79497121D01*
X82073019Y-79497271D01*
X82073000Y-79500008D01*
X82073000Y-80127551D01*
X82027087Y-80132073D01*
X81908897Y-80167925D01*
X81799972Y-80226147D01*
X81750000Y-80267158D01*
X81700028Y-80226147D01*
X81591103Y-80167925D01*
X81472913Y-80132073D01*
X81350000Y-80119967D01*
X79850000Y-80119967D01*
X79727087Y-80132073D01*
X79608897Y-80167925D01*
X79499972Y-80226147D01*
X79404499Y-80304499D01*
X79326147Y-80399972D01*
X79267925Y-80508897D01*
X79232073Y-80627087D01*
X79219967Y-80750000D01*
X79219967Y-80829107D01*
X77449537Y-82599537D01*
X77377000Y-82687845D01*
X77377000Y-82381032D01*
X78254016Y-81504016D01*
X78517504Y-81183242D01*
X78713668Y-80817396D01*
X78835036Y-80420417D01*
X78876987Y-80007425D01*
X78837921Y-79594149D01*
X78719327Y-79196333D01*
X78525722Y-78829128D01*
X78264479Y-78506521D01*
X77945551Y-78240800D01*
X77790313Y-78156161D01*
X77963069Y-77925637D01*
X78088168Y-77664513D01*
X78134507Y-77511737D01*
X78014508Y-77283000D01*
X76823000Y-77283000D01*
X76823000Y-77303000D01*
X76577000Y-77303000D01*
X76577000Y-77283000D01*
X75385492Y-77283000D01*
X75265493Y-77511737D01*
X75311832Y-77664513D01*
X75436931Y-77925637D01*
X75610569Y-78157338D01*
X75645148Y-78188366D01*
X75591552Y-78216148D01*
X75267130Y-78475131D01*
X75245984Y-78495984D01*
X74202000Y-79539968D01*
X74202000Y-76808263D01*
X75265493Y-76808263D01*
X75385492Y-77037000D01*
X76577000Y-77037000D01*
X76577000Y-75844876D01*
X76823000Y-75844876D01*
X76823000Y-77037000D01*
X78014508Y-77037000D01*
X78134507Y-76808263D01*
X78088168Y-76655487D01*
X77963069Y-76394363D01*
X77789431Y-76162662D01*
X77573927Y-75969288D01*
X77324838Y-75821673D01*
X77051737Y-75725489D01*
X76823000Y-75844876D01*
X76577000Y-75844876D01*
X76348263Y-75725489D01*
X76075162Y-75821673D01*
X75826073Y-75969288D01*
X75610569Y-76162662D01*
X75436931Y-76394363D01*
X75311832Y-76655487D01*
X75265493Y-76808263D01*
X74202000Y-76808263D01*
X74202000Y-73452000D01*
X117514000Y-73452000D01*
X117514000Y-77594446D01*
X117514000Y-77594446D01*
G37*
X117514000Y-77594446D02*
X117084777Y-77165223D01*
X117025803Y-77116781D01*
X116967228Y-77067631D01*
X116963414Y-77065534D01*
X116960056Y-77062776D01*
X116892743Y-77026682D01*
X116825790Y-76989875D01*
X116821647Y-76988561D01*
X116817813Y-76986505D01*
X116744748Y-76964167D01*
X116671943Y-76941072D01*
X116667621Y-76940587D01*
X116663463Y-76939316D01*
X116587450Y-76931595D01*
X116511547Y-76923081D01*
X116503048Y-76923021D01*
X116502887Y-76923005D01*
X116502737Y-76923019D01*
X116500000Y-76923000D01*
X115000000Y-76923000D01*
X114938807Y-76929000D01*
X114803033Y-76929000D01*
X114803033Y-76506000D01*
X114790927Y-76383087D01*
X114755075Y-76264897D01*
X114696853Y-76155972D01*
X114618501Y-76060499D01*
X114523028Y-75982147D01*
X114414103Y-75923925D01*
X114295913Y-75888073D01*
X114173000Y-75875967D01*
X112903000Y-75875967D01*
X112780087Y-75888073D01*
X112661897Y-75923925D01*
X112552972Y-75982147D01*
X112457499Y-76060499D01*
X112379147Y-76155972D01*
X112320925Y-76264897D01*
X112285073Y-76383087D01*
X112272967Y-76506000D01*
X112272967Y-79006000D01*
X112276594Y-79042826D01*
X112259576Y-79041098D01*
X112263033Y-79006000D01*
X112263033Y-76506000D01*
X112250927Y-76383087D01*
X112215075Y-76264897D01*
X112156853Y-76155972D01*
X112078501Y-76060499D01*
X111983028Y-75982147D01*
X111874103Y-75923925D01*
X111755913Y-75888073D01*
X111633000Y-75875967D01*
X110796455Y-75875967D01*
X110776159Y-75855671D01*
X110777044Y-75792297D01*
X110737924Y-75594728D01*
X110661175Y-75408520D01*
X110549719Y-75240765D01*
X110442928Y-75133226D01*
X110447000Y-75112754D01*
X110447000Y-74955750D01*
X110290250Y-74799000D01*
X109343000Y-74799000D01*
X109343000Y-74819000D01*
X109097000Y-74819000D01*
X109097000Y-74799000D01*
X109077000Y-74799000D01*
X109077000Y-74553000D01*
X109097000Y-74553000D01*
X109097000Y-73830750D01*
X109343000Y-73830750D01*
X109343000Y-74553000D01*
X110290250Y-74553000D01*
X110447000Y-74396250D01*
X110447000Y-74239246D01*
X110422905Y-74118111D01*
X110375640Y-74004004D01*
X110307023Y-73901311D01*
X110219689Y-73813977D01*
X110116996Y-73745360D01*
X110002889Y-73698095D01*
X109881754Y-73674000D01*
X109499750Y-73674000D01*
X109343000Y-73830750D01*
X109097000Y-73830750D01*
X108940250Y-73674000D01*
X108558246Y-73674000D01*
X108437111Y-73698095D01*
X108323004Y-73745360D01*
X108272453Y-73779137D01*
X108270028Y-73777147D01*
X108161103Y-73718925D01*
X108042913Y-73683073D01*
X107920000Y-73670967D01*
X106720000Y-73670967D01*
X106597087Y-73683073D01*
X106478897Y-73718925D01*
X106369972Y-73777147D01*
X106282418Y-73849000D01*
X105983499Y-73849000D01*
X105900829Y-73793239D01*
X105715162Y-73715191D01*
X105517870Y-73674693D01*
X105316470Y-73673287D01*
X105118632Y-73711027D01*
X104931893Y-73786474D01*
X104763364Y-73896756D01*
X104619466Y-74037672D01*
X104505679Y-74203854D01*
X104426337Y-74388973D01*
X104384462Y-74585977D01*
X104383953Y-74622424D01*
X104352455Y-74596551D01*
X104299232Y-74551892D01*
X104295766Y-74549987D01*
X104292711Y-74547477D01*
X104231502Y-74514657D01*
X104170621Y-74481187D01*
X104166851Y-74479991D01*
X104163367Y-74478123D01*
X104096943Y-74457815D01*
X104030727Y-74436810D01*
X104026798Y-74436369D01*
X104023016Y-74435213D01*
X103953938Y-74428197D01*
X103884877Y-74420450D01*
X103877142Y-74420396D01*
X103877002Y-74420382D01*
X103876871Y-74420394D01*
X103874377Y-74420377D01*
X99716290Y-74420377D01*
X99647160Y-74427155D01*
X99577959Y-74433210D01*
X99574162Y-74434313D01*
X99570226Y-74434699D01*
X99503741Y-74454772D01*
X99437021Y-74474155D01*
X99433509Y-74475976D01*
X99429725Y-74477118D01*
X99368431Y-74509709D01*
X99306722Y-74541696D01*
X99303630Y-74544164D01*
X99300140Y-74546020D01*
X99246358Y-74589883D01*
X99192022Y-74633259D01*
X99186514Y-74638691D01*
X99186405Y-74638780D01*
X99186321Y-74638881D01*
X99184546Y-74640632D01*
X98807546Y-75017633D01*
X98763464Y-75071299D01*
X98718805Y-75124522D01*
X98716900Y-75127988D01*
X98714390Y-75131043D01*
X98681570Y-75192252D01*
X98648100Y-75253133D01*
X98646904Y-75256903D01*
X98645036Y-75260387D01*
X98624728Y-75326811D01*
X98603723Y-75393027D01*
X98603282Y-75396956D01*
X98602126Y-75400738D01*
X98598625Y-75435203D01*
X98567000Y-75432089D01*
X98567000Y-75184000D01*
X98559992Y-75112527D01*
X98553740Y-75041069D01*
X98552601Y-75037148D01*
X98552202Y-75033080D01*
X98531449Y-74964344D01*
X98512033Y-74897512D01*
X98512033Y-74301000D01*
X98499927Y-74178087D01*
X98464075Y-74059897D01*
X98405853Y-73950972D01*
X98327501Y-73855499D01*
X98232028Y-73777147D01*
X98123103Y-73718925D01*
X98004913Y-73683073D01*
X97882000Y-73670967D01*
X96682000Y-73670967D01*
X96559087Y-73683073D01*
X96440897Y-73718925D01*
X96331972Y-73777147D01*
X96329547Y-73779137D01*
X96278996Y-73745360D01*
X96164889Y-73698095D01*
X96043754Y-73674000D01*
X95661750Y-73674000D01*
X95505000Y-73830750D01*
X95505000Y-74553000D01*
X95525000Y-74553000D01*
X95525000Y-74799000D01*
X95505000Y-74799000D01*
X95505000Y-75521250D01*
X95661750Y-75678000D01*
X96026223Y-75678000D01*
X96023540Y-75680188D01*
X95967455Y-75724961D01*
X95961768Y-75730569D01*
X95961651Y-75730664D01*
X95961562Y-75730772D01*
X95959730Y-75732578D01*
X95858724Y-75833584D01*
X95836471Y-75833429D01*
X95638633Y-75871169D01*
X95451894Y-75946616D01*
X95283365Y-76056898D01*
X95139467Y-76197814D01*
X95025680Y-76363996D01*
X94946338Y-76549115D01*
X94904463Y-76746119D01*
X94901651Y-76947504D01*
X94938009Y-77145600D01*
X95012151Y-77332862D01*
X95121254Y-77502156D01*
X95194292Y-77577789D01*
X94420033Y-78352048D01*
X94420033Y-76190000D01*
X94407927Y-76067087D01*
X94372075Y-75948897D01*
X94313853Y-75839972D01*
X94235501Y-75744499D01*
X94140028Y-75666147D01*
X94031103Y-75607925D01*
X93912913Y-75572073D01*
X93790000Y-75559967D01*
X92990000Y-75559967D01*
X92867087Y-75572073D01*
X92748897Y-75607925D01*
X92639972Y-75666147D01*
X92544499Y-75744499D01*
X92538509Y-75751797D01*
X92489689Y-75702977D01*
X92386996Y-75634360D01*
X92272889Y-75587095D01*
X92151754Y-75563000D01*
X91719750Y-75563000D01*
X91563000Y-75719750D01*
X91563000Y-78617000D01*
X91583000Y-78617000D01*
X91583000Y-78863000D01*
X91563000Y-78863000D01*
X91563000Y-78883000D01*
X91317000Y-78883000D01*
X91317000Y-78863000D01*
X91297000Y-78863000D01*
X91297000Y-78617000D01*
X91317000Y-78617000D01*
X91317000Y-75719750D01*
X91160250Y-75563000D01*
X90728246Y-75563000D01*
X90607111Y-75587095D01*
X90493004Y-75634360D01*
X90390311Y-75702977D01*
X90341491Y-75751797D01*
X90335501Y-75744499D01*
X90240028Y-75666147D01*
X90131103Y-75607925D01*
X90012913Y-75572073D01*
X89890000Y-75559967D01*
X89090000Y-75559967D01*
X88967087Y-75572073D01*
X88848897Y-75607925D01*
X88739972Y-75666147D01*
X88644499Y-75744499D01*
X88566147Y-75839972D01*
X88507925Y-75948897D01*
X88472073Y-76067087D01*
X88459967Y-76190000D01*
X88459967Y-81290000D01*
X88472073Y-81412913D01*
X88507925Y-81531103D01*
X88566147Y-81640028D01*
X88621405Y-81707361D01*
X88480990Y-81799246D01*
X88337092Y-81940162D01*
X88223305Y-82106344D01*
X88143963Y-82291463D01*
X88102088Y-82488467D01*
X88099276Y-82689852D01*
X88135634Y-82887948D01*
X88185095Y-83012871D01*
X87776578Y-83421388D01*
X87730987Y-83476891D01*
X87684887Y-83531831D01*
X87682920Y-83535409D01*
X87680325Y-83538568D01*
X87646406Y-83601827D01*
X87611832Y-83664717D01*
X87610596Y-83668614D01*
X87608666Y-83672213D01*
X87588053Y-83739633D01*
X87484897Y-83770925D01*
X87375972Y-83829147D01*
X87373547Y-83831137D01*
X87322996Y-83797360D01*
X87208889Y-83750095D01*
X87087754Y-83726000D01*
X86705750Y-83726000D01*
X86549000Y-83882750D01*
X86549000Y-84605000D01*
X86569000Y-84605000D01*
X86569000Y-84851000D01*
X86549000Y-84851000D01*
X86549000Y-85573250D01*
X86705750Y-85730000D01*
X87087754Y-85730000D01*
X87208889Y-85705905D01*
X87322996Y-85658640D01*
X87373547Y-85624863D01*
X87375972Y-85626853D01*
X87484897Y-85685075D01*
X87598000Y-85719384D01*
X87598000Y-85876616D01*
X87484897Y-85910925D01*
X87375972Y-85969147D01*
X87373547Y-85971137D01*
X87322996Y-85937360D01*
X87208889Y-85890095D01*
X87087754Y-85866000D01*
X86705750Y-85866000D01*
X86549000Y-86022750D01*
X86549000Y-86745000D01*
X86569000Y-86745000D01*
X86569000Y-86991000D01*
X86549000Y-86991000D01*
X86549000Y-87011000D01*
X86303000Y-87011000D01*
X86303000Y-86991000D01*
X86283000Y-86991000D01*
X86283000Y-86745000D01*
X86303000Y-86745000D01*
X86303000Y-86022750D01*
X86146250Y-85866000D01*
X85796647Y-85866000D01*
X85789173Y-85841245D01*
X85767858Y-85767879D01*
X85765857Y-85764019D01*
X85764600Y-85759855D01*
X85746890Y-85726548D01*
X85764246Y-85730000D01*
X86146250Y-85730000D01*
X86303000Y-85573250D01*
X86303000Y-84851000D01*
X85355750Y-84851000D01*
X85199000Y-85007750D01*
X85199000Y-85104446D01*
X84784777Y-84690223D01*
X84725803Y-84641781D01*
X84667228Y-84592631D01*
X84663414Y-84590534D01*
X84660056Y-84587776D01*
X84592743Y-84551682D01*
X84580033Y-84544695D01*
X84580033Y-84300000D01*
X84579171Y-84291246D01*
X85199000Y-84291246D01*
X85199000Y-84448250D01*
X85355750Y-84605000D01*
X86303000Y-84605000D01*
X86303000Y-83882750D01*
X86146250Y-83726000D01*
X85764246Y-83726000D01*
X85643111Y-83750095D01*
X85529004Y-83797360D01*
X85426311Y-83865977D01*
X85338977Y-83953311D01*
X85270360Y-84056004D01*
X85223095Y-84170111D01*
X85199000Y-84291246D01*
X84579171Y-84291246D01*
X84567927Y-84177087D01*
X84532075Y-84058897D01*
X84527000Y-84049402D01*
X84527000Y-83377000D01*
X84920250Y-83377000D01*
X85077000Y-83220250D01*
X85077000Y-81873000D01*
X85323000Y-81873000D01*
X85323000Y-83220250D01*
X85479750Y-83377000D01*
X86011754Y-83377000D01*
X86132889Y-83352905D01*
X86246996Y-83305640D01*
X86349689Y-83237023D01*
X86437023Y-83149689D01*
X86505640Y-83046996D01*
X86552905Y-82932889D01*
X86577000Y-82811754D01*
X86577000Y-82029750D01*
X86420250Y-81873000D01*
X85323000Y-81873000D01*
X85077000Y-81873000D01*
X85057000Y-81873000D01*
X85057000Y-81627000D01*
X85077000Y-81627000D01*
X85077000Y-80279750D01*
X85323000Y-80279750D01*
X85323000Y-81627000D01*
X86420250Y-81627000D01*
X86577000Y-81470250D01*
X86577000Y-80688246D01*
X86552905Y-80567111D01*
X86505640Y-80453004D01*
X86437023Y-80350311D01*
X86349689Y-80262977D01*
X86246996Y-80194360D01*
X86132889Y-80147095D01*
X86011754Y-80123000D01*
X85479750Y-80123000D01*
X85323000Y-80279750D01*
X85077000Y-80279750D01*
X84920250Y-80123000D01*
X84388246Y-80123000D01*
X84267111Y-80147095D01*
X84153004Y-80194360D01*
X84050311Y-80262977D01*
X84047875Y-80265413D01*
X84000028Y-80226147D01*
X83891103Y-80167925D01*
X83772913Y-80132073D01*
X83727000Y-80127551D01*
X83727000Y-79842562D01*
X87753790Y-75815772D01*
X87877525Y-75793954D01*
X88065300Y-75721121D01*
X88235352Y-75613203D01*
X88381203Y-75474310D01*
X88497300Y-75309733D01*
X88579219Y-75125740D01*
X88617839Y-74955750D01*
X94155000Y-74955750D01*
X94155000Y-75112754D01*
X94179095Y-75233889D01*
X94226360Y-75347996D01*
X94294977Y-75450689D01*
X94382311Y-75538023D01*
X94485004Y-75606640D01*
X94599111Y-75653905D01*
X94720246Y-75678000D01*
X95102250Y-75678000D01*
X95259000Y-75521250D01*
X95259000Y-74799000D01*
X94311750Y-74799000D01*
X94155000Y-74955750D01*
X88617839Y-74955750D01*
X88623840Y-74929340D01*
X88627052Y-74699297D01*
X88587932Y-74501728D01*
X88511183Y-74315520D01*
X88460507Y-74239246D01*
X94155000Y-74239246D01*
X94155000Y-74396250D01*
X94311750Y-74553000D01*
X95259000Y-74553000D01*
X95259000Y-73830750D01*
X95102250Y-73674000D01*
X94720246Y-73674000D01*
X94599111Y-73698095D01*
X94485004Y-73745360D01*
X94382311Y-73813977D01*
X94294977Y-73901311D01*
X94226360Y-74004004D01*
X94179095Y-74118111D01*
X94155000Y-74239246D01*
X88460507Y-74239246D01*
X88399727Y-74147765D01*
X88257810Y-74004854D01*
X88090837Y-73892230D01*
X87905170Y-73814182D01*
X87707878Y-73773684D01*
X87506478Y-73772278D01*
X87308640Y-73810018D01*
X87121901Y-73885465D01*
X86953372Y-73995747D01*
X86809474Y-74136663D01*
X86695687Y-74302845D01*
X86616345Y-74487964D01*
X86582294Y-74648160D01*
X85430033Y-75800421D01*
X85430033Y-74450000D01*
X85417927Y-74327087D01*
X85382075Y-74208897D01*
X85323853Y-74099972D01*
X85245501Y-74004499D01*
X85150028Y-73926147D01*
X85041103Y-73867925D01*
X84922913Y-73832073D01*
X84800000Y-73819967D01*
X81000000Y-73819967D01*
X80877087Y-73832073D01*
X80758897Y-73867925D01*
X80649972Y-73926147D01*
X80554499Y-74004499D01*
X80476147Y-74099972D01*
X80417925Y-74208897D01*
X80382073Y-74327087D01*
X80369967Y-74450000D01*
X80369967Y-76450000D01*
X80382073Y-76572913D01*
X80417925Y-76691103D01*
X80476147Y-76800028D01*
X80554499Y-76895501D01*
X80649972Y-76973853D01*
X80758897Y-77032075D01*
X80877087Y-77067927D01*
X81000000Y-77080033D01*
X84150421Y-77080033D01*
X82315223Y-78915231D01*
X82266781Y-78974205D01*
X82217631Y-79032780D01*
X82215534Y-79036594D01*
X82212776Y-79039952D01*
X82176682Y-79107265D01*
X82139875Y-79174218D01*
X82138561Y-79178361D01*
X82136505Y-79182195D01*
X82114167Y-79255260D01*
X82091072Y-79328065D01*
X82090587Y-79332387D01*
X82089316Y-79336545D01*
X82081595Y-79412558D01*
X82073081Y-79488461D01*
X82073021Y-79496960D01*
X82073005Y-79497121D01*
X82073019Y-79497271D01*
X82073000Y-79500008D01*
X82073000Y-80127551D01*
X82027087Y-80132073D01*
X81908897Y-80167925D01*
X81799972Y-80226147D01*
X81750000Y-80267158D01*
X81700028Y-80226147D01*
X81591103Y-80167925D01*
X81472913Y-80132073D01*
X81350000Y-80119967D01*
X79850000Y-80119967D01*
X79727087Y-80132073D01*
X79608897Y-80167925D01*
X79499972Y-80226147D01*
X79404499Y-80304499D01*
X79326147Y-80399972D01*
X79267925Y-80508897D01*
X79232073Y-80627087D01*
X79219967Y-80750000D01*
X79219967Y-80829107D01*
X77449537Y-82599537D01*
X77377000Y-82687845D01*
X77377000Y-82381032D01*
X78254016Y-81504016D01*
X78517504Y-81183242D01*
X78713668Y-80817396D01*
X78835036Y-80420417D01*
X78876987Y-80007425D01*
X78837921Y-79594149D01*
X78719327Y-79196333D01*
X78525722Y-78829128D01*
X78264479Y-78506521D01*
X77945551Y-78240800D01*
X77790313Y-78156161D01*
X77963069Y-77925637D01*
X78088168Y-77664513D01*
X78134507Y-77511737D01*
X78014508Y-77283000D01*
X76823000Y-77283000D01*
X76823000Y-77303000D01*
X76577000Y-77303000D01*
X76577000Y-77283000D01*
X75385492Y-77283000D01*
X75265493Y-77511737D01*
X75311832Y-77664513D01*
X75436931Y-77925637D01*
X75610569Y-78157338D01*
X75645148Y-78188366D01*
X75591552Y-78216148D01*
X75267130Y-78475131D01*
X75245984Y-78495984D01*
X74202000Y-79539968D01*
X74202000Y-76808263D01*
X75265493Y-76808263D01*
X75385492Y-77037000D01*
X76577000Y-77037000D01*
X76577000Y-75844876D01*
X76823000Y-75844876D01*
X76823000Y-77037000D01*
X78014508Y-77037000D01*
X78134507Y-76808263D01*
X78088168Y-76655487D01*
X77963069Y-76394363D01*
X77789431Y-76162662D01*
X77573927Y-75969288D01*
X77324838Y-75821673D01*
X77051737Y-75725489D01*
X76823000Y-75844876D01*
X76577000Y-75844876D01*
X76348263Y-75725489D01*
X76075162Y-75821673D01*
X75826073Y-75969288D01*
X75610569Y-76162662D01*
X75436931Y-76394363D01*
X75311832Y-76655487D01*
X75265493Y-76808263D01*
X74202000Y-76808263D01*
X74202000Y-73452000D01*
X117514000Y-73452000D01*
X117514000Y-77594446D01*
G36*
X104905488Y-83311363D02*
X104941846Y-83509459D01*
X105015988Y-83696721D01*
X105125091Y-83866015D01*
X105264998Y-84010894D01*
X105430382Y-84125839D01*
X105614942Y-84206471D01*
X105811649Y-84249720D01*
X105896845Y-84251505D01*
X106248000Y-84602660D01*
X106248000Y-84633000D01*
X105879750Y-84633000D01*
X105723000Y-84789750D01*
X105723000Y-85437000D01*
X105743000Y-85437000D01*
X105743000Y-85683000D01*
X105723000Y-85683000D01*
X105723000Y-85703000D01*
X105477000Y-85703000D01*
X105477000Y-85683000D01*
X104354750Y-85683000D01*
X104198000Y-85839750D01*
X104198000Y-85921754D01*
X104222095Y-86042889D01*
X104224212Y-86048000D01*
X104159104Y-86048000D01*
X104132075Y-85958897D01*
X104073853Y-85849972D01*
X103995501Y-85754499D01*
X103900028Y-85676147D01*
X103852000Y-85650475D01*
X103852000Y-85198246D01*
X104198000Y-85198246D01*
X104198000Y-85280250D01*
X104354750Y-85437000D01*
X105477000Y-85437000D01*
X105477000Y-84789750D01*
X105320250Y-84633000D01*
X104763246Y-84633000D01*
X104642111Y-84657095D01*
X104528004Y-84704360D01*
X104425311Y-84772977D01*
X104337977Y-84860311D01*
X104269360Y-84963004D01*
X104222095Y-85077111D01*
X104198000Y-85198246D01*
X103852000Y-85198246D01*
X103852000Y-83252000D01*
X104906317Y-83252000D01*
X104905488Y-83311363D01*
X104905488Y-83311363D01*
G37*
X104905488Y-83311363D02*
X104941846Y-83509459D01*
X105015988Y-83696721D01*
X105125091Y-83866015D01*
X105264998Y-84010894D01*
X105430382Y-84125839D01*
X105614942Y-84206471D01*
X105811649Y-84249720D01*
X105896845Y-84251505D01*
X106248000Y-84602660D01*
X106248000Y-84633000D01*
X105879750Y-84633000D01*
X105723000Y-84789750D01*
X105723000Y-85437000D01*
X105743000Y-85437000D01*
X105743000Y-85683000D01*
X105723000Y-85683000D01*
X105723000Y-85703000D01*
X105477000Y-85703000D01*
X105477000Y-85683000D01*
X104354750Y-85683000D01*
X104198000Y-85839750D01*
X104198000Y-85921754D01*
X104222095Y-86042889D01*
X104224212Y-86048000D01*
X104159104Y-86048000D01*
X104132075Y-85958897D01*
X104073853Y-85849972D01*
X103995501Y-85754499D01*
X103900028Y-85676147D01*
X103852000Y-85650475D01*
X103852000Y-85198246D01*
X104198000Y-85198246D01*
X104198000Y-85280250D01*
X104354750Y-85437000D01*
X105477000Y-85437000D01*
X105477000Y-84789750D01*
X105320250Y-84633000D01*
X104763246Y-84633000D01*
X104642111Y-84657095D01*
X104528004Y-84704360D01*
X104425311Y-84772977D01*
X104337977Y-84860311D01*
X104269360Y-84963004D01*
X104222095Y-85077111D01*
X104198000Y-85198246D01*
X103852000Y-85198246D01*
X103852000Y-83252000D01*
X104906317Y-83252000D01*
X104905488Y-83311363D01*
G36*
X107196000Y-76444246D02*
X107196000Y-77476250D01*
X107352750Y-77633000D01*
X108335000Y-77633000D01*
X108335000Y-77613000D01*
X108581000Y-77613000D01*
X108581000Y-77633000D01*
X109563250Y-77633000D01*
X109720000Y-77476250D01*
X109720000Y-76926488D01*
X109732967Y-76939455D01*
X109732967Y-78759426D01*
X109720000Y-78758109D01*
X109720000Y-78035750D01*
X109563250Y-77879000D01*
X108581000Y-77879000D01*
X108581000Y-77899000D01*
X108335000Y-77899000D01*
X108335000Y-77879000D01*
X107352750Y-77879000D01*
X107196000Y-78035750D01*
X107196000Y-78750000D01*
X106172000Y-78750000D01*
X106102874Y-78756778D01*
X106033669Y-78762833D01*
X106029872Y-78763936D01*
X106025936Y-78764322D01*
X105959405Y-78784409D01*
X105892731Y-78803779D01*
X105889223Y-78805597D01*
X105885435Y-78806741D01*
X105824099Y-78839354D01*
X105762432Y-78871319D01*
X105759340Y-78873787D01*
X105755850Y-78875643D01*
X105702038Y-78919531D01*
X105647732Y-78962883D01*
X105642230Y-78968309D01*
X105642115Y-78968403D01*
X105642027Y-78968510D01*
X105640256Y-78970256D01*
X105045033Y-79565479D01*
X105045033Y-79307000D01*
X105035184Y-79207000D01*
X105045033Y-79107000D01*
X105045033Y-78657000D01*
X105035184Y-78557000D01*
X105045033Y-78457000D01*
X105045033Y-78007000D01*
X105035184Y-77907000D01*
X105045033Y-77807000D01*
X105045033Y-77357000D01*
X105035184Y-77257000D01*
X105045033Y-77157000D01*
X105045033Y-76707000D01*
X105035184Y-76607000D01*
X105045033Y-76507000D01*
X105045033Y-76444000D01*
X107196049Y-76444000D01*
X107196000Y-76444246D01*
X107196000Y-76444246D01*
G37*
X107196000Y-76444246D02*
X107196000Y-77476250D01*
X107352750Y-77633000D01*
X108335000Y-77633000D01*
X108335000Y-77613000D01*
X108581000Y-77613000D01*
X108581000Y-77633000D01*
X109563250Y-77633000D01*
X109720000Y-77476250D01*
X109720000Y-76926488D01*
X109732967Y-76939455D01*
X109732967Y-78759426D01*
X109720000Y-78758109D01*
X109720000Y-78035750D01*
X109563250Y-77879000D01*
X108581000Y-77879000D01*
X108581000Y-77899000D01*
X108335000Y-77899000D01*
X108335000Y-77879000D01*
X107352750Y-77879000D01*
X107196000Y-78035750D01*
X107196000Y-78750000D01*
X106172000Y-78750000D01*
X106102874Y-78756778D01*
X106033669Y-78762833D01*
X106029872Y-78763936D01*
X106025936Y-78764322D01*
X105959405Y-78784409D01*
X105892731Y-78803779D01*
X105889223Y-78805597D01*
X105885435Y-78806741D01*
X105824099Y-78839354D01*
X105762432Y-78871319D01*
X105759340Y-78873787D01*
X105755850Y-78875643D01*
X105702038Y-78919531D01*
X105647732Y-78962883D01*
X105642230Y-78968309D01*
X105642115Y-78968403D01*
X105642027Y-78968510D01*
X105640256Y-78970256D01*
X105045033Y-79565479D01*
X105045033Y-79307000D01*
X105035184Y-79207000D01*
X105045033Y-79107000D01*
X105045033Y-78657000D01*
X105035184Y-78557000D01*
X105045033Y-78457000D01*
X105045033Y-78007000D01*
X105035184Y-77907000D01*
X105045033Y-77807000D01*
X105045033Y-77357000D01*
X105035184Y-77257000D01*
X105045033Y-77157000D01*
X105045033Y-76707000D01*
X105035184Y-76607000D01*
X105045033Y-76507000D01*
X105045033Y-76444000D01*
X107196049Y-76444000D01*
X107196000Y-76444246D01*
M02*
