G04 #@! TF.GenerationSoftware,KiCad,Pcbnew,no-vcs-found-200df95~58~ubuntu16.04.1*
G04 #@! TF.CreationDate,2017-05-29T14:46:49+03:00*
G04 #@! TF.ProjectId,ws281x_led_strip_controller,7773323831785F6C65645F7374726970,rev?*
G04 #@! TF.FileFunction,Copper,L2,Bot,Signal*
G04 #@! TF.FilePolarity,Positive*
%FSLAX46Y46*%
G04 Gerber Fmt 4.6, Leading zero omitted, Abs format (unit mm)*
G04 Created by KiCad (PCBNEW no-vcs-found-200df95~58~ubuntu16.04.1) date Mon May 29 14:46:49 2017*
%MOMM*%
%LPD*%
G01*
G04 APERTURE LIST*
%ADD10C,0.100000*%
%ADD11R,5.100000X0.800000*%
%ADD12R,5.100000X1.300000*%
%ADD13R,1.200000X0.750000*%
%ADD14R,0.750000X1.200000*%
%ADD15R,2.500000X1.270000*%
%ADD16R,0.900000X1.200000*%
%ADD17R,1.450000X0.450000*%
%ADD18R,2.500000X1.950000*%
%ADD19R,0.600000X1.550000*%
%ADD20R,1.500000X2.000000*%
%ADD21R,3.800000X2.000000*%
%ADD22R,1.200000X0.900000*%
%ADD23O,1.700000X1.700000*%
%ADD24R,1.700000X1.700000*%
%ADD25R,0.550000X1.500000*%
%ADD26R,1.500000X0.550000*%
%ADD27C,0.800000*%
%ADD28C,0.250000*%
%ADD29C,0.300000*%
%ADD30C,2.500000*%
%ADD31C,1.000000*%
%ADD32C,0.400000*%
%ADD33C,0.254000*%
G04 APERTURE END LIST*
D10*
D11*
X104700000Y-88950000D03*
D12*
X104700000Y-87000000D03*
D11*
X104700000Y-85050000D03*
D13*
X102950000Y-75200000D03*
X104850000Y-75200000D03*
X94950000Y-75700000D03*
X93050000Y-75700000D03*
X92950000Y-91700000D03*
X94850000Y-91700000D03*
D14*
X86500000Y-86550000D03*
X86500000Y-84650000D03*
X86500000Y-82350000D03*
X86500000Y-80450000D03*
D13*
X109050000Y-75200000D03*
X107150000Y-75200000D03*
D15*
X112300000Y-80800000D03*
X112300000Y-78300000D03*
X112300000Y-75760000D03*
X116300000Y-75760000D03*
X116300000Y-78300000D03*
X116300000Y-80840000D03*
D16*
X100400000Y-76900000D03*
X100400000Y-74700000D03*
D17*
X103050000Y-77050000D03*
X103050000Y-77700000D03*
X103050000Y-78350000D03*
X103050000Y-79000000D03*
X103050000Y-79650000D03*
X103050000Y-80300000D03*
X103050000Y-80950000D03*
X108950000Y-80950000D03*
X108950000Y-80300000D03*
X108950000Y-79650000D03*
X108950000Y-79000000D03*
X108950000Y-78350000D03*
X108950000Y-77700000D03*
X108950000Y-77050000D03*
D18*
X78600000Y-85275000D03*
X78600000Y-88325000D03*
X82700000Y-88325000D03*
X82700000Y-85275000D03*
D19*
X113210000Y-83800000D03*
X111940000Y-83800000D03*
X110670000Y-83800000D03*
X109400000Y-83800000D03*
X109400000Y-89200000D03*
X110670000Y-89200000D03*
X111940000Y-89200000D03*
X113210000Y-89200000D03*
D20*
X83400000Y-82050000D03*
X78800000Y-82050000D03*
X81100000Y-82050000D03*
D21*
X81100000Y-75750000D03*
D13*
X116950000Y-83300000D03*
X115050000Y-83300000D03*
D22*
X110800000Y-91700000D03*
X113000000Y-91700000D03*
D23*
X75500000Y-77400000D03*
D24*
X75500000Y-79940000D03*
D23*
X116200000Y-85760000D03*
X116200000Y-88300000D03*
D24*
X116200000Y-90840000D03*
D13*
X102650000Y-83000000D03*
X104550000Y-83000000D03*
D25*
X98400000Y-78000000D03*
X97600000Y-78000000D03*
X96800000Y-78000000D03*
X96000000Y-78000000D03*
X95200000Y-78000000D03*
X94400000Y-78000000D03*
X93600000Y-78000000D03*
X92800000Y-78000000D03*
X92000000Y-78000000D03*
X91200000Y-78000000D03*
X90400000Y-78000000D03*
D26*
X88700000Y-79700000D03*
X88700000Y-80500000D03*
X88700000Y-81300000D03*
X88700000Y-82100000D03*
X88700000Y-82900000D03*
X88700000Y-83700000D03*
X88700000Y-84500000D03*
X88700000Y-85300000D03*
X88700000Y-86100000D03*
X88700000Y-86900000D03*
X88700000Y-87700000D03*
D25*
X90400000Y-89400000D03*
X91200000Y-89400000D03*
X92000000Y-89400000D03*
X92800000Y-89400000D03*
X93600000Y-89400000D03*
X94400000Y-89400000D03*
X95200000Y-89400000D03*
X96000000Y-89400000D03*
X96800000Y-89400000D03*
X97600000Y-89400000D03*
X98400000Y-89400000D03*
D26*
X100100000Y-87700000D03*
X100100000Y-86900000D03*
X100100000Y-86100000D03*
X100100000Y-85300000D03*
X100100000Y-84500000D03*
X100100000Y-83700000D03*
X100100000Y-82900000D03*
X100100000Y-82100000D03*
X100100000Y-81300000D03*
X100100000Y-80500000D03*
X100100000Y-79700000D03*
D27*
X109899931Y-81700000D03*
X90751985Y-80948015D03*
X109200000Y-90700000D03*
X106000000Y-75200000D03*
X97850011Y-81860155D03*
X97800000Y-84100000D03*
X111100000Y-74400000D03*
X110700000Y-87625021D03*
X111800000Y-85300000D03*
X98400000Y-76200000D03*
X98100000Y-80400000D03*
X114200000Y-77100000D03*
X105314920Y-77003273D03*
X105225947Y-81216766D03*
X85800000Y-89100000D03*
X112300000Y-79585024D03*
X112700000Y-86850011D03*
X106000000Y-83500000D03*
X108916747Y-82223856D03*
X114290891Y-81444268D03*
X113800024Y-86200000D03*
X108094274Y-90698271D03*
X99900006Y-90000000D03*
X92200000Y-81300000D03*
X93051985Y-84548015D03*
X95200000Y-79899998D03*
X112400000Y-90700000D03*
X107502627Y-77850010D03*
X107938796Y-81841578D03*
X110227674Y-78917131D03*
X107574922Y-78949713D03*
X109126476Y-92399990D03*
D28*
X104550000Y-83000000D02*
X104550000Y-83625000D01*
X104550000Y-83625000D02*
X104075000Y-84100000D01*
X104075000Y-84100000D02*
X101500000Y-84100000D01*
X101500000Y-84100000D02*
X101100000Y-83700000D01*
X101100000Y-83700000D02*
X100100000Y-83700000D01*
X109925000Y-81674931D02*
X109899931Y-81700000D01*
X109925000Y-81425000D02*
X109925000Y-81674931D01*
X109450000Y-80950000D02*
X109925000Y-81425000D01*
X108950000Y-80950000D02*
X109450000Y-80950000D01*
X88700000Y-83700000D02*
X87700000Y-83700000D01*
X87700000Y-83700000D02*
X87500000Y-83500000D01*
X87500000Y-83500000D02*
X85850000Y-83500000D01*
X85850000Y-83500000D02*
X84400000Y-82050000D01*
X84400000Y-82050000D02*
X83400000Y-82050000D01*
X104700000Y-87000000D02*
X108400000Y-87000000D01*
X108400000Y-87000000D02*
X109400000Y-88000000D01*
X109400000Y-88000000D02*
X109400000Y-89200000D01*
X90751985Y-82648015D02*
X90751985Y-80948015D01*
X88700000Y-83700000D02*
X89700000Y-83700000D01*
X89700000Y-83700000D02*
X90751985Y-82648015D01*
X93600000Y-89400000D02*
X93600000Y-90300000D01*
X93000000Y-91650000D02*
X92950000Y-91700000D01*
X93600000Y-90300000D02*
X93000000Y-90900000D01*
X93000000Y-90900000D02*
X93000000Y-91650000D01*
X109400000Y-90500000D02*
X109200000Y-90700000D01*
X109400000Y-89200000D02*
X109400000Y-90500000D01*
X94950000Y-75700000D02*
X94950000Y-76325000D01*
X94950000Y-76325000D02*
X94400000Y-76875000D01*
X94400000Y-76875000D02*
X94400000Y-78000000D01*
X107150000Y-75200000D02*
X106000000Y-75200000D01*
X95913151Y-81860155D02*
X97850011Y-81860155D01*
X94400000Y-78000000D02*
X94400000Y-80347004D01*
X94400000Y-80347004D02*
X95913151Y-81860155D01*
X94400000Y-78000000D02*
X94549999Y-77850001D01*
X100100000Y-83700000D02*
X98200000Y-83700000D01*
X98200000Y-83700000D02*
X97800000Y-84100000D01*
D29*
X93425000Y-74700000D02*
X93050000Y-75075000D01*
X100400000Y-74700000D02*
X93425000Y-74700000D01*
X93050000Y-75075000D02*
X93050000Y-75700000D01*
X100400000Y-74700000D02*
X102450000Y-74700000D01*
X102450000Y-74700000D02*
X102950000Y-75200000D01*
D30*
X94800000Y-94300000D02*
X110800000Y-94300000D01*
D29*
X115050000Y-83300000D02*
X115050000Y-82090000D01*
X115050000Y-82090000D02*
X116300000Y-80840000D01*
X115050000Y-83300000D02*
X113710000Y-83300000D01*
X113710000Y-83300000D02*
X113210000Y-83800000D01*
X93050000Y-75700000D02*
X93050000Y-76325000D01*
X93600000Y-76875000D02*
X93600000Y-78000000D01*
X93050000Y-76325000D02*
X93600000Y-76875000D01*
D31*
X94850000Y-91700000D02*
X94850000Y-94250000D01*
X94850000Y-94250000D02*
X94800000Y-94300000D01*
D29*
X111220000Y-91280000D02*
X110800000Y-91700000D01*
X111220000Y-90225000D02*
X111220000Y-91280000D01*
X110670000Y-89200000D02*
X110670000Y-89675000D01*
X110670000Y-89675000D02*
X111220000Y-90225000D01*
X95100000Y-82900000D02*
X93600000Y-81400000D01*
X100100000Y-82900000D02*
X95100000Y-82900000D01*
X110670000Y-89200000D02*
X110670000Y-87655021D01*
X110670000Y-87655021D02*
X110700000Y-87625021D01*
X111800000Y-85300000D02*
X111800000Y-83940000D01*
X111800000Y-83940000D02*
X111940000Y-83800000D01*
D30*
X79649998Y-94300000D02*
X94800000Y-94300000D01*
X75500000Y-90150002D02*
X79649998Y-94300000D01*
X75500000Y-85300000D02*
X75500000Y-90150002D01*
D29*
X111940000Y-83800000D02*
X113210000Y-83800000D01*
D31*
X110800000Y-91700000D02*
X110800000Y-94300000D01*
D30*
X110800000Y-94300000D02*
X116090000Y-94300000D01*
D29*
X116090000Y-94300000D02*
X116200000Y-94190000D01*
D30*
X116200000Y-94190000D02*
X116200000Y-90840000D01*
X75500000Y-79940000D02*
X75500000Y-85300000D01*
D31*
X75500000Y-85300000D02*
X78575000Y-85300000D01*
D29*
X78575000Y-85300000D02*
X78600000Y-85275000D01*
X78600000Y-85275000D02*
X78600000Y-82250000D01*
X78600000Y-82250000D02*
X78800000Y-82050000D01*
X93600000Y-78000000D02*
X93600000Y-81400000D01*
X93600000Y-81400000D02*
X90500000Y-84500000D01*
X88700000Y-84500000D02*
X90500000Y-84500000D01*
X90500000Y-84500000D02*
X94400000Y-88400000D01*
X94400000Y-88400000D02*
X94400000Y-89400000D01*
X94400000Y-89400000D02*
X94400000Y-91250000D01*
X94400000Y-91250000D02*
X94850000Y-91700000D01*
X103050000Y-77050000D02*
X103050000Y-75300000D01*
X103050000Y-75300000D02*
X102950000Y-75200000D01*
X88700000Y-84500000D02*
X86650000Y-84500000D01*
X86650000Y-84500000D02*
X86500000Y-84650000D01*
X102650000Y-83000000D02*
X100200000Y-83000000D01*
X100200000Y-83000000D02*
X100100000Y-82900000D01*
D28*
X87150000Y-82350000D02*
X86500000Y-82350000D01*
X87700000Y-82900000D02*
X87150000Y-82350000D01*
X88700000Y-82900000D02*
X87700000Y-82900000D01*
X98100000Y-80965685D02*
X98100000Y-80400000D01*
X100100000Y-82100000D02*
X99234315Y-82100000D01*
X99234315Y-82100000D02*
X98100000Y-80965685D01*
X98400000Y-76200000D02*
X99700000Y-76200000D01*
X99700000Y-76200000D02*
X100400000Y-76900000D01*
X114200000Y-77100000D02*
X113640000Y-77100000D01*
X113640000Y-77100000D02*
X112300000Y-75760000D01*
D29*
X108950000Y-77050000D02*
X105361647Y-77050000D01*
X105361647Y-77050000D02*
X105314920Y-77003273D01*
X81100000Y-82050000D02*
X81100000Y-80800000D01*
X88175001Y-73724999D02*
X107349999Y-73724999D01*
X81100000Y-80800000D02*
X88175001Y-73724999D01*
X107349999Y-73724999D02*
X108825000Y-75200000D01*
X108825000Y-75200000D02*
X109050000Y-75200000D01*
X104959181Y-80950000D02*
X105225947Y-81216766D01*
X103050000Y-80950000D02*
X104959181Y-80950000D01*
X85800000Y-89100000D02*
X85800000Y-88100000D01*
X85800000Y-88100000D02*
X82975000Y-85275000D01*
X82975000Y-85275000D02*
X82700000Y-85275000D01*
D32*
X81100000Y-82050000D02*
X81100000Y-83675000D01*
X81100000Y-83675000D02*
X82700000Y-85275000D01*
D29*
X109050000Y-75200000D02*
X109050000Y-76950000D01*
X109050000Y-76950000D02*
X108950000Y-77050000D01*
D28*
X103050000Y-79000000D02*
X105200000Y-79000000D01*
X105200000Y-79000000D02*
X106527263Y-80327263D01*
X110542889Y-86850011D02*
X112700000Y-86850011D01*
X106527263Y-80327263D02*
X106527263Y-82834385D01*
X106527263Y-82834385D02*
X110542889Y-86850011D01*
X101100000Y-80500000D02*
X100100000Y-80500000D01*
X103050000Y-79000000D02*
X102075000Y-79000000D01*
X102075000Y-79000000D02*
X102074978Y-79000022D01*
X101400000Y-79492878D02*
X101400000Y-80200000D01*
X102074978Y-79000022D02*
X101892856Y-79000022D01*
X101892856Y-79000022D02*
X101400000Y-79492878D01*
X101400000Y-80200000D02*
X101100000Y-80500000D01*
X112300000Y-80800000D02*
X112300000Y-79585024D01*
X111940000Y-87610011D02*
X112700000Y-86850011D01*
X111940000Y-89200000D02*
X111940000Y-87610011D01*
X106000949Y-82933366D02*
X106000000Y-82934315D01*
X104806185Y-79650000D02*
X106000949Y-80844764D01*
X106000949Y-80844764D02*
X106000949Y-82933366D01*
X106000000Y-82934315D02*
X106000000Y-83500000D01*
X103050000Y-79650000D02*
X104806185Y-79650000D01*
X108916747Y-82223856D02*
X109192891Y-82500000D01*
X109192891Y-82500000D02*
X110600000Y-82500000D01*
X110600000Y-82500000D02*
X110670000Y-82570000D01*
X110670000Y-82570000D02*
X110670000Y-83800000D01*
X110674999Y-83320001D02*
X110670000Y-83325000D01*
X112300000Y-78300000D02*
X110674999Y-79925001D01*
X110674999Y-79925001D02*
X110674999Y-83320001D01*
X101100000Y-81300000D02*
X100100000Y-81300000D01*
X101900011Y-79824989D02*
X101900011Y-80499989D01*
X102075000Y-79650000D02*
X101900011Y-79824989D01*
X103050000Y-79650000D02*
X102075000Y-79650000D01*
X101900011Y-80499989D02*
X101100000Y-81300000D01*
X109400000Y-83800000D02*
X108400000Y-83800000D01*
X108400000Y-83800000D02*
X107027274Y-82427274D01*
X107027274Y-82427274D02*
X107027274Y-79920152D01*
X107027274Y-79920152D02*
X105457122Y-78350000D01*
X105457122Y-78350000D02*
X103050000Y-78350000D01*
X101750000Y-78350000D02*
X103050000Y-78350000D01*
X100100000Y-79700000D02*
X100400000Y-79700000D01*
X100400000Y-79700000D02*
X101750000Y-78350000D01*
X114290891Y-79694109D02*
X114290891Y-81444268D01*
X116300000Y-78300000D02*
X115685000Y-78300000D01*
X115685000Y-78300000D02*
X114290891Y-79694109D01*
X109400000Y-84275000D02*
X111200001Y-86075001D01*
X109400000Y-83800000D02*
X109400000Y-84275000D01*
X111200001Y-86075001D02*
X113675025Y-86075001D01*
X113675025Y-86075001D02*
X113800024Y-86200000D01*
X99900006Y-90000000D02*
X100600006Y-90700000D01*
X108092545Y-90700000D02*
X108094274Y-90698271D01*
X100600006Y-90700000D02*
X108092545Y-90700000D01*
X90400000Y-78000000D02*
X90400000Y-79500000D01*
X90400000Y-79500000D02*
X92200000Y-81300000D01*
X100100000Y-87700000D02*
X96203970Y-87700000D01*
X96203970Y-87700000D02*
X93051985Y-84548015D01*
X101392878Y-78000000D02*
X98400000Y-78000000D01*
X101692878Y-77700000D02*
X101392878Y-78000000D01*
X103050000Y-77700000D02*
X101692878Y-77700000D01*
X113210000Y-89200000D02*
X113210000Y-90700000D01*
X113210000Y-90700000D02*
X113210000Y-91490000D01*
X112400000Y-90700000D02*
X113210000Y-90700000D01*
X95200000Y-78000000D02*
X95200000Y-79899998D01*
X113210000Y-91490000D02*
X113000000Y-91700000D01*
X107652637Y-77700000D02*
X107502627Y-77850010D01*
X108950000Y-77700000D02*
X107652637Y-77700000D01*
X107975000Y-79650000D02*
X107538797Y-80086203D01*
X108950000Y-79650000D02*
X107975000Y-79650000D01*
X107538797Y-80086203D02*
X107538797Y-81441579D01*
X107538797Y-81441579D02*
X107938796Y-81841578D01*
X108950000Y-79000000D02*
X110144805Y-79000000D01*
X110144805Y-79000000D02*
X110227674Y-78917131D01*
X108950000Y-78350000D02*
X108100018Y-78350000D01*
X108100018Y-78350000D02*
X107574922Y-78875096D01*
X107574922Y-78875096D02*
X107574922Y-78949713D01*
X100924990Y-92399990D02*
X109126476Y-92399990D01*
X98400000Y-89400000D02*
X98400000Y-89875000D01*
X98400000Y-89875000D02*
X100924990Y-92399990D01*
X104700000Y-88950000D02*
X102550000Y-88950000D01*
X101100000Y-85300000D02*
X100100000Y-85300000D01*
X102550000Y-88950000D02*
X101500000Y-87900000D01*
X101500000Y-87900000D02*
X101500000Y-85700000D01*
X101500000Y-85700000D02*
X101100000Y-85300000D01*
X104700000Y-85050000D02*
X101650000Y-85050000D01*
X101650000Y-85050000D02*
X101100000Y-84500000D01*
X101100000Y-84500000D02*
X100100000Y-84500000D01*
D33*
G36*
X92571289Y-74596289D02*
X92531609Y-74644596D01*
X92491398Y-74692517D01*
X92489683Y-74695637D01*
X92487423Y-74698388D01*
X92457867Y-74753509D01*
X92433940Y-74797033D01*
X92346690Y-74805626D01*
X92247350Y-74835761D01*
X92155798Y-74884696D01*
X92075552Y-74950552D01*
X92009696Y-75030798D01*
X91960761Y-75122350D01*
X91930626Y-75221690D01*
X91920451Y-75325000D01*
X91920451Y-76075000D01*
X91930626Y-76178310D01*
X91960761Y-76277650D01*
X92009696Y-76369202D01*
X92075552Y-76449448D01*
X92155798Y-76515304D01*
X92247350Y-76564239D01*
X92346690Y-76594374D01*
X92434749Y-76603047D01*
X92453451Y-76638219D01*
X92482220Y-76693721D01*
X92484441Y-76696503D01*
X92486112Y-76699646D01*
X92504710Y-76722449D01*
X92421690Y-76730626D01*
X92400000Y-76737206D01*
X92378310Y-76730626D01*
X92275000Y-76720451D01*
X91725000Y-76720451D01*
X91621690Y-76730626D01*
X91600000Y-76737206D01*
X91578310Y-76730626D01*
X91475000Y-76720451D01*
X90925000Y-76720451D01*
X90821690Y-76730626D01*
X90800000Y-76737206D01*
X90778310Y-76730626D01*
X90675000Y-76720451D01*
X90125000Y-76720451D01*
X90021690Y-76730626D01*
X89922350Y-76760761D01*
X89830798Y-76809696D01*
X89750552Y-76875552D01*
X89684696Y-76955798D01*
X89635761Y-77047350D01*
X89605626Y-77146690D01*
X89595451Y-77250000D01*
X89595451Y-78750000D01*
X89605626Y-78853310D01*
X89628407Y-78928407D01*
X89553310Y-78905626D01*
X89450000Y-78895451D01*
X87950000Y-78895451D01*
X87846690Y-78905626D01*
X87747350Y-78935761D01*
X87655798Y-78984696D01*
X87575552Y-79050552D01*
X87509696Y-79130798D01*
X87460761Y-79222350D01*
X87430626Y-79321690D01*
X87420451Y-79425000D01*
X87420451Y-79975000D01*
X87430626Y-80078310D01*
X87437206Y-80100000D01*
X87430626Y-80121690D01*
X87420451Y-80225000D01*
X87420451Y-80775000D01*
X87430626Y-80878310D01*
X87437206Y-80900000D01*
X87430626Y-80921690D01*
X87420451Y-81025000D01*
X87420451Y-81575000D01*
X87430626Y-81678310D01*
X87437206Y-81700000D01*
X87430626Y-81721690D01*
X87426692Y-81761632D01*
X87406850Y-81750724D01*
X87404548Y-81749994D01*
X87394374Y-81646690D01*
X87364239Y-81547350D01*
X87315304Y-81455798D01*
X87269863Y-81400428D01*
X87284348Y-81385943D01*
X87342021Y-81299628D01*
X87381748Y-81203720D01*
X87402000Y-81101905D01*
X87402000Y-80654750D01*
X87270250Y-80523000D01*
X86573000Y-80523000D01*
X86573000Y-80543000D01*
X86427000Y-80543000D01*
X86427000Y-80523000D01*
X85729750Y-80523000D01*
X85598000Y-80654750D01*
X85598000Y-81101905D01*
X85618252Y-81203720D01*
X85657979Y-81299628D01*
X85715652Y-81385943D01*
X85730137Y-81400428D01*
X85684696Y-81455798D01*
X85635761Y-81547350D01*
X85605626Y-81646690D01*
X85595451Y-81750000D01*
X85595451Y-82950000D01*
X85605626Y-83053310D01*
X85635761Y-83152650D01*
X85684696Y-83244202D01*
X85750552Y-83324448D01*
X85830798Y-83390304D01*
X85922350Y-83439239D01*
X86021690Y-83469374D01*
X86125000Y-83479549D01*
X86875000Y-83479549D01*
X86978310Y-83469374D01*
X87077650Y-83439239D01*
X87169202Y-83390304D01*
X87223597Y-83345664D01*
X87238966Y-83361033D01*
X87285535Y-83399285D01*
X87331642Y-83437974D01*
X87334644Y-83439624D01*
X87337295Y-83441802D01*
X87390411Y-83470283D01*
X87423000Y-83488198D01*
X87423000Y-83495250D01*
X87554750Y-83627000D01*
X87677680Y-83627000D01*
X87747350Y-83664239D01*
X87846690Y-83694374D01*
X87903813Y-83700000D01*
X87846690Y-83705626D01*
X87747350Y-83735761D01*
X87677680Y-83773000D01*
X87554750Y-83773000D01*
X87504750Y-83823000D01*
X87351224Y-83823000D01*
X87315304Y-83755798D01*
X87249448Y-83675552D01*
X87169202Y-83609696D01*
X87077650Y-83560761D01*
X86978310Y-83530626D01*
X86875000Y-83520451D01*
X86125000Y-83520451D01*
X86021690Y-83530626D01*
X85922350Y-83560761D01*
X85830798Y-83609696D01*
X85750552Y-83675552D01*
X85684696Y-83755798D01*
X85635761Y-83847350D01*
X85605626Y-83946690D01*
X85595451Y-84050000D01*
X85595451Y-85250000D01*
X85605626Y-85353310D01*
X85635761Y-85452650D01*
X85684696Y-85544202D01*
X85730137Y-85599572D01*
X85715652Y-85614057D01*
X85657979Y-85700372D01*
X85618252Y-85796280D01*
X85598000Y-85898095D01*
X85598000Y-86345250D01*
X85729750Y-86477000D01*
X86427000Y-86477000D01*
X86427000Y-86457000D01*
X86573000Y-86457000D01*
X86573000Y-86477000D01*
X87270250Y-86477000D01*
X87402000Y-86345250D01*
X87402000Y-85898095D01*
X87381748Y-85796280D01*
X87342021Y-85700372D01*
X87284348Y-85614057D01*
X87269863Y-85599572D01*
X87315304Y-85544202D01*
X87364239Y-85452650D01*
X87394374Y-85353310D01*
X87404549Y-85250000D01*
X87404549Y-85177000D01*
X87420451Y-85177000D01*
X87420451Y-85575000D01*
X87430626Y-85678310D01*
X87437206Y-85700000D01*
X87430626Y-85721690D01*
X87420451Y-85825000D01*
X87420451Y-86375000D01*
X87430626Y-86478310D01*
X87437206Y-86500000D01*
X87430626Y-86521690D01*
X87420451Y-86625000D01*
X87420451Y-87175000D01*
X87430626Y-87278310D01*
X87437206Y-87300000D01*
X87430626Y-87321690D01*
X87420451Y-87425000D01*
X87420451Y-87975000D01*
X87430626Y-88078310D01*
X87460761Y-88177650D01*
X87509696Y-88269202D01*
X87575552Y-88349448D01*
X87655798Y-88415304D01*
X87747350Y-88464239D01*
X87846690Y-88494374D01*
X87950000Y-88504549D01*
X89450000Y-88504549D01*
X89553310Y-88494374D01*
X89628407Y-88471593D01*
X89605626Y-88546690D01*
X89595451Y-88650000D01*
X89595451Y-90150000D01*
X89605626Y-90253310D01*
X89635761Y-90352650D01*
X89684696Y-90444202D01*
X89750552Y-90524448D01*
X89830798Y-90590304D01*
X89922350Y-90639239D01*
X90021690Y-90669374D01*
X90125000Y-90679549D01*
X90675000Y-90679549D01*
X90778310Y-90669374D01*
X90800000Y-90662794D01*
X90821690Y-90669374D01*
X90925000Y-90679549D01*
X91475000Y-90679549D01*
X91578310Y-90669374D01*
X91600000Y-90662794D01*
X91621690Y-90669374D01*
X91725000Y-90679549D01*
X92275000Y-90679549D01*
X92378310Y-90669374D01*
X92400000Y-90662794D01*
X92421690Y-90669374D01*
X92525000Y-90679549D01*
X93075000Y-90679549D01*
X93178310Y-90669374D01*
X93200664Y-90662593D01*
X93273095Y-90677000D01*
X93395250Y-90677000D01*
X93527000Y-90545250D01*
X93527000Y-90422320D01*
X93564239Y-90352650D01*
X93594374Y-90253310D01*
X93600000Y-90196187D01*
X93605626Y-90253310D01*
X93635761Y-90352650D01*
X93673000Y-90422320D01*
X93673000Y-90545250D01*
X93723000Y-90595250D01*
X93723000Y-90826238D01*
X93703720Y-90818252D01*
X93601905Y-90798000D01*
X93154750Y-90798000D01*
X93023000Y-90929750D01*
X93023000Y-91627000D01*
X93043000Y-91627000D01*
X93043000Y-91773000D01*
X93023000Y-91773000D01*
X93023000Y-91793000D01*
X92877000Y-91793000D01*
X92877000Y-91773000D01*
X91954750Y-91773000D01*
X91823000Y-91904750D01*
X91823000Y-92126905D01*
X91843252Y-92228720D01*
X91882979Y-92324628D01*
X91940652Y-92410943D01*
X92014057Y-92484348D01*
X92071905Y-92523000D01*
X80386055Y-92523000D01*
X79136151Y-91273095D01*
X91823000Y-91273095D01*
X91823000Y-91495250D01*
X91954750Y-91627000D01*
X92877000Y-91627000D01*
X92877000Y-90929750D01*
X92745250Y-90798000D01*
X92298095Y-90798000D01*
X92196280Y-90818252D01*
X92100372Y-90857979D01*
X92014057Y-90915652D01*
X91940652Y-90989057D01*
X91882979Y-91075372D01*
X91843252Y-91171280D01*
X91823000Y-91273095D01*
X79136151Y-91273095D01*
X77690056Y-89827000D01*
X78395250Y-89827000D01*
X78527000Y-89695250D01*
X78527000Y-88398000D01*
X78673000Y-88398000D01*
X78673000Y-89695250D01*
X78804750Y-89827000D01*
X79901905Y-89827000D01*
X80003720Y-89806748D01*
X80099628Y-89767021D01*
X80185943Y-89709348D01*
X80259348Y-89635943D01*
X80317021Y-89549628D01*
X80356748Y-89453720D01*
X80377000Y-89351905D01*
X80377000Y-88529750D01*
X80923000Y-88529750D01*
X80923000Y-89351905D01*
X80943252Y-89453720D01*
X80982979Y-89549628D01*
X81040652Y-89635943D01*
X81114057Y-89709348D01*
X81200372Y-89767021D01*
X81296280Y-89806748D01*
X81398095Y-89827000D01*
X82495250Y-89827000D01*
X82627000Y-89695250D01*
X82627000Y-88398000D01*
X82773000Y-88398000D01*
X82773000Y-89695250D01*
X82904750Y-89827000D01*
X84001905Y-89827000D01*
X84103720Y-89806748D01*
X84199628Y-89767021D01*
X84285943Y-89709348D01*
X84359348Y-89635943D01*
X84417021Y-89549628D01*
X84456748Y-89453720D01*
X84477000Y-89351905D01*
X84477000Y-88529750D01*
X84345250Y-88398000D01*
X82773000Y-88398000D01*
X82627000Y-88398000D01*
X81054750Y-88398000D01*
X80923000Y-88529750D01*
X80377000Y-88529750D01*
X80245250Y-88398000D01*
X78673000Y-88398000D01*
X78527000Y-88398000D01*
X78507000Y-88398000D01*
X78507000Y-88252000D01*
X78527000Y-88252000D01*
X78527000Y-86954750D01*
X78673000Y-86954750D01*
X78673000Y-88252000D01*
X80245250Y-88252000D01*
X80377000Y-88120250D01*
X80377000Y-87298095D01*
X80923000Y-87298095D01*
X80923000Y-88120250D01*
X81054750Y-88252000D01*
X82627000Y-88252000D01*
X82627000Y-86954750D01*
X82495250Y-86823000D01*
X81398095Y-86823000D01*
X81296280Y-86843252D01*
X81200372Y-86882979D01*
X81114057Y-86940652D01*
X81040652Y-87014057D01*
X80982979Y-87100372D01*
X80943252Y-87196280D01*
X80923000Y-87298095D01*
X80377000Y-87298095D01*
X80356748Y-87196280D01*
X80317021Y-87100372D01*
X80259348Y-87014057D01*
X80185943Y-86940652D01*
X80099628Y-86882979D01*
X80003720Y-86843252D01*
X79901905Y-86823000D01*
X78804750Y-86823000D01*
X78673000Y-86954750D01*
X78527000Y-86954750D01*
X78395250Y-86823000D01*
X77298095Y-86823000D01*
X77277000Y-86827196D01*
X77277000Y-86772359D01*
X77350000Y-86779549D01*
X79850000Y-86779549D01*
X79953310Y-86769374D01*
X80052650Y-86739239D01*
X80144202Y-86690304D01*
X80224448Y-86624448D01*
X80290304Y-86544202D01*
X80339239Y-86452650D01*
X80369374Y-86353310D01*
X80379549Y-86250000D01*
X80379549Y-84300000D01*
X80369374Y-84196690D01*
X80339239Y-84097350D01*
X80290304Y-84005798D01*
X80224448Y-83925552D01*
X80144202Y-83859696D01*
X80052650Y-83810761D01*
X79953310Y-83780626D01*
X79850000Y-83770451D01*
X79277000Y-83770451D01*
X79277000Y-83579549D01*
X79550000Y-83579549D01*
X79653310Y-83569374D01*
X79752650Y-83539239D01*
X79844202Y-83490304D01*
X79924448Y-83424448D01*
X79950000Y-83393313D01*
X79975552Y-83424448D01*
X80055798Y-83490304D01*
X80147350Y-83539239D01*
X80246690Y-83569374D01*
X80350000Y-83579549D01*
X80373000Y-83579549D01*
X80373000Y-83675000D01*
X80379552Y-83741819D01*
X80385406Y-83808733D01*
X80386473Y-83812406D01*
X80386846Y-83816208D01*
X80406251Y-83880482D01*
X80424991Y-83944984D01*
X80426750Y-83948377D01*
X80427855Y-83952038D01*
X80459414Y-84011392D01*
X80490287Y-84070952D01*
X80492668Y-84073935D01*
X80494466Y-84077316D01*
X80536946Y-84129401D01*
X80578806Y-84181839D01*
X80584055Y-84187163D01*
X80584142Y-84187269D01*
X80584240Y-84187350D01*
X80585933Y-84189067D01*
X80920451Y-84523585D01*
X80920451Y-86250000D01*
X80930626Y-86353310D01*
X80960761Y-86452650D01*
X81009696Y-86544202D01*
X81075552Y-86624448D01*
X81155798Y-86690304D01*
X81247350Y-86739239D01*
X81346690Y-86769374D01*
X81450000Y-86779549D01*
X83522127Y-86779549D01*
X83565578Y-86823000D01*
X82904750Y-86823000D01*
X82773000Y-86954750D01*
X82773000Y-88252000D01*
X84345250Y-88252000D01*
X84477000Y-88120250D01*
X84477000Y-87734423D01*
X85123000Y-88380423D01*
X85123000Y-88465452D01*
X85086441Y-88501253D01*
X84983733Y-88651254D01*
X84912117Y-88818347D01*
X84874320Y-88996168D01*
X84871782Y-89177945D01*
X84904599Y-89356752D01*
X84971522Y-89525780D01*
X85070001Y-89678590D01*
X85196286Y-89809362D01*
X85345566Y-89913114D01*
X85512155Y-89985895D01*
X85689708Y-90024932D01*
X85871463Y-90028740D01*
X86050495Y-89997171D01*
X86219986Y-89931430D01*
X86373479Y-89834020D01*
X86505130Y-89708651D01*
X86609921Y-89560099D01*
X86683864Y-89394022D01*
X86724140Y-89216746D01*
X86727039Y-89009103D01*
X86691729Y-88830771D01*
X86622452Y-88662694D01*
X86521849Y-88511274D01*
X86477000Y-88466111D01*
X86477000Y-88100000D01*
X86470896Y-88037740D01*
X86465447Y-87975465D01*
X86464455Y-87972050D01*
X86464107Y-87968503D01*
X86446018Y-87908591D01*
X86428585Y-87848584D01*
X86426948Y-87845425D01*
X86425918Y-87842015D01*
X86396549Y-87786781D01*
X86367780Y-87731279D01*
X86365559Y-87728497D01*
X86363888Y-87725354D01*
X86324372Y-87676903D01*
X86311487Y-87660763D01*
X86427000Y-87545250D01*
X86427000Y-86623000D01*
X86573000Y-86623000D01*
X86573000Y-87545250D01*
X86704750Y-87677000D01*
X86926905Y-87677000D01*
X87028720Y-87656748D01*
X87124628Y-87617021D01*
X87210943Y-87559348D01*
X87284348Y-87485943D01*
X87342021Y-87399628D01*
X87381748Y-87303720D01*
X87402000Y-87201905D01*
X87402000Y-86754750D01*
X87270250Y-86623000D01*
X86573000Y-86623000D01*
X86427000Y-86623000D01*
X85729750Y-86623000D01*
X85598000Y-86754750D01*
X85598000Y-86940577D01*
X84479549Y-85822127D01*
X84479549Y-84300000D01*
X84469374Y-84196690D01*
X84439239Y-84097350D01*
X84390304Y-84005798D01*
X84324448Y-83925552D01*
X84244202Y-83859696D01*
X84152650Y-83810761D01*
X84053310Y-83780626D01*
X83950000Y-83770451D01*
X82223585Y-83770451D01*
X82006402Y-83553268D01*
X82052650Y-83539239D01*
X82144202Y-83490304D01*
X82224448Y-83424448D01*
X82249108Y-83394399D01*
X82314057Y-83459348D01*
X82400372Y-83517021D01*
X82496280Y-83556748D01*
X82598095Y-83577000D01*
X83195250Y-83577000D01*
X83327000Y-83445250D01*
X83327000Y-82123000D01*
X83473000Y-82123000D01*
X83473000Y-83445250D01*
X83604750Y-83577000D01*
X84201905Y-83577000D01*
X84303720Y-83556748D01*
X84399628Y-83517021D01*
X84485943Y-83459348D01*
X84559348Y-83385943D01*
X84617021Y-83299628D01*
X84656748Y-83203720D01*
X84677000Y-83101905D01*
X84677000Y-82254750D01*
X84545250Y-82123000D01*
X83473000Y-82123000D01*
X83327000Y-82123000D01*
X83307000Y-82123000D01*
X83307000Y-81977000D01*
X83327000Y-81977000D01*
X83327000Y-80654750D01*
X83473000Y-80654750D01*
X83473000Y-81977000D01*
X84545250Y-81977000D01*
X84677000Y-81845250D01*
X84677000Y-80998095D01*
X84656748Y-80896280D01*
X84617021Y-80800372D01*
X84559348Y-80714057D01*
X84485943Y-80640652D01*
X84399628Y-80582979D01*
X84303720Y-80543252D01*
X84201905Y-80523000D01*
X83604750Y-80523000D01*
X83473000Y-80654750D01*
X83327000Y-80654750D01*
X83195250Y-80523000D01*
X82598095Y-80523000D01*
X82496280Y-80543252D01*
X82400372Y-80582979D01*
X82314057Y-80640652D01*
X82249108Y-80705601D01*
X82224448Y-80675552D01*
X82201062Y-80656360D01*
X83059327Y-79798095D01*
X85598000Y-79798095D01*
X85598000Y-80245250D01*
X85729750Y-80377000D01*
X86427000Y-80377000D01*
X86427000Y-79454750D01*
X86573000Y-79454750D01*
X86573000Y-80377000D01*
X87270250Y-80377000D01*
X87402000Y-80245250D01*
X87402000Y-79798095D01*
X87381748Y-79696280D01*
X87342021Y-79600372D01*
X87284348Y-79514057D01*
X87210943Y-79440652D01*
X87124628Y-79382979D01*
X87028720Y-79343252D01*
X86926905Y-79323000D01*
X86704750Y-79323000D01*
X86573000Y-79454750D01*
X86427000Y-79454750D01*
X86295250Y-79323000D01*
X86073095Y-79323000D01*
X85971280Y-79343252D01*
X85875372Y-79382979D01*
X85789057Y-79440652D01*
X85715652Y-79514057D01*
X85657979Y-79600372D01*
X85618252Y-79696280D01*
X85598000Y-79798095D01*
X83059327Y-79798095D01*
X88455424Y-74401999D01*
X92765579Y-74401999D01*
X92571289Y-74596289D01*
X92571289Y-74596289D01*
G37*
X92571289Y-74596289D02*
X92531609Y-74644596D01*
X92491398Y-74692517D01*
X92489683Y-74695637D01*
X92487423Y-74698388D01*
X92457867Y-74753509D01*
X92433940Y-74797033D01*
X92346690Y-74805626D01*
X92247350Y-74835761D01*
X92155798Y-74884696D01*
X92075552Y-74950552D01*
X92009696Y-75030798D01*
X91960761Y-75122350D01*
X91930626Y-75221690D01*
X91920451Y-75325000D01*
X91920451Y-76075000D01*
X91930626Y-76178310D01*
X91960761Y-76277650D01*
X92009696Y-76369202D01*
X92075552Y-76449448D01*
X92155798Y-76515304D01*
X92247350Y-76564239D01*
X92346690Y-76594374D01*
X92434749Y-76603047D01*
X92453451Y-76638219D01*
X92482220Y-76693721D01*
X92484441Y-76696503D01*
X92486112Y-76699646D01*
X92504710Y-76722449D01*
X92421690Y-76730626D01*
X92400000Y-76737206D01*
X92378310Y-76730626D01*
X92275000Y-76720451D01*
X91725000Y-76720451D01*
X91621690Y-76730626D01*
X91600000Y-76737206D01*
X91578310Y-76730626D01*
X91475000Y-76720451D01*
X90925000Y-76720451D01*
X90821690Y-76730626D01*
X90800000Y-76737206D01*
X90778310Y-76730626D01*
X90675000Y-76720451D01*
X90125000Y-76720451D01*
X90021690Y-76730626D01*
X89922350Y-76760761D01*
X89830798Y-76809696D01*
X89750552Y-76875552D01*
X89684696Y-76955798D01*
X89635761Y-77047350D01*
X89605626Y-77146690D01*
X89595451Y-77250000D01*
X89595451Y-78750000D01*
X89605626Y-78853310D01*
X89628407Y-78928407D01*
X89553310Y-78905626D01*
X89450000Y-78895451D01*
X87950000Y-78895451D01*
X87846690Y-78905626D01*
X87747350Y-78935761D01*
X87655798Y-78984696D01*
X87575552Y-79050552D01*
X87509696Y-79130798D01*
X87460761Y-79222350D01*
X87430626Y-79321690D01*
X87420451Y-79425000D01*
X87420451Y-79975000D01*
X87430626Y-80078310D01*
X87437206Y-80100000D01*
X87430626Y-80121690D01*
X87420451Y-80225000D01*
X87420451Y-80775000D01*
X87430626Y-80878310D01*
X87437206Y-80900000D01*
X87430626Y-80921690D01*
X87420451Y-81025000D01*
X87420451Y-81575000D01*
X87430626Y-81678310D01*
X87437206Y-81700000D01*
X87430626Y-81721690D01*
X87426692Y-81761632D01*
X87406850Y-81750724D01*
X87404548Y-81749994D01*
X87394374Y-81646690D01*
X87364239Y-81547350D01*
X87315304Y-81455798D01*
X87269863Y-81400428D01*
X87284348Y-81385943D01*
X87342021Y-81299628D01*
X87381748Y-81203720D01*
X87402000Y-81101905D01*
X87402000Y-80654750D01*
X87270250Y-80523000D01*
X86573000Y-80523000D01*
X86573000Y-80543000D01*
X86427000Y-80543000D01*
X86427000Y-80523000D01*
X85729750Y-80523000D01*
X85598000Y-80654750D01*
X85598000Y-81101905D01*
X85618252Y-81203720D01*
X85657979Y-81299628D01*
X85715652Y-81385943D01*
X85730137Y-81400428D01*
X85684696Y-81455798D01*
X85635761Y-81547350D01*
X85605626Y-81646690D01*
X85595451Y-81750000D01*
X85595451Y-82950000D01*
X85605626Y-83053310D01*
X85635761Y-83152650D01*
X85684696Y-83244202D01*
X85750552Y-83324448D01*
X85830798Y-83390304D01*
X85922350Y-83439239D01*
X86021690Y-83469374D01*
X86125000Y-83479549D01*
X86875000Y-83479549D01*
X86978310Y-83469374D01*
X87077650Y-83439239D01*
X87169202Y-83390304D01*
X87223597Y-83345664D01*
X87238966Y-83361033D01*
X87285535Y-83399285D01*
X87331642Y-83437974D01*
X87334644Y-83439624D01*
X87337295Y-83441802D01*
X87390411Y-83470283D01*
X87423000Y-83488198D01*
X87423000Y-83495250D01*
X87554750Y-83627000D01*
X87677680Y-83627000D01*
X87747350Y-83664239D01*
X87846690Y-83694374D01*
X87903813Y-83700000D01*
X87846690Y-83705626D01*
X87747350Y-83735761D01*
X87677680Y-83773000D01*
X87554750Y-83773000D01*
X87504750Y-83823000D01*
X87351224Y-83823000D01*
X87315304Y-83755798D01*
X87249448Y-83675552D01*
X87169202Y-83609696D01*
X87077650Y-83560761D01*
X86978310Y-83530626D01*
X86875000Y-83520451D01*
X86125000Y-83520451D01*
X86021690Y-83530626D01*
X85922350Y-83560761D01*
X85830798Y-83609696D01*
X85750552Y-83675552D01*
X85684696Y-83755798D01*
X85635761Y-83847350D01*
X85605626Y-83946690D01*
X85595451Y-84050000D01*
X85595451Y-85250000D01*
X85605626Y-85353310D01*
X85635761Y-85452650D01*
X85684696Y-85544202D01*
X85730137Y-85599572D01*
X85715652Y-85614057D01*
X85657979Y-85700372D01*
X85618252Y-85796280D01*
X85598000Y-85898095D01*
X85598000Y-86345250D01*
X85729750Y-86477000D01*
X86427000Y-86477000D01*
X86427000Y-86457000D01*
X86573000Y-86457000D01*
X86573000Y-86477000D01*
X87270250Y-86477000D01*
X87402000Y-86345250D01*
X87402000Y-85898095D01*
X87381748Y-85796280D01*
X87342021Y-85700372D01*
X87284348Y-85614057D01*
X87269863Y-85599572D01*
X87315304Y-85544202D01*
X87364239Y-85452650D01*
X87394374Y-85353310D01*
X87404549Y-85250000D01*
X87404549Y-85177000D01*
X87420451Y-85177000D01*
X87420451Y-85575000D01*
X87430626Y-85678310D01*
X87437206Y-85700000D01*
X87430626Y-85721690D01*
X87420451Y-85825000D01*
X87420451Y-86375000D01*
X87430626Y-86478310D01*
X87437206Y-86500000D01*
X87430626Y-86521690D01*
X87420451Y-86625000D01*
X87420451Y-87175000D01*
X87430626Y-87278310D01*
X87437206Y-87300000D01*
X87430626Y-87321690D01*
X87420451Y-87425000D01*
X87420451Y-87975000D01*
X87430626Y-88078310D01*
X87460761Y-88177650D01*
X87509696Y-88269202D01*
X87575552Y-88349448D01*
X87655798Y-88415304D01*
X87747350Y-88464239D01*
X87846690Y-88494374D01*
X87950000Y-88504549D01*
X89450000Y-88504549D01*
X89553310Y-88494374D01*
X89628407Y-88471593D01*
X89605626Y-88546690D01*
X89595451Y-88650000D01*
X89595451Y-90150000D01*
X89605626Y-90253310D01*
X89635761Y-90352650D01*
X89684696Y-90444202D01*
X89750552Y-90524448D01*
X89830798Y-90590304D01*
X89922350Y-90639239D01*
X90021690Y-90669374D01*
X90125000Y-90679549D01*
X90675000Y-90679549D01*
X90778310Y-90669374D01*
X90800000Y-90662794D01*
X90821690Y-90669374D01*
X90925000Y-90679549D01*
X91475000Y-90679549D01*
X91578310Y-90669374D01*
X91600000Y-90662794D01*
X91621690Y-90669374D01*
X91725000Y-90679549D01*
X92275000Y-90679549D01*
X92378310Y-90669374D01*
X92400000Y-90662794D01*
X92421690Y-90669374D01*
X92525000Y-90679549D01*
X93075000Y-90679549D01*
X93178310Y-90669374D01*
X93200664Y-90662593D01*
X93273095Y-90677000D01*
X93395250Y-90677000D01*
X93527000Y-90545250D01*
X93527000Y-90422320D01*
X93564239Y-90352650D01*
X93594374Y-90253310D01*
X93600000Y-90196187D01*
X93605626Y-90253310D01*
X93635761Y-90352650D01*
X93673000Y-90422320D01*
X93673000Y-90545250D01*
X93723000Y-90595250D01*
X93723000Y-90826238D01*
X93703720Y-90818252D01*
X93601905Y-90798000D01*
X93154750Y-90798000D01*
X93023000Y-90929750D01*
X93023000Y-91627000D01*
X93043000Y-91627000D01*
X93043000Y-91773000D01*
X93023000Y-91773000D01*
X93023000Y-91793000D01*
X92877000Y-91793000D01*
X92877000Y-91773000D01*
X91954750Y-91773000D01*
X91823000Y-91904750D01*
X91823000Y-92126905D01*
X91843252Y-92228720D01*
X91882979Y-92324628D01*
X91940652Y-92410943D01*
X92014057Y-92484348D01*
X92071905Y-92523000D01*
X80386055Y-92523000D01*
X79136151Y-91273095D01*
X91823000Y-91273095D01*
X91823000Y-91495250D01*
X91954750Y-91627000D01*
X92877000Y-91627000D01*
X92877000Y-90929750D01*
X92745250Y-90798000D01*
X92298095Y-90798000D01*
X92196280Y-90818252D01*
X92100372Y-90857979D01*
X92014057Y-90915652D01*
X91940652Y-90989057D01*
X91882979Y-91075372D01*
X91843252Y-91171280D01*
X91823000Y-91273095D01*
X79136151Y-91273095D01*
X77690056Y-89827000D01*
X78395250Y-89827000D01*
X78527000Y-89695250D01*
X78527000Y-88398000D01*
X78673000Y-88398000D01*
X78673000Y-89695250D01*
X78804750Y-89827000D01*
X79901905Y-89827000D01*
X80003720Y-89806748D01*
X80099628Y-89767021D01*
X80185943Y-89709348D01*
X80259348Y-89635943D01*
X80317021Y-89549628D01*
X80356748Y-89453720D01*
X80377000Y-89351905D01*
X80377000Y-88529750D01*
X80923000Y-88529750D01*
X80923000Y-89351905D01*
X80943252Y-89453720D01*
X80982979Y-89549628D01*
X81040652Y-89635943D01*
X81114057Y-89709348D01*
X81200372Y-89767021D01*
X81296280Y-89806748D01*
X81398095Y-89827000D01*
X82495250Y-89827000D01*
X82627000Y-89695250D01*
X82627000Y-88398000D01*
X82773000Y-88398000D01*
X82773000Y-89695250D01*
X82904750Y-89827000D01*
X84001905Y-89827000D01*
X84103720Y-89806748D01*
X84199628Y-89767021D01*
X84285943Y-89709348D01*
X84359348Y-89635943D01*
X84417021Y-89549628D01*
X84456748Y-89453720D01*
X84477000Y-89351905D01*
X84477000Y-88529750D01*
X84345250Y-88398000D01*
X82773000Y-88398000D01*
X82627000Y-88398000D01*
X81054750Y-88398000D01*
X80923000Y-88529750D01*
X80377000Y-88529750D01*
X80245250Y-88398000D01*
X78673000Y-88398000D01*
X78527000Y-88398000D01*
X78507000Y-88398000D01*
X78507000Y-88252000D01*
X78527000Y-88252000D01*
X78527000Y-86954750D01*
X78673000Y-86954750D01*
X78673000Y-88252000D01*
X80245250Y-88252000D01*
X80377000Y-88120250D01*
X80377000Y-87298095D01*
X80923000Y-87298095D01*
X80923000Y-88120250D01*
X81054750Y-88252000D01*
X82627000Y-88252000D01*
X82627000Y-86954750D01*
X82495250Y-86823000D01*
X81398095Y-86823000D01*
X81296280Y-86843252D01*
X81200372Y-86882979D01*
X81114057Y-86940652D01*
X81040652Y-87014057D01*
X80982979Y-87100372D01*
X80943252Y-87196280D01*
X80923000Y-87298095D01*
X80377000Y-87298095D01*
X80356748Y-87196280D01*
X80317021Y-87100372D01*
X80259348Y-87014057D01*
X80185943Y-86940652D01*
X80099628Y-86882979D01*
X80003720Y-86843252D01*
X79901905Y-86823000D01*
X78804750Y-86823000D01*
X78673000Y-86954750D01*
X78527000Y-86954750D01*
X78395250Y-86823000D01*
X77298095Y-86823000D01*
X77277000Y-86827196D01*
X77277000Y-86772359D01*
X77350000Y-86779549D01*
X79850000Y-86779549D01*
X79953310Y-86769374D01*
X80052650Y-86739239D01*
X80144202Y-86690304D01*
X80224448Y-86624448D01*
X80290304Y-86544202D01*
X80339239Y-86452650D01*
X80369374Y-86353310D01*
X80379549Y-86250000D01*
X80379549Y-84300000D01*
X80369374Y-84196690D01*
X80339239Y-84097350D01*
X80290304Y-84005798D01*
X80224448Y-83925552D01*
X80144202Y-83859696D01*
X80052650Y-83810761D01*
X79953310Y-83780626D01*
X79850000Y-83770451D01*
X79277000Y-83770451D01*
X79277000Y-83579549D01*
X79550000Y-83579549D01*
X79653310Y-83569374D01*
X79752650Y-83539239D01*
X79844202Y-83490304D01*
X79924448Y-83424448D01*
X79950000Y-83393313D01*
X79975552Y-83424448D01*
X80055798Y-83490304D01*
X80147350Y-83539239D01*
X80246690Y-83569374D01*
X80350000Y-83579549D01*
X80373000Y-83579549D01*
X80373000Y-83675000D01*
X80379552Y-83741819D01*
X80385406Y-83808733D01*
X80386473Y-83812406D01*
X80386846Y-83816208D01*
X80406251Y-83880482D01*
X80424991Y-83944984D01*
X80426750Y-83948377D01*
X80427855Y-83952038D01*
X80459414Y-84011392D01*
X80490287Y-84070952D01*
X80492668Y-84073935D01*
X80494466Y-84077316D01*
X80536946Y-84129401D01*
X80578806Y-84181839D01*
X80584055Y-84187163D01*
X80584142Y-84187269D01*
X80584240Y-84187350D01*
X80585933Y-84189067D01*
X80920451Y-84523585D01*
X80920451Y-86250000D01*
X80930626Y-86353310D01*
X80960761Y-86452650D01*
X81009696Y-86544202D01*
X81075552Y-86624448D01*
X81155798Y-86690304D01*
X81247350Y-86739239D01*
X81346690Y-86769374D01*
X81450000Y-86779549D01*
X83522127Y-86779549D01*
X83565578Y-86823000D01*
X82904750Y-86823000D01*
X82773000Y-86954750D01*
X82773000Y-88252000D01*
X84345250Y-88252000D01*
X84477000Y-88120250D01*
X84477000Y-87734423D01*
X85123000Y-88380423D01*
X85123000Y-88465452D01*
X85086441Y-88501253D01*
X84983733Y-88651254D01*
X84912117Y-88818347D01*
X84874320Y-88996168D01*
X84871782Y-89177945D01*
X84904599Y-89356752D01*
X84971522Y-89525780D01*
X85070001Y-89678590D01*
X85196286Y-89809362D01*
X85345566Y-89913114D01*
X85512155Y-89985895D01*
X85689708Y-90024932D01*
X85871463Y-90028740D01*
X86050495Y-89997171D01*
X86219986Y-89931430D01*
X86373479Y-89834020D01*
X86505130Y-89708651D01*
X86609921Y-89560099D01*
X86683864Y-89394022D01*
X86724140Y-89216746D01*
X86727039Y-89009103D01*
X86691729Y-88830771D01*
X86622452Y-88662694D01*
X86521849Y-88511274D01*
X86477000Y-88466111D01*
X86477000Y-88100000D01*
X86470896Y-88037740D01*
X86465447Y-87975465D01*
X86464455Y-87972050D01*
X86464107Y-87968503D01*
X86446018Y-87908591D01*
X86428585Y-87848584D01*
X86426948Y-87845425D01*
X86425918Y-87842015D01*
X86396549Y-87786781D01*
X86367780Y-87731279D01*
X86365559Y-87728497D01*
X86363888Y-87725354D01*
X86324372Y-87676903D01*
X86311487Y-87660763D01*
X86427000Y-87545250D01*
X86427000Y-86623000D01*
X86573000Y-86623000D01*
X86573000Y-87545250D01*
X86704750Y-87677000D01*
X86926905Y-87677000D01*
X87028720Y-87656748D01*
X87124628Y-87617021D01*
X87210943Y-87559348D01*
X87284348Y-87485943D01*
X87342021Y-87399628D01*
X87381748Y-87303720D01*
X87402000Y-87201905D01*
X87402000Y-86754750D01*
X87270250Y-86623000D01*
X86573000Y-86623000D01*
X86427000Y-86623000D01*
X85729750Y-86623000D01*
X85598000Y-86754750D01*
X85598000Y-86940577D01*
X84479549Y-85822127D01*
X84479549Y-84300000D01*
X84469374Y-84196690D01*
X84439239Y-84097350D01*
X84390304Y-84005798D01*
X84324448Y-83925552D01*
X84244202Y-83859696D01*
X84152650Y-83810761D01*
X84053310Y-83780626D01*
X83950000Y-83770451D01*
X82223585Y-83770451D01*
X82006402Y-83553268D01*
X82052650Y-83539239D01*
X82144202Y-83490304D01*
X82224448Y-83424448D01*
X82249108Y-83394399D01*
X82314057Y-83459348D01*
X82400372Y-83517021D01*
X82496280Y-83556748D01*
X82598095Y-83577000D01*
X83195250Y-83577000D01*
X83327000Y-83445250D01*
X83327000Y-82123000D01*
X83473000Y-82123000D01*
X83473000Y-83445250D01*
X83604750Y-83577000D01*
X84201905Y-83577000D01*
X84303720Y-83556748D01*
X84399628Y-83517021D01*
X84485943Y-83459348D01*
X84559348Y-83385943D01*
X84617021Y-83299628D01*
X84656748Y-83203720D01*
X84677000Y-83101905D01*
X84677000Y-82254750D01*
X84545250Y-82123000D01*
X83473000Y-82123000D01*
X83327000Y-82123000D01*
X83307000Y-82123000D01*
X83307000Y-81977000D01*
X83327000Y-81977000D01*
X83327000Y-80654750D01*
X83473000Y-80654750D01*
X83473000Y-81977000D01*
X84545250Y-81977000D01*
X84677000Y-81845250D01*
X84677000Y-80998095D01*
X84656748Y-80896280D01*
X84617021Y-80800372D01*
X84559348Y-80714057D01*
X84485943Y-80640652D01*
X84399628Y-80582979D01*
X84303720Y-80543252D01*
X84201905Y-80523000D01*
X83604750Y-80523000D01*
X83473000Y-80654750D01*
X83327000Y-80654750D01*
X83195250Y-80523000D01*
X82598095Y-80523000D01*
X82496280Y-80543252D01*
X82400372Y-80582979D01*
X82314057Y-80640652D01*
X82249108Y-80705601D01*
X82224448Y-80675552D01*
X82201062Y-80656360D01*
X83059327Y-79798095D01*
X85598000Y-79798095D01*
X85598000Y-80245250D01*
X85729750Y-80377000D01*
X86427000Y-80377000D01*
X86427000Y-79454750D01*
X86573000Y-79454750D01*
X86573000Y-80377000D01*
X87270250Y-80377000D01*
X87402000Y-80245250D01*
X87402000Y-79798095D01*
X87381748Y-79696280D01*
X87342021Y-79600372D01*
X87284348Y-79514057D01*
X87210943Y-79440652D01*
X87124628Y-79382979D01*
X87028720Y-79343252D01*
X86926905Y-79323000D01*
X86704750Y-79323000D01*
X86573000Y-79454750D01*
X86427000Y-79454750D01*
X86295250Y-79323000D01*
X86073095Y-79323000D01*
X85971280Y-79343252D01*
X85875372Y-79382979D01*
X85789057Y-79440652D01*
X85715652Y-79514057D01*
X85657979Y-79600372D01*
X85618252Y-79696280D01*
X85598000Y-79798095D01*
X83059327Y-79798095D01*
X88455424Y-74401999D01*
X92765579Y-74401999D01*
X92571289Y-74596289D01*
G36*
X117698000Y-82417114D02*
X117601905Y-82398000D01*
X117154750Y-82398000D01*
X117023000Y-82529750D01*
X117023000Y-83227000D01*
X117043000Y-83227000D01*
X117043000Y-83373000D01*
X117023000Y-83373000D01*
X117023000Y-84070250D01*
X117154750Y-84202000D01*
X117601905Y-84202000D01*
X117698000Y-84182886D01*
X117698000Y-89890286D01*
X117680101Y-89856623D01*
X117460907Y-89587865D01*
X117193686Y-89366800D01*
X117117466Y-89325588D01*
X117176944Y-89277079D01*
X117348248Y-89070009D01*
X117476069Y-88833609D01*
X117555538Y-88576884D01*
X117583629Y-88309613D01*
X117559273Y-88041976D01*
X117483395Y-87784167D01*
X117358887Y-87546005D01*
X117190492Y-87336564D01*
X116984623Y-87163819D01*
X116749121Y-87034351D01*
X116731756Y-87028842D01*
X116744422Y-87024809D01*
X116980713Y-86894295D01*
X117187002Y-86720190D01*
X117355361Y-86509186D01*
X117479320Y-86269391D01*
X117546715Y-86047209D01*
X117443108Y-85833000D01*
X116273000Y-85833000D01*
X116273000Y-85853000D01*
X116127000Y-85853000D01*
X116127000Y-85833000D01*
X114956892Y-85833000D01*
X114853285Y-86047209D01*
X114920680Y-86269391D01*
X115044639Y-86509186D01*
X115212998Y-86720190D01*
X115419287Y-86894295D01*
X115655578Y-87024809D01*
X115666184Y-87028186D01*
X115431317Y-87153067D01*
X115223056Y-87322921D01*
X115051752Y-87529991D01*
X114923931Y-87766391D01*
X114844462Y-88023116D01*
X114816371Y-88290387D01*
X114840727Y-88558024D01*
X114916605Y-88815833D01*
X115041113Y-89053995D01*
X115209508Y-89263436D01*
X115282031Y-89324290D01*
X115226980Y-89353070D01*
X114956698Y-89570382D01*
X114733773Y-89836054D01*
X114566697Y-90139965D01*
X114461832Y-90470541D01*
X114423173Y-90815189D01*
X114423000Y-90840000D01*
X114423000Y-92523000D01*
X113975636Y-92523000D01*
X114040304Y-92444202D01*
X114089239Y-92352650D01*
X114119374Y-92253310D01*
X114129549Y-92150000D01*
X114129549Y-91250000D01*
X114119374Y-91146690D01*
X114089239Y-91047350D01*
X114040304Y-90955798D01*
X113974448Y-90875552D01*
X113894202Y-90809696D01*
X113862000Y-90792484D01*
X113862000Y-90367871D01*
X113884448Y-90349448D01*
X113950304Y-90269202D01*
X113999239Y-90177650D01*
X114029374Y-90078310D01*
X114039549Y-89975000D01*
X114039549Y-88425000D01*
X114029374Y-88321690D01*
X113999239Y-88222350D01*
X113950304Y-88130798D01*
X113884448Y-88050552D01*
X113804202Y-87984696D01*
X113712650Y-87935761D01*
X113613310Y-87905626D01*
X113510000Y-87895451D01*
X112910000Y-87895451D01*
X112806690Y-87905626D01*
X112707350Y-87935761D01*
X112615798Y-87984696D01*
X112592000Y-88004226D01*
X112592000Y-87880079D01*
X112694931Y-87777148D01*
X112771463Y-87778751D01*
X112950495Y-87747182D01*
X113119986Y-87681441D01*
X113273479Y-87584031D01*
X113405130Y-87458662D01*
X113509921Y-87310110D01*
X113583864Y-87144033D01*
X113593034Y-87103672D01*
X113689732Y-87124932D01*
X113871487Y-87128740D01*
X114050519Y-87097171D01*
X114220010Y-87031430D01*
X114373503Y-86934020D01*
X114505154Y-86808651D01*
X114609945Y-86660099D01*
X114683888Y-86494022D01*
X114724164Y-86316746D01*
X114727063Y-86109103D01*
X114691753Y-85930771D01*
X114622476Y-85762694D01*
X114521873Y-85611274D01*
X114393775Y-85482278D01*
X114379710Y-85472791D01*
X114853285Y-85472791D01*
X114956892Y-85687000D01*
X116127000Y-85687000D01*
X116127000Y-84516683D01*
X116273000Y-84516683D01*
X116273000Y-85687000D01*
X117443108Y-85687000D01*
X117546715Y-85472791D01*
X117479320Y-85250609D01*
X117355361Y-85010814D01*
X117187002Y-84799810D01*
X116980713Y-84625705D01*
X116744422Y-84495191D01*
X116487209Y-84413282D01*
X116273000Y-84516683D01*
X116127000Y-84516683D01*
X115912791Y-84413282D01*
X115655578Y-84495191D01*
X115419287Y-84625705D01*
X115212998Y-84799810D01*
X115044639Y-85010814D01*
X114920680Y-85250609D01*
X114853285Y-85472791D01*
X114379710Y-85472791D01*
X114243061Y-85380621D01*
X114075472Y-85310173D01*
X113897391Y-85273618D01*
X113715601Y-85272349D01*
X113537027Y-85306413D01*
X113368471Y-85374515D01*
X113294376Y-85423001D01*
X112722719Y-85423001D01*
X112724140Y-85416746D01*
X112727039Y-85209103D01*
X112697291Y-85058862D01*
X112707350Y-85064239D01*
X112806690Y-85094374D01*
X112910000Y-85104549D01*
X113510000Y-85104549D01*
X113613310Y-85094374D01*
X113712650Y-85064239D01*
X113804202Y-85015304D01*
X113884448Y-84949448D01*
X113950304Y-84869202D01*
X113999239Y-84777650D01*
X114029374Y-84678310D01*
X114039549Y-84575000D01*
X114039549Y-84005578D01*
X114075552Y-84049448D01*
X114155798Y-84115304D01*
X114247350Y-84164239D01*
X114346690Y-84194374D01*
X114450000Y-84204549D01*
X115650000Y-84204549D01*
X115753310Y-84194374D01*
X115852650Y-84164239D01*
X115944202Y-84115304D01*
X115999572Y-84069863D01*
X116014057Y-84084348D01*
X116100372Y-84142021D01*
X116196280Y-84181748D01*
X116298095Y-84202000D01*
X116745250Y-84202000D01*
X116877000Y-84070250D01*
X116877000Y-83373000D01*
X116857000Y-83373000D01*
X116857000Y-83227000D01*
X116877000Y-83227000D01*
X116877000Y-82529750D01*
X116745250Y-82398000D01*
X116298095Y-82398000D01*
X116196280Y-82418252D01*
X116100372Y-82457979D01*
X116014057Y-82515652D01*
X115999572Y-82530137D01*
X115944202Y-82484696D01*
X115852650Y-82435761D01*
X115753310Y-82405626D01*
X115727000Y-82403035D01*
X115727000Y-82370422D01*
X116092873Y-82004549D01*
X117550000Y-82004549D01*
X117653310Y-81994374D01*
X117698000Y-81980817D01*
X117698000Y-82417114D01*
X117698000Y-82417114D01*
G37*
X117698000Y-82417114D02*
X117601905Y-82398000D01*
X117154750Y-82398000D01*
X117023000Y-82529750D01*
X117023000Y-83227000D01*
X117043000Y-83227000D01*
X117043000Y-83373000D01*
X117023000Y-83373000D01*
X117023000Y-84070250D01*
X117154750Y-84202000D01*
X117601905Y-84202000D01*
X117698000Y-84182886D01*
X117698000Y-89890286D01*
X117680101Y-89856623D01*
X117460907Y-89587865D01*
X117193686Y-89366800D01*
X117117466Y-89325588D01*
X117176944Y-89277079D01*
X117348248Y-89070009D01*
X117476069Y-88833609D01*
X117555538Y-88576884D01*
X117583629Y-88309613D01*
X117559273Y-88041976D01*
X117483395Y-87784167D01*
X117358887Y-87546005D01*
X117190492Y-87336564D01*
X116984623Y-87163819D01*
X116749121Y-87034351D01*
X116731756Y-87028842D01*
X116744422Y-87024809D01*
X116980713Y-86894295D01*
X117187002Y-86720190D01*
X117355361Y-86509186D01*
X117479320Y-86269391D01*
X117546715Y-86047209D01*
X117443108Y-85833000D01*
X116273000Y-85833000D01*
X116273000Y-85853000D01*
X116127000Y-85853000D01*
X116127000Y-85833000D01*
X114956892Y-85833000D01*
X114853285Y-86047209D01*
X114920680Y-86269391D01*
X115044639Y-86509186D01*
X115212998Y-86720190D01*
X115419287Y-86894295D01*
X115655578Y-87024809D01*
X115666184Y-87028186D01*
X115431317Y-87153067D01*
X115223056Y-87322921D01*
X115051752Y-87529991D01*
X114923931Y-87766391D01*
X114844462Y-88023116D01*
X114816371Y-88290387D01*
X114840727Y-88558024D01*
X114916605Y-88815833D01*
X115041113Y-89053995D01*
X115209508Y-89263436D01*
X115282031Y-89324290D01*
X115226980Y-89353070D01*
X114956698Y-89570382D01*
X114733773Y-89836054D01*
X114566697Y-90139965D01*
X114461832Y-90470541D01*
X114423173Y-90815189D01*
X114423000Y-90840000D01*
X114423000Y-92523000D01*
X113975636Y-92523000D01*
X114040304Y-92444202D01*
X114089239Y-92352650D01*
X114119374Y-92253310D01*
X114129549Y-92150000D01*
X114129549Y-91250000D01*
X114119374Y-91146690D01*
X114089239Y-91047350D01*
X114040304Y-90955798D01*
X113974448Y-90875552D01*
X113894202Y-90809696D01*
X113862000Y-90792484D01*
X113862000Y-90367871D01*
X113884448Y-90349448D01*
X113950304Y-90269202D01*
X113999239Y-90177650D01*
X114029374Y-90078310D01*
X114039549Y-89975000D01*
X114039549Y-88425000D01*
X114029374Y-88321690D01*
X113999239Y-88222350D01*
X113950304Y-88130798D01*
X113884448Y-88050552D01*
X113804202Y-87984696D01*
X113712650Y-87935761D01*
X113613310Y-87905626D01*
X113510000Y-87895451D01*
X112910000Y-87895451D01*
X112806690Y-87905626D01*
X112707350Y-87935761D01*
X112615798Y-87984696D01*
X112592000Y-88004226D01*
X112592000Y-87880079D01*
X112694931Y-87777148D01*
X112771463Y-87778751D01*
X112950495Y-87747182D01*
X113119986Y-87681441D01*
X113273479Y-87584031D01*
X113405130Y-87458662D01*
X113509921Y-87310110D01*
X113583864Y-87144033D01*
X113593034Y-87103672D01*
X113689732Y-87124932D01*
X113871487Y-87128740D01*
X114050519Y-87097171D01*
X114220010Y-87031430D01*
X114373503Y-86934020D01*
X114505154Y-86808651D01*
X114609945Y-86660099D01*
X114683888Y-86494022D01*
X114724164Y-86316746D01*
X114727063Y-86109103D01*
X114691753Y-85930771D01*
X114622476Y-85762694D01*
X114521873Y-85611274D01*
X114393775Y-85482278D01*
X114379710Y-85472791D01*
X114853285Y-85472791D01*
X114956892Y-85687000D01*
X116127000Y-85687000D01*
X116127000Y-84516683D01*
X116273000Y-84516683D01*
X116273000Y-85687000D01*
X117443108Y-85687000D01*
X117546715Y-85472791D01*
X117479320Y-85250609D01*
X117355361Y-85010814D01*
X117187002Y-84799810D01*
X116980713Y-84625705D01*
X116744422Y-84495191D01*
X116487209Y-84413282D01*
X116273000Y-84516683D01*
X116127000Y-84516683D01*
X115912791Y-84413282D01*
X115655578Y-84495191D01*
X115419287Y-84625705D01*
X115212998Y-84799810D01*
X115044639Y-85010814D01*
X114920680Y-85250609D01*
X114853285Y-85472791D01*
X114379710Y-85472791D01*
X114243061Y-85380621D01*
X114075472Y-85310173D01*
X113897391Y-85273618D01*
X113715601Y-85272349D01*
X113537027Y-85306413D01*
X113368471Y-85374515D01*
X113294376Y-85423001D01*
X112722719Y-85423001D01*
X112724140Y-85416746D01*
X112727039Y-85209103D01*
X112697291Y-85058862D01*
X112707350Y-85064239D01*
X112806690Y-85094374D01*
X112910000Y-85104549D01*
X113510000Y-85104549D01*
X113613310Y-85094374D01*
X113712650Y-85064239D01*
X113804202Y-85015304D01*
X113884448Y-84949448D01*
X113950304Y-84869202D01*
X113999239Y-84777650D01*
X114029374Y-84678310D01*
X114039549Y-84575000D01*
X114039549Y-84005578D01*
X114075552Y-84049448D01*
X114155798Y-84115304D01*
X114247350Y-84164239D01*
X114346690Y-84194374D01*
X114450000Y-84204549D01*
X115650000Y-84204549D01*
X115753310Y-84194374D01*
X115852650Y-84164239D01*
X115944202Y-84115304D01*
X115999572Y-84069863D01*
X116014057Y-84084348D01*
X116100372Y-84142021D01*
X116196280Y-84181748D01*
X116298095Y-84202000D01*
X116745250Y-84202000D01*
X116877000Y-84070250D01*
X116877000Y-83373000D01*
X116857000Y-83373000D01*
X116857000Y-83227000D01*
X116877000Y-83227000D01*
X116877000Y-82529750D01*
X116745250Y-82398000D01*
X116298095Y-82398000D01*
X116196280Y-82418252D01*
X116100372Y-82457979D01*
X116014057Y-82515652D01*
X115999572Y-82530137D01*
X115944202Y-82484696D01*
X115852650Y-82435761D01*
X115753310Y-82405626D01*
X115727000Y-82403035D01*
X115727000Y-82370422D01*
X116092873Y-82004549D01*
X117550000Y-82004549D01*
X117653310Y-81994374D01*
X117698000Y-81980817D01*
X117698000Y-82417114D01*
G36*
X109909481Y-87138670D02*
X109883733Y-87176275D01*
X109812117Y-87343368D01*
X109774320Y-87521189D01*
X109771782Y-87702966D01*
X109804599Y-87881773D01*
X109816078Y-87910765D01*
X109751905Y-87898000D01*
X109604750Y-87898000D01*
X109473000Y-88029750D01*
X109473000Y-89127000D01*
X109493000Y-89127000D01*
X109493000Y-89273000D01*
X109473000Y-89273000D01*
X109473000Y-90370250D01*
X109604750Y-90502000D01*
X109751905Y-90502000D01*
X109853720Y-90481748D01*
X109949628Y-90442021D01*
X110035943Y-90384348D01*
X110036905Y-90383386D01*
X110075798Y-90415304D01*
X110167350Y-90464239D01*
X110266690Y-90494374D01*
X110370000Y-90504549D01*
X110542126Y-90504549D01*
X110543000Y-90505423D01*
X110543000Y-90710192D01*
X110508142Y-90720451D01*
X110200000Y-90720451D01*
X110096690Y-90730626D01*
X109997350Y-90760761D01*
X109905798Y-90809696D01*
X109825552Y-90875552D01*
X109759696Y-90955798D01*
X109710761Y-91047350D01*
X109680626Y-91146690D01*
X109670451Y-91250000D01*
X109670451Y-91648694D01*
X109569513Y-91580611D01*
X109401924Y-91510163D01*
X109223843Y-91473608D01*
X109042053Y-91472339D01*
X108863479Y-91506403D01*
X108694923Y-91574505D01*
X108542804Y-91674048D01*
X108467297Y-91747990D01*
X101195058Y-91747990D01*
X100799068Y-91352000D01*
X107436836Y-91352000D01*
X107490560Y-91407633D01*
X107639840Y-91511385D01*
X107806429Y-91584166D01*
X107983982Y-91623203D01*
X108165737Y-91627011D01*
X108344769Y-91595442D01*
X108514260Y-91529701D01*
X108667753Y-91432291D01*
X108799404Y-91306922D01*
X108904195Y-91158370D01*
X108978138Y-90992293D01*
X109018414Y-90815017D01*
X109021313Y-90607374D01*
X108998495Y-90492134D01*
X109048095Y-90502000D01*
X109195250Y-90502000D01*
X109327000Y-90370250D01*
X109327000Y-89273000D01*
X108704750Y-89273000D01*
X108573000Y-89404750D01*
X108573000Y-89902964D01*
X108537311Y-89878892D01*
X108369722Y-89808444D01*
X108191641Y-89771889D01*
X108009851Y-89770620D01*
X107831277Y-89804684D01*
X107662721Y-89872786D01*
X107510602Y-89972329D01*
X107433329Y-90048000D01*
X100870073Y-90048000D01*
X100825725Y-90003652D01*
X100827045Y-89909103D01*
X100791735Y-89730771D01*
X100722458Y-89562694D01*
X100621855Y-89411274D01*
X100493757Y-89282278D01*
X100343043Y-89180621D01*
X100175454Y-89110173D01*
X99997373Y-89073618D01*
X99815583Y-89072349D01*
X99637009Y-89106413D01*
X99468453Y-89174515D01*
X99316334Y-89274058D01*
X99204549Y-89383526D01*
X99204549Y-88650000D01*
X99194374Y-88546690D01*
X99171593Y-88471593D01*
X99246690Y-88494374D01*
X99350000Y-88504549D01*
X100850000Y-88504549D01*
X100953310Y-88494374D01*
X101052650Y-88464239D01*
X101110989Y-88433057D01*
X101620451Y-88942518D01*
X101620451Y-89350000D01*
X101630626Y-89453310D01*
X101660761Y-89552650D01*
X101709696Y-89644202D01*
X101775552Y-89724448D01*
X101855798Y-89790304D01*
X101947350Y-89839239D01*
X102046690Y-89869374D01*
X102150000Y-89879549D01*
X107250000Y-89879549D01*
X107353310Y-89869374D01*
X107452650Y-89839239D01*
X107544202Y-89790304D01*
X107624448Y-89724448D01*
X107690304Y-89644202D01*
X107739239Y-89552650D01*
X107769374Y-89453310D01*
X107779549Y-89350000D01*
X107779549Y-88550000D01*
X107769374Y-88446690D01*
X107747049Y-88373095D01*
X108573000Y-88373095D01*
X108573000Y-88995250D01*
X108704750Y-89127000D01*
X109327000Y-89127000D01*
X109327000Y-88029750D01*
X109195250Y-87898000D01*
X109048095Y-87898000D01*
X108946280Y-87918252D01*
X108850372Y-87957979D01*
X108764057Y-88015652D01*
X108690652Y-88089057D01*
X108632979Y-88175372D01*
X108593252Y-88271280D01*
X108573000Y-88373095D01*
X107747049Y-88373095D01*
X107739239Y-88347350D01*
X107690304Y-88255798D01*
X107624448Y-88175552D01*
X107544202Y-88109696D01*
X107525529Y-88099715D01*
X107585943Y-88059348D01*
X107659348Y-87985943D01*
X107717021Y-87899628D01*
X107756748Y-87803720D01*
X107777000Y-87701905D01*
X107777000Y-87204750D01*
X107645250Y-87073000D01*
X104773000Y-87073000D01*
X104773000Y-87093000D01*
X104627000Y-87093000D01*
X104627000Y-87073000D01*
X104607000Y-87073000D01*
X104607000Y-86927000D01*
X104627000Y-86927000D01*
X104627000Y-86907000D01*
X104773000Y-86907000D01*
X104773000Y-86927000D01*
X107645250Y-86927000D01*
X107777000Y-86795250D01*
X107777000Y-86298095D01*
X107756748Y-86196280D01*
X107717021Y-86100372D01*
X107659348Y-86014057D01*
X107585943Y-85940652D01*
X107525529Y-85900285D01*
X107544202Y-85890304D01*
X107624448Y-85824448D01*
X107690304Y-85744202D01*
X107739239Y-85652650D01*
X107769374Y-85553310D01*
X107779549Y-85450000D01*
X107779549Y-85008739D01*
X109909481Y-87138670D01*
X109909481Y-87138670D01*
G37*
X109909481Y-87138670D02*
X109883733Y-87176275D01*
X109812117Y-87343368D01*
X109774320Y-87521189D01*
X109771782Y-87702966D01*
X109804599Y-87881773D01*
X109816078Y-87910765D01*
X109751905Y-87898000D01*
X109604750Y-87898000D01*
X109473000Y-88029750D01*
X109473000Y-89127000D01*
X109493000Y-89127000D01*
X109493000Y-89273000D01*
X109473000Y-89273000D01*
X109473000Y-90370250D01*
X109604750Y-90502000D01*
X109751905Y-90502000D01*
X109853720Y-90481748D01*
X109949628Y-90442021D01*
X110035943Y-90384348D01*
X110036905Y-90383386D01*
X110075798Y-90415304D01*
X110167350Y-90464239D01*
X110266690Y-90494374D01*
X110370000Y-90504549D01*
X110542126Y-90504549D01*
X110543000Y-90505423D01*
X110543000Y-90710192D01*
X110508142Y-90720451D01*
X110200000Y-90720451D01*
X110096690Y-90730626D01*
X109997350Y-90760761D01*
X109905798Y-90809696D01*
X109825552Y-90875552D01*
X109759696Y-90955798D01*
X109710761Y-91047350D01*
X109680626Y-91146690D01*
X109670451Y-91250000D01*
X109670451Y-91648694D01*
X109569513Y-91580611D01*
X109401924Y-91510163D01*
X109223843Y-91473608D01*
X109042053Y-91472339D01*
X108863479Y-91506403D01*
X108694923Y-91574505D01*
X108542804Y-91674048D01*
X108467297Y-91747990D01*
X101195058Y-91747990D01*
X100799068Y-91352000D01*
X107436836Y-91352000D01*
X107490560Y-91407633D01*
X107639840Y-91511385D01*
X107806429Y-91584166D01*
X107983982Y-91623203D01*
X108165737Y-91627011D01*
X108344769Y-91595442D01*
X108514260Y-91529701D01*
X108667753Y-91432291D01*
X108799404Y-91306922D01*
X108904195Y-91158370D01*
X108978138Y-90992293D01*
X109018414Y-90815017D01*
X109021313Y-90607374D01*
X108998495Y-90492134D01*
X109048095Y-90502000D01*
X109195250Y-90502000D01*
X109327000Y-90370250D01*
X109327000Y-89273000D01*
X108704750Y-89273000D01*
X108573000Y-89404750D01*
X108573000Y-89902964D01*
X108537311Y-89878892D01*
X108369722Y-89808444D01*
X108191641Y-89771889D01*
X108009851Y-89770620D01*
X107831277Y-89804684D01*
X107662721Y-89872786D01*
X107510602Y-89972329D01*
X107433329Y-90048000D01*
X100870073Y-90048000D01*
X100825725Y-90003652D01*
X100827045Y-89909103D01*
X100791735Y-89730771D01*
X100722458Y-89562694D01*
X100621855Y-89411274D01*
X100493757Y-89282278D01*
X100343043Y-89180621D01*
X100175454Y-89110173D01*
X99997373Y-89073618D01*
X99815583Y-89072349D01*
X99637009Y-89106413D01*
X99468453Y-89174515D01*
X99316334Y-89274058D01*
X99204549Y-89383526D01*
X99204549Y-88650000D01*
X99194374Y-88546690D01*
X99171593Y-88471593D01*
X99246690Y-88494374D01*
X99350000Y-88504549D01*
X100850000Y-88504549D01*
X100953310Y-88494374D01*
X101052650Y-88464239D01*
X101110989Y-88433057D01*
X101620451Y-88942518D01*
X101620451Y-89350000D01*
X101630626Y-89453310D01*
X101660761Y-89552650D01*
X101709696Y-89644202D01*
X101775552Y-89724448D01*
X101855798Y-89790304D01*
X101947350Y-89839239D01*
X102046690Y-89869374D01*
X102150000Y-89879549D01*
X107250000Y-89879549D01*
X107353310Y-89869374D01*
X107452650Y-89839239D01*
X107544202Y-89790304D01*
X107624448Y-89724448D01*
X107690304Y-89644202D01*
X107739239Y-89552650D01*
X107769374Y-89453310D01*
X107779549Y-89350000D01*
X107779549Y-88550000D01*
X107769374Y-88446690D01*
X107747049Y-88373095D01*
X108573000Y-88373095D01*
X108573000Y-88995250D01*
X108704750Y-89127000D01*
X109327000Y-89127000D01*
X109327000Y-88029750D01*
X109195250Y-87898000D01*
X109048095Y-87898000D01*
X108946280Y-87918252D01*
X108850372Y-87957979D01*
X108764057Y-88015652D01*
X108690652Y-88089057D01*
X108632979Y-88175372D01*
X108593252Y-88271280D01*
X108573000Y-88373095D01*
X107747049Y-88373095D01*
X107739239Y-88347350D01*
X107690304Y-88255798D01*
X107624448Y-88175552D01*
X107544202Y-88109696D01*
X107525529Y-88099715D01*
X107585943Y-88059348D01*
X107659348Y-87985943D01*
X107717021Y-87899628D01*
X107756748Y-87803720D01*
X107777000Y-87701905D01*
X107777000Y-87204750D01*
X107645250Y-87073000D01*
X104773000Y-87073000D01*
X104773000Y-87093000D01*
X104627000Y-87093000D01*
X104627000Y-87073000D01*
X104607000Y-87073000D01*
X104607000Y-86927000D01*
X104627000Y-86927000D01*
X104627000Y-86907000D01*
X104773000Y-86907000D01*
X104773000Y-86927000D01*
X107645250Y-86927000D01*
X107777000Y-86795250D01*
X107777000Y-86298095D01*
X107756748Y-86196280D01*
X107717021Y-86100372D01*
X107659348Y-86014057D01*
X107585943Y-85940652D01*
X107525529Y-85900285D01*
X107544202Y-85890304D01*
X107624448Y-85824448D01*
X107690304Y-85744202D01*
X107739239Y-85652650D01*
X107769374Y-85553310D01*
X107779549Y-85450000D01*
X107779549Y-85008739D01*
X109909481Y-87138670D01*
G36*
X94621288Y-83378711D02*
X94669621Y-83418412D01*
X94717517Y-83458602D01*
X94720637Y-83460317D01*
X94723388Y-83462577D01*
X94778509Y-83492133D01*
X94833301Y-83522255D01*
X94836694Y-83523331D01*
X94839832Y-83525014D01*
X94899677Y-83543310D01*
X94959244Y-83562206D01*
X94962778Y-83562602D01*
X94966185Y-83563644D01*
X95028388Y-83569962D01*
X95090548Y-83576934D01*
X95097515Y-83576983D01*
X95097637Y-83576995D01*
X95097750Y-83576984D01*
X95100000Y-83577000D01*
X98904750Y-83577000D01*
X98954750Y-83627000D01*
X99077680Y-83627000D01*
X99147350Y-83664239D01*
X99246690Y-83694374D01*
X99303813Y-83700000D01*
X99246690Y-83705626D01*
X99147350Y-83735761D01*
X99077680Y-83773000D01*
X98954750Y-83773000D01*
X98823000Y-83904750D01*
X98823000Y-84026905D01*
X98837407Y-84099336D01*
X98830626Y-84121690D01*
X98820451Y-84225000D01*
X98820451Y-84775000D01*
X98830626Y-84878310D01*
X98837206Y-84900000D01*
X98830626Y-84921690D01*
X98820451Y-85025000D01*
X98820451Y-85575000D01*
X98830626Y-85678310D01*
X98837206Y-85700000D01*
X98830626Y-85721690D01*
X98820451Y-85825000D01*
X98820451Y-86375000D01*
X98830626Y-86478310D01*
X98837206Y-86500000D01*
X98830626Y-86521690D01*
X98820451Y-86625000D01*
X98820451Y-87048000D01*
X96474038Y-87048000D01*
X93977704Y-84551666D01*
X93979024Y-84457118D01*
X93943714Y-84278786D01*
X93874437Y-84110709D01*
X93773834Y-83959289D01*
X93645736Y-83830293D01*
X93495022Y-83728636D01*
X93327433Y-83658188D01*
X93149352Y-83621633D01*
X92967562Y-83620364D01*
X92788988Y-83654428D01*
X92620432Y-83722530D01*
X92468313Y-83822073D01*
X92338426Y-83949268D01*
X92235718Y-84099269D01*
X92164102Y-84266362D01*
X92126305Y-84444183D01*
X92123767Y-84625960D01*
X92156584Y-84804767D01*
X92223507Y-84973795D01*
X92321986Y-85126605D01*
X92448271Y-85257377D01*
X92597551Y-85361129D01*
X92764140Y-85433910D01*
X92941693Y-85472947D01*
X93057270Y-85475368D01*
X95704384Y-88122482D01*
X95621690Y-88130626D01*
X95600000Y-88137206D01*
X95578310Y-88130626D01*
X95475000Y-88120451D01*
X95014452Y-88120451D01*
X94996549Y-88086781D01*
X94967780Y-88031279D01*
X94965559Y-88028497D01*
X94963888Y-88025354D01*
X94924372Y-87976903D01*
X94885348Y-87928019D01*
X94880461Y-87923063D01*
X94880379Y-87922963D01*
X94880286Y-87922886D01*
X94878711Y-87921289D01*
X91457422Y-84500000D01*
X93600000Y-82357422D01*
X94621288Y-83378711D01*
X94621288Y-83378711D01*
G37*
X94621288Y-83378711D02*
X94669621Y-83418412D01*
X94717517Y-83458602D01*
X94720637Y-83460317D01*
X94723388Y-83462577D01*
X94778509Y-83492133D01*
X94833301Y-83522255D01*
X94836694Y-83523331D01*
X94839832Y-83525014D01*
X94899677Y-83543310D01*
X94959244Y-83562206D01*
X94962778Y-83562602D01*
X94966185Y-83563644D01*
X95028388Y-83569962D01*
X95090548Y-83576934D01*
X95097515Y-83576983D01*
X95097637Y-83576995D01*
X95097750Y-83576984D01*
X95100000Y-83577000D01*
X98904750Y-83577000D01*
X98954750Y-83627000D01*
X99077680Y-83627000D01*
X99147350Y-83664239D01*
X99246690Y-83694374D01*
X99303813Y-83700000D01*
X99246690Y-83705626D01*
X99147350Y-83735761D01*
X99077680Y-83773000D01*
X98954750Y-83773000D01*
X98823000Y-83904750D01*
X98823000Y-84026905D01*
X98837407Y-84099336D01*
X98830626Y-84121690D01*
X98820451Y-84225000D01*
X98820451Y-84775000D01*
X98830626Y-84878310D01*
X98837206Y-84900000D01*
X98830626Y-84921690D01*
X98820451Y-85025000D01*
X98820451Y-85575000D01*
X98830626Y-85678310D01*
X98837206Y-85700000D01*
X98830626Y-85721690D01*
X98820451Y-85825000D01*
X98820451Y-86375000D01*
X98830626Y-86478310D01*
X98837206Y-86500000D01*
X98830626Y-86521690D01*
X98820451Y-86625000D01*
X98820451Y-87048000D01*
X96474038Y-87048000D01*
X93977704Y-84551666D01*
X93979024Y-84457118D01*
X93943714Y-84278786D01*
X93874437Y-84110709D01*
X93773834Y-83959289D01*
X93645736Y-83830293D01*
X93495022Y-83728636D01*
X93327433Y-83658188D01*
X93149352Y-83621633D01*
X92967562Y-83620364D01*
X92788988Y-83654428D01*
X92620432Y-83722530D01*
X92468313Y-83822073D01*
X92338426Y-83949268D01*
X92235718Y-84099269D01*
X92164102Y-84266362D01*
X92126305Y-84444183D01*
X92123767Y-84625960D01*
X92156584Y-84804767D01*
X92223507Y-84973795D01*
X92321986Y-85126605D01*
X92448271Y-85257377D01*
X92597551Y-85361129D01*
X92764140Y-85433910D01*
X92941693Y-85472947D01*
X93057270Y-85475368D01*
X95704384Y-88122482D01*
X95621690Y-88130626D01*
X95600000Y-88137206D01*
X95578310Y-88130626D01*
X95475000Y-88120451D01*
X95014452Y-88120451D01*
X94996549Y-88086781D01*
X94967780Y-88031279D01*
X94965559Y-88028497D01*
X94963888Y-88025354D01*
X94924372Y-87976903D01*
X94885348Y-87928019D01*
X94880461Y-87923063D01*
X94880379Y-87922963D01*
X94880286Y-87922886D01*
X94878711Y-87921289D01*
X91457422Y-84500000D01*
X93600000Y-82357422D01*
X94621288Y-83378711D01*
G36*
X101884696Y-81469202D02*
X101950552Y-81549448D01*
X102030798Y-81615304D01*
X102122350Y-81664239D01*
X102221690Y-81694374D01*
X102325000Y-81704549D01*
X103775000Y-81704549D01*
X103878310Y-81694374D01*
X103977650Y-81664239D01*
X104047320Y-81627000D01*
X104391314Y-81627000D01*
X104397469Y-81642546D01*
X104495948Y-81795356D01*
X104622233Y-81926128D01*
X104771513Y-82029880D01*
X104927433Y-82098000D01*
X104754750Y-82098000D01*
X104623000Y-82229750D01*
X104623000Y-82927000D01*
X104643000Y-82927000D01*
X104643000Y-83073000D01*
X104623000Y-83073000D01*
X104623000Y-83770250D01*
X104754750Y-83902000D01*
X105162107Y-83902000D01*
X105171522Y-83925780D01*
X105270001Y-84078590D01*
X105310426Y-84120451D01*
X102150000Y-84120451D01*
X102046690Y-84130626D01*
X101947350Y-84160761D01*
X101855798Y-84209696D01*
X101787673Y-84265605D01*
X101561034Y-84038966D01*
X101514435Y-84000690D01*
X101468358Y-83962026D01*
X101465356Y-83960376D01*
X101462705Y-83958198D01*
X101409608Y-83929728D01*
X101377000Y-83911802D01*
X101377000Y-83904750D01*
X101245250Y-83773000D01*
X101122320Y-83773000D01*
X101052650Y-83735761D01*
X100953310Y-83705626D01*
X100896187Y-83700000D01*
X100953310Y-83694374D01*
X101010583Y-83677000D01*
X101616096Y-83677000D01*
X101675552Y-83749448D01*
X101755798Y-83815304D01*
X101847350Y-83864239D01*
X101946690Y-83894374D01*
X102050000Y-83904549D01*
X103250000Y-83904549D01*
X103353310Y-83894374D01*
X103452650Y-83864239D01*
X103544202Y-83815304D01*
X103599572Y-83769863D01*
X103614057Y-83784348D01*
X103700372Y-83842021D01*
X103796280Y-83881748D01*
X103898095Y-83902000D01*
X104345250Y-83902000D01*
X104477000Y-83770250D01*
X104477000Y-83073000D01*
X104457000Y-83073000D01*
X104457000Y-82927000D01*
X104477000Y-82927000D01*
X104477000Y-82229750D01*
X104345250Y-82098000D01*
X103898095Y-82098000D01*
X103796280Y-82118252D01*
X103700372Y-82157979D01*
X103614057Y-82215652D01*
X103599572Y-82230137D01*
X103544202Y-82184696D01*
X103452650Y-82135761D01*
X103353310Y-82105626D01*
X103250000Y-82095451D01*
X102050000Y-82095451D01*
X101946690Y-82105626D01*
X101847350Y-82135761D01*
X101755798Y-82184696D01*
X101675552Y-82250552D01*
X101616096Y-82323000D01*
X101379549Y-82323000D01*
X101379549Y-81886273D01*
X101401633Y-81874530D01*
X101455105Y-81846813D01*
X101457784Y-81844675D01*
X101460811Y-81843065D01*
X101507506Y-81804982D01*
X101554552Y-81767425D01*
X101559324Y-81762720D01*
X101559422Y-81762640D01*
X101559497Y-81762550D01*
X101561034Y-81761034D01*
X101873609Y-81448459D01*
X101884696Y-81469202D01*
X101884696Y-81469202D01*
G37*
X101884696Y-81469202D02*
X101950552Y-81549448D01*
X102030798Y-81615304D01*
X102122350Y-81664239D01*
X102221690Y-81694374D01*
X102325000Y-81704549D01*
X103775000Y-81704549D01*
X103878310Y-81694374D01*
X103977650Y-81664239D01*
X104047320Y-81627000D01*
X104391314Y-81627000D01*
X104397469Y-81642546D01*
X104495948Y-81795356D01*
X104622233Y-81926128D01*
X104771513Y-82029880D01*
X104927433Y-82098000D01*
X104754750Y-82098000D01*
X104623000Y-82229750D01*
X104623000Y-82927000D01*
X104643000Y-82927000D01*
X104643000Y-83073000D01*
X104623000Y-83073000D01*
X104623000Y-83770250D01*
X104754750Y-83902000D01*
X105162107Y-83902000D01*
X105171522Y-83925780D01*
X105270001Y-84078590D01*
X105310426Y-84120451D01*
X102150000Y-84120451D01*
X102046690Y-84130626D01*
X101947350Y-84160761D01*
X101855798Y-84209696D01*
X101787673Y-84265605D01*
X101561034Y-84038966D01*
X101514435Y-84000690D01*
X101468358Y-83962026D01*
X101465356Y-83960376D01*
X101462705Y-83958198D01*
X101409608Y-83929728D01*
X101377000Y-83911802D01*
X101377000Y-83904750D01*
X101245250Y-83773000D01*
X101122320Y-83773000D01*
X101052650Y-83735761D01*
X100953310Y-83705626D01*
X100896187Y-83700000D01*
X100953310Y-83694374D01*
X101010583Y-83677000D01*
X101616096Y-83677000D01*
X101675552Y-83749448D01*
X101755798Y-83815304D01*
X101847350Y-83864239D01*
X101946690Y-83894374D01*
X102050000Y-83904549D01*
X103250000Y-83904549D01*
X103353310Y-83894374D01*
X103452650Y-83864239D01*
X103544202Y-83815304D01*
X103599572Y-83769863D01*
X103614057Y-83784348D01*
X103700372Y-83842021D01*
X103796280Y-83881748D01*
X103898095Y-83902000D01*
X104345250Y-83902000D01*
X104477000Y-83770250D01*
X104477000Y-83073000D01*
X104457000Y-83073000D01*
X104457000Y-82927000D01*
X104477000Y-82927000D01*
X104477000Y-82229750D01*
X104345250Y-82098000D01*
X103898095Y-82098000D01*
X103796280Y-82118252D01*
X103700372Y-82157979D01*
X103614057Y-82215652D01*
X103599572Y-82230137D01*
X103544202Y-82184696D01*
X103452650Y-82135761D01*
X103353310Y-82105626D01*
X103250000Y-82095451D01*
X102050000Y-82095451D01*
X101946690Y-82105626D01*
X101847350Y-82135761D01*
X101755798Y-82184696D01*
X101675552Y-82250552D01*
X101616096Y-82323000D01*
X101379549Y-82323000D01*
X101379549Y-81886273D01*
X101401633Y-81874530D01*
X101455105Y-81846813D01*
X101457784Y-81844675D01*
X101460811Y-81843065D01*
X101507506Y-81804982D01*
X101554552Y-81767425D01*
X101559324Y-81762720D01*
X101559422Y-81762640D01*
X101559497Y-81762550D01*
X101561034Y-81761034D01*
X101873609Y-81448459D01*
X101884696Y-81469202D01*
G36*
X91272940Y-81295007D02*
X91271782Y-81377945D01*
X91304599Y-81556752D01*
X91371522Y-81725780D01*
X91470001Y-81878590D01*
X91596286Y-82009362D01*
X91745566Y-82113114D01*
X91873549Y-82169029D01*
X90219578Y-83823000D01*
X89895250Y-83823000D01*
X89845250Y-83773000D01*
X89722320Y-83773000D01*
X89652650Y-83735761D01*
X89553310Y-83705626D01*
X89496187Y-83700000D01*
X89553310Y-83694374D01*
X89652650Y-83664239D01*
X89722320Y-83627000D01*
X89845250Y-83627000D01*
X89977000Y-83495250D01*
X89977000Y-83373095D01*
X89962593Y-83300664D01*
X89969374Y-83278310D01*
X89979549Y-83175000D01*
X89979549Y-82625000D01*
X89969374Y-82521690D01*
X89962794Y-82500000D01*
X89969374Y-82478310D01*
X89979549Y-82375000D01*
X89979549Y-81825000D01*
X89969374Y-81721690D01*
X89962794Y-81700000D01*
X89969374Y-81678310D01*
X89979549Y-81575000D01*
X89979549Y-81025000D01*
X89969374Y-80921690D01*
X89962794Y-80900000D01*
X89969374Y-80878310D01*
X89979549Y-80775000D01*
X89979549Y-80225000D01*
X89969374Y-80121690D01*
X89962794Y-80100000D01*
X89969374Y-80078310D01*
X89977163Y-79999231D01*
X91272940Y-81295007D01*
X91272940Y-81295007D01*
G37*
X91272940Y-81295007D02*
X91271782Y-81377945D01*
X91304599Y-81556752D01*
X91371522Y-81725780D01*
X91470001Y-81878590D01*
X91596286Y-82009362D01*
X91745566Y-82113114D01*
X91873549Y-82169029D01*
X90219578Y-83823000D01*
X89895250Y-83823000D01*
X89845250Y-83773000D01*
X89722320Y-83773000D01*
X89652650Y-83735761D01*
X89553310Y-83705626D01*
X89496187Y-83700000D01*
X89553310Y-83694374D01*
X89652650Y-83664239D01*
X89722320Y-83627000D01*
X89845250Y-83627000D01*
X89977000Y-83495250D01*
X89977000Y-83373095D01*
X89962593Y-83300664D01*
X89969374Y-83278310D01*
X89979549Y-83175000D01*
X89979549Y-82625000D01*
X89969374Y-82521690D01*
X89962794Y-82500000D01*
X89969374Y-82478310D01*
X89979549Y-82375000D01*
X89979549Y-81825000D01*
X89969374Y-81721690D01*
X89962794Y-81700000D01*
X89969374Y-81678310D01*
X89979549Y-81575000D01*
X89979549Y-81025000D01*
X89969374Y-80921690D01*
X89962794Y-80900000D01*
X89969374Y-80878310D01*
X89979549Y-80775000D01*
X89979549Y-80225000D01*
X89969374Y-80121690D01*
X89962794Y-80100000D01*
X89969374Y-80078310D01*
X89977163Y-79999231D01*
X91272940Y-81295007D01*
G36*
X117698000Y-74617114D02*
X117601905Y-74598000D01*
X116504750Y-74598000D01*
X116373000Y-74729750D01*
X116373000Y-75687000D01*
X116393000Y-75687000D01*
X116393000Y-75833000D01*
X116373000Y-75833000D01*
X116373000Y-76790250D01*
X116504750Y-76922000D01*
X117601905Y-76922000D01*
X117698000Y-76902886D01*
X117698000Y-77159183D01*
X117653310Y-77145626D01*
X117550000Y-77135451D01*
X115125275Y-77135451D01*
X115127039Y-77009103D01*
X115109792Y-76922000D01*
X116095250Y-76922000D01*
X116227000Y-76790250D01*
X116227000Y-75833000D01*
X114654750Y-75833000D01*
X114523000Y-75964750D01*
X114523000Y-76230162D01*
X114475448Y-76210173D01*
X114297367Y-76173618D01*
X114115577Y-76172349D01*
X114079549Y-76179222D01*
X114079549Y-75125000D01*
X114074437Y-75073095D01*
X114523000Y-75073095D01*
X114523000Y-75555250D01*
X114654750Y-75687000D01*
X116227000Y-75687000D01*
X116227000Y-74729750D01*
X116095250Y-74598000D01*
X114998095Y-74598000D01*
X114896280Y-74618252D01*
X114800372Y-74657979D01*
X114714057Y-74715652D01*
X114640652Y-74789057D01*
X114582979Y-74875372D01*
X114543252Y-74971280D01*
X114523000Y-75073095D01*
X114074437Y-75073095D01*
X114069374Y-75021690D01*
X114039239Y-74922350D01*
X113990304Y-74830798D01*
X113924448Y-74750552D01*
X113844202Y-74684696D01*
X113752650Y-74635761D01*
X113653310Y-74605626D01*
X113550000Y-74595451D01*
X111050000Y-74595451D01*
X110946690Y-74605626D01*
X110847350Y-74635761D01*
X110755798Y-74684696D01*
X110675552Y-74750552D01*
X110609696Y-74830798D01*
X110560761Y-74922350D01*
X110530626Y-75021690D01*
X110520451Y-75125000D01*
X110520451Y-76395000D01*
X110530626Y-76498310D01*
X110560761Y-76597650D01*
X110609696Y-76689202D01*
X110675552Y-76769448D01*
X110755798Y-76835304D01*
X110847350Y-76884239D01*
X110946690Y-76914374D01*
X111050000Y-76924549D01*
X112542482Y-76924549D01*
X112753384Y-77135451D01*
X111050000Y-77135451D01*
X110946690Y-77145626D01*
X110847350Y-77175761D01*
X110755798Y-77224696D01*
X110675552Y-77290552D01*
X110609696Y-77370798D01*
X110560761Y-77462350D01*
X110530626Y-77561690D01*
X110520451Y-77665000D01*
X110520451Y-78034588D01*
X110503122Y-78027304D01*
X110325041Y-77990749D01*
X110198161Y-77989863D01*
X110204549Y-77925000D01*
X110204549Y-77475000D01*
X110194700Y-77375000D01*
X110204549Y-77275000D01*
X110204549Y-76825000D01*
X110194374Y-76721690D01*
X110164239Y-76622350D01*
X110115304Y-76530798D01*
X110049448Y-76450552D01*
X109969202Y-76384696D01*
X109877650Y-76335761D01*
X109778310Y-76305626D01*
X109727000Y-76300572D01*
X109727000Y-76096965D01*
X109753310Y-76094374D01*
X109852650Y-76064239D01*
X109944202Y-76015304D01*
X110024448Y-75949448D01*
X110090304Y-75869202D01*
X110139239Y-75777650D01*
X110169374Y-75678310D01*
X110179549Y-75575000D01*
X110179549Y-74825000D01*
X110169374Y-74721690D01*
X110139239Y-74622350D01*
X110090304Y-74530798D01*
X110024448Y-74450552D01*
X109944202Y-74384696D01*
X109852650Y-74335761D01*
X109753310Y-74305626D01*
X109650000Y-74295451D01*
X108877874Y-74295451D01*
X107828710Y-73246288D01*
X107780403Y-73206608D01*
X107732482Y-73166397D01*
X107729362Y-73164682D01*
X107726611Y-73162422D01*
X107671490Y-73132866D01*
X107616698Y-73102744D01*
X107613305Y-73101668D01*
X107610167Y-73099985D01*
X107550335Y-73081693D01*
X107490755Y-73062793D01*
X107487219Y-73062396D01*
X107483813Y-73061355D01*
X107421616Y-73055038D01*
X107359451Y-73048065D01*
X107352484Y-73048016D01*
X107352362Y-73048004D01*
X107352249Y-73048015D01*
X107349999Y-73047999D01*
X88175001Y-73047999D01*
X88112741Y-73054103D01*
X88050466Y-73059552D01*
X88047051Y-73060544D01*
X88043504Y-73060892D01*
X87983592Y-73078981D01*
X87923585Y-73096414D01*
X87920426Y-73098051D01*
X87917016Y-73099081D01*
X87861782Y-73128450D01*
X87806280Y-73157219D01*
X87803498Y-73159440D01*
X87800355Y-73161111D01*
X87751904Y-73200627D01*
X87703020Y-73239651D01*
X87698060Y-73244542D01*
X87697964Y-73244620D01*
X87697890Y-73244709D01*
X87696289Y-73246288D01*
X80621289Y-80321289D01*
X80581609Y-80369596D01*
X80541398Y-80417517D01*
X80539683Y-80420637D01*
X80537423Y-80423388D01*
X80507867Y-80478509D01*
X80484809Y-80520451D01*
X80350000Y-80520451D01*
X80246690Y-80530626D01*
X80147350Y-80560761D01*
X80055798Y-80609696D01*
X79975552Y-80675552D01*
X79950000Y-80706687D01*
X79924448Y-80675552D01*
X79844202Y-80609696D01*
X79752650Y-80560761D01*
X79653310Y-80530626D01*
X79550000Y-80520451D01*
X78050000Y-80520451D01*
X77946690Y-80530626D01*
X77847350Y-80560761D01*
X77755798Y-80609696D01*
X77675552Y-80675552D01*
X77609696Y-80755798D01*
X77560761Y-80847350D01*
X77530626Y-80946690D01*
X77520451Y-81050000D01*
X77520451Y-83050000D01*
X77530626Y-83153310D01*
X77560761Y-83252650D01*
X77609696Y-83344202D01*
X77675552Y-83424448D01*
X77755798Y-83490304D01*
X77847350Y-83539239D01*
X77923000Y-83562188D01*
X77923000Y-83770451D01*
X77350000Y-83770451D01*
X77277000Y-83777641D01*
X77277000Y-79940000D01*
X77243157Y-79594846D01*
X77142918Y-79262838D01*
X76980101Y-78956623D01*
X76760907Y-78687865D01*
X76493686Y-78466800D01*
X76412620Y-78422968D01*
X76487002Y-78360190D01*
X76655361Y-78149186D01*
X76779320Y-77909391D01*
X76846715Y-77687209D01*
X76743108Y-77473000D01*
X75573000Y-77473000D01*
X75573000Y-77493000D01*
X75427000Y-77493000D01*
X75427000Y-77473000D01*
X74256892Y-77473000D01*
X74153285Y-77687209D01*
X74220680Y-77909391D01*
X74344639Y-78149186D01*
X74512998Y-78360190D01*
X74586302Y-78422057D01*
X74526980Y-78453070D01*
X74256698Y-78670382D01*
X74102000Y-78854744D01*
X74102000Y-77112791D01*
X74153285Y-77112791D01*
X74256892Y-77327000D01*
X75427000Y-77327000D01*
X75427000Y-76156683D01*
X75573000Y-76156683D01*
X75573000Y-77327000D01*
X76743108Y-77327000D01*
X76846715Y-77112791D01*
X76779320Y-76890609D01*
X76655361Y-76650814D01*
X76487002Y-76439810D01*
X76280713Y-76265705D01*
X76044422Y-76135191D01*
X75787209Y-76053282D01*
X75573000Y-76156683D01*
X75427000Y-76156683D01*
X75212791Y-76053282D01*
X74955578Y-76135191D01*
X74719287Y-76265705D01*
X74512998Y-76439810D01*
X74344639Y-76650814D01*
X74220680Y-76890609D01*
X74153285Y-77112791D01*
X74102000Y-77112791D01*
X74102000Y-74750000D01*
X78670451Y-74750000D01*
X78670451Y-76750000D01*
X78680626Y-76853310D01*
X78710761Y-76952650D01*
X78759696Y-77044202D01*
X78825552Y-77124448D01*
X78905798Y-77190304D01*
X78997350Y-77239239D01*
X79096690Y-77269374D01*
X79200000Y-77279549D01*
X83000000Y-77279549D01*
X83103310Y-77269374D01*
X83202650Y-77239239D01*
X83294202Y-77190304D01*
X83374448Y-77124448D01*
X83440304Y-77044202D01*
X83489239Y-76952650D01*
X83519374Y-76853310D01*
X83529549Y-76750000D01*
X83529549Y-74750000D01*
X83519374Y-74646690D01*
X83489239Y-74547350D01*
X83440304Y-74455798D01*
X83374448Y-74375552D01*
X83294202Y-74309696D01*
X83202650Y-74260761D01*
X83103310Y-74230626D01*
X83000000Y-74220451D01*
X79200000Y-74220451D01*
X79096690Y-74230626D01*
X78997350Y-74260761D01*
X78905798Y-74309696D01*
X78825552Y-74375552D01*
X78759696Y-74455798D01*
X78710761Y-74547350D01*
X78680626Y-74646690D01*
X78670451Y-74750000D01*
X74102000Y-74750000D01*
X74102000Y-73002000D01*
X117698000Y-73002000D01*
X117698000Y-74617114D01*
X117698000Y-74617114D01*
G37*
X117698000Y-74617114D02*
X117601905Y-74598000D01*
X116504750Y-74598000D01*
X116373000Y-74729750D01*
X116373000Y-75687000D01*
X116393000Y-75687000D01*
X116393000Y-75833000D01*
X116373000Y-75833000D01*
X116373000Y-76790250D01*
X116504750Y-76922000D01*
X117601905Y-76922000D01*
X117698000Y-76902886D01*
X117698000Y-77159183D01*
X117653310Y-77145626D01*
X117550000Y-77135451D01*
X115125275Y-77135451D01*
X115127039Y-77009103D01*
X115109792Y-76922000D01*
X116095250Y-76922000D01*
X116227000Y-76790250D01*
X116227000Y-75833000D01*
X114654750Y-75833000D01*
X114523000Y-75964750D01*
X114523000Y-76230162D01*
X114475448Y-76210173D01*
X114297367Y-76173618D01*
X114115577Y-76172349D01*
X114079549Y-76179222D01*
X114079549Y-75125000D01*
X114074437Y-75073095D01*
X114523000Y-75073095D01*
X114523000Y-75555250D01*
X114654750Y-75687000D01*
X116227000Y-75687000D01*
X116227000Y-74729750D01*
X116095250Y-74598000D01*
X114998095Y-74598000D01*
X114896280Y-74618252D01*
X114800372Y-74657979D01*
X114714057Y-74715652D01*
X114640652Y-74789057D01*
X114582979Y-74875372D01*
X114543252Y-74971280D01*
X114523000Y-75073095D01*
X114074437Y-75073095D01*
X114069374Y-75021690D01*
X114039239Y-74922350D01*
X113990304Y-74830798D01*
X113924448Y-74750552D01*
X113844202Y-74684696D01*
X113752650Y-74635761D01*
X113653310Y-74605626D01*
X113550000Y-74595451D01*
X111050000Y-74595451D01*
X110946690Y-74605626D01*
X110847350Y-74635761D01*
X110755798Y-74684696D01*
X110675552Y-74750552D01*
X110609696Y-74830798D01*
X110560761Y-74922350D01*
X110530626Y-75021690D01*
X110520451Y-75125000D01*
X110520451Y-76395000D01*
X110530626Y-76498310D01*
X110560761Y-76597650D01*
X110609696Y-76689202D01*
X110675552Y-76769448D01*
X110755798Y-76835304D01*
X110847350Y-76884239D01*
X110946690Y-76914374D01*
X111050000Y-76924549D01*
X112542482Y-76924549D01*
X112753384Y-77135451D01*
X111050000Y-77135451D01*
X110946690Y-77145626D01*
X110847350Y-77175761D01*
X110755798Y-77224696D01*
X110675552Y-77290552D01*
X110609696Y-77370798D01*
X110560761Y-77462350D01*
X110530626Y-77561690D01*
X110520451Y-77665000D01*
X110520451Y-78034588D01*
X110503122Y-78027304D01*
X110325041Y-77990749D01*
X110198161Y-77989863D01*
X110204549Y-77925000D01*
X110204549Y-77475000D01*
X110194700Y-77375000D01*
X110204549Y-77275000D01*
X110204549Y-76825000D01*
X110194374Y-76721690D01*
X110164239Y-76622350D01*
X110115304Y-76530798D01*
X110049448Y-76450552D01*
X109969202Y-76384696D01*
X109877650Y-76335761D01*
X109778310Y-76305626D01*
X109727000Y-76300572D01*
X109727000Y-76096965D01*
X109753310Y-76094374D01*
X109852650Y-76064239D01*
X109944202Y-76015304D01*
X110024448Y-75949448D01*
X110090304Y-75869202D01*
X110139239Y-75777650D01*
X110169374Y-75678310D01*
X110179549Y-75575000D01*
X110179549Y-74825000D01*
X110169374Y-74721690D01*
X110139239Y-74622350D01*
X110090304Y-74530798D01*
X110024448Y-74450552D01*
X109944202Y-74384696D01*
X109852650Y-74335761D01*
X109753310Y-74305626D01*
X109650000Y-74295451D01*
X108877874Y-74295451D01*
X107828710Y-73246288D01*
X107780403Y-73206608D01*
X107732482Y-73166397D01*
X107729362Y-73164682D01*
X107726611Y-73162422D01*
X107671490Y-73132866D01*
X107616698Y-73102744D01*
X107613305Y-73101668D01*
X107610167Y-73099985D01*
X107550335Y-73081693D01*
X107490755Y-73062793D01*
X107487219Y-73062396D01*
X107483813Y-73061355D01*
X107421616Y-73055038D01*
X107359451Y-73048065D01*
X107352484Y-73048016D01*
X107352362Y-73048004D01*
X107352249Y-73048015D01*
X107349999Y-73047999D01*
X88175001Y-73047999D01*
X88112741Y-73054103D01*
X88050466Y-73059552D01*
X88047051Y-73060544D01*
X88043504Y-73060892D01*
X87983592Y-73078981D01*
X87923585Y-73096414D01*
X87920426Y-73098051D01*
X87917016Y-73099081D01*
X87861782Y-73128450D01*
X87806280Y-73157219D01*
X87803498Y-73159440D01*
X87800355Y-73161111D01*
X87751904Y-73200627D01*
X87703020Y-73239651D01*
X87698060Y-73244542D01*
X87697964Y-73244620D01*
X87697890Y-73244709D01*
X87696289Y-73246288D01*
X80621289Y-80321289D01*
X80581609Y-80369596D01*
X80541398Y-80417517D01*
X80539683Y-80420637D01*
X80537423Y-80423388D01*
X80507867Y-80478509D01*
X80484809Y-80520451D01*
X80350000Y-80520451D01*
X80246690Y-80530626D01*
X80147350Y-80560761D01*
X80055798Y-80609696D01*
X79975552Y-80675552D01*
X79950000Y-80706687D01*
X79924448Y-80675552D01*
X79844202Y-80609696D01*
X79752650Y-80560761D01*
X79653310Y-80530626D01*
X79550000Y-80520451D01*
X78050000Y-80520451D01*
X77946690Y-80530626D01*
X77847350Y-80560761D01*
X77755798Y-80609696D01*
X77675552Y-80675552D01*
X77609696Y-80755798D01*
X77560761Y-80847350D01*
X77530626Y-80946690D01*
X77520451Y-81050000D01*
X77520451Y-83050000D01*
X77530626Y-83153310D01*
X77560761Y-83252650D01*
X77609696Y-83344202D01*
X77675552Y-83424448D01*
X77755798Y-83490304D01*
X77847350Y-83539239D01*
X77923000Y-83562188D01*
X77923000Y-83770451D01*
X77350000Y-83770451D01*
X77277000Y-83777641D01*
X77277000Y-79940000D01*
X77243157Y-79594846D01*
X77142918Y-79262838D01*
X76980101Y-78956623D01*
X76760907Y-78687865D01*
X76493686Y-78466800D01*
X76412620Y-78422968D01*
X76487002Y-78360190D01*
X76655361Y-78149186D01*
X76779320Y-77909391D01*
X76846715Y-77687209D01*
X76743108Y-77473000D01*
X75573000Y-77473000D01*
X75573000Y-77493000D01*
X75427000Y-77493000D01*
X75427000Y-77473000D01*
X74256892Y-77473000D01*
X74153285Y-77687209D01*
X74220680Y-77909391D01*
X74344639Y-78149186D01*
X74512998Y-78360190D01*
X74586302Y-78422057D01*
X74526980Y-78453070D01*
X74256698Y-78670382D01*
X74102000Y-78854744D01*
X74102000Y-77112791D01*
X74153285Y-77112791D01*
X74256892Y-77327000D01*
X75427000Y-77327000D01*
X75427000Y-76156683D01*
X75573000Y-76156683D01*
X75573000Y-77327000D01*
X76743108Y-77327000D01*
X76846715Y-77112791D01*
X76779320Y-76890609D01*
X76655361Y-76650814D01*
X76487002Y-76439810D01*
X76280713Y-76265705D01*
X76044422Y-76135191D01*
X75787209Y-76053282D01*
X75573000Y-76156683D01*
X75427000Y-76156683D01*
X75212791Y-76053282D01*
X74955578Y-76135191D01*
X74719287Y-76265705D01*
X74512998Y-76439810D01*
X74344639Y-76650814D01*
X74220680Y-76890609D01*
X74153285Y-77112791D01*
X74102000Y-77112791D01*
X74102000Y-74750000D01*
X78670451Y-74750000D01*
X78670451Y-76750000D01*
X78680626Y-76853310D01*
X78710761Y-76952650D01*
X78759696Y-77044202D01*
X78825552Y-77124448D01*
X78905798Y-77190304D01*
X78997350Y-77239239D01*
X79096690Y-77269374D01*
X79200000Y-77279549D01*
X83000000Y-77279549D01*
X83103310Y-77269374D01*
X83202650Y-77239239D01*
X83294202Y-77190304D01*
X83374448Y-77124448D01*
X83440304Y-77044202D01*
X83489239Y-76952650D01*
X83519374Y-76853310D01*
X83529549Y-76750000D01*
X83529549Y-74750000D01*
X83519374Y-74646690D01*
X83489239Y-74547350D01*
X83440304Y-74455798D01*
X83374448Y-74375552D01*
X83294202Y-74309696D01*
X83202650Y-74260761D01*
X83103310Y-74230626D01*
X83000000Y-74220451D01*
X79200000Y-74220451D01*
X79096690Y-74230626D01*
X78997350Y-74260761D01*
X78905798Y-74309696D01*
X78825552Y-74375552D01*
X78759696Y-74455798D01*
X78710761Y-74547350D01*
X78680626Y-74646690D01*
X78670451Y-74750000D01*
X74102000Y-74750000D01*
X74102000Y-73002000D01*
X117698000Y-73002000D01*
X117698000Y-74617114D01*
G36*
X98830626Y-79321690D02*
X98820451Y-79425000D01*
X98820451Y-79809866D01*
X98693751Y-79682278D01*
X98543037Y-79580621D01*
X98375448Y-79510173D01*
X98197367Y-79473618D01*
X98015577Y-79472349D01*
X97837003Y-79506413D01*
X97668447Y-79574515D01*
X97516328Y-79674058D01*
X97386441Y-79801253D01*
X97283733Y-79951254D01*
X97212117Y-80118347D01*
X97174320Y-80296168D01*
X97171782Y-80477945D01*
X97204599Y-80656752D01*
X97271522Y-80825780D01*
X97370001Y-80978590D01*
X97457708Y-81069413D01*
X97459126Y-81085622D01*
X97460082Y-81088914D01*
X97460417Y-81092326D01*
X97477820Y-81149968D01*
X97494627Y-81207817D01*
X97496205Y-81210862D01*
X97497196Y-81214143D01*
X97525470Y-81267318D01*
X97553187Y-81320790D01*
X97555325Y-81323469D01*
X97556935Y-81326496D01*
X97595018Y-81373191D01*
X97632575Y-81420237D01*
X97637280Y-81425009D01*
X97637360Y-81425107D01*
X97637450Y-81425182D01*
X97638966Y-81426719D01*
X98435248Y-82223000D01*
X95380423Y-82223000D01*
X94277000Y-81119578D01*
X94277000Y-80006374D01*
X94304599Y-80156750D01*
X94371522Y-80325778D01*
X94470001Y-80478588D01*
X94596286Y-80609360D01*
X94745566Y-80713112D01*
X94912155Y-80785893D01*
X95089708Y-80824930D01*
X95271463Y-80828738D01*
X95450495Y-80797169D01*
X95619986Y-80731428D01*
X95773479Y-80634018D01*
X95905130Y-80508649D01*
X96009921Y-80360097D01*
X96083864Y-80194020D01*
X96124140Y-80016744D01*
X96127039Y-79809101D01*
X96091729Y-79630769D01*
X96022452Y-79462692D01*
X95921849Y-79311272D01*
X95890347Y-79279549D01*
X96275000Y-79279549D01*
X96378310Y-79269374D01*
X96400000Y-79262794D01*
X96421690Y-79269374D01*
X96525000Y-79279549D01*
X97075000Y-79279549D01*
X97178310Y-79269374D01*
X97200000Y-79262794D01*
X97221690Y-79269374D01*
X97325000Y-79279549D01*
X97875000Y-79279549D01*
X97978310Y-79269374D01*
X98000000Y-79262794D01*
X98021690Y-79269374D01*
X98125000Y-79279549D01*
X98675000Y-79279549D01*
X98778310Y-79269374D01*
X98853407Y-79246593D01*
X98830626Y-79321690D01*
X98830626Y-79321690D01*
G37*
X98830626Y-79321690D02*
X98820451Y-79425000D01*
X98820451Y-79809866D01*
X98693751Y-79682278D01*
X98543037Y-79580621D01*
X98375448Y-79510173D01*
X98197367Y-79473618D01*
X98015577Y-79472349D01*
X97837003Y-79506413D01*
X97668447Y-79574515D01*
X97516328Y-79674058D01*
X97386441Y-79801253D01*
X97283733Y-79951254D01*
X97212117Y-80118347D01*
X97174320Y-80296168D01*
X97171782Y-80477945D01*
X97204599Y-80656752D01*
X97271522Y-80825780D01*
X97370001Y-80978590D01*
X97457708Y-81069413D01*
X97459126Y-81085622D01*
X97460082Y-81088914D01*
X97460417Y-81092326D01*
X97477820Y-81149968D01*
X97494627Y-81207817D01*
X97496205Y-81210862D01*
X97497196Y-81214143D01*
X97525470Y-81267318D01*
X97553187Y-81320790D01*
X97555325Y-81323469D01*
X97556935Y-81326496D01*
X97595018Y-81373191D01*
X97632575Y-81420237D01*
X97637280Y-81425009D01*
X97637360Y-81425107D01*
X97637450Y-81425182D01*
X97638966Y-81426719D01*
X98435248Y-82223000D01*
X95380423Y-82223000D01*
X94277000Y-81119578D01*
X94277000Y-80006374D01*
X94304599Y-80156750D01*
X94371522Y-80325778D01*
X94470001Y-80478588D01*
X94596286Y-80609360D01*
X94745566Y-80713112D01*
X94912155Y-80785893D01*
X95089708Y-80824930D01*
X95271463Y-80828738D01*
X95450495Y-80797169D01*
X95619986Y-80731428D01*
X95773479Y-80634018D01*
X95905130Y-80508649D01*
X96009921Y-80360097D01*
X96083864Y-80194020D01*
X96124140Y-80016744D01*
X96127039Y-79809101D01*
X96091729Y-79630769D01*
X96022452Y-79462692D01*
X95921849Y-79311272D01*
X95890347Y-79279549D01*
X96275000Y-79279549D01*
X96378310Y-79269374D01*
X96400000Y-79262794D01*
X96421690Y-79269374D01*
X96525000Y-79279549D01*
X97075000Y-79279549D01*
X97178310Y-79269374D01*
X97200000Y-79262794D01*
X97221690Y-79269374D01*
X97325000Y-79279549D01*
X97875000Y-79279549D01*
X97978310Y-79269374D01*
X98000000Y-79262794D01*
X98021690Y-79269374D01*
X98125000Y-79279549D01*
X98675000Y-79279549D01*
X98778310Y-79269374D01*
X98853407Y-79246593D01*
X98830626Y-79321690D01*
G36*
X110022999Y-81848000D02*
X109764527Y-81848000D01*
X109739199Y-81786550D01*
X109683024Y-81702000D01*
X109726905Y-81702000D01*
X109828720Y-81681748D01*
X109924628Y-81642021D01*
X110010943Y-81584348D01*
X110022999Y-81572292D01*
X110022999Y-81848000D01*
X110022999Y-81848000D01*
G37*
X110022999Y-81848000D02*
X109764527Y-81848000D01*
X109739199Y-81786550D01*
X109683024Y-81702000D01*
X109726905Y-81702000D01*
X109828720Y-81681748D01*
X109924628Y-81642021D01*
X110010943Y-81584348D01*
X110022999Y-81572292D01*
X110022999Y-81848000D01*
G36*
X106214057Y-74415652D02*
X106140652Y-74489057D01*
X106082979Y-74575372D01*
X106043252Y-74671280D01*
X106023000Y-74773095D01*
X106023000Y-74995250D01*
X106154750Y-75127000D01*
X107077000Y-75127000D01*
X107077000Y-75107000D01*
X107223000Y-75107000D01*
X107223000Y-75127000D01*
X107243000Y-75127000D01*
X107243000Y-75273000D01*
X107223000Y-75273000D01*
X107223000Y-75970250D01*
X107354750Y-76102000D01*
X107801905Y-76102000D01*
X107903720Y-76081748D01*
X107999628Y-76042021D01*
X108085943Y-75984348D01*
X108100428Y-75969863D01*
X108155798Y-76015304D01*
X108247350Y-76064239D01*
X108346690Y-76094374D01*
X108373000Y-76096965D01*
X108373000Y-76295451D01*
X108225000Y-76295451D01*
X108121690Y-76305626D01*
X108022350Y-76335761D01*
X107952680Y-76373000D01*
X105995511Y-76373000D01*
X105908671Y-76285551D01*
X105757957Y-76183894D01*
X105590368Y-76113446D01*
X105518514Y-76098696D01*
X105603720Y-76081748D01*
X105699628Y-76042021D01*
X105785943Y-75984348D01*
X105859348Y-75910943D01*
X105917021Y-75824628D01*
X105956748Y-75728720D01*
X105977000Y-75626905D01*
X105977000Y-75404750D01*
X106023000Y-75404750D01*
X106023000Y-75626905D01*
X106043252Y-75728720D01*
X106082979Y-75824628D01*
X106140652Y-75910943D01*
X106214057Y-75984348D01*
X106300372Y-76042021D01*
X106396280Y-76081748D01*
X106498095Y-76102000D01*
X106945250Y-76102000D01*
X107077000Y-75970250D01*
X107077000Y-75273000D01*
X106154750Y-75273000D01*
X106023000Y-75404750D01*
X105977000Y-75404750D01*
X105845250Y-75273000D01*
X104923000Y-75273000D01*
X104923000Y-75970250D01*
X105054750Y-76102000D01*
X105092215Y-76102000D01*
X105051923Y-76109686D01*
X104883367Y-76177788D01*
X104731248Y-76277331D01*
X104601361Y-76404526D01*
X104498653Y-76554527D01*
X104427037Y-76721620D01*
X104389240Y-76899441D01*
X104386702Y-77081218D01*
X104419519Y-77260025D01*
X104486442Y-77429053D01*
X104584921Y-77581863D01*
X104697073Y-77698000D01*
X104304549Y-77698000D01*
X104304549Y-77475000D01*
X104294700Y-77375000D01*
X104304549Y-77275000D01*
X104304549Y-76825000D01*
X104294374Y-76721690D01*
X104264239Y-76622350D01*
X104215304Y-76530798D01*
X104149448Y-76450552D01*
X104069202Y-76384696D01*
X103977650Y-76335761D01*
X103878310Y-76305626D01*
X103775000Y-76295451D01*
X103727000Y-76295451D01*
X103727000Y-76072020D01*
X103752650Y-76064239D01*
X103844202Y-76015304D01*
X103899572Y-75969863D01*
X103914057Y-75984348D01*
X104000372Y-76042021D01*
X104096280Y-76081748D01*
X104198095Y-76102000D01*
X104645250Y-76102000D01*
X104777000Y-75970250D01*
X104777000Y-75273000D01*
X104757000Y-75273000D01*
X104757000Y-75127000D01*
X104777000Y-75127000D01*
X104777000Y-75107000D01*
X104923000Y-75107000D01*
X104923000Y-75127000D01*
X105845250Y-75127000D01*
X105977000Y-74995250D01*
X105977000Y-74773095D01*
X105956748Y-74671280D01*
X105917021Y-74575372D01*
X105859348Y-74489057D01*
X105785943Y-74415652D01*
X105765510Y-74401999D01*
X106234490Y-74401999D01*
X106214057Y-74415652D01*
X106214057Y-74415652D01*
G37*
X106214057Y-74415652D02*
X106140652Y-74489057D01*
X106082979Y-74575372D01*
X106043252Y-74671280D01*
X106023000Y-74773095D01*
X106023000Y-74995250D01*
X106154750Y-75127000D01*
X107077000Y-75127000D01*
X107077000Y-75107000D01*
X107223000Y-75107000D01*
X107223000Y-75127000D01*
X107243000Y-75127000D01*
X107243000Y-75273000D01*
X107223000Y-75273000D01*
X107223000Y-75970250D01*
X107354750Y-76102000D01*
X107801905Y-76102000D01*
X107903720Y-76081748D01*
X107999628Y-76042021D01*
X108085943Y-75984348D01*
X108100428Y-75969863D01*
X108155798Y-76015304D01*
X108247350Y-76064239D01*
X108346690Y-76094374D01*
X108373000Y-76096965D01*
X108373000Y-76295451D01*
X108225000Y-76295451D01*
X108121690Y-76305626D01*
X108022350Y-76335761D01*
X107952680Y-76373000D01*
X105995511Y-76373000D01*
X105908671Y-76285551D01*
X105757957Y-76183894D01*
X105590368Y-76113446D01*
X105518514Y-76098696D01*
X105603720Y-76081748D01*
X105699628Y-76042021D01*
X105785943Y-75984348D01*
X105859348Y-75910943D01*
X105917021Y-75824628D01*
X105956748Y-75728720D01*
X105977000Y-75626905D01*
X105977000Y-75404750D01*
X106023000Y-75404750D01*
X106023000Y-75626905D01*
X106043252Y-75728720D01*
X106082979Y-75824628D01*
X106140652Y-75910943D01*
X106214057Y-75984348D01*
X106300372Y-76042021D01*
X106396280Y-76081748D01*
X106498095Y-76102000D01*
X106945250Y-76102000D01*
X107077000Y-75970250D01*
X107077000Y-75273000D01*
X106154750Y-75273000D01*
X106023000Y-75404750D01*
X105977000Y-75404750D01*
X105845250Y-75273000D01*
X104923000Y-75273000D01*
X104923000Y-75970250D01*
X105054750Y-76102000D01*
X105092215Y-76102000D01*
X105051923Y-76109686D01*
X104883367Y-76177788D01*
X104731248Y-76277331D01*
X104601361Y-76404526D01*
X104498653Y-76554527D01*
X104427037Y-76721620D01*
X104389240Y-76899441D01*
X104386702Y-77081218D01*
X104419519Y-77260025D01*
X104486442Y-77429053D01*
X104584921Y-77581863D01*
X104697073Y-77698000D01*
X104304549Y-77698000D01*
X104304549Y-77475000D01*
X104294700Y-77375000D01*
X104304549Y-77275000D01*
X104304549Y-76825000D01*
X104294374Y-76721690D01*
X104264239Y-76622350D01*
X104215304Y-76530798D01*
X104149448Y-76450552D01*
X104069202Y-76384696D01*
X103977650Y-76335761D01*
X103878310Y-76305626D01*
X103775000Y-76295451D01*
X103727000Y-76295451D01*
X103727000Y-76072020D01*
X103752650Y-76064239D01*
X103844202Y-76015304D01*
X103899572Y-75969863D01*
X103914057Y-75984348D01*
X104000372Y-76042021D01*
X104096280Y-76081748D01*
X104198095Y-76102000D01*
X104645250Y-76102000D01*
X104777000Y-75970250D01*
X104777000Y-75273000D01*
X104757000Y-75273000D01*
X104757000Y-75127000D01*
X104777000Y-75127000D01*
X104777000Y-75107000D01*
X104923000Y-75107000D01*
X104923000Y-75127000D01*
X105845250Y-75127000D01*
X105977000Y-74995250D01*
X105977000Y-74773095D01*
X105956748Y-74671280D01*
X105917021Y-74575372D01*
X105859348Y-74489057D01*
X105785943Y-74415652D01*
X105765510Y-74401999D01*
X106234490Y-74401999D01*
X106214057Y-74415652D01*
G36*
X97816328Y-75474058D02*
X97686441Y-75601253D01*
X97583733Y-75751254D01*
X97512117Y-75918347D01*
X97474320Y-76096168D01*
X97471782Y-76277945D01*
X97504599Y-76456752D01*
X97571522Y-76625780D01*
X97632533Y-76720451D01*
X97325000Y-76720451D01*
X97221690Y-76730626D01*
X97200000Y-76737206D01*
X97178310Y-76730626D01*
X97075000Y-76720451D01*
X96525000Y-76720451D01*
X96421690Y-76730626D01*
X96400000Y-76737206D01*
X96378310Y-76730626D01*
X96275000Y-76720451D01*
X95725000Y-76720451D01*
X95621690Y-76730626D01*
X95600000Y-76737206D01*
X95578310Y-76730626D01*
X95475000Y-76720451D01*
X94925000Y-76720451D01*
X94821690Y-76730626D01*
X94799336Y-76737407D01*
X94726905Y-76723000D01*
X94604750Y-76723000D01*
X94473000Y-76854750D01*
X94473000Y-76977680D01*
X94435761Y-77047350D01*
X94405626Y-77146690D01*
X94400000Y-77203813D01*
X94394374Y-77146690D01*
X94364239Y-77047350D01*
X94327000Y-76977680D01*
X94327000Y-76854750D01*
X94269544Y-76797294D01*
X94265447Y-76750465D01*
X94264455Y-76747050D01*
X94264107Y-76743503D01*
X94246018Y-76683591D01*
X94228585Y-76623584D01*
X94226948Y-76620425D01*
X94225918Y-76617015D01*
X94208454Y-76584169D01*
X94298095Y-76602000D01*
X94745250Y-76602000D01*
X94877000Y-76470250D01*
X94877000Y-75773000D01*
X95023000Y-75773000D01*
X95023000Y-76470250D01*
X95154750Y-76602000D01*
X95601905Y-76602000D01*
X95703720Y-76581748D01*
X95799628Y-76542021D01*
X95885943Y-76484348D01*
X95959348Y-76410943D01*
X96017021Y-76324628D01*
X96056748Y-76228720D01*
X96077000Y-76126905D01*
X96077000Y-75904750D01*
X95945250Y-75773000D01*
X95023000Y-75773000D01*
X94877000Y-75773000D01*
X94857000Y-75773000D01*
X94857000Y-75627000D01*
X94877000Y-75627000D01*
X94877000Y-75607000D01*
X95023000Y-75607000D01*
X95023000Y-75627000D01*
X95945250Y-75627000D01*
X96077000Y-75495250D01*
X96077000Y-75377000D01*
X97964649Y-75377000D01*
X97816328Y-75474058D01*
X97816328Y-75474058D01*
G37*
X97816328Y-75474058D02*
X97686441Y-75601253D01*
X97583733Y-75751254D01*
X97512117Y-75918347D01*
X97474320Y-76096168D01*
X97471782Y-76277945D01*
X97504599Y-76456752D01*
X97571522Y-76625780D01*
X97632533Y-76720451D01*
X97325000Y-76720451D01*
X97221690Y-76730626D01*
X97200000Y-76737206D01*
X97178310Y-76730626D01*
X97075000Y-76720451D01*
X96525000Y-76720451D01*
X96421690Y-76730626D01*
X96400000Y-76737206D01*
X96378310Y-76730626D01*
X96275000Y-76720451D01*
X95725000Y-76720451D01*
X95621690Y-76730626D01*
X95600000Y-76737206D01*
X95578310Y-76730626D01*
X95475000Y-76720451D01*
X94925000Y-76720451D01*
X94821690Y-76730626D01*
X94799336Y-76737407D01*
X94726905Y-76723000D01*
X94604750Y-76723000D01*
X94473000Y-76854750D01*
X94473000Y-76977680D01*
X94435761Y-77047350D01*
X94405626Y-77146690D01*
X94400000Y-77203813D01*
X94394374Y-77146690D01*
X94364239Y-77047350D01*
X94327000Y-76977680D01*
X94327000Y-76854750D01*
X94269544Y-76797294D01*
X94265447Y-76750465D01*
X94264455Y-76747050D01*
X94264107Y-76743503D01*
X94246018Y-76683591D01*
X94228585Y-76623584D01*
X94226948Y-76620425D01*
X94225918Y-76617015D01*
X94208454Y-76584169D01*
X94298095Y-76602000D01*
X94745250Y-76602000D01*
X94877000Y-76470250D01*
X94877000Y-75773000D01*
X95023000Y-75773000D01*
X95023000Y-76470250D01*
X95154750Y-76602000D01*
X95601905Y-76602000D01*
X95703720Y-76581748D01*
X95799628Y-76542021D01*
X95885943Y-76484348D01*
X95959348Y-76410943D01*
X96017021Y-76324628D01*
X96056748Y-76228720D01*
X96077000Y-76126905D01*
X96077000Y-75904750D01*
X95945250Y-75773000D01*
X95023000Y-75773000D01*
X94877000Y-75773000D01*
X94857000Y-75773000D01*
X94857000Y-75627000D01*
X94877000Y-75627000D01*
X94877000Y-75607000D01*
X95023000Y-75607000D01*
X95023000Y-75627000D01*
X95945250Y-75627000D01*
X96077000Y-75495250D01*
X96077000Y-75377000D01*
X97964649Y-75377000D01*
X97816328Y-75474058D01*
M02*
