M48
METRIC,TZ
T1C0.400
T2C0.800
%
G90
G05
T1
X128000Y-90750
X128250Y-80250
X134250Y-91500
X136577Y-80577
X139300Y-102000
X140250Y-106000
X142250Y-105000
X142700Y-102000
X146600Y-104500
X146800Y-111500
X147000Y-79750
X147600Y-105700
X148000Y-76000
X148000Y-77250
X148000Y-78500
X150463Y-108020
X150750Y-111000
X154000Y-105000
X157750Y-79750
T2
X131650Y-107550
X131650Y-109550
X133650Y-107550
X133650Y-109550
X135650Y-107550
X135650Y-109550
X137650Y-107550
X137650Y-109550
X139650Y-107550
X139650Y-109550
X141650Y-107550
X141650Y-109550
X143650Y-107550
X143650Y-109550
T0
M30
