G04 #@! TF.GenerationSoftware,KiCad,Pcbnew,5.1.5-52549c5~84~ubuntu18.04.1*
G04 #@! TF.CreationDate,2020-02-21T12:35:27+02:00*
G04 #@! TF.ProjectId,Touch_Switch_1ch,546f7563-685f-4537-9769-7463685f3163,rev?*
G04 #@! TF.SameCoordinates,Original*
G04 #@! TF.FileFunction,Soldermask,Top*
G04 #@! TF.FilePolarity,Negative*
%FSLAX46Y46*%
G04 Gerber Fmt 4.6, Leading zero omitted, Abs format (unit mm)*
G04 Created by KiCad (PCBNEW 5.1.5-52549c5~84~ubuntu18.04.1) date 2020-02-21 12:35:27*
%MOMM*%
%LPD*%
G04 APERTURE LIST*
%ADD10C,0.100000*%
G04 APERTURE END LIST*
D10*
G36*
X96151642Y-71221781D02*
G01*
X96297414Y-71282162D01*
X96297416Y-71282163D01*
X96428608Y-71369822D01*
X96540178Y-71481392D01*
X96627837Y-71612584D01*
X96627838Y-71612586D01*
X96688219Y-71758358D01*
X96719000Y-71913107D01*
X96719000Y-72070893D01*
X96688219Y-72225642D01*
X96648548Y-72321416D01*
X96627837Y-72371416D01*
X96540178Y-72502608D01*
X96428608Y-72614178D01*
X96297416Y-72701837D01*
X96297415Y-72701838D01*
X96297414Y-72701838D01*
X96151642Y-72762219D01*
X95996893Y-72793000D01*
X95839107Y-72793000D01*
X95684358Y-72762219D01*
X95538586Y-72701838D01*
X95538585Y-72701838D01*
X95538584Y-72701837D01*
X95407392Y-72614178D01*
X95295822Y-72502608D01*
X95208163Y-72371416D01*
X95187452Y-72321416D01*
X95147781Y-72225642D01*
X95117000Y-72070893D01*
X95117000Y-71913107D01*
X95147781Y-71758358D01*
X95208162Y-71612586D01*
X95208163Y-71612584D01*
X95295822Y-71481392D01*
X95407392Y-71369822D01*
X95538584Y-71282163D01*
X95538586Y-71282162D01*
X95684358Y-71221781D01*
X95839107Y-71191000D01*
X95996893Y-71191000D01*
X96151642Y-71221781D01*
G37*
G36*
X102151642Y-71221781D02*
G01*
X102297414Y-71282162D01*
X102297416Y-71282163D01*
X102428608Y-71369822D01*
X102540178Y-71481392D01*
X102627837Y-71612584D01*
X102627838Y-71612586D01*
X102688219Y-71758358D01*
X102719000Y-71913107D01*
X102719000Y-72070893D01*
X102688219Y-72225642D01*
X102648548Y-72321416D01*
X102627837Y-72371416D01*
X102540178Y-72502608D01*
X102428608Y-72614178D01*
X102297416Y-72701837D01*
X102297415Y-72701838D01*
X102297414Y-72701838D01*
X102151642Y-72762219D01*
X101996893Y-72793000D01*
X101839107Y-72793000D01*
X101684358Y-72762219D01*
X101538586Y-72701838D01*
X101538585Y-72701838D01*
X101538584Y-72701837D01*
X101407392Y-72614178D01*
X101295822Y-72502608D01*
X101208163Y-72371416D01*
X101187452Y-72321416D01*
X101147781Y-72225642D01*
X101117000Y-72070893D01*
X101117000Y-71913107D01*
X101147781Y-71758358D01*
X101208162Y-71612586D01*
X101208163Y-71612584D01*
X101295822Y-71481392D01*
X101407392Y-71369822D01*
X101538584Y-71282163D01*
X101538586Y-71282162D01*
X101684358Y-71221781D01*
X101839107Y-71191000D01*
X101996893Y-71191000D01*
X102151642Y-71221781D01*
G37*
G36*
X92151642Y-71221781D02*
G01*
X92297414Y-71282162D01*
X92297416Y-71282163D01*
X92428608Y-71369822D01*
X92540178Y-71481392D01*
X92627837Y-71612584D01*
X92627838Y-71612586D01*
X92688219Y-71758358D01*
X92719000Y-71913107D01*
X92719000Y-72070893D01*
X92688219Y-72225642D01*
X92648548Y-72321416D01*
X92627837Y-72371416D01*
X92540178Y-72502608D01*
X92428608Y-72614178D01*
X92297416Y-72701837D01*
X92297415Y-72701838D01*
X92297414Y-72701838D01*
X92151642Y-72762219D01*
X91996893Y-72793000D01*
X91839107Y-72793000D01*
X91684358Y-72762219D01*
X91538586Y-72701838D01*
X91538585Y-72701838D01*
X91538584Y-72701837D01*
X91407392Y-72614178D01*
X91295822Y-72502608D01*
X91208163Y-72371416D01*
X91187452Y-72321416D01*
X91147781Y-72225642D01*
X91117000Y-72070893D01*
X91117000Y-71913107D01*
X91147781Y-71758358D01*
X91208162Y-71612586D01*
X91208163Y-71612584D01*
X91295822Y-71481392D01*
X91407392Y-71369822D01*
X91538584Y-71282163D01*
X91538586Y-71282162D01*
X91684358Y-71221781D01*
X91839107Y-71191000D01*
X91996893Y-71191000D01*
X92151642Y-71221781D01*
G37*
G36*
X100151642Y-71221781D02*
G01*
X100297414Y-71282162D01*
X100297416Y-71282163D01*
X100428608Y-71369822D01*
X100540178Y-71481392D01*
X100627837Y-71612584D01*
X100627838Y-71612586D01*
X100688219Y-71758358D01*
X100719000Y-71913107D01*
X100719000Y-72070893D01*
X100688219Y-72225642D01*
X100648548Y-72321416D01*
X100627837Y-72371416D01*
X100540178Y-72502608D01*
X100428608Y-72614178D01*
X100297416Y-72701837D01*
X100297415Y-72701838D01*
X100297414Y-72701838D01*
X100151642Y-72762219D01*
X99996893Y-72793000D01*
X99839107Y-72793000D01*
X99684358Y-72762219D01*
X99538586Y-72701838D01*
X99538585Y-72701838D01*
X99538584Y-72701837D01*
X99407392Y-72614178D01*
X99295822Y-72502608D01*
X99208163Y-72371416D01*
X99187452Y-72321416D01*
X99147781Y-72225642D01*
X99117000Y-72070893D01*
X99117000Y-71913107D01*
X99147781Y-71758358D01*
X99208162Y-71612586D01*
X99208163Y-71612584D01*
X99295822Y-71481392D01*
X99407392Y-71369822D01*
X99538584Y-71282163D01*
X99538586Y-71282162D01*
X99684358Y-71221781D01*
X99839107Y-71191000D01*
X99996893Y-71191000D01*
X100151642Y-71221781D01*
G37*
G36*
X98151642Y-71221781D02*
G01*
X98297414Y-71282162D01*
X98297416Y-71282163D01*
X98428608Y-71369822D01*
X98540178Y-71481392D01*
X98627837Y-71612584D01*
X98627838Y-71612586D01*
X98688219Y-71758358D01*
X98719000Y-71913107D01*
X98719000Y-72070893D01*
X98688219Y-72225642D01*
X98648548Y-72321416D01*
X98627837Y-72371416D01*
X98540178Y-72502608D01*
X98428608Y-72614178D01*
X98297416Y-72701837D01*
X98297415Y-72701838D01*
X98297414Y-72701838D01*
X98151642Y-72762219D01*
X97996893Y-72793000D01*
X97839107Y-72793000D01*
X97684358Y-72762219D01*
X97538586Y-72701838D01*
X97538585Y-72701838D01*
X97538584Y-72701837D01*
X97407392Y-72614178D01*
X97295822Y-72502608D01*
X97208163Y-72371416D01*
X97187452Y-72321416D01*
X97147781Y-72225642D01*
X97117000Y-72070893D01*
X97117000Y-71913107D01*
X97147781Y-71758358D01*
X97208162Y-71612586D01*
X97208163Y-71612584D01*
X97295822Y-71481392D01*
X97407392Y-71369822D01*
X97538584Y-71282163D01*
X97538586Y-71282162D01*
X97684358Y-71221781D01*
X97839107Y-71191000D01*
X97996893Y-71191000D01*
X98151642Y-71221781D01*
G37*
G36*
X104151642Y-71221781D02*
G01*
X104297414Y-71282162D01*
X104297416Y-71282163D01*
X104428608Y-71369822D01*
X104540178Y-71481392D01*
X104627837Y-71612584D01*
X104627838Y-71612586D01*
X104688219Y-71758358D01*
X104719000Y-71913107D01*
X104719000Y-72070893D01*
X104688219Y-72225642D01*
X104648548Y-72321416D01*
X104627837Y-72371416D01*
X104540178Y-72502608D01*
X104428608Y-72614178D01*
X104297416Y-72701837D01*
X104297415Y-72701838D01*
X104297414Y-72701838D01*
X104151642Y-72762219D01*
X103996893Y-72793000D01*
X103839107Y-72793000D01*
X103684358Y-72762219D01*
X103538586Y-72701838D01*
X103538585Y-72701838D01*
X103538584Y-72701837D01*
X103407392Y-72614178D01*
X103295822Y-72502608D01*
X103208163Y-72371416D01*
X103187452Y-72321416D01*
X103147781Y-72225642D01*
X103117000Y-72070893D01*
X103117000Y-71913107D01*
X103147781Y-71758358D01*
X103208162Y-71612586D01*
X103208163Y-71612584D01*
X103295822Y-71481392D01*
X103407392Y-71369822D01*
X103538584Y-71282163D01*
X103538586Y-71282162D01*
X103684358Y-71221781D01*
X103839107Y-71191000D01*
X103996893Y-71191000D01*
X104151642Y-71221781D01*
G37*
G36*
X94151642Y-71171781D02*
G01*
X94297414Y-71232162D01*
X94297416Y-71232163D01*
X94428608Y-71319822D01*
X94540178Y-71431392D01*
X94573587Y-71481393D01*
X94627838Y-71562586D01*
X94688219Y-71708358D01*
X94719000Y-71863107D01*
X94719000Y-72020893D01*
X94688219Y-72175642D01*
X94627838Y-72321414D01*
X94627837Y-72321416D01*
X94540178Y-72452608D01*
X94428608Y-72564178D01*
X94297416Y-72651837D01*
X94297415Y-72651838D01*
X94297414Y-72651838D01*
X94151642Y-72712219D01*
X93996893Y-72743000D01*
X93839107Y-72743000D01*
X93684358Y-72712219D01*
X93538586Y-72651838D01*
X93538585Y-72651838D01*
X93538584Y-72651837D01*
X93407392Y-72564178D01*
X93295822Y-72452608D01*
X93208163Y-72321416D01*
X93208162Y-72321414D01*
X93147781Y-72175642D01*
X93117000Y-72020893D01*
X93117000Y-71863107D01*
X93147781Y-71708358D01*
X93208162Y-71562586D01*
X93262413Y-71481393D01*
X93295822Y-71431392D01*
X93407392Y-71319822D01*
X93538584Y-71232163D01*
X93538586Y-71232162D01*
X93684358Y-71171781D01*
X93839107Y-71141000D01*
X93996893Y-71141000D01*
X94151642Y-71171781D01*
G37*
G36*
X98151642Y-69221781D02*
G01*
X98297414Y-69282162D01*
X98297416Y-69282163D01*
X98428608Y-69369822D01*
X98540178Y-69481392D01*
X98627837Y-69612584D01*
X98627838Y-69612586D01*
X98688219Y-69758358D01*
X98719000Y-69913107D01*
X98719000Y-70070893D01*
X98688219Y-70225642D01*
X98627838Y-70371414D01*
X98627837Y-70371416D01*
X98540178Y-70502608D01*
X98428608Y-70614178D01*
X98297416Y-70701837D01*
X98297415Y-70701838D01*
X98297414Y-70701838D01*
X98151642Y-70762219D01*
X97996893Y-70793000D01*
X97839107Y-70793000D01*
X97684358Y-70762219D01*
X97538586Y-70701838D01*
X97538585Y-70701838D01*
X97538584Y-70701837D01*
X97407392Y-70614178D01*
X97295822Y-70502608D01*
X97208163Y-70371416D01*
X97208162Y-70371414D01*
X97147781Y-70225642D01*
X97117000Y-70070893D01*
X97117000Y-69913107D01*
X97147781Y-69758358D01*
X97208162Y-69612586D01*
X97208163Y-69612584D01*
X97295822Y-69481392D01*
X97407392Y-69369822D01*
X97538584Y-69282163D01*
X97538586Y-69282162D01*
X97684358Y-69221781D01*
X97839107Y-69191000D01*
X97996893Y-69191000D01*
X98151642Y-69221781D01*
G37*
G36*
X96151642Y-69221781D02*
G01*
X96297414Y-69282162D01*
X96297416Y-69282163D01*
X96428608Y-69369822D01*
X96540178Y-69481392D01*
X96627837Y-69612584D01*
X96627838Y-69612586D01*
X96688219Y-69758358D01*
X96719000Y-69913107D01*
X96719000Y-70070893D01*
X96688219Y-70225642D01*
X96627838Y-70371414D01*
X96627837Y-70371416D01*
X96540178Y-70502608D01*
X96428608Y-70614178D01*
X96297416Y-70701837D01*
X96297415Y-70701838D01*
X96297414Y-70701838D01*
X96151642Y-70762219D01*
X95996893Y-70793000D01*
X95839107Y-70793000D01*
X95684358Y-70762219D01*
X95538586Y-70701838D01*
X95538585Y-70701838D01*
X95538584Y-70701837D01*
X95407392Y-70614178D01*
X95295822Y-70502608D01*
X95208163Y-70371416D01*
X95208162Y-70371414D01*
X95147781Y-70225642D01*
X95117000Y-70070893D01*
X95117000Y-69913107D01*
X95147781Y-69758358D01*
X95208162Y-69612586D01*
X95208163Y-69612584D01*
X95295822Y-69481392D01*
X95407392Y-69369822D01*
X95538584Y-69282163D01*
X95538586Y-69282162D01*
X95684358Y-69221781D01*
X95839107Y-69191000D01*
X95996893Y-69191000D01*
X96151642Y-69221781D01*
G37*
G36*
X100151642Y-69221781D02*
G01*
X100297414Y-69282162D01*
X100297416Y-69282163D01*
X100428608Y-69369822D01*
X100540178Y-69481392D01*
X100627837Y-69612584D01*
X100627838Y-69612586D01*
X100688219Y-69758358D01*
X100719000Y-69913107D01*
X100719000Y-70070893D01*
X100688219Y-70225642D01*
X100627838Y-70371414D01*
X100627837Y-70371416D01*
X100540178Y-70502608D01*
X100428608Y-70614178D01*
X100297416Y-70701837D01*
X100297415Y-70701838D01*
X100297414Y-70701838D01*
X100151642Y-70762219D01*
X99996893Y-70793000D01*
X99839107Y-70793000D01*
X99684358Y-70762219D01*
X99538586Y-70701838D01*
X99538585Y-70701838D01*
X99538584Y-70701837D01*
X99407392Y-70614178D01*
X99295822Y-70502608D01*
X99208163Y-70371416D01*
X99208162Y-70371414D01*
X99147781Y-70225642D01*
X99117000Y-70070893D01*
X99117000Y-69913107D01*
X99147781Y-69758358D01*
X99208162Y-69612586D01*
X99208163Y-69612584D01*
X99295822Y-69481392D01*
X99407392Y-69369822D01*
X99538584Y-69282163D01*
X99538586Y-69282162D01*
X99684358Y-69221781D01*
X99839107Y-69191000D01*
X99996893Y-69191000D01*
X100151642Y-69221781D01*
G37*
G36*
X102151642Y-69221781D02*
G01*
X102297414Y-69282162D01*
X102297416Y-69282163D01*
X102428608Y-69369822D01*
X102540178Y-69481392D01*
X102627837Y-69612584D01*
X102627838Y-69612586D01*
X102688219Y-69758358D01*
X102719000Y-69913107D01*
X102719000Y-70070893D01*
X102688219Y-70225642D01*
X102627838Y-70371414D01*
X102627837Y-70371416D01*
X102540178Y-70502608D01*
X102428608Y-70614178D01*
X102297416Y-70701837D01*
X102297415Y-70701838D01*
X102297414Y-70701838D01*
X102151642Y-70762219D01*
X101996893Y-70793000D01*
X101839107Y-70793000D01*
X101684358Y-70762219D01*
X101538586Y-70701838D01*
X101538585Y-70701838D01*
X101538584Y-70701837D01*
X101407392Y-70614178D01*
X101295822Y-70502608D01*
X101208163Y-70371416D01*
X101208162Y-70371414D01*
X101147781Y-70225642D01*
X101117000Y-70070893D01*
X101117000Y-69913107D01*
X101147781Y-69758358D01*
X101208162Y-69612586D01*
X101208163Y-69612584D01*
X101295822Y-69481392D01*
X101407392Y-69369822D01*
X101538584Y-69282163D01*
X101538586Y-69282162D01*
X101684358Y-69221781D01*
X101839107Y-69191000D01*
X101996893Y-69191000D01*
X102151642Y-69221781D01*
G37*
G36*
X104151642Y-69221781D02*
G01*
X104297414Y-69282162D01*
X104297416Y-69282163D01*
X104428608Y-69369822D01*
X104540178Y-69481392D01*
X104627837Y-69612584D01*
X104627838Y-69612586D01*
X104688219Y-69758358D01*
X104719000Y-69913107D01*
X104719000Y-70070893D01*
X104688219Y-70225642D01*
X104627838Y-70371414D01*
X104627837Y-70371416D01*
X104540178Y-70502608D01*
X104428608Y-70614178D01*
X104297416Y-70701837D01*
X104297415Y-70701838D01*
X104297414Y-70701838D01*
X104151642Y-70762219D01*
X103996893Y-70793000D01*
X103839107Y-70793000D01*
X103684358Y-70762219D01*
X103538586Y-70701838D01*
X103538585Y-70701838D01*
X103538584Y-70701837D01*
X103407392Y-70614178D01*
X103295822Y-70502608D01*
X103208163Y-70371416D01*
X103208162Y-70371414D01*
X103147781Y-70225642D01*
X103117000Y-70070893D01*
X103117000Y-69913107D01*
X103147781Y-69758358D01*
X103208162Y-69612586D01*
X103208163Y-69612584D01*
X103295822Y-69481392D01*
X103407392Y-69369822D01*
X103538584Y-69282163D01*
X103538586Y-69282162D01*
X103684358Y-69221781D01*
X103839107Y-69191000D01*
X103996893Y-69191000D01*
X104151642Y-69221781D01*
G37*
G36*
X94151642Y-69221781D02*
G01*
X94297414Y-69282162D01*
X94297416Y-69282163D01*
X94428608Y-69369822D01*
X94540178Y-69481392D01*
X94627837Y-69612584D01*
X94627838Y-69612586D01*
X94688219Y-69758358D01*
X94719000Y-69913107D01*
X94719000Y-70070893D01*
X94688219Y-70225642D01*
X94627838Y-70371414D01*
X94627837Y-70371416D01*
X94540178Y-70502608D01*
X94428608Y-70614178D01*
X94297416Y-70701837D01*
X94297415Y-70701838D01*
X94297414Y-70701838D01*
X94151642Y-70762219D01*
X93996893Y-70793000D01*
X93839107Y-70793000D01*
X93684358Y-70762219D01*
X93538586Y-70701838D01*
X93538585Y-70701838D01*
X93538584Y-70701837D01*
X93407392Y-70614178D01*
X93295822Y-70502608D01*
X93208163Y-70371416D01*
X93208162Y-70371414D01*
X93147781Y-70225642D01*
X93117000Y-70070893D01*
X93117000Y-69913107D01*
X93147781Y-69758358D01*
X93208162Y-69612586D01*
X93208163Y-69612584D01*
X93295822Y-69481392D01*
X93407392Y-69369822D01*
X93538584Y-69282163D01*
X93538586Y-69282162D01*
X93684358Y-69221781D01*
X93839107Y-69191000D01*
X93996893Y-69191000D01*
X94151642Y-69221781D01*
G37*
G36*
X92151642Y-69221781D02*
G01*
X92297414Y-69282162D01*
X92297416Y-69282163D01*
X92428608Y-69369822D01*
X92540178Y-69481392D01*
X92627837Y-69612584D01*
X92627838Y-69612586D01*
X92688219Y-69758358D01*
X92719000Y-69913107D01*
X92719000Y-70070893D01*
X92688219Y-70225642D01*
X92627838Y-70371414D01*
X92627837Y-70371416D01*
X92540178Y-70502608D01*
X92428608Y-70614178D01*
X92297416Y-70701837D01*
X92297415Y-70701838D01*
X92297414Y-70701838D01*
X92151642Y-70762219D01*
X91996893Y-70793000D01*
X91839107Y-70793000D01*
X91684358Y-70762219D01*
X91538586Y-70701838D01*
X91538585Y-70701838D01*
X91538584Y-70701837D01*
X91407392Y-70614178D01*
X91295822Y-70502608D01*
X91208163Y-70371416D01*
X91208162Y-70371414D01*
X91147781Y-70225642D01*
X91117000Y-70070893D01*
X91117000Y-69913107D01*
X91147781Y-69758358D01*
X91208162Y-69612586D01*
X91208163Y-69612584D01*
X91295822Y-69481392D01*
X91407392Y-69369822D01*
X91538584Y-69282163D01*
X91538586Y-69282162D01*
X91684358Y-69221781D01*
X91839107Y-69191000D01*
X91996893Y-69191000D01*
X92151642Y-69221781D01*
G37*
G36*
X90583000Y-64967000D02*
G01*
X89681000Y-64967000D01*
X89681000Y-64065000D01*
X90583000Y-64065000D01*
X90583000Y-64967000D01*
G37*
G36*
X92183000Y-64967000D02*
G01*
X91281000Y-64967000D01*
X91281000Y-64065000D01*
X92183000Y-64065000D01*
X92183000Y-64967000D01*
G37*
G36*
X94901000Y-64967000D02*
G01*
X93999000Y-64967000D01*
X93999000Y-64065000D01*
X94901000Y-64065000D01*
X94901000Y-64967000D01*
G37*
G36*
X96501000Y-64967000D02*
G01*
X95599000Y-64967000D01*
X95599000Y-64065000D01*
X96501000Y-64065000D01*
X96501000Y-64967000D01*
G37*
G36*
X97442721Y-62462174D02*
G01*
X97542995Y-62503709D01*
X97542996Y-62503710D01*
X97633242Y-62564010D01*
X97709990Y-62640758D01*
X97709991Y-62640760D01*
X97770291Y-62731005D01*
X97811826Y-62831279D01*
X97833000Y-62937730D01*
X97833000Y-63046270D01*
X97811826Y-63152721D01*
X97770291Y-63252995D01*
X97770290Y-63252996D01*
X97709990Y-63343242D01*
X97633242Y-63419990D01*
X97587812Y-63450345D01*
X97542995Y-63480291D01*
X97442721Y-63521826D01*
X97336270Y-63543000D01*
X97227730Y-63543000D01*
X97121279Y-63521826D01*
X97021005Y-63480291D01*
X96976188Y-63450345D01*
X96930758Y-63419990D01*
X96854010Y-63343242D01*
X96793710Y-63252996D01*
X96793709Y-63252995D01*
X96752174Y-63152721D01*
X96731000Y-63046270D01*
X96731000Y-62937730D01*
X96752174Y-62831279D01*
X96793709Y-62731005D01*
X96854009Y-62640760D01*
X96854010Y-62640758D01*
X96930758Y-62564010D01*
X97021004Y-62503710D01*
X97021005Y-62503709D01*
X97121279Y-62462174D01*
X97227730Y-62441000D01*
X97336270Y-62441000D01*
X97442721Y-62462174D01*
G37*
G36*
X89060721Y-62462174D02*
G01*
X89160995Y-62503709D01*
X89160996Y-62503710D01*
X89251242Y-62564010D01*
X89327990Y-62640758D01*
X89327991Y-62640760D01*
X89388291Y-62731005D01*
X89429826Y-62831279D01*
X89451000Y-62937730D01*
X89451000Y-63046270D01*
X89429826Y-63152721D01*
X89388291Y-63252995D01*
X89388290Y-63252996D01*
X89327990Y-63343242D01*
X89251242Y-63419990D01*
X89205812Y-63450345D01*
X89160995Y-63480291D01*
X89060721Y-63521826D01*
X88954270Y-63543000D01*
X88845730Y-63543000D01*
X88739279Y-63521826D01*
X88639005Y-63480291D01*
X88594188Y-63450345D01*
X88548758Y-63419990D01*
X88472010Y-63343242D01*
X88411710Y-63252996D01*
X88411709Y-63252995D01*
X88370174Y-63152721D01*
X88349000Y-63046270D01*
X88349000Y-62937730D01*
X88370174Y-62831279D01*
X88411709Y-62731005D01*
X88472009Y-62640760D01*
X88472010Y-62640758D01*
X88548758Y-62564010D01*
X88639004Y-62503710D01*
X88639005Y-62503709D01*
X88739279Y-62462174D01*
X88845730Y-62441000D01*
X88954270Y-62441000D01*
X89060721Y-62462174D01*
G37*
G36*
X106464500Y-51956000D02*
G01*
X104101500Y-51956000D01*
X104101500Y-50406000D01*
X106464500Y-50406000D01*
X106464500Y-51956000D01*
G37*
G36*
X110248500Y-51956000D02*
G01*
X107885500Y-51956000D01*
X107885500Y-50406000D01*
X110248500Y-50406000D01*
X110248500Y-51956000D01*
G37*
G36*
X110248500Y-49162000D02*
G01*
X107885500Y-49162000D01*
X107885500Y-47612000D01*
X110248500Y-47612000D01*
X110248500Y-49162000D01*
G37*
G36*
X106464500Y-49162000D02*
G01*
X104101500Y-49162000D01*
X104101500Y-47612000D01*
X106464500Y-47612000D01*
X106464500Y-49162000D01*
G37*
G36*
X113476000Y-47210000D02*
G01*
X112374000Y-47210000D01*
X112374000Y-46008000D01*
X113476000Y-46008000D01*
X113476000Y-47210000D01*
G37*
G36*
X111676000Y-47210000D02*
G01*
X110574000Y-47210000D01*
X110574000Y-46008000D01*
X111676000Y-46008000D01*
X111676000Y-47210000D01*
G37*
G36*
X109548000Y-45855000D02*
G01*
X108130000Y-45855000D01*
X108130000Y-45253000D01*
X109548000Y-45253000D01*
X109548000Y-45855000D01*
G37*
G36*
X111664000Y-44797000D02*
G01*
X110562000Y-44797000D01*
X110562000Y-43595000D01*
X111664000Y-43595000D01*
X111664000Y-44797000D01*
G37*
G36*
X113264000Y-44797000D02*
G01*
X112162000Y-44797000D01*
X112162000Y-43595000D01*
X113264000Y-43595000D01*
X113264000Y-44797000D01*
G37*
G36*
X107409000Y-44292000D02*
G01*
X106207000Y-44292000D01*
X106207000Y-43190000D01*
X107409000Y-43190000D01*
X107409000Y-44292000D01*
G37*
G36*
X109548000Y-44155000D02*
G01*
X108130000Y-44155000D01*
X108130000Y-43553000D01*
X109548000Y-43553000D01*
X109548000Y-44155000D01*
G37*
G36*
X93704000Y-43781000D02*
G01*
X92602000Y-43781000D01*
X92602000Y-42579000D01*
X93704000Y-42579000D01*
X93704000Y-43781000D01*
G37*
G36*
X95104000Y-43781000D02*
G01*
X94002000Y-43781000D01*
X94002000Y-42579000D01*
X95104000Y-42579000D01*
X95104000Y-43781000D01*
G37*
G36*
X89043303Y-42217965D02*
G01*
X87556965Y-43704303D01*
X86494891Y-42642229D01*
X87981229Y-41155891D01*
X89043303Y-42217965D01*
G37*
G36*
X109645000Y-42765000D02*
G01*
X108543000Y-42765000D01*
X108543000Y-41563000D01*
X109645000Y-41563000D01*
X109645000Y-42765000D01*
G37*
G36*
X111245000Y-42765000D02*
G01*
X110143000Y-42765000D01*
X110143000Y-41563000D01*
X111245000Y-41563000D01*
X111245000Y-42765000D01*
G37*
G36*
X107409000Y-42692000D02*
G01*
X106207000Y-42692000D01*
X106207000Y-41590000D01*
X107409000Y-41590000D01*
X107409000Y-42692000D01*
G37*
G36*
X94864000Y-41372000D02*
G01*
X94112000Y-41372000D01*
X94112000Y-39822000D01*
X94864000Y-39822000D01*
X94864000Y-41372000D01*
G37*
G36*
X93721000Y-41331000D02*
G01*
X92969000Y-41331000D01*
X92969000Y-39781000D01*
X93721000Y-39781000D01*
X93721000Y-41331000D01*
G37*
G36*
X107866000Y-40606000D02*
G01*
X106764000Y-40606000D01*
X106764000Y-39404000D01*
X107866000Y-39404000D01*
X107866000Y-40606000D01*
G37*
G36*
X106066000Y-40606000D02*
G01*
X104964000Y-40606000D01*
X104964000Y-39404000D01*
X106066000Y-39404000D01*
X106066000Y-40606000D01*
G37*
G36*
X84447109Y-37621771D02*
G01*
X82960771Y-39108109D01*
X81898697Y-38046035D01*
X83385035Y-36559697D01*
X84447109Y-37621771D01*
G37*
G36*
X95597000Y-38970000D02*
G01*
X94395000Y-38970000D01*
X94395000Y-37868000D01*
X95597000Y-37868000D01*
X95597000Y-38970000D01*
G37*
G36*
X93692000Y-38905000D02*
G01*
X92490000Y-38905000D01*
X92490000Y-37803000D01*
X93692000Y-37803000D01*
X93692000Y-38905000D01*
G37*
G36*
X95597000Y-37570000D02*
G01*
X94395000Y-37570000D01*
X94395000Y-36468000D01*
X95597000Y-36468000D01*
X95597000Y-37570000D01*
G37*
G36*
X93692000Y-37505000D02*
G01*
X92490000Y-37505000D01*
X92490000Y-36403000D01*
X93692000Y-36403000D01*
X93692000Y-37505000D01*
G37*
M02*
