M48
;DRILL file {KiCad (2017-11-08 revision cd21218)-HEAD} date Wed Feb  7 13:50:05 2018
;FORMAT={-:-/ absolute / metric / decimal}
FMAT,2
METRIC,TZ
T1C0.300
T2C0.800
T3C0.800
T4C1.100
T5C1.300
T6C1.400
T7C2.200
%
G90
G05
M71
T1
X145.365Y-138.903
X168.225Y-141.442
X158.065Y-136.362
X168.225Y-103.343
X163.145Y-138.903
X135.205Y-138.903
X165.685Y-138.903
X147.905Y-138.903
X145.365Y-141.442
X163.145Y-103.343
X130.125Y-98.262
X119.965Y-141.442
X132.665Y-141.442
X150.445Y-103.343
X122.505Y-143.982
X112.345Y-141.442
X158.065Y-103.343
X137.745Y-141.442
X168.225Y-138.903
X152.985Y-141.442
X147.905Y-103.343
X122.505Y-98.262
X163.145Y-136.362
X127.585Y-141.442
X127.585Y-143.982
X150.445Y-136.362
X117.425Y-141.442
X155.525Y-138.903
X117.425Y-95.722
X137.745Y-98.262
X147.905Y-136.362
X155.525Y-136.362
X147.905Y-141.442
X160.605Y-136.362
X152.985Y-136.362
X168.225Y-136.362
X147.905Y-98.262
X150.445Y-141.442
X145.365Y-136.362
X142.825Y-136.362
X119.965Y-98.262
X160.605Y-138.903
X140.285Y-136.362
X170.765Y-141.442
X152.985Y-138.903
X165.685Y-141.442
X152.985Y-143.982
X117.425Y-98.262
X130.125Y-141.442
X160.605Y-103.343
X160.605Y-141.442
X152.985Y-103.343
X155.525Y-103.343
X127.585Y-138.903
X109.805Y-138.903
X140.285Y-98.262
X130.125Y-143.982
X165.685Y-136.362
X112.345Y-138.903
X109.805Y-95.722
X122.505Y-141.442
X158.065Y-141.442
X125.045Y-141.442
X135.205Y-103.343
X114.885Y-95.722
X137.745Y-103.343
X112.345Y-95.722
X125.045Y-98.262
X127.585Y-98.262
X135.205Y-98.262
X122.505Y-138.903
X112.345Y-98.262
X109.805Y-143.982
X114.885Y-98.262
X158.065Y-138.903
X150.445Y-138.903
X109.805Y-141.442
X142.825Y-138.903
X125.045Y-143.982
X107.265Y-98.262
X135.205Y-100.802
X145.365Y-98.262
X170.765Y-136.362
X155.525Y-141.442
X109.805Y-98.262
X130.125Y-138.903
X132.665Y-138.903
X142.825Y-98.262
X163.145Y-141.442
X142.825Y-100.802
X140.285Y-103.343
X125.045Y-138.903
X119.965Y-138.903
X117.425Y-138.903
X137.745Y-100.802
X165.685Y-103.343
X140.285Y-100.802
X107.265Y-95.722
T2
X123.86Y-95.49
X126.4Y-95.49
X128.94Y-95.49
X131.48Y-95.49
X133.Y-143.75
X134.02Y-95.49
X135.54Y-143.75
X136.56Y-95.49
X138.08Y-143.75
X139.1Y-95.49
X140.62Y-143.75
X141.64Y-95.49
X143.16Y-143.75
X144.18Y-95.49
X145.7Y-143.75
X146.72Y-95.49
X148.24Y-143.75
X150.78Y-95.49
X150.78Y-143.75
X153.32Y-95.49
X155.86Y-95.49
X155.86Y-143.75
X158.4Y-95.49
X158.4Y-143.75
X160.94Y-95.49
X160.94Y-143.75
X163.48Y-95.49
X163.48Y-143.75
X166.02Y-95.49
X166.02Y-143.75
X168.56Y-95.49
X168.56Y-143.75
X125.Y-114.34
X125.Y-124.5
T3
X110.29Y-107.37
X107.75Y-130.23
X120.45Y-132.77
X125.62Y-132.83
X130.7Y-132.83
X110.29Y-135.31
X107.75Y-104.83
X107.75Y-117.53
X123.08Y-104.83
X107.75Y-135.31
X120.45Y-120.07
X120.45Y-102.29
X110.29Y-112.45
X117.91Y-107.37
X112.83Y-112.45
X112.83Y-114.99
X117.91Y-109.91
X130.7Y-99.75
X112.83Y-122.61
X112.83Y-120.07
X110.29Y-99.75
X120.45Y-99.75
X112.83Y-117.53
X120.45Y-112.45
X115.37Y-127.69
X115.37Y-125.15
X115.37Y-120.07
X120.45Y-127.69
X120.45Y-114.99
X112.83Y-104.83
X110.29Y-102.29
X110.29Y-104.83
X117.91Y-120.07
X120.45Y-117.53
X117.91Y-117.53
X112.83Y-109.91
X123.08Y-135.33
X112.83Y-125.15
X117.91Y-104.83
X117.91Y-112.45
X128.16Y-104.83
X115.37Y-112.45
X110.29Y-130.23
X115.37Y-102.29
X128.16Y-132.83
X107.75Y-125.15
X120.45Y-125.15
X112.83Y-132.77
X117.91Y-102.29
X115.37Y-135.31
X115.37Y-104.83
X107.75Y-109.91
X117.91Y-114.99
X107.75Y-112.45
X112.83Y-130.23
X130.7Y-102.29
X107.75Y-132.77
X130.7Y-135.33
X117.91Y-132.77
X115.37Y-130.23
X112.83Y-102.29
X110.29Y-125.15
X107.75Y-102.29
X107.75Y-107.37
X112.83Y-99.75
X115.37Y-122.61
X128.16Y-99.75
X120.45Y-122.61
X117.91Y-99.75
X107.75Y-127.69
X117.91Y-125.15
X110.29Y-122.61
X125.62Y-102.29
X112.83Y-135.31
X110.29Y-120.07
X115.37Y-117.53
X117.91Y-130.23
X125.62Y-99.75
X128.16Y-135.33
X115.37Y-107.37
X110.29Y-127.69
X115.37Y-132.77
X112.83Y-107.37
X115.37Y-109.91
X107.75Y-99.75
X107.75Y-120.07
X120.45Y-135.31
X120.45Y-130.23
X110.29Y-132.77
X128.16Y-102.29
X117.91Y-122.61
X120.45Y-104.83
X123.08Y-102.29
X107.75Y-122.61
X107.75Y-114.99
X117.91Y-135.31
X115.37Y-99.75
X117.91Y-127.69
X130.7Y-104.83
X123.08Y-132.83
X125.62Y-135.33
X120.45Y-109.91
X120.45Y-107.37
X115.37Y-114.99
X110.29Y-114.99
X112.83Y-127.69
X110.29Y-117.53
X123.08Y-99.75
X110.29Y-109.91
X125.62Y-104.83
T4
X107.25Y-139.75
X107.25Y-144.25
X113.75Y-139.75
X113.75Y-144.25
T5
X168.5Y-119.25
X168.5Y-124.25
X168.5Y-129.25
T6
X134.052Y-114.064
X134.052Y-124.214
T7
X131.552Y-119.164
X146.802Y-127.814
X149.302Y-110.214
X157.052Y-110.214
T0
M30
