%TF.GenerationSoftware,KiCad,Pcbnew,no-vcs-found-e0b9a21~60~ubuntu16.04.1*%
%TF.CreationDate,2017-10-13T14:54:20+03:00*%
%TF.ProjectId,livolo_1_channel_1way_eu_switch,6C69766F6C6F5F315F6368616E6E656C,rev?*%
%TF.SameCoordinates,Original*%
%TF.FileFunction,Copper,L1,Top,Signal*%
%TF.FilePolarity,Positive*%
%FSLAX46Y46*%
G04 Gerber Fmt 4.6, Leading zero omitted, Abs format (unit mm)*
G04 Created by KiCad (PCBNEW no-vcs-found-e0b9a21~60~ubuntu16.04.1) date Fri Oct 13 14:54:20 2017*
%MOMM*%
%LPD*%
G01*
G04 APERTURE LIST*
%ADD10C,0.300000*%
%ADD11R,0.550000X1.600000*%
%ADD12R,1.600000X0.550000*%
%ADD13R,0.900000X0.800000*%
%ADD14R,2.000000X1.000000*%
%ADD15O,1.300000X1.600000*%
%ADD16R,1.200000X0.900000*%
%ADD17R,0.900000X1.200000*%
%ADD18R,1.200000X0.750000*%
%ADD19R,1.750000X1.260000*%
%ADD20R,0.750000X1.200000*%
%ADD21C,0.500000*%
%ADD22R,1.450000X0.450000*%
%ADD23R,1.900000X0.800000*%
%ADD24C,0.450000*%
%ADD25C,0.800000*%
%ADD26C,0.254000*%
G04 APERTURE END LIST*
D10*
X142702277Y-84199999D02*
G75*
G03X135800000Y-96157018I128066J-8044632D01*
G01*
X137559214Y-98048911D02*
G75*
G03X142600000Y-84200000I5016524J6015903D01*
G01*
X138255033Y-98555212D02*
X149055215Y-87755030D01*
X144020079Y-99681422D02*
X134969063Y-90630406D01*
X138780619Y-95604686D02*
X147992655Y-86392650D01*
X135831094Y-96131181D02*
X146631182Y-85331093D01*
X135224533Y-89673866D02*
X145025364Y-99474697D01*
X144440587Y-99640848D02*
X150140862Y-93940573D01*
X138153541Y-97451464D02*
X140151638Y-99449561D01*
X139866620Y-99366725D02*
X149916686Y-89316659D01*
X137048335Y-86649638D02*
X148050330Y-97651633D01*
X148605850Y-96995133D02*
X137704850Y-86094133D01*
X150179224Y-93721447D02*
X140928029Y-84470252D01*
X147336755Y-85836610D02*
X138176642Y-94996723D01*
X145881652Y-99118965D02*
X135579748Y-88817061D01*
X149511153Y-88511142D02*
X139011142Y-99011153D01*
X141926780Y-84256903D02*
X150285370Y-92615493D01*
X136932153Y-95018276D02*
X134856158Y-92942281D01*
X143963177Y-84363028D02*
X134912690Y-93413515D01*
X150334959Y-92534376D02*
X143034395Y-99834940D01*
X134856993Y-92257222D02*
X142865977Y-84248238D01*
X135342707Y-89347438D02*
X139845298Y-84844847D01*
X141551265Y-84350870D02*
X134950873Y-90951262D01*
X149568227Y-95534450D02*
X139165593Y-85131816D01*
X150172682Y-90272603D02*
X140822617Y-99622668D01*
X141828384Y-99828951D02*
X150279538Y-91377797D01*
X148548757Y-87048518D02*
X137548522Y-98048753D01*
X145825187Y-84925128D02*
X135424897Y-95325418D01*
X135119120Y-94419155D02*
X144919471Y-84618804D01*
X134812507Y-91685920D02*
X142963526Y-99836939D01*
X138410760Y-85588083D02*
X149111344Y-96288667D01*
X150291516Y-91409639D02*
X143132607Y-84250730D01*
X147393365Y-98206638D02*
X136492964Y-87306237D01*
X135985714Y-88011007D02*
X146687360Y-98712653D01*
X140022101Y-84776424D02*
X149922864Y-94677187D01*
X144646808Y-84552831D02*
X150100547Y-90006570D01*
X135145753Y-94452374D02*
X136309196Y-95615817D01*
X141706946Y-99793069D02*
X138759629Y-96845752D01*
D11*
X130250000Y-92550000D03*
X129450000Y-92550000D03*
X128650000Y-92550000D03*
X127850000Y-92550000D03*
X127050000Y-92550000D03*
X126250000Y-92550000D03*
X125450000Y-92550000D03*
X124650000Y-92550000D03*
D12*
X123200000Y-91100000D03*
X123200000Y-90300000D03*
X123200000Y-89500000D03*
X123200000Y-88700000D03*
X123200000Y-87900000D03*
X123200000Y-87100000D03*
X123200000Y-86300000D03*
X123200000Y-85500000D03*
D11*
X124650000Y-84050000D03*
X125450000Y-84050000D03*
X126250000Y-84050000D03*
X127050000Y-84050000D03*
X127850000Y-84050000D03*
X128650000Y-84050000D03*
X129450000Y-84050000D03*
X130250000Y-84050000D03*
D12*
X131700000Y-85500000D03*
X131700000Y-86300000D03*
X131700000Y-87100000D03*
X131700000Y-87900000D03*
X131700000Y-88700000D03*
X131700000Y-89500000D03*
X131700000Y-90300000D03*
X131700000Y-91100000D03*
D13*
X127300000Y-80150000D03*
X125300000Y-81100000D03*
X125300000Y-79200000D03*
D14*
X135300000Y-72600000D03*
X135300000Y-73870000D03*
X135300000Y-75140000D03*
X135300000Y-76410000D03*
X135300000Y-77680000D03*
X135300000Y-78950000D03*
X135300000Y-80220000D03*
X135300000Y-81490000D03*
D15*
X143650000Y-107550000D03*
X143650000Y-109550000D03*
X141650000Y-107550000D03*
X141650000Y-109550000D03*
X139650000Y-107550000D03*
X139650000Y-109550000D03*
X137650000Y-107550000D03*
X137650000Y-109550000D03*
X135650000Y-107550000D03*
X135650000Y-109550000D03*
X133650000Y-107550000D03*
X133650000Y-109550000D03*
X131650000Y-107550000D03*
X131650000Y-109550000D03*
D16*
X132000000Y-99700000D03*
X134200000Y-99700000D03*
D17*
X122800000Y-105600000D03*
X122800000Y-103400000D03*
D16*
X129700000Y-75200000D03*
X131900000Y-75200000D03*
X141500000Y-103200000D03*
X139300000Y-103200000D03*
X143400000Y-103200000D03*
X145600000Y-103200000D03*
D18*
X124650000Y-107800000D03*
X126550000Y-107800000D03*
D19*
X129975000Y-72750000D03*
X132525000Y-72750000D03*
D18*
X128450000Y-95200000D03*
X126550000Y-95200000D03*
D16*
X128400000Y-102100000D03*
X126200000Y-102100000D03*
X128700000Y-96700000D03*
X126500000Y-96700000D03*
D20*
X130000000Y-102350000D03*
X130000000Y-104250000D03*
D21*
X135800000Y-96100000D03*
X137600000Y-98000000D03*
D20*
X124000000Y-79150000D03*
X124000000Y-81050000D03*
D22*
X125400000Y-100375000D03*
X125400000Y-99725000D03*
X125400000Y-99075000D03*
X125400000Y-98425000D03*
X129800000Y-98425000D03*
X129800000Y-99075000D03*
X129800000Y-99725000D03*
X129800000Y-100375000D03*
D23*
X127900000Y-105100000D03*
X124900000Y-106050000D03*
X124900000Y-104150000D03*
D24*
X138649999Y-72000000D03*
X140649999Y-72000000D03*
X128649999Y-74000000D03*
X140649999Y-74000000D03*
X124649999Y-78000000D03*
X128649999Y-104000000D03*
X148649999Y-104000000D03*
X150649999Y-104000000D03*
X152649999Y-104000000D03*
X154649999Y-104000000D03*
X156649999Y-104000000D03*
X158649999Y-104000000D03*
X160649999Y-104000000D03*
X162649999Y-104000000D03*
X130649999Y-106000000D03*
X132649999Y-106000000D03*
X134649999Y-106000000D03*
X140649999Y-106000000D03*
X142649999Y-106000000D03*
X146649999Y-106000000D03*
X148649999Y-106000000D03*
X150649999Y-106000000D03*
X152649999Y-106000000D03*
X154649999Y-106000000D03*
X156649999Y-106000000D03*
X158649999Y-106000000D03*
X160649999Y-106000000D03*
X162649999Y-106000000D03*
X128649999Y-108000000D03*
X146649999Y-108000000D03*
X148649999Y-108000000D03*
X150649999Y-108000000D03*
X152649999Y-108000000D03*
X154649999Y-108000000D03*
X156649999Y-108000000D03*
X158649999Y-108000000D03*
X160649999Y-108000000D03*
X126649999Y-110000000D03*
X128649999Y-110000000D03*
X146649999Y-110000000D03*
X148649999Y-110000000D03*
X150649999Y-110000000D03*
X152649999Y-110000000D03*
X154649999Y-110000000D03*
X156649999Y-110000000D03*
X158649999Y-110000000D03*
X128649999Y-112000000D03*
X130649999Y-112000000D03*
X132649999Y-112000000D03*
X140649999Y-112000000D03*
X142649999Y-112000000D03*
X144649999Y-112000000D03*
X146649999Y-112000000D03*
X148649999Y-112000000D03*
X150649999Y-112000000D03*
X152649999Y-112000000D03*
X154649999Y-112000000D03*
X156649999Y-112000000D03*
D25*
X138100000Y-75200000D03*
X128443827Y-100308710D03*
X122300000Y-79400000D03*
X144700010Y-105300000D03*
X129180005Y-86956868D03*
X124636339Y-86692430D03*
X124699989Y-95315693D03*
X127400000Y-79000000D03*
X125400000Y-100900000D03*
X127524562Y-88800012D03*
X127200000Y-87200000D03*
X129600000Y-88900000D03*
X125600000Y-89000000D03*
X125600000Y-87949987D03*
X126950002Y-90700000D03*
X128033830Y-85500012D03*
X137784307Y-80084307D03*
X133354609Y-77754609D03*
X123200000Y-84600000D03*
X138400000Y-77700000D03*
X136900000Y-78900000D03*
X126900000Y-85500000D03*
X144300000Y-102000000D03*
X141000000Y-102000000D03*
X126629477Y-99740115D03*
X123200000Y-92500000D03*
X137100000Y-103300000D03*
X130516755Y-90299999D03*
X129636057Y-93904635D03*
X127377917Y-93969404D03*
X128586056Y-93899938D03*
X126300000Y-93974998D03*
X133400000Y-81900000D03*
X129700000Y-85700000D03*
X127100000Y-82500000D03*
X133400000Y-75100000D03*
X133100000Y-84600000D03*
X131500000Y-97000000D03*
X135500000Y-98600000D03*
D10*
X129600000Y-88900000D02*
X129700000Y-88800000D01*
X129700000Y-88800000D02*
X130499999Y-88800000D01*
X132820001Y-88575001D02*
X131824999Y-88575001D01*
X132900001Y-88495001D02*
X132820001Y-88575001D01*
X131824999Y-88575001D02*
X131700000Y-88700000D01*
X132820001Y-87224999D02*
X132900001Y-87304999D01*
X131824999Y-87224999D02*
X132820001Y-87224999D01*
X131700000Y-87100000D02*
X131824999Y-87224999D01*
X132900001Y-87304999D02*
X132900001Y-88495001D01*
X138100000Y-74100000D02*
X138100000Y-75200000D01*
X136600000Y-72600000D02*
X138100000Y-74100000D01*
X135300000Y-72600000D02*
X136600000Y-72600000D01*
X130000000Y-102350000D02*
X134950000Y-102350000D01*
X137900000Y-105300000D02*
X144700010Y-105300000D01*
X134950000Y-102350000D02*
X137900000Y-105300000D01*
X128510117Y-100375000D02*
X128443827Y-100308710D01*
X129800000Y-100375000D02*
X128510117Y-100375000D01*
X122300000Y-79400000D02*
X123750000Y-79400000D01*
X123750000Y-79400000D02*
X124000000Y-79150000D01*
X144700010Y-105300000D02*
X144700010Y-108349990D01*
X144700010Y-108349990D02*
X143650000Y-109400000D01*
X129323137Y-87100000D02*
X129180005Y-86956868D01*
X131700000Y-87100000D02*
X129323137Y-87100000D01*
X123200000Y-86300000D02*
X124243909Y-86300000D01*
X124243909Y-86300000D02*
X124636339Y-86692430D01*
X129700000Y-75200000D02*
X129850000Y-75200000D01*
X129850000Y-75200000D02*
X132300000Y-72750000D01*
X132300000Y-72750000D02*
X132525000Y-72750000D01*
X125300000Y-79200000D02*
X125550000Y-79200000D01*
X125550000Y-79200000D02*
X129550000Y-75200000D01*
X129550000Y-75200000D02*
X129700000Y-75200000D01*
X135300000Y-72600000D02*
X132675000Y-72600000D01*
X132675000Y-72600000D02*
X132525000Y-72750000D01*
X124000000Y-79150000D02*
X125250000Y-79150000D01*
X125250000Y-79150000D02*
X125300000Y-79200000D01*
X130000000Y-102350000D02*
X130000000Y-100575000D01*
X130000000Y-100575000D02*
X129800000Y-100375000D01*
X128400000Y-102100000D02*
X129750000Y-102100000D01*
X129750000Y-102100000D02*
X130000000Y-102350000D01*
X124900000Y-106050000D02*
X125450000Y-106050000D01*
X125450000Y-106050000D02*
X126549999Y-104950001D01*
X126549999Y-104950001D02*
X126549999Y-103800001D01*
X126549999Y-103800001D02*
X128250000Y-102100000D01*
X128250000Y-102100000D02*
X128400000Y-102100000D01*
X124900000Y-106050000D02*
X123250000Y-106050000D01*
X123250000Y-106050000D02*
X122800000Y-105600000D01*
X124900000Y-106050000D02*
X124900000Y-107550000D01*
X124900000Y-107550000D02*
X124650000Y-107800000D01*
X126550000Y-95200000D02*
X124815682Y-95200000D01*
X124815682Y-95200000D02*
X124699989Y-95315693D01*
X127300000Y-80150000D02*
X127300000Y-79100000D01*
X127300000Y-79100000D02*
X127400000Y-79000000D01*
X125400000Y-100375000D02*
X125400000Y-100900000D01*
X130499999Y-89295001D02*
X130499999Y-88200012D01*
X130704998Y-89500000D02*
X130499999Y-89295001D01*
X131700000Y-89500000D02*
X130704998Y-89500000D01*
X130800011Y-87900000D02*
X131700000Y-87900000D01*
X130499999Y-88200012D02*
X130800011Y-87900000D01*
X123200000Y-88700000D02*
X125300000Y-88700000D01*
X125300000Y-88700000D02*
X125600000Y-89000000D01*
X124000000Y-81050000D02*
X124000000Y-80825000D01*
X124000000Y-80825000D02*
X124675000Y-80150000D01*
X124675000Y-80150000D02*
X127300000Y-80150000D01*
X125400000Y-99075000D02*
X124375000Y-99075000D01*
X124274999Y-99175001D02*
X124274999Y-100274999D01*
X124375000Y-99075000D02*
X124274999Y-99175001D01*
X124274999Y-100274999D02*
X124375000Y-100375000D01*
X124375000Y-100375000D02*
X125400000Y-100375000D01*
X125550013Y-87900000D02*
X125600000Y-87949987D01*
X123200000Y-87900000D02*
X125550013Y-87900000D01*
X127850000Y-92550000D02*
X127850000Y-91599998D01*
X127850000Y-91599998D02*
X126950002Y-90700000D01*
X124650000Y-85150000D02*
X125800001Y-86300001D01*
X125800001Y-86300001D02*
X127233841Y-86300001D01*
X124650000Y-84050000D02*
X124650000Y-85150000D01*
X127233841Y-86300001D02*
X128033830Y-85500012D01*
X135300000Y-80220000D02*
X137648614Y-80220000D01*
X137648614Y-80220000D02*
X137784307Y-80084307D01*
X133429218Y-77680000D02*
X133354609Y-77754609D01*
X135300000Y-77680000D02*
X133429218Y-77680000D01*
X123200000Y-85500000D02*
X123200000Y-84600000D01*
X135300000Y-77680000D02*
X138380000Y-77680000D01*
X138380000Y-77680000D02*
X138400000Y-77700000D01*
X135300000Y-78950000D02*
X136850000Y-78950000D01*
X136850000Y-78950000D02*
X136900000Y-78900000D01*
X125450000Y-84050000D02*
X125450000Y-85150000D01*
X125450000Y-85150000D02*
X125800000Y-85500000D01*
X125800000Y-85500000D02*
X126900000Y-85500000D01*
X144300000Y-102000000D02*
X144400000Y-102000000D01*
X144400000Y-102000000D02*
X145600000Y-103200000D01*
X141000000Y-102000000D02*
X141000000Y-102700000D01*
X141000000Y-102700000D02*
X141500000Y-103200000D01*
X123200000Y-91100000D02*
X123200000Y-92500000D01*
X126200000Y-102100000D02*
X126200000Y-101350000D01*
X126200000Y-101350000D02*
X126525001Y-101024999D01*
X126525001Y-101024999D02*
X126525001Y-99825001D01*
X126525001Y-99825001D02*
X126425000Y-99725000D01*
X126425000Y-99725000D02*
X125400000Y-99725000D01*
X137200000Y-103200000D02*
X137100000Y-103300000D01*
X139300000Y-103200000D02*
X137200000Y-103200000D01*
X130516755Y-90299999D02*
X131699999Y-90299999D01*
X131699999Y-90299999D02*
X131700000Y-90300000D01*
X143400000Y-103200000D02*
X143250000Y-103200000D01*
X143250000Y-103200000D02*
X142399999Y-104050001D01*
X142399999Y-104050001D02*
X140300001Y-104050001D01*
X140300001Y-104050001D02*
X139450000Y-103200000D01*
X139450000Y-103200000D02*
X139300000Y-103200000D01*
X129450000Y-93718578D02*
X129636057Y-93904635D01*
X129450000Y-92550000D02*
X129450000Y-93718578D01*
X127050000Y-92550000D02*
X127050000Y-93641487D01*
X127050000Y-93641487D02*
X127377917Y-93969404D01*
X128650000Y-93835994D02*
X128586056Y-93899938D01*
X128650000Y-92550000D02*
X128650000Y-93835994D01*
X126300000Y-93974998D02*
X126300000Y-92600000D01*
X126300000Y-92600000D02*
X126250000Y-92550000D01*
X122800000Y-103400000D02*
X122800000Y-96031678D01*
X122800000Y-96031678D02*
X124831678Y-94000000D01*
X124831678Y-94000000D02*
X125200000Y-94000000D01*
X125450000Y-93750000D02*
X125450000Y-92550000D01*
X125200000Y-94000000D02*
X125450000Y-93750000D01*
X124900000Y-104150000D02*
X123550000Y-104150000D01*
X123550000Y-104150000D02*
X122800000Y-103400000D01*
X126500000Y-96700000D02*
X126950000Y-96700000D01*
X126950000Y-96700000D02*
X128450000Y-95200000D01*
X126500000Y-96700000D02*
X126850000Y-96700000D01*
X125400000Y-98425000D02*
X125400000Y-97800000D01*
X125400000Y-97800000D02*
X126500000Y-96700000D01*
X129134315Y-85700000D02*
X129700000Y-85700000D01*
X128350215Y-86484100D02*
X129134315Y-85700000D01*
X128350215Y-87866213D02*
X128350215Y-86484100D01*
X130250000Y-91350000D02*
X128400001Y-89500001D01*
X128400001Y-87915999D02*
X128350215Y-87866213D01*
X130250000Y-92550000D02*
X130250000Y-91350000D01*
X128400001Y-89500001D02*
X128400001Y-87915999D01*
X133400000Y-81900000D02*
X134890000Y-81900000D01*
X134890000Y-81900000D02*
X135300000Y-81490000D01*
X131900000Y-75200000D02*
X131900000Y-77000000D01*
X126250000Y-82165998D02*
X126250000Y-84050000D01*
X131900000Y-77000000D02*
X127600000Y-81300000D01*
X127600000Y-81300000D02*
X127115998Y-81300000D01*
X127115998Y-81300000D02*
X126250000Y-82165998D01*
X135300000Y-76410000D02*
X131900000Y-76410000D01*
X131900000Y-76410000D02*
X131900000Y-75200000D01*
X127100000Y-82500000D02*
X127100000Y-84000000D01*
X127100000Y-84000000D02*
X127050000Y-84050000D01*
X135300000Y-75140000D02*
X133440000Y-75140000D01*
X133440000Y-75140000D02*
X133400000Y-75100000D01*
X132550000Y-84050000D02*
X133100000Y-84600000D01*
X130250000Y-84050000D02*
X132550000Y-84050000D01*
X129800000Y-98425000D02*
X130075000Y-98425000D01*
X130075000Y-98425000D02*
X131500000Y-97000000D01*
X131700000Y-93500000D02*
X131700000Y-91100000D01*
X128700000Y-96500000D02*
X131700000Y-93500000D01*
X128700000Y-96700000D02*
X128700000Y-96500000D01*
X132000000Y-99700000D02*
X129825000Y-99700000D01*
X129825000Y-99700000D02*
X129800000Y-99725000D01*
X135500000Y-98600000D02*
X135300000Y-98600000D01*
X135300000Y-98600000D02*
X134200000Y-99700000D01*
X135800000Y-96100000D02*
X135800000Y-96500000D01*
X135800000Y-96500000D02*
X133600000Y-98700000D01*
X133600000Y-98700000D02*
X131229998Y-98700000D01*
X131229998Y-98700000D02*
X130854998Y-99075000D01*
X130854998Y-99075000D02*
X129800000Y-99075000D01*
X139300000Y-96200000D02*
X139300000Y-96300000D01*
X139300000Y-96300000D02*
X137600000Y-98000000D01*
X137500000Y-94400000D02*
X139300000Y-96200000D01*
X135800000Y-96100000D02*
X137500000Y-94400000D01*
X131600000Y-101300000D02*
X131100000Y-100800000D01*
X134300000Y-101300000D02*
X131600000Y-101300000D01*
X137600000Y-98000000D02*
X134300000Y-101300000D01*
X122100000Y-87100000D02*
X123200000Y-87100000D01*
X121999999Y-86999999D02*
X122100000Y-87100000D01*
X121999999Y-84615997D02*
X121999999Y-86999999D01*
X125300000Y-81315996D02*
X121999999Y-84615997D01*
X125300000Y-81100000D02*
X125300000Y-81315996D01*
D26*
G36*
X146303476Y-101920376D02*
X146548067Y-101974152D01*
X146798444Y-101979397D01*
X147045072Y-101935910D01*
X147278557Y-101845347D01*
X147307467Y-101827000D01*
X163623000Y-101827000D01*
X163623000Y-105429343D01*
X162458888Y-107225143D01*
X158533070Y-111153879D01*
X155723843Y-113024320D01*
X129075218Y-113024320D01*
X126267283Y-111154740D01*
X123757570Y-108616251D01*
X123847350Y-108664239D01*
X123946690Y-108694374D01*
X124050000Y-108704549D01*
X125250000Y-108704549D01*
X125353310Y-108694374D01*
X125452650Y-108664239D01*
X125544202Y-108615304D01*
X125599572Y-108569863D01*
X125614057Y-108584348D01*
X125700372Y-108642021D01*
X125796280Y-108681748D01*
X125898095Y-108702000D01*
X126345250Y-108702000D01*
X126477000Y-108570250D01*
X126477000Y-107873000D01*
X126623000Y-107873000D01*
X126623000Y-108570250D01*
X126754750Y-108702000D01*
X127201905Y-108702000D01*
X127303720Y-108681748D01*
X127399628Y-108642021D01*
X127485943Y-108584348D01*
X127559348Y-108510943D01*
X127617021Y-108424628D01*
X127656748Y-108328720D01*
X127677000Y-108226905D01*
X127677000Y-108004750D01*
X127545250Y-107873000D01*
X126623000Y-107873000D01*
X126477000Y-107873000D01*
X126457000Y-107873000D01*
X126457000Y-107727000D01*
X126477000Y-107727000D01*
X126477000Y-107029750D01*
X126623000Y-107029750D01*
X126623000Y-107727000D01*
X127545250Y-107727000D01*
X127677000Y-107595250D01*
X127677000Y-107373095D01*
X127656748Y-107271280D01*
X127617021Y-107175372D01*
X127559348Y-107089057D01*
X127485943Y-107015652D01*
X127399628Y-106957979D01*
X127303720Y-106918252D01*
X127201905Y-106898000D01*
X126754750Y-106898000D01*
X126623000Y-107029750D01*
X126477000Y-107029750D01*
X126345250Y-106898000D01*
X126129804Y-106898000D01*
X126144202Y-106890304D01*
X126224448Y-106824448D01*
X126290304Y-106744202D01*
X126339239Y-106652650D01*
X126369374Y-106553310D01*
X126379549Y-106450000D01*
X126379549Y-106077873D01*
X126581066Y-105876357D01*
X126614057Y-105909348D01*
X126700372Y-105967021D01*
X126796280Y-106006748D01*
X126898095Y-106027000D01*
X127695250Y-106027000D01*
X127827000Y-105895250D01*
X127827000Y-105173000D01*
X127807000Y-105173000D01*
X127807000Y-105027000D01*
X127827000Y-105027000D01*
X127827000Y-104304750D01*
X127695250Y-104173000D01*
X127226999Y-104173000D01*
X127226999Y-104080423D01*
X128227874Y-103079549D01*
X129000000Y-103079549D01*
X129103310Y-103069374D01*
X129109893Y-103067377D01*
X129135761Y-103152650D01*
X129184696Y-103244202D01*
X129230137Y-103299572D01*
X129215652Y-103314057D01*
X129157979Y-103400372D01*
X129118252Y-103496280D01*
X129098000Y-103598095D01*
X129098000Y-104045250D01*
X129229748Y-104176998D01*
X129098000Y-104176998D01*
X129098000Y-104232305D01*
X129003720Y-104193252D01*
X128901905Y-104173000D01*
X128104750Y-104173000D01*
X127973000Y-104304750D01*
X127973000Y-105027000D01*
X127993000Y-105027000D01*
X127993000Y-105173000D01*
X127973000Y-105173000D01*
X127973000Y-105895250D01*
X128104750Y-106027000D01*
X128901905Y-106027000D01*
X129003720Y-106006748D01*
X129099628Y-105967021D01*
X129185943Y-105909348D01*
X129259348Y-105835943D01*
X129317021Y-105749628D01*
X129356748Y-105653720D01*
X129377000Y-105551905D01*
X129377000Y-105317695D01*
X129471280Y-105356748D01*
X129573095Y-105377000D01*
X129795250Y-105377000D01*
X129927000Y-105245250D01*
X129927000Y-104323000D01*
X130073000Y-104323000D01*
X130073000Y-105245250D01*
X130204750Y-105377000D01*
X130426905Y-105377000D01*
X130528720Y-105356748D01*
X130624628Y-105317021D01*
X130710943Y-105259348D01*
X130784348Y-105185943D01*
X130842021Y-105099628D01*
X130881748Y-105003720D01*
X130902000Y-104901905D01*
X130902000Y-104454750D01*
X130770250Y-104323000D01*
X130073000Y-104323000D01*
X129927000Y-104323000D01*
X129907000Y-104323000D01*
X129907000Y-104177000D01*
X129927000Y-104177000D01*
X129927000Y-104157000D01*
X130073000Y-104157000D01*
X130073000Y-104177000D01*
X130770250Y-104177000D01*
X130902000Y-104045250D01*
X130902000Y-103598095D01*
X130881748Y-103496280D01*
X130842021Y-103400372D01*
X130784348Y-103314057D01*
X130769863Y-103299572D01*
X130815304Y-103244202D01*
X130864239Y-103152650D01*
X130894374Y-103053310D01*
X130896965Y-103027000D01*
X134669578Y-103027000D01*
X137421289Y-105778711D01*
X137469596Y-105818391D01*
X137517517Y-105858602D01*
X137520637Y-105860317D01*
X137523388Y-105862577D01*
X137578509Y-105892133D01*
X137633301Y-105922255D01*
X137636694Y-105923331D01*
X137639832Y-105925014D01*
X137699664Y-105943306D01*
X137759244Y-105962206D01*
X137762780Y-105962603D01*
X137766186Y-105963644D01*
X137828383Y-105969961D01*
X137890548Y-105976934D01*
X137897515Y-105976983D01*
X137897637Y-105976995D01*
X137897750Y-105976984D01*
X137900000Y-105977000D01*
X144023010Y-105977000D01*
X144023010Y-106282824D01*
X143886669Y-106240619D01*
X143658217Y-106216608D01*
X143429452Y-106237427D01*
X143209088Y-106302284D01*
X143005518Y-106408707D01*
X142826496Y-106552645D01*
X142678841Y-106728613D01*
X142650508Y-106780151D01*
X142630348Y-106742237D01*
X142485165Y-106564225D01*
X142308170Y-106417802D01*
X142106106Y-106308546D01*
X141886669Y-106240619D01*
X141658217Y-106216608D01*
X141429452Y-106237427D01*
X141209088Y-106302284D01*
X141005518Y-106408707D01*
X140826496Y-106552645D01*
X140678841Y-106728613D01*
X140650508Y-106780151D01*
X140630348Y-106742237D01*
X140485165Y-106564225D01*
X140308170Y-106417802D01*
X140106106Y-106308546D01*
X139886669Y-106240619D01*
X139658217Y-106216608D01*
X139429452Y-106237427D01*
X139209088Y-106302284D01*
X139005518Y-106408707D01*
X138826496Y-106552645D01*
X138678841Y-106728613D01*
X138650508Y-106780151D01*
X138630348Y-106742237D01*
X138485165Y-106564225D01*
X138308170Y-106417802D01*
X138106106Y-106308546D01*
X137886669Y-106240619D01*
X137658217Y-106216608D01*
X137429452Y-106237427D01*
X137209088Y-106302284D01*
X137005518Y-106408707D01*
X136826496Y-106552645D01*
X136678841Y-106728613D01*
X136650508Y-106780151D01*
X136630348Y-106742237D01*
X136485165Y-106564225D01*
X136308170Y-106417802D01*
X136106106Y-106308546D01*
X135886669Y-106240619D01*
X135658217Y-106216608D01*
X135429452Y-106237427D01*
X135209088Y-106302284D01*
X135005518Y-106408707D01*
X134826496Y-106552645D01*
X134678841Y-106728613D01*
X134650508Y-106780151D01*
X134630348Y-106742237D01*
X134485165Y-106564225D01*
X134308170Y-106417802D01*
X134106106Y-106308546D01*
X133886669Y-106240619D01*
X133658217Y-106216608D01*
X133429452Y-106237427D01*
X133209088Y-106302284D01*
X133005518Y-106408707D01*
X132826496Y-106552645D01*
X132678841Y-106728613D01*
X132650508Y-106780151D01*
X132630348Y-106742237D01*
X132485165Y-106564225D01*
X132308170Y-106417802D01*
X132106106Y-106308546D01*
X131886669Y-106240619D01*
X131658217Y-106216608D01*
X131429452Y-106237427D01*
X131209088Y-106302284D01*
X131005518Y-106408707D01*
X130826496Y-106552645D01*
X130678841Y-106728613D01*
X130568178Y-106929909D01*
X130498720Y-107148867D01*
X130473115Y-107377146D01*
X130473000Y-107393579D01*
X130473000Y-107706421D01*
X130495416Y-107935035D01*
X130561809Y-108154941D01*
X130669652Y-108357763D01*
X130814835Y-108535775D01*
X130830924Y-108549085D01*
X130826496Y-108552645D01*
X130678841Y-108728613D01*
X130568178Y-108929909D01*
X130498720Y-109148867D01*
X130473115Y-109377146D01*
X130473000Y-109393579D01*
X130473000Y-109706421D01*
X130495416Y-109935035D01*
X130561809Y-110154941D01*
X130669652Y-110357763D01*
X130814835Y-110535775D01*
X130991830Y-110682198D01*
X131193894Y-110791454D01*
X131413331Y-110859381D01*
X131641783Y-110883392D01*
X131870548Y-110862573D01*
X132090912Y-110797716D01*
X132294482Y-110691293D01*
X132473504Y-110547355D01*
X132621159Y-110371387D01*
X132649492Y-110319849D01*
X132669652Y-110357763D01*
X132814835Y-110535775D01*
X132991830Y-110682198D01*
X133193894Y-110791454D01*
X133413331Y-110859381D01*
X133641783Y-110883392D01*
X133870548Y-110862573D01*
X134090912Y-110797716D01*
X134294482Y-110691293D01*
X134473504Y-110547355D01*
X134621159Y-110371387D01*
X134649492Y-110319849D01*
X134669652Y-110357763D01*
X134814835Y-110535775D01*
X134991830Y-110682198D01*
X135193894Y-110791454D01*
X135413331Y-110859381D01*
X135641783Y-110883392D01*
X135870548Y-110862573D01*
X136090912Y-110797716D01*
X136294482Y-110691293D01*
X136473504Y-110547355D01*
X136621159Y-110371387D01*
X136649492Y-110319849D01*
X136669652Y-110357763D01*
X136814835Y-110535775D01*
X136991830Y-110682198D01*
X137193894Y-110791454D01*
X137413331Y-110859381D01*
X137641783Y-110883392D01*
X137870548Y-110862573D01*
X138090912Y-110797716D01*
X138294482Y-110691293D01*
X138473504Y-110547355D01*
X138621159Y-110371387D01*
X138649492Y-110319849D01*
X138669652Y-110357763D01*
X138814835Y-110535775D01*
X138991830Y-110682198D01*
X139193894Y-110791454D01*
X139413331Y-110859381D01*
X139641783Y-110883392D01*
X139870548Y-110862573D01*
X140090912Y-110797716D01*
X140294482Y-110691293D01*
X140473504Y-110547355D01*
X140621159Y-110371387D01*
X140651359Y-110316454D01*
X140711916Y-110414604D01*
X140869353Y-110583884D01*
X141056790Y-110719197D01*
X141267024Y-110815343D01*
X141394130Y-110848851D01*
X141577000Y-110742698D01*
X141577000Y-109623000D01*
X141557000Y-109623000D01*
X141557000Y-109477000D01*
X141577000Y-109477000D01*
X141577000Y-109457000D01*
X141723000Y-109457000D01*
X141723000Y-109477000D01*
X141743000Y-109477000D01*
X141743000Y-109623000D01*
X141723000Y-109623000D01*
X141723000Y-110742698D01*
X141905870Y-110848851D01*
X142032976Y-110815343D01*
X142243210Y-110719197D01*
X142430647Y-110583884D01*
X142588084Y-110414604D01*
X142648129Y-110317284D01*
X142669652Y-110357763D01*
X142814835Y-110535775D01*
X142991830Y-110682198D01*
X143193894Y-110791454D01*
X143413331Y-110859381D01*
X143641783Y-110883392D01*
X143870548Y-110862573D01*
X144090912Y-110797716D01*
X144294482Y-110691293D01*
X144473504Y-110547355D01*
X144621159Y-110371387D01*
X144731822Y-110170091D01*
X144801280Y-109951133D01*
X144826885Y-109722854D01*
X144827000Y-109706421D01*
X144827000Y-109393579D01*
X144807966Y-109199457D01*
X145178721Y-108828702D01*
X145218422Y-108780369D01*
X145258612Y-108732473D01*
X145260327Y-108729353D01*
X145262587Y-108726602D01*
X145292143Y-108671481D01*
X145322265Y-108616689D01*
X145323341Y-108613296D01*
X145325024Y-108610158D01*
X145343307Y-108550354D01*
X145362216Y-108490746D01*
X145362613Y-108487207D01*
X145363653Y-108483805D01*
X145369966Y-108421652D01*
X145376944Y-108359442D01*
X145376993Y-108352475D01*
X145377005Y-108352353D01*
X145376994Y-108352240D01*
X145377010Y-108349990D01*
X145377010Y-105935439D01*
X145405140Y-105908651D01*
X145509931Y-105760099D01*
X145583874Y-105594022D01*
X145624150Y-105416746D01*
X145627049Y-105209103D01*
X145591739Y-105030771D01*
X145522462Y-104862694D01*
X145421859Y-104711274D01*
X145293761Y-104582278D01*
X145143047Y-104480621D01*
X144975458Y-104410173D01*
X144797377Y-104373618D01*
X144615587Y-104372349D01*
X144437013Y-104406413D01*
X144268457Y-104474515D01*
X144116338Y-104574058D01*
X144066360Y-104623000D01*
X142758652Y-104623000D01*
X142768720Y-104617781D01*
X142771502Y-104615560D01*
X142774645Y-104613889D01*
X142823096Y-104574373D01*
X142871980Y-104535349D01*
X142876936Y-104530462D01*
X142877036Y-104530380D01*
X142877113Y-104530287D01*
X142878710Y-104528712D01*
X143227873Y-104179549D01*
X144000000Y-104179549D01*
X144103310Y-104169374D01*
X144202650Y-104139239D01*
X144294202Y-104090304D01*
X144374448Y-104024448D01*
X144440304Y-103944202D01*
X144489239Y-103852650D01*
X144500000Y-103817176D01*
X144510761Y-103852650D01*
X144559696Y-103944202D01*
X144625552Y-104024448D01*
X144705798Y-104090304D01*
X144797350Y-104139239D01*
X144896690Y-104169374D01*
X145000000Y-104179549D01*
X146200000Y-104179549D01*
X146303310Y-104169374D01*
X146402650Y-104139239D01*
X146494202Y-104090304D01*
X146574448Y-104024448D01*
X146640304Y-103944202D01*
X146689239Y-103852650D01*
X146719374Y-103753310D01*
X146729549Y-103650000D01*
X146729549Y-102750000D01*
X146719374Y-102646690D01*
X146689239Y-102547350D01*
X146640304Y-102455798D01*
X146574448Y-102375552D01*
X146494202Y-102309696D01*
X146402650Y-102260761D01*
X146303310Y-102230626D01*
X146200000Y-102220451D01*
X145577873Y-102220451D01*
X145217290Y-101859868D01*
X145210782Y-101827000D01*
X146089748Y-101827000D01*
X146303476Y-101920376D01*
X146303476Y-101920376D01*
G37*
X146303476Y-101920376D02*
X146548067Y-101974152D01*
X146798444Y-101979397D01*
X147045072Y-101935910D01*
X147278557Y-101845347D01*
X147307467Y-101827000D01*
X163623000Y-101827000D01*
X163623000Y-105429343D01*
X162458888Y-107225143D01*
X158533070Y-111153879D01*
X155723843Y-113024320D01*
X129075218Y-113024320D01*
X126267283Y-111154740D01*
X123757570Y-108616251D01*
X123847350Y-108664239D01*
X123946690Y-108694374D01*
X124050000Y-108704549D01*
X125250000Y-108704549D01*
X125353310Y-108694374D01*
X125452650Y-108664239D01*
X125544202Y-108615304D01*
X125599572Y-108569863D01*
X125614057Y-108584348D01*
X125700372Y-108642021D01*
X125796280Y-108681748D01*
X125898095Y-108702000D01*
X126345250Y-108702000D01*
X126477000Y-108570250D01*
X126477000Y-107873000D01*
X126623000Y-107873000D01*
X126623000Y-108570250D01*
X126754750Y-108702000D01*
X127201905Y-108702000D01*
X127303720Y-108681748D01*
X127399628Y-108642021D01*
X127485943Y-108584348D01*
X127559348Y-108510943D01*
X127617021Y-108424628D01*
X127656748Y-108328720D01*
X127677000Y-108226905D01*
X127677000Y-108004750D01*
X127545250Y-107873000D01*
X126623000Y-107873000D01*
X126477000Y-107873000D01*
X126457000Y-107873000D01*
X126457000Y-107727000D01*
X126477000Y-107727000D01*
X126477000Y-107029750D01*
X126623000Y-107029750D01*
X126623000Y-107727000D01*
X127545250Y-107727000D01*
X127677000Y-107595250D01*
X127677000Y-107373095D01*
X127656748Y-107271280D01*
X127617021Y-107175372D01*
X127559348Y-107089057D01*
X127485943Y-107015652D01*
X127399628Y-106957979D01*
X127303720Y-106918252D01*
X127201905Y-106898000D01*
X126754750Y-106898000D01*
X126623000Y-107029750D01*
X126477000Y-107029750D01*
X126345250Y-106898000D01*
X126129804Y-106898000D01*
X126144202Y-106890304D01*
X126224448Y-106824448D01*
X126290304Y-106744202D01*
X126339239Y-106652650D01*
X126369374Y-106553310D01*
X126379549Y-106450000D01*
X126379549Y-106077873D01*
X126581066Y-105876357D01*
X126614057Y-105909348D01*
X126700372Y-105967021D01*
X126796280Y-106006748D01*
X126898095Y-106027000D01*
X127695250Y-106027000D01*
X127827000Y-105895250D01*
X127827000Y-105173000D01*
X127807000Y-105173000D01*
X127807000Y-105027000D01*
X127827000Y-105027000D01*
X127827000Y-104304750D01*
X127695250Y-104173000D01*
X127226999Y-104173000D01*
X127226999Y-104080423D01*
X128227874Y-103079549D01*
X129000000Y-103079549D01*
X129103310Y-103069374D01*
X129109893Y-103067377D01*
X129135761Y-103152650D01*
X129184696Y-103244202D01*
X129230137Y-103299572D01*
X129215652Y-103314057D01*
X129157979Y-103400372D01*
X129118252Y-103496280D01*
X129098000Y-103598095D01*
X129098000Y-104045250D01*
X129229748Y-104176998D01*
X129098000Y-104176998D01*
X129098000Y-104232305D01*
X129003720Y-104193252D01*
X128901905Y-104173000D01*
X128104750Y-104173000D01*
X127973000Y-104304750D01*
X127973000Y-105027000D01*
X127993000Y-105027000D01*
X127993000Y-105173000D01*
X127973000Y-105173000D01*
X127973000Y-105895250D01*
X128104750Y-106027000D01*
X128901905Y-106027000D01*
X129003720Y-106006748D01*
X129099628Y-105967021D01*
X129185943Y-105909348D01*
X129259348Y-105835943D01*
X129317021Y-105749628D01*
X129356748Y-105653720D01*
X129377000Y-105551905D01*
X129377000Y-105317695D01*
X129471280Y-105356748D01*
X129573095Y-105377000D01*
X129795250Y-105377000D01*
X129927000Y-105245250D01*
X129927000Y-104323000D01*
X130073000Y-104323000D01*
X130073000Y-105245250D01*
X130204750Y-105377000D01*
X130426905Y-105377000D01*
X130528720Y-105356748D01*
X130624628Y-105317021D01*
X130710943Y-105259348D01*
X130784348Y-105185943D01*
X130842021Y-105099628D01*
X130881748Y-105003720D01*
X130902000Y-104901905D01*
X130902000Y-104454750D01*
X130770250Y-104323000D01*
X130073000Y-104323000D01*
X129927000Y-104323000D01*
X129907000Y-104323000D01*
X129907000Y-104177000D01*
X129927000Y-104177000D01*
X129927000Y-104157000D01*
X130073000Y-104157000D01*
X130073000Y-104177000D01*
X130770250Y-104177000D01*
X130902000Y-104045250D01*
X130902000Y-103598095D01*
X130881748Y-103496280D01*
X130842021Y-103400372D01*
X130784348Y-103314057D01*
X130769863Y-103299572D01*
X130815304Y-103244202D01*
X130864239Y-103152650D01*
X130894374Y-103053310D01*
X130896965Y-103027000D01*
X134669578Y-103027000D01*
X137421289Y-105778711D01*
X137469596Y-105818391D01*
X137517517Y-105858602D01*
X137520637Y-105860317D01*
X137523388Y-105862577D01*
X137578509Y-105892133D01*
X137633301Y-105922255D01*
X137636694Y-105923331D01*
X137639832Y-105925014D01*
X137699664Y-105943306D01*
X137759244Y-105962206D01*
X137762780Y-105962603D01*
X137766186Y-105963644D01*
X137828383Y-105969961D01*
X137890548Y-105976934D01*
X137897515Y-105976983D01*
X137897637Y-105976995D01*
X137897750Y-105976984D01*
X137900000Y-105977000D01*
X144023010Y-105977000D01*
X144023010Y-106282824D01*
X143886669Y-106240619D01*
X143658217Y-106216608D01*
X143429452Y-106237427D01*
X143209088Y-106302284D01*
X143005518Y-106408707D01*
X142826496Y-106552645D01*
X142678841Y-106728613D01*
X142650508Y-106780151D01*
X142630348Y-106742237D01*
X142485165Y-106564225D01*
X142308170Y-106417802D01*
X142106106Y-106308546D01*
X141886669Y-106240619D01*
X141658217Y-106216608D01*
X141429452Y-106237427D01*
X141209088Y-106302284D01*
X141005518Y-106408707D01*
X140826496Y-106552645D01*
X140678841Y-106728613D01*
X140650508Y-106780151D01*
X140630348Y-106742237D01*
X140485165Y-106564225D01*
X140308170Y-106417802D01*
X140106106Y-106308546D01*
X139886669Y-106240619D01*
X139658217Y-106216608D01*
X139429452Y-106237427D01*
X139209088Y-106302284D01*
X139005518Y-106408707D01*
X138826496Y-106552645D01*
X138678841Y-106728613D01*
X138650508Y-106780151D01*
X138630348Y-106742237D01*
X138485165Y-106564225D01*
X138308170Y-106417802D01*
X138106106Y-106308546D01*
X137886669Y-106240619D01*
X137658217Y-106216608D01*
X137429452Y-106237427D01*
X137209088Y-106302284D01*
X137005518Y-106408707D01*
X136826496Y-106552645D01*
X136678841Y-106728613D01*
X136650508Y-106780151D01*
X136630348Y-106742237D01*
X136485165Y-106564225D01*
X136308170Y-106417802D01*
X136106106Y-106308546D01*
X135886669Y-106240619D01*
X135658217Y-106216608D01*
X135429452Y-106237427D01*
X135209088Y-106302284D01*
X135005518Y-106408707D01*
X134826496Y-106552645D01*
X134678841Y-106728613D01*
X134650508Y-106780151D01*
X134630348Y-106742237D01*
X134485165Y-106564225D01*
X134308170Y-106417802D01*
X134106106Y-106308546D01*
X133886669Y-106240619D01*
X133658217Y-106216608D01*
X133429452Y-106237427D01*
X133209088Y-106302284D01*
X133005518Y-106408707D01*
X132826496Y-106552645D01*
X132678841Y-106728613D01*
X132650508Y-106780151D01*
X132630348Y-106742237D01*
X132485165Y-106564225D01*
X132308170Y-106417802D01*
X132106106Y-106308546D01*
X131886669Y-106240619D01*
X131658217Y-106216608D01*
X131429452Y-106237427D01*
X131209088Y-106302284D01*
X131005518Y-106408707D01*
X130826496Y-106552645D01*
X130678841Y-106728613D01*
X130568178Y-106929909D01*
X130498720Y-107148867D01*
X130473115Y-107377146D01*
X130473000Y-107393579D01*
X130473000Y-107706421D01*
X130495416Y-107935035D01*
X130561809Y-108154941D01*
X130669652Y-108357763D01*
X130814835Y-108535775D01*
X130830924Y-108549085D01*
X130826496Y-108552645D01*
X130678841Y-108728613D01*
X130568178Y-108929909D01*
X130498720Y-109148867D01*
X130473115Y-109377146D01*
X130473000Y-109393579D01*
X130473000Y-109706421D01*
X130495416Y-109935035D01*
X130561809Y-110154941D01*
X130669652Y-110357763D01*
X130814835Y-110535775D01*
X130991830Y-110682198D01*
X131193894Y-110791454D01*
X131413331Y-110859381D01*
X131641783Y-110883392D01*
X131870548Y-110862573D01*
X132090912Y-110797716D01*
X132294482Y-110691293D01*
X132473504Y-110547355D01*
X132621159Y-110371387D01*
X132649492Y-110319849D01*
X132669652Y-110357763D01*
X132814835Y-110535775D01*
X132991830Y-110682198D01*
X133193894Y-110791454D01*
X133413331Y-110859381D01*
X133641783Y-110883392D01*
X133870548Y-110862573D01*
X134090912Y-110797716D01*
X134294482Y-110691293D01*
X134473504Y-110547355D01*
X134621159Y-110371387D01*
X134649492Y-110319849D01*
X134669652Y-110357763D01*
X134814835Y-110535775D01*
X134991830Y-110682198D01*
X135193894Y-110791454D01*
X135413331Y-110859381D01*
X135641783Y-110883392D01*
X135870548Y-110862573D01*
X136090912Y-110797716D01*
X136294482Y-110691293D01*
X136473504Y-110547355D01*
X136621159Y-110371387D01*
X136649492Y-110319849D01*
X136669652Y-110357763D01*
X136814835Y-110535775D01*
X136991830Y-110682198D01*
X137193894Y-110791454D01*
X137413331Y-110859381D01*
X137641783Y-110883392D01*
X137870548Y-110862573D01*
X138090912Y-110797716D01*
X138294482Y-110691293D01*
X138473504Y-110547355D01*
X138621159Y-110371387D01*
X138649492Y-110319849D01*
X138669652Y-110357763D01*
X138814835Y-110535775D01*
X138991830Y-110682198D01*
X139193894Y-110791454D01*
X139413331Y-110859381D01*
X139641783Y-110883392D01*
X139870548Y-110862573D01*
X140090912Y-110797716D01*
X140294482Y-110691293D01*
X140473504Y-110547355D01*
X140621159Y-110371387D01*
X140651359Y-110316454D01*
X140711916Y-110414604D01*
X140869353Y-110583884D01*
X141056790Y-110719197D01*
X141267024Y-110815343D01*
X141394130Y-110848851D01*
X141577000Y-110742698D01*
X141577000Y-109623000D01*
X141557000Y-109623000D01*
X141557000Y-109477000D01*
X141577000Y-109477000D01*
X141577000Y-109457000D01*
X141723000Y-109457000D01*
X141723000Y-109477000D01*
X141743000Y-109477000D01*
X141743000Y-109623000D01*
X141723000Y-109623000D01*
X141723000Y-110742698D01*
X141905870Y-110848851D01*
X142032976Y-110815343D01*
X142243210Y-110719197D01*
X142430647Y-110583884D01*
X142588084Y-110414604D01*
X142648129Y-110317284D01*
X142669652Y-110357763D01*
X142814835Y-110535775D01*
X142991830Y-110682198D01*
X143193894Y-110791454D01*
X143413331Y-110859381D01*
X143641783Y-110883392D01*
X143870548Y-110862573D01*
X144090912Y-110797716D01*
X144294482Y-110691293D01*
X144473504Y-110547355D01*
X144621159Y-110371387D01*
X144731822Y-110170091D01*
X144801280Y-109951133D01*
X144826885Y-109722854D01*
X144827000Y-109706421D01*
X144827000Y-109393579D01*
X144807966Y-109199457D01*
X145178721Y-108828702D01*
X145218422Y-108780369D01*
X145258612Y-108732473D01*
X145260327Y-108729353D01*
X145262587Y-108726602D01*
X145292143Y-108671481D01*
X145322265Y-108616689D01*
X145323341Y-108613296D01*
X145325024Y-108610158D01*
X145343307Y-108550354D01*
X145362216Y-108490746D01*
X145362613Y-108487207D01*
X145363653Y-108483805D01*
X145369966Y-108421652D01*
X145376944Y-108359442D01*
X145376993Y-108352475D01*
X145377005Y-108352353D01*
X145376994Y-108352240D01*
X145377010Y-108349990D01*
X145377010Y-105935439D01*
X145405140Y-105908651D01*
X145509931Y-105760099D01*
X145583874Y-105594022D01*
X145624150Y-105416746D01*
X145627049Y-105209103D01*
X145591739Y-105030771D01*
X145522462Y-104862694D01*
X145421859Y-104711274D01*
X145293761Y-104582278D01*
X145143047Y-104480621D01*
X144975458Y-104410173D01*
X144797377Y-104373618D01*
X144615587Y-104372349D01*
X144437013Y-104406413D01*
X144268457Y-104474515D01*
X144116338Y-104574058D01*
X144066360Y-104623000D01*
X142758652Y-104623000D01*
X142768720Y-104617781D01*
X142771502Y-104615560D01*
X142774645Y-104613889D01*
X142823096Y-104574373D01*
X142871980Y-104535349D01*
X142876936Y-104530462D01*
X142877036Y-104530380D01*
X142877113Y-104530287D01*
X142878710Y-104528712D01*
X143227873Y-104179549D01*
X144000000Y-104179549D01*
X144103310Y-104169374D01*
X144202650Y-104139239D01*
X144294202Y-104090304D01*
X144374448Y-104024448D01*
X144440304Y-103944202D01*
X144489239Y-103852650D01*
X144500000Y-103817176D01*
X144510761Y-103852650D01*
X144559696Y-103944202D01*
X144625552Y-104024448D01*
X144705798Y-104090304D01*
X144797350Y-104139239D01*
X144896690Y-104169374D01*
X145000000Y-104179549D01*
X146200000Y-104179549D01*
X146303310Y-104169374D01*
X146402650Y-104139239D01*
X146494202Y-104090304D01*
X146574448Y-104024448D01*
X146640304Y-103944202D01*
X146689239Y-103852650D01*
X146719374Y-103753310D01*
X146729549Y-103650000D01*
X146729549Y-102750000D01*
X146719374Y-102646690D01*
X146689239Y-102547350D01*
X146640304Y-102455798D01*
X146574448Y-102375552D01*
X146494202Y-102309696D01*
X146402650Y-102260761D01*
X146303310Y-102230626D01*
X146200000Y-102220451D01*
X145577873Y-102220451D01*
X145217290Y-101859868D01*
X145210782Y-101827000D01*
X146089748Y-101827000D01*
X146303476Y-101920376D01*
G36*
X141673000Y-80973000D02*
X138056660Y-80973000D01*
X138204293Y-80915737D01*
X138357786Y-80818327D01*
X138489437Y-80692958D01*
X138594228Y-80544406D01*
X138668171Y-80378329D01*
X138708447Y-80201053D01*
X138711346Y-79993410D01*
X138676036Y-79815078D01*
X138606759Y-79647001D01*
X138506156Y-79495581D01*
X138378058Y-79366585D01*
X138227344Y-79264928D01*
X138059755Y-79194480D01*
X137881674Y-79157925D01*
X137792207Y-79157300D01*
X137824140Y-79016746D01*
X137827039Y-78809103D01*
X137791729Y-78630771D01*
X137722452Y-78462694D01*
X137652229Y-78357000D01*
X137745721Y-78357000D01*
X137796286Y-78409362D01*
X137945566Y-78513114D01*
X138112155Y-78585895D01*
X138289708Y-78624932D01*
X138471463Y-78628740D01*
X138650495Y-78597171D01*
X138819986Y-78531430D01*
X138973479Y-78434020D01*
X139105130Y-78308651D01*
X139209921Y-78160099D01*
X139283864Y-77994022D01*
X139324140Y-77816746D01*
X139327039Y-77609103D01*
X139291729Y-77430771D01*
X139222452Y-77262694D01*
X139121849Y-77111274D01*
X138993751Y-76982278D01*
X138843037Y-76880621D01*
X138675448Y-76810173D01*
X138497367Y-76773618D01*
X138315577Y-76772349D01*
X138137003Y-76806413D01*
X137968447Y-76874515D01*
X137816328Y-76974058D01*
X137786773Y-77003000D01*
X136820389Y-77003000D01*
X136829549Y-76910000D01*
X136829549Y-75910000D01*
X136819374Y-75806690D01*
X136809761Y-75775000D01*
X136819374Y-75743310D01*
X136829549Y-75640000D01*
X136829549Y-74640000D01*
X136819374Y-74536690D01*
X136810190Y-74506415D01*
X136827000Y-74421905D01*
X136827000Y-74074750D01*
X136695250Y-73943000D01*
X135373000Y-73943000D01*
X135373000Y-73963000D01*
X135227000Y-73963000D01*
X135227000Y-73943000D01*
X133904750Y-73943000D01*
X133773000Y-74074750D01*
X133773000Y-74251180D01*
X133675448Y-74210173D01*
X133497367Y-74173618D01*
X133315577Y-74172349D01*
X133137003Y-74206413D01*
X132968447Y-74274515D01*
X132847651Y-74353561D01*
X132794202Y-74309696D01*
X132702650Y-74260761D01*
X132603310Y-74230626D01*
X132500000Y-74220451D01*
X131786971Y-74220451D01*
X132097873Y-73909549D01*
X133400000Y-73909549D01*
X133503310Y-73899374D01*
X133602650Y-73869239D01*
X133694202Y-73820304D01*
X133774448Y-73754448D01*
X133814002Y-73706252D01*
X133904750Y-73797000D01*
X135227000Y-73797000D01*
X135227000Y-73777000D01*
X135373000Y-73777000D01*
X135373000Y-73797000D01*
X136695250Y-73797000D01*
X136767414Y-73724836D01*
X137423000Y-74380423D01*
X137423000Y-74565452D01*
X137386441Y-74601253D01*
X137283733Y-74751254D01*
X137212117Y-74918347D01*
X137174320Y-75096168D01*
X137171782Y-75277945D01*
X137204599Y-75456752D01*
X137271522Y-75625780D01*
X137370001Y-75778590D01*
X137496286Y-75909362D01*
X137645566Y-76013114D01*
X137812155Y-76085895D01*
X137989708Y-76124932D01*
X138171463Y-76128740D01*
X138350495Y-76097171D01*
X138519986Y-76031430D01*
X138673479Y-75934020D01*
X138805130Y-75808651D01*
X138909921Y-75660099D01*
X138983864Y-75494022D01*
X139024140Y-75316746D01*
X139027039Y-75109103D01*
X138991729Y-74930771D01*
X138922452Y-74762694D01*
X138821849Y-74611274D01*
X138777000Y-74566111D01*
X138777000Y-74100000D01*
X138770896Y-74037740D01*
X138765447Y-73975465D01*
X138764455Y-73972050D01*
X138764107Y-73968503D01*
X138746018Y-73908591D01*
X138728585Y-73848584D01*
X138726948Y-73845425D01*
X138725918Y-73842015D01*
X138696549Y-73786781D01*
X138667780Y-73731279D01*
X138665559Y-73728497D01*
X138663888Y-73725354D01*
X138624372Y-73676903D01*
X138585348Y-73628019D01*
X138580457Y-73623059D01*
X138580379Y-73622963D01*
X138580290Y-73622889D01*
X138578711Y-73621288D01*
X137078711Y-72121289D01*
X137030404Y-72081609D01*
X136982483Y-72041398D01*
X136979363Y-72039683D01*
X136976612Y-72037423D01*
X136921491Y-72007867D01*
X136866699Y-71977745D01*
X136863306Y-71976669D01*
X136860168Y-71974986D01*
X136807947Y-71959021D01*
X136789239Y-71897350D01*
X136740304Y-71805798D01*
X136674448Y-71725552D01*
X136594202Y-71659696D01*
X136502650Y-71610761D01*
X136403310Y-71580626D01*
X136300000Y-71570451D01*
X134300000Y-71570451D01*
X134196690Y-71580626D01*
X134097350Y-71610761D01*
X134005798Y-71659696D01*
X133925552Y-71725552D01*
X133859696Y-71805798D01*
X133844655Y-71833938D01*
X133840304Y-71825798D01*
X133774448Y-71745552D01*
X133694202Y-71679696D01*
X133602650Y-71630761D01*
X133503310Y-71600626D01*
X133400000Y-71590451D01*
X131650000Y-71590451D01*
X131546690Y-71600626D01*
X131447350Y-71630761D01*
X131355798Y-71679696D01*
X131275552Y-71745552D01*
X131250892Y-71775601D01*
X131185943Y-71710652D01*
X131099628Y-71652979D01*
X131003720Y-71613252D01*
X130901905Y-71593000D01*
X130179750Y-71593000D01*
X130048000Y-71724750D01*
X130048000Y-72677000D01*
X130068000Y-72677000D01*
X130068000Y-72823000D01*
X130048000Y-72823000D01*
X130048000Y-73775250D01*
X130179750Y-73907000D01*
X130185578Y-73907000D01*
X129872127Y-74220451D01*
X129100000Y-74220451D01*
X128996690Y-74230626D01*
X128897350Y-74260761D01*
X128805798Y-74309696D01*
X128725552Y-74375552D01*
X128659696Y-74455798D01*
X128610761Y-74547350D01*
X128580626Y-74646690D01*
X128570451Y-74750000D01*
X128570451Y-75222127D01*
X125522127Y-78270451D01*
X124850000Y-78270451D01*
X124824480Y-78272965D01*
X124815304Y-78255798D01*
X124749448Y-78175552D01*
X124669202Y-78109696D01*
X124577650Y-78060761D01*
X124478310Y-78030626D01*
X124375000Y-78020451D01*
X123625000Y-78020451D01*
X123521690Y-78030626D01*
X123422350Y-78060761D01*
X123330798Y-78109696D01*
X123250552Y-78175552D01*
X123184696Y-78255798D01*
X123135761Y-78347350D01*
X123105626Y-78446690D01*
X123095451Y-78550000D01*
X123095451Y-78723000D01*
X122934190Y-78723000D01*
X122893751Y-78682278D01*
X122743037Y-78580621D01*
X122575448Y-78510173D01*
X122397367Y-78473618D01*
X122215577Y-78472349D01*
X122037003Y-78506413D01*
X121868447Y-78574515D01*
X121716328Y-78674058D01*
X121586441Y-78801253D01*
X121483733Y-78951254D01*
X121412117Y-79118347D01*
X121374320Y-79296168D01*
X121371782Y-79477945D01*
X121404599Y-79656752D01*
X121471522Y-79825780D01*
X121570001Y-79978590D01*
X121696286Y-80109362D01*
X121845566Y-80213114D01*
X122012155Y-80285895D01*
X122189708Y-80324932D01*
X122371463Y-80328740D01*
X122550495Y-80297171D01*
X122719986Y-80231430D01*
X122873479Y-80134020D01*
X122933356Y-80077000D01*
X123211613Y-80077000D01*
X123230137Y-80099572D01*
X123215652Y-80114057D01*
X123157979Y-80200372D01*
X123118252Y-80296280D01*
X123098000Y-80398095D01*
X123098000Y-80845250D01*
X123229750Y-80977000D01*
X123927000Y-80977000D01*
X123927000Y-80957000D01*
X124073000Y-80957000D01*
X124073000Y-80977000D01*
X124093000Y-80977000D01*
X124093000Y-81123000D01*
X124073000Y-81123000D01*
X124073000Y-81143000D01*
X123927000Y-81143000D01*
X123927000Y-81123000D01*
X123229750Y-81123000D01*
X123098000Y-81254750D01*
X123098000Y-81701905D01*
X123118252Y-81803720D01*
X123157979Y-81899628D01*
X123215652Y-81985943D01*
X123289057Y-82059348D01*
X123375372Y-82117021D01*
X123471280Y-82156748D01*
X123496758Y-82161816D01*
X121521288Y-84137286D01*
X121481608Y-84185593D01*
X121441397Y-84233514D01*
X121439682Y-84236634D01*
X121437422Y-84239385D01*
X121407866Y-84294506D01*
X121377744Y-84349298D01*
X121376668Y-84352691D01*
X121374985Y-84355829D01*
X121356693Y-84415661D01*
X121337793Y-84475241D01*
X121337396Y-84478777D01*
X121336355Y-84482183D01*
X121330038Y-84544380D01*
X121323065Y-84606545D01*
X121323016Y-84613512D01*
X121323004Y-84613634D01*
X121323015Y-84613747D01*
X121322999Y-84615997D01*
X121322999Y-86999999D01*
X121329099Y-87062209D01*
X121334551Y-87124534D01*
X121335545Y-87127954D01*
X121335892Y-87131496D01*
X121353968Y-87191367D01*
X121371414Y-87251415D01*
X121373051Y-87254574D01*
X121374081Y-87257984D01*
X121403450Y-87313218D01*
X121432219Y-87368720D01*
X121434440Y-87371502D01*
X121436111Y-87374645D01*
X121475627Y-87423096D01*
X121514651Y-87471980D01*
X121519538Y-87476936D01*
X121519620Y-87477036D01*
X121519713Y-87477113D01*
X121521288Y-87478710D01*
X121621289Y-87578711D01*
X121669596Y-87618391D01*
X121717517Y-87658602D01*
X121720637Y-87660317D01*
X121723388Y-87662577D01*
X121778509Y-87692133D01*
X121833301Y-87722255D01*
X121836694Y-87723331D01*
X121839832Y-87725014D01*
X121870451Y-87734375D01*
X121870451Y-88175000D01*
X121880626Y-88278310D01*
X121887407Y-88300664D01*
X121873000Y-88373095D01*
X121873000Y-88495250D01*
X122004750Y-88627000D01*
X122127680Y-88627000D01*
X122197350Y-88664239D01*
X122296690Y-88694374D01*
X122353813Y-88700000D01*
X122296690Y-88705626D01*
X122197350Y-88735761D01*
X122127680Y-88773000D01*
X122004750Y-88773000D01*
X121873000Y-88904750D01*
X121873000Y-89026905D01*
X121887407Y-89099336D01*
X121880626Y-89121690D01*
X121870451Y-89225000D01*
X121870451Y-89775000D01*
X121880626Y-89878310D01*
X121887206Y-89900000D01*
X121880626Y-89921690D01*
X121870451Y-90025000D01*
X121870451Y-90575000D01*
X121880626Y-90678310D01*
X121887206Y-90700000D01*
X121880626Y-90721690D01*
X121870451Y-90825000D01*
X121870451Y-91375000D01*
X121880626Y-91478310D01*
X121910761Y-91577650D01*
X121959696Y-91669202D01*
X122025552Y-91749448D01*
X122105798Y-91815304D01*
X122197350Y-91864239D01*
X122296690Y-91894374D01*
X122400000Y-91904549D01*
X122484184Y-91904549D01*
X122383733Y-92051254D01*
X122312117Y-92218347D01*
X122274320Y-92396168D01*
X122271782Y-92577945D01*
X122304599Y-92756752D01*
X122371522Y-92925780D01*
X122470001Y-93078590D01*
X122596286Y-93209362D01*
X122745566Y-93313114D01*
X122912155Y-93385895D01*
X123089708Y-93424932D01*
X123271463Y-93428740D01*
X123450495Y-93397171D01*
X123619986Y-93331430D01*
X123773479Y-93234020D01*
X123845451Y-93165482D01*
X123845451Y-93350000D01*
X123855626Y-93453310D01*
X123885761Y-93552650D01*
X123934696Y-93644202D01*
X124000552Y-93724448D01*
X124080798Y-93790304D01*
X124082853Y-93791402D01*
X122321289Y-95552967D01*
X122281609Y-95601274D01*
X122241398Y-95649195D01*
X122239683Y-95652315D01*
X122237423Y-95655066D01*
X122207867Y-95710187D01*
X122177745Y-95764979D01*
X122176669Y-95768372D01*
X122174986Y-95771510D01*
X122156694Y-95831342D01*
X122137794Y-95890922D01*
X122137397Y-95894458D01*
X122136356Y-95897864D01*
X122130039Y-95960061D01*
X122123066Y-96022226D01*
X122123017Y-96029193D01*
X122123005Y-96029315D01*
X122123016Y-96029428D01*
X122123000Y-96031678D01*
X122123000Y-102323776D01*
X122055798Y-102359696D01*
X121975552Y-102425552D01*
X121909696Y-102505798D01*
X121860761Y-102597350D01*
X121830626Y-102696690D01*
X121820451Y-102800000D01*
X121820451Y-104000000D01*
X121830626Y-104103310D01*
X121860761Y-104202650D01*
X121909696Y-104294202D01*
X121975552Y-104374448D01*
X122055798Y-104440304D01*
X122147350Y-104489239D01*
X122182824Y-104500000D01*
X122147350Y-104510761D01*
X122055798Y-104559696D01*
X121975552Y-104625552D01*
X121909696Y-104705798D01*
X121860761Y-104797350D01*
X121830626Y-104896690D01*
X121820451Y-105000000D01*
X121820451Y-106068360D01*
X121277000Y-105313837D01*
X121277000Y-78701181D01*
X123448635Y-75965577D01*
X124492200Y-77009141D01*
X124534129Y-77043582D01*
X124575878Y-77078366D01*
X124577658Y-77079336D01*
X124579218Y-77080618D01*
X124627068Y-77106275D01*
X124674748Y-77132271D01*
X124676675Y-77132875D01*
X124678462Y-77133833D01*
X124730511Y-77149746D01*
X124782206Y-77165946D01*
X124784212Y-77166164D01*
X124786152Y-77166757D01*
X124840236Y-77172251D01*
X124894158Y-77178109D01*
X124896174Y-77177933D01*
X124898186Y-77178137D01*
X124952306Y-77173021D01*
X125006340Y-77168293D01*
X125008278Y-77167730D01*
X125010298Y-77167539D01*
X125062412Y-77152003D01*
X125114480Y-77136876D01*
X125116276Y-77135945D01*
X125118215Y-77135367D01*
X125166298Y-77110016D01*
X125214457Y-77085053D01*
X125216035Y-77083793D01*
X125217828Y-77082848D01*
X125260087Y-77048627D01*
X125302465Y-77014797D01*
X125305230Y-77012070D01*
X125305343Y-77011979D01*
X125305436Y-77011868D01*
X125308201Y-77009141D01*
X127307181Y-75010160D01*
X127341473Y-74968412D01*
X127376131Y-74926886D01*
X127377220Y-74924893D01*
X127378658Y-74923142D01*
X127404213Y-74875483D01*
X127430120Y-74828061D01*
X127430799Y-74825901D01*
X127431873Y-74823898D01*
X127447712Y-74772091D01*
X127463886Y-74720632D01*
X127464132Y-74718382D01*
X127464797Y-74716208D01*
X127470269Y-74662338D01*
X127476143Y-74608691D01*
X127475947Y-74606434D01*
X127476177Y-74604174D01*
X127471083Y-74550282D01*
X127466423Y-74496501D01*
X127465793Y-74494325D01*
X127465579Y-74492063D01*
X127450116Y-74440194D01*
X127435097Y-74388334D01*
X127434056Y-74386321D01*
X127433407Y-74384145D01*
X127408163Y-74336264D01*
X127383359Y-74288313D01*
X127381948Y-74286542D01*
X127380888Y-74284532D01*
X127346826Y-74242470D01*
X127313178Y-74200246D01*
X127310111Y-74197131D01*
X127310019Y-74197017D01*
X127309908Y-74196925D01*
X127307526Y-74194505D01*
X126256091Y-73141288D01*
X126481106Y-72954750D01*
X128573000Y-72954750D01*
X128573000Y-73431905D01*
X128593252Y-73533720D01*
X128632979Y-73629628D01*
X128690652Y-73715943D01*
X128764057Y-73789348D01*
X128850372Y-73847021D01*
X128946280Y-73886748D01*
X129048095Y-73907000D01*
X129770250Y-73907000D01*
X129902000Y-73775250D01*
X129902000Y-72823000D01*
X128704750Y-72823000D01*
X128573000Y-72954750D01*
X126481106Y-72954750D01*
X127550654Y-72068095D01*
X128573000Y-72068095D01*
X128573000Y-72545250D01*
X128704750Y-72677000D01*
X129902000Y-72677000D01*
X129902000Y-71724750D01*
X129770250Y-71593000D01*
X129048095Y-71593000D01*
X128946280Y-71613252D01*
X128850372Y-71652979D01*
X128764057Y-71710652D01*
X128690652Y-71784057D01*
X128632979Y-71870372D01*
X128593252Y-71966280D01*
X128573000Y-72068095D01*
X127550654Y-72068095D01*
X129108068Y-70777000D01*
X141673000Y-70777000D01*
X141673000Y-80973000D01*
X141673000Y-80973000D01*
G37*
X141673000Y-80973000D02*
X138056660Y-80973000D01*
X138204293Y-80915737D01*
X138357786Y-80818327D01*
X138489437Y-80692958D01*
X138594228Y-80544406D01*
X138668171Y-80378329D01*
X138708447Y-80201053D01*
X138711346Y-79993410D01*
X138676036Y-79815078D01*
X138606759Y-79647001D01*
X138506156Y-79495581D01*
X138378058Y-79366585D01*
X138227344Y-79264928D01*
X138059755Y-79194480D01*
X137881674Y-79157925D01*
X137792207Y-79157300D01*
X137824140Y-79016746D01*
X137827039Y-78809103D01*
X137791729Y-78630771D01*
X137722452Y-78462694D01*
X137652229Y-78357000D01*
X137745721Y-78357000D01*
X137796286Y-78409362D01*
X137945566Y-78513114D01*
X138112155Y-78585895D01*
X138289708Y-78624932D01*
X138471463Y-78628740D01*
X138650495Y-78597171D01*
X138819986Y-78531430D01*
X138973479Y-78434020D01*
X139105130Y-78308651D01*
X139209921Y-78160099D01*
X139283864Y-77994022D01*
X139324140Y-77816746D01*
X139327039Y-77609103D01*
X139291729Y-77430771D01*
X139222452Y-77262694D01*
X139121849Y-77111274D01*
X138993751Y-76982278D01*
X138843037Y-76880621D01*
X138675448Y-76810173D01*
X138497367Y-76773618D01*
X138315577Y-76772349D01*
X138137003Y-76806413D01*
X137968447Y-76874515D01*
X137816328Y-76974058D01*
X137786773Y-77003000D01*
X136820389Y-77003000D01*
X136829549Y-76910000D01*
X136829549Y-75910000D01*
X136819374Y-75806690D01*
X136809761Y-75775000D01*
X136819374Y-75743310D01*
X136829549Y-75640000D01*
X136829549Y-74640000D01*
X136819374Y-74536690D01*
X136810190Y-74506415D01*
X136827000Y-74421905D01*
X136827000Y-74074750D01*
X136695250Y-73943000D01*
X135373000Y-73943000D01*
X135373000Y-73963000D01*
X135227000Y-73963000D01*
X135227000Y-73943000D01*
X133904750Y-73943000D01*
X133773000Y-74074750D01*
X133773000Y-74251180D01*
X133675448Y-74210173D01*
X133497367Y-74173618D01*
X133315577Y-74172349D01*
X133137003Y-74206413D01*
X132968447Y-74274515D01*
X132847651Y-74353561D01*
X132794202Y-74309696D01*
X132702650Y-74260761D01*
X132603310Y-74230626D01*
X132500000Y-74220451D01*
X131786971Y-74220451D01*
X132097873Y-73909549D01*
X133400000Y-73909549D01*
X133503310Y-73899374D01*
X133602650Y-73869239D01*
X133694202Y-73820304D01*
X133774448Y-73754448D01*
X133814002Y-73706252D01*
X133904750Y-73797000D01*
X135227000Y-73797000D01*
X135227000Y-73777000D01*
X135373000Y-73777000D01*
X135373000Y-73797000D01*
X136695250Y-73797000D01*
X136767414Y-73724836D01*
X137423000Y-74380423D01*
X137423000Y-74565452D01*
X137386441Y-74601253D01*
X137283733Y-74751254D01*
X137212117Y-74918347D01*
X137174320Y-75096168D01*
X137171782Y-75277945D01*
X137204599Y-75456752D01*
X137271522Y-75625780D01*
X137370001Y-75778590D01*
X137496286Y-75909362D01*
X137645566Y-76013114D01*
X137812155Y-76085895D01*
X137989708Y-76124932D01*
X138171463Y-76128740D01*
X138350495Y-76097171D01*
X138519986Y-76031430D01*
X138673479Y-75934020D01*
X138805130Y-75808651D01*
X138909921Y-75660099D01*
X138983864Y-75494022D01*
X139024140Y-75316746D01*
X139027039Y-75109103D01*
X138991729Y-74930771D01*
X138922452Y-74762694D01*
X138821849Y-74611274D01*
X138777000Y-74566111D01*
X138777000Y-74100000D01*
X138770896Y-74037740D01*
X138765447Y-73975465D01*
X138764455Y-73972050D01*
X138764107Y-73968503D01*
X138746018Y-73908591D01*
X138728585Y-73848584D01*
X138726948Y-73845425D01*
X138725918Y-73842015D01*
X138696549Y-73786781D01*
X138667780Y-73731279D01*
X138665559Y-73728497D01*
X138663888Y-73725354D01*
X138624372Y-73676903D01*
X138585348Y-73628019D01*
X138580457Y-73623059D01*
X138580379Y-73622963D01*
X138580290Y-73622889D01*
X138578711Y-73621288D01*
X137078711Y-72121289D01*
X137030404Y-72081609D01*
X136982483Y-72041398D01*
X136979363Y-72039683D01*
X136976612Y-72037423D01*
X136921491Y-72007867D01*
X136866699Y-71977745D01*
X136863306Y-71976669D01*
X136860168Y-71974986D01*
X136807947Y-71959021D01*
X136789239Y-71897350D01*
X136740304Y-71805798D01*
X136674448Y-71725552D01*
X136594202Y-71659696D01*
X136502650Y-71610761D01*
X136403310Y-71580626D01*
X136300000Y-71570451D01*
X134300000Y-71570451D01*
X134196690Y-71580626D01*
X134097350Y-71610761D01*
X134005798Y-71659696D01*
X133925552Y-71725552D01*
X133859696Y-71805798D01*
X133844655Y-71833938D01*
X133840304Y-71825798D01*
X133774448Y-71745552D01*
X133694202Y-71679696D01*
X133602650Y-71630761D01*
X133503310Y-71600626D01*
X133400000Y-71590451D01*
X131650000Y-71590451D01*
X131546690Y-71600626D01*
X131447350Y-71630761D01*
X131355798Y-71679696D01*
X131275552Y-71745552D01*
X131250892Y-71775601D01*
X131185943Y-71710652D01*
X131099628Y-71652979D01*
X131003720Y-71613252D01*
X130901905Y-71593000D01*
X130179750Y-71593000D01*
X130048000Y-71724750D01*
X130048000Y-72677000D01*
X130068000Y-72677000D01*
X130068000Y-72823000D01*
X130048000Y-72823000D01*
X130048000Y-73775250D01*
X130179750Y-73907000D01*
X130185578Y-73907000D01*
X129872127Y-74220451D01*
X129100000Y-74220451D01*
X128996690Y-74230626D01*
X128897350Y-74260761D01*
X128805798Y-74309696D01*
X128725552Y-74375552D01*
X128659696Y-74455798D01*
X128610761Y-74547350D01*
X128580626Y-74646690D01*
X128570451Y-74750000D01*
X128570451Y-75222127D01*
X125522127Y-78270451D01*
X124850000Y-78270451D01*
X124824480Y-78272965D01*
X124815304Y-78255798D01*
X124749448Y-78175552D01*
X124669202Y-78109696D01*
X124577650Y-78060761D01*
X124478310Y-78030626D01*
X124375000Y-78020451D01*
X123625000Y-78020451D01*
X123521690Y-78030626D01*
X123422350Y-78060761D01*
X123330798Y-78109696D01*
X123250552Y-78175552D01*
X123184696Y-78255798D01*
X123135761Y-78347350D01*
X123105626Y-78446690D01*
X123095451Y-78550000D01*
X123095451Y-78723000D01*
X122934190Y-78723000D01*
X122893751Y-78682278D01*
X122743037Y-78580621D01*
X122575448Y-78510173D01*
X122397367Y-78473618D01*
X122215577Y-78472349D01*
X122037003Y-78506413D01*
X121868447Y-78574515D01*
X121716328Y-78674058D01*
X121586441Y-78801253D01*
X121483733Y-78951254D01*
X121412117Y-79118347D01*
X121374320Y-79296168D01*
X121371782Y-79477945D01*
X121404599Y-79656752D01*
X121471522Y-79825780D01*
X121570001Y-79978590D01*
X121696286Y-80109362D01*
X121845566Y-80213114D01*
X122012155Y-80285895D01*
X122189708Y-80324932D01*
X122371463Y-80328740D01*
X122550495Y-80297171D01*
X122719986Y-80231430D01*
X122873479Y-80134020D01*
X122933356Y-80077000D01*
X123211613Y-80077000D01*
X123230137Y-80099572D01*
X123215652Y-80114057D01*
X123157979Y-80200372D01*
X123118252Y-80296280D01*
X123098000Y-80398095D01*
X123098000Y-80845250D01*
X123229750Y-80977000D01*
X123927000Y-80977000D01*
X123927000Y-80957000D01*
X124073000Y-80957000D01*
X124073000Y-80977000D01*
X124093000Y-80977000D01*
X124093000Y-81123000D01*
X124073000Y-81123000D01*
X124073000Y-81143000D01*
X123927000Y-81143000D01*
X123927000Y-81123000D01*
X123229750Y-81123000D01*
X123098000Y-81254750D01*
X123098000Y-81701905D01*
X123118252Y-81803720D01*
X123157979Y-81899628D01*
X123215652Y-81985943D01*
X123289057Y-82059348D01*
X123375372Y-82117021D01*
X123471280Y-82156748D01*
X123496758Y-82161816D01*
X121521288Y-84137286D01*
X121481608Y-84185593D01*
X121441397Y-84233514D01*
X121439682Y-84236634D01*
X121437422Y-84239385D01*
X121407866Y-84294506D01*
X121377744Y-84349298D01*
X121376668Y-84352691D01*
X121374985Y-84355829D01*
X121356693Y-84415661D01*
X121337793Y-84475241D01*
X121337396Y-84478777D01*
X121336355Y-84482183D01*
X121330038Y-84544380D01*
X121323065Y-84606545D01*
X121323016Y-84613512D01*
X121323004Y-84613634D01*
X121323015Y-84613747D01*
X121322999Y-84615997D01*
X121322999Y-86999999D01*
X121329099Y-87062209D01*
X121334551Y-87124534D01*
X121335545Y-87127954D01*
X121335892Y-87131496D01*
X121353968Y-87191367D01*
X121371414Y-87251415D01*
X121373051Y-87254574D01*
X121374081Y-87257984D01*
X121403450Y-87313218D01*
X121432219Y-87368720D01*
X121434440Y-87371502D01*
X121436111Y-87374645D01*
X121475627Y-87423096D01*
X121514651Y-87471980D01*
X121519538Y-87476936D01*
X121519620Y-87477036D01*
X121519713Y-87477113D01*
X121521288Y-87478710D01*
X121621289Y-87578711D01*
X121669596Y-87618391D01*
X121717517Y-87658602D01*
X121720637Y-87660317D01*
X121723388Y-87662577D01*
X121778509Y-87692133D01*
X121833301Y-87722255D01*
X121836694Y-87723331D01*
X121839832Y-87725014D01*
X121870451Y-87734375D01*
X121870451Y-88175000D01*
X121880626Y-88278310D01*
X121887407Y-88300664D01*
X121873000Y-88373095D01*
X121873000Y-88495250D01*
X122004750Y-88627000D01*
X122127680Y-88627000D01*
X122197350Y-88664239D01*
X122296690Y-88694374D01*
X122353813Y-88700000D01*
X122296690Y-88705626D01*
X122197350Y-88735761D01*
X122127680Y-88773000D01*
X122004750Y-88773000D01*
X121873000Y-88904750D01*
X121873000Y-89026905D01*
X121887407Y-89099336D01*
X121880626Y-89121690D01*
X121870451Y-89225000D01*
X121870451Y-89775000D01*
X121880626Y-89878310D01*
X121887206Y-89900000D01*
X121880626Y-89921690D01*
X121870451Y-90025000D01*
X121870451Y-90575000D01*
X121880626Y-90678310D01*
X121887206Y-90700000D01*
X121880626Y-90721690D01*
X121870451Y-90825000D01*
X121870451Y-91375000D01*
X121880626Y-91478310D01*
X121910761Y-91577650D01*
X121959696Y-91669202D01*
X122025552Y-91749448D01*
X122105798Y-91815304D01*
X122197350Y-91864239D01*
X122296690Y-91894374D01*
X122400000Y-91904549D01*
X122484184Y-91904549D01*
X122383733Y-92051254D01*
X122312117Y-92218347D01*
X122274320Y-92396168D01*
X122271782Y-92577945D01*
X122304599Y-92756752D01*
X122371522Y-92925780D01*
X122470001Y-93078590D01*
X122596286Y-93209362D01*
X122745566Y-93313114D01*
X122912155Y-93385895D01*
X123089708Y-93424932D01*
X123271463Y-93428740D01*
X123450495Y-93397171D01*
X123619986Y-93331430D01*
X123773479Y-93234020D01*
X123845451Y-93165482D01*
X123845451Y-93350000D01*
X123855626Y-93453310D01*
X123885761Y-93552650D01*
X123934696Y-93644202D01*
X124000552Y-93724448D01*
X124080798Y-93790304D01*
X124082853Y-93791402D01*
X122321289Y-95552967D01*
X122281609Y-95601274D01*
X122241398Y-95649195D01*
X122239683Y-95652315D01*
X122237423Y-95655066D01*
X122207867Y-95710187D01*
X122177745Y-95764979D01*
X122176669Y-95768372D01*
X122174986Y-95771510D01*
X122156694Y-95831342D01*
X122137794Y-95890922D01*
X122137397Y-95894458D01*
X122136356Y-95897864D01*
X122130039Y-95960061D01*
X122123066Y-96022226D01*
X122123017Y-96029193D01*
X122123005Y-96029315D01*
X122123016Y-96029428D01*
X122123000Y-96031678D01*
X122123000Y-102323776D01*
X122055798Y-102359696D01*
X121975552Y-102425552D01*
X121909696Y-102505798D01*
X121860761Y-102597350D01*
X121830626Y-102696690D01*
X121820451Y-102800000D01*
X121820451Y-104000000D01*
X121830626Y-104103310D01*
X121860761Y-104202650D01*
X121909696Y-104294202D01*
X121975552Y-104374448D01*
X122055798Y-104440304D01*
X122147350Y-104489239D01*
X122182824Y-104500000D01*
X122147350Y-104510761D01*
X122055798Y-104559696D01*
X121975552Y-104625552D01*
X121909696Y-104705798D01*
X121860761Y-104797350D01*
X121830626Y-104896690D01*
X121820451Y-105000000D01*
X121820451Y-106068360D01*
X121277000Y-105313837D01*
X121277000Y-78701181D01*
X123448635Y-75965577D01*
X124492200Y-77009141D01*
X124534129Y-77043582D01*
X124575878Y-77078366D01*
X124577658Y-77079336D01*
X124579218Y-77080618D01*
X124627068Y-77106275D01*
X124674748Y-77132271D01*
X124676675Y-77132875D01*
X124678462Y-77133833D01*
X124730511Y-77149746D01*
X124782206Y-77165946D01*
X124784212Y-77166164D01*
X124786152Y-77166757D01*
X124840236Y-77172251D01*
X124894158Y-77178109D01*
X124896174Y-77177933D01*
X124898186Y-77178137D01*
X124952306Y-77173021D01*
X125006340Y-77168293D01*
X125008278Y-77167730D01*
X125010298Y-77167539D01*
X125062412Y-77152003D01*
X125114480Y-77136876D01*
X125116276Y-77135945D01*
X125118215Y-77135367D01*
X125166298Y-77110016D01*
X125214457Y-77085053D01*
X125216035Y-77083793D01*
X125217828Y-77082848D01*
X125260087Y-77048627D01*
X125302465Y-77014797D01*
X125305230Y-77012070D01*
X125305343Y-77011979D01*
X125305436Y-77011868D01*
X125308201Y-77009141D01*
X127307181Y-75010160D01*
X127341473Y-74968412D01*
X127376131Y-74926886D01*
X127377220Y-74924893D01*
X127378658Y-74923142D01*
X127404213Y-74875483D01*
X127430120Y-74828061D01*
X127430799Y-74825901D01*
X127431873Y-74823898D01*
X127447712Y-74772091D01*
X127463886Y-74720632D01*
X127464132Y-74718382D01*
X127464797Y-74716208D01*
X127470269Y-74662338D01*
X127476143Y-74608691D01*
X127475947Y-74606434D01*
X127476177Y-74604174D01*
X127471083Y-74550282D01*
X127466423Y-74496501D01*
X127465793Y-74494325D01*
X127465579Y-74492063D01*
X127450116Y-74440194D01*
X127435097Y-74388334D01*
X127434056Y-74386321D01*
X127433407Y-74384145D01*
X127408163Y-74336264D01*
X127383359Y-74288313D01*
X127381948Y-74286542D01*
X127380888Y-74284532D01*
X127346826Y-74242470D01*
X127313178Y-74200246D01*
X127310111Y-74197131D01*
X127310019Y-74197017D01*
X127309908Y-74196925D01*
X127307526Y-74194505D01*
X126256091Y-73141288D01*
X126481106Y-72954750D01*
X128573000Y-72954750D01*
X128573000Y-73431905D01*
X128593252Y-73533720D01*
X128632979Y-73629628D01*
X128690652Y-73715943D01*
X128764057Y-73789348D01*
X128850372Y-73847021D01*
X128946280Y-73886748D01*
X129048095Y-73907000D01*
X129770250Y-73907000D01*
X129902000Y-73775250D01*
X129902000Y-72823000D01*
X128704750Y-72823000D01*
X128573000Y-72954750D01*
X126481106Y-72954750D01*
X127550654Y-72068095D01*
X128573000Y-72068095D01*
X128573000Y-72545250D01*
X128704750Y-72677000D01*
X129902000Y-72677000D01*
X129902000Y-71724750D01*
X129770250Y-71593000D01*
X129048095Y-71593000D01*
X128946280Y-71613252D01*
X128850372Y-71652979D01*
X128764057Y-71710652D01*
X128690652Y-71784057D01*
X128632979Y-71870372D01*
X128593252Y-71966280D01*
X128573000Y-72068095D01*
X127550654Y-72068095D01*
X129108068Y-70777000D01*
X141673000Y-70777000D01*
X141673000Y-80973000D01*
G36*
X125443252Y-94671280D02*
X125423000Y-94773095D01*
X125423000Y-94995250D01*
X125554750Y-95127000D01*
X126477000Y-95127000D01*
X126477000Y-95107000D01*
X126623000Y-95107000D01*
X126623000Y-95127000D01*
X126643000Y-95127000D01*
X126643000Y-95273000D01*
X126623000Y-95273000D01*
X126623000Y-95293000D01*
X126477000Y-95293000D01*
X126477000Y-95273000D01*
X125554750Y-95273000D01*
X125423000Y-95404750D01*
X125423000Y-95626905D01*
X125443252Y-95728720D01*
X125482979Y-95824628D01*
X125520841Y-95881293D01*
X125459696Y-95955798D01*
X125410761Y-96047350D01*
X125380626Y-96146690D01*
X125370451Y-96250000D01*
X125370451Y-96872127D01*
X124921289Y-97321289D01*
X124881609Y-97369596D01*
X124841398Y-97417517D01*
X124839683Y-97420637D01*
X124837423Y-97423388D01*
X124807867Y-97478509D01*
X124777745Y-97533301D01*
X124776669Y-97536694D01*
X124774986Y-97539832D01*
X124756694Y-97599664D01*
X124737794Y-97659244D01*
X124737397Y-97662780D01*
X124736356Y-97666186D01*
X124735923Y-97670451D01*
X124675000Y-97670451D01*
X124571690Y-97680626D01*
X124472350Y-97710761D01*
X124380798Y-97759696D01*
X124300552Y-97825552D01*
X124234696Y-97905798D01*
X124185761Y-97997350D01*
X124155626Y-98096690D01*
X124145451Y-98200000D01*
X124145451Y-98650000D01*
X124155626Y-98753310D01*
X124156400Y-98755863D01*
X124148000Y-98798095D01*
X124148000Y-98870250D01*
X124279750Y-99002000D01*
X124282129Y-99002000D01*
X124300552Y-99024448D01*
X124362150Y-99075000D01*
X124300552Y-99125552D01*
X124282129Y-99148000D01*
X124279750Y-99148000D01*
X124148000Y-99279750D01*
X124148000Y-99351905D01*
X124156400Y-99394137D01*
X124155626Y-99396690D01*
X124145451Y-99500000D01*
X124145451Y-99950000D01*
X124155626Y-100053310D01*
X124156400Y-100055863D01*
X124148000Y-100098095D01*
X124148000Y-100170250D01*
X124279750Y-100302000D01*
X124282129Y-100302000D01*
X124300552Y-100324448D01*
X124380798Y-100390304D01*
X124472350Y-100439239D01*
X124501231Y-100448000D01*
X124279750Y-100448000D01*
X124148000Y-100579750D01*
X124148000Y-100651905D01*
X124168252Y-100753720D01*
X124207979Y-100849628D01*
X124265652Y-100935943D01*
X124339057Y-101009348D01*
X124425372Y-101067021D01*
X124521280Y-101106748D01*
X124623095Y-101127000D01*
X125195250Y-101127000D01*
X125327000Y-100995250D01*
X125327000Y-100479549D01*
X125473000Y-100479549D01*
X125473000Y-100995250D01*
X125573252Y-101095502D01*
X125564558Y-101123942D01*
X125496690Y-101130626D01*
X125397350Y-101160761D01*
X125305798Y-101209696D01*
X125225552Y-101275552D01*
X125159696Y-101355798D01*
X125110761Y-101447350D01*
X125080626Y-101546690D01*
X125070451Y-101650000D01*
X125070451Y-102550000D01*
X125080626Y-102653310D01*
X125110761Y-102752650D01*
X125159696Y-102844202D01*
X125225552Y-102924448D01*
X125305798Y-102990304D01*
X125397350Y-103039239D01*
X125496690Y-103069374D01*
X125600000Y-103079549D01*
X126313029Y-103079549D01*
X126104241Y-103288337D01*
X126052650Y-103260761D01*
X125953310Y-103230626D01*
X125850000Y-103220451D01*
X123950000Y-103220451D01*
X123846690Y-103230626D01*
X123779549Y-103250993D01*
X123779549Y-102800000D01*
X123769374Y-102696690D01*
X123739239Y-102597350D01*
X123690304Y-102505798D01*
X123624448Y-102425552D01*
X123544202Y-102359696D01*
X123477000Y-102323776D01*
X123477000Y-96312100D01*
X125112101Y-94677000D01*
X125200000Y-94677000D01*
X125262210Y-94670900D01*
X125324535Y-94665448D01*
X125327955Y-94664454D01*
X125331497Y-94664107D01*
X125391368Y-94646031D01*
X125451416Y-94628585D01*
X125454575Y-94626948D01*
X125457985Y-94625918D01*
X125463188Y-94623152D01*
X125443252Y-94671280D01*
X125443252Y-94671280D01*
G37*
X125443252Y-94671280D02*
X125423000Y-94773095D01*
X125423000Y-94995250D01*
X125554750Y-95127000D01*
X126477000Y-95127000D01*
X126477000Y-95107000D01*
X126623000Y-95107000D01*
X126623000Y-95127000D01*
X126643000Y-95127000D01*
X126643000Y-95273000D01*
X126623000Y-95273000D01*
X126623000Y-95293000D01*
X126477000Y-95293000D01*
X126477000Y-95273000D01*
X125554750Y-95273000D01*
X125423000Y-95404750D01*
X125423000Y-95626905D01*
X125443252Y-95728720D01*
X125482979Y-95824628D01*
X125520841Y-95881293D01*
X125459696Y-95955798D01*
X125410761Y-96047350D01*
X125380626Y-96146690D01*
X125370451Y-96250000D01*
X125370451Y-96872127D01*
X124921289Y-97321289D01*
X124881609Y-97369596D01*
X124841398Y-97417517D01*
X124839683Y-97420637D01*
X124837423Y-97423388D01*
X124807867Y-97478509D01*
X124777745Y-97533301D01*
X124776669Y-97536694D01*
X124774986Y-97539832D01*
X124756694Y-97599664D01*
X124737794Y-97659244D01*
X124737397Y-97662780D01*
X124736356Y-97666186D01*
X124735923Y-97670451D01*
X124675000Y-97670451D01*
X124571690Y-97680626D01*
X124472350Y-97710761D01*
X124380798Y-97759696D01*
X124300552Y-97825552D01*
X124234696Y-97905798D01*
X124185761Y-97997350D01*
X124155626Y-98096690D01*
X124145451Y-98200000D01*
X124145451Y-98650000D01*
X124155626Y-98753310D01*
X124156400Y-98755863D01*
X124148000Y-98798095D01*
X124148000Y-98870250D01*
X124279750Y-99002000D01*
X124282129Y-99002000D01*
X124300552Y-99024448D01*
X124362150Y-99075000D01*
X124300552Y-99125552D01*
X124282129Y-99148000D01*
X124279750Y-99148000D01*
X124148000Y-99279750D01*
X124148000Y-99351905D01*
X124156400Y-99394137D01*
X124155626Y-99396690D01*
X124145451Y-99500000D01*
X124145451Y-99950000D01*
X124155626Y-100053310D01*
X124156400Y-100055863D01*
X124148000Y-100098095D01*
X124148000Y-100170250D01*
X124279750Y-100302000D01*
X124282129Y-100302000D01*
X124300552Y-100324448D01*
X124380798Y-100390304D01*
X124472350Y-100439239D01*
X124501231Y-100448000D01*
X124279750Y-100448000D01*
X124148000Y-100579750D01*
X124148000Y-100651905D01*
X124168252Y-100753720D01*
X124207979Y-100849628D01*
X124265652Y-100935943D01*
X124339057Y-101009348D01*
X124425372Y-101067021D01*
X124521280Y-101106748D01*
X124623095Y-101127000D01*
X125195250Y-101127000D01*
X125327000Y-100995250D01*
X125327000Y-100479549D01*
X125473000Y-100479549D01*
X125473000Y-100995250D01*
X125573252Y-101095502D01*
X125564558Y-101123942D01*
X125496690Y-101130626D01*
X125397350Y-101160761D01*
X125305798Y-101209696D01*
X125225552Y-101275552D01*
X125159696Y-101355798D01*
X125110761Y-101447350D01*
X125080626Y-101546690D01*
X125070451Y-101650000D01*
X125070451Y-102550000D01*
X125080626Y-102653310D01*
X125110761Y-102752650D01*
X125159696Y-102844202D01*
X125225552Y-102924448D01*
X125305798Y-102990304D01*
X125397350Y-103039239D01*
X125496690Y-103069374D01*
X125600000Y-103079549D01*
X126313029Y-103079549D01*
X126104241Y-103288337D01*
X126052650Y-103260761D01*
X125953310Y-103230626D01*
X125850000Y-103220451D01*
X123950000Y-103220451D01*
X123846690Y-103230626D01*
X123779549Y-103250993D01*
X123779549Y-102800000D01*
X123769374Y-102696690D01*
X123739239Y-102597350D01*
X123690304Y-102505798D01*
X123624448Y-102425552D01*
X123544202Y-102359696D01*
X123477000Y-102323776D01*
X123477000Y-96312100D01*
X125112101Y-94677000D01*
X125200000Y-94677000D01*
X125262210Y-94670900D01*
X125324535Y-94665448D01*
X125327955Y-94664454D01*
X125331497Y-94664107D01*
X125391368Y-94646031D01*
X125451416Y-94628585D01*
X125454575Y-94626948D01*
X125457985Y-94625918D01*
X125463188Y-94623152D01*
X125443252Y-94671280D01*
G36*
X127673215Y-87866213D02*
X127679315Y-87928423D01*
X127684767Y-87990748D01*
X127685761Y-87994168D01*
X127686108Y-87997710D01*
X127704184Y-88057581D01*
X127721630Y-88117629D01*
X127723001Y-88120274D01*
X127723001Y-89500001D01*
X127729101Y-89562211D01*
X127734553Y-89624536D01*
X127735547Y-89627956D01*
X127735894Y-89631498D01*
X127753970Y-89691369D01*
X127771416Y-89751417D01*
X127773053Y-89754576D01*
X127774083Y-89757986D01*
X127803452Y-89813220D01*
X127832221Y-89868722D01*
X127834442Y-89871504D01*
X127836113Y-89874647D01*
X127875629Y-89923098D01*
X127914653Y-89971982D01*
X127919540Y-89976938D01*
X127919622Y-89977038D01*
X127919715Y-89977115D01*
X127921290Y-89978712D01*
X129164102Y-91221524D01*
X129071690Y-91230626D01*
X129050000Y-91237206D01*
X129028310Y-91230626D01*
X128925000Y-91220451D01*
X128409891Y-91220451D01*
X128374372Y-91176901D01*
X128335348Y-91128017D01*
X128330457Y-91123057D01*
X128330379Y-91122961D01*
X128330290Y-91122887D01*
X128328711Y-91121286D01*
X127876208Y-90668783D01*
X127877041Y-90609103D01*
X127841731Y-90430771D01*
X127772454Y-90262694D01*
X127671851Y-90111274D01*
X127543753Y-89982278D01*
X127393039Y-89880621D01*
X127225450Y-89810173D01*
X127047369Y-89773618D01*
X126865579Y-89772349D01*
X126687005Y-89806413D01*
X126518449Y-89874515D01*
X126366330Y-89974058D01*
X126236443Y-90101253D01*
X126133735Y-90251254D01*
X126062119Y-90418347D01*
X126024322Y-90596168D01*
X126021784Y-90777945D01*
X126054601Y-90956752D01*
X126121524Y-91125780D01*
X126182535Y-91220451D01*
X125975000Y-91220451D01*
X125871690Y-91230626D01*
X125850000Y-91237206D01*
X125828310Y-91230626D01*
X125725000Y-91220451D01*
X125175000Y-91220451D01*
X125071690Y-91230626D01*
X125050000Y-91237206D01*
X125028310Y-91230626D01*
X124925000Y-91220451D01*
X124529549Y-91220451D01*
X124529549Y-90825000D01*
X124519374Y-90721690D01*
X124512794Y-90700000D01*
X124519374Y-90678310D01*
X124529549Y-90575000D01*
X124529549Y-90025000D01*
X124519374Y-89921690D01*
X124512794Y-89900000D01*
X124519374Y-89878310D01*
X124529549Y-89775000D01*
X124529549Y-89225000D01*
X124519374Y-89121690D01*
X124512593Y-89099336D01*
X124527000Y-89026905D01*
X124527000Y-88904750D01*
X124395250Y-88773000D01*
X124272320Y-88773000D01*
X124202650Y-88735761D01*
X124103310Y-88705626D01*
X124046187Y-88700000D01*
X124103310Y-88694374D01*
X124202650Y-88664239D01*
X124272320Y-88627000D01*
X124395250Y-88627000D01*
X124445250Y-88577000D01*
X124916763Y-88577000D01*
X124996286Y-88659349D01*
X125145566Y-88763101D01*
X125312155Y-88835882D01*
X125489708Y-88874919D01*
X125671463Y-88878727D01*
X125850495Y-88847158D01*
X126019986Y-88781417D01*
X126173479Y-88684007D01*
X126305130Y-88558638D01*
X126409921Y-88410086D01*
X126483864Y-88244009D01*
X126524140Y-88066733D01*
X126527039Y-87859090D01*
X126491729Y-87680758D01*
X126422452Y-87512681D01*
X126321849Y-87361261D01*
X126193751Y-87232265D01*
X126043037Y-87130608D01*
X125875448Y-87060160D01*
X125697367Y-87023605D01*
X125515577Y-87022336D01*
X125503173Y-87024702D01*
X125520203Y-86986452D01*
X125534688Y-86922696D01*
X125536695Y-86923332D01*
X125539833Y-86925015D01*
X125599665Y-86943307D01*
X125659245Y-86962207D01*
X125662781Y-86962604D01*
X125666187Y-86963645D01*
X125728384Y-86969962D01*
X125790549Y-86976935D01*
X125797516Y-86976984D01*
X125797638Y-86976996D01*
X125797751Y-86976985D01*
X125800001Y-86977001D01*
X127233841Y-86977001D01*
X127296051Y-86970901D01*
X127358376Y-86965449D01*
X127361796Y-86964455D01*
X127365338Y-86964108D01*
X127425209Y-86946032D01*
X127485257Y-86928586D01*
X127488416Y-86926949D01*
X127491826Y-86925919D01*
X127547060Y-86896550D01*
X127602562Y-86867781D01*
X127605344Y-86865560D01*
X127608487Y-86863889D01*
X127656938Y-86824373D01*
X127673215Y-86811379D01*
X127673215Y-87866213D01*
X127673215Y-87866213D01*
G37*
X127673215Y-87866213D02*
X127679315Y-87928423D01*
X127684767Y-87990748D01*
X127685761Y-87994168D01*
X127686108Y-87997710D01*
X127704184Y-88057581D01*
X127721630Y-88117629D01*
X127723001Y-88120274D01*
X127723001Y-89500001D01*
X127729101Y-89562211D01*
X127734553Y-89624536D01*
X127735547Y-89627956D01*
X127735894Y-89631498D01*
X127753970Y-89691369D01*
X127771416Y-89751417D01*
X127773053Y-89754576D01*
X127774083Y-89757986D01*
X127803452Y-89813220D01*
X127832221Y-89868722D01*
X127834442Y-89871504D01*
X127836113Y-89874647D01*
X127875629Y-89923098D01*
X127914653Y-89971982D01*
X127919540Y-89976938D01*
X127919622Y-89977038D01*
X127919715Y-89977115D01*
X127921290Y-89978712D01*
X129164102Y-91221524D01*
X129071690Y-91230626D01*
X129050000Y-91237206D01*
X129028310Y-91230626D01*
X128925000Y-91220451D01*
X128409891Y-91220451D01*
X128374372Y-91176901D01*
X128335348Y-91128017D01*
X128330457Y-91123057D01*
X128330379Y-91122961D01*
X128330290Y-91122887D01*
X128328711Y-91121286D01*
X127876208Y-90668783D01*
X127877041Y-90609103D01*
X127841731Y-90430771D01*
X127772454Y-90262694D01*
X127671851Y-90111274D01*
X127543753Y-89982278D01*
X127393039Y-89880621D01*
X127225450Y-89810173D01*
X127047369Y-89773618D01*
X126865579Y-89772349D01*
X126687005Y-89806413D01*
X126518449Y-89874515D01*
X126366330Y-89974058D01*
X126236443Y-90101253D01*
X126133735Y-90251254D01*
X126062119Y-90418347D01*
X126024322Y-90596168D01*
X126021784Y-90777945D01*
X126054601Y-90956752D01*
X126121524Y-91125780D01*
X126182535Y-91220451D01*
X125975000Y-91220451D01*
X125871690Y-91230626D01*
X125850000Y-91237206D01*
X125828310Y-91230626D01*
X125725000Y-91220451D01*
X125175000Y-91220451D01*
X125071690Y-91230626D01*
X125050000Y-91237206D01*
X125028310Y-91230626D01*
X124925000Y-91220451D01*
X124529549Y-91220451D01*
X124529549Y-90825000D01*
X124519374Y-90721690D01*
X124512794Y-90700000D01*
X124519374Y-90678310D01*
X124529549Y-90575000D01*
X124529549Y-90025000D01*
X124519374Y-89921690D01*
X124512794Y-89900000D01*
X124519374Y-89878310D01*
X124529549Y-89775000D01*
X124529549Y-89225000D01*
X124519374Y-89121690D01*
X124512593Y-89099336D01*
X124527000Y-89026905D01*
X124527000Y-88904750D01*
X124395250Y-88773000D01*
X124272320Y-88773000D01*
X124202650Y-88735761D01*
X124103310Y-88705626D01*
X124046187Y-88700000D01*
X124103310Y-88694374D01*
X124202650Y-88664239D01*
X124272320Y-88627000D01*
X124395250Y-88627000D01*
X124445250Y-88577000D01*
X124916763Y-88577000D01*
X124996286Y-88659349D01*
X125145566Y-88763101D01*
X125312155Y-88835882D01*
X125489708Y-88874919D01*
X125671463Y-88878727D01*
X125850495Y-88847158D01*
X126019986Y-88781417D01*
X126173479Y-88684007D01*
X126305130Y-88558638D01*
X126409921Y-88410086D01*
X126483864Y-88244009D01*
X126524140Y-88066733D01*
X126527039Y-87859090D01*
X126491729Y-87680758D01*
X126422452Y-87512681D01*
X126321849Y-87361261D01*
X126193751Y-87232265D01*
X126043037Y-87130608D01*
X125875448Y-87060160D01*
X125697367Y-87023605D01*
X125515577Y-87022336D01*
X125503173Y-87024702D01*
X125520203Y-86986452D01*
X125534688Y-86922696D01*
X125536695Y-86923332D01*
X125539833Y-86925015D01*
X125599665Y-86943307D01*
X125659245Y-86962207D01*
X125662781Y-86962604D01*
X125666187Y-86963645D01*
X125728384Y-86969962D01*
X125790549Y-86976935D01*
X125797516Y-86976984D01*
X125797638Y-86976996D01*
X125797751Y-86976985D01*
X125800001Y-86977001D01*
X127233841Y-86977001D01*
X127296051Y-86970901D01*
X127358376Y-86965449D01*
X127361796Y-86964455D01*
X127365338Y-86964108D01*
X127425209Y-86946032D01*
X127485257Y-86928586D01*
X127488416Y-86926949D01*
X127491826Y-86925919D01*
X127547060Y-86896550D01*
X127602562Y-86867781D01*
X127605344Y-86865560D01*
X127608487Y-86863889D01*
X127656938Y-86824373D01*
X127673215Y-86811379D01*
X127673215Y-87866213D01*
G36*
X130504750Y-87827000D02*
X130627680Y-87827000D01*
X130697350Y-87864239D01*
X130796690Y-87894374D01*
X130853813Y-87900000D01*
X130796690Y-87905626D01*
X130697350Y-87935761D01*
X130627680Y-87973000D01*
X130504750Y-87973000D01*
X130373000Y-88104750D01*
X130373000Y-88226905D01*
X130387407Y-88299336D01*
X130380626Y-88321690D01*
X130370451Y-88425000D01*
X130370451Y-88975000D01*
X130380626Y-89078310D01*
X130387407Y-89100664D01*
X130373000Y-89173095D01*
X130373000Y-89295250D01*
X130450223Y-89372473D01*
X130432332Y-89372348D01*
X130253758Y-89406412D01*
X130085202Y-89474514D01*
X129933083Y-89574057D01*
X129803196Y-89701252D01*
X129703816Y-89846393D01*
X129077001Y-89219579D01*
X129077001Y-87915999D01*
X129073656Y-87881883D01*
X129251468Y-87885608D01*
X129430500Y-87854039D01*
X129599991Y-87788298D01*
X129617794Y-87777000D01*
X130454750Y-87777000D01*
X130504750Y-87827000D01*
X130504750Y-87827000D01*
G37*
X130504750Y-87827000D02*
X130627680Y-87827000D01*
X130697350Y-87864239D01*
X130796690Y-87894374D01*
X130853813Y-87900000D01*
X130796690Y-87905626D01*
X130697350Y-87935761D01*
X130627680Y-87973000D01*
X130504750Y-87973000D01*
X130373000Y-88104750D01*
X130373000Y-88226905D01*
X130387407Y-88299336D01*
X130380626Y-88321690D01*
X130370451Y-88425000D01*
X130370451Y-88975000D01*
X130380626Y-89078310D01*
X130387407Y-89100664D01*
X130373000Y-89173095D01*
X130373000Y-89295250D01*
X130450223Y-89372473D01*
X130432332Y-89372348D01*
X130253758Y-89406412D01*
X130085202Y-89474514D01*
X129933083Y-89574057D01*
X129803196Y-89701252D01*
X129703816Y-89846393D01*
X129077001Y-89219579D01*
X129077001Y-87915999D01*
X129073656Y-87881883D01*
X129251468Y-87885608D01*
X129430500Y-87854039D01*
X129599991Y-87788298D01*
X129617794Y-87777000D01*
X130454750Y-87777000D01*
X130504750Y-87827000D01*
G36*
X130810761Y-75852650D02*
X130859696Y-75944202D01*
X130925552Y-76024448D01*
X131005798Y-76090304D01*
X131097350Y-76139239D01*
X131196690Y-76169374D01*
X131223000Y-76171965D01*
X131223000Y-76719577D01*
X128271605Y-79670973D01*
X128256748Y-79596280D01*
X128217021Y-79500372D01*
X128159348Y-79414057D01*
X128085943Y-79340652D01*
X127999628Y-79282979D01*
X127903720Y-79243252D01*
X127801905Y-79223000D01*
X127504750Y-79223000D01*
X127373000Y-79354750D01*
X127373000Y-80077000D01*
X127393000Y-80077000D01*
X127393000Y-80223000D01*
X127373000Y-80223000D01*
X127373000Y-80243000D01*
X127227000Y-80243000D01*
X127227000Y-80223000D01*
X126454750Y-80223000D01*
X126323000Y-80354750D01*
X126323000Y-80601905D01*
X126343252Y-80703720D01*
X126382979Y-80799628D01*
X126440652Y-80885943D01*
X126506643Y-80951934D01*
X126279549Y-81179027D01*
X126279549Y-80700000D01*
X126269374Y-80596690D01*
X126239239Y-80497350D01*
X126190304Y-80405798D01*
X126124448Y-80325552D01*
X126044202Y-80259696D01*
X125952650Y-80210761D01*
X125853310Y-80180626D01*
X125750000Y-80170451D01*
X124850000Y-80170451D01*
X124823756Y-80173036D01*
X124790804Y-80123719D01*
X124850000Y-80129549D01*
X125750000Y-80129549D01*
X125853310Y-80119374D01*
X125952650Y-80089239D01*
X126044202Y-80040304D01*
X126124448Y-79974448D01*
X126190304Y-79894202D01*
X126239239Y-79802650D01*
X126269374Y-79703310D01*
X126269887Y-79698095D01*
X126323000Y-79698095D01*
X126323000Y-79945250D01*
X126454750Y-80077000D01*
X127227000Y-80077000D01*
X127227000Y-79354750D01*
X127095250Y-79223000D01*
X126798095Y-79223000D01*
X126696280Y-79243252D01*
X126600372Y-79282979D01*
X126514057Y-79340652D01*
X126440652Y-79414057D01*
X126382979Y-79500372D01*
X126343252Y-79596280D01*
X126323000Y-79698095D01*
X126269887Y-79698095D01*
X126279549Y-79600000D01*
X126279549Y-79427873D01*
X129527873Y-76179549D01*
X130300000Y-76179549D01*
X130403310Y-76169374D01*
X130502650Y-76139239D01*
X130594202Y-76090304D01*
X130674448Y-76024448D01*
X130740304Y-75944202D01*
X130789239Y-75852650D01*
X130800000Y-75817176D01*
X130810761Y-75852650D01*
X130810761Y-75852650D01*
G37*
X130810761Y-75852650D02*
X130859696Y-75944202D01*
X130925552Y-76024448D01*
X131005798Y-76090304D01*
X131097350Y-76139239D01*
X131196690Y-76169374D01*
X131223000Y-76171965D01*
X131223000Y-76719577D01*
X128271605Y-79670973D01*
X128256748Y-79596280D01*
X128217021Y-79500372D01*
X128159348Y-79414057D01*
X128085943Y-79340652D01*
X127999628Y-79282979D01*
X127903720Y-79243252D01*
X127801905Y-79223000D01*
X127504750Y-79223000D01*
X127373000Y-79354750D01*
X127373000Y-80077000D01*
X127393000Y-80077000D01*
X127393000Y-80223000D01*
X127373000Y-80223000D01*
X127373000Y-80243000D01*
X127227000Y-80243000D01*
X127227000Y-80223000D01*
X126454750Y-80223000D01*
X126323000Y-80354750D01*
X126323000Y-80601905D01*
X126343252Y-80703720D01*
X126382979Y-80799628D01*
X126440652Y-80885943D01*
X126506643Y-80951934D01*
X126279549Y-81179027D01*
X126279549Y-80700000D01*
X126269374Y-80596690D01*
X126239239Y-80497350D01*
X126190304Y-80405798D01*
X126124448Y-80325552D01*
X126044202Y-80259696D01*
X125952650Y-80210761D01*
X125853310Y-80180626D01*
X125750000Y-80170451D01*
X124850000Y-80170451D01*
X124823756Y-80173036D01*
X124790804Y-80123719D01*
X124850000Y-80129549D01*
X125750000Y-80129549D01*
X125853310Y-80119374D01*
X125952650Y-80089239D01*
X126044202Y-80040304D01*
X126124448Y-79974448D01*
X126190304Y-79894202D01*
X126239239Y-79802650D01*
X126269374Y-79703310D01*
X126269887Y-79698095D01*
X126323000Y-79698095D01*
X126323000Y-79945250D01*
X126454750Y-80077000D01*
X127227000Y-80077000D01*
X127227000Y-79354750D01*
X127095250Y-79223000D01*
X126798095Y-79223000D01*
X126696280Y-79243252D01*
X126600372Y-79282979D01*
X126514057Y-79340652D01*
X126440652Y-79414057D01*
X126382979Y-79500372D01*
X126343252Y-79596280D01*
X126323000Y-79698095D01*
X126269887Y-79698095D01*
X126279549Y-79600000D01*
X126279549Y-79427873D01*
X129527873Y-76179549D01*
X130300000Y-76179549D01*
X130403310Y-76169374D01*
X130502650Y-76139239D01*
X130594202Y-76090304D01*
X130674448Y-76024448D01*
X130740304Y-75944202D01*
X130789239Y-75852650D01*
X130800000Y-75817176D01*
X130810761Y-75852650D01*
M02*
