G04 #@! TF.GenerationSoftware,KiCad,Pcbnew,5.1.5-52549c5~84~ubuntu18.04.1*
G04 #@! TF.CreationDate,2020-02-21T12:38:08+02:00*
G04 #@! TF.ProjectId,Touch_Switch_2ch,546f7563-685f-4537-9769-7463685f3263,rev?*
G04 #@! TF.SameCoordinates,Original*
G04 #@! TF.FileFunction,Paste,Top*
G04 #@! TF.FilePolarity,Positive*
%FSLAX46Y46*%
G04 Gerber Fmt 4.6, Leading zero omitted, Abs format (unit mm)*
G04 Created by KiCad (PCBNEW 5.1.5-52549c5~84~ubuntu18.04.1) date 2020-02-21 12:38:08*
%MOMM*%
%LPD*%
G04 APERTURE LIST*
%ADD10C,0.100000*%
%ADD11R,1.000000X1.100000*%
%ADD12R,1.100000X1.000000*%
%ADD13C,1.500000*%
%ADD14R,0.300000X0.500000*%
%ADD15R,2.261000X1.448000*%
%ADD16R,0.650000X0.600000*%
%ADD17R,0.800000X0.800000*%
G04 APERTURE END LIST*
D10*
G36*
X87302965Y-43632179D02*
G01*
X86313015Y-42642229D01*
X87727229Y-41228015D01*
X88717179Y-42217965D01*
X87302965Y-43632179D01*
G37*
G36*
X82706771Y-39035985D02*
G01*
X81716821Y-38046035D01*
X83131035Y-36631821D01*
X84120985Y-37621771D01*
X82706771Y-39035985D01*
G37*
D11*
X108078000Y-40132000D03*
X109678000Y-40132000D03*
X110097000Y-42164000D03*
X111697000Y-42164000D03*
D12*
X105792000Y-40109000D03*
X105792000Y-41709000D03*
D13*
X95918000Y-71992000D03*
X95918000Y-69992000D03*
X97918000Y-71992000D03*
X97918000Y-69992000D03*
X99918000Y-71992000D03*
X99918000Y-69992000D03*
X101918000Y-71992000D03*
X101918000Y-69992000D03*
X103918000Y-71992000D03*
X103918000Y-69992000D03*
X93918000Y-71942000D03*
X93918000Y-69992000D03*
X91918000Y-71992000D03*
X91918000Y-69992000D03*
D14*
X107823000Y-43560000D03*
X107823000Y-41860000D03*
X107315000Y-41860000D03*
X108331000Y-41860000D03*
X107315000Y-43560000D03*
X108331000Y-43560000D03*
D12*
X93091000Y-36954000D03*
X93091000Y-38354000D03*
X94996000Y-37019000D03*
X94996000Y-38419000D03*
D11*
X94553000Y-43180000D03*
X93153000Y-43180000D03*
X102489000Y-37211000D03*
X104289000Y-37211000D03*
D15*
X95326000Y-52299000D03*
X91542000Y-52299000D03*
X91542000Y-49505000D03*
X95326000Y-49505000D03*
D16*
X93345000Y-40132000D03*
X93345000Y-40980000D03*
X94488000Y-40173000D03*
X94488000Y-41021000D03*
D11*
X110109000Y-44577000D03*
X111909000Y-44577000D03*
D17*
X76327000Y-64389000D03*
X77927000Y-64389000D03*
X82207000Y-64389000D03*
X80607000Y-64389000D03*
X108204000Y-64516000D03*
X109804000Y-64516000D03*
X105486000Y-64516000D03*
X103886000Y-64516000D03*
M02*
