G04 #@! TF.GenerationSoftware,KiCad,Pcbnew,5.1.5-52549c5~84~ubuntu18.04.1*
G04 #@! TF.CreationDate,2020-02-21T12:38:08+02:00*
G04 #@! TF.ProjectId,Touch_Switch_2ch,546f7563-685f-4537-9769-7463685f3263,rev?*
G04 #@! TF.SameCoordinates,Original*
G04 #@! TF.FileFunction,Soldermask,Top*
G04 #@! TF.FilePolarity,Negative*
%FSLAX46Y46*%
G04 Gerber Fmt 4.6, Leading zero omitted, Abs format (unit mm)*
G04 Created by KiCad (PCBNEW 5.1.5-52549c5~84~ubuntu18.04.1) date 2020-02-21 12:38:08*
%MOMM*%
%LPD*%
G04 APERTURE LIST*
%ADD10C,0.100000*%
G04 APERTURE END LIST*
D10*
G36*
X96151642Y-71221781D02*
G01*
X96297414Y-71282162D01*
X96297416Y-71282163D01*
X96428608Y-71369822D01*
X96540178Y-71481392D01*
X96627837Y-71612584D01*
X96627838Y-71612586D01*
X96688219Y-71758358D01*
X96719000Y-71913107D01*
X96719000Y-72070893D01*
X96688219Y-72225642D01*
X96648548Y-72321416D01*
X96627837Y-72371416D01*
X96540178Y-72502608D01*
X96428608Y-72614178D01*
X96297416Y-72701837D01*
X96297415Y-72701838D01*
X96297414Y-72701838D01*
X96151642Y-72762219D01*
X95996893Y-72793000D01*
X95839107Y-72793000D01*
X95684358Y-72762219D01*
X95538586Y-72701838D01*
X95538585Y-72701838D01*
X95538584Y-72701837D01*
X95407392Y-72614178D01*
X95295822Y-72502608D01*
X95208163Y-72371416D01*
X95187452Y-72321416D01*
X95147781Y-72225642D01*
X95117000Y-72070893D01*
X95117000Y-71913107D01*
X95147781Y-71758358D01*
X95208162Y-71612586D01*
X95208163Y-71612584D01*
X95295822Y-71481392D01*
X95407392Y-71369822D01*
X95538584Y-71282163D01*
X95538586Y-71282162D01*
X95684358Y-71221781D01*
X95839107Y-71191000D01*
X95996893Y-71191000D01*
X96151642Y-71221781D01*
G37*
G36*
X102151642Y-71221781D02*
G01*
X102297414Y-71282162D01*
X102297416Y-71282163D01*
X102428608Y-71369822D01*
X102540178Y-71481392D01*
X102627837Y-71612584D01*
X102627838Y-71612586D01*
X102688219Y-71758358D01*
X102719000Y-71913107D01*
X102719000Y-72070893D01*
X102688219Y-72225642D01*
X102648548Y-72321416D01*
X102627837Y-72371416D01*
X102540178Y-72502608D01*
X102428608Y-72614178D01*
X102297416Y-72701837D01*
X102297415Y-72701838D01*
X102297414Y-72701838D01*
X102151642Y-72762219D01*
X101996893Y-72793000D01*
X101839107Y-72793000D01*
X101684358Y-72762219D01*
X101538586Y-72701838D01*
X101538585Y-72701838D01*
X101538584Y-72701837D01*
X101407392Y-72614178D01*
X101295822Y-72502608D01*
X101208163Y-72371416D01*
X101187452Y-72321416D01*
X101147781Y-72225642D01*
X101117000Y-72070893D01*
X101117000Y-71913107D01*
X101147781Y-71758358D01*
X101208162Y-71612586D01*
X101208163Y-71612584D01*
X101295822Y-71481392D01*
X101407392Y-71369822D01*
X101538584Y-71282163D01*
X101538586Y-71282162D01*
X101684358Y-71221781D01*
X101839107Y-71191000D01*
X101996893Y-71191000D01*
X102151642Y-71221781D01*
G37*
G36*
X92151642Y-71221781D02*
G01*
X92297414Y-71282162D01*
X92297416Y-71282163D01*
X92428608Y-71369822D01*
X92540178Y-71481392D01*
X92627837Y-71612584D01*
X92627838Y-71612586D01*
X92688219Y-71758358D01*
X92719000Y-71913107D01*
X92719000Y-72070893D01*
X92688219Y-72225642D01*
X92648548Y-72321416D01*
X92627837Y-72371416D01*
X92540178Y-72502608D01*
X92428608Y-72614178D01*
X92297416Y-72701837D01*
X92297415Y-72701838D01*
X92297414Y-72701838D01*
X92151642Y-72762219D01*
X91996893Y-72793000D01*
X91839107Y-72793000D01*
X91684358Y-72762219D01*
X91538586Y-72701838D01*
X91538585Y-72701838D01*
X91538584Y-72701837D01*
X91407392Y-72614178D01*
X91295822Y-72502608D01*
X91208163Y-72371416D01*
X91187452Y-72321416D01*
X91147781Y-72225642D01*
X91117000Y-72070893D01*
X91117000Y-71913107D01*
X91147781Y-71758358D01*
X91208162Y-71612586D01*
X91208163Y-71612584D01*
X91295822Y-71481392D01*
X91407392Y-71369822D01*
X91538584Y-71282163D01*
X91538586Y-71282162D01*
X91684358Y-71221781D01*
X91839107Y-71191000D01*
X91996893Y-71191000D01*
X92151642Y-71221781D01*
G37*
G36*
X104151642Y-71221781D02*
G01*
X104297414Y-71282162D01*
X104297416Y-71282163D01*
X104428608Y-71369822D01*
X104540178Y-71481392D01*
X104627837Y-71612584D01*
X104627838Y-71612586D01*
X104688219Y-71758358D01*
X104719000Y-71913107D01*
X104719000Y-72070893D01*
X104688219Y-72225642D01*
X104648548Y-72321416D01*
X104627837Y-72371416D01*
X104540178Y-72502608D01*
X104428608Y-72614178D01*
X104297416Y-72701837D01*
X104297415Y-72701838D01*
X104297414Y-72701838D01*
X104151642Y-72762219D01*
X103996893Y-72793000D01*
X103839107Y-72793000D01*
X103684358Y-72762219D01*
X103538586Y-72701838D01*
X103538585Y-72701838D01*
X103538584Y-72701837D01*
X103407392Y-72614178D01*
X103295822Y-72502608D01*
X103208163Y-72371416D01*
X103187452Y-72321416D01*
X103147781Y-72225642D01*
X103117000Y-72070893D01*
X103117000Y-71913107D01*
X103147781Y-71758358D01*
X103208162Y-71612586D01*
X103208163Y-71612584D01*
X103295822Y-71481392D01*
X103407392Y-71369822D01*
X103538584Y-71282163D01*
X103538586Y-71282162D01*
X103684358Y-71221781D01*
X103839107Y-71191000D01*
X103996893Y-71191000D01*
X104151642Y-71221781D01*
G37*
G36*
X98151642Y-71221781D02*
G01*
X98297414Y-71282162D01*
X98297416Y-71282163D01*
X98428608Y-71369822D01*
X98540178Y-71481392D01*
X98627837Y-71612584D01*
X98627838Y-71612586D01*
X98688219Y-71758358D01*
X98719000Y-71913107D01*
X98719000Y-72070893D01*
X98688219Y-72225642D01*
X98648548Y-72321416D01*
X98627837Y-72371416D01*
X98540178Y-72502608D01*
X98428608Y-72614178D01*
X98297416Y-72701837D01*
X98297415Y-72701838D01*
X98297414Y-72701838D01*
X98151642Y-72762219D01*
X97996893Y-72793000D01*
X97839107Y-72793000D01*
X97684358Y-72762219D01*
X97538586Y-72701838D01*
X97538585Y-72701838D01*
X97538584Y-72701837D01*
X97407392Y-72614178D01*
X97295822Y-72502608D01*
X97208163Y-72371416D01*
X97187452Y-72321416D01*
X97147781Y-72225642D01*
X97117000Y-72070893D01*
X97117000Y-71913107D01*
X97147781Y-71758358D01*
X97208162Y-71612586D01*
X97208163Y-71612584D01*
X97295822Y-71481392D01*
X97407392Y-71369822D01*
X97538584Y-71282163D01*
X97538586Y-71282162D01*
X97684358Y-71221781D01*
X97839107Y-71191000D01*
X97996893Y-71191000D01*
X98151642Y-71221781D01*
G37*
G36*
X100151642Y-71221781D02*
G01*
X100297414Y-71282162D01*
X100297416Y-71282163D01*
X100428608Y-71369822D01*
X100540178Y-71481392D01*
X100627837Y-71612584D01*
X100627838Y-71612586D01*
X100688219Y-71758358D01*
X100719000Y-71913107D01*
X100719000Y-72070893D01*
X100688219Y-72225642D01*
X100648548Y-72321416D01*
X100627837Y-72371416D01*
X100540178Y-72502608D01*
X100428608Y-72614178D01*
X100297416Y-72701837D01*
X100297415Y-72701838D01*
X100297414Y-72701838D01*
X100151642Y-72762219D01*
X99996893Y-72793000D01*
X99839107Y-72793000D01*
X99684358Y-72762219D01*
X99538586Y-72701838D01*
X99538585Y-72701838D01*
X99538584Y-72701837D01*
X99407392Y-72614178D01*
X99295822Y-72502608D01*
X99208163Y-72371416D01*
X99187452Y-72321416D01*
X99147781Y-72225642D01*
X99117000Y-72070893D01*
X99117000Y-71913107D01*
X99147781Y-71758358D01*
X99208162Y-71612586D01*
X99208163Y-71612584D01*
X99295822Y-71481392D01*
X99407392Y-71369822D01*
X99538584Y-71282163D01*
X99538586Y-71282162D01*
X99684358Y-71221781D01*
X99839107Y-71191000D01*
X99996893Y-71191000D01*
X100151642Y-71221781D01*
G37*
G36*
X94151642Y-71171781D02*
G01*
X94297414Y-71232162D01*
X94297416Y-71232163D01*
X94428608Y-71319822D01*
X94540178Y-71431392D01*
X94573587Y-71481393D01*
X94627838Y-71562586D01*
X94688219Y-71708358D01*
X94719000Y-71863107D01*
X94719000Y-72020893D01*
X94688219Y-72175642D01*
X94627838Y-72321414D01*
X94627837Y-72321416D01*
X94540178Y-72452608D01*
X94428608Y-72564178D01*
X94297416Y-72651837D01*
X94297415Y-72651838D01*
X94297414Y-72651838D01*
X94151642Y-72712219D01*
X93996893Y-72743000D01*
X93839107Y-72743000D01*
X93684358Y-72712219D01*
X93538586Y-72651838D01*
X93538585Y-72651838D01*
X93538584Y-72651837D01*
X93407392Y-72564178D01*
X93295822Y-72452608D01*
X93208163Y-72321416D01*
X93208162Y-72321414D01*
X93147781Y-72175642D01*
X93117000Y-72020893D01*
X93117000Y-71863107D01*
X93147781Y-71708358D01*
X93208162Y-71562586D01*
X93262413Y-71481393D01*
X93295822Y-71431392D01*
X93407392Y-71319822D01*
X93538584Y-71232163D01*
X93538586Y-71232162D01*
X93684358Y-71171781D01*
X93839107Y-71141000D01*
X93996893Y-71141000D01*
X94151642Y-71171781D01*
G37*
G36*
X100151642Y-69221781D02*
G01*
X100297414Y-69282162D01*
X100297416Y-69282163D01*
X100428608Y-69369822D01*
X100540178Y-69481392D01*
X100627837Y-69612584D01*
X100627838Y-69612586D01*
X100688219Y-69758358D01*
X100719000Y-69913107D01*
X100719000Y-70070893D01*
X100688219Y-70225642D01*
X100627838Y-70371414D01*
X100627837Y-70371416D01*
X100540178Y-70502608D01*
X100428608Y-70614178D01*
X100297416Y-70701837D01*
X100297415Y-70701838D01*
X100297414Y-70701838D01*
X100151642Y-70762219D01*
X99996893Y-70793000D01*
X99839107Y-70793000D01*
X99684358Y-70762219D01*
X99538586Y-70701838D01*
X99538585Y-70701838D01*
X99538584Y-70701837D01*
X99407392Y-70614178D01*
X99295822Y-70502608D01*
X99208163Y-70371416D01*
X99208162Y-70371414D01*
X99147781Y-70225642D01*
X99117000Y-70070893D01*
X99117000Y-69913107D01*
X99147781Y-69758358D01*
X99208162Y-69612586D01*
X99208163Y-69612584D01*
X99295822Y-69481392D01*
X99407392Y-69369822D01*
X99538584Y-69282163D01*
X99538586Y-69282162D01*
X99684358Y-69221781D01*
X99839107Y-69191000D01*
X99996893Y-69191000D01*
X100151642Y-69221781D01*
G37*
G36*
X102151642Y-69221781D02*
G01*
X102297414Y-69282162D01*
X102297416Y-69282163D01*
X102428608Y-69369822D01*
X102540178Y-69481392D01*
X102627837Y-69612584D01*
X102627838Y-69612586D01*
X102688219Y-69758358D01*
X102719000Y-69913107D01*
X102719000Y-70070893D01*
X102688219Y-70225642D01*
X102627838Y-70371414D01*
X102627837Y-70371416D01*
X102540178Y-70502608D01*
X102428608Y-70614178D01*
X102297416Y-70701837D01*
X102297415Y-70701838D01*
X102297414Y-70701838D01*
X102151642Y-70762219D01*
X101996893Y-70793000D01*
X101839107Y-70793000D01*
X101684358Y-70762219D01*
X101538586Y-70701838D01*
X101538585Y-70701838D01*
X101538584Y-70701837D01*
X101407392Y-70614178D01*
X101295822Y-70502608D01*
X101208163Y-70371416D01*
X101208162Y-70371414D01*
X101147781Y-70225642D01*
X101117000Y-70070893D01*
X101117000Y-69913107D01*
X101147781Y-69758358D01*
X101208162Y-69612586D01*
X101208163Y-69612584D01*
X101295822Y-69481392D01*
X101407392Y-69369822D01*
X101538584Y-69282163D01*
X101538586Y-69282162D01*
X101684358Y-69221781D01*
X101839107Y-69191000D01*
X101996893Y-69191000D01*
X102151642Y-69221781D01*
G37*
G36*
X92151642Y-69221781D02*
G01*
X92297414Y-69282162D01*
X92297416Y-69282163D01*
X92428608Y-69369822D01*
X92540178Y-69481392D01*
X92627837Y-69612584D01*
X92627838Y-69612586D01*
X92688219Y-69758358D01*
X92719000Y-69913107D01*
X92719000Y-70070893D01*
X92688219Y-70225642D01*
X92627838Y-70371414D01*
X92627837Y-70371416D01*
X92540178Y-70502608D01*
X92428608Y-70614178D01*
X92297416Y-70701837D01*
X92297415Y-70701838D01*
X92297414Y-70701838D01*
X92151642Y-70762219D01*
X91996893Y-70793000D01*
X91839107Y-70793000D01*
X91684358Y-70762219D01*
X91538586Y-70701838D01*
X91538585Y-70701838D01*
X91538584Y-70701837D01*
X91407392Y-70614178D01*
X91295822Y-70502608D01*
X91208163Y-70371416D01*
X91208162Y-70371414D01*
X91147781Y-70225642D01*
X91117000Y-70070893D01*
X91117000Y-69913107D01*
X91147781Y-69758358D01*
X91208162Y-69612586D01*
X91208163Y-69612584D01*
X91295822Y-69481392D01*
X91407392Y-69369822D01*
X91538584Y-69282163D01*
X91538586Y-69282162D01*
X91684358Y-69221781D01*
X91839107Y-69191000D01*
X91996893Y-69191000D01*
X92151642Y-69221781D01*
G37*
G36*
X94151642Y-69221781D02*
G01*
X94297414Y-69282162D01*
X94297416Y-69282163D01*
X94428608Y-69369822D01*
X94540178Y-69481392D01*
X94627837Y-69612584D01*
X94627838Y-69612586D01*
X94688219Y-69758358D01*
X94719000Y-69913107D01*
X94719000Y-70070893D01*
X94688219Y-70225642D01*
X94627838Y-70371414D01*
X94627837Y-70371416D01*
X94540178Y-70502608D01*
X94428608Y-70614178D01*
X94297416Y-70701837D01*
X94297415Y-70701838D01*
X94297414Y-70701838D01*
X94151642Y-70762219D01*
X93996893Y-70793000D01*
X93839107Y-70793000D01*
X93684358Y-70762219D01*
X93538586Y-70701838D01*
X93538585Y-70701838D01*
X93538584Y-70701837D01*
X93407392Y-70614178D01*
X93295822Y-70502608D01*
X93208163Y-70371416D01*
X93208162Y-70371414D01*
X93147781Y-70225642D01*
X93117000Y-70070893D01*
X93117000Y-69913107D01*
X93147781Y-69758358D01*
X93208162Y-69612586D01*
X93208163Y-69612584D01*
X93295822Y-69481392D01*
X93407392Y-69369822D01*
X93538584Y-69282163D01*
X93538586Y-69282162D01*
X93684358Y-69221781D01*
X93839107Y-69191000D01*
X93996893Y-69191000D01*
X94151642Y-69221781D01*
G37*
G36*
X104151642Y-69221781D02*
G01*
X104297414Y-69282162D01*
X104297416Y-69282163D01*
X104428608Y-69369822D01*
X104540178Y-69481392D01*
X104627837Y-69612584D01*
X104627838Y-69612586D01*
X104688219Y-69758358D01*
X104719000Y-69913107D01*
X104719000Y-70070893D01*
X104688219Y-70225642D01*
X104627838Y-70371414D01*
X104627837Y-70371416D01*
X104540178Y-70502608D01*
X104428608Y-70614178D01*
X104297416Y-70701837D01*
X104297415Y-70701838D01*
X104297414Y-70701838D01*
X104151642Y-70762219D01*
X103996893Y-70793000D01*
X103839107Y-70793000D01*
X103684358Y-70762219D01*
X103538586Y-70701838D01*
X103538585Y-70701838D01*
X103538584Y-70701837D01*
X103407392Y-70614178D01*
X103295822Y-70502608D01*
X103208163Y-70371416D01*
X103208162Y-70371414D01*
X103147781Y-70225642D01*
X103117000Y-70070893D01*
X103117000Y-69913107D01*
X103147781Y-69758358D01*
X103208162Y-69612586D01*
X103208163Y-69612584D01*
X103295822Y-69481392D01*
X103407392Y-69369822D01*
X103538584Y-69282163D01*
X103538586Y-69282162D01*
X103684358Y-69221781D01*
X103839107Y-69191000D01*
X103996893Y-69191000D01*
X104151642Y-69221781D01*
G37*
G36*
X98151642Y-69221781D02*
G01*
X98297414Y-69282162D01*
X98297416Y-69282163D01*
X98428608Y-69369822D01*
X98540178Y-69481392D01*
X98627837Y-69612584D01*
X98627838Y-69612586D01*
X98688219Y-69758358D01*
X98719000Y-69913107D01*
X98719000Y-70070893D01*
X98688219Y-70225642D01*
X98627838Y-70371414D01*
X98627837Y-70371416D01*
X98540178Y-70502608D01*
X98428608Y-70614178D01*
X98297416Y-70701837D01*
X98297415Y-70701838D01*
X98297414Y-70701838D01*
X98151642Y-70762219D01*
X97996893Y-70793000D01*
X97839107Y-70793000D01*
X97684358Y-70762219D01*
X97538586Y-70701838D01*
X97538585Y-70701838D01*
X97538584Y-70701837D01*
X97407392Y-70614178D01*
X97295822Y-70502608D01*
X97208163Y-70371416D01*
X97208162Y-70371414D01*
X97147781Y-70225642D01*
X97117000Y-70070893D01*
X97117000Y-69913107D01*
X97147781Y-69758358D01*
X97208162Y-69612586D01*
X97208163Y-69612584D01*
X97295822Y-69481392D01*
X97407392Y-69369822D01*
X97538584Y-69282163D01*
X97538586Y-69282162D01*
X97684358Y-69221781D01*
X97839107Y-69191000D01*
X97996893Y-69191000D01*
X98151642Y-69221781D01*
G37*
G36*
X96151642Y-69221781D02*
G01*
X96297414Y-69282162D01*
X96297416Y-69282163D01*
X96428608Y-69369822D01*
X96540178Y-69481392D01*
X96627837Y-69612584D01*
X96627838Y-69612586D01*
X96688219Y-69758358D01*
X96719000Y-69913107D01*
X96719000Y-70070893D01*
X96688219Y-70225642D01*
X96627838Y-70371414D01*
X96627837Y-70371416D01*
X96540178Y-70502608D01*
X96428608Y-70614178D01*
X96297416Y-70701837D01*
X96297415Y-70701838D01*
X96297414Y-70701838D01*
X96151642Y-70762219D01*
X95996893Y-70793000D01*
X95839107Y-70793000D01*
X95684358Y-70762219D01*
X95538586Y-70701838D01*
X95538585Y-70701838D01*
X95538584Y-70701837D01*
X95407392Y-70614178D01*
X95295822Y-70502608D01*
X95208163Y-70371416D01*
X95208162Y-70371414D01*
X95147781Y-70225642D01*
X95117000Y-70070893D01*
X95117000Y-69913107D01*
X95147781Y-69758358D01*
X95208162Y-69612586D01*
X95208163Y-69612584D01*
X95295822Y-69481392D01*
X95407392Y-69369822D01*
X95538584Y-69282163D01*
X95538586Y-69282162D01*
X95684358Y-69221781D01*
X95839107Y-69191000D01*
X95996893Y-69191000D01*
X96151642Y-69221781D01*
G37*
G36*
X105937000Y-64967000D02*
G01*
X105035000Y-64967000D01*
X105035000Y-64065000D01*
X105937000Y-64065000D01*
X105937000Y-64967000D01*
G37*
G36*
X108655000Y-64967000D02*
G01*
X107753000Y-64967000D01*
X107753000Y-64065000D01*
X108655000Y-64065000D01*
X108655000Y-64967000D01*
G37*
G36*
X104337000Y-64967000D02*
G01*
X103435000Y-64967000D01*
X103435000Y-64065000D01*
X104337000Y-64065000D01*
X104337000Y-64967000D01*
G37*
G36*
X110255000Y-64967000D02*
G01*
X109353000Y-64967000D01*
X109353000Y-64065000D01*
X110255000Y-64065000D01*
X110255000Y-64967000D01*
G37*
G36*
X81058000Y-64840000D02*
G01*
X80156000Y-64840000D01*
X80156000Y-63938000D01*
X81058000Y-63938000D01*
X81058000Y-64840000D01*
G37*
G36*
X82658000Y-64840000D02*
G01*
X81756000Y-64840000D01*
X81756000Y-63938000D01*
X82658000Y-63938000D01*
X82658000Y-64840000D01*
G37*
G36*
X78378000Y-64840000D02*
G01*
X77476000Y-64840000D01*
X77476000Y-63938000D01*
X78378000Y-63938000D01*
X78378000Y-64840000D01*
G37*
G36*
X76778000Y-64840000D02*
G01*
X75876000Y-64840000D01*
X75876000Y-63938000D01*
X76778000Y-63938000D01*
X76778000Y-64840000D01*
G37*
G36*
X111158721Y-62716174D02*
G01*
X111258995Y-62757709D01*
X111258996Y-62757710D01*
X111349242Y-62818010D01*
X111425990Y-62894758D01*
X111425991Y-62894760D01*
X111486291Y-62985005D01*
X111527826Y-63085279D01*
X111549000Y-63191730D01*
X111549000Y-63300270D01*
X111527826Y-63406721D01*
X111486291Y-63506995D01*
X111486290Y-63506996D01*
X111425990Y-63597242D01*
X111349242Y-63673990D01*
X111303812Y-63704345D01*
X111258995Y-63734291D01*
X111158721Y-63775826D01*
X111052270Y-63797000D01*
X110943730Y-63797000D01*
X110837279Y-63775826D01*
X110737005Y-63734291D01*
X110692188Y-63704345D01*
X110646758Y-63673990D01*
X110570010Y-63597242D01*
X110509710Y-63506996D01*
X110509709Y-63506995D01*
X110468174Y-63406721D01*
X110447000Y-63300270D01*
X110447000Y-63191730D01*
X110468174Y-63085279D01*
X110509709Y-62985005D01*
X110570009Y-62894760D01*
X110570010Y-62894758D01*
X110646758Y-62818010D01*
X110737004Y-62757710D01*
X110737005Y-62757709D01*
X110837279Y-62716174D01*
X110943730Y-62695000D01*
X111052270Y-62695000D01*
X111158721Y-62716174D01*
G37*
G36*
X102903721Y-62716174D02*
G01*
X103003995Y-62757709D01*
X103003996Y-62757710D01*
X103094242Y-62818010D01*
X103170990Y-62894758D01*
X103170991Y-62894760D01*
X103231291Y-62985005D01*
X103272826Y-63085279D01*
X103294000Y-63191730D01*
X103294000Y-63300270D01*
X103272826Y-63406721D01*
X103231291Y-63506995D01*
X103231290Y-63506996D01*
X103170990Y-63597242D01*
X103094242Y-63673990D01*
X103048812Y-63704345D01*
X103003995Y-63734291D01*
X102903721Y-63775826D01*
X102797270Y-63797000D01*
X102688730Y-63797000D01*
X102582279Y-63775826D01*
X102482005Y-63734291D01*
X102437188Y-63704345D01*
X102391758Y-63673990D01*
X102315010Y-63597242D01*
X102254710Y-63506996D01*
X102254709Y-63506995D01*
X102213174Y-63406721D01*
X102192000Y-63300270D01*
X102192000Y-63191730D01*
X102213174Y-63085279D01*
X102254709Y-62985005D01*
X102315009Y-62894760D01*
X102315010Y-62894758D01*
X102391758Y-62818010D01*
X102482004Y-62757710D01*
X102482005Y-62757709D01*
X102582279Y-62716174D01*
X102688730Y-62695000D01*
X102797270Y-62695000D01*
X102903721Y-62716174D01*
G37*
G36*
X83599721Y-62716174D02*
G01*
X83699995Y-62757709D01*
X83699996Y-62757710D01*
X83790242Y-62818010D01*
X83866990Y-62894758D01*
X83866991Y-62894760D01*
X83927291Y-62985005D01*
X83968826Y-63085279D01*
X83990000Y-63191730D01*
X83990000Y-63300270D01*
X83968826Y-63406721D01*
X83927291Y-63506995D01*
X83927290Y-63506996D01*
X83866990Y-63597242D01*
X83790242Y-63673990D01*
X83744812Y-63704345D01*
X83699995Y-63734291D01*
X83599721Y-63775826D01*
X83493270Y-63797000D01*
X83384730Y-63797000D01*
X83278279Y-63775826D01*
X83178005Y-63734291D01*
X83133188Y-63704345D01*
X83087758Y-63673990D01*
X83011010Y-63597242D01*
X82950710Y-63506996D01*
X82950709Y-63506995D01*
X82909174Y-63406721D01*
X82888000Y-63300270D01*
X82888000Y-63191730D01*
X82909174Y-63085279D01*
X82950709Y-62985005D01*
X83011009Y-62894760D01*
X83011010Y-62894758D01*
X83087758Y-62818010D01*
X83178004Y-62757710D01*
X83178005Y-62757709D01*
X83278279Y-62716174D01*
X83384730Y-62695000D01*
X83493270Y-62695000D01*
X83599721Y-62716174D01*
G37*
G36*
X75344721Y-62716174D02*
G01*
X75444995Y-62757709D01*
X75444996Y-62757710D01*
X75535242Y-62818010D01*
X75611990Y-62894758D01*
X75611991Y-62894760D01*
X75672291Y-62985005D01*
X75713826Y-63085279D01*
X75735000Y-63191730D01*
X75735000Y-63300270D01*
X75713826Y-63406721D01*
X75672291Y-63506995D01*
X75672290Y-63506996D01*
X75611990Y-63597242D01*
X75535242Y-63673990D01*
X75489812Y-63704345D01*
X75444995Y-63734291D01*
X75344721Y-63775826D01*
X75238270Y-63797000D01*
X75129730Y-63797000D01*
X75023279Y-63775826D01*
X74923005Y-63734291D01*
X74878188Y-63704345D01*
X74832758Y-63673990D01*
X74756010Y-63597242D01*
X74695710Y-63506996D01*
X74695709Y-63506995D01*
X74654174Y-63406721D01*
X74633000Y-63300270D01*
X74633000Y-63191730D01*
X74654174Y-63085279D01*
X74695709Y-62985005D01*
X74756009Y-62894760D01*
X74756010Y-62894758D01*
X74832758Y-62818010D01*
X74923004Y-62757710D01*
X74923005Y-62757709D01*
X75023279Y-62716174D01*
X75129730Y-62695000D01*
X75238270Y-62695000D01*
X75344721Y-62716174D01*
G37*
G36*
X96507500Y-53074000D02*
G01*
X94144500Y-53074000D01*
X94144500Y-51524000D01*
X96507500Y-51524000D01*
X96507500Y-53074000D01*
G37*
G36*
X92723500Y-53074000D02*
G01*
X90360500Y-53074000D01*
X90360500Y-51524000D01*
X92723500Y-51524000D01*
X92723500Y-53074000D01*
G37*
G36*
X96507500Y-50280000D02*
G01*
X94144500Y-50280000D01*
X94144500Y-48730000D01*
X96507500Y-48730000D01*
X96507500Y-50280000D01*
G37*
G36*
X92723500Y-50280000D02*
G01*
X90360500Y-50280000D01*
X90360500Y-48730000D01*
X92723500Y-48730000D01*
X92723500Y-50280000D01*
G37*
G36*
X110660000Y-45178000D02*
G01*
X109558000Y-45178000D01*
X109558000Y-43976000D01*
X110660000Y-43976000D01*
X110660000Y-45178000D01*
G37*
G36*
X112460000Y-45178000D02*
G01*
X111358000Y-45178000D01*
X111358000Y-43976000D01*
X112460000Y-43976000D01*
X112460000Y-45178000D01*
G37*
G36*
X108532000Y-43861000D02*
G01*
X107114000Y-43861000D01*
X107114000Y-43259000D01*
X108532000Y-43259000D01*
X108532000Y-43861000D01*
G37*
G36*
X95104000Y-43781000D02*
G01*
X94002000Y-43781000D01*
X94002000Y-42579000D01*
X95104000Y-42579000D01*
X95104000Y-43781000D01*
G37*
G36*
X93704000Y-43781000D02*
G01*
X92602000Y-43781000D01*
X92602000Y-42579000D01*
X93704000Y-42579000D01*
X93704000Y-43781000D01*
G37*
G36*
X88789303Y-42217965D02*
G01*
X87302965Y-43704303D01*
X86240891Y-42642229D01*
X87727229Y-41155891D01*
X88789303Y-42217965D01*
G37*
G36*
X110648000Y-42765000D02*
G01*
X109546000Y-42765000D01*
X109546000Y-41563000D01*
X110648000Y-41563000D01*
X110648000Y-42765000D01*
G37*
G36*
X112248000Y-42765000D02*
G01*
X111146000Y-42765000D01*
X111146000Y-41563000D01*
X112248000Y-41563000D01*
X112248000Y-42765000D01*
G37*
G36*
X106393000Y-42260000D02*
G01*
X105191000Y-42260000D01*
X105191000Y-41158000D01*
X106393000Y-41158000D01*
X106393000Y-42260000D01*
G37*
G36*
X108532000Y-42161000D02*
G01*
X107114000Y-42161000D01*
X107114000Y-41559000D01*
X108532000Y-41559000D01*
X108532000Y-42161000D01*
G37*
G36*
X94864000Y-41372000D02*
G01*
X94112000Y-41372000D01*
X94112000Y-39822000D01*
X94864000Y-39822000D01*
X94864000Y-41372000D01*
G37*
G36*
X93721000Y-41331000D02*
G01*
X92969000Y-41331000D01*
X92969000Y-39781000D01*
X93721000Y-39781000D01*
X93721000Y-41331000D01*
G37*
G36*
X108629000Y-40733000D02*
G01*
X107527000Y-40733000D01*
X107527000Y-39531000D01*
X108629000Y-39531000D01*
X108629000Y-40733000D01*
G37*
G36*
X110229000Y-40733000D02*
G01*
X109127000Y-40733000D01*
X109127000Y-39531000D01*
X110229000Y-39531000D01*
X110229000Y-40733000D01*
G37*
G36*
X106393000Y-40660000D02*
G01*
X105191000Y-40660000D01*
X105191000Y-39558000D01*
X106393000Y-39558000D01*
X106393000Y-40660000D01*
G37*
G36*
X84193109Y-37621771D02*
G01*
X82706771Y-39108109D01*
X81644697Y-38046035D01*
X83131035Y-36559697D01*
X84193109Y-37621771D01*
G37*
G36*
X95597000Y-38970000D02*
G01*
X94395000Y-38970000D01*
X94395000Y-37868000D01*
X95597000Y-37868000D01*
X95597000Y-38970000D01*
G37*
G36*
X93692000Y-38905000D02*
G01*
X92490000Y-38905000D01*
X92490000Y-37803000D01*
X93692000Y-37803000D01*
X93692000Y-38905000D01*
G37*
G36*
X104840000Y-37812000D02*
G01*
X103738000Y-37812000D01*
X103738000Y-36610000D01*
X104840000Y-36610000D01*
X104840000Y-37812000D01*
G37*
G36*
X103040000Y-37812000D02*
G01*
X101938000Y-37812000D01*
X101938000Y-36610000D01*
X103040000Y-36610000D01*
X103040000Y-37812000D01*
G37*
G36*
X95597000Y-37570000D02*
G01*
X94395000Y-37570000D01*
X94395000Y-36468000D01*
X95597000Y-36468000D01*
X95597000Y-37570000D01*
G37*
G36*
X93692000Y-37505000D02*
G01*
X92490000Y-37505000D01*
X92490000Y-36403000D01*
X93692000Y-36403000D01*
X93692000Y-37505000D01*
G37*
M02*
