%TF.GenerationSoftware,KiCad,Pcbnew,(2017-11-08 revision cd21218)-HEAD*%
%TF.CreationDate,2018-01-31T21:16:45+02:00*%
%TF.ProjectId,esp8266_uno,657370383236365F756E6F2E6B696361,rev?*%
%TF.SameCoordinates,Original*%
%TF.FileFunction,Legend,Top*%
%TF.FilePolarity,Positive*%
%FSLAX46Y46*%
G04 Gerber Fmt 4.6, Leading zero omitted, Abs format (unit mm)*
G04 Created by KiCad (PCBNEW (2017-11-08 revision cd21218)-HEAD) date Wed Jan 31 21:16:45 2018*
%MOMM*%
%LPD*%
G01*
G04 APERTURE LIST*
%ADD10C,0.150000*%
%ADD11C,0.152400*%
%ADD12C,0.120000*%
%ADD13C,0.177800*%
%ADD14O,1.500000X2.800000*%
%ADD15R,1.500000X2.800000*%
%ADD16R,3.900000X3.900000*%
%ADD17O,2.000000X2.000000*%
%ADD18R,2.000000X2.000000*%
%ADD19C,1.920000*%
%ADD20C,3.100000*%
%ADD21C,3.600000*%
%ADD22R,1.650000X1.900000*%
%ADD23R,1.900000X1.650000*%
%ADD24R,1.600000X1.300000*%
%ADD25R,1.300000X1.200000*%
%ADD26R,1.700000X1.900000*%
%ADD27R,2.400000X4.200000*%
%ADD28R,2.400000X1.900000*%
%ADD29R,1.900000X1.000000*%
%ADD30R,5.500000X1.200000*%
%ADD31R,5.500000X1.700000*%
%ADD32C,2.400000*%
%ADD33R,2.350000X2.900000*%
%ADD34R,2.900000X2.350000*%
%ADD35R,1.860000X5.240000*%
%ADD36R,1.900000X1.700000*%
%ADD37R,2.398980X3.597860*%
G04 APERTURE END LIST*
D10*
X114165428Y-119213380D02*
X113689238Y-119213380D01*
X113641619Y-119689571D01*
X113689238Y-119641952D01*
X113784476Y-119594333D01*
X114022571Y-119594333D01*
X114117809Y-119641952D01*
X114165428Y-119689571D01*
X114213047Y-119784809D01*
X114213047Y-120022904D01*
X114165428Y-120118142D01*
X114117809Y-120165761D01*
X114022571Y-120213380D01*
X113784476Y-120213380D01*
X113689238Y-120165761D01*
X113641619Y-120118142D01*
X114498761Y-119213380D02*
X114832095Y-120213380D01*
X115165428Y-119213380D01*
X115927333Y-120213380D02*
X115927333Y-119213380D01*
X115927333Y-120165761D02*
X115832095Y-120213380D01*
X115641619Y-120213380D01*
X115546380Y-120165761D01*
X115498761Y-120118142D01*
X115451142Y-120022904D01*
X115451142Y-119737190D01*
X115498761Y-119641952D01*
X115546380Y-119594333D01*
X115641619Y-119546714D01*
X115832095Y-119546714D01*
X115927333Y-119594333D01*
X116832095Y-120165761D02*
X116736857Y-120213380D01*
X116546380Y-120213380D01*
X116451142Y-120165761D01*
X116403523Y-120118142D01*
X116355904Y-120022904D01*
X116355904Y-119737190D01*
X116403523Y-119641952D01*
X116451142Y-119594333D01*
X116546380Y-119546714D01*
X116736857Y-119546714D01*
X116832095Y-119594333D01*
X118022571Y-120213380D02*
X118022571Y-119213380D01*
X118355904Y-119927666D01*
X118689238Y-119213380D01*
X118689238Y-120213380D01*
X119117809Y-119927666D02*
X119594000Y-119927666D01*
X119022571Y-120213380D02*
X119355904Y-119213380D01*
X119689238Y-120213380D01*
X119927333Y-119213380D02*
X120594000Y-120213380D01*
X120594000Y-119213380D02*
X119927333Y-120213380D01*
D11*
X172480777Y-103886000D02*
X179723000Y-103886000D01*
X155723000Y-119886000D02*
X155723000Y-103886000D01*
X179723000Y-119886000D02*
X172574784Y-119886000D01*
X179723000Y-119886000D02*
X179723000Y-103886000D01*
X173923000Y-103886000D02*
X173923000Y-119886000D01*
X179723000Y-103886000D02*
X173923000Y-119886000D01*
X179723000Y-119886000D02*
X173923000Y-103886000D01*
X156337001Y-119886000D02*
X155701997Y-119886000D01*
X156337000Y-103886000D02*
X155701996Y-103886000D01*
D12*
X117555000Y-129949000D02*
X112392673Y-129949000D01*
X112395000Y-129921000D02*
X112395000Y-120721000D01*
X123455000Y-127249000D02*
X123455000Y-129949000D01*
X123455000Y-129949000D02*
X121555000Y-129949000D01*
X112394965Y-120749000D02*
X123455000Y-120749000D01*
X123455000Y-120749000D02*
X123455000Y-123349000D01*
X113030000Y-88769000D02*
X112140992Y-88769000D01*
X121410000Y-88769000D02*
X116330000Y-88769000D01*
X113030000Y-100969000D02*
X112140992Y-100969000D01*
X121410000Y-100969000D02*
X116330000Y-100969000D01*
X112141000Y-100965000D02*
X112141000Y-88773000D01*
X121410000Y-88769000D02*
X121410000Y-100969000D01*
X168314000Y-97798000D02*
X168314000Y-98798000D01*
X170014000Y-98798000D02*
X170014000Y-97798000D01*
X157853000Y-95670000D02*
X156853000Y-95670000D01*
X156853000Y-97370000D02*
X157853000Y-97370000D01*
X126912000Y-94623000D02*
X126912000Y-95623000D01*
X128612000Y-95623000D02*
X128612000Y-94623000D01*
X135548000Y-88654000D02*
X135548000Y-89654000D01*
X137248000Y-89654000D02*
X137248000Y-88654000D01*
X136533000Y-104984000D02*
X137533000Y-104984000D01*
X137533000Y-106344000D02*
X136533000Y-106344000D01*
X139448000Y-95067000D02*
X140908000Y-95067000D01*
X139448000Y-98227000D02*
X141608000Y-98227000D01*
X139448000Y-98227000D02*
X139448000Y-97297000D01*
X139448000Y-95067000D02*
X139448000Y-95997000D01*
X144778000Y-98227000D02*
X144778000Y-97297000D01*
X144778000Y-95067000D02*
X144778000Y-95997000D01*
X144778000Y-95067000D02*
X142618000Y-95067000D01*
X144778000Y-98227000D02*
X143318000Y-98227000D01*
X162805000Y-97571000D02*
X162805000Y-98771000D01*
X161045000Y-98771000D02*
X161045000Y-97571000D01*
X172457000Y-97825000D02*
X172457000Y-99025000D01*
X170697000Y-99025000D02*
X170697000Y-97825000D01*
X165091000Y-124241000D02*
X165091000Y-125441000D01*
X163331000Y-125441000D02*
X163331000Y-124241000D01*
X160791000Y-125314000D02*
X160791000Y-124114000D01*
X162551000Y-124114000D02*
X162551000Y-125314000D01*
X160011000Y-124114000D02*
X160011000Y-125314000D01*
X158251000Y-125314000D02*
X158251000Y-124114000D01*
X167631000Y-97698000D02*
X167631000Y-98898000D01*
X165871000Y-98898000D02*
X165871000Y-97698000D01*
X165218000Y-97571000D02*
X165218000Y-98771000D01*
X163458000Y-98771000D02*
X163458000Y-97571000D01*
X130805000Y-121304000D02*
X130805000Y-122564000D01*
X130805000Y-128124000D02*
X130805000Y-126864000D01*
X134565000Y-121304000D02*
X130805000Y-121304000D01*
X136815000Y-128124000D02*
X130805000Y-128124000D01*
D10*
X131148000Y-92969000D02*
X131148000Y-92994000D01*
X135298000Y-92969000D02*
X135298000Y-93074000D01*
X135298000Y-103119000D02*
X135298000Y-103014000D01*
X131148000Y-103119000D02*
X131148000Y-103014000D01*
X131148000Y-92969000D02*
X135298000Y-92969000D01*
X131148000Y-103119000D02*
X135298000Y-103119000D01*
X131148000Y-92994000D02*
X129773000Y-92994000D01*
X128524000Y-102184200D02*
X122426000Y-102183000D01*
X122426000Y-102183000D02*
X122426000Y-108383000D01*
X122426000Y-108383000D02*
X128526000Y-108383000D01*
X128526000Y-108383000D02*
X128524000Y-102184200D01*
D12*
X114728500Y-86780000D02*
X119228500Y-86780000D01*
X113478500Y-82780000D02*
X113478500Y-84280000D01*
X119228500Y-80280000D02*
X114728500Y-80280000D01*
X120478500Y-84280000D02*
X120478500Y-82780000D01*
X159772000Y-101472000D02*
X155222000Y-101472000D01*
X159772000Y-98172000D02*
X155222000Y-98172000D01*
X159772000Y-101472000D02*
X159772000Y-98172000D01*
X138431000Y-121418000D02*
X141731000Y-121418000D01*
X141731000Y-121418000D02*
X141731000Y-116868000D01*
X138431000Y-121418000D02*
X138431000Y-116868000D01*
X141731000Y-122422000D02*
X138431000Y-122422000D01*
X138431000Y-122422000D02*
X138431000Y-126972000D01*
X141731000Y-122422000D02*
X141731000Y-126972000D01*
X131446000Y-91573000D02*
X131446000Y-87023000D01*
X134746000Y-91573000D02*
X134746000Y-87023000D01*
X131446000Y-91573000D02*
X134746000Y-91573000D01*
D10*
X122756000Y-91898000D02*
X128196000Y-91898000D01*
X122756000Y-86918000D02*
X128196000Y-86918000D01*
D12*
X140116000Y-99577000D02*
X141316000Y-99577000D01*
X141316000Y-101337000D02*
X140116000Y-101337000D01*
X141316000Y-103750000D02*
X140116000Y-103750000D01*
X140116000Y-101990000D02*
X141316000Y-101990000D01*
D13*
X122582940Y-120065800D02*
X122582940Y-113868200D01*
X122684540Y-113868200D02*
X122684540Y-120065800D01*
X122783600Y-120065800D02*
X122783600Y-113868200D01*
X122885200Y-113868200D02*
X122885200Y-120065800D01*
X122984260Y-120065800D02*
X122984260Y-113868200D01*
X123083320Y-113868200D02*
X123083320Y-120065800D01*
X123184920Y-120065800D02*
X123184920Y-113868200D01*
X129481580Y-120065800D02*
X122486420Y-120065800D01*
X122483880Y-120065800D02*
X122483880Y-113868200D01*
X122483880Y-113868200D02*
X129484120Y-113868200D01*
X129484120Y-113868200D02*
X129484120Y-120065800D01*
D10*
X151725380Y-112521904D02*
X152534904Y-112521904D01*
X152630142Y-112474285D01*
X152677761Y-112426666D01*
X152725380Y-112331428D01*
X152725380Y-112140952D01*
X152677761Y-112045714D01*
X152630142Y-111998095D01*
X152534904Y-111950476D01*
X151725380Y-111950476D01*
X152725380Y-110950476D02*
X152725380Y-111521904D01*
X152725380Y-111236190D02*
X151725380Y-111236190D01*
X151868238Y-111331428D01*
X151963476Y-111426666D01*
X152011095Y-111521904D01*
X154487571Y-114140904D02*
X154487571Y-113807571D01*
X155011380Y-113664714D02*
X155011380Y-114140904D01*
X154011380Y-114140904D01*
X154011380Y-113664714D01*
X154963761Y-113283761D02*
X155011380Y-113140904D01*
X155011380Y-112902809D01*
X154963761Y-112807571D01*
X154916142Y-112759952D01*
X154820904Y-112712333D01*
X154725666Y-112712333D01*
X154630428Y-112759952D01*
X154582809Y-112807571D01*
X154535190Y-112902809D01*
X154487571Y-113093285D01*
X154439952Y-113188523D01*
X154392333Y-113236142D01*
X154297095Y-113283761D01*
X154201857Y-113283761D01*
X154106619Y-113236142D01*
X154059000Y-113188523D01*
X154011380Y-113093285D01*
X154011380Y-112855190D01*
X154059000Y-112712333D01*
X155011380Y-112283761D02*
X154011380Y-112283761D01*
X154011380Y-111902809D01*
X154059000Y-111807571D01*
X154106619Y-111759952D01*
X154201857Y-111712333D01*
X154344714Y-111712333D01*
X154439952Y-111759952D01*
X154487571Y-111807571D01*
X154535190Y-111902809D01*
X154535190Y-112283761D01*
X154630428Y-111283761D02*
X154630428Y-110521857D01*
X155011380Y-109521857D02*
X155011380Y-110093285D01*
X155011380Y-109807571D02*
X154011380Y-109807571D01*
X154154238Y-109902809D01*
X154249476Y-109998047D01*
X154297095Y-110093285D01*
X154106619Y-109140904D02*
X154059000Y-109093285D01*
X154011380Y-108998047D01*
X154011380Y-108759952D01*
X154059000Y-108664714D01*
X154106619Y-108617095D01*
X154201857Y-108569476D01*
X154297095Y-108569476D01*
X154439952Y-108617095D01*
X155011380Y-109188523D01*
X155011380Y-108569476D01*
X113839666Y-130770380D02*
X113839666Y-131484666D01*
X113792047Y-131627523D01*
X113696809Y-131722761D01*
X113553952Y-131770380D01*
X113458714Y-131770380D01*
X114839666Y-131770380D02*
X114268238Y-131770380D01*
X114553952Y-131770380D02*
X114553952Y-130770380D01*
X114458714Y-130913238D01*
X114363476Y-131008476D01*
X114268238Y-131056095D01*
X115466904Y-104338380D02*
X115466904Y-103338380D01*
X115847857Y-103338380D01*
X115943095Y-103386000D01*
X115990714Y-103433619D01*
X116038333Y-103528857D01*
X116038333Y-103671714D01*
X115990714Y-103766952D01*
X115943095Y-103814571D01*
X115847857Y-103862190D01*
X115466904Y-103862190D01*
X116990714Y-104338380D02*
X116419285Y-104338380D01*
X116705000Y-104338380D02*
X116705000Y-103338380D01*
X116609761Y-103481238D01*
X116514523Y-103576476D01*
X116419285Y-103624095D01*
X169648142Y-95162666D02*
X169695761Y-95210285D01*
X169743380Y-95353142D01*
X169743380Y-95448380D01*
X169695761Y-95591238D01*
X169600523Y-95686476D01*
X169505285Y-95734095D01*
X169314809Y-95781714D01*
X169171952Y-95781714D01*
X168981476Y-95734095D01*
X168886238Y-95686476D01*
X168791000Y-95591238D01*
X168743380Y-95448380D01*
X168743380Y-95353142D01*
X168791000Y-95210285D01*
X168838619Y-95162666D01*
X169743380Y-94210285D02*
X169743380Y-94781714D01*
X169743380Y-94496000D02*
X168743380Y-94496000D01*
X168886238Y-94591238D01*
X168981476Y-94686476D01*
X169029095Y-94781714D01*
X153376333Y-96750142D02*
X153328714Y-96797761D01*
X153185857Y-96845380D01*
X153090619Y-96845380D01*
X152947761Y-96797761D01*
X152852523Y-96702523D01*
X152804904Y-96607285D01*
X152757285Y-96416809D01*
X152757285Y-96273952D01*
X152804904Y-96083476D01*
X152852523Y-95988238D01*
X152947761Y-95893000D01*
X153090619Y-95845380D01*
X153185857Y-95845380D01*
X153328714Y-95893000D01*
X153376333Y-95940619D01*
X153757285Y-95940619D02*
X153804904Y-95893000D01*
X153900142Y-95845380D01*
X154138238Y-95845380D01*
X154233476Y-95893000D01*
X154281095Y-95940619D01*
X154328714Y-96035857D01*
X154328714Y-96131095D01*
X154281095Y-96273952D01*
X153709666Y-96845380D01*
X154328714Y-96845380D01*
X126369142Y-95289666D02*
X126416761Y-95337285D01*
X126464380Y-95480142D01*
X126464380Y-95575380D01*
X126416761Y-95718238D01*
X126321523Y-95813476D01*
X126226285Y-95861095D01*
X126035809Y-95908714D01*
X125892952Y-95908714D01*
X125702476Y-95861095D01*
X125607238Y-95813476D01*
X125512000Y-95718238D01*
X125464380Y-95575380D01*
X125464380Y-95480142D01*
X125512000Y-95337285D01*
X125559619Y-95289666D01*
X125464380Y-94384904D02*
X125464380Y-94861095D01*
X125940571Y-94908714D01*
X125892952Y-94861095D01*
X125845333Y-94765857D01*
X125845333Y-94527761D01*
X125892952Y-94432523D01*
X125940571Y-94384904D01*
X126035809Y-94337285D01*
X126273904Y-94337285D01*
X126369142Y-94384904D01*
X126416761Y-94432523D01*
X126464380Y-94527761D01*
X126464380Y-94765857D01*
X126416761Y-94861095D01*
X126369142Y-94908714D01*
X136882142Y-85764666D02*
X136929761Y-85812285D01*
X136977380Y-85955142D01*
X136977380Y-86050380D01*
X136929761Y-86193238D01*
X136834523Y-86288476D01*
X136739285Y-86336095D01*
X136548809Y-86383714D01*
X136405952Y-86383714D01*
X136215476Y-86336095D01*
X136120238Y-86288476D01*
X136025000Y-86193238D01*
X135977380Y-86050380D01*
X135977380Y-85955142D01*
X136025000Y-85812285D01*
X136072619Y-85764666D01*
X136405952Y-85193238D02*
X136358333Y-85288476D01*
X136310714Y-85336095D01*
X136215476Y-85383714D01*
X136167857Y-85383714D01*
X136072619Y-85336095D01*
X136025000Y-85288476D01*
X135977380Y-85193238D01*
X135977380Y-85002761D01*
X136025000Y-84907523D01*
X136072619Y-84859904D01*
X136167857Y-84812285D01*
X136215476Y-84812285D01*
X136310714Y-84859904D01*
X136358333Y-84907523D01*
X136405952Y-85002761D01*
X136405952Y-85193238D01*
X136453571Y-85288476D01*
X136501190Y-85336095D01*
X136596428Y-85383714D01*
X136786904Y-85383714D01*
X136882142Y-85336095D01*
X136929761Y-85288476D01*
X136977380Y-85193238D01*
X136977380Y-85002761D01*
X136929761Y-84907523D01*
X136882142Y-84859904D01*
X136786904Y-84812285D01*
X136596428Y-84812285D01*
X136501190Y-84859904D01*
X136453571Y-84907523D01*
X136405952Y-85002761D01*
X140009666Y-104989380D02*
X140009666Y-105703666D01*
X139962047Y-105846523D01*
X139866809Y-105941761D01*
X139723952Y-105989380D01*
X139628714Y-105989380D01*
X140485857Y-105989380D02*
X140485857Y-104989380D01*
X140866809Y-104989380D01*
X140962047Y-105037000D01*
X141009666Y-105084619D01*
X141057285Y-105179857D01*
X141057285Y-105322714D01*
X141009666Y-105417952D01*
X140962047Y-105465571D01*
X140866809Y-105513190D01*
X140485857Y-105513190D01*
X142009666Y-105989380D02*
X141438238Y-105989380D01*
X141723952Y-105989380D02*
X141723952Y-104989380D01*
X141628714Y-105132238D01*
X141533476Y-105227476D01*
X141438238Y-105275095D01*
X140112761Y-94654619D02*
X140017523Y-94607000D01*
X139922285Y-94511761D01*
X139779428Y-94368904D01*
X139684190Y-94321285D01*
X139588952Y-94321285D01*
X139636571Y-94559380D02*
X139541333Y-94511761D01*
X139446095Y-94416523D01*
X139398476Y-94226047D01*
X139398476Y-93892714D01*
X139446095Y-93702238D01*
X139541333Y-93607000D01*
X139636571Y-93559380D01*
X139827047Y-93559380D01*
X139922285Y-93607000D01*
X140017523Y-93702238D01*
X140065142Y-93892714D01*
X140065142Y-94226047D01*
X140017523Y-94416523D01*
X139922285Y-94511761D01*
X139827047Y-94559380D01*
X139636571Y-94559380D01*
X141017523Y-94559380D02*
X140446095Y-94559380D01*
X140731809Y-94559380D02*
X140731809Y-93559380D01*
X140636571Y-93702238D01*
X140541333Y-93797476D01*
X140446095Y-93845095D01*
X143922761Y-94694619D02*
X143827523Y-94647000D01*
X143732285Y-94551761D01*
X143589428Y-94408904D01*
X143494190Y-94361285D01*
X143398952Y-94361285D01*
X143446571Y-94599380D02*
X143351333Y-94551761D01*
X143256095Y-94456523D01*
X143208476Y-94266047D01*
X143208476Y-93932714D01*
X143256095Y-93742238D01*
X143351333Y-93647000D01*
X143446571Y-93599380D01*
X143637047Y-93599380D01*
X143732285Y-93647000D01*
X143827523Y-93742238D01*
X143875142Y-93932714D01*
X143875142Y-94266047D01*
X143827523Y-94456523D01*
X143732285Y-94551761D01*
X143637047Y-94599380D01*
X143446571Y-94599380D01*
X144256095Y-93694619D02*
X144303714Y-93647000D01*
X144398952Y-93599380D01*
X144637047Y-93599380D01*
X144732285Y-93647000D01*
X144779904Y-93694619D01*
X144827523Y-93789857D01*
X144827523Y-93885095D01*
X144779904Y-94027952D01*
X144208476Y-94599380D01*
X144827523Y-94599380D01*
X162504380Y-95035666D02*
X162028190Y-95369000D01*
X162504380Y-95607095D02*
X161504380Y-95607095D01*
X161504380Y-95226142D01*
X161552000Y-95130904D01*
X161599619Y-95083285D01*
X161694857Y-95035666D01*
X161837714Y-95035666D01*
X161932952Y-95083285D01*
X161980571Y-95130904D01*
X162028190Y-95226142D01*
X162028190Y-95607095D01*
X162504380Y-94083285D02*
X162504380Y-94654714D01*
X162504380Y-94369000D02*
X161504380Y-94369000D01*
X161647238Y-94464238D01*
X161742476Y-94559476D01*
X161790095Y-94654714D01*
X172156380Y-95289666D02*
X171680190Y-95623000D01*
X172156380Y-95861095D02*
X171156380Y-95861095D01*
X171156380Y-95480142D01*
X171204000Y-95384904D01*
X171251619Y-95337285D01*
X171346857Y-95289666D01*
X171489714Y-95289666D01*
X171584952Y-95337285D01*
X171632571Y-95384904D01*
X171680190Y-95480142D01*
X171680190Y-95861095D01*
X171251619Y-94908714D02*
X171204000Y-94861095D01*
X171156380Y-94765857D01*
X171156380Y-94527761D01*
X171204000Y-94432523D01*
X171251619Y-94384904D01*
X171346857Y-94337285D01*
X171442095Y-94337285D01*
X171584952Y-94384904D01*
X172156380Y-94956333D01*
X172156380Y-94337285D01*
X164536380Y-128436666D02*
X164060190Y-128770000D01*
X164536380Y-129008095D02*
X163536380Y-129008095D01*
X163536380Y-128627142D01*
X163584000Y-128531904D01*
X163631619Y-128484285D01*
X163726857Y-128436666D01*
X163869714Y-128436666D01*
X163964952Y-128484285D01*
X164012571Y-128531904D01*
X164060190Y-128627142D01*
X164060190Y-129008095D01*
X163536380Y-128103333D02*
X163536380Y-127484285D01*
X163917333Y-127817619D01*
X163917333Y-127674761D01*
X163964952Y-127579523D01*
X164012571Y-127531904D01*
X164107809Y-127484285D01*
X164345904Y-127484285D01*
X164441142Y-127531904D01*
X164488761Y-127579523D01*
X164536380Y-127674761D01*
X164536380Y-127960476D01*
X164488761Y-128055714D01*
X164441142Y-128103333D01*
X162123380Y-128309666D02*
X161647190Y-128643000D01*
X162123380Y-128881095D02*
X161123380Y-128881095D01*
X161123380Y-128500142D01*
X161171000Y-128404904D01*
X161218619Y-128357285D01*
X161313857Y-128309666D01*
X161456714Y-128309666D01*
X161551952Y-128357285D01*
X161599571Y-128404904D01*
X161647190Y-128500142D01*
X161647190Y-128881095D01*
X161456714Y-127452523D02*
X162123380Y-127452523D01*
X161075761Y-127690619D02*
X161790047Y-127928714D01*
X161790047Y-127309666D01*
X159710380Y-128436666D02*
X159234190Y-128770000D01*
X159710380Y-129008095D02*
X158710380Y-129008095D01*
X158710380Y-128627142D01*
X158758000Y-128531904D01*
X158805619Y-128484285D01*
X158900857Y-128436666D01*
X159043714Y-128436666D01*
X159138952Y-128484285D01*
X159186571Y-128531904D01*
X159234190Y-128627142D01*
X159234190Y-129008095D01*
X158710380Y-127531904D02*
X158710380Y-128008095D01*
X159186571Y-128055714D01*
X159138952Y-128008095D01*
X159091333Y-127912857D01*
X159091333Y-127674761D01*
X159138952Y-127579523D01*
X159186571Y-127531904D01*
X159281809Y-127484285D01*
X159519904Y-127484285D01*
X159615142Y-127531904D01*
X159662761Y-127579523D01*
X159710380Y-127674761D01*
X159710380Y-127912857D01*
X159662761Y-128008095D01*
X159615142Y-128055714D01*
X167330380Y-95289666D02*
X166854190Y-95623000D01*
X167330380Y-95861095D02*
X166330380Y-95861095D01*
X166330380Y-95480142D01*
X166378000Y-95384904D01*
X166425619Y-95337285D01*
X166520857Y-95289666D01*
X166663714Y-95289666D01*
X166758952Y-95337285D01*
X166806571Y-95384904D01*
X166854190Y-95480142D01*
X166854190Y-95861095D01*
X166330380Y-94432523D02*
X166330380Y-94623000D01*
X166378000Y-94718238D01*
X166425619Y-94765857D01*
X166568476Y-94861095D01*
X166758952Y-94908714D01*
X167139904Y-94908714D01*
X167235142Y-94861095D01*
X167282761Y-94813476D01*
X167330380Y-94718238D01*
X167330380Y-94527761D01*
X167282761Y-94432523D01*
X167235142Y-94384904D01*
X167139904Y-94337285D01*
X166901809Y-94337285D01*
X166806571Y-94384904D01*
X166758952Y-94432523D01*
X166711333Y-94527761D01*
X166711333Y-94718238D01*
X166758952Y-94813476D01*
X166806571Y-94861095D01*
X166901809Y-94908714D01*
X164917380Y-95035666D02*
X164441190Y-95369000D01*
X164917380Y-95607095D02*
X163917380Y-95607095D01*
X163917380Y-95226142D01*
X163965000Y-95130904D01*
X164012619Y-95083285D01*
X164107857Y-95035666D01*
X164250714Y-95035666D01*
X164345952Y-95083285D01*
X164393571Y-95130904D01*
X164441190Y-95226142D01*
X164441190Y-95607095D01*
X163917380Y-94702333D02*
X163917380Y-94035666D01*
X164917380Y-94464238D01*
X131826095Y-128738380D02*
X131826095Y-129547904D01*
X131873714Y-129643142D01*
X131921333Y-129690761D01*
X132016571Y-129738380D01*
X132207047Y-129738380D01*
X132302285Y-129690761D01*
X132349904Y-129643142D01*
X132397523Y-129547904D01*
X132397523Y-128738380D01*
X132826095Y-128833619D02*
X132873714Y-128786000D01*
X132968952Y-128738380D01*
X133207047Y-128738380D01*
X133302285Y-128786000D01*
X133349904Y-128833619D01*
X133397523Y-128928857D01*
X133397523Y-129024095D01*
X133349904Y-129166952D01*
X132778476Y-129738380D01*
X133397523Y-129738380D01*
X132461095Y-103719380D02*
X132461095Y-104528904D01*
X132508714Y-104624142D01*
X132556333Y-104671761D01*
X132651571Y-104719380D01*
X132842047Y-104719380D01*
X132937285Y-104671761D01*
X132984904Y-104624142D01*
X133032523Y-104528904D01*
X133032523Y-103719380D01*
X133413476Y-103719380D02*
X134032523Y-103719380D01*
X133699190Y-104100333D01*
X133842047Y-104100333D01*
X133937285Y-104147952D01*
X133984904Y-104195571D01*
X134032523Y-104290809D01*
X134032523Y-104528904D01*
X133984904Y-104624142D01*
X133937285Y-104671761D01*
X133842047Y-104719380D01*
X133556333Y-104719380D01*
X133461095Y-104671761D01*
X133413476Y-104624142D01*
X119467380Y-106092523D02*
X120467380Y-105425857D01*
X119467380Y-105425857D02*
X120467380Y-106092523D01*
X120467380Y-104521095D02*
X120467380Y-105092523D01*
X120467380Y-104806809D02*
X119467380Y-104806809D01*
X119610238Y-104902047D01*
X119705476Y-104997285D01*
X119753095Y-105092523D01*
X121991380Y-106973476D02*
X121991380Y-107544904D01*
X121991380Y-107259190D02*
X120991380Y-107259190D01*
X121134238Y-107354428D01*
X121229476Y-107449666D01*
X121277095Y-107544904D01*
X121086619Y-106592523D02*
X121039000Y-106544904D01*
X120991380Y-106449666D01*
X120991380Y-106211571D01*
X121039000Y-106116333D01*
X121086619Y-106068714D01*
X121181857Y-106021095D01*
X121277095Y-106021095D01*
X121419952Y-106068714D01*
X121991380Y-106640142D01*
X121991380Y-106021095D01*
X121991380Y-105592523D02*
X120991380Y-105592523D01*
X121705666Y-105259190D01*
X120991380Y-104925857D01*
X121991380Y-104925857D01*
X121991380Y-104449666D02*
X120991380Y-104449666D01*
X121467571Y-104449666D02*
X121467571Y-103878238D01*
X121991380Y-103878238D02*
X120991380Y-103878238D01*
X121324714Y-103497285D02*
X121324714Y-102973476D01*
X121991380Y-103497285D01*
X121991380Y-102973476D01*
X115633666Y-83335761D02*
X115776523Y-83383380D01*
X116014619Y-83383380D01*
X116109857Y-83335761D01*
X116157476Y-83288142D01*
X116205095Y-83192904D01*
X116205095Y-83097666D01*
X116157476Y-83002428D01*
X116109857Y-82954809D01*
X116014619Y-82907190D01*
X115824142Y-82859571D01*
X115728904Y-82811952D01*
X115681285Y-82764333D01*
X115633666Y-82669095D01*
X115633666Y-82573857D01*
X115681285Y-82478619D01*
X115728904Y-82431000D01*
X115824142Y-82383380D01*
X116062238Y-82383380D01*
X116205095Y-82431000D01*
X116538428Y-82383380D02*
X116776523Y-83383380D01*
X116967000Y-82669095D01*
X117157476Y-83383380D01*
X117395571Y-82383380D01*
X118300333Y-83383380D02*
X117728904Y-83383380D01*
X118014619Y-83383380D02*
X118014619Y-82383380D01*
X117919380Y-82526238D01*
X117824142Y-82621476D01*
X117728904Y-82669095D01*
X123261380Y-85272380D02*
X122785190Y-85605714D01*
X123261380Y-85843809D02*
X122261380Y-85843809D01*
X122261380Y-85462857D01*
X122309000Y-85367619D01*
X122356619Y-85320000D01*
X122451857Y-85272380D01*
X122594714Y-85272380D01*
X122689952Y-85320000D01*
X122737571Y-85367619D01*
X122785190Y-85462857D01*
X122785190Y-85843809D01*
X122737571Y-84843809D02*
X122737571Y-84510476D01*
X123261380Y-84367619D02*
X123261380Y-84843809D01*
X122261380Y-84843809D01*
X122261380Y-84367619D01*
X123213761Y-83986666D02*
X123261380Y-83843809D01*
X123261380Y-83605714D01*
X123213761Y-83510476D01*
X123166142Y-83462857D01*
X123070904Y-83415238D01*
X122975666Y-83415238D01*
X122880428Y-83462857D01*
X122832809Y-83510476D01*
X122785190Y-83605714D01*
X122737571Y-83796190D01*
X122689952Y-83891428D01*
X122642333Y-83939047D01*
X122547095Y-83986666D01*
X122451857Y-83986666D01*
X122356619Y-83939047D01*
X122309000Y-83891428D01*
X122261380Y-83796190D01*
X122261380Y-83558095D01*
X122309000Y-83415238D01*
X122737571Y-82986666D02*
X122737571Y-82653333D01*
X123261380Y-82510476D02*
X123261380Y-82986666D01*
X122261380Y-82986666D01*
X122261380Y-82510476D01*
X122261380Y-82224761D02*
X122261380Y-81653333D01*
X123261380Y-81939047D02*
X122261380Y-81939047D01*
X152233333Y-101322142D02*
X152185714Y-101369761D01*
X152042857Y-101417380D01*
X151947619Y-101417380D01*
X151804761Y-101369761D01*
X151709523Y-101274523D01*
X151661904Y-101179285D01*
X151614285Y-100988809D01*
X151614285Y-100845952D01*
X151661904Y-100655476D01*
X151709523Y-100560238D01*
X151804761Y-100465000D01*
X151947619Y-100417380D01*
X152042857Y-100417380D01*
X152185714Y-100465000D01*
X152233333Y-100512619D01*
X152566666Y-100417380D02*
X153185714Y-100417380D01*
X152852380Y-100798333D01*
X152995238Y-100798333D01*
X153090476Y-100845952D01*
X153138095Y-100893571D01*
X153185714Y-100988809D01*
X153185714Y-101226904D01*
X153138095Y-101322142D01*
X153090476Y-101369761D01*
X152995238Y-101417380D01*
X152709523Y-101417380D01*
X152614285Y-101369761D01*
X152566666Y-101322142D01*
X143359142Y-118657666D02*
X143406761Y-118705285D01*
X143454380Y-118848142D01*
X143454380Y-118943380D01*
X143406761Y-119086238D01*
X143311523Y-119181476D01*
X143216285Y-119229095D01*
X143025809Y-119276714D01*
X142882952Y-119276714D01*
X142692476Y-119229095D01*
X142597238Y-119181476D01*
X142502000Y-119086238D01*
X142454380Y-118943380D01*
X142454380Y-118848142D01*
X142502000Y-118705285D01*
X142549619Y-118657666D01*
X142787714Y-117800523D02*
X143454380Y-117800523D01*
X142406761Y-118038619D02*
X143121047Y-118276714D01*
X143121047Y-117657666D01*
X143359142Y-125261666D02*
X143406761Y-125309285D01*
X143454380Y-125452142D01*
X143454380Y-125547380D01*
X143406761Y-125690238D01*
X143311523Y-125785476D01*
X143216285Y-125833095D01*
X143025809Y-125880714D01*
X142882952Y-125880714D01*
X142692476Y-125833095D01*
X142597238Y-125785476D01*
X142502000Y-125690238D01*
X142454380Y-125547380D01*
X142454380Y-125452142D01*
X142502000Y-125309285D01*
X142549619Y-125261666D01*
X142454380Y-124404523D02*
X142454380Y-124595000D01*
X142502000Y-124690238D01*
X142549619Y-124737857D01*
X142692476Y-124833095D01*
X142882952Y-124880714D01*
X143263904Y-124880714D01*
X143359142Y-124833095D01*
X143406761Y-124785476D01*
X143454380Y-124690238D01*
X143454380Y-124499761D01*
X143406761Y-124404523D01*
X143359142Y-124356904D01*
X143263904Y-124309285D01*
X143025809Y-124309285D01*
X142930571Y-124356904D01*
X142882952Y-124404523D01*
X142835333Y-124499761D01*
X142835333Y-124690238D01*
X142882952Y-124785476D01*
X142930571Y-124833095D01*
X143025809Y-124880714D01*
X133199142Y-85129666D02*
X133246761Y-85177285D01*
X133294380Y-85320142D01*
X133294380Y-85415380D01*
X133246761Y-85558238D01*
X133151523Y-85653476D01*
X133056285Y-85701095D01*
X132865809Y-85748714D01*
X132722952Y-85748714D01*
X132532476Y-85701095D01*
X132437238Y-85653476D01*
X132342000Y-85558238D01*
X132294380Y-85415380D01*
X132294380Y-85320142D01*
X132342000Y-85177285D01*
X132389619Y-85129666D01*
X132294380Y-84796333D02*
X132294380Y-84129666D01*
X133294380Y-84558238D01*
X125404571Y-89741333D02*
X125404571Y-90074666D01*
X125928380Y-90074666D02*
X124928380Y-90074666D01*
X124928380Y-89598476D01*
X125928380Y-88693714D02*
X125928380Y-89265142D01*
X125928380Y-88979428D02*
X124928380Y-88979428D01*
X125071238Y-89074666D01*
X125166476Y-89169904D01*
X125214095Y-89265142D01*
X144613333Y-101036380D02*
X144280000Y-100560190D01*
X144041904Y-101036380D02*
X144041904Y-100036380D01*
X144422857Y-100036380D01*
X144518095Y-100084000D01*
X144565714Y-100131619D01*
X144613333Y-100226857D01*
X144613333Y-100369714D01*
X144565714Y-100464952D01*
X144518095Y-100512571D01*
X144422857Y-100560190D01*
X144041904Y-100560190D01*
X145184761Y-100464952D02*
X145089523Y-100417333D01*
X145041904Y-100369714D01*
X144994285Y-100274476D01*
X144994285Y-100226857D01*
X145041904Y-100131619D01*
X145089523Y-100084000D01*
X145184761Y-100036380D01*
X145375238Y-100036380D01*
X145470476Y-100084000D01*
X145518095Y-100131619D01*
X145565714Y-100226857D01*
X145565714Y-100274476D01*
X145518095Y-100369714D01*
X145470476Y-100417333D01*
X145375238Y-100464952D01*
X145184761Y-100464952D01*
X145089523Y-100512571D01*
X145041904Y-100560190D01*
X144994285Y-100655428D01*
X144994285Y-100845904D01*
X145041904Y-100941142D01*
X145089523Y-100988761D01*
X145184761Y-101036380D01*
X145375238Y-101036380D01*
X145470476Y-100988761D01*
X145518095Y-100941142D01*
X145565714Y-100845904D01*
X145565714Y-100655428D01*
X145518095Y-100560190D01*
X145470476Y-100512571D01*
X145375238Y-100464952D01*
X144740333Y-103449380D02*
X144407000Y-102973190D01*
X144168904Y-103449380D02*
X144168904Y-102449380D01*
X144549857Y-102449380D01*
X144645095Y-102497000D01*
X144692714Y-102544619D01*
X144740333Y-102639857D01*
X144740333Y-102782714D01*
X144692714Y-102877952D01*
X144645095Y-102925571D01*
X144549857Y-102973190D01*
X144168904Y-102973190D01*
X145216523Y-103449380D02*
X145407000Y-103449380D01*
X145502238Y-103401761D01*
X145549857Y-103354142D01*
X145645095Y-103211285D01*
X145692714Y-103020809D01*
X145692714Y-102639857D01*
X145645095Y-102544619D01*
X145597476Y-102497000D01*
X145502238Y-102449380D01*
X145311761Y-102449380D01*
X145216523Y-102497000D01*
X145168904Y-102544619D01*
X145121285Y-102639857D01*
X145121285Y-102877952D01*
X145168904Y-102973190D01*
X145216523Y-103020809D01*
X145311761Y-103068428D01*
X145502238Y-103068428D01*
X145597476Y-103020809D01*
X145645095Y-102973190D01*
X145692714Y-102877952D01*
X125245904Y-113355380D02*
X125245904Y-112355380D01*
X125484000Y-112355380D01*
X125626857Y-112403000D01*
X125722095Y-112498238D01*
X125769714Y-112593476D01*
X125817333Y-112783952D01*
X125817333Y-112926809D01*
X125769714Y-113117285D01*
X125722095Y-113212523D01*
X125626857Y-113307761D01*
X125484000Y-113355380D01*
X125245904Y-113355380D01*
X126769714Y-113355380D02*
X126198285Y-113355380D01*
X126484000Y-113355380D02*
X126484000Y-112355380D01*
X126388761Y-112498238D01*
X126293523Y-112593476D01*
X126198285Y-112641095D01*
%LPC*%
D14*
X171323000Y-119886000D03*
X169323000Y-119886000D03*
X167323000Y-119886000D03*
X165323000Y-119886000D03*
X163323000Y-119886000D03*
X161323000Y-119886000D03*
X159323000Y-119886000D03*
X157323000Y-119886000D03*
X157323000Y-103886000D03*
X159323000Y-103886000D03*
X161323000Y-103886000D03*
X163323000Y-103886000D03*
X165323000Y-103886000D03*
X167323000Y-103886000D03*
X169323000Y-103886000D03*
D15*
X171323000Y-103886000D03*
D16*
X122555000Y-125349000D03*
X116555000Y-125349000D03*
X119555000Y-130049000D03*
D17*
X129671000Y-82169000D03*
X132211000Y-82169000D03*
D18*
X138811000Y-130429000D03*
D17*
X169291000Y-82169000D03*
X141351000Y-130429000D03*
X166751000Y-82169000D03*
X143891000Y-130429000D03*
X164211000Y-82169000D03*
X146431000Y-130429000D03*
X161671000Y-82169000D03*
X148971000Y-130429000D03*
X159131000Y-82169000D03*
X151511000Y-130429000D03*
X156591000Y-82169000D03*
X154051000Y-130429000D03*
X152531000Y-82169000D03*
X156591000Y-130429000D03*
X149991000Y-82169000D03*
X161671000Y-130429000D03*
X147451000Y-82169000D03*
X164211000Y-130429000D03*
X144911000Y-82169000D03*
X166751000Y-130429000D03*
X142371000Y-82169000D03*
X169291000Y-130429000D03*
X139831000Y-82169000D03*
X171831000Y-130429000D03*
X137291000Y-82169000D03*
X174371000Y-130429000D03*
X134751000Y-82169000D03*
X174371000Y-82169000D03*
X171831000Y-82169000D03*
D19*
X119380000Y-93599000D03*
X119380000Y-96139000D03*
X117380000Y-96139000D03*
X117380000Y-93599000D03*
D20*
X114680000Y-88869000D03*
X114680000Y-100869000D03*
D21*
X125285500Y-130492500D03*
X125984000Y-82042000D03*
X176911000Y-96266000D03*
X177101500Y-126365000D03*
D22*
X169164000Y-99548000D03*
X169164000Y-97048000D03*
D23*
X156103000Y-96520000D03*
X158603000Y-96520000D03*
D22*
X127762000Y-96373000D03*
X127762000Y-93873000D03*
X136398000Y-90404000D03*
X136398000Y-87904000D03*
D24*
X138133000Y-105664000D03*
X135933000Y-105664000D03*
D25*
X139208000Y-96647000D03*
X141208000Y-95697000D03*
X141208000Y-97597000D03*
X143018000Y-95697000D03*
X143018000Y-97597000D03*
X145018000Y-96647000D03*
D26*
X161925000Y-99521000D03*
X161925000Y-96821000D03*
X171577000Y-99775000D03*
X171577000Y-97075000D03*
X164211000Y-126191000D03*
X164211000Y-123491000D03*
X161671000Y-123364000D03*
X161671000Y-126064000D03*
X159131000Y-126064000D03*
X159131000Y-123364000D03*
X166751000Y-99648000D03*
X166751000Y-96948000D03*
X164338000Y-99521000D03*
X164338000Y-96821000D03*
D27*
X129565000Y-124714000D03*
D28*
X135865000Y-124714000D03*
X135865000Y-122414000D03*
X135865000Y-127014000D03*
D29*
X130523000Y-93599000D03*
X130523000Y-94869000D03*
X130523000Y-96139000D03*
X130523000Y-97409000D03*
X130523000Y-98679000D03*
X130523000Y-99949000D03*
X130523000Y-101219000D03*
X130523000Y-102489000D03*
X135923000Y-102489000D03*
X135923000Y-101219000D03*
X135923000Y-99949000D03*
X135923000Y-98679000D03*
X135923000Y-97409000D03*
X135923000Y-96139000D03*
X135923000Y-94869000D03*
X135923000Y-93599000D03*
D30*
X125476000Y-103333000D03*
D31*
X125476000Y-105283000D03*
D30*
X125476000Y-107233000D03*
D32*
X113728500Y-85780000D03*
X113728500Y-81280000D03*
X120228500Y-85780000D03*
X120228500Y-81280000D03*
D33*
X158497000Y-99822000D03*
X155447000Y-99822000D03*
D34*
X140081000Y-117093000D03*
X140081000Y-120143000D03*
X140081000Y-126747000D03*
X140081000Y-123697000D03*
X133096000Y-90298000D03*
X133096000Y-87248000D03*
D35*
X127626000Y-89408000D03*
X123326000Y-89408000D03*
D36*
X142066000Y-100457000D03*
X139366000Y-100457000D03*
X139366000Y-102870000D03*
X142066000Y-102870000D03*
D37*
X122585480Y-116967000D03*
X129382520Y-116967000D03*
M02*
