M48
;DRILL file {KiCad (2017-11-08 revision cd21218)-HEAD} date Wed Jan 31 17:37:25 2018
;FORMAT={-:-/ absolute / metric / decimal}
FMAT,2
METRIC,TZ
T1C0.300
T2C0.400
T3C0.800
T4C0.810
T5C1.000
T6C1.100
T7C2.300
%
G90
G05
M71
T1
X122.605Y-118.144
X145.165Y-91.825
X133.885Y-125.664
X130.125Y-114.384
X156.445Y-84.304
X145.165Y-103.105
X156.445Y-88.064
X148.925Y-106.864
X148.925Y-110.624
X145.165Y-118.144
X115.085Y-129.424
X118.845Y-84.304
X148.925Y-114.384
X156.445Y-110.624
X115.085Y-121.904
X167.725Y-95.584
X137.645Y-88.064
X118.845Y-106.864
X126.365Y-91.825
X126.365Y-110.624
X118.845Y-118.144
X115.085Y-84.304
X152.685Y-129.424
X126.365Y-125.664
X126.365Y-114.384
X148.925Y-121.904
X152.685Y-84.304
X118.845Y-103.105
X152.685Y-88.064
X145.165Y-106.864
X145.165Y-110.624
X137.645Y-118.144
X156.445Y-125.664
X145.165Y-114.384
X152.685Y-95.584
X130.125Y-88.064
X156.445Y-118.144
X115.085Y-106.864
X115.085Y-91.825
X122.605Y-110.624
X115.085Y-118.144
X133.885Y-129.424
X122.605Y-114.384
X156.445Y-121.904
X137.645Y-84.304
X148.925Y-84.304
X141.405Y-121.904
X148.925Y-99.344
X148.925Y-88.064
X141.405Y-106.864
X141.405Y-110.624
X130.125Y-118.144
X152.685Y-125.664
X141.405Y-114.384
X126.365Y-95.584
X118.845Y-88.064
X152.685Y-103.105
X167.725Y-88.064
X152.685Y-118.144
X118.845Y-110.624
X160.205Y-114.384
X130.125Y-129.424
X118.845Y-114.384
X133.885Y-84.304
X152.685Y-121.904
X145.165Y-84.304
X122.605Y-121.904
X122.605Y-99.344
X145.165Y-88.064
X137.645Y-106.864
X141.405Y-91.825
X137.645Y-110.624
X126.365Y-118.144
X115.085Y-95.584
X137.645Y-125.664
X137.645Y-114.384
X160.205Y-84.304
X152.685Y-110.624
X148.925Y-103.105
X163.965Y-88.064
X115.085Y-110.624
X148.925Y-118.144
X152.685Y-114.384
X122.605Y-129.424
X115.085Y-114.384
X130.125Y-84.304
X141.405Y-84.304
X118.845Y-121.904
X118.845Y-99.344
X141.405Y-88.064
X130.125Y-106.864
X137.645Y-91.825
X130.125Y-110.624
T2
X123.571Y-93.218
X132.461Y-94.996
X132.461Y-96.139
X137.668Y-102.743
X137.779Y-100.219
X137.795Y-96.647
X151.13Y-128.016
X151.511Y-90.678
X153.416Y-99.695
X154.051Y-126.492
X156.591Y-115.443
X156.605Y-106.934
X157.367Y-94.474
X158.242Y-89.789
X158.369Y-117.983
X160.243Y-106.553
X161.29Y-116.713
X161.417Y-101.219
X161.544Y-87.122
X162.306Y-117.729
X162.404Y-91.553
X163.338Y-106.299
X163.576Y-92.583
X164.197Y-118.267
X164.592Y-106.299
X165.016Y-117.466
X165.1Y-94.869
X166.497Y-117.475
X166.624Y-124.333
X166.629Y-116.064
X169.178Y-117.475
X169.291Y-90.805
X169.291Y-101.092
X169.529Y-106.188
X169.545Y-113.411
X170.18Y-107.442
X171.323Y-108.585
X172.72Y-101.219
X172.974Y-127.381
T3
X129.671Y-82.169
X132.211Y-82.169
X134.751Y-82.169
X137.291Y-82.169
X138.811Y-130.429
X139.831Y-82.169
X141.351Y-130.429
X142.371Y-82.169
X143.891Y-130.429
X144.911Y-82.169
X146.431Y-130.429
X147.451Y-82.169
X148.971Y-130.429
X149.991Y-82.169
X151.511Y-130.429
X152.531Y-82.169
X154.051Y-130.429
X156.591Y-82.169
X156.591Y-130.429
X159.131Y-82.169
X161.671Y-82.169
X161.671Y-130.429
X164.211Y-82.169
X164.211Y-130.429
X166.751Y-82.169
X166.751Y-130.429
X169.291Y-82.169
X169.291Y-130.429
X171.831Y-82.169
X171.831Y-130.429
X174.371Y-82.169
X174.371Y-130.429
T4
X117.38Y-93.599
X117.38Y-96.139
X119.38Y-93.599
X119.38Y-96.139
T6
X113.728Y-81.28
X113.728Y-85.78
X120.228Y-81.28
X120.228Y-85.78
T7
X114.68Y-88.869
X114.68Y-100.869
T5
X116.555Y-124.349G85X116.555Y-126.349
G05
X118.555Y-130.049G85X120.555Y-130.049
G05
X122.555Y-124.349G85X122.555Y-126.349
G05
T0
M30
