G04 #@! TF.GenerationSoftware,KiCad,Pcbnew,(2017-11-08 revision cd21218)-HEAD*
G04 #@! TF.CreationDate,2018-02-23T18:24:02+02:00*
G04 #@! TF.ProjectId,pro_mini,70726F5F6D696E692E6B696361645F70,rev?*
G04 #@! TF.SameCoordinates,Original*
G04 #@! TF.FileFunction,Soldermask,Top*
G04 #@! TF.FilePolarity,Negative*
%FSLAX46Y46*%
G04 Gerber Fmt 4.6, Leading zero omitted, Abs format (unit mm)*
G04 Created by KiCad (PCBNEW (2017-11-08 revision cd21218)-HEAD) date Fri Feb 23 18:24:02 2018*
%MOMM*%
%LPD*%
G01*
G04 APERTURE LIST*
%ADD10C,3.600000*%
%ADD11C,2.100000*%
%ADD12O,1.900000X2.400000*%
%ADD13O,1.901140X2.599640*%
%ADD14R,2.350000X2.900000*%
%ADD15R,2.900000X2.350000*%
%ADD16R,1.650000X1.900000*%
%ADD17R,1.300000X1.600000*%
%ADD18R,3.800000X2.000000*%
%ADD19R,1.900000X1.700000*%
%ADD20R,1.960000X1.050000*%
%ADD21R,1.750000X1.750000*%
%ADD22O,1.750000X1.750000*%
G04 APERTURE END LIST*
D10*
X147500000Y-115500000D03*
X137000000Y-98500000D03*
D11*
X141980000Y-117620000D03*
X139440000Y-117620000D03*
X136900000Y-117620000D03*
X134360000Y-117620000D03*
X131820000Y-117620000D03*
X129280000Y-117620000D03*
X126740000Y-117620000D03*
X124200000Y-117620000D03*
X121660000Y-117620000D03*
X119120000Y-117620000D03*
X116580000Y-117620000D03*
X114040000Y-117620000D03*
X111500000Y-117620000D03*
X141980000Y-115080000D03*
X139440000Y-115080000D03*
X136900000Y-115080000D03*
X134360000Y-115080000D03*
X131820000Y-115080000D03*
X129280000Y-115080000D03*
X126740000Y-115080000D03*
X124200000Y-115080000D03*
X121660000Y-115080000D03*
X119120000Y-115080000D03*
X116580000Y-115080000D03*
X114040000Y-115080000D03*
X111500000Y-115080000D03*
X141980000Y-112540000D03*
X139440000Y-112540000D03*
X136900000Y-112540000D03*
X134360000Y-112540000D03*
X131820000Y-112540000D03*
X129280000Y-112540000D03*
X126740000Y-112540000D03*
X124200000Y-112540000D03*
X121660000Y-112540000D03*
X119120000Y-112540000D03*
X116580000Y-112540000D03*
X114040000Y-112540000D03*
X111500000Y-112540000D03*
X141980000Y-110000000D03*
X139440000Y-110000000D03*
X136900000Y-110000000D03*
X134360000Y-110000000D03*
X131820000Y-110000000D03*
X129280000Y-110000000D03*
X126740000Y-110000000D03*
X124200000Y-110000000D03*
X121660000Y-110000000D03*
X119120000Y-110000000D03*
X116580000Y-110000000D03*
X114040000Y-110000000D03*
X111500000Y-110000000D03*
D12*
X150856000Y-91524000D03*
X150856000Y-94064000D03*
X153396000Y-91524000D03*
X153396000Y-94064000D03*
X155936000Y-91524000D03*
X155936000Y-94064000D03*
X158476000Y-91524000D03*
X158476000Y-94064000D03*
D13*
X113831001Y-106785001D03*
X116371001Y-106785001D03*
X118911001Y-106785001D03*
X121451001Y-106785001D03*
X123991001Y-106785001D03*
X126531001Y-106785001D03*
X129071001Y-106785001D03*
X131611001Y-106785001D03*
X134151001Y-106785001D03*
X136691001Y-106785001D03*
X139231001Y-106785001D03*
X141771001Y-106785001D03*
X141771001Y-91545001D03*
X139231001Y-91545001D03*
X136691001Y-91545001D03*
X134151001Y-91545001D03*
X131611001Y-91545001D03*
X129071001Y-91545001D03*
X126531001Y-91545001D03*
X123991001Y-91545001D03*
X121451001Y-91545001D03*
X118911001Y-91545001D03*
X116371001Y-91545001D03*
X113831001Y-91545001D03*
D14*
X117525000Y-96000000D03*
X114475000Y-96000000D03*
D15*
X157000000Y-97475000D03*
X157000000Y-100525000D03*
D16*
X154000000Y-97750000D03*
X154000000Y-100250000D03*
D15*
X124000000Y-102525000D03*
X124000000Y-99475000D03*
D17*
X120650000Y-103000000D03*
X117350000Y-103000000D03*
D18*
X114000000Y-102200000D03*
X114000000Y-99800000D03*
D19*
X129650000Y-94500000D03*
X132350000Y-94500000D03*
X124150000Y-94500000D03*
X126850000Y-94500000D03*
D20*
X120350000Y-100950000D03*
X120350000Y-100000000D03*
X120350000Y-99050000D03*
X117650000Y-99050000D03*
X117650000Y-100950000D03*
D21*
X111500000Y-96500000D03*
D22*
X111500000Y-94500000D03*
M02*
