G04 #@! TF.GenerationSoftware,KiCad,Pcbnew,no-vcs-found-f7632d5~58~ubuntu16.04.1*
G04 #@! TF.CreationDate,2017-03-20T19:09:59+02:00*
G04 #@! TF.ProjectId,serial_gw_ATSAMD21E,73657269616C5F67775F415453414D44,rev?*
G04 #@! TF.FileFunction,Copper,L1,Top,Signal*
G04 #@! TF.FilePolarity,Positive*
%FSLAX46Y46*%
G04 Gerber Fmt 4.6, Leading zero omitted, Abs format (unit mm)*
G04 Created by KiCad (PCBNEW no-vcs-found-f7632d5~58~ubuntu16.04.1) date Mon Mar 20 19:09:59 2017*
%MOMM*%
%LPD*%
G01*
G04 APERTURE LIST*
%ADD10C,0.100000*%
%ADD11C,0.800000*%
%ADD12R,0.400000X0.600000*%
%ADD13R,0.600000X0.700000*%
%ADD14R,1.900000X1.300000*%
%ADD15R,1.000000X1.000000*%
%ADD16R,0.750000X1.200000*%
%ADD17R,0.500000X0.600000*%
%ADD18R,1.200000X0.750000*%
%ADD19C,2.999740*%
%ADD20C,1.501140*%
%ADD21R,0.600000X0.500000*%
%ADD22R,2.500000X1.270000*%
%ADD23R,0.900000X1.200000*%
%ADD24R,1.200000X0.900000*%
%ADD25R,2.000000X1.600000*%
%ADD26R,0.550000X1.600000*%
%ADD27R,1.600000X0.550000*%
%ADD28R,0.900000X0.800000*%
%ADD29C,0.750000*%
%ADD30R,2.000000X3.000000*%
%ADD31R,1.000000X1.500000*%
%ADD32R,3.500000X2.400000*%
%ADD33C,0.300000*%
%ADD34C,0.400000*%
%ADD35C,0.500000*%
%ADD36C,0.254000*%
G04 APERTURE END LIST*
D10*
D11*
X107800000Y-91900000D03*
X105800000Y-91900000D03*
X107800000Y-89900000D03*
X105800000Y-89900000D03*
X107800000Y-87900000D03*
X105800000Y-87900000D03*
X107800000Y-85900000D03*
X105800000Y-85900000D03*
X107800000Y-83900000D03*
X105800000Y-83900000D03*
D12*
X142150000Y-86100000D03*
X141250000Y-86100000D03*
X142300000Y-95300000D03*
X141400000Y-95300000D03*
X142300000Y-90800000D03*
X141400000Y-90800000D03*
D13*
X142400000Y-88600000D03*
X141300000Y-88600000D03*
X142400000Y-93000000D03*
X141300000Y-93000000D03*
X142400000Y-97500000D03*
X141300000Y-97500000D03*
D14*
X138600000Y-91850000D03*
X138600000Y-86350000D03*
X135400000Y-86350000D03*
X135400000Y-91850000D03*
D15*
X120700000Y-97300000D03*
D16*
X132600000Y-87550000D03*
X132600000Y-85650000D03*
D17*
X132600000Y-90400000D03*
X132600000Y-89300000D03*
X119900000Y-80400000D03*
X119900000Y-81500000D03*
D18*
X138800000Y-82500000D03*
X140700000Y-82500000D03*
D19*
X107135120Y-81044860D03*
X107135120Y-94760860D03*
D20*
X109802120Y-84600860D03*
X109802120Y-87140860D03*
X109802120Y-89172860D03*
X109802120Y-91712860D03*
D16*
X132000000Y-81750000D03*
X132000000Y-83650000D03*
X126500000Y-95200000D03*
X126500000Y-97100000D03*
X128400000Y-95200000D03*
X128400000Y-97100000D03*
D21*
X131000000Y-79300000D03*
X132100000Y-79300000D03*
D17*
X132600000Y-91700000D03*
X132600000Y-92800000D03*
D18*
X114650000Y-86000000D03*
X112750000Y-86000000D03*
X119200000Y-85900000D03*
X117300000Y-85900000D03*
D22*
X116860000Y-96800000D03*
X116860000Y-94300000D03*
X116860000Y-91760000D03*
X112860000Y-91760000D03*
X112860000Y-94300000D03*
X112860000Y-96840000D03*
D23*
X112200000Y-80500000D03*
X112200000Y-82700000D03*
X124100000Y-97300000D03*
X124100000Y-95100000D03*
X136500000Y-78600000D03*
X136500000Y-80800000D03*
D24*
X119300000Y-87700000D03*
X117100000Y-87700000D03*
D25*
X131600000Y-96000000D03*
X137000000Y-96000000D03*
D26*
X128950000Y-92550000D03*
X128150000Y-92550000D03*
X127350000Y-92550000D03*
X126550000Y-92550000D03*
X125750000Y-92550000D03*
X124950000Y-92550000D03*
X124150000Y-92550000D03*
X123350000Y-92550000D03*
D27*
X121900000Y-91100000D03*
X121900000Y-90300000D03*
X121900000Y-89500000D03*
X121900000Y-88700000D03*
X121900000Y-87900000D03*
X121900000Y-87100000D03*
X121900000Y-86300000D03*
X121900000Y-85500000D03*
D26*
X123350000Y-84050000D03*
X124150000Y-84050000D03*
X124950000Y-84050000D03*
X125750000Y-84050000D03*
X126550000Y-84050000D03*
X127350000Y-84050000D03*
X128150000Y-84050000D03*
X128950000Y-84050000D03*
D27*
X130400000Y-85500000D03*
X130400000Y-86300000D03*
X130400000Y-87100000D03*
X130400000Y-87900000D03*
X130400000Y-88700000D03*
X130400000Y-89500000D03*
X130400000Y-90300000D03*
X130400000Y-91100000D03*
D28*
X140750000Y-79550000D03*
X138750000Y-80500000D03*
X138750000Y-78600000D03*
D29*
X116000000Y-82350000D03*
D10*
G36*
X117000000Y-81975000D02*
X116500000Y-82725000D01*
X115500000Y-82725000D01*
X115000000Y-81975000D01*
X117000000Y-81975000D01*
X117000000Y-81975000D01*
G37*
D30*
X116000000Y-80500000D03*
D31*
X117500000Y-83460000D03*
X116000000Y-83460000D03*
X114500000Y-83460000D03*
D32*
X128000000Y-80600000D03*
X122800000Y-80600000D03*
D11*
X111800000Y-84349990D03*
X141900000Y-78400000D03*
X120200000Y-82600000D03*
X126105237Y-85545388D03*
X125404656Y-94650011D03*
X132715079Y-97490477D03*
X141400010Y-81200000D03*
X110300000Y-96800000D03*
X112900000Y-88300000D03*
X129800000Y-95300000D03*
X121683953Y-94386049D03*
X126600010Y-91049988D03*
X122800000Y-95000000D03*
X129900000Y-94200000D03*
X120700000Y-93600000D03*
X127290580Y-90193752D03*
X128427722Y-89692081D03*
X133626454Y-94214355D03*
X133599972Y-89408000D03*
X128399392Y-88592434D03*
X128976655Y-86367281D03*
X133400000Y-84300000D03*
X134600010Y-79899988D03*
X127276644Y-87125452D03*
X125140569Y-86857452D03*
X124096822Y-88775902D03*
X124128650Y-87676351D03*
X123924706Y-86595410D03*
X128332921Y-87432544D03*
X111500000Y-78600000D03*
X121050010Y-83680213D03*
X122134345Y-83865260D03*
D33*
X112689990Y-84349990D02*
X111800000Y-84349990D01*
X112750000Y-84410000D02*
X112689990Y-84349990D01*
X132600000Y-89300000D02*
X132600000Y-88700000D01*
X132600000Y-88700000D02*
X132699999Y-88600001D01*
X132699999Y-88600001D02*
X133335001Y-88600001D01*
X133335001Y-88600001D02*
X133600000Y-88335002D01*
X133600000Y-88335002D02*
X133600000Y-85848000D01*
X133600000Y-85848000D02*
X133402000Y-85650000D01*
X133402000Y-85650000D02*
X132600000Y-85650000D01*
X141900000Y-78400000D02*
X141000000Y-78400000D01*
X141000000Y-78400000D02*
X140750000Y-78650000D01*
X140750000Y-78650000D02*
X140750000Y-79550000D01*
X140750000Y-79550000D02*
X141500000Y-79550000D01*
X141500000Y-79550000D02*
X143150001Y-81200001D01*
X143150001Y-81200001D02*
X143150001Y-84050001D01*
X140700000Y-82500000D02*
X141600000Y-82500000D01*
X141600000Y-82500000D02*
X143150001Y-84050001D01*
X143150001Y-84050001D02*
X143150001Y-89310001D01*
X143150001Y-89310001D02*
X143060001Y-89400001D01*
X141300000Y-87950000D02*
X141300000Y-88600000D01*
X141550000Y-89500000D02*
X141300000Y-89250000D01*
X141300000Y-89250000D02*
X141300000Y-88600000D01*
X128150000Y-84050000D02*
X128150000Y-82950000D01*
X128150000Y-82950000D02*
X128500000Y-82600000D01*
X128500000Y-82600000D02*
X131300000Y-82600000D01*
X131300000Y-82600000D02*
X132000000Y-81900000D01*
X132000000Y-81900000D02*
X132000000Y-81750000D01*
X119900000Y-82300000D02*
X120200000Y-82600000D01*
X119900000Y-81500000D02*
X119900000Y-82300000D01*
X126105237Y-85545388D02*
X126145388Y-85545388D01*
X126145388Y-85545388D02*
X126350002Y-85750002D01*
X126350002Y-85750002D02*
X126350002Y-86849998D01*
X125750000Y-87450000D02*
X125750000Y-92550000D01*
X126350002Y-86849998D02*
X125750000Y-87450000D01*
X141550000Y-89500000D02*
X142960002Y-89500000D01*
X142960002Y-89500000D02*
X143060001Y-89400001D01*
X143150001Y-93710001D02*
X143150001Y-94000000D01*
X143150001Y-94000000D02*
X141650000Y-94000000D01*
X141650000Y-94000000D02*
X141300000Y-93650000D01*
X141300000Y-93650000D02*
X141300000Y-93000000D01*
X132600000Y-85650000D02*
X133275000Y-85650000D01*
X133275000Y-85650000D02*
X133925000Y-85000000D01*
X133925000Y-85000000D02*
X139660002Y-85000000D01*
X139660002Y-85000000D02*
X140400000Y-85739998D01*
X140400000Y-85739998D02*
X140400000Y-87050000D01*
X140400000Y-87050000D02*
X141300000Y-87950000D01*
X126500000Y-97100000D02*
X128400000Y-97100000D01*
X109802120Y-91712860D02*
X112812860Y-91712860D01*
X112812860Y-91712860D02*
X112860000Y-91760000D01*
X112860000Y-94300000D02*
X112860000Y-91760000D01*
X143150001Y-93710001D02*
X143150001Y-98210001D01*
X143150001Y-98210001D02*
X143060001Y-98300001D01*
X143060001Y-98300001D02*
X141450001Y-98300001D01*
X141450001Y-98300001D02*
X141300000Y-98150000D01*
X141300000Y-98150000D02*
X141300000Y-97500000D01*
X143060001Y-89400001D02*
X143150001Y-89490001D01*
X143150001Y-89490001D02*
X143150001Y-93710001D01*
X117300000Y-85900000D02*
X116900000Y-85900000D01*
X116900000Y-85900000D02*
X115800000Y-87000000D01*
X113000000Y-87000000D02*
X112750000Y-86750000D01*
X115800000Y-87000000D02*
X113000000Y-87000000D01*
X112750000Y-86750000D02*
X112750000Y-86000000D01*
X128150000Y-84050000D02*
X128150000Y-85050000D01*
X128150000Y-85050000D02*
X126350002Y-86849998D01*
X132100000Y-79300000D02*
X132100000Y-81650000D01*
X132100000Y-81650000D02*
X132000000Y-81750000D01*
X132600000Y-92800000D02*
X132600000Y-94389998D01*
X132600000Y-94389998D02*
X134100000Y-95889998D01*
X134100000Y-95889998D02*
X134100000Y-96105556D01*
X134100000Y-96105556D02*
X132715079Y-97490477D01*
X112750000Y-86000000D02*
X112750000Y-84410000D01*
X112750000Y-84410000D02*
X113700000Y-83460000D01*
X113700000Y-83460000D02*
X114500000Y-83460000D01*
X125750000Y-92550000D02*
X125750000Y-94304667D01*
X125750000Y-94304667D02*
X125404656Y-94650011D01*
X134205556Y-96000000D02*
X132715079Y-97490477D01*
X137000000Y-96000000D02*
X134205556Y-96000000D01*
D34*
X132260002Y-78100000D02*
X133700000Y-79539998D01*
X120439998Y-78100000D02*
X132260002Y-78100000D01*
X117500000Y-83460000D02*
X117500000Y-81039998D01*
X133700000Y-79539998D02*
X133700000Y-80782023D01*
X117500000Y-81039998D02*
X120439998Y-78100000D01*
X133700000Y-80782023D02*
X133717977Y-80800000D01*
X138800000Y-82500000D02*
X138800000Y-81200000D01*
X138800000Y-81200000D02*
X141400010Y-81200000D01*
X132000000Y-83650000D02*
X132675000Y-83650000D01*
X133717977Y-82607023D02*
X133717977Y-80800000D01*
X132675000Y-83650000D02*
X133717977Y-82607023D01*
X128950000Y-84050000D02*
X131600000Y-84050000D01*
X131600000Y-84050000D02*
X132000000Y-83650000D01*
X133717977Y-80800000D02*
X136500000Y-80800000D01*
X124100000Y-97300000D02*
X124100000Y-97150000D01*
X125400000Y-96300000D02*
X126500000Y-95200000D01*
X124950000Y-96300000D02*
X125400000Y-96300000D01*
X124100000Y-97150000D02*
X124950000Y-96300000D01*
X110340000Y-96840000D02*
X110300000Y-96800000D01*
X112860000Y-96840000D02*
X110340000Y-96840000D01*
X113500000Y-87700000D02*
X112900000Y-88300000D01*
X117100000Y-87700000D02*
X113500000Y-87700000D01*
X129700000Y-95200000D02*
X129800000Y-95300000D01*
X128400000Y-95200000D02*
X129700000Y-95200000D01*
X117500000Y-83460000D02*
X118300000Y-83460000D01*
X118300000Y-83460000D02*
X119200000Y-84360000D01*
X119200000Y-84360000D02*
X119200000Y-85900000D01*
X117100000Y-87700000D02*
X117400000Y-87700000D01*
X117400000Y-87700000D02*
X119200000Y-85900000D01*
X127350000Y-92550000D02*
X126550000Y-92550000D01*
X138750000Y-80500000D02*
X138750000Y-82450000D01*
X138750000Y-82450000D02*
X138800000Y-82500000D01*
X138750000Y-80500000D02*
X136800000Y-80500000D01*
X136800000Y-80500000D02*
X136500000Y-80800000D01*
X128400000Y-95200000D02*
X127725000Y-95200000D01*
X127725000Y-95200000D02*
X127350000Y-94825000D01*
X127350000Y-94825000D02*
X127350000Y-92550000D01*
X126550000Y-92550000D02*
X126550000Y-95150000D01*
X126550000Y-95150000D02*
X126500000Y-95200000D01*
D33*
X128000000Y-80600000D02*
X126600000Y-80600000D01*
X126600000Y-80600000D02*
X124150000Y-83050000D01*
X124150000Y-83050000D02*
X124150000Y-84050000D01*
X131000000Y-79300000D02*
X129300000Y-79300000D01*
X129300000Y-79300000D02*
X128000000Y-80600000D01*
X130400000Y-88700000D02*
X131450000Y-88700000D01*
X131450000Y-88700000D02*
X132600000Y-87550000D01*
X132600000Y-90563000D02*
X132739000Y-90424000D01*
X132739000Y-90424000D02*
X136874000Y-90424000D01*
X136874000Y-90424000D02*
X138300000Y-91850000D01*
X138300000Y-91850000D02*
X138600000Y-91850000D01*
X132600000Y-90400000D02*
X132500000Y-90300000D01*
X132500000Y-90300000D02*
X130400000Y-90300000D01*
X134150000Y-91850000D02*
X135400000Y-91850000D01*
X134086991Y-91913009D02*
X134150000Y-91850000D01*
X132600000Y-91700000D02*
X132813009Y-91913009D01*
X132813009Y-91913009D02*
X134086991Y-91913009D01*
X130400000Y-91100000D02*
X132000000Y-91100000D01*
X132000000Y-91100000D02*
X132600000Y-91700000D01*
X142400000Y-97500000D02*
X142400000Y-95400000D01*
X142400000Y-95400000D02*
X142300000Y-95300000D01*
X142400000Y-93000000D02*
X142400000Y-90900000D01*
X142400000Y-90900000D02*
X142300000Y-90800000D01*
X142400000Y-88600000D02*
X142400000Y-86350000D01*
X142400000Y-86350000D02*
X142150000Y-86100000D01*
X128150000Y-92550000D02*
X128150000Y-91464998D01*
X128150000Y-91464998D02*
X127734990Y-91049988D01*
X127734990Y-91049988D02*
X126600010Y-91049988D01*
X119270002Y-96800000D02*
X121683953Y-94386049D01*
X116860000Y-96800000D02*
X119270002Y-96800000D01*
X116860000Y-91760000D02*
X120260000Y-91760000D01*
X120260000Y-91760000D02*
X122800000Y-94300000D01*
X122800000Y-94300000D02*
X122800000Y-95000000D01*
X131600000Y-96000000D02*
X131600000Y-94900000D01*
X131600000Y-94900000D02*
X130900000Y-94200000D01*
X130900000Y-94200000D02*
X129900000Y-94200000D01*
X124100000Y-95100000D02*
X124100000Y-94950000D01*
X124100000Y-94950000D02*
X124050000Y-95000000D01*
X124050000Y-95000000D02*
X124000000Y-95000000D01*
X122800000Y-95000000D02*
X124000000Y-95000000D01*
X124000000Y-95000000D02*
X124100000Y-95100000D01*
X124150000Y-92550000D02*
X124150000Y-95050000D01*
X124150000Y-95050000D02*
X124100000Y-95100000D01*
X128950000Y-91416455D02*
X127733545Y-90200000D01*
X128950000Y-92550000D02*
X128950000Y-91416455D01*
X127733545Y-90200000D02*
X127296828Y-90200000D01*
X127296828Y-90200000D02*
X127290580Y-90193752D01*
X116860000Y-94300000D02*
X120000000Y-94300000D01*
X120000000Y-94300000D02*
X120700000Y-93600000D01*
X121900000Y-90300000D02*
X120000000Y-90300000D01*
X119000000Y-89300000D02*
X112400000Y-89300000D01*
X120000000Y-90300000D02*
X119000000Y-89300000D01*
X112400000Y-89300000D02*
X110240860Y-87140860D01*
X110240860Y-87140860D02*
X109802120Y-87140860D01*
X109802120Y-89172860D02*
X110972860Y-89172860D01*
X110972860Y-89172860D02*
X111723429Y-89923429D01*
X111723429Y-89923429D02*
X118623429Y-89923429D01*
X118623429Y-89923429D02*
X119800000Y-91100000D01*
X119800000Y-91100000D02*
X121900000Y-91100000D01*
X133812111Y-94400012D02*
X133626454Y-94214355D01*
X140900000Y-95300000D02*
X140000012Y-94400012D01*
X141400000Y-95300000D02*
X140900000Y-95300000D01*
X140000012Y-94400012D02*
X133812111Y-94400012D01*
X128619803Y-89500000D02*
X128427722Y-89692081D01*
X130400000Y-89500000D02*
X128619803Y-89500000D01*
X141400000Y-90800000D02*
X141400000Y-90700000D01*
X141400000Y-90700000D02*
X140108000Y-89408000D01*
X140108000Y-89408000D02*
X133599972Y-89408000D01*
X129091826Y-87900000D02*
X128399392Y-88592434D01*
X130400000Y-87900000D02*
X129091826Y-87900000D01*
X141250000Y-85500000D02*
X141250000Y-86100000D01*
X133400000Y-84300000D02*
X140050000Y-84300000D01*
X140050000Y-84300000D02*
X141250000Y-85500000D01*
X129043936Y-86300000D02*
X128976655Y-86367281D01*
X130400000Y-86300000D02*
X129043936Y-86300000D01*
X135750000Y-78600000D02*
X134600010Y-79749990D01*
X134600010Y-79749990D02*
X134600010Y-79899988D01*
X136500000Y-78600000D02*
X135750000Y-78600000D01*
X130400000Y-85500000D02*
X128633545Y-85500000D01*
X128633545Y-85500000D02*
X127300000Y-86833545D01*
X127300000Y-86833545D02*
X127300000Y-87102096D01*
X127300000Y-87102096D02*
X127276644Y-87125452D01*
X138750000Y-78600000D02*
X136500000Y-78600000D01*
X123562918Y-89500000D02*
X123688821Y-89625903D01*
X125140569Y-88990157D02*
X125140569Y-86857452D01*
X123688821Y-89625903D02*
X124504823Y-89625903D01*
X121900000Y-89500000D02*
X123562918Y-89500000D01*
X124504823Y-89625903D02*
X125140569Y-88990157D01*
X119300000Y-87700000D02*
X119300000Y-88450000D01*
X119300000Y-88450000D02*
X120350000Y-89500000D01*
X120350000Y-89500000D02*
X121900000Y-89500000D01*
X121900000Y-88700000D02*
X124020920Y-88700000D01*
X124020920Y-88700000D02*
X124096822Y-88775902D01*
X123905001Y-87900000D02*
X124128650Y-87676351D01*
X121900000Y-87900000D02*
X123905001Y-87900000D01*
X123420116Y-87100000D02*
X123924706Y-86595410D01*
X121900000Y-87100000D02*
X123420116Y-87100000D01*
X128530119Y-87235346D02*
X128332921Y-87432544D01*
X129358297Y-87235346D02*
X128530119Y-87235346D01*
X129493643Y-87100000D02*
X129358297Y-87235346D01*
X130400000Y-87100000D02*
X129493643Y-87100000D01*
X119900000Y-80400000D02*
X122600000Y-80400000D01*
X122600000Y-80400000D02*
X122800000Y-80600000D01*
X123350000Y-84050000D02*
X123350000Y-81150000D01*
X123350000Y-81150000D02*
X122800000Y-80600000D01*
D35*
X111500000Y-78600000D02*
X111500000Y-79800000D01*
X111500000Y-79800000D02*
X112200000Y-80500000D01*
X116000000Y-83460000D02*
X116000000Y-84875000D01*
X116000000Y-84875000D02*
X114875000Y-86000000D01*
X114875000Y-86000000D02*
X114650000Y-86000000D01*
X116000000Y-83460000D02*
X116000000Y-82350000D01*
X116000000Y-83460000D02*
X116000000Y-80500000D01*
X112200000Y-80500000D02*
X116000000Y-80500000D01*
D33*
X121900000Y-86300000D02*
X120800000Y-86300000D01*
X120800000Y-86300000D02*
X120600000Y-86100000D01*
X120600000Y-86100000D02*
X120600000Y-84130223D01*
X120600000Y-84130223D02*
X121050010Y-83680213D01*
X121900000Y-85500000D02*
X121900000Y-84099605D01*
X121900000Y-84099605D02*
X122134345Y-83865260D01*
D35*
X109802120Y-84600860D02*
X111702980Y-82700000D01*
X111702980Y-82700000D02*
X112200000Y-82700000D01*
D36*
G36*
X133172020Y-95027469D02*
X133338609Y-95100250D01*
X133516162Y-95139287D01*
X133697917Y-95143095D01*
X133876949Y-95111526D01*
X133965932Y-95077012D01*
X135487139Y-95077012D01*
X135473000Y-95148095D01*
X135473000Y-95795250D01*
X135604750Y-95927000D01*
X136927000Y-95927000D01*
X136927000Y-95907000D01*
X137073000Y-95907000D01*
X137073000Y-95927000D01*
X138395250Y-95927000D01*
X138527000Y-95795250D01*
X138527000Y-95148095D01*
X138512861Y-95077012D01*
X139719590Y-95077012D01*
X140421289Y-95778711D01*
X140469596Y-95818391D01*
X140517517Y-95858602D01*
X140520637Y-95860317D01*
X140523388Y-95862577D01*
X140578509Y-95892133D01*
X140633301Y-95922255D01*
X140636694Y-95923331D01*
X140639832Y-95925014D01*
X140699664Y-95943306D01*
X140759244Y-95962206D01*
X140762780Y-95962603D01*
X140766186Y-95963644D01*
X140821277Y-95969239D01*
X140825552Y-95974448D01*
X140905798Y-96040304D01*
X140997350Y-96089239D01*
X141096690Y-96119374D01*
X141200000Y-96129549D01*
X141600000Y-96129549D01*
X141703310Y-96119374D01*
X141723000Y-96113401D01*
X141723000Y-96637141D01*
X141651905Y-96623000D01*
X141504750Y-96623000D01*
X141373000Y-96754750D01*
X141373000Y-97427000D01*
X141393000Y-97427000D01*
X141393000Y-97573000D01*
X141373000Y-97573000D01*
X141373000Y-97593000D01*
X141227000Y-97593000D01*
X141227000Y-97573000D01*
X140604750Y-97573000D01*
X140473000Y-97704750D01*
X140473000Y-97901905D01*
X140492114Y-97998000D01*
X129209700Y-97998000D01*
X129242021Y-97949628D01*
X129281748Y-97853720D01*
X129302000Y-97751905D01*
X129302000Y-97304750D01*
X129170250Y-97173000D01*
X128473000Y-97173000D01*
X128473000Y-97193000D01*
X128327000Y-97193000D01*
X128327000Y-97173000D01*
X127629750Y-97173000D01*
X127498000Y-97304750D01*
X127498000Y-97751905D01*
X127518252Y-97853720D01*
X127557979Y-97949628D01*
X127590300Y-97998000D01*
X127309700Y-97998000D01*
X127342021Y-97949628D01*
X127381748Y-97853720D01*
X127402000Y-97751905D01*
X127402000Y-97304750D01*
X127270250Y-97173000D01*
X126573000Y-97173000D01*
X126573000Y-97193000D01*
X126427000Y-97193000D01*
X126427000Y-97173000D01*
X125729750Y-97173000D01*
X125598000Y-97304750D01*
X125598000Y-97751905D01*
X125618252Y-97853720D01*
X125657979Y-97949628D01*
X125690300Y-97998000D01*
X125069897Y-97998000D01*
X125079549Y-97900000D01*
X125079549Y-97198584D01*
X125251133Y-97027000D01*
X125400000Y-97027000D01*
X125466819Y-97020448D01*
X125533733Y-97014594D01*
X125537406Y-97013527D01*
X125541208Y-97013154D01*
X125605482Y-96993749D01*
X125669984Y-96975009D01*
X125673377Y-96973250D01*
X125675392Y-96972642D01*
X125729750Y-97027000D01*
X126427000Y-97027000D01*
X126427000Y-97007000D01*
X126573000Y-97007000D01*
X126573000Y-97027000D01*
X127270250Y-97027000D01*
X127402000Y-96895250D01*
X127402000Y-96448095D01*
X127381748Y-96346280D01*
X127342021Y-96250372D01*
X127284348Y-96164057D01*
X127269863Y-96149572D01*
X127315304Y-96094202D01*
X127364239Y-96002650D01*
X127394374Y-95903310D01*
X127399925Y-95846947D01*
X127438604Y-95868211D01*
X127442245Y-95869366D01*
X127445617Y-95871174D01*
X127504226Y-95889093D01*
X127505626Y-95903310D01*
X127535761Y-96002650D01*
X127584696Y-96094202D01*
X127630137Y-96149572D01*
X127615652Y-96164057D01*
X127557979Y-96250372D01*
X127518252Y-96346280D01*
X127498000Y-96448095D01*
X127498000Y-96895250D01*
X127629750Y-97027000D01*
X128327000Y-97027000D01*
X128327000Y-97007000D01*
X128473000Y-97007000D01*
X128473000Y-97027000D01*
X129170250Y-97027000D01*
X129302000Y-96895250D01*
X129302000Y-96448095D01*
X129281748Y-96346280D01*
X129242021Y-96250372D01*
X129184348Y-96164057D01*
X129169863Y-96149572D01*
X129215304Y-96094202D01*
X129243217Y-96041980D01*
X129345566Y-96113114D01*
X129512155Y-96185895D01*
X129689708Y-96224932D01*
X129871463Y-96228740D01*
X130050495Y-96197171D01*
X130070451Y-96189431D01*
X130070451Y-96800000D01*
X130080626Y-96903310D01*
X130110761Y-97002650D01*
X130159696Y-97094202D01*
X130225552Y-97174448D01*
X130305798Y-97240304D01*
X130397350Y-97289239D01*
X130496690Y-97319374D01*
X130600000Y-97329549D01*
X132600000Y-97329549D01*
X132703310Y-97319374D01*
X132802650Y-97289239D01*
X132894202Y-97240304D01*
X132974448Y-97174448D01*
X133040304Y-97094202D01*
X133089239Y-97002650D01*
X133119374Y-96903310D01*
X133129549Y-96800000D01*
X133129549Y-96204750D01*
X135473000Y-96204750D01*
X135473000Y-96851905D01*
X135493252Y-96953720D01*
X135532979Y-97049628D01*
X135590652Y-97135943D01*
X135664057Y-97209348D01*
X135750372Y-97267021D01*
X135846280Y-97306748D01*
X135948095Y-97327000D01*
X136795250Y-97327000D01*
X136927000Y-97195250D01*
X136927000Y-96073000D01*
X137073000Y-96073000D01*
X137073000Y-97195250D01*
X137204750Y-97327000D01*
X138051905Y-97327000D01*
X138153720Y-97306748D01*
X138249628Y-97267021D01*
X138335943Y-97209348D01*
X138409348Y-97135943D01*
X138434636Y-97098095D01*
X140473000Y-97098095D01*
X140473000Y-97295250D01*
X140604750Y-97427000D01*
X141227000Y-97427000D01*
X141227000Y-96754750D01*
X141095250Y-96623000D01*
X140948095Y-96623000D01*
X140846280Y-96643252D01*
X140750372Y-96682979D01*
X140664057Y-96740652D01*
X140590652Y-96814057D01*
X140532979Y-96900372D01*
X140493252Y-96996280D01*
X140473000Y-97098095D01*
X138434636Y-97098095D01*
X138467021Y-97049628D01*
X138506748Y-96953720D01*
X138527000Y-96851905D01*
X138527000Y-96204750D01*
X138395250Y-96073000D01*
X137073000Y-96073000D01*
X136927000Y-96073000D01*
X135604750Y-96073000D01*
X135473000Y-96204750D01*
X133129549Y-96204750D01*
X133129549Y-95200000D01*
X133119374Y-95096690D01*
X133089239Y-94997350D01*
X133065924Y-94953731D01*
X133172020Y-95027469D01*
X133172020Y-95027469D01*
G37*
X133172020Y-95027469D02*
X133338609Y-95100250D01*
X133516162Y-95139287D01*
X133697917Y-95143095D01*
X133876949Y-95111526D01*
X133965932Y-95077012D01*
X135487139Y-95077012D01*
X135473000Y-95148095D01*
X135473000Y-95795250D01*
X135604750Y-95927000D01*
X136927000Y-95927000D01*
X136927000Y-95907000D01*
X137073000Y-95907000D01*
X137073000Y-95927000D01*
X138395250Y-95927000D01*
X138527000Y-95795250D01*
X138527000Y-95148095D01*
X138512861Y-95077012D01*
X139719590Y-95077012D01*
X140421289Y-95778711D01*
X140469596Y-95818391D01*
X140517517Y-95858602D01*
X140520637Y-95860317D01*
X140523388Y-95862577D01*
X140578509Y-95892133D01*
X140633301Y-95922255D01*
X140636694Y-95923331D01*
X140639832Y-95925014D01*
X140699664Y-95943306D01*
X140759244Y-95962206D01*
X140762780Y-95962603D01*
X140766186Y-95963644D01*
X140821277Y-95969239D01*
X140825552Y-95974448D01*
X140905798Y-96040304D01*
X140997350Y-96089239D01*
X141096690Y-96119374D01*
X141200000Y-96129549D01*
X141600000Y-96129549D01*
X141703310Y-96119374D01*
X141723000Y-96113401D01*
X141723000Y-96637141D01*
X141651905Y-96623000D01*
X141504750Y-96623000D01*
X141373000Y-96754750D01*
X141373000Y-97427000D01*
X141393000Y-97427000D01*
X141393000Y-97573000D01*
X141373000Y-97573000D01*
X141373000Y-97593000D01*
X141227000Y-97593000D01*
X141227000Y-97573000D01*
X140604750Y-97573000D01*
X140473000Y-97704750D01*
X140473000Y-97901905D01*
X140492114Y-97998000D01*
X129209700Y-97998000D01*
X129242021Y-97949628D01*
X129281748Y-97853720D01*
X129302000Y-97751905D01*
X129302000Y-97304750D01*
X129170250Y-97173000D01*
X128473000Y-97173000D01*
X128473000Y-97193000D01*
X128327000Y-97193000D01*
X128327000Y-97173000D01*
X127629750Y-97173000D01*
X127498000Y-97304750D01*
X127498000Y-97751905D01*
X127518252Y-97853720D01*
X127557979Y-97949628D01*
X127590300Y-97998000D01*
X127309700Y-97998000D01*
X127342021Y-97949628D01*
X127381748Y-97853720D01*
X127402000Y-97751905D01*
X127402000Y-97304750D01*
X127270250Y-97173000D01*
X126573000Y-97173000D01*
X126573000Y-97193000D01*
X126427000Y-97193000D01*
X126427000Y-97173000D01*
X125729750Y-97173000D01*
X125598000Y-97304750D01*
X125598000Y-97751905D01*
X125618252Y-97853720D01*
X125657979Y-97949628D01*
X125690300Y-97998000D01*
X125069897Y-97998000D01*
X125079549Y-97900000D01*
X125079549Y-97198584D01*
X125251133Y-97027000D01*
X125400000Y-97027000D01*
X125466819Y-97020448D01*
X125533733Y-97014594D01*
X125537406Y-97013527D01*
X125541208Y-97013154D01*
X125605482Y-96993749D01*
X125669984Y-96975009D01*
X125673377Y-96973250D01*
X125675392Y-96972642D01*
X125729750Y-97027000D01*
X126427000Y-97027000D01*
X126427000Y-97007000D01*
X126573000Y-97007000D01*
X126573000Y-97027000D01*
X127270250Y-97027000D01*
X127402000Y-96895250D01*
X127402000Y-96448095D01*
X127381748Y-96346280D01*
X127342021Y-96250372D01*
X127284348Y-96164057D01*
X127269863Y-96149572D01*
X127315304Y-96094202D01*
X127364239Y-96002650D01*
X127394374Y-95903310D01*
X127399925Y-95846947D01*
X127438604Y-95868211D01*
X127442245Y-95869366D01*
X127445617Y-95871174D01*
X127504226Y-95889093D01*
X127505626Y-95903310D01*
X127535761Y-96002650D01*
X127584696Y-96094202D01*
X127630137Y-96149572D01*
X127615652Y-96164057D01*
X127557979Y-96250372D01*
X127518252Y-96346280D01*
X127498000Y-96448095D01*
X127498000Y-96895250D01*
X127629750Y-97027000D01*
X128327000Y-97027000D01*
X128327000Y-97007000D01*
X128473000Y-97007000D01*
X128473000Y-97027000D01*
X129170250Y-97027000D01*
X129302000Y-96895250D01*
X129302000Y-96448095D01*
X129281748Y-96346280D01*
X129242021Y-96250372D01*
X129184348Y-96164057D01*
X129169863Y-96149572D01*
X129215304Y-96094202D01*
X129243217Y-96041980D01*
X129345566Y-96113114D01*
X129512155Y-96185895D01*
X129689708Y-96224932D01*
X129871463Y-96228740D01*
X130050495Y-96197171D01*
X130070451Y-96189431D01*
X130070451Y-96800000D01*
X130080626Y-96903310D01*
X130110761Y-97002650D01*
X130159696Y-97094202D01*
X130225552Y-97174448D01*
X130305798Y-97240304D01*
X130397350Y-97289239D01*
X130496690Y-97319374D01*
X130600000Y-97329549D01*
X132600000Y-97329549D01*
X132703310Y-97319374D01*
X132802650Y-97289239D01*
X132894202Y-97240304D01*
X132974448Y-97174448D01*
X133040304Y-97094202D01*
X133089239Y-97002650D01*
X133119374Y-96903310D01*
X133129549Y-96800000D01*
X133129549Y-96204750D01*
X135473000Y-96204750D01*
X135473000Y-96851905D01*
X135493252Y-96953720D01*
X135532979Y-97049628D01*
X135590652Y-97135943D01*
X135664057Y-97209348D01*
X135750372Y-97267021D01*
X135846280Y-97306748D01*
X135948095Y-97327000D01*
X136795250Y-97327000D01*
X136927000Y-97195250D01*
X136927000Y-96073000D01*
X137073000Y-96073000D01*
X137073000Y-97195250D01*
X137204750Y-97327000D01*
X138051905Y-97327000D01*
X138153720Y-97306748D01*
X138249628Y-97267021D01*
X138335943Y-97209348D01*
X138409348Y-97135943D01*
X138434636Y-97098095D01*
X140473000Y-97098095D01*
X140473000Y-97295250D01*
X140604750Y-97427000D01*
X141227000Y-97427000D01*
X141227000Y-96754750D01*
X141095250Y-96623000D01*
X140948095Y-96623000D01*
X140846280Y-96643252D01*
X140750372Y-96682979D01*
X140664057Y-96740652D01*
X140590652Y-96814057D01*
X140532979Y-96900372D01*
X140493252Y-96996280D01*
X140473000Y-97098095D01*
X138434636Y-97098095D01*
X138467021Y-97049628D01*
X138506748Y-96953720D01*
X138527000Y-96851905D01*
X138527000Y-96204750D01*
X138395250Y-96073000D01*
X137073000Y-96073000D01*
X136927000Y-96073000D01*
X135604750Y-96073000D01*
X135473000Y-96204750D01*
X133129549Y-96204750D01*
X133129549Y-95200000D01*
X133119374Y-95096690D01*
X133089239Y-94997350D01*
X133065924Y-94953731D01*
X133172020Y-95027469D01*
G36*
X110683733Y-78151254D02*
X110612117Y-78318347D01*
X110574320Y-78496168D01*
X110571782Y-78677945D01*
X110604599Y-78856752D01*
X110671522Y-79025780D01*
X110723000Y-79105658D01*
X110723000Y-79800000D01*
X110730009Y-79871482D01*
X110736260Y-79942930D01*
X110737399Y-79946850D01*
X110737798Y-79950920D01*
X110758554Y-80019668D01*
X110778567Y-80088553D01*
X110780447Y-80092179D01*
X110781628Y-80096092D01*
X110815325Y-80159467D01*
X110848353Y-80223185D01*
X110850903Y-80226379D01*
X110852820Y-80229985D01*
X110898163Y-80285581D01*
X110942960Y-80341697D01*
X110948570Y-80347386D01*
X110948664Y-80347501D01*
X110948770Y-80347589D01*
X110950578Y-80349422D01*
X111220451Y-80619295D01*
X111220451Y-81100000D01*
X111230626Y-81203310D01*
X111260761Y-81302650D01*
X111309696Y-81394202D01*
X111375552Y-81474448D01*
X111455798Y-81540304D01*
X111547350Y-81589239D01*
X111582824Y-81600000D01*
X111547350Y-81610761D01*
X111455798Y-81659696D01*
X111375552Y-81725552D01*
X111309696Y-81805798D01*
X111260761Y-81897350D01*
X111230626Y-81996690D01*
X111220914Y-82095296D01*
X111217399Y-82098163D01*
X111161283Y-82142960D01*
X111155594Y-82148570D01*
X111155479Y-82148664D01*
X111155391Y-82148770D01*
X111153558Y-82150578D01*
X109972555Y-83331581D01*
X109936309Y-83324141D01*
X109685770Y-83322391D01*
X109439664Y-83369339D01*
X109207363Y-83463194D01*
X108997716Y-83600383D01*
X108818709Y-83775680D01*
X108677160Y-83982408D01*
X108578460Y-84212692D01*
X108526368Y-84457762D01*
X108522870Y-84708282D01*
X108568098Y-84954710D01*
X108660330Y-85187660D01*
X108796052Y-85398260D01*
X108970095Y-85578486D01*
X109175829Y-85721475D01*
X109405419Y-85821781D01*
X109634560Y-85872160D01*
X109439664Y-85909339D01*
X109207363Y-86003194D01*
X108997716Y-86140383D01*
X108818709Y-86315680D01*
X108677160Y-86522408D01*
X108578460Y-86752692D01*
X108526368Y-86997762D01*
X108522870Y-87248282D01*
X108568098Y-87494710D01*
X108660330Y-87727660D01*
X108796052Y-87938260D01*
X108970095Y-88118486D01*
X109023431Y-88155556D01*
X108997716Y-88172383D01*
X108818709Y-88347680D01*
X108677160Y-88554408D01*
X108578460Y-88784692D01*
X108526368Y-89029762D01*
X108522870Y-89280282D01*
X108568098Y-89526710D01*
X108660330Y-89759660D01*
X108796052Y-89970260D01*
X108970095Y-90150486D01*
X109175829Y-90293475D01*
X109405419Y-90393781D01*
X109640529Y-90445472D01*
X109529520Y-90458385D01*
X109290023Y-90535671D01*
X109107828Y-90633055D01*
X109040787Y-90848290D01*
X109802120Y-91609622D01*
X110563453Y-90848290D01*
X110496412Y-90633055D01*
X110272412Y-90518354D01*
X110030338Y-90449556D01*
X109954076Y-90443400D01*
X110147346Y-90409322D01*
X110380935Y-90318719D01*
X110592477Y-90184470D01*
X110773914Y-90011690D01*
X110807151Y-89964573D01*
X111244718Y-90402140D01*
X111293025Y-90441820D01*
X111340946Y-90482031D01*
X111344066Y-90483746D01*
X111346817Y-90486006D01*
X111401938Y-90515562D01*
X111456730Y-90545684D01*
X111460123Y-90546760D01*
X111463261Y-90548443D01*
X111523093Y-90566735D01*
X111582673Y-90585635D01*
X111586209Y-90586032D01*
X111589615Y-90587073D01*
X111651812Y-90593390D01*
X111692910Y-90598000D01*
X111558095Y-90598000D01*
X111456280Y-90618252D01*
X111360372Y-90657979D01*
X111274057Y-90715652D01*
X111200652Y-90789057D01*
X111142979Y-90875372D01*
X111103252Y-90971280D01*
X111083000Y-91073095D01*
X111083000Y-91555250D01*
X111214750Y-91687000D01*
X112787000Y-91687000D01*
X112787000Y-91667000D01*
X112933000Y-91667000D01*
X112933000Y-91687000D01*
X112953000Y-91687000D01*
X112953000Y-91833000D01*
X112933000Y-91833000D01*
X112933000Y-92790250D01*
X113064750Y-92922000D01*
X114161905Y-92922000D01*
X114263720Y-92901748D01*
X114273000Y-92897904D01*
X114273000Y-93162096D01*
X114263720Y-93158252D01*
X114161905Y-93138000D01*
X113064750Y-93138000D01*
X112933000Y-93269750D01*
X112933000Y-94227000D01*
X112953000Y-94227000D01*
X112953000Y-94373000D01*
X112933000Y-94373000D01*
X112933000Y-95330250D01*
X113064750Y-95462000D01*
X114161905Y-95462000D01*
X114263720Y-95441748D01*
X114273000Y-95437904D01*
X114273000Y-95703733D01*
X114213310Y-95685626D01*
X114110000Y-95675451D01*
X111610000Y-95675451D01*
X111506690Y-95685626D01*
X111407350Y-95715761D01*
X111315798Y-95764696D01*
X111235552Y-95830552D01*
X111169696Y-95910798D01*
X111120761Y-96002350D01*
X111090626Y-96101690D01*
X111089512Y-96113000D01*
X110924259Y-96113000D01*
X110893751Y-96082278D01*
X110743037Y-95980621D01*
X110575448Y-95910173D01*
X110397367Y-95873618D01*
X110215577Y-95872349D01*
X110037003Y-95906413D01*
X109868447Y-95974515D01*
X109716328Y-96074058D01*
X109586441Y-96201253D01*
X109483733Y-96351254D01*
X109412117Y-96518347D01*
X109374320Y-96696168D01*
X109371782Y-96877945D01*
X109404599Y-97056752D01*
X109471522Y-97225780D01*
X109570001Y-97378590D01*
X109696286Y-97509362D01*
X109845566Y-97613114D01*
X110012155Y-97685895D01*
X110189708Y-97724932D01*
X110371463Y-97728740D01*
X110550495Y-97697171D01*
X110719986Y-97631430D01*
X110821511Y-97567000D01*
X111089512Y-97567000D01*
X111090626Y-97578310D01*
X111120761Y-97677650D01*
X111169696Y-97769202D01*
X111235552Y-97849448D01*
X111315798Y-97915304D01*
X111407350Y-97964239D01*
X111506690Y-97994374D01*
X111543506Y-97998000D01*
X105202000Y-97998000D01*
X105202000Y-96158476D01*
X105840741Y-96158476D01*
X105997819Y-96450416D01*
X106349287Y-96639829D01*
X106730955Y-96757033D01*
X107128155Y-96797526D01*
X107525623Y-96759750D01*
X107908083Y-96645159D01*
X108260840Y-96458155D01*
X108272421Y-96450416D01*
X108429499Y-96158476D01*
X107135120Y-94864098D01*
X105840741Y-96158476D01*
X105202000Y-96158476D01*
X105202000Y-95370878D01*
X105250821Y-95533823D01*
X105437825Y-95886580D01*
X105445564Y-95898161D01*
X105737504Y-96055239D01*
X107031882Y-94760860D01*
X107238358Y-94760860D01*
X108532736Y-96055239D01*
X108824676Y-95898161D01*
X109014089Y-95546693D01*
X109131293Y-95165025D01*
X109171786Y-94767825D01*
X109146783Y-94504750D01*
X111083000Y-94504750D01*
X111083000Y-94986905D01*
X111103252Y-95088720D01*
X111142979Y-95184628D01*
X111200652Y-95270943D01*
X111274057Y-95344348D01*
X111360372Y-95402021D01*
X111456280Y-95441748D01*
X111558095Y-95462000D01*
X112655250Y-95462000D01*
X112787000Y-95330250D01*
X112787000Y-94373000D01*
X111214750Y-94373000D01*
X111083000Y-94504750D01*
X109146783Y-94504750D01*
X109134010Y-94370357D01*
X109019419Y-93987897D01*
X108832415Y-93635140D01*
X108824676Y-93623559D01*
X108805228Y-93613095D01*
X111083000Y-93613095D01*
X111083000Y-94095250D01*
X111214750Y-94227000D01*
X112787000Y-94227000D01*
X112787000Y-93269750D01*
X112655250Y-93138000D01*
X111558095Y-93138000D01*
X111456280Y-93158252D01*
X111360372Y-93197979D01*
X111274057Y-93255652D01*
X111200652Y-93329057D01*
X111142979Y-93415372D01*
X111103252Y-93511280D01*
X111083000Y-93613095D01*
X108805228Y-93613095D01*
X108532736Y-93466481D01*
X107238358Y-94760860D01*
X107031882Y-94760860D01*
X105737504Y-93466481D01*
X105445564Y-93623559D01*
X105256151Y-93975027D01*
X105202000Y-94151367D01*
X105202000Y-93363244D01*
X105840741Y-93363244D01*
X107135120Y-94657622D01*
X108429499Y-93363244D01*
X108272421Y-93071304D01*
X107920953Y-92881891D01*
X107539285Y-92764687D01*
X107142085Y-92724194D01*
X106744617Y-92761970D01*
X106362157Y-92876561D01*
X106009400Y-93063565D01*
X105997819Y-93071304D01*
X105840741Y-93363244D01*
X105202000Y-93363244D01*
X105202000Y-92577430D01*
X109040787Y-92577430D01*
X109107828Y-92792665D01*
X109331828Y-92907366D01*
X109573902Y-92976164D01*
X109824745Y-92996412D01*
X110074720Y-92967335D01*
X110314217Y-92890049D01*
X110496412Y-92792665D01*
X110563453Y-92577430D01*
X109802120Y-91816098D01*
X109040787Y-92577430D01*
X105202000Y-92577430D01*
X105202000Y-91735485D01*
X108518568Y-91735485D01*
X108547645Y-91985460D01*
X108624931Y-92224957D01*
X108722315Y-92407152D01*
X108937550Y-92474193D01*
X109698882Y-91712860D01*
X109905358Y-91712860D01*
X110666690Y-92474193D01*
X110881925Y-92407152D01*
X110996626Y-92183152D01*
X111058696Y-91964750D01*
X111083000Y-91964750D01*
X111083000Y-92446905D01*
X111103252Y-92548720D01*
X111142979Y-92644628D01*
X111200652Y-92730943D01*
X111274057Y-92804348D01*
X111360372Y-92862021D01*
X111456280Y-92901748D01*
X111558095Y-92922000D01*
X112655250Y-92922000D01*
X112787000Y-92790250D01*
X112787000Y-91833000D01*
X111214750Y-91833000D01*
X111083000Y-91964750D01*
X111058696Y-91964750D01*
X111065424Y-91941078D01*
X111085672Y-91690235D01*
X111056595Y-91440260D01*
X110979309Y-91200763D01*
X110881925Y-91018568D01*
X110666690Y-90951527D01*
X109905358Y-91712860D01*
X109698882Y-91712860D01*
X108937550Y-90951527D01*
X108722315Y-91018568D01*
X108607614Y-91242568D01*
X108538816Y-91484642D01*
X108518568Y-91735485D01*
X105202000Y-91735485D01*
X105202000Y-82442476D01*
X105840741Y-82442476D01*
X105997819Y-82734416D01*
X106349287Y-82923829D01*
X106730955Y-83041033D01*
X107128155Y-83081526D01*
X107525623Y-83043750D01*
X107908083Y-82929159D01*
X108260840Y-82742155D01*
X108272421Y-82734416D01*
X108429499Y-82442476D01*
X107135120Y-81148098D01*
X105840741Y-82442476D01*
X105202000Y-82442476D01*
X105202000Y-81654878D01*
X105250821Y-81817823D01*
X105437825Y-82170580D01*
X105445564Y-82182161D01*
X105737504Y-82339239D01*
X107031882Y-81044860D01*
X107238358Y-81044860D01*
X108532736Y-82339239D01*
X108824676Y-82182161D01*
X109014089Y-81830693D01*
X109131293Y-81449025D01*
X109171786Y-81051825D01*
X109134010Y-80654357D01*
X109019419Y-80271897D01*
X108832415Y-79919140D01*
X108824676Y-79907559D01*
X108532736Y-79750481D01*
X107238358Y-81044860D01*
X107031882Y-81044860D01*
X105737504Y-79750481D01*
X105445564Y-79907559D01*
X105256151Y-80259027D01*
X105202000Y-80435367D01*
X105202000Y-79647244D01*
X105840741Y-79647244D01*
X107135120Y-80941622D01*
X108429499Y-79647244D01*
X108272421Y-79355304D01*
X107920953Y-79165891D01*
X107539285Y-79048687D01*
X107142085Y-79008194D01*
X106744617Y-79045970D01*
X106362157Y-79160561D01*
X106009400Y-79347565D01*
X105997819Y-79355304D01*
X105840741Y-79647244D01*
X105202000Y-79647244D01*
X105202000Y-78002000D01*
X110785930Y-78002000D01*
X110683733Y-78151254D01*
X110683733Y-78151254D01*
G37*
X110683733Y-78151254D02*
X110612117Y-78318347D01*
X110574320Y-78496168D01*
X110571782Y-78677945D01*
X110604599Y-78856752D01*
X110671522Y-79025780D01*
X110723000Y-79105658D01*
X110723000Y-79800000D01*
X110730009Y-79871482D01*
X110736260Y-79942930D01*
X110737399Y-79946850D01*
X110737798Y-79950920D01*
X110758554Y-80019668D01*
X110778567Y-80088553D01*
X110780447Y-80092179D01*
X110781628Y-80096092D01*
X110815325Y-80159467D01*
X110848353Y-80223185D01*
X110850903Y-80226379D01*
X110852820Y-80229985D01*
X110898163Y-80285581D01*
X110942960Y-80341697D01*
X110948570Y-80347386D01*
X110948664Y-80347501D01*
X110948770Y-80347589D01*
X110950578Y-80349422D01*
X111220451Y-80619295D01*
X111220451Y-81100000D01*
X111230626Y-81203310D01*
X111260761Y-81302650D01*
X111309696Y-81394202D01*
X111375552Y-81474448D01*
X111455798Y-81540304D01*
X111547350Y-81589239D01*
X111582824Y-81600000D01*
X111547350Y-81610761D01*
X111455798Y-81659696D01*
X111375552Y-81725552D01*
X111309696Y-81805798D01*
X111260761Y-81897350D01*
X111230626Y-81996690D01*
X111220914Y-82095296D01*
X111217399Y-82098163D01*
X111161283Y-82142960D01*
X111155594Y-82148570D01*
X111155479Y-82148664D01*
X111155391Y-82148770D01*
X111153558Y-82150578D01*
X109972555Y-83331581D01*
X109936309Y-83324141D01*
X109685770Y-83322391D01*
X109439664Y-83369339D01*
X109207363Y-83463194D01*
X108997716Y-83600383D01*
X108818709Y-83775680D01*
X108677160Y-83982408D01*
X108578460Y-84212692D01*
X108526368Y-84457762D01*
X108522870Y-84708282D01*
X108568098Y-84954710D01*
X108660330Y-85187660D01*
X108796052Y-85398260D01*
X108970095Y-85578486D01*
X109175829Y-85721475D01*
X109405419Y-85821781D01*
X109634560Y-85872160D01*
X109439664Y-85909339D01*
X109207363Y-86003194D01*
X108997716Y-86140383D01*
X108818709Y-86315680D01*
X108677160Y-86522408D01*
X108578460Y-86752692D01*
X108526368Y-86997762D01*
X108522870Y-87248282D01*
X108568098Y-87494710D01*
X108660330Y-87727660D01*
X108796052Y-87938260D01*
X108970095Y-88118486D01*
X109023431Y-88155556D01*
X108997716Y-88172383D01*
X108818709Y-88347680D01*
X108677160Y-88554408D01*
X108578460Y-88784692D01*
X108526368Y-89029762D01*
X108522870Y-89280282D01*
X108568098Y-89526710D01*
X108660330Y-89759660D01*
X108796052Y-89970260D01*
X108970095Y-90150486D01*
X109175829Y-90293475D01*
X109405419Y-90393781D01*
X109640529Y-90445472D01*
X109529520Y-90458385D01*
X109290023Y-90535671D01*
X109107828Y-90633055D01*
X109040787Y-90848290D01*
X109802120Y-91609622D01*
X110563453Y-90848290D01*
X110496412Y-90633055D01*
X110272412Y-90518354D01*
X110030338Y-90449556D01*
X109954076Y-90443400D01*
X110147346Y-90409322D01*
X110380935Y-90318719D01*
X110592477Y-90184470D01*
X110773914Y-90011690D01*
X110807151Y-89964573D01*
X111244718Y-90402140D01*
X111293025Y-90441820D01*
X111340946Y-90482031D01*
X111344066Y-90483746D01*
X111346817Y-90486006D01*
X111401938Y-90515562D01*
X111456730Y-90545684D01*
X111460123Y-90546760D01*
X111463261Y-90548443D01*
X111523093Y-90566735D01*
X111582673Y-90585635D01*
X111586209Y-90586032D01*
X111589615Y-90587073D01*
X111651812Y-90593390D01*
X111692910Y-90598000D01*
X111558095Y-90598000D01*
X111456280Y-90618252D01*
X111360372Y-90657979D01*
X111274057Y-90715652D01*
X111200652Y-90789057D01*
X111142979Y-90875372D01*
X111103252Y-90971280D01*
X111083000Y-91073095D01*
X111083000Y-91555250D01*
X111214750Y-91687000D01*
X112787000Y-91687000D01*
X112787000Y-91667000D01*
X112933000Y-91667000D01*
X112933000Y-91687000D01*
X112953000Y-91687000D01*
X112953000Y-91833000D01*
X112933000Y-91833000D01*
X112933000Y-92790250D01*
X113064750Y-92922000D01*
X114161905Y-92922000D01*
X114263720Y-92901748D01*
X114273000Y-92897904D01*
X114273000Y-93162096D01*
X114263720Y-93158252D01*
X114161905Y-93138000D01*
X113064750Y-93138000D01*
X112933000Y-93269750D01*
X112933000Y-94227000D01*
X112953000Y-94227000D01*
X112953000Y-94373000D01*
X112933000Y-94373000D01*
X112933000Y-95330250D01*
X113064750Y-95462000D01*
X114161905Y-95462000D01*
X114263720Y-95441748D01*
X114273000Y-95437904D01*
X114273000Y-95703733D01*
X114213310Y-95685626D01*
X114110000Y-95675451D01*
X111610000Y-95675451D01*
X111506690Y-95685626D01*
X111407350Y-95715761D01*
X111315798Y-95764696D01*
X111235552Y-95830552D01*
X111169696Y-95910798D01*
X111120761Y-96002350D01*
X111090626Y-96101690D01*
X111089512Y-96113000D01*
X110924259Y-96113000D01*
X110893751Y-96082278D01*
X110743037Y-95980621D01*
X110575448Y-95910173D01*
X110397367Y-95873618D01*
X110215577Y-95872349D01*
X110037003Y-95906413D01*
X109868447Y-95974515D01*
X109716328Y-96074058D01*
X109586441Y-96201253D01*
X109483733Y-96351254D01*
X109412117Y-96518347D01*
X109374320Y-96696168D01*
X109371782Y-96877945D01*
X109404599Y-97056752D01*
X109471522Y-97225780D01*
X109570001Y-97378590D01*
X109696286Y-97509362D01*
X109845566Y-97613114D01*
X110012155Y-97685895D01*
X110189708Y-97724932D01*
X110371463Y-97728740D01*
X110550495Y-97697171D01*
X110719986Y-97631430D01*
X110821511Y-97567000D01*
X111089512Y-97567000D01*
X111090626Y-97578310D01*
X111120761Y-97677650D01*
X111169696Y-97769202D01*
X111235552Y-97849448D01*
X111315798Y-97915304D01*
X111407350Y-97964239D01*
X111506690Y-97994374D01*
X111543506Y-97998000D01*
X105202000Y-97998000D01*
X105202000Y-96158476D01*
X105840741Y-96158476D01*
X105997819Y-96450416D01*
X106349287Y-96639829D01*
X106730955Y-96757033D01*
X107128155Y-96797526D01*
X107525623Y-96759750D01*
X107908083Y-96645159D01*
X108260840Y-96458155D01*
X108272421Y-96450416D01*
X108429499Y-96158476D01*
X107135120Y-94864098D01*
X105840741Y-96158476D01*
X105202000Y-96158476D01*
X105202000Y-95370878D01*
X105250821Y-95533823D01*
X105437825Y-95886580D01*
X105445564Y-95898161D01*
X105737504Y-96055239D01*
X107031882Y-94760860D01*
X107238358Y-94760860D01*
X108532736Y-96055239D01*
X108824676Y-95898161D01*
X109014089Y-95546693D01*
X109131293Y-95165025D01*
X109171786Y-94767825D01*
X109146783Y-94504750D01*
X111083000Y-94504750D01*
X111083000Y-94986905D01*
X111103252Y-95088720D01*
X111142979Y-95184628D01*
X111200652Y-95270943D01*
X111274057Y-95344348D01*
X111360372Y-95402021D01*
X111456280Y-95441748D01*
X111558095Y-95462000D01*
X112655250Y-95462000D01*
X112787000Y-95330250D01*
X112787000Y-94373000D01*
X111214750Y-94373000D01*
X111083000Y-94504750D01*
X109146783Y-94504750D01*
X109134010Y-94370357D01*
X109019419Y-93987897D01*
X108832415Y-93635140D01*
X108824676Y-93623559D01*
X108805228Y-93613095D01*
X111083000Y-93613095D01*
X111083000Y-94095250D01*
X111214750Y-94227000D01*
X112787000Y-94227000D01*
X112787000Y-93269750D01*
X112655250Y-93138000D01*
X111558095Y-93138000D01*
X111456280Y-93158252D01*
X111360372Y-93197979D01*
X111274057Y-93255652D01*
X111200652Y-93329057D01*
X111142979Y-93415372D01*
X111103252Y-93511280D01*
X111083000Y-93613095D01*
X108805228Y-93613095D01*
X108532736Y-93466481D01*
X107238358Y-94760860D01*
X107031882Y-94760860D01*
X105737504Y-93466481D01*
X105445564Y-93623559D01*
X105256151Y-93975027D01*
X105202000Y-94151367D01*
X105202000Y-93363244D01*
X105840741Y-93363244D01*
X107135120Y-94657622D01*
X108429499Y-93363244D01*
X108272421Y-93071304D01*
X107920953Y-92881891D01*
X107539285Y-92764687D01*
X107142085Y-92724194D01*
X106744617Y-92761970D01*
X106362157Y-92876561D01*
X106009400Y-93063565D01*
X105997819Y-93071304D01*
X105840741Y-93363244D01*
X105202000Y-93363244D01*
X105202000Y-92577430D01*
X109040787Y-92577430D01*
X109107828Y-92792665D01*
X109331828Y-92907366D01*
X109573902Y-92976164D01*
X109824745Y-92996412D01*
X110074720Y-92967335D01*
X110314217Y-92890049D01*
X110496412Y-92792665D01*
X110563453Y-92577430D01*
X109802120Y-91816098D01*
X109040787Y-92577430D01*
X105202000Y-92577430D01*
X105202000Y-91735485D01*
X108518568Y-91735485D01*
X108547645Y-91985460D01*
X108624931Y-92224957D01*
X108722315Y-92407152D01*
X108937550Y-92474193D01*
X109698882Y-91712860D01*
X109905358Y-91712860D01*
X110666690Y-92474193D01*
X110881925Y-92407152D01*
X110996626Y-92183152D01*
X111058696Y-91964750D01*
X111083000Y-91964750D01*
X111083000Y-92446905D01*
X111103252Y-92548720D01*
X111142979Y-92644628D01*
X111200652Y-92730943D01*
X111274057Y-92804348D01*
X111360372Y-92862021D01*
X111456280Y-92901748D01*
X111558095Y-92922000D01*
X112655250Y-92922000D01*
X112787000Y-92790250D01*
X112787000Y-91833000D01*
X111214750Y-91833000D01*
X111083000Y-91964750D01*
X111058696Y-91964750D01*
X111065424Y-91941078D01*
X111085672Y-91690235D01*
X111056595Y-91440260D01*
X110979309Y-91200763D01*
X110881925Y-91018568D01*
X110666690Y-90951527D01*
X109905358Y-91712860D01*
X109698882Y-91712860D01*
X108937550Y-90951527D01*
X108722315Y-91018568D01*
X108607614Y-91242568D01*
X108538816Y-91484642D01*
X108518568Y-91735485D01*
X105202000Y-91735485D01*
X105202000Y-82442476D01*
X105840741Y-82442476D01*
X105997819Y-82734416D01*
X106349287Y-82923829D01*
X106730955Y-83041033D01*
X107128155Y-83081526D01*
X107525623Y-83043750D01*
X107908083Y-82929159D01*
X108260840Y-82742155D01*
X108272421Y-82734416D01*
X108429499Y-82442476D01*
X107135120Y-81148098D01*
X105840741Y-82442476D01*
X105202000Y-82442476D01*
X105202000Y-81654878D01*
X105250821Y-81817823D01*
X105437825Y-82170580D01*
X105445564Y-82182161D01*
X105737504Y-82339239D01*
X107031882Y-81044860D01*
X107238358Y-81044860D01*
X108532736Y-82339239D01*
X108824676Y-82182161D01*
X109014089Y-81830693D01*
X109131293Y-81449025D01*
X109171786Y-81051825D01*
X109134010Y-80654357D01*
X109019419Y-80271897D01*
X108832415Y-79919140D01*
X108824676Y-79907559D01*
X108532736Y-79750481D01*
X107238358Y-81044860D01*
X107031882Y-81044860D01*
X105737504Y-79750481D01*
X105445564Y-79907559D01*
X105256151Y-80259027D01*
X105202000Y-80435367D01*
X105202000Y-79647244D01*
X105840741Y-79647244D01*
X107135120Y-80941622D01*
X108429499Y-79647244D01*
X108272421Y-79355304D01*
X107920953Y-79165891D01*
X107539285Y-79048687D01*
X107142085Y-79008194D01*
X106744617Y-79045970D01*
X106362157Y-79160561D01*
X106009400Y-79347565D01*
X105997819Y-79355304D01*
X105840741Y-79647244D01*
X105202000Y-79647244D01*
X105202000Y-78002000D01*
X110785930Y-78002000D01*
X110683733Y-78151254D01*
G36*
X125755626Y-93453310D02*
X125785761Y-93552650D01*
X125823000Y-93622320D01*
X125823000Y-94166096D01*
X125750552Y-94225552D01*
X125684696Y-94305798D01*
X125635761Y-94397350D01*
X125605626Y-94496690D01*
X125595451Y-94600000D01*
X125595451Y-95076415D01*
X125098866Y-95573000D01*
X125079549Y-95573000D01*
X125079549Y-94500000D01*
X125069374Y-94396690D01*
X125039239Y-94297350D01*
X124990304Y-94205798D01*
X124924448Y-94125552D01*
X124844202Y-94059696D01*
X124827000Y-94050501D01*
X124827000Y-93879549D01*
X125225000Y-93879549D01*
X125328310Y-93869374D01*
X125350664Y-93862593D01*
X125423095Y-93877000D01*
X125545250Y-93877000D01*
X125677000Y-93745250D01*
X125677000Y-93622320D01*
X125714239Y-93552650D01*
X125744374Y-93453310D01*
X125750000Y-93396187D01*
X125755626Y-93453310D01*
X125755626Y-93453310D01*
G37*
X125755626Y-93453310D02*
X125785761Y-93552650D01*
X125823000Y-93622320D01*
X125823000Y-94166096D01*
X125750552Y-94225552D01*
X125684696Y-94305798D01*
X125635761Y-94397350D01*
X125605626Y-94496690D01*
X125595451Y-94600000D01*
X125595451Y-95076415D01*
X125098866Y-95573000D01*
X125079549Y-95573000D01*
X125079549Y-94500000D01*
X125069374Y-94396690D01*
X125039239Y-94297350D01*
X124990304Y-94205798D01*
X124924448Y-94125552D01*
X124844202Y-94059696D01*
X124827000Y-94050501D01*
X124827000Y-93879549D01*
X125225000Y-93879549D01*
X125328310Y-93869374D01*
X125350664Y-93862593D01*
X125423095Y-93877000D01*
X125545250Y-93877000D01*
X125677000Y-93745250D01*
X125677000Y-93622320D01*
X125714239Y-93552650D01*
X125744374Y-93453310D01*
X125750000Y-93396187D01*
X125755626Y-93453310D01*
G36*
X140670451Y-90927873D02*
X140670451Y-91100000D01*
X140680626Y-91203310D01*
X140710761Y-91302650D01*
X140759696Y-91394202D01*
X140825552Y-91474448D01*
X140905798Y-91540304D01*
X140997350Y-91589239D01*
X141096690Y-91619374D01*
X141200000Y-91629549D01*
X141600000Y-91629549D01*
X141703310Y-91619374D01*
X141723000Y-91613401D01*
X141723000Y-92137141D01*
X141651905Y-92123000D01*
X141504750Y-92123000D01*
X141373000Y-92254750D01*
X141373000Y-92927000D01*
X141393000Y-92927000D01*
X141393000Y-93073000D01*
X141373000Y-93073000D01*
X141373000Y-93745250D01*
X141504750Y-93877000D01*
X141651905Y-93877000D01*
X141753720Y-93856748D01*
X141849628Y-93817021D01*
X141852363Y-93815193D01*
X141897350Y-93839239D01*
X141996690Y-93869374D01*
X142100000Y-93879549D01*
X142700000Y-93879549D01*
X142803310Y-93869374D01*
X142898000Y-93840650D01*
X142898000Y-94654250D01*
X142874448Y-94625552D01*
X142794202Y-94559696D01*
X142702650Y-94510761D01*
X142603310Y-94480626D01*
X142500000Y-94470451D01*
X142100000Y-94470451D01*
X141996690Y-94480626D01*
X141897350Y-94510761D01*
X141850000Y-94536070D01*
X141802650Y-94510761D01*
X141703310Y-94480626D01*
X141600000Y-94470451D01*
X141200000Y-94470451D01*
X141096690Y-94480626D01*
X141051697Y-94494275D01*
X140478723Y-93921301D01*
X140430416Y-93881621D01*
X140382495Y-93841410D01*
X140379375Y-93839695D01*
X140376624Y-93837435D01*
X140321503Y-93807879D01*
X140266711Y-93777757D01*
X140263318Y-93776681D01*
X140260180Y-93774998D01*
X140200348Y-93756706D01*
X140140768Y-93737806D01*
X140137232Y-93737409D01*
X140133826Y-93736368D01*
X140071629Y-93730051D01*
X140009464Y-93723078D01*
X140002497Y-93723029D01*
X140002375Y-93723017D01*
X140002262Y-93723028D01*
X140000012Y-93723012D01*
X134413004Y-93723012D01*
X134348303Y-93625629D01*
X134220205Y-93496633D01*
X134069491Y-93394976D01*
X133901902Y-93324528D01*
X133723821Y-93287973D01*
X133542031Y-93286704D01*
X133363457Y-93320768D01*
X133322045Y-93337500D01*
X133356748Y-93253720D01*
X133366488Y-93204750D01*
X140473000Y-93204750D01*
X140473000Y-93401905D01*
X140493252Y-93503720D01*
X140532979Y-93599628D01*
X140590652Y-93685943D01*
X140664057Y-93759348D01*
X140750372Y-93817021D01*
X140846280Y-93856748D01*
X140948095Y-93877000D01*
X141095250Y-93877000D01*
X141227000Y-93745250D01*
X141227000Y-93073000D01*
X140604750Y-93073000D01*
X140473000Y-93204750D01*
X133366488Y-93204750D01*
X133377000Y-93151905D01*
X133377000Y-93004750D01*
X133245250Y-92873000D01*
X132673000Y-92873000D01*
X132673000Y-93495250D01*
X132804750Y-93627000D01*
X132901905Y-93627000D01*
X132905598Y-93626265D01*
X132810187Y-93765609D01*
X132738571Y-93932702D01*
X132700774Y-94110523D01*
X132698236Y-94292300D01*
X132731053Y-94471107D01*
X132797976Y-94640135D01*
X132864952Y-94744062D01*
X132802650Y-94710761D01*
X132703310Y-94680626D01*
X132600000Y-94670451D01*
X132234938Y-94670451D01*
X132228585Y-94648584D01*
X132226948Y-94645425D01*
X132225918Y-94642015D01*
X132196549Y-94586781D01*
X132167780Y-94531279D01*
X132165559Y-94528497D01*
X132163888Y-94525354D01*
X132124372Y-94476903D01*
X132085348Y-94428019D01*
X132080457Y-94423059D01*
X132080379Y-94422963D01*
X132080290Y-94422889D01*
X132078711Y-94421288D01*
X131378711Y-93721289D01*
X131330404Y-93681609D01*
X131282483Y-93641398D01*
X131279363Y-93639683D01*
X131276612Y-93637423D01*
X131221491Y-93607867D01*
X131166699Y-93577745D01*
X131163306Y-93576669D01*
X131160168Y-93574986D01*
X131100336Y-93556694D01*
X131040756Y-93537794D01*
X131037220Y-93537397D01*
X131033814Y-93536356D01*
X130971617Y-93530039D01*
X130909452Y-93523066D01*
X130902485Y-93523017D01*
X130902363Y-93523005D01*
X130902250Y-93523016D01*
X130900000Y-93523000D01*
X130534190Y-93523000D01*
X130493751Y-93482278D01*
X130343037Y-93380621D01*
X130175448Y-93310173D01*
X129997367Y-93273618D01*
X129815577Y-93272349D01*
X129754549Y-93283990D01*
X129754549Y-93004750D01*
X131823000Y-93004750D01*
X131823000Y-93151905D01*
X131843252Y-93253720D01*
X131882979Y-93349628D01*
X131940652Y-93435943D01*
X132014057Y-93509348D01*
X132100372Y-93567021D01*
X132196280Y-93606748D01*
X132298095Y-93627000D01*
X132395250Y-93627000D01*
X132527000Y-93495250D01*
X132527000Y-92873000D01*
X131954750Y-92873000D01*
X131823000Y-93004750D01*
X129754549Y-93004750D01*
X129754549Y-91904549D01*
X131200000Y-91904549D01*
X131303310Y-91894374D01*
X131402650Y-91864239D01*
X131494202Y-91815304D01*
X131540876Y-91777000D01*
X131719578Y-91777000D01*
X131820451Y-91877873D01*
X131820451Y-92000000D01*
X131830626Y-92103310D01*
X131860761Y-92202650D01*
X131884807Y-92247637D01*
X131882979Y-92250372D01*
X131843252Y-92346280D01*
X131823000Y-92448095D01*
X131823000Y-92595250D01*
X131954750Y-92727000D01*
X132527000Y-92727000D01*
X132527000Y-92707000D01*
X132673000Y-92707000D01*
X132673000Y-92727000D01*
X133245250Y-92727000D01*
X133377000Y-92595250D01*
X133377000Y-92590009D01*
X133929316Y-92590009D01*
X133930626Y-92603310D01*
X133960761Y-92702650D01*
X134009696Y-92794202D01*
X134075552Y-92874448D01*
X134155798Y-92940304D01*
X134247350Y-92989239D01*
X134346690Y-93019374D01*
X134450000Y-93029549D01*
X136350000Y-93029549D01*
X136453310Y-93019374D01*
X136552650Y-92989239D01*
X136644202Y-92940304D01*
X136724448Y-92874448D01*
X136790304Y-92794202D01*
X136839239Y-92702650D01*
X136869374Y-92603310D01*
X136879549Y-92500000D01*
X136879549Y-91386971D01*
X137120451Y-91627874D01*
X137120451Y-92500000D01*
X137130626Y-92603310D01*
X137160761Y-92702650D01*
X137209696Y-92794202D01*
X137275552Y-92874448D01*
X137355798Y-92940304D01*
X137447350Y-92989239D01*
X137546690Y-93019374D01*
X137650000Y-93029549D01*
X139550000Y-93029549D01*
X139653310Y-93019374D01*
X139752650Y-92989239D01*
X139844202Y-92940304D01*
X139924448Y-92874448D01*
X139990304Y-92794202D01*
X140039239Y-92702650D01*
X140069374Y-92603310D01*
X140069887Y-92598095D01*
X140473000Y-92598095D01*
X140473000Y-92795250D01*
X140604750Y-92927000D01*
X141227000Y-92927000D01*
X141227000Y-92254750D01*
X141095250Y-92123000D01*
X140948095Y-92123000D01*
X140846280Y-92143252D01*
X140750372Y-92182979D01*
X140664057Y-92240652D01*
X140590652Y-92314057D01*
X140532979Y-92400372D01*
X140493252Y-92496280D01*
X140473000Y-92598095D01*
X140069887Y-92598095D01*
X140079549Y-92500000D01*
X140079549Y-91200000D01*
X140069374Y-91096690D01*
X140039239Y-90997350D01*
X139990304Y-90905798D01*
X139924448Y-90825552D01*
X139844202Y-90759696D01*
X139752650Y-90710761D01*
X139653310Y-90680626D01*
X139550000Y-90670451D01*
X138077874Y-90670451D01*
X137492422Y-90085000D01*
X139827578Y-90085000D01*
X140670451Y-90927873D01*
X140670451Y-90927873D01*
G37*
X140670451Y-90927873D02*
X140670451Y-91100000D01*
X140680626Y-91203310D01*
X140710761Y-91302650D01*
X140759696Y-91394202D01*
X140825552Y-91474448D01*
X140905798Y-91540304D01*
X140997350Y-91589239D01*
X141096690Y-91619374D01*
X141200000Y-91629549D01*
X141600000Y-91629549D01*
X141703310Y-91619374D01*
X141723000Y-91613401D01*
X141723000Y-92137141D01*
X141651905Y-92123000D01*
X141504750Y-92123000D01*
X141373000Y-92254750D01*
X141373000Y-92927000D01*
X141393000Y-92927000D01*
X141393000Y-93073000D01*
X141373000Y-93073000D01*
X141373000Y-93745250D01*
X141504750Y-93877000D01*
X141651905Y-93877000D01*
X141753720Y-93856748D01*
X141849628Y-93817021D01*
X141852363Y-93815193D01*
X141897350Y-93839239D01*
X141996690Y-93869374D01*
X142100000Y-93879549D01*
X142700000Y-93879549D01*
X142803310Y-93869374D01*
X142898000Y-93840650D01*
X142898000Y-94654250D01*
X142874448Y-94625552D01*
X142794202Y-94559696D01*
X142702650Y-94510761D01*
X142603310Y-94480626D01*
X142500000Y-94470451D01*
X142100000Y-94470451D01*
X141996690Y-94480626D01*
X141897350Y-94510761D01*
X141850000Y-94536070D01*
X141802650Y-94510761D01*
X141703310Y-94480626D01*
X141600000Y-94470451D01*
X141200000Y-94470451D01*
X141096690Y-94480626D01*
X141051697Y-94494275D01*
X140478723Y-93921301D01*
X140430416Y-93881621D01*
X140382495Y-93841410D01*
X140379375Y-93839695D01*
X140376624Y-93837435D01*
X140321503Y-93807879D01*
X140266711Y-93777757D01*
X140263318Y-93776681D01*
X140260180Y-93774998D01*
X140200348Y-93756706D01*
X140140768Y-93737806D01*
X140137232Y-93737409D01*
X140133826Y-93736368D01*
X140071629Y-93730051D01*
X140009464Y-93723078D01*
X140002497Y-93723029D01*
X140002375Y-93723017D01*
X140002262Y-93723028D01*
X140000012Y-93723012D01*
X134413004Y-93723012D01*
X134348303Y-93625629D01*
X134220205Y-93496633D01*
X134069491Y-93394976D01*
X133901902Y-93324528D01*
X133723821Y-93287973D01*
X133542031Y-93286704D01*
X133363457Y-93320768D01*
X133322045Y-93337500D01*
X133356748Y-93253720D01*
X133366488Y-93204750D01*
X140473000Y-93204750D01*
X140473000Y-93401905D01*
X140493252Y-93503720D01*
X140532979Y-93599628D01*
X140590652Y-93685943D01*
X140664057Y-93759348D01*
X140750372Y-93817021D01*
X140846280Y-93856748D01*
X140948095Y-93877000D01*
X141095250Y-93877000D01*
X141227000Y-93745250D01*
X141227000Y-93073000D01*
X140604750Y-93073000D01*
X140473000Y-93204750D01*
X133366488Y-93204750D01*
X133377000Y-93151905D01*
X133377000Y-93004750D01*
X133245250Y-92873000D01*
X132673000Y-92873000D01*
X132673000Y-93495250D01*
X132804750Y-93627000D01*
X132901905Y-93627000D01*
X132905598Y-93626265D01*
X132810187Y-93765609D01*
X132738571Y-93932702D01*
X132700774Y-94110523D01*
X132698236Y-94292300D01*
X132731053Y-94471107D01*
X132797976Y-94640135D01*
X132864952Y-94744062D01*
X132802650Y-94710761D01*
X132703310Y-94680626D01*
X132600000Y-94670451D01*
X132234938Y-94670451D01*
X132228585Y-94648584D01*
X132226948Y-94645425D01*
X132225918Y-94642015D01*
X132196549Y-94586781D01*
X132167780Y-94531279D01*
X132165559Y-94528497D01*
X132163888Y-94525354D01*
X132124372Y-94476903D01*
X132085348Y-94428019D01*
X132080457Y-94423059D01*
X132080379Y-94422963D01*
X132080290Y-94422889D01*
X132078711Y-94421288D01*
X131378711Y-93721289D01*
X131330404Y-93681609D01*
X131282483Y-93641398D01*
X131279363Y-93639683D01*
X131276612Y-93637423D01*
X131221491Y-93607867D01*
X131166699Y-93577745D01*
X131163306Y-93576669D01*
X131160168Y-93574986D01*
X131100336Y-93556694D01*
X131040756Y-93537794D01*
X131037220Y-93537397D01*
X131033814Y-93536356D01*
X130971617Y-93530039D01*
X130909452Y-93523066D01*
X130902485Y-93523017D01*
X130902363Y-93523005D01*
X130902250Y-93523016D01*
X130900000Y-93523000D01*
X130534190Y-93523000D01*
X130493751Y-93482278D01*
X130343037Y-93380621D01*
X130175448Y-93310173D01*
X129997367Y-93273618D01*
X129815577Y-93272349D01*
X129754549Y-93283990D01*
X129754549Y-93004750D01*
X131823000Y-93004750D01*
X131823000Y-93151905D01*
X131843252Y-93253720D01*
X131882979Y-93349628D01*
X131940652Y-93435943D01*
X132014057Y-93509348D01*
X132100372Y-93567021D01*
X132196280Y-93606748D01*
X132298095Y-93627000D01*
X132395250Y-93627000D01*
X132527000Y-93495250D01*
X132527000Y-92873000D01*
X131954750Y-92873000D01*
X131823000Y-93004750D01*
X129754549Y-93004750D01*
X129754549Y-91904549D01*
X131200000Y-91904549D01*
X131303310Y-91894374D01*
X131402650Y-91864239D01*
X131494202Y-91815304D01*
X131540876Y-91777000D01*
X131719578Y-91777000D01*
X131820451Y-91877873D01*
X131820451Y-92000000D01*
X131830626Y-92103310D01*
X131860761Y-92202650D01*
X131884807Y-92247637D01*
X131882979Y-92250372D01*
X131843252Y-92346280D01*
X131823000Y-92448095D01*
X131823000Y-92595250D01*
X131954750Y-92727000D01*
X132527000Y-92727000D01*
X132527000Y-92707000D01*
X132673000Y-92707000D01*
X132673000Y-92727000D01*
X133245250Y-92727000D01*
X133377000Y-92595250D01*
X133377000Y-92590009D01*
X133929316Y-92590009D01*
X133930626Y-92603310D01*
X133960761Y-92702650D01*
X134009696Y-92794202D01*
X134075552Y-92874448D01*
X134155798Y-92940304D01*
X134247350Y-92989239D01*
X134346690Y-93019374D01*
X134450000Y-93029549D01*
X136350000Y-93029549D01*
X136453310Y-93019374D01*
X136552650Y-92989239D01*
X136644202Y-92940304D01*
X136724448Y-92874448D01*
X136790304Y-92794202D01*
X136839239Y-92702650D01*
X136869374Y-92603310D01*
X136879549Y-92500000D01*
X136879549Y-91386971D01*
X137120451Y-91627874D01*
X137120451Y-92500000D01*
X137130626Y-92603310D01*
X137160761Y-92702650D01*
X137209696Y-92794202D01*
X137275552Y-92874448D01*
X137355798Y-92940304D01*
X137447350Y-92989239D01*
X137546690Y-93019374D01*
X137650000Y-93029549D01*
X139550000Y-93029549D01*
X139653310Y-93019374D01*
X139752650Y-92989239D01*
X139844202Y-92940304D01*
X139924448Y-92874448D01*
X139990304Y-92794202D01*
X140039239Y-92702650D01*
X140069374Y-92603310D01*
X140069887Y-92598095D01*
X140473000Y-92598095D01*
X140473000Y-92795250D01*
X140604750Y-92927000D01*
X141227000Y-92927000D01*
X141227000Y-92254750D01*
X141095250Y-92123000D01*
X140948095Y-92123000D01*
X140846280Y-92143252D01*
X140750372Y-92182979D01*
X140664057Y-92240652D01*
X140590652Y-92314057D01*
X140532979Y-92400372D01*
X140493252Y-92496280D01*
X140473000Y-92598095D01*
X140069887Y-92598095D01*
X140079549Y-92500000D01*
X140079549Y-91200000D01*
X140069374Y-91096690D01*
X140039239Y-90997350D01*
X139990304Y-90905798D01*
X139924448Y-90825552D01*
X139844202Y-90759696D01*
X139752650Y-90710761D01*
X139653310Y-90680626D01*
X139550000Y-90670451D01*
X138077874Y-90670451D01*
X137492422Y-90085000D01*
X139827578Y-90085000D01*
X140670451Y-90927873D01*
G36*
X127803100Y-85373023D02*
X126897216Y-86278907D01*
X126845091Y-86299967D01*
X126692972Y-86399510D01*
X126563085Y-86526705D01*
X126460377Y-86676706D01*
X126388761Y-86843799D01*
X126350964Y-87021620D01*
X126348426Y-87203397D01*
X126381243Y-87382204D01*
X126448166Y-87551232D01*
X126546645Y-87704042D01*
X126672930Y-87834814D01*
X126822210Y-87938566D01*
X126988799Y-88011347D01*
X127166352Y-88050384D01*
X127348107Y-88054192D01*
X127527139Y-88022623D01*
X127593690Y-87996809D01*
X127602922Y-88011134D01*
X127644445Y-88054132D01*
X127583125Y-88143688D01*
X127511509Y-88310781D01*
X127473712Y-88488602D01*
X127471174Y-88670379D01*
X127503991Y-88849186D01*
X127570914Y-89018214D01*
X127665308Y-89164685D01*
X127611455Y-89243335D01*
X127582516Y-89310856D01*
X127566028Y-89303925D01*
X127387947Y-89267370D01*
X127206157Y-89266101D01*
X127027583Y-89300165D01*
X126859027Y-89368267D01*
X126706908Y-89467810D01*
X126577021Y-89595005D01*
X126474313Y-89745006D01*
X126402697Y-89912099D01*
X126364900Y-90089920D01*
X126364044Y-90151245D01*
X126337013Y-90156401D01*
X126168457Y-90224503D01*
X126016338Y-90324046D01*
X125886451Y-90451241D01*
X125783743Y-90601242D01*
X125712127Y-90768335D01*
X125674330Y-90946156D01*
X125671792Y-91127933D01*
X125689240Y-91223000D01*
X125676998Y-91223000D01*
X125676998Y-91354748D01*
X125545250Y-91223000D01*
X125423095Y-91223000D01*
X125350664Y-91237407D01*
X125328310Y-91230626D01*
X125225000Y-91220451D01*
X124675000Y-91220451D01*
X124571690Y-91230626D01*
X124550000Y-91237206D01*
X124528310Y-91230626D01*
X124425000Y-91220451D01*
X123875000Y-91220451D01*
X123771690Y-91230626D01*
X123750000Y-91237206D01*
X123728310Y-91230626D01*
X123625000Y-91220451D01*
X123229549Y-91220451D01*
X123229549Y-90825000D01*
X123219374Y-90721690D01*
X123212794Y-90700000D01*
X123219374Y-90678310D01*
X123229549Y-90575000D01*
X123229549Y-90177000D01*
X123297394Y-90177000D01*
X123306338Y-90184505D01*
X123309458Y-90186220D01*
X123312209Y-90188480D01*
X123367330Y-90218036D01*
X123422122Y-90248158D01*
X123425515Y-90249234D01*
X123428653Y-90250917D01*
X123488485Y-90269209D01*
X123548065Y-90288109D01*
X123551601Y-90288506D01*
X123555007Y-90289547D01*
X123617248Y-90295869D01*
X123679369Y-90302837D01*
X123686326Y-90302886D01*
X123686458Y-90302899D01*
X123686581Y-90302887D01*
X123688821Y-90302903D01*
X124504823Y-90302903D01*
X124567033Y-90296803D01*
X124629358Y-90291351D01*
X124632778Y-90290357D01*
X124636320Y-90290010D01*
X124696191Y-90271934D01*
X124756239Y-90254488D01*
X124759398Y-90252851D01*
X124762808Y-90251821D01*
X124818042Y-90222452D01*
X124873544Y-90193683D01*
X124876326Y-90191462D01*
X124879469Y-90189791D01*
X124927920Y-90150275D01*
X124976804Y-90111251D01*
X124981760Y-90106364D01*
X124981860Y-90106282D01*
X124981937Y-90106189D01*
X124983534Y-90104614D01*
X125619281Y-89468868D01*
X125658985Y-89420531D01*
X125699171Y-89372640D01*
X125700886Y-89369520D01*
X125703146Y-89366769D01*
X125732702Y-89311648D01*
X125762824Y-89256856D01*
X125763900Y-89253463D01*
X125765583Y-89250325D01*
X125783875Y-89190493D01*
X125802775Y-89130913D01*
X125803172Y-89127377D01*
X125804213Y-89123971D01*
X125810535Y-89061730D01*
X125817503Y-88999609D01*
X125817552Y-88992652D01*
X125817565Y-88992520D01*
X125817553Y-88992397D01*
X125817569Y-88990157D01*
X125817569Y-87492891D01*
X125845699Y-87466103D01*
X125950490Y-87317551D01*
X126024433Y-87151474D01*
X126064709Y-86974198D01*
X126067608Y-86766555D01*
X126032298Y-86588223D01*
X125963021Y-86420146D01*
X125862418Y-86268726D01*
X125734320Y-86139730D01*
X125583606Y-86038073D01*
X125416017Y-85967625D01*
X125237936Y-85931070D01*
X125056146Y-85929801D01*
X124877572Y-85963865D01*
X124709016Y-86031967D01*
X124677190Y-86052793D01*
X124646555Y-86006684D01*
X124518457Y-85877688D01*
X124367743Y-85776031D01*
X124200154Y-85705583D01*
X124022073Y-85669028D01*
X123840283Y-85667759D01*
X123661709Y-85701823D01*
X123493153Y-85769925D01*
X123341034Y-85869468D01*
X123225385Y-85982720D01*
X123219374Y-85921690D01*
X123212794Y-85900000D01*
X123219374Y-85878310D01*
X123229549Y-85775000D01*
X123229549Y-85379549D01*
X123625000Y-85379549D01*
X123728310Y-85369374D01*
X123750000Y-85362794D01*
X123771690Y-85369374D01*
X123875000Y-85379549D01*
X124425000Y-85379549D01*
X124528310Y-85369374D01*
X124550000Y-85362794D01*
X124571690Y-85369374D01*
X124675000Y-85379549D01*
X125225000Y-85379549D01*
X125328310Y-85369374D01*
X125350000Y-85362794D01*
X125371690Y-85369374D01*
X125475000Y-85379549D01*
X126025000Y-85379549D01*
X126128310Y-85369374D01*
X126150000Y-85362794D01*
X126171690Y-85369374D01*
X126275000Y-85379549D01*
X126825000Y-85379549D01*
X126928310Y-85369374D01*
X126950000Y-85362794D01*
X126971690Y-85369374D01*
X127075000Y-85379549D01*
X127625000Y-85379549D01*
X127728310Y-85369374D01*
X127750664Y-85362593D01*
X127803100Y-85373023D01*
X127803100Y-85373023D01*
G37*
X127803100Y-85373023D02*
X126897216Y-86278907D01*
X126845091Y-86299967D01*
X126692972Y-86399510D01*
X126563085Y-86526705D01*
X126460377Y-86676706D01*
X126388761Y-86843799D01*
X126350964Y-87021620D01*
X126348426Y-87203397D01*
X126381243Y-87382204D01*
X126448166Y-87551232D01*
X126546645Y-87704042D01*
X126672930Y-87834814D01*
X126822210Y-87938566D01*
X126988799Y-88011347D01*
X127166352Y-88050384D01*
X127348107Y-88054192D01*
X127527139Y-88022623D01*
X127593690Y-87996809D01*
X127602922Y-88011134D01*
X127644445Y-88054132D01*
X127583125Y-88143688D01*
X127511509Y-88310781D01*
X127473712Y-88488602D01*
X127471174Y-88670379D01*
X127503991Y-88849186D01*
X127570914Y-89018214D01*
X127665308Y-89164685D01*
X127611455Y-89243335D01*
X127582516Y-89310856D01*
X127566028Y-89303925D01*
X127387947Y-89267370D01*
X127206157Y-89266101D01*
X127027583Y-89300165D01*
X126859027Y-89368267D01*
X126706908Y-89467810D01*
X126577021Y-89595005D01*
X126474313Y-89745006D01*
X126402697Y-89912099D01*
X126364900Y-90089920D01*
X126364044Y-90151245D01*
X126337013Y-90156401D01*
X126168457Y-90224503D01*
X126016338Y-90324046D01*
X125886451Y-90451241D01*
X125783743Y-90601242D01*
X125712127Y-90768335D01*
X125674330Y-90946156D01*
X125671792Y-91127933D01*
X125689240Y-91223000D01*
X125676998Y-91223000D01*
X125676998Y-91354748D01*
X125545250Y-91223000D01*
X125423095Y-91223000D01*
X125350664Y-91237407D01*
X125328310Y-91230626D01*
X125225000Y-91220451D01*
X124675000Y-91220451D01*
X124571690Y-91230626D01*
X124550000Y-91237206D01*
X124528310Y-91230626D01*
X124425000Y-91220451D01*
X123875000Y-91220451D01*
X123771690Y-91230626D01*
X123750000Y-91237206D01*
X123728310Y-91230626D01*
X123625000Y-91220451D01*
X123229549Y-91220451D01*
X123229549Y-90825000D01*
X123219374Y-90721690D01*
X123212794Y-90700000D01*
X123219374Y-90678310D01*
X123229549Y-90575000D01*
X123229549Y-90177000D01*
X123297394Y-90177000D01*
X123306338Y-90184505D01*
X123309458Y-90186220D01*
X123312209Y-90188480D01*
X123367330Y-90218036D01*
X123422122Y-90248158D01*
X123425515Y-90249234D01*
X123428653Y-90250917D01*
X123488485Y-90269209D01*
X123548065Y-90288109D01*
X123551601Y-90288506D01*
X123555007Y-90289547D01*
X123617248Y-90295869D01*
X123679369Y-90302837D01*
X123686326Y-90302886D01*
X123686458Y-90302899D01*
X123686581Y-90302887D01*
X123688821Y-90302903D01*
X124504823Y-90302903D01*
X124567033Y-90296803D01*
X124629358Y-90291351D01*
X124632778Y-90290357D01*
X124636320Y-90290010D01*
X124696191Y-90271934D01*
X124756239Y-90254488D01*
X124759398Y-90252851D01*
X124762808Y-90251821D01*
X124818042Y-90222452D01*
X124873544Y-90193683D01*
X124876326Y-90191462D01*
X124879469Y-90189791D01*
X124927920Y-90150275D01*
X124976804Y-90111251D01*
X124981760Y-90106364D01*
X124981860Y-90106282D01*
X124981937Y-90106189D01*
X124983534Y-90104614D01*
X125619281Y-89468868D01*
X125658985Y-89420531D01*
X125699171Y-89372640D01*
X125700886Y-89369520D01*
X125703146Y-89366769D01*
X125732702Y-89311648D01*
X125762824Y-89256856D01*
X125763900Y-89253463D01*
X125765583Y-89250325D01*
X125783875Y-89190493D01*
X125802775Y-89130913D01*
X125803172Y-89127377D01*
X125804213Y-89123971D01*
X125810535Y-89061730D01*
X125817503Y-88999609D01*
X125817552Y-88992652D01*
X125817565Y-88992520D01*
X125817553Y-88992397D01*
X125817569Y-88990157D01*
X125817569Y-87492891D01*
X125845699Y-87466103D01*
X125950490Y-87317551D01*
X126024433Y-87151474D01*
X126064709Y-86974198D01*
X126067608Y-86766555D01*
X126032298Y-86588223D01*
X125963021Y-86420146D01*
X125862418Y-86268726D01*
X125734320Y-86139730D01*
X125583606Y-86038073D01*
X125416017Y-85967625D01*
X125237936Y-85931070D01*
X125056146Y-85929801D01*
X124877572Y-85963865D01*
X124709016Y-86031967D01*
X124677190Y-86052793D01*
X124646555Y-86006684D01*
X124518457Y-85877688D01*
X124367743Y-85776031D01*
X124200154Y-85705583D01*
X124022073Y-85669028D01*
X123840283Y-85667759D01*
X123661709Y-85701823D01*
X123493153Y-85769925D01*
X123341034Y-85869468D01*
X123225385Y-85982720D01*
X123219374Y-85921690D01*
X123212794Y-85900000D01*
X123219374Y-85878310D01*
X123229549Y-85775000D01*
X123229549Y-85379549D01*
X123625000Y-85379549D01*
X123728310Y-85369374D01*
X123750000Y-85362794D01*
X123771690Y-85369374D01*
X123875000Y-85379549D01*
X124425000Y-85379549D01*
X124528310Y-85369374D01*
X124550000Y-85362794D01*
X124571690Y-85369374D01*
X124675000Y-85379549D01*
X125225000Y-85379549D01*
X125328310Y-85369374D01*
X125350000Y-85362794D01*
X125371690Y-85369374D01*
X125475000Y-85379549D01*
X126025000Y-85379549D01*
X126128310Y-85369374D01*
X126150000Y-85362794D01*
X126171690Y-85369374D01*
X126275000Y-85379549D01*
X126825000Y-85379549D01*
X126928310Y-85369374D01*
X126950000Y-85362794D01*
X126971690Y-85369374D01*
X127075000Y-85379549D01*
X127625000Y-85379549D01*
X127728310Y-85369374D01*
X127750664Y-85362593D01*
X127803100Y-85373023D01*
G36*
X140526918Y-85734340D02*
X140520451Y-85800000D01*
X140520451Y-86400000D01*
X140530626Y-86503310D01*
X140560761Y-86602650D01*
X140609696Y-86694202D01*
X140675552Y-86774448D01*
X140755798Y-86840304D01*
X140847350Y-86889239D01*
X140946690Y-86919374D01*
X141050000Y-86929549D01*
X141450000Y-86929549D01*
X141553310Y-86919374D01*
X141652650Y-86889239D01*
X141700000Y-86863930D01*
X141723000Y-86876224D01*
X141723000Y-87737141D01*
X141651905Y-87723000D01*
X141504750Y-87723000D01*
X141373000Y-87854750D01*
X141373000Y-88527000D01*
X141393000Y-88527000D01*
X141393000Y-88673000D01*
X141373000Y-88673000D01*
X141373000Y-89345250D01*
X141504750Y-89477000D01*
X141651905Y-89477000D01*
X141753720Y-89456748D01*
X141849628Y-89417021D01*
X141852363Y-89415193D01*
X141897350Y-89439239D01*
X141996690Y-89469374D01*
X142100000Y-89479549D01*
X142700000Y-89479549D01*
X142803310Y-89469374D01*
X142898000Y-89440650D01*
X142898000Y-90154250D01*
X142874448Y-90125552D01*
X142794202Y-90059696D01*
X142702650Y-90010761D01*
X142603310Y-89980626D01*
X142500000Y-89970451D01*
X142100000Y-89970451D01*
X141996690Y-89980626D01*
X141897350Y-90010761D01*
X141850000Y-90036070D01*
X141802650Y-90010761D01*
X141703310Y-89980626D01*
X141630918Y-89973496D01*
X141114836Y-89457414D01*
X141227000Y-89345250D01*
X141227000Y-88673000D01*
X140604750Y-88673000D01*
X140473000Y-88804750D01*
X140473000Y-88839197D01*
X140429491Y-88815867D01*
X140374699Y-88785745D01*
X140371306Y-88784669D01*
X140368168Y-88782986D01*
X140308336Y-88764694D01*
X140248756Y-88745794D01*
X140245220Y-88745397D01*
X140241814Y-88744356D01*
X140179617Y-88738039D01*
X140117452Y-88731066D01*
X140110485Y-88731017D01*
X140110363Y-88731005D01*
X140110250Y-88731016D01*
X140108000Y-88731000D01*
X134234162Y-88731000D01*
X134193723Y-88690278D01*
X134043009Y-88588621D01*
X133875420Y-88518173D01*
X133697339Y-88481618D01*
X133515549Y-88480349D01*
X133361527Y-88509730D01*
X133415304Y-88444202D01*
X133464239Y-88352650D01*
X133494374Y-88253310D01*
X133499812Y-88198095D01*
X140473000Y-88198095D01*
X140473000Y-88395250D01*
X140604750Y-88527000D01*
X141227000Y-88527000D01*
X141227000Y-87854750D01*
X141095250Y-87723000D01*
X140948095Y-87723000D01*
X140846280Y-87743252D01*
X140750372Y-87782979D01*
X140664057Y-87840652D01*
X140590652Y-87914057D01*
X140532979Y-88000372D01*
X140493252Y-88096280D01*
X140473000Y-88198095D01*
X133499812Y-88198095D01*
X133504549Y-88150000D01*
X133504549Y-86950000D01*
X133494374Y-86846690D01*
X133464239Y-86747350D01*
X133415304Y-86655798D01*
X133369863Y-86600428D01*
X133384348Y-86585943D01*
X133442021Y-86499628D01*
X133481748Y-86403720D01*
X133502000Y-86301905D01*
X133502000Y-85854750D01*
X133370250Y-85723000D01*
X132673000Y-85723000D01*
X132673000Y-85743000D01*
X132527000Y-85743000D01*
X132527000Y-85723000D01*
X132507000Y-85723000D01*
X132507000Y-85700000D01*
X133920451Y-85700000D01*
X133920451Y-87000000D01*
X133930626Y-87103310D01*
X133960761Y-87202650D01*
X134009696Y-87294202D01*
X134075552Y-87374448D01*
X134155798Y-87440304D01*
X134247350Y-87489239D01*
X134346690Y-87519374D01*
X134450000Y-87529549D01*
X136350000Y-87529549D01*
X136453310Y-87519374D01*
X136552650Y-87489239D01*
X136644202Y-87440304D01*
X136724448Y-87374448D01*
X136790304Y-87294202D01*
X136839239Y-87202650D01*
X136869374Y-87103310D01*
X136879549Y-87000000D01*
X136879549Y-85700000D01*
X137120451Y-85700000D01*
X137120451Y-87000000D01*
X137130626Y-87103310D01*
X137160761Y-87202650D01*
X137209696Y-87294202D01*
X137275552Y-87374448D01*
X137355798Y-87440304D01*
X137447350Y-87489239D01*
X137546690Y-87519374D01*
X137650000Y-87529549D01*
X139550000Y-87529549D01*
X139653310Y-87519374D01*
X139752650Y-87489239D01*
X139844202Y-87440304D01*
X139924448Y-87374448D01*
X139990304Y-87294202D01*
X140039239Y-87202650D01*
X140069374Y-87103310D01*
X140079549Y-87000000D01*
X140079549Y-85700000D01*
X140069374Y-85596690D01*
X140039239Y-85497350D01*
X139990304Y-85405798D01*
X139924448Y-85325552D01*
X139844202Y-85259696D01*
X139752650Y-85210761D01*
X139653310Y-85180626D01*
X139550000Y-85170451D01*
X137650000Y-85170451D01*
X137546690Y-85180626D01*
X137447350Y-85210761D01*
X137355798Y-85259696D01*
X137275552Y-85325552D01*
X137209696Y-85405798D01*
X137160761Y-85497350D01*
X137130626Y-85596690D01*
X137120451Y-85700000D01*
X136879549Y-85700000D01*
X136869374Y-85596690D01*
X136839239Y-85497350D01*
X136790304Y-85405798D01*
X136724448Y-85325552D01*
X136644202Y-85259696D01*
X136552650Y-85210761D01*
X136453310Y-85180626D01*
X136350000Y-85170451D01*
X134450000Y-85170451D01*
X134346690Y-85180626D01*
X134247350Y-85210761D01*
X134155798Y-85259696D01*
X134075552Y-85325552D01*
X134009696Y-85405798D01*
X133960761Y-85497350D01*
X133930626Y-85596690D01*
X133920451Y-85700000D01*
X132507000Y-85700000D01*
X132507000Y-85577000D01*
X132527000Y-85577000D01*
X132527000Y-85557000D01*
X132673000Y-85557000D01*
X132673000Y-85577000D01*
X133370250Y-85577000D01*
X133502000Y-85445250D01*
X133502000Y-85223355D01*
X133650495Y-85197171D01*
X133819986Y-85131430D01*
X133973479Y-85034020D01*
X134033356Y-84977000D01*
X139769578Y-84977000D01*
X140526918Y-85734340D01*
X140526918Y-85734340D01*
G37*
X140526918Y-85734340D02*
X140520451Y-85800000D01*
X140520451Y-86400000D01*
X140530626Y-86503310D01*
X140560761Y-86602650D01*
X140609696Y-86694202D01*
X140675552Y-86774448D01*
X140755798Y-86840304D01*
X140847350Y-86889239D01*
X140946690Y-86919374D01*
X141050000Y-86929549D01*
X141450000Y-86929549D01*
X141553310Y-86919374D01*
X141652650Y-86889239D01*
X141700000Y-86863930D01*
X141723000Y-86876224D01*
X141723000Y-87737141D01*
X141651905Y-87723000D01*
X141504750Y-87723000D01*
X141373000Y-87854750D01*
X141373000Y-88527000D01*
X141393000Y-88527000D01*
X141393000Y-88673000D01*
X141373000Y-88673000D01*
X141373000Y-89345250D01*
X141504750Y-89477000D01*
X141651905Y-89477000D01*
X141753720Y-89456748D01*
X141849628Y-89417021D01*
X141852363Y-89415193D01*
X141897350Y-89439239D01*
X141996690Y-89469374D01*
X142100000Y-89479549D01*
X142700000Y-89479549D01*
X142803310Y-89469374D01*
X142898000Y-89440650D01*
X142898000Y-90154250D01*
X142874448Y-90125552D01*
X142794202Y-90059696D01*
X142702650Y-90010761D01*
X142603310Y-89980626D01*
X142500000Y-89970451D01*
X142100000Y-89970451D01*
X141996690Y-89980626D01*
X141897350Y-90010761D01*
X141850000Y-90036070D01*
X141802650Y-90010761D01*
X141703310Y-89980626D01*
X141630918Y-89973496D01*
X141114836Y-89457414D01*
X141227000Y-89345250D01*
X141227000Y-88673000D01*
X140604750Y-88673000D01*
X140473000Y-88804750D01*
X140473000Y-88839197D01*
X140429491Y-88815867D01*
X140374699Y-88785745D01*
X140371306Y-88784669D01*
X140368168Y-88782986D01*
X140308336Y-88764694D01*
X140248756Y-88745794D01*
X140245220Y-88745397D01*
X140241814Y-88744356D01*
X140179617Y-88738039D01*
X140117452Y-88731066D01*
X140110485Y-88731017D01*
X140110363Y-88731005D01*
X140110250Y-88731016D01*
X140108000Y-88731000D01*
X134234162Y-88731000D01*
X134193723Y-88690278D01*
X134043009Y-88588621D01*
X133875420Y-88518173D01*
X133697339Y-88481618D01*
X133515549Y-88480349D01*
X133361527Y-88509730D01*
X133415304Y-88444202D01*
X133464239Y-88352650D01*
X133494374Y-88253310D01*
X133499812Y-88198095D01*
X140473000Y-88198095D01*
X140473000Y-88395250D01*
X140604750Y-88527000D01*
X141227000Y-88527000D01*
X141227000Y-87854750D01*
X141095250Y-87723000D01*
X140948095Y-87723000D01*
X140846280Y-87743252D01*
X140750372Y-87782979D01*
X140664057Y-87840652D01*
X140590652Y-87914057D01*
X140532979Y-88000372D01*
X140493252Y-88096280D01*
X140473000Y-88198095D01*
X133499812Y-88198095D01*
X133504549Y-88150000D01*
X133504549Y-86950000D01*
X133494374Y-86846690D01*
X133464239Y-86747350D01*
X133415304Y-86655798D01*
X133369863Y-86600428D01*
X133384348Y-86585943D01*
X133442021Y-86499628D01*
X133481748Y-86403720D01*
X133502000Y-86301905D01*
X133502000Y-85854750D01*
X133370250Y-85723000D01*
X132673000Y-85723000D01*
X132673000Y-85743000D01*
X132527000Y-85743000D01*
X132527000Y-85723000D01*
X132507000Y-85723000D01*
X132507000Y-85700000D01*
X133920451Y-85700000D01*
X133920451Y-87000000D01*
X133930626Y-87103310D01*
X133960761Y-87202650D01*
X134009696Y-87294202D01*
X134075552Y-87374448D01*
X134155798Y-87440304D01*
X134247350Y-87489239D01*
X134346690Y-87519374D01*
X134450000Y-87529549D01*
X136350000Y-87529549D01*
X136453310Y-87519374D01*
X136552650Y-87489239D01*
X136644202Y-87440304D01*
X136724448Y-87374448D01*
X136790304Y-87294202D01*
X136839239Y-87202650D01*
X136869374Y-87103310D01*
X136879549Y-87000000D01*
X136879549Y-85700000D01*
X137120451Y-85700000D01*
X137120451Y-87000000D01*
X137130626Y-87103310D01*
X137160761Y-87202650D01*
X137209696Y-87294202D01*
X137275552Y-87374448D01*
X137355798Y-87440304D01*
X137447350Y-87489239D01*
X137546690Y-87519374D01*
X137650000Y-87529549D01*
X139550000Y-87529549D01*
X139653310Y-87519374D01*
X139752650Y-87489239D01*
X139844202Y-87440304D01*
X139924448Y-87374448D01*
X139990304Y-87294202D01*
X140039239Y-87202650D01*
X140069374Y-87103310D01*
X140079549Y-87000000D01*
X140079549Y-85700000D01*
X140069374Y-85596690D01*
X140039239Y-85497350D01*
X139990304Y-85405798D01*
X139924448Y-85325552D01*
X139844202Y-85259696D01*
X139752650Y-85210761D01*
X139653310Y-85180626D01*
X139550000Y-85170451D01*
X137650000Y-85170451D01*
X137546690Y-85180626D01*
X137447350Y-85210761D01*
X137355798Y-85259696D01*
X137275552Y-85325552D01*
X137209696Y-85405798D01*
X137160761Y-85497350D01*
X137130626Y-85596690D01*
X137120451Y-85700000D01*
X136879549Y-85700000D01*
X136869374Y-85596690D01*
X136839239Y-85497350D01*
X136790304Y-85405798D01*
X136724448Y-85325552D01*
X136644202Y-85259696D01*
X136552650Y-85210761D01*
X136453310Y-85180626D01*
X136350000Y-85170451D01*
X134450000Y-85170451D01*
X134346690Y-85180626D01*
X134247350Y-85210761D01*
X134155798Y-85259696D01*
X134075552Y-85325552D01*
X134009696Y-85405798D01*
X133960761Y-85497350D01*
X133930626Y-85596690D01*
X133920451Y-85700000D01*
X132507000Y-85700000D01*
X132507000Y-85577000D01*
X132527000Y-85577000D01*
X132527000Y-85557000D01*
X132673000Y-85557000D01*
X132673000Y-85577000D01*
X133370250Y-85577000D01*
X133502000Y-85445250D01*
X133502000Y-85223355D01*
X133650495Y-85197171D01*
X133819986Y-85131430D01*
X133973479Y-85034020D01*
X134033356Y-84977000D01*
X139769578Y-84977000D01*
X140526918Y-85734340D01*
G36*
X131954750Y-89227000D02*
X132527000Y-89227000D01*
X132527000Y-89207000D01*
X132673000Y-89207000D01*
X132673000Y-89227000D01*
X132690695Y-89227000D01*
X132674292Y-89304168D01*
X132673331Y-89373000D01*
X132673000Y-89373000D01*
X132673000Y-89393000D01*
X132527000Y-89393000D01*
X132527000Y-89373000D01*
X131954750Y-89373000D01*
X131823000Y-89504750D01*
X131823000Y-89623000D01*
X131729549Y-89623000D01*
X131729549Y-89314452D01*
X131763219Y-89296549D01*
X131818721Y-89267780D01*
X131821503Y-89265559D01*
X131824646Y-89263888D01*
X131873097Y-89224372D01*
X131917041Y-89189291D01*
X131954750Y-89227000D01*
X131954750Y-89227000D01*
G37*
X131954750Y-89227000D02*
X132527000Y-89227000D01*
X132527000Y-89207000D01*
X132673000Y-89207000D01*
X132673000Y-89227000D01*
X132690695Y-89227000D01*
X132674292Y-89304168D01*
X132673331Y-89373000D01*
X132673000Y-89373000D01*
X132673000Y-89393000D01*
X132527000Y-89393000D01*
X132527000Y-89373000D01*
X131954750Y-89373000D01*
X131823000Y-89504750D01*
X131823000Y-89623000D01*
X131729549Y-89623000D01*
X131729549Y-89314452D01*
X131763219Y-89296549D01*
X131818721Y-89267780D01*
X131821503Y-89265559D01*
X131824646Y-89263888D01*
X131873097Y-89224372D01*
X131917041Y-89189291D01*
X131954750Y-89227000D01*
G36*
X114470451Y-82000000D02*
X114480626Y-82103310D01*
X114510761Y-82202650D01*
X114559696Y-82294202D01*
X114574955Y-82312795D01*
X114573000Y-82314750D01*
X114573000Y-83387000D01*
X114593000Y-83387000D01*
X114593000Y-83533000D01*
X114573000Y-83533000D01*
X114573000Y-84605250D01*
X114704750Y-84737000D01*
X115039156Y-84737000D01*
X114680705Y-85095451D01*
X114050000Y-85095451D01*
X113946690Y-85105626D01*
X113847350Y-85135761D01*
X113755798Y-85184696D01*
X113700428Y-85230137D01*
X113685943Y-85215652D01*
X113599628Y-85157979D01*
X113503720Y-85118252D01*
X113401905Y-85098000D01*
X112954750Y-85098000D01*
X112823000Y-85229750D01*
X112823000Y-85927000D01*
X112843000Y-85927000D01*
X112843000Y-86073000D01*
X112823000Y-86073000D01*
X112823000Y-86770250D01*
X112954750Y-86902000D01*
X113401905Y-86902000D01*
X113503720Y-86881748D01*
X113599628Y-86842021D01*
X113685943Y-86784348D01*
X113700428Y-86769863D01*
X113755798Y-86815304D01*
X113847350Y-86864239D01*
X113946690Y-86894374D01*
X114050000Y-86904549D01*
X115250000Y-86904549D01*
X115353310Y-86894374D01*
X115452650Y-86864239D01*
X115544202Y-86815304D01*
X115624448Y-86749448D01*
X115690304Y-86669202D01*
X115739239Y-86577650D01*
X115769374Y-86478310D01*
X115779549Y-86375000D01*
X115779549Y-86194295D01*
X116225797Y-85748047D01*
X116304750Y-85827000D01*
X117227000Y-85827000D01*
X117227000Y-85129750D01*
X117095250Y-84998000D01*
X116764776Y-84998000D01*
X116768918Y-84957222D01*
X116776924Y-84885849D01*
X116776980Y-84877860D01*
X116776995Y-84877712D01*
X116776982Y-84877574D01*
X116777000Y-84875000D01*
X116777000Y-84688362D01*
X116797350Y-84699239D01*
X116896690Y-84729374D01*
X117000000Y-84739549D01*
X118000000Y-84739549D01*
X118103310Y-84729374D01*
X118202650Y-84699239D01*
X118294202Y-84650304D01*
X118374448Y-84584448D01*
X118384304Y-84572438D01*
X118473000Y-84661133D01*
X118473000Y-85012812D01*
X118397350Y-85035761D01*
X118305798Y-85084696D01*
X118250428Y-85130137D01*
X118235943Y-85115652D01*
X118149628Y-85057979D01*
X118053720Y-85018252D01*
X117951905Y-84998000D01*
X117504750Y-84998000D01*
X117373000Y-85129750D01*
X117373000Y-85827000D01*
X117393000Y-85827000D01*
X117393000Y-85973000D01*
X117373000Y-85973000D01*
X117373000Y-85993000D01*
X117227000Y-85993000D01*
X117227000Y-85973000D01*
X116304750Y-85973000D01*
X116173000Y-86104750D01*
X116173000Y-86326905D01*
X116193252Y-86428720D01*
X116232979Y-86524628D01*
X116290652Y-86610943D01*
X116364057Y-86684348D01*
X116428612Y-86727482D01*
X116396690Y-86730626D01*
X116297350Y-86760761D01*
X116205798Y-86809696D01*
X116125552Y-86875552D01*
X116059696Y-86955798D01*
X116050501Y-86973000D01*
X113500000Y-86973000D01*
X113433181Y-86979552D01*
X113366267Y-86985406D01*
X113362594Y-86986473D01*
X113358792Y-86986846D01*
X113294518Y-87006251D01*
X113230016Y-87024991D01*
X113226623Y-87026750D01*
X113222962Y-87027855D01*
X113163608Y-87059414D01*
X113104048Y-87090287D01*
X113101065Y-87092668D01*
X113097684Y-87094466D01*
X113045599Y-87136946D01*
X112993161Y-87178806D01*
X112987837Y-87184055D01*
X112987731Y-87184142D01*
X112987650Y-87184240D01*
X112985933Y-87185933D01*
X112795731Y-87376135D01*
X112637003Y-87406413D01*
X112468447Y-87474515D01*
X112316328Y-87574058D01*
X112186441Y-87701253D01*
X112083733Y-87851254D01*
X112031213Y-87973791D01*
X111079652Y-87022230D01*
X111079745Y-87015588D01*
X111031081Y-86769815D01*
X110935606Y-86538175D01*
X110796957Y-86329491D01*
X110673084Y-86204750D01*
X111623000Y-86204750D01*
X111623000Y-86426905D01*
X111643252Y-86528720D01*
X111682979Y-86624628D01*
X111740652Y-86710943D01*
X111814057Y-86784348D01*
X111900372Y-86842021D01*
X111996280Y-86881748D01*
X112098095Y-86902000D01*
X112545250Y-86902000D01*
X112677000Y-86770250D01*
X112677000Y-86073000D01*
X111754750Y-86073000D01*
X111623000Y-86204750D01*
X110673084Y-86204750D01*
X110620414Y-86151712D01*
X110412704Y-86011609D01*
X110181736Y-85914519D01*
X109963542Y-85869731D01*
X110147346Y-85837322D01*
X110380935Y-85746719D01*
X110592477Y-85612470D01*
X110633824Y-85573095D01*
X111623000Y-85573095D01*
X111623000Y-85795250D01*
X111754750Y-85927000D01*
X112677000Y-85927000D01*
X112677000Y-85229750D01*
X112545250Y-85098000D01*
X112098095Y-85098000D01*
X111996280Y-85118252D01*
X111900372Y-85157979D01*
X111814057Y-85215652D01*
X111740652Y-85289057D01*
X111682979Y-85375372D01*
X111643252Y-85471280D01*
X111623000Y-85573095D01*
X110633824Y-85573095D01*
X110773914Y-85439690D01*
X110918336Y-85234959D01*
X111020241Y-85006075D01*
X111075749Y-84761757D01*
X111079745Y-84475588D01*
X111070901Y-84430923D01*
X111679244Y-83822580D01*
X111750000Y-83829549D01*
X112650000Y-83829549D01*
X112753310Y-83819374D01*
X112852650Y-83789239D01*
X112944202Y-83740304D01*
X113024448Y-83674448D01*
X113032406Y-83664750D01*
X113473000Y-83664750D01*
X113473000Y-84261905D01*
X113493252Y-84363720D01*
X113532979Y-84459628D01*
X113590652Y-84545943D01*
X113664057Y-84619348D01*
X113750372Y-84677021D01*
X113846280Y-84716748D01*
X113948095Y-84737000D01*
X114295250Y-84737000D01*
X114427000Y-84605250D01*
X114427000Y-83533000D01*
X113604750Y-83533000D01*
X113473000Y-83664750D01*
X113032406Y-83664750D01*
X113090304Y-83594202D01*
X113139239Y-83502650D01*
X113169374Y-83403310D01*
X113179549Y-83300000D01*
X113179549Y-82658095D01*
X113473000Y-82658095D01*
X113473000Y-83255250D01*
X113604750Y-83387000D01*
X114427000Y-83387000D01*
X114427000Y-82314750D01*
X114295250Y-82183000D01*
X113948095Y-82183000D01*
X113846280Y-82203252D01*
X113750372Y-82242979D01*
X113664057Y-82300652D01*
X113590652Y-82374057D01*
X113532979Y-82460372D01*
X113493252Y-82556280D01*
X113473000Y-82658095D01*
X113179549Y-82658095D01*
X113179549Y-82100000D01*
X113169374Y-81996690D01*
X113139239Y-81897350D01*
X113090304Y-81805798D01*
X113024448Y-81725552D01*
X112944202Y-81659696D01*
X112852650Y-81610761D01*
X112817176Y-81600000D01*
X112852650Y-81589239D01*
X112944202Y-81540304D01*
X113024448Y-81474448D01*
X113090304Y-81394202D01*
X113139239Y-81302650D01*
X113147020Y-81277000D01*
X114470451Y-81277000D01*
X114470451Y-82000000D01*
X114470451Y-82000000D01*
G37*
X114470451Y-82000000D02*
X114480626Y-82103310D01*
X114510761Y-82202650D01*
X114559696Y-82294202D01*
X114574955Y-82312795D01*
X114573000Y-82314750D01*
X114573000Y-83387000D01*
X114593000Y-83387000D01*
X114593000Y-83533000D01*
X114573000Y-83533000D01*
X114573000Y-84605250D01*
X114704750Y-84737000D01*
X115039156Y-84737000D01*
X114680705Y-85095451D01*
X114050000Y-85095451D01*
X113946690Y-85105626D01*
X113847350Y-85135761D01*
X113755798Y-85184696D01*
X113700428Y-85230137D01*
X113685943Y-85215652D01*
X113599628Y-85157979D01*
X113503720Y-85118252D01*
X113401905Y-85098000D01*
X112954750Y-85098000D01*
X112823000Y-85229750D01*
X112823000Y-85927000D01*
X112843000Y-85927000D01*
X112843000Y-86073000D01*
X112823000Y-86073000D01*
X112823000Y-86770250D01*
X112954750Y-86902000D01*
X113401905Y-86902000D01*
X113503720Y-86881748D01*
X113599628Y-86842021D01*
X113685943Y-86784348D01*
X113700428Y-86769863D01*
X113755798Y-86815304D01*
X113847350Y-86864239D01*
X113946690Y-86894374D01*
X114050000Y-86904549D01*
X115250000Y-86904549D01*
X115353310Y-86894374D01*
X115452650Y-86864239D01*
X115544202Y-86815304D01*
X115624448Y-86749448D01*
X115690304Y-86669202D01*
X115739239Y-86577650D01*
X115769374Y-86478310D01*
X115779549Y-86375000D01*
X115779549Y-86194295D01*
X116225797Y-85748047D01*
X116304750Y-85827000D01*
X117227000Y-85827000D01*
X117227000Y-85129750D01*
X117095250Y-84998000D01*
X116764776Y-84998000D01*
X116768918Y-84957222D01*
X116776924Y-84885849D01*
X116776980Y-84877860D01*
X116776995Y-84877712D01*
X116776982Y-84877574D01*
X116777000Y-84875000D01*
X116777000Y-84688362D01*
X116797350Y-84699239D01*
X116896690Y-84729374D01*
X117000000Y-84739549D01*
X118000000Y-84739549D01*
X118103310Y-84729374D01*
X118202650Y-84699239D01*
X118294202Y-84650304D01*
X118374448Y-84584448D01*
X118384304Y-84572438D01*
X118473000Y-84661133D01*
X118473000Y-85012812D01*
X118397350Y-85035761D01*
X118305798Y-85084696D01*
X118250428Y-85130137D01*
X118235943Y-85115652D01*
X118149628Y-85057979D01*
X118053720Y-85018252D01*
X117951905Y-84998000D01*
X117504750Y-84998000D01*
X117373000Y-85129750D01*
X117373000Y-85827000D01*
X117393000Y-85827000D01*
X117393000Y-85973000D01*
X117373000Y-85973000D01*
X117373000Y-85993000D01*
X117227000Y-85993000D01*
X117227000Y-85973000D01*
X116304750Y-85973000D01*
X116173000Y-86104750D01*
X116173000Y-86326905D01*
X116193252Y-86428720D01*
X116232979Y-86524628D01*
X116290652Y-86610943D01*
X116364057Y-86684348D01*
X116428612Y-86727482D01*
X116396690Y-86730626D01*
X116297350Y-86760761D01*
X116205798Y-86809696D01*
X116125552Y-86875552D01*
X116059696Y-86955798D01*
X116050501Y-86973000D01*
X113500000Y-86973000D01*
X113433181Y-86979552D01*
X113366267Y-86985406D01*
X113362594Y-86986473D01*
X113358792Y-86986846D01*
X113294518Y-87006251D01*
X113230016Y-87024991D01*
X113226623Y-87026750D01*
X113222962Y-87027855D01*
X113163608Y-87059414D01*
X113104048Y-87090287D01*
X113101065Y-87092668D01*
X113097684Y-87094466D01*
X113045599Y-87136946D01*
X112993161Y-87178806D01*
X112987837Y-87184055D01*
X112987731Y-87184142D01*
X112987650Y-87184240D01*
X112985933Y-87185933D01*
X112795731Y-87376135D01*
X112637003Y-87406413D01*
X112468447Y-87474515D01*
X112316328Y-87574058D01*
X112186441Y-87701253D01*
X112083733Y-87851254D01*
X112031213Y-87973791D01*
X111079652Y-87022230D01*
X111079745Y-87015588D01*
X111031081Y-86769815D01*
X110935606Y-86538175D01*
X110796957Y-86329491D01*
X110673084Y-86204750D01*
X111623000Y-86204750D01*
X111623000Y-86426905D01*
X111643252Y-86528720D01*
X111682979Y-86624628D01*
X111740652Y-86710943D01*
X111814057Y-86784348D01*
X111900372Y-86842021D01*
X111996280Y-86881748D01*
X112098095Y-86902000D01*
X112545250Y-86902000D01*
X112677000Y-86770250D01*
X112677000Y-86073000D01*
X111754750Y-86073000D01*
X111623000Y-86204750D01*
X110673084Y-86204750D01*
X110620414Y-86151712D01*
X110412704Y-86011609D01*
X110181736Y-85914519D01*
X109963542Y-85869731D01*
X110147346Y-85837322D01*
X110380935Y-85746719D01*
X110592477Y-85612470D01*
X110633824Y-85573095D01*
X111623000Y-85573095D01*
X111623000Y-85795250D01*
X111754750Y-85927000D01*
X112677000Y-85927000D01*
X112677000Y-85229750D01*
X112545250Y-85098000D01*
X112098095Y-85098000D01*
X111996280Y-85118252D01*
X111900372Y-85157979D01*
X111814057Y-85215652D01*
X111740652Y-85289057D01*
X111682979Y-85375372D01*
X111643252Y-85471280D01*
X111623000Y-85573095D01*
X110633824Y-85573095D01*
X110773914Y-85439690D01*
X110918336Y-85234959D01*
X111020241Y-85006075D01*
X111075749Y-84761757D01*
X111079745Y-84475588D01*
X111070901Y-84430923D01*
X111679244Y-83822580D01*
X111750000Y-83829549D01*
X112650000Y-83829549D01*
X112753310Y-83819374D01*
X112852650Y-83789239D01*
X112944202Y-83740304D01*
X113024448Y-83674448D01*
X113032406Y-83664750D01*
X113473000Y-83664750D01*
X113473000Y-84261905D01*
X113493252Y-84363720D01*
X113532979Y-84459628D01*
X113590652Y-84545943D01*
X113664057Y-84619348D01*
X113750372Y-84677021D01*
X113846280Y-84716748D01*
X113948095Y-84737000D01*
X114295250Y-84737000D01*
X114427000Y-84605250D01*
X114427000Y-83533000D01*
X113604750Y-83533000D01*
X113473000Y-83664750D01*
X113032406Y-83664750D01*
X113090304Y-83594202D01*
X113139239Y-83502650D01*
X113169374Y-83403310D01*
X113179549Y-83300000D01*
X113179549Y-82658095D01*
X113473000Y-82658095D01*
X113473000Y-83255250D01*
X113604750Y-83387000D01*
X114427000Y-83387000D01*
X114427000Y-82314750D01*
X114295250Y-82183000D01*
X113948095Y-82183000D01*
X113846280Y-82203252D01*
X113750372Y-82242979D01*
X113664057Y-82300652D01*
X113590652Y-82374057D01*
X113532979Y-82460372D01*
X113493252Y-82556280D01*
X113473000Y-82658095D01*
X113179549Y-82658095D01*
X113179549Y-82100000D01*
X113169374Y-81996690D01*
X113139239Y-81897350D01*
X113090304Y-81805798D01*
X113024448Y-81725552D01*
X112944202Y-81659696D01*
X112852650Y-81610761D01*
X112817176Y-81600000D01*
X112852650Y-81589239D01*
X112944202Y-81540304D01*
X113024448Y-81474448D01*
X113090304Y-81394202D01*
X113139239Y-81302650D01*
X113147020Y-81277000D01*
X114470451Y-81277000D01*
X114470451Y-82000000D01*
G36*
X142898000Y-85893868D02*
X142885348Y-85878019D01*
X142880457Y-85873059D01*
X142880379Y-85872963D01*
X142880290Y-85872889D01*
X142879549Y-85872138D01*
X142879549Y-85800000D01*
X142869374Y-85696690D01*
X142839239Y-85597350D01*
X142790304Y-85505798D01*
X142724448Y-85425552D01*
X142644202Y-85359696D01*
X142552650Y-85310761D01*
X142453310Y-85280626D01*
X142350000Y-85270451D01*
X141950000Y-85270451D01*
X141886748Y-85276681D01*
X141878585Y-85248584D01*
X141876948Y-85245425D01*
X141875918Y-85242015D01*
X141846549Y-85186781D01*
X141817780Y-85131279D01*
X141815559Y-85128497D01*
X141813888Y-85125354D01*
X141774372Y-85076903D01*
X141735348Y-85028019D01*
X141730461Y-85023063D01*
X141730379Y-85022963D01*
X141730286Y-85022886D01*
X141728711Y-85021289D01*
X140528711Y-83821289D01*
X140480404Y-83781609D01*
X140432483Y-83741398D01*
X140429363Y-83739683D01*
X140426612Y-83737423D01*
X140371491Y-83707867D01*
X140316699Y-83677745D01*
X140313306Y-83676669D01*
X140310168Y-83674986D01*
X140250336Y-83656694D01*
X140190756Y-83637794D01*
X140187220Y-83637397D01*
X140183814Y-83636356D01*
X140121617Y-83630039D01*
X140059452Y-83623066D01*
X140052485Y-83623017D01*
X140052363Y-83623005D01*
X140052250Y-83623016D01*
X140050000Y-83623000D01*
X134034190Y-83623000D01*
X133993751Y-83582278D01*
X133860639Y-83492494D01*
X134232043Y-83121090D01*
X134274633Y-83069240D01*
X134317835Y-83017754D01*
X134319679Y-83014400D01*
X134322102Y-83011450D01*
X134353825Y-82952287D01*
X134386188Y-82893419D01*
X134387343Y-82889778D01*
X134389151Y-82886406D01*
X134408795Y-82822154D01*
X134429090Y-82758175D01*
X134429516Y-82754377D01*
X134430634Y-82750720D01*
X134437419Y-82683923D01*
X134444906Y-82617174D01*
X134444958Y-82609696D01*
X134444972Y-82609561D01*
X134444960Y-82609435D01*
X134444977Y-82607023D01*
X134444977Y-81527000D01*
X135537812Y-81527000D01*
X135560761Y-81602650D01*
X135609696Y-81694202D01*
X135675552Y-81774448D01*
X135755798Y-81840304D01*
X135847350Y-81889239D01*
X135946690Y-81919374D01*
X136050000Y-81929549D01*
X136950000Y-81929549D01*
X137053310Y-81919374D01*
X137152650Y-81889239D01*
X137244202Y-81840304D01*
X137324448Y-81774448D01*
X137390304Y-81694202D01*
X137439239Y-81602650D01*
X137469374Y-81503310D01*
X137479549Y-81400000D01*
X137479549Y-81227000D01*
X137886613Y-81227000D01*
X137925552Y-81274448D01*
X138005798Y-81340304D01*
X138023000Y-81349499D01*
X138023000Y-81627980D01*
X137997350Y-81635761D01*
X137905798Y-81684696D01*
X137825552Y-81750552D01*
X137759696Y-81830798D01*
X137710761Y-81922350D01*
X137680626Y-82021690D01*
X137670451Y-82125000D01*
X137670451Y-82875000D01*
X137680626Y-82978310D01*
X137710761Y-83077650D01*
X137759696Y-83169202D01*
X137825552Y-83249448D01*
X137905798Y-83315304D01*
X137997350Y-83364239D01*
X138096690Y-83394374D01*
X138200000Y-83404549D01*
X139400000Y-83404549D01*
X139503310Y-83394374D01*
X139602650Y-83364239D01*
X139694202Y-83315304D01*
X139749572Y-83269863D01*
X139764057Y-83284348D01*
X139850372Y-83342021D01*
X139946280Y-83381748D01*
X140048095Y-83402000D01*
X140495250Y-83402000D01*
X140627000Y-83270250D01*
X140627000Y-82573000D01*
X140773000Y-82573000D01*
X140773000Y-83270250D01*
X140904750Y-83402000D01*
X141351905Y-83402000D01*
X141453720Y-83381748D01*
X141549628Y-83342021D01*
X141635943Y-83284348D01*
X141709348Y-83210943D01*
X141767021Y-83124628D01*
X141806748Y-83028720D01*
X141827000Y-82926905D01*
X141827000Y-82704750D01*
X141695250Y-82573000D01*
X140773000Y-82573000D01*
X140627000Y-82573000D01*
X140607000Y-82573000D01*
X140607000Y-82427000D01*
X140627000Y-82427000D01*
X140627000Y-82407000D01*
X140773000Y-82407000D01*
X140773000Y-82427000D01*
X141695250Y-82427000D01*
X141827000Y-82295250D01*
X141827000Y-82073095D01*
X141818804Y-82031892D01*
X141819996Y-82031430D01*
X141973489Y-81934020D01*
X142105140Y-81808651D01*
X142209931Y-81660099D01*
X142283874Y-81494022D01*
X142324150Y-81316746D01*
X142327049Y-81109103D01*
X142291739Y-80930771D01*
X142222462Y-80762694D01*
X142121859Y-80611274D01*
X141993761Y-80482278D01*
X141843047Y-80380621D01*
X141675458Y-80310173D01*
X141600504Y-80294787D01*
X141609348Y-80285943D01*
X141667021Y-80199628D01*
X141706748Y-80103720D01*
X141727000Y-80001905D01*
X141727000Y-79754750D01*
X141595250Y-79623000D01*
X140823000Y-79623000D01*
X140823000Y-79643000D01*
X140677000Y-79643000D01*
X140677000Y-79623000D01*
X139904750Y-79623000D01*
X139773000Y-79754750D01*
X139773000Y-80001905D01*
X139793252Y-80103720D01*
X139832979Y-80199628D01*
X139890652Y-80285943D01*
X139964057Y-80359348D01*
X140050372Y-80417021D01*
X140146280Y-80456748D01*
X140227985Y-80473000D01*
X139729549Y-80473000D01*
X139729549Y-80100000D01*
X139719374Y-79996690D01*
X139689239Y-79897350D01*
X139640304Y-79805798D01*
X139574448Y-79725552D01*
X139494202Y-79659696D01*
X139402650Y-79610761D01*
X139303310Y-79580626D01*
X139200000Y-79570451D01*
X138300000Y-79570451D01*
X138196690Y-79580626D01*
X138097350Y-79610761D01*
X138005798Y-79659696D01*
X137925552Y-79725552D01*
X137886613Y-79773000D01*
X137260413Y-79773000D01*
X137244202Y-79759696D01*
X137152650Y-79710761D01*
X137117176Y-79700000D01*
X137152650Y-79689239D01*
X137244202Y-79640304D01*
X137324448Y-79574448D01*
X137390304Y-79494202D01*
X137439239Y-79402650D01*
X137469374Y-79303310D01*
X137471965Y-79277000D01*
X137850501Y-79277000D01*
X137859696Y-79294202D01*
X137925552Y-79374448D01*
X138005798Y-79440304D01*
X138097350Y-79489239D01*
X138196690Y-79519374D01*
X138300000Y-79529549D01*
X139200000Y-79529549D01*
X139303310Y-79519374D01*
X139402650Y-79489239D01*
X139494202Y-79440304D01*
X139574448Y-79374448D01*
X139640304Y-79294202D01*
X139689239Y-79202650D01*
X139719374Y-79103310D01*
X139719887Y-79098095D01*
X139773000Y-79098095D01*
X139773000Y-79345250D01*
X139904750Y-79477000D01*
X140677000Y-79477000D01*
X140677000Y-78754750D01*
X140823000Y-78754750D01*
X140823000Y-79477000D01*
X141595250Y-79477000D01*
X141727000Y-79345250D01*
X141727000Y-79098095D01*
X141706748Y-78996280D01*
X141667021Y-78900372D01*
X141609348Y-78814057D01*
X141535943Y-78740652D01*
X141449628Y-78682979D01*
X141353720Y-78643252D01*
X141251905Y-78623000D01*
X140954750Y-78623000D01*
X140823000Y-78754750D01*
X140677000Y-78754750D01*
X140545250Y-78623000D01*
X140248095Y-78623000D01*
X140146280Y-78643252D01*
X140050372Y-78682979D01*
X139964057Y-78740652D01*
X139890652Y-78814057D01*
X139832979Y-78900372D01*
X139793252Y-78996280D01*
X139773000Y-79098095D01*
X139719887Y-79098095D01*
X139729549Y-79000000D01*
X139729549Y-78200000D01*
X139719374Y-78096690D01*
X139690650Y-78002000D01*
X142898000Y-78002000D01*
X142898000Y-85893868D01*
X142898000Y-85893868D01*
G37*
X142898000Y-85893868D02*
X142885348Y-85878019D01*
X142880457Y-85873059D01*
X142880379Y-85872963D01*
X142880290Y-85872889D01*
X142879549Y-85872138D01*
X142879549Y-85800000D01*
X142869374Y-85696690D01*
X142839239Y-85597350D01*
X142790304Y-85505798D01*
X142724448Y-85425552D01*
X142644202Y-85359696D01*
X142552650Y-85310761D01*
X142453310Y-85280626D01*
X142350000Y-85270451D01*
X141950000Y-85270451D01*
X141886748Y-85276681D01*
X141878585Y-85248584D01*
X141876948Y-85245425D01*
X141875918Y-85242015D01*
X141846549Y-85186781D01*
X141817780Y-85131279D01*
X141815559Y-85128497D01*
X141813888Y-85125354D01*
X141774372Y-85076903D01*
X141735348Y-85028019D01*
X141730461Y-85023063D01*
X141730379Y-85022963D01*
X141730286Y-85022886D01*
X141728711Y-85021289D01*
X140528711Y-83821289D01*
X140480404Y-83781609D01*
X140432483Y-83741398D01*
X140429363Y-83739683D01*
X140426612Y-83737423D01*
X140371491Y-83707867D01*
X140316699Y-83677745D01*
X140313306Y-83676669D01*
X140310168Y-83674986D01*
X140250336Y-83656694D01*
X140190756Y-83637794D01*
X140187220Y-83637397D01*
X140183814Y-83636356D01*
X140121617Y-83630039D01*
X140059452Y-83623066D01*
X140052485Y-83623017D01*
X140052363Y-83623005D01*
X140052250Y-83623016D01*
X140050000Y-83623000D01*
X134034190Y-83623000D01*
X133993751Y-83582278D01*
X133860639Y-83492494D01*
X134232043Y-83121090D01*
X134274633Y-83069240D01*
X134317835Y-83017754D01*
X134319679Y-83014400D01*
X134322102Y-83011450D01*
X134353825Y-82952287D01*
X134386188Y-82893419D01*
X134387343Y-82889778D01*
X134389151Y-82886406D01*
X134408795Y-82822154D01*
X134429090Y-82758175D01*
X134429516Y-82754377D01*
X134430634Y-82750720D01*
X134437419Y-82683923D01*
X134444906Y-82617174D01*
X134444958Y-82609696D01*
X134444972Y-82609561D01*
X134444960Y-82609435D01*
X134444977Y-82607023D01*
X134444977Y-81527000D01*
X135537812Y-81527000D01*
X135560761Y-81602650D01*
X135609696Y-81694202D01*
X135675552Y-81774448D01*
X135755798Y-81840304D01*
X135847350Y-81889239D01*
X135946690Y-81919374D01*
X136050000Y-81929549D01*
X136950000Y-81929549D01*
X137053310Y-81919374D01*
X137152650Y-81889239D01*
X137244202Y-81840304D01*
X137324448Y-81774448D01*
X137390304Y-81694202D01*
X137439239Y-81602650D01*
X137469374Y-81503310D01*
X137479549Y-81400000D01*
X137479549Y-81227000D01*
X137886613Y-81227000D01*
X137925552Y-81274448D01*
X138005798Y-81340304D01*
X138023000Y-81349499D01*
X138023000Y-81627980D01*
X137997350Y-81635761D01*
X137905798Y-81684696D01*
X137825552Y-81750552D01*
X137759696Y-81830798D01*
X137710761Y-81922350D01*
X137680626Y-82021690D01*
X137670451Y-82125000D01*
X137670451Y-82875000D01*
X137680626Y-82978310D01*
X137710761Y-83077650D01*
X137759696Y-83169202D01*
X137825552Y-83249448D01*
X137905798Y-83315304D01*
X137997350Y-83364239D01*
X138096690Y-83394374D01*
X138200000Y-83404549D01*
X139400000Y-83404549D01*
X139503310Y-83394374D01*
X139602650Y-83364239D01*
X139694202Y-83315304D01*
X139749572Y-83269863D01*
X139764057Y-83284348D01*
X139850372Y-83342021D01*
X139946280Y-83381748D01*
X140048095Y-83402000D01*
X140495250Y-83402000D01*
X140627000Y-83270250D01*
X140627000Y-82573000D01*
X140773000Y-82573000D01*
X140773000Y-83270250D01*
X140904750Y-83402000D01*
X141351905Y-83402000D01*
X141453720Y-83381748D01*
X141549628Y-83342021D01*
X141635943Y-83284348D01*
X141709348Y-83210943D01*
X141767021Y-83124628D01*
X141806748Y-83028720D01*
X141827000Y-82926905D01*
X141827000Y-82704750D01*
X141695250Y-82573000D01*
X140773000Y-82573000D01*
X140627000Y-82573000D01*
X140607000Y-82573000D01*
X140607000Y-82427000D01*
X140627000Y-82427000D01*
X140627000Y-82407000D01*
X140773000Y-82407000D01*
X140773000Y-82427000D01*
X141695250Y-82427000D01*
X141827000Y-82295250D01*
X141827000Y-82073095D01*
X141818804Y-82031892D01*
X141819996Y-82031430D01*
X141973489Y-81934020D01*
X142105140Y-81808651D01*
X142209931Y-81660099D01*
X142283874Y-81494022D01*
X142324150Y-81316746D01*
X142327049Y-81109103D01*
X142291739Y-80930771D01*
X142222462Y-80762694D01*
X142121859Y-80611274D01*
X141993761Y-80482278D01*
X141843047Y-80380621D01*
X141675458Y-80310173D01*
X141600504Y-80294787D01*
X141609348Y-80285943D01*
X141667021Y-80199628D01*
X141706748Y-80103720D01*
X141727000Y-80001905D01*
X141727000Y-79754750D01*
X141595250Y-79623000D01*
X140823000Y-79623000D01*
X140823000Y-79643000D01*
X140677000Y-79643000D01*
X140677000Y-79623000D01*
X139904750Y-79623000D01*
X139773000Y-79754750D01*
X139773000Y-80001905D01*
X139793252Y-80103720D01*
X139832979Y-80199628D01*
X139890652Y-80285943D01*
X139964057Y-80359348D01*
X140050372Y-80417021D01*
X140146280Y-80456748D01*
X140227985Y-80473000D01*
X139729549Y-80473000D01*
X139729549Y-80100000D01*
X139719374Y-79996690D01*
X139689239Y-79897350D01*
X139640304Y-79805798D01*
X139574448Y-79725552D01*
X139494202Y-79659696D01*
X139402650Y-79610761D01*
X139303310Y-79580626D01*
X139200000Y-79570451D01*
X138300000Y-79570451D01*
X138196690Y-79580626D01*
X138097350Y-79610761D01*
X138005798Y-79659696D01*
X137925552Y-79725552D01*
X137886613Y-79773000D01*
X137260413Y-79773000D01*
X137244202Y-79759696D01*
X137152650Y-79710761D01*
X137117176Y-79700000D01*
X137152650Y-79689239D01*
X137244202Y-79640304D01*
X137324448Y-79574448D01*
X137390304Y-79494202D01*
X137439239Y-79402650D01*
X137469374Y-79303310D01*
X137471965Y-79277000D01*
X137850501Y-79277000D01*
X137859696Y-79294202D01*
X137925552Y-79374448D01*
X138005798Y-79440304D01*
X138097350Y-79489239D01*
X138196690Y-79519374D01*
X138300000Y-79529549D01*
X139200000Y-79529549D01*
X139303310Y-79519374D01*
X139402650Y-79489239D01*
X139494202Y-79440304D01*
X139574448Y-79374448D01*
X139640304Y-79294202D01*
X139689239Y-79202650D01*
X139719374Y-79103310D01*
X139719887Y-79098095D01*
X139773000Y-79098095D01*
X139773000Y-79345250D01*
X139904750Y-79477000D01*
X140677000Y-79477000D01*
X140677000Y-78754750D01*
X140823000Y-78754750D01*
X140823000Y-79477000D01*
X141595250Y-79477000D01*
X141727000Y-79345250D01*
X141727000Y-79098095D01*
X141706748Y-78996280D01*
X141667021Y-78900372D01*
X141609348Y-78814057D01*
X141535943Y-78740652D01*
X141449628Y-78682979D01*
X141353720Y-78643252D01*
X141251905Y-78623000D01*
X140954750Y-78623000D01*
X140823000Y-78754750D01*
X140677000Y-78754750D01*
X140545250Y-78623000D01*
X140248095Y-78623000D01*
X140146280Y-78643252D01*
X140050372Y-78682979D01*
X139964057Y-78740652D01*
X139890652Y-78814057D01*
X139832979Y-78900372D01*
X139793252Y-78996280D01*
X139773000Y-79098095D01*
X139719887Y-79098095D01*
X139729549Y-79000000D01*
X139729549Y-78200000D01*
X139719374Y-78096690D01*
X139690650Y-78002000D01*
X142898000Y-78002000D01*
X142898000Y-85893868D01*
G36*
X119120451Y-80700000D02*
X119130626Y-80803310D01*
X119160761Y-80902650D01*
X119184807Y-80947637D01*
X119182979Y-80950372D01*
X119143252Y-81046280D01*
X119123000Y-81148095D01*
X119123000Y-81295250D01*
X119254750Y-81427000D01*
X119827000Y-81427000D01*
X119827000Y-81407000D01*
X119973000Y-81407000D01*
X119973000Y-81427000D01*
X119993000Y-81427000D01*
X119993000Y-81573000D01*
X119973000Y-81573000D01*
X119973000Y-82195250D01*
X120104750Y-82327000D01*
X120201905Y-82327000D01*
X120303720Y-82306748D01*
X120399628Y-82267021D01*
X120485943Y-82209348D01*
X120559348Y-82135943D01*
X120599715Y-82075529D01*
X120609696Y-82094202D01*
X120675552Y-82174448D01*
X120755798Y-82240304D01*
X120847350Y-82289239D01*
X120946690Y-82319374D01*
X121050000Y-82329549D01*
X122673000Y-82329549D01*
X122673000Y-82909124D01*
X122634696Y-82955798D01*
X122585761Y-83047350D01*
X122584708Y-83050822D01*
X122577382Y-83045881D01*
X122409793Y-82975433D01*
X122231712Y-82938878D01*
X122049922Y-82937609D01*
X121871348Y-82971673D01*
X121715435Y-83034667D01*
X121643761Y-82962491D01*
X121493047Y-82860834D01*
X121325458Y-82790386D01*
X121147377Y-82753831D01*
X120965587Y-82752562D01*
X120787013Y-82786626D01*
X120618457Y-82854728D01*
X120466338Y-82954271D01*
X120336451Y-83081466D01*
X120233743Y-83231467D01*
X120162127Y-83398560D01*
X120124330Y-83576381D01*
X120123309Y-83649492D01*
X120121289Y-83651512D01*
X120081609Y-83699819D01*
X120041398Y-83747740D01*
X120039683Y-83750860D01*
X120037423Y-83753611D01*
X120007867Y-83808732D01*
X119977745Y-83863524D01*
X119976669Y-83866917D01*
X119974986Y-83870055D01*
X119956694Y-83929887D01*
X119937794Y-83989467D01*
X119937397Y-83993003D01*
X119936356Y-83996409D01*
X119930039Y-84058606D01*
X119923066Y-84120771D01*
X119923017Y-84127738D01*
X119923005Y-84127860D01*
X119923016Y-84127973D01*
X119923000Y-84130223D01*
X119923000Y-84319206D01*
X119920448Y-84293181D01*
X119914594Y-84226267D01*
X119913527Y-84222594D01*
X119913154Y-84218792D01*
X119893749Y-84154518D01*
X119875009Y-84090016D01*
X119873250Y-84086623D01*
X119872145Y-84082962D01*
X119840586Y-84023608D01*
X119809713Y-83964048D01*
X119807332Y-83961065D01*
X119805534Y-83957684D01*
X119763054Y-83905599D01*
X119721194Y-83853161D01*
X119715948Y-83847842D01*
X119715858Y-83847731D01*
X119715756Y-83847646D01*
X119714066Y-83845933D01*
X118814067Y-82945933D01*
X118762187Y-82903319D01*
X118710731Y-82860142D01*
X118707377Y-82858298D01*
X118704427Y-82855875D01*
X118645264Y-82824152D01*
X118586396Y-82791789D01*
X118582755Y-82790634D01*
X118579383Y-82788826D01*
X118529549Y-82773590D01*
X118529549Y-82710000D01*
X118519374Y-82606690D01*
X118489239Y-82507350D01*
X118440304Y-82415798D01*
X118374448Y-82335552D01*
X118294202Y-82269696D01*
X118227000Y-82233776D01*
X118227000Y-81704750D01*
X119123000Y-81704750D01*
X119123000Y-81851905D01*
X119143252Y-81953720D01*
X119182979Y-82049628D01*
X119240652Y-82135943D01*
X119314057Y-82209348D01*
X119400372Y-82267021D01*
X119496280Y-82306748D01*
X119598095Y-82327000D01*
X119695250Y-82327000D01*
X119827000Y-82195250D01*
X119827000Y-81573000D01*
X119254750Y-81573000D01*
X119123000Y-81704750D01*
X118227000Y-81704750D01*
X118227000Y-81341132D01*
X119120451Y-80447681D01*
X119120451Y-80700000D01*
X119120451Y-80700000D01*
G37*
X119120451Y-80700000D02*
X119130626Y-80803310D01*
X119160761Y-80902650D01*
X119184807Y-80947637D01*
X119182979Y-80950372D01*
X119143252Y-81046280D01*
X119123000Y-81148095D01*
X119123000Y-81295250D01*
X119254750Y-81427000D01*
X119827000Y-81427000D01*
X119827000Y-81407000D01*
X119973000Y-81407000D01*
X119973000Y-81427000D01*
X119993000Y-81427000D01*
X119993000Y-81573000D01*
X119973000Y-81573000D01*
X119973000Y-82195250D01*
X120104750Y-82327000D01*
X120201905Y-82327000D01*
X120303720Y-82306748D01*
X120399628Y-82267021D01*
X120485943Y-82209348D01*
X120559348Y-82135943D01*
X120599715Y-82075529D01*
X120609696Y-82094202D01*
X120675552Y-82174448D01*
X120755798Y-82240304D01*
X120847350Y-82289239D01*
X120946690Y-82319374D01*
X121050000Y-82329549D01*
X122673000Y-82329549D01*
X122673000Y-82909124D01*
X122634696Y-82955798D01*
X122585761Y-83047350D01*
X122584708Y-83050822D01*
X122577382Y-83045881D01*
X122409793Y-82975433D01*
X122231712Y-82938878D01*
X122049922Y-82937609D01*
X121871348Y-82971673D01*
X121715435Y-83034667D01*
X121643761Y-82962491D01*
X121493047Y-82860834D01*
X121325458Y-82790386D01*
X121147377Y-82753831D01*
X120965587Y-82752562D01*
X120787013Y-82786626D01*
X120618457Y-82854728D01*
X120466338Y-82954271D01*
X120336451Y-83081466D01*
X120233743Y-83231467D01*
X120162127Y-83398560D01*
X120124330Y-83576381D01*
X120123309Y-83649492D01*
X120121289Y-83651512D01*
X120081609Y-83699819D01*
X120041398Y-83747740D01*
X120039683Y-83750860D01*
X120037423Y-83753611D01*
X120007867Y-83808732D01*
X119977745Y-83863524D01*
X119976669Y-83866917D01*
X119974986Y-83870055D01*
X119956694Y-83929887D01*
X119937794Y-83989467D01*
X119937397Y-83993003D01*
X119936356Y-83996409D01*
X119930039Y-84058606D01*
X119923066Y-84120771D01*
X119923017Y-84127738D01*
X119923005Y-84127860D01*
X119923016Y-84127973D01*
X119923000Y-84130223D01*
X119923000Y-84319206D01*
X119920448Y-84293181D01*
X119914594Y-84226267D01*
X119913527Y-84222594D01*
X119913154Y-84218792D01*
X119893749Y-84154518D01*
X119875009Y-84090016D01*
X119873250Y-84086623D01*
X119872145Y-84082962D01*
X119840586Y-84023608D01*
X119809713Y-83964048D01*
X119807332Y-83961065D01*
X119805534Y-83957684D01*
X119763054Y-83905599D01*
X119721194Y-83853161D01*
X119715948Y-83847842D01*
X119715858Y-83847731D01*
X119715756Y-83847646D01*
X119714066Y-83845933D01*
X118814067Y-82945933D01*
X118762187Y-82903319D01*
X118710731Y-82860142D01*
X118707377Y-82858298D01*
X118704427Y-82855875D01*
X118645264Y-82824152D01*
X118586396Y-82791789D01*
X118582755Y-82790634D01*
X118579383Y-82788826D01*
X118529549Y-82773590D01*
X118529549Y-82710000D01*
X118519374Y-82606690D01*
X118489239Y-82507350D01*
X118440304Y-82415798D01*
X118374448Y-82335552D01*
X118294202Y-82269696D01*
X118227000Y-82233776D01*
X118227000Y-81704750D01*
X119123000Y-81704750D01*
X119123000Y-81851905D01*
X119143252Y-81953720D01*
X119182979Y-82049628D01*
X119240652Y-82135943D01*
X119314057Y-82209348D01*
X119400372Y-82267021D01*
X119496280Y-82306748D01*
X119598095Y-82327000D01*
X119695250Y-82327000D01*
X119827000Y-82195250D01*
X119827000Y-81573000D01*
X119254750Y-81573000D01*
X119123000Y-81704750D01*
X118227000Y-81704750D01*
X118227000Y-81341132D01*
X119120451Y-80447681D01*
X119120451Y-80700000D01*
G36*
X132173000Y-79227000D02*
X132193000Y-79227000D01*
X132193000Y-79373000D01*
X132173000Y-79373000D01*
X132173000Y-79945250D01*
X132304750Y-80077000D01*
X132451905Y-80077000D01*
X132553720Y-80056748D01*
X132649628Y-80017021D01*
X132735943Y-79959348D01*
X132809348Y-79885943D01*
X132867021Y-79799628D01*
X132885906Y-79754037D01*
X132973000Y-79841131D01*
X132973000Y-80782023D01*
X132979552Y-80848842D01*
X132985406Y-80915756D01*
X132986473Y-80919429D01*
X132986846Y-80923231D01*
X132990977Y-80936914D01*
X132990977Y-82305890D01*
X132902000Y-82394867D01*
X132902000Y-81954750D01*
X132770250Y-81823000D01*
X132073000Y-81823000D01*
X132073000Y-81843000D01*
X131927000Y-81843000D01*
X131927000Y-81823000D01*
X131229750Y-81823000D01*
X131098000Y-81954750D01*
X131098000Y-82401905D01*
X131118252Y-82503720D01*
X131157979Y-82599628D01*
X131215652Y-82685943D01*
X131230137Y-82700428D01*
X131184696Y-82755798D01*
X131135761Y-82847350D01*
X131105626Y-82946690D01*
X131095451Y-83050000D01*
X131095451Y-83323000D01*
X129754549Y-83323000D01*
X129754549Y-83250000D01*
X129744374Y-83146690D01*
X129714239Y-83047350D01*
X129665304Y-82955798D01*
X129599448Y-82875552D01*
X129519202Y-82809696D01*
X129427650Y-82760761D01*
X129328310Y-82730626D01*
X129225000Y-82720451D01*
X128675000Y-82720451D01*
X128571690Y-82730626D01*
X128549336Y-82737407D01*
X128476905Y-82723000D01*
X128354750Y-82723000D01*
X128223000Y-82854750D01*
X128223000Y-82977680D01*
X128185761Y-83047350D01*
X128155626Y-83146690D01*
X128150000Y-83203813D01*
X128144374Y-83146690D01*
X128114239Y-83047350D01*
X128077000Y-82977680D01*
X128077000Y-82854750D01*
X127945250Y-82723000D01*
X127823095Y-82723000D01*
X127750664Y-82737407D01*
X127728310Y-82730626D01*
X127625000Y-82720451D01*
X127075000Y-82720451D01*
X126971690Y-82730626D01*
X126950000Y-82737206D01*
X126928310Y-82730626D01*
X126825000Y-82720451D01*
X126275000Y-82720451D01*
X126171690Y-82730626D01*
X126150000Y-82737206D01*
X126128310Y-82730626D01*
X126025000Y-82720451D01*
X125475000Y-82720451D01*
X125432816Y-82724606D01*
X125934553Y-82222869D01*
X125955798Y-82240304D01*
X126047350Y-82289239D01*
X126146690Y-82319374D01*
X126250000Y-82329549D01*
X129750000Y-82329549D01*
X129853310Y-82319374D01*
X129952650Y-82289239D01*
X130044202Y-82240304D01*
X130124448Y-82174448D01*
X130190304Y-82094202D01*
X130239239Y-82002650D01*
X130269374Y-81903310D01*
X130279549Y-81800000D01*
X130279549Y-81098095D01*
X131098000Y-81098095D01*
X131098000Y-81545250D01*
X131229750Y-81677000D01*
X131927000Y-81677000D01*
X131927000Y-80754750D01*
X132073000Y-80754750D01*
X132073000Y-81677000D01*
X132770250Y-81677000D01*
X132902000Y-81545250D01*
X132902000Y-81098095D01*
X132881748Y-80996280D01*
X132842021Y-80900372D01*
X132784348Y-80814057D01*
X132710943Y-80740652D01*
X132624628Y-80682979D01*
X132528720Y-80643252D01*
X132426905Y-80623000D01*
X132204750Y-80623000D01*
X132073000Y-80754750D01*
X131927000Y-80754750D01*
X131795250Y-80623000D01*
X131573095Y-80623000D01*
X131471280Y-80643252D01*
X131375372Y-80682979D01*
X131289057Y-80740652D01*
X131215652Y-80814057D01*
X131157979Y-80900372D01*
X131118252Y-80996280D01*
X131098000Y-81098095D01*
X130279549Y-81098095D01*
X130279549Y-79977000D01*
X130389587Y-79977000D01*
X130405798Y-79990304D01*
X130497350Y-80039239D01*
X130596690Y-80069374D01*
X130700000Y-80079549D01*
X131300000Y-80079549D01*
X131403310Y-80069374D01*
X131502650Y-80039239D01*
X131547637Y-80015193D01*
X131550372Y-80017021D01*
X131646280Y-80056748D01*
X131748095Y-80077000D01*
X131895250Y-80077000D01*
X132027000Y-79945250D01*
X132027000Y-79373000D01*
X132007000Y-79373000D01*
X132007000Y-79227000D01*
X132027000Y-79227000D01*
X132027000Y-79207000D01*
X132173000Y-79207000D01*
X132173000Y-79227000D01*
X132173000Y-79227000D01*
G37*
X132173000Y-79227000D02*
X132193000Y-79227000D01*
X132193000Y-79373000D01*
X132173000Y-79373000D01*
X132173000Y-79945250D01*
X132304750Y-80077000D01*
X132451905Y-80077000D01*
X132553720Y-80056748D01*
X132649628Y-80017021D01*
X132735943Y-79959348D01*
X132809348Y-79885943D01*
X132867021Y-79799628D01*
X132885906Y-79754037D01*
X132973000Y-79841131D01*
X132973000Y-80782023D01*
X132979552Y-80848842D01*
X132985406Y-80915756D01*
X132986473Y-80919429D01*
X132986846Y-80923231D01*
X132990977Y-80936914D01*
X132990977Y-82305890D01*
X132902000Y-82394867D01*
X132902000Y-81954750D01*
X132770250Y-81823000D01*
X132073000Y-81823000D01*
X132073000Y-81843000D01*
X131927000Y-81843000D01*
X131927000Y-81823000D01*
X131229750Y-81823000D01*
X131098000Y-81954750D01*
X131098000Y-82401905D01*
X131118252Y-82503720D01*
X131157979Y-82599628D01*
X131215652Y-82685943D01*
X131230137Y-82700428D01*
X131184696Y-82755798D01*
X131135761Y-82847350D01*
X131105626Y-82946690D01*
X131095451Y-83050000D01*
X131095451Y-83323000D01*
X129754549Y-83323000D01*
X129754549Y-83250000D01*
X129744374Y-83146690D01*
X129714239Y-83047350D01*
X129665304Y-82955798D01*
X129599448Y-82875552D01*
X129519202Y-82809696D01*
X129427650Y-82760761D01*
X129328310Y-82730626D01*
X129225000Y-82720451D01*
X128675000Y-82720451D01*
X128571690Y-82730626D01*
X128549336Y-82737407D01*
X128476905Y-82723000D01*
X128354750Y-82723000D01*
X128223000Y-82854750D01*
X128223000Y-82977680D01*
X128185761Y-83047350D01*
X128155626Y-83146690D01*
X128150000Y-83203813D01*
X128144374Y-83146690D01*
X128114239Y-83047350D01*
X128077000Y-82977680D01*
X128077000Y-82854750D01*
X127945250Y-82723000D01*
X127823095Y-82723000D01*
X127750664Y-82737407D01*
X127728310Y-82730626D01*
X127625000Y-82720451D01*
X127075000Y-82720451D01*
X126971690Y-82730626D01*
X126950000Y-82737206D01*
X126928310Y-82730626D01*
X126825000Y-82720451D01*
X126275000Y-82720451D01*
X126171690Y-82730626D01*
X126150000Y-82737206D01*
X126128310Y-82730626D01*
X126025000Y-82720451D01*
X125475000Y-82720451D01*
X125432816Y-82724606D01*
X125934553Y-82222869D01*
X125955798Y-82240304D01*
X126047350Y-82289239D01*
X126146690Y-82319374D01*
X126250000Y-82329549D01*
X129750000Y-82329549D01*
X129853310Y-82319374D01*
X129952650Y-82289239D01*
X130044202Y-82240304D01*
X130124448Y-82174448D01*
X130190304Y-82094202D01*
X130239239Y-82002650D01*
X130269374Y-81903310D01*
X130279549Y-81800000D01*
X130279549Y-81098095D01*
X131098000Y-81098095D01*
X131098000Y-81545250D01*
X131229750Y-81677000D01*
X131927000Y-81677000D01*
X131927000Y-80754750D01*
X132073000Y-80754750D01*
X132073000Y-81677000D01*
X132770250Y-81677000D01*
X132902000Y-81545250D01*
X132902000Y-81098095D01*
X132881748Y-80996280D01*
X132842021Y-80900372D01*
X132784348Y-80814057D01*
X132710943Y-80740652D01*
X132624628Y-80682979D01*
X132528720Y-80643252D01*
X132426905Y-80623000D01*
X132204750Y-80623000D01*
X132073000Y-80754750D01*
X131927000Y-80754750D01*
X131795250Y-80623000D01*
X131573095Y-80623000D01*
X131471280Y-80643252D01*
X131375372Y-80682979D01*
X131289057Y-80740652D01*
X131215652Y-80814057D01*
X131157979Y-80900372D01*
X131118252Y-80996280D01*
X131098000Y-81098095D01*
X130279549Y-81098095D01*
X130279549Y-79977000D01*
X130389587Y-79977000D01*
X130405798Y-79990304D01*
X130497350Y-80039239D01*
X130596690Y-80069374D01*
X130700000Y-80079549D01*
X131300000Y-80079549D01*
X131403310Y-80069374D01*
X131502650Y-80039239D01*
X131547637Y-80015193D01*
X131550372Y-80017021D01*
X131646280Y-80056748D01*
X131748095Y-80077000D01*
X131895250Y-80077000D01*
X132027000Y-79945250D01*
X132027000Y-79373000D01*
X132007000Y-79373000D01*
X132007000Y-79227000D01*
X132027000Y-79227000D01*
X132027000Y-79207000D01*
X132173000Y-79207000D01*
X132173000Y-79227000D01*
M02*
