G04 #@! TF.GenerationSoftware,KiCad,Pcbnew,5.1.2-f72e74a~84~ubuntu16.04.1*
G04 #@! TF.CreationDate,2019-05-31T10:16:47+03:00*
G04 #@! TF.ProjectId,serial_gw_ATSAMD21E,73657269-616c-45f6-9777-5f415453414d,rev?*
G04 #@! TF.SameCoordinates,Original*
G04 #@! TF.FileFunction,Legend,Top*
G04 #@! TF.FilePolarity,Positive*
%FSLAX46Y46*%
G04 Gerber Fmt 4.6, Leading zero omitted, Abs format (unit mm)*
G04 Created by KiCad (PCBNEW 5.1.2-f72e74a~84~ubuntu16.04.1) date 2019-05-31 10:16:47*
%MOMM*%
%LPD*%
G04 APERTURE LIST*
%ADD10C,0.125000*%
%ADD11C,0.120000*%
%ADD12C,0.150000*%
%ADD13C,1.901140*%
%ADD14C,3.399740*%
%ADD15R,0.800000X1.000000*%
%ADD16R,1.000000X1.100000*%
%ADD17R,2.300000X1.700000*%
%ADD18R,1.400000X1.400000*%
%ADD19R,1.150000X1.600000*%
%ADD20R,0.900000X1.000000*%
%ADD21R,1.600000X1.150000*%
%ADD22R,1.000000X0.900000*%
%ADD23R,2.900000X1.670000*%
%ADD24R,1.300000X1.600000*%
%ADD25R,1.600000X1.300000*%
%ADD26R,2.400000X2.000000*%
%ADD27R,0.950000X2.000000*%
%ADD28R,2.000000X0.950000*%
%ADD29R,1.300000X1.200000*%
%ADD30C,1.150000*%
%ADD31C,0.100000*%
%ADD32R,2.400000X3.400000*%
%ADD33R,1.400000X1.900000*%
%ADD34R,3.900000X2.800000*%
G04 APERTURE END LIST*
D10*
X140369047Y-97726190D02*
X140369047Y-97226190D01*
X140654761Y-97726190D02*
X140440476Y-97440476D01*
X140654761Y-97226190D02*
X140369047Y-97511904D01*
X140369047Y-93226190D02*
X140369047Y-92726190D01*
X140654761Y-93226190D02*
X140440476Y-92940476D01*
X140654761Y-92726190D02*
X140369047Y-93011904D01*
X140369047Y-88826190D02*
X140369047Y-88326190D01*
X140654761Y-88826190D02*
X140440476Y-88540476D01*
X140654761Y-88326190D02*
X140369047Y-88611904D01*
X109319047Y-97835714D02*
X109700000Y-97835714D01*
X109509523Y-98026190D02*
X109509523Y-97645238D01*
X109890476Y-97526190D02*
X110200000Y-97526190D01*
X110033333Y-97716666D01*
X110104761Y-97716666D01*
X110152380Y-97740476D01*
X110176190Y-97764285D01*
X110200000Y-97811904D01*
X110200000Y-97930952D01*
X110176190Y-97978571D01*
X110152380Y-98002380D01*
X110104761Y-98026190D01*
X109961904Y-98026190D01*
X109914285Y-98002380D01*
X109890476Y-97978571D01*
X110342857Y-97526190D02*
X110509523Y-98026190D01*
X110676190Y-97526190D01*
X110795238Y-97526190D02*
X111104761Y-97526190D01*
X110938095Y-97716666D01*
X111009523Y-97716666D01*
X111057142Y-97740476D01*
X111080952Y-97764285D01*
X111104761Y-97811904D01*
X111104761Y-97930952D01*
X111080952Y-97978571D01*
X111057142Y-98002380D01*
X111009523Y-98026190D01*
X110866666Y-98026190D01*
X110819047Y-98002380D01*
X110795238Y-97978571D01*
X109619047Y-94050000D02*
X109571428Y-94026190D01*
X109500000Y-94026190D01*
X109428571Y-94050000D01*
X109380952Y-94097619D01*
X109357142Y-94145238D01*
X109333333Y-94240476D01*
X109333333Y-94311904D01*
X109357142Y-94407142D01*
X109380952Y-94454761D01*
X109428571Y-94502380D01*
X109500000Y-94526190D01*
X109547619Y-94526190D01*
X109619047Y-94502380D01*
X109642857Y-94478571D01*
X109642857Y-94311904D01*
X109547619Y-94311904D01*
X109857142Y-94526190D02*
X109857142Y-94026190D01*
X110142857Y-94526190D01*
X110142857Y-94026190D01*
X110380952Y-94526190D02*
X110380952Y-94026190D01*
X110500000Y-94026190D01*
X110571428Y-94050000D01*
X110619047Y-94097619D01*
X110642857Y-94145238D01*
X110666666Y-94240476D01*
X110666666Y-94311904D01*
X110642857Y-94407142D01*
X110619047Y-94454761D01*
X110571428Y-94502380D01*
X110500000Y-94526190D01*
X110380952Y-94526190D01*
X119002380Y-98030952D02*
X119026190Y-97959523D01*
X119026190Y-97840476D01*
X119002380Y-97792857D01*
X118978571Y-97769047D01*
X118930952Y-97745238D01*
X118883333Y-97745238D01*
X118835714Y-97769047D01*
X118811904Y-97792857D01*
X118788095Y-97840476D01*
X118764285Y-97935714D01*
X118740476Y-97983333D01*
X118716666Y-98007142D01*
X118669047Y-98030952D01*
X118621428Y-98030952D01*
X118573809Y-98007142D01*
X118550000Y-97983333D01*
X118526190Y-97935714D01*
X118526190Y-97816666D01*
X118550000Y-97745238D01*
X118526190Y-97578571D02*
X119026190Y-97459523D01*
X118669047Y-97364285D01*
X119026190Y-97269047D01*
X118526190Y-97150000D01*
X118978571Y-96673809D02*
X119002380Y-96697619D01*
X119026190Y-96769047D01*
X119026190Y-96816666D01*
X119002380Y-96888095D01*
X118954761Y-96935714D01*
X118907142Y-96959523D01*
X118811904Y-96983333D01*
X118740476Y-96983333D01*
X118645238Y-96959523D01*
X118597619Y-96935714D01*
X118550000Y-96888095D01*
X118526190Y-96816666D01*
X118526190Y-96769047D01*
X118550000Y-96697619D01*
X118573809Y-96673809D01*
X119026190Y-96221428D02*
X119026190Y-96459523D01*
X118526190Y-96459523D01*
X119026190Y-96054761D02*
X118526190Y-96054761D01*
X119026190Y-95769047D02*
X118740476Y-95983333D01*
X118526190Y-95769047D02*
X118811904Y-96054761D01*
X119026190Y-91973809D02*
X118788095Y-92140476D01*
X119026190Y-92259523D02*
X118526190Y-92259523D01*
X118526190Y-92069047D01*
X118550000Y-92021428D01*
X118573809Y-91997619D01*
X118621428Y-91973809D01*
X118692857Y-91973809D01*
X118740476Y-91997619D01*
X118764285Y-92021428D01*
X118788095Y-92069047D01*
X118788095Y-92259523D01*
X119002380Y-91783333D02*
X119026190Y-91711904D01*
X119026190Y-91592857D01*
X119002380Y-91545238D01*
X118978571Y-91521428D01*
X118930952Y-91497619D01*
X118883333Y-91497619D01*
X118835714Y-91521428D01*
X118811904Y-91545238D01*
X118788095Y-91592857D01*
X118764285Y-91688095D01*
X118740476Y-91735714D01*
X118716666Y-91759523D01*
X118669047Y-91783333D01*
X118621428Y-91783333D01*
X118573809Y-91759523D01*
X118550000Y-91735714D01*
X118526190Y-91688095D01*
X118526190Y-91569047D01*
X118550000Y-91497619D01*
X118526190Y-91354761D02*
X118526190Y-91069047D01*
X119026190Y-91211904D02*
X118526190Y-91211904D01*
X119002380Y-95159523D02*
X119026190Y-95088095D01*
X119026190Y-94969047D01*
X119002380Y-94921428D01*
X118978571Y-94897619D01*
X118930952Y-94873809D01*
X118883333Y-94873809D01*
X118835714Y-94897619D01*
X118811904Y-94921428D01*
X118788095Y-94969047D01*
X118764285Y-95064285D01*
X118740476Y-95111904D01*
X118716666Y-95135714D01*
X118669047Y-95159523D01*
X118621428Y-95159523D01*
X118573809Y-95135714D01*
X118550000Y-95111904D01*
X118526190Y-95064285D01*
X118526190Y-94945238D01*
X118550000Y-94873809D01*
X118526190Y-94707142D02*
X119026190Y-94588095D01*
X118669047Y-94492857D01*
X119026190Y-94397619D01*
X118526190Y-94278571D01*
X119026190Y-94088095D02*
X118526190Y-94088095D01*
X118526190Y-93969047D01*
X118550000Y-93897619D01*
X118597619Y-93850000D01*
X118645238Y-93826190D01*
X118740476Y-93802380D01*
X118811904Y-93802380D01*
X118907142Y-93826190D01*
X118954761Y-93850000D01*
X119002380Y-93897619D01*
X119026190Y-93969047D01*
X119026190Y-94088095D01*
X119026190Y-93588095D02*
X118526190Y-93588095D01*
X118526190Y-93254761D02*
X118526190Y-93159523D01*
X118550000Y-93111904D01*
X118597619Y-93064285D01*
X118692857Y-93040476D01*
X118859523Y-93040476D01*
X118954761Y-93064285D01*
X119002380Y-93111904D01*
X119026190Y-93159523D01*
X119026190Y-93254761D01*
X119002380Y-93302380D01*
X118954761Y-93350000D01*
X118859523Y-93373809D01*
X118692857Y-93373809D01*
X118597619Y-93350000D01*
X118550000Y-93302380D01*
X118526190Y-93254761D01*
D11*
X118150000Y-90730000D02*
X118650000Y-90730000D01*
X118650000Y-89670000D02*
X118150000Y-89670000D01*
X115750000Y-88870000D02*
X115250000Y-88870000D01*
X115250000Y-89930000D02*
X115750000Y-89930000D01*
X141450000Y-86630000D02*
X141950000Y-86630000D01*
X141950000Y-85570000D02*
X141450000Y-85570000D01*
X141600000Y-95830000D02*
X142100000Y-95830000D01*
X142100000Y-94770000D02*
X141600000Y-94770000D01*
X141600000Y-91330000D02*
X142100000Y-91330000D01*
X142100000Y-90270000D02*
X141600000Y-90270000D01*
X140900000Y-88150000D02*
X140900000Y-89050000D01*
X140900000Y-89050000D02*
X142350000Y-89050000D01*
X140900000Y-88150000D02*
X142350000Y-88150000D01*
X140900000Y-92550000D02*
X140900000Y-93450000D01*
X140900000Y-93450000D02*
X142350000Y-93450000D01*
X140900000Y-92550000D02*
X142350000Y-92550000D01*
X140900000Y-97050000D02*
X140900000Y-97950000D01*
X140900000Y-97950000D02*
X142350000Y-97950000D01*
X140900000Y-97050000D02*
X142350000Y-97050000D01*
X137500000Y-93300000D02*
G75*
G03X136500000Y-93300000I-500000J0D01*
G01*
X135200000Y-85500000D02*
X135200000Y-84900000D01*
X135200000Y-84900000D02*
X138800000Y-84900000D01*
X138800000Y-84900000D02*
X138800000Y-85500000D01*
X135200000Y-91000000D02*
X135200000Y-87200000D01*
X136500000Y-93300000D02*
X135200000Y-93300000D01*
X138800000Y-93300000D02*
X137500000Y-93300000D01*
X135200000Y-93300000D02*
X135200000Y-92700000D01*
X138800000Y-93300000D02*
X138800000Y-92700000D01*
X138800000Y-87200000D02*
X138800000Y-91000000D01*
X119310000Y-97935000D02*
X119310000Y-98055000D01*
X119310000Y-98055000D02*
X122090000Y-98055000D01*
X122090000Y-98055000D02*
X122090000Y-97935000D01*
X122090000Y-97935000D02*
X119310000Y-97935000D01*
X119310000Y-97300000D02*
X119310000Y-96545000D01*
X119310000Y-96545000D02*
X120700000Y-96545000D01*
X132000000Y-86950000D02*
X132000000Y-86250000D01*
X133200000Y-86250000D02*
X133200000Y-86950000D01*
X132130000Y-89600000D02*
X132130000Y-90100000D01*
X133070000Y-90100000D02*
X133070000Y-89600000D01*
X120370000Y-81200000D02*
X120370000Y-80700000D01*
X119430000Y-80700000D02*
X119430000Y-81200000D01*
X139400000Y-81900000D02*
X140100000Y-81900000D01*
X140100000Y-83100000D02*
X139400000Y-83100000D01*
X132600000Y-82350000D02*
X132600000Y-83050000D01*
X131400000Y-83050000D02*
X131400000Y-82350000D01*
X129240000Y-95610000D02*
X129240000Y-96310000D01*
X128040000Y-96310000D02*
X128040000Y-95610000D01*
X127430000Y-95590000D02*
X127430000Y-96290000D01*
X126230000Y-96290000D02*
X126230000Y-95590000D01*
X131800000Y-78830000D02*
X131300000Y-78830000D01*
X131300000Y-79770000D02*
X131800000Y-79770000D01*
X133070000Y-92500000D02*
X133070000Y-92000000D01*
X132130000Y-92000000D02*
X132130000Y-92500000D01*
X114050000Y-86600000D02*
X113350000Y-86600000D01*
X113350000Y-85400000D02*
X114050000Y-85400000D01*
X118600000Y-86500000D02*
X117900000Y-86500000D01*
X117900000Y-85300000D02*
X118600000Y-85300000D01*
D12*
X117360000Y-97800000D02*
X118260000Y-97800000D01*
X115560000Y-95600000D02*
X114260000Y-95600000D01*
X112360000Y-90490000D02*
X112360000Y-90770000D01*
X112360000Y-90490000D02*
X117360000Y-90490000D01*
X117360000Y-90490000D02*
X117360000Y-90770000D01*
X117360000Y-98110000D02*
X117360000Y-97830000D01*
X112360000Y-98110000D02*
X117360000Y-98110000D01*
X114060000Y-95951000D02*
X114060000Y-95824000D01*
X114060000Y-95824000D02*
X114314000Y-95570000D01*
X114314000Y-95570000D02*
X114060000Y-95316000D01*
X114060000Y-95316000D02*
X114060000Y-95189000D01*
X112360000Y-98110000D02*
X112360000Y-97830000D01*
X113960000Y-93411000D02*
X113960000Y-93284000D01*
X115760000Y-95189000D02*
X115760000Y-95316000D01*
X114214000Y-93030000D02*
X113960000Y-92776000D01*
X115506000Y-95570000D02*
X115760000Y-95824000D01*
X113960000Y-92776000D02*
X113960000Y-92649000D01*
X115760000Y-95824000D02*
X115760000Y-95951000D01*
X113960000Y-93284000D02*
X114214000Y-93030000D01*
X115760000Y-95316000D02*
X115506000Y-95570000D01*
X115860000Y-92649000D02*
X115860000Y-92776000D01*
X115860000Y-93284000D02*
X115860000Y-93411000D01*
X115606000Y-93030000D02*
X115860000Y-93284000D01*
X115860000Y-92776000D02*
X115606000Y-93030000D01*
X115560152Y-93030000D02*
X114258117Y-93030000D01*
D11*
X111520000Y-82100000D02*
X111520000Y-81100000D01*
X112880000Y-81100000D02*
X112880000Y-82100000D01*
X124780000Y-95700000D02*
X124780000Y-96700000D01*
X123420000Y-96700000D02*
X123420000Y-95700000D01*
X135820000Y-80200000D02*
X135820000Y-79200000D01*
X137180000Y-79200000D02*
X137180000Y-80200000D01*
X117700000Y-87020000D02*
X118700000Y-87020000D01*
X118700000Y-88380000D02*
X117700000Y-88380000D01*
X131200000Y-97850000D02*
X137400000Y-97850000D01*
X137400000Y-94150000D02*
X131200000Y-94150000D01*
X131200000Y-94150000D02*
X131200000Y-94800000D01*
X131200000Y-97200000D02*
X131200000Y-97850000D01*
X137400000Y-97850000D02*
X137400000Y-97200000D01*
X137400000Y-94150000D02*
X137400000Y-94800000D01*
D12*
X129775000Y-91700000D02*
X131200000Y-91700000D01*
X122525000Y-91925000D02*
X122850000Y-91925000D01*
X122525000Y-84675000D02*
X122850000Y-84675000D01*
X129775000Y-84675000D02*
X129450000Y-84675000D01*
X129775000Y-91925000D02*
X129450000Y-91925000D01*
X129775000Y-84675000D02*
X129775000Y-85000000D01*
X122525000Y-84675000D02*
X122525000Y-85000000D01*
X122525000Y-91925000D02*
X122525000Y-91600000D01*
X129775000Y-91925000D02*
X129775000Y-91700000D01*
D11*
X140510000Y-81130000D02*
X139050000Y-81130000D01*
X140510000Y-77970000D02*
X138350000Y-77970000D01*
X140510000Y-77970000D02*
X140510000Y-78900000D01*
X140510000Y-81130000D02*
X140510000Y-80200000D01*
X113600000Y-80200000D02*
X114800000Y-80200000D01*
X113600000Y-84200000D02*
X113600000Y-80200000D01*
X118400000Y-80200000D02*
X118400000Y-82900000D01*
X117200000Y-80200000D02*
X118400000Y-80200000D01*
X120850000Y-82400000D02*
X128100000Y-82400000D01*
X120850000Y-78800000D02*
X120850000Y-82400000D01*
X128100000Y-78800000D02*
X120850000Y-78800000D01*
X117400000Y-89571428D02*
X117200000Y-89285714D01*
X117057142Y-89571428D02*
X117057142Y-88971428D01*
X117285714Y-88971428D01*
X117342857Y-89000000D01*
X117371428Y-89028571D01*
X117400000Y-89085714D01*
X117400000Y-89171428D01*
X117371428Y-89228571D01*
X117342857Y-89257142D01*
X117285714Y-89285714D01*
X117057142Y-89285714D01*
X117600000Y-88971428D02*
X118000000Y-88971428D01*
X117742857Y-89571428D01*
X118742857Y-88928571D02*
X118771428Y-88900000D01*
X118828571Y-88871428D01*
X118971428Y-88871428D01*
X119028571Y-88900000D01*
X119057142Y-88928571D01*
X119085714Y-88985714D01*
X119085714Y-89042857D01*
X119057142Y-89128571D01*
X118714285Y-89471428D01*
X119085714Y-89471428D01*
X119314285Y-88928571D02*
X119342857Y-88900000D01*
X119400000Y-88871428D01*
X119542857Y-88871428D01*
X119600000Y-88900000D01*
X119628571Y-88928571D01*
X119657142Y-88985714D01*
X119657142Y-89042857D01*
X119628571Y-89128571D01*
X119285714Y-89471428D01*
X119657142Y-89471428D01*
X113800000Y-89171428D02*
X113600000Y-88885714D01*
X113457142Y-89171428D02*
X113457142Y-88571428D01*
X113685714Y-88571428D01*
X113742857Y-88600000D01*
X113771428Y-88628571D01*
X113800000Y-88685714D01*
X113800000Y-88771428D01*
X113771428Y-88828571D01*
X113742857Y-88857142D01*
X113685714Y-88885714D01*
X113457142Y-88885714D01*
X114142857Y-88828571D02*
X114085714Y-88800000D01*
X114057142Y-88771428D01*
X114028571Y-88714285D01*
X114028571Y-88685714D01*
X114057142Y-88628571D01*
X114085714Y-88600000D01*
X114142857Y-88571428D01*
X114257142Y-88571428D01*
X114314285Y-88600000D01*
X114342857Y-88628571D01*
X114371428Y-88685714D01*
X114371428Y-88714285D01*
X114342857Y-88771428D01*
X114314285Y-88800000D01*
X114257142Y-88828571D01*
X114142857Y-88828571D01*
X114085714Y-88857142D01*
X114057142Y-88885714D01*
X114028571Y-88942857D01*
X114028571Y-89057142D01*
X114057142Y-89114285D01*
X114085714Y-89142857D01*
X114142857Y-89171428D01*
X114257142Y-89171428D01*
X114314285Y-89142857D01*
X114342857Y-89114285D01*
X114371428Y-89057142D01*
X114371428Y-88942857D01*
X114342857Y-88885714D01*
X114314285Y-88857142D01*
X114257142Y-88828571D01*
X113442857Y-89528571D02*
X113471428Y-89500000D01*
X113528571Y-89471428D01*
X113671428Y-89471428D01*
X113728571Y-89500000D01*
X113757142Y-89528571D01*
X113785714Y-89585714D01*
X113785714Y-89642857D01*
X113757142Y-89728571D01*
X113414285Y-90071428D01*
X113785714Y-90071428D01*
X114014285Y-89528571D02*
X114042857Y-89500000D01*
X114100000Y-89471428D01*
X114242857Y-89471428D01*
X114300000Y-89500000D01*
X114328571Y-89528571D01*
X114357142Y-89585714D01*
X114357142Y-89642857D01*
X114328571Y-89728571D01*
X113985714Y-90071428D01*
X114357142Y-90071428D01*
D12*
X140600000Y-85271428D02*
X140400000Y-84985714D01*
X140257142Y-85271428D02*
X140257142Y-84671428D01*
X140485714Y-84671428D01*
X140542857Y-84700000D01*
X140571428Y-84728571D01*
X140600000Y-84785714D01*
X140600000Y-84871428D01*
X140571428Y-84928571D01*
X140542857Y-84957142D01*
X140485714Y-84985714D01*
X140257142Y-84985714D01*
X141114285Y-84871428D02*
X141114285Y-85271428D01*
X140971428Y-84642857D02*
X140828571Y-85071428D01*
X141200000Y-85071428D01*
X142142857Y-85271428D02*
X141800000Y-85271428D01*
X141971428Y-85271428D02*
X141971428Y-84671428D01*
X141914285Y-84757142D01*
X141857142Y-84814285D01*
X141800000Y-84842857D01*
X142400000Y-85271428D02*
X142400000Y-84671428D01*
X142742857Y-85271428D02*
X142485714Y-84928571D01*
X142742857Y-84671428D02*
X142400000Y-85014285D01*
X143085714Y-84671428D02*
X143085714Y-84814285D01*
X142942857Y-84757142D02*
X143085714Y-84814285D01*
X143228571Y-84757142D01*
X143000000Y-84928571D02*
X143085714Y-84814285D01*
X143171428Y-84928571D01*
X140600000Y-94471428D02*
X140400000Y-94185714D01*
X140257142Y-94471428D02*
X140257142Y-93871428D01*
X140485714Y-93871428D01*
X140542857Y-93900000D01*
X140571428Y-93928571D01*
X140600000Y-93985714D01*
X140600000Y-94071428D01*
X140571428Y-94128571D01*
X140542857Y-94157142D01*
X140485714Y-94185714D01*
X140257142Y-94185714D01*
X140828571Y-93928571D02*
X140857142Y-93900000D01*
X140914285Y-93871428D01*
X141057142Y-93871428D01*
X141114285Y-93900000D01*
X141142857Y-93928571D01*
X141171428Y-93985714D01*
X141171428Y-94042857D01*
X141142857Y-94128571D01*
X140800000Y-94471428D01*
X141171428Y-94471428D01*
X142042857Y-94471428D02*
X141700000Y-94471428D01*
X141871428Y-94471428D02*
X141871428Y-93871428D01*
X141814285Y-93957142D01*
X141757142Y-94014285D01*
X141700000Y-94042857D01*
X142300000Y-94471428D02*
X142300000Y-93871428D01*
X142642857Y-94471428D02*
X142385714Y-94128571D01*
X142642857Y-93871428D02*
X142300000Y-94214285D01*
X142985714Y-93871428D02*
X142985714Y-94014285D01*
X142842857Y-93957142D02*
X142985714Y-94014285D01*
X143128571Y-93957142D01*
X142900000Y-94128571D02*
X142985714Y-94014285D01*
X143071428Y-94128571D01*
X140700000Y-89971428D02*
X140500000Y-89685714D01*
X140357142Y-89971428D02*
X140357142Y-89371428D01*
X140585714Y-89371428D01*
X140642857Y-89400000D01*
X140671428Y-89428571D01*
X140700000Y-89485714D01*
X140700000Y-89571428D01*
X140671428Y-89628571D01*
X140642857Y-89657142D01*
X140585714Y-89685714D01*
X140357142Y-89685714D01*
X140900000Y-89371428D02*
X141271428Y-89371428D01*
X141071428Y-89600000D01*
X141157142Y-89600000D01*
X141214285Y-89628571D01*
X141242857Y-89657142D01*
X141271428Y-89714285D01*
X141271428Y-89857142D01*
X141242857Y-89914285D01*
X141214285Y-89942857D01*
X141157142Y-89971428D01*
X140985714Y-89971428D01*
X140928571Y-89942857D01*
X140900000Y-89914285D01*
X142142857Y-89971428D02*
X141800000Y-89971428D01*
X141971428Y-89971428D02*
X141971428Y-89371428D01*
X141914285Y-89457142D01*
X141857142Y-89514285D01*
X141800000Y-89542857D01*
X142400000Y-89971428D02*
X142400000Y-89371428D01*
X142742857Y-89971428D02*
X142485714Y-89628571D01*
X142742857Y-89371428D02*
X142400000Y-89714285D01*
X143085714Y-89371428D02*
X143085714Y-89514285D01*
X142942857Y-89457142D02*
X143085714Y-89514285D01*
X143228571Y-89457142D01*
X143000000Y-89628571D02*
X143085714Y-89514285D01*
X143171428Y-89628571D01*
X140257142Y-87671428D02*
X140257142Y-87071428D01*
X140400000Y-87071428D01*
X140485714Y-87100000D01*
X140542857Y-87157142D01*
X140571428Y-87214285D01*
X140600000Y-87328571D01*
X140600000Y-87414285D01*
X140571428Y-87528571D01*
X140542857Y-87585714D01*
X140485714Y-87642857D01*
X140400000Y-87671428D01*
X140257142Y-87671428D01*
X140800000Y-87071428D02*
X141171428Y-87071428D01*
X140971428Y-87300000D01*
X141057142Y-87300000D01*
X141114285Y-87328571D01*
X141142857Y-87357142D01*
X141171428Y-87414285D01*
X141171428Y-87557142D01*
X141142857Y-87614285D01*
X141114285Y-87642857D01*
X141057142Y-87671428D01*
X140885714Y-87671428D01*
X140828571Y-87642857D01*
X140800000Y-87614285D01*
X141771428Y-87357142D02*
X141971428Y-87357142D01*
X142057142Y-87671428D02*
X141771428Y-87671428D01*
X141771428Y-87071428D01*
X142057142Y-87071428D01*
X142657142Y-87671428D02*
X142457142Y-87385714D01*
X142314285Y-87671428D02*
X142314285Y-87071428D01*
X142542857Y-87071428D01*
X142600000Y-87100000D01*
X142628571Y-87128571D01*
X142657142Y-87185714D01*
X142657142Y-87271428D01*
X142628571Y-87328571D01*
X142600000Y-87357142D01*
X142542857Y-87385714D01*
X142314285Y-87385714D01*
X143257142Y-87671428D02*
X143057142Y-87385714D01*
X142914285Y-87671428D02*
X142914285Y-87071428D01*
X143142857Y-87071428D01*
X143200000Y-87100000D01*
X143228571Y-87128571D01*
X143257142Y-87185714D01*
X143257142Y-87271428D01*
X143228571Y-87328571D01*
X143200000Y-87357142D01*
X143142857Y-87385714D01*
X142914285Y-87385714D01*
X140357142Y-92171428D02*
X140357142Y-91571428D01*
X140500000Y-91571428D01*
X140585714Y-91600000D01*
X140642857Y-91657142D01*
X140671428Y-91714285D01*
X140700000Y-91828571D01*
X140700000Y-91914285D01*
X140671428Y-92028571D01*
X140642857Y-92085714D01*
X140585714Y-92142857D01*
X140500000Y-92171428D01*
X140357142Y-92171428D01*
X140928571Y-91628571D02*
X140957142Y-91600000D01*
X141014285Y-91571428D01*
X141157142Y-91571428D01*
X141214285Y-91600000D01*
X141242857Y-91628571D01*
X141271428Y-91685714D01*
X141271428Y-91742857D01*
X141242857Y-91828571D01*
X140900000Y-92171428D01*
X141271428Y-92171428D01*
X141942857Y-91571428D02*
X142285714Y-91571428D01*
X142114285Y-92171428D02*
X142114285Y-91571428D01*
X142428571Y-91571428D02*
X142828571Y-92171428D01*
X142828571Y-91571428D02*
X142428571Y-92171428D01*
X140357142Y-96671428D02*
X140357142Y-96071428D01*
X140500000Y-96071428D01*
X140585714Y-96100000D01*
X140642857Y-96157142D01*
X140671428Y-96214285D01*
X140700000Y-96328571D01*
X140700000Y-96414285D01*
X140671428Y-96528571D01*
X140642857Y-96585714D01*
X140585714Y-96642857D01*
X140500000Y-96671428D01*
X140357142Y-96671428D01*
X141271428Y-96671428D02*
X140928571Y-96671428D01*
X141100000Y-96671428D02*
X141100000Y-96071428D01*
X141042857Y-96157142D01*
X140985714Y-96214285D01*
X140928571Y-96242857D01*
X142200000Y-96671428D02*
X142000000Y-96385714D01*
X141857142Y-96671428D02*
X141857142Y-96071428D01*
X142085714Y-96071428D01*
X142142857Y-96100000D01*
X142171428Y-96128571D01*
X142200000Y-96185714D01*
X142200000Y-96271428D01*
X142171428Y-96328571D01*
X142142857Y-96357142D01*
X142085714Y-96385714D01*
X141857142Y-96385714D01*
X142400000Y-96071428D02*
X142800000Y-96671428D01*
X142800000Y-96071428D02*
X142400000Y-96671428D01*
X135731285Y-83424714D02*
X135731285Y-83710428D01*
X135531285Y-83110428D02*
X135731285Y-83424714D01*
X135931285Y-83110428D01*
X136102714Y-83167571D02*
X136131285Y-83139000D01*
X136188428Y-83110428D01*
X136331285Y-83110428D01*
X136388428Y-83139000D01*
X136417000Y-83167571D01*
X136445571Y-83224714D01*
X136445571Y-83281857D01*
X136417000Y-83367571D01*
X136074142Y-83710428D01*
X136445571Y-83710428D01*
X134055142Y-84126428D02*
X134426571Y-84126428D01*
X134226571Y-84355000D01*
X134312285Y-84355000D01*
X134369428Y-84383571D01*
X134398000Y-84412142D01*
X134426571Y-84469285D01*
X134426571Y-84612142D01*
X134398000Y-84669285D01*
X134369428Y-84697857D01*
X134312285Y-84726428D01*
X134140857Y-84726428D01*
X134083714Y-84697857D01*
X134055142Y-84669285D01*
X134655142Y-84183571D02*
X134683714Y-84155000D01*
X134740857Y-84126428D01*
X134883714Y-84126428D01*
X134940857Y-84155000D01*
X134969428Y-84183571D01*
X134998000Y-84240714D01*
X134998000Y-84297857D01*
X134969428Y-84383571D01*
X134626571Y-84726428D01*
X134998000Y-84726428D01*
X135255142Y-84669285D02*
X135283714Y-84697857D01*
X135255142Y-84726428D01*
X135226571Y-84697857D01*
X135255142Y-84669285D01*
X135255142Y-84726428D01*
X135483714Y-84126428D02*
X135883714Y-84126428D01*
X135626571Y-84726428D01*
X136369428Y-84126428D02*
X136255142Y-84126428D01*
X136198000Y-84155000D01*
X136169428Y-84183571D01*
X136112285Y-84269285D01*
X136083714Y-84383571D01*
X136083714Y-84612142D01*
X136112285Y-84669285D01*
X136140857Y-84697857D01*
X136198000Y-84726428D01*
X136312285Y-84726428D01*
X136369428Y-84697857D01*
X136398000Y-84669285D01*
X136426571Y-84612142D01*
X136426571Y-84469285D01*
X136398000Y-84412142D01*
X136369428Y-84383571D01*
X136312285Y-84355000D01*
X136198000Y-84355000D01*
X136140857Y-84383571D01*
X136112285Y-84412142D01*
X136083714Y-84469285D01*
X136769428Y-84383571D02*
X136712285Y-84355000D01*
X136683714Y-84326428D01*
X136655142Y-84269285D01*
X136655142Y-84240714D01*
X136683714Y-84183571D01*
X136712285Y-84155000D01*
X136769428Y-84126428D01*
X136883714Y-84126428D01*
X136940857Y-84155000D01*
X136969428Y-84183571D01*
X136998000Y-84240714D01*
X136998000Y-84269285D01*
X136969428Y-84326428D01*
X136940857Y-84355000D01*
X136883714Y-84383571D01*
X136769428Y-84383571D01*
X136712285Y-84412142D01*
X136683714Y-84440714D01*
X136655142Y-84497857D01*
X136655142Y-84612142D01*
X136683714Y-84669285D01*
X136712285Y-84697857D01*
X136769428Y-84726428D01*
X136883714Y-84726428D01*
X136940857Y-84697857D01*
X136969428Y-84669285D01*
X136998000Y-84612142D01*
X136998000Y-84497857D01*
X136969428Y-84440714D01*
X136940857Y-84412142D01*
X136883714Y-84383571D01*
X137255142Y-84726428D02*
X137255142Y-84126428D01*
X137598000Y-84726428D02*
X137340857Y-84383571D01*
X137598000Y-84126428D02*
X137255142Y-84469285D01*
X137855142Y-84726428D02*
X137855142Y-84126428D01*
X137855142Y-84412142D02*
X138198000Y-84412142D01*
X138198000Y-84726428D02*
X138198000Y-84126428D01*
X138426571Y-84326428D02*
X138740857Y-84326428D01*
X138426571Y-84726428D01*
X138740857Y-84726428D01*
X119914285Y-95600000D02*
X120200000Y-95600000D01*
X119857142Y-95771428D02*
X120057142Y-95171428D01*
X120257142Y-95771428D01*
X120457142Y-95771428D02*
X120457142Y-95171428D01*
X120800000Y-95771428D01*
X120800000Y-95171428D01*
X121000000Y-95171428D02*
X121342857Y-95171428D01*
X121171428Y-95771428D02*
X121171428Y-95171428D01*
X134014285Y-87300000D02*
X134042857Y-87328571D01*
X134071428Y-87414285D01*
X134071428Y-87471428D01*
X134042857Y-87557142D01*
X133985714Y-87614285D01*
X133928571Y-87642857D01*
X133814285Y-87671428D01*
X133728571Y-87671428D01*
X133614285Y-87642857D01*
X133557142Y-87614285D01*
X133500000Y-87557142D01*
X133471428Y-87471428D01*
X133471428Y-87414285D01*
X133500000Y-87328571D01*
X133528571Y-87300000D01*
X133471428Y-86785714D02*
X133471428Y-86900000D01*
X133500000Y-86957142D01*
X133528571Y-86985714D01*
X133614285Y-87042857D01*
X133728571Y-87071428D01*
X133957142Y-87071428D01*
X134014285Y-87042857D01*
X134042857Y-87014285D01*
X134071428Y-86957142D01*
X134071428Y-86842857D01*
X134042857Y-86785714D01*
X134014285Y-86757142D01*
X133957142Y-86728571D01*
X133814285Y-86728571D01*
X133757142Y-86757142D01*
X133728571Y-86785714D01*
X133700000Y-86842857D01*
X133700000Y-86957142D01*
X133728571Y-87014285D01*
X133757142Y-87042857D01*
X133814285Y-87071428D01*
X133971428Y-85600000D02*
X133971428Y-85942857D01*
X133971428Y-85771428D02*
X133371428Y-85771428D01*
X133457142Y-85828571D01*
X133514285Y-85885714D01*
X133542857Y-85942857D01*
X133571428Y-85085714D02*
X133971428Y-85085714D01*
X133571428Y-85342857D02*
X133885714Y-85342857D01*
X133942857Y-85314285D01*
X133971428Y-85257142D01*
X133971428Y-85171428D01*
X133942857Y-85114285D01*
X133914285Y-85085714D01*
X133945285Y-92429000D02*
X133973857Y-92457571D01*
X134002428Y-92543285D01*
X134002428Y-92600428D01*
X133973857Y-92686142D01*
X133916714Y-92743285D01*
X133859571Y-92771857D01*
X133745285Y-92800428D01*
X133659571Y-92800428D01*
X133545285Y-92771857D01*
X133488142Y-92743285D01*
X133431000Y-92686142D01*
X133402428Y-92600428D01*
X133402428Y-92543285D01*
X133431000Y-92457571D01*
X133459571Y-92429000D01*
X133402428Y-92229000D02*
X133402428Y-91829000D01*
X134002428Y-92086142D01*
X133332571Y-91406571D02*
X133304000Y-91378000D01*
X133275428Y-91320857D01*
X133275428Y-91178000D01*
X133304000Y-91120857D01*
X133332571Y-91092285D01*
X133389714Y-91063714D01*
X133446857Y-91063714D01*
X133532571Y-91092285D01*
X133875428Y-91435142D01*
X133875428Y-91063714D01*
X133332571Y-90835142D02*
X133304000Y-90806571D01*
X133275428Y-90749428D01*
X133275428Y-90606571D01*
X133304000Y-90549428D01*
X133332571Y-90520857D01*
X133389714Y-90492285D01*
X133446857Y-90492285D01*
X133532571Y-90520857D01*
X133875428Y-90863714D01*
X133875428Y-90492285D01*
X133475428Y-90235142D02*
X134075428Y-90235142D01*
X133504000Y-90235142D02*
X133475428Y-90178000D01*
X133475428Y-90063714D01*
X133504000Y-90006571D01*
X133532571Y-89978000D01*
X133589714Y-89949428D01*
X133761142Y-89949428D01*
X133818285Y-89978000D01*
X133846857Y-90006571D01*
X133875428Y-90063714D01*
X133875428Y-90178000D01*
X133846857Y-90235142D01*
X119214285Y-82100000D02*
X119242857Y-82128571D01*
X119271428Y-82214285D01*
X119271428Y-82271428D01*
X119242857Y-82357142D01*
X119185714Y-82414285D01*
X119128571Y-82442857D01*
X119014285Y-82471428D01*
X118928571Y-82471428D01*
X118814285Y-82442857D01*
X118757142Y-82414285D01*
X118700000Y-82357142D01*
X118671428Y-82271428D01*
X118671428Y-82214285D01*
X118700000Y-82128571D01*
X118728571Y-82100000D01*
X118871428Y-81585714D02*
X119271428Y-81585714D01*
X118642857Y-81728571D02*
X119071428Y-81871428D01*
X119071428Y-81500000D01*
X118571428Y-80657142D02*
X118571428Y-80285714D01*
X118800000Y-80485714D01*
X118800000Y-80400000D01*
X118828571Y-80342857D01*
X118857142Y-80314285D01*
X118914285Y-80285714D01*
X119057142Y-80285714D01*
X119114285Y-80314285D01*
X119142857Y-80342857D01*
X119171428Y-80400000D01*
X119171428Y-80571428D01*
X119142857Y-80628571D01*
X119114285Y-80657142D01*
X118571428Y-79914285D02*
X118571428Y-79857142D01*
X118600000Y-79800000D01*
X118628571Y-79771428D01*
X118685714Y-79742857D01*
X118800000Y-79714285D01*
X118942857Y-79714285D01*
X119057142Y-79742857D01*
X119114285Y-79771428D01*
X119142857Y-79800000D01*
X119171428Y-79857142D01*
X119171428Y-79914285D01*
X119142857Y-79971428D01*
X119114285Y-80000000D01*
X119057142Y-80028571D01*
X118942857Y-80057142D01*
X118800000Y-80057142D01*
X118685714Y-80028571D01*
X118628571Y-80000000D01*
X118600000Y-79971428D01*
X118571428Y-79914285D01*
X118771428Y-79457142D02*
X119371428Y-79457142D01*
X118800000Y-79457142D02*
X118771428Y-79400000D01*
X118771428Y-79285714D01*
X118800000Y-79228571D01*
X118828571Y-79200000D01*
X118885714Y-79171428D01*
X119057142Y-79171428D01*
X119114285Y-79200000D01*
X119142857Y-79228571D01*
X119171428Y-79285714D01*
X119171428Y-79400000D01*
X119142857Y-79457142D01*
X138600000Y-83814285D02*
X138571428Y-83842857D01*
X138485714Y-83871428D01*
X138428571Y-83871428D01*
X138342857Y-83842857D01*
X138285714Y-83785714D01*
X138257142Y-83728571D01*
X138228571Y-83614285D01*
X138228571Y-83528571D01*
X138257142Y-83414285D01*
X138285714Y-83357142D01*
X138342857Y-83300000D01*
X138428571Y-83271428D01*
X138485714Y-83271428D01*
X138571428Y-83300000D01*
X138600000Y-83328571D01*
X138885714Y-83871428D02*
X139000000Y-83871428D01*
X139057142Y-83842857D01*
X139085714Y-83814285D01*
X139142857Y-83728571D01*
X139171428Y-83614285D01*
X139171428Y-83385714D01*
X139142857Y-83328571D01*
X139114285Y-83300000D01*
X139057142Y-83271428D01*
X138942857Y-83271428D01*
X138885714Y-83300000D01*
X138857142Y-83328571D01*
X138828571Y-83385714D01*
X138828571Y-83528571D01*
X138857142Y-83585714D01*
X138885714Y-83614285D01*
X138942857Y-83642857D01*
X139057142Y-83642857D01*
X139114285Y-83614285D01*
X139142857Y-83585714D01*
X139171428Y-83528571D01*
X140428571Y-83871428D02*
X140085714Y-83871428D01*
X140257142Y-83871428D02*
X140257142Y-83271428D01*
X140200000Y-83357142D01*
X140142857Y-83414285D01*
X140085714Y-83442857D01*
X140800000Y-83271428D02*
X140857142Y-83271428D01*
X140914285Y-83300000D01*
X140942857Y-83328571D01*
X140971428Y-83385714D01*
X141000000Y-83500000D01*
X141000000Y-83642857D01*
X140971428Y-83757142D01*
X140942857Y-83814285D01*
X140914285Y-83842857D01*
X140857142Y-83871428D01*
X140800000Y-83871428D01*
X140742857Y-83842857D01*
X140714285Y-83814285D01*
X140685714Y-83757142D01*
X140657142Y-83642857D01*
X140657142Y-83500000D01*
X140685714Y-83385714D01*
X140714285Y-83328571D01*
X140742857Y-83300000D01*
X140800000Y-83271428D01*
X141371428Y-83271428D02*
X141428571Y-83271428D01*
X141485714Y-83300000D01*
X141514285Y-83328571D01*
X141542857Y-83385714D01*
X141571428Y-83500000D01*
X141571428Y-83642857D01*
X141542857Y-83757142D01*
X141514285Y-83814285D01*
X141485714Y-83842857D01*
X141428571Y-83871428D01*
X141371428Y-83871428D01*
X141314285Y-83842857D01*
X141285714Y-83814285D01*
X141257142Y-83757142D01*
X141228571Y-83642857D01*
X141228571Y-83500000D01*
X141257142Y-83385714D01*
X141285714Y-83328571D01*
X141314285Y-83300000D01*
X141371428Y-83271428D01*
X141828571Y-83471428D02*
X141828571Y-83871428D01*
X141828571Y-83528571D02*
X141857142Y-83500000D01*
X141914285Y-83471428D01*
X142000000Y-83471428D01*
X142057142Y-83500000D01*
X142085714Y-83557142D01*
X142085714Y-83871428D01*
X130914285Y-83800000D02*
X130942857Y-83828571D01*
X130971428Y-83914285D01*
X130971428Y-83971428D01*
X130942857Y-84057142D01*
X130885714Y-84114285D01*
X130828571Y-84142857D01*
X130714285Y-84171428D01*
X130628571Y-84171428D01*
X130514285Y-84142857D01*
X130457142Y-84114285D01*
X130400000Y-84057142D01*
X130371428Y-83971428D01*
X130371428Y-83914285D01*
X130400000Y-83828571D01*
X130428571Y-83800000D01*
X130971428Y-83228571D02*
X130971428Y-83571428D01*
X130971428Y-83400000D02*
X130371428Y-83400000D01*
X130457142Y-83457142D01*
X130514285Y-83514285D01*
X130542857Y-83571428D01*
X130571428Y-81942857D02*
X130971428Y-81942857D01*
X130342857Y-82085714D02*
X130771428Y-82228571D01*
X130771428Y-81857142D01*
X130571428Y-81371428D02*
X130971428Y-81371428D01*
X130571428Y-81628571D02*
X130885714Y-81628571D01*
X130942857Y-81600000D01*
X130971428Y-81542857D01*
X130971428Y-81457142D01*
X130942857Y-81400000D01*
X130914285Y-81371428D01*
X130371428Y-81142857D02*
X130371428Y-80742857D01*
X130971428Y-81000000D01*
X130034285Y-97910000D02*
X130062857Y-97938571D01*
X130091428Y-98024285D01*
X130091428Y-98081428D01*
X130062857Y-98167142D01*
X130005714Y-98224285D01*
X129948571Y-98252857D01*
X129834285Y-98281428D01*
X129748571Y-98281428D01*
X129634285Y-98252857D01*
X129577142Y-98224285D01*
X129520000Y-98167142D01*
X129491428Y-98081428D01*
X129491428Y-98024285D01*
X129520000Y-97938571D01*
X129548571Y-97910000D01*
X129548571Y-97681428D02*
X129520000Y-97652857D01*
X129491428Y-97595714D01*
X129491428Y-97452857D01*
X129520000Y-97395714D01*
X129548571Y-97367142D01*
X129605714Y-97338571D01*
X129662857Y-97338571D01*
X129748571Y-97367142D01*
X130091428Y-97710000D01*
X130091428Y-97338571D01*
X130021428Y-96600000D02*
X130021428Y-96942857D01*
X130021428Y-96771428D02*
X129421428Y-96771428D01*
X129507142Y-96828571D01*
X129564285Y-96885714D01*
X129592857Y-96942857D01*
X129621428Y-96085714D02*
X130021428Y-96085714D01*
X129621428Y-96342857D02*
X129935714Y-96342857D01*
X129992857Y-96314285D01*
X130021428Y-96257142D01*
X130021428Y-96171428D01*
X129992857Y-96114285D01*
X129964285Y-96085714D01*
X125854285Y-97750000D02*
X125882857Y-97778571D01*
X125911428Y-97864285D01*
X125911428Y-97921428D01*
X125882857Y-98007142D01*
X125825714Y-98064285D01*
X125768571Y-98092857D01*
X125654285Y-98121428D01*
X125568571Y-98121428D01*
X125454285Y-98092857D01*
X125397142Y-98064285D01*
X125340000Y-98007142D01*
X125311428Y-97921428D01*
X125311428Y-97864285D01*
X125340000Y-97778571D01*
X125368571Y-97750000D01*
X125311428Y-97550000D02*
X125311428Y-97178571D01*
X125540000Y-97378571D01*
X125540000Y-97292857D01*
X125568571Y-97235714D01*
X125597142Y-97207142D01*
X125654285Y-97178571D01*
X125797142Y-97178571D01*
X125854285Y-97207142D01*
X125882857Y-97235714D01*
X125911428Y-97292857D01*
X125911428Y-97464285D01*
X125882857Y-97521428D01*
X125854285Y-97550000D01*
X125871428Y-96340000D02*
X125871428Y-96682857D01*
X125871428Y-96511428D02*
X125271428Y-96511428D01*
X125357142Y-96568571D01*
X125414285Y-96625714D01*
X125442857Y-96682857D01*
X125471428Y-95825714D02*
X125871428Y-95825714D01*
X125471428Y-96082857D02*
X125785714Y-96082857D01*
X125842857Y-96054285D01*
X125871428Y-95997142D01*
X125871428Y-95911428D01*
X125842857Y-95854285D01*
X125814285Y-95825714D01*
X130600000Y-78414285D02*
X130571428Y-78442857D01*
X130485714Y-78471428D01*
X130428571Y-78471428D01*
X130342857Y-78442857D01*
X130285714Y-78385714D01*
X130257142Y-78328571D01*
X130228571Y-78214285D01*
X130228571Y-78128571D01*
X130257142Y-78014285D01*
X130285714Y-77957142D01*
X130342857Y-77900000D01*
X130428571Y-77871428D01*
X130485714Y-77871428D01*
X130571428Y-77900000D01*
X130600000Y-77928571D01*
X131142857Y-77871428D02*
X130857142Y-77871428D01*
X130828571Y-78157142D01*
X130857142Y-78128571D01*
X130914285Y-78100000D01*
X131057142Y-78100000D01*
X131114285Y-78128571D01*
X131142857Y-78157142D01*
X131171428Y-78214285D01*
X131171428Y-78357142D01*
X131142857Y-78414285D01*
X131114285Y-78442857D01*
X131057142Y-78471428D01*
X130914285Y-78471428D01*
X130857142Y-78442857D01*
X130828571Y-78414285D01*
X131942857Y-77771428D02*
X132314285Y-77771428D01*
X132114285Y-78000000D01*
X132200000Y-78000000D01*
X132257142Y-78028571D01*
X132285714Y-78057142D01*
X132314285Y-78114285D01*
X132314285Y-78257142D01*
X132285714Y-78314285D01*
X132257142Y-78342857D01*
X132200000Y-78371428D01*
X132028571Y-78371428D01*
X131971428Y-78342857D01*
X131942857Y-78314285D01*
X132685714Y-77771428D02*
X132742857Y-77771428D01*
X132800000Y-77800000D01*
X132828571Y-77828571D01*
X132857142Y-77885714D01*
X132885714Y-78000000D01*
X132885714Y-78142857D01*
X132857142Y-78257142D01*
X132828571Y-78314285D01*
X132800000Y-78342857D01*
X132742857Y-78371428D01*
X132685714Y-78371428D01*
X132628571Y-78342857D01*
X132600000Y-78314285D01*
X132571428Y-78257142D01*
X132542857Y-78142857D01*
X132542857Y-78000000D01*
X132571428Y-77885714D01*
X132600000Y-77828571D01*
X132628571Y-77800000D01*
X132685714Y-77771428D01*
X133142857Y-77971428D02*
X133142857Y-78571428D01*
X133142857Y-78000000D02*
X133200000Y-77971428D01*
X133314285Y-77971428D01*
X133371428Y-78000000D01*
X133400000Y-78028571D01*
X133428571Y-78085714D01*
X133428571Y-78257142D01*
X133400000Y-78314285D01*
X133371428Y-78342857D01*
X133314285Y-78371428D01*
X133200000Y-78371428D01*
X133142857Y-78342857D01*
X131000000Y-92614285D02*
X130971428Y-92642857D01*
X130885714Y-92671428D01*
X130828571Y-92671428D01*
X130742857Y-92642857D01*
X130685714Y-92585714D01*
X130657142Y-92528571D01*
X130628571Y-92414285D01*
X130628571Y-92328571D01*
X130657142Y-92214285D01*
X130685714Y-92157142D01*
X130742857Y-92100000D01*
X130828571Y-92071428D01*
X130885714Y-92071428D01*
X130971428Y-92100000D01*
X131000000Y-92128571D01*
X131342857Y-92328571D02*
X131285714Y-92300000D01*
X131257142Y-92271428D01*
X131228571Y-92214285D01*
X131228571Y-92185714D01*
X131257142Y-92128571D01*
X131285714Y-92100000D01*
X131342857Y-92071428D01*
X131457142Y-92071428D01*
X131514285Y-92100000D01*
X131542857Y-92128571D01*
X131571428Y-92185714D01*
X131571428Y-92214285D01*
X131542857Y-92271428D01*
X131514285Y-92300000D01*
X131457142Y-92328571D01*
X131342857Y-92328571D01*
X131285714Y-92357142D01*
X131257142Y-92385714D01*
X131228571Y-92442857D01*
X131228571Y-92557142D01*
X131257142Y-92614285D01*
X131285714Y-92642857D01*
X131342857Y-92671428D01*
X131457142Y-92671428D01*
X131514285Y-92642857D01*
X131542857Y-92614285D01*
X131571428Y-92557142D01*
X131571428Y-92442857D01*
X131542857Y-92385714D01*
X131514285Y-92357142D01*
X131457142Y-92328571D01*
X130471428Y-93028571D02*
X130500000Y-93000000D01*
X130557142Y-92971428D01*
X130700000Y-92971428D01*
X130757142Y-93000000D01*
X130785714Y-93028571D01*
X130814285Y-93085714D01*
X130814285Y-93142857D01*
X130785714Y-93228571D01*
X130442857Y-93571428D01*
X130814285Y-93571428D01*
X131042857Y-93028571D02*
X131071428Y-93000000D01*
X131128571Y-92971428D01*
X131271428Y-92971428D01*
X131328571Y-93000000D01*
X131357142Y-93028571D01*
X131385714Y-93085714D01*
X131385714Y-93142857D01*
X131357142Y-93228571D01*
X131014285Y-93571428D01*
X131385714Y-93571428D01*
X131642857Y-93171428D02*
X131642857Y-93771428D01*
X131642857Y-93200000D02*
X131700000Y-93171428D01*
X131814285Y-93171428D01*
X131871428Y-93200000D01*
X131900000Y-93228571D01*
X131928571Y-93285714D01*
X131928571Y-93457142D01*
X131900000Y-93514285D01*
X131871428Y-93542857D01*
X131814285Y-93571428D01*
X131700000Y-93571428D01*
X131642857Y-93542857D01*
X112614285Y-85114285D02*
X112585714Y-85142857D01*
X112500000Y-85171428D01*
X112442857Y-85171428D01*
X112357142Y-85142857D01*
X112300000Y-85085714D01*
X112271428Y-85028571D01*
X112242857Y-84914285D01*
X112242857Y-84828571D01*
X112271428Y-84714285D01*
X112300000Y-84657142D01*
X112357142Y-84600000D01*
X112442857Y-84571428D01*
X112500000Y-84571428D01*
X112585714Y-84600000D01*
X112614285Y-84628571D01*
X113185714Y-85171428D02*
X112842857Y-85171428D01*
X113014285Y-85171428D02*
X113014285Y-84571428D01*
X112957142Y-84657142D01*
X112900000Y-84714285D01*
X112842857Y-84742857D01*
X113557142Y-84571428D02*
X113614285Y-84571428D01*
X113671428Y-84600000D01*
X113700000Y-84628571D01*
X113728571Y-84685714D01*
X113757142Y-84800000D01*
X113757142Y-84942857D01*
X113728571Y-85057142D01*
X113700000Y-85114285D01*
X113671428Y-85142857D01*
X113614285Y-85171428D01*
X113557142Y-85171428D01*
X113500000Y-85142857D01*
X113471428Y-85114285D01*
X113442857Y-85057142D01*
X113414285Y-84942857D01*
X113414285Y-84800000D01*
X113442857Y-84685714D01*
X113471428Y-84628571D01*
X113500000Y-84600000D01*
X113557142Y-84571428D01*
X114457142Y-84771428D02*
X114457142Y-85171428D01*
X114314285Y-84542857D02*
X114171428Y-84971428D01*
X114542857Y-84971428D01*
X115028571Y-84771428D02*
X115028571Y-85171428D01*
X114771428Y-84771428D02*
X114771428Y-85085714D01*
X114800000Y-85142857D01*
X114857142Y-85171428D01*
X114942857Y-85171428D01*
X115000000Y-85142857D01*
X115028571Y-85114285D01*
X115257142Y-84571428D02*
X115657142Y-84571428D01*
X115400000Y-85171428D01*
X116314285Y-85114285D02*
X116285714Y-85142857D01*
X116200000Y-85171428D01*
X116142857Y-85171428D01*
X116057142Y-85142857D01*
X116000000Y-85085714D01*
X115971428Y-85028571D01*
X115942857Y-84914285D01*
X115942857Y-84828571D01*
X115971428Y-84714285D01*
X116000000Y-84657142D01*
X116057142Y-84600000D01*
X116142857Y-84571428D01*
X116200000Y-84571428D01*
X116285714Y-84600000D01*
X116314285Y-84628571D01*
X116885714Y-85171428D02*
X116542857Y-85171428D01*
X116714285Y-85171428D02*
X116714285Y-84571428D01*
X116657142Y-84657142D01*
X116600000Y-84714285D01*
X116542857Y-84742857D01*
X117114285Y-84628571D02*
X117142857Y-84600000D01*
X117200000Y-84571428D01*
X117342857Y-84571428D01*
X117400000Y-84600000D01*
X117428571Y-84628571D01*
X117457142Y-84685714D01*
X117457142Y-84742857D01*
X117428571Y-84828571D01*
X117085714Y-85171428D01*
X117457142Y-85171428D01*
X119214285Y-85171428D02*
X118871428Y-85171428D01*
X119042857Y-85171428D02*
X119042857Y-84571428D01*
X118985714Y-84657142D01*
X118928571Y-84714285D01*
X118871428Y-84742857D01*
X119585714Y-84571428D02*
X119642857Y-84571428D01*
X119700000Y-84600000D01*
X119728571Y-84628571D01*
X119757142Y-84685714D01*
X119785714Y-84800000D01*
X119785714Y-84942857D01*
X119757142Y-85057142D01*
X119728571Y-85114285D01*
X119700000Y-85142857D01*
X119642857Y-85171428D01*
X119585714Y-85171428D01*
X119528571Y-85142857D01*
X119500000Y-85114285D01*
X119471428Y-85057142D01*
X119442857Y-84942857D01*
X119442857Y-84800000D01*
X119471428Y-84685714D01*
X119500000Y-84628571D01*
X119528571Y-84600000D01*
X119585714Y-84571428D01*
X120300000Y-84771428D02*
X120300000Y-85171428D01*
X120042857Y-84771428D02*
X120042857Y-85085714D01*
X120071428Y-85142857D01*
X120128571Y-85171428D01*
X120214285Y-85171428D01*
X120271428Y-85142857D01*
X120300000Y-85114285D01*
X111171428Y-89800000D02*
X111600000Y-89800000D01*
X111685714Y-89828571D01*
X111742857Y-89885714D01*
X111771428Y-89971428D01*
X111771428Y-90028571D01*
X111771428Y-89200000D02*
X111771428Y-89542857D01*
X111771428Y-89371428D02*
X111171428Y-89371428D01*
X111257142Y-89428571D01*
X111314285Y-89485714D01*
X111342857Y-89542857D01*
X112671428Y-90157142D02*
X112071428Y-90157142D01*
X112071428Y-89928571D01*
X112100000Y-89871428D01*
X112128571Y-89842857D01*
X112185714Y-89814285D01*
X112271428Y-89814285D01*
X112328571Y-89842857D01*
X112357142Y-89871428D01*
X112385714Y-89928571D01*
X112385714Y-90157142D01*
X112671428Y-89214285D02*
X112385714Y-89414285D01*
X112671428Y-89557142D02*
X112071428Y-89557142D01*
X112071428Y-89328571D01*
X112100000Y-89271428D01*
X112128571Y-89242857D01*
X112185714Y-89214285D01*
X112271428Y-89214285D01*
X112328571Y-89242857D01*
X112357142Y-89271428D01*
X112385714Y-89328571D01*
X112385714Y-89557142D01*
X112100000Y-88642857D02*
X112071428Y-88700000D01*
X112071428Y-88785714D01*
X112100000Y-88871428D01*
X112157142Y-88928571D01*
X112214285Y-88957142D01*
X112328571Y-88985714D01*
X112414285Y-88985714D01*
X112528571Y-88957142D01*
X112585714Y-88928571D01*
X112642857Y-88871428D01*
X112671428Y-88785714D01*
X112671428Y-88728571D01*
X112642857Y-88642857D01*
X112614285Y-88614285D01*
X112414285Y-88614285D01*
X112414285Y-88728571D01*
X110700000Y-80171428D02*
X110414285Y-80171428D01*
X110414285Y-79571428D01*
X111214285Y-80171428D02*
X110871428Y-80171428D01*
X111042857Y-80171428D02*
X111042857Y-79571428D01*
X110985714Y-79657142D01*
X110928571Y-79714285D01*
X110871428Y-79742857D01*
X123171428Y-97800000D02*
X122885714Y-98000000D01*
X123171428Y-98142857D02*
X122571428Y-98142857D01*
X122571428Y-97914285D01*
X122600000Y-97857142D01*
X122628571Y-97828571D01*
X122685714Y-97800000D01*
X122771428Y-97800000D01*
X122828571Y-97828571D01*
X122857142Y-97857142D01*
X122885714Y-97914285D01*
X122885714Y-98142857D01*
X123171428Y-97228571D02*
X123171428Y-97571428D01*
X123171428Y-97400000D02*
X122571428Y-97400000D01*
X122657142Y-97457142D01*
X122714285Y-97514285D01*
X122742857Y-97571428D01*
X123171428Y-96614285D02*
X123171428Y-96957142D01*
X123171428Y-96785714D02*
X122571428Y-96785714D01*
X122657142Y-96842857D01*
X122714285Y-96900000D01*
X122742857Y-96957142D01*
X122571428Y-96242857D02*
X122571428Y-96185714D01*
X122600000Y-96128571D01*
X122628571Y-96100000D01*
X122685714Y-96071428D01*
X122800000Y-96042857D01*
X122942857Y-96042857D01*
X123057142Y-96071428D01*
X123114285Y-96100000D01*
X123142857Y-96128571D01*
X123171428Y-96185714D01*
X123171428Y-96242857D01*
X123142857Y-96300000D01*
X123114285Y-96328571D01*
X123057142Y-96357142D01*
X122942857Y-96385714D01*
X122800000Y-96385714D01*
X122685714Y-96357142D01*
X122628571Y-96328571D01*
X122600000Y-96300000D01*
X122571428Y-96242857D01*
X123171428Y-95785714D02*
X122571428Y-95785714D01*
X123171428Y-95442857D02*
X122828571Y-95700000D01*
X122571428Y-95442857D02*
X122914285Y-95785714D01*
X135471428Y-80600000D02*
X135185714Y-80800000D01*
X135471428Y-80942857D02*
X134871428Y-80942857D01*
X134871428Y-80714285D01*
X134900000Y-80657142D01*
X134928571Y-80628571D01*
X134985714Y-80600000D01*
X135071428Y-80600000D01*
X135128571Y-80628571D01*
X135157142Y-80657142D01*
X135185714Y-80714285D01*
X135185714Y-80942857D01*
X134871428Y-80057142D02*
X134871428Y-80342857D01*
X135157142Y-80371428D01*
X135128571Y-80342857D01*
X135100000Y-80285714D01*
X135100000Y-80142857D01*
X135128571Y-80085714D01*
X135157142Y-80057142D01*
X135214285Y-80028571D01*
X135357142Y-80028571D01*
X135414285Y-80057142D01*
X135442857Y-80085714D01*
X135471428Y-80142857D01*
X135471428Y-80285714D01*
X135442857Y-80342857D01*
X135414285Y-80371428D01*
X135471428Y-78828571D02*
X135471428Y-79171428D01*
X135471428Y-79000000D02*
X134871428Y-79000000D01*
X134957142Y-79057142D01*
X135014285Y-79114285D01*
X135042857Y-79171428D01*
X135471428Y-78571428D02*
X134871428Y-78571428D01*
X135471428Y-78228571D02*
X135128571Y-78485714D01*
X134871428Y-78228571D02*
X135214285Y-78571428D01*
X115100000Y-87471428D02*
X114900000Y-87185714D01*
X114757142Y-87471428D02*
X114757142Y-86871428D01*
X114985714Y-86871428D01*
X115042857Y-86900000D01*
X115071428Y-86928571D01*
X115100000Y-86985714D01*
X115100000Y-87071428D01*
X115071428Y-87128571D01*
X115042857Y-87157142D01*
X114985714Y-87185714D01*
X114757142Y-87185714D01*
X115614285Y-86871428D02*
X115500000Y-86871428D01*
X115442857Y-86900000D01*
X115414285Y-86928571D01*
X115357142Y-87014285D01*
X115328571Y-87128571D01*
X115328571Y-87357142D01*
X115357142Y-87414285D01*
X115385714Y-87442857D01*
X115442857Y-87471428D01*
X115557142Y-87471428D01*
X115614285Y-87442857D01*
X115642857Y-87414285D01*
X115671428Y-87357142D01*
X115671428Y-87214285D01*
X115642857Y-87157142D01*
X115614285Y-87128571D01*
X115557142Y-87100000D01*
X115442857Y-87100000D01*
X115385714Y-87128571D01*
X115357142Y-87157142D01*
X115328571Y-87214285D01*
X114857142Y-87871428D02*
X114571428Y-87871428D01*
X114542857Y-88157142D01*
X114571428Y-88128571D01*
X114628571Y-88100000D01*
X114771428Y-88100000D01*
X114828571Y-88128571D01*
X114857142Y-88157142D01*
X114885714Y-88214285D01*
X114885714Y-88357142D01*
X114857142Y-88414285D01*
X114828571Y-88442857D01*
X114771428Y-88471428D01*
X114628571Y-88471428D01*
X114571428Y-88442857D01*
X114542857Y-88414285D01*
X115400000Y-87871428D02*
X115285714Y-87871428D01*
X115228571Y-87900000D01*
X115200000Y-87928571D01*
X115142857Y-88014285D01*
X115114285Y-88128571D01*
X115114285Y-88357142D01*
X115142857Y-88414285D01*
X115171428Y-88442857D01*
X115228571Y-88471428D01*
X115342857Y-88471428D01*
X115400000Y-88442857D01*
X115428571Y-88414285D01*
X115457142Y-88357142D01*
X115457142Y-88214285D01*
X115428571Y-88157142D01*
X115400000Y-88128571D01*
X115342857Y-88100000D01*
X115228571Y-88100000D01*
X115171428Y-88128571D01*
X115142857Y-88157142D01*
X115114285Y-88214285D01*
X115714285Y-88471428D02*
X115714285Y-87871428D01*
X116057142Y-88471428D02*
X115800000Y-88128571D01*
X116057142Y-87871428D02*
X115714285Y-88214285D01*
X138942857Y-96800000D02*
X138971428Y-96714285D01*
X138971428Y-96571428D01*
X138942857Y-96514285D01*
X138914285Y-96485714D01*
X138857142Y-96457142D01*
X138800000Y-96457142D01*
X138742857Y-96485714D01*
X138714285Y-96514285D01*
X138685714Y-96571428D01*
X138657142Y-96685714D01*
X138628571Y-96742857D01*
X138600000Y-96771428D01*
X138542857Y-96800000D01*
X138485714Y-96800000D01*
X138428571Y-96771428D01*
X138400000Y-96742857D01*
X138371428Y-96685714D01*
X138371428Y-96542857D01*
X138400000Y-96457142D01*
X138371428Y-96257142D02*
X138971428Y-96114285D01*
X138542857Y-96000000D01*
X138971428Y-95885714D01*
X138371428Y-95742857D01*
X138971428Y-95200000D02*
X138971428Y-95542857D01*
X138971428Y-95371428D02*
X138371428Y-95371428D01*
X138457142Y-95428571D01*
X138514285Y-95485714D01*
X138542857Y-95542857D01*
X139871428Y-96771428D02*
X139585714Y-96971428D01*
X139871428Y-97114285D02*
X139271428Y-97114285D01*
X139271428Y-96885714D01*
X139300000Y-96828571D01*
X139328571Y-96800000D01*
X139385714Y-96771428D01*
X139471428Y-96771428D01*
X139528571Y-96800000D01*
X139557142Y-96828571D01*
X139585714Y-96885714D01*
X139585714Y-97114285D01*
X139557142Y-96514285D02*
X139557142Y-96314285D01*
X139871428Y-96228571D02*
X139871428Y-96514285D01*
X139271428Y-96514285D01*
X139271428Y-96228571D01*
X139842857Y-96000000D02*
X139871428Y-95914285D01*
X139871428Y-95771428D01*
X139842857Y-95714285D01*
X139814285Y-95685714D01*
X139757142Y-95657142D01*
X139700000Y-95657142D01*
X139642857Y-95685714D01*
X139614285Y-95714285D01*
X139585714Y-95771428D01*
X139557142Y-95885714D01*
X139528571Y-95942857D01*
X139500000Y-95971428D01*
X139442857Y-96000000D01*
X139385714Y-96000000D01*
X139328571Y-95971428D01*
X139300000Y-95942857D01*
X139271428Y-95885714D01*
X139271428Y-95742857D01*
X139300000Y-95657142D01*
X139557142Y-95400000D02*
X139557142Y-95200000D01*
X139871428Y-95114285D02*
X139871428Y-95400000D01*
X139271428Y-95400000D01*
X139271428Y-95114285D01*
X139271428Y-94942857D02*
X139271428Y-94600000D01*
X139871428Y-94771428D02*
X139271428Y-94771428D01*
X125071428Y-89057142D02*
X125557142Y-89057142D01*
X125614285Y-89028571D01*
X125642857Y-89000000D01*
X125671428Y-88942857D01*
X125671428Y-88828571D01*
X125642857Y-88771428D01*
X125614285Y-88742857D01*
X125557142Y-88714285D01*
X125071428Y-88714285D01*
X125671428Y-88114285D02*
X125671428Y-88457142D01*
X125671428Y-88285714D02*
X125071428Y-88285714D01*
X125157142Y-88342857D01*
X125214285Y-88400000D01*
X125242857Y-88457142D01*
X126500000Y-90600000D02*
X126500000Y-90314285D01*
X126671428Y-90657142D02*
X126071428Y-90457142D01*
X126671428Y-90257142D01*
X126071428Y-90142857D02*
X126071428Y-89800000D01*
X126671428Y-89971428D02*
X126071428Y-89971428D01*
X126642857Y-89628571D02*
X126671428Y-89542857D01*
X126671428Y-89400000D01*
X126642857Y-89342857D01*
X126614285Y-89314285D01*
X126557142Y-89285714D01*
X126500000Y-89285714D01*
X126442857Y-89314285D01*
X126414285Y-89342857D01*
X126385714Y-89400000D01*
X126357142Y-89514285D01*
X126328571Y-89571428D01*
X126300000Y-89600000D01*
X126242857Y-89628571D01*
X126185714Y-89628571D01*
X126128571Y-89600000D01*
X126100000Y-89571428D01*
X126071428Y-89514285D01*
X126071428Y-89371428D01*
X126100000Y-89285714D01*
X126500000Y-89057142D02*
X126500000Y-88771428D01*
X126671428Y-89114285D02*
X126071428Y-88914285D01*
X126671428Y-88714285D01*
X126671428Y-88514285D02*
X126071428Y-88514285D01*
X126500000Y-88314285D01*
X126071428Y-88114285D01*
X126671428Y-88114285D01*
X126671428Y-87828571D02*
X126071428Y-87828571D01*
X126071428Y-87685714D01*
X126100000Y-87600000D01*
X126157142Y-87542857D01*
X126214285Y-87514285D01*
X126328571Y-87485714D01*
X126414285Y-87485714D01*
X126528571Y-87514285D01*
X126585714Y-87542857D01*
X126642857Y-87600000D01*
X126671428Y-87685714D01*
X126671428Y-87828571D01*
X126128571Y-87257142D02*
X126100000Y-87228571D01*
X126071428Y-87171428D01*
X126071428Y-87028571D01*
X126100000Y-86971428D01*
X126128571Y-86942857D01*
X126185714Y-86914285D01*
X126242857Y-86914285D01*
X126328571Y-86942857D01*
X126671428Y-87285714D01*
X126671428Y-86914285D01*
X126671428Y-86342857D02*
X126671428Y-86685714D01*
X126671428Y-86514285D02*
X126071428Y-86514285D01*
X126157142Y-86571428D01*
X126214285Y-86628571D01*
X126242857Y-86685714D01*
X126357142Y-86085714D02*
X126357142Y-85885714D01*
X126671428Y-85800000D02*
X126671428Y-86085714D01*
X126071428Y-86085714D01*
X126071428Y-85800000D01*
X141671428Y-80357142D02*
X142157142Y-80357142D01*
X142214285Y-80328571D01*
X142242857Y-80300000D01*
X142271428Y-80242857D01*
X142271428Y-80128571D01*
X142242857Y-80071428D01*
X142214285Y-80042857D01*
X142157142Y-80014285D01*
X141671428Y-80014285D01*
X141728571Y-79757142D02*
X141700000Y-79728571D01*
X141671428Y-79671428D01*
X141671428Y-79528571D01*
X141700000Y-79471428D01*
X141728571Y-79442857D01*
X141785714Y-79414285D01*
X141842857Y-79414285D01*
X141928571Y-79442857D01*
X142271428Y-79785714D01*
X142271428Y-79414285D01*
X143000000Y-82442857D02*
X143000000Y-82157142D01*
X143171428Y-82500000D02*
X142571428Y-82300000D01*
X143171428Y-82100000D01*
X142571428Y-81985714D02*
X142571428Y-81642857D01*
X143171428Y-81814285D02*
X142571428Y-81814285D01*
X143142857Y-81471428D02*
X143171428Y-81385714D01*
X143171428Y-81242857D01*
X143142857Y-81185714D01*
X143114285Y-81157142D01*
X143057142Y-81128571D01*
X143000000Y-81128571D01*
X142942857Y-81157142D01*
X142914285Y-81185714D01*
X142885714Y-81242857D01*
X142857142Y-81357142D01*
X142828571Y-81414285D01*
X142800000Y-81442857D01*
X142742857Y-81471428D01*
X142685714Y-81471428D01*
X142628571Y-81442857D01*
X142600000Y-81414285D01*
X142571428Y-81357142D01*
X142571428Y-81214285D01*
X142600000Y-81128571D01*
X143171428Y-80871428D02*
X142571428Y-80871428D01*
X142857142Y-80871428D02*
X142857142Y-80528571D01*
X143171428Y-80528571D02*
X142571428Y-80528571D01*
X143000000Y-80271428D02*
X143000000Y-79985714D01*
X143171428Y-80328571D02*
X142571428Y-80128571D01*
X143171428Y-79928571D01*
X142628571Y-79757142D02*
X142600000Y-79728571D01*
X142571428Y-79671428D01*
X142571428Y-79528571D01*
X142600000Y-79471428D01*
X142628571Y-79442857D01*
X142685714Y-79414285D01*
X142742857Y-79414285D01*
X142828571Y-79442857D01*
X143171428Y-79785714D01*
X143171428Y-79414285D01*
X142571428Y-79042857D02*
X142571428Y-78985714D01*
X142600000Y-78928571D01*
X142628571Y-78900000D01*
X142685714Y-78871428D01*
X142800000Y-78842857D01*
X142942857Y-78842857D01*
X143057142Y-78871428D01*
X143114285Y-78900000D01*
X143142857Y-78928571D01*
X143171428Y-78985714D01*
X143171428Y-79042857D01*
X143142857Y-79100000D01*
X143114285Y-79128571D01*
X143057142Y-79157142D01*
X142942857Y-79185714D01*
X142800000Y-79185714D01*
X142685714Y-79157142D01*
X142628571Y-79128571D01*
X142600000Y-79100000D01*
X142571428Y-79042857D01*
X142771428Y-78328571D02*
X143171428Y-78328571D01*
X142542857Y-78471428D02*
X142971428Y-78614285D01*
X142971428Y-78242857D01*
X143000000Y-78042857D02*
X143000000Y-77757142D01*
X143171428Y-78100000D02*
X142571428Y-77900000D01*
X143171428Y-77700000D01*
X109842857Y-77951428D02*
X109842857Y-78437142D01*
X109871428Y-78494285D01*
X109900000Y-78522857D01*
X109957142Y-78551428D01*
X110071428Y-78551428D01*
X110128571Y-78522857D01*
X110157142Y-78494285D01*
X110185714Y-78437142D01*
X110185714Y-77951428D01*
X110728571Y-78151428D02*
X110728571Y-78551428D01*
X110585714Y-77922857D02*
X110442857Y-78351428D01*
X110814285Y-78351428D01*
X112185714Y-78551428D02*
X112185714Y-77951428D01*
X112385714Y-78380000D01*
X112585714Y-77951428D01*
X112585714Y-78551428D01*
X113214285Y-78494285D02*
X113185714Y-78522857D01*
X113100000Y-78551428D01*
X113042857Y-78551428D01*
X112957142Y-78522857D01*
X112900000Y-78465714D01*
X112871428Y-78408571D01*
X112842857Y-78294285D01*
X112842857Y-78208571D01*
X112871428Y-78094285D01*
X112900000Y-78037142D01*
X112957142Y-77980000D01*
X113042857Y-77951428D01*
X113100000Y-77951428D01*
X113185714Y-77980000D01*
X113214285Y-78008571D01*
X113471428Y-78551428D02*
X113471428Y-77951428D01*
X113700000Y-77951428D01*
X113757142Y-77980000D01*
X113785714Y-78008571D01*
X113814285Y-78065714D01*
X113814285Y-78151428D01*
X113785714Y-78208571D01*
X113757142Y-78237142D01*
X113700000Y-78265714D01*
X113471428Y-78265714D01*
X114385714Y-78551428D02*
X114042857Y-78551428D01*
X114214285Y-78551428D02*
X114214285Y-77951428D01*
X114157142Y-78037142D01*
X114100000Y-78094285D01*
X114042857Y-78122857D01*
X114585714Y-77951428D02*
X114985714Y-77951428D01*
X114728571Y-78551428D01*
X115328571Y-77951428D02*
X115385714Y-77951428D01*
X115442857Y-77980000D01*
X115471428Y-78008571D01*
X115500000Y-78065714D01*
X115528571Y-78180000D01*
X115528571Y-78322857D01*
X115500000Y-78437142D01*
X115471428Y-78494285D01*
X115442857Y-78522857D01*
X115385714Y-78551428D01*
X115328571Y-78551428D01*
X115271428Y-78522857D01*
X115242857Y-78494285D01*
X115214285Y-78437142D01*
X115185714Y-78322857D01*
X115185714Y-78180000D01*
X115214285Y-78065714D01*
X115242857Y-78008571D01*
X115271428Y-77980000D01*
X115328571Y-77951428D01*
X115728571Y-77951428D02*
X116100000Y-77951428D01*
X115900000Y-78180000D01*
X115985714Y-78180000D01*
X116042857Y-78208571D01*
X116071428Y-78237142D01*
X116100000Y-78294285D01*
X116100000Y-78437142D01*
X116071428Y-78494285D01*
X116042857Y-78522857D01*
X115985714Y-78551428D01*
X115814285Y-78551428D01*
X115757142Y-78522857D01*
X115728571Y-78494285D01*
X116328571Y-78380000D02*
X116614285Y-78380000D01*
X116271428Y-78551428D02*
X116471428Y-77951428D01*
X116671428Y-78551428D01*
X116871428Y-78322857D02*
X117328571Y-78322857D01*
X117557142Y-77951428D02*
X117928571Y-77951428D01*
X117728571Y-78180000D01*
X117814285Y-78180000D01*
X117871428Y-78208571D01*
X117900000Y-78237142D01*
X117928571Y-78294285D01*
X117928571Y-78437142D01*
X117900000Y-78494285D01*
X117871428Y-78522857D01*
X117814285Y-78551428D01*
X117642857Y-78551428D01*
X117585714Y-78522857D01*
X117557142Y-78494285D01*
X118128571Y-77951428D02*
X118500000Y-77951428D01*
X118300000Y-78180000D01*
X118385714Y-78180000D01*
X118442857Y-78208571D01*
X118471428Y-78237142D01*
X118500000Y-78294285D01*
X118500000Y-78437142D01*
X118471428Y-78494285D01*
X118442857Y-78522857D01*
X118385714Y-78551428D01*
X118214285Y-78551428D01*
X118157142Y-78522857D01*
X118128571Y-78494285D01*
X118871428Y-77951428D02*
X118928571Y-77951428D01*
X118985714Y-77980000D01*
X119014285Y-78008571D01*
X119042857Y-78065714D01*
X119071428Y-78180000D01*
X119071428Y-78322857D01*
X119042857Y-78437142D01*
X119014285Y-78494285D01*
X118985714Y-78522857D01*
X118928571Y-78551428D01*
X118871428Y-78551428D01*
X118814285Y-78522857D01*
X118785714Y-78494285D01*
X118757142Y-78437142D01*
X118728571Y-78322857D01*
X118728571Y-78180000D01*
X118757142Y-78065714D01*
X118785714Y-78008571D01*
X118814285Y-77980000D01*
X118871428Y-77951428D01*
X119300000Y-78008571D02*
X119328571Y-77980000D01*
X119385714Y-77951428D01*
X119528571Y-77951428D01*
X119585714Y-77980000D01*
X119614285Y-78008571D01*
X119642857Y-78065714D01*
X119642857Y-78122857D01*
X119614285Y-78208571D01*
X119271428Y-78551428D01*
X119642857Y-78551428D01*
X122814285Y-78085714D02*
X122814285Y-78371428D01*
X122614285Y-77771428D02*
X122814285Y-78085714D01*
X123014285Y-77771428D01*
X123528571Y-78371428D02*
X123185714Y-78371428D01*
X123357142Y-78371428D02*
X123357142Y-77771428D01*
X123300000Y-77857142D01*
X123242857Y-77914285D01*
X123185714Y-77942857D01*
X125185714Y-78371428D02*
X124842857Y-78371428D01*
X125014285Y-78371428D02*
X125014285Y-77771428D01*
X124957142Y-77857142D01*
X124900000Y-77914285D01*
X124842857Y-77942857D01*
X125700000Y-77771428D02*
X125585714Y-77771428D01*
X125528571Y-77800000D01*
X125500000Y-77828571D01*
X125442857Y-77914285D01*
X125414285Y-78028571D01*
X125414285Y-78257142D01*
X125442857Y-78314285D01*
X125471428Y-78342857D01*
X125528571Y-78371428D01*
X125642857Y-78371428D01*
X125700000Y-78342857D01*
X125728571Y-78314285D01*
X125757142Y-78257142D01*
X125757142Y-78114285D01*
X125728571Y-78057142D01*
X125700000Y-78028571D01*
X125642857Y-78000000D01*
X125528571Y-78000000D01*
X125471428Y-78028571D01*
X125442857Y-78057142D01*
X125414285Y-78114285D01*
X126014285Y-78371428D02*
X126014285Y-77771428D01*
X126214285Y-78200000D01*
X126414285Y-77771428D01*
X126414285Y-78371428D01*
X126700000Y-78371428D02*
X126700000Y-77771428D01*
X126700000Y-78057142D02*
X127042857Y-78057142D01*
X127042857Y-78371428D02*
X127042857Y-77771428D01*
X127271428Y-77971428D02*
X127585714Y-77971428D01*
X127271428Y-78371428D01*
X127585714Y-78371428D01*
%LPC*%
D13*
X109802120Y-91712860D03*
X109802120Y-89172860D03*
X109802120Y-87140860D03*
X109802120Y-84600860D03*
D14*
X107135120Y-94760860D03*
X107135120Y-81044860D03*
D15*
X118850000Y-90200000D03*
X117950000Y-90200000D03*
X115050000Y-89400000D03*
X115950000Y-89400000D03*
X142150000Y-86100000D03*
X141250000Y-86100000D03*
X142300000Y-95300000D03*
X141400000Y-95300000D03*
X142300000Y-90800000D03*
X141400000Y-90800000D03*
D16*
X142400000Y-88600000D03*
X141300000Y-88600000D03*
X142400000Y-93000000D03*
X141300000Y-93000000D03*
X142400000Y-97500000D03*
X141300000Y-97500000D03*
D17*
X138600000Y-91850000D03*
X138600000Y-86350000D03*
X135400000Y-86350000D03*
X135400000Y-91850000D03*
D18*
X120700000Y-97300000D03*
D19*
X132600000Y-87550000D03*
X132600000Y-85650000D03*
D20*
X132600000Y-90400000D03*
X132600000Y-89300000D03*
X119900000Y-80400000D03*
X119900000Y-81500000D03*
D21*
X138800000Y-82500000D03*
X140700000Y-82500000D03*
D19*
X132000000Y-81750000D03*
X132000000Y-83650000D03*
X128640000Y-95010000D03*
X128640000Y-96910000D03*
X126830000Y-94990000D03*
X126830000Y-96890000D03*
D22*
X131000000Y-79300000D03*
X132100000Y-79300000D03*
D20*
X132600000Y-91700000D03*
X132600000Y-92800000D03*
D21*
X114650000Y-86000000D03*
X112750000Y-86000000D03*
X119200000Y-85900000D03*
X117300000Y-85900000D03*
D23*
X116860000Y-96800000D03*
X116860000Y-94300000D03*
X116860000Y-91760000D03*
X112860000Y-91760000D03*
X112860000Y-94300000D03*
X112860000Y-96840000D03*
D24*
X112200000Y-80500000D03*
X112200000Y-82700000D03*
X124100000Y-97300000D03*
X124100000Y-95100000D03*
X136500000Y-78600000D03*
X136500000Y-80800000D03*
D25*
X119300000Y-87700000D03*
X117100000Y-87700000D03*
D26*
X131600000Y-96000000D03*
X137000000Y-96000000D03*
D27*
X128950000Y-92550000D03*
X128150000Y-92550000D03*
X127350000Y-92550000D03*
X126550000Y-92550000D03*
X125750000Y-92550000D03*
X124950000Y-92550000D03*
X124150000Y-92550000D03*
X123350000Y-92550000D03*
D28*
X121900000Y-91100000D03*
X121900000Y-90300000D03*
X121900000Y-89500000D03*
X121900000Y-88700000D03*
X121900000Y-87900000D03*
X121900000Y-87100000D03*
X121900000Y-86300000D03*
X121900000Y-85500000D03*
D27*
X123350000Y-84050000D03*
X124150000Y-84050000D03*
X124950000Y-84050000D03*
X125750000Y-84050000D03*
X126550000Y-84050000D03*
X127350000Y-84050000D03*
X128150000Y-84050000D03*
X128950000Y-84050000D03*
D28*
X130400000Y-85500000D03*
X130400000Y-86300000D03*
X130400000Y-87100000D03*
X130400000Y-87900000D03*
X130400000Y-88700000D03*
X130400000Y-89500000D03*
X130400000Y-90300000D03*
X130400000Y-91100000D03*
D29*
X140750000Y-79550000D03*
X138750000Y-80500000D03*
X138750000Y-78600000D03*
D30*
X116000000Y-82350000D03*
D31*
G36*
X117373703Y-81775000D02*
G01*
X116607037Y-82925000D01*
X115392963Y-82925000D01*
X114626297Y-81775000D01*
X117373703Y-81775000D01*
X117373703Y-81775000D01*
G37*
D32*
X116000000Y-80500000D03*
D33*
X117500000Y-83460000D03*
X116000000Y-83460000D03*
X114500000Y-83460000D03*
D34*
X128000000Y-80600000D03*
X122800000Y-80600000D03*
M02*
