M48
;DRILL file {KiCad (2017-03-08 revision a73abbfc3)-makepkg} date 03/09/17 22:48:30
;FORMAT={-:-/ absolute / metric / decimal}
FMAT,2
METRIC,TZ
T1C0.400
T2C0.650
T3C1.001
T4C2.301
%
G90
G05
M71
T1
X105.8Y-83.9
X105.8Y-85.9
X105.8Y-87.9
X105.8Y-89.9
X105.8Y-91.9
X107.8Y-83.9
X107.8Y-85.9
X107.8Y-87.9
X107.8Y-89.9
X107.8Y-91.9
X110.3Y-96.8
X111.8Y-84.4
X112.9Y-88.3
X119.9Y-82.9
X120.7Y-93.6
X121.684Y-94.386
X122.8Y-95.
X124.099Y-88.65
X124.1Y-86.3
X124.107Y-87.55
X125.2Y-86.9
X125.405Y-94.65
X126.105Y-85.545
X126.6Y-91.05
X127.277Y-87.125
X127.291Y-90.194
X128.333Y-87.433
X128.399Y-88.592
X128.428Y-89.692
X128.977Y-86.367
X129.8Y-95.3
X129.9Y-94.2
X132.715Y-97.49
X133.4Y-84.3
X133.6Y-89.408
X133.626Y-94.214
X134.1Y-78.6
X141.3Y-81.2
T2
X120.7Y-97.3
T3
X109.802Y-84.601
X109.802Y-87.141
X109.802Y-89.173
X109.802Y-91.713
T4
X107.135Y-81.045
X107.135Y-94.761
T0
M30
