G04 #@! TF.GenerationSoftware,KiCad,Pcbnew,no-vcs-found-f7632d5~58~ubuntu16.04.1*
G04 #@! TF.CreationDate,2017-03-20T19:01:25+02:00*
G04 #@! TF.ProjectId,serial_gw_ATSAMD21E,73657269616C5F67775F415453414D44,rev?*
G04 #@! TF.FileFunction,Copper,L2,Bot,Signal*
G04 #@! TF.FilePolarity,Positive*
%FSLAX46Y46*%
G04 Gerber Fmt 4.6, Leading zero omitted, Abs format (unit mm)*
G04 Created by KiCad (PCBNEW no-vcs-found-f7632d5~58~ubuntu16.04.1) date Mon Mar 20 19:01:25 2017*
%MOMM*%
%LPD*%
G01*
G04 APERTURE LIST*
%ADD10C,0.100000*%
%ADD11C,0.800000*%
%ADD12R,1.000000X1.000000*%
%ADD13C,2.999740*%
%ADD14C,1.501140*%
%ADD15R,1.200000X0.750000*%
%ADD16R,3.000000X1.200000*%
%ADD17R,0.600000X1.550000*%
%ADD18C,0.300000*%
%ADD19C,0.400000*%
%ADD20C,0.500000*%
%ADD21C,0.254000*%
G04 APERTURE END LIST*
D10*
D11*
X107800000Y-91900000D03*
X105800000Y-91900000D03*
X107800000Y-89900000D03*
X105800000Y-89900000D03*
X107800000Y-87900000D03*
X105800000Y-87900000D03*
X107800000Y-85900000D03*
X105800000Y-85900000D03*
X107800000Y-83900000D03*
X105800000Y-83900000D03*
D12*
X120700000Y-97300000D03*
D13*
X107135120Y-81044860D03*
X107135120Y-94760860D03*
D14*
X109802120Y-84600860D03*
X109802120Y-87140860D03*
X109802120Y-89172860D03*
X109802120Y-91712860D03*
D15*
X134300000Y-97400000D03*
X136200000Y-97400000D03*
D16*
X116100000Y-81200000D03*
X116100000Y-83200000D03*
X116100000Y-85200000D03*
X116100000Y-87200000D03*
X116100000Y-89200000D03*
X116100000Y-91200000D03*
X116100000Y-93200000D03*
X116100000Y-95200000D03*
X135800000Y-95200000D03*
X135800000Y-93200000D03*
X135800000Y-91200000D03*
X135800000Y-89200000D03*
X135800000Y-87200000D03*
X135800000Y-85200000D03*
X135800000Y-83200000D03*
X135800000Y-81200000D03*
D15*
X140550000Y-82700000D03*
X142450000Y-82700000D03*
D17*
X142505000Y-84700000D03*
X141235000Y-84700000D03*
X139965000Y-84700000D03*
X138695000Y-84700000D03*
X138695000Y-90100000D03*
X139965000Y-90100000D03*
X141235000Y-90100000D03*
X142505000Y-90100000D03*
D15*
X113050000Y-82400000D03*
X111150000Y-82400000D03*
X113050000Y-80600000D03*
X111150000Y-80600000D03*
D11*
X111800000Y-84349990D03*
X141900000Y-78400000D03*
X120200000Y-82600000D03*
X126105237Y-85545388D03*
X125404656Y-94650011D03*
X132715079Y-97490477D03*
X141400010Y-81200000D03*
X110300000Y-96800000D03*
X112900000Y-88300000D03*
X129800000Y-95300000D03*
X121683953Y-94386049D03*
X126600010Y-91049988D03*
X122800000Y-95000000D03*
X129900000Y-94200000D03*
X120700000Y-93600000D03*
X127290580Y-90193752D03*
X128427722Y-89692081D03*
X133626454Y-94214355D03*
X133599972Y-89408000D03*
X128399392Y-88592434D03*
X128976655Y-86367281D03*
X133400000Y-84300000D03*
X134600010Y-79899988D03*
X127276644Y-87125452D03*
X125140569Y-86857452D03*
X124099306Y-88649990D03*
X124107306Y-87550007D03*
X124100000Y-86300000D03*
X128332921Y-87432544D03*
X111500000Y-78600000D03*
X120498326Y-84450010D03*
X121800000Y-83600000D03*
D18*
X111150000Y-82400000D02*
X108490260Y-82400000D01*
X108490260Y-82400000D02*
X107135120Y-81044860D01*
X111800000Y-84349990D02*
X111150000Y-83699990D01*
X111150000Y-83699990D02*
X111150000Y-82400000D01*
X123290477Y-97490477D02*
X117000000Y-91200000D01*
X140550000Y-82700000D02*
X140550000Y-79750000D01*
X140550000Y-79750000D02*
X141900000Y-78400000D01*
X141235000Y-84700000D02*
X141235000Y-87700000D01*
X141235000Y-87700000D02*
X141235000Y-90100000D01*
X138695000Y-90100000D02*
X138695000Y-89025000D01*
X138695000Y-89025000D02*
X140020000Y-87700000D01*
X140020000Y-87700000D02*
X141235000Y-87700000D01*
X141235000Y-84700000D02*
X141235000Y-83385000D01*
X141235000Y-83385000D02*
X140550000Y-82700000D01*
X117000000Y-91200000D02*
X116100000Y-91200000D01*
X123159849Y-82600000D02*
X120200000Y-82600000D01*
X126105237Y-85545388D02*
X123159849Y-82600000D01*
X138695000Y-90100000D02*
X138695000Y-89625000D01*
X125404656Y-97385821D02*
X125404656Y-94650011D01*
X123290477Y-97490477D02*
X125300000Y-97490477D01*
X125300000Y-97490477D02*
X125404656Y-97385821D01*
X125300000Y-97490477D02*
X132715079Y-97490477D01*
X132715079Y-97490477D02*
X134209523Y-97490477D01*
X134209523Y-97490477D02*
X134300000Y-97400000D01*
D19*
X142450000Y-82700000D02*
X142450000Y-82249990D01*
X142450000Y-82249990D02*
X141400010Y-81200000D01*
X142505000Y-84700000D02*
X142505000Y-82755000D01*
X142505000Y-82755000D02*
X142450000Y-82700000D01*
X139965000Y-93035000D02*
X139965000Y-91300000D01*
X135800000Y-95200000D02*
X137800000Y-95200000D01*
X137800000Y-95200000D02*
X139965000Y-93035000D01*
X139965000Y-91300000D02*
X139965000Y-90100000D01*
X142505000Y-90100000D02*
X142505000Y-91175000D01*
X142505000Y-91175000D02*
X142354999Y-91325001D01*
X142354999Y-91325001D02*
X139990001Y-91325001D01*
X139990001Y-91325001D02*
X139965000Y-91300000D01*
X139965000Y-90575000D02*
X139965000Y-90100000D01*
X142505000Y-90100000D02*
X142505000Y-84700000D01*
X112900000Y-94200000D02*
X110300000Y-96800000D01*
X112900000Y-88300000D02*
X112900000Y-94200000D01*
X135800000Y-95200000D02*
X129900000Y-95200000D01*
X129900000Y-95200000D02*
X129800000Y-95300000D01*
X136200000Y-97400000D02*
X136200000Y-95600000D01*
X136200000Y-95600000D02*
X135800000Y-95200000D01*
D18*
X126199953Y-91450045D02*
X124619957Y-91450045D01*
X124619957Y-91450045D02*
X121683953Y-94386049D01*
X126600010Y-91049988D02*
X126199953Y-91450045D01*
X123299999Y-93800001D02*
X122800000Y-94300000D01*
X122800000Y-94300000D02*
X122800000Y-95000000D01*
X129500001Y-93800001D02*
X123299999Y-93800001D01*
X129900000Y-94200000D02*
X129500001Y-93800001D01*
X123449966Y-90850034D02*
X120700000Y-93600000D01*
X125761338Y-90193752D02*
X125105056Y-90850034D01*
X127290580Y-90193752D02*
X125761338Y-90193752D01*
X125105056Y-90850034D02*
X123449966Y-90850034D01*
D19*
X116100000Y-93200000D02*
X117800000Y-93200000D01*
X117800000Y-93200000D02*
X120700000Y-96100000D01*
X120700000Y-96100000D02*
X120700000Y-97300000D01*
D18*
X132949996Y-94214355D02*
X128427722Y-89692081D01*
X133626454Y-94214355D02*
X132949996Y-94214355D01*
X132784406Y-88592434D02*
X133599972Y-89408000D01*
X128399392Y-88592434D02*
X132784406Y-88592434D01*
X131043936Y-84300000D02*
X128976655Y-86367281D01*
X133400000Y-84300000D02*
X131043936Y-84300000D01*
X133184348Y-79899988D02*
X134600010Y-79899988D01*
X127276644Y-87125452D02*
X127276644Y-85807692D01*
X127276644Y-85807692D02*
X133184348Y-79899988D01*
X116100000Y-83200000D02*
X117000000Y-83200000D01*
X117000000Y-83200000D02*
X117900000Y-84100000D01*
X124565710Y-85300012D02*
X125140569Y-85874871D01*
X117900000Y-84100000D02*
X118744912Y-84100000D01*
X125140569Y-85874871D02*
X125140569Y-86857452D01*
X118744912Y-84100000D02*
X119944924Y-85300012D01*
X119944924Y-85300012D02*
X124565710Y-85300012D01*
X123949990Y-88649990D02*
X124099306Y-88649990D01*
X116100000Y-87200000D02*
X122500000Y-87200000D01*
X122500000Y-87200000D02*
X123949990Y-88649990D01*
X117000000Y-89200000D02*
X117900000Y-90100000D01*
X125050001Y-88008003D02*
X124592005Y-87550007D01*
X116100000Y-89200000D02*
X117000000Y-89200000D01*
X125050001Y-89108001D02*
X125050001Y-88008003D01*
X124058002Y-90100000D02*
X125050001Y-89108001D01*
X124592005Y-87550007D02*
X124107306Y-87550007D01*
X117900000Y-90100000D02*
X124058002Y-90100000D01*
X120096369Y-86300000D02*
X124100000Y-86300000D01*
X116100000Y-85200000D02*
X118996369Y-85200000D01*
X118996369Y-85200000D02*
X120096369Y-86300000D01*
X135800000Y-83200000D02*
X130741998Y-83200000D01*
X128126645Y-87226268D02*
X128332921Y-87432544D01*
X130741998Y-83200000D02*
X128126645Y-85815353D01*
X128126645Y-85815353D02*
X128126645Y-87226268D01*
D20*
X113050000Y-80150000D02*
X111500000Y-78600000D01*
X113050000Y-80600000D02*
X113050000Y-80150000D01*
D18*
X139365000Y-83625000D02*
X139365000Y-81006455D01*
X139965000Y-84700000D02*
X139965000Y-84225000D01*
X118649987Y-79950012D02*
X118649987Y-83156534D01*
X119943463Y-84450010D02*
X120498326Y-84450010D01*
X120199999Y-78400000D02*
X118649987Y-79950012D01*
X139365000Y-81006455D02*
X136758545Y-78400000D01*
X139965000Y-84225000D02*
X139365000Y-83625000D01*
X136758545Y-78400000D02*
X120199999Y-78400000D01*
X118649987Y-83156534D02*
X119943463Y-84450010D01*
X138695000Y-81184998D02*
X138695000Y-84700000D01*
X119941996Y-83600000D02*
X119249998Y-82908002D01*
X121800000Y-83600000D02*
X119941996Y-83600000D01*
X119249998Y-82908002D02*
X119249998Y-80198544D01*
X119249998Y-80198544D02*
X120448531Y-79000011D01*
X120448531Y-79000011D02*
X136510013Y-79000011D01*
X136510013Y-79000011D02*
X138695000Y-81184998D01*
X109802120Y-84600860D02*
X110401260Y-85200000D01*
X110401260Y-85200000D02*
X112700000Y-85200000D01*
X112700000Y-85200000D02*
X113050000Y-84850000D01*
X113050000Y-84850000D02*
X113050000Y-82400000D01*
D21*
G36*
X129071522Y-94625780D02*
X129107114Y-94681008D01*
X129086441Y-94701253D01*
X128983733Y-94851254D01*
X128912117Y-95018347D01*
X128874320Y-95196168D01*
X128871782Y-95377945D01*
X128904599Y-95556752D01*
X128971522Y-95725780D01*
X129070001Y-95878590D01*
X129196286Y-96009362D01*
X129345566Y-96113114D01*
X129512155Y-96185895D01*
X129689708Y-96224932D01*
X129871463Y-96228740D01*
X130050495Y-96197171D01*
X130219986Y-96131430D01*
X130373479Y-96034020D01*
X130485862Y-95927000D01*
X133787812Y-95927000D01*
X133810761Y-96002650D01*
X133859696Y-96094202D01*
X133925552Y-96174448D01*
X134005798Y-96240304D01*
X134097350Y-96289239D01*
X134196690Y-96319374D01*
X134300000Y-96329549D01*
X135473000Y-96329549D01*
X135473000Y-96512812D01*
X135397350Y-96535761D01*
X135305798Y-96584696D01*
X135250428Y-96630137D01*
X135235943Y-96615652D01*
X135149628Y-96557979D01*
X135053720Y-96518252D01*
X134951905Y-96498000D01*
X134504750Y-96498000D01*
X134373000Y-96629750D01*
X134373000Y-97327000D01*
X134393000Y-97327000D01*
X134393000Y-97473000D01*
X134373000Y-97473000D01*
X134373000Y-97493000D01*
X134227000Y-97493000D01*
X134227000Y-97473000D01*
X133304750Y-97473000D01*
X133173000Y-97604750D01*
X133173000Y-97826905D01*
X133193252Y-97928720D01*
X133221949Y-97998000D01*
X122427000Y-97998000D01*
X122427000Y-96973095D01*
X133173000Y-96973095D01*
X133173000Y-97195250D01*
X133304750Y-97327000D01*
X134227000Y-97327000D01*
X134227000Y-96629750D01*
X134095250Y-96498000D01*
X133648095Y-96498000D01*
X133546280Y-96518252D01*
X133450372Y-96557979D01*
X133364057Y-96615652D01*
X133290652Y-96689057D01*
X133232979Y-96775372D01*
X133193252Y-96871280D01*
X133173000Y-96973095D01*
X122427000Y-96973095D01*
X122427000Y-95848692D01*
X122512155Y-95885895D01*
X122689708Y-95924932D01*
X122871463Y-95928740D01*
X123050495Y-95897171D01*
X123219986Y-95831430D01*
X123373479Y-95734020D01*
X123505130Y-95608651D01*
X123609921Y-95460099D01*
X123683864Y-95294022D01*
X123724140Y-95116746D01*
X123727039Y-94909103D01*
X123691729Y-94730771D01*
X123622452Y-94562694D01*
X123571467Y-94485955D01*
X123580422Y-94477001D01*
X129012616Y-94477001D01*
X129071522Y-94625780D01*
X129071522Y-94625780D01*
G37*
X129071522Y-94625780D02*
X129107114Y-94681008D01*
X129086441Y-94701253D01*
X128983733Y-94851254D01*
X128912117Y-95018347D01*
X128874320Y-95196168D01*
X128871782Y-95377945D01*
X128904599Y-95556752D01*
X128971522Y-95725780D01*
X129070001Y-95878590D01*
X129196286Y-96009362D01*
X129345566Y-96113114D01*
X129512155Y-96185895D01*
X129689708Y-96224932D01*
X129871463Y-96228740D01*
X130050495Y-96197171D01*
X130219986Y-96131430D01*
X130373479Y-96034020D01*
X130485862Y-95927000D01*
X133787812Y-95927000D01*
X133810761Y-96002650D01*
X133859696Y-96094202D01*
X133925552Y-96174448D01*
X134005798Y-96240304D01*
X134097350Y-96289239D01*
X134196690Y-96319374D01*
X134300000Y-96329549D01*
X135473000Y-96329549D01*
X135473000Y-96512812D01*
X135397350Y-96535761D01*
X135305798Y-96584696D01*
X135250428Y-96630137D01*
X135235943Y-96615652D01*
X135149628Y-96557979D01*
X135053720Y-96518252D01*
X134951905Y-96498000D01*
X134504750Y-96498000D01*
X134373000Y-96629750D01*
X134373000Y-97327000D01*
X134393000Y-97327000D01*
X134393000Y-97473000D01*
X134373000Y-97473000D01*
X134373000Y-97493000D01*
X134227000Y-97493000D01*
X134227000Y-97473000D01*
X133304750Y-97473000D01*
X133173000Y-97604750D01*
X133173000Y-97826905D01*
X133193252Y-97928720D01*
X133221949Y-97998000D01*
X122427000Y-97998000D01*
X122427000Y-96973095D01*
X133173000Y-96973095D01*
X133173000Y-97195250D01*
X133304750Y-97327000D01*
X134227000Y-97327000D01*
X134227000Y-96629750D01*
X134095250Y-96498000D01*
X133648095Y-96498000D01*
X133546280Y-96518252D01*
X133450372Y-96557979D01*
X133364057Y-96615652D01*
X133290652Y-96689057D01*
X133232979Y-96775372D01*
X133193252Y-96871280D01*
X133173000Y-96973095D01*
X122427000Y-96973095D01*
X122427000Y-95848692D01*
X122512155Y-95885895D01*
X122689708Y-95924932D01*
X122871463Y-95928740D01*
X123050495Y-95897171D01*
X123219986Y-95831430D01*
X123373479Y-95734020D01*
X123505130Y-95608651D01*
X123609921Y-95460099D01*
X123683864Y-95294022D01*
X123724140Y-95116746D01*
X123727039Y-94909103D01*
X123691729Y-94730771D01*
X123622452Y-94562694D01*
X123571467Y-94485955D01*
X123580422Y-94477001D01*
X129012616Y-94477001D01*
X129071522Y-94625780D01*
G36*
X110683733Y-78151254D02*
X110612117Y-78318347D01*
X110574320Y-78496168D01*
X110571782Y-78677945D01*
X110604599Y-78856752D01*
X110671522Y-79025780D01*
X110770001Y-79178590D01*
X110896286Y-79309362D01*
X111045566Y-79413114D01*
X111212155Y-79485895D01*
X111308158Y-79507002D01*
X111499156Y-79698000D01*
X111354750Y-79698000D01*
X111223000Y-79829750D01*
X111223000Y-80527000D01*
X111243000Y-80527000D01*
X111243000Y-80673000D01*
X111223000Y-80673000D01*
X111223000Y-81370250D01*
X111352750Y-81500000D01*
X111223000Y-81629750D01*
X111223000Y-82327000D01*
X111243000Y-82327000D01*
X111243000Y-82473000D01*
X111223000Y-82473000D01*
X111223000Y-83170250D01*
X111354750Y-83302000D01*
X111801905Y-83302000D01*
X111903720Y-83281748D01*
X111999628Y-83242021D01*
X112085943Y-83184348D01*
X112100428Y-83169863D01*
X112155798Y-83215304D01*
X112247350Y-83264239D01*
X112346690Y-83294374D01*
X112373000Y-83296965D01*
X112373000Y-84523000D01*
X111079083Y-84523000D01*
X111079745Y-84475588D01*
X111031081Y-84229815D01*
X110935606Y-83998175D01*
X110796957Y-83789491D01*
X110620414Y-83611712D01*
X110412704Y-83471609D01*
X110181736Y-83374519D01*
X109936309Y-83324141D01*
X109685770Y-83322391D01*
X109439664Y-83369339D01*
X109207363Y-83463194D01*
X108997716Y-83600383D01*
X108818709Y-83775680D01*
X108677160Y-83982408D01*
X108578460Y-84212692D01*
X108526368Y-84457762D01*
X108522870Y-84708282D01*
X108568098Y-84954710D01*
X108660330Y-85187660D01*
X108796052Y-85398260D01*
X108970095Y-85578486D01*
X109175829Y-85721475D01*
X109405419Y-85821781D01*
X109634560Y-85872160D01*
X109439664Y-85909339D01*
X109207363Y-86003194D01*
X108997716Y-86140383D01*
X108818709Y-86315680D01*
X108677160Y-86522408D01*
X108578460Y-86752692D01*
X108526368Y-86997762D01*
X108522870Y-87248282D01*
X108568098Y-87494710D01*
X108660330Y-87727660D01*
X108796052Y-87938260D01*
X108970095Y-88118486D01*
X109023431Y-88155556D01*
X108997716Y-88172383D01*
X108818709Y-88347680D01*
X108677160Y-88554408D01*
X108578460Y-88784692D01*
X108526368Y-89029762D01*
X108522870Y-89280282D01*
X108568098Y-89526710D01*
X108660330Y-89759660D01*
X108796052Y-89970260D01*
X108970095Y-90150486D01*
X109175829Y-90293475D01*
X109405419Y-90393781D01*
X109640529Y-90445472D01*
X109529520Y-90458385D01*
X109290023Y-90535671D01*
X109107828Y-90633055D01*
X109040787Y-90848290D01*
X109802120Y-91609622D01*
X110563453Y-90848290D01*
X110496412Y-90633055D01*
X110272412Y-90518354D01*
X110030338Y-90449556D01*
X109954076Y-90443400D01*
X110147346Y-90409322D01*
X110380935Y-90318719D01*
X110592477Y-90184470D01*
X110773914Y-90011690D01*
X110918336Y-89806959D01*
X111020241Y-89578075D01*
X111075749Y-89333757D01*
X111079745Y-89047588D01*
X111031081Y-88801815D01*
X110935606Y-88570175D01*
X110796957Y-88361491D01*
X110620414Y-88183712D01*
X110583007Y-88158480D01*
X110592477Y-88152470D01*
X110773914Y-87979690D01*
X110918336Y-87774959D01*
X111020241Y-87546075D01*
X111075749Y-87301757D01*
X111079745Y-87015588D01*
X111031081Y-86769815D01*
X110935606Y-86538175D01*
X110796957Y-86329491D01*
X110620414Y-86151712D01*
X110412704Y-86011609D01*
X110181736Y-85914519D01*
X109963542Y-85869731D01*
X110147346Y-85837322D01*
X110162334Y-85831508D01*
X110200924Y-85843306D01*
X110260504Y-85862206D01*
X110264040Y-85862603D01*
X110267446Y-85863644D01*
X110329643Y-85869961D01*
X110391808Y-85876934D01*
X110398775Y-85876983D01*
X110398897Y-85876995D01*
X110399010Y-85876984D01*
X110401260Y-85877000D01*
X112700000Y-85877000D01*
X112762210Y-85870900D01*
X112824535Y-85865448D01*
X112827955Y-85864454D01*
X112831497Y-85864107D01*
X112891368Y-85846031D01*
X112951416Y-85828585D01*
X112954575Y-85826948D01*
X112957985Y-85825918D01*
X113013219Y-85796549D01*
X113068721Y-85767780D01*
X113071503Y-85765559D01*
X113074646Y-85763888D01*
X113123097Y-85724372D01*
X113171981Y-85685348D01*
X113176937Y-85680461D01*
X113177037Y-85680379D01*
X113177114Y-85680286D01*
X113178711Y-85678711D01*
X113528711Y-85328711D01*
X113568391Y-85280404D01*
X113608602Y-85232483D01*
X113610317Y-85229363D01*
X113612577Y-85226612D01*
X113642133Y-85171491D01*
X113672255Y-85116699D01*
X113673331Y-85113306D01*
X113675014Y-85110168D01*
X113693306Y-85050336D01*
X113712206Y-84990756D01*
X113712603Y-84987220D01*
X113713644Y-84983814D01*
X113719966Y-84921573D01*
X113726934Y-84859452D01*
X113726983Y-84852495D01*
X113726996Y-84852363D01*
X113726984Y-84852240D01*
X113727000Y-84850000D01*
X113727000Y-83296965D01*
X113753310Y-83294374D01*
X113852650Y-83264239D01*
X113944202Y-83215304D01*
X114024448Y-83149448D01*
X114070451Y-83093393D01*
X114070451Y-83800000D01*
X114080626Y-83903310D01*
X114110761Y-84002650D01*
X114159696Y-84094202D01*
X114225552Y-84174448D01*
X114256687Y-84200000D01*
X114225552Y-84225552D01*
X114159696Y-84305798D01*
X114110761Y-84397350D01*
X114080626Y-84496690D01*
X114070451Y-84600000D01*
X114070451Y-85800000D01*
X114080626Y-85903310D01*
X114110761Y-86002650D01*
X114159696Y-86094202D01*
X114225552Y-86174448D01*
X114256687Y-86200000D01*
X114225552Y-86225552D01*
X114159696Y-86305798D01*
X114110761Y-86397350D01*
X114080626Y-86496690D01*
X114070451Y-86600000D01*
X114070451Y-87800000D01*
X114080626Y-87903310D01*
X114110761Y-88002650D01*
X114159696Y-88094202D01*
X114225552Y-88174448D01*
X114256687Y-88200000D01*
X114225552Y-88225552D01*
X114159696Y-88305798D01*
X114110761Y-88397350D01*
X114080626Y-88496690D01*
X114070451Y-88600000D01*
X114070451Y-89800000D01*
X114080626Y-89903310D01*
X114110761Y-90002650D01*
X114159696Y-90094202D01*
X114225552Y-90174448D01*
X114255601Y-90199108D01*
X114190652Y-90264057D01*
X114132979Y-90350372D01*
X114093252Y-90446280D01*
X114073000Y-90548095D01*
X114073000Y-90995250D01*
X114204750Y-91127000D01*
X116027000Y-91127000D01*
X116027000Y-91107000D01*
X116173000Y-91107000D01*
X116173000Y-91127000D01*
X116193000Y-91127000D01*
X116193000Y-91273000D01*
X116173000Y-91273000D01*
X116173000Y-91293000D01*
X116027000Y-91293000D01*
X116027000Y-91273000D01*
X114204750Y-91273000D01*
X114073000Y-91404750D01*
X114073000Y-91851905D01*
X114093252Y-91953720D01*
X114132979Y-92049628D01*
X114190652Y-92135943D01*
X114255601Y-92200892D01*
X114225552Y-92225552D01*
X114159696Y-92305798D01*
X114110761Y-92397350D01*
X114080626Y-92496690D01*
X114070451Y-92600000D01*
X114070451Y-93800000D01*
X114080626Y-93903310D01*
X114110761Y-94002650D01*
X114159696Y-94094202D01*
X114225552Y-94174448D01*
X114255601Y-94199108D01*
X114190652Y-94264057D01*
X114132979Y-94350372D01*
X114093252Y-94446280D01*
X114073000Y-94548095D01*
X114073000Y-94995250D01*
X114204750Y-95127000D01*
X116027000Y-95127000D01*
X116027000Y-95107000D01*
X116173000Y-95107000D01*
X116173000Y-95127000D01*
X116193000Y-95127000D01*
X116193000Y-95273000D01*
X116173000Y-95273000D01*
X116173000Y-96195250D01*
X116304750Y-96327000D01*
X117651905Y-96327000D01*
X117753720Y-96306748D01*
X117849628Y-96267021D01*
X117873000Y-96251405D01*
X117873000Y-97998000D01*
X105202000Y-97998000D01*
X105202000Y-96877945D01*
X109371782Y-96877945D01*
X109404599Y-97056752D01*
X109471522Y-97225780D01*
X109570001Y-97378590D01*
X109696286Y-97509362D01*
X109845566Y-97613114D01*
X110012155Y-97685895D01*
X110189708Y-97724932D01*
X110371463Y-97728740D01*
X110550495Y-97697171D01*
X110719986Y-97631430D01*
X110873479Y-97534020D01*
X111005130Y-97408651D01*
X111109921Y-97260099D01*
X111183864Y-97094022D01*
X111224140Y-96916746D01*
X111224321Y-96903813D01*
X112723383Y-95404750D01*
X114073000Y-95404750D01*
X114073000Y-95851905D01*
X114093252Y-95953720D01*
X114132979Y-96049628D01*
X114190652Y-96135943D01*
X114264057Y-96209348D01*
X114350372Y-96267021D01*
X114446280Y-96306748D01*
X114548095Y-96327000D01*
X115895250Y-96327000D01*
X116027000Y-96195250D01*
X116027000Y-95273000D01*
X114204750Y-95273000D01*
X114073000Y-95404750D01*
X112723383Y-95404750D01*
X113414066Y-94714067D01*
X113456656Y-94662217D01*
X113499858Y-94610731D01*
X113501702Y-94607377D01*
X113504125Y-94604427D01*
X113535848Y-94545264D01*
X113568211Y-94486396D01*
X113569366Y-94482755D01*
X113571174Y-94479383D01*
X113590818Y-94415131D01*
X113611113Y-94351152D01*
X113611539Y-94347354D01*
X113612657Y-94343697D01*
X113619442Y-94276900D01*
X113626929Y-94210151D01*
X113626981Y-94202673D01*
X113626995Y-94202538D01*
X113626983Y-94202412D01*
X113627000Y-94200000D01*
X113627000Y-88877648D01*
X113709921Y-88760099D01*
X113783864Y-88594022D01*
X113824140Y-88416746D01*
X113827039Y-88209103D01*
X113791729Y-88030771D01*
X113722452Y-87862694D01*
X113621849Y-87711274D01*
X113493751Y-87582278D01*
X113343037Y-87480621D01*
X113175448Y-87410173D01*
X112997367Y-87373618D01*
X112815577Y-87372349D01*
X112637003Y-87406413D01*
X112468447Y-87474515D01*
X112316328Y-87574058D01*
X112186441Y-87701253D01*
X112083733Y-87851254D01*
X112012117Y-88018347D01*
X111974320Y-88196168D01*
X111971782Y-88377945D01*
X112004599Y-88556752D01*
X112071522Y-88725780D01*
X112170001Y-88878590D01*
X112173000Y-88881696D01*
X112173000Y-93898867D01*
X110195732Y-95876135D01*
X110037003Y-95906413D01*
X109868447Y-95974515D01*
X109716328Y-96074058D01*
X109586441Y-96201253D01*
X109483733Y-96351254D01*
X109412117Y-96518347D01*
X109374320Y-96696168D01*
X109371782Y-96877945D01*
X105202000Y-96877945D01*
X105202000Y-96158476D01*
X105840741Y-96158476D01*
X105997819Y-96450416D01*
X106349287Y-96639829D01*
X106730955Y-96757033D01*
X107128155Y-96797526D01*
X107525623Y-96759750D01*
X107908083Y-96645159D01*
X108260840Y-96458155D01*
X108272421Y-96450416D01*
X108429499Y-96158476D01*
X107135120Y-94864098D01*
X105840741Y-96158476D01*
X105202000Y-96158476D01*
X105202000Y-95370878D01*
X105250821Y-95533823D01*
X105437825Y-95886580D01*
X105445564Y-95898161D01*
X105737504Y-96055239D01*
X107031882Y-94760860D01*
X107238358Y-94760860D01*
X108532736Y-96055239D01*
X108824676Y-95898161D01*
X109014089Y-95546693D01*
X109131293Y-95165025D01*
X109171786Y-94767825D01*
X109134010Y-94370357D01*
X109019419Y-93987897D01*
X108832415Y-93635140D01*
X108824676Y-93623559D01*
X108532736Y-93466481D01*
X107238358Y-94760860D01*
X107031882Y-94760860D01*
X105737504Y-93466481D01*
X105445564Y-93623559D01*
X105256151Y-93975027D01*
X105202000Y-94151367D01*
X105202000Y-93363244D01*
X105840741Y-93363244D01*
X107135120Y-94657622D01*
X108429499Y-93363244D01*
X108272421Y-93071304D01*
X107920953Y-92881891D01*
X107539285Y-92764687D01*
X107142085Y-92724194D01*
X106744617Y-92761970D01*
X106362157Y-92876561D01*
X106009400Y-93063565D01*
X105997819Y-93071304D01*
X105840741Y-93363244D01*
X105202000Y-93363244D01*
X105202000Y-92577430D01*
X109040787Y-92577430D01*
X109107828Y-92792665D01*
X109331828Y-92907366D01*
X109573902Y-92976164D01*
X109824745Y-92996412D01*
X110074720Y-92967335D01*
X110314217Y-92890049D01*
X110496412Y-92792665D01*
X110563453Y-92577430D01*
X109802120Y-91816098D01*
X109040787Y-92577430D01*
X105202000Y-92577430D01*
X105202000Y-91735485D01*
X108518568Y-91735485D01*
X108547645Y-91985460D01*
X108624931Y-92224957D01*
X108722315Y-92407152D01*
X108937550Y-92474193D01*
X109698882Y-91712860D01*
X109905358Y-91712860D01*
X110666690Y-92474193D01*
X110881925Y-92407152D01*
X110996626Y-92183152D01*
X111065424Y-91941078D01*
X111085672Y-91690235D01*
X111056595Y-91440260D01*
X110979309Y-91200763D01*
X110881925Y-91018568D01*
X110666690Y-90951527D01*
X109905358Y-91712860D01*
X109698882Y-91712860D01*
X108937550Y-90951527D01*
X108722315Y-91018568D01*
X108607614Y-91242568D01*
X108538816Y-91484642D01*
X108518568Y-91735485D01*
X105202000Y-91735485D01*
X105202000Y-82442476D01*
X105840741Y-82442476D01*
X105997819Y-82734416D01*
X106349287Y-82923829D01*
X106730955Y-83041033D01*
X107128155Y-83081526D01*
X107525623Y-83043750D01*
X107908083Y-82929159D01*
X108260840Y-82742155D01*
X108272421Y-82734416D01*
X108342187Y-82604750D01*
X110023000Y-82604750D01*
X110023000Y-82826905D01*
X110043252Y-82928720D01*
X110082979Y-83024628D01*
X110140652Y-83110943D01*
X110214057Y-83184348D01*
X110300372Y-83242021D01*
X110396280Y-83281748D01*
X110498095Y-83302000D01*
X110945250Y-83302000D01*
X111077000Y-83170250D01*
X111077000Y-82473000D01*
X110154750Y-82473000D01*
X110023000Y-82604750D01*
X108342187Y-82604750D01*
X108429499Y-82442476D01*
X107135120Y-81148098D01*
X105840741Y-82442476D01*
X105202000Y-82442476D01*
X105202000Y-81654878D01*
X105250821Y-81817823D01*
X105437825Y-82170580D01*
X105445564Y-82182161D01*
X105737504Y-82339239D01*
X107031882Y-81044860D01*
X107238358Y-81044860D01*
X108532736Y-82339239D01*
X108824676Y-82182161D01*
X109014089Y-81830693D01*
X109131293Y-81449025D01*
X109171786Y-81051825D01*
X109148304Y-80804750D01*
X110023000Y-80804750D01*
X110023000Y-81026905D01*
X110043252Y-81128720D01*
X110082979Y-81224628D01*
X110140652Y-81310943D01*
X110214057Y-81384348D01*
X110300372Y-81442021D01*
X110396280Y-81481748D01*
X110488040Y-81500000D01*
X110396280Y-81518252D01*
X110300372Y-81557979D01*
X110214057Y-81615652D01*
X110140652Y-81689057D01*
X110082979Y-81775372D01*
X110043252Y-81871280D01*
X110023000Y-81973095D01*
X110023000Y-82195250D01*
X110154750Y-82327000D01*
X111077000Y-82327000D01*
X111077000Y-81629750D01*
X110947250Y-81500000D01*
X111077000Y-81370250D01*
X111077000Y-80673000D01*
X110154750Y-80673000D01*
X110023000Y-80804750D01*
X109148304Y-80804750D01*
X109134010Y-80654357D01*
X109019419Y-80271897D01*
X108967042Y-80173095D01*
X110023000Y-80173095D01*
X110023000Y-80395250D01*
X110154750Y-80527000D01*
X111077000Y-80527000D01*
X111077000Y-79829750D01*
X110945250Y-79698000D01*
X110498095Y-79698000D01*
X110396280Y-79718252D01*
X110300372Y-79757979D01*
X110214057Y-79815652D01*
X110140652Y-79889057D01*
X110082979Y-79975372D01*
X110043252Y-80071280D01*
X110023000Y-80173095D01*
X108967042Y-80173095D01*
X108832415Y-79919140D01*
X108824676Y-79907559D01*
X108532736Y-79750481D01*
X107238358Y-81044860D01*
X107031882Y-81044860D01*
X105737504Y-79750481D01*
X105445564Y-79907559D01*
X105256151Y-80259027D01*
X105202000Y-80435367D01*
X105202000Y-79647244D01*
X105840741Y-79647244D01*
X107135120Y-80941622D01*
X108429499Y-79647244D01*
X108272421Y-79355304D01*
X107920953Y-79165891D01*
X107539285Y-79048687D01*
X107142085Y-79008194D01*
X106744617Y-79045970D01*
X106362157Y-79160561D01*
X106009400Y-79347565D01*
X105997819Y-79355304D01*
X105840741Y-79647244D01*
X105202000Y-79647244D01*
X105202000Y-78002000D01*
X110785930Y-78002000D01*
X110683733Y-78151254D01*
X110683733Y-78151254D01*
G37*
X110683733Y-78151254D02*
X110612117Y-78318347D01*
X110574320Y-78496168D01*
X110571782Y-78677945D01*
X110604599Y-78856752D01*
X110671522Y-79025780D01*
X110770001Y-79178590D01*
X110896286Y-79309362D01*
X111045566Y-79413114D01*
X111212155Y-79485895D01*
X111308158Y-79507002D01*
X111499156Y-79698000D01*
X111354750Y-79698000D01*
X111223000Y-79829750D01*
X111223000Y-80527000D01*
X111243000Y-80527000D01*
X111243000Y-80673000D01*
X111223000Y-80673000D01*
X111223000Y-81370250D01*
X111352750Y-81500000D01*
X111223000Y-81629750D01*
X111223000Y-82327000D01*
X111243000Y-82327000D01*
X111243000Y-82473000D01*
X111223000Y-82473000D01*
X111223000Y-83170250D01*
X111354750Y-83302000D01*
X111801905Y-83302000D01*
X111903720Y-83281748D01*
X111999628Y-83242021D01*
X112085943Y-83184348D01*
X112100428Y-83169863D01*
X112155798Y-83215304D01*
X112247350Y-83264239D01*
X112346690Y-83294374D01*
X112373000Y-83296965D01*
X112373000Y-84523000D01*
X111079083Y-84523000D01*
X111079745Y-84475588D01*
X111031081Y-84229815D01*
X110935606Y-83998175D01*
X110796957Y-83789491D01*
X110620414Y-83611712D01*
X110412704Y-83471609D01*
X110181736Y-83374519D01*
X109936309Y-83324141D01*
X109685770Y-83322391D01*
X109439664Y-83369339D01*
X109207363Y-83463194D01*
X108997716Y-83600383D01*
X108818709Y-83775680D01*
X108677160Y-83982408D01*
X108578460Y-84212692D01*
X108526368Y-84457762D01*
X108522870Y-84708282D01*
X108568098Y-84954710D01*
X108660330Y-85187660D01*
X108796052Y-85398260D01*
X108970095Y-85578486D01*
X109175829Y-85721475D01*
X109405419Y-85821781D01*
X109634560Y-85872160D01*
X109439664Y-85909339D01*
X109207363Y-86003194D01*
X108997716Y-86140383D01*
X108818709Y-86315680D01*
X108677160Y-86522408D01*
X108578460Y-86752692D01*
X108526368Y-86997762D01*
X108522870Y-87248282D01*
X108568098Y-87494710D01*
X108660330Y-87727660D01*
X108796052Y-87938260D01*
X108970095Y-88118486D01*
X109023431Y-88155556D01*
X108997716Y-88172383D01*
X108818709Y-88347680D01*
X108677160Y-88554408D01*
X108578460Y-88784692D01*
X108526368Y-89029762D01*
X108522870Y-89280282D01*
X108568098Y-89526710D01*
X108660330Y-89759660D01*
X108796052Y-89970260D01*
X108970095Y-90150486D01*
X109175829Y-90293475D01*
X109405419Y-90393781D01*
X109640529Y-90445472D01*
X109529520Y-90458385D01*
X109290023Y-90535671D01*
X109107828Y-90633055D01*
X109040787Y-90848290D01*
X109802120Y-91609622D01*
X110563453Y-90848290D01*
X110496412Y-90633055D01*
X110272412Y-90518354D01*
X110030338Y-90449556D01*
X109954076Y-90443400D01*
X110147346Y-90409322D01*
X110380935Y-90318719D01*
X110592477Y-90184470D01*
X110773914Y-90011690D01*
X110918336Y-89806959D01*
X111020241Y-89578075D01*
X111075749Y-89333757D01*
X111079745Y-89047588D01*
X111031081Y-88801815D01*
X110935606Y-88570175D01*
X110796957Y-88361491D01*
X110620414Y-88183712D01*
X110583007Y-88158480D01*
X110592477Y-88152470D01*
X110773914Y-87979690D01*
X110918336Y-87774959D01*
X111020241Y-87546075D01*
X111075749Y-87301757D01*
X111079745Y-87015588D01*
X111031081Y-86769815D01*
X110935606Y-86538175D01*
X110796957Y-86329491D01*
X110620414Y-86151712D01*
X110412704Y-86011609D01*
X110181736Y-85914519D01*
X109963542Y-85869731D01*
X110147346Y-85837322D01*
X110162334Y-85831508D01*
X110200924Y-85843306D01*
X110260504Y-85862206D01*
X110264040Y-85862603D01*
X110267446Y-85863644D01*
X110329643Y-85869961D01*
X110391808Y-85876934D01*
X110398775Y-85876983D01*
X110398897Y-85876995D01*
X110399010Y-85876984D01*
X110401260Y-85877000D01*
X112700000Y-85877000D01*
X112762210Y-85870900D01*
X112824535Y-85865448D01*
X112827955Y-85864454D01*
X112831497Y-85864107D01*
X112891368Y-85846031D01*
X112951416Y-85828585D01*
X112954575Y-85826948D01*
X112957985Y-85825918D01*
X113013219Y-85796549D01*
X113068721Y-85767780D01*
X113071503Y-85765559D01*
X113074646Y-85763888D01*
X113123097Y-85724372D01*
X113171981Y-85685348D01*
X113176937Y-85680461D01*
X113177037Y-85680379D01*
X113177114Y-85680286D01*
X113178711Y-85678711D01*
X113528711Y-85328711D01*
X113568391Y-85280404D01*
X113608602Y-85232483D01*
X113610317Y-85229363D01*
X113612577Y-85226612D01*
X113642133Y-85171491D01*
X113672255Y-85116699D01*
X113673331Y-85113306D01*
X113675014Y-85110168D01*
X113693306Y-85050336D01*
X113712206Y-84990756D01*
X113712603Y-84987220D01*
X113713644Y-84983814D01*
X113719966Y-84921573D01*
X113726934Y-84859452D01*
X113726983Y-84852495D01*
X113726996Y-84852363D01*
X113726984Y-84852240D01*
X113727000Y-84850000D01*
X113727000Y-83296965D01*
X113753310Y-83294374D01*
X113852650Y-83264239D01*
X113944202Y-83215304D01*
X114024448Y-83149448D01*
X114070451Y-83093393D01*
X114070451Y-83800000D01*
X114080626Y-83903310D01*
X114110761Y-84002650D01*
X114159696Y-84094202D01*
X114225552Y-84174448D01*
X114256687Y-84200000D01*
X114225552Y-84225552D01*
X114159696Y-84305798D01*
X114110761Y-84397350D01*
X114080626Y-84496690D01*
X114070451Y-84600000D01*
X114070451Y-85800000D01*
X114080626Y-85903310D01*
X114110761Y-86002650D01*
X114159696Y-86094202D01*
X114225552Y-86174448D01*
X114256687Y-86200000D01*
X114225552Y-86225552D01*
X114159696Y-86305798D01*
X114110761Y-86397350D01*
X114080626Y-86496690D01*
X114070451Y-86600000D01*
X114070451Y-87800000D01*
X114080626Y-87903310D01*
X114110761Y-88002650D01*
X114159696Y-88094202D01*
X114225552Y-88174448D01*
X114256687Y-88200000D01*
X114225552Y-88225552D01*
X114159696Y-88305798D01*
X114110761Y-88397350D01*
X114080626Y-88496690D01*
X114070451Y-88600000D01*
X114070451Y-89800000D01*
X114080626Y-89903310D01*
X114110761Y-90002650D01*
X114159696Y-90094202D01*
X114225552Y-90174448D01*
X114255601Y-90199108D01*
X114190652Y-90264057D01*
X114132979Y-90350372D01*
X114093252Y-90446280D01*
X114073000Y-90548095D01*
X114073000Y-90995250D01*
X114204750Y-91127000D01*
X116027000Y-91127000D01*
X116027000Y-91107000D01*
X116173000Y-91107000D01*
X116173000Y-91127000D01*
X116193000Y-91127000D01*
X116193000Y-91273000D01*
X116173000Y-91273000D01*
X116173000Y-91293000D01*
X116027000Y-91293000D01*
X116027000Y-91273000D01*
X114204750Y-91273000D01*
X114073000Y-91404750D01*
X114073000Y-91851905D01*
X114093252Y-91953720D01*
X114132979Y-92049628D01*
X114190652Y-92135943D01*
X114255601Y-92200892D01*
X114225552Y-92225552D01*
X114159696Y-92305798D01*
X114110761Y-92397350D01*
X114080626Y-92496690D01*
X114070451Y-92600000D01*
X114070451Y-93800000D01*
X114080626Y-93903310D01*
X114110761Y-94002650D01*
X114159696Y-94094202D01*
X114225552Y-94174448D01*
X114255601Y-94199108D01*
X114190652Y-94264057D01*
X114132979Y-94350372D01*
X114093252Y-94446280D01*
X114073000Y-94548095D01*
X114073000Y-94995250D01*
X114204750Y-95127000D01*
X116027000Y-95127000D01*
X116027000Y-95107000D01*
X116173000Y-95107000D01*
X116173000Y-95127000D01*
X116193000Y-95127000D01*
X116193000Y-95273000D01*
X116173000Y-95273000D01*
X116173000Y-96195250D01*
X116304750Y-96327000D01*
X117651905Y-96327000D01*
X117753720Y-96306748D01*
X117849628Y-96267021D01*
X117873000Y-96251405D01*
X117873000Y-97998000D01*
X105202000Y-97998000D01*
X105202000Y-96877945D01*
X109371782Y-96877945D01*
X109404599Y-97056752D01*
X109471522Y-97225780D01*
X109570001Y-97378590D01*
X109696286Y-97509362D01*
X109845566Y-97613114D01*
X110012155Y-97685895D01*
X110189708Y-97724932D01*
X110371463Y-97728740D01*
X110550495Y-97697171D01*
X110719986Y-97631430D01*
X110873479Y-97534020D01*
X111005130Y-97408651D01*
X111109921Y-97260099D01*
X111183864Y-97094022D01*
X111224140Y-96916746D01*
X111224321Y-96903813D01*
X112723383Y-95404750D01*
X114073000Y-95404750D01*
X114073000Y-95851905D01*
X114093252Y-95953720D01*
X114132979Y-96049628D01*
X114190652Y-96135943D01*
X114264057Y-96209348D01*
X114350372Y-96267021D01*
X114446280Y-96306748D01*
X114548095Y-96327000D01*
X115895250Y-96327000D01*
X116027000Y-96195250D01*
X116027000Y-95273000D01*
X114204750Y-95273000D01*
X114073000Y-95404750D01*
X112723383Y-95404750D01*
X113414066Y-94714067D01*
X113456656Y-94662217D01*
X113499858Y-94610731D01*
X113501702Y-94607377D01*
X113504125Y-94604427D01*
X113535848Y-94545264D01*
X113568211Y-94486396D01*
X113569366Y-94482755D01*
X113571174Y-94479383D01*
X113590818Y-94415131D01*
X113611113Y-94351152D01*
X113611539Y-94347354D01*
X113612657Y-94343697D01*
X113619442Y-94276900D01*
X113626929Y-94210151D01*
X113626981Y-94202673D01*
X113626995Y-94202538D01*
X113626983Y-94202412D01*
X113627000Y-94200000D01*
X113627000Y-88877648D01*
X113709921Y-88760099D01*
X113783864Y-88594022D01*
X113824140Y-88416746D01*
X113827039Y-88209103D01*
X113791729Y-88030771D01*
X113722452Y-87862694D01*
X113621849Y-87711274D01*
X113493751Y-87582278D01*
X113343037Y-87480621D01*
X113175448Y-87410173D01*
X112997367Y-87373618D01*
X112815577Y-87372349D01*
X112637003Y-87406413D01*
X112468447Y-87474515D01*
X112316328Y-87574058D01*
X112186441Y-87701253D01*
X112083733Y-87851254D01*
X112012117Y-88018347D01*
X111974320Y-88196168D01*
X111971782Y-88377945D01*
X112004599Y-88556752D01*
X112071522Y-88725780D01*
X112170001Y-88878590D01*
X112173000Y-88881696D01*
X112173000Y-93898867D01*
X110195732Y-95876135D01*
X110037003Y-95906413D01*
X109868447Y-95974515D01*
X109716328Y-96074058D01*
X109586441Y-96201253D01*
X109483733Y-96351254D01*
X109412117Y-96518347D01*
X109374320Y-96696168D01*
X109371782Y-96877945D01*
X105202000Y-96877945D01*
X105202000Y-96158476D01*
X105840741Y-96158476D01*
X105997819Y-96450416D01*
X106349287Y-96639829D01*
X106730955Y-96757033D01*
X107128155Y-96797526D01*
X107525623Y-96759750D01*
X107908083Y-96645159D01*
X108260840Y-96458155D01*
X108272421Y-96450416D01*
X108429499Y-96158476D01*
X107135120Y-94864098D01*
X105840741Y-96158476D01*
X105202000Y-96158476D01*
X105202000Y-95370878D01*
X105250821Y-95533823D01*
X105437825Y-95886580D01*
X105445564Y-95898161D01*
X105737504Y-96055239D01*
X107031882Y-94760860D01*
X107238358Y-94760860D01*
X108532736Y-96055239D01*
X108824676Y-95898161D01*
X109014089Y-95546693D01*
X109131293Y-95165025D01*
X109171786Y-94767825D01*
X109134010Y-94370357D01*
X109019419Y-93987897D01*
X108832415Y-93635140D01*
X108824676Y-93623559D01*
X108532736Y-93466481D01*
X107238358Y-94760860D01*
X107031882Y-94760860D01*
X105737504Y-93466481D01*
X105445564Y-93623559D01*
X105256151Y-93975027D01*
X105202000Y-94151367D01*
X105202000Y-93363244D01*
X105840741Y-93363244D01*
X107135120Y-94657622D01*
X108429499Y-93363244D01*
X108272421Y-93071304D01*
X107920953Y-92881891D01*
X107539285Y-92764687D01*
X107142085Y-92724194D01*
X106744617Y-92761970D01*
X106362157Y-92876561D01*
X106009400Y-93063565D01*
X105997819Y-93071304D01*
X105840741Y-93363244D01*
X105202000Y-93363244D01*
X105202000Y-92577430D01*
X109040787Y-92577430D01*
X109107828Y-92792665D01*
X109331828Y-92907366D01*
X109573902Y-92976164D01*
X109824745Y-92996412D01*
X110074720Y-92967335D01*
X110314217Y-92890049D01*
X110496412Y-92792665D01*
X110563453Y-92577430D01*
X109802120Y-91816098D01*
X109040787Y-92577430D01*
X105202000Y-92577430D01*
X105202000Y-91735485D01*
X108518568Y-91735485D01*
X108547645Y-91985460D01*
X108624931Y-92224957D01*
X108722315Y-92407152D01*
X108937550Y-92474193D01*
X109698882Y-91712860D01*
X109905358Y-91712860D01*
X110666690Y-92474193D01*
X110881925Y-92407152D01*
X110996626Y-92183152D01*
X111065424Y-91941078D01*
X111085672Y-91690235D01*
X111056595Y-91440260D01*
X110979309Y-91200763D01*
X110881925Y-91018568D01*
X110666690Y-90951527D01*
X109905358Y-91712860D01*
X109698882Y-91712860D01*
X108937550Y-90951527D01*
X108722315Y-91018568D01*
X108607614Y-91242568D01*
X108538816Y-91484642D01*
X108518568Y-91735485D01*
X105202000Y-91735485D01*
X105202000Y-82442476D01*
X105840741Y-82442476D01*
X105997819Y-82734416D01*
X106349287Y-82923829D01*
X106730955Y-83041033D01*
X107128155Y-83081526D01*
X107525623Y-83043750D01*
X107908083Y-82929159D01*
X108260840Y-82742155D01*
X108272421Y-82734416D01*
X108342187Y-82604750D01*
X110023000Y-82604750D01*
X110023000Y-82826905D01*
X110043252Y-82928720D01*
X110082979Y-83024628D01*
X110140652Y-83110943D01*
X110214057Y-83184348D01*
X110300372Y-83242021D01*
X110396280Y-83281748D01*
X110498095Y-83302000D01*
X110945250Y-83302000D01*
X111077000Y-83170250D01*
X111077000Y-82473000D01*
X110154750Y-82473000D01*
X110023000Y-82604750D01*
X108342187Y-82604750D01*
X108429499Y-82442476D01*
X107135120Y-81148098D01*
X105840741Y-82442476D01*
X105202000Y-82442476D01*
X105202000Y-81654878D01*
X105250821Y-81817823D01*
X105437825Y-82170580D01*
X105445564Y-82182161D01*
X105737504Y-82339239D01*
X107031882Y-81044860D01*
X107238358Y-81044860D01*
X108532736Y-82339239D01*
X108824676Y-82182161D01*
X109014089Y-81830693D01*
X109131293Y-81449025D01*
X109171786Y-81051825D01*
X109148304Y-80804750D01*
X110023000Y-80804750D01*
X110023000Y-81026905D01*
X110043252Y-81128720D01*
X110082979Y-81224628D01*
X110140652Y-81310943D01*
X110214057Y-81384348D01*
X110300372Y-81442021D01*
X110396280Y-81481748D01*
X110488040Y-81500000D01*
X110396280Y-81518252D01*
X110300372Y-81557979D01*
X110214057Y-81615652D01*
X110140652Y-81689057D01*
X110082979Y-81775372D01*
X110043252Y-81871280D01*
X110023000Y-81973095D01*
X110023000Y-82195250D01*
X110154750Y-82327000D01*
X111077000Y-82327000D01*
X111077000Y-81629750D01*
X110947250Y-81500000D01*
X111077000Y-81370250D01*
X111077000Y-80673000D01*
X110154750Y-80673000D01*
X110023000Y-80804750D01*
X109148304Y-80804750D01*
X109134010Y-80654357D01*
X109019419Y-80271897D01*
X108967042Y-80173095D01*
X110023000Y-80173095D01*
X110023000Y-80395250D01*
X110154750Y-80527000D01*
X111077000Y-80527000D01*
X111077000Y-79829750D01*
X110945250Y-79698000D01*
X110498095Y-79698000D01*
X110396280Y-79718252D01*
X110300372Y-79757979D01*
X110214057Y-79815652D01*
X110140652Y-79889057D01*
X110082979Y-79975372D01*
X110043252Y-80071280D01*
X110023000Y-80173095D01*
X108967042Y-80173095D01*
X108832415Y-79919140D01*
X108824676Y-79907559D01*
X108532736Y-79750481D01*
X107238358Y-81044860D01*
X107031882Y-81044860D01*
X105737504Y-79750481D01*
X105445564Y-79907559D01*
X105256151Y-80259027D01*
X105202000Y-80435367D01*
X105202000Y-79647244D01*
X105840741Y-79647244D01*
X107135120Y-80941622D01*
X108429499Y-79647244D01*
X108272421Y-79355304D01*
X107920953Y-79165891D01*
X107539285Y-79048687D01*
X107142085Y-79008194D01*
X106744617Y-79045970D01*
X106362157Y-79160561D01*
X106009400Y-79347565D01*
X105997819Y-79355304D01*
X105840741Y-79647244D01*
X105202000Y-79647244D01*
X105202000Y-78002000D01*
X110785930Y-78002000D01*
X110683733Y-78151254D01*
G36*
X138018000Y-81465420D02*
X138018000Y-83553662D01*
X137954696Y-83630798D01*
X137905761Y-83722350D01*
X137875626Y-83821690D01*
X137865451Y-83925000D01*
X137865451Y-85475000D01*
X137875626Y-85578310D01*
X137905761Y-85677650D01*
X137954696Y-85769202D01*
X138020552Y-85849448D01*
X138100798Y-85915304D01*
X138192350Y-85964239D01*
X138291690Y-85994374D01*
X138395000Y-86004549D01*
X138995000Y-86004549D01*
X139098310Y-85994374D01*
X139197650Y-85964239D01*
X139289202Y-85915304D01*
X139330000Y-85881822D01*
X139370798Y-85915304D01*
X139462350Y-85964239D01*
X139561690Y-85994374D01*
X139665000Y-86004549D01*
X140265000Y-86004549D01*
X140368310Y-85994374D01*
X140467650Y-85964239D01*
X140559202Y-85915304D01*
X140598095Y-85883386D01*
X140599057Y-85884348D01*
X140685372Y-85942021D01*
X140781280Y-85981748D01*
X140883095Y-86002000D01*
X141030250Y-86002000D01*
X141162000Y-85870250D01*
X141162000Y-84773000D01*
X141142000Y-84773000D01*
X141142000Y-84627000D01*
X141162000Y-84627000D01*
X141162000Y-84607000D01*
X141308000Y-84607000D01*
X141308000Y-84627000D01*
X141328000Y-84627000D01*
X141328000Y-84773000D01*
X141308000Y-84773000D01*
X141308000Y-85870250D01*
X141439750Y-86002000D01*
X141586905Y-86002000D01*
X141688720Y-85981748D01*
X141778000Y-85944766D01*
X141778000Y-88855234D01*
X141688720Y-88818252D01*
X141586905Y-88798000D01*
X141439750Y-88798000D01*
X141308000Y-88929750D01*
X141308000Y-90027000D01*
X141328000Y-90027000D01*
X141328000Y-90173000D01*
X141308000Y-90173000D01*
X141308000Y-90193000D01*
X141162000Y-90193000D01*
X141162000Y-90173000D01*
X141142000Y-90173000D01*
X141142000Y-90027000D01*
X141162000Y-90027000D01*
X141162000Y-88929750D01*
X141030250Y-88798000D01*
X140883095Y-88798000D01*
X140781280Y-88818252D01*
X140685372Y-88857979D01*
X140599057Y-88915652D01*
X140598095Y-88916614D01*
X140559202Y-88884696D01*
X140467650Y-88835761D01*
X140368310Y-88805626D01*
X140265000Y-88795451D01*
X139665000Y-88795451D01*
X139561690Y-88805626D01*
X139462350Y-88835761D01*
X139370798Y-88884696D01*
X139331905Y-88916614D01*
X139330943Y-88915652D01*
X139244628Y-88857979D01*
X139148720Y-88818252D01*
X139046905Y-88798000D01*
X138899750Y-88798000D01*
X138768000Y-88929750D01*
X138768000Y-90027000D01*
X138788000Y-90027000D01*
X138788000Y-90173000D01*
X138768000Y-90173000D01*
X138768000Y-91270250D01*
X138899750Y-91402000D01*
X139046905Y-91402000D01*
X139148720Y-91381748D01*
X139238000Y-91344766D01*
X139238000Y-92733867D01*
X137706842Y-94265024D01*
X137674448Y-94225552D01*
X137643313Y-94200000D01*
X137674448Y-94174448D01*
X137740304Y-94094202D01*
X137789239Y-94002650D01*
X137819374Y-93903310D01*
X137829549Y-93800000D01*
X137829549Y-92600000D01*
X137819374Y-92496690D01*
X137789239Y-92397350D01*
X137740304Y-92305798D01*
X137674448Y-92225552D01*
X137643313Y-92200000D01*
X137674448Y-92174448D01*
X137740304Y-92094202D01*
X137789239Y-92002650D01*
X137819374Y-91903310D01*
X137829549Y-91800000D01*
X137829549Y-90600000D01*
X137819374Y-90496690D01*
X137789239Y-90397350D01*
X137740304Y-90305798D01*
X137739444Y-90304750D01*
X137868000Y-90304750D01*
X137868000Y-90926905D01*
X137888252Y-91028720D01*
X137927979Y-91124628D01*
X137985652Y-91210943D01*
X138059057Y-91284348D01*
X138145372Y-91342021D01*
X138241280Y-91381748D01*
X138343095Y-91402000D01*
X138490250Y-91402000D01*
X138622000Y-91270250D01*
X138622000Y-90173000D01*
X137999750Y-90173000D01*
X137868000Y-90304750D01*
X137739444Y-90304750D01*
X137674448Y-90225552D01*
X137643313Y-90200000D01*
X137674448Y-90174448D01*
X137740304Y-90094202D01*
X137789239Y-90002650D01*
X137819374Y-89903310D01*
X137829549Y-89800000D01*
X137829549Y-89273095D01*
X137868000Y-89273095D01*
X137868000Y-89895250D01*
X137999750Y-90027000D01*
X138622000Y-90027000D01*
X138622000Y-88929750D01*
X138490250Y-88798000D01*
X138343095Y-88798000D01*
X138241280Y-88818252D01*
X138145372Y-88857979D01*
X138059057Y-88915652D01*
X137985652Y-88989057D01*
X137927979Y-89075372D01*
X137888252Y-89171280D01*
X137868000Y-89273095D01*
X137829549Y-89273095D01*
X137829549Y-88600000D01*
X137819374Y-88496690D01*
X137789239Y-88397350D01*
X137740304Y-88305798D01*
X137674448Y-88225552D01*
X137643313Y-88200000D01*
X137674448Y-88174448D01*
X137740304Y-88094202D01*
X137789239Y-88002650D01*
X137819374Y-87903310D01*
X137829549Y-87800000D01*
X137829549Y-86600000D01*
X137819374Y-86496690D01*
X137789239Y-86397350D01*
X137740304Y-86305798D01*
X137674448Y-86225552D01*
X137643313Y-86200000D01*
X137674448Y-86174448D01*
X137740304Y-86094202D01*
X137789239Y-86002650D01*
X137819374Y-85903310D01*
X137829549Y-85800000D01*
X137829549Y-84600000D01*
X137819374Y-84496690D01*
X137789239Y-84397350D01*
X137740304Y-84305798D01*
X137674448Y-84225552D01*
X137643313Y-84200000D01*
X137674448Y-84174448D01*
X137740304Y-84094202D01*
X137789239Y-84002650D01*
X137819374Y-83903310D01*
X137829549Y-83800000D01*
X137829549Y-82600000D01*
X137819374Y-82496690D01*
X137789239Y-82397350D01*
X137740304Y-82305798D01*
X137674448Y-82225552D01*
X137643313Y-82200000D01*
X137674448Y-82174448D01*
X137740304Y-82094202D01*
X137789239Y-82002650D01*
X137819374Y-81903310D01*
X137829549Y-81800000D01*
X137829549Y-81276969D01*
X138018000Y-81465420D01*
X138018000Y-81465420D01*
G37*
X138018000Y-81465420D02*
X138018000Y-83553662D01*
X137954696Y-83630798D01*
X137905761Y-83722350D01*
X137875626Y-83821690D01*
X137865451Y-83925000D01*
X137865451Y-85475000D01*
X137875626Y-85578310D01*
X137905761Y-85677650D01*
X137954696Y-85769202D01*
X138020552Y-85849448D01*
X138100798Y-85915304D01*
X138192350Y-85964239D01*
X138291690Y-85994374D01*
X138395000Y-86004549D01*
X138995000Y-86004549D01*
X139098310Y-85994374D01*
X139197650Y-85964239D01*
X139289202Y-85915304D01*
X139330000Y-85881822D01*
X139370798Y-85915304D01*
X139462350Y-85964239D01*
X139561690Y-85994374D01*
X139665000Y-86004549D01*
X140265000Y-86004549D01*
X140368310Y-85994374D01*
X140467650Y-85964239D01*
X140559202Y-85915304D01*
X140598095Y-85883386D01*
X140599057Y-85884348D01*
X140685372Y-85942021D01*
X140781280Y-85981748D01*
X140883095Y-86002000D01*
X141030250Y-86002000D01*
X141162000Y-85870250D01*
X141162000Y-84773000D01*
X141142000Y-84773000D01*
X141142000Y-84627000D01*
X141162000Y-84627000D01*
X141162000Y-84607000D01*
X141308000Y-84607000D01*
X141308000Y-84627000D01*
X141328000Y-84627000D01*
X141328000Y-84773000D01*
X141308000Y-84773000D01*
X141308000Y-85870250D01*
X141439750Y-86002000D01*
X141586905Y-86002000D01*
X141688720Y-85981748D01*
X141778000Y-85944766D01*
X141778000Y-88855234D01*
X141688720Y-88818252D01*
X141586905Y-88798000D01*
X141439750Y-88798000D01*
X141308000Y-88929750D01*
X141308000Y-90027000D01*
X141328000Y-90027000D01*
X141328000Y-90173000D01*
X141308000Y-90173000D01*
X141308000Y-90193000D01*
X141162000Y-90193000D01*
X141162000Y-90173000D01*
X141142000Y-90173000D01*
X141142000Y-90027000D01*
X141162000Y-90027000D01*
X141162000Y-88929750D01*
X141030250Y-88798000D01*
X140883095Y-88798000D01*
X140781280Y-88818252D01*
X140685372Y-88857979D01*
X140599057Y-88915652D01*
X140598095Y-88916614D01*
X140559202Y-88884696D01*
X140467650Y-88835761D01*
X140368310Y-88805626D01*
X140265000Y-88795451D01*
X139665000Y-88795451D01*
X139561690Y-88805626D01*
X139462350Y-88835761D01*
X139370798Y-88884696D01*
X139331905Y-88916614D01*
X139330943Y-88915652D01*
X139244628Y-88857979D01*
X139148720Y-88818252D01*
X139046905Y-88798000D01*
X138899750Y-88798000D01*
X138768000Y-88929750D01*
X138768000Y-90027000D01*
X138788000Y-90027000D01*
X138788000Y-90173000D01*
X138768000Y-90173000D01*
X138768000Y-91270250D01*
X138899750Y-91402000D01*
X139046905Y-91402000D01*
X139148720Y-91381748D01*
X139238000Y-91344766D01*
X139238000Y-92733867D01*
X137706842Y-94265024D01*
X137674448Y-94225552D01*
X137643313Y-94200000D01*
X137674448Y-94174448D01*
X137740304Y-94094202D01*
X137789239Y-94002650D01*
X137819374Y-93903310D01*
X137829549Y-93800000D01*
X137829549Y-92600000D01*
X137819374Y-92496690D01*
X137789239Y-92397350D01*
X137740304Y-92305798D01*
X137674448Y-92225552D01*
X137643313Y-92200000D01*
X137674448Y-92174448D01*
X137740304Y-92094202D01*
X137789239Y-92002650D01*
X137819374Y-91903310D01*
X137829549Y-91800000D01*
X137829549Y-90600000D01*
X137819374Y-90496690D01*
X137789239Y-90397350D01*
X137740304Y-90305798D01*
X137739444Y-90304750D01*
X137868000Y-90304750D01*
X137868000Y-90926905D01*
X137888252Y-91028720D01*
X137927979Y-91124628D01*
X137985652Y-91210943D01*
X138059057Y-91284348D01*
X138145372Y-91342021D01*
X138241280Y-91381748D01*
X138343095Y-91402000D01*
X138490250Y-91402000D01*
X138622000Y-91270250D01*
X138622000Y-90173000D01*
X137999750Y-90173000D01*
X137868000Y-90304750D01*
X137739444Y-90304750D01*
X137674448Y-90225552D01*
X137643313Y-90200000D01*
X137674448Y-90174448D01*
X137740304Y-90094202D01*
X137789239Y-90002650D01*
X137819374Y-89903310D01*
X137829549Y-89800000D01*
X137829549Y-89273095D01*
X137868000Y-89273095D01*
X137868000Y-89895250D01*
X137999750Y-90027000D01*
X138622000Y-90027000D01*
X138622000Y-88929750D01*
X138490250Y-88798000D01*
X138343095Y-88798000D01*
X138241280Y-88818252D01*
X138145372Y-88857979D01*
X138059057Y-88915652D01*
X137985652Y-88989057D01*
X137927979Y-89075372D01*
X137888252Y-89171280D01*
X137868000Y-89273095D01*
X137829549Y-89273095D01*
X137829549Y-88600000D01*
X137819374Y-88496690D01*
X137789239Y-88397350D01*
X137740304Y-88305798D01*
X137674448Y-88225552D01*
X137643313Y-88200000D01*
X137674448Y-88174448D01*
X137740304Y-88094202D01*
X137789239Y-88002650D01*
X137819374Y-87903310D01*
X137829549Y-87800000D01*
X137829549Y-86600000D01*
X137819374Y-86496690D01*
X137789239Y-86397350D01*
X137740304Y-86305798D01*
X137674448Y-86225552D01*
X137643313Y-86200000D01*
X137674448Y-86174448D01*
X137740304Y-86094202D01*
X137789239Y-86002650D01*
X137819374Y-85903310D01*
X137829549Y-85800000D01*
X137829549Y-84600000D01*
X137819374Y-84496690D01*
X137789239Y-84397350D01*
X137740304Y-84305798D01*
X137674448Y-84225552D01*
X137643313Y-84200000D01*
X137674448Y-84174448D01*
X137740304Y-84094202D01*
X137789239Y-84002650D01*
X137819374Y-83903310D01*
X137829549Y-83800000D01*
X137829549Y-82600000D01*
X137819374Y-82496690D01*
X137789239Y-82397350D01*
X137740304Y-82305798D01*
X137674448Y-82225552D01*
X137643313Y-82200000D01*
X137674448Y-82174448D01*
X137740304Y-82094202D01*
X137789239Y-82002650D01*
X137819374Y-81903310D01*
X137829549Y-81800000D01*
X137829549Y-81276969D01*
X138018000Y-81465420D01*
G36*
X126797933Y-85328981D02*
X126758253Y-85377288D01*
X126718042Y-85425209D01*
X126716327Y-85428329D01*
X126714067Y-85431080D01*
X126684511Y-85486201D01*
X126654389Y-85540993D01*
X126653313Y-85544386D01*
X126651630Y-85547524D01*
X126633338Y-85607356D01*
X126614438Y-85666936D01*
X126614041Y-85670472D01*
X126613000Y-85673878D01*
X126606683Y-85736075D01*
X126599710Y-85798240D01*
X126599661Y-85805207D01*
X126599649Y-85805329D01*
X126599660Y-85805442D01*
X126599644Y-85807692D01*
X126599644Y-86490904D01*
X126563085Y-86526705D01*
X126460377Y-86676706D01*
X126388761Y-86843799D01*
X126350964Y-87021620D01*
X126348426Y-87203397D01*
X126381243Y-87382204D01*
X126448166Y-87551232D01*
X126546645Y-87704042D01*
X126672930Y-87834814D01*
X126822210Y-87938566D01*
X126988799Y-88011347D01*
X127166352Y-88050384D01*
X127348107Y-88054192D01*
X127527139Y-88022623D01*
X127593690Y-87996809D01*
X127602922Y-88011134D01*
X127644445Y-88054132D01*
X127583125Y-88143688D01*
X127511509Y-88310781D01*
X127473712Y-88488602D01*
X127471174Y-88670379D01*
X127503991Y-88849186D01*
X127570914Y-89018214D01*
X127665308Y-89164685D01*
X127611455Y-89243335D01*
X127582516Y-89310856D01*
X127566028Y-89303925D01*
X127387947Y-89267370D01*
X127206157Y-89266101D01*
X127027583Y-89300165D01*
X126859027Y-89368267D01*
X126706908Y-89467810D01*
X126656930Y-89516752D01*
X125761338Y-89516752D01*
X125699124Y-89522852D01*
X125636803Y-89528304D01*
X125633383Y-89529298D01*
X125629841Y-89529645D01*
X125569970Y-89547721D01*
X125557847Y-89551243D01*
X125568413Y-89538380D01*
X125608603Y-89490484D01*
X125610318Y-89487364D01*
X125612578Y-89484613D01*
X125642115Y-89429526D01*
X125672256Y-89374700D01*
X125673334Y-89371303D01*
X125675014Y-89368169D01*
X125693284Y-89308411D01*
X125712207Y-89248757D01*
X125712604Y-89245218D01*
X125713644Y-89241816D01*
X125719957Y-89179663D01*
X125726935Y-89117453D01*
X125726984Y-89110486D01*
X125726996Y-89110364D01*
X125726985Y-89110251D01*
X125727001Y-89108001D01*
X125727001Y-88008003D01*
X125720897Y-87945743D01*
X125715448Y-87883468D01*
X125714456Y-87880053D01*
X125714108Y-87876506D01*
X125696019Y-87816594D01*
X125678586Y-87756587D01*
X125676949Y-87753428D01*
X125675919Y-87750018D01*
X125646550Y-87694784D01*
X125622962Y-87649277D01*
X125714048Y-87591472D01*
X125845699Y-87466103D01*
X125950490Y-87317551D01*
X126024433Y-87151474D01*
X126064709Y-86974198D01*
X126067608Y-86766555D01*
X126032298Y-86588223D01*
X125963021Y-86420146D01*
X125862418Y-86268726D01*
X125817569Y-86223563D01*
X125817569Y-85874871D01*
X125811465Y-85812611D01*
X125806016Y-85750336D01*
X125805024Y-85746921D01*
X125804676Y-85743374D01*
X125786587Y-85683462D01*
X125769154Y-85623455D01*
X125767517Y-85620296D01*
X125766487Y-85616886D01*
X125737118Y-85561652D01*
X125708349Y-85506150D01*
X125706128Y-85503368D01*
X125704457Y-85500225D01*
X125664941Y-85451774D01*
X125625917Y-85402890D01*
X125621026Y-85397930D01*
X125620948Y-85397834D01*
X125620859Y-85397760D01*
X125619280Y-85396159D01*
X125044421Y-84821301D01*
X124996114Y-84781621D01*
X124948193Y-84741410D01*
X124945073Y-84739695D01*
X124942322Y-84737435D01*
X124887201Y-84707879D01*
X124832409Y-84677757D01*
X124829016Y-84676681D01*
X124825878Y-84674998D01*
X124766046Y-84656706D01*
X124706466Y-84637806D01*
X124702930Y-84637409D01*
X124699524Y-84636368D01*
X124637327Y-84630051D01*
X124575162Y-84623078D01*
X124568195Y-84623029D01*
X124568073Y-84623017D01*
X124567960Y-84623028D01*
X124565710Y-84623012D01*
X121409685Y-84623012D01*
X121422466Y-84566756D01*
X121424132Y-84447439D01*
X121512155Y-84485895D01*
X121689708Y-84524932D01*
X121871463Y-84528740D01*
X122050495Y-84497171D01*
X122219986Y-84431430D01*
X122373479Y-84334020D01*
X122505130Y-84208651D01*
X122609921Y-84060099D01*
X122683864Y-83894022D01*
X122724140Y-83716746D01*
X122727039Y-83509103D01*
X122691729Y-83330771D01*
X122622452Y-83162694D01*
X122521849Y-83011274D01*
X122393751Y-82882278D01*
X122243037Y-82780621D01*
X122075448Y-82710173D01*
X121897367Y-82673618D01*
X121715577Y-82672349D01*
X121537003Y-82706413D01*
X121368447Y-82774515D01*
X121216328Y-82874058D01*
X121166350Y-82923000D01*
X120222418Y-82923000D01*
X119926998Y-82627580D01*
X119926998Y-80478966D01*
X120728954Y-79677011D01*
X132449903Y-79677011D01*
X126797933Y-85328981D01*
X126797933Y-85328981D01*
G37*
X126797933Y-85328981D02*
X126758253Y-85377288D01*
X126718042Y-85425209D01*
X126716327Y-85428329D01*
X126714067Y-85431080D01*
X126684511Y-85486201D01*
X126654389Y-85540993D01*
X126653313Y-85544386D01*
X126651630Y-85547524D01*
X126633338Y-85607356D01*
X126614438Y-85666936D01*
X126614041Y-85670472D01*
X126613000Y-85673878D01*
X126606683Y-85736075D01*
X126599710Y-85798240D01*
X126599661Y-85805207D01*
X126599649Y-85805329D01*
X126599660Y-85805442D01*
X126599644Y-85807692D01*
X126599644Y-86490904D01*
X126563085Y-86526705D01*
X126460377Y-86676706D01*
X126388761Y-86843799D01*
X126350964Y-87021620D01*
X126348426Y-87203397D01*
X126381243Y-87382204D01*
X126448166Y-87551232D01*
X126546645Y-87704042D01*
X126672930Y-87834814D01*
X126822210Y-87938566D01*
X126988799Y-88011347D01*
X127166352Y-88050384D01*
X127348107Y-88054192D01*
X127527139Y-88022623D01*
X127593690Y-87996809D01*
X127602922Y-88011134D01*
X127644445Y-88054132D01*
X127583125Y-88143688D01*
X127511509Y-88310781D01*
X127473712Y-88488602D01*
X127471174Y-88670379D01*
X127503991Y-88849186D01*
X127570914Y-89018214D01*
X127665308Y-89164685D01*
X127611455Y-89243335D01*
X127582516Y-89310856D01*
X127566028Y-89303925D01*
X127387947Y-89267370D01*
X127206157Y-89266101D01*
X127027583Y-89300165D01*
X126859027Y-89368267D01*
X126706908Y-89467810D01*
X126656930Y-89516752D01*
X125761338Y-89516752D01*
X125699124Y-89522852D01*
X125636803Y-89528304D01*
X125633383Y-89529298D01*
X125629841Y-89529645D01*
X125569970Y-89547721D01*
X125557847Y-89551243D01*
X125568413Y-89538380D01*
X125608603Y-89490484D01*
X125610318Y-89487364D01*
X125612578Y-89484613D01*
X125642115Y-89429526D01*
X125672256Y-89374700D01*
X125673334Y-89371303D01*
X125675014Y-89368169D01*
X125693284Y-89308411D01*
X125712207Y-89248757D01*
X125712604Y-89245218D01*
X125713644Y-89241816D01*
X125719957Y-89179663D01*
X125726935Y-89117453D01*
X125726984Y-89110486D01*
X125726996Y-89110364D01*
X125726985Y-89110251D01*
X125727001Y-89108001D01*
X125727001Y-88008003D01*
X125720897Y-87945743D01*
X125715448Y-87883468D01*
X125714456Y-87880053D01*
X125714108Y-87876506D01*
X125696019Y-87816594D01*
X125678586Y-87756587D01*
X125676949Y-87753428D01*
X125675919Y-87750018D01*
X125646550Y-87694784D01*
X125622962Y-87649277D01*
X125714048Y-87591472D01*
X125845699Y-87466103D01*
X125950490Y-87317551D01*
X126024433Y-87151474D01*
X126064709Y-86974198D01*
X126067608Y-86766555D01*
X126032298Y-86588223D01*
X125963021Y-86420146D01*
X125862418Y-86268726D01*
X125817569Y-86223563D01*
X125817569Y-85874871D01*
X125811465Y-85812611D01*
X125806016Y-85750336D01*
X125805024Y-85746921D01*
X125804676Y-85743374D01*
X125786587Y-85683462D01*
X125769154Y-85623455D01*
X125767517Y-85620296D01*
X125766487Y-85616886D01*
X125737118Y-85561652D01*
X125708349Y-85506150D01*
X125706128Y-85503368D01*
X125704457Y-85500225D01*
X125664941Y-85451774D01*
X125625917Y-85402890D01*
X125621026Y-85397930D01*
X125620948Y-85397834D01*
X125620859Y-85397760D01*
X125619280Y-85396159D01*
X125044421Y-84821301D01*
X124996114Y-84781621D01*
X124948193Y-84741410D01*
X124945073Y-84739695D01*
X124942322Y-84737435D01*
X124887201Y-84707879D01*
X124832409Y-84677757D01*
X124829016Y-84676681D01*
X124825878Y-84674998D01*
X124766046Y-84656706D01*
X124706466Y-84637806D01*
X124702930Y-84637409D01*
X124699524Y-84636368D01*
X124637327Y-84630051D01*
X124575162Y-84623078D01*
X124568195Y-84623029D01*
X124568073Y-84623017D01*
X124567960Y-84623028D01*
X124565710Y-84623012D01*
X121409685Y-84623012D01*
X121422466Y-84566756D01*
X121424132Y-84447439D01*
X121512155Y-84485895D01*
X121689708Y-84524932D01*
X121871463Y-84528740D01*
X122050495Y-84497171D01*
X122219986Y-84431430D01*
X122373479Y-84334020D01*
X122505130Y-84208651D01*
X122609921Y-84060099D01*
X122683864Y-83894022D01*
X122724140Y-83716746D01*
X122727039Y-83509103D01*
X122691729Y-83330771D01*
X122622452Y-83162694D01*
X122521849Y-83011274D01*
X122393751Y-82882278D01*
X122243037Y-82780621D01*
X122075448Y-82710173D01*
X121897367Y-82673618D01*
X121715577Y-82672349D01*
X121537003Y-82706413D01*
X121368447Y-82774515D01*
X121216328Y-82874058D01*
X121166350Y-82923000D01*
X120222418Y-82923000D01*
X119926998Y-82627580D01*
X119926998Y-80478966D01*
X120728954Y-79677011D01*
X132449903Y-79677011D01*
X126797933Y-85328981D01*
G36*
X142898000Y-81669856D02*
X142324531Y-81096387D01*
X142291739Y-80930771D01*
X142222462Y-80762694D01*
X142121859Y-80611274D01*
X141993761Y-80482278D01*
X141843047Y-80380621D01*
X141675458Y-80310173D01*
X141497377Y-80273618D01*
X141315587Y-80272349D01*
X141137013Y-80306413D01*
X140968457Y-80374515D01*
X140816338Y-80474058D01*
X140686451Y-80601253D01*
X140583743Y-80751254D01*
X140512127Y-80918347D01*
X140474330Y-81096168D01*
X140471792Y-81277945D01*
X140504609Y-81456752D01*
X140571532Y-81625780D01*
X140670011Y-81778590D01*
X140721177Y-81831573D01*
X140623000Y-81929750D01*
X140623000Y-82627000D01*
X140643000Y-82627000D01*
X140643000Y-82773000D01*
X140623000Y-82773000D01*
X140623000Y-82793000D01*
X140477000Y-82793000D01*
X140477000Y-82773000D01*
X140457000Y-82773000D01*
X140457000Y-82627000D01*
X140477000Y-82627000D01*
X140477000Y-81929750D01*
X140345250Y-81798000D01*
X140042000Y-81798000D01*
X140042000Y-81006455D01*
X140035900Y-80944245D01*
X140030448Y-80881920D01*
X140029454Y-80878500D01*
X140029107Y-80874958D01*
X140011031Y-80815087D01*
X139993585Y-80755039D01*
X139991948Y-80751880D01*
X139990918Y-80748470D01*
X139961549Y-80693236D01*
X139932780Y-80637734D01*
X139930559Y-80634952D01*
X139928888Y-80631809D01*
X139889372Y-80583358D01*
X139850348Y-80534474D01*
X139845461Y-80529518D01*
X139845379Y-80529418D01*
X139845286Y-80529341D01*
X139843711Y-80527744D01*
X137317967Y-78002000D01*
X142898000Y-78002000D01*
X142898000Y-81669856D01*
X142898000Y-81669856D01*
G37*
X142898000Y-81669856D02*
X142324531Y-81096387D01*
X142291739Y-80930771D01*
X142222462Y-80762694D01*
X142121859Y-80611274D01*
X141993761Y-80482278D01*
X141843047Y-80380621D01*
X141675458Y-80310173D01*
X141497377Y-80273618D01*
X141315587Y-80272349D01*
X141137013Y-80306413D01*
X140968457Y-80374515D01*
X140816338Y-80474058D01*
X140686451Y-80601253D01*
X140583743Y-80751254D01*
X140512127Y-80918347D01*
X140474330Y-81096168D01*
X140471792Y-81277945D01*
X140504609Y-81456752D01*
X140571532Y-81625780D01*
X140670011Y-81778590D01*
X140721177Y-81831573D01*
X140623000Y-81929750D01*
X140623000Y-82627000D01*
X140643000Y-82627000D01*
X140643000Y-82773000D01*
X140623000Y-82773000D01*
X140623000Y-82793000D01*
X140477000Y-82793000D01*
X140477000Y-82773000D01*
X140457000Y-82773000D01*
X140457000Y-82627000D01*
X140477000Y-82627000D01*
X140477000Y-81929750D01*
X140345250Y-81798000D01*
X140042000Y-81798000D01*
X140042000Y-81006455D01*
X140035900Y-80944245D01*
X140030448Y-80881920D01*
X140029454Y-80878500D01*
X140029107Y-80874958D01*
X140011031Y-80815087D01*
X139993585Y-80755039D01*
X139991948Y-80751880D01*
X139990918Y-80748470D01*
X139961549Y-80693236D01*
X139932780Y-80637734D01*
X139930559Y-80634952D01*
X139928888Y-80631809D01*
X139889372Y-80583358D01*
X139850348Y-80534474D01*
X139845461Y-80529518D01*
X139845379Y-80529418D01*
X139845286Y-80529341D01*
X139843711Y-80527744D01*
X137317967Y-78002000D01*
X142898000Y-78002000D01*
X142898000Y-81669856D01*
M02*
