G04 #@! TF.FileFunction,Soldermask,Bot*
%FSLAX46Y46*%
G04 Gerber Fmt 4.6, Leading zero omitted, Abs format (unit mm)*
G04 Created by KiCad (PCBNEW 4.1.0-alpha+201606220816+6945~45~ubuntu14.04.1-product) date Thu Jun 23 11:48:27 2016*
%MOMM*%
%LPD*%
G01*
G04 APERTURE LIST*
%ADD10C,0.100000*%
%ADD11C,0.150000*%
%ADD12C,4.600000*%
%ADD13C,3.400000*%
%ADD14R,2.127200X2.127200*%
%ADD15O,2.127200X2.127200*%
%ADD16R,2.400000X2.400000*%
%ADD17C,2.400000*%
%ADD18C,2.099260*%
%ADD19R,2.099260X2.099260*%
%ADD20R,2.432000X2.127200*%
%ADD21O,2.432000X2.127200*%
%ADD22R,2.635200X2.635200*%
%ADD23C,1.400760*%
%ADD24C,2.100000*%
%ADD25C,2.800000*%
%ADD26R,2.800000X2.800000*%
%ADD27C,2.749500*%
%ADD28C,2.200000*%
%ADD29R,1.924000X2.224000*%
%ADD30O,1.924000X2.224000*%
%ADD31C,2.900000*%
G04 APERTURE END LIST*
D10*
D11*
X98298000Y-132207000D02*
X98298000Y-47688500D01*
X177736500Y-132207000D02*
X98298000Y-132207000D01*
X177736500Y-47688500D02*
X177736500Y-132207000D01*
X98298000Y-47688500D02*
X177736500Y-47688500D01*
D12*
X174117000Y-128397000D03*
X101727000Y-80073500D03*
X174117000Y-51117500D03*
X130175000Y-128270000D03*
X174117000Y-96964500D03*
D13*
X139160000Y-64984000D03*
X139160000Y-59984000D03*
X109760000Y-70184000D03*
X109760000Y-54784000D03*
D14*
X163576000Y-97917000D03*
D15*
X166116000Y-97917000D03*
X163576000Y-100457000D03*
X166116000Y-100457000D03*
X163576000Y-102997000D03*
X166116000Y-102997000D03*
X163576000Y-105537000D03*
X166116000Y-105537000D03*
X163576000Y-108077000D03*
X166116000Y-108077000D03*
D16*
X151384000Y-121666000D03*
D17*
X151384000Y-119126000D03*
D16*
X158305500Y-121666000D03*
D17*
X158305500Y-119126000D03*
D16*
X164973000Y-121666000D03*
D17*
X164973000Y-119126000D03*
D16*
X171767500Y-121666000D03*
D17*
X171767500Y-119126000D03*
D18*
X142748000Y-90487500D03*
D19*
X142748000Y-80327500D03*
D20*
X155702000Y-105981500D03*
D21*
X155702000Y-103441500D03*
X155702000Y-100901500D03*
X155702000Y-98361500D03*
D22*
X100520500Y-114363500D03*
D23*
X151701500Y-98171000D03*
X150431500Y-99441000D03*
X150431500Y-96901000D03*
D24*
X146113500Y-122047000D03*
X140113500Y-122047000D03*
X146113500Y-118047000D03*
X140113500Y-118047000D03*
D25*
X172974000Y-57777500D03*
D26*
X172974000Y-61277500D03*
D25*
X172974000Y-80320000D03*
D26*
X172974000Y-83820000D03*
D27*
X153311860Y-71691500D03*
X153311860Y-66611500D03*
X168633140Y-71691500D03*
X168633140Y-66611500D03*
D28*
X160972500Y-60769500D03*
X164072500Y-53269500D03*
D12*
X101600000Y-51308000D03*
D29*
X120713500Y-120840500D03*
D30*
X120713500Y-128460500D03*
X118173500Y-120840500D03*
X118173500Y-128460500D03*
X115633500Y-120840500D03*
X115633500Y-128460500D03*
X113093500Y-120840500D03*
X113093500Y-128460500D03*
X110553500Y-120840500D03*
X110553500Y-128460500D03*
X108013500Y-120840500D03*
X108013500Y-128460500D03*
X105473500Y-120840500D03*
X105473500Y-128460500D03*
X102933500Y-120840500D03*
X102933500Y-128460500D03*
D31*
X148722500Y-91361500D03*
D13*
X160972500Y-79311500D03*
D31*
X148722500Y-79361500D03*
D13*
X146772500Y-85311500D03*
M02*
