G04 #@! TF.GenerationSoftware,KiCad,Pcbnew,(2017-11-08 revision cd21218)-HEAD*
G04 #@! TF.CreationDate,2018-02-15T12:52:27+02:00*
G04 #@! TF.ProjectId,rfm69w_adapter,72666D3639775F616461707465722E6B,rev?*
G04 #@! TF.SameCoordinates,Original*
G04 #@! TF.FileFunction,Paste,Top*
G04 #@! TF.FilePolarity,Positive*
%FSLAX46Y46*%
G04 Gerber Fmt 4.6, Leading zero omitted, Abs format (unit mm)*
G04 Created by KiCad (PCBNEW (2017-11-08 revision cd21218)-HEAD) date Thu Feb 15 12:52:27 2018*
%MOMM*%
%LPD*%
G01*
G04 APERTURE LIST*
%ADD10R,0.750000X0.800000*%
%ADD11R,0.800000X0.750000*%
%ADD12R,0.500000X0.900000*%
%ADD13R,0.900000X0.500000*%
%ADD14R,1.400000X1.200000*%
%ADD15R,0.700000X0.250000*%
%ADD16R,0.250000X0.700000*%
%ADD17R,1.035000X1.035000*%
%ADD18R,0.600000X1.550000*%
%ADD19R,0.950000X2.100000*%
%ADD20R,0.900000X0.950000*%
G04 APERTURE END LIST*
D10*
X130750000Y-65500000D03*
X130750000Y-67000000D03*
D11*
X114000000Y-72250000D03*
X115500000Y-72250000D03*
D12*
X115500000Y-74000000D03*
X114000000Y-74000000D03*
X114000000Y-70500000D03*
X115500000Y-70500000D03*
D11*
X129750000Y-77500000D03*
X131250000Y-77500000D03*
D12*
X126750000Y-77250000D03*
X125250000Y-77250000D03*
X119000000Y-77250000D03*
X120500000Y-77250000D03*
D10*
X124637800Y-67044000D03*
X124637800Y-65544000D03*
X122500000Y-65500000D03*
X122500000Y-67000000D03*
D13*
X120750000Y-67250000D03*
X120750000Y-65750000D03*
D10*
X119000000Y-65750000D03*
X119000000Y-67250000D03*
D13*
X117250000Y-67250000D03*
X117250000Y-65750000D03*
D12*
X124750000Y-70250000D03*
X126250000Y-70250000D03*
X124780000Y-75350000D03*
X126280000Y-75350000D03*
D14*
X128600000Y-67100000D03*
X126400000Y-67100000D03*
X126400000Y-65400000D03*
X128600000Y-65400000D03*
D15*
X118600000Y-70500000D03*
X118600000Y-71000000D03*
X118600000Y-71500000D03*
X118600000Y-72000000D03*
X118600000Y-72500000D03*
X118600000Y-73000000D03*
X118600000Y-73500000D03*
X118600000Y-74000000D03*
D16*
X119250000Y-74650000D03*
X119750000Y-74650000D03*
X120250000Y-74650000D03*
X120750000Y-74650000D03*
X121250000Y-74650000D03*
X121750000Y-74650000D03*
X122250000Y-74650000D03*
X122750000Y-74650000D03*
D15*
X123400000Y-74000000D03*
X123400000Y-73500000D03*
X123400000Y-73000000D03*
X123400000Y-72500000D03*
X123400000Y-72000000D03*
X123400000Y-71500000D03*
X123400000Y-71000000D03*
X123400000Y-70500000D03*
D16*
X122750000Y-69850000D03*
X122250000Y-69850000D03*
X121750000Y-69850000D03*
X121250000Y-69850000D03*
X120750000Y-69850000D03*
X120250000Y-69850000D03*
X119750000Y-69850000D03*
X119250000Y-69850000D03*
D17*
X121862500Y-73112500D03*
X121862500Y-71387500D03*
X120137500Y-73112500D03*
X120137500Y-71387500D03*
D18*
X131655000Y-70050000D03*
X130385000Y-70050000D03*
X129115000Y-70050000D03*
X127845000Y-70050000D03*
X127845000Y-75450000D03*
X129115000Y-75450000D03*
X130385000Y-75450000D03*
X131655000Y-75450000D03*
D19*
X116475000Y-77250000D03*
X113525000Y-77250000D03*
D20*
X115000000Y-75725000D03*
D13*
X123000000Y-77500000D03*
X123000000Y-76000000D03*
M02*
