  0
SECTION
  2
HEADER
  9
$ACADVER
  1
AC1009
  9
$INSBASE
 10
0.0
 20
0.0
 30
0.0
  9
$EXTMIN
 10
0.0
 20
0.0
 30
0.0
  9
$EXTMAX
 10
0.0
 20
0.0
 30
0.0
  0
ENDSEC
  0
SECTION
  2
TABLES
  0
TABLE
  2
VPORT
 70
0
  0
ENDTAB
  0
TABLE
  2
LTYPE
 70
1
  0
LTYPE
  2
CONTINUOUS
 70
0
  3
Solid line
 72
65
 73
0
 40
0.0
  0
ENDTAB
  0
TABLE
  2
LAYER
 70
1
  0
LAYER
  2
0
 70
64
 62
7
  6
continuous
  0
ENDTAB
  0
TABLE
  2
STYLE
 70
1
  0
STYLE
  2
STANDARD
 70
0
 40
0
 41
1.0
 50
0.0
 71
0
 42
1
 3
ARIAL.TTF
 4

  0
ENDTAB
  0
TABLE
  2
VIEW
 70
0
  0
ENDTAB
  0
ENDSEC
  0
SECTION
  2
BLOCKS
  0
BLOCK
  8
0
  2
PART__FEATURE
 70
0
 10
0.0
 20
0.0
 30
0.0
  3
PART__FEATURE
  0
POLYLINE
  8
0
 62
0
 70
0
 66
1
 10
0.0
 20
0.0
 30
0.0
  0
VERTEX
  8
0
 10
142.925
 20
-69.665
 30
0.0
  0
VERTEX
  8
0
 10
142.95
 20
-69.665
 30
0.0
  0
SEQEND
  8
0
  0
POLYLINE
  8
0
 62
0
 70
0
 66
1
 10
0.0
 20
0.0
 30
0.0
  0
VERTEX
  8
0
 10
143.475
 20
-69.665
 30
0.0
  0
VERTEX
  8
0
 10
143.45
 20
-69.665
 30
0.0
  0
SEQEND
  8
0
  0
POLYLINE
  8
0
 62
0
 70
0
 66
1
 10
0.0
 20
0.0
 30
0.0
  0
VERTEX
  8
0
 10
143.475
 20
-69.915
 30
0.0
  0
VERTEX
  8
0
 10
143.45
 20
-69.915
 30
0.0
  0
SEQEND
  8
0
  0
POLYLINE
  8
0
 62
0
 70
0
 66
1
 10
0.0
 20
0.0
 30
0.0
  0
VERTEX
  8
0
 10
142.925
 20
-69.915
 30
0.0
  0
VERTEX
  8
0
 10
142.95
 20
-69.915
 30
0.0
  0
SEQEND
  8
0
  0
POLYLINE
  8
0
 62
0
 70
0
 66
1
 10
0.0
 20
0.0
 30
0.0
  0
VERTEX
  8
0
 10
142.925
 20
-70.485
 30
0.0
  0
VERTEX
  8
0
 10
142.95
 20
-70.485
 30
0.0
  0
SEQEND
  8
0
  0
POLYLINE
  8
0
 62
0
 70
0
 66
1
 10
0.0
 20
0.0
 30
0.0
  0
VERTEX
  8
0
 10
143.475
 20
-70.485
 30
0.0
  0
VERTEX
  8
0
 10
143.45
 20
-70.485
 30
0.0
  0
SEQEND
  8
0
  0
POLYLINE
  8
0
 62
0
 70
0
 66
1
 10
0.0
 20
0.0
 30
0.0
  0
VERTEX
  8
0
 10
143.475
 20
-70.735
 30
0.0
  0
VERTEX
  8
0
 10
143.45
 20
-70.735
 30
0.0
  0
SEQEND
  8
0
  0
POLYLINE
  8
0
 62
0
 70
0
 66
1
 10
0.0
 20
0.0
 30
0.0
  0
VERTEX
  8
0
 10
142.925
 20
-70.735
 30
0.0
  0
VERTEX
  8
0
 10
142.95
 20
-70.735
 30
0.0
  0
SEQEND
  8
0
  0
LINE
  8
0
 62
0
 10
143.475
 20
-69.915
 30
0.0
 11
143.475
 21
-69.665
 31
0.0
  0
LINE
  8
0
 62
0
 10
143.475
 20
-69.915
 30
0.0
 11
143.475
 21
-69.665
 31
0.0
  0
LINE
  8
0
 62
0
 10
143.45
 20
-69.665
 30
0.0
 11
142.95
 21
-69.665
 31
0.0
  0
LINE
  8
0
 62
0
 10
143.45
 20
-69.915
 30
0.0
 11
142.95
 21
-69.915
 31
0.0
  0
LINE
  8
0
 62
0
 10
142.925
 20
-69.915
 30
0.0
 11
142.925
 21
-69.665
 31
0.0
  0
LINE
  8
0
 62
0
 10
142.925
 20
-69.915
 30
0.0
 11
142.925
 21
-69.665
 31
0.0
  0
LINE
  8
0
 62
0
 10
143.455
 20
-70.485
 30
0.0
 11
143.455
 21
-69.915
 31
0.0
  0
LINE
  8
0
 62
0
 10
142.945
 20
-70.485
 30
0.0
 11
142.945
 21
-69.915
 31
0.0
  0
LINE
  8
0
 62
0
 10
142.945
 20
-70.485
 30
0.0
 11
142.945
 21
-69.915
 31
0.0
  0
LINE
  8
0
 62
0
 10
143.455
 20
-70.485
 30
0.0
 11
143.455
 21
-69.915
 31
0.0
  0
LINE
  8
0
 62
0
 10
143.45
 20
-70.485
 30
0.0
 11
142.95
 21
-70.485
 31
0.0
  0
LINE
  8
0
 62
0
 10
143.475
 20
-70.735
 30
0.0
 11
143.475
 21
-70.485
 31
0.0
  0
LINE
  8
0
 62
0
 10
143.475
 20
-70.735
 30
0.0
 11
143.475
 21
-70.485
 31
0.0
  0
LINE
  8
0
 62
0
 10
143.45
 20
-70.735
 30
0.0
 11
142.95
 21
-70.735
 31
0.0
  0
LINE
  8
0
 62
0
 10
142.925
 20
-70.735
 30
0.0
 11
142.925
 21
-70.485
 31
0.0
  0
LINE
  8
0
 62
0
 10
142.925
 20
-70.735
 30
0.0
 11
142.925
 21
-70.485
 31
0.0
  0
LINE
  8
0
 62
0
 10
143.45
 20
-69.915
 30
0.0
 11
143.45
 21
-69.665
 31
0.0
  0
LINE
  8
0
 62
0
 10
142.95
 20
-69.915
 30
0.0
 11
142.95
 21
-69.665
 31
0.0
  0
LINE
  8
0
 62
0
 10
142.97
 20
-70.485
 30
0.0
 11
142.97
 21
-69.915
 31
0.0
  0
LINE
  8
0
 62
0
 10
143.43
 20
-70.485
 30
0.0
 11
143.43
 21
-69.915
 31
0.0
  0
LINE
  8
0
 62
0
 10
143.45
 20
-70.735
 30
0.0
 11
143.45
 21
-70.485
 31
0.0
  0
LINE
  8
0
 62
0
 10
142.95
 20
-70.735
 30
0.0
 11
142.95
 21
-70.485
 31
0.0
  0
ENDBLK
  0
BLOCK
  8
0
  2
PART__FEATURE008
 70
0
 10
0.0
 20
0.0
 30
0.0
  3
PART__FEATURE008
  0
POLYLINE
  8
0
 62
0
 70
0
 66
1
 10
0.0
 20
0.0
 30
0.0
  0
VERTEX
  8
0
 10
142.075
 20
-70.835
 30
0.0
  0
VERTEX
  8
0
 10
142.075
 20
-70.815
 30
0.0
  0
SEQEND
  8
0
  0
POLYLINE
  8
0
 62
0
 70
0
 66
1
 10
0.0
 20
0.0
 30
0.0
  0
VERTEX
  8
0
 10
142.075
 20
-70.515
 30
0.0
  0
VERTEX
  8
0
 10
142.075
 20
-70.535
 30
0.0
  0
SEQEND
  8
0
  0
POLYLINE
  8
0
 62
0
 70
0
 66
1
 10
0.0
 20
0.0
 30
0.0
  0
VERTEX
  8
0
 10
141.525
 20
-70.835
 30
0.0
  0
VERTEX
  8
0
 10
141.525
 20
-70.815
 30
0.0
  0
SEQEND
  8
0
  0
POLYLINE
  8
0
 62
0
 70
0
 66
1
 10
0.0
 20
0.0
 30
0.0
  0
VERTEX
  8
0
 10
141.525
 20
-70.515
 30
0.0
  0
VERTEX
  8
0
 10
141.525
 20
-70.535
 30
0.0
  0
SEQEND
  8
0
  0
POLYLINE
  8
0
 62
0
 70
0
 66
1
 10
0.0
 20
0.0
 30
0.0
  0
VERTEX
  8
0
 10
142.075
 20
-70.085
 30
0.0
  0
VERTEX
  8
0
 10
142.075
 20
-70.065
 30
0.0
  0
SEQEND
  8
0
  0
POLYLINE
  8
0
 62
0
 70
0
 66
1
 10
0.0
 20
0.0
 30
0.0
  0
VERTEX
  8
0
 10
142.075
 20
-69.765
 30
0.0
  0
VERTEX
  8
0
 10
142.075
 20
-69.785
 30
0.0
  0
SEQEND
  8
0
  0
POLYLINE
  8
0
 62
0
 70
0
 66
1
 10
0.0
 20
0.0
 30
0.0
  0
VERTEX
  8
0
 10
141.525
 20
-70.085
 30
0.0
  0
VERTEX
  8
0
 10
141.525
 20
-70.065
 30
0.0
  0
SEQEND
  8
0
  0
POLYLINE
  8
0
 62
0
 70
0
 66
1
 10
0.0
 20
0.0
 30
0.0
  0
VERTEX
  8
0
 10
141.525
 20
-69.765
 30
0.0
  0
VERTEX
  8
0
 10
141.525
 20
-69.785
 30
0.0
  0
SEQEND
  8
0
  0
LINE
  8
0
 62
0
 10
142.075
 20
-70.835
 30
0.0
 11
141.525
 21
-70.835
 31
0.0
  0
LINE
  8
0
 62
0
 10
142.075
 20
-70.835
 30
0.0
 11
141.525
 21
-70.835
 31
0.0
  0
LINE
  8
0
 62
0
 10
142.075
 20
-70.815
 30
0.0
 11
142.075
 21
-70.535
 31
0.0
  0
LINE
  8
0
 62
0
 10
141.525
 20
-70.815
 30
0.0
 11
141.525
 21
-70.535
 31
0.0
  0
LINE
  8
0
 62
0
 10
142.075
 20
-70.515
 30
0.0
 11
142.075
 21
-70.085
 31
0.0
  0
LINE
  8
0
 62
0
 10
141.525
 20
-70.515
 30
0.0
 11
141.525
 21
-70.085
 31
0.0
  0
LINE
  8
0
 62
0
 10
142.075
 20
-70.065
 30
0.0
 11
142.075
 21
-69.785
 31
0.0
  0
LINE
  8
0
 62
0
 10
142.075
 20
-70.515
 30
0.0
 11
141.525
 21
-70.515
 31
0.0
  0
LINE
  8
0
 62
0
 10
142.075
 20
-70.085
 30
0.0
 11
141.525
 21
-70.085
 31
0.0
  0
LINE
  8
0
 62
0
 10
142.075
 20
-70.085
 30
0.0
 11
141.525
 21
-70.085
 31
0.0
  0
LINE
  8
0
 62
0
 10
141.525
 20
-70.065
 30
0.0
 11
141.525
 21
-69.785
 31
0.0
  0
LINE
  8
0
 62
0
 10
142.075
 20
-69.765
 30
0.0
 11
141.525
 21
-69.765
 31
0.0
  0
LINE
  8
0
 62
0
 10
142.075
 20
-69.765
 30
0.0
 11
141.525
 21
-69.765
 31
0.0
  0
LINE
  8
0
 62
0
 10
142.075
 20
-70.815
 30
0.0
 11
141.525
 21
-70.815
 31
0.0
  0
LINE
  8
0
 62
0
 10
142.075
 20
-70.535
 30
0.0
 11
141.525
 21
-70.535
 31
0.0
  0
LINE
  8
0
 62
0
 10
142.075
 20
-69.785
 30
0.0
 11
141.525
 21
-69.785
 31
0.0
  0
LINE
  8
0
 62
0
 10
142.075
 20
-70.065
 30
0.0
 11
141.525
 21
-70.065
 31
0.0
  0
ENDBLK
  0
BLOCK
  8
0
  2
PART__FEATURE011
 70
0
 10
0.0
 20
0.0
 30
0.0
  3
PART__FEATURE011
  0
POLYLINE
  8
0
 62
0
 70
0
 66
1
 10
0.0
 20
0.0
 30
0.0
  0
VERTEX
  8
0
 10
139.025
 20
-66.265
 30
0.0
  0
VERTEX
  8
0
 10
139.025
 20
-66.285
 30
0.0
  0
SEQEND
  8
0
  0
POLYLINE
  8
0
 62
0
 70
0
 66
1
 10
0.0
 20
0.0
 30
0.0
  0
VERTEX
  8
0
 10
139.025
 20
-66.585
 30
0.0
  0
VERTEX
  8
0
 10
139.025
 20
-66.565
 30
0.0
  0
SEQEND
  8
0
  0
POLYLINE
  8
0
 62
0
 70
0
 66
1
 10
0.0
 20
0.0
 30
0.0
  0
VERTEX
  8
0
 10
139.575
 20
-66.265
 30
0.0
  0
VERTEX
  8
0
 10
139.575
 20
-66.285
 30
0.0
  0
SEQEND
  8
0
  0
POLYLINE
  8
0
 62
0
 70
0
 66
1
 10
0.0
 20
0.0
 30
0.0
  0
VERTEX
  8
0
 10
139.575
 20
-66.585
 30
0.0
  0
VERTEX
  8
0
 10
139.575
 20
-66.565
 30
0.0
  0
SEQEND
  8
0
  0
POLYLINE
  8
0
 62
0
 70
0
 66
1
 10
0.0
 20
0.0
 30
0.0
  0
VERTEX
  8
0
 10
139.025
 20
-67.015
 30
0.0
  0
VERTEX
  8
0
 10
139.025
 20
-67.035
 30
0.0
  0
SEQEND
  8
0
  0
POLYLINE
  8
0
 62
0
 70
0
 66
1
 10
0.0
 20
0.0
 30
0.0
  0
VERTEX
  8
0
 10
139.025
 20
-67.335
 30
0.0
  0
VERTEX
  8
0
 10
139.025
 20
-67.315
 30
0.0
  0
SEQEND
  8
0
  0
POLYLINE
  8
0
 62
0
 70
0
 66
1
 10
0.0
 20
0.0
 30
0.0
  0
VERTEX
  8
0
 10
139.575
 20
-67.015
 30
0.0
  0
VERTEX
  8
0
 10
139.575
 20
-67.035
 30
0.0
  0
SEQEND
  8
0
  0
POLYLINE
  8
0
 62
0
 70
0
 66
1
 10
0.0
 20
0.0
 30
0.0
  0
VERTEX
  8
0
 10
139.575
 20
-67.335
 30
0.0
  0
VERTEX
  8
0
 10
139.575
 20
-67.315
 30
0.0
  0
SEQEND
  8
0
  0
LINE
  8
0
 62
0
 10
139.025
 20
-66.265
 30
0.0
 11
139.575
 21
-66.265
 31
0.0
  0
LINE
  8
0
 62
0
 10
139.025
 20
-66.265
 30
0.0
 11
139.575
 21
-66.265
 31
0.0
  0
LINE
  8
0
 62
0
 10
139.025
 20
-66.285
 30
0.0
 11
139.025
 21
-66.565
 31
0.0
  0
LINE
  8
0
 62
0
 10
139.575
 20
-66.285
 30
0.0
 11
139.575
 21
-66.565
 31
0.0
  0
LINE
  8
0
 62
0
 10
139.025
 20
-66.585
 30
0.0
 11
139.025
 21
-67.015
 31
0.0
  0
LINE
  8
0
 62
0
 10
139.575
 20
-66.585
 30
0.0
 11
139.575
 21
-67.015
 31
0.0
  0
LINE
  8
0
 62
0
 10
139.025
 20
-67.035
 30
0.0
 11
139.025
 21
-67.315
 31
0.0
  0
LINE
  8
0
 62
0
 10
139.025
 20
-66.585
 30
0.0
 11
139.575
 21
-66.585
 31
0.0
  0
LINE
  8
0
 62
0
 10
139.025
 20
-67.015
 30
0.0
 11
139.575
 21
-67.015
 31
0.0
  0
LINE
  8
0
 62
0
 10
139.025
 20
-67.015
 30
0.0
 11
139.575
 21
-67.015
 31
0.0
  0
LINE
  8
0
 62
0
 10
139.575
 20
-67.035
 30
0.0
 11
139.575
 21
-67.315
 31
0.0
  0
LINE
  8
0
 62
0
 10
139.025
 20
-67.335
 30
0.0
 11
139.575
 21
-67.335
 31
0.0
  0
LINE
  8
0
 62
0
 10
139.025
 20
-67.335
 30
0.0
 11
139.575
 21
-67.335
 31
0.0
  0
LINE
  8
0
 62
0
 10
139.025
 20
-66.285
 30
0.0
 11
139.575
 21
-66.285
 31
0.0
  0
LINE
  8
0
 62
0
 10
139.025
 20
-66.565
 30
0.0
 11
139.575
 21
-66.565
 31
0.0
  0
LINE
  8
0
 62
0
 10
139.025
 20
-67.315
 30
0.0
 11
139.575
 21
-67.315
 31
0.0
  0
LINE
  8
0
 62
0
 10
139.025
 20
-67.035
 30
0.0
 11
139.575
 21
-67.035
 31
0.0
  0
ENDBLK
  0
BLOCK
  8
0
  2
PART__FEATURE004
 70
0
 10
0.0
 20
0.0
 30
0.0
  3
PART__FEATURE004
  0
POLYLINE
  8
0
 62
0
 70
0
 66
1
 10
0.0
 20
0.0
 30
0.0
  0
VERTEX
  8
0
 10
149.265
 20
-54.975
 30
0.0
  0
VERTEX
  8
0
 10
149.265
 20
-54.95
 30
0.0
  0
SEQEND
  8
0
  0
POLYLINE
  8
0
 62
0
 70
0
 66
1
 10
0.0
 20
0.0
 30
0.0
  0
VERTEX
  8
0
 10
149.265
 20
-54.425
 30
0.0
  0
VERTEX
  8
0
 10
149.265
 20
-54.45
 30
0.0
  0
SEQEND
  8
0
  0
POLYLINE
  8
0
 62
0
 70
0
 66
1
 10
0.0
 20
0.0
 30
0.0
  0
VERTEX
  8
0
 10
149.515
 20
-54.975
 30
0.0
  0
VERTEX
  8
0
 10
149.515
 20
-54.95
 30
0.0
  0
SEQEND
  8
0
  0
POLYLINE
  8
0
 62
0
 70
0
 66
1
 10
0.0
 20
0.0
 30
0.0
  0
VERTEX
  8
0
 10
149.515
 20
-54.425
 30
0.0
  0
VERTEX
  8
0
 10
149.515
 20
-54.45
 30
0.0
  0
SEQEND
  8
0
  0
POLYLINE
  8
0
 62
0
 70
0
 66
1
 10
0.0
 20
0.0
 30
0.0
  0
VERTEX
  8
0
 10
150.085
 20
-54.975
 30
0.0
  0
VERTEX
  8
0
 10
150.085
 20
-54.95
 30
0.0
  0
SEQEND
  8
0
  0
POLYLINE
  8
0
 62
0
 70
0
 66
1
 10
0.0
 20
0.0
 30
0.0
  0
VERTEX
  8
0
 10
150.085
 20
-54.425
 30
0.0
  0
VERTEX
  8
0
 10
150.085
 20
-54.45
 30
0.0
  0
SEQEND
  8
0
  0
POLYLINE
  8
0
 62
0
 70
0
 66
1
 10
0.0
 20
0.0
 30
0.0
  0
VERTEX
  8
0
 10
150.335
 20
-54.975
 30
0.0
  0
VERTEX
  8
0
 10
150.335
 20
-54.95
 30
0.0
  0
SEQEND
  8
0
  0
POLYLINE
  8
0
 62
0
 70
0
 66
1
 10
0.0
 20
0.0
 30
0.0
  0
VERTEX
  8
0
 10
150.335
 20
-54.425
 30
0.0
  0
VERTEX
  8
0
 10
150.335
 20
-54.45
 30
0.0
  0
SEQEND
  8
0
  0
LINE
  8
0
 62
0
 10
149.515
 20
-54.975
 30
0.0
 11
149.265
 21
-54.975
 31
0.0
  0
LINE
  8
0
 62
0
 10
149.265
 20
-54.95
 30
0.0
 11
149.265
 21
-54.45
 31
0.0
  0
LINE
  8
0
 62
0
 10
149.515
 20
-54.95
 30
0.0
 11
149.515
 21
-54.45
 31
0.0
  0
LINE
  8
0
 62
0
 10
149.515
 20
-54.425
 30
0.0
 11
149.265
 21
-54.425
 31
0.0
  0
LINE
  8
0
 62
0
 10
150.085
 20
-54.955
 30
0.0
 11
149.515
 21
-54.955
 31
0.0
  0
LINE
  8
0
 62
0
 10
150.085
 20
-54.445
 30
0.0
 11
149.515
 21
-54.445
 31
0.0
  0
LINE
  8
0
 62
0
 10
150.085
 20
-54.95
 30
0.0
 11
150.085
 21
-54.45
 31
0.0
  0
LINE
  8
0
 62
0
 10
150.335
 20
-54.975
 30
0.0
 11
150.085
 21
-54.975
 31
0.0
  0
LINE
  8
0
 62
0
 10
150.335
 20
-54.95
 30
0.0
 11
150.335
 21
-54.45
 31
0.0
  0
LINE
  8
0
 62
0
 10
150.335
 20
-54.425
 30
0.0
 11
150.085
 21
-54.425
 31
0.0
  0
LINE
  8
0
 62
0
 10
149.515
 20
-54.95
 30
0.0
 11
149.265
 21
-54.95
 31
0.0
  0
LINE
  8
0
 62
0
 10
149.515
 20
-54.45
 30
0.0
 11
149.265
 21
-54.45
 31
0.0
  0
LINE
  8
0
 62
0
 10
150.085
 20
-54.93
 30
0.0
 11
149.515
 21
-54.93
 31
0.0
  0
LINE
  8
0
 62
0
 10
150.085
 20
-54.47
 30
0.0
 11
149.515
 21
-54.47
 31
0.0
  0
LINE
  8
0
 62
0
 10
150.335
 20
-54.95
 30
0.0
 11
150.085
 21
-54.95
 31
0.0
  0
LINE
  8
0
 62
0
 10
150.335
 20
-54.45
 30
0.0
 11
150.085
 21
-54.45
 31
0.0
  0
ENDBLK
  0
BLOCK
  8
0
  2
PART__FEATURE001
 70
0
 10
0.0
 20
0.0
 30
0.0
  3
PART__FEATURE001
  0
POLYLINE
  8
0
 62
0
 70
0
 66
1
 10
0.0
 20
0.0
 30
0.0
  0
VERTEX
  8
0
 10
147.165
 20
-67.075
 30
0.0
  0
VERTEX
  8
0
 10
147.165
 20
-67.05
 30
0.0
  0
SEQEND
  8
0
  0
POLYLINE
  8
0
 62
0
 70
0
 66
1
 10
0.0
 20
0.0
 30
0.0
  0
VERTEX
  8
0
 10
147.165
 20
-66.525
 30
0.0
  0
VERTEX
  8
0
 10
147.165
 20
-66.55
 30
0.0
  0
SEQEND
  8
0
  0
POLYLINE
  8
0
 62
0
 70
0
 66
1
 10
0.0
 20
0.0
 30
0.0
  0
VERTEX
  8
0
 10
147.415
 20
-67.075
 30
0.0
  0
VERTEX
  8
0
 10
147.415
 20
-67.05
 30
0.0
  0
SEQEND
  8
0
  0
POLYLINE
  8
0
 62
0
 70
0
 66
1
 10
0.0
 20
0.0
 30
0.0
  0
VERTEX
  8
0
 10
147.415
 20
-66.525
 30
0.0
  0
VERTEX
  8
0
 10
147.415
 20
-66.55
 30
0.0
  0
SEQEND
  8
0
  0
POLYLINE
  8
0
 62
0
 70
0
 66
1
 10
0.0
 20
0.0
 30
0.0
  0
VERTEX
  8
0
 10
147.985
 20
-67.075
 30
0.0
  0
VERTEX
  8
0
 10
147.985
 20
-67.05
 30
0.0
  0
SEQEND
  8
0
  0
POLYLINE
  8
0
 62
0
 70
0
 66
1
 10
0.0
 20
0.0
 30
0.0
  0
VERTEX
  8
0
 10
147.985
 20
-66.525
 30
0.0
  0
VERTEX
  8
0
 10
147.985
 20
-66.55
 30
0.0
  0
SEQEND
  8
0
  0
POLYLINE
  8
0
 62
0
 70
0
 66
1
 10
0.0
 20
0.0
 30
0.0
  0
VERTEX
  8
0
 10
148.235
 20
-67.075
 30
0.0
  0
VERTEX
  8
0
 10
148.235
 20
-67.05
 30
0.0
  0
SEQEND
  8
0
  0
POLYLINE
  8
0
 62
0
 70
0
 66
1
 10
0.0
 20
0.0
 30
0.0
  0
VERTEX
  8
0
 10
148.235
 20
-66.525
 30
0.0
  0
VERTEX
  8
0
 10
148.235
 20
-66.55
 30
0.0
  0
SEQEND
  8
0
  0
LINE
  8
0
 62
0
 10
147.415
 20
-67.075
 30
0.0
 11
147.165
 21
-67.075
 31
0.0
  0
LINE
  8
0
 62
0
 10
147.165
 20
-67.05
 30
0.0
 11
147.165
 21
-66.55
 31
0.0
  0
LINE
  8
0
 62
0
 10
147.415
 20
-67.05
 30
0.0
 11
147.415
 21
-66.55
 31
0.0
  0
LINE
  8
0
 62
0
 10
147.415
 20
-66.525
 30
0.0
 11
147.165
 21
-66.525
 31
0.0
  0
LINE
  8
0
 62
0
 10
147.985
 20
-67.055
 30
0.0
 11
147.415
 21
-67.055
 31
0.0
  0
LINE
  8
0
 62
0
 10
147.985
 20
-66.545
 30
0.0
 11
147.415
 21
-66.545
 31
0.0
  0
LINE
  8
0
 62
0
 10
147.985
 20
-67.05
 30
0.0
 11
147.985
 21
-66.55
 31
0.0
  0
LINE
  8
0
 62
0
 10
148.235
 20
-67.075
 30
0.0
 11
147.985
 21
-67.075
 31
0.0
  0
LINE
  8
0
 62
0
 10
148.235
 20
-67.05
 30
0.0
 11
148.235
 21
-66.55
 31
0.0
  0
LINE
  8
0
 62
0
 10
148.235
 20
-66.525
 30
0.0
 11
147.985
 21
-66.525
 31
0.0
  0
LINE
  8
0
 62
0
 10
147.415
 20
-67.05
 30
0.0
 11
147.165
 21
-67.05
 31
0.0
  0
LINE
  8
0
 62
0
 10
147.415
 20
-66.55
 30
0.0
 11
147.165
 21
-66.55
 31
0.0
  0
LINE
  8
0
 62
0
 10
147.985
 20
-67.03
 30
0.0
 11
147.415
 21
-67.03
 31
0.0
  0
LINE
  8
0
 62
0
 10
147.985
 20
-66.57
 30
0.0
 11
147.415
 21
-66.57
 31
0.0
  0
LINE
  8
0
 62
0
 10
148.235
 20
-67.05
 30
0.0
 11
147.985
 21
-67.05
 31
0.0
  0
LINE
  8
0
 62
0
 10
148.235
 20
-66.55
 30
0.0
 11
147.985
 21
-66.55
 31
0.0
  0
ENDBLK
  0
BLOCK
  8
0
  2
PART__FEATURE007
 70
0
 10
0.0
 20
0.0
 30
0.0
  3
PART__FEATURE007
  0
POLYLINE
  8
0
 62
0
 70
0
 66
1
 10
0.0
 20
0.0
 30
0.0
  0
VERTEX
  8
0
 10
145.375
 20
-54.725
 30
0.0
  0
VERTEX
  8
0
 10
145.355
 20
-54.725
 30
0.0
  0
SEQEND
  8
0
  0
POLYLINE
  8
0
 62
0
 70
0
 66
1
 10
0.0
 20
0.0
 30
0.0
  0
VERTEX
  8
0
 10
144.975
 20
-54.725
 30
0.0
  0
VERTEX
  8
0
 10
144.995
 20
-54.725
 30
0.0
  0
SEQEND
  8
0
  0
POLYLINE
  8
0
 62
0
 70
0
 66
1
 10
0.0
 20
0.0
 30
0.0
  0
VERTEX
  8
0
 10
145.375
 20
-53.875
 30
0.0
  0
VERTEX
  8
0
 10
145.355
 20
-53.875
 30
0.0
  0
SEQEND
  8
0
  0
POLYLINE
  8
0
 62
0
 70
0
 66
1
 10
0.0
 20
0.0
 30
0.0
  0
VERTEX
  8
0
 10
144.975
 20
-53.875
 30
0.0
  0
VERTEX
  8
0
 10
144.995
 20
-53.875
 30
0.0
  0
SEQEND
  8
0
  0
POLYLINE
  8
0
 62
0
 70
0
 66
1
 10
0.0
 20
0.0
 30
0.0
  0
VERTEX
  8
0
 10
144.225
 20
-54.725
 30
0.0
  0
VERTEX
  8
0
 10
144.205
 20
-54.725
 30
0.0
  0
SEQEND
  8
0
  0
POLYLINE
  8
0
 62
0
 70
0
 66
1
 10
0.0
 20
0.0
 30
0.0
  0
VERTEX
  8
0
 10
143.825
 20
-54.725
 30
0.0
  0
VERTEX
  8
0
 10
143.845
 20
-54.725
 30
0.0
  0
SEQEND
  8
0
  0
POLYLINE
  8
0
 62
0
 70
0
 66
1
 10
0.0
 20
0.0
 30
0.0
  0
VERTEX
  8
0
 10
144.225
 20
-53.875
 30
0.0
  0
VERTEX
  8
0
 10
144.205
 20
-53.875
 30
0.0
  0
SEQEND
  8
0
  0
POLYLINE
  8
0
 62
0
 70
0
 66
1
 10
0.0
 20
0.0
 30
0.0
  0
VERTEX
  8
0
 10
143.825
 20
-53.875
 30
0.0
  0
VERTEX
  8
0
 10
143.845
 20
-53.875
 30
0.0
  0
SEQEND
  8
0
  0
LINE
  8
0
 62
0
 10
145.375
 20
-54.725
 30
0.0
 11
145.375
 21
-53.875
 31
0.0
  0
LINE
  8
0
 62
0
 10
145.375
 20
-54.725
 30
0.0
 11
145.375
 21
-53.875
 31
0.0
  0
LINE
  8
0
 62
0
 10
145.355
 20
-54.725
 30
0.0
 11
144.995
 21
-54.725
 31
0.0
  0
LINE
  8
0
 62
0
 10
145.355
 20
-53.875
 30
0.0
 11
144.995
 21
-53.875
 31
0.0
  0
LINE
  8
0
 62
0
 10
144.975
 20
-54.725
 30
0.0
 11
144.975
 21
-53.875
 31
0.0
  0
LINE
  8
0
 62
0
 10
144.975
 20
-54.725
 30
0.0
 11
144.225
 21
-54.725
 31
0.0
  0
LINE
  8
0
 62
0
 10
144.975
 20
-53.875
 30
0.0
 11
144.225
 21
-53.875
 31
0.0
  0
LINE
  8
0
 62
0
 10
144.225
 20
-53.875
 30
0.0
 11
144.225
 21
-54.725
 31
0.0
  0
LINE
  8
0
 62
0
 10
144.205
 20
-54.725
 30
0.0
 11
143.845
 21
-54.725
 31
0.0
  0
LINE
  8
0
 62
0
 10
144.205
 20
-53.875
 30
0.0
 11
143.845
 21
-53.875
 31
0.0
  0
LINE
  8
0
 62
0
 10
144.225
 20
-54.725
 30
0.0
 11
144.225
 21
-53.875
 31
0.0
  0
LINE
  8
0
 62
0
 10
143.825
 20
-54.725
 30
0.0
 11
143.825
 21
-53.875
 31
0.0
  0
LINE
  8
0
 62
0
 10
143.825
 20
-54.725
 30
0.0
 11
143.825
 21
-53.875
 31
0.0
  0
LINE
  8
0
 62
0
 10
145.355
 20
-54.725
 30
0.0
 11
145.355
 21
-53.875
 31
0.0
  0
LINE
  8
0
 62
0
 10
144.995
 20
-54.725
 30
0.0
 11
144.995
 21
-53.875
 31
0.0
  0
LINE
  8
0
 62
0
 10
144.205
 20
-54.725
 30
0.0
 11
144.205
 21
-53.875
 31
0.0
  0
LINE
  8
0
 62
0
 10
143.845
 20
-54.725
 30
0.0
 11
143.845
 21
-53.875
 31
0.0
  0
ENDBLK
  0
BLOCK
  8
0
  2
PART__FEATURE006
 70
0
 10
0.0
 20
0.0
 30
0.0
  3
PART__FEATURE006
  0
POLYLINE
  8
0
 62
0
 70
0
 66
1
 10
0.0
 20
0.0
 30
0.0
  0
VERTEX
  8
0
 10
139.775
 20
-58.235
 30
0.0
  0
VERTEX
  8
0
 10
139.75
 20
-58.235
 30
0.0
  0
SEQEND
  8
0
  0
POLYLINE
  8
0
 62
0
 70
0
 66
1
 10
0.0
 20
0.0
 30
0.0
  0
VERTEX
  8
0
 10
139.225
 20
-58.235
 30
0.0
  0
VERTEX
  8
0
 10
139.25
 20
-58.235
 30
0.0
  0
SEQEND
  8
0
  0
POLYLINE
  8
0
 62
0
 70
0
 66
1
 10
0.0
 20
0.0
 30
0.0
  0
VERTEX
  8
0
 10
139.225
 20
-57.985
 30
0.0
  0
VERTEX
  8
0
 10
139.25
 20
-57.985
 30
0.0
  0
SEQEND
  8
0
  0
POLYLINE
  8
0
 62
0
 70
0
 66
1
 10
0.0
 20
0.0
 30
0.0
  0
VERTEX
  8
0
 10
139.775
 20
-57.985
 30
0.0
  0
VERTEX
  8
0
 10
139.75
 20
-57.985
 30
0.0
  0
SEQEND
  8
0
  0
POLYLINE
  8
0
 62
0
 70
0
 66
1
 10
0.0
 20
0.0
 30
0.0
  0
VERTEX
  8
0
 10
139.775
 20
-57.415
 30
0.0
  0
VERTEX
  8
0
 10
139.75
 20
-57.415
 30
0.0
  0
SEQEND
  8
0
  0
POLYLINE
  8
0
 62
0
 70
0
 66
1
 10
0.0
 20
0.0
 30
0.0
  0
VERTEX
  8
0
 10
139.225
 20
-57.415
 30
0.0
  0
VERTEX
  8
0
 10
139.25
 20
-57.415
 30
0.0
  0
SEQEND
  8
0
  0
POLYLINE
  8
0
 62
0
 70
0
 66
1
 10
0.0
 20
0.0
 30
0.0
  0
VERTEX
  8
0
 10
139.225
 20
-57.165
 30
0.0
  0
VERTEX
  8
0
 10
139.25
 20
-57.165
 30
0.0
  0
SEQEND
  8
0
  0
POLYLINE
  8
0
 62
0
 70
0
 66
1
 10
0.0
 20
0.0
 30
0.0
  0
VERTEX
  8
0
 10
139.775
 20
-57.165
 30
0.0
  0
VERTEX
  8
0
 10
139.75
 20
-57.165
 30
0.0
  0
SEQEND
  8
0
  0
LINE
  8
0
 62
0
 10
139.225
 20
-57.985
 30
0.0
 11
139.225
 21
-58.235
 31
0.0
  0
LINE
  8
0
 62
0
 10
139.225
 20
-57.985
 30
0.0
 11
139.225
 21
-58.235
 31
0.0
  0
LINE
  8
0
 62
0
 10
139.25
 20
-58.235
 30
0.0
 11
139.75
 21
-58.235
 31
0.0
  0
LINE
  8
0
 62
0
 10
139.25
 20
-57.985
 30
0.0
 11
139.75
 21
-57.985
 31
0.0
  0
LINE
  8
0
 62
0
 10
139.775
 20
-57.985
 30
0.0
 11
139.775
 21
-58.235
 31
0.0
  0
LINE
  8
0
 62
0
 10
139.245
 20
-57.415
 30
0.0
 11
139.245
 21
-57.985
 31
0.0
  0
LINE
  8
0
 62
0
 10
139.755
 20
-57.415
 30
0.0
 11
139.755
 21
-57.985
 31
0.0
  0
LINE
  8
0
 62
0
 10
139.755
 20
-57.415
 30
0.0
 11
139.755
 21
-57.985
 31
0.0
  0
LINE
  8
0
 62
0
 10
139.245
 20
-57.415
 30
0.0
 11
139.245
 21
-57.985
 31
0.0
  0
LINE
  8
0
 62
0
 10
139.25
 20
-57.415
 30
0.0
 11
139.75
 21
-57.415
 31
0.0
  0
LINE
  8
0
 62
0
 10
139.225
 20
-57.165
 30
0.0
 11
139.225
 21
-57.415
 31
0.0
  0
LINE
  8
0
 62
0
 10
139.225
 20
-57.165
 30
0.0
 11
139.225
 21
-57.415
 31
0.0
  0
LINE
  8
0
 62
0
 10
139.25
 20
-57.165
 30
0.0
 11
139.75
 21
-57.165
 31
0.0
  0
LINE
  8
0
 62
0
 10
139.775
 20
-57.165
 30
0.0
 11
139.775
 21
-57.415
 31
0.0
  0
LINE
  8
0
 62
0
 10
139.25
 20
-57.985
 30
0.0
 11
139.25
 21
-58.235
 31
0.0
  0
LINE
  8
0
 62
0
 10
139.75
 20
-57.985
 30
0.0
 11
139.75
 21
-58.235
 31
0.0
  0
LINE
  8
0
 62
0
 10
139.73
 20
-57.415
 30
0.0
 11
139.73
 21
-57.985
 31
0.0
  0
LINE
  8
0
 62
0
 10
139.27
 20
-57.415
 30
0.0
 11
139.27
 21
-57.985
 31
0.0
  0
LINE
  8
0
 62
0
 10
139.25
 20
-57.165
 30
0.0
 11
139.25
 21
-57.415
 31
0.0
  0
LINE
  8
0
 62
0
 10
139.75
 20
-57.165
 30
0.0
 11
139.75
 21
-57.415
 31
0.0
  0
ENDBLK
  0
BLOCK
  8
0
  2
PART__FEATURE003
 70
0
 10
0.0
 20
0.0
 30
0.0
  3
PART__FEATURE003
  0
POLYLINE
  8
0
 62
0
 70
0
 66
1
 10
0.0
 20
0.0
 30
0.0
  0
VERTEX
  8
0
 10
150.335
 20
-66.525
 30
0.0
  0
VERTEX
  8
0
 10
150.335
 20
-66.55
 30
0.0
  0
SEQEND
  8
0
  0
POLYLINE
  8
0
 62
0
 70
0
 66
1
 10
0.0
 20
0.0
 30
0.0
  0
VERTEX
  8
0
 10
150.335
 20
-67.075
 30
0.0
  0
VERTEX
  8
0
 10
150.335
 20
-67.05
 30
0.0
  0
SEQEND
  8
0
  0
POLYLINE
  8
0
 62
0
 70
0
 66
1
 10
0.0
 20
0.0
 30
0.0
  0
VERTEX
  8
0
 10
150.085
 20
-66.525
 30
0.0
  0
VERTEX
  8
0
 10
150.085
 20
-66.55
 30
0.0
  0
SEQEND
  8
0
  0
POLYLINE
  8
0
 62
0
 70
0
 66
1
 10
0.0
 20
0.0
 30
0.0
  0
VERTEX
  8
0
 10
150.085
 20
-67.075
 30
0.0
  0
VERTEX
  8
0
 10
150.085
 20
-67.05
 30
0.0
  0
SEQEND
  8
0
  0
POLYLINE
  8
0
 62
0
 70
0
 66
1
 10
0.0
 20
0.0
 30
0.0
  0
VERTEX
  8
0
 10
149.515
 20
-66.525
 30
0.0
  0
VERTEX
  8
0
 10
149.515
 20
-66.55
 30
0.0
  0
SEQEND
  8
0
  0
POLYLINE
  8
0
 62
0
 70
0
 66
1
 10
0.0
 20
0.0
 30
0.0
  0
VERTEX
  8
0
 10
149.515
 20
-67.075
 30
0.0
  0
VERTEX
  8
0
 10
149.515
 20
-67.05
 30
0.0
  0
SEQEND
  8
0
  0
POLYLINE
  8
0
 62
0
 70
0
 66
1
 10
0.0
 20
0.0
 30
0.0
  0
VERTEX
  8
0
 10
149.265
 20
-66.525
 30
0.0
  0
VERTEX
  8
0
 10
149.265
 20
-66.55
 30
0.0
  0
SEQEND
  8
0
  0
POLYLINE
  8
0
 62
0
 70
0
 66
1
 10
0.0
 20
0.0
 30
0.0
  0
VERTEX
  8
0
 10
149.265
 20
-67.075
 30
0.0
  0
VERTEX
  8
0
 10
149.265
 20
-67.05
 30
0.0
  0
SEQEND
  8
0
  0
LINE
  8
0
 62
0
 10
150.085
 20
-66.525
 30
0.0
 11
150.335
 21
-66.525
 31
0.0
  0
LINE
  8
0
 62
0
 10
150.335
 20
-66.55
 30
0.0
 11
150.335
 21
-67.05
 31
0.0
  0
LINE
  8
0
 62
0
 10
150.085
 20
-66.55
 30
0.0
 11
150.085
 21
-67.05
 31
0.0
  0
LINE
  8
0
 62
0
 10
150.085
 20
-67.075
 30
0.0
 11
150.335
 21
-67.075
 31
0.0
  0
LINE
  8
0
 62
0
 10
150.085
 20
-67.075
 30
0.0
 11
150.335
 21
-67.075
 31
0.0
  0
LINE
  8
0
 62
0
 10
149.515
 20
-66.545
 30
0.0
 11
150.085
 21
-66.545
 31
0.0
  0
LINE
  8
0
 62
0
 10
149.515
 20
-67.055
 30
0.0
 11
150.085
 21
-67.055
 31
0.0
  0
LINE
  8
0
 62
0
 10
149.515
 20
-66.545
 30
0.0
 11
150.085
 21
-66.545
 31
0.0
  0
LINE
  8
0
 62
0
 10
149.515
 20
-66.55
 30
0.0
 11
149.515
 21
-67.05
 31
0.0
  0
LINE
  8
0
 62
0
 10
149.265
 20
-66.525
 30
0.0
 11
149.515
 21
-66.525
 31
0.0
  0
LINE
  8
0
 62
0
 10
149.265
 20
-66.55
 30
0.0
 11
149.265
 21
-67.05
 31
0.0
  0
LINE
  8
0
 62
0
 10
149.265
 20
-67.075
 30
0.0
 11
149.515
 21
-67.075
 31
0.0
  0
LINE
  8
0
 62
0
 10
149.265
 20
-67.075
 30
0.0
 11
149.515
 21
-67.075
 31
0.0
  0
LINE
  8
0
 62
0
 10
150.085
 20
-66.55
 30
0.0
 11
150.335
 21
-66.55
 31
0.0
  0
LINE
  8
0
 62
0
 10
150.085
 20
-67.05
 30
0.0
 11
150.335
 21
-67.05
 31
0.0
  0
LINE
  8
0
 62
0
 10
149.515
 20
-66.57
 30
0.0
 11
150.085
 21
-66.57
 31
0.0
  0
LINE
  8
0
 62
0
 10
149.515
 20
-67.03
 30
0.0
 11
150.085
 21
-67.03
 31
0.0
  0
LINE
  8
0
 62
0
 10
149.265
 20
-66.55
 30
0.0
 11
149.515
 21
-66.55
 31
0.0
  0
LINE
  8
0
 62
0
 10
149.265
 20
-67.05
 30
0.0
 11
149.515
 21
-67.05
 31
0.0
  0
ENDBLK
  0
BLOCK
  8
0
  2
PART__FEATURE015
 70
0
 10
0.0
 20
0.0
 30
0.0
  3
PART__FEATURE015
  0
POLYLINE
  8
0
 62
0
 70
0
 66
1
 10
0.0
 20
0.0
 30
0.0
  0
VERTEX
  8
0
 10
149.992672437
 20
-59.147663
 30
0.0
  0
VERTEX
  8
0
 10
149.942672437
 20
-59.147663
 30
0.0
  0
VERTEX
  8
0
 10
149.892672437
 20
-59.147663
 30
0.0
  0
VERTEX
  8
0
 10
149.842672437
 20
-59.147663
 30
0.0
  0
VERTEX
  8
0
 10
149.792672437
 20
-59.147663
 30
0.0
  0
VERTEX
  8
0
 10
149.742672437
 20
-59.147663
 30
0.0
  0
VERTEX
  8
0
 10
149.692672437
 20
-59.147663
 30
0.0
  0
VERTEX
  8
0
 10
149.642672437
 20
-59.147663
 30
0.0
  0
VERTEX
  8
0
 10
149.592672437
 20
-59.147663
 30
0.0
  0
VERTEX
  8
0
 10
149.542672437
 20
-59.147663
 30
0.0
  0
VERTEX
  8
0
 10
149.492672437
 20
-59.147663
 30
0.0
  0
VERTEX
  8
0
 10
149.442672437
 20
-59.147663
 30
0.0
  0
VERTEX
  8
0
 10
149.392672437
 20
-59.147663
 30
0.0
  0
VERTEX
  8
0
 10
149.342672437
 20
-59.147663
 30
0.0
  0
VERTEX
  8
0
 10
149.292672437
 20
-59.147663
 30
0.0
  0
VERTEX
  8
0
 10
149.242672437
 20
-59.147663
 30
0.0
  0
VERTEX
  8
0
 10
149.192672437
 20
-59.147663
 30
0.0
  0
VERTEX
  8
0
 10
149.142672437
 20
-59.147663
 30
0.0
  0
VERTEX
  8
0
 10
149.092672437
 20
-59.147663
 30
0.0
  0
VERTEX
  8
0
 10
149.042672437
 20
-59.147663
 30
0.0
  0
VERTEX
  8
0
 10
148.997685
 20
-59.147663
 30
0.0
  0
SEQEND
  8
0
  0
POLYLINE
  8
0
 62
0
 70
0
 66
1
 10
0.0
 20
0.0
 30
0.0
  0
VERTEX
  8
0
 10
154.202697563
 20
-59.147663
 30
0.0
  0
VERTEX
  8
0
 10
154.252697563
 20
-59.147663
 30
0.0
  0
VERTEX
  8
0
 10
154.302697563
 20
-59.147663
 30
0.0
  0
VERTEX
  8
0
 10
154.352697563
 20
-59.147663
 30
0.0
  0
VERTEX
  8
0
 10
154.402697563
 20
-59.147663
 30
0.0
  0
VERTEX
  8
0
 10
154.452697563
 20
-59.147663
 30
0.0
  0
VERTEX
  8
0
 10
154.502697563
 20
-59.147663
 30
0.0
  0
VERTEX
  8
0
 10
154.552697563
 20
-59.147663
 30
0.0
  0
VERTEX
  8
0
 10
154.602697563
 20
-59.147663
 30
0.0
  0
VERTEX
  8
0
 10
154.652697563
 20
-59.147663
 30
0.0
  0
VERTEX
  8
0
 10
154.702697563
 20
-59.147663
 30
0.0
  0
VERTEX
  8
0
 10
154.752697563
 20
-59.147663
 30
0.0
  0
VERTEX
  8
0
 10
154.802697563
 20
-59.147663
 30
0.0
  0
VERTEX
  8
0
 10
154.852697563
 20
-59.147663
 30
0.0
  0
VERTEX
  8
0
 10
154.902697563
 20
-59.147663
 30
0.0
  0
VERTEX
  8
0
 10
154.952697563
 20
-59.147663
 30
0.0
  0
VERTEX
  8
0
 10
155.002697563
 20
-59.147663
 30
0.0
  0
VERTEX
  8
0
 10
155.052697563
 20
-59.147663
 30
0.0
  0
VERTEX
  8
0
 10
155.102697563
 20
-59.147663
 30
0.0
  0
VERTEX
  8
0
 10
155.152697563
 20
-59.147663
 30
0.0
  0
VERTEX
  8
0
 10
155.197685
 20
-59.147663
 30
0.0
  0
SEQEND
  8
0
  0
ARC
  8
0
 62
0
 10
147.347685
 20
-58.147663
 30
0.0
 40
0.5
 50
-0.0
 51
-180.0
  0
ARC
  8
0
 62
0
 10
147.347685
 20
-63.147663
 30
0.0
 40
0.5
 50
-0.0
 51
-180.0
  0
ARC
  8
0
 62
0
 10
147.347685
 20
-63.147663
 30
0.0
 40
0.9
 50
-180.0
 51
-0.0
  0
ARC
  8
0
 62
0
 10
147.347685
 20
-63.147663
 30
0.0
 40
0.9
 50
-180.0
 51
-90.0
  0
ARC
  8
0
 62
0
 10
147.347685
 20
-63.147663
 30
0.0
 40
0.9
 50
-80.4059317731
 51
-0.0
  0
ARC
  8
0
 62
0
 10
147.347685
 20
-58.147663
 30
0.0
 40
0.9
 50
-180.0
 51
-0.0
  0
ARC
  8
0
 62
0
 10
147.347685
 20
-58.147663
 30
0.0
 40
0.9
 50
-180.0
 51
-90.0
  0
ARC
  8
0
 62
0
 10
147.347685
 20
-58.147663
 30
0.0
 40
0.9
 50
-80.4059317731
 51
-0.0
  0
ARC
  8
0
 62
0
 10
152.097685
 20
-59.147663
 30
0.0
 40
3.1
 50
-180.0
 51
-0.0
  0
ARC
  8
0
 62
0
 10
141.257685
 20
-66.597663
 30
0.0
 40
0.450000000002
 50
90.0
 51
92.5473181826
  0
ARC
  8
0
 62
0
 10
141.257685
 20
-66.597663
 30
0.0
 40
0.45
 50
-90.0
 51
90.0
  0
ARC
  8
0
 62
0
 10
141.257685
 20
-64.597663
 30
0.0
 40
0.450000000002
 50
90.0
 51
92.5473181826
  0
ARC
  8
0
 62
0
 10
141.257685
 20
-64.597663
 30
0.0
 40
0.45
 50
-90.0
 51
90.0
  0
ARC
  8
0
 62
0
 10
141.257685
 20
-62.597663
 30
0.0
 40
0.450000000016
 50
90.0000000001
 51
92.5473181825
  0
ARC
  8
0
 62
0
 10
141.257685
 20
-62.597663
 30
0.0
 40
0.45
 50
-90.0
 51
90.0
  0
ARC
  8
0
 62
0
 10
141.257685
 20
-60.597663
 30
0.0
 40
0.450000000016
 50
90.0000000001
 51
92.5473181825
  0
ARC
  8
0
 62
0
 10
141.257685
 20
-60.597663
 30
0.0
 40
0.45
 50
-90.0
 51
90.0
  0
ARC
  8
0
 62
0
 10
141.257685
 20
-58.597663
 30
0.0
 40
0.450000000016
 50
90.0000000001
 51
92.5473181825
  0
ARC
  8
0
 62
0
 10
141.257685
 20
-58.597663
 30
0.0
 40
0.45
 50
-90.0
 51
90.0
  0
ARC
  8
0
 62
0
 10
141.257685
 20
-56.597663
 30
0.0
 40
0.450000000016
 50
90.0000000001
 51
92.5473181825
  0
ARC
  8
0
 62
0
 10
141.257685
 20
-56.597663
 30
0.0
 40
0.45
 50
-90.0
 51
90.0
  0
ARC
  8
0
 62
0
 10
141.257685
 20
-54.597663
 30
0.0
 40
0.450000000016
 50
90.0000000001
 51
92.5473181825
  0
ARC
  8
0
 62
0
 10
141.257685
 20
-54.597663
 30
0.0
 40
0.45
 50
-90.0
 51
90.0
  0
LINE
  8
0
 62
0
 10
148.97866978
 20
-65.0008357325
 30
0.0
 11
148.97866978
 21
-66.6008357325
 31
0.0
  0
LINE
  8
0
 62
0
 10
148.159547132
 20
-67.1917041209
 30
0.0
 11
148.159547132
 21
-67.9917041209
 31
0.0
  0
LINE
  8
0
 62
0
 10
151.493477288
 20
-66.7343361763
 30
0.0
 11
153.093477288
 21
-66.7343361763
 31
0.0
  0
LINE
  8
0
 62
0
 10
144.547685
 20
-65.147663
 30
0.0
 11
144.547685
 21
-67.147663
 31
0.0
  0
LINE
  8
0
 62
0
 10
144.547685
 20
-67.147663
 30
0.0
 11
145.847685
 21
-67.147663
 31
0.0
  0
LINE
  8
0
 62
0
 10
145.847685
 20
-65.147663
 30
0.0
 11
145.847685
 21
-60.147663
 31
0.0
  0
LINE
  8
0
 62
0
 10
143.047685
 20
-60.147663
 30
0.0
 11
143.047685
 21
-55.097663
 31
0.0
  0
LINE
  8
0
 62
0
 10
143.047685
 20
-55.097663
 30
0.0
 11
144.447685
 21
-55.097663
 31
0.0
  0
LINE
  8
0
 62
0
 10
144.447685
 20
-55.097663
 30
0.0
 11
144.447685
 21
-54.947663
 31
0.0
  0
LINE
  8
0
 62
0
 10
144.447685
 20
-54.947663
 30
0.0
 11
142.897685
 21
-54.947663
 31
0.0
  0
LINE
  8
0
 62
0
 10
142.897685
 20
-60.147663
 30
0.0
 11
142.897685
 21
-65.147663
 31
0.0
  0
LINE
  8
0
 62
0
 10
142.897685
 20
-66.347663
 30
0.0
 11
144.447685
 21
-66.347663
 31
0.0
  0
LINE
  8
0
 62
0
 10
144.447685
 20
-66.347663
 30
0.0
 11
144.447685
 21
-66.197663
 31
0.0
  0
LINE
  8
0
 62
0
 10
144.447685
 20
-66.197663
 30
0.0
 11
143.047685
 21
-66.197663
 31
0.0
  0
LINE
  8
0
 62
0
 10
143.047685
 20
-66.197663
 30
0.0
 11
143.047685
 21
-65.147663
 31
0.0
  0
LINE
  8
0
 62
0
 10
144.547685
 20
-58.847663
 30
0.0
 11
145.847685
 21
-58.847663
 31
0.0
  0
LINE
  8
0
 62
0
 10
145.847685
 20
-58.847663
 30
0.0
 11
145.847685
 21
-54.147663
 31
0.0
  0
LINE
  8
0
 62
0
 10
145.847685
 20
-54.147663
 30
0.0
 11
144.547685
 21
-54.147663
 31
0.0
  0
LINE
  8
0
 62
0
 10
141.247685
 20
-65.797663
 30
0.0
 11
141.247685
 21
-65.397663
 31
0.0
  0
LINE
  8
0
 62
0
 10
141.247685
 20
-63.797663
 30
0.0
 11
141.247685
 21
-63.397663
 31
0.0
  0
LINE
  8
0
 62
0
 10
141.247685
 20
-61.797663
 30
0.0
 11
141.247685
 21
-61.397663
 31
0.0
  0
LINE
  8
0
 62
0
 10
141.247685
 20
-59.797663
 30
0.0
 11
141.247685
 21
-59.397663
 31
0.0
  0
LINE
  8
0
 62
0
 10
141.247685
 20
-57.797663
 30
0.0
 11
141.247685
 21
-57.397663
 31
0.0
  0
LINE
  8
0
 62
0
 10
141.247685
 20
-55.797663
 30
0.0
 11
141.247685
 21
-55.397663
 31
0.0
  0
LINE
  8
0
 62
0
 10
141.247685
 20
-53.797663
 30
0.0
 11
141.247685
 21
-52.597663
 31
0.0
  0
LINE
  8
0
 62
0
 10
157.147685
 20
-52.597663
 30
0.0
 11
141.247685
 21
-52.597663
 31
0.0
  0
LINE
  8
0
 62
0
 10
157.147685
 20
-53.797663
 30
0.0
 11
157.147685
 21
-52.597663
 31
0.0
  0
LINE
  8
0
 62
0
 10
157.147685
 20
-55.797663
 30
0.0
 11
157.147685
 21
-55.397663
 31
0.0
  0
LINE
  8
0
 62
0
 10
157.147685
 20
-57.797663
 30
0.0
 11
157.147685
 21
-57.397663
 31
0.0
  0
LINE
  8
0
 62
0
 10
157.147685
 20
-59.797663
 30
0.0
 11
157.147685
 21
-59.397663
 31
0.0
  0
LINE
  8
0
 62
0
 10
157.147685
 20
-61.797663
 30
0.0
 11
157.147685
 21
-61.397663
 31
0.0
  0
LINE
  8
0
 62
0
 10
157.147685
 20
-63.797663
 30
0.0
 11
157.147685
 21
-63.397663
 31
0.0
  0
LINE
  8
0
 62
0
 10
157.147685
 20
-65.797663
 30
0.0
 11
157.147685
 21
-65.397663
 31
0.0
  0
LINE
  8
0
 62
0
 10
157.147685
 20
-68.697663
 30
0.0
 11
157.147685
 21
-67.397663
 31
0.0
  0
LINE
  8
0
 62
0
 10
157.147685
 20
-68.697663
 30
0.0
 11
141.247685
 21
-68.697663
 31
0.0
  0
LINE
  8
0
 62
0
 10
141.247685
 20
-68.697663
 30
0.0
 11
141.247685
 21
-67.397663
 31
0.0
  0
ARC
  8
0
 62
0
 10
152.097685
 20
-59.147663
 30
0.0
 40
3.1
 50
0.0
 51
180.0
  0
ARC
  8
0
 62
0
 10
147.347685
 20
-58.147663
 30
0.0
 40
0.9
 50
90.0
 51
180.0
  0
ARC
  8
0
 62
0
 10
147.347685
 20
-63.147663
 30
0.0
 40
0.9
 50
90.0
 51
180.0
  0
LINE
  8
0
 62
0
 10
149.874283021
 20
-53.8748912881
 30
0.0
 11
151.474283021
 21
-53.8748912881
 31
0.0
  0
LINE
  8
0
 62
0
 10
151.474426258
 20
-67.9917041209
 30
0.0
 11
153.074426258
 21
-67.9917041209
 31
0.0
  0
LINE
  8
0
 62
0
 10
150.217058314
 20
-65.3626620548
 30
0.0
 11
151.817058314
 21
-65.3626620548
 31
0.0
  0
LINE
  8
0
 62
0
 10
150.216915076
 20
-67.5343361763
 30
0.0
 11
151.016915076
 21
-67.5343361763
 31
0.0
  0
LINE
  8
0
 62
0
 10
151.016915076
 20
-65.9343361763
 30
0.0
 11
150.216915076
 21
-65.9343361763
 31
0.0
  0
LINE
  8
0
 62
0
 10
153.512814792
 20
-66.3912744084
 30
0.0
 11
154.312814792
 21
-66.3912744084
 31
0.0
  0
LINE
  8
0
 62
0
 10
154.312814792
 20
-66.3912744084
 30
0.0
 11
154.312814792
 21
-64.7912744084
 31
0.0
  0
LINE
  8
0
 62
0
 10
143.047685
 20
-66.197663
 30
0.0
 11
143.047685
 21
-65.147663
 31
0.0
  0
LINE
  8
0
 62
0
 10
143.047685
 20
-60.147663
 30
0.0
 11
143.047685
 21
-55.097663
 31
0.0
  0
LINE
  8
0
 62
0
 10
142.897685
 20
-65.147663
 30
0.0
 11
142.897685
 21
-66.347663
 31
0.0
  0
LINE
  8
0
 62
0
 10
142.897685
 20
-66.347663
 30
0.0
 11
144.447685
 21
-66.347663
 31
0.0
  0
LINE
  8
0
 62
0
 10
144.447685
 20
-66.347663
 30
0.0
 11
144.447685
 21
-66.197663
 31
0.0
  0
LINE
  8
0
 62
0
 10
144.447685
 20
-66.197663
 30
0.0
 11
143.047685
 21
-66.197663
 31
0.0
  0
LINE
  8
0
 62
0
 10
142.897685
 20
-54.947663
 30
0.0
 11
142.897685
 21
-60.147663
 31
0.0
  0
LINE
  8
0
 62
0
 10
143.047685
 20
-55.097663
 30
0.0
 11
144.447685
 21
-55.097663
 31
0.0
  0
LINE
  8
0
 62
0
 10
144.447685
 20
-55.097663
 30
0.0
 11
144.447685
 21
-54.947663
 31
0.0
  0
LINE
  8
0
 62
0
 10
144.447685
 20
-54.947663
 30
0.0
 11
142.897685
 21
-54.947663
 31
0.0
  0
LINE
  8
0
 62
0
 10
144.547685
 20
-65.147663
 30
0.0
 11
144.547685
 21
-67.147663
 31
0.0
  0
LINE
  8
0
 62
0
 10
145.847685
 20
-67.147663
 30
0.0
 11
145.847685
 21
-65.147663
 31
0.0
  0
LINE
  8
0
 62
0
 10
145.847685
 20
-65.147663
 30
0.0
 11
144.547685
 21
-65.147663
 31
0.0
  0
LINE
  8
0
 62
0
 10
144.547685
 20
-67.147663
 30
0.0
 11
145.847685
 21
-67.147663
 31
0.0
  0
LINE
  8
0
 62
0
 10
147.497685
 20
-62.2602510325
 30
0.0
 11
147.497685
 21
-59.0350749675
 31
0.0
  0
LINE
  8
0
 62
0
 10
147.497685
 20
-66.347663
 30
0.0
 11
147.497685
 21
-64.0350749675
 31
0.0
  0
LINE
  8
0
 62
0
 10
147.347685
 20
-64.047663
 30
0.0
 11
147.347685
 21
-66.197663
 31
0.0
  0
LINE
  8
0
 62
0
 10
147.347685
 20
-59.047663
 30
0.0
 11
147.347685
 21
-62.247663
 31
0.0
  0
LINE
  8
0
 62
0
 10
145.947685
 20
-66.347663
 30
0.0
 11
147.497685
 21
-66.347663
 31
0.0
  0
LINE
  8
0
 62
0
 10
145.947685
 20
-66.197663
 30
0.0
 11
145.947685
 21
-66.347663
 31
0.0
  0
LINE
  8
0
 62
0
 10
147.347685
 20
-66.197663
 30
0.0
 11
145.947685
 21
-66.197663
 31
0.0
  0
LINE
  8
0
 62
0
 10
147.497685
 20
-57.2602510325
 30
0.0
 11
147.497685
 21
-54.947663
 31
0.0
  0
LINE
  8
0
 62
0
 10
147.347685
 20
-55.097663
 30
0.0
 11
147.347685
 21
-57.247663
 31
0.0
  0
LINE
  8
0
 62
0
 10
145.947685
 20
-55.097663
 30
0.0
 11
147.347685
 21
-55.097663
 31
0.0
  0
LINE
  8
0
 62
0
 10
145.947685
 20
-54.947663
 30
0.0
 11
145.947685
 21
-55.097663
 31
0.0
  0
LINE
  8
0
 62
0
 10
147.497685
 20
-54.947663
 30
0.0
 11
145.947685
 21
-54.947663
 31
0.0
  0
LINE
  8
0
 62
0
 10
141.237685
 20
-65.797663
 30
0.0
 11
141.237685
 21
-66.1481076641
 31
0.0
  0
LINE
  8
0
 62
0
 10
157.157685
 20
-66.147663
 30
0.0
 11
157.157685
 21
-65.797663
 31
0.0
  0
LINE
  8
0
 62
0
 10
141.237685
 20
-63.797663
 30
0.0
 11
141.237685
 21
-64.1481076641
 31
0.0
  0
LINE
  8
0
 62
0
 10
157.157685
 20
-64.147663
 30
0.0
 11
157.157685
 21
-63.797663
 31
0.0
  0
LINE
  8
0
 62
0
 10
141.237685
 20
-61.797663
 30
0.0
 11
141.237685
 21
-62.1481076641
 31
0.0
  0
LINE
  8
0
 62
0
 10
157.157685
 20
-62.147663
 30
0.0
 11
157.157685
 21
-61.797663
 31
0.0
  0
LINE
  8
0
 62
0
 10
141.237685
 20
-59.797663
 30
0.0
 11
141.237685
 21
-60.1481076641
 31
0.0
  0
LINE
  8
0
 62
0
 10
157.157685
 20
-60.147663
 30
0.0
 11
157.157685
 21
-59.797663
 31
0.0
  0
LINE
  8
0
 62
0
 10
141.237685
 20
-57.797663
 30
0.0
 11
141.237685
 21
-58.1481076641
 31
0.0
  0
LINE
  8
0
 62
0
 10
157.157685
 20
-58.147663
 30
0.0
 11
157.157685
 21
-57.797663
 31
0.0
  0
LINE
  8
0
 62
0
 10
141.237685
 20
-55.797663
 30
0.0
 11
141.237685
 21
-56.1481076641
 31
0.0
  0
LINE
  8
0
 62
0
 10
157.157685
 20
-56.147663
 30
0.0
 11
157.157685
 21
-55.797663
 31
0.0
  0
LINE
  8
0
 62
0
 10
141.237685
 20
-53.797663
 30
0.0
 11
141.237685
 21
-54.1481076641
 31
0.0
  0
LINE
  8
0
 62
0
 10
157.157685
 20
-54.147663
 30
0.0
 11
157.157685
 21
-53.797663
 31
0.0
  0
LINE
  8
0
 62
0
 10
141.237685
 20
-67.397663
 30
0.0
 11
142.337685
 21
-67.397663
 31
0.0
  0
LINE
  8
0
 62
0
 10
142.337685
 20
-65.797663
 30
0.0
 11
141.237685
 21
-65.797663
 31
0.0
  0
LINE
  8
0
 62
0
 10
141.237685
 20
-67.0472183359
 30
0.0
 11
141.237685
 21
-67.397663
 31
0.0
  0
LINE
  8
0
 62
0
 10
141.237685
 20
-65.397663
 30
0.0
 11
142.337685
 21
-65.397663
 31
0.0
  0
LINE
  8
0
 62
0
 10
142.337685
 20
-63.797663
 30
0.0
 11
141.237685
 21
-63.797663
 31
0.0
  0
LINE
  8
0
 62
0
 10
141.237685
 20
-65.0472183359
 30
0.0
 11
141.237685
 21
-65.397663
 31
0.0
  0
LINE
  8
0
 62
0
 10
141.237685
 20
-63.397663
 30
0.0
 11
142.337685
 21
-63.397663
 31
0.0
  0
LINE
  8
0
 62
0
 10
142.337685
 20
-61.797663
 30
0.0
 11
141.237685
 21
-61.797663
 31
0.0
  0
LINE
  8
0
 62
0
 10
141.237685
 20
-63.0472183359
 30
0.0
 11
141.237685
 21
-63.397663
 31
0.0
  0
LINE
  8
0
 62
0
 10
141.237685
 20
-61.397663
 30
0.0
 11
142.337685
 21
-61.397663
 31
0.0
  0
LINE
  8
0
 62
0
 10
142.337685
 20
-59.797663
 30
0.0
 11
141.237685
 21
-59.797663
 31
0.0
  0
LINE
  8
0
 62
0
 10
141.237685
 20
-61.0472183359
 30
0.0
 11
141.237685
 21
-61.397663
 31
0.0
  0
LINE
  8
0
 62
0
 10
141.237685
 20
-59.397663
 30
0.0
 11
142.337685
 21
-59.397663
 31
0.0
  0
LINE
  8
0
 62
0
 10
142.337685
 20
-57.797663
 30
0.0
 11
141.237685
 21
-57.797663
 31
0.0
  0
LINE
  8
0
 62
0
 10
141.237685
 20
-59.0472183359
 30
0.0
 11
141.237685
 21
-59.397663
 31
0.0
  0
LINE
  8
0
 62
0
 10
141.237685
 20
-57.397663
 30
0.0
 11
142.337685
 21
-57.397663
 31
0.0
  0
LINE
  8
0
 62
0
 10
142.337685
 20
-55.797663
 30
0.0
 11
141.237685
 21
-55.797663
 31
0.0
  0
LINE
  8
0
 62
0
 10
141.237685
 20
-57.0472183359
 30
0.0
 11
141.237685
 21
-57.397663
 31
0.0
  0
LINE
  8
0
 62
0
 10
141.237685
 20
-55.397663
 30
0.0
 11
142.337685
 21
-55.397663
 31
0.0
  0
LINE
  8
0
 62
0
 10
142.337685
 20
-53.797663
 30
0.0
 11
141.237685
 21
-53.797663
 31
0.0
  0
LINE
  8
0
 62
0
 10
141.237685
 20
-55.0472183359
 30
0.0
 11
141.237685
 21
-55.397663
 31
0.0
  0
LINE
  8
0
 62
0
 10
156.057685
 20
-67.397663
 30
0.0
 11
157.157685
 21
-67.397663
 31
0.0
  0
LINE
  8
0
 62
0
 10
157.157685
 20
-65.797663
 30
0.0
 11
156.057685
 21
-65.797663
 31
0.0
  0
LINE
  8
0
 62
0
 10
157.157685
 20
-67.397663
 30
0.0
 11
157.157685
 21
-67.047663
 31
0.0
  0
LINE
  8
0
 62
0
 10
156.057685
 20
-65.397663
 30
0.0
 11
157.157685
 21
-65.397663
 31
0.0
  0
LINE
  8
0
 62
0
 10
157.157685
 20
-63.797663
 30
0.0
 11
156.057685
 21
-63.797663
 31
0.0
  0
LINE
  8
0
 62
0
 10
157.157685
 20
-65.397663
 30
0.0
 11
157.157685
 21
-65.047663
 31
0.0
  0
LINE
  8
0
 62
0
 10
156.057685
 20
-63.397663
 30
0.0
 11
157.157685
 21
-63.397663
 31
0.0
  0
LINE
  8
0
 62
0
 10
157.157685
 20
-61.797663
 30
0.0
 11
156.057685
 21
-61.797663
 31
0.0
  0
LINE
  8
0
 62
0
 10
157.157685
 20
-63.397663
 30
0.0
 11
157.157685
 21
-63.047663
 31
0.0
  0
LINE
  8
0
 62
0
 10
156.057685
 20
-61.397663
 30
0.0
 11
157.157685
 21
-61.397663
 31
0.0
  0
LINE
  8
0
 62
0
 10
157.157685
 20
-59.797663
 30
0.0
 11
156.057685
 21
-59.797663
 31
0.0
  0
LINE
  8
0
 62
0
 10
157.157685
 20
-61.397663
 30
0.0
 11
157.157685
 21
-61.047663
 31
0.0
  0
LINE
  8
0
 62
0
 10
156.057685
 20
-59.397663
 30
0.0
 11
157.157685
 21
-59.397663
 31
0.0
  0
LINE
  8
0
 62
0
 10
157.157685
 20
-57.797663
 30
0.0
 11
156.057685
 21
-57.797663
 31
0.0
  0
LINE
  8
0
 62
0
 10
157.157685
 20
-59.397663
 30
0.0
 11
157.157685
 21
-59.047663
 31
0.0
  0
LINE
  8
0
 62
0
 10
156.057685
 20
-57.397663
 30
0.0
 11
157.157685
 21
-57.397663
 31
0.0
  0
LINE
  8
0
 62
0
 10
157.157685
 20
-55.797663
 30
0.0
 11
156.057685
 21
-55.797663
 31
0.0
  0
LINE
  8
0
 62
0
 10
157.157685
 20
-57.397663
 30
0.0
 11
157.157685
 21
-57.047663
 31
0.0
  0
LINE
  8
0
 62
0
 10
156.057685
 20
-55.397663
 30
0.0
 11
157.157685
 21
-55.397663
 31
0.0
  0
LINE
  8
0
 62
0
 10
157.157685
 20
-53.797663
 30
0.0
 11
156.057685
 21
-53.797663
 31
0.0
  0
LINE
  8
0
 62
0
 10
157.157685
 20
-55.397663
 30
0.0
 11
157.157685
 21
-55.047663
 31
0.0
  0
LINE
  8
0
 62
0
 10
156.057685
 20
-53.797663
 30
0.0
 11
156.057685
 21
-55.397663
 31
0.0
  0
ARC
  8
0
 62
0
 10
157.157685
 20
-54.597663
 30
0.0
 40
0.45
 50
90.0
 51
-90.0
  0
LINE
  8
0
 62
0
 10
156.057685
 20
-55.797663
 30
0.0
 11
156.057685
 21
-57.397663
 31
0.0
  0
ARC
  8
0
 62
0
 10
157.157685
 20
-56.597663
 30
0.0
 40
0.45
 50
90.0
 51
-90.0
  0
LINE
  8
0
 62
0
 10
156.057685
 20
-59.797663
 30
0.0
 11
156.057685
 21
-61.397663
 31
0.0
  0
ARC
  8
0
 62
0
 10
157.157685
 20
-60.597663
 30
0.0
 40
0.45
 50
90.0
 51
-90.0
  0
LINE
  8
0
 62
0
 10
156.057685
 20
-61.797663
 30
0.0
 11
156.057685
 21
-63.397663
 31
0.0
  0
ARC
  8
0
 62
0
 10
157.157685
 20
-62.597663
 30
0.0
 40
0.45
 50
90.0
 51
-90.0
  0
LINE
  8
0
 62
0
 10
156.057685
 20
-63.797663
 30
0.0
 11
156.057685
 21
-65.397663
 31
0.0
  0
ARC
  8
0
 62
0
 10
157.157685
 20
-64.597663
 30
0.0
 40
0.45
 50
90.0
 51
-90.0
  0
LINE
  8
0
 62
0
 10
156.057685
 20
-65.797663
 30
0.0
 11
156.057685
 21
-67.397663
 31
0.0
  0
ARC
  8
0
 62
0
 10
157.157685
 20
-66.597663
 30
0.0
 40
0.45
 50
90.0
 51
-90.0
  0
LINE
  8
0
 62
0
 10
156.057685
 20
-57.797663
 30
0.0
 11
156.057685
 21
-59.397663
 31
0.0
  0
ARC
  8
0
 62
0
 10
157.157685
 20
-58.597663
 30
0.0
 40
0.45
 50
90.0
 51
-90.0
  0
LINE
  8
0
 62
0
 10
142.337685
 20
-55.397663
 30
0.0
 11
142.337685
 21
-53.797663
 31
0.0
  0
ARC
  8
0
 62
0
 10
141.257685
 20
-54.597663
 30
0.0
 40
0.450000000016
 50
-92.5473181825
 51
-90.0000000001
  0
LINE
  8
0
 62
0
 10
142.337685
 20
-57.397663
 30
0.0
 11
142.337685
 21
-55.797663
 31
0.0
  0
ARC
  8
0
 62
0
 10
141.257685
 20
-56.597663
 30
0.0
 40
0.450000000016
 50
-92.5473181825
 51
-90.0000000001
  0
LINE
  8
0
 62
0
 10
142.337685
 20
-59.397663
 30
0.0
 11
142.337685
 21
-57.797663
 31
0.0
  0
ARC
  8
0
 62
0
 10
141.257685
 20
-58.597663
 30
0.0
 40
0.450000000016
 50
-92.5473181825
 51
-90.0000000001
  0
LINE
  8
0
 62
0
 10
142.337685
 20
-61.397663
 30
0.0
 11
142.337685
 21
-59.797663
 31
0.0
  0
ARC
  8
0
 62
0
 10
141.257685
 20
-60.597663
 30
0.0
 40
0.450000000016
 50
-92.5473181825
 51
-90.0000000001
  0
LINE
  8
0
 62
0
 10
142.337685
 20
-63.397663
 30
0.0
 11
142.337685
 21
-61.797663
 31
0.0
  0
ARC
  8
0
 62
0
 10
141.257685
 20
-62.597663
 30
0.0
 40
0.450000000016
 50
-92.5473181825
 51
-90.0000000001
  0
LINE
  8
0
 62
0
 10
142.337685
 20
-65.397663
 30
0.0
 11
142.337685
 21
-63.797663
 31
0.0
  0
ARC
  8
0
 62
0
 10
141.257685
 20
-64.597663
 30
0.0
 40
0.450000000002
 50
-92.5473181826
 51
-90.0
  0
LINE
  8
0
 62
0
 10
142.337685
 20
-67.397663
 30
0.0
 11
142.337685
 21
-65.797663
 31
0.0
  0
ARC
  8
0
 62
0
 10
141.257685
 20
-66.597663
 30
0.0
 40
0.450000000002
 50
-92.5473181826
 51
-90.0
  0
LINE
  8
0
 62
0
 10
142.897685
 20
-65.147663
 30
0.0
 11
142.897685
 21
-60.147663
 31
0.0
  0
ARC
  8
0
 62
0
 10
147.347685
 20
-58.147663
 30
0.0
 40
0.9
 50
-0.0
 51
-180.0
  0
ARC
  8
0
 62
0
 10
147.347685
 20
-58.147663
 30
0.0
 40
0.5
 50
-180.0
 51
-0.0
  0
ARC
  8
0
 62
0
 10
147.347685
 20
-63.147663
 30
0.0
 40
0.9
 50
-0.0
 51
-180.0
  0
ARC
  8
0
 62
0
 10
147.347685
 20
-63.147663
 30
0.0
 40
0.5
 50
-180.0
 51
-0.0
  0
LINE
  8
0
 62
0
 10
144.547685
 20
-54.147663
 30
0.0
 11
144.547685
 21
-58.847663
 31
0.0
  0
LINE
  8
0
 62
0
 10
144.547685
 20
-58.847663
 30
0.0
 11
145.847685
 21
-58.847663
 31
0.0
  0
LINE
  8
0
 62
0
 10
145.847685
 20
-58.847663
 30
0.0
 11
145.847685
 21
-54.147663
 31
0.0
  0
LINE
  8
0
 62
0
 10
145.847685
 20
-54.147663
 30
0.0
 11
144.547685
 21
-54.147663
 31
0.0
  0
LINE
  8
0
 62
0
 10
145.847685
 20
-60.147663
 30
0.0
 11
145.847685
 21
-65.147663
 31
0.0
  0
LINE
  8
0
 62
0
 10
142.897685
 20
-60.147663
 30
0.0
 11
145.847685
 21
-60.147663
 31
0.0
  0
LINE
  8
0
 62
0
 10
145.847685
 20
-65.147663
 30
0.0
 11
142.897685
 21
-65.147663
 31
0.0
  0
LINE
  8
0
 62
0
 10
145.647685
 20
-60.347663
 30
0.0
 11
143.097685
 21
-60.347663
 31
0.0
  0
LINE
  8
0
 62
0
 10
143.097685
 20
-60.347663
 30
0.0
 11
143.097685
 21
-64.947663
 31
0.0
  0
LINE
  8
0
 62
0
 10
143.097685
 20
-64.947663
 30
0.0
 11
145.647685
 21
-64.947663
 31
0.0
  0
LINE
  8
0
 62
0
 10
145.647685
 20
-64.947663
 30
0.0
 11
145.647685
 21
-60.347663
 31
0.0
  0
LINE
  8
0
 62
0
 10
145.847685
 20
-65.147663
 30
0.0
 11
145.647685
 21
-64.947663
 31
0.0
  0
LINE
  8
0
 62
0
 10
145.647685
 20
-60.347663
 30
0.0
 11
145.847685
 21
-60.147663
 31
0.0
  0
LINE
  8
0
 62
0
 10
143.097685
 20
-60.347663
 30
0.0
 11
142.897685
 21
-60.147663
 31
0.0
  0
LINE
  8
0
 62
0
 10
142.897685
 20
-65.147663
 30
0.0
 11
143.097685
 21
-64.947663
 31
0.0
  0
LINE
  8
0
 62
0
 10
149.874283021
 20
-53.0748912881
 30
0.0
 11
149.874283021
 21
-53.8748912881
 31
0.0
  0
LINE
  8
0
 62
0
 10
149.874283021
 20
-53.8748912881
 30
0.0
 11
151.474283021
 21
-53.8748912881
 31
0.0
  0
LINE
  8
0
 62
0
 10
151.474283021
 20
-53.8748912881
 30
0.0
 11
151.474283021
 21
-53.0748912881
 31
0.0
  0
LINE
  8
0
 62
0
 10
151.474283021
 20
-53.0748912881
 30
0.0
 11
149.874283021
 21
-53.0748912881
 31
0.0
  0
LINE
  8
0
 62
0
 10
152.731794203
 20
-53.0748912881
 30
0.0
 11
152.731794203
 21
-53.8748912881
 31
0.0
  0
LINE
  8
0
 62
0
 10
152.731794203
 20
-53.8748912881
 30
0.0
 11
154.331794203
 21
-53.8748912881
 31
0.0
  0
LINE
  8
0
 62
0
 10
154.331794203
 20
-53.8748912881
 30
0.0
 11
154.331794203
 21
-53.0748912881
 31
0.0
  0
LINE
  8
0
 62
0
 10
154.331794203
 20
-53.0748912881
 30
0.0
 11
152.731794203
 21
-53.0748912881
 31
0.0
  0
LINE
  8
0
 62
0
 10
151.474426258
 20
-67.1917041209
 30
0.0
 11
151.474426258
 21
-67.9917041209
 31
0.0
  0
LINE
  8
0
 62
0
 10
151.474426258
 20
-67.9917041209
 30
0.0
 11
153.074426258
 21
-67.9917041209
 31
0.0
  0
LINE
  8
0
 62
0
 10
153.074426258
 20
-67.9917041209
 30
0.0
 11
153.074426258
 21
-67.1917041209
 31
0.0
  0
LINE
  8
0
 62
0
 10
153.074426258
 20
-67.1917041209
 30
0.0
 11
151.474426258
 21
-67.1917041209
 31
0.0
  0
LINE
  8
0
 62
0
 10
151.493477288
 20
-65.9343361763
 30
0.0
 11
151.493477288
 21
-66.7343361763
 31
0.0
  0
LINE
  8
0
 62
0
 10
151.493477288
 20
-66.7343361763
 30
0.0
 11
153.093477288
 21
-66.7343361763
 31
0.0
  0
LINE
  8
0
 62
0
 10
153.093477288
 20
-66.7343361763
 30
0.0
 11
153.093477288
 21
-65.9343361763
 31
0.0
  0
LINE
  8
0
 62
0
 10
153.093477288
 20
-65.9343361763
 30
0.0
 11
151.493477288
 21
-65.9343361763
 31
0.0
  0
LINE
  8
0
 62
0
 10
150.217058314
 20
-64.5626620548
 30
0.0
 11
150.217058314
 21
-65.3626620548
 31
0.0
  0
LINE
  8
0
 62
0
 10
150.217058314
 20
-65.3626620548
 30
0.0
 11
151.817058314
 21
-65.3626620548
 31
0.0
  0
LINE
  8
0
 62
0
 10
151.817058314
 20
-65.3626620548
 30
0.0
 11
151.817058314
 21
-64.5626620548
 31
0.0
  0
LINE
  8
0
 62
0
 10
151.817058314
 20
-64.5626620548
 30
0.0
 11
150.217058314
 21
-64.5626620548
 31
0.0
  0
LINE
  8
0
 62
0
 10
148.159547132
 20
-67.1917041209
 30
0.0
 11
148.159547132
 21
-67.9917041209
 31
0.0
  0
LINE
  8
0
 62
0
 10
148.159547132
 20
-67.9917041209
 30
0.0
 11
149.759547132
 21
-67.9917041209
 31
0.0
  0
LINE
  8
0
 62
0
 10
149.759547132
 20
-67.9917041209
 30
0.0
 11
149.759547132
 21
-67.1917041209
 31
0.0
  0
LINE
  8
0
 62
0
 10
149.759547132
 20
-67.1917041209
 30
0.0
 11
148.159547132
 21
-67.1917041209
 31
0.0
  0
LINE
  8
0
 62
0
 10
150.216915076
 20
-65.9343361763
 30
0.0
 11
150.216915076
 21
-67.5343361763
 31
0.0
  0
LINE
  8
0
 62
0
 10
150.216915076
 20
-67.5343361763
 30
0.0
 11
151.016915076
 21
-67.5343361763
 31
0.0
  0
LINE
  8
0
 62
0
 10
151.016915076
 20
-67.5343361763
 30
0.0
 11
151.016915076
 21
-65.9343361763
 31
0.0
  0
LINE
  8
0
 62
0
 10
151.016915076
 20
-65.9343361763
 30
0.0
 11
150.216915076
 21
-65.9343361763
 31
0.0
  0
LINE
  8
0
 62
0
 10
148.97866978
 20
-65.0008357325
 30
0.0
 11
148.97866978
 21
-66.6008357325
 31
0.0
  0
LINE
  8
0
 62
0
 10
148.97866978
 20
-66.6008357325
 30
0.0
 11
149.77866978
 21
-66.6008357325
 31
0.0
  0
LINE
  8
0
 62
0
 10
149.77866978
 20
-66.6008357325
 30
0.0
 11
149.77866978
 21
-65.0008357325
 31
0.0
  0
LINE
  8
0
 62
0
 10
149.77866978
 20
-65.0008357325
 30
0.0
 11
148.97866978
 21
-65.0008357325
 31
0.0
  0
LINE
  8
0
 62
0
 10
153.512814792
 20
-64.7912744084
 30
0.0
 11
153.512814792
 21
-66.3912744084
 31
0.0
  0
LINE
  8
0
 62
0
 10
153.512814792
 20
-66.3912744084
 30
0.0
 11
154.312814792
 21
-66.3912744084
 31
0.0
  0
LINE
  8
0
 62
0
 10
154.312814792
 20
-66.3912744084
 30
0.0
 11
154.312814792
 21
-64.7912744084
 31
0.0
  0
LINE
  8
0
 62
0
 10
154.312814792
 20
-64.7912744084
 30
0.0
 11
153.512814792
 21
-64.7912744084
 31
0.0
  0
ARC
  8
0
 62
0
 10
152.097685
 20
-59.147663
 30
0.0
 40
2.10501256289
 50
180.0
 51
0.0
  0
ARC
  8
0
 62
0
 10
152.097685
 20
-59.147663
 30
0.0
 40
2.10501256289
 50
-0.0
 51
-180.0
  0
ENDBLK
  0
BLOCK
  8
0
  2
PART__FEATURE014
 70
0
 10
0.0
 20
0.0
 30
0.0
  3
PART__FEATURE014
  0
POLYLINE
  8
0
 62
0
 70
0
 66
1
 10
0.0
 20
0.0
 30
0.0
  0
VERTEX
  8
0
 10
156.325
 20
-60.15
 30
0.0
  0
VERTEX
  8
0
 10
156.323919066
 20
-60.1499883144
 30
0.0
  0
SEQEND
  8
0
  0
POLYLINE
  8
0
 62
0
 70
0
 66
1
 10
0.0
 20
0.0
 30
0.0
  0
VERTEX
  8
0
 10
156.323919066
 20
-60.1499883144
 30
0.0
  0
VERTEX
  8
0
 10
156.282375562
 20
-60.1260570783
 30
0.0
  0
VERTEX
  8
0
 10
156.275011686
 20
-60.1010809344
 30
0.0
  0
SEQEND
  8
0
  0
POLYLINE
  8
0
 62
0
 70
0
 66
1
 10
0.0
 20
0.0
 30
0.0
  0
VERTEX
  8
0
 10
156.275011686
 20
-60.1010809344
 30
0.0
  0
VERTEX
  8
0
 10
156.275
 20
-60.1
 30
0.0
  0
SEQEND
  8
0
  0
POLYLINE
  8
0
 62
0
 70
0
 66
1
 10
0.0
 20
0.0
 30
0.0
  0
VERTEX
  8
0
 10
157.525
 20
-60.1
 30
0.0
  0
VERTEX
  8
0
 10
157.524988314
 20
-60.1010809344
 30
0.0
  0
SEQEND
  8
0
  0
POLYLINE
  8
0
 62
0
 70
0
 66
1
 10
0.0
 20
0.0
 30
0.0
  0
VERTEX
  8
0
 10
157.524988314
 20
-60.1010809344
 30
0.0
  0
VERTEX
  8
0
 10
157.501057078
 20
-60.1426244383
 30
0.0
  0
VERTEX
  8
0
 10
157.476080934
 20
-60.1499883144
 30
0.0
  0
SEQEND
  8
0
  0
POLYLINE
  8
0
 62
0
 70
0
 66
1
 10
0.0
 20
0.0
 30
0.0
  0
VERTEX
  8
0
 10
157.476080934
 20
-60.1499883144
 30
0.0
  0
VERTEX
  8
0
 10
157.475
 20
-60.15
 30
0.0
  0
SEQEND
  8
0
  0
POLYLINE
  8
0
 62
0
 70
0
 66
1
 10
0.0
 20
0.0
 30
0.0
  0
VERTEX
  8
0
 10
156.275
 20
-57.3
 30
0.0
  0
VERTEX
  8
0
 10
156.275011686
 20
-57.2989190656
 30
0.0
  0
SEQEND
  8
0
  0
POLYLINE
  8
0
 62
0
 70
0
 66
1
 10
0.0
 20
0.0
 30
0.0
  0
VERTEX
  8
0
 10
156.275011686
 20
-57.2989190656
 30
0.0
  0
VERTEX
  8
0
 10
156.298942922
 20
-57.2573755617
 30
0.0
  0
VERTEX
  8
0
 10
156.323919066
 20
-57.2500116856
 30
0.0
  0
SEQEND
  8
0
  0
POLYLINE
  8
0
 62
0
 70
0
 66
1
 10
0.0
 20
0.0
 30
0.0
  0
VERTEX
  8
0
 10
156.323919066
 20
-57.2500116856
 30
0.0
  0
VERTEX
  8
0
 10
156.325
 20
-57.25
 30
0.0
  0
SEQEND
  8
0
  0
POLYLINE
  8
0
 62
0
 70
0
 66
1
 10
0.0
 20
0.0
 30
0.0
  0
VERTEX
  8
0
 10
157.475
 20
-57.25
 30
0.0
  0
VERTEX
  8
0
 10
157.476080934
 20
-57.2500116856
 30
0.0
  0
SEQEND
  8
0
  0
POLYLINE
  8
0
 62
0
 70
0
 66
1
 10
0.0
 20
0.0
 30
0.0
  0
VERTEX
  8
0
 10
157.476080934
 20
-57.2500116856
 30
0.0
  0
VERTEX
  8
0
 10
157.517624438
 20
-57.2739429217
 30
0.0
  0
VERTEX
  8
0
 10
157.524988314
 20
-57.2989190656
 30
0.0
  0
SEQEND
  8
0
  0
POLYLINE
  8
0
 62
0
 70
0
 66
1
 10
0.0
 20
0.0
 30
0.0
  0
VERTEX
  8
0
 10
157.524988314
 20
-57.2989190656
 30
0.0
  0
VERTEX
  8
0
 10
157.525
 20
-57.3
 30
0.0
  0
SEQEND
  8
0
  0
POLYLINE
  8
0
 62
0
 70
0
 66
1
 10
0.0
 20
0.0
 30
0.0
  0
VERTEX
  8
0
 10
157.55
 20
-58.475
 30
0.0
  0
VERTEX
  8
0
 10
157.594202817
 20
-58.475
 30
0.0
  0
SEQEND
  8
0
  0
POLYLINE
  8
0
 62
0
 70
0
 66
1
 10
0.0
 20
0.0
 30
0.0
  0
VERTEX
  8
0
 10
157.688587322
 20
-58.475
 30
0.0
  0
VERTEX
  8
0
 10
157.738587322
 20
-58.475
 30
0.0
  0
VERTEX
  8
0
 10
157.788587322
 20
-58.475
 30
0.0
  0
VERTEX
  8
0
 10
157.838587322
 20
-58.475
 30
0.0
  0
VERTEX
  8
0
 10
157.8875
 20
-58.475
 30
0.0
  0
SEQEND
  8
0
  0
POLYLINE
  8
0
 62
0
 70
0
 66
1
 10
0.0
 20
0.0
 30
0.0
  0
VERTEX
  8
0
 10
157.594202817
 20
-58.925
 30
0.0
  0
VERTEX
  8
0
 10
157.55
 20
-58.925
 30
0.0
  0
SEQEND
  8
0
  0
POLYLINE
  8
0
 62
0
 70
0
 66
1
 10
0.0
 20
0.0
 30
0.0
  0
VERTEX
  8
0
 10
157.8875
 20
-58.925
 30
0.0
  0
VERTEX
  8
0
 10
157.8375
 20
-58.925
 30
0.0
  0
VERTEX
  8
0
 10
157.7875
 20
-58.925
 30
0.0
  0
VERTEX
  8
0
 10
157.7375
 20
-58.925
 30
0.0
  0
VERTEX
  8
0
 10
157.688587322
 20
-58.925
 30
0.0
  0
SEQEND
  8
0
  0
POLYLINE
  8
0
 62
0
 70
0
 66
1
 10
0.0
 20
0.0
 30
0.0
  0
VERTEX
  8
0
 10
156.25
 20
-59.875
 30
0.0
  0
VERTEX
  8
0
 10
156.205797183
 20
-59.875
 30
0.0
  0
SEQEND
  8
0
  0
POLYLINE
  8
0
 62
0
 70
0
 66
1
 10
0.0
 20
0.0
 30
0.0
  0
VERTEX
  8
0
 10
156.111412678
 20
-59.875
 30
0.0
  0
VERTEX
  8
0
 10
156.061412678
 20
-59.875
 30
0.0
  0
VERTEX
  8
0
 10
156.011412678
 20
-59.875
 30
0.0
  0
VERTEX
  8
0
 10
155.961412678
 20
-59.875
 30
0.0
  0
VERTEX
  8
0
 10
155.9125
 20
-59.875
 30
0.0
  0
SEQEND
  8
0
  0
POLYLINE
  8
0
 62
0
 70
0
 66
1
 10
0.0
 20
0.0
 30
0.0
  0
VERTEX
  8
0
 10
155.9125
 20
-59.425
 30
0.0
  0
VERTEX
  8
0
 10
155.9625
 20
-59.425
 30
0.0
  0
VERTEX
  8
0
 10
156.0125
 20
-59.425
 30
0.0
  0
VERTEX
  8
0
 10
156.0625
 20
-59.425
 30
0.0
  0
VERTEX
  8
0
 10
156.111412678
 20
-59.425
 30
0.0
  0
SEQEND
  8
0
  0
POLYLINE
  8
0
 62
0
 70
0
 66
1
 10
0.0
 20
0.0
 30
0.0
  0
VERTEX
  8
0
 10
156.205797183
 20
-59.425
 30
0.0
  0
VERTEX
  8
0
 10
156.25
 20
-59.425
 30
0.0
  0
SEQEND
  8
0
  0
POLYLINE
  8
0
 62
0
 70
0
 66
1
 10
0.0
 20
0.0
 30
0.0
  0
VERTEX
  8
0
 10
156.25
 20
-57.975
 30
0.0
  0
VERTEX
  8
0
 10
156.205797183
 20
-57.975
 30
0.0
  0
SEQEND
  8
0
  0
POLYLINE
  8
0
 62
0
 70
0
 66
1
 10
0.0
 20
0.0
 30
0.0
  0
VERTEX
  8
0
 10
156.111412678
 20
-57.975
 30
0.0
  0
VERTEX
  8
0
 10
156.061412678
 20
-57.975
 30
0.0
  0
VERTEX
  8
0
 10
156.011412678
 20
-57.975
 30
0.0
  0
VERTEX
  8
0
 10
155.961412678
 20
-57.975
 30
0.0
  0
VERTEX
  8
0
 10
155.9125
 20
-57.975
 30
0.0
  0
SEQEND
  8
0
  0
POLYLINE
  8
0
 62
0
 70
0
 66
1
 10
0.0
 20
0.0
 30
0.0
  0
VERTEX
  8
0
 10
155.9125
 20
-57.525
 30
0.0
  0
VERTEX
  8
0
 10
155.9625
 20
-57.525
 30
0.0
  0
VERTEX
  8
0
 10
156.0125
 20
-57.525
 30
0.0
  0
VERTEX
  8
0
 10
156.0625
 20
-57.525
 30
0.0
  0
VERTEX
  8
0
 10
156.111412678
 20
-57.525
 30
0.0
  0
SEQEND
  8
0
  0
POLYLINE
  8
0
 62
0
 70
0
 66
1
 10
0.0
 20
0.0
 30
0.0
  0
VERTEX
  8
0
 10
156.205797183
 20
-57.525
 30
0.0
  0
VERTEX
  8
0
 10
156.25
 20
-57.525
 30
0.0
  0
SEQEND
  8
0
  0
POLYLINE
  8
0
 62
0
 70
0
 66
1
 10
0.0
 20
0.0
 30
0.0
  0
VERTEX
  8
0
 10
156.400511826
 20
-60.0733955537
 30
0.0
  0
VERTEX
  8
0
 10
156.400511826
 20
-60.0244881737
 30
0.0
  0
SEQEND
  8
0
  0
POLYLINE
  8
0
 62
0
 70
0
 66
1
 10
0.0
 20
0.0
 30
0.0
  0
VERTEX
  8
0
 10
156.400511826
 20
-60.0244881737
 30
0.0
  0
VERTEX
  8
0
 10
156.351604446
 20
-60.0244881737
 30
0.0
  0
SEQEND
  8
0
  0
POLYLINE
  8
0
 62
0
 70
0
 66
1
 10
0.0
 20
0.0
 30
0.0
  0
VERTEX
  8
0
 10
156.351604446
 20
-60.0244881737
 30
0.0
  0
VERTEX
  8
0
 10
156.376109296
 20
-60.065830973
 30
0.0
  0
VERTEX
  8
0
 10
156.400511826
 20
-60.0733955537
 30
0.0
  0
SEQEND
  8
0
  0
POLYLINE
  8
0
 62
0
 70
0
 66
1
 10
0.0
 20
0.0
 30
0.0
  0
VERTEX
  8
0
 10
157.448395554
 20
-60.0244881737
 30
0.0
  0
VERTEX
  8
0
 10
157.399488174
 20
-60.0244881737
 30
0.0
  0
SEQEND
  8
0
  0
POLYLINE
  8
0
 62
0
 70
0
 66
1
 10
0.0
 20
0.0
 30
0.0
  0
VERTEX
  8
0
 10
157.399488174
 20
-60.0244881737
 30
0.0
  0
VERTEX
  8
0
 10
157.399488174
 20
-60.0733955537
 30
0.0
  0
SEQEND
  8
0
  0
POLYLINE
  8
0
 62
0
 70
0
 66
1
 10
0.0
 20
0.0
 30
0.0
  0
VERTEX
  8
0
 10
157.399488174
 20
-60.0733955537
 30
0.0
  0
VERTEX
  8
0
 10
157.440830973
 20
-60.0488907037
 30
0.0
  0
VERTEX
  8
0
 10
157.448395554
 20
-60.0244881737
 30
0.0
  0
SEQEND
  8
0
  0
POLYLINE
  8
0
 62
0
 70
0
 66
1
 10
0.0
 20
0.0
 30
0.0
  0
VERTEX
  8
0
 10
156.351604446
 20
-57.3755118263
 30
0.0
  0
VERTEX
  8
0
 10
156.400511826
 20
-57.3755118263
 30
0.0
  0
SEQEND
  8
0
  0
POLYLINE
  8
0
 62
0
 70
0
 66
1
 10
0.0
 20
0.0
 30
0.0
  0
VERTEX
  8
0
 10
156.400511826
 20
-57.3755118263
 30
0.0
  0
VERTEX
  8
0
 10
156.400511826
 20
-57.3266044463
 30
0.0
  0
SEQEND
  8
0
  0
POLYLINE
  8
0
 62
0
 70
0
 66
1
 10
0.0
 20
0.0
 30
0.0
  0
VERTEX
  8
0
 10
156.400511826
 20
-57.3266044463
 30
0.0
  0
VERTEX
  8
0
 10
156.359169027
 20
-57.3511092963
 30
0.0
  0
VERTEX
  8
0
 10
156.351604446
 20
-57.3755118263
 30
0.0
  0
SEQEND
  8
0
  0
POLYLINE
  8
0
 62
0
 70
0
 66
1
 10
0.0
 20
0.0
 30
0.0
  0
VERTEX
  8
0
 10
157.399488174
 20
-57.3755118263
 30
0.0
  0
VERTEX
  8
0
 10
157.448395554
 20
-57.3755118263
 30
0.0
  0
SEQEND
  8
0
  0
POLYLINE
  8
0
 62
0
 70
0
 66
1
 10
0.0
 20
0.0
 30
0.0
  0
VERTEX
  8
0
 10
157.448395554
 20
-57.3755118263
 30
0.0
  0
VERTEX
  8
0
 10
157.423890704
 20
-57.334169027
 30
0.0
  0
VERTEX
  8
0
 10
157.399488174
 20
-57.3266044463
 30
0.0
  0
SEQEND
  8
0
  0
POLYLINE
  8
0
 62
0
 70
0
 66
1
 10
0.0
 20
0.0
 30
0.0
  0
VERTEX
  8
0
 10
157.399488174
 20
-57.3266044463
 30
0.0
  0
VERTEX
  8
0
 10
157.399488174
 20
-57.3755118263
 30
0.0
  0
SEQEND
  8
0
  0
LINE
  8
0
 62
0
 10
156.275
 20
-57.3
 30
0.0
 11
156.275
 21
-57.525
 31
0.0
  0
LINE
  8
0
 62
0
 10
157.475
 20
-57.25
 30
0.0
 11
156.325
 21
-57.25
 31
0.0
  0
LINE
  8
0
 62
0
 10
157.525
 20
-58.475
 30
0.0
 11
157.525
 21
-57.3
 31
0.0
  0
LINE
  8
0
 62
0
 10
156.325
 20
-60.15
 30
0.0
 11
157.475
 21
-60.15
 31
0.0
  0
LINE
  8
0
 62
0
 10
156.30156957
 20
-57.975
 30
0.0
 11
156.30156957
 21
-57.525
 31
0.0
  0
LINE
  8
0
 62
0
 10
156.275
 20
-57.975
 30
0.0
 11
156.275
 21
-59.425
 31
0.0
  0
LINE
  8
0
 62
0
 10
156.30156957
 20
-59.875
 30
0.0
 11
156.30156957
 21
-59.425
 31
0.0
  0
LINE
  8
0
 62
0
 10
156.275
 20
-59.875
 30
0.0
 11
156.275
 21
-60.1
 31
0.0
  0
LINE
  8
0
 62
0
 10
157.525
 20
-60.1
 30
0.0
 11
157.525
 21
-58.925
 31
0.0
  0
LINE
  8
0
 62
0
 10
157.49843043
 20
-58.925
 30
0.0
 11
157.525
 21
-58.925
 31
0.0
  0
LINE
  8
0
 62
0
 10
157.49843043
 20
-58.475
 30
0.0
 11
157.49843043
 21
-58.925
 31
0.0
  0
LINE
  8
0
 62
0
 10
157.525
 20
-58.475
 30
0.0
 11
157.49843043
 21
-58.475
 31
0.0
  0
LINE
  8
0
 62
0
 10
157.49843043
 20
-58.475
 30
0.0
 11
157.55
 21
-58.475
 31
0.0
  0
LINE
  8
0
 62
0
 10
157.594202817
 20
-58.475
 30
0.0
 11
157.688587322
 21
-58.475
 31
0.0
  0
LINE
  8
0
 62
0
 10
157.8875
 20
-58.475
 30
0.0
 11
158.075
 21
-58.475
 31
0.0
  0
LINE
  8
0
 62
0
 10
157.55
 20
-58.925
 30
0.0
 11
157.49843043
 21
-58.925
 31
0.0
  0
LINE
  8
0
 62
0
 10
157.688587322
 20
-58.925
 30
0.0
 11
157.594202817
 21
-58.925
 31
0.0
  0
LINE
  8
0
 62
0
 10
158.075
 20
-58.925
 30
0.0
 11
157.8875
 21
-58.925
 31
0.0
  0
LINE
  8
0
 62
0
 10
158.075
 20
-58.925
 30
0.0
 11
158.075
 21
-58.475
 31
0.0
  0
LINE
  8
0
 62
0
 10
156.30156957
 20
-59.875
 30
0.0
 11
156.25
 21
-59.875
 31
0.0
  0
LINE
  8
0
 62
0
 10
156.205797183
 20
-59.875
 30
0.0
 11
156.111412678
 21
-59.875
 31
0.0
  0
LINE
  8
0
 62
0
 10
155.9125
 20
-59.875
 30
0.0
 11
155.725
 21
-59.875
 31
0.0
  0
LINE
  8
0
 62
0
 10
156.25
 20
-59.425
 30
0.0
 11
156.30156957
 21
-59.425
 31
0.0
  0
LINE
  8
0
 62
0
 10
155.725
 20
-59.425
 30
0.0
 11
155.9125
 21
-59.425
 31
0.0
  0
LINE
  8
0
 62
0
 10
156.111412678
 20
-59.425
 30
0.0
 11
156.205797183
 21
-59.425
 31
0.0
  0
LINE
  8
0
 62
0
 10
155.725
 20
-59.875
 30
0.0
 11
155.725
 21
-59.425
 31
0.0
  0
LINE
  8
0
 62
0
 10
156.30156957
 20
-57.975
 30
0.0
 11
156.25
 21
-57.975
 31
0.0
  0
LINE
  8
0
 62
0
 10
156.205797183
 20
-57.975
 30
0.0
 11
156.111412678
 21
-57.975
 31
0.0
  0
LINE
  8
0
 62
0
 10
155.9125
 20
-57.975
 30
0.0
 11
155.725
 21
-57.975
 31
0.0
  0
LINE
  8
0
 62
0
 10
156.25
 20
-57.525
 30
0.0
 11
156.30156957
 21
-57.525
 31
0.0
  0
LINE
  8
0
 62
0
 10
155.725
 20
-57.525
 30
0.0
 11
155.9125
 21
-57.525
 31
0.0
  0
LINE
  8
0
 62
0
 10
156.111412678
 20
-57.525
 30
0.0
 11
156.205797183
 21
-57.525
 31
0.0
  0
LINE
  8
0
 62
0
 10
155.725
 20
-57.975
 30
0.0
 11
155.725
 21
-57.525
 31
0.0
  0
LINE
  8
0
 62
0
 10
156.400511826
 20
-60.0733955537
 30
0.0
 11
157.399488174
 21
-60.0733955537
 31
0.0
  0
LINE
  8
0
 62
0
 10
157.399488174
 20
-60.0244881737
 30
0.0
 11
156.400511826
 21
-60.0244881737
 31
0.0
  0
LINE
  8
0
 62
0
 10
157.476080934
 20
-57.2500116856
 30
0.0
 11
157.399488174
 21
-57.3266044463
 31
0.0
  0
LINE
  8
0
 62
0
 10
157.448395554
 20
-57.3755118263
 30
0.0
 11
157.524988314
 21
-57.2989190656
 31
0.0
  0
LINE
  8
0
 62
0
 10
156.275011686
 20
-57.2989190656
 30
0.0
 11
156.351604446
 21
-57.3755118263
 31
0.0
  0
LINE
  8
0
 62
0
 10
156.400511826
 20
-57.3266044463
 30
0.0
 11
156.323919066
 21
-57.2500116856
 31
0.0
  0
LINE
  8
0
 62
0
 10
157.524988314
 20
-60.1010809344
 30
0.0
 11
157.448395554
 21
-60.0244881737
 31
0.0
  0
LINE
  8
0
 62
0
 10
157.399488174
 20
-60.0733955537
 30
0.0
 11
157.476080934
 21
-60.1499883144
 31
0.0
  0
LINE
  8
0
 62
0
 10
157.399488174
 20
-57.3266044463
 30
0.0
 11
156.400511826
 21
-57.3266044463
 31
0.0
  0
LINE
  8
0
 62
0
 10
156.400511826
 20
-57.3755118263
 30
0.0
 11
157.399488174
 21
-57.3755118263
 31
0.0
  0
LINE
  8
0
 62
0
 10
157.448395554
 20
-60.0244881737
 30
0.0
 11
157.448395554
 21
-57.3755118263
 31
0.0
  0
LINE
  8
0
 62
0
 10
157.399488174
 20
-57.3755118263
 30
0.0
 11
157.399488174
 21
-60.0244881737
 31
0.0
  0
LINE
  8
0
 62
0
 10
156.323919066
 20
-60.1499883144
 30
0.0
 11
156.400511826
 21
-60.0733955537
 31
0.0
  0
LINE
  8
0
 62
0
 10
156.351604446
 20
-60.0244881737
 30
0.0
 11
156.275011686
 21
-60.1010809344
 31
0.0
  0
LINE
  8
0
 62
0
 10
156.351604446
 20
-57.3755118263
 30
0.0
 11
156.351604446
 21
-60.0244881737
 31
0.0
  0
LINE
  8
0
 62
0
 10
156.400511826
 20
-60.0244881737
 30
0.0
 11
156.400511826
 21
-57.3755118263
 31
0.0
  0
LINE
  8
0
 62
0
 10
157.55
 20
-58.925
 30
0.0
 11
157.55
 21
-58.475
 31
0.0
  0
LINE
  8
0
 62
0
 10
157.594202817
 20
-58.925
 30
0.0
 11
157.594202817
 21
-58.475
 31
0.0
  0
LINE
  8
0
 62
0
 10
157.688587322
 20
-58.925
 30
0.0
 11
157.688587322
 21
-58.475
 31
0.0
  0
LINE
  8
0
 62
0
 10
157.8875
 20
-58.925
 30
0.0
 11
157.8875
 21
-58.475
 31
0.0
  0
LINE
  8
0
 62
0
 10
156.25
 20
-59.875
 30
0.0
 11
156.25
 21
-59.425
 31
0.0
  0
LINE
  8
0
 62
0
 10
156.205797183
 20
-59.875
 30
0.0
 11
156.205797183
 21
-59.425
 31
0.0
  0
LINE
  8
0
 62
0
 10
156.111412678
 20
-59.875
 30
0.0
 11
156.111412678
 21
-59.425
 31
0.0
  0
LINE
  8
0
 62
0
 10
155.9125
 20
-59.875
 30
0.0
 11
155.9125
 21
-59.425
 31
0.0
  0
LINE
  8
0
 62
0
 10
156.25
 20
-57.975
 30
0.0
 11
156.25
 21
-57.525
 31
0.0
  0
LINE
  8
0
 62
0
 10
155.9125
 20
-57.975
 30
0.0
 11
155.9125
 21
-57.525
 31
0.0
  0
LINE
  8
0
 62
0
 10
156.111412678
 20
-57.975
 30
0.0
 11
156.111412678
 21
-57.525
 31
0.0
  0
LINE
  8
0
 62
0
 10
156.205797183
 20
-57.975
 30
0.0
 11
156.205797183
 21
-57.525
 31
0.0
  0
ENDBLK
  0
BLOCK
  8
0
  2
PART__FEATURE010
 70
0
 10
0.0
 20
0.0
 30
0.0
  3
PART__FEATURE010
  0
POLYLINE
  8
0
 62
0
 70
0
 66
1
 10
0.0
 20
0.0
 30
0.0
  0
VERTEX
  8
0
 10
156.535
 20
-61.275
 30
0.0
  0
VERTEX
  8
0
 10
156.515
 20
-61.275
 30
0.0
  0
SEQEND
  8
0
  0
POLYLINE
  8
0
 62
0
 70
0
 66
1
 10
0.0
 20
0.0
 30
0.0
  0
VERTEX
  8
0
 10
156.215
 20
-61.275
 30
0.0
  0
VERTEX
  8
0
 10
156.235
 20
-61.275
 30
0.0
  0
SEQEND
  8
0
  0
POLYLINE
  8
0
 62
0
 70
0
 66
1
 10
0.0
 20
0.0
 30
0.0
  0
VERTEX
  8
0
 10
156.535
 20
-60.725
 30
0.0
  0
VERTEX
  8
0
 10
156.515
 20
-60.725
 30
0.0
  0
SEQEND
  8
0
  0
POLYLINE
  8
0
 62
0
 70
0
 66
1
 10
0.0
 20
0.0
 30
0.0
  0
VERTEX
  8
0
 10
156.215
 20
-60.725
 30
0.0
  0
VERTEX
  8
0
 10
156.235
 20
-60.725
 30
0.0
  0
SEQEND
  8
0
  0
POLYLINE
  8
0
 62
0
 70
0
 66
1
 10
0.0
 20
0.0
 30
0.0
  0
VERTEX
  8
0
 10
155.785
 20
-61.275
 30
0.0
  0
VERTEX
  8
0
 10
155.765
 20
-61.275
 30
0.0
  0
SEQEND
  8
0
  0
POLYLINE
  8
0
 62
0
 70
0
 66
1
 10
0.0
 20
0.0
 30
0.0
  0
VERTEX
  8
0
 10
155.465
 20
-61.275
 30
0.0
  0
VERTEX
  8
0
 10
155.485
 20
-61.275
 30
0.0
  0
SEQEND
  8
0
  0
POLYLINE
  8
0
 62
0
 70
0
 66
1
 10
0.0
 20
0.0
 30
0.0
  0
VERTEX
  8
0
 10
155.785
 20
-60.725
 30
0.0
  0
VERTEX
  8
0
 10
155.765
 20
-60.725
 30
0.0
  0
SEQEND
  8
0
  0
POLYLINE
  8
0
 62
0
 70
0
 66
1
 10
0.0
 20
0.0
 30
0.0
  0
VERTEX
  8
0
 10
155.465
 20
-60.725
 30
0.0
  0
VERTEX
  8
0
 10
155.485
 20
-60.725
 30
0.0
  0
SEQEND
  8
0
  0
LINE
  8
0
 62
0
 10
156.535
 20
-61.275
 30
0.0
 11
156.535
 21
-60.725
 31
0.0
  0
LINE
  8
0
 62
0
 10
156.515
 20
-61.275
 30
0.0
 11
156.235
 21
-61.275
 31
0.0
  0
LINE
  8
0
 62
0
 10
156.515
 20
-60.725
 30
0.0
 11
156.235
 21
-60.725
 31
0.0
  0
LINE
  8
0
 62
0
 10
156.215
 20
-61.275
 30
0.0
 11
156.215
 21
-60.725
 31
0.0
  0
LINE
  8
0
 62
0
 10
156.215
 20
-61.275
 30
0.0
 11
155.785
 21
-61.275
 31
0.0
  0
LINE
  8
0
 62
0
 10
156.215
 20
-60.725
 30
0.0
 11
155.785
 21
-60.725
 31
0.0
  0
LINE
  8
0
 62
0
 10
155.765
 20
-61.275
 30
0.0
 11
155.485
 21
-61.275
 31
0.0
  0
LINE
  8
0
 62
0
 10
155.765
 20
-60.725
 30
0.0
 11
155.485
 21
-60.725
 31
0.0
  0
LINE
  8
0
 62
0
 10
155.785
 20
-61.275
 30
0.0
 11
155.785
 21
-60.725
 31
0.0
  0
LINE
  8
0
 62
0
 10
155.465
 20
-61.275
 30
0.0
 11
155.465
 21
-60.725
 31
0.0
  0
LINE
  8
0
 62
0
 10
155.465
 20
-61.275
 30
0.0
 11
155.465
 21
-60.725
 31
0.0
  0
LINE
  8
0
 62
0
 10
156.515
 20
-61.275
 30
0.0
 11
156.515
 21
-60.725
 31
0.0
  0
LINE
  8
0
 62
0
 10
156.235
 20
-61.275
 30
0.0
 11
156.235
 21
-60.725
 31
0.0
  0
LINE
  8
0
 62
0
 10
155.765
 20
-61.275
 30
0.0
 11
155.765
 21
-60.725
 31
0.0
  0
LINE
  8
0
 62
0
 10
155.485
 20
-61.275
 30
0.0
 11
155.485
 21
-60.725
 31
0.0
  0
ENDBLK
  0
BLOCK
  8
0
  2
PART__FEATURE016
 70
0
 10
0.0
 20
0.0
 30
0.0
  3
PART__FEATURE016
  0
LINE
  8
0
 62
0
 10
162.4
 20
-48.2
 30
0.0
 11
135.999811
 21
-48.2
 31
0.0
  0
ARC
  8
0
 62
0
 10
162.4
 20
-48.8
 30
0.0
 40
0.6
 50
0.0
 51
90.0
  0
ARC
  8
0
 62
0
 10
136.0
 20
-48.8
 30
0.0
 40
0.6
 50
90.0180481699
 51
-180.0
  0
LINE
  8
0
 62
0
 10
163.0
 20
-72.7
 30
0.0
 11
163.0
 21
-48.8
 31
0.0
  0
ARC
  8
0
 62
0
 10
162.4
 20
-72.7
 30
0.0
 40
0.6
 50
-90.0
 51
0.0
  0
LINE
  8
0
 62
0
 10
136.0
 20
-73.3
 30
0.0
 11
162.4
 21
-73.3
 31
0.0
  0
ARC
  8
0
 62
0
 10
136.0
 20
-72.7
 30
0.0
 40
0.6
 50
180.0
 51
-90.0
  0
LINE
  8
0
 62
0
 10
135.4
 20
-48.8
 30
0.0
 11
135.4
 21
-72.7
 31
0.0
  0
CIRCLE
  8
0
 62
0
 10
137.077381
 20
-53.09
 30
0.0
 40
0.15
  0
CIRCLE
  8
0
 62
0
 10
137.077381
 20
-54.09
 30
0.0
 40
0.15
  0
CIRCLE
  8
0
 62
0
 10
137.2
 20
-55.98
 30
0.0
 40
0.5
  0
CIRCLE
  8
0
 62
0
 10
137.2
 20
-58.52
 30
0.0
 40
0.5
  0
CIRCLE
  8
0
 62
0
 10
137.2
 20
-66.14
 30
0.0
 40
0.5
  0
CIRCLE
  8
0
 62
0
 10
137.2
 20
-63.6
 30
0.0
 40
0.5
  0
CIRCLE
  8
0
 62
0
 10
137.2
 20
-61.06
 30
0.0
 40
0.5
  0
CIRCLE
  8
0
 62
0
 10
139.077381
 20
-53.09
 30
0.0
 40
0.15
  0
CIRCLE
  8
0
 62
0
 10
139.077381
 20
-54.09
 30
0.0
 40
0.15
  0
CIRCLE
  8
0
 62
0
 10
139.077381
 20
-56.09
 30
0.0
 40
0.15
  0
CIRCLE
  8
0
 62
0
 10
139.077381
 20
-55.09
 30
0.0
 40
0.15
  0
CIRCLE
  8
0
 62
0
 10
138.077381
 20
-54.09
 30
0.0
 40
0.15
  0
CIRCLE
  8
0
 62
0
 10
138.077381
 20
-53.09
 30
0.0
 40
0.15
  0
CIRCLE
  8
0
 62
0
 10
140.077381
 20
-53.09
 30
0.0
 40
0.15
  0
CIRCLE
  8
0
 62
0
 10
150.76
 20
-71.0
 30
0.0
 40
0.5
  0
CIRCLE
  8
0
 62
0
 10
148.22
 20
-71.0
 30
0.0
 40
0.5
  0
CIRCLE
  8
0
 62
0
 10
137.2
 20
-68.68
 30
0.0
 40
0.5
  0
CIRCLE
  8
0
 62
0
 10
137.077381
 20
-52.09
 30
0.0
 40
0.15
  0
CIRCLE
  8
0
 62
0
 10
138.077381
 20
-52.09
 30
0.0
 40
0.15
  0
CIRCLE
  8
0
 62
0
 10
140.077381
 20
-52.09
 30
0.0
 40
0.15
  0
CIRCLE
  8
0
 62
0
 10
139.077381
 20
-52.09
 30
0.0
 40
0.15
  0
CIRCLE
  8
0
 62
0
 10
146.077381
 20
-52.09
 30
0.0
 40
0.15
  0
CIRCLE
  8
0
 62
0
 10
145.077381
 20
-52.09
 30
0.0
 40
0.15
  0
CIRCLE
  8
0
 62
0
 10
147.077381
 20
-72.09
 30
0.0
 40
0.15
  0
CIRCLE
  8
0
 62
0
 10
146.077381
 20
-72.09
 30
0.0
 40
0.15
  0
CIRCLE
  8
0
 62
0
 10
144.077381
 20
-72.09
 30
0.0
 40
0.15
  0
CIRCLE
  8
0
 62
0
 10
145.077381
 20
-72.09
 30
0.0
 40
0.15
  0
CIRCLE
  8
0
 62
0
 10
143.077381
 20
-72.09
 30
0.0
 40
0.15
  0
CIRCLE
  8
0
 62
0
 10
145.077381
 20
-50.09
 30
0.0
 40
0.15
  0
CIRCLE
  8
0
 62
0
 10
146.077381
 20
-50.09
 30
0.0
 40
0.15
  0
CIRCLE
  8
0
 62
0
 10
144.077381
 20
-50.09
 30
0.0
 40
0.15
  0
CIRCLE
  8
0
 62
0
 10
143.077381
 20
-50.09
 30
0.0
 40
0.15
  0
CIRCLE
  8
0
 62
0
 10
138.077381
 20
-50.09
 30
0.0
 40
0.15
  0
CIRCLE
  8
0
 62
0
 10
139.077381
 20
-50.09
 30
0.0
 40
0.15
  0
CIRCLE
  8
0
 62
0
 10
141.2
 20
-50.3
 30
0.0
 40
0.4
  0
CIRCLE
  8
0
 62
0
 10
137.077381
 20
-50.09
 30
0.0
 40
0.15
  0
CIRCLE
  8
0
 62
0
 10
148.08
 20
-50.3
 30
0.0
 40
0.5
  0
CIRCLE
  8
0
 62
0
 10
143.077381
 20
-51.09
 30
0.0
 40
0.15
  0
CIRCLE
  8
0
 62
0
 10
144.077381
 20
-51.09
 30
0.0
 40
0.15
  0
CIRCLE
  8
0
 62
0
 10
146.077381
 20
-51.09
 30
0.0
 40
0.15
  0
CIRCLE
  8
0
 62
0
 10
145.077381
 20
-51.09
 30
0.0
 40
0.15
  0
CIRCLE
  8
0
 62
0
 10
139.077381
 20
-51.09
 30
0.0
 40
0.15
  0
CIRCLE
  8
0
 62
0
 10
137.077381
 20
-51.09
 30
0.0
 40
0.15
  0
CIRCLE
  8
0
 62
0
 10
138.077381
 20
-51.09
 30
0.0
 40
0.15
  0
CIRCLE
  8
0
 62
0
 10
150.62
 20
-50.3
 30
0.0
 40
0.5
  0
CIRCLE
  8
0
 62
0
 10
160.9
 20
-62.26
 30
0.0
 40
0.5
  0
CIRCLE
  8
0
 62
0
 10
160.9
 20
-64.8
 30
0.0
 40
0.5
  0
CIRCLE
  8
0
 62
0
 10
160.9
 20
-67.34
 30
0.0
 40
0.5
  0
CIRCLE
  8
0
 62
0
 10
160.9
 20
-59.72
 30
0.0
 40
0.5
  0
CIRCLE
  8
0
 62
0
 10
155.7
 20
-50.3
 30
0.0
 40
0.5
  0
CIRCLE
  8
0
 62
0
 10
158.24
 20
-50.3
 30
0.0
 40
0.5
  0
CIRCLE
  8
0
 62
0
 10
160.9
 20
-54.64
 30
0.0
 40
0.5
  0
CIRCLE
  8
0
 62
0
 10
160.78
 20
-50.3
 30
0.0
 40
0.5
  0
CIRCLE
  8
0
 62
0
 10
160.9
 20
-57.18
 30
0.0
 40
0.5
  0
CIRCLE
  8
0
 62
0
 10
153.16
 20
-50.3
 30
0.0
 40
0.5
  0
CIRCLE
  8
0
 62
0
 10
158.38
 20
-71.0
 30
0.0
 40
0.5
  0
CIRCLE
  8
0
 62
0
 10
153.3
 20
-71.0
 30
0.0
 40
0.5
  0
CIRCLE
  8
0
 62
0
 10
155.84
 20
-71.0
 30
0.0
 40
0.5
  0
CIRCLE
  8
0
 62
0
 10
160.92
 20
-71.0
 30
0.0
 40
0.5
  0
CIRCLE
  8
0
 62
0
 10
162.077381
 20
-69.09
 30
0.0
 40
0.15
  0
CIRCLE
  8
0
 62
0
 10
162.077381
 20
-53.09
 30
0.0
 40
0.15
  0
ENDBLK
  0
BLOCK
  8
0
  2
PART__FEATURE012
 70
0
 10
0.0
 20
0.0
 30
0.0
  3
PART__FEATURE012
  0
POLYLINE
  8
0
 62
0
 70
0
 66
1
 10
0.0
 20
0.0
 30
0.0
  0
VERTEX
  8
0
 10
140.45
 20
-71.13
 30
0.0
  0
VERTEX
  8
0
 10
140.4
 20
-71.13
 30
0.0
  0
VERTEX
  8
0
 10
140.35
 20
-71.13
 30
0.0
  0
SEQEND
  8
0
  0
POLYLINE
  8
0
 62
0
 70
0
 66
1
 10
0.0
 20
0.0
 30
0.0
  0
VERTEX
  8
0
 10
140.45
 20
-70.68
 30
0.0
  0
VERTEX
  8
0
 10
140.4
 20
-70.68
 30
0.0
  0
VERTEX
  8
0
 10
140.35
 20
-70.68
 30
0.0
  0
SEQEND
  8
0
  0
POLYLINE
  8
0
 62
0
 70
0
 66
1
 10
0.0
 20
0.0
 30
0.0
  0
VERTEX
  8
0
 10
140.35
 20
-70.68
 30
0.0
  0
VERTEX
  8
0
 10
140.3
 20
-70.68
 30
0.0
  0
VERTEX
  8
0
 10
140.25
 20
-70.68
 30
0.0
  0
VERTEX
  8
0
 10
140.2
 20
-70.68
 30
0.0
  0
VERTEX
  8
0
 10
140.15
 20
-70.68
 30
0.0
  0
VERTEX
  8
0
 10
140.1
 20
-70.68
 30
0.0
  0
VERTEX
  8
0
 10
140.05
 20
-70.68
 30
0.0
  0
SEQEND
  8
0
  0
POLYLINE
  8
0
 62
0
 70
0
 66
1
 10
0.0
 20
0.0
 30
0.0
  0
VERTEX
  8
0
 10
140.35
 20
-71.13
 30
0.0
  0
VERTEX
  8
0
 10
140.3
 20
-71.13
 30
0.0
  0
VERTEX
  8
0
 10
140.25
 20
-71.13
 30
0.0
  0
VERTEX
  8
0
 10
140.2
 20
-71.13
 30
0.0
  0
VERTEX
  8
0
 10
140.15
 20
-71.13
 30
0.0
  0
VERTEX
  8
0
 10
140.1
 20
-71.13
 30
0.0
  0
VERTEX
  8
0
 10
140.05
 20
-71.13
 30
0.0
  0
SEQEND
  8
0
  0
POLYLINE
  8
0
 62
0
 70
0
 66
1
 10
0.0
 20
0.0
 30
0.0
  0
VERTEX
  8
0
 10
140.864828719
 20
-71.2175856404
 30
0.0
  0
VERTEX
  8
0
 10
140.82010736
 20
-71.2399463202
 30
0.0
  0
VERTEX
  8
0
 10
140.775386
 20
-71.2623069999
 30
0.0
  0
VERTEX
  8
0
 10
140.75
 20
-71.275
 30
0.0
  0
SEQEND
  8
0
  0
POLYLINE
  8
0
 62
0
 70
0
 66
1
 10
0.0
 20
0.0
 30
0.0
  0
VERTEX
  8
0
 10
140.864828719
 20
-66.7824143596
 30
0.0
  0
VERTEX
  8
0
 10
140.82010736
 20
-66.7600536798
 30
0.0
  0
VERTEX
  8
0
 10
140.775386
 20
-66.7376930001
 30
0.0
  0
VERTEX
  8
0
 10
140.75
 20
-66.725
 30
0.0
  0
SEQEND
  8
0
  0
POLYLINE
  8
0
 62
0
 70
0
 66
1
 10
0.0
 20
0.0
 30
0.0
  0
VERTEX
  8
0
 10
140.98241436
 20
-66.6648287192
 30
0.0
  0
VERTEX
  8
0
 10
140.96005368
 20
-66.6201073597
 30
0.0
  0
VERTEX
  8
0
 10
140.937693
 20
-66.5753860001
 30
0.0
  0
VERTEX
  8
0
 10
140.925
 20
-66.55
 30
0.0
  0
SEQEND
  8
0
  0
POLYLINE
  8
0
 62
0
 70
0
 66
1
 10
0.0
 20
0.0
 30
0.0
  0
VERTEX
  8
0
 10
140.98241436
 20
-71.3351712808
 30
0.0
  0
VERTEX
  8
0
 10
140.96005368
 20
-71.3798926403
 30
0.0
  0
VERTEX
  8
0
 10
140.937693
 20
-71.4246139999
 30
0.0
  0
VERTEX
  8
0
 10
140.925
 20
-71.45
 30
0.0
  0
SEQEND
  8
0
  0
POLYLINE
  8
0
 62
0
 70
0
 66
1
 10
0.0
 20
0.0
 30
0.0
  0
VERTEX
  8
0
 10
140.45
 20
-69.86
 30
0.0
  0
VERTEX
  8
0
 10
140.4
 20
-69.86
 30
0.0
  0
VERTEX
  8
0
 10
140.35
 20
-69.86
 30
0.0
  0
SEQEND
  8
0
  0
POLYLINE
  8
0
 62
0
 70
0
 66
1
 10
0.0
 20
0.0
 30
0.0
  0
VERTEX
  8
0
 10
140.35
 20
-69.86
 30
0.0
  0
VERTEX
  8
0
 10
140.3
 20
-69.86
 30
0.0
  0
VERTEX
  8
0
 10
140.25
 20
-69.86
 30
0.0
  0
VERTEX
  8
0
 10
140.2
 20
-69.86
 30
0.0
  0
VERTEX
  8
0
 10
140.15
 20
-69.86
 30
0.0
  0
VERTEX
  8
0
 10
140.1
 20
-69.86
 30
0.0
  0
VERTEX
  8
0
 10
140.05
 20
-69.86
 30
0.0
  0
SEQEND
  8
0
  0
POLYLINE
  8
0
 62
0
 70
0
 66
1
 10
0.0
 20
0.0
 30
0.0
  0
VERTEX
  8
0
 10
144.41758564
 20
-71.3351712808
 30
0.0
  0
VERTEX
  8
0
 10
144.43994632
 20
-71.3798926403
 30
0.0
  0
VERTEX
  8
0
 10
144.462307
 20
-71.4246139999
 30
0.0
  0
VERTEX
  8
0
 10
144.475
 20
-71.45
 30
0.0
  0
SEQEND
  8
0
  0
POLYLINE
  8
0
 62
0
 70
0
 66
1
 10
0.0
 20
0.0
 30
0.0
  0
VERTEX
  8
0
 10
144.535171281
 20
-71.2175856404
 30
0.0
  0
VERTEX
  8
0
 10
144.57989264
 20
-71.2399463202
 30
0.0
  0
VERTEX
  8
0
 10
144.624614
 20
-71.2623069999
 30
0.0
  0
VERTEX
  8
0
 10
144.65
 20
-71.275
 30
0.0
  0
SEQEND
  8
0
  0
POLYLINE
  8
0
 62
0
 70
0
 66
1
 10
0.0
 20
0.0
 30
0.0
  0
VERTEX
  8
0
 10
144.535171281
 20
-66.7824143596
 30
0.0
  0
VERTEX
  8
0
 10
144.57989264
 20
-66.7600536798
 30
0.0
  0
VERTEX
  8
0
 10
144.624614
 20
-66.7376930001
 30
0.0
  0
VERTEX
  8
0
 10
144.65
 20
-66.725
 30
0.0
  0
SEQEND
  8
0
  0
POLYLINE
  8
0
 62
0
 70
0
 66
1
 10
0.0
 20
0.0
 30
0.0
  0
VERTEX
  8
0
 10
144.41758564
 20
-66.6648287192
 30
0.0
  0
VERTEX
  8
0
 10
144.43994632
 20
-66.6201073597
 30
0.0
  0
VERTEX
  8
0
 10
144.462307
 20
-66.5753860001
 30
0.0
  0
VERTEX
  8
0
 10
144.475
 20
-66.55
 30
0.0
  0
SEQEND
  8
0
  0
POLYLINE
  8
0
 62
0
 70
0
 66
1
 10
0.0
 20
0.0
 30
0.0
  0
VERTEX
  8
0
 10
140.45
 20
-66.87
 30
0.0
  0
VERTEX
  8
0
 10
140.4
 20
-66.87
 30
0.0
  0
VERTEX
  8
0
 10
140.35
 20
-66.87
 30
0.0
  0
SEQEND
  8
0
  0
POLYLINE
  8
0
 62
0
 70
0
 66
1
 10
0.0
 20
0.0
 30
0.0
  0
VERTEX
  8
0
 10
140.35
 20
-66.87
 30
0.0
  0
VERTEX
  8
0
 10
140.3
 20
-66.87
 30
0.0
  0
VERTEX
  8
0
 10
140.25
 20
-66.87
 30
0.0
  0
VERTEX
  8
0
 10
140.2
 20
-66.87
 30
0.0
  0
VERTEX
  8
0
 10
140.15
 20
-66.87
 30
0.0
  0
VERTEX
  8
0
 10
140.1
 20
-66.87
 30
0.0
  0
VERTEX
  8
0
 10
140.05
 20
-66.87
 30
0.0
  0
SEQEND
  8
0
  0
POLYLINE
  8
0
 62
0
 70
0
 66
1
 10
0.0
 20
0.0
 30
0.0
  0
VERTEX
  8
0
 10
140.45
 20
-67.32
 30
0.0
  0
VERTEX
  8
0
 10
140.4
 20
-67.32
 30
0.0
  0
VERTEX
  8
0
 10
140.35
 20
-67.32
 30
0.0
  0
SEQEND
  8
0
  0
POLYLINE
  8
0
 62
0
 70
0
 66
1
 10
0.0
 20
0.0
 30
0.0
  0
VERTEX
  8
0
 10
140.35
 20
-67.32
 30
0.0
  0
VERTEX
  8
0
 10
140.3
 20
-67.32
 30
0.0
  0
VERTEX
  8
0
 10
140.25
 20
-67.32
 30
0.0
  0
VERTEX
  8
0
 10
140.2
 20
-67.32
 30
0.0
  0
VERTEX
  8
0
 10
140.15
 20
-67.32
 30
0.0
  0
VERTEX
  8
0
 10
140.1
 20
-67.32
 30
0.0
  0
VERTEX
  8
0
 10
140.05
 20
-67.32
 30
0.0
  0
SEQEND
  8
0
  0
POLYLINE
  8
0
 62
0
 70
0
 66
1
 10
0.0
 20
0.0
 30
0.0
  0
VERTEX
  8
0
 10
140.45
 20
-68.14
 30
0.0
  0
VERTEX
  8
0
 10
140.4
 20
-68.14
 30
0.0
  0
VERTEX
  8
0
 10
140.35
 20
-68.14
 30
0.0
  0
SEQEND
  8
0
  0
POLYLINE
  8
0
 62
0
 70
0
 66
1
 10
0.0
 20
0.0
 30
0.0
  0
VERTEX
  8
0
 10
140.35
 20
-68.14
 30
0.0
  0
VERTEX
  8
0
 10
140.3
 20
-68.14
 30
0.0
  0
VERTEX
  8
0
 10
140.25
 20
-68.14
 30
0.0
  0
VERTEX
  8
0
 10
140.2
 20
-68.14
 30
0.0
  0
VERTEX
  8
0
 10
140.15
 20
-68.14
 30
0.0
  0
VERTEX
  8
0
 10
140.1
 20
-68.14
 30
0.0
  0
VERTEX
  8
0
 10
140.05
 20
-68.14
 30
0.0
  0
SEQEND
  8
0
  0
POLYLINE
  8
0
 62
0
 70
0
 66
1
 10
0.0
 20
0.0
 30
0.0
  0
VERTEX
  8
0
 10
140.45
 20
-68.59
 30
0.0
  0
VERTEX
  8
0
 10
140.4
 20
-68.59
 30
0.0
  0
VERTEX
  8
0
 10
140.35
 20
-68.59
 30
0.0
  0
SEQEND
  8
0
  0
POLYLINE
  8
0
 62
0
 70
0
 66
1
 10
0.0
 20
0.0
 30
0.0
  0
VERTEX
  8
0
 10
140.35
 20
-68.59
 30
0.0
  0
VERTEX
  8
0
 10
140.3
 20
-68.59
 30
0.0
  0
VERTEX
  8
0
 10
140.25
 20
-68.59
 30
0.0
  0
VERTEX
  8
0
 10
140.2
 20
-68.59
 30
0.0
  0
VERTEX
  8
0
 10
140.15
 20
-68.59
 30
0.0
  0
VERTEX
  8
0
 10
140.1
 20
-68.59
 30
0.0
  0
VERTEX
  8
0
 10
140.05
 20
-68.59
 30
0.0
  0
SEQEND
  8
0
  0
POLYLINE
  8
0
 62
0
 70
0
 66
1
 10
0.0
 20
0.0
 30
0.0
  0
VERTEX
  8
0
 10
140.45
 20
-69.41
 30
0.0
  0
VERTEX
  8
0
 10
140.4
 20
-69.41
 30
0.0
  0
VERTEX
  8
0
 10
140.35
 20
-69.41
 30
0.0
  0
SEQEND
  8
0
  0
POLYLINE
  8
0
 62
0
 70
0
 66
1
 10
0.0
 20
0.0
 30
0.0
  0
VERTEX
  8
0
 10
140.35
 20
-69.41
 30
0.0
  0
VERTEX
  8
0
 10
140.3
 20
-69.41
 30
0.0
  0
VERTEX
  8
0
 10
140.25
 20
-69.41
 30
0.0
  0
VERTEX
  8
0
 10
140.2
 20
-69.41
 30
0.0
  0
VERTEX
  8
0
 10
140.15
 20
-69.41
 30
0.0
  0
VERTEX
  8
0
 10
140.1
 20
-69.41
 30
0.0
  0
VERTEX
  8
0
 10
140.05
 20
-69.41
 30
0.0
  0
SEQEND
  8
0
  0
POLYLINE
  8
0
 62
0
 70
0
 66
1
 10
0.0
 20
0.0
 30
0.0
  0
VERTEX
  8
0
 10
144.95
 20
-71.13
 30
0.0
  0
VERTEX
  8
0
 10
145.0
 20
-71.13
 30
0.0
  0
VERTEX
  8
0
 10
145.05
 20
-71.13
 30
0.0
  0
SEQEND
  8
0
  0
POLYLINE
  8
0
 62
0
 70
0
 66
1
 10
0.0
 20
0.0
 30
0.0
  0
VERTEX
  8
0
 10
145.05
 20
-71.13
 30
0.0
  0
VERTEX
  8
0
 10
145.1
 20
-71.13
 30
0.0
  0
VERTEX
  8
0
 10
145.15
 20
-71.13
 30
0.0
  0
VERTEX
  8
0
 10
145.2
 20
-71.13
 30
0.0
  0
VERTEX
  8
0
 10
145.25
 20
-71.13
 30
0.0
  0
VERTEX
  8
0
 10
145.3
 20
-71.13
 30
0.0
  0
VERTEX
  8
0
 10
145.35
 20
-71.13
 30
0.0
  0
SEQEND
  8
0
  0
POLYLINE
  8
0
 62
0
 70
0
 66
1
 10
0.0
 20
0.0
 30
0.0
  0
VERTEX
  8
0
 10
144.95
 20
-66.87
 30
0.0
  0
VERTEX
  8
0
 10
145.0
 20
-66.87
 30
0.0
  0
VERTEX
  8
0
 10
145.05
 20
-66.87
 30
0.0
  0
SEQEND
  8
0
  0
POLYLINE
  8
0
 62
0
 70
0
 66
1
 10
0.0
 20
0.0
 30
0.0
  0
VERTEX
  8
0
 10
145.05
 20
-66.87
 30
0.0
  0
VERTEX
  8
0
 10
145.1
 20
-66.87
 30
0.0
  0
VERTEX
  8
0
 10
145.15
 20
-66.87
 30
0.0
  0
VERTEX
  8
0
 10
145.2
 20
-66.87
 30
0.0
  0
VERTEX
  8
0
 10
145.25
 20
-66.87
 30
0.0
  0
VERTEX
  8
0
 10
145.3
 20
-66.87
 30
0.0
  0
VERTEX
  8
0
 10
145.35
 20
-66.87
 30
0.0
  0
SEQEND
  8
0
  0
POLYLINE
  8
0
 62
0
 70
0
 66
1
 10
0.0
 20
0.0
 30
0.0
  0
VERTEX
  8
0
 10
144.95
 20
-70.68
 30
0.0
  0
VERTEX
  8
0
 10
145.0
 20
-70.68
 30
0.0
  0
VERTEX
  8
0
 10
145.05
 20
-70.68
 30
0.0
  0
SEQEND
  8
0
  0
POLYLINE
  8
0
 62
0
 70
0
 66
1
 10
0.0
 20
0.0
 30
0.0
  0
VERTEX
  8
0
 10
145.05
 20
-70.68
 30
0.0
  0
VERTEX
  8
0
 10
145.1
 20
-70.68
 30
0.0
  0
VERTEX
  8
0
 10
145.15
 20
-70.68
 30
0.0
  0
VERTEX
  8
0
 10
145.2
 20
-70.68
 30
0.0
  0
VERTEX
  8
0
 10
145.25
 20
-70.68
 30
0.0
  0
VERTEX
  8
0
 10
145.3
 20
-70.68
 30
0.0
  0
VERTEX
  8
0
 10
145.35
 20
-70.68
 30
0.0
  0
SEQEND
  8
0
  0
POLYLINE
  8
0
 62
0
 70
0
 66
1
 10
0.0
 20
0.0
 30
0.0
  0
VERTEX
  8
0
 10
144.95
 20
-67.32
 30
0.0
  0
VERTEX
  8
0
 10
145.0
 20
-67.32
 30
0.0
  0
VERTEX
  8
0
 10
145.05
 20
-67.32
 30
0.0
  0
SEQEND
  8
0
  0
POLYLINE
  8
0
 62
0
 70
0
 66
1
 10
0.0
 20
0.0
 30
0.0
  0
VERTEX
  8
0
 10
145.05
 20
-67.32
 30
0.0
  0
VERTEX
  8
0
 10
145.1
 20
-67.32
 30
0.0
  0
VERTEX
  8
0
 10
145.15
 20
-67.32
 30
0.0
  0
VERTEX
  8
0
 10
145.2
 20
-67.32
 30
0.0
  0
VERTEX
  8
0
 10
145.25
 20
-67.32
 30
0.0
  0
VERTEX
  8
0
 10
145.3
 20
-67.32
 30
0.0
  0
VERTEX
  8
0
 10
145.35
 20
-67.32
 30
0.0
  0
SEQEND
  8
0
  0
POLYLINE
  8
0
 62
0
 70
0
 66
1
 10
0.0
 20
0.0
 30
0.0
  0
VERTEX
  8
0
 10
144.95
 20
-69.86
 30
0.0
  0
VERTEX
  8
0
 10
145.0
 20
-69.86
 30
0.0
  0
VERTEX
  8
0
 10
145.05
 20
-69.86
 30
0.0
  0
SEQEND
  8
0
  0
POLYLINE
  8
0
 62
0
 70
0
 66
1
 10
0.0
 20
0.0
 30
0.0
  0
VERTEX
  8
0
 10
145.05
 20
-69.86
 30
0.0
  0
VERTEX
  8
0
 10
145.1
 20
-69.86
 30
0.0
  0
VERTEX
  8
0
 10
145.15
 20
-69.86
 30
0.0
  0
VERTEX
  8
0
 10
145.2
 20
-69.86
 30
0.0
  0
VERTEX
  8
0
 10
145.25
 20
-69.86
 30
0.0
  0
VERTEX
  8
0
 10
145.3
 20
-69.86
 30
0.0
  0
VERTEX
  8
0
 10
145.35
 20
-69.86
 30
0.0
  0
SEQEND
  8
0
  0
POLYLINE
  8
0
 62
0
 70
0
 66
1
 10
0.0
 20
0.0
 30
0.0
  0
VERTEX
  8
0
 10
144.95
 20
-68.14
 30
0.0
  0
VERTEX
  8
0
 10
145.0
 20
-68.14
 30
0.0
  0
VERTEX
  8
0
 10
145.05
 20
-68.14
 30
0.0
  0
SEQEND
  8
0
  0
POLYLINE
  8
0
 62
0
 70
0
 66
1
 10
0.0
 20
0.0
 30
0.0
  0
VERTEX
  8
0
 10
145.05
 20
-68.14
 30
0.0
  0
VERTEX
  8
0
 10
145.1
 20
-68.14
 30
0.0
  0
VERTEX
  8
0
 10
145.15
 20
-68.14
 30
0.0
  0
VERTEX
  8
0
 10
145.2
 20
-68.14
 30
0.0
  0
VERTEX
  8
0
 10
145.25
 20
-68.14
 30
0.0
  0
VERTEX
  8
0
 10
145.3
 20
-68.14
 30
0.0
  0
VERTEX
  8
0
 10
145.35
 20
-68.14
 30
0.0
  0
SEQEND
  8
0
  0
POLYLINE
  8
0
 62
0
 70
0
 66
1
 10
0.0
 20
0.0
 30
0.0
  0
VERTEX
  8
0
 10
144.95
 20
-69.41
 30
0.0
  0
VERTEX
  8
0
 10
145.0
 20
-69.41
 30
0.0
  0
VERTEX
  8
0
 10
145.05
 20
-69.41
 30
0.0
  0
SEQEND
  8
0
  0
POLYLINE
  8
0
 62
0
 70
0
 66
1
 10
0.0
 20
0.0
 30
0.0
  0
VERTEX
  8
0
 10
145.05
 20
-69.41
 30
0.0
  0
VERTEX
  8
0
 10
145.1
 20
-69.41
 30
0.0
  0
VERTEX
  8
0
 10
145.15
 20
-69.41
 30
0.0
  0
VERTEX
  8
0
 10
145.2
 20
-69.41
 30
0.0
  0
VERTEX
  8
0
 10
145.25
 20
-69.41
 30
0.0
  0
VERTEX
  8
0
 10
145.3
 20
-69.41
 30
0.0
  0
VERTEX
  8
0
 10
145.35
 20
-69.41
 30
0.0
  0
SEQEND
  8
0
  0
POLYLINE
  8
0
 62
0
 70
0
 66
1
 10
0.0
 20
0.0
 30
0.0
  0
VERTEX
  8
0
 10
144.95
 20
-68.59
 30
0.0
  0
VERTEX
  8
0
 10
145.0
 20
-68.59
 30
0.0
  0
VERTEX
  8
0
 10
145.05
 20
-68.59
 30
0.0
  0
SEQEND
  8
0
  0
POLYLINE
  8
0
 62
0
 70
0
 66
1
 10
0.0
 20
0.0
 30
0.0
  0
VERTEX
  8
0
 10
145.05
 20
-68.59
 30
0.0
  0
VERTEX
  8
0
 10
145.1
 20
-68.59
 30
0.0
  0
VERTEX
  8
0
 10
145.15
 20
-68.59
 30
0.0
  0
VERTEX
  8
0
 10
145.2
 20
-68.59
 30
0.0
  0
VERTEX
  8
0
 10
145.25
 20
-68.59
 30
0.0
  0
VERTEX
  8
0
 10
145.3
 20
-68.59
 30
0.0
  0
VERTEX
  8
0
 10
145.35
 20
-68.59
 30
0.0
  0
SEQEND
  8
0
  0
LINE
  8
0
 62
0
 10
140.75
 20
-70.68
 30
0.0
 11
140.45
 21
-70.68
 31
0.0
  0
LINE
  8
0
 62
0
 10
140.75
 20
-70.68
 30
0.0
 11
140.75
 21
-71.13
 31
0.0
  0
LINE
  8
0
 62
0
 10
140.75
 20
-71.13
 30
0.0
 11
140.45
 21
-71.13
 31
0.0
  0
LINE
  8
0
 62
0
 10
140.35
 20
-70.68
 30
0.0
 11
140.35
 21
-71.13
 31
0.0
  0
LINE
  8
0
 62
0
 10
140.05
 20
-70.68
 30
0.0
 11
139.7
 21
-70.68
 31
0.0
  0
LINE
  8
0
 62
0
 10
140.05
 20
-71.13
 30
0.0
 11
139.7
 21
-71.13
 31
0.0
  0
LINE
  8
0
 62
0
 10
140.864828719
 20
-66.7824143596
 30
0.0
 11
140.864828719
 21
-71.2175856404
 31
0.0
  0
LINE
  8
0
 62
0
 10
140.75
 20
-71.13
 30
0.0
 11
140.75
 21
-71.275
 31
0.0
  0
LINE
  8
0
 62
0
 10
140.75
 20
-69.86
 30
0.0
 11
140.75
 21
-70.68
 31
0.0
  0
LINE
  8
0
 62
0
 10
140.75
 20
-69.41
 30
0.0
 11
140.75
 21
-69.86
 31
0.0
  0
LINE
  8
0
 62
0
 10
140.75
 20
-68.59
 30
0.0
 11
140.75
 21
-69.41
 31
0.0
  0
LINE
  8
0
 62
0
 10
140.75
 20
-68.14
 30
0.0
 11
140.75
 21
-68.59
 31
0.0
  0
LINE
  8
0
 62
0
 10
140.75
 20
-67.32
 30
0.0
 11
140.75
 21
-68.14
 31
0.0
  0
LINE
  8
0
 62
0
 10
140.75
 20
-66.87
 30
0.0
 11
140.75
 21
-67.32
 31
0.0
  0
LINE
  8
0
 62
0
 10
140.75
 20
-66.725
 30
0.0
 11
140.75
 21
-66.87
 31
0.0
  0
LINE
  8
0
 62
0
 10
139.7
 20
-70.68
 30
0.0
 11
139.7
 21
-71.13
 31
0.0
  0
LINE
  8
0
 62
0
 10
140.98241436
 20
-71.3351712808
 30
0.0
 11
144.41758564
 21
-71.3351712808
 31
0.0
  0
LINE
  8
0
 62
0
 10
144.41758564
 20
-71.3351712808
 30
0.0
 11
144.535171281
 21
-71.2175856404
 31
0.0
  0
LINE
  8
0
 62
0
 10
144.535171281
 20
-71.2175856404
 30
0.0
 11
144.535171281
 21
-66.7824143596
 31
0.0
  0
LINE
  8
0
 62
0
 10
144.535171281
 20
-66.7824143596
 30
0.0
 11
144.41758564
 21
-66.6648287192
 31
0.0
  0
LINE
  8
0
 62
0
 10
144.41758564
 20
-66.6648287192
 30
0.0
 11
140.98241436
 21
-66.6648287192
 31
0.0
  0
LINE
  8
0
 62
0
 10
140.98241436
 20
-66.6648287192
 30
0.0
 11
140.864828719
 21
-66.7824143596
 31
0.0
  0
LINE
  8
0
 62
0
 10
140.864828719
 20
-71.2175856404
 30
0.0
 11
140.98241436
 21
-71.3351712808
 31
0.0
  0
LINE
  8
0
 62
0
 10
140.925
 20
-66.55
 30
0.0
 11
140.75
 21
-66.725
 31
0.0
  0
LINE
  8
0
 62
0
 10
140.75
 20
-71.275
 30
0.0
 11
140.925
 21
-71.45
 31
0.0
  0
LINE
  8
0
 62
0
 10
140.75
 20
-66.87
 30
0.0
 11
140.45
 21
-66.87
 31
0.0
  0
LINE
  8
0
 62
0
 10
140.75
 20
-67.32
 30
0.0
 11
140.45
 21
-67.32
 31
0.0
  0
LINE
  8
0
 62
0
 10
140.75
 20
-68.14
 30
0.0
 11
140.45
 21
-68.14
 31
0.0
  0
LINE
  8
0
 62
0
 10
140.75
 20
-68.59
 30
0.0
 11
140.45
 21
-68.59
 31
0.0
  0
LINE
  8
0
 62
0
 10
140.75
 20
-69.41
 30
0.0
 11
140.45
 21
-69.41
 31
0.0
  0
LINE
  8
0
 62
0
 10
140.75
 20
-69.86
 30
0.0
 11
140.45
 21
-69.86
 31
0.0
  0
LINE
  8
0
 62
0
 10
140.05
 20
-69.86
 30
0.0
 11
139.7
 21
-69.86
 31
0.0
  0
LINE
  8
0
 62
0
 10
140.925
 20
-71.45
 30
0.0
 11
144.475
 21
-71.45
 31
0.0
  0
LINE
  8
0
 62
0
 10
144.475
 20
-71.45
 30
0.0
 11
144.65
 21
-71.275
 31
0.0
  0
LINE
  8
0
 62
0
 10
144.65
 20
-66.87
 30
0.0
 11
144.65
 21
-66.725
 31
0.0
  0
LINE
  8
0
 62
0
 10
144.65
 20
-67.32
 30
0.0
 11
144.65
 21
-66.87
 31
0.0
  0
LINE
  8
0
 62
0
 10
144.65
 20
-68.14
 30
0.0
 11
144.65
 21
-67.32
 31
0.0
  0
LINE
  8
0
 62
0
 10
144.65
 20
-68.59
 30
0.0
 11
144.65
 21
-68.14
 31
0.0
  0
LINE
  8
0
 62
0
 10
144.65
 20
-69.41
 30
0.0
 11
144.65
 21
-68.59
 31
0.0
  0
LINE
  8
0
 62
0
 10
144.65
 20
-69.86
 30
0.0
 11
144.65
 21
-69.41
 31
0.0
  0
LINE
  8
0
 62
0
 10
144.65
 20
-70.68
 30
0.0
 11
144.65
 21
-69.86
 31
0.0
  0
LINE
  8
0
 62
0
 10
144.65
 20
-71.13
 30
0.0
 11
144.65
 21
-70.68
 31
0.0
  0
LINE
  8
0
 62
0
 10
144.65
 20
-71.275
 30
0.0
 11
144.65
 21
-71.13
 31
0.0
  0
LINE
  8
0
 62
0
 10
144.65
 20
-66.725
 30
0.0
 11
144.475
 21
-66.55
 31
0.0
  0
LINE
  8
0
 62
0
 10
144.475
 20
-66.55
 30
0.0
 11
140.925
 21
-66.55
 31
0.0
  0
LINE
  8
0
 62
0
 10
140.05
 20
-66.87
 30
0.0
 11
139.7
 21
-66.87
 31
0.0
  0
LINE
  8
0
 62
0
 10
140.05
 20
-67.32
 30
0.0
 11
139.7
 21
-67.32
 31
0.0
  0
LINE
  8
0
 62
0
 10
140.05
 20
-68.14
 30
0.0
 11
139.7
 21
-68.14
 31
0.0
  0
LINE
  8
0
 62
0
 10
140.05
 20
-68.59
 30
0.0
 11
139.7
 21
-68.59
 31
0.0
  0
LINE
  8
0
 62
0
 10
140.05
 20
-69.41
 30
0.0
 11
139.7
 21
-69.41
 31
0.0
  0
LINE
  8
0
 62
0
 10
139.7
 20
-69.41
 30
0.0
 11
139.7
 21
-69.86
 31
0.0
  0
LINE
  8
0
 62
0
 10
140.35
 20
-69.41
 30
0.0
 11
140.35
 21
-69.86
 31
0.0
  0
LINE
  8
0
 62
0
 10
144.65
 20
-71.13
 30
0.0
 11
144.95
 21
-71.13
 31
0.0
  0
LINE
  8
0
 62
0
 10
144.65
 20
-70.68
 30
0.0
 11
144.95
 21
-70.68
 31
0.0
  0
LINE
  8
0
 62
0
 10
144.65
 20
-67.32
 30
0.0
 11
144.95
 21
-67.32
 31
0.0
  0
LINE
  8
0
 62
0
 10
144.65
 20
-66.87
 30
0.0
 11
144.95
 21
-66.87
 31
0.0
  0
LINE
  8
0
 62
0
 10
144.65
 20
-69.86
 30
0.0
 11
144.95
 21
-69.86
 31
0.0
  0
LINE
  8
0
 62
0
 10
144.65
 20
-69.41
 30
0.0
 11
144.95
 21
-69.41
 31
0.0
  0
LINE
  8
0
 62
0
 10
144.65
 20
-68.59
 30
0.0
 11
144.95
 21
-68.59
 31
0.0
  0
LINE
  8
0
 62
0
 10
144.65
 20
-68.14
 30
0.0
 11
144.95
 21
-68.14
 31
0.0
  0
LINE
  8
0
 62
0
 10
139.7
 20
-66.87
 30
0.0
 11
139.7
 21
-67.32
 31
0.0
  0
LINE
  8
0
 62
0
 10
140.35
 20
-66.87
 30
0.0
 11
140.35
 21
-67.32
 31
0.0
  0
LINE
  8
0
 62
0
 10
139.7
 20
-68.14
 30
0.0
 11
139.7
 21
-68.59
 31
0.0
  0
LINE
  8
0
 62
0
 10
140.35
 20
-68.14
 30
0.0
 11
140.35
 21
-68.59
 31
0.0
  0
LINE
  8
0
 62
0
 10
145.35
 20
-71.13
 30
0.0
 11
145.7
 21
-71.13
 31
0.0
  0
LINE
  8
0
 62
0
 10
145.35
 20
-66.87
 30
0.0
 11
145.7
 21
-66.87
 31
0.0
  0
LINE
  8
0
 62
0
 10
145.35
 20
-70.68
 30
0.0
 11
145.7
 21
-70.68
 31
0.0
  0
LINE
  8
0
 62
0
 10
145.35
 20
-67.32
 30
0.0
 11
145.7
 21
-67.32
 31
0.0
  0
LINE
  8
0
 62
0
 10
145.35
 20
-69.86
 30
0.0
 11
145.7
 21
-69.86
 31
0.0
  0
LINE
  8
0
 62
0
 10
145.35
 20
-68.14
 30
0.0
 11
145.7
 21
-68.14
 31
0.0
  0
LINE
  8
0
 62
0
 10
145.35
 20
-69.41
 30
0.0
 11
145.7
 21
-69.41
 31
0.0
  0
LINE
  8
0
 62
0
 10
145.35
 20
-68.59
 30
0.0
 11
145.7
 21
-68.59
 31
0.0
  0
LINE
  8
0
 62
0
 10
145.7
 20
-71.13
 30
0.0
 11
145.7
 21
-70.68
 31
0.0
  0
LINE
  8
0
 62
0
 10
145.05
 20
-71.13
 30
0.0
 11
145.05
 21
-70.68
 31
0.0
  0
LINE
  8
0
 62
0
 10
145.7
 20
-67.32
 30
0.0
 11
145.7
 21
-66.87
 31
0.0
  0
LINE
  8
0
 62
0
 10
145.05
 20
-67.32
 30
0.0
 11
145.05
 21
-66.87
 31
0.0
  0
LINE
  8
0
 62
0
 10
145.7
 20
-69.86
 30
0.0
 11
145.7
 21
-69.41
 31
0.0
  0
LINE
  8
0
 62
0
 10
145.05
 20
-69.86
 30
0.0
 11
145.05
 21
-69.41
 31
0.0
  0
LINE
  8
0
 62
0
 10
145.7
 20
-68.59
 30
0.0
 11
145.7
 21
-68.14
 31
0.0
  0
LINE
  8
0
 62
0
 10
145.05
 20
-68.59
 30
0.0
 11
145.05
 21
-68.14
 31
0.0
  0
LINE
  8
0
 62
0
 10
140.45
 20
-70.68
 30
0.0
 11
140.45
 21
-71.13
 31
0.0
  0
LINE
  8
0
 62
0
 10
140.05
 20
-70.68
 30
0.0
 11
140.05
 21
-71.13
 31
0.0
  0
LINE
  8
0
 62
0
 10
140.45
 20
-66.87
 30
0.0
 11
140.45
 21
-67.32
 31
0.0
  0
LINE
  8
0
 62
0
 10
140.45
 20
-68.14
 30
0.0
 11
140.45
 21
-68.59
 31
0.0
  0
LINE
  8
0
 62
0
 10
140.45
 20
-69.41
 30
0.0
 11
140.45
 21
-69.86
 31
0.0
  0
LINE
  8
0
 62
0
 10
140.05
 20
-69.41
 30
0.0
 11
140.05
 21
-69.86
 31
0.0
  0
LINE
  8
0
 62
0
 10
144.95
 20
-71.13
 30
0.0
 11
144.95
 21
-70.68
 31
0.0
  0
LINE
  8
0
 62
0
 10
144.95
 20
-67.32
 30
0.0
 11
144.95
 21
-66.87
 31
0.0
  0
LINE
  8
0
 62
0
 10
144.95
 20
-69.86
 30
0.0
 11
144.95
 21
-69.41
 31
0.0
  0
LINE
  8
0
 62
0
 10
144.95
 20
-68.59
 30
0.0
 11
144.95
 21
-68.14
 31
0.0
  0
LINE
  8
0
 62
0
 10
140.05
 20
-66.87
 30
0.0
 11
140.05
 21
-67.32
 31
0.0
  0
LINE
  8
0
 62
0
 10
140.05
 20
-68.14
 30
0.0
 11
140.05
 21
-68.59
 31
0.0
  0
LINE
  8
0
 62
0
 10
145.35
 20
-71.13
 30
0.0
 11
145.35
 21
-70.68
 31
0.0
  0
LINE
  8
0
 62
0
 10
145.35
 20
-67.32
 30
0.0
 11
145.35
 21
-66.87
 31
0.0
  0
LINE
  8
0
 62
0
 10
145.35
 20
-69.86
 30
0.0
 11
145.35
 21
-69.41
 31
0.0
  0
LINE
  8
0
 62
0
 10
145.35
 20
-68.59
 30
0.0
 11
145.35
 21
-68.14
 31
0.0
  0
ENDBLK
  0
BLOCK
  8
0
  2
PART__FEATURE009
 70
0
 10
0.0
 20
0.0
 30
0.0
  3
PART__FEATURE009
  0
POLYLINE
  8
0
 62
0
 70
0
 66
1
 10
0.0
 20
0.0
 30
0.0
  0
VERTEX
  8
0
 10
153.865
 20
-55.725
 30
0.0
  0
VERTEX
  8
0
 10
153.885
 20
-55.725
 30
0.0
  0
SEQEND
  8
0
  0
POLYLINE
  8
0
 62
0
 70
0
 66
1
 10
0.0
 20
0.0
 30
0.0
  0
VERTEX
  8
0
 10
154.185
 20
-55.725
 30
0.0
  0
VERTEX
  8
0
 10
154.165
 20
-55.725
 30
0.0
  0
SEQEND
  8
0
  0
POLYLINE
  8
0
 62
0
 70
0
 66
1
 10
0.0
 20
0.0
 30
0.0
  0
VERTEX
  8
0
 10
153.865
 20
-56.275
 30
0.0
  0
VERTEX
  8
0
 10
153.885
 20
-56.275
 30
0.0
  0
SEQEND
  8
0
  0
POLYLINE
  8
0
 62
0
 70
0
 66
1
 10
0.0
 20
0.0
 30
0.0
  0
VERTEX
  8
0
 10
154.185
 20
-56.275
 30
0.0
  0
VERTEX
  8
0
 10
154.165
 20
-56.275
 30
0.0
  0
SEQEND
  8
0
  0
POLYLINE
  8
0
 62
0
 70
0
 66
1
 10
0.0
 20
0.0
 30
0.0
  0
VERTEX
  8
0
 10
154.615
 20
-55.725
 30
0.0
  0
VERTEX
  8
0
 10
154.635
 20
-55.725
 30
0.0
  0
SEQEND
  8
0
  0
POLYLINE
  8
0
 62
0
 70
0
 66
1
 10
0.0
 20
0.0
 30
0.0
  0
VERTEX
  8
0
 10
154.935
 20
-55.725
 30
0.0
  0
VERTEX
  8
0
 10
154.915
 20
-55.725
 30
0.0
  0
SEQEND
  8
0
  0
POLYLINE
  8
0
 62
0
 70
0
 66
1
 10
0.0
 20
0.0
 30
0.0
  0
VERTEX
  8
0
 10
154.615
 20
-56.275
 30
0.0
  0
VERTEX
  8
0
 10
154.635
 20
-56.275
 30
0.0
  0
SEQEND
  8
0
  0
POLYLINE
  8
0
 62
0
 70
0
 66
1
 10
0.0
 20
0.0
 30
0.0
  0
VERTEX
  8
0
 10
154.935
 20
-56.275
 30
0.0
  0
VERTEX
  8
0
 10
154.915
 20
-56.275
 30
0.0
  0
SEQEND
  8
0
  0
LINE
  8
0
 62
0
 10
153.865
 20
-55.725
 30
0.0
 11
153.865
 21
-56.275
 31
0.0
  0
LINE
  8
0
 62
0
 10
153.885
 20
-55.725
 30
0.0
 11
154.165
 21
-55.725
 31
0.0
  0
LINE
  8
0
 62
0
 10
153.885
 20
-56.275
 30
0.0
 11
154.165
 21
-56.275
 31
0.0
  0
LINE
  8
0
 62
0
 10
154.185
 20
-55.725
 30
0.0
 11
154.185
 21
-56.275
 31
0.0
  0
LINE
  8
0
 62
0
 10
154.185
 20
-55.725
 30
0.0
 11
154.615
 21
-55.725
 31
0.0
  0
LINE
  8
0
 62
0
 10
154.185
 20
-56.275
 30
0.0
 11
154.615
 21
-56.275
 31
0.0
  0
LINE
  8
0
 62
0
 10
154.635
 20
-55.725
 30
0.0
 11
154.915
 21
-55.725
 31
0.0
  0
LINE
  8
0
 62
0
 10
154.635
 20
-56.275
 30
0.0
 11
154.915
 21
-56.275
 31
0.0
  0
LINE
  8
0
 62
0
 10
154.615
 20
-55.725
 30
0.0
 11
154.615
 21
-56.275
 31
0.0
  0
LINE
  8
0
 62
0
 10
154.935
 20
-55.725
 30
0.0
 11
154.935
 21
-56.275
 31
0.0
  0
LINE
  8
0
 62
0
 10
153.885
 20
-55.725
 30
0.0
 11
153.885
 21
-56.275
 31
0.0
  0
LINE
  8
0
 62
0
 10
154.165
 20
-55.725
 30
0.0
 11
154.165
 21
-56.275
 31
0.0
  0
LINE
  8
0
 62
0
 10
154.635
 20
-55.725
 30
0.0
 11
154.635
 21
-56.275
 31
0.0
  0
LINE
  8
0
 62
0
 10
154.915
 20
-55.725
 30
0.0
 11
154.915
 21
-56.275
 31
0.0
  0
ENDBLK
  0
BLOCK
  8
0
  2
PART__FEATURE013
 70
0
 10
0.0
 20
0.0
 30
0.0
  3
PART__FEATURE013
  0
POLYLINE
  8
0
 62
0
 70
0
 66
1
 10
0.0
 20
0.0
 30
0.0
  0
VERTEX
  8
0
 10
145.7
 20
-61.15
 30
0.0
  0
VERTEX
  8
0
 10
145.65
 20
-61.15
 30
0.0
  0
VERTEX
  8
0
 10
145.6
 20
-61.15
 30
0.0
  0
SEQEND
  8
0
  0
POLYLINE
  8
0
 62
0
 70
0
 66
1
 10
0.0
 20
0.0
 30
0.0
  0
VERTEX
  8
0
 10
145.7
 20
-60.85
 30
0.0
  0
VERTEX
  8
0
 10
145.65
 20
-60.85
 30
0.0
  0
VERTEX
  8
0
 10
145.6
 20
-60.85
 30
0.0
  0
SEQEND
  8
0
  0
POLYLINE
  8
0
 62
0
 70
0
 66
1
 10
0.0
 20
0.0
 30
0.0
  0
VERTEX
  8
0
 10
145.6
 20
-60.85
 30
0.0
  0
VERTEX
  8
0
 10
145.55
 20
-60.85
 30
0.0
  0
VERTEX
  8
0
 10
145.5
 20
-60.85
 30
0.0
  0
VERTEX
  8
0
 10
145.45
 20
-60.85
 30
0.0
  0
VERTEX
  8
0
 10
145.4
 20
-60.85
 30
0.0
  0
SEQEND
  8
0
  0
POLYLINE
  8
0
 62
0
 70
0
 66
1
 10
0.0
 20
0.0
 30
0.0
  0
VERTEX
  8
0
 10
145.6
 20
-61.15
 30
0.0
  0
VERTEX
  8
0
 10
145.55
 20
-61.15
 30
0.0
  0
VERTEX
  8
0
 10
145.5
 20
-61.15
 30
0.0
  0
VERTEX
  8
0
 10
145.45
 20
-61.15
 30
0.0
  0
VERTEX
  8
0
 10
145.4
 20
-61.15
 30
0.0
  0
SEQEND
  8
0
  0
POLYLINE
  8
0
 62
0
 70
0
 66
1
 10
0.0
 20
0.0
 30
0.0
  0
VERTEX
  8
0
 10
145.995650453
 20
-63.8771747736
 30
0.0
  0
VERTEX
  8
0
 10
145.950929093
 20
-63.8995354534
 30
0.0
  0
VERTEX
  8
0
 10
145.906207734
 20
-63.9218961332
 30
0.0
  0
VERTEX
  8
0
 10
145.9
 20
-63.925
 30
0.0
  0
SEQEND
  8
0
  0
POLYLINE
  8
0
 62
0
 70
0
 66
1
 10
0.0
 20
0.0
 30
0.0
  0
VERTEX
  8
0
 10
145.995650453
 20
-57.3228252264
 30
0.0
  0
VERTEX
  8
0
 10
145.950929093
 20
-57.3004645466
 30
0.0
  0
VERTEX
  8
0
 10
145.906207734
 20
-57.2781038668
 30
0.0
  0
VERTEX
  8
0
 10
145.9
 20
-57.275
 30
0.0
  0
SEQEND
  8
0
  0
POLYLINE
  8
0
 62
0
 70
0
 66
1
 10
0.0
 20
0.0
 30
0.0
  0
VERTEX
  8
0
 10
146.122825226
 20
-57.1956504528
 30
0.0
  0
VERTEX
  8
0
 10
146.100464547
 20
-57.1509290932
 30
0.0
  0
VERTEX
  8
0
 10
146.078103867
 20
-57.1062077337
 30
0.0
  0
VERTEX
  8
0
 10
146.075
 20
-57.1
 30
0.0
  0
SEQEND
  8
0
  0
POLYLINE
  8
0
 62
0
 70
0
 66
1
 10
0.0
 20
0.0
 30
0.0
  0
VERTEX
  8
0
 10
146.122825226
 20
-64.0043495472
 30
0.0
  0
VERTEX
  8
0
 10
146.100464547
 20
-64.0490709068
 30
0.0
  0
VERTEX
  8
0
 10
146.078103867
 20
-64.0937922663
 30
0.0
  0
VERTEX
  8
0
 10
146.075
 20
-64.1
 30
0.0
  0
SEQEND
  8
0
  0
POLYLINE
  8
0
 62
0
 70
0
 66
1
 10
0.0
 20
0.0
 30
0.0
  0
VERTEX
  8
0
 10
145.7
 20
-60.35
 30
0.0
  0
VERTEX
  8
0
 10
145.65
 20
-60.35
 30
0.0
  0
VERTEX
  8
0
 10
145.6
 20
-60.35
 30
0.0
  0
SEQEND
  8
0
  0
POLYLINE
  8
0
 62
0
 70
0
 66
1
 10
0.0
 20
0.0
 30
0.0
  0
VERTEX
  8
0
 10
145.6
 20
-60.35
 30
0.0
  0
VERTEX
  8
0
 10
145.55
 20
-60.35
 30
0.0
  0
VERTEX
  8
0
 10
145.5
 20
-60.35
 30
0.0
  0
VERTEX
  8
0
 10
145.45
 20
-60.35
 30
0.0
  0
VERTEX
  8
0
 10
145.4
 20
-60.35
 30
0.0
  0
SEQEND
  8
0
  0
POLYLINE
  8
0
 62
0
 70
0
 66
1
 10
0.0
 20
0.0
 30
0.0
  0
VERTEX
  8
0
 10
145.7
 20
-61.65
 30
0.0
  0
VERTEX
  8
0
 10
145.65
 20
-61.65
 30
0.0
  0
VERTEX
  8
0
 10
145.6
 20
-61.65
 30
0.0
  0
SEQEND
  8
0
  0
POLYLINE
  8
0
 62
0
 70
0
 66
1
 10
0.0
 20
0.0
 30
0.0
  0
VERTEX
  8
0
 10
145.6
 20
-61.65
 30
0.0
  0
VERTEX
  8
0
 10
145.55
 20
-61.65
 30
0.0
  0
VERTEX
  8
0
 10
145.5
 20
-61.65
 30
0.0
  0
VERTEX
  8
0
 10
145.45
 20
-61.65
 30
0.0
  0
VERTEX
  8
0
 10
145.4
 20
-61.65
 30
0.0
  0
SEQEND
  8
0
  0
POLYLINE
  8
0
 62
0
 70
0
 66
1
 10
0.0
 20
0.0
 30
0.0
  0
VERTEX
  8
0
 10
152.677174774
 20
-64.0043495472
 30
0.0
  0
VERTEX
  8
0
 10
152.699535453
 20
-64.0490709068
 30
0.0
  0
VERTEX
  8
0
 10
152.721896133
 20
-64.0937922663
 30
0.0
  0
VERTEX
  8
0
 10
152.725
 20
-64.1
 30
0.0
  0
SEQEND
  8
0
  0
POLYLINE
  8
0
 62
0
 70
0
 66
1
 10
0.0
 20
0.0
 30
0.0
  0
VERTEX
  8
0
 10
152.804349547
 20
-63.8771747736
 30
0.0
  0
VERTEX
  8
0
 10
152.849070907
 20
-63.8995354534
 30
0.0
  0
VERTEX
  8
0
 10
152.893792266
 20
-63.9218961332
 30
0.0
  0
VERTEX
  8
0
 10
152.9
 20
-63.925
 30
0.0
  0
SEQEND
  8
0
  0
POLYLINE
  8
0
 62
0
 70
0
 66
1
 10
0.0
 20
0.0
 30
0.0
  0
VERTEX
  8
0
 10
152.804349547
 20
-57.3228252264
 30
0.0
  0
VERTEX
  8
0
 10
152.849070907
 20
-57.3004645466
 30
0.0
  0
VERTEX
  8
0
 10
152.893792266
 20
-57.2781038668
 30
0.0
  0
VERTEX
  8
0
 10
152.9
 20
-57.275
 30
0.0
  0
SEQEND
  8
0
  0
POLYLINE
  8
0
 62
0
 70
0
 66
1
 10
0.0
 20
0.0
 30
0.0
  0
VERTEX
  8
0
 10
152.677174774
 20
-57.1956504528
 30
0.0
  0
VERTEX
  8
0
 10
152.699535453
 20
-57.1509290932
 30
0.0
  0
VERTEX
  8
0
 10
152.721896133
 20
-57.1062077337
 30
0.0
  0
VERTEX
  8
0
 10
152.725
 20
-57.1
 30
0.0
  0
SEQEND
  8
0
  0
POLYLINE
  8
0
 62
0
 70
0
 66
1
 10
0.0
 20
0.0
 30
0.0
  0
VERTEX
  8
0
 10
145.7
 20
-57.65
 30
0.0
  0
VERTEX
  8
0
 10
145.65
 20
-57.65
 30
0.0
  0
VERTEX
  8
0
 10
145.6
 20
-57.65
 30
0.0
  0
SEQEND
  8
0
  0
POLYLINE
  8
0
 62
0
 70
0
 66
1
 10
0.0
 20
0.0
 30
0.0
  0
VERTEX
  8
0
 10
145.6
 20
-57.65
 30
0.0
  0
VERTEX
  8
0
 10
145.55
 20
-57.65
 30
0.0
  0
VERTEX
  8
0
 10
145.5
 20
-57.65
 30
0.0
  0
VERTEX
  8
0
 10
145.45
 20
-57.65
 30
0.0
  0
VERTEX
  8
0
 10
145.4
 20
-57.65
 30
0.0
  0
SEQEND
  8
0
  0
POLYLINE
  8
0
 62
0
 70
0
 66
1
 10
0.0
 20
0.0
 30
0.0
  0
VERTEX
  8
0
 10
145.7
 20
-63.55
 30
0.0
  0
VERTEX
  8
0
 10
145.65
 20
-63.55
 30
0.0
  0
VERTEX
  8
0
 10
145.6
 20
-63.55
 30
0.0
  0
SEQEND
  8
0
  0
POLYLINE
  8
0
 62
0
 70
0
 66
1
 10
0.0
 20
0.0
 30
0.0
  0
VERTEX
  8
0
 10
145.6
 20
-63.55
 30
0.0
  0
VERTEX
  8
0
 10
145.55
 20
-63.55
 30
0.0
  0
VERTEX
  8
0
 10
145.5
 20
-63.55
 30
0.0
  0
VERTEX
  8
0
 10
145.45
 20
-63.55
 30
0.0
  0
VERTEX
  8
0
 10
145.4
 20
-63.55
 30
0.0
  0
SEQEND
  8
0
  0
POLYLINE
  8
0
 62
0
 70
0
 66
1
 10
0.0
 20
0.0
 30
0.0
  0
VERTEX
  8
0
 10
145.7
 20
-57.95
 30
0.0
  0
VERTEX
  8
0
 10
145.65
 20
-57.95
 30
0.0
  0
VERTEX
  8
0
 10
145.6
 20
-57.95
 30
0.0
  0
SEQEND
  8
0
  0
POLYLINE
  8
0
 62
0
 70
0
 66
1
 10
0.0
 20
0.0
 30
0.0
  0
VERTEX
  8
0
 10
145.6
 20
-57.95
 30
0.0
  0
VERTEX
  8
0
 10
145.55
 20
-57.95
 30
0.0
  0
VERTEX
  8
0
 10
145.5
 20
-57.95
 30
0.0
  0
VERTEX
  8
0
 10
145.45
 20
-57.95
 30
0.0
  0
VERTEX
  8
0
 10
145.4
 20
-57.95
 30
0.0
  0
SEQEND
  8
0
  0
POLYLINE
  8
0
 62
0
 70
0
 66
1
 10
0.0
 20
0.0
 30
0.0
  0
VERTEX
  8
0
 10
145.7
 20
-63.25
 30
0.0
  0
VERTEX
  8
0
 10
145.65
 20
-63.25
 30
0.0
  0
VERTEX
  8
0
 10
145.6
 20
-63.25
 30
0.0
  0
SEQEND
  8
0
  0
POLYLINE
  8
0
 62
0
 70
0
 66
1
 10
0.0
 20
0.0
 30
0.0
  0
VERTEX
  8
0
 10
145.6
 20
-63.25
 30
0.0
  0
VERTEX
  8
0
 10
145.55
 20
-63.25
 30
0.0
  0
VERTEX
  8
0
 10
145.5
 20
-63.25
 30
0.0
  0
VERTEX
  8
0
 10
145.45
 20
-63.25
 30
0.0
  0
VERTEX
  8
0
 10
145.4
 20
-63.25
 30
0.0
  0
SEQEND
  8
0
  0
POLYLINE
  8
0
 62
0
 70
0
 66
1
 10
0.0
 20
0.0
 30
0.0
  0
VERTEX
  8
0
 10
145.7
 20
-58.45
 30
0.0
  0
VERTEX
  8
0
 10
145.65
 20
-58.45
 30
0.0
  0
VERTEX
  8
0
 10
145.6
 20
-58.45
 30
0.0
  0
SEQEND
  8
0
  0
POLYLINE
  8
0
 62
0
 70
0
 66
1
 10
0.0
 20
0.0
 30
0.0
  0
VERTEX
  8
0
 10
145.6
 20
-58.45
 30
0.0
  0
VERTEX
  8
0
 10
145.55
 20
-58.45
 30
0.0
  0
VERTEX
  8
0
 10
145.5
 20
-58.45
 30
0.0
  0
VERTEX
  8
0
 10
145.45
 20
-58.45
 30
0.0
  0
VERTEX
  8
0
 10
145.4
 20
-58.45
 30
0.0
  0
SEQEND
  8
0
  0
POLYLINE
  8
0
 62
0
 70
0
 66
1
 10
0.0
 20
0.0
 30
0.0
  0
VERTEX
  8
0
 10
145.7
 20
-62.75
 30
0.0
  0
VERTEX
  8
0
 10
145.65
 20
-62.75
 30
0.0
  0
VERTEX
  8
0
 10
145.6
 20
-62.75
 30
0.0
  0
SEQEND
  8
0
  0
POLYLINE
  8
0
 62
0
 70
0
 66
1
 10
0.0
 20
0.0
 30
0.0
  0
VERTEX
  8
0
 10
145.6
 20
-62.75
 30
0.0
  0
VERTEX
  8
0
 10
145.55
 20
-62.75
 30
0.0
  0
VERTEX
  8
0
 10
145.5
 20
-62.75
 30
0.0
  0
VERTEX
  8
0
 10
145.45
 20
-62.75
 30
0.0
  0
VERTEX
  8
0
 10
145.4
 20
-62.75
 30
0.0
  0
SEQEND
  8
0
  0
POLYLINE
  8
0
 62
0
 70
0
 66
1
 10
0.0
 20
0.0
 30
0.0
  0
VERTEX
  8
0
 10
145.7
 20
-58.75
 30
0.0
  0
VERTEX
  8
0
 10
145.65
 20
-58.75
 30
0.0
  0
VERTEX
  8
0
 10
145.6
 20
-58.75
 30
0.0
  0
SEQEND
  8
0
  0
POLYLINE
  8
0
 62
0
 70
0
 66
1
 10
0.0
 20
0.0
 30
0.0
  0
VERTEX
  8
0
 10
145.6
 20
-58.75
 30
0.0
  0
VERTEX
  8
0
 10
145.55
 20
-58.75
 30
0.0
  0
VERTEX
  8
0
 10
145.5
 20
-58.75
 30
0.0
  0
VERTEX
  8
0
 10
145.45
 20
-58.75
 30
0.0
  0
VERTEX
  8
0
 10
145.4
 20
-58.75
 30
0.0
  0
SEQEND
  8
0
  0
POLYLINE
  8
0
 62
0
 70
0
 66
1
 10
0.0
 20
0.0
 30
0.0
  0
VERTEX
  8
0
 10
145.7
 20
-62.45
 30
0.0
  0
VERTEX
  8
0
 10
145.65
 20
-62.45
 30
0.0
  0
VERTEX
  8
0
 10
145.6
 20
-62.45
 30
0.0
  0
SEQEND
  8
0
  0
POLYLINE
  8
0
 62
0
 70
0
 66
1
 10
0.0
 20
0.0
 30
0.0
  0
VERTEX
  8
0
 10
145.6
 20
-62.45
 30
0.0
  0
VERTEX
  8
0
 10
145.55
 20
-62.45
 30
0.0
  0
VERTEX
  8
0
 10
145.5
 20
-62.45
 30
0.0
  0
VERTEX
  8
0
 10
145.45
 20
-62.45
 30
0.0
  0
VERTEX
  8
0
 10
145.4
 20
-62.45
 30
0.0
  0
SEQEND
  8
0
  0
POLYLINE
  8
0
 62
0
 70
0
 66
1
 10
0.0
 20
0.0
 30
0.0
  0
VERTEX
  8
0
 10
145.7
 20
-59.25
 30
0.0
  0
VERTEX
  8
0
 10
145.65
 20
-59.25
 30
0.0
  0
VERTEX
  8
0
 10
145.6
 20
-59.25
 30
0.0
  0
SEQEND
  8
0
  0
POLYLINE
  8
0
 62
0
 70
0
 66
1
 10
0.0
 20
0.0
 30
0.0
  0
VERTEX
  8
0
 10
145.6
 20
-59.25
 30
0.0
  0
VERTEX
  8
0
 10
145.55
 20
-59.25
 30
0.0
  0
VERTEX
  8
0
 10
145.5
 20
-59.25
 30
0.0
  0
VERTEX
  8
0
 10
145.45
 20
-59.25
 30
0.0
  0
VERTEX
  8
0
 10
145.4
 20
-59.25
 30
0.0
  0
SEQEND
  8
0
  0
POLYLINE
  8
0
 62
0
 70
0
 66
1
 10
0.0
 20
0.0
 30
0.0
  0
VERTEX
  8
0
 10
145.7
 20
-61.95
 30
0.0
  0
VERTEX
  8
0
 10
145.65
 20
-61.95
 30
0.0
  0
VERTEX
  8
0
 10
145.6
 20
-61.95
 30
0.0
  0
SEQEND
  8
0
  0
POLYLINE
  8
0
 62
0
 70
0
 66
1
 10
0.0
 20
0.0
 30
0.0
  0
VERTEX
  8
0
 10
145.6
 20
-61.95
 30
0.0
  0
VERTEX
  8
0
 10
145.55
 20
-61.95
 30
0.0
  0
VERTEX
  8
0
 10
145.5
 20
-61.95
 30
0.0
  0
VERTEX
  8
0
 10
145.45
 20
-61.95
 30
0.0
  0
VERTEX
  8
0
 10
145.4
 20
-61.95
 30
0.0
  0
SEQEND
  8
0
  0
POLYLINE
  8
0
 62
0
 70
0
 66
1
 10
0.0
 20
0.0
 30
0.0
  0
VERTEX
  8
0
 10
145.7
 20
-59.55
 30
0.0
  0
VERTEX
  8
0
 10
145.65
 20
-59.55
 30
0.0
  0
VERTEX
  8
0
 10
145.6
 20
-59.55
 30
0.0
  0
SEQEND
  8
0
  0
POLYLINE
  8
0
 62
0
 70
0
 66
1
 10
0.0
 20
0.0
 30
0.0
  0
VERTEX
  8
0
 10
145.6
 20
-59.55
 30
0.0
  0
VERTEX
  8
0
 10
145.55
 20
-59.55
 30
0.0
  0
VERTEX
  8
0
 10
145.5
 20
-59.55
 30
0.0
  0
VERTEX
  8
0
 10
145.45
 20
-59.55
 30
0.0
  0
VERTEX
  8
0
 10
145.4
 20
-59.55
 30
0.0
  0
SEQEND
  8
0
  0
POLYLINE
  8
0
 62
0
 70
0
 66
1
 10
0.0
 20
0.0
 30
0.0
  0
VERTEX
  8
0
 10
145.7
 20
-60.05
 30
0.0
  0
VERTEX
  8
0
 10
145.65
 20
-60.05
 30
0.0
  0
VERTEX
  8
0
 10
145.6
 20
-60.05
 30
0.0
  0
SEQEND
  8
0
  0
POLYLINE
  8
0
 62
0
 70
0
 66
1
 10
0.0
 20
0.0
 30
0.0
  0
VERTEX
  8
0
 10
145.6
 20
-60.05
 30
0.0
  0
VERTEX
  8
0
 10
145.55
 20
-60.05
 30
0.0
  0
VERTEX
  8
0
 10
145.5
 20
-60.05
 30
0.0
  0
VERTEX
  8
0
 10
145.45
 20
-60.05
 30
0.0
  0
VERTEX
  8
0
 10
145.4
 20
-60.05
 30
0.0
  0
SEQEND
  8
0
  0
POLYLINE
  8
0
 62
0
 70
0
 66
1
 10
0.0
 20
0.0
 30
0.0
  0
VERTEX
  8
0
 10
146.45
 20
-64.3
 30
0.0
  0
VERTEX
  8
0
 10
146.45
 20
-64.35
 30
0.0
  0
VERTEX
  8
0
 10
146.45
 20
-64.4
 30
0.0
  0
SEQEND
  8
0
  0
POLYLINE
  8
0
 62
0
 70
0
 66
1
 10
0.0
 20
0.0
 30
0.0
  0
VERTEX
  8
0
 10
146.45
 20
-64.4
 30
0.0
  0
VERTEX
  8
0
 10
146.45
 20
-64.45
 30
0.0
  0
VERTEX
  8
0
 10
146.45
 20
-64.5
 30
0.0
  0
VERTEX
  8
0
 10
146.45
 20
-64.55
 30
0.0
  0
VERTEX
  8
0
 10
146.45
 20
-64.6
 30
0.0
  0
SEQEND
  8
0
  0
POLYLINE
  8
0
 62
0
 70
0
 66
1
 10
0.0
 20
0.0
 30
0.0
  0
VERTEX
  8
0
 10
152.35
 20
-64.3
 30
0.0
  0
VERTEX
  8
0
 10
152.35
 20
-64.35
 30
0.0
  0
VERTEX
  8
0
 10
152.35
 20
-64.4
 30
0.0
  0
SEQEND
  8
0
  0
POLYLINE
  8
0
 62
0
 70
0
 66
1
 10
0.0
 20
0.0
 30
0.0
  0
VERTEX
  8
0
 10
152.35
 20
-64.4
 30
0.0
  0
VERTEX
  8
0
 10
152.35
 20
-64.45
 30
0.0
  0
VERTEX
  8
0
 10
152.35
 20
-64.5
 30
0.0
  0
VERTEX
  8
0
 10
152.35
 20
-64.55
 30
0.0
  0
VERTEX
  8
0
 10
152.35
 20
-64.6
 30
0.0
  0
SEQEND
  8
0
  0
POLYLINE
  8
0
 62
0
 70
0
 66
1
 10
0.0
 20
0.0
 30
0.0
  0
VERTEX
  8
0
 10
146.75
 20
-64.3
 30
0.0
  0
VERTEX
  8
0
 10
146.75
 20
-64.35
 30
0.0
  0
VERTEX
  8
0
 10
146.75
 20
-64.4
 30
0.0
  0
SEQEND
  8
0
  0
POLYLINE
  8
0
 62
0
 70
0
 66
1
 10
0.0
 20
0.0
 30
0.0
  0
VERTEX
  8
0
 10
146.75
 20
-64.4
 30
0.0
  0
VERTEX
  8
0
 10
146.75
 20
-64.45
 30
0.0
  0
VERTEX
  8
0
 10
146.75
 20
-64.5
 30
0.0
  0
VERTEX
  8
0
 10
146.75
 20
-64.55
 30
0.0
  0
VERTEX
  8
0
 10
146.75
 20
-64.6
 30
0.0
  0
SEQEND
  8
0
  0
POLYLINE
  8
0
 62
0
 70
0
 66
1
 10
0.0
 20
0.0
 30
0.0
  0
VERTEX
  8
0
 10
152.05
 20
-64.3
 30
0.0
  0
VERTEX
  8
0
 10
152.05
 20
-64.35
 30
0.0
  0
VERTEX
  8
0
 10
152.05
 20
-64.4
 30
0.0
  0
SEQEND
  8
0
  0
POLYLINE
  8
0
 62
0
 70
0
 66
1
 10
0.0
 20
0.0
 30
0.0
  0
VERTEX
  8
0
 10
152.05
 20
-64.4
 30
0.0
  0
VERTEX
  8
0
 10
152.05
 20
-64.45
 30
0.0
  0
VERTEX
  8
0
 10
152.05
 20
-64.5
 30
0.0
  0
VERTEX
  8
0
 10
152.05
 20
-64.55
 30
0.0
  0
VERTEX
  8
0
 10
152.05
 20
-64.6
 30
0.0
  0
SEQEND
  8
0
  0
POLYLINE
  8
0
 62
0
 70
0
 66
1
 10
0.0
 20
0.0
 30
0.0
  0
VERTEX
  8
0
 10
147.25
 20
-64.3
 30
0.0
  0
VERTEX
  8
0
 10
147.25
 20
-64.35
 30
0.0
  0
VERTEX
  8
0
 10
147.25
 20
-64.4
 30
0.0
  0
SEQEND
  8
0
  0
POLYLINE
  8
0
 62
0
 70
0
 66
1
 10
0.0
 20
0.0
 30
0.0
  0
VERTEX
  8
0
 10
147.25
 20
-64.4
 30
0.0
  0
VERTEX
  8
0
 10
147.25
 20
-64.45
 30
0.0
  0
VERTEX
  8
0
 10
147.25
 20
-64.5
 30
0.0
  0
VERTEX
  8
0
 10
147.25
 20
-64.55
 30
0.0
  0
VERTEX
  8
0
 10
147.25
 20
-64.6
 30
0.0
  0
SEQEND
  8
0
  0
POLYLINE
  8
0
 62
0
 70
0
 66
1
 10
0.0
 20
0.0
 30
0.0
  0
VERTEX
  8
0
 10
151.55
 20
-64.3
 30
0.0
  0
VERTEX
  8
0
 10
151.55
 20
-64.35
 30
0.0
  0
VERTEX
  8
0
 10
151.55
 20
-64.4
 30
0.0
  0
SEQEND
  8
0
  0
POLYLINE
  8
0
 62
0
 70
0
 66
1
 10
0.0
 20
0.0
 30
0.0
  0
VERTEX
  8
0
 10
151.55
 20
-64.4
 30
0.0
  0
VERTEX
  8
0
 10
151.55
 20
-64.45
 30
0.0
  0
VERTEX
  8
0
 10
151.55
 20
-64.5
 30
0.0
  0
VERTEX
  8
0
 10
151.55
 20
-64.55
 30
0.0
  0
VERTEX
  8
0
 10
151.55
 20
-64.6
 30
0.0
  0
SEQEND
  8
0
  0
POLYLINE
  8
0
 62
0
 70
0
 66
1
 10
0.0
 20
0.0
 30
0.0
  0
VERTEX
  8
0
 10
147.55
 20
-64.3
 30
0.0
  0
VERTEX
  8
0
 10
147.55
 20
-64.35
 30
0.0
  0
VERTEX
  8
0
 10
147.55
 20
-64.4
 30
0.0
  0
SEQEND
  8
0
  0
POLYLINE
  8
0
 62
0
 70
0
 66
1
 10
0.0
 20
0.0
 30
0.0
  0
VERTEX
  8
0
 10
147.55
 20
-64.4
 30
0.0
  0
VERTEX
  8
0
 10
147.55
 20
-64.45
 30
0.0
  0
VERTEX
  8
0
 10
147.55
 20
-64.5
 30
0.0
  0
VERTEX
  8
0
 10
147.55
 20
-64.55
 30
0.0
  0
VERTEX
  8
0
 10
147.55
 20
-64.6
 30
0.0
  0
SEQEND
  8
0
  0
POLYLINE
  8
0
 62
0
 70
0
 66
1
 10
0.0
 20
0.0
 30
0.0
  0
VERTEX
  8
0
 10
151.25
 20
-64.3
 30
0.0
  0
VERTEX
  8
0
 10
151.25
 20
-64.35
 30
0.0
  0
VERTEX
  8
0
 10
151.25
 20
-64.4
 30
0.0
  0
SEQEND
  8
0
  0
POLYLINE
  8
0
 62
0
 70
0
 66
1
 10
0.0
 20
0.0
 30
0.0
  0
VERTEX
  8
0
 10
151.25
 20
-64.4
 30
0.0
  0
VERTEX
  8
0
 10
151.25
 20
-64.45
 30
0.0
  0
VERTEX
  8
0
 10
151.25
 20
-64.5
 30
0.0
  0
VERTEX
  8
0
 10
151.25
 20
-64.55
 30
0.0
  0
VERTEX
  8
0
 10
151.25
 20
-64.6
 30
0.0
  0
SEQEND
  8
0
  0
POLYLINE
  8
0
 62
0
 70
0
 66
1
 10
0.0
 20
0.0
 30
0.0
  0
VERTEX
  8
0
 10
148.05
 20
-64.3
 30
0.0
  0
VERTEX
  8
0
 10
148.05
 20
-64.35
 30
0.0
  0
VERTEX
  8
0
 10
148.05
 20
-64.4
 30
0.0
  0
SEQEND
  8
0
  0
POLYLINE
  8
0
 62
0
 70
0
 66
1
 10
0.0
 20
0.0
 30
0.0
  0
VERTEX
  8
0
 10
148.05
 20
-64.4
 30
0.0
  0
VERTEX
  8
0
 10
148.05
 20
-64.45
 30
0.0
  0
VERTEX
  8
0
 10
148.05
 20
-64.5
 30
0.0
  0
VERTEX
  8
0
 10
148.05
 20
-64.55
 30
0.0
  0
VERTEX
  8
0
 10
148.05
 20
-64.6
 30
0.0
  0
SEQEND
  8
0
  0
POLYLINE
  8
0
 62
0
 70
0
 66
1
 10
0.0
 20
0.0
 30
0.0
  0
VERTEX
  8
0
 10
150.75
 20
-64.3
 30
0.0
  0
VERTEX
  8
0
 10
150.75
 20
-64.35
 30
0.0
  0
VERTEX
  8
0
 10
150.75
 20
-64.4
 30
0.0
  0
SEQEND
  8
0
  0
POLYLINE
  8
0
 62
0
 70
0
 66
1
 10
0.0
 20
0.0
 30
0.0
  0
VERTEX
  8
0
 10
150.75
 20
-64.4
 30
0.0
  0
VERTEX
  8
0
 10
150.75
 20
-64.45
 30
0.0
  0
VERTEX
  8
0
 10
150.75
 20
-64.5
 30
0.0
  0
VERTEX
  8
0
 10
150.75
 20
-64.55
 30
0.0
  0
VERTEX
  8
0
 10
150.75
 20
-64.6
 30
0.0
  0
SEQEND
  8
0
  0
POLYLINE
  8
0
 62
0
 70
0
 66
1
 10
0.0
 20
0.0
 30
0.0
  0
VERTEX
  8
0
 10
148.35
 20
-64.3
 30
0.0
  0
VERTEX
  8
0
 10
148.35
 20
-64.35
 30
0.0
  0
VERTEX
  8
0
 10
148.35
 20
-64.4
 30
0.0
  0
SEQEND
  8
0
  0
POLYLINE
  8
0
 62
0
 70
0
 66
1
 10
0.0
 20
0.0
 30
0.0
  0
VERTEX
  8
0
 10
148.35
 20
-64.4
 30
0.0
  0
VERTEX
  8
0
 10
148.35
 20
-64.45
 30
0.0
  0
VERTEX
  8
0
 10
148.35
 20
-64.5
 30
0.0
  0
VERTEX
  8
0
 10
148.35
 20
-64.55
 30
0.0
  0
VERTEX
  8
0
 10
148.35
 20
-64.6
 30
0.0
  0
SEQEND
  8
0
  0
POLYLINE
  8
0
 62
0
 70
0
 66
1
 10
0.0
 20
0.0
 30
0.0
  0
VERTEX
  8
0
 10
150.45
 20
-64.3
 30
0.0
  0
VERTEX
  8
0
 10
150.45
 20
-64.35
 30
0.0
  0
VERTEX
  8
0
 10
150.45
 20
-64.4
 30
0.0
  0
SEQEND
  8
0
  0
POLYLINE
  8
0
 62
0
 70
0
 66
1
 10
0.0
 20
0.0
 30
0.0
  0
VERTEX
  8
0
 10
150.45
 20
-64.4
 30
0.0
  0
VERTEX
  8
0
 10
150.45
 20
-64.45
 30
0.0
  0
VERTEX
  8
0
 10
150.45
 20
-64.5
 30
0.0
  0
VERTEX
  8
0
 10
150.45
 20
-64.55
 30
0.0
  0
VERTEX
  8
0
 10
150.45
 20
-64.6
 30
0.0
  0
SEQEND
  8
0
  0
POLYLINE
  8
0
 62
0
 70
0
 66
1
 10
0.0
 20
0.0
 30
0.0
  0
VERTEX
  8
0
 10
148.85
 20
-64.3
 30
0.0
  0
VERTEX
  8
0
 10
148.85
 20
-64.35
 30
0.0
  0
VERTEX
  8
0
 10
148.85
 20
-64.4
 30
0.0
  0
SEQEND
  8
0
  0
POLYLINE
  8
0
 62
0
 70
0
 66
1
 10
0.0
 20
0.0
 30
0.0
  0
VERTEX
  8
0
 10
148.85
 20
-64.4
 30
0.0
  0
VERTEX
  8
0
 10
148.85
 20
-64.45
 30
0.0
  0
VERTEX
  8
0
 10
148.85
 20
-64.5
 30
0.0
  0
VERTEX
  8
0
 10
148.85
 20
-64.55
 30
0.0
  0
VERTEX
  8
0
 10
148.85
 20
-64.6
 30
0.0
  0
SEQEND
  8
0
  0
POLYLINE
  8
0
 62
0
 70
0
 66
1
 10
0.0
 20
0.0
 30
0.0
  0
VERTEX
  8
0
 10
149.95
 20
-64.3
 30
0.0
  0
VERTEX
  8
0
 10
149.95
 20
-64.35
 30
0.0
  0
VERTEX
  8
0
 10
149.95
 20
-64.4
 30
0.0
  0
SEQEND
  8
0
  0
POLYLINE
  8
0
 62
0
 70
0
 66
1
 10
0.0
 20
0.0
 30
0.0
  0
VERTEX
  8
0
 10
149.95
 20
-64.4
 30
0.0
  0
VERTEX
  8
0
 10
149.95
 20
-64.45
 30
0.0
  0
VERTEX
  8
0
 10
149.95
 20
-64.5
 30
0.0
  0
VERTEX
  8
0
 10
149.95
 20
-64.55
 30
0.0
  0
VERTEX
  8
0
 10
149.95
 20
-64.6
 30
0.0
  0
SEQEND
  8
0
  0
POLYLINE
  8
0
 62
0
 70
0
 66
1
 10
0.0
 20
0.0
 30
0.0
  0
VERTEX
  8
0
 10
149.15
 20
-64.3
 30
0.0
  0
VERTEX
  8
0
 10
149.15
 20
-64.35
 30
0.0
  0
VERTEX
  8
0
 10
149.15
 20
-64.4
 30
0.0
  0
SEQEND
  8
0
  0
POLYLINE
  8
0
 62
0
 70
0
 66
1
 10
0.0
 20
0.0
 30
0.0
  0
VERTEX
  8
0
 10
149.15
 20
-64.4
 30
0.0
  0
VERTEX
  8
0
 10
149.15
 20
-64.45
 30
0.0
  0
VERTEX
  8
0
 10
149.15
 20
-64.5
 30
0.0
  0
VERTEX
  8
0
 10
149.15
 20
-64.55
 30
0.0
  0
VERTEX
  8
0
 10
149.15
 20
-64.6
 30
0.0
  0
SEQEND
  8
0
  0
POLYLINE
  8
0
 62
0
 70
0
 66
1
 10
0.0
 20
0.0
 30
0.0
  0
VERTEX
  8
0
 10
149.65
 20
-64.3
 30
0.0
  0
VERTEX
  8
0
 10
149.65
 20
-64.35
 30
0.0
  0
VERTEX
  8
0
 10
149.65
 20
-64.4
 30
0.0
  0
SEQEND
  8
0
  0
POLYLINE
  8
0
 62
0
 70
0
 66
1
 10
0.0
 20
0.0
 30
0.0
  0
VERTEX
  8
0
 10
149.65
 20
-64.4
 30
0.0
  0
VERTEX
  8
0
 10
149.65
 20
-64.45
 30
0.0
  0
VERTEX
  8
0
 10
149.65
 20
-64.5
 30
0.0
  0
VERTEX
  8
0
 10
149.65
 20
-64.55
 30
0.0
  0
VERTEX
  8
0
 10
149.65
 20
-64.6
 30
0.0
  0
SEQEND
  8
0
  0
POLYLINE
  8
0
 62
0
 70
0
 66
1
 10
0.0
 20
0.0
 30
0.0
  0
VERTEX
  8
0
 10
153.1
 20
-63.55
 30
0.0
  0
VERTEX
  8
0
 10
153.15
 20
-63.55
 30
0.0
  0
VERTEX
  8
0
 10
153.2
 20
-63.55
 30
0.0
  0
SEQEND
  8
0
  0
POLYLINE
  8
0
 62
0
 70
0
 66
1
 10
0.0
 20
0.0
 30
0.0
  0
VERTEX
  8
0
 10
153.2
 20
-63.55
 30
0.0
  0
VERTEX
  8
0
 10
153.25
 20
-63.55
 30
0.0
  0
VERTEX
  8
0
 10
153.3
 20
-63.55
 30
0.0
  0
VERTEX
  8
0
 10
153.35
 20
-63.55
 30
0.0
  0
VERTEX
  8
0
 10
153.4
 20
-63.55
 30
0.0
  0
SEQEND
  8
0
  0
POLYLINE
  8
0
 62
0
 70
0
 66
1
 10
0.0
 20
0.0
 30
0.0
  0
VERTEX
  8
0
 10
153.1
 20
-57.65
 30
0.0
  0
VERTEX
  8
0
 10
153.15
 20
-57.65
 30
0.0
  0
VERTEX
  8
0
 10
153.2
 20
-57.65
 30
0.0
  0
SEQEND
  8
0
  0
POLYLINE
  8
0
 62
0
 70
0
 66
1
 10
0.0
 20
0.0
 30
0.0
  0
VERTEX
  8
0
 10
153.2
 20
-57.65
 30
0.0
  0
VERTEX
  8
0
 10
153.25
 20
-57.65
 30
0.0
  0
VERTEX
  8
0
 10
153.3
 20
-57.65
 30
0.0
  0
VERTEX
  8
0
 10
153.35
 20
-57.65
 30
0.0
  0
VERTEX
  8
0
 10
153.4
 20
-57.65
 30
0.0
  0
SEQEND
  8
0
  0
POLYLINE
  8
0
 62
0
 70
0
 66
1
 10
0.0
 20
0.0
 30
0.0
  0
VERTEX
  8
0
 10
153.1
 20
-63.25
 30
0.0
  0
VERTEX
  8
0
 10
153.15
 20
-63.25
 30
0.0
  0
VERTEX
  8
0
 10
153.2
 20
-63.25
 30
0.0
  0
SEQEND
  8
0
  0
POLYLINE
  8
0
 62
0
 70
0
 66
1
 10
0.0
 20
0.0
 30
0.0
  0
VERTEX
  8
0
 10
153.2
 20
-63.25
 30
0.0
  0
VERTEX
  8
0
 10
153.25
 20
-63.25
 30
0.0
  0
VERTEX
  8
0
 10
153.3
 20
-63.25
 30
0.0
  0
VERTEX
  8
0
 10
153.35
 20
-63.25
 30
0.0
  0
VERTEX
  8
0
 10
153.4
 20
-63.25
 30
0.0
  0
SEQEND
  8
0
  0
POLYLINE
  8
0
 62
0
 70
0
 66
1
 10
0.0
 20
0.0
 30
0.0
  0
VERTEX
  8
0
 10
153.1
 20
-57.95
 30
0.0
  0
VERTEX
  8
0
 10
153.15
 20
-57.95
 30
0.0
  0
VERTEX
  8
0
 10
153.2
 20
-57.95
 30
0.0
  0
SEQEND
  8
0
  0
POLYLINE
  8
0
 62
0
 70
0
 66
1
 10
0.0
 20
0.0
 30
0.0
  0
VERTEX
  8
0
 10
153.2
 20
-57.95
 30
0.0
  0
VERTEX
  8
0
 10
153.25
 20
-57.95
 30
0.0
  0
VERTEX
  8
0
 10
153.3
 20
-57.95
 30
0.0
  0
VERTEX
  8
0
 10
153.35
 20
-57.95
 30
0.0
  0
VERTEX
  8
0
 10
153.4
 20
-57.95
 30
0.0
  0
SEQEND
  8
0
  0
POLYLINE
  8
0
 62
0
 70
0
 66
1
 10
0.0
 20
0.0
 30
0.0
  0
VERTEX
  8
0
 10
153.1
 20
-62.75
 30
0.0
  0
VERTEX
  8
0
 10
153.15
 20
-62.75
 30
0.0
  0
VERTEX
  8
0
 10
153.2
 20
-62.75
 30
0.0
  0
SEQEND
  8
0
  0
POLYLINE
  8
0
 62
0
 70
0
 66
1
 10
0.0
 20
0.0
 30
0.0
  0
VERTEX
  8
0
 10
153.2
 20
-62.75
 30
0.0
  0
VERTEX
  8
0
 10
153.25
 20
-62.75
 30
0.0
  0
VERTEX
  8
0
 10
153.3
 20
-62.75
 30
0.0
  0
VERTEX
  8
0
 10
153.35
 20
-62.75
 30
0.0
  0
VERTEX
  8
0
 10
153.4
 20
-62.75
 30
0.0
  0
SEQEND
  8
0
  0
POLYLINE
  8
0
 62
0
 70
0
 66
1
 10
0.0
 20
0.0
 30
0.0
  0
VERTEX
  8
0
 10
153.1
 20
-58.45
 30
0.0
  0
VERTEX
  8
0
 10
153.15
 20
-58.45
 30
0.0
  0
VERTEX
  8
0
 10
153.2
 20
-58.45
 30
0.0
  0
SEQEND
  8
0
  0
POLYLINE
  8
0
 62
0
 70
0
 66
1
 10
0.0
 20
0.0
 30
0.0
  0
VERTEX
  8
0
 10
153.2
 20
-58.45
 30
0.0
  0
VERTEX
  8
0
 10
153.25
 20
-58.45
 30
0.0
  0
VERTEX
  8
0
 10
153.3
 20
-58.45
 30
0.0
  0
VERTEX
  8
0
 10
153.35
 20
-58.45
 30
0.0
  0
VERTEX
  8
0
 10
153.4
 20
-58.45
 30
0.0
  0
SEQEND
  8
0
  0
POLYLINE
  8
0
 62
0
 70
0
 66
1
 10
0.0
 20
0.0
 30
0.0
  0
VERTEX
  8
0
 10
153.1
 20
-62.45
 30
0.0
  0
VERTEX
  8
0
 10
153.15
 20
-62.45
 30
0.0
  0
VERTEX
  8
0
 10
153.2
 20
-62.45
 30
0.0
  0
SEQEND
  8
0
  0
POLYLINE
  8
0
 62
0
 70
0
 66
1
 10
0.0
 20
0.0
 30
0.0
  0
VERTEX
  8
0
 10
153.2
 20
-62.45
 30
0.0
  0
VERTEX
  8
0
 10
153.25
 20
-62.45
 30
0.0
  0
VERTEX
  8
0
 10
153.3
 20
-62.45
 30
0.0
  0
VERTEX
  8
0
 10
153.35
 20
-62.45
 30
0.0
  0
VERTEX
  8
0
 10
153.4
 20
-62.45
 30
0.0
  0
SEQEND
  8
0
  0
POLYLINE
  8
0
 62
0
 70
0
 66
1
 10
0.0
 20
0.0
 30
0.0
  0
VERTEX
  8
0
 10
153.1
 20
-58.75
 30
0.0
  0
VERTEX
  8
0
 10
153.15
 20
-58.75
 30
0.0
  0
VERTEX
  8
0
 10
153.2
 20
-58.75
 30
0.0
  0
SEQEND
  8
0
  0
POLYLINE
  8
0
 62
0
 70
0
 66
1
 10
0.0
 20
0.0
 30
0.0
  0
VERTEX
  8
0
 10
153.2
 20
-58.75
 30
0.0
  0
VERTEX
  8
0
 10
153.25
 20
-58.75
 30
0.0
  0
VERTEX
  8
0
 10
153.3
 20
-58.75
 30
0.0
  0
VERTEX
  8
0
 10
153.35
 20
-58.75
 30
0.0
  0
VERTEX
  8
0
 10
153.4
 20
-58.75
 30
0.0
  0
SEQEND
  8
0
  0
POLYLINE
  8
0
 62
0
 70
0
 66
1
 10
0.0
 20
0.0
 30
0.0
  0
VERTEX
  8
0
 10
153.1
 20
-61.95
 30
0.0
  0
VERTEX
  8
0
 10
153.15
 20
-61.95
 30
0.0
  0
VERTEX
  8
0
 10
153.2
 20
-61.95
 30
0.0
  0
SEQEND
  8
0
  0
POLYLINE
  8
0
 62
0
 70
0
 66
1
 10
0.0
 20
0.0
 30
0.0
  0
VERTEX
  8
0
 10
153.2
 20
-61.95
 30
0.0
  0
VERTEX
  8
0
 10
153.25
 20
-61.95
 30
0.0
  0
VERTEX
  8
0
 10
153.3
 20
-61.95
 30
0.0
  0
VERTEX
  8
0
 10
153.35
 20
-61.95
 30
0.0
  0
VERTEX
  8
0
 10
153.4
 20
-61.95
 30
0.0
  0
SEQEND
  8
0
  0
POLYLINE
  8
0
 62
0
 70
0
 66
1
 10
0.0
 20
0.0
 30
0.0
  0
VERTEX
  8
0
 10
153.1
 20
-59.25
 30
0.0
  0
VERTEX
  8
0
 10
153.15
 20
-59.25
 30
0.0
  0
VERTEX
  8
0
 10
153.2
 20
-59.25
 30
0.0
  0
SEQEND
  8
0
  0
POLYLINE
  8
0
 62
0
 70
0
 66
1
 10
0.0
 20
0.0
 30
0.0
  0
VERTEX
  8
0
 10
153.2
 20
-59.25
 30
0.0
  0
VERTEX
  8
0
 10
153.25
 20
-59.25
 30
0.0
  0
VERTEX
  8
0
 10
153.3
 20
-59.25
 30
0.0
  0
VERTEX
  8
0
 10
153.35
 20
-59.25
 30
0.0
  0
VERTEX
  8
0
 10
153.4
 20
-59.25
 30
0.0
  0
SEQEND
  8
0
  0
POLYLINE
  8
0
 62
0
 70
0
 66
1
 10
0.0
 20
0.0
 30
0.0
  0
VERTEX
  8
0
 10
153.1
 20
-61.65
 30
0.0
  0
VERTEX
  8
0
 10
153.15
 20
-61.65
 30
0.0
  0
VERTEX
  8
0
 10
153.2
 20
-61.65
 30
0.0
  0
SEQEND
  8
0
  0
POLYLINE
  8
0
 62
0
 70
0
 66
1
 10
0.0
 20
0.0
 30
0.0
  0
VERTEX
  8
0
 10
153.2
 20
-61.65
 30
0.0
  0
VERTEX
  8
0
 10
153.25
 20
-61.65
 30
0.0
  0
VERTEX
  8
0
 10
153.3
 20
-61.65
 30
0.0
  0
VERTEX
  8
0
 10
153.35
 20
-61.65
 30
0.0
  0
VERTEX
  8
0
 10
153.4
 20
-61.65
 30
0.0
  0
SEQEND
  8
0
  0
POLYLINE
  8
0
 62
0
 70
0
 66
1
 10
0.0
 20
0.0
 30
0.0
  0
VERTEX
  8
0
 10
153.1
 20
-59.55
 30
0.0
  0
VERTEX
  8
0
 10
153.15
 20
-59.55
 30
0.0
  0
VERTEX
  8
0
 10
153.2
 20
-59.55
 30
0.0
  0
SEQEND
  8
0
  0
POLYLINE
  8
0
 62
0
 70
0
 66
1
 10
0.0
 20
0.0
 30
0.0
  0
VERTEX
  8
0
 10
153.2
 20
-59.55
 30
0.0
  0
VERTEX
  8
0
 10
153.25
 20
-59.55
 30
0.0
  0
VERTEX
  8
0
 10
153.3
 20
-59.55
 30
0.0
  0
VERTEX
  8
0
 10
153.35
 20
-59.55
 30
0.0
  0
VERTEX
  8
0
 10
153.4
 20
-59.55
 30
0.0
  0
SEQEND
  8
0
  0
POLYLINE
  8
0
 62
0
 70
0
 66
1
 10
0.0
 20
0.0
 30
0.0
  0
VERTEX
  8
0
 10
153.1
 20
-61.15
 30
0.0
  0
VERTEX
  8
0
 10
153.15
 20
-61.15
 30
0.0
  0
VERTEX
  8
0
 10
153.2
 20
-61.15
 30
0.0
  0
SEQEND
  8
0
  0
POLYLINE
  8
0
 62
0
 70
0
 66
1
 10
0.0
 20
0.0
 30
0.0
  0
VERTEX
  8
0
 10
153.2
 20
-61.15
 30
0.0
  0
VERTEX
  8
0
 10
153.25
 20
-61.15
 30
0.0
  0
VERTEX
  8
0
 10
153.3
 20
-61.15
 30
0.0
  0
VERTEX
  8
0
 10
153.35
 20
-61.15
 30
0.0
  0
VERTEX
  8
0
 10
153.4
 20
-61.15
 30
0.0
  0
SEQEND
  8
0
  0
POLYLINE
  8
0
 62
0
 70
0
 66
1
 10
0.0
 20
0.0
 30
0.0
  0
VERTEX
  8
0
 10
153.1
 20
-60.05
 30
0.0
  0
VERTEX
  8
0
 10
153.15
 20
-60.05
 30
0.0
  0
VERTEX
  8
0
 10
153.2
 20
-60.05
 30
0.0
  0
SEQEND
  8
0
  0
POLYLINE
  8
0
 62
0
 70
0
 66
1
 10
0.0
 20
0.0
 30
0.0
  0
VERTEX
  8
0
 10
153.2
 20
-60.05
 30
0.0
  0
VERTEX
  8
0
 10
153.25
 20
-60.05
 30
0.0
  0
VERTEX
  8
0
 10
153.3
 20
-60.05
 30
0.0
  0
VERTEX
  8
0
 10
153.35
 20
-60.05
 30
0.0
  0
VERTEX
  8
0
 10
153.4
 20
-60.05
 30
0.0
  0
SEQEND
  8
0
  0
POLYLINE
  8
0
 62
0
 70
0
 66
1
 10
0.0
 20
0.0
 30
0.0
  0
VERTEX
  8
0
 10
153.1
 20
-60.85
 30
0.0
  0
VERTEX
  8
0
 10
153.15
 20
-60.85
 30
0.0
  0
VERTEX
  8
0
 10
153.2
 20
-60.85
 30
0.0
  0
SEQEND
  8
0
  0
POLYLINE
  8
0
 62
0
 70
0
 66
1
 10
0.0
 20
0.0
 30
0.0
  0
VERTEX
  8
0
 10
153.2
 20
-60.85
 30
0.0
  0
VERTEX
  8
0
 10
153.25
 20
-60.85
 30
0.0
  0
VERTEX
  8
0
 10
153.3
 20
-60.85
 30
0.0
  0
VERTEX
  8
0
 10
153.35
 20
-60.85
 30
0.0
  0
VERTEX
  8
0
 10
153.4
 20
-60.85
 30
0.0
  0
SEQEND
  8
0
  0
POLYLINE
  8
0
 62
0
 70
0
 66
1
 10
0.0
 20
0.0
 30
0.0
  0
VERTEX
  8
0
 10
153.1
 20
-60.35
 30
0.0
  0
VERTEX
  8
0
 10
153.15
 20
-60.35
 30
0.0
  0
VERTEX
  8
0
 10
153.2
 20
-60.35
 30
0.0
  0
SEQEND
  8
0
  0
POLYLINE
  8
0
 62
0
 70
0
 66
1
 10
0.0
 20
0.0
 30
0.0
  0
VERTEX
  8
0
 10
153.2
 20
-60.35
 30
0.0
  0
VERTEX
  8
0
 10
153.25
 20
-60.35
 30
0.0
  0
VERTEX
  8
0
 10
153.3
 20
-60.35
 30
0.0
  0
VERTEX
  8
0
 10
153.35
 20
-60.35
 30
0.0
  0
VERTEX
  8
0
 10
153.4
 20
-60.35
 30
0.0
  0
SEQEND
  8
0
  0
POLYLINE
  8
0
 62
0
 70
0
 66
1
 10
0.0
 20
0.0
 30
0.0
  0
VERTEX
  8
0
 10
152.35
 20
-56.9
 30
0.0
  0
VERTEX
  8
0
 10
152.35
 20
-56.85
 30
0.0
  0
VERTEX
  8
0
 10
152.35
 20
-56.8
 30
0.0
  0
SEQEND
  8
0
  0
POLYLINE
  8
0
 62
0
 70
0
 66
1
 10
0.0
 20
0.0
 30
0.0
  0
VERTEX
  8
0
 10
152.35
 20
-56.8
 30
0.0
  0
VERTEX
  8
0
 10
152.35
 20
-56.75
 30
0.0
  0
VERTEX
  8
0
 10
152.35
 20
-56.7
 30
0.0
  0
VERTEX
  8
0
 10
152.35
 20
-56.65
 30
0.0
  0
VERTEX
  8
0
 10
152.35
 20
-56.6
 30
0.0
  0
SEQEND
  8
0
  0
POLYLINE
  8
0
 62
0
 70
0
 66
1
 10
0.0
 20
0.0
 30
0.0
  0
VERTEX
  8
0
 10
146.45
 20
-56.9
 30
0.0
  0
VERTEX
  8
0
 10
146.45
 20
-56.85
 30
0.0
  0
VERTEX
  8
0
 10
146.45
 20
-56.8
 30
0.0
  0
SEQEND
  8
0
  0
POLYLINE
  8
0
 62
0
 70
0
 66
1
 10
0.0
 20
0.0
 30
0.0
  0
VERTEX
  8
0
 10
146.45
 20
-56.8
 30
0.0
  0
VERTEX
  8
0
 10
146.45
 20
-56.75
 30
0.0
  0
VERTEX
  8
0
 10
146.45
 20
-56.7
 30
0.0
  0
VERTEX
  8
0
 10
146.45
 20
-56.65
 30
0.0
  0
VERTEX
  8
0
 10
146.45
 20
-56.6
 30
0.0
  0
SEQEND
  8
0
  0
POLYLINE
  8
0
 62
0
 70
0
 66
1
 10
0.0
 20
0.0
 30
0.0
  0
VERTEX
  8
0
 10
152.05
 20
-56.9
 30
0.0
  0
VERTEX
  8
0
 10
152.05
 20
-56.85
 30
0.0
  0
VERTEX
  8
0
 10
152.05
 20
-56.8
 30
0.0
  0
SEQEND
  8
0
  0
POLYLINE
  8
0
 62
0
 70
0
 66
1
 10
0.0
 20
0.0
 30
0.0
  0
VERTEX
  8
0
 10
152.05
 20
-56.8
 30
0.0
  0
VERTEX
  8
0
 10
152.05
 20
-56.75
 30
0.0
  0
VERTEX
  8
0
 10
152.05
 20
-56.7
 30
0.0
  0
VERTEX
  8
0
 10
152.05
 20
-56.65
 30
0.0
  0
VERTEX
  8
0
 10
152.05
 20
-56.6
 30
0.0
  0
SEQEND
  8
0
  0
POLYLINE
  8
0
 62
0
 70
0
 66
1
 10
0.0
 20
0.0
 30
0.0
  0
VERTEX
  8
0
 10
146.75
 20
-56.9
 30
0.0
  0
VERTEX
  8
0
 10
146.75
 20
-56.85
 30
0.0
  0
VERTEX
  8
0
 10
146.75
 20
-56.8
 30
0.0
  0
SEQEND
  8
0
  0
POLYLINE
  8
0
 62
0
 70
0
 66
1
 10
0.0
 20
0.0
 30
0.0
  0
VERTEX
  8
0
 10
146.75
 20
-56.8
 30
0.0
  0
VERTEX
  8
0
 10
146.75
 20
-56.75
 30
0.0
  0
VERTEX
  8
0
 10
146.75
 20
-56.7
 30
0.0
  0
VERTEX
  8
0
 10
146.75
 20
-56.65
 30
0.0
  0
VERTEX
  8
0
 10
146.75
 20
-56.6
 30
0.0
  0
SEQEND
  8
0
  0
POLYLINE
  8
0
 62
0
 70
0
 66
1
 10
0.0
 20
0.0
 30
0.0
  0
VERTEX
  8
0
 10
151.55
 20
-56.9
 30
0.0
  0
VERTEX
  8
0
 10
151.55
 20
-56.85
 30
0.0
  0
VERTEX
  8
0
 10
151.55
 20
-56.8
 30
0.0
  0
SEQEND
  8
0
  0
POLYLINE
  8
0
 62
0
 70
0
 66
1
 10
0.0
 20
0.0
 30
0.0
  0
VERTEX
  8
0
 10
151.55
 20
-56.8
 30
0.0
  0
VERTEX
  8
0
 10
151.55
 20
-56.75
 30
0.0
  0
VERTEX
  8
0
 10
151.55
 20
-56.7
 30
0.0
  0
VERTEX
  8
0
 10
151.55
 20
-56.65
 30
0.0
  0
VERTEX
  8
0
 10
151.55
 20
-56.6
 30
0.0
  0
SEQEND
  8
0
  0
POLYLINE
  8
0
 62
0
 70
0
 66
1
 10
0.0
 20
0.0
 30
0.0
  0
VERTEX
  8
0
 10
147.25
 20
-56.9
 30
0.0
  0
VERTEX
  8
0
 10
147.25
 20
-56.85
 30
0.0
  0
VERTEX
  8
0
 10
147.25
 20
-56.8
 30
0.0
  0
SEQEND
  8
0
  0
POLYLINE
  8
0
 62
0
 70
0
 66
1
 10
0.0
 20
0.0
 30
0.0
  0
VERTEX
  8
0
 10
147.25
 20
-56.8
 30
0.0
  0
VERTEX
  8
0
 10
147.25
 20
-56.75
 30
0.0
  0
VERTEX
  8
0
 10
147.25
 20
-56.7
 30
0.0
  0
VERTEX
  8
0
 10
147.25
 20
-56.65
 30
0.0
  0
VERTEX
  8
0
 10
147.25
 20
-56.6
 30
0.0
  0
SEQEND
  8
0
  0
POLYLINE
  8
0
 62
0
 70
0
 66
1
 10
0.0
 20
0.0
 30
0.0
  0
VERTEX
  8
0
 10
151.25
 20
-56.9
 30
0.0
  0
VERTEX
  8
0
 10
151.25
 20
-56.85
 30
0.0
  0
VERTEX
  8
0
 10
151.25
 20
-56.8
 30
0.0
  0
SEQEND
  8
0
  0
POLYLINE
  8
0
 62
0
 70
0
 66
1
 10
0.0
 20
0.0
 30
0.0
  0
VERTEX
  8
0
 10
151.25
 20
-56.8
 30
0.0
  0
VERTEX
  8
0
 10
151.25
 20
-56.75
 30
0.0
  0
VERTEX
  8
0
 10
151.25
 20
-56.7
 30
0.0
  0
VERTEX
  8
0
 10
151.25
 20
-56.65
 30
0.0
  0
VERTEX
  8
0
 10
151.25
 20
-56.6
 30
0.0
  0
SEQEND
  8
0
  0
POLYLINE
  8
0
 62
0
 70
0
 66
1
 10
0.0
 20
0.0
 30
0.0
  0
VERTEX
  8
0
 10
147.55
 20
-56.9
 30
0.0
  0
VERTEX
  8
0
 10
147.55
 20
-56.85
 30
0.0
  0
VERTEX
  8
0
 10
147.55
 20
-56.8
 30
0.0
  0
SEQEND
  8
0
  0
POLYLINE
  8
0
 62
0
 70
0
 66
1
 10
0.0
 20
0.0
 30
0.0
  0
VERTEX
  8
0
 10
147.55
 20
-56.8
 30
0.0
  0
VERTEX
  8
0
 10
147.55
 20
-56.75
 30
0.0
  0
VERTEX
  8
0
 10
147.55
 20
-56.7
 30
0.0
  0
VERTEX
  8
0
 10
147.55
 20
-56.65
 30
0.0
  0
VERTEX
  8
0
 10
147.55
 20
-56.6
 30
0.0
  0
SEQEND
  8
0
  0
POLYLINE
  8
0
 62
0
 70
0
 66
1
 10
0.0
 20
0.0
 30
0.0
  0
VERTEX
  8
0
 10
150.75
 20
-56.9
 30
0.0
  0
VERTEX
  8
0
 10
150.75
 20
-56.85
 30
0.0
  0
VERTEX
  8
0
 10
150.75
 20
-56.8
 30
0.0
  0
SEQEND
  8
0
  0
POLYLINE
  8
0
 62
0
 70
0
 66
1
 10
0.0
 20
0.0
 30
0.0
  0
VERTEX
  8
0
 10
150.75
 20
-56.8
 30
0.0
  0
VERTEX
  8
0
 10
150.75
 20
-56.75
 30
0.0
  0
VERTEX
  8
0
 10
150.75
 20
-56.7
 30
0.0
  0
VERTEX
  8
0
 10
150.75
 20
-56.65
 30
0.0
  0
VERTEX
  8
0
 10
150.75
 20
-56.6
 30
0.0
  0
SEQEND
  8
0
  0
POLYLINE
  8
0
 62
0
 70
0
 66
1
 10
0.0
 20
0.0
 30
0.0
  0
VERTEX
  8
0
 10
148.05
 20
-56.9
 30
0.0
  0
VERTEX
  8
0
 10
148.05
 20
-56.85
 30
0.0
  0
VERTEX
  8
0
 10
148.05
 20
-56.8
 30
0.0
  0
SEQEND
  8
0
  0
POLYLINE
  8
0
 62
0
 70
0
 66
1
 10
0.0
 20
0.0
 30
0.0
  0
VERTEX
  8
0
 10
148.05
 20
-56.8
 30
0.0
  0
VERTEX
  8
0
 10
148.05
 20
-56.75
 30
0.0
  0
VERTEX
  8
0
 10
148.05
 20
-56.7
 30
0.0
  0
VERTEX
  8
0
 10
148.05
 20
-56.65
 30
0.0
  0
VERTEX
  8
0
 10
148.05
 20
-56.6
 30
0.0
  0
SEQEND
  8
0
  0
POLYLINE
  8
0
 62
0
 70
0
 66
1
 10
0.0
 20
0.0
 30
0.0
  0
VERTEX
  8
0
 10
150.45
 20
-56.9
 30
0.0
  0
VERTEX
  8
0
 10
150.45
 20
-56.85
 30
0.0
  0
VERTEX
  8
0
 10
150.45
 20
-56.8
 30
0.0
  0
SEQEND
  8
0
  0
POLYLINE
  8
0
 62
0
 70
0
 66
1
 10
0.0
 20
0.0
 30
0.0
  0
VERTEX
  8
0
 10
150.45
 20
-56.8
 30
0.0
  0
VERTEX
  8
0
 10
150.45
 20
-56.75
 30
0.0
  0
VERTEX
  8
0
 10
150.45
 20
-56.7
 30
0.0
  0
VERTEX
  8
0
 10
150.45
 20
-56.65
 30
0.0
  0
VERTEX
  8
0
 10
150.45
 20
-56.6
 30
0.0
  0
SEQEND
  8
0
  0
POLYLINE
  8
0
 62
0
 70
0
 66
1
 10
0.0
 20
0.0
 30
0.0
  0
VERTEX
  8
0
 10
148.35
 20
-56.9
 30
0.0
  0
VERTEX
  8
0
 10
148.35
 20
-56.85
 30
0.0
  0
VERTEX
  8
0
 10
148.35
 20
-56.8
 30
0.0
  0
SEQEND
  8
0
  0
POLYLINE
  8
0
 62
0
 70
0
 66
1
 10
0.0
 20
0.0
 30
0.0
  0
VERTEX
  8
0
 10
148.35
 20
-56.8
 30
0.0
  0
VERTEX
  8
0
 10
148.35
 20
-56.75
 30
0.0
  0
VERTEX
  8
0
 10
148.35
 20
-56.7
 30
0.0
  0
VERTEX
  8
0
 10
148.35
 20
-56.65
 30
0.0
  0
VERTEX
  8
0
 10
148.35
 20
-56.6
 30
0.0
  0
SEQEND
  8
0
  0
POLYLINE
  8
0
 62
0
 70
0
 66
1
 10
0.0
 20
0.0
 30
0.0
  0
VERTEX
  8
0
 10
149.95
 20
-56.9
 30
0.0
  0
VERTEX
  8
0
 10
149.95
 20
-56.85
 30
0.0
  0
VERTEX
  8
0
 10
149.95
 20
-56.8
 30
0.0
  0
SEQEND
  8
0
  0
POLYLINE
  8
0
 62
0
 70
0
 66
1
 10
0.0
 20
0.0
 30
0.0
  0
VERTEX
  8
0
 10
149.95
 20
-56.8
 30
0.0
  0
VERTEX
  8
0
 10
149.95
 20
-56.75
 30
0.0
  0
VERTEX
  8
0
 10
149.95
 20
-56.7
 30
0.0
  0
VERTEX
  8
0
 10
149.95
 20
-56.65
 30
0.0
  0
VERTEX
  8
0
 10
149.95
 20
-56.6
 30
0.0
  0
SEQEND
  8
0
  0
POLYLINE
  8
0
 62
0
 70
0
 66
1
 10
0.0
 20
0.0
 30
0.0
  0
VERTEX
  8
0
 10
148.85
 20
-56.9
 30
0.0
  0
VERTEX
  8
0
 10
148.85
 20
-56.85
 30
0.0
  0
VERTEX
  8
0
 10
148.85
 20
-56.8
 30
0.0
  0
SEQEND
  8
0
  0
POLYLINE
  8
0
 62
0
 70
0
 66
1
 10
0.0
 20
0.0
 30
0.0
  0
VERTEX
  8
0
 10
148.85
 20
-56.8
 30
0.0
  0
VERTEX
  8
0
 10
148.85
 20
-56.75
 30
0.0
  0
VERTEX
  8
0
 10
148.85
 20
-56.7
 30
0.0
  0
VERTEX
  8
0
 10
148.85
 20
-56.65
 30
0.0
  0
VERTEX
  8
0
 10
148.85
 20
-56.6
 30
0.0
  0
SEQEND
  8
0
  0
POLYLINE
  8
0
 62
0
 70
0
 66
1
 10
0.0
 20
0.0
 30
0.0
  0
VERTEX
  8
0
 10
149.65
 20
-56.9
 30
0.0
  0
VERTEX
  8
0
 10
149.65
 20
-56.85
 30
0.0
  0
VERTEX
  8
0
 10
149.65
 20
-56.8
 30
0.0
  0
SEQEND
  8
0
  0
POLYLINE
  8
0
 62
0
 70
0
 66
1
 10
0.0
 20
0.0
 30
0.0
  0
VERTEX
  8
0
 10
149.65
 20
-56.8
 30
0.0
  0
VERTEX
  8
0
 10
149.65
 20
-56.75
 30
0.0
  0
VERTEX
  8
0
 10
149.65
 20
-56.7
 30
0.0
  0
VERTEX
  8
0
 10
149.65
 20
-56.65
 30
0.0
  0
VERTEX
  8
0
 10
149.65
 20
-56.6
 30
0.0
  0
SEQEND
  8
0
  0
POLYLINE
  8
0
 62
0
 70
0
 66
1
 10
0.0
 20
0.0
 30
0.0
  0
VERTEX
  8
0
 10
149.15
 20
-56.9
 30
0.0
  0
VERTEX
  8
0
 10
149.15
 20
-56.85
 30
0.0
  0
VERTEX
  8
0
 10
149.15
 20
-56.8
 30
0.0
  0
SEQEND
  8
0
  0
POLYLINE
  8
0
 62
0
 70
0
 66
1
 10
0.0
 20
0.0
 30
0.0
  0
VERTEX
  8
0
 10
149.15
 20
-56.8
 30
0.0
  0
VERTEX
  8
0
 10
149.15
 20
-56.75
 30
0.0
  0
VERTEX
  8
0
 10
149.15
 20
-56.7
 30
0.0
  0
VERTEX
  8
0
 10
149.15
 20
-56.65
 30
0.0
  0
VERTEX
  8
0
 10
149.15
 20
-56.6
 30
0.0
  0
SEQEND
  8
0
  0
LINE
  8
0
 62
0
 10
145.9
 20
-60.85
 30
0.0
 11
145.7
 21
-60.85
 31
0.0
  0
LINE
  8
0
 62
0
 10
145.9
 20
-60.85
 30
0.0
 11
145.9
 21
-61.15
 31
0.0
  0
LINE
  8
0
 62
0
 10
145.9
 20
-61.15
 30
0.0
 11
145.7
 21
-61.15
 31
0.0
  0
LINE
  8
0
 62
0
 10
145.6
 20
-60.85
 30
0.0
 11
145.6
 21
-61.15
 31
0.0
  0
LINE
  8
0
 62
0
 10
145.4
 20
-60.85
 30
0.0
 11
144.9
 21
-60.85
 31
0.0
  0
LINE
  8
0
 62
0
 10
145.4
 20
-61.15
 30
0.0
 11
144.9
 21
-61.15
 31
0.0
  0
LINE
  8
0
 62
0
 10
145.995650453
 20
-57.3228252264
 30
0.0
 11
145.995650453
 21
-63.8771747736
 31
0.0
  0
LINE
  8
0
 62
0
 10
145.9
 20
-63.55
 30
0.0
 11
145.9
 21
-63.925
 31
0.0
  0
LINE
  8
0
 62
0
 10
145.9
 20
-63.25
 30
0.0
 11
145.9
 21
-63.55
 31
0.0
  0
LINE
  8
0
 62
0
 10
145.9
 20
-62.75
 30
0.0
 11
145.9
 21
-63.25
 31
0.0
  0
LINE
  8
0
 62
0
 10
145.9
 20
-62.45
 30
0.0
 11
145.9
 21
-62.75
 31
0.0
  0
LINE
  8
0
 62
0
 10
145.9
 20
-61.95
 30
0.0
 11
145.9
 21
-62.45
 31
0.0
  0
LINE
  8
0
 62
0
 10
145.9
 20
-61.65
 30
0.0
 11
145.9
 21
-61.95
 31
0.0
  0
LINE
  8
0
 62
0
 10
145.9
 20
-61.15
 30
0.0
 11
145.9
 21
-61.65
 31
0.0
  0
LINE
  8
0
 62
0
 10
145.9
 20
-60.35
 30
0.0
 11
145.9
 21
-60.85
 31
0.0
  0
LINE
  8
0
 62
0
 10
145.9
 20
-60.05
 30
0.0
 11
145.9
 21
-60.35
 31
0.0
  0
LINE
  8
0
 62
0
 10
145.9
 20
-59.55
 30
0.0
 11
145.9
 21
-60.05
 31
0.0
  0
LINE
  8
0
 62
0
 10
145.9
 20
-59.25
 30
0.0
 11
145.9
 21
-59.55
 31
0.0
  0
LINE
  8
0
 62
0
 10
145.9
 20
-58.75
 30
0.0
 11
145.9
 21
-59.25
 31
0.0
  0
LINE
  8
0
 62
0
 10
145.9
 20
-58.45
 30
0.0
 11
145.9
 21
-58.75
 31
0.0
  0
LINE
  8
0
 62
0
 10
145.9
 20
-57.95
 30
0.0
 11
145.9
 21
-58.45
 31
0.0
  0
LINE
  8
0
 62
0
 10
145.9
 20
-57.65
 30
0.0
 11
145.9
 21
-57.95
 31
0.0
  0
LINE
  8
0
 62
0
 10
145.9
 20
-57.275
 30
0.0
 11
145.9
 21
-57.65
 31
0.0
  0
LINE
  8
0
 62
0
 10
144.9
 20
-60.85
 30
0.0
 11
144.9
 21
-61.15
 31
0.0
  0
LINE
  8
0
 62
0
 10
146.122825226
 20
-64.0043495472
 30
0.0
 11
152.677174774
 21
-64.0043495472
 31
0.0
  0
LINE
  8
0
 62
0
 10
152.677174774
 20
-64.0043495472
 30
0.0
 11
152.804349547
 21
-63.8771747736
 31
0.0
  0
LINE
  8
0
 62
0
 10
152.804349547
 20
-63.8771747736
 30
0.0
 11
152.804349547
 21
-57.3228252264
 31
0.0
  0
LINE
  8
0
 62
0
 10
152.804349547
 20
-57.3228252264
 30
0.0
 11
152.677174774
 21
-57.1956504528
 31
0.0
  0
LINE
  8
0
 62
0
 10
152.677174774
 20
-57.1956504528
 30
0.0
 11
146.122825226
 21
-57.1956504528
 31
0.0
  0
LINE
  8
0
 62
0
 10
146.122825226
 20
-57.1956504528
 30
0.0
 11
145.995650453
 21
-57.3228252264
 31
0.0
  0
LINE
  8
0
 62
0
 10
145.995650453
 20
-63.8771747736
 30
0.0
 11
146.122825226
 21
-64.0043495472
 31
0.0
  0
LINE
  8
0
 62
0
 10
146.075
 20
-57.1
 30
0.0
 11
145.9
 21
-57.275
 31
0.0
  0
LINE
  8
0
 62
0
 10
145.9
 20
-63.925
 30
0.0
 11
146.075
 21
-64.1
 31
0.0
  0
LINE
  8
0
 62
0
 10
145.9
 20
-57.65
 30
0.0
 11
145.7
 21
-57.65
 31
0.0
  0
LINE
  8
0
 62
0
 10
145.9
 20
-57.95
 30
0.0
 11
145.7
 21
-57.95
 31
0.0
  0
LINE
  8
0
 62
0
 10
145.9
 20
-63.25
 30
0.0
 11
145.7
 21
-63.25
 31
0.0
  0
LINE
  8
0
 62
0
 10
145.9
 20
-63.55
 30
0.0
 11
145.7
 21
-63.55
 31
0.0
  0
LINE
  8
0
 62
0
 10
145.9
 20
-58.45
 30
0.0
 11
145.7
 21
-58.45
 31
0.0
  0
LINE
  8
0
 62
0
 10
145.9
 20
-58.75
 30
0.0
 11
145.7
 21
-58.75
 31
0.0
  0
LINE
  8
0
 62
0
 10
145.9
 20
-62.45
 30
0.0
 11
145.7
 21
-62.45
 31
0.0
  0
LINE
  8
0
 62
0
 10
145.9
 20
-62.75
 30
0.0
 11
145.7
 21
-62.75
 31
0.0
  0
LINE
  8
0
 62
0
 10
145.9
 20
-59.25
 30
0.0
 11
145.7
 21
-59.25
 31
0.0
  0
LINE
  8
0
 62
0
 10
145.9
 20
-59.55
 30
0.0
 11
145.7
 21
-59.55
 31
0.0
  0
LINE
  8
0
 62
0
 10
145.9
 20
-61.65
 30
0.0
 11
145.7
 21
-61.65
 31
0.0
  0
LINE
  8
0
 62
0
 10
145.9
 20
-61.95
 30
0.0
 11
145.7
 21
-61.95
 31
0.0
  0
LINE
  8
0
 62
0
 10
145.9
 20
-60.05
 30
0.0
 11
145.7
 21
-60.05
 31
0.0
  0
LINE
  8
0
 62
0
 10
145.9
 20
-60.35
 30
0.0
 11
145.7
 21
-60.35
 31
0.0
  0
LINE
  8
0
 62
0
 10
145.4
 20
-60.35
 30
0.0
 11
144.9
 21
-60.35
 31
0.0
  0
LINE
  8
0
 62
0
 10
145.4
 20
-61.65
 30
0.0
 11
144.9
 21
-61.65
 31
0.0
  0
LINE
  8
0
 62
0
 10
152.35
 20
-64.1
 30
0.0
 11
152.725
 21
-64.1
 31
0.0
  0
LINE
  8
0
 62
0
 10
152.05
 20
-64.1
 30
0.0
 11
152.35
 21
-64.1
 31
0.0
  0
LINE
  8
0
 62
0
 10
151.55
 20
-64.1
 30
0.0
 11
152.05
 21
-64.1
 31
0.0
  0
LINE
  8
0
 62
0
 10
151.25
 20
-64.1
 30
0.0
 11
151.55
 21
-64.1
 31
0.0
  0
LINE
  8
0
 62
0
 10
150.75
 20
-64.1
 30
0.0
 11
151.25
 21
-64.1
 31
0.0
  0
LINE
  8
0
 62
0
 10
150.45
 20
-64.1
 30
0.0
 11
150.75
 21
-64.1
 31
0.0
  0
LINE
  8
0
 62
0
 10
149.95
 20
-64.1
 30
0.0
 11
150.45
 21
-64.1
 31
0.0
  0
LINE
  8
0
 62
0
 10
149.65
 20
-64.1
 30
0.0
 11
149.95
 21
-64.1
 31
0.0
  0
LINE
  8
0
 62
0
 10
149.15
 20
-64.1
 30
0.0
 11
149.65
 21
-64.1
 31
0.0
  0
LINE
  8
0
 62
0
 10
148.85
 20
-64.1
 30
0.0
 11
149.15
 21
-64.1
 31
0.0
  0
LINE
  8
0
 62
0
 10
148.35
 20
-64.1
 30
0.0
 11
148.85
 21
-64.1
 31
0.0
  0
LINE
  8
0
 62
0
 10
148.05
 20
-64.1
 30
0.0
 11
148.35
 21
-64.1
 31
0.0
  0
LINE
  8
0
 62
0
 10
147.55
 20
-64.1
 30
0.0
 11
148.05
 21
-64.1
 31
0.0
  0
LINE
  8
0
 62
0
 10
147.25
 20
-64.1
 30
0.0
 11
147.55
 21
-64.1
 31
0.0
  0
LINE
  8
0
 62
0
 10
146.75
 20
-64.1
 30
0.0
 11
147.25
 21
-64.1
 31
0.0
  0
LINE
  8
0
 62
0
 10
146.45
 20
-64.1
 30
0.0
 11
146.75
 21
-64.1
 31
0.0
  0
LINE
  8
0
 62
0
 10
146.075
 20
-64.1
 30
0.0
 11
146.45
 21
-64.1
 31
0.0
  0
LINE
  8
0
 62
0
 10
152.725
 20
-64.1
 30
0.0
 11
152.9
 21
-63.925
 31
0.0
  0
LINE
  8
0
 62
0
 10
152.9
 20
-57.65
 30
0.0
 11
152.9
 21
-57.275
 31
0.0
  0
LINE
  8
0
 62
0
 10
152.9
 20
-57.95
 30
0.0
 11
152.9
 21
-57.65
 31
0.0
  0
LINE
  8
0
 62
0
 10
152.9
 20
-58.45
 30
0.0
 11
152.9
 21
-57.95
 31
0.0
  0
LINE
  8
0
 62
0
 10
152.9
 20
-58.75
 30
0.0
 11
152.9
 21
-58.45
 31
0.0
  0
LINE
  8
0
 62
0
 10
152.9
 20
-59.25
 30
0.0
 11
152.9
 21
-58.75
 31
0.0
  0
LINE
  8
0
 62
0
 10
152.9
 20
-59.55
 30
0.0
 11
152.9
 21
-59.25
 31
0.0
  0
LINE
  8
0
 62
0
 10
152.9
 20
-60.05
 30
0.0
 11
152.9
 21
-59.55
 31
0.0
  0
LINE
  8
0
 62
0
 10
152.9
 20
-60.35
 30
0.0
 11
152.9
 21
-60.05
 31
0.0
  0
LINE
  8
0
 62
0
 10
152.9
 20
-60.85
 30
0.0
 11
152.9
 21
-60.35
 31
0.0
  0
LINE
  8
0
 62
0
 10
152.9
 20
-61.15
 30
0.0
 11
152.9
 21
-60.85
 31
0.0
  0
LINE
  8
0
 62
0
 10
152.9
 20
-61.65
 30
0.0
 11
152.9
 21
-61.15
 31
0.0
  0
LINE
  8
0
 62
0
 10
152.9
 20
-61.95
 30
0.0
 11
152.9
 21
-61.65
 31
0.0
  0
LINE
  8
0
 62
0
 10
152.9
 20
-62.45
 30
0.0
 11
152.9
 21
-61.95
 31
0.0
  0
LINE
  8
0
 62
0
 10
152.9
 20
-62.75
 30
0.0
 11
152.9
 21
-62.45
 31
0.0
  0
LINE
  8
0
 62
0
 10
152.9
 20
-63.25
 30
0.0
 11
152.9
 21
-62.75
 31
0.0
  0
LINE
  8
0
 62
0
 10
152.9
 20
-63.55
 30
0.0
 11
152.9
 21
-63.25
 31
0.0
  0
LINE
  8
0
 62
0
 10
152.9
 20
-63.925
 30
0.0
 11
152.9
 21
-63.55
 31
0.0
  0
LINE
  8
0
 62
0
 10
152.9
 20
-57.275
 30
0.0
 11
152.725
 21
-57.1
 31
0.0
  0
LINE
  8
0
 62
0
 10
146.45
 20
-57.1
 30
0.0
 11
146.075
 21
-57.1
 31
0.0
  0
LINE
  8
0
 62
0
 10
146.75
 20
-57.1
 30
0.0
 11
146.45
 21
-57.1
 31
0.0
  0
LINE
  8
0
 62
0
 10
147.25
 20
-57.1
 30
0.0
 11
146.75
 21
-57.1
 31
0.0
  0
LINE
  8
0
 62
0
 10
147.55
 20
-57.1
 30
0.0
 11
147.25
 21
-57.1
 31
0.0
  0
LINE
  8
0
 62
0
 10
148.05
 20
-57.1
 30
0.0
 11
147.55
 21
-57.1
 31
0.0
  0
LINE
  8
0
 62
0
 10
148.35
 20
-57.1
 30
0.0
 11
148.05
 21
-57.1
 31
0.0
  0
LINE
  8
0
 62
0
 10
148.85
 20
-57.1
 30
0.0
 11
148.35
 21
-57.1
 31
0.0
  0
LINE
  8
0
 62
0
 10
149.15
 20
-57.1
 30
0.0
 11
148.85
 21
-57.1
 31
0.0
  0
LINE
  8
0
 62
0
 10
149.65
 20
-57.1
 30
0.0
 11
149.15
 21
-57.1
 31
0.0
  0
LINE
  8
0
 62
0
 10
149.95
 20
-57.1
 30
0.0
 11
149.65
 21
-57.1
 31
0.0
  0
LINE
  8
0
 62
0
 10
150.45
 20
-57.1
 30
0.0
 11
149.95
 21
-57.1
 31
0.0
  0
LINE
  8
0
 62
0
 10
150.75
 20
-57.1
 30
0.0
 11
150.45
 21
-57.1
 31
0.0
  0
LINE
  8
0
 62
0
 10
151.25
 20
-57.1
 30
0.0
 11
150.75
 21
-57.1
 31
0.0
  0
LINE
  8
0
 62
0
 10
151.55
 20
-57.1
 30
0.0
 11
151.25
 21
-57.1
 31
0.0
  0
LINE
  8
0
 62
0
 10
152.05
 20
-57.1
 30
0.0
 11
151.55
 21
-57.1
 31
0.0
  0
LINE
  8
0
 62
0
 10
152.35
 20
-57.1
 30
0.0
 11
152.05
 21
-57.1
 31
0.0
  0
LINE
  8
0
 62
0
 10
152.725
 20
-57.1
 30
0.0
 11
152.35
 21
-57.1
 31
0.0
  0
LINE
  8
0
 62
0
 10
145.4
 20
-57.65
 30
0.0
 11
144.9
 21
-57.65
 31
0.0
  0
LINE
  8
0
 62
0
 10
145.4
 20
-63.55
 30
0.0
 11
144.9
 21
-63.55
 31
0.0
  0
LINE
  8
0
 62
0
 10
145.4
 20
-57.95
 30
0.0
 11
144.9
 21
-57.95
 31
0.0
  0
LINE
  8
0
 62
0
 10
145.4
 20
-63.25
 30
0.0
 11
144.9
 21
-63.25
 31
0.0
  0
LINE
  8
0
 62
0
 10
145.4
 20
-58.45
 30
0.0
 11
144.9
 21
-58.45
 31
0.0
  0
LINE
  8
0
 62
0
 10
145.4
 20
-62.75
 30
0.0
 11
144.9
 21
-62.75
 31
0.0
  0
LINE
  8
0
 62
0
 10
145.4
 20
-58.75
 30
0.0
 11
144.9
 21
-58.75
 31
0.0
  0
LINE
  8
0
 62
0
 10
145.4
 20
-62.45
 30
0.0
 11
144.9
 21
-62.45
 31
0.0
  0
LINE
  8
0
 62
0
 10
145.4
 20
-59.25
 30
0.0
 11
144.9
 21
-59.25
 31
0.0
  0
LINE
  8
0
 62
0
 10
145.4
 20
-61.95
 30
0.0
 11
144.9
 21
-61.95
 31
0.0
  0
LINE
  8
0
 62
0
 10
145.4
 20
-59.55
 30
0.0
 11
144.9
 21
-59.55
 31
0.0
  0
LINE
  8
0
 62
0
 10
145.4
 20
-60.05
 30
0.0
 11
144.9
 21
-60.05
 31
0.0
  0
LINE
  8
0
 62
0
 10
144.9
 20
-60.05
 30
0.0
 11
144.9
 21
-60.35
 31
0.0
  0
LINE
  8
0
 62
0
 10
145.6
 20
-60.05
 30
0.0
 11
145.6
 21
-60.35
 31
0.0
  0
LINE
  8
0
 62
0
 10
144.9
 20
-61.65
 30
0.0
 11
144.9
 21
-61.95
 31
0.0
  0
LINE
  8
0
 62
0
 10
145.6
 20
-61.65
 30
0.0
 11
145.6
 21
-61.95
 31
0.0
  0
LINE
  8
0
 62
0
 10
146.45
 20
-64.1
 30
0.0
 11
146.45
 21
-64.3
 31
0.0
  0
LINE
  8
0
 62
0
 10
146.75
 20
-64.1
 30
0.0
 11
146.75
 21
-64.3
 31
0.0
  0
LINE
  8
0
 62
0
 10
152.05
 20
-64.1
 30
0.0
 11
152.05
 21
-64.3
 31
0.0
  0
LINE
  8
0
 62
0
 10
152.35
 20
-64.1
 30
0.0
 11
152.35
 21
-64.3
 31
0.0
  0
LINE
  8
0
 62
0
 10
147.25
 20
-64.1
 30
0.0
 11
147.25
 21
-64.3
 31
0.0
  0
LINE
  8
0
 62
0
 10
147.55
 20
-64.1
 30
0.0
 11
147.55
 21
-64.3
 31
0.0
  0
LINE
  8
0
 62
0
 10
151.25
 20
-64.1
 30
0.0
 11
151.25
 21
-64.3
 31
0.0
  0
LINE
  8
0
 62
0
 10
151.55
 20
-64.1
 30
0.0
 11
151.55
 21
-64.3
 31
0.0
  0
LINE
  8
0
 62
0
 10
148.05
 20
-64.1
 30
0.0
 11
148.05
 21
-64.3
 31
0.0
  0
LINE
  8
0
 62
0
 10
148.35
 20
-64.1
 30
0.0
 11
148.35
 21
-64.3
 31
0.0
  0
LINE
  8
0
 62
0
 10
150.45
 20
-64.1
 30
0.0
 11
150.45
 21
-64.3
 31
0.0
  0
LINE
  8
0
 62
0
 10
150.75
 20
-64.1
 30
0.0
 11
150.75
 21
-64.3
 31
0.0
  0
LINE
  8
0
 62
0
 10
148.85
 20
-64.1
 30
0.0
 11
148.85
 21
-64.3
 31
0.0
  0
LINE
  8
0
 62
0
 10
149.15
 20
-64.1
 30
0.0
 11
149.15
 21
-64.3
 31
0.0
  0
LINE
  8
0
 62
0
 10
149.65
 20
-64.1
 30
0.0
 11
149.65
 21
-64.3
 31
0.0
  0
LINE
  8
0
 62
0
 10
149.95
 20
-64.1
 30
0.0
 11
149.95
 21
-64.3
 31
0.0
  0
LINE
  8
0
 62
0
 10
152.9
 20
-63.55
 30
0.0
 11
153.1
 21
-63.55
 31
0.0
  0
LINE
  8
0
 62
0
 10
152.9
 20
-63.25
 30
0.0
 11
153.1
 21
-63.25
 31
0.0
  0
LINE
  8
0
 62
0
 10
152.9
 20
-57.95
 30
0.0
 11
153.1
 21
-57.95
 31
0.0
  0
LINE
  8
0
 62
0
 10
152.9
 20
-57.65
 30
0.0
 11
153.1
 21
-57.65
 31
0.0
  0
LINE
  8
0
 62
0
 10
152.9
 20
-62.75
 30
0.0
 11
153.1
 21
-62.75
 31
0.0
  0
LINE
  8
0
 62
0
 10
152.9
 20
-62.45
 30
0.0
 11
153.1
 21
-62.45
 31
0.0
  0
LINE
  8
0
 62
0
 10
152.9
 20
-58.75
 30
0.0
 11
153.1
 21
-58.75
 31
0.0
  0
LINE
  8
0
 62
0
 10
152.9
 20
-58.45
 30
0.0
 11
153.1
 21
-58.45
 31
0.0
  0
LINE
  8
0
 62
0
 10
152.9
 20
-61.95
 30
0.0
 11
153.1
 21
-61.95
 31
0.0
  0
LINE
  8
0
 62
0
 10
152.9
 20
-61.65
 30
0.0
 11
153.1
 21
-61.65
 31
0.0
  0
LINE
  8
0
 62
0
 10
152.9
 20
-59.55
 30
0.0
 11
153.1
 21
-59.55
 31
0.0
  0
LINE
  8
0
 62
0
 10
152.9
 20
-59.25
 30
0.0
 11
153.1
 21
-59.25
 31
0.0
  0
LINE
  8
0
 62
0
 10
152.9
 20
-61.15
 30
0.0
 11
153.1
 21
-61.15
 31
0.0
  0
LINE
  8
0
 62
0
 10
152.9
 20
-60.85
 30
0.0
 11
153.1
 21
-60.85
 31
0.0
  0
LINE
  8
0
 62
0
 10
152.9
 20
-60.35
 30
0.0
 11
153.1
 21
-60.35
 31
0.0
  0
LINE
  8
0
 62
0
 10
152.9
 20
-60.05
 30
0.0
 11
153.1
 21
-60.05
 31
0.0
  0
LINE
  8
0
 62
0
 10
152.35
 20
-57.1
 30
0.0
 11
152.35
 21
-56.9
 31
0.0
  0
LINE
  8
0
 62
0
 10
152.05
 20
-57.1
 30
0.0
 11
152.05
 21
-56.9
 31
0.0
  0
LINE
  8
0
 62
0
 10
146.75
 20
-57.1
 30
0.0
 11
146.75
 21
-56.9
 31
0.0
  0
LINE
  8
0
 62
0
 10
146.45
 20
-57.1
 30
0.0
 11
146.45
 21
-56.9
 31
0.0
  0
LINE
  8
0
 62
0
 10
151.55
 20
-57.1
 30
0.0
 11
151.55
 21
-56.9
 31
0.0
  0
LINE
  8
0
 62
0
 10
151.25
 20
-57.1
 30
0.0
 11
151.25
 21
-56.9
 31
0.0
  0
LINE
  8
0
 62
0
 10
147.55
 20
-57.1
 30
0.0
 11
147.55
 21
-56.9
 31
0.0
  0
LINE
  8
0
 62
0
 10
147.25
 20
-57.1
 30
0.0
 11
147.25
 21
-56.9
 31
0.0
  0
LINE
  8
0
 62
0
 10
150.75
 20
-57.1
 30
0.0
 11
150.75
 21
-56.9
 31
0.0
  0
LINE
  8
0
 62
0
 10
150.45
 20
-57.1
 30
0.0
 11
150.45
 21
-56.9
 31
0.0
  0
LINE
  8
0
 62
0
 10
148.35
 20
-57.1
 30
0.0
 11
148.35
 21
-56.9
 31
0.0
  0
LINE
  8
0
 62
0
 10
148.05
 20
-57.1
 30
0.0
 11
148.05
 21
-56.9
 31
0.0
  0
LINE
  8
0
 62
0
 10
149.95
 20
-57.1
 30
0.0
 11
149.95
 21
-56.9
 31
0.0
  0
LINE
  8
0
 62
0
 10
149.65
 20
-57.1
 30
0.0
 11
149.65
 21
-56.9
 31
0.0
  0
LINE
  8
0
 62
0
 10
149.15
 20
-57.1
 30
0.0
 11
149.15
 21
-56.9
 31
0.0
  0
LINE
  8
0
 62
0
 10
148.85
 20
-57.1
 30
0.0
 11
148.85
 21
-56.9
 31
0.0
  0
LINE
  8
0
 62
0
 10
144.9
 20
-57.65
 30
0.0
 11
144.9
 21
-57.95
 31
0.0
  0
LINE
  8
0
 62
0
 10
145.6
 20
-57.65
 30
0.0
 11
145.6
 21
-57.95
 31
0.0
  0
LINE
  8
0
 62
0
 10
144.9
 20
-63.25
 30
0.0
 11
144.9
 21
-63.55
 31
0.0
  0
LINE
  8
0
 62
0
 10
145.6
 20
-63.25
 30
0.0
 11
145.6
 21
-63.55
 31
0.0
  0
LINE
  8
0
 62
0
 10
144.9
 20
-58.45
 30
0.0
 11
144.9
 21
-58.75
 31
0.0
  0
LINE
  8
0
 62
0
 10
145.6
 20
-58.45
 30
0.0
 11
145.6
 21
-58.75
 31
0.0
  0
LINE
  8
0
 62
0
 10
144.9
 20
-62.45
 30
0.0
 11
144.9
 21
-62.75
 31
0.0
  0
LINE
  8
0
 62
0
 10
145.6
 20
-62.45
 30
0.0
 11
145.6
 21
-62.75
 31
0.0
  0
LINE
  8
0
 62
0
 10
144.9
 20
-59.25
 30
0.0
 11
144.9
 21
-59.55
 31
0.0
  0
LINE
  8
0
 62
0
 10
145.6
 20
-59.25
 30
0.0
 11
145.6
 21
-59.55
 31
0.0
  0
LINE
  8
0
 62
0
 10
146.45
 20
-64.6
 30
0.0
 11
146.45
 21
-65.1
 31
0.0
  0
LINE
  8
0
 62
0
 10
152.35
 20
-64.6
 30
0.0
 11
152.35
 21
-65.1
 31
0.0
  0
LINE
  8
0
 62
0
 10
146.75
 20
-64.6
 30
0.0
 11
146.75
 21
-65.1
 31
0.0
  0
LINE
  8
0
 62
0
 10
152.05
 20
-64.6
 30
0.0
 11
152.05
 21
-65.1
 31
0.0
  0
LINE
  8
0
 62
0
 10
152.05
 20
-64.4
 30
0.0
 11
152.35
 21
-64.4
 31
0.0
  0
LINE
  8
0
 62
0
 10
147.25
 20
-64.6
 30
0.0
 11
147.25
 21
-65.1
 31
0.0
  0
LINE
  8
0
 62
0
 10
151.55
 20
-64.6
 30
0.0
 11
151.55
 21
-65.1
 31
0.0
  0
LINE
  8
0
 62
0
 10
147.55
 20
-64.6
 30
0.0
 11
147.55
 21
-65.1
 31
0.0
  0
LINE
  8
0
 62
0
 10
151.25
 20
-64.6
 30
0.0
 11
151.25
 21
-65.1
 31
0.0
  0
LINE
  8
0
 62
0
 10
148.05
 20
-64.6
 30
0.0
 11
148.05
 21
-65.1
 31
0.0
  0
LINE
  8
0
 62
0
 10
150.75
 20
-64.6
 30
0.0
 11
150.75
 21
-65.1
 31
0.0
  0
LINE
  8
0
 62
0
 10
148.35
 20
-64.6
 30
0.0
 11
148.35
 21
-65.1
 31
0.0
  0
LINE
  8
0
 62
0
 10
150.45
 20
-64.6
 30
0.0
 11
150.45
 21
-65.1
 31
0.0
  0
LINE
  8
0
 62
0
 10
148.85
 20
-64.6
 30
0.0
 11
148.85
 21
-65.1
 31
0.0
  0
LINE
  8
0
 62
0
 10
149.95
 20
-64.6
 30
0.0
 11
149.95
 21
-65.1
 31
0.0
  0
LINE
  8
0
 62
0
 10
149.15
 20
-64.6
 30
0.0
 11
149.15
 21
-65.1
 31
0.0
  0
LINE
  8
0
 62
0
 10
149.65
 20
-64.6
 30
0.0
 11
149.65
 21
-65.1
 31
0.0
  0
LINE
  8
0
 62
0
 10
153.4
 20
-63.55
 30
0.0
 11
153.9
 21
-63.55
 31
0.0
  0
LINE
  8
0
 62
0
 10
153.4
 20
-57.65
 30
0.0
 11
153.9
 21
-57.65
 31
0.0
  0
LINE
  8
0
 62
0
 10
153.4
 20
-63.25
 30
0.0
 11
153.9
 21
-63.25
 31
0.0
  0
LINE
  8
0
 62
0
 10
153.4
 20
-57.95
 30
0.0
 11
153.9
 21
-57.95
 31
0.0
  0
LINE
  8
0
 62
0
 10
153.4
 20
-62.75
 30
0.0
 11
153.9
 21
-62.75
 31
0.0
  0
LINE
  8
0
 62
0
 10
153.4
 20
-58.45
 30
0.0
 11
153.9
 21
-58.45
 31
0.0
  0
LINE
  8
0
 62
0
 10
153.4
 20
-62.45
 30
0.0
 11
153.9
 21
-62.45
 31
0.0
  0
LINE
  8
0
 62
0
 10
153.4
 20
-58.75
 30
0.0
 11
153.9
 21
-58.75
 31
0.0
  0
LINE
  8
0
 62
0
 10
153.4
 20
-61.95
 30
0.0
 11
153.9
 21
-61.95
 31
0.0
  0
LINE
  8
0
 62
0
 10
153.4
 20
-59.25
 30
0.0
 11
153.9
 21
-59.25
 31
0.0
  0
LINE
  8
0
 62
0
 10
153.4
 20
-61.65
 30
0.0
 11
153.9
 21
-61.65
 31
0.0
  0
LINE
  8
0
 62
0
 10
153.4
 20
-59.55
 30
0.0
 11
153.9
 21
-59.55
 31
0.0
  0
LINE
  8
0
 62
0
 10
153.4
 20
-61.15
 30
0.0
 11
153.9
 21
-61.15
 31
0.0
  0
LINE
  8
0
 62
0
 10
153.4
 20
-60.05
 30
0.0
 11
153.9
 21
-60.05
 31
0.0
  0
LINE
  8
0
 62
0
 10
153.4
 20
-60.85
 30
0.0
 11
153.9
 21
-60.85
 31
0.0
  0
LINE
  8
0
 62
0
 10
153.4
 20
-60.35
 30
0.0
 11
153.9
 21
-60.35
 31
0.0
  0
LINE
  8
0
 62
0
 10
152.35
 20
-56.6
 30
0.0
 11
152.35
 21
-56.1
 31
0.0
  0
LINE
  8
0
 62
0
 10
146.45
 20
-56.6
 30
0.0
 11
146.45
 21
-56.1
 31
0.0
  0
LINE
  8
0
 62
0
 10
152.35
 20
-56.8
 30
0.0
 11
152.05
 21
-56.8
 31
0.0
  0
LINE
  8
0
 62
0
 10
152.05
 20
-56.6
 30
0.0
 11
152.05
 21
-56.1
 31
0.0
  0
LINE
  8
0
 62
0
 10
146.75
 20
-56.6
 30
0.0
 11
146.75
 21
-56.1
 31
0.0
  0
LINE
  8
0
 62
0
 10
146.75
 20
-56.8
 30
0.0
 11
146.45
 21
-56.8
 31
0.0
  0
LINE
  8
0
 62
0
 10
151.55
 20
-56.6
 30
0.0
 11
151.55
 21
-56.1
 31
0.0
  0
LINE
  8
0
 62
0
 10
147.25
 20
-56.6
 30
0.0
 11
147.25
 21
-56.1
 31
0.0
  0
LINE
  8
0
 62
0
 10
151.55
 20
-56.8
 30
0.0
 11
151.25
 21
-56.8
 31
0.0
  0
LINE
  8
0
 62
0
 10
151.25
 20
-56.6
 30
0.0
 11
151.25
 21
-56.1
 31
0.0
  0
LINE
  8
0
 62
0
 10
147.55
 20
-56.6
 30
0.0
 11
147.55
 21
-56.1
 31
0.0
  0
LINE
  8
0
 62
0
 10
147.55
 20
-56.8
 30
0.0
 11
147.25
 21
-56.8
 31
0.0
  0
LINE
  8
0
 62
0
 10
150.75
 20
-56.6
 30
0.0
 11
150.75
 21
-56.1
 31
0.0
  0
LINE
  8
0
 62
0
 10
148.05
 20
-56.6
 30
0.0
 11
148.05
 21
-56.1
 31
0.0
  0
LINE
  8
0
 62
0
 10
150.75
 20
-56.8
 30
0.0
 11
150.45
 21
-56.8
 31
0.0
  0
LINE
  8
0
 62
0
 10
150.45
 20
-56.6
 30
0.0
 11
150.45
 21
-56.1
 31
0.0
  0
LINE
  8
0
 62
0
 10
148.35
 20
-56.6
 30
0.0
 11
148.35
 21
-56.1
 31
0.0
  0
LINE
  8
0
 62
0
 10
148.35
 20
-56.8
 30
0.0
 11
148.05
 21
-56.8
 31
0.0
  0
LINE
  8
0
 62
0
 10
149.95
 20
-56.6
 30
0.0
 11
149.95
 21
-56.1
 31
0.0
  0
LINE
  8
0
 62
0
 10
148.85
 20
-56.6
 30
0.0
 11
148.85
 21
-56.1
 31
0.0
  0
LINE
  8
0
 62
0
 10
149.95
 20
-56.8
 30
0.0
 11
149.65
 21
-56.8
 31
0.0
  0
LINE
  8
0
 62
0
 10
149.65
 20
-56.6
 30
0.0
 11
149.65
 21
-56.1
 31
0.0
  0
LINE
  8
0
 62
0
 10
149.15
 20
-56.6
 30
0.0
 11
149.15
 21
-56.1
 31
0.0
  0
LINE
  8
0
 62
0
 10
149.15
 20
-56.8
 30
0.0
 11
148.85
 21
-56.8
 31
0.0
  0
LINE
  8
0
 62
0
 10
146.45
 20
-65.1
 30
0.0
 11
146.75
 21
-65.1
 31
0.0
  0
LINE
  8
0
 62
0
 10
146.45
 20
-64.4
 30
0.0
 11
146.75
 21
-64.4
 31
0.0
  0
LINE
  8
0
 62
0
 10
152.05
 20
-65.1
 30
0.0
 11
152.35
 21
-65.1
 31
0.0
  0
LINE
  8
0
 62
0
 10
152.05
 20
-64.4
 30
0.0
 11
152.35
 21
-64.4
 31
0.0
  0
LINE
  8
0
 62
0
 10
147.25
 20
-65.1
 30
0.0
 11
147.55
 21
-65.1
 31
0.0
  0
LINE
  8
0
 62
0
 10
147.25
 20
-64.4
 30
0.0
 11
147.55
 21
-64.4
 31
0.0
  0
LINE
  8
0
 62
0
 10
151.25
 20
-65.1
 30
0.0
 11
151.55
 21
-65.1
 31
0.0
  0
LINE
  8
0
 62
0
 10
151.25
 20
-64.4
 30
0.0
 11
151.55
 21
-64.4
 31
0.0
  0
LINE
  8
0
 62
0
 10
148.05
 20
-65.1
 30
0.0
 11
148.35
 21
-65.1
 31
0.0
  0
LINE
  8
0
 62
0
 10
148.05
 20
-64.4
 30
0.0
 11
148.35
 21
-64.4
 31
0.0
  0
LINE
  8
0
 62
0
 10
150.45
 20
-65.1
 30
0.0
 11
150.75
 21
-65.1
 31
0.0
  0
LINE
  8
0
 62
0
 10
150.45
 20
-64.4
 30
0.0
 11
150.75
 21
-64.4
 31
0.0
  0
LINE
  8
0
 62
0
 10
148.85
 20
-65.1
 30
0.0
 11
149.15
 21
-65.1
 31
0.0
  0
LINE
  8
0
 62
0
 10
148.85
 20
-64.4
 30
0.0
 11
149.15
 21
-64.4
 31
0.0
  0
LINE
  8
0
 62
0
 10
149.65
 20
-65.1
 30
0.0
 11
149.95
 21
-65.1
 31
0.0
  0
LINE
  8
0
 62
0
 10
149.65
 20
-64.4
 30
0.0
 11
149.95
 21
-64.4
 31
0.0
  0
LINE
  8
0
 62
0
 10
153.9
 20
-63.55
 30
0.0
 11
153.9
 21
-63.25
 31
0.0
  0
LINE
  8
0
 62
0
 10
153.2
 20
-63.55
 30
0.0
 11
153.2
 21
-63.25
 31
0.0
  0
LINE
  8
0
 62
0
 10
153.9
 20
-57.95
 30
0.0
 11
153.9
 21
-57.65
 31
0.0
  0
LINE
  8
0
 62
0
 10
153.2
 20
-57.95
 30
0.0
 11
153.2
 21
-57.65
 31
0.0
  0
LINE
  8
0
 62
0
 10
153.9
 20
-62.75
 30
0.0
 11
153.9
 21
-62.45
 31
0.0
  0
LINE
  8
0
 62
0
 10
153.2
 20
-62.75
 30
0.0
 11
153.2
 21
-62.45
 31
0.0
  0
LINE
  8
0
 62
0
 10
153.9
 20
-58.75
 30
0.0
 11
153.9
 21
-58.45
 31
0.0
  0
LINE
  8
0
 62
0
 10
153.2
 20
-58.75
 30
0.0
 11
153.2
 21
-58.45
 31
0.0
  0
LINE
  8
0
 62
0
 10
153.9
 20
-61.95
 30
0.0
 11
153.9
 21
-61.65
 31
0.0
  0
LINE
  8
0
 62
0
 10
153.2
 20
-61.95
 30
0.0
 11
153.2
 21
-61.65
 31
0.0
  0
LINE
  8
0
 62
0
 10
153.9
 20
-59.55
 30
0.0
 11
153.9
 21
-59.25
 31
0.0
  0
LINE
  8
0
 62
0
 10
153.2
 20
-59.55
 30
0.0
 11
153.2
 21
-59.25
 31
0.0
  0
LINE
  8
0
 62
0
 10
153.9
 20
-61.15
 30
0.0
 11
153.9
 21
-60.85
 31
0.0
  0
LINE
  8
0
 62
0
 10
153.2
 20
-61.15
 30
0.0
 11
153.2
 21
-60.85
 31
0.0
  0
LINE
  8
0
 62
0
 10
153.9
 20
-60.35
 30
0.0
 11
153.9
 21
-60.05
 31
0.0
  0
LINE
  8
0
 62
0
 10
153.2
 20
-60.35
 30
0.0
 11
153.2
 21
-60.05
 31
0.0
  0
LINE
  8
0
 62
0
 10
152.35
 20
-56.1
 30
0.0
 11
152.05
 21
-56.1
 31
0.0
  0
LINE
  8
0
 62
0
 10
152.35
 20
-56.8
 30
0.0
 11
152.05
 21
-56.8
 31
0.0
  0
LINE
  8
0
 62
0
 10
146.75
 20
-56.1
 30
0.0
 11
146.45
 21
-56.1
 31
0.0
  0
LINE
  8
0
 62
0
 10
146.75
 20
-56.8
 30
0.0
 11
146.45
 21
-56.8
 31
0.0
  0
LINE
  8
0
 62
0
 10
151.55
 20
-56.1
 30
0.0
 11
151.25
 21
-56.1
 31
0.0
  0
LINE
  8
0
 62
0
 10
151.55
 20
-56.8
 30
0.0
 11
151.25
 21
-56.8
 31
0.0
  0
LINE
  8
0
 62
0
 10
147.55
 20
-56.1
 30
0.0
 11
147.25
 21
-56.1
 31
0.0
  0
LINE
  8
0
 62
0
 10
147.55
 20
-56.8
 30
0.0
 11
147.25
 21
-56.8
 31
0.0
  0
LINE
  8
0
 62
0
 10
150.75
 20
-56.1
 30
0.0
 11
150.45
 21
-56.1
 31
0.0
  0
LINE
  8
0
 62
0
 10
150.75
 20
-56.8
 30
0.0
 11
150.45
 21
-56.8
 31
0.0
  0
LINE
  8
0
 62
0
 10
148.35
 20
-56.1
 30
0.0
 11
148.05
 21
-56.1
 31
0.0
  0
LINE
  8
0
 62
0
 10
148.35
 20
-56.8
 30
0.0
 11
148.05
 21
-56.8
 31
0.0
  0
LINE
  8
0
 62
0
 10
149.95
 20
-56.1
 30
0.0
 11
149.65
 21
-56.1
 31
0.0
  0
LINE
  8
0
 62
0
 10
149.95
 20
-56.8
 30
0.0
 11
149.65
 21
-56.8
 31
0.0
  0
LINE
  8
0
 62
0
 10
149.15
 20
-56.1
 30
0.0
 11
148.85
 21
-56.1
 31
0.0
  0
LINE
  8
0
 62
0
 10
149.15
 20
-56.8
 30
0.0
 11
148.85
 21
-56.8
 31
0.0
  0
LINE
  8
0
 62
0
 10
145.7
 20
-60.85
 30
0.0
 11
145.7
 21
-61.15
 31
0.0
  0
LINE
  8
0
 62
0
 10
145.4
 20
-60.85
 30
0.0
 11
145.4
 21
-61.15
 31
0.0
  0
LINE
  8
0
 62
0
 10
145.7
 20
-57.65
 30
0.0
 11
145.7
 21
-57.95
 31
0.0
  0
LINE
  8
0
 62
0
 10
145.7
 20
-63.25
 30
0.0
 11
145.7
 21
-63.55
 31
0.0
  0
LINE
  8
0
 62
0
 10
145.7
 20
-58.45
 30
0.0
 11
145.7
 21
-58.75
 31
0.0
  0
LINE
  8
0
 62
0
 10
145.7
 20
-62.45
 30
0.0
 11
145.7
 21
-62.75
 31
0.0
  0
LINE
  8
0
 62
0
 10
145.7
 20
-59.25
 30
0.0
 11
145.7
 21
-59.55
 31
0.0
  0
LINE
  8
0
 62
0
 10
145.7
 20
-61.65
 30
0.0
 11
145.7
 21
-61.95
 31
0.0
  0
LINE
  8
0
 62
0
 10
145.7
 20
-60.05
 30
0.0
 11
145.7
 21
-60.35
 31
0.0
  0
LINE
  8
0
 62
0
 10
145.4
 20
-60.05
 30
0.0
 11
145.4
 21
-60.35
 31
0.0
  0
LINE
  8
0
 62
0
 10
145.4
 20
-61.65
 30
0.0
 11
145.4
 21
-61.95
 31
0.0
  0
LINE
  8
0
 62
0
 10
146.45
 20
-64.3
 30
0.0
 11
146.75
 21
-64.3
 31
0.0
  0
LINE
  8
0
 62
0
 10
152.05
 20
-64.3
 30
0.0
 11
152.35
 21
-64.3
 31
0.0
  0
LINE
  8
0
 62
0
 10
147.25
 20
-64.3
 30
0.0
 11
147.55
 21
-64.3
 31
0.0
  0
LINE
  8
0
 62
0
 10
151.25
 20
-64.3
 30
0.0
 11
151.55
 21
-64.3
 31
0.0
  0
LINE
  8
0
 62
0
 10
148.05
 20
-64.3
 30
0.0
 11
148.35
 21
-64.3
 31
0.0
  0
LINE
  8
0
 62
0
 10
150.45
 20
-64.3
 30
0.0
 11
150.75
 21
-64.3
 31
0.0
  0
LINE
  8
0
 62
0
 10
148.85
 20
-64.3
 30
0.0
 11
149.15
 21
-64.3
 31
0.0
  0
LINE
  8
0
 62
0
 10
149.65
 20
-64.3
 30
0.0
 11
149.95
 21
-64.3
 31
0.0
  0
LINE
  8
0
 62
0
 10
153.1
 20
-63.55
 30
0.0
 11
153.1
 21
-63.25
 31
0.0
  0
LINE
  8
0
 62
0
 10
153.1
 20
-57.95
 30
0.0
 11
153.1
 21
-57.65
 31
0.0
  0
LINE
  8
0
 62
0
 10
153.1
 20
-62.75
 30
0.0
 11
153.1
 21
-62.45
 31
0.0
  0
LINE
  8
0
 62
0
 10
153.1
 20
-58.75
 30
0.0
 11
153.1
 21
-58.45
 31
0.0
  0
LINE
  8
0
 62
0
 10
153.1
 20
-61.95
 30
0.0
 11
153.1
 21
-61.65
 31
0.0
  0
LINE
  8
0
 62
0
 10
153.1
 20
-59.55
 30
0.0
 11
153.1
 21
-59.25
 31
0.0
  0
LINE
  8
0
 62
0
 10
153.1
 20
-61.15
 30
0.0
 11
153.1
 21
-60.85
 31
0.0
  0
LINE
  8
0
 62
0
 10
153.1
 20
-60.35
 30
0.0
 11
153.1
 21
-60.05
 31
0.0
  0
LINE
  8
0
 62
0
 10
152.35
 20
-56.9
 30
0.0
 11
152.05
 21
-56.9
 31
0.0
  0
LINE
  8
0
 62
0
 10
146.75
 20
-56.9
 30
0.0
 11
146.45
 21
-56.9
 31
0.0
  0
LINE
  8
0
 62
0
 10
151.55
 20
-56.9
 30
0.0
 11
151.25
 21
-56.9
 31
0.0
  0
LINE
  8
0
 62
0
 10
147.55
 20
-56.9
 30
0.0
 11
147.25
 21
-56.9
 31
0.0
  0
LINE
  8
0
 62
0
 10
150.75
 20
-56.9
 30
0.0
 11
150.45
 21
-56.9
 31
0.0
  0
LINE
  8
0
 62
0
 10
148.35
 20
-56.9
 30
0.0
 11
148.05
 21
-56.9
 31
0.0
  0
LINE
  8
0
 62
0
 10
149.95
 20
-56.9
 30
0.0
 11
149.65
 21
-56.9
 31
0.0
  0
LINE
  8
0
 62
0
 10
149.15
 20
-56.9
 30
0.0
 11
148.85
 21
-56.9
 31
0.0
  0
LINE
  8
0
 62
0
 10
145.4
 20
-57.65
 30
0.0
 11
145.4
 21
-57.95
 31
0.0
  0
LINE
  8
0
 62
0
 10
145.4
 20
-63.25
 30
0.0
 11
145.4
 21
-63.55
 31
0.0
  0
LINE
  8
0
 62
0
 10
145.4
 20
-58.45
 30
0.0
 11
145.4
 21
-58.75
 31
0.0
  0
LINE
  8
0
 62
0
 10
145.4
 20
-62.45
 30
0.0
 11
145.4
 21
-62.75
 31
0.0
  0
LINE
  8
0
 62
0
 10
145.4
 20
-59.25
 30
0.0
 11
145.4
 21
-59.55
 31
0.0
  0
LINE
  8
0
 62
0
 10
146.45
 20
-64.6
 30
0.0
 11
146.75
 21
-64.6
 31
0.0
  0
LINE
  8
0
 62
0
 10
152.05
 20
-64.6
 30
0.0
 11
152.35
 21
-64.6
 31
0.0
  0
LINE
  8
0
 62
0
 10
147.25
 20
-64.6
 30
0.0
 11
147.55
 21
-64.6
 31
0.0
  0
LINE
  8
0
 62
0
 10
151.25
 20
-64.6
 30
0.0
 11
151.55
 21
-64.6
 31
0.0
  0
LINE
  8
0
 62
0
 10
148.05
 20
-64.6
 30
0.0
 11
148.35
 21
-64.6
 31
0.0
  0
LINE
  8
0
 62
0
 10
150.45
 20
-64.6
 30
0.0
 11
150.75
 21
-64.6
 31
0.0
  0
LINE
  8
0
 62
0
 10
148.85
 20
-64.6
 30
0.0
 11
149.15
 21
-64.6
 31
0.0
  0
LINE
  8
0
 62
0
 10
149.65
 20
-64.6
 30
0.0
 11
149.95
 21
-64.6
 31
0.0
  0
LINE
  8
0
 62
0
 10
153.4
 20
-63.55
 30
0.0
 11
153.4
 21
-63.25
 31
0.0
  0
LINE
  8
0
 62
0
 10
153.4
 20
-57.95
 30
0.0
 11
153.4
 21
-57.65
 31
0.0
  0
LINE
  8
0
 62
0
 10
153.4
 20
-62.75
 30
0.0
 11
153.4
 21
-62.45
 31
0.0
  0
LINE
  8
0
 62
0
 10
153.4
 20
-58.75
 30
0.0
 11
153.4
 21
-58.45
 31
0.0
  0
LINE
  8
0
 62
0
 10
153.4
 20
-61.95
 30
0.0
 11
153.4
 21
-61.65
 31
0.0
  0
LINE
  8
0
 62
0
 10
153.4
 20
-59.55
 30
0.0
 11
153.4
 21
-59.25
 31
0.0
  0
LINE
  8
0
 62
0
 10
153.4
 20
-61.15
 30
0.0
 11
153.4
 21
-60.85
 31
0.0
  0
LINE
  8
0
 62
0
 10
153.4
 20
-60.35
 30
0.0
 11
153.4
 21
-60.05
 31
0.0
  0
LINE
  8
0
 62
0
 10
152.35
 20
-56.6
 30
0.0
 11
152.05
 21
-56.6
 31
0.0
  0
LINE
  8
0
 62
0
 10
146.75
 20
-56.6
 30
0.0
 11
146.45
 21
-56.6
 31
0.0
  0
LINE
  8
0
 62
0
 10
151.55
 20
-56.6
 30
0.0
 11
151.25
 21
-56.6
 31
0.0
  0
LINE
  8
0
 62
0
 10
147.55
 20
-56.6
 30
0.0
 11
147.25
 21
-56.6
 31
0.0
  0
LINE
  8
0
 62
0
 10
150.75
 20
-56.6
 30
0.0
 11
150.45
 21
-56.6
 31
0.0
  0
LINE
  8
0
 62
0
 10
148.35
 20
-56.6
 30
0.0
 11
148.05
 21
-56.6
 31
0.0
  0
LINE
  8
0
 62
0
 10
149.95
 20
-56.6
 30
0.0
 11
149.65
 21
-56.6
 31
0.0
  0
LINE
  8
0
 62
0
 10
149.15
 20
-56.6
 30
0.0
 11
148.85
 21
-56.6
 31
0.0
  0
ENDBLK
  0
BLOCK
  8
0
  2
PART__FEATURE005
 70
0
 10
0.0
 20
0.0
 30
0.0
  3
PART__FEATURE005
  0
POLYLINE
  8
0
 62
0
 70
0
 66
1
 10
0.0
 20
0.0
 30
0.0
  0
VERTEX
  8
0
 10
156.835
 20
-55.725
 30
0.0
  0
VERTEX
  8
0
 10
156.835
 20
-55.75
 30
0.0
  0
SEQEND
  8
0
  0
POLYLINE
  8
0
 62
0
 70
0
 66
1
 10
0.0
 20
0.0
 30
0.0
  0
VERTEX
  8
0
 10
156.835
 20
-56.275
 30
0.0
  0
VERTEX
  8
0
 10
156.835
 20
-56.25
 30
0.0
  0
SEQEND
  8
0
  0
POLYLINE
  8
0
 62
0
 70
0
 66
1
 10
0.0
 20
0.0
 30
0.0
  0
VERTEX
  8
0
 10
156.585
 20
-55.725
 30
0.0
  0
VERTEX
  8
0
 10
156.585
 20
-55.75
 30
0.0
  0
SEQEND
  8
0
  0
POLYLINE
  8
0
 62
0
 70
0
 66
1
 10
0.0
 20
0.0
 30
0.0
  0
VERTEX
  8
0
 10
156.585
 20
-56.275
 30
0.0
  0
VERTEX
  8
0
 10
156.585
 20
-56.25
 30
0.0
  0
SEQEND
  8
0
  0
POLYLINE
  8
0
 62
0
 70
0
 66
1
 10
0.0
 20
0.0
 30
0.0
  0
VERTEX
  8
0
 10
156.015
 20
-55.725
 30
0.0
  0
VERTEX
  8
0
 10
156.015
 20
-55.75
 30
0.0
  0
SEQEND
  8
0
  0
POLYLINE
  8
0
 62
0
 70
0
 66
1
 10
0.0
 20
0.0
 30
0.0
  0
VERTEX
  8
0
 10
156.015
 20
-56.275
 30
0.0
  0
VERTEX
  8
0
 10
156.015
 20
-56.25
 30
0.0
  0
SEQEND
  8
0
  0
POLYLINE
  8
0
 62
0
 70
0
 66
1
 10
0.0
 20
0.0
 30
0.0
  0
VERTEX
  8
0
 10
155.765
 20
-55.725
 30
0.0
  0
VERTEX
  8
0
 10
155.765
 20
-55.75
 30
0.0
  0
SEQEND
  8
0
  0
POLYLINE
  8
0
 62
0
 70
0
 66
1
 10
0.0
 20
0.0
 30
0.0
  0
VERTEX
  8
0
 10
155.765
 20
-56.275
 30
0.0
  0
VERTEX
  8
0
 10
155.765
 20
-56.25
 30
0.0
  0
SEQEND
  8
0
  0
LINE
  8
0
 62
0
 10
156.585
 20
-55.725
 30
0.0
 11
156.835
 21
-55.725
 31
0.0
  0
LINE
  8
0
 62
0
 10
156.835
 20
-55.75
 30
0.0
 11
156.835
 21
-56.25
 31
0.0
  0
LINE
  8
0
 62
0
 10
156.585
 20
-55.75
 30
0.0
 11
156.585
 21
-56.25
 31
0.0
  0
LINE
  8
0
 62
0
 10
156.585
 20
-56.275
 30
0.0
 11
156.835
 21
-56.275
 31
0.0
  0
LINE
  8
0
 62
0
 10
156.015
 20
-55.745
 30
0.0
 11
156.585
 21
-55.745
 31
0.0
  0
LINE
  8
0
 62
0
 10
156.015
 20
-56.255
 30
0.0
 11
156.585
 21
-56.255
 31
0.0
  0
LINE
  8
0
 62
0
 10
156.015
 20
-55.75
 30
0.0
 11
156.015
 21
-56.25
 31
0.0
  0
LINE
  8
0
 62
0
 10
155.765
 20
-55.725
 30
0.0
 11
156.015
 21
-55.725
 31
0.0
  0
LINE
  8
0
 62
0
 10
155.765
 20
-55.75
 30
0.0
 11
155.765
 21
-56.25
 31
0.0
  0
LINE
  8
0
 62
0
 10
155.765
 20
-56.275
 30
0.0
 11
156.015
 21
-56.275
 31
0.0
  0
LINE
  8
0
 62
0
 10
156.585
 20
-55.75
 30
0.0
 11
156.835
 21
-55.75
 31
0.0
  0
LINE
  8
0
 62
0
 10
156.585
 20
-56.25
 30
0.0
 11
156.835
 21
-56.25
 31
0.0
  0
LINE
  8
0
 62
0
 10
156.015
 20
-55.77
 30
0.0
 11
156.585
 21
-55.77
 31
0.0
  0
LINE
  8
0
 62
0
 10
156.015
 20
-56.23
 30
0.0
 11
156.585
 21
-56.23
 31
0.0
  0
LINE
  8
0
 62
0
 10
155.765
 20
-55.75
 30
0.0
 11
156.015
 21
-55.75
 31
0.0
  0
LINE
  8
0
 62
0
 10
155.765
 20
-56.25
 30
0.0
 11
156.015
 21
-56.25
 31
0.0
  0
ENDBLK
  0
BLOCK
  8
0
  2
PART__FEATURE002
 70
0
 10
0.0
 20
0.0
 30
0.0
  3
PART__FEATURE002
  0
POLYLINE
  8
0
 62
0
 70
0
 66
1
 10
0.0
 20
0.0
 30
0.0
  0
VERTEX
  8
0
 10
147.165
 20
-54.975
 30
0.0
  0
VERTEX
  8
0
 10
147.165
 20
-54.95
 30
0.0
  0
SEQEND
  8
0
  0
POLYLINE
  8
0
 62
0
 70
0
 66
1
 10
0.0
 20
0.0
 30
0.0
  0
VERTEX
  8
0
 10
147.165
 20
-54.425
 30
0.0
  0
VERTEX
  8
0
 10
147.165
 20
-54.45
 30
0.0
  0
SEQEND
  8
0
  0
POLYLINE
  8
0
 62
0
 70
0
 66
1
 10
0.0
 20
0.0
 30
0.0
  0
VERTEX
  8
0
 10
147.415
 20
-54.975
 30
0.0
  0
VERTEX
  8
0
 10
147.415
 20
-54.95
 30
0.0
  0
SEQEND
  8
0
  0
POLYLINE
  8
0
 62
0
 70
0
 66
1
 10
0.0
 20
0.0
 30
0.0
  0
VERTEX
  8
0
 10
147.415
 20
-54.425
 30
0.0
  0
VERTEX
  8
0
 10
147.415
 20
-54.45
 30
0.0
  0
SEQEND
  8
0
  0
POLYLINE
  8
0
 62
0
 70
0
 66
1
 10
0.0
 20
0.0
 30
0.0
  0
VERTEX
  8
0
 10
147.985
 20
-54.975
 30
0.0
  0
VERTEX
  8
0
 10
147.985
 20
-54.95
 30
0.0
  0
SEQEND
  8
0
  0
POLYLINE
  8
0
 62
0
 70
0
 66
1
 10
0.0
 20
0.0
 30
0.0
  0
VERTEX
  8
0
 10
147.985
 20
-54.425
 30
0.0
  0
VERTEX
  8
0
 10
147.985
 20
-54.45
 30
0.0
  0
SEQEND
  8
0
  0
POLYLINE
  8
0
 62
0
 70
0
 66
1
 10
0.0
 20
0.0
 30
0.0
  0
VERTEX
  8
0
 10
148.235
 20
-54.975
 30
0.0
  0
VERTEX
  8
0
 10
148.235
 20
-54.95
 30
0.0
  0
SEQEND
  8
0
  0
POLYLINE
  8
0
 62
0
 70
0
 66
1
 10
0.0
 20
0.0
 30
0.0
  0
VERTEX
  8
0
 10
148.235
 20
-54.425
 30
0.0
  0
VERTEX
  8
0
 10
148.235
 20
-54.45
 30
0.0
  0
SEQEND
  8
0
  0
LINE
  8
0
 62
0
 10
147.415
 20
-54.975
 30
0.0
 11
147.165
 21
-54.975
 31
0.0
  0
LINE
  8
0
 62
0
 10
147.165
 20
-54.95
 30
0.0
 11
147.165
 21
-54.45
 31
0.0
  0
LINE
  8
0
 62
0
 10
147.415
 20
-54.95
 30
0.0
 11
147.415
 21
-54.45
 31
0.0
  0
LINE
  8
0
 62
0
 10
147.415
 20
-54.425
 30
0.0
 11
147.165
 21
-54.425
 31
0.0
  0
LINE
  8
0
 62
0
 10
147.985
 20
-54.955
 30
0.0
 11
147.415
 21
-54.955
 31
0.0
  0
LINE
  8
0
 62
0
 10
147.985
 20
-54.445
 30
0.0
 11
147.415
 21
-54.445
 31
0.0
  0
LINE
  8
0
 62
0
 10
147.985
 20
-54.95
 30
0.0
 11
147.985
 21
-54.45
 31
0.0
  0
LINE
  8
0
 62
0
 10
148.235
 20
-54.975
 30
0.0
 11
147.985
 21
-54.975
 31
0.0
  0
LINE
  8
0
 62
0
 10
148.235
 20
-54.95
 30
0.0
 11
148.235
 21
-54.45
 31
0.0
  0
LINE
  8
0
 62
0
 10
148.235
 20
-54.425
 30
0.0
 11
147.985
 21
-54.425
 31
0.0
  0
LINE
  8
0
 62
0
 10
147.415
 20
-54.95
 30
0.0
 11
147.165
 21
-54.95
 31
0.0
  0
LINE
  8
0
 62
0
 10
147.415
 20
-54.45
 30
0.0
 11
147.165
 21
-54.45
 31
0.0
  0
LINE
  8
0
 62
0
 10
147.985
 20
-54.93
 30
0.0
 11
147.415
 21
-54.93
 31
0.0
  0
LINE
  8
0
 62
0
 10
147.985
 20
-54.47
 30
0.0
 11
147.415
 21
-54.47
 31
0.0
  0
LINE
  8
0
 62
0
 10
148.235
 20
-54.95
 30
0.0
 11
147.985
 21
-54.95
 31
0.0
  0
LINE
  8
0
 62
0
 10
148.235
 20
-54.45
 30
0.0
 11
147.985
 21
-54.45
 31
0.0
  0
ENDBLK
  0
ENDSEC
  0
SECTION
  2
ENTITIES
  0
INSERT
  2
PART__FEATURE
  8
0
 62
0
 10
0.0
 20
0.0
 30
0.0
  0
INSERT
  2
PART__FEATURE008
  8
0
 62
0
 10
0.0
 20
0.0
 30
0.0
  0
INSERT
  2
PART__FEATURE011
  8
0
 62
0
 10
0.0
 20
0.0
 30
0.0
  0
INSERT
  2
PART__FEATURE004
  8
0
 62
0
 10
0.0
 20
0.0
 30
0.0
  0
INSERT
  2
PART__FEATURE001
  8
0
 62
0
 10
0.0
 20
0.0
 30
0.0
  0
INSERT
  2
PART__FEATURE007
  8
0
 62
0
 10
0.0
 20
0.0
 30
0.0
  0
INSERT
  2
PART__FEATURE006
  8
0
 62
0
 10
0.0
 20
0.0
 30
0.0
  0
INSERT
  2
PART__FEATURE003
  8
0
 62
0
 10
0.0
 20
0.0
 30
0.0
  0
INSERT
  2
PART__FEATURE015
  8
0
 62
0
 10
0.0
 20
0.0
 30
0.0
  0
INSERT
  2
PART__FEATURE014
  8
0
 62
0
 10
0.0
 20
0.0
 30
0.0
  0
INSERT
  2
PART__FEATURE010
  8
0
 62
0
 10
0.0
 20
0.0
 30
0.0
  0
INSERT
  2
PART__FEATURE016
  8
0
 62
0
 10
0.0
 20
0.0
 30
0.0
  0
INSERT
  2
PART__FEATURE012
  8
0
 62
0
 10
0.0
 20
0.0
 30
0.0
  0
INSERT
  2
PART__FEATURE009
  8
0
 62
0
 10
0.0
 20
0.0
 30
0.0
  0
INSERT
  2
PART__FEATURE013
  8
0
 62
0
 10
0.0
 20
0.0
 30
0.0
  0
INSERT
  2
PART__FEATURE005
  8
0
 62
0
 10
0.0
 20
0.0
 30
0.0
  0
INSERT
  2
PART__FEATURE002
  8
0
 62
0
 10
0.0
 20
0.0
 30
0.0
  0
ENDSEC
  0
EOF
