G04 #@! TF.GenerationSoftware,KiCad,Pcbnew,(2017-11-08 revision cd21218)-HEAD*
G04 #@! TF.CreationDate,2018-02-20T18:36:56+02:00*
G04 #@! TF.ProjectId,ws281x_led_strip_controller,7773323831785F6C65645F7374726970,rev?*
G04 #@! TF.SameCoordinates,Original*
G04 #@! TF.FileFunction,Soldermask,Top*
G04 #@! TF.FilePolarity,Negative*
%FSLAX46Y46*%
G04 Gerber Fmt 4.6, Leading zero omitted, Abs format (unit mm)*
G04 Created by KiCad (PCBNEW (2017-11-08 revision cd21218)-HEAD) date Tue Feb 20 18:36:56 2018*
%MOMM*%
%LPD*%
G01*
G04 APERTURE LIST*
%ADD10O,1.350000X1.350000*%
%ADD11R,1.350000X1.350000*%
%ADD12R,3.200000X2.500000*%
%ADD13R,2.000000X1.500000*%
%ADD14R,2.000000X3.800000*%
%ADD15R,0.750000X1.200000*%
%ADD16R,1.200000X0.750000*%
%ADD17R,1.950000X2.500000*%
%ADD18R,3.197860X1.998980*%
%ADD19R,1.700000X1.700000*%
%ADD20O,1.700000X1.700000*%
%ADD21R,0.800000X0.900000*%
%ADD22R,1.200000X0.900000*%
%ADD23R,0.900000X1.200000*%
%ADD24R,1.600000X2.000000*%
%ADD25O,1.100000X2.400000*%
%ADD26R,1.100000X2.400000*%
%ADD27C,2.400000*%
%ADD28R,2.400000X2.400000*%
G04 APERTURE END LIST*
D10*
X146000000Y-67000000D03*
X146000000Y-69000000D03*
D11*
X146000000Y-71000000D03*
D12*
X134450000Y-90100000D03*
X130150000Y-90100000D03*
X130000000Y-83000000D03*
X134300000Y-83000000D03*
D13*
X138400000Y-84650000D03*
X138400000Y-89250000D03*
X138400000Y-86950000D03*
D14*
X144700000Y-86950000D03*
D15*
X143200000Y-71400000D03*
X143200000Y-69500000D03*
D16*
X137850000Y-74950000D03*
X135950000Y-74950000D03*
D17*
X133525000Y-77600000D03*
X136575000Y-77600000D03*
D18*
X124400000Y-90848520D03*
X124400000Y-84051480D03*
D19*
X137700000Y-58800000D03*
D20*
X137700000Y-61340000D03*
X137700000Y-63880000D03*
X137700000Y-66420000D03*
X137700000Y-68960000D03*
X137700000Y-71500000D03*
D21*
X142900000Y-64700000D03*
X141950000Y-62700000D03*
X143850000Y-62700000D03*
X141950000Y-60100000D03*
X143850000Y-60100000D03*
X142900000Y-58100000D03*
D22*
X123700000Y-76700000D03*
X125900000Y-76700000D03*
D23*
X140800000Y-69350000D03*
X140800000Y-71550000D03*
D24*
X142200000Y-79650000D03*
X142200000Y-74250000D03*
D25*
X119700000Y-57800000D03*
X121700000Y-57800000D03*
X123700000Y-57800000D03*
X125700000Y-57800000D03*
X127700000Y-57800000D03*
X129700000Y-57800000D03*
X131700000Y-57800000D03*
X133700000Y-57800000D03*
X133700000Y-73800000D03*
X131700000Y-73800000D03*
X129700000Y-73800000D03*
X127700000Y-73800000D03*
X125700000Y-73800000D03*
X123700000Y-73800000D03*
X121700000Y-73800000D03*
D26*
X119700000Y-73800000D03*
D27*
X117300000Y-81900000D03*
D28*
X117300000Y-78400000D03*
X117300000Y-86000000D03*
D27*
X117300000Y-89500000D03*
M02*
