M48
;DRILL file {KiCad no-vcs-found-1fe91e6~59~ubuntu16.04.1} date Tue Sep  5 10:50:32 2017
;FORMAT={-:-/ absolute / metric / decimal}
FMAT,2
METRIC,TZ
T1C0.300
T2C0.400
T3C0.800
%
G90
G05
M71
T1
X124.68Y-105.446
X127.22Y-107.986
X122.14Y-80.046
X122.14Y-105.446
X152.62Y-112.816
X124.68Y-107.986
X127.22Y-77.506
X129.77Y-82.072
X142.46Y-77.506
X162.78Y-102.906
X124.68Y-77.506
X127.23Y-82.072
X127.Y-110.75
X157.7Y-110.526
X155.16Y-112.816
X122.14Y-102.906
X162.78Y-105.446
X142.46Y-74.966
X150.08Y-112.816
X142.46Y-72.426
X122.14Y-82.1
X124.69Y-82.072
X139.92Y-72.426
X160.24Y-105.446
X129.Y-112.25
X132.31Y-82.072
X127.22Y-105.446
X160.24Y-107.986
X124.68Y-80.046
T2
X125.194Y-102.173
X128.9Y-102.2
X129.Y-110.5
X131.Y-79.25
X132.984Y-102.271
X133.198Y-104.506
X133.65Y-81.25
X133.862Y-79.
X133.862Y-80.25
X134.Y-99.
X134.Y-103.5
X136.6Y-104.4
X136.75Y-82.25
X137.Y-72.75
X138.244Y-79.256
X138.25Y-75.
X138.5Y-83.
X138.671Y-103.086
X139.45Y-94.299
X139.5Y-91.9
X139.8Y-89.55
X140.5Y-90.5
X140.711Y-98.476
X141.25Y-94.091
X141.75Y-91.5
X142.Y-79.
X142.25Y-93.75
X143.Y-86.25
X143.Y-91.5
X143.522Y-95.009
X143.802Y-90.526
X144.25Y-86.25
X144.621Y-95.174
X144.665Y-93.635
X144.8Y-99.5
X145.093Y-91.657
X145.8Y-111.
X146.36Y-96.536
X146.65Y-112.05
X146.8Y-106.
X148.4Y-98.
X150.Y-108.72
X150.2Y-111.6
X150.892Y-101.652
X151.5Y-104.1
X153.2Y-105.6
X154.Y-100.25
X156.1Y-102.1
X159.592Y-102.115
T3
X131.65Y-107.55
X131.65Y-109.55
X133.65Y-107.55
X133.65Y-109.55
X135.65Y-107.55
X135.65Y-109.55
X137.65Y-107.55
X137.65Y-109.55
X139.65Y-107.55
X139.65Y-109.55
X141.65Y-107.55
X141.65Y-109.55
X143.65Y-107.55
X143.65Y-109.55
T0
M30
