%TF.GenerationSoftware,KiCad,Pcbnew,no-vcs-found-1fe91e6~59~ubuntu16.04.1*%
%TF.CreationDate,2017-09-05T10:50:25+03:00*%
%TF.ProjectId,livolo_2_channels_1way_eu_switch,6C69766F6C6F5F325F6368616E6E656C,rev?*%
%TF.SameCoordinates,Original*%
%TF.FileFunction,Copper,L2,Bot,Signal*%
%TF.FilePolarity,Positive*%
%FSLAX46Y46*%
G04 Gerber Fmt 4.6, Leading zero omitted, Abs format (unit mm)*
G04 Created by KiCad (PCBNEW no-vcs-found-1fe91e6~59~ubuntu16.04.1) date Tue Sep  5 10:50:25 2017*
%MOMM*%
%LPD*%
G01*
G04 APERTURE LIST*
%ADD10O,1.300000X1.600000*%
%ADD11R,2.500000X1.270000*%
%ADD12C,15.500000*%
%ADD13R,0.600000X0.500000*%
%ADD14R,0.600000X0.800000*%
%ADD15C,0.350000*%
%ADD16C,0.800000*%
%ADD17C,0.300000*%
%ADD18C,0.450000*%
%ADD19C,0.500000*%
%ADD20C,0.254000*%
G04 APERTURE END LIST*
D10*
X143650000Y-107550000D03*
X143650000Y-109550000D03*
X141650000Y-107550000D03*
X141650000Y-109550000D03*
X139650000Y-107550000D03*
X139650000Y-109550000D03*
X137650000Y-107550000D03*
X137650000Y-109550000D03*
X135650000Y-107550000D03*
X135650000Y-109550000D03*
X133650000Y-107550000D03*
X133650000Y-109550000D03*
X131650000Y-107550000D03*
X131650000Y-109550000D03*
D11*
X136250000Y-75210000D03*
X136250000Y-77750000D03*
X136250000Y-80290000D03*
X140250000Y-80290000D03*
X140250000Y-77750000D03*
X140250000Y-75250000D03*
D12*
X156250000Y-92150000D03*
X128650000Y-92150000D03*
D13*
X140800000Y-93000000D03*
X139700000Y-93000000D03*
X139550000Y-90750000D03*
X138450000Y-90750000D03*
X145800000Y-90750000D03*
X144700000Y-90750000D03*
D14*
X129650000Y-102150000D03*
X131350000Y-102150000D03*
X126000000Y-102150000D03*
X127700000Y-102150000D03*
X158800000Y-102150000D03*
X157100000Y-102150000D03*
X155450000Y-102150000D03*
X153750000Y-102150000D03*
D15*
X139920000Y-72426052D03*
X142460000Y-72426052D03*
X142460000Y-74966052D03*
X124680000Y-77506052D03*
X127220000Y-77506052D03*
X142460000Y-77506052D03*
X122140000Y-80046052D03*
X124680000Y-80046052D03*
X122140000Y-82100000D03*
X124690000Y-82072104D03*
X127230000Y-82072104D03*
X129770000Y-82072104D03*
X132310000Y-82072104D03*
X122140000Y-102906052D03*
X162780000Y-102906052D03*
X122140000Y-105446052D03*
X124680000Y-105446052D03*
X127220000Y-105446052D03*
X160240000Y-105446052D03*
X162780000Y-105446052D03*
X124680000Y-107986052D03*
X127220000Y-107986052D03*
X160240000Y-107986052D03*
X127000000Y-110750000D03*
X157700000Y-110526052D03*
X129000000Y-112250000D03*
X150080000Y-112816052D03*
X152620000Y-112816052D03*
X155160000Y-112816052D03*
D16*
X148400000Y-98000000D03*
X131000000Y-79249970D03*
X133198282Y-104505729D03*
X137000000Y-72750000D03*
X145092551Y-91657449D03*
X138671485Y-103086161D03*
X144800000Y-99500000D03*
X136600000Y-104400000D03*
X139800000Y-89550002D03*
X145800000Y-111000000D03*
X150000000Y-108719998D03*
X150200000Y-111600000D03*
X132984283Y-102270846D03*
X140710901Y-98476151D03*
X140500000Y-90499996D03*
X144250000Y-86250000D03*
X138250000Y-75000000D03*
X150891952Y-101651983D03*
X143802464Y-90525717D03*
X139500000Y-91900000D03*
X146800000Y-106000000D03*
X153200000Y-105600000D03*
X143000000Y-91500000D03*
X142000000Y-79000000D03*
X143000000Y-86250000D03*
X129000000Y-110500000D03*
X146650010Y-112049990D03*
X154000010Y-100250000D03*
X134000000Y-99000000D03*
X133862012Y-80250000D03*
X138500000Y-83000000D03*
X138243959Y-79256041D03*
X133861798Y-78999991D03*
X128900000Y-102200000D03*
X125194336Y-102172950D03*
X159591524Y-102115136D03*
X156099966Y-102100000D03*
X134000000Y-103500000D03*
X139449990Y-94299484D03*
X144621188Y-95174055D03*
X142250000Y-93750000D03*
X143521921Y-95008575D03*
X141249990Y-94090989D03*
X141750000Y-91499992D03*
X133649846Y-81250000D03*
X146359932Y-96536071D03*
X136750000Y-82250000D03*
X144665450Y-93634550D03*
X151500000Y-104100000D03*
D17*
X127700000Y-102150000D02*
X127700000Y-102850000D01*
X127700000Y-102850000D02*
X129355729Y-104505729D01*
X129355729Y-104505729D02*
X133198282Y-104505729D01*
X145100000Y-98000000D02*
X148400000Y-98000000D01*
X144800000Y-97700000D02*
X145100000Y-98000000D01*
X145949989Y-92514887D02*
X145092551Y-91657449D01*
X144800000Y-97700000D02*
X144800000Y-96912001D01*
X144800000Y-96912001D02*
X145949989Y-95762012D01*
X145949989Y-95762012D02*
X145949989Y-92514887D01*
X136250000Y-75210000D02*
X137000000Y-75210000D01*
X137000000Y-75210000D02*
X137000000Y-72750000D01*
X138450000Y-89500000D02*
X138450000Y-87200000D01*
X138450000Y-87200000D02*
X131065655Y-79815655D01*
X131065655Y-79815655D02*
X131000000Y-79815655D01*
X131000000Y-79815655D02*
X131000000Y-79249970D01*
X138450000Y-90750000D02*
X138450000Y-89500000D01*
X139800000Y-89550002D02*
X138500002Y-89550002D01*
X138500002Y-89550002D02*
X138450000Y-89500000D01*
X145800000Y-90750000D02*
X145800000Y-90950000D01*
X145800000Y-90950000D02*
X145092551Y-91657449D01*
X144800000Y-99500000D02*
X144800000Y-97700000D01*
X137357646Y-104400000D02*
X138671485Y-103086161D01*
X136600000Y-104400000D02*
X137357646Y-104400000D01*
X148300001Y-103000001D02*
X144800000Y-99500000D01*
X157100000Y-102850000D02*
X156949999Y-103000001D01*
X156949999Y-103000001D02*
X148300001Y-103000001D01*
X157100000Y-102150000D02*
X157100000Y-102850000D01*
X145800000Y-111000000D02*
X142950000Y-111000000D01*
X142950000Y-111000000D02*
X141650000Y-109700000D01*
X141650000Y-109700000D02*
X141650000Y-109550000D01*
X150200000Y-111600000D02*
X150200000Y-108919998D01*
X150200000Y-108919998D02*
X150000000Y-108719998D01*
X140800000Y-93000000D02*
X140800000Y-90799996D01*
X140800000Y-90799996D02*
X140500000Y-90499996D01*
X131350000Y-102150000D02*
X132863437Y-102150000D01*
X132863437Y-102150000D02*
X132984283Y-102270846D01*
X141300033Y-97887019D02*
X140710901Y-98476151D01*
X143802464Y-90525717D02*
X143802464Y-93613694D01*
X141300033Y-96116125D02*
X141300033Y-97887019D01*
X143802464Y-93613694D02*
X141300033Y-96116125D01*
X140249996Y-90750000D02*
X140500000Y-90499996D01*
X139550000Y-90750000D02*
X140249996Y-90750000D01*
X143992417Y-86553252D02*
X143992417Y-86507583D01*
X143992417Y-86507583D02*
X144250000Y-86250000D01*
X144700000Y-90750000D02*
X144026747Y-90750000D01*
X144026747Y-90750000D02*
X143802464Y-90525717D01*
X138250000Y-75000000D02*
X140000000Y-75000000D01*
X140000000Y-75000000D02*
X140250000Y-75250000D01*
X151389969Y-102150000D02*
X150891952Y-101651983D01*
X153750000Y-102150000D02*
X151389969Y-102150000D01*
X143802464Y-86743205D02*
X143992417Y-86553252D01*
X143802464Y-90525717D02*
X143802464Y-86743205D01*
X139500000Y-91900000D02*
X139500000Y-92800000D01*
X139500000Y-92800000D02*
X139700000Y-93000000D01*
D18*
X153200000Y-105600000D02*
X147200000Y-105600000D01*
X147200000Y-105600000D02*
X146800000Y-106000000D01*
D17*
X143000000Y-86250000D02*
X143000000Y-91500000D01*
X142000000Y-79155000D02*
X142000000Y-79000000D01*
X140865000Y-80290000D02*
X142000000Y-79155000D01*
X140250000Y-80290000D02*
X140865000Y-80290000D01*
D19*
X129000000Y-110500000D02*
X130549990Y-112049990D01*
X130549990Y-112049990D02*
X146650010Y-112049990D01*
D17*
X154000010Y-94399990D02*
X154000010Y-100250000D01*
X156250000Y-92150000D02*
X154000010Y-94399990D01*
X128650000Y-93650000D02*
X134000000Y-99000000D01*
X128650000Y-92150000D02*
X128650000Y-93650000D01*
X136250000Y-80290000D02*
X133902012Y-80290000D01*
X133902012Y-80290000D02*
X133862012Y-80250000D01*
X138243959Y-82743959D02*
X138500000Y-83000000D01*
X138243959Y-79256041D02*
X138243959Y-82743959D01*
X140250000Y-77750000D02*
X139750000Y-77750000D01*
X139750000Y-77750000D02*
X138243959Y-79256041D01*
X134385009Y-78999991D02*
X133861798Y-78999991D01*
X135635000Y-77750000D02*
X134385009Y-78999991D01*
X136250000Y-77750000D02*
X135635000Y-77750000D01*
X128900000Y-102200000D02*
X129600000Y-102200000D01*
X129600000Y-102200000D02*
X129650000Y-102150000D01*
X125194336Y-102172950D02*
X125977050Y-102172950D01*
X125977050Y-102172950D02*
X126000000Y-102150000D01*
X159591524Y-102115136D02*
X158834864Y-102115136D01*
X158834864Y-102115136D02*
X158800000Y-102150000D01*
X156099966Y-102100034D02*
X156099966Y-102100000D01*
X155450000Y-102150000D02*
X156050000Y-102150000D01*
X156050000Y-102150000D02*
X156099966Y-102100034D01*
X134000000Y-102500000D02*
X134000000Y-103500000D01*
X139449990Y-94299484D02*
X139449990Y-97050010D01*
X139449990Y-97050010D02*
X134000000Y-102500000D01*
X145399978Y-94369078D02*
X144665450Y-93634550D01*
X145399978Y-95455927D02*
X145399978Y-94369078D01*
X143949999Y-99852914D02*
X143949999Y-96905906D01*
X151500000Y-104100000D02*
X148197085Y-104100000D01*
X148197085Y-104100000D02*
X143949999Y-99852914D01*
X143949999Y-96905906D02*
X145399978Y-95455927D01*
X133650000Y-109550000D02*
X133650000Y-109700000D01*
X133650000Y-109700000D02*
X134950000Y-111000000D01*
X134950000Y-111000000D02*
X138000000Y-111000000D01*
X138000000Y-111000000D02*
X138650000Y-110350000D01*
X138650000Y-110350000D02*
X138650000Y-105950000D01*
X138650000Y-105950000D02*
X142500010Y-102099990D01*
X142500010Y-102099990D02*
X142500010Y-97295233D01*
X142500010Y-97295233D02*
X144621188Y-95174055D01*
X142250000Y-94315685D02*
X142250000Y-93750000D01*
X135650000Y-102405664D02*
X140700022Y-97355642D01*
X140700022Y-95865663D02*
X142250000Y-94315685D01*
X140700022Y-97355642D02*
X140700022Y-95865663D01*
X135650000Y-107550000D02*
X135650000Y-102405664D01*
X135650000Y-109550000D02*
X135680000Y-109550000D01*
X135680000Y-109550000D02*
X136650000Y-108580000D01*
X136650000Y-108580000D02*
X136650000Y-106350000D01*
X136650000Y-106350000D02*
X141950000Y-101050000D01*
X141950000Y-101050000D02*
X141950000Y-96580496D01*
X143121922Y-95408574D02*
X143521921Y-95008575D01*
X142000000Y-96530496D02*
X143521921Y-95008575D01*
X135650000Y-109550000D02*
X135700000Y-109550000D01*
X133650000Y-107550000D02*
X133650000Y-107400000D01*
X135049989Y-106000011D02*
X135049989Y-102227843D01*
X140000001Y-95340978D02*
X141249990Y-94090989D01*
X140000001Y-97277832D02*
X140000001Y-95340978D01*
X135049989Y-102227843D02*
X140000001Y-97277832D01*
X133650000Y-107400000D02*
X135049989Y-106000011D01*
X133649846Y-81250000D02*
X141750000Y-89350154D01*
X141750000Y-89350154D02*
X141750000Y-91499992D01*
X136750000Y-82250000D02*
X136750000Y-82815685D01*
X146482484Y-96536071D02*
X146359932Y-96536071D01*
X144750000Y-85250000D02*
X146759931Y-87259931D01*
X136750000Y-82815685D02*
X139184315Y-85250000D01*
X146759931Y-87259931D02*
X146759931Y-96136072D01*
X146500000Y-96553587D02*
X146482484Y-96536071D01*
X146759931Y-96136072D02*
X146359932Y-96536071D01*
X139184315Y-85250000D02*
X144750000Y-85250000D01*
D20*
G36*
X143272999Y-99852914D02*
X143279099Y-99915124D01*
X143284551Y-99977449D01*
X143285545Y-99980869D01*
X143285892Y-99984411D01*
X143303968Y-100044282D01*
X143321414Y-100104330D01*
X143323051Y-100107489D01*
X143324081Y-100110899D01*
X143353450Y-100166133D01*
X143382219Y-100221635D01*
X143384440Y-100224417D01*
X143386111Y-100227560D01*
X143425627Y-100276011D01*
X143464651Y-100324895D01*
X143469538Y-100329851D01*
X143469620Y-100329951D01*
X143469713Y-100330028D01*
X143471288Y-100331625D01*
X147718374Y-104578712D01*
X147766711Y-104618416D01*
X147814602Y-104658602D01*
X147817722Y-104660317D01*
X147820473Y-104662577D01*
X147875594Y-104692133D01*
X147930386Y-104722255D01*
X147933779Y-104723331D01*
X147936917Y-104725014D01*
X147996749Y-104743306D01*
X148056329Y-104762206D01*
X148059865Y-104762603D01*
X148063271Y-104763644D01*
X148125512Y-104769966D01*
X148187633Y-104776934D01*
X148194590Y-104776983D01*
X148194722Y-104776996D01*
X148194845Y-104776984D01*
X148197085Y-104777000D01*
X150865034Y-104777000D01*
X150896286Y-104809362D01*
X150951879Y-104848000D01*
X147200000Y-104848000D01*
X147130833Y-104854782D01*
X147061668Y-104860833D01*
X147057871Y-104861936D01*
X147053936Y-104862322D01*
X146987417Y-104882405D01*
X146920731Y-104901779D01*
X146917223Y-104903597D01*
X146913435Y-104904741D01*
X146852080Y-104937364D01*
X146790431Y-104969320D01*
X146787341Y-104971787D01*
X146783850Y-104973643D01*
X146730032Y-105017536D01*
X146675732Y-105060883D01*
X146670226Y-105066313D01*
X146670115Y-105066403D01*
X146670030Y-105066505D01*
X146668255Y-105068256D01*
X146652042Y-105084469D01*
X146537003Y-105106413D01*
X146368447Y-105174515D01*
X146216328Y-105274058D01*
X146086441Y-105401253D01*
X145983733Y-105551254D01*
X145912117Y-105718347D01*
X145874320Y-105896168D01*
X145871782Y-106077945D01*
X145904599Y-106256752D01*
X145971522Y-106425780D01*
X146070001Y-106578590D01*
X146196286Y-106709362D01*
X146345566Y-106813114D01*
X146512155Y-106885895D01*
X146689708Y-106924932D01*
X146871463Y-106928740D01*
X147050495Y-106897171D01*
X147219986Y-106831430D01*
X147373479Y-106734020D01*
X147505130Y-106608651D01*
X147609921Y-106460099D01*
X147658050Y-106352000D01*
X152657634Y-106352000D01*
X152745566Y-106413114D01*
X152912155Y-106485895D01*
X153089708Y-106524932D01*
X153271463Y-106528740D01*
X153450495Y-106497171D01*
X153619986Y-106431430D01*
X153773479Y-106334020D01*
X153905130Y-106208651D01*
X154009921Y-106060099D01*
X154083864Y-105894022D01*
X154124140Y-105716746D01*
X154127039Y-105509103D01*
X154091729Y-105330771D01*
X154022452Y-105162694D01*
X153921849Y-105011274D01*
X153793751Y-104882278D01*
X153643037Y-104780621D01*
X153475448Y-104710173D01*
X153297367Y-104673618D01*
X153115577Y-104672349D01*
X152937003Y-104706413D01*
X152768447Y-104774515D01*
X152656149Y-104848000D01*
X152051450Y-104848000D01*
X152073479Y-104834020D01*
X152205130Y-104708651D01*
X152309921Y-104560099D01*
X152383864Y-104394022D01*
X152424140Y-104216746D01*
X152427039Y-104009103D01*
X152391729Y-103830771D01*
X152328349Y-103677001D01*
X156949999Y-103677001D01*
X157012209Y-103670901D01*
X157074534Y-103665449D01*
X157077954Y-103664455D01*
X157081496Y-103664108D01*
X157141367Y-103646032D01*
X157201415Y-103628586D01*
X157204574Y-103626949D01*
X157207984Y-103625919D01*
X157263218Y-103596550D01*
X157318720Y-103567781D01*
X157321502Y-103565560D01*
X157324645Y-103563889D01*
X157373096Y-103524373D01*
X157421980Y-103485349D01*
X157426936Y-103480462D01*
X157427036Y-103480380D01*
X157427113Y-103480287D01*
X157428710Y-103478712D01*
X157578711Y-103328712D01*
X157618412Y-103280379D01*
X157658602Y-103232483D01*
X157660317Y-103229363D01*
X157662577Y-103226612D01*
X157692114Y-103171525D01*
X157722255Y-103116699D01*
X157723333Y-103113302D01*
X157725013Y-103110168D01*
X157743283Y-103050410D01*
X157762206Y-102990756D01*
X157762603Y-102987217D01*
X157763643Y-102983815D01*
X157769239Y-102928723D01*
X157774448Y-102924448D01*
X157840304Y-102844202D01*
X157889239Y-102752650D01*
X157919374Y-102653310D01*
X157929549Y-102550000D01*
X157929549Y-101750000D01*
X157919374Y-101646690D01*
X157918927Y-101645218D01*
X157981073Y-101645218D01*
X157980626Y-101646690D01*
X157970451Y-101750000D01*
X157970451Y-102550000D01*
X157980626Y-102653310D01*
X158010761Y-102752650D01*
X158059696Y-102844202D01*
X158125552Y-102924448D01*
X158205798Y-102990304D01*
X158297350Y-103039239D01*
X158396690Y-103069374D01*
X158500000Y-103079549D01*
X159100000Y-103079549D01*
X159203310Y-103069374D01*
X159302650Y-103039239D01*
X159353599Y-103012006D01*
X159481232Y-103040068D01*
X159662987Y-103043876D01*
X159842019Y-103012307D01*
X160011510Y-102946566D01*
X160165003Y-102849156D01*
X160296654Y-102723787D01*
X160401445Y-102575235D01*
X160475388Y-102409158D01*
X160515664Y-102231882D01*
X160517388Y-102108424D01*
X160645072Y-102085910D01*
X160878557Y-101995347D01*
X161090004Y-101861159D01*
X161271360Y-101688456D01*
X161301861Y-101645218D01*
X162300000Y-101645218D01*
X162327878Y-101642120D01*
X162373171Y-101622020D01*
X162407325Y-101586117D01*
X163322360Y-100139771D01*
X163322360Y-105464781D01*
X162435280Y-107248769D01*
X158533070Y-111153879D01*
X155723843Y-113024320D01*
X129075218Y-113024320D01*
X126267283Y-111154740D01*
X123387738Y-108242179D01*
X121476700Y-105423176D01*
X121476700Y-99920327D01*
X122390707Y-101464684D01*
X122410197Y-101489803D01*
X122451399Y-101517333D01*
X122500000Y-101527000D01*
X123384796Y-101527000D01*
X123494381Y-101697044D01*
X123668346Y-101877190D01*
X123873989Y-102020115D01*
X124103476Y-102120376D01*
X124267437Y-102156425D01*
X124266118Y-102250895D01*
X124298935Y-102429702D01*
X124365858Y-102598730D01*
X124464337Y-102751540D01*
X124590622Y-102882312D01*
X124739902Y-102986064D01*
X124906491Y-103058845D01*
X125084044Y-103097882D01*
X125265799Y-103101690D01*
X125444831Y-103070121D01*
X125512557Y-103043852D01*
X125596690Y-103069374D01*
X125700000Y-103079549D01*
X126300000Y-103079549D01*
X126403310Y-103069374D01*
X126502650Y-103039239D01*
X126594202Y-102990304D01*
X126674448Y-102924448D01*
X126740304Y-102844202D01*
X126789239Y-102752650D01*
X126819374Y-102653310D01*
X126829549Y-102550000D01*
X126829549Y-101750000D01*
X126819374Y-101646690D01*
X126789239Y-101547350D01*
X126778362Y-101527000D01*
X126921638Y-101527000D01*
X126910761Y-101547350D01*
X126880626Y-101646690D01*
X126870451Y-101750000D01*
X126870451Y-102550000D01*
X126880626Y-102653310D01*
X126910761Y-102752650D01*
X126959696Y-102844202D01*
X127025552Y-102924448D01*
X127030527Y-102928531D01*
X127034552Y-102974535D01*
X127035546Y-102977955D01*
X127035893Y-102981497D01*
X127053969Y-103041368D01*
X127071415Y-103101416D01*
X127073052Y-103104575D01*
X127074082Y-103107985D01*
X127103451Y-103163219D01*
X127132220Y-103218721D01*
X127134441Y-103221503D01*
X127136112Y-103224646D01*
X127175628Y-103273097D01*
X127214652Y-103321981D01*
X127219539Y-103326937D01*
X127219621Y-103327037D01*
X127219714Y-103327114D01*
X127221289Y-103328711D01*
X128877017Y-104984440D01*
X128925350Y-105024141D01*
X128973246Y-105064331D01*
X128976366Y-105066046D01*
X128979117Y-105068306D01*
X129034238Y-105097862D01*
X129089030Y-105127984D01*
X129092423Y-105129060D01*
X129095561Y-105130743D01*
X129155365Y-105149026D01*
X129214973Y-105167935D01*
X129218512Y-105168332D01*
X129221914Y-105169372D01*
X129284067Y-105175685D01*
X129346277Y-105182663D01*
X129353244Y-105182712D01*
X129353366Y-105182724D01*
X129353479Y-105182713D01*
X129355729Y-105182729D01*
X132563316Y-105182729D01*
X132594568Y-105215091D01*
X132743848Y-105318843D01*
X132910437Y-105391624D01*
X133087990Y-105430661D01*
X133269745Y-105434469D01*
X133448777Y-105402900D01*
X133618268Y-105337159D01*
X133771761Y-105239749D01*
X133903412Y-105114380D01*
X134008203Y-104965828D01*
X134082146Y-104799751D01*
X134122422Y-104622475D01*
X134125259Y-104419254D01*
X134250495Y-104397171D01*
X134372989Y-104349659D01*
X134372989Y-105719588D01*
X133855260Y-106237318D01*
X133658217Y-106216608D01*
X133429452Y-106237427D01*
X133209088Y-106302284D01*
X133005518Y-106408707D01*
X132826496Y-106552645D01*
X132678841Y-106728613D01*
X132650508Y-106780151D01*
X132630348Y-106742237D01*
X132485165Y-106564225D01*
X132308170Y-106417802D01*
X132106106Y-106308546D01*
X131886669Y-106240619D01*
X131658217Y-106216608D01*
X131429452Y-106237427D01*
X131209088Y-106302284D01*
X131005518Y-106408707D01*
X130826496Y-106552645D01*
X130678841Y-106728613D01*
X130568178Y-106929909D01*
X130498720Y-107148867D01*
X130473115Y-107377146D01*
X130473000Y-107393579D01*
X130473000Y-107706421D01*
X130495416Y-107935035D01*
X130561809Y-108154941D01*
X130669652Y-108357763D01*
X130814835Y-108535775D01*
X130830924Y-108549085D01*
X130826496Y-108552645D01*
X130678841Y-108728613D01*
X130568178Y-108929909D01*
X130498720Y-109148867D01*
X130473115Y-109377146D01*
X130473000Y-109393579D01*
X130473000Y-109706421D01*
X130495416Y-109935035D01*
X130561809Y-110154941D01*
X130669652Y-110357763D01*
X130814835Y-110535775D01*
X130991830Y-110682198D01*
X131193894Y-110791454D01*
X131413331Y-110859381D01*
X131641783Y-110883392D01*
X131870548Y-110862573D01*
X132090912Y-110797716D01*
X132294482Y-110691293D01*
X132473504Y-110547355D01*
X132621159Y-110371387D01*
X132649492Y-110319849D01*
X132669652Y-110357763D01*
X132814835Y-110535775D01*
X132991830Y-110682198D01*
X133193894Y-110791454D01*
X133413331Y-110859381D01*
X133641783Y-110883392D01*
X133856435Y-110863857D01*
X134265567Y-111272990D01*
X130871834Y-111272990D01*
X129907064Y-110308220D01*
X129891729Y-110230771D01*
X129822452Y-110062694D01*
X129721849Y-109911274D01*
X129593751Y-109782278D01*
X129443037Y-109680621D01*
X129275448Y-109610173D01*
X129097367Y-109573618D01*
X128915577Y-109572349D01*
X128737003Y-109606413D01*
X128568447Y-109674515D01*
X128416328Y-109774058D01*
X128286441Y-109901253D01*
X128183733Y-110051254D01*
X128112117Y-110218347D01*
X128074320Y-110396168D01*
X128071782Y-110577945D01*
X128104599Y-110756752D01*
X128171522Y-110925780D01*
X128270001Y-111078590D01*
X128396286Y-111209362D01*
X128545566Y-111313114D01*
X128712155Y-111385895D01*
X128808158Y-111407002D01*
X130000568Y-112599412D01*
X130056071Y-112645003D01*
X130111011Y-112691103D01*
X130114589Y-112693070D01*
X130117748Y-112695665D01*
X130181007Y-112729584D01*
X130243897Y-112764158D01*
X130247794Y-112765394D01*
X130251393Y-112767324D01*
X130320019Y-112788305D01*
X130388443Y-112810011D01*
X130392502Y-112810466D01*
X130396410Y-112811661D01*
X130467818Y-112818914D01*
X130539141Y-112826914D01*
X130547130Y-112826970D01*
X130547278Y-112826985D01*
X130547416Y-112826972D01*
X130549990Y-112826990D01*
X146143615Y-112826990D01*
X146195576Y-112863104D01*
X146362165Y-112935885D01*
X146539718Y-112974922D01*
X146721473Y-112978730D01*
X146900505Y-112947161D01*
X147069996Y-112881420D01*
X147223489Y-112784010D01*
X147355140Y-112658641D01*
X147459931Y-112510089D01*
X147533874Y-112344012D01*
X147574150Y-112166736D01*
X147577049Y-111959093D01*
X147541739Y-111780761D01*
X147472462Y-111612684D01*
X147371859Y-111461264D01*
X147243761Y-111332268D01*
X147093047Y-111230611D01*
X146925458Y-111160163D01*
X146747377Y-111123608D01*
X146565587Y-111122339D01*
X146387013Y-111156403D01*
X146218457Y-111224505D01*
X146144363Y-111272990D01*
X138684432Y-111272990D01*
X139128711Y-110828711D01*
X139168391Y-110780404D01*
X139169972Y-110778520D01*
X139193894Y-110791454D01*
X139413331Y-110859381D01*
X139641783Y-110883392D01*
X139870548Y-110862573D01*
X140090912Y-110797716D01*
X140294482Y-110691293D01*
X140473504Y-110547355D01*
X140621159Y-110371387D01*
X140651359Y-110316454D01*
X140711916Y-110414604D01*
X140869353Y-110583884D01*
X141056790Y-110719197D01*
X141267024Y-110815343D01*
X141394130Y-110848851D01*
X141577000Y-110742698D01*
X141577000Y-109623000D01*
X141557000Y-109623000D01*
X141557000Y-109477000D01*
X141577000Y-109477000D01*
X141577000Y-109457000D01*
X141723000Y-109457000D01*
X141723000Y-109477000D01*
X141743000Y-109477000D01*
X141743000Y-109623000D01*
X141723000Y-109623000D01*
X141723000Y-110742698D01*
X141905870Y-110848851D01*
X142032976Y-110815343D01*
X142243210Y-110719197D01*
X142430647Y-110583884D01*
X142588084Y-110414604D01*
X142648129Y-110317284D01*
X142669652Y-110357763D01*
X142814835Y-110535775D01*
X142991830Y-110682198D01*
X143193894Y-110791454D01*
X143413331Y-110859381D01*
X143641783Y-110883392D01*
X143870548Y-110862573D01*
X144090912Y-110797716D01*
X144294482Y-110691293D01*
X144473504Y-110547355D01*
X144621159Y-110371387D01*
X144731822Y-110170091D01*
X144801280Y-109951133D01*
X144826885Y-109722854D01*
X144827000Y-109706421D01*
X144827000Y-109393579D01*
X144804584Y-109164965D01*
X144738191Y-108945059D01*
X144630348Y-108742237D01*
X144485165Y-108564225D01*
X144469076Y-108550915D01*
X144473504Y-108547355D01*
X144621159Y-108371387D01*
X144731822Y-108170091D01*
X144801280Y-107951133D01*
X144826885Y-107722854D01*
X144827000Y-107706421D01*
X144827000Y-107393579D01*
X144804584Y-107164965D01*
X144738191Y-106945059D01*
X144630348Y-106742237D01*
X144485165Y-106564225D01*
X144308170Y-106417802D01*
X144106106Y-106308546D01*
X143886669Y-106240619D01*
X143658217Y-106216608D01*
X143429452Y-106237427D01*
X143209088Y-106302284D01*
X143005518Y-106408707D01*
X142826496Y-106552645D01*
X142678841Y-106728613D01*
X142650508Y-106780151D01*
X142630348Y-106742237D01*
X142485165Y-106564225D01*
X142308170Y-106417802D01*
X142106106Y-106308546D01*
X141886669Y-106240619D01*
X141658217Y-106216608D01*
X141429452Y-106237427D01*
X141209088Y-106302284D01*
X141005518Y-106408707D01*
X140826496Y-106552645D01*
X140678841Y-106728613D01*
X140650508Y-106780151D01*
X140630348Y-106742237D01*
X140485165Y-106564225D01*
X140308170Y-106417802D01*
X140106106Y-106308546D01*
X139886669Y-106240619D01*
X139658217Y-106216608D01*
X139429452Y-106237427D01*
X139327000Y-106267580D01*
X139327000Y-106230422D01*
X142978721Y-102578702D01*
X143018422Y-102530369D01*
X143058612Y-102482473D01*
X143060327Y-102479353D01*
X143062587Y-102476602D01*
X143092143Y-102421481D01*
X143122265Y-102366689D01*
X143123341Y-102363296D01*
X143125024Y-102360158D01*
X143143320Y-102300313D01*
X143162216Y-102240746D01*
X143162612Y-102237212D01*
X143163654Y-102233805D01*
X143169972Y-102171602D01*
X143176944Y-102109442D01*
X143176993Y-102102475D01*
X143177005Y-102102353D01*
X143176994Y-102102240D01*
X143177010Y-102099990D01*
X143177010Y-97575655D01*
X143272999Y-97479666D01*
X143272999Y-99852914D01*
X143272999Y-99852914D01*
G37*
X143272999Y-99852914D02*
X143279099Y-99915124D01*
X143284551Y-99977449D01*
X143285545Y-99980869D01*
X143285892Y-99984411D01*
X143303968Y-100044282D01*
X143321414Y-100104330D01*
X143323051Y-100107489D01*
X143324081Y-100110899D01*
X143353450Y-100166133D01*
X143382219Y-100221635D01*
X143384440Y-100224417D01*
X143386111Y-100227560D01*
X143425627Y-100276011D01*
X143464651Y-100324895D01*
X143469538Y-100329851D01*
X143469620Y-100329951D01*
X143469713Y-100330028D01*
X143471288Y-100331625D01*
X147718374Y-104578712D01*
X147766711Y-104618416D01*
X147814602Y-104658602D01*
X147817722Y-104660317D01*
X147820473Y-104662577D01*
X147875594Y-104692133D01*
X147930386Y-104722255D01*
X147933779Y-104723331D01*
X147936917Y-104725014D01*
X147996749Y-104743306D01*
X148056329Y-104762206D01*
X148059865Y-104762603D01*
X148063271Y-104763644D01*
X148125512Y-104769966D01*
X148187633Y-104776934D01*
X148194590Y-104776983D01*
X148194722Y-104776996D01*
X148194845Y-104776984D01*
X148197085Y-104777000D01*
X150865034Y-104777000D01*
X150896286Y-104809362D01*
X150951879Y-104848000D01*
X147200000Y-104848000D01*
X147130833Y-104854782D01*
X147061668Y-104860833D01*
X147057871Y-104861936D01*
X147053936Y-104862322D01*
X146987417Y-104882405D01*
X146920731Y-104901779D01*
X146917223Y-104903597D01*
X146913435Y-104904741D01*
X146852080Y-104937364D01*
X146790431Y-104969320D01*
X146787341Y-104971787D01*
X146783850Y-104973643D01*
X146730032Y-105017536D01*
X146675732Y-105060883D01*
X146670226Y-105066313D01*
X146670115Y-105066403D01*
X146670030Y-105066505D01*
X146668255Y-105068256D01*
X146652042Y-105084469D01*
X146537003Y-105106413D01*
X146368447Y-105174515D01*
X146216328Y-105274058D01*
X146086441Y-105401253D01*
X145983733Y-105551254D01*
X145912117Y-105718347D01*
X145874320Y-105896168D01*
X145871782Y-106077945D01*
X145904599Y-106256752D01*
X145971522Y-106425780D01*
X146070001Y-106578590D01*
X146196286Y-106709362D01*
X146345566Y-106813114D01*
X146512155Y-106885895D01*
X146689708Y-106924932D01*
X146871463Y-106928740D01*
X147050495Y-106897171D01*
X147219986Y-106831430D01*
X147373479Y-106734020D01*
X147505130Y-106608651D01*
X147609921Y-106460099D01*
X147658050Y-106352000D01*
X152657634Y-106352000D01*
X152745566Y-106413114D01*
X152912155Y-106485895D01*
X153089708Y-106524932D01*
X153271463Y-106528740D01*
X153450495Y-106497171D01*
X153619986Y-106431430D01*
X153773479Y-106334020D01*
X153905130Y-106208651D01*
X154009921Y-106060099D01*
X154083864Y-105894022D01*
X154124140Y-105716746D01*
X154127039Y-105509103D01*
X154091729Y-105330771D01*
X154022452Y-105162694D01*
X153921849Y-105011274D01*
X153793751Y-104882278D01*
X153643037Y-104780621D01*
X153475448Y-104710173D01*
X153297367Y-104673618D01*
X153115577Y-104672349D01*
X152937003Y-104706413D01*
X152768447Y-104774515D01*
X152656149Y-104848000D01*
X152051450Y-104848000D01*
X152073479Y-104834020D01*
X152205130Y-104708651D01*
X152309921Y-104560099D01*
X152383864Y-104394022D01*
X152424140Y-104216746D01*
X152427039Y-104009103D01*
X152391729Y-103830771D01*
X152328349Y-103677001D01*
X156949999Y-103677001D01*
X157012209Y-103670901D01*
X157074534Y-103665449D01*
X157077954Y-103664455D01*
X157081496Y-103664108D01*
X157141367Y-103646032D01*
X157201415Y-103628586D01*
X157204574Y-103626949D01*
X157207984Y-103625919D01*
X157263218Y-103596550D01*
X157318720Y-103567781D01*
X157321502Y-103565560D01*
X157324645Y-103563889D01*
X157373096Y-103524373D01*
X157421980Y-103485349D01*
X157426936Y-103480462D01*
X157427036Y-103480380D01*
X157427113Y-103480287D01*
X157428710Y-103478712D01*
X157578711Y-103328712D01*
X157618412Y-103280379D01*
X157658602Y-103232483D01*
X157660317Y-103229363D01*
X157662577Y-103226612D01*
X157692114Y-103171525D01*
X157722255Y-103116699D01*
X157723333Y-103113302D01*
X157725013Y-103110168D01*
X157743283Y-103050410D01*
X157762206Y-102990756D01*
X157762603Y-102987217D01*
X157763643Y-102983815D01*
X157769239Y-102928723D01*
X157774448Y-102924448D01*
X157840304Y-102844202D01*
X157889239Y-102752650D01*
X157919374Y-102653310D01*
X157929549Y-102550000D01*
X157929549Y-101750000D01*
X157919374Y-101646690D01*
X157918927Y-101645218D01*
X157981073Y-101645218D01*
X157980626Y-101646690D01*
X157970451Y-101750000D01*
X157970451Y-102550000D01*
X157980626Y-102653310D01*
X158010761Y-102752650D01*
X158059696Y-102844202D01*
X158125552Y-102924448D01*
X158205798Y-102990304D01*
X158297350Y-103039239D01*
X158396690Y-103069374D01*
X158500000Y-103079549D01*
X159100000Y-103079549D01*
X159203310Y-103069374D01*
X159302650Y-103039239D01*
X159353599Y-103012006D01*
X159481232Y-103040068D01*
X159662987Y-103043876D01*
X159842019Y-103012307D01*
X160011510Y-102946566D01*
X160165003Y-102849156D01*
X160296654Y-102723787D01*
X160401445Y-102575235D01*
X160475388Y-102409158D01*
X160515664Y-102231882D01*
X160517388Y-102108424D01*
X160645072Y-102085910D01*
X160878557Y-101995347D01*
X161090004Y-101861159D01*
X161271360Y-101688456D01*
X161301861Y-101645218D01*
X162300000Y-101645218D01*
X162327878Y-101642120D01*
X162373171Y-101622020D01*
X162407325Y-101586117D01*
X163322360Y-100139771D01*
X163322360Y-105464781D01*
X162435280Y-107248769D01*
X158533070Y-111153879D01*
X155723843Y-113024320D01*
X129075218Y-113024320D01*
X126267283Y-111154740D01*
X123387738Y-108242179D01*
X121476700Y-105423176D01*
X121476700Y-99920327D01*
X122390707Y-101464684D01*
X122410197Y-101489803D01*
X122451399Y-101517333D01*
X122500000Y-101527000D01*
X123384796Y-101527000D01*
X123494381Y-101697044D01*
X123668346Y-101877190D01*
X123873989Y-102020115D01*
X124103476Y-102120376D01*
X124267437Y-102156425D01*
X124266118Y-102250895D01*
X124298935Y-102429702D01*
X124365858Y-102598730D01*
X124464337Y-102751540D01*
X124590622Y-102882312D01*
X124739902Y-102986064D01*
X124906491Y-103058845D01*
X125084044Y-103097882D01*
X125265799Y-103101690D01*
X125444831Y-103070121D01*
X125512557Y-103043852D01*
X125596690Y-103069374D01*
X125700000Y-103079549D01*
X126300000Y-103079549D01*
X126403310Y-103069374D01*
X126502650Y-103039239D01*
X126594202Y-102990304D01*
X126674448Y-102924448D01*
X126740304Y-102844202D01*
X126789239Y-102752650D01*
X126819374Y-102653310D01*
X126829549Y-102550000D01*
X126829549Y-101750000D01*
X126819374Y-101646690D01*
X126789239Y-101547350D01*
X126778362Y-101527000D01*
X126921638Y-101527000D01*
X126910761Y-101547350D01*
X126880626Y-101646690D01*
X126870451Y-101750000D01*
X126870451Y-102550000D01*
X126880626Y-102653310D01*
X126910761Y-102752650D01*
X126959696Y-102844202D01*
X127025552Y-102924448D01*
X127030527Y-102928531D01*
X127034552Y-102974535D01*
X127035546Y-102977955D01*
X127035893Y-102981497D01*
X127053969Y-103041368D01*
X127071415Y-103101416D01*
X127073052Y-103104575D01*
X127074082Y-103107985D01*
X127103451Y-103163219D01*
X127132220Y-103218721D01*
X127134441Y-103221503D01*
X127136112Y-103224646D01*
X127175628Y-103273097D01*
X127214652Y-103321981D01*
X127219539Y-103326937D01*
X127219621Y-103327037D01*
X127219714Y-103327114D01*
X127221289Y-103328711D01*
X128877017Y-104984440D01*
X128925350Y-105024141D01*
X128973246Y-105064331D01*
X128976366Y-105066046D01*
X128979117Y-105068306D01*
X129034238Y-105097862D01*
X129089030Y-105127984D01*
X129092423Y-105129060D01*
X129095561Y-105130743D01*
X129155365Y-105149026D01*
X129214973Y-105167935D01*
X129218512Y-105168332D01*
X129221914Y-105169372D01*
X129284067Y-105175685D01*
X129346277Y-105182663D01*
X129353244Y-105182712D01*
X129353366Y-105182724D01*
X129353479Y-105182713D01*
X129355729Y-105182729D01*
X132563316Y-105182729D01*
X132594568Y-105215091D01*
X132743848Y-105318843D01*
X132910437Y-105391624D01*
X133087990Y-105430661D01*
X133269745Y-105434469D01*
X133448777Y-105402900D01*
X133618268Y-105337159D01*
X133771761Y-105239749D01*
X133903412Y-105114380D01*
X134008203Y-104965828D01*
X134082146Y-104799751D01*
X134122422Y-104622475D01*
X134125259Y-104419254D01*
X134250495Y-104397171D01*
X134372989Y-104349659D01*
X134372989Y-105719588D01*
X133855260Y-106237318D01*
X133658217Y-106216608D01*
X133429452Y-106237427D01*
X133209088Y-106302284D01*
X133005518Y-106408707D01*
X132826496Y-106552645D01*
X132678841Y-106728613D01*
X132650508Y-106780151D01*
X132630348Y-106742237D01*
X132485165Y-106564225D01*
X132308170Y-106417802D01*
X132106106Y-106308546D01*
X131886669Y-106240619D01*
X131658217Y-106216608D01*
X131429452Y-106237427D01*
X131209088Y-106302284D01*
X131005518Y-106408707D01*
X130826496Y-106552645D01*
X130678841Y-106728613D01*
X130568178Y-106929909D01*
X130498720Y-107148867D01*
X130473115Y-107377146D01*
X130473000Y-107393579D01*
X130473000Y-107706421D01*
X130495416Y-107935035D01*
X130561809Y-108154941D01*
X130669652Y-108357763D01*
X130814835Y-108535775D01*
X130830924Y-108549085D01*
X130826496Y-108552645D01*
X130678841Y-108728613D01*
X130568178Y-108929909D01*
X130498720Y-109148867D01*
X130473115Y-109377146D01*
X130473000Y-109393579D01*
X130473000Y-109706421D01*
X130495416Y-109935035D01*
X130561809Y-110154941D01*
X130669652Y-110357763D01*
X130814835Y-110535775D01*
X130991830Y-110682198D01*
X131193894Y-110791454D01*
X131413331Y-110859381D01*
X131641783Y-110883392D01*
X131870548Y-110862573D01*
X132090912Y-110797716D01*
X132294482Y-110691293D01*
X132473504Y-110547355D01*
X132621159Y-110371387D01*
X132649492Y-110319849D01*
X132669652Y-110357763D01*
X132814835Y-110535775D01*
X132991830Y-110682198D01*
X133193894Y-110791454D01*
X133413331Y-110859381D01*
X133641783Y-110883392D01*
X133856435Y-110863857D01*
X134265567Y-111272990D01*
X130871834Y-111272990D01*
X129907064Y-110308220D01*
X129891729Y-110230771D01*
X129822452Y-110062694D01*
X129721849Y-109911274D01*
X129593751Y-109782278D01*
X129443037Y-109680621D01*
X129275448Y-109610173D01*
X129097367Y-109573618D01*
X128915577Y-109572349D01*
X128737003Y-109606413D01*
X128568447Y-109674515D01*
X128416328Y-109774058D01*
X128286441Y-109901253D01*
X128183733Y-110051254D01*
X128112117Y-110218347D01*
X128074320Y-110396168D01*
X128071782Y-110577945D01*
X128104599Y-110756752D01*
X128171522Y-110925780D01*
X128270001Y-111078590D01*
X128396286Y-111209362D01*
X128545566Y-111313114D01*
X128712155Y-111385895D01*
X128808158Y-111407002D01*
X130000568Y-112599412D01*
X130056071Y-112645003D01*
X130111011Y-112691103D01*
X130114589Y-112693070D01*
X130117748Y-112695665D01*
X130181007Y-112729584D01*
X130243897Y-112764158D01*
X130247794Y-112765394D01*
X130251393Y-112767324D01*
X130320019Y-112788305D01*
X130388443Y-112810011D01*
X130392502Y-112810466D01*
X130396410Y-112811661D01*
X130467818Y-112818914D01*
X130539141Y-112826914D01*
X130547130Y-112826970D01*
X130547278Y-112826985D01*
X130547416Y-112826972D01*
X130549990Y-112826990D01*
X146143615Y-112826990D01*
X146195576Y-112863104D01*
X146362165Y-112935885D01*
X146539718Y-112974922D01*
X146721473Y-112978730D01*
X146900505Y-112947161D01*
X147069996Y-112881420D01*
X147223489Y-112784010D01*
X147355140Y-112658641D01*
X147459931Y-112510089D01*
X147533874Y-112344012D01*
X147574150Y-112166736D01*
X147577049Y-111959093D01*
X147541739Y-111780761D01*
X147472462Y-111612684D01*
X147371859Y-111461264D01*
X147243761Y-111332268D01*
X147093047Y-111230611D01*
X146925458Y-111160163D01*
X146747377Y-111123608D01*
X146565587Y-111122339D01*
X146387013Y-111156403D01*
X146218457Y-111224505D01*
X146144363Y-111272990D01*
X138684432Y-111272990D01*
X139128711Y-110828711D01*
X139168391Y-110780404D01*
X139169972Y-110778520D01*
X139193894Y-110791454D01*
X139413331Y-110859381D01*
X139641783Y-110883392D01*
X139870548Y-110862573D01*
X140090912Y-110797716D01*
X140294482Y-110691293D01*
X140473504Y-110547355D01*
X140621159Y-110371387D01*
X140651359Y-110316454D01*
X140711916Y-110414604D01*
X140869353Y-110583884D01*
X141056790Y-110719197D01*
X141267024Y-110815343D01*
X141394130Y-110848851D01*
X141577000Y-110742698D01*
X141577000Y-109623000D01*
X141557000Y-109623000D01*
X141557000Y-109477000D01*
X141577000Y-109477000D01*
X141577000Y-109457000D01*
X141723000Y-109457000D01*
X141723000Y-109477000D01*
X141743000Y-109477000D01*
X141743000Y-109623000D01*
X141723000Y-109623000D01*
X141723000Y-110742698D01*
X141905870Y-110848851D01*
X142032976Y-110815343D01*
X142243210Y-110719197D01*
X142430647Y-110583884D01*
X142588084Y-110414604D01*
X142648129Y-110317284D01*
X142669652Y-110357763D01*
X142814835Y-110535775D01*
X142991830Y-110682198D01*
X143193894Y-110791454D01*
X143413331Y-110859381D01*
X143641783Y-110883392D01*
X143870548Y-110862573D01*
X144090912Y-110797716D01*
X144294482Y-110691293D01*
X144473504Y-110547355D01*
X144621159Y-110371387D01*
X144731822Y-110170091D01*
X144801280Y-109951133D01*
X144826885Y-109722854D01*
X144827000Y-109706421D01*
X144827000Y-109393579D01*
X144804584Y-109164965D01*
X144738191Y-108945059D01*
X144630348Y-108742237D01*
X144485165Y-108564225D01*
X144469076Y-108550915D01*
X144473504Y-108547355D01*
X144621159Y-108371387D01*
X144731822Y-108170091D01*
X144801280Y-107951133D01*
X144826885Y-107722854D01*
X144827000Y-107706421D01*
X144827000Y-107393579D01*
X144804584Y-107164965D01*
X144738191Y-106945059D01*
X144630348Y-106742237D01*
X144485165Y-106564225D01*
X144308170Y-106417802D01*
X144106106Y-106308546D01*
X143886669Y-106240619D01*
X143658217Y-106216608D01*
X143429452Y-106237427D01*
X143209088Y-106302284D01*
X143005518Y-106408707D01*
X142826496Y-106552645D01*
X142678841Y-106728613D01*
X142650508Y-106780151D01*
X142630348Y-106742237D01*
X142485165Y-106564225D01*
X142308170Y-106417802D01*
X142106106Y-106308546D01*
X141886669Y-106240619D01*
X141658217Y-106216608D01*
X141429452Y-106237427D01*
X141209088Y-106302284D01*
X141005518Y-106408707D01*
X140826496Y-106552645D01*
X140678841Y-106728613D01*
X140650508Y-106780151D01*
X140630348Y-106742237D01*
X140485165Y-106564225D01*
X140308170Y-106417802D01*
X140106106Y-106308546D01*
X139886669Y-106240619D01*
X139658217Y-106216608D01*
X139429452Y-106237427D01*
X139327000Y-106267580D01*
X139327000Y-106230422D01*
X142978721Y-102578702D01*
X143018422Y-102530369D01*
X143058612Y-102482473D01*
X143060327Y-102479353D01*
X143062587Y-102476602D01*
X143092143Y-102421481D01*
X143122265Y-102366689D01*
X143123341Y-102363296D01*
X143125024Y-102360158D01*
X143143320Y-102300313D01*
X143162216Y-102240746D01*
X143162612Y-102237212D01*
X143163654Y-102233805D01*
X143169972Y-102171602D01*
X143176944Y-102109442D01*
X143176993Y-102102475D01*
X143177005Y-102102353D01*
X143176994Y-102102240D01*
X143177010Y-102099990D01*
X143177010Y-97575655D01*
X143272999Y-97479666D01*
X143272999Y-99852914D01*
G36*
X130543252Y-101596280D02*
X130523000Y-101698095D01*
X130523000Y-101945250D01*
X130654750Y-102077000D01*
X131277000Y-102077000D01*
X131277000Y-102057000D01*
X131423000Y-102057000D01*
X131423000Y-102077000D01*
X132045250Y-102077000D01*
X132093577Y-102028673D01*
X132303476Y-102120376D01*
X132548067Y-102174152D01*
X132798444Y-102179397D01*
X133045072Y-102135910D01*
X133278557Y-102045347D01*
X133490004Y-101911159D01*
X133671360Y-101738456D01*
X133815718Y-101533816D01*
X133818753Y-101527000D01*
X134015578Y-101527000D01*
X133521289Y-102021289D01*
X133481609Y-102069596D01*
X133441398Y-102117517D01*
X133439683Y-102120637D01*
X133437423Y-102123388D01*
X133407867Y-102178509D01*
X133377745Y-102233301D01*
X133376669Y-102236694D01*
X133374986Y-102239832D01*
X133356694Y-102299664D01*
X133337794Y-102359244D01*
X133337397Y-102362780D01*
X133336356Y-102366186D01*
X133330039Y-102428383D01*
X133323066Y-102490548D01*
X133323017Y-102497515D01*
X133323005Y-102497637D01*
X133323016Y-102497750D01*
X133323000Y-102500000D01*
X133323000Y-102865452D01*
X133286441Y-102901253D01*
X133183733Y-103051254D01*
X133112117Y-103218347D01*
X133074320Y-103396168D01*
X133071782Y-103577945D01*
X133073229Y-103585828D01*
X132935285Y-103612142D01*
X132766729Y-103680244D01*
X132614610Y-103779787D01*
X132564632Y-103828729D01*
X129636152Y-103828729D01*
X128935407Y-103127985D01*
X128971463Y-103128740D01*
X129150495Y-103097171D01*
X129232925Y-103065198D01*
X129246690Y-103069374D01*
X129350000Y-103079549D01*
X129950000Y-103079549D01*
X130053310Y-103069374D01*
X130152650Y-103039239D01*
X130244202Y-102990304D01*
X130324448Y-102924448D01*
X130390304Y-102844202D01*
X130439239Y-102752650D01*
X130469374Y-102653310D01*
X130479549Y-102550000D01*
X130479549Y-102354750D01*
X130523000Y-102354750D01*
X130523000Y-102601905D01*
X130543252Y-102703720D01*
X130582979Y-102799628D01*
X130640652Y-102885943D01*
X130714057Y-102959348D01*
X130800372Y-103017021D01*
X130896280Y-103056748D01*
X130998095Y-103077000D01*
X131145250Y-103077000D01*
X131277000Y-102945250D01*
X131277000Y-102223000D01*
X131423000Y-102223000D01*
X131423000Y-102945250D01*
X131554750Y-103077000D01*
X131701905Y-103077000D01*
X131803720Y-103056748D01*
X131899628Y-103017021D01*
X131985943Y-102959348D01*
X132059348Y-102885943D01*
X132117021Y-102799628D01*
X132156748Y-102703720D01*
X132177000Y-102601905D01*
X132177000Y-102354750D01*
X132045250Y-102223000D01*
X131423000Y-102223000D01*
X131277000Y-102223000D01*
X130654750Y-102223000D01*
X130523000Y-102354750D01*
X130479549Y-102354750D01*
X130479549Y-101750000D01*
X130469374Y-101646690D01*
X130439239Y-101547350D01*
X130428362Y-101527000D01*
X130571949Y-101527000D01*
X130543252Y-101596280D01*
X130543252Y-101596280D01*
G37*
X130543252Y-101596280D02*
X130523000Y-101698095D01*
X130523000Y-101945250D01*
X130654750Y-102077000D01*
X131277000Y-102077000D01*
X131277000Y-102057000D01*
X131423000Y-102057000D01*
X131423000Y-102077000D01*
X132045250Y-102077000D01*
X132093577Y-102028673D01*
X132303476Y-102120376D01*
X132548067Y-102174152D01*
X132798444Y-102179397D01*
X133045072Y-102135910D01*
X133278557Y-102045347D01*
X133490004Y-101911159D01*
X133671360Y-101738456D01*
X133815718Y-101533816D01*
X133818753Y-101527000D01*
X134015578Y-101527000D01*
X133521289Y-102021289D01*
X133481609Y-102069596D01*
X133441398Y-102117517D01*
X133439683Y-102120637D01*
X133437423Y-102123388D01*
X133407867Y-102178509D01*
X133377745Y-102233301D01*
X133376669Y-102236694D01*
X133374986Y-102239832D01*
X133356694Y-102299664D01*
X133337794Y-102359244D01*
X133337397Y-102362780D01*
X133336356Y-102366186D01*
X133330039Y-102428383D01*
X133323066Y-102490548D01*
X133323017Y-102497515D01*
X133323005Y-102497637D01*
X133323016Y-102497750D01*
X133323000Y-102500000D01*
X133323000Y-102865452D01*
X133286441Y-102901253D01*
X133183733Y-103051254D01*
X133112117Y-103218347D01*
X133074320Y-103396168D01*
X133071782Y-103577945D01*
X133073229Y-103585828D01*
X132935285Y-103612142D01*
X132766729Y-103680244D01*
X132614610Y-103779787D01*
X132564632Y-103828729D01*
X129636152Y-103828729D01*
X128935407Y-103127985D01*
X128971463Y-103128740D01*
X129150495Y-103097171D01*
X129232925Y-103065198D01*
X129246690Y-103069374D01*
X129350000Y-103079549D01*
X129950000Y-103079549D01*
X130053310Y-103069374D01*
X130152650Y-103039239D01*
X130244202Y-102990304D01*
X130324448Y-102924448D01*
X130390304Y-102844202D01*
X130439239Y-102752650D01*
X130469374Y-102653310D01*
X130479549Y-102550000D01*
X130479549Y-102354750D01*
X130523000Y-102354750D01*
X130523000Y-102601905D01*
X130543252Y-102703720D01*
X130582979Y-102799628D01*
X130640652Y-102885943D01*
X130714057Y-102959348D01*
X130800372Y-103017021D01*
X130896280Y-103056748D01*
X130998095Y-103077000D01*
X131145250Y-103077000D01*
X131277000Y-102945250D01*
X131277000Y-102223000D01*
X131423000Y-102223000D01*
X131423000Y-102945250D01*
X131554750Y-103077000D01*
X131701905Y-103077000D01*
X131803720Y-103056748D01*
X131899628Y-103017021D01*
X131985943Y-102959348D01*
X132059348Y-102885943D01*
X132117021Y-102799628D01*
X132156748Y-102703720D01*
X132177000Y-102601905D01*
X132177000Y-102354750D01*
X132045250Y-102223000D01*
X131423000Y-102223000D01*
X131277000Y-102223000D01*
X130654750Y-102223000D01*
X130523000Y-102354750D01*
X130479549Y-102354750D01*
X130479549Y-101750000D01*
X130469374Y-101646690D01*
X130439239Y-101547350D01*
X130428362Y-101527000D01*
X130571949Y-101527000D01*
X130543252Y-101596280D01*
G36*
X141273000Y-100769578D02*
X139453933Y-102588645D01*
X139393334Y-102497435D01*
X139265236Y-102368439D01*
X139114522Y-102266782D01*
X138946933Y-102196334D01*
X138768852Y-102159779D01*
X138587062Y-102158510D01*
X138408488Y-102192574D01*
X138239932Y-102260676D01*
X138087813Y-102360219D01*
X137957926Y-102487414D01*
X137855218Y-102637415D01*
X137783602Y-102804508D01*
X137745805Y-102982329D01*
X137744784Y-103055440D01*
X137148481Y-103651743D01*
X137043037Y-103580621D01*
X136875448Y-103510173D01*
X136697367Y-103473618D01*
X136515577Y-103472349D01*
X136337003Y-103506413D01*
X136327000Y-103510455D01*
X136327000Y-102686086D01*
X141178734Y-97834353D01*
X141218438Y-97786016D01*
X141258624Y-97738125D01*
X141260339Y-97735005D01*
X141262599Y-97732254D01*
X141273000Y-97712856D01*
X141273000Y-100769578D01*
X141273000Y-100769578D01*
G37*
X141273000Y-100769578D02*
X139453933Y-102588645D01*
X139393334Y-102497435D01*
X139265236Y-102368439D01*
X139114522Y-102266782D01*
X138946933Y-102196334D01*
X138768852Y-102159779D01*
X138587062Y-102158510D01*
X138408488Y-102192574D01*
X138239932Y-102260676D01*
X138087813Y-102360219D01*
X137957926Y-102487414D01*
X137855218Y-102637415D01*
X137783602Y-102804508D01*
X137745805Y-102982329D01*
X137744784Y-103055440D01*
X137148481Y-103651743D01*
X137043037Y-103580621D01*
X136875448Y-103510173D01*
X136697367Y-103473618D01*
X136515577Y-103472349D01*
X136337003Y-103506413D01*
X136327000Y-103510455D01*
X136327000Y-102686086D01*
X141178734Y-97834353D01*
X141218438Y-97786016D01*
X141258624Y-97738125D01*
X141260339Y-97735005D01*
X141262599Y-97732254D01*
X141273000Y-97712856D01*
X141273000Y-100769578D01*
G36*
X147796286Y-98709362D02*
X147945566Y-98813114D01*
X148088369Y-98875503D01*
X149690707Y-101582902D01*
X149710197Y-101608021D01*
X149751399Y-101635551D01*
X149800000Y-101645218D01*
X151093204Y-101645218D01*
X151094381Y-101647044D01*
X151268346Y-101827190D01*
X151473989Y-101970115D01*
X151703476Y-102070376D01*
X151948067Y-102124152D01*
X152198444Y-102129397D01*
X152445072Y-102085910D01*
X152678557Y-101995347D01*
X152890004Y-101861159D01*
X152923000Y-101829737D01*
X152923000Y-101945250D01*
X153054750Y-102077000D01*
X153677000Y-102077000D01*
X153677000Y-102057000D01*
X153823000Y-102057000D01*
X153823000Y-102077000D01*
X154445250Y-102077000D01*
X154577000Y-101945250D01*
X154577000Y-101698095D01*
X154566482Y-101645218D01*
X154631073Y-101645218D01*
X154630626Y-101646690D01*
X154620451Y-101750000D01*
X154620451Y-102323001D01*
X154545251Y-102323001D01*
X154445250Y-102223000D01*
X153823000Y-102223000D01*
X153823000Y-102243000D01*
X153677000Y-102243000D01*
X153677000Y-102223000D01*
X153054750Y-102223000D01*
X152954749Y-102323001D01*
X148580423Y-102323001D01*
X145726206Y-99468784D01*
X145727039Y-99409103D01*
X145691729Y-99230771D01*
X145622452Y-99062694D01*
X145521849Y-98911274D01*
X145477000Y-98866111D01*
X145477000Y-98677000D01*
X147765034Y-98677000D01*
X147796286Y-98709362D01*
X147796286Y-98709362D01*
G37*
X147796286Y-98709362D02*
X147945566Y-98813114D01*
X148088369Y-98875503D01*
X149690707Y-101582902D01*
X149710197Y-101608021D01*
X149751399Y-101635551D01*
X149800000Y-101645218D01*
X151093204Y-101645218D01*
X151094381Y-101647044D01*
X151268346Y-101827190D01*
X151473989Y-101970115D01*
X151703476Y-102070376D01*
X151948067Y-102124152D01*
X152198444Y-102129397D01*
X152445072Y-102085910D01*
X152678557Y-101995347D01*
X152890004Y-101861159D01*
X152923000Y-101829737D01*
X152923000Y-101945250D01*
X153054750Y-102077000D01*
X153677000Y-102077000D01*
X153677000Y-102057000D01*
X153823000Y-102057000D01*
X153823000Y-102077000D01*
X154445250Y-102077000D01*
X154577000Y-101945250D01*
X154577000Y-101698095D01*
X154566482Y-101645218D01*
X154631073Y-101645218D01*
X154630626Y-101646690D01*
X154620451Y-101750000D01*
X154620451Y-102323001D01*
X154545251Y-102323001D01*
X154445250Y-102223000D01*
X153823000Y-102223000D01*
X153823000Y-102243000D01*
X153677000Y-102243000D01*
X153677000Y-102223000D01*
X153054750Y-102223000D01*
X152954749Y-102323001D01*
X148580423Y-102323001D01*
X145726206Y-99468784D01*
X145727039Y-99409103D01*
X145691729Y-99230771D01*
X145622452Y-99062694D01*
X145521849Y-98911274D01*
X145477000Y-98866111D01*
X145477000Y-98677000D01*
X147765034Y-98677000D01*
X147796286Y-98709362D01*
G36*
X146082931Y-87540354D02*
X146082931Y-89970451D01*
X145500000Y-89970451D01*
X145396690Y-89980626D01*
X145297350Y-90010761D01*
X145252363Y-90034807D01*
X145249628Y-90032979D01*
X145153720Y-89993252D01*
X145051905Y-89973000D01*
X144904750Y-89973000D01*
X144773000Y-90104750D01*
X144773000Y-90677000D01*
X144793000Y-90677000D01*
X144793000Y-90778631D01*
X144660998Y-90831964D01*
X144644133Y-90843000D01*
X144627000Y-90843000D01*
X144627000Y-90823000D01*
X144004750Y-90823000D01*
X143873000Y-90954750D01*
X143873000Y-91051905D01*
X143893252Y-91153720D01*
X143932979Y-91249628D01*
X143990652Y-91335943D01*
X144064057Y-91409348D01*
X144150372Y-91467021D01*
X144182453Y-91480310D01*
X144166871Y-91553617D01*
X144164333Y-91735394D01*
X144197150Y-91914201D01*
X144264073Y-92083229D01*
X144362552Y-92236039D01*
X144488837Y-92366811D01*
X144638117Y-92470563D01*
X144804706Y-92543344D01*
X144982259Y-92582381D01*
X145061725Y-92584046D01*
X145272989Y-92795310D01*
X145272989Y-92930713D01*
X145259201Y-92916828D01*
X145108487Y-92815171D01*
X144940898Y-92744723D01*
X144762817Y-92708168D01*
X144581027Y-92706899D01*
X144402453Y-92740963D01*
X144233897Y-92809065D01*
X144081778Y-92908608D01*
X143951891Y-93035803D01*
X143849183Y-93185804D01*
X143777567Y-93352897D01*
X143739770Y-93530718D01*
X143737232Y-93712495D01*
X143770049Y-93891302D01*
X143836972Y-94060330D01*
X143903323Y-94163287D01*
X143797369Y-94118748D01*
X143619288Y-94082193D01*
X143437498Y-94080924D01*
X143258924Y-94114988D01*
X143090368Y-94183090D01*
X143064373Y-94200101D01*
X143133864Y-94044022D01*
X143174140Y-93866746D01*
X143177039Y-93659103D01*
X143141729Y-93480771D01*
X143072452Y-93312694D01*
X142971849Y-93161274D01*
X142843751Y-93032278D01*
X142693037Y-92930621D01*
X142525448Y-92860173D01*
X142347367Y-92823618D01*
X142165577Y-92822349D01*
X141987003Y-92856413D01*
X141818447Y-92924515D01*
X141666328Y-93024058D01*
X141555166Y-93132916D01*
X141495250Y-93073000D01*
X140873000Y-93073000D01*
X140873000Y-93093000D01*
X140727000Y-93093000D01*
X140727000Y-93073000D01*
X140707000Y-93073000D01*
X140707000Y-92927000D01*
X140727000Y-92927000D01*
X140727000Y-92354750D01*
X140595250Y-92223000D01*
X140448095Y-92223000D01*
X140363467Y-92239833D01*
X140383864Y-92194022D01*
X140424140Y-92016746D01*
X140427039Y-91809103D01*
X140391729Y-91630771D01*
X140322452Y-91462694D01*
X140246665Y-91348626D01*
X140259348Y-91335943D01*
X140317021Y-91249628D01*
X140356748Y-91153720D01*
X140377000Y-91051905D01*
X140377000Y-90954750D01*
X140245250Y-90823000D01*
X139623000Y-90823000D01*
X139623000Y-90843000D01*
X139477000Y-90843000D01*
X139477000Y-90823000D01*
X139457000Y-90823000D01*
X139457000Y-90677000D01*
X139477000Y-90677000D01*
X139477000Y-90657000D01*
X139623000Y-90657000D01*
X139623000Y-90677000D01*
X140245250Y-90677000D01*
X140377000Y-90545250D01*
X140377000Y-90448095D01*
X140356748Y-90346280D01*
X140339810Y-90305389D01*
X140373479Y-90284022D01*
X140505130Y-90158653D01*
X140609921Y-90010101D01*
X140683864Y-89844024D01*
X140724140Y-89666748D01*
X140727039Y-89459105D01*
X140691729Y-89280773D01*
X140669665Y-89227242D01*
X141073000Y-89630577D01*
X141073000Y-90865444D01*
X141036441Y-90901245D01*
X140933733Y-91051246D01*
X140862117Y-91218339D01*
X140824320Y-91396160D01*
X140821782Y-91577937D01*
X140854599Y-91756744D01*
X140921522Y-91925772D01*
X141020001Y-92078582D01*
X141146286Y-92209354D01*
X141171539Y-92226905D01*
X141151905Y-92223000D01*
X141004750Y-92223000D01*
X140873000Y-92354750D01*
X140873000Y-92927000D01*
X141495250Y-92927000D01*
X141627000Y-92795250D01*
X141627000Y-92698095D01*
X141606748Y-92596280D01*
X141567021Y-92500372D01*
X141509348Y-92414057D01*
X141486539Y-92391248D01*
X141639708Y-92424924D01*
X141821463Y-92428732D01*
X142000495Y-92397163D01*
X142169986Y-92331422D01*
X142323479Y-92234012D01*
X142373808Y-92186085D01*
X142396286Y-92209362D01*
X142545566Y-92313114D01*
X142712155Y-92385895D01*
X142889708Y-92424932D01*
X143071463Y-92428740D01*
X143250495Y-92397171D01*
X143419986Y-92331430D01*
X143573479Y-92234020D01*
X143705130Y-92108651D01*
X143809921Y-91960099D01*
X143883864Y-91794022D01*
X143924140Y-91616746D01*
X143927039Y-91409103D01*
X143891729Y-91230771D01*
X143822452Y-91062694D01*
X143721849Y-90911274D01*
X143677000Y-90866111D01*
X143677000Y-90448095D01*
X143873000Y-90448095D01*
X143873000Y-90545250D01*
X144004750Y-90677000D01*
X144627000Y-90677000D01*
X144627000Y-90104750D01*
X144495250Y-89973000D01*
X144348095Y-89973000D01*
X144246280Y-89993252D01*
X144150372Y-90032979D01*
X144064057Y-90090652D01*
X143990652Y-90164057D01*
X143932979Y-90250372D01*
X143893252Y-90346280D01*
X143873000Y-90448095D01*
X143677000Y-90448095D01*
X143677000Y-86885439D01*
X143705130Y-86858651D01*
X143809921Y-86710099D01*
X143883864Y-86544022D01*
X143924140Y-86366746D01*
X143927039Y-86159103D01*
X143891729Y-85980771D01*
X143869566Y-85927000D01*
X144469578Y-85927000D01*
X146082931Y-87540354D01*
X146082931Y-87540354D01*
G37*
X146082931Y-87540354D02*
X146082931Y-89970451D01*
X145500000Y-89970451D01*
X145396690Y-89980626D01*
X145297350Y-90010761D01*
X145252363Y-90034807D01*
X145249628Y-90032979D01*
X145153720Y-89993252D01*
X145051905Y-89973000D01*
X144904750Y-89973000D01*
X144773000Y-90104750D01*
X144773000Y-90677000D01*
X144793000Y-90677000D01*
X144793000Y-90778631D01*
X144660998Y-90831964D01*
X144644133Y-90843000D01*
X144627000Y-90843000D01*
X144627000Y-90823000D01*
X144004750Y-90823000D01*
X143873000Y-90954750D01*
X143873000Y-91051905D01*
X143893252Y-91153720D01*
X143932979Y-91249628D01*
X143990652Y-91335943D01*
X144064057Y-91409348D01*
X144150372Y-91467021D01*
X144182453Y-91480310D01*
X144166871Y-91553617D01*
X144164333Y-91735394D01*
X144197150Y-91914201D01*
X144264073Y-92083229D01*
X144362552Y-92236039D01*
X144488837Y-92366811D01*
X144638117Y-92470563D01*
X144804706Y-92543344D01*
X144982259Y-92582381D01*
X145061725Y-92584046D01*
X145272989Y-92795310D01*
X145272989Y-92930713D01*
X145259201Y-92916828D01*
X145108487Y-92815171D01*
X144940898Y-92744723D01*
X144762817Y-92708168D01*
X144581027Y-92706899D01*
X144402453Y-92740963D01*
X144233897Y-92809065D01*
X144081778Y-92908608D01*
X143951891Y-93035803D01*
X143849183Y-93185804D01*
X143777567Y-93352897D01*
X143739770Y-93530718D01*
X143737232Y-93712495D01*
X143770049Y-93891302D01*
X143836972Y-94060330D01*
X143903323Y-94163287D01*
X143797369Y-94118748D01*
X143619288Y-94082193D01*
X143437498Y-94080924D01*
X143258924Y-94114988D01*
X143090368Y-94183090D01*
X143064373Y-94200101D01*
X143133864Y-94044022D01*
X143174140Y-93866746D01*
X143177039Y-93659103D01*
X143141729Y-93480771D01*
X143072452Y-93312694D01*
X142971849Y-93161274D01*
X142843751Y-93032278D01*
X142693037Y-92930621D01*
X142525448Y-92860173D01*
X142347367Y-92823618D01*
X142165577Y-92822349D01*
X141987003Y-92856413D01*
X141818447Y-92924515D01*
X141666328Y-93024058D01*
X141555166Y-93132916D01*
X141495250Y-93073000D01*
X140873000Y-93073000D01*
X140873000Y-93093000D01*
X140727000Y-93093000D01*
X140727000Y-93073000D01*
X140707000Y-93073000D01*
X140707000Y-92927000D01*
X140727000Y-92927000D01*
X140727000Y-92354750D01*
X140595250Y-92223000D01*
X140448095Y-92223000D01*
X140363467Y-92239833D01*
X140383864Y-92194022D01*
X140424140Y-92016746D01*
X140427039Y-91809103D01*
X140391729Y-91630771D01*
X140322452Y-91462694D01*
X140246665Y-91348626D01*
X140259348Y-91335943D01*
X140317021Y-91249628D01*
X140356748Y-91153720D01*
X140377000Y-91051905D01*
X140377000Y-90954750D01*
X140245250Y-90823000D01*
X139623000Y-90823000D01*
X139623000Y-90843000D01*
X139477000Y-90843000D01*
X139477000Y-90823000D01*
X139457000Y-90823000D01*
X139457000Y-90677000D01*
X139477000Y-90677000D01*
X139477000Y-90657000D01*
X139623000Y-90657000D01*
X139623000Y-90677000D01*
X140245250Y-90677000D01*
X140377000Y-90545250D01*
X140377000Y-90448095D01*
X140356748Y-90346280D01*
X140339810Y-90305389D01*
X140373479Y-90284022D01*
X140505130Y-90158653D01*
X140609921Y-90010101D01*
X140683864Y-89844024D01*
X140724140Y-89666748D01*
X140727039Y-89459105D01*
X140691729Y-89280773D01*
X140669665Y-89227242D01*
X141073000Y-89630577D01*
X141073000Y-90865444D01*
X141036441Y-90901245D01*
X140933733Y-91051246D01*
X140862117Y-91218339D01*
X140824320Y-91396160D01*
X140821782Y-91577937D01*
X140854599Y-91756744D01*
X140921522Y-91925772D01*
X141020001Y-92078582D01*
X141146286Y-92209354D01*
X141171539Y-92226905D01*
X141151905Y-92223000D01*
X141004750Y-92223000D01*
X140873000Y-92354750D01*
X140873000Y-92927000D01*
X141495250Y-92927000D01*
X141627000Y-92795250D01*
X141627000Y-92698095D01*
X141606748Y-92596280D01*
X141567021Y-92500372D01*
X141509348Y-92414057D01*
X141486539Y-92391248D01*
X141639708Y-92424924D01*
X141821463Y-92428732D01*
X142000495Y-92397163D01*
X142169986Y-92331422D01*
X142323479Y-92234012D01*
X142373808Y-92186085D01*
X142396286Y-92209362D01*
X142545566Y-92313114D01*
X142712155Y-92385895D01*
X142889708Y-92424932D01*
X143071463Y-92428740D01*
X143250495Y-92397171D01*
X143419986Y-92331430D01*
X143573479Y-92234020D01*
X143705130Y-92108651D01*
X143809921Y-91960099D01*
X143883864Y-91794022D01*
X143924140Y-91616746D01*
X143927039Y-91409103D01*
X143891729Y-91230771D01*
X143822452Y-91062694D01*
X143721849Y-90911274D01*
X143677000Y-90866111D01*
X143677000Y-90448095D01*
X143873000Y-90448095D01*
X143873000Y-90545250D01*
X144004750Y-90677000D01*
X144627000Y-90677000D01*
X144627000Y-90104750D01*
X144495250Y-89973000D01*
X144348095Y-89973000D01*
X144246280Y-89993252D01*
X144150372Y-90032979D01*
X144064057Y-90090652D01*
X143990652Y-90164057D01*
X143932979Y-90250372D01*
X143893252Y-90346280D01*
X143873000Y-90448095D01*
X143677000Y-90448095D01*
X143677000Y-86885439D01*
X143705130Y-86858651D01*
X143809921Y-86710099D01*
X143883864Y-86544022D01*
X143924140Y-86366746D01*
X143927039Y-86159103D01*
X143891729Y-85980771D01*
X143869566Y-85927000D01*
X144469578Y-85927000D01*
X146082931Y-87540354D01*
G36*
X143873000Y-84573000D02*
X139464737Y-84573000D01*
X138778173Y-83886436D01*
X138919986Y-83831430D01*
X139073479Y-83734020D01*
X139205130Y-83608651D01*
X139309921Y-83460099D01*
X139383864Y-83294022D01*
X139424140Y-83116746D01*
X139427039Y-82909103D01*
X139391729Y-82730771D01*
X139322452Y-82562694D01*
X139221849Y-82411274D01*
X139093751Y-82282278D01*
X138943037Y-82180621D01*
X138920959Y-82171340D01*
X138920959Y-81446764D01*
X139000000Y-81454549D01*
X141500000Y-81454549D01*
X141603310Y-81444374D01*
X141702650Y-81414239D01*
X141794202Y-81365304D01*
X141874448Y-81299448D01*
X141940304Y-81219202D01*
X141989239Y-81127650D01*
X142019374Y-81028310D01*
X142029549Y-80925000D01*
X142029549Y-80082874D01*
X142207707Y-79904716D01*
X142250495Y-79897171D01*
X142419986Y-79831430D01*
X142573479Y-79734020D01*
X142705130Y-79608651D01*
X142809921Y-79460099D01*
X142883864Y-79294022D01*
X142924140Y-79116746D01*
X142927039Y-78909103D01*
X142891729Y-78730771D01*
X142822452Y-78562694D01*
X142721849Y-78411274D01*
X142593751Y-78282278D01*
X142443037Y-78180621D01*
X142275448Y-78110173D01*
X142097367Y-78073618D01*
X142029549Y-78073145D01*
X142029549Y-77115000D01*
X142019374Y-77011690D01*
X141989239Y-76912350D01*
X141940304Y-76820798D01*
X141874448Y-76740552D01*
X141794202Y-76674696D01*
X141702650Y-76625761D01*
X141603310Y-76595626D01*
X141500000Y-76585451D01*
X139000000Y-76585451D01*
X138896690Y-76595626D01*
X138797350Y-76625761D01*
X138705798Y-76674696D01*
X138625552Y-76740552D01*
X138559696Y-76820798D01*
X138510761Y-76912350D01*
X138480626Y-77011690D01*
X138470451Y-77115000D01*
X138470451Y-78072127D01*
X138213809Y-78328769D01*
X138159536Y-78328390D01*
X138029549Y-78353186D01*
X138029549Y-77115000D01*
X138019374Y-77011690D01*
X137989239Y-76912350D01*
X137940304Y-76820798D01*
X137874448Y-76740552D01*
X137794202Y-76674696D01*
X137702650Y-76625761D01*
X137603310Y-76595626D01*
X137500000Y-76585451D01*
X135000000Y-76585451D01*
X134896690Y-76595626D01*
X134797350Y-76625761D01*
X134705798Y-76674696D01*
X134625552Y-76740552D01*
X134559696Y-76820798D01*
X134510761Y-76912350D01*
X134480626Y-77011690D01*
X134470451Y-77115000D01*
X134470451Y-77957127D01*
X134264093Y-78163485D01*
X134137246Y-78110164D01*
X133959165Y-78073609D01*
X133777375Y-78072340D01*
X133598801Y-78106404D01*
X133430245Y-78174506D01*
X133278126Y-78274049D01*
X133148239Y-78401244D01*
X133045531Y-78551245D01*
X132973915Y-78718338D01*
X132936118Y-78896159D01*
X132933580Y-79077936D01*
X132966397Y-79256743D01*
X133033320Y-79425771D01*
X133131799Y-79578581D01*
X133175962Y-79624314D01*
X133148453Y-79651253D01*
X133045745Y-79801254D01*
X132974129Y-79968347D01*
X132936332Y-80146168D01*
X132933794Y-80327945D01*
X132966611Y-80506752D01*
X132999366Y-80589481D01*
X132936287Y-80651253D01*
X132904743Y-80697321D01*
X131843060Y-79635638D01*
X131883864Y-79543992D01*
X131924140Y-79366716D01*
X131927039Y-79159073D01*
X131891729Y-78980741D01*
X131822452Y-78812664D01*
X131721849Y-78661244D01*
X131593751Y-78532248D01*
X131443037Y-78430591D01*
X131275448Y-78360143D01*
X131097367Y-78323588D01*
X130915577Y-78322319D01*
X130737003Y-78356383D01*
X130568447Y-78424485D01*
X130416328Y-78524028D01*
X130286441Y-78651223D01*
X130183733Y-78801224D01*
X130112117Y-78968317D01*
X130074320Y-79146138D01*
X130071782Y-79327915D01*
X130104599Y-79506722D01*
X130171522Y-79675750D01*
X130270001Y-79828560D01*
X130330304Y-79891006D01*
X130334992Y-79942512D01*
X130335661Y-79944785D01*
X130335893Y-79947152D01*
X130354343Y-80008262D01*
X130372297Y-80069264D01*
X130373395Y-80071364D01*
X130374082Y-80073640D01*
X130404044Y-80129990D01*
X130433511Y-80186355D01*
X130434996Y-80188202D01*
X130436112Y-80190301D01*
X130476392Y-80239689D01*
X130516302Y-80289327D01*
X130518122Y-80290854D01*
X130519621Y-80292692D01*
X130568661Y-80333262D01*
X130617517Y-80374257D01*
X130619599Y-80375402D01*
X130621426Y-80376913D01*
X130677387Y-80407171D01*
X130727053Y-80434475D01*
X132642596Y-82350018D01*
X121476700Y-82408351D01*
X121476700Y-78784984D01*
X123472755Y-75989696D01*
X124492200Y-77009141D01*
X124534129Y-77043582D01*
X124575878Y-77078366D01*
X124577658Y-77079336D01*
X124579218Y-77080618D01*
X124627068Y-77106275D01*
X124674748Y-77132271D01*
X124676675Y-77132875D01*
X124678462Y-77133833D01*
X124730511Y-77149746D01*
X124782206Y-77165946D01*
X124784212Y-77166164D01*
X124786152Y-77166757D01*
X124840236Y-77172251D01*
X124894158Y-77178109D01*
X124896174Y-77177933D01*
X124898186Y-77178137D01*
X124952306Y-77173021D01*
X125006340Y-77168293D01*
X125008278Y-77167730D01*
X125010298Y-77167539D01*
X125062412Y-77152003D01*
X125114480Y-77136876D01*
X125116276Y-77135945D01*
X125118215Y-77135367D01*
X125166298Y-77110016D01*
X125214457Y-77085053D01*
X125216035Y-77083793D01*
X125217828Y-77082848D01*
X125260087Y-77048627D01*
X125302465Y-77014797D01*
X125305230Y-77012070D01*
X125305343Y-77011979D01*
X125305436Y-77011868D01*
X125308201Y-77009141D01*
X127307181Y-75010160D01*
X127341473Y-74968412D01*
X127376131Y-74926886D01*
X127377220Y-74924893D01*
X127378658Y-74923142D01*
X127404213Y-74875483D01*
X127430120Y-74828061D01*
X127430799Y-74825901D01*
X127431873Y-74823898D01*
X127447712Y-74772091D01*
X127463886Y-74720632D01*
X127464132Y-74718382D01*
X127464797Y-74716208D01*
X127470269Y-74662338D01*
X127476143Y-74608691D01*
X127475947Y-74606434D01*
X127476177Y-74604174D01*
X127473420Y-74575000D01*
X134470451Y-74575000D01*
X134470451Y-75845000D01*
X134480626Y-75948310D01*
X134510761Y-76047650D01*
X134559696Y-76139202D01*
X134625552Y-76219448D01*
X134705798Y-76285304D01*
X134797350Y-76334239D01*
X134896690Y-76364374D01*
X135000000Y-76374549D01*
X137500000Y-76374549D01*
X137603310Y-76364374D01*
X137702650Y-76334239D01*
X137794202Y-76285304D01*
X137874448Y-76219448D01*
X137940304Y-76139202D01*
X137989239Y-76047650D01*
X138019374Y-75948310D01*
X138029549Y-75845000D01*
X138029549Y-75454750D01*
X138473000Y-75454750D01*
X138473000Y-75936905D01*
X138493252Y-76038720D01*
X138532979Y-76134628D01*
X138590652Y-76220943D01*
X138664057Y-76294348D01*
X138750372Y-76352021D01*
X138846280Y-76391748D01*
X138948095Y-76412000D01*
X140045250Y-76412000D01*
X140177000Y-76280250D01*
X140177000Y-75323000D01*
X140323000Y-75323000D01*
X140323000Y-76280250D01*
X140454750Y-76412000D01*
X141551905Y-76412000D01*
X141653720Y-76391748D01*
X141749628Y-76352021D01*
X141835943Y-76294348D01*
X141909348Y-76220943D01*
X141967021Y-76134628D01*
X142006748Y-76038720D01*
X142027000Y-75936905D01*
X142027000Y-75454750D01*
X141895250Y-75323000D01*
X140323000Y-75323000D01*
X140177000Y-75323000D01*
X138604750Y-75323000D01*
X138473000Y-75454750D01*
X138029549Y-75454750D01*
X138029549Y-74575000D01*
X138028377Y-74563095D01*
X138473000Y-74563095D01*
X138473000Y-75045250D01*
X138604750Y-75177000D01*
X140177000Y-75177000D01*
X140177000Y-74219750D01*
X140323000Y-74219750D01*
X140323000Y-75177000D01*
X141895250Y-75177000D01*
X142027000Y-75045250D01*
X142027000Y-74563095D01*
X142006748Y-74461280D01*
X141967021Y-74365372D01*
X141909348Y-74279057D01*
X141835943Y-74205652D01*
X141749628Y-74147979D01*
X141653720Y-74108252D01*
X141551905Y-74088000D01*
X140454750Y-74088000D01*
X140323000Y-74219750D01*
X140177000Y-74219750D01*
X140045250Y-74088000D01*
X138948095Y-74088000D01*
X138846280Y-74108252D01*
X138750372Y-74147979D01*
X138664057Y-74205652D01*
X138590652Y-74279057D01*
X138532979Y-74365372D01*
X138493252Y-74461280D01*
X138473000Y-74563095D01*
X138028377Y-74563095D01*
X138019374Y-74471690D01*
X137989239Y-74372350D01*
X137940304Y-74280798D01*
X137874448Y-74200552D01*
X137794202Y-74134696D01*
X137702650Y-74085761D01*
X137677000Y-74077980D01*
X137677000Y-73385439D01*
X137705130Y-73358651D01*
X137809921Y-73210099D01*
X137883864Y-73044022D01*
X137924140Y-72866746D01*
X137927039Y-72659103D01*
X137891729Y-72480771D01*
X137822452Y-72312694D01*
X137721849Y-72161274D01*
X137593751Y-72032278D01*
X137443037Y-71930621D01*
X137275448Y-71860173D01*
X137097367Y-71823618D01*
X136915577Y-71822349D01*
X136737003Y-71856413D01*
X136568447Y-71924515D01*
X136416328Y-72024058D01*
X136286441Y-72151253D01*
X136183733Y-72301254D01*
X136112117Y-72468347D01*
X136074320Y-72646168D01*
X136071782Y-72827945D01*
X136104599Y-73006752D01*
X136171522Y-73175780D01*
X136270001Y-73328590D01*
X136323000Y-73383472D01*
X136323000Y-74045451D01*
X135000000Y-74045451D01*
X134896690Y-74055626D01*
X134797350Y-74085761D01*
X134705798Y-74134696D01*
X134625552Y-74200552D01*
X134559696Y-74280798D01*
X134510761Y-74372350D01*
X134480626Y-74471690D01*
X134470451Y-74575000D01*
X127473420Y-74575000D01*
X127471083Y-74550282D01*
X127466423Y-74496501D01*
X127465793Y-74494325D01*
X127465579Y-74492063D01*
X127450116Y-74440194D01*
X127435097Y-74388334D01*
X127434056Y-74386321D01*
X127433407Y-74384145D01*
X127408163Y-74336264D01*
X127383359Y-74288313D01*
X127381948Y-74286542D01*
X127380888Y-74284532D01*
X127346826Y-74242470D01*
X127313178Y-74200246D01*
X127310111Y-74197131D01*
X127310019Y-74197017D01*
X127309908Y-74196925D01*
X127307526Y-74194505D01*
X126256091Y-73141288D01*
X129108068Y-70777000D01*
X143873000Y-70777000D01*
X143873000Y-84573000D01*
X143873000Y-84573000D01*
G37*
X143873000Y-84573000D02*
X139464737Y-84573000D01*
X138778173Y-83886436D01*
X138919986Y-83831430D01*
X139073479Y-83734020D01*
X139205130Y-83608651D01*
X139309921Y-83460099D01*
X139383864Y-83294022D01*
X139424140Y-83116746D01*
X139427039Y-82909103D01*
X139391729Y-82730771D01*
X139322452Y-82562694D01*
X139221849Y-82411274D01*
X139093751Y-82282278D01*
X138943037Y-82180621D01*
X138920959Y-82171340D01*
X138920959Y-81446764D01*
X139000000Y-81454549D01*
X141500000Y-81454549D01*
X141603310Y-81444374D01*
X141702650Y-81414239D01*
X141794202Y-81365304D01*
X141874448Y-81299448D01*
X141940304Y-81219202D01*
X141989239Y-81127650D01*
X142019374Y-81028310D01*
X142029549Y-80925000D01*
X142029549Y-80082874D01*
X142207707Y-79904716D01*
X142250495Y-79897171D01*
X142419986Y-79831430D01*
X142573479Y-79734020D01*
X142705130Y-79608651D01*
X142809921Y-79460099D01*
X142883864Y-79294022D01*
X142924140Y-79116746D01*
X142927039Y-78909103D01*
X142891729Y-78730771D01*
X142822452Y-78562694D01*
X142721849Y-78411274D01*
X142593751Y-78282278D01*
X142443037Y-78180621D01*
X142275448Y-78110173D01*
X142097367Y-78073618D01*
X142029549Y-78073145D01*
X142029549Y-77115000D01*
X142019374Y-77011690D01*
X141989239Y-76912350D01*
X141940304Y-76820798D01*
X141874448Y-76740552D01*
X141794202Y-76674696D01*
X141702650Y-76625761D01*
X141603310Y-76595626D01*
X141500000Y-76585451D01*
X139000000Y-76585451D01*
X138896690Y-76595626D01*
X138797350Y-76625761D01*
X138705798Y-76674696D01*
X138625552Y-76740552D01*
X138559696Y-76820798D01*
X138510761Y-76912350D01*
X138480626Y-77011690D01*
X138470451Y-77115000D01*
X138470451Y-78072127D01*
X138213809Y-78328769D01*
X138159536Y-78328390D01*
X138029549Y-78353186D01*
X138029549Y-77115000D01*
X138019374Y-77011690D01*
X137989239Y-76912350D01*
X137940304Y-76820798D01*
X137874448Y-76740552D01*
X137794202Y-76674696D01*
X137702650Y-76625761D01*
X137603310Y-76595626D01*
X137500000Y-76585451D01*
X135000000Y-76585451D01*
X134896690Y-76595626D01*
X134797350Y-76625761D01*
X134705798Y-76674696D01*
X134625552Y-76740552D01*
X134559696Y-76820798D01*
X134510761Y-76912350D01*
X134480626Y-77011690D01*
X134470451Y-77115000D01*
X134470451Y-77957127D01*
X134264093Y-78163485D01*
X134137246Y-78110164D01*
X133959165Y-78073609D01*
X133777375Y-78072340D01*
X133598801Y-78106404D01*
X133430245Y-78174506D01*
X133278126Y-78274049D01*
X133148239Y-78401244D01*
X133045531Y-78551245D01*
X132973915Y-78718338D01*
X132936118Y-78896159D01*
X132933580Y-79077936D01*
X132966397Y-79256743D01*
X133033320Y-79425771D01*
X133131799Y-79578581D01*
X133175962Y-79624314D01*
X133148453Y-79651253D01*
X133045745Y-79801254D01*
X132974129Y-79968347D01*
X132936332Y-80146168D01*
X132933794Y-80327945D01*
X132966611Y-80506752D01*
X132999366Y-80589481D01*
X132936287Y-80651253D01*
X132904743Y-80697321D01*
X131843060Y-79635638D01*
X131883864Y-79543992D01*
X131924140Y-79366716D01*
X131927039Y-79159073D01*
X131891729Y-78980741D01*
X131822452Y-78812664D01*
X131721849Y-78661244D01*
X131593751Y-78532248D01*
X131443037Y-78430591D01*
X131275448Y-78360143D01*
X131097367Y-78323588D01*
X130915577Y-78322319D01*
X130737003Y-78356383D01*
X130568447Y-78424485D01*
X130416328Y-78524028D01*
X130286441Y-78651223D01*
X130183733Y-78801224D01*
X130112117Y-78968317D01*
X130074320Y-79146138D01*
X130071782Y-79327915D01*
X130104599Y-79506722D01*
X130171522Y-79675750D01*
X130270001Y-79828560D01*
X130330304Y-79891006D01*
X130334992Y-79942512D01*
X130335661Y-79944785D01*
X130335893Y-79947152D01*
X130354343Y-80008262D01*
X130372297Y-80069264D01*
X130373395Y-80071364D01*
X130374082Y-80073640D01*
X130404044Y-80129990D01*
X130433511Y-80186355D01*
X130434996Y-80188202D01*
X130436112Y-80190301D01*
X130476392Y-80239689D01*
X130516302Y-80289327D01*
X130518122Y-80290854D01*
X130519621Y-80292692D01*
X130568661Y-80333262D01*
X130617517Y-80374257D01*
X130619599Y-80375402D01*
X130621426Y-80376913D01*
X130677387Y-80407171D01*
X130727053Y-80434475D01*
X132642596Y-82350018D01*
X121476700Y-82408351D01*
X121476700Y-78784984D01*
X123472755Y-75989696D01*
X124492200Y-77009141D01*
X124534129Y-77043582D01*
X124575878Y-77078366D01*
X124577658Y-77079336D01*
X124579218Y-77080618D01*
X124627068Y-77106275D01*
X124674748Y-77132271D01*
X124676675Y-77132875D01*
X124678462Y-77133833D01*
X124730511Y-77149746D01*
X124782206Y-77165946D01*
X124784212Y-77166164D01*
X124786152Y-77166757D01*
X124840236Y-77172251D01*
X124894158Y-77178109D01*
X124896174Y-77177933D01*
X124898186Y-77178137D01*
X124952306Y-77173021D01*
X125006340Y-77168293D01*
X125008278Y-77167730D01*
X125010298Y-77167539D01*
X125062412Y-77152003D01*
X125114480Y-77136876D01*
X125116276Y-77135945D01*
X125118215Y-77135367D01*
X125166298Y-77110016D01*
X125214457Y-77085053D01*
X125216035Y-77083793D01*
X125217828Y-77082848D01*
X125260087Y-77048627D01*
X125302465Y-77014797D01*
X125305230Y-77012070D01*
X125305343Y-77011979D01*
X125305436Y-77011868D01*
X125308201Y-77009141D01*
X127307181Y-75010160D01*
X127341473Y-74968412D01*
X127376131Y-74926886D01*
X127377220Y-74924893D01*
X127378658Y-74923142D01*
X127404213Y-74875483D01*
X127430120Y-74828061D01*
X127430799Y-74825901D01*
X127431873Y-74823898D01*
X127447712Y-74772091D01*
X127463886Y-74720632D01*
X127464132Y-74718382D01*
X127464797Y-74716208D01*
X127470269Y-74662338D01*
X127476143Y-74608691D01*
X127475947Y-74606434D01*
X127476177Y-74604174D01*
X127473420Y-74575000D01*
X134470451Y-74575000D01*
X134470451Y-75845000D01*
X134480626Y-75948310D01*
X134510761Y-76047650D01*
X134559696Y-76139202D01*
X134625552Y-76219448D01*
X134705798Y-76285304D01*
X134797350Y-76334239D01*
X134896690Y-76364374D01*
X135000000Y-76374549D01*
X137500000Y-76374549D01*
X137603310Y-76364374D01*
X137702650Y-76334239D01*
X137794202Y-76285304D01*
X137874448Y-76219448D01*
X137940304Y-76139202D01*
X137989239Y-76047650D01*
X138019374Y-75948310D01*
X138029549Y-75845000D01*
X138029549Y-75454750D01*
X138473000Y-75454750D01*
X138473000Y-75936905D01*
X138493252Y-76038720D01*
X138532979Y-76134628D01*
X138590652Y-76220943D01*
X138664057Y-76294348D01*
X138750372Y-76352021D01*
X138846280Y-76391748D01*
X138948095Y-76412000D01*
X140045250Y-76412000D01*
X140177000Y-76280250D01*
X140177000Y-75323000D01*
X140323000Y-75323000D01*
X140323000Y-76280250D01*
X140454750Y-76412000D01*
X141551905Y-76412000D01*
X141653720Y-76391748D01*
X141749628Y-76352021D01*
X141835943Y-76294348D01*
X141909348Y-76220943D01*
X141967021Y-76134628D01*
X142006748Y-76038720D01*
X142027000Y-75936905D01*
X142027000Y-75454750D01*
X141895250Y-75323000D01*
X140323000Y-75323000D01*
X140177000Y-75323000D01*
X138604750Y-75323000D01*
X138473000Y-75454750D01*
X138029549Y-75454750D01*
X138029549Y-74575000D01*
X138028377Y-74563095D01*
X138473000Y-74563095D01*
X138473000Y-75045250D01*
X138604750Y-75177000D01*
X140177000Y-75177000D01*
X140177000Y-74219750D01*
X140323000Y-74219750D01*
X140323000Y-75177000D01*
X141895250Y-75177000D01*
X142027000Y-75045250D01*
X142027000Y-74563095D01*
X142006748Y-74461280D01*
X141967021Y-74365372D01*
X141909348Y-74279057D01*
X141835943Y-74205652D01*
X141749628Y-74147979D01*
X141653720Y-74108252D01*
X141551905Y-74088000D01*
X140454750Y-74088000D01*
X140323000Y-74219750D01*
X140177000Y-74219750D01*
X140045250Y-74088000D01*
X138948095Y-74088000D01*
X138846280Y-74108252D01*
X138750372Y-74147979D01*
X138664057Y-74205652D01*
X138590652Y-74279057D01*
X138532979Y-74365372D01*
X138493252Y-74461280D01*
X138473000Y-74563095D01*
X138028377Y-74563095D01*
X138019374Y-74471690D01*
X137989239Y-74372350D01*
X137940304Y-74280798D01*
X137874448Y-74200552D01*
X137794202Y-74134696D01*
X137702650Y-74085761D01*
X137677000Y-74077980D01*
X137677000Y-73385439D01*
X137705130Y-73358651D01*
X137809921Y-73210099D01*
X137883864Y-73044022D01*
X137924140Y-72866746D01*
X137927039Y-72659103D01*
X137891729Y-72480771D01*
X137822452Y-72312694D01*
X137721849Y-72161274D01*
X137593751Y-72032278D01*
X137443037Y-71930621D01*
X137275448Y-71860173D01*
X137097367Y-71823618D01*
X136915577Y-71822349D01*
X136737003Y-71856413D01*
X136568447Y-71924515D01*
X136416328Y-72024058D01*
X136286441Y-72151253D01*
X136183733Y-72301254D01*
X136112117Y-72468347D01*
X136074320Y-72646168D01*
X136071782Y-72827945D01*
X136104599Y-73006752D01*
X136171522Y-73175780D01*
X136270001Y-73328590D01*
X136323000Y-73383472D01*
X136323000Y-74045451D01*
X135000000Y-74045451D01*
X134896690Y-74055626D01*
X134797350Y-74085761D01*
X134705798Y-74134696D01*
X134625552Y-74200552D01*
X134559696Y-74280798D01*
X134510761Y-74372350D01*
X134480626Y-74471690D01*
X134470451Y-74575000D01*
X127473420Y-74575000D01*
X127471083Y-74550282D01*
X127466423Y-74496501D01*
X127465793Y-74494325D01*
X127465579Y-74492063D01*
X127450116Y-74440194D01*
X127435097Y-74388334D01*
X127434056Y-74386321D01*
X127433407Y-74384145D01*
X127408163Y-74336264D01*
X127383359Y-74288313D01*
X127381948Y-74286542D01*
X127380888Y-74284532D01*
X127346826Y-74242470D01*
X127313178Y-74200246D01*
X127310111Y-74197131D01*
X127310019Y-74197017D01*
X127309908Y-74196925D01*
X127307526Y-74194505D01*
X126256091Y-73141288D01*
X129108068Y-70777000D01*
X143873000Y-70777000D01*
X143873000Y-84573000D01*
M02*
