G04 #@! TF.GenerationSoftware,KiCad,Pcbnew,5.0.0-rc1-44a33f2~62~ubuntu16.04.1*
G04 #@! TF.CreationDate,2018-03-21T06:07:44+02:00*
G04 #@! TF.ProjectId,buck_led_driver,6275636B5F6C65645F6472697665722E,rev?*
G04 #@! TF.SameCoordinates,Original*
G04 #@! TF.FileFunction,Legend,Top*
G04 #@! TF.FilePolarity,Positive*
%FSLAX46Y46*%
G04 Gerber Fmt 4.6, Leading zero omitted, Abs format (unit mm)*
G04 Created by KiCad (PCBNEW 5.0.0-rc1-44a33f2~62~ubuntu16.04.1) date Wed Mar 21 06:07:44 2018*
%MOMM*%
%LPD*%
G01*
G04 APERTURE LIST*
%ADD10C,0.300000*%
%ADD11C,0.200000*%
%ADD12C,0.150000*%
%ADD13C,0.120000*%
%ADD14C,0.500000*%
%ADD15R,2.100000X2.100000*%
%ADD16C,2.800000*%
%ADD17O,2.600000X2.600000*%
%ADD18R,2.600000X2.600000*%
%ADD19C,2.000000*%
G04 APERTURE END LIST*
D10*
X153122285Y-81989514D02*
X152979428Y-81846657D01*
X152836571Y-81560942D01*
X153122285Y-80989514D01*
X152979428Y-80703800D01*
X152836571Y-80560942D01*
X152995285Y-96264314D02*
X152852428Y-96121457D01*
X152709571Y-95835742D01*
X152995285Y-95264314D01*
X152852428Y-94978600D01*
X152709571Y-94835742D01*
D11*
X165044380Y-95680952D02*
X164568190Y-96014285D01*
X165044380Y-96252380D02*
X164044380Y-96252380D01*
X164044380Y-95871428D01*
X164092000Y-95776190D01*
X164139619Y-95728571D01*
X164234857Y-95680952D01*
X164377714Y-95680952D01*
X164472952Y-95728571D01*
X164520571Y-95776190D01*
X164568190Y-95871428D01*
X164568190Y-96252380D01*
X164520571Y-95252380D02*
X164520571Y-94919047D01*
X165044380Y-94776190D02*
X165044380Y-95252380D01*
X164044380Y-95252380D01*
X164044380Y-94776190D01*
X164044380Y-94490476D02*
X165044380Y-94157142D01*
X164044380Y-93823809D01*
X164949142Y-93490476D02*
X164996761Y-93442857D01*
X165044380Y-93490476D01*
X164996761Y-93538095D01*
X164949142Y-93490476D01*
X165044380Y-93490476D01*
X164044380Y-92061904D02*
X164044380Y-91966666D01*
X164092000Y-91871428D01*
X164139619Y-91823809D01*
X164234857Y-91776190D01*
X164425333Y-91728571D01*
X164663428Y-91728571D01*
X164853904Y-91776190D01*
X164949142Y-91823809D01*
X164996761Y-91871428D01*
X165044380Y-91966666D01*
X165044380Y-92061904D01*
X164996761Y-92157142D01*
X164949142Y-92204761D01*
X164853904Y-92252380D01*
X164663428Y-92300000D01*
X164425333Y-92300000D01*
X164234857Y-92252380D01*
X164139619Y-92204761D01*
X164092000Y-92157142D01*
X164044380Y-92061904D01*
X164949142Y-91300000D02*
X164996761Y-91252380D01*
X165044380Y-91300000D01*
X164996761Y-91347619D01*
X164949142Y-91300000D01*
X165044380Y-91300000D01*
X164139619Y-90871428D02*
X164092000Y-90823809D01*
X164044380Y-90728571D01*
X164044380Y-90490476D01*
X164092000Y-90395238D01*
X164139619Y-90347619D01*
X164234857Y-90300000D01*
X164330095Y-90300000D01*
X164472952Y-90347619D01*
X165044380Y-90919047D01*
X165044380Y-90300000D01*
D12*
X173318000Y-80472000D02*
X164682000Y-80472000D01*
X164682000Y-89108000D02*
G75*
G02X164682000Y-80472000I4318000J4318000D01*
G01*
X173318000Y-80472000D02*
G75*
G02X173318000Y-89108000I-4318000J-4318000D01*
G01*
X173318000Y-89108000D02*
X164682000Y-89108000D01*
D13*
X162870000Y-87340000D02*
X159930000Y-87340000D01*
X162870000Y-87580000D02*
X159930000Y-87580000D01*
X162870000Y-87460000D02*
X159930000Y-87460000D01*
X161400000Y-93020000D02*
X161400000Y-92000000D01*
X161400000Y-85540000D02*
X161400000Y-86560000D01*
X162870000Y-92000000D02*
X162870000Y-86560000D01*
X159930000Y-92000000D02*
X162870000Y-92000000D01*
X159930000Y-86560000D02*
X159930000Y-92000000D01*
X162870000Y-86560000D02*
X159930000Y-86560000D01*
X159460000Y-82690000D02*
X159460000Y-94310000D01*
X150540000Y-82690000D02*
X150540000Y-94310000D01*
X159460000Y-82690000D02*
X155750000Y-82690000D01*
X154250000Y-82690000D02*
X150540000Y-82690000D01*
X159460000Y-94310000D02*
X155750000Y-94310000D01*
X154250000Y-94310000D02*
X150540000Y-94310000D01*
X157540000Y-80240000D02*
X161960000Y-80240000D01*
X157540000Y-82260000D02*
X161960000Y-82260000D01*
X157540000Y-80240000D02*
X157540000Y-80254000D01*
X157540000Y-82246000D02*
X157540000Y-82260000D01*
X161960000Y-80240000D02*
X161960000Y-80254000D01*
X161960000Y-82246000D02*
X161960000Y-82260000D01*
D12*
X170154600Y-91160600D02*
X170154600Y-91160600D01*
D14*
X168041911Y-91160600D02*
X170154600Y-91160600D01*
X167142000Y-90551000D02*
X167573800Y-90195400D01*
X167641985Y-90195400D02*
X174242017Y-90195400D01*
X167142000Y-96080956D02*
X167142000Y-90576400D01*
X167497600Y-96480000D02*
X167142000Y-96124400D01*
X174342000Y-96480000D02*
X167542000Y-96480000D01*
X174642000Y-96180000D02*
X174337200Y-96484800D01*
X174642000Y-90580000D02*
X174642000Y-96183646D01*
X174261000Y-90195400D02*
X174642000Y-90576400D01*
X168041255Y-92024200D02*
X170129200Y-92024200D01*
X168041986Y-92887800D02*
X170103800Y-92887800D01*
X171754800Y-91160600D02*
X173842090Y-91160600D01*
X171729400Y-92024200D02*
X173742773Y-92024200D01*
X171739879Y-92887800D02*
X173744084Y-92887800D01*
X170942000Y-93192600D02*
X170942000Y-90924000D01*
X170142136Y-94056200D02*
X168073400Y-94056200D01*
X169142000Y-94056200D02*
X169142000Y-95780000D01*
X172742000Y-94056200D02*
X172742000Y-95780019D01*
X173742141Y-94056200D02*
X171741866Y-94056200D01*
D12*
X169202380Y-84916666D02*
X169202380Y-85392857D01*
X168202380Y-85392857D01*
X169202380Y-84059523D02*
X169202380Y-84630952D01*
X169202380Y-84345238D02*
X168202380Y-84345238D01*
X168345238Y-84440476D01*
X168440476Y-84535714D01*
X168488095Y-84630952D01*
X162102380Y-90138095D02*
X161102380Y-90138095D01*
X161102380Y-89900000D01*
X161150000Y-89757142D01*
X161245238Y-89661904D01*
X161340476Y-89614285D01*
X161530952Y-89566666D01*
X161673809Y-89566666D01*
X161864285Y-89614285D01*
X161959523Y-89661904D01*
X162054761Y-89757142D01*
X162102380Y-89900000D01*
X162102380Y-90138095D01*
X161197619Y-89185714D02*
X161150000Y-89138095D01*
X161102380Y-89042857D01*
X161102380Y-88804761D01*
X161150000Y-88709523D01*
X161197619Y-88661904D01*
X161292857Y-88614285D01*
X161388095Y-88614285D01*
X161530952Y-88661904D01*
X162102380Y-89233333D01*
X162102380Y-88614285D01*
X155657142Y-90966666D02*
X155704761Y-91014285D01*
X155752380Y-91157142D01*
X155752380Y-91252380D01*
X155704761Y-91395238D01*
X155609523Y-91490476D01*
X155514285Y-91538095D01*
X155323809Y-91585714D01*
X155180952Y-91585714D01*
X154990476Y-91538095D01*
X154895238Y-91490476D01*
X154800000Y-91395238D01*
X154752380Y-91252380D01*
X154752380Y-91157142D01*
X154800000Y-91014285D01*
X154847619Y-90966666D01*
X155752380Y-90014285D02*
X155752380Y-90585714D01*
X155752380Y-90300000D02*
X154752380Y-90300000D01*
X154895238Y-90395238D01*
X154990476Y-90490476D01*
X155038095Y-90585714D01*
X159583333Y-81607142D02*
X159535714Y-81654761D01*
X159392857Y-81702380D01*
X159297619Y-81702380D01*
X159154761Y-81654761D01*
X159059523Y-81559523D01*
X159011904Y-81464285D01*
X158964285Y-81273809D01*
X158964285Y-81130952D01*
X159011904Y-80940476D01*
X159059523Y-80845238D01*
X159154761Y-80750000D01*
X159297619Y-80702380D01*
X159392857Y-80702380D01*
X159535714Y-80750000D01*
X159583333Y-80797619D01*
X159916666Y-80702380D02*
X160535714Y-80702380D01*
X160202380Y-81083333D01*
X160345238Y-81083333D01*
X160440476Y-81130952D01*
X160488095Y-81178571D01*
X160535714Y-81273809D01*
X160535714Y-81511904D01*
X160488095Y-81607142D01*
X160440476Y-81654761D01*
X160345238Y-81702380D01*
X160059523Y-81702380D01*
X159964285Y-81654761D01*
X159916666Y-81607142D01*
%LPC*%
D15*
X173250000Y-81750000D03*
X165000000Y-83750000D03*
D16*
X169000000Y-82250000D03*
X169000000Y-87250000D03*
D17*
X161400000Y-95200000D03*
D18*
X161400000Y-84200000D03*
D19*
X155000000Y-81500000D03*
X155000000Y-95500000D03*
D15*
X151200000Y-81200000D03*
X151200000Y-95500000D03*
D19*
X157250000Y-81250000D03*
X162250000Y-81250000D03*
M02*
