G04 #@! TF.GenerationSoftware,KiCad,Pcbnew,5.0.0-rc1-44a33f2~62~ubuntu16.04.1*
G04 #@! TF.CreationDate,2018-03-21T05:56:34+02:00*
G04 #@! TF.ProjectId,buck_led_driver,6275636B5F6C65645F6472697665722E,rev?*
G04 #@! TF.SameCoordinates,Original*
G04 #@! TF.FileFunction,Copper,L2,Bot,Signal*
G04 #@! TF.FilePolarity,Positive*
%FSLAX46Y46*%
G04 Gerber Fmt 4.6, Leading zero omitted, Abs format (unit mm)*
G04 Created by KiCad (PCBNEW 5.0.0-rc1-44a33f2~62~ubuntu16.04.1) date Wed Mar 21 05:56:34 2018*
%MOMM*%
%LPD*%
G01*
G04 APERTURE LIST*
%ADD10R,1.700000X1.700000*%
%ADD11C,2.400000*%
%ADD12O,2.200000X2.200000*%
%ADD13R,2.200000X2.200000*%
%ADD14C,1.600000*%
%ADD15R,2.000000X3.750000*%
%ADD16R,1.500000X0.970000*%
%ADD17R,1.000000X0.800000*%
%ADD18C,0.850000*%
%ADD19C,0.100000*%
%ADD20R,1.500000X1.000000*%
%ADD21R,1.800000X1.000000*%
%ADD22R,1.840000X2.200000*%
%ADD23C,1.000000*%
%ADD24C,0.800000*%
%ADD25C,0.500000*%
%ADD26C,1.000000*%
%ADD27C,0.800000*%
G04 APERTURE END LIST*
D10*
X173250000Y-81750000D03*
X165000000Y-83750000D03*
D11*
X169000000Y-82250000D03*
X169000000Y-87250000D03*
D12*
X161400000Y-95200000D03*
D13*
X161400000Y-84200000D03*
D14*
X155000000Y-81500000D03*
X155000000Y-95500000D03*
D10*
X151200000Y-81200000D03*
X151200000Y-95500000D03*
D15*
X160005000Y-90800000D03*
X151500000Y-90800000D03*
D16*
X172400000Y-93245000D03*
X172400000Y-95155000D03*
D17*
X152325000Y-86670000D03*
X152325000Y-84130000D03*
X158475000Y-84130000D03*
X158475000Y-86670000D03*
D18*
X165333000Y-93600000D03*
D19*
G36*
X164908000Y-93100000D02*
X165758000Y-92500000D01*
X165758000Y-94700000D01*
X164908000Y-94100000D01*
X164908000Y-93100000D01*
X164908000Y-93100000D01*
G37*
D20*
X169480000Y-92100000D03*
D21*
X169333500Y-93600000D03*
D20*
X169480000Y-95100000D03*
D22*
X166666500Y-93600000D03*
D23*
X168076200Y-93600000D03*
D19*
G36*
X168576200Y-94000000D02*
X167576200Y-94700000D01*
X167576200Y-92500000D01*
X168576200Y-93200000D01*
X168576200Y-94000000D01*
X168576200Y-94000000D01*
G37*
D14*
X157250000Y-81250000D03*
X162250000Y-81250000D03*
D24*
X157480000Y-87629988D03*
X166400000Y-93600000D03*
X167000000Y-94800000D03*
X167000000Y-96000000D03*
X165800000Y-96000000D03*
X165800000Y-94800000D03*
X167800000Y-93600000D03*
D25*
X158375000Y-86670000D02*
X157475000Y-87570000D01*
X157475000Y-87624988D02*
X157480000Y-87629988D01*
X158475000Y-86670000D02*
X158375000Y-86670000D01*
X157475000Y-87570000D02*
X157475000Y-87624988D01*
X164000000Y-88000000D02*
X164000000Y-93250000D01*
X164350000Y-93600000D02*
X166666500Y-93600000D01*
X163000000Y-87000000D02*
X164000000Y-88000000D01*
X158805000Y-87000000D02*
X163000000Y-87000000D01*
X158475000Y-86670000D02*
X158805000Y-87000000D01*
X164000000Y-93250000D02*
X164350000Y-93600000D01*
D26*
X161400000Y-84200000D02*
X164550000Y-84200000D01*
X164550000Y-84200000D02*
X165000000Y-83750000D01*
X158475000Y-84130000D02*
X161330000Y-84130000D01*
X161330000Y-84130000D02*
X161400000Y-84200000D01*
X157250000Y-81250000D02*
X157250000Y-82905000D01*
X157250000Y-82905000D02*
X158475000Y-84130000D01*
X154500000Y-81500000D02*
X157000000Y-81500000D01*
X157000000Y-81500000D02*
X157250000Y-81250000D01*
D25*
X172400000Y-93245000D02*
X171755000Y-93245000D01*
X171755000Y-93245000D02*
X171400000Y-93600000D01*
X171400000Y-93600000D02*
X169333500Y-93600000D01*
X169333500Y-93600000D02*
X168076200Y-93600000D01*
X166666500Y-93600000D02*
X165333000Y-93600000D01*
X169333500Y-93600000D02*
X166666500Y-93600000D01*
X169480000Y-95100000D02*
X172345000Y-95100000D01*
X172345000Y-95100000D02*
X172400000Y-95155000D01*
D26*
X173250000Y-81750000D02*
X172500000Y-81000000D01*
X172500000Y-81000000D02*
X170250000Y-81000000D01*
X170250000Y-81000000D02*
X169000000Y-82250000D01*
X162250000Y-81250000D02*
X162600000Y-80900000D01*
X162600000Y-80900000D02*
X167650000Y-80900000D01*
X167650000Y-80900000D02*
X169000000Y-82250000D01*
D27*
X152325000Y-86670000D02*
X153472000Y-86670000D01*
X158505000Y-90800000D02*
X160005000Y-90800000D01*
X157602000Y-90800000D02*
X158505000Y-90800000D01*
X153472000Y-86670000D02*
X157602000Y-90800000D01*
X151200000Y-81200000D02*
X151200000Y-83005000D01*
X151200000Y-83005000D02*
X152325000Y-84130000D01*
D26*
X169480000Y-92100000D02*
X169480000Y-87730000D01*
X169480000Y-87730000D02*
X169000000Y-87250000D01*
D27*
X151200000Y-95500000D02*
X151200000Y-91100000D01*
X151200000Y-91100000D02*
X151500000Y-90800000D01*
D19*
G36*
X162828439Y-86938902D02*
X167350000Y-90168589D01*
X167350000Y-96775000D01*
X163825000Y-96775000D01*
X163825000Y-94011037D01*
X163826087Y-94000000D01*
X163825000Y-93988963D01*
X163825000Y-93988953D01*
X163821744Y-93955892D01*
X163808878Y-93913480D01*
X163802605Y-93901744D01*
X163803500Y-92837042D01*
X163802547Y-92827287D01*
X163799710Y-92817905D01*
X163795097Y-92809256D01*
X163788885Y-92801674D01*
X163781313Y-92795450D01*
X163772673Y-92790822D01*
X163763296Y-92787969D01*
X163753500Y-92787000D01*
X162737000Y-92787000D01*
X162737000Y-86937780D01*
X162828439Y-86938902D01*
X162828439Y-86938902D01*
G37*
X162828439Y-86938902D02*
X167350000Y-90168589D01*
X167350000Y-96775000D01*
X163825000Y-96775000D01*
X163825000Y-94011037D01*
X163826087Y-94000000D01*
X163825000Y-93988963D01*
X163825000Y-93988953D01*
X163821744Y-93955892D01*
X163808878Y-93913480D01*
X163802605Y-93901744D01*
X163803500Y-92837042D01*
X163802547Y-92827287D01*
X163799710Y-92817905D01*
X163795097Y-92809256D01*
X163788885Y-92801674D01*
X163781313Y-92795450D01*
X163772673Y-92790822D01*
X163763296Y-92787969D01*
X163753500Y-92787000D01*
X162737000Y-92787000D01*
X162737000Y-86937780D01*
X162828439Y-86938902D01*
M02*
