G04 #@! TF.GenerationSoftware,KiCad,Pcbnew,(2017-11-08 revision cd21218)-HEAD*
G04 #@! TF.CreationDate,2018-02-05T18:12:23+02:00*
G04 #@! TF.ProjectId,esp8266_uno_relay,657370383236365F756E6F5F72656C61,rev?*
G04 #@! TF.SameCoordinates,Original*
G04 #@! TF.FileFunction,Legend,Top*
G04 #@! TF.FilePolarity,Positive*
%FSLAX46Y46*%
G04 Gerber Fmt 4.6, Leading zero omitted, Abs format (unit mm)*
G04 Created by KiCad (PCBNEW (2017-11-08 revision cd21218)-HEAD) date Mon Feb  5 18:12:23 2018*
%MOMM*%
%LPD*%
G01*
G04 APERTURE LIST*
%ADD10C,0.300000*%
%ADD11C,0.150000*%
%ADD12C,0.500000*%
%ADD13C,0.100000*%
%ADD14C,0.120000*%
%ADD15C,3.600000*%
%ADD16C,4.600000*%
%ADD17C,2.800000*%
%ADD18O,2.000000X2.000000*%
%ADD19R,2.000000X2.000000*%
%ADD20R,1.670000X1.370000*%
%ADD21R,2.900000X2.900000*%
%ADD22C,2.900000*%
%ADD23R,1.200000X1.300000*%
%ADD24R,1.900000X1.700000*%
%ADD25C,2.400000*%
G04 APERTURE END LIST*
D10*
X107678571Y-116428571D02*
X107178571Y-115714285D01*
X106821428Y-116428571D02*
X106821428Y-114928571D01*
X107392857Y-114928571D01*
X107535714Y-115000000D01*
X107607142Y-115071428D01*
X107678571Y-115214285D01*
X107678571Y-115428571D01*
X107607142Y-115571428D01*
X107535714Y-115642857D01*
X107392857Y-115714285D01*
X106821428Y-115714285D01*
X108321428Y-115642857D02*
X108821428Y-115642857D01*
X109035714Y-116428571D02*
X108321428Y-116428571D01*
X108321428Y-114928571D01*
X109035714Y-114928571D01*
X109464285Y-114928571D02*
X109964285Y-116428571D01*
X110464285Y-114928571D01*
X110964285Y-116285714D02*
X111035714Y-116357142D01*
X110964285Y-116428571D01*
X110892857Y-116357142D01*
X110964285Y-116285714D01*
X110964285Y-116428571D01*
X113107142Y-114928571D02*
X113250000Y-114928571D01*
X113392857Y-115000000D01*
X113464285Y-115071428D01*
X113535714Y-115214285D01*
X113607142Y-115500000D01*
X113607142Y-115857142D01*
X113535714Y-116142857D01*
X113464285Y-116285714D01*
X113392857Y-116357142D01*
X113250000Y-116428571D01*
X113107142Y-116428571D01*
X112964285Y-116357142D01*
X112892857Y-116285714D01*
X112821428Y-116142857D01*
X112750000Y-115857142D01*
X112750000Y-115500000D01*
X112821428Y-115214285D01*
X112892857Y-115071428D01*
X112964285Y-115000000D01*
X113107142Y-114928571D01*
X114250000Y-116285714D02*
X114321428Y-116357142D01*
X114250000Y-116428571D01*
X114178571Y-116357142D01*
X114250000Y-116285714D01*
X114250000Y-116428571D01*
X115750000Y-116428571D02*
X114892857Y-116428571D01*
X115321428Y-116428571D02*
X115321428Y-114928571D01*
X115178571Y-115142857D01*
X115035714Y-115285714D01*
X114892857Y-115357142D01*
D11*
X168982380Y-98488095D02*
X167982380Y-98488095D01*
X167982380Y-98250000D01*
X168030000Y-98107142D01*
X168125238Y-98011904D01*
X168220476Y-97964285D01*
X168410952Y-97916666D01*
X168553809Y-97916666D01*
X168744285Y-97964285D01*
X168839523Y-98011904D01*
X168934761Y-98107142D01*
X168982380Y-98250000D01*
X168982380Y-98488095D01*
X167982380Y-97297619D02*
X167982380Y-97202380D01*
X168030000Y-97107142D01*
X168077619Y-97059523D01*
X168172857Y-97011904D01*
X168363333Y-96964285D01*
X168601428Y-96964285D01*
X168791904Y-97011904D01*
X168887142Y-97059523D01*
X168934761Y-97107142D01*
X168982380Y-97202380D01*
X168982380Y-97297619D01*
X168934761Y-97392857D01*
X168887142Y-97440476D01*
X168791904Y-97488095D01*
X168601428Y-97535714D01*
X168363333Y-97535714D01*
X168172857Y-97488095D01*
X168077619Y-97440476D01*
X168030000Y-97392857D01*
X167982380Y-97297619D01*
X166442380Y-98488095D02*
X165442380Y-98488095D01*
X165442380Y-98250000D01*
X165490000Y-98107142D01*
X165585238Y-98011904D01*
X165680476Y-97964285D01*
X165870952Y-97916666D01*
X166013809Y-97916666D01*
X166204285Y-97964285D01*
X166299523Y-98011904D01*
X166394761Y-98107142D01*
X166442380Y-98250000D01*
X166442380Y-98488095D01*
X166442380Y-96964285D02*
X166442380Y-97535714D01*
X166442380Y-97250000D02*
X165442380Y-97250000D01*
X165585238Y-97345238D01*
X165680476Y-97440476D01*
X165728095Y-97535714D01*
X163902380Y-98488095D02*
X162902380Y-98488095D01*
X162902380Y-98250000D01*
X162950000Y-98107142D01*
X163045238Y-98011904D01*
X163140476Y-97964285D01*
X163330952Y-97916666D01*
X163473809Y-97916666D01*
X163664285Y-97964285D01*
X163759523Y-98011904D01*
X163854761Y-98107142D01*
X163902380Y-98250000D01*
X163902380Y-98488095D01*
X162997619Y-97535714D02*
X162950000Y-97488095D01*
X162902380Y-97392857D01*
X162902380Y-97154761D01*
X162950000Y-97059523D01*
X162997619Y-97011904D01*
X163092857Y-96964285D01*
X163188095Y-96964285D01*
X163330952Y-97011904D01*
X163902380Y-97583333D01*
X163902380Y-96964285D01*
X161362380Y-98488095D02*
X160362380Y-98488095D01*
X160362380Y-98250000D01*
X160410000Y-98107142D01*
X160505238Y-98011904D01*
X160600476Y-97964285D01*
X160790952Y-97916666D01*
X160933809Y-97916666D01*
X161124285Y-97964285D01*
X161219523Y-98011904D01*
X161314761Y-98107142D01*
X161362380Y-98250000D01*
X161362380Y-98488095D01*
X160362380Y-97583333D02*
X160362380Y-96964285D01*
X160743333Y-97297619D01*
X160743333Y-97154761D01*
X160790952Y-97059523D01*
X160838571Y-97011904D01*
X160933809Y-96964285D01*
X161171904Y-96964285D01*
X161267142Y-97011904D01*
X161314761Y-97059523D01*
X161362380Y-97154761D01*
X161362380Y-97440476D01*
X161314761Y-97535714D01*
X161267142Y-97583333D01*
X158822380Y-98488095D02*
X157822380Y-98488095D01*
X157822380Y-98250000D01*
X157870000Y-98107142D01*
X157965238Y-98011904D01*
X158060476Y-97964285D01*
X158250952Y-97916666D01*
X158393809Y-97916666D01*
X158584285Y-97964285D01*
X158679523Y-98011904D01*
X158774761Y-98107142D01*
X158822380Y-98250000D01*
X158822380Y-98488095D01*
X158155714Y-97059523D02*
X158822380Y-97059523D01*
X157774761Y-97297619D02*
X158489047Y-97535714D01*
X158489047Y-96916666D01*
X156282380Y-98488095D02*
X155282380Y-98488095D01*
X155282380Y-98250000D01*
X155330000Y-98107142D01*
X155425238Y-98011904D01*
X155520476Y-97964285D01*
X155710952Y-97916666D01*
X155853809Y-97916666D01*
X156044285Y-97964285D01*
X156139523Y-98011904D01*
X156234761Y-98107142D01*
X156282380Y-98250000D01*
X156282380Y-98488095D01*
X155282380Y-97011904D02*
X155282380Y-97488095D01*
X155758571Y-97535714D01*
X155710952Y-97488095D01*
X155663333Y-97392857D01*
X155663333Y-97154761D01*
X155710952Y-97059523D01*
X155758571Y-97011904D01*
X155853809Y-96964285D01*
X156091904Y-96964285D01*
X156187142Y-97011904D01*
X156234761Y-97059523D01*
X156282380Y-97154761D01*
X156282380Y-97392857D01*
X156234761Y-97488095D01*
X156187142Y-97535714D01*
X153742380Y-98488095D02*
X152742380Y-98488095D01*
X152742380Y-98250000D01*
X152790000Y-98107142D01*
X152885238Y-98011904D01*
X152980476Y-97964285D01*
X153170952Y-97916666D01*
X153313809Y-97916666D01*
X153504285Y-97964285D01*
X153599523Y-98011904D01*
X153694761Y-98107142D01*
X153742380Y-98250000D01*
X153742380Y-98488095D01*
X152742380Y-97059523D02*
X152742380Y-97250000D01*
X152790000Y-97345238D01*
X152837619Y-97392857D01*
X152980476Y-97488095D01*
X153170952Y-97535714D01*
X153551904Y-97535714D01*
X153647142Y-97488095D01*
X153694761Y-97440476D01*
X153742380Y-97345238D01*
X153742380Y-97154761D01*
X153694761Y-97059523D01*
X153647142Y-97011904D01*
X153551904Y-96964285D01*
X153313809Y-96964285D01*
X153218571Y-97011904D01*
X153170952Y-97059523D01*
X153123333Y-97154761D01*
X153123333Y-97345238D01*
X153170952Y-97440476D01*
X153218571Y-97488095D01*
X153313809Y-97535714D01*
X151202380Y-98488095D02*
X150202380Y-98488095D01*
X150202380Y-98250000D01*
X150250000Y-98107142D01*
X150345238Y-98011904D01*
X150440476Y-97964285D01*
X150630952Y-97916666D01*
X150773809Y-97916666D01*
X150964285Y-97964285D01*
X151059523Y-98011904D01*
X151154761Y-98107142D01*
X151202380Y-98250000D01*
X151202380Y-98488095D01*
X150202380Y-97583333D02*
X150202380Y-96916666D01*
X151202380Y-97345238D01*
X147202380Y-98488095D02*
X146202380Y-98488095D01*
X146202380Y-98250000D01*
X146250000Y-98107142D01*
X146345238Y-98011904D01*
X146440476Y-97964285D01*
X146630952Y-97916666D01*
X146773809Y-97916666D01*
X146964285Y-97964285D01*
X147059523Y-98011904D01*
X147154761Y-98107142D01*
X147202380Y-98250000D01*
X147202380Y-98488095D01*
X146630952Y-97345238D02*
X146583333Y-97440476D01*
X146535714Y-97488095D01*
X146440476Y-97535714D01*
X146392857Y-97535714D01*
X146297619Y-97488095D01*
X146250000Y-97440476D01*
X146202380Y-97345238D01*
X146202380Y-97154761D01*
X146250000Y-97059523D01*
X146297619Y-97011904D01*
X146392857Y-96964285D01*
X146440476Y-96964285D01*
X146535714Y-97011904D01*
X146583333Y-97059523D01*
X146630952Y-97154761D01*
X146630952Y-97345238D01*
X146678571Y-97440476D01*
X146726190Y-97488095D01*
X146821428Y-97535714D01*
X147011904Y-97535714D01*
X147107142Y-97488095D01*
X147154761Y-97440476D01*
X147202380Y-97345238D01*
X147202380Y-97154761D01*
X147154761Y-97059523D01*
X147107142Y-97011904D01*
X147011904Y-96964285D01*
X146821428Y-96964285D01*
X146726190Y-97011904D01*
X146678571Y-97059523D01*
X146630952Y-97154761D01*
X155916666Y-141714285D02*
X155916666Y-141238095D01*
X156202380Y-141809523D02*
X155202380Y-141476190D01*
X156202380Y-141142857D01*
X155202380Y-140619047D02*
X155202380Y-140523809D01*
X155250000Y-140428571D01*
X155297619Y-140380952D01*
X155392857Y-140333333D01*
X155583333Y-140285714D01*
X155821428Y-140285714D01*
X156011904Y-140333333D01*
X156107142Y-140380952D01*
X156154761Y-140428571D01*
X156202380Y-140523809D01*
X156202380Y-140619047D01*
X156154761Y-140714285D01*
X156107142Y-140761904D01*
X156011904Y-140809523D01*
X155821428Y-140857142D01*
X155583333Y-140857142D01*
X155392857Y-140809523D01*
X155297619Y-140761904D01*
X155250000Y-140714285D01*
X155202380Y-140619047D01*
X147750000Y-141761904D02*
X147702380Y-141857142D01*
X147702380Y-142000000D01*
X147750000Y-142142857D01*
X147845238Y-142238095D01*
X147940476Y-142285714D01*
X148130952Y-142333333D01*
X148273809Y-142333333D01*
X148464285Y-142285714D01*
X148559523Y-142238095D01*
X148654761Y-142142857D01*
X148702380Y-142000000D01*
X148702380Y-141904761D01*
X148654761Y-141761904D01*
X148607142Y-141714285D01*
X148273809Y-141714285D01*
X148273809Y-141904761D01*
X148702380Y-141285714D02*
X147702380Y-141285714D01*
X148702380Y-140714285D01*
X147702380Y-140714285D01*
X148702380Y-140238095D02*
X147702380Y-140238095D01*
X147702380Y-140000000D01*
X147750000Y-139857142D01*
X147845238Y-139761904D01*
X147940476Y-139714285D01*
X148130952Y-139666666D01*
X148273809Y-139666666D01*
X148464285Y-139714285D01*
X148559523Y-139761904D01*
X148654761Y-139857142D01*
X148702380Y-140000000D01*
X148702380Y-140238095D01*
X145250000Y-141761904D02*
X145202380Y-141857142D01*
X145202380Y-142000000D01*
X145250000Y-142142857D01*
X145345238Y-142238095D01*
X145440476Y-142285714D01*
X145630952Y-142333333D01*
X145773809Y-142333333D01*
X145964285Y-142285714D01*
X146059523Y-142238095D01*
X146154761Y-142142857D01*
X146202380Y-142000000D01*
X146202380Y-141904761D01*
X146154761Y-141761904D01*
X146107142Y-141714285D01*
X145773809Y-141714285D01*
X145773809Y-141904761D01*
X146202380Y-141285714D02*
X145202380Y-141285714D01*
X146202380Y-140714285D01*
X145202380Y-140714285D01*
X146202380Y-140238095D02*
X145202380Y-140238095D01*
X145202380Y-140000000D01*
X145250000Y-139857142D01*
X145345238Y-139761904D01*
X145440476Y-139714285D01*
X145630952Y-139666666D01*
X145773809Y-139666666D01*
X145964285Y-139714285D01*
X146059523Y-139761904D01*
X146154761Y-139857142D01*
X146202380Y-140000000D01*
X146202380Y-140238095D01*
X138452380Y-141702380D02*
X137976190Y-142035714D01*
X138452380Y-142273809D02*
X137452380Y-142273809D01*
X137452380Y-141892857D01*
X137500000Y-141797619D01*
X137547619Y-141750000D01*
X137642857Y-141702380D01*
X137785714Y-141702380D01*
X137880952Y-141750000D01*
X137928571Y-141797619D01*
X137976190Y-141892857D01*
X137976190Y-142273809D01*
X137928571Y-141273809D02*
X137928571Y-140940476D01*
X138452380Y-140797619D02*
X138452380Y-141273809D01*
X137452380Y-141273809D01*
X137452380Y-140797619D01*
X138404761Y-140416666D02*
X138452380Y-140273809D01*
X138452380Y-140035714D01*
X138404761Y-139940476D01*
X138357142Y-139892857D01*
X138261904Y-139845238D01*
X138166666Y-139845238D01*
X138071428Y-139892857D01*
X138023809Y-139940476D01*
X137976190Y-140035714D01*
X137928571Y-140226190D01*
X137880952Y-140321428D01*
X137833333Y-140369047D01*
X137738095Y-140416666D01*
X137642857Y-140416666D01*
X137547619Y-140369047D01*
X137500000Y-140321428D01*
X137452380Y-140226190D01*
X137452380Y-139988095D01*
X137500000Y-139845238D01*
X137928571Y-139416666D02*
X137928571Y-139083333D01*
X138452380Y-138940476D02*
X138452380Y-139416666D01*
X137452380Y-139416666D01*
X137452380Y-138940476D01*
X137452380Y-138654761D02*
X137452380Y-138083333D01*
X138452380Y-138369047D02*
X137452380Y-138369047D01*
X142702380Y-141440476D02*
X142702380Y-141916666D01*
X143178571Y-141964285D01*
X143130952Y-141916666D01*
X143083333Y-141821428D01*
X143083333Y-141583333D01*
X143130952Y-141488095D01*
X143178571Y-141440476D01*
X143273809Y-141392857D01*
X143511904Y-141392857D01*
X143607142Y-141440476D01*
X143654761Y-141488095D01*
X143702380Y-141583333D01*
X143702380Y-141821428D01*
X143654761Y-141916666D01*
X143607142Y-141964285D01*
X142702380Y-141107142D02*
X143702380Y-140773809D01*
X142702380Y-140440476D01*
D10*
X108250000Y-137428571D02*
X109178571Y-137428571D01*
X108678571Y-138000000D01*
X108892857Y-138000000D01*
X109035714Y-138071428D01*
X109107142Y-138142857D01*
X109178571Y-138285714D01*
X109178571Y-138642857D01*
X109107142Y-138785714D01*
X109035714Y-138857142D01*
X108892857Y-138928571D01*
X108464285Y-138928571D01*
X108321428Y-138857142D01*
X108250000Y-138785714D01*
X110107142Y-137428571D02*
X110250000Y-137428571D01*
X110392857Y-137500000D01*
X110464285Y-137571428D01*
X110535714Y-137714285D01*
X110607142Y-138000000D01*
X110607142Y-138357142D01*
X110535714Y-138642857D01*
X110464285Y-138785714D01*
X110392857Y-138857142D01*
X110250000Y-138928571D01*
X110107142Y-138928571D01*
X109964285Y-138857142D01*
X109892857Y-138785714D01*
X109821428Y-138642857D01*
X109750000Y-138357142D01*
X109750000Y-138000000D01*
X109821428Y-137714285D01*
X109892857Y-137571428D01*
X109964285Y-137500000D01*
X110107142Y-137428571D01*
X111178571Y-138500000D02*
X111892857Y-138500000D01*
X111035714Y-138928571D02*
X111535714Y-137428571D01*
X112035714Y-138928571D01*
X114535714Y-138928571D02*
X114035714Y-138214285D01*
X113678571Y-138928571D02*
X113678571Y-137428571D01*
X114250000Y-137428571D01*
X114392857Y-137500000D01*
X114464285Y-137571428D01*
X114535714Y-137714285D01*
X114535714Y-137928571D01*
X114464285Y-138071428D01*
X114392857Y-138142857D01*
X114250000Y-138214285D01*
X113678571Y-138214285D01*
X115750000Y-138857142D02*
X115607142Y-138928571D01*
X115321428Y-138928571D01*
X115178571Y-138857142D01*
X115107142Y-138714285D01*
X115107142Y-138142857D01*
X115178571Y-138000000D01*
X115321428Y-137928571D01*
X115607142Y-137928571D01*
X115750000Y-138000000D01*
X115821428Y-138142857D01*
X115821428Y-138285714D01*
X115107142Y-138428571D01*
X116678571Y-138928571D02*
X116535714Y-138857142D01*
X116464285Y-138714285D01*
X116464285Y-137428571D01*
X117892857Y-138928571D02*
X117892857Y-138142857D01*
X117821428Y-138000000D01*
X117678571Y-137928571D01*
X117392857Y-137928571D01*
X117250000Y-138000000D01*
X117892857Y-138857142D02*
X117750000Y-138928571D01*
X117392857Y-138928571D01*
X117250000Y-138857142D01*
X117178571Y-138714285D01*
X117178571Y-138571428D01*
X117250000Y-138428571D01*
X117392857Y-138357142D01*
X117750000Y-138357142D01*
X117892857Y-138285714D01*
X118464285Y-137928571D02*
X118821428Y-138928571D01*
X119178571Y-137928571D02*
X118821428Y-138928571D01*
X118678571Y-139285714D01*
X118607142Y-139357142D01*
X118464285Y-139428571D01*
X120821428Y-138857142D02*
X121035714Y-138928571D01*
X121392857Y-138928571D01*
X121535714Y-138857142D01*
X121607142Y-138785714D01*
X121678571Y-138642857D01*
X121678571Y-138500000D01*
X121607142Y-138357142D01*
X121535714Y-138285714D01*
X121392857Y-138214285D01*
X121107142Y-138142857D01*
X120964285Y-138071428D01*
X120892857Y-138000000D01*
X120821428Y-137857142D01*
X120821428Y-137714285D01*
X120892857Y-137571428D01*
X120964285Y-137500000D01*
X121107142Y-137428571D01*
X121464285Y-137428571D01*
X121678571Y-137500000D01*
X122321428Y-138928571D02*
X122321428Y-137428571D01*
X122964285Y-138928571D02*
X122964285Y-138142857D01*
X122892857Y-138000000D01*
X122750000Y-137928571D01*
X122535714Y-137928571D01*
X122392857Y-138000000D01*
X122321428Y-138071428D01*
X123678571Y-138928571D02*
X123678571Y-137928571D01*
X123678571Y-137428571D02*
X123607142Y-137500000D01*
X123678571Y-137571428D01*
X123750000Y-137500000D01*
X123678571Y-137428571D01*
X123678571Y-137571428D01*
X124964285Y-138857142D02*
X124821428Y-138928571D01*
X124535714Y-138928571D01*
X124392857Y-138857142D01*
X124321428Y-138714285D01*
X124321428Y-138142857D01*
X124392857Y-138000000D01*
X124535714Y-137928571D01*
X124821428Y-137928571D01*
X124964285Y-138000000D01*
X125035714Y-138142857D01*
X125035714Y-138285714D01*
X124321428Y-138428571D01*
X125892857Y-138928571D02*
X125750000Y-138857142D01*
X125678571Y-138714285D01*
X125678571Y-137428571D01*
X127107142Y-138928571D02*
X127107142Y-137428571D01*
X127107142Y-138857142D02*
X126964285Y-138928571D01*
X126678571Y-138928571D01*
X126535714Y-138857142D01*
X126464285Y-138785714D01*
X126392857Y-138642857D01*
X126392857Y-138214285D01*
X126464285Y-138071428D01*
X126535714Y-138000000D01*
X126678571Y-137928571D01*
X126964285Y-137928571D01*
X127107142Y-138000000D01*
D11*
X110712600Y-108430600D02*
X110712600Y-108430600D01*
D12*
X108599911Y-108430600D02*
X110712600Y-108430600D01*
X107700000Y-107821000D02*
X108131800Y-107465400D01*
X108199985Y-107465400D02*
X114800017Y-107465400D01*
X107700000Y-113350956D02*
X107700000Y-107846400D01*
X108055600Y-113750000D02*
X107700000Y-113394400D01*
X114900000Y-113750000D02*
X108100000Y-113750000D01*
X115200000Y-113450000D02*
X114895200Y-113754800D01*
X115200000Y-107850000D02*
X115200000Y-113453646D01*
X114819000Y-107465400D02*
X115200000Y-107846400D01*
X108599255Y-109294200D02*
X110687200Y-109294200D01*
X108599986Y-110157800D02*
X110661800Y-110157800D01*
X112312800Y-108430600D02*
X114400090Y-108430600D01*
X112287400Y-109294200D02*
X114300773Y-109294200D01*
X112297879Y-110157800D02*
X114302084Y-110157800D01*
X111500000Y-110462600D02*
X111500000Y-108194000D01*
X110700136Y-111326200D02*
X108631400Y-111326200D01*
X109700000Y-111326200D02*
X109700000Y-113050000D01*
X113300000Y-111326200D02*
X113300000Y-113050019D01*
X114300141Y-111326200D02*
X112299866Y-111326200D01*
D13*
X141466251Y-130655681D02*
G75*
G03X142204600Y-131394030I738349J0D01*
G01*
X146274579Y-124952718D02*
X146274579Y-123941447D01*
X145963101Y-109225569D02*
G75*
G03X146795967Y-108446629I-21468J857686D01*
G01*
X156211040Y-113052490D02*
X154655432Y-113052490D01*
X140731400Y-129385681D02*
X128447657Y-129385681D01*
X145952368Y-109225562D02*
X128360000Y-109225562D01*
X141464790Y-130655682D02*
X141464790Y-130296911D01*
X158207410Y-131392314D02*
G75*
G03X159503036Y-130147681I49990J1244633D01*
G01*
X136087396Y-119385978D02*
G75*
G02X135976423Y-122162988I-85784J-1387294D01*
G01*
X135866034Y-122163004D02*
G75*
G02X135756289Y-124940054I67829J-1393374D01*
G01*
X153052146Y-117163880D02*
X146274579Y-123941447D01*
X141473569Y-130275227D02*
G75*
G03X140706000Y-129385681I-869169J25946D01*
G01*
X159501346Y-105045022D02*
G75*
G03X158474127Y-104110129I-938953J98D01*
G01*
X159508224Y-130122281D02*
X159508224Y-104970080D01*
X150322192Y-113052490D02*
X151544214Y-113052490D01*
X127521907Y-128521575D02*
G75*
G03X128437800Y-129385681I865093J-506D01*
G01*
X142179200Y-131392281D02*
X158230000Y-131392281D01*
X128360000Y-109230116D02*
G75*
G03X127510000Y-110220000I0J-859884D01*
G01*
X127508224Y-128547483D02*
X127508224Y-110225562D01*
X153656647Y-116775283D02*
G75*
G03X153656647Y-116775283I-445911J0D01*
G01*
X158501903Y-104110129D02*
X147655632Y-104110129D01*
X153211018Y-116274621D02*
X153552146Y-112413880D01*
X136087396Y-113831844D02*
G75*
G02X135976423Y-116608854I-85784J-1387294D01*
G01*
X146795967Y-108446629D02*
X146795967Y-104969794D01*
X147655632Y-104110129D02*
G75*
G03X146795967Y-104969794I0J-859665D01*
G01*
X136087396Y-116608911D02*
G75*
G02X135976423Y-119385921I-85784J-1387294D01*
G01*
X154655714Y-113052772D02*
G75*
G03X154655714Y-113052772I-445911J0D01*
G01*
X152434625Y-113052772D02*
G75*
G03X152434625Y-113052772I-445911J0D01*
G01*
D14*
X123940000Y-121480000D02*
X126060000Y-121480000D01*
X126060000Y-121480000D02*
X126060000Y-117360000D01*
X126060000Y-117360000D02*
X123940000Y-117360000D01*
X123940000Y-117360000D02*
X123940000Y-121480000D01*
X125000000Y-123520000D02*
X125000000Y-121480000D01*
X125000000Y-115320000D02*
X125000000Y-117360000D01*
X123940000Y-120820000D02*
X126060000Y-120820000D01*
X169500000Y-101690000D02*
X169500000Y-99150000D01*
X167720000Y-99150000D02*
X167720000Y-101690000D01*
X167720000Y-99150000D02*
X169500000Y-99150000D01*
X169500000Y-101690000D02*
X167720000Y-101690000D01*
X166960000Y-101690000D02*
X165180000Y-101690000D01*
X165180000Y-99150000D02*
X166960000Y-99150000D01*
X165180000Y-99150000D02*
X165180000Y-101690000D01*
X166960000Y-101690000D02*
X166960000Y-99150000D01*
X164420000Y-101690000D02*
X164420000Y-99150000D01*
X162640000Y-99150000D02*
X162640000Y-101690000D01*
X162640000Y-99150000D02*
X164420000Y-99150000D01*
X164420000Y-101690000D02*
X162640000Y-101690000D01*
X161880000Y-101690000D02*
X160100000Y-101690000D01*
X160100000Y-99150000D02*
X161880000Y-99150000D01*
X160100000Y-99150000D02*
X160100000Y-101690000D01*
X161880000Y-101690000D02*
X161880000Y-99150000D01*
X159340000Y-101690000D02*
X159340000Y-99150000D01*
X157560000Y-99150000D02*
X157560000Y-101690000D01*
X157560000Y-99150000D02*
X159340000Y-99150000D01*
X159340000Y-101690000D02*
X157560000Y-101690000D01*
X156800000Y-101690000D02*
X155020000Y-101690000D01*
X155020000Y-99150000D02*
X156800000Y-99150000D01*
X155020000Y-99150000D02*
X155020000Y-101690000D01*
X156800000Y-101690000D02*
X156800000Y-99150000D01*
X154260000Y-101690000D02*
X154260000Y-99150000D01*
X152480000Y-99150000D02*
X152480000Y-101690000D01*
X152480000Y-99150000D02*
X154260000Y-99150000D01*
X154260000Y-101690000D02*
X152480000Y-101690000D01*
X151720000Y-101690000D02*
X149940000Y-101690000D01*
X149940000Y-99150000D02*
X151720000Y-99150000D01*
X149940000Y-99150000D02*
X149940000Y-101690000D01*
X151720000Y-101690000D02*
X151720000Y-99150000D01*
X147910000Y-101690000D02*
X147910000Y-99150000D01*
X146130000Y-99150000D02*
X146130000Y-101690000D01*
X146130000Y-99150000D02*
X147910000Y-99150000D01*
X147910000Y-101690000D02*
X146130000Y-101690000D01*
X169983352Y-128461288D02*
G75*
G02X170180000Y-129250000I-1483352J-788712D01*
G01*
X167710912Y-127766047D02*
G75*
G02X169289000Y-127766000I789088J-1483953D01*
G01*
X167016047Y-130039088D02*
G75*
G02X167016000Y-128461000I1483953J789088D01*
G01*
X169289088Y-130733953D02*
G75*
G02X167711000Y-130734000I-789088J1483953D01*
G01*
X170180450Y-129220617D02*
G75*
G02X169984000Y-130039000I-1680450J-29383D01*
G01*
X166400000Y-129250000D02*
G75*
G03X166400000Y-129250000I-900000J0D01*
G01*
X170180000Y-124250000D02*
G75*
G03X170180000Y-124250000I-1680000J0D01*
G01*
X166400000Y-124250000D02*
G75*
G03X166400000Y-124250000I-900000J0D01*
G01*
X170180000Y-119250000D02*
G75*
G03X170180000Y-119250000I-1680000J0D01*
G01*
X166400000Y-119250000D02*
G75*
G03X166400000Y-119250000I-900000J0D01*
G01*
X171000000Y-131810000D02*
X171000000Y-116690000D01*
X163440000Y-131810000D02*
X172560000Y-131810000D01*
X172560000Y-131810000D02*
X172560000Y-116690000D01*
X172560000Y-116690000D02*
X163440000Y-116690000D01*
X163440000Y-116690000D02*
X163440000Y-131810000D01*
X167431000Y-122975000D02*
X167524000Y-123069000D01*
X169716000Y-125260000D02*
X169774000Y-125319000D01*
X167225000Y-123180000D02*
X167284000Y-123239000D01*
X169476000Y-125430000D02*
X169569000Y-125524000D01*
X167431000Y-117975000D02*
X167524000Y-118069000D01*
X169716000Y-120260000D02*
X169774000Y-120319000D01*
X167225000Y-118180000D02*
X167284000Y-118239000D01*
X169476000Y-120430000D02*
X169569000Y-120524000D01*
X171060000Y-132050000D02*
X172800000Y-132050000D01*
X172800000Y-132050000D02*
X172800000Y-130550000D01*
X132420000Y-107010000D02*
X133350000Y-107010000D01*
X135580000Y-107010000D02*
X134650000Y-107010000D01*
X135580000Y-107010000D02*
X135580000Y-104850000D01*
X132420000Y-107010000D02*
X132420000Y-105550000D01*
X141350000Y-106130000D02*
X140150000Y-106130000D01*
X140150000Y-104370000D02*
X141350000Y-104370000D01*
X113000000Y-94250000D02*
X108500000Y-94250000D01*
X114250000Y-98250000D02*
X114250000Y-96750000D01*
X108500000Y-100750000D02*
X113000000Y-100750000D01*
X107250000Y-96750000D02*
X107250000Y-98250000D01*
D11*
X143570680Y-118846176D02*
X142570680Y-118846176D01*
X143570680Y-118274747D02*
X142999252Y-118703319D01*
X142570680Y-118274747D02*
X143142109Y-118846176D01*
X143570680Y-117322366D02*
X143570680Y-117893795D01*
X143570680Y-117608081D02*
X142570680Y-117608081D01*
X142713538Y-117703319D01*
X142808776Y-117798557D01*
X142856395Y-117893795D01*
X146154761Y-125238095D02*
X146202380Y-125095238D01*
X146202380Y-124857142D01*
X146154761Y-124761904D01*
X146107142Y-124714285D01*
X146011904Y-124666666D01*
X145916666Y-124666666D01*
X145821428Y-124714285D01*
X145773809Y-124761904D01*
X145726190Y-124857142D01*
X145678571Y-125047619D01*
X145630952Y-125142857D01*
X145583333Y-125190476D01*
X145488095Y-125238095D01*
X145392857Y-125238095D01*
X145297619Y-125190476D01*
X145250000Y-125142857D01*
X145202380Y-125047619D01*
X145202380Y-124809523D01*
X145250000Y-124666666D01*
X146202380Y-123761904D02*
X146202380Y-124238095D01*
X145202380Y-124238095D01*
X145916666Y-123476190D02*
X145916666Y-123000000D01*
X146202380Y-123571428D02*
X145202380Y-123238095D01*
X146202380Y-122904761D01*
X145821428Y-122571428D02*
X145821428Y-121809523D01*
X145202380Y-121142857D02*
X145202380Y-121047619D01*
X145250000Y-120952380D01*
X145297619Y-120904761D01*
X145392857Y-120857142D01*
X145583333Y-120809523D01*
X145821428Y-120809523D01*
X146011904Y-120857142D01*
X146107142Y-120904761D01*
X146154761Y-120952380D01*
X146202380Y-121047619D01*
X146202380Y-121142857D01*
X146154761Y-121238095D01*
X146107142Y-121285714D01*
X146011904Y-121333333D01*
X145821428Y-121380952D01*
X145583333Y-121380952D01*
X145392857Y-121333333D01*
X145297619Y-121285714D01*
X145250000Y-121238095D01*
X145202380Y-121142857D01*
X145202380Y-119904761D02*
X145202380Y-120380952D01*
X145678571Y-120428571D01*
X145630952Y-120380952D01*
X145583333Y-120285714D01*
X145583333Y-120047619D01*
X145630952Y-119952380D01*
X145678571Y-119904761D01*
X145773809Y-119857142D01*
X146011904Y-119857142D01*
X146107142Y-119904761D01*
X146154761Y-119952380D01*
X146202380Y-120047619D01*
X146202380Y-120285714D01*
X146154761Y-120380952D01*
X146107142Y-120428571D01*
X145202380Y-119571428D02*
X146202380Y-119238095D01*
X145202380Y-118904761D01*
X146202380Y-118571428D02*
X145202380Y-118571428D01*
X145202380Y-118333333D01*
X145250000Y-118190476D01*
X145345238Y-118095238D01*
X145440476Y-118047619D01*
X145630952Y-118000000D01*
X145773809Y-118000000D01*
X145964285Y-118047619D01*
X146059523Y-118095238D01*
X146154761Y-118190476D01*
X146202380Y-118333333D01*
X146202380Y-118571428D01*
X146107142Y-117000000D02*
X146154761Y-117047619D01*
X146202380Y-117190476D01*
X146202380Y-117285714D01*
X146154761Y-117428571D01*
X146059523Y-117523809D01*
X145964285Y-117571428D01*
X145773809Y-117619047D01*
X145630952Y-117619047D01*
X145440476Y-117571428D01*
X145345238Y-117523809D01*
X145250000Y-117428571D01*
X145202380Y-117285714D01*
X145202380Y-117190476D01*
X145250000Y-117047619D01*
X145297619Y-117000000D01*
X145821428Y-116571428D02*
X145821428Y-115809523D01*
X146154761Y-115380952D02*
X146202380Y-115238095D01*
X146202380Y-115000000D01*
X146154761Y-114904761D01*
X146107142Y-114857142D01*
X146011904Y-114809523D01*
X145916666Y-114809523D01*
X145821428Y-114857142D01*
X145773809Y-114904761D01*
X145726190Y-115000000D01*
X145678571Y-115190476D01*
X145630952Y-115285714D01*
X145583333Y-115333333D01*
X145488095Y-115380952D01*
X145392857Y-115380952D01*
X145297619Y-115333333D01*
X145250000Y-115285714D01*
X145202380Y-115190476D01*
X145202380Y-114952380D01*
X145250000Y-114809523D01*
X146202380Y-113904761D02*
X146202380Y-114380952D01*
X145202380Y-114380952D01*
X145821428Y-113571428D02*
X145821428Y-112809523D01*
X146107142Y-111761904D02*
X146154761Y-111809523D01*
X146202380Y-111952380D01*
X146202380Y-112047619D01*
X146154761Y-112190476D01*
X146059523Y-112285714D01*
X145964285Y-112333333D01*
X145773809Y-112380952D01*
X145630952Y-112380952D01*
X145440476Y-112333333D01*
X145345238Y-112285714D01*
X145250000Y-112190476D01*
X145202380Y-112047619D01*
X145202380Y-111952380D01*
X145250000Y-111809523D01*
X145297619Y-111761904D01*
X123392380Y-120158095D02*
X122392380Y-120158095D01*
X122392380Y-119920000D01*
X122440000Y-119777142D01*
X122535238Y-119681904D01*
X122630476Y-119634285D01*
X122820952Y-119586666D01*
X122963809Y-119586666D01*
X123154285Y-119634285D01*
X123249523Y-119681904D01*
X123344761Y-119777142D01*
X123392380Y-119920000D01*
X123392380Y-120158095D01*
X123392380Y-118634285D02*
X123392380Y-119205714D01*
X123392380Y-118920000D02*
X122392380Y-118920000D01*
X122535238Y-119015238D01*
X122630476Y-119110476D01*
X122678095Y-119205714D01*
X168062380Y-103293333D02*
X168776666Y-103293333D01*
X168919523Y-103340952D01*
X169014761Y-103436190D01*
X169062380Y-103579047D01*
X169062380Y-103674285D01*
X169062380Y-102293333D02*
X169062380Y-102864761D01*
X169062380Y-102579047D02*
X168062380Y-102579047D01*
X168205238Y-102674285D01*
X168300476Y-102769523D01*
X168348095Y-102864761D01*
X165522380Y-103293333D02*
X166236666Y-103293333D01*
X166379523Y-103340952D01*
X166474761Y-103436190D01*
X166522380Y-103579047D01*
X166522380Y-103674285D01*
X165617619Y-102864761D02*
X165570000Y-102817142D01*
X165522380Y-102721904D01*
X165522380Y-102483809D01*
X165570000Y-102388571D01*
X165617619Y-102340952D01*
X165712857Y-102293333D01*
X165808095Y-102293333D01*
X165950952Y-102340952D01*
X166522380Y-102912380D01*
X166522380Y-102293333D01*
X162982380Y-103293333D02*
X163696666Y-103293333D01*
X163839523Y-103340952D01*
X163934761Y-103436190D01*
X163982380Y-103579047D01*
X163982380Y-103674285D01*
X162982380Y-102912380D02*
X162982380Y-102293333D01*
X163363333Y-102626666D01*
X163363333Y-102483809D01*
X163410952Y-102388571D01*
X163458571Y-102340952D01*
X163553809Y-102293333D01*
X163791904Y-102293333D01*
X163887142Y-102340952D01*
X163934761Y-102388571D01*
X163982380Y-102483809D01*
X163982380Y-102769523D01*
X163934761Y-102864761D01*
X163887142Y-102912380D01*
X160442380Y-103293333D02*
X161156666Y-103293333D01*
X161299523Y-103340952D01*
X161394761Y-103436190D01*
X161442380Y-103579047D01*
X161442380Y-103674285D01*
X160775714Y-102388571D02*
X161442380Y-102388571D01*
X160394761Y-102626666D02*
X161109047Y-102864761D01*
X161109047Y-102245714D01*
X157902380Y-103293333D02*
X158616666Y-103293333D01*
X158759523Y-103340952D01*
X158854761Y-103436190D01*
X158902380Y-103579047D01*
X158902380Y-103674285D01*
X157902380Y-102340952D02*
X157902380Y-102817142D01*
X158378571Y-102864761D01*
X158330952Y-102817142D01*
X158283333Y-102721904D01*
X158283333Y-102483809D01*
X158330952Y-102388571D01*
X158378571Y-102340952D01*
X158473809Y-102293333D01*
X158711904Y-102293333D01*
X158807142Y-102340952D01*
X158854761Y-102388571D01*
X158902380Y-102483809D01*
X158902380Y-102721904D01*
X158854761Y-102817142D01*
X158807142Y-102864761D01*
X155362380Y-103293333D02*
X156076666Y-103293333D01*
X156219523Y-103340952D01*
X156314761Y-103436190D01*
X156362380Y-103579047D01*
X156362380Y-103674285D01*
X155362380Y-102388571D02*
X155362380Y-102579047D01*
X155410000Y-102674285D01*
X155457619Y-102721904D01*
X155600476Y-102817142D01*
X155790952Y-102864761D01*
X156171904Y-102864761D01*
X156267142Y-102817142D01*
X156314761Y-102769523D01*
X156362380Y-102674285D01*
X156362380Y-102483809D01*
X156314761Y-102388571D01*
X156267142Y-102340952D01*
X156171904Y-102293333D01*
X155933809Y-102293333D01*
X155838571Y-102340952D01*
X155790952Y-102388571D01*
X155743333Y-102483809D01*
X155743333Y-102674285D01*
X155790952Y-102769523D01*
X155838571Y-102817142D01*
X155933809Y-102864761D01*
X152822380Y-103293333D02*
X153536666Y-103293333D01*
X153679523Y-103340952D01*
X153774761Y-103436190D01*
X153822380Y-103579047D01*
X153822380Y-103674285D01*
X152822380Y-102912380D02*
X152822380Y-102245714D01*
X153822380Y-102674285D01*
X150282380Y-103293333D02*
X150996666Y-103293333D01*
X151139523Y-103340952D01*
X151234761Y-103436190D01*
X151282380Y-103579047D01*
X151282380Y-103674285D01*
X150710952Y-102674285D02*
X150663333Y-102769523D01*
X150615714Y-102817142D01*
X150520476Y-102864761D01*
X150472857Y-102864761D01*
X150377619Y-102817142D01*
X150330000Y-102769523D01*
X150282380Y-102674285D01*
X150282380Y-102483809D01*
X150330000Y-102388571D01*
X150377619Y-102340952D01*
X150472857Y-102293333D01*
X150520476Y-102293333D01*
X150615714Y-102340952D01*
X150663333Y-102388571D01*
X150710952Y-102483809D01*
X150710952Y-102674285D01*
X150758571Y-102769523D01*
X150806190Y-102817142D01*
X150901428Y-102864761D01*
X151091904Y-102864761D01*
X151187142Y-102817142D01*
X151234761Y-102769523D01*
X151282380Y-102674285D01*
X151282380Y-102483809D01*
X151234761Y-102388571D01*
X151187142Y-102340952D01*
X151091904Y-102293333D01*
X150901428Y-102293333D01*
X150806190Y-102340952D01*
X150758571Y-102388571D01*
X150710952Y-102483809D01*
X146472380Y-103293333D02*
X147186666Y-103293333D01*
X147329523Y-103340952D01*
X147424761Y-103436190D01*
X147472380Y-103579047D01*
X147472380Y-103674285D01*
X147472380Y-102769523D02*
X147472380Y-102579047D01*
X147424761Y-102483809D01*
X147377142Y-102436190D01*
X147234285Y-102340952D01*
X147043809Y-102293333D01*
X146662857Y-102293333D01*
X146567619Y-102340952D01*
X146520000Y-102388571D01*
X146472380Y-102483809D01*
X146472380Y-102674285D01*
X146520000Y-102769523D01*
X146567619Y-102817142D01*
X146662857Y-102864761D01*
X146900952Y-102864761D01*
X146996190Y-102817142D01*
X147043809Y-102769523D01*
X147091428Y-102674285D01*
X147091428Y-102483809D01*
X147043809Y-102388571D01*
X146996190Y-102340952D01*
X146900952Y-102293333D01*
X161892380Y-125059523D02*
X162606666Y-125059523D01*
X162749523Y-125107142D01*
X162844761Y-125202380D01*
X162892380Y-125345238D01*
X162892380Y-125440476D01*
X162892380Y-124059523D02*
X162892380Y-124630952D01*
X162892380Y-124345238D02*
X161892380Y-124345238D01*
X162035238Y-124440476D01*
X162130476Y-124535714D01*
X162178095Y-124630952D01*
X161892380Y-123440476D02*
X161892380Y-123345238D01*
X161940000Y-123250000D01*
X161987619Y-123202380D01*
X162082857Y-123154761D01*
X162273333Y-123107142D01*
X162511428Y-123107142D01*
X162701904Y-123154761D01*
X162797142Y-123202380D01*
X162844761Y-123250000D01*
X162892380Y-123345238D01*
X162892380Y-123440476D01*
X162844761Y-123535714D01*
X162797142Y-123583333D01*
X162701904Y-123630952D01*
X162511428Y-123678571D01*
X162273333Y-123678571D01*
X162082857Y-123630952D01*
X161987619Y-123583333D01*
X161940000Y-123535714D01*
X161892380Y-123440476D01*
X137047619Y-106345238D02*
X137000000Y-106440476D01*
X136904761Y-106535714D01*
X136761904Y-106678571D01*
X136714285Y-106773809D01*
X136714285Y-106869047D01*
X136952380Y-106821428D02*
X136904761Y-106916666D01*
X136809523Y-107011904D01*
X136619047Y-107059523D01*
X136285714Y-107059523D01*
X136095238Y-107011904D01*
X136000000Y-106916666D01*
X135952380Y-106821428D01*
X135952380Y-106630952D01*
X136000000Y-106535714D01*
X136095238Y-106440476D01*
X136285714Y-106392857D01*
X136619047Y-106392857D01*
X136809523Y-106440476D01*
X136904761Y-106535714D01*
X136952380Y-106630952D01*
X136952380Y-106821428D01*
X136952380Y-105440476D02*
X136952380Y-106011904D01*
X136952380Y-105726190D02*
X135952380Y-105726190D01*
X136095238Y-105821428D01*
X136190476Y-105916666D01*
X136238095Y-106011904D01*
X140583333Y-104002380D02*
X140250000Y-103526190D01*
X140011904Y-104002380D02*
X140011904Y-103002380D01*
X140392857Y-103002380D01*
X140488095Y-103050000D01*
X140535714Y-103097619D01*
X140583333Y-103192857D01*
X140583333Y-103335714D01*
X140535714Y-103430952D01*
X140488095Y-103478571D01*
X140392857Y-103526190D01*
X140011904Y-103526190D01*
X141535714Y-104002380D02*
X140964285Y-104002380D01*
X141250000Y-104002380D02*
X141250000Y-103002380D01*
X141154761Y-103145238D01*
X141059523Y-103240476D01*
X140964285Y-103288095D01*
X109166666Y-97904761D02*
X109309523Y-97952380D01*
X109547619Y-97952380D01*
X109642857Y-97904761D01*
X109690476Y-97857142D01*
X109738095Y-97761904D01*
X109738095Y-97666666D01*
X109690476Y-97571428D01*
X109642857Y-97523809D01*
X109547619Y-97476190D01*
X109357142Y-97428571D01*
X109261904Y-97380952D01*
X109214285Y-97333333D01*
X109166666Y-97238095D01*
X109166666Y-97142857D01*
X109214285Y-97047619D01*
X109261904Y-97000000D01*
X109357142Y-96952380D01*
X109595238Y-96952380D01*
X109738095Y-97000000D01*
X110071428Y-96952380D02*
X110309523Y-97952380D01*
X110500000Y-97238095D01*
X110690476Y-97952380D01*
X110928571Y-96952380D01*
X111833333Y-97952380D02*
X111261904Y-97952380D01*
X111547619Y-97952380D02*
X111547619Y-96952380D01*
X111452380Y-97095238D01*
X111357142Y-97190476D01*
X111261904Y-97238095D01*
X108797619Y-103452380D02*
X108464285Y-102976190D01*
X108226190Y-103452380D02*
X108226190Y-102452380D01*
X108607142Y-102452380D01*
X108702380Y-102500000D01*
X108750000Y-102547619D01*
X108797619Y-102642857D01*
X108797619Y-102785714D01*
X108750000Y-102880952D01*
X108702380Y-102928571D01*
X108607142Y-102976190D01*
X108226190Y-102976190D01*
X109226190Y-102928571D02*
X109559523Y-102928571D01*
X109702380Y-103452380D02*
X109226190Y-103452380D01*
X109226190Y-102452380D01*
X109702380Y-102452380D01*
X110083333Y-103404761D02*
X110226190Y-103452380D01*
X110464285Y-103452380D01*
X110559523Y-103404761D01*
X110607142Y-103357142D01*
X110654761Y-103261904D01*
X110654761Y-103166666D01*
X110607142Y-103071428D01*
X110559523Y-103023809D01*
X110464285Y-102976190D01*
X110273809Y-102928571D01*
X110178571Y-102880952D01*
X110130952Y-102833333D01*
X110083333Y-102738095D01*
X110083333Y-102642857D01*
X110130952Y-102547619D01*
X110178571Y-102500000D01*
X110273809Y-102452380D01*
X110511904Y-102452380D01*
X110654761Y-102500000D01*
X111083333Y-102928571D02*
X111416666Y-102928571D01*
X111559523Y-103452380D02*
X111083333Y-103452380D01*
X111083333Y-102452380D01*
X111559523Y-102452380D01*
X111845238Y-102452380D02*
X112416666Y-102452380D01*
X112130952Y-103452380D02*
X112130952Y-102452380D01*
%LPC*%
D15*
X119250000Y-143750000D03*
X171250000Y-138750000D03*
X171250000Y-110750000D03*
X120500000Y-95500000D03*
D16*
X157052146Y-110213880D03*
X149302146Y-110213880D03*
X146802146Y-127813880D03*
X131552146Y-119163880D03*
D17*
X134052146Y-114063880D03*
X134052146Y-124213880D03*
D18*
X123860000Y-95490000D03*
X126400000Y-95490000D03*
D19*
X133000000Y-143750000D03*
D18*
X163480000Y-95490000D03*
X135540000Y-143750000D03*
X160940000Y-95490000D03*
X138080000Y-143750000D03*
X158400000Y-95490000D03*
X140620000Y-143750000D03*
X155860000Y-95490000D03*
X143160000Y-143750000D03*
X153320000Y-95490000D03*
X145700000Y-143750000D03*
X150780000Y-95490000D03*
X148240000Y-143750000D03*
X146720000Y-95490000D03*
X150780000Y-143750000D03*
X144180000Y-95490000D03*
X155860000Y-143750000D03*
X141640000Y-95490000D03*
X158400000Y-143750000D03*
X139100000Y-95490000D03*
X160940000Y-143750000D03*
X136560000Y-95490000D03*
X163480000Y-143750000D03*
X134020000Y-95490000D03*
X166020000Y-143750000D03*
X131480000Y-95490000D03*
X168560000Y-143750000D03*
X128940000Y-95490000D03*
X168560000Y-95490000D03*
X166020000Y-95490000D03*
D19*
X125000000Y-124500000D03*
D18*
X125000000Y-114340000D03*
D20*
X168610000Y-101060000D03*
X168610000Y-99780000D03*
X166070000Y-99780000D03*
X166070000Y-101060000D03*
X163530000Y-101060000D03*
X163530000Y-99780000D03*
X160990000Y-99780000D03*
X160990000Y-101060000D03*
X158450000Y-101060000D03*
X158450000Y-99780000D03*
X155910000Y-99780000D03*
X155910000Y-101060000D03*
X153370000Y-101060000D03*
X153370000Y-99780000D03*
X150830000Y-99780000D03*
X150830000Y-101060000D03*
X147020000Y-101060000D03*
X147020000Y-99780000D03*
D21*
X168500000Y-129250000D03*
D22*
X168500000Y-124250000D03*
X168500000Y-119250000D03*
D23*
X134950000Y-105250000D03*
X133050000Y-105250000D03*
X134000000Y-107250000D03*
D24*
X139400000Y-105250000D03*
X142100000Y-105250000D03*
D25*
X114000000Y-95250000D03*
X114000000Y-99750000D03*
X107500000Y-95250000D03*
X107500000Y-99750000D03*
M02*
