M48
;DRILL file {KiCad (2017-11-08 revision cd21218)-HEAD} date Mon Feb  5 18:12:30 2018
;FORMAT={-:-/ absolute / metric / decimal}
FMAT,2
METRIC,TZ
T1C0.300
T2C0.800
T3C1.100
T4C1.300
T5C1.400
T6C2.200
%
G90
G05
M71
T1
X110.835Y-131.282
X108.295Y-136.362
X110.835Y-138.903
X118.455Y-121.122
X118.455Y-110.962
X146.395Y-103.343
X123.535Y-123.662
X110.835Y-118.582
X131.155Y-141.442
X131.155Y-100.802
X115.915Y-113.502
X115.915Y-131.282
X126.075Y-138.903
X110.835Y-100.802
X115.915Y-138.903
X113.375Y-128.743
X123.535Y-113.502
X128.615Y-141.442
X136.235Y-98.262
X156.555Y-103.343
X115.915Y-103.343
X169.255Y-141.442
X159.095Y-141.442
X128.615Y-136.362
X118.455Y-138.903
X161.635Y-103.343
X126.075Y-105.882
X146.395Y-141.442
X118.455Y-105.882
X151.475Y-141.442
X148.935Y-141.442
X123.535Y-116.042
X118.455Y-118.582
X110.835Y-133.822
X143.855Y-100.802
X128.615Y-108.422
X141.315Y-100.802
X110.835Y-95.722
X110.835Y-110.962
X120.995Y-141.442
X169.255Y-103.343
X110.835Y-136.362
X120.995Y-138.903
X108.295Y-141.442
X159.095Y-103.343
X164.175Y-138.903
X123.535Y-118.582
X118.455Y-100.802
X108.295Y-126.203
X120.995Y-133.822
X123.535Y-105.882
X123.535Y-121.122
X108.295Y-103.343
X136.235Y-103.343
X131.155Y-133.822
X136.235Y-138.903
X108.295Y-116.042
X133.695Y-103.343
X148.935Y-95.722
X143.855Y-138.903
X126.075Y-141.442
X115.915Y-108.422
X151.475Y-138.903
X123.535Y-103.343
X126.075Y-98.262
X118.455Y-141.442
X161.635Y-138.903
X113.375Y-136.362
X115.915Y-118.582
X108.295Y-138.903
X110.835Y-141.442
X123.535Y-143.982
X141.315Y-98.262
X110.835Y-105.882
X120.995Y-136.362
X166.715Y-138.903
X156.555Y-138.903
X123.535Y-136.362
X118.455Y-136.362
X126.075Y-103.343
X115.915Y-123.662
X128.615Y-131.282
X148.935Y-103.343
X120.995Y-108.422
X115.915Y-110.962
X128.615Y-143.982
X110.835Y-128.743
X138.775Y-98.262
X120.995Y-110.962
X113.375Y-143.982
X133.695Y-136.362
X131.155Y-98.262
X120.995Y-121.122
X110.835Y-116.042
X154.015Y-143.982
X156.555Y-141.442
X166.715Y-103.343
X154.015Y-141.442
X118.455Y-116.042
X110.835Y-126.203
X110.835Y-113.502
X146.395Y-138.903
X138.775Y-103.343
X161.635Y-141.442
X143.855Y-98.262
X118.455Y-113.502
X108.295Y-105.882
X108.295Y-123.662
X120.995Y-98.262
X108.295Y-143.982
X128.615Y-105.882
X115.915Y-143.982
X118.455Y-103.343
X113.375Y-131.282
X108.295Y-108.422
X113.375Y-126.203
X115.915Y-128.743
X110.835Y-121.122
X131.155Y-108.422
X115.915Y-105.882
X110.835Y-98.262
X154.015Y-103.343
X131.155Y-138.903
X138.775Y-100.802
X118.455Y-98.262
X138.775Y-141.442
X120.995Y-105.882
X143.855Y-141.442
X141.315Y-138.903
X126.075Y-136.362
X108.295Y-110.962
X126.075Y-143.982
X120.995Y-128.743
X118.455Y-128.743
X110.835Y-143.982
X118.455Y-131.282
X108.295Y-133.822
X141.315Y-103.343
X131.155Y-143.982
X133.695Y-98.262
X123.535Y-98.262
X110.835Y-108.422
X128.615Y-103.343
X108.295Y-118.582
X108.295Y-113.502
X148.935Y-98.262
X118.455Y-108.422
X164.175Y-141.442
X164.175Y-103.343
X113.375Y-138.903
X115.915Y-126.203
X126.075Y-133.822
X115.915Y-116.042
X115.915Y-98.262
X159.095Y-138.903
X131.155Y-103.343
X133.695Y-100.802
X148.935Y-138.903
X128.615Y-138.903
X115.915Y-133.822
X123.535Y-126.203
X113.375Y-141.442
X113.375Y-123.662
X123.535Y-138.903
X120.995Y-116.042
X120.995Y-123.662
X110.835Y-103.343
X133.695Y-141.442
X154.015Y-138.903
X123.535Y-108.422
X151.475Y-103.343
X123.535Y-141.442
X131.155Y-131.282
X120.995Y-103.343
X113.375Y-121.122
X120.995Y-100.802
X118.455Y-133.822
X108.295Y-121.122
X120.995Y-131.282
X126.075Y-100.802
X115.915Y-136.362
X108.295Y-131.282
X128.615Y-98.262
X115.915Y-141.442
X123.535Y-131.282
X113.375Y-133.822
X120.995Y-113.502
X108.295Y-128.743
X166.715Y-141.442
X123.535Y-110.962
X131.155Y-105.882
X120.995Y-118.582
X136.235Y-100.802
X128.615Y-100.802
X110.835Y-123.662
X118.455Y-126.203
X123.535Y-100.802
X123.535Y-133.822
X126.075Y-108.422
T2
X125.Y-114.34
X125.Y-124.5
X123.86Y-95.49
X126.4Y-95.49
X128.94Y-95.49
X131.48Y-95.49
X133.Y-143.75
X134.02Y-95.49
X135.54Y-143.75
X136.56Y-95.49
X138.08Y-143.75
X139.1Y-95.49
X140.62Y-143.75
X141.64Y-95.49
X143.16Y-143.75
X144.18Y-95.49
X145.7Y-143.75
X146.72Y-95.49
X148.24Y-143.75
X150.78Y-95.49
X150.78Y-143.75
X153.32Y-95.49
X155.86Y-95.49
X155.86Y-143.75
X158.4Y-95.49
X158.4Y-143.75
X160.94Y-95.49
X160.94Y-143.75
X163.48Y-95.49
X163.48Y-143.75
X166.02Y-95.49
X166.02Y-143.75
X168.56Y-95.49
X168.56Y-143.75
T3
X107.5Y-95.25
X107.5Y-99.75
X114.Y-95.25
X114.Y-99.75
T4
X168.5Y-119.25
X168.5Y-124.25
X168.5Y-129.25
T5
X134.052Y-114.064
X134.052Y-124.214
T6
X131.552Y-119.164
X146.802Y-127.814
X149.302Y-110.214
X157.052Y-110.214
T0
M30
