%TF.GenerationSoftware,KiCad,Pcbnew,5.1.7-a382d34a8~87~ubuntu20.04.1*%
%TF.CreationDate,2020-10-19T23:47:47+03:00*%
%TF.ProjectId,E3_Pcb,45335f50-6362-42e6-9b69-6361645f7063,rev?*%
%TF.SameCoordinates,Original*%
%TF.FileFunction,Paste,Top*%
%TF.FilePolarity,Positive*%
%FSLAX46Y46*%
G04 Gerber Fmt 4.6, Leading zero omitted, Abs format (unit mm)*
G04 Created by KiCad (PCBNEW 5.1.7-a382d34a8~87~ubuntu20.04.1) date 2020-10-19 23:47:47*
%MOMM*%
%LPD*%
G01*
G04 APERTURE LIST*
%ADD10R,0.900000X0.800000*%
%ADD11R,3.500000X3.500000*%
%ADD12O,0.280000X0.900000*%
%ADD13O,0.900000X0.280000*%
%ADD14R,0.800000X0.900000*%
%ADD15R,1.200000X2.900000*%
%ADD16R,1.800000X1.800000*%
%ADD17C,1.800000*%
%ADD18O,0.280000X1.800000*%
%ADD19O,1.800000X0.280000*%
%ADD20R,1.900000X2.400000*%
%ADD21R,1.550000X1.000000*%
%ADD22C,1.575000*%
%ADD23R,1.575000X1.575000*%
%ADD24R,1.600000X0.701000*%
%ADD25R,1.400000X1.600000*%
%ADD26R,2.200000X1.400000*%
%ADD27R,1.400000X1.801000*%
%ADD28R,1.000000X1.550000*%
%ADD29R,1.250000X0.700000*%
%ADD30R,1.016000X1.397000*%
%ADD31R,1.000000X0.700000*%
%ADD32R,1.930000X1.930000*%
%ADD33R,2.499000X0.500000*%
%ADD34R,2.499000X1.999000*%
%ADD35R,1.600000X3.000000*%
%ADD36R,6.000000X6.500000*%
%ADD37O,1.600000X0.600000*%
%ADD38C,2.000000*%
%ADD39R,2.000000X2.000000*%
%ADD40C,2.540000*%
%ADD41R,2.032000X2.032000*%
%ADD42C,2.032000*%
%ADD43R,1.900000X1.200000*%
%ADD44R,3.820000X3.030000*%
%ADD45R,1.500000X4.000000*%
%ADD46R,1.000000X1.400000*%
%ADD47R,1.400000X1.000000*%
G04 APERTURE END LIST*
D10*
%TO.C,C9*%
X135382000Y-50990000D03*
X135382000Y-52390000D03*
%TD*%
D11*
%TO.C,U3*%
X137541000Y-45212000D03*
D12*
X136040000Y-42712000D03*
X136540000Y-42712000D03*
X137041000Y-42712000D03*
X137541000Y-42712000D03*
X138041000Y-42712000D03*
X138542000Y-42712000D03*
X139042000Y-42712000D03*
D13*
X140041000Y-43711000D03*
X140041000Y-44211000D03*
X140041000Y-44711000D03*
X140041000Y-45212000D03*
X140041000Y-45712000D03*
X140041000Y-46213000D03*
X140041000Y-46713000D03*
D12*
X139042000Y-47712000D03*
X138542000Y-47712000D03*
X138041000Y-47712000D03*
X137541000Y-47712000D03*
X137041000Y-47712000D03*
X136540000Y-47712000D03*
X136040000Y-47712000D03*
D13*
X135041000Y-46713000D03*
X135041000Y-46213000D03*
X135041000Y-45712000D03*
X135041000Y-45212000D03*
X135041000Y-44711000D03*
X135041000Y-44211000D03*
X135041000Y-43711000D03*
%TD*%
D14*
%TO.C,R8*%
X130872000Y-42799000D03*
X132272000Y-42799000D03*
%TD*%
D10*
%TO.C,R9*%
X139573000Y-50989000D03*
X139573000Y-52389000D03*
%TD*%
%TO.C,R10*%
X137458000Y-52389000D03*
X137458000Y-50989000D03*
%TD*%
D14*
%TO.C,C11*%
X132273000Y-44739000D03*
X130873000Y-44739000D03*
%TD*%
%TO.C,C10*%
X132272000Y-46759000D03*
X130872000Y-46759000D03*
%TD*%
%TO.C,C12*%
X144588000Y-47752000D03*
X145988000Y-47752000D03*
%TD*%
%TO.C,C7*%
X144588000Y-45847000D03*
X145988000Y-45847000D03*
%TD*%
D15*
%TO.C,C8*%
X146172000Y-43378000D03*
X146182000Y-36378000D03*
%TD*%
D16*
%TO.C,CN2*%
X133791000Y-32385000D03*
D17*
X136293000Y-32385000D03*
X138792000Y-32385000D03*
X141291000Y-32385000D03*
%TD*%
D10*
%TO.C,C3*%
X115189000Y-50990000D03*
X115189000Y-52390000D03*
%TD*%
D14*
%TO.C,R3*%
X109917000Y-42672000D03*
X111317000Y-42672000D03*
%TD*%
D10*
%TO.C,R2*%
X119380000Y-50989000D03*
X119380000Y-52389000D03*
%TD*%
%TO.C,R1*%
X117265000Y-52389000D03*
X117265000Y-50989000D03*
%TD*%
D14*
%TO.C,C4*%
X111317000Y-46759000D03*
X109917000Y-46759000D03*
%TD*%
%TO.C,C6*%
X124014000Y-45974000D03*
X125414000Y-45974000D03*
%TD*%
D15*
%TO.C,C5*%
X125725000Y-43251000D03*
X125735000Y-36251000D03*
%TD*%
D18*
%TO.C,U2*%
X171136000Y-71971000D03*
X170636000Y-71971000D03*
X170136000Y-71971000D03*
X169636000Y-71971000D03*
X169136000Y-71971000D03*
X168636000Y-71971000D03*
X168136000Y-71971000D03*
X167636000Y-71971000D03*
X167136000Y-71971000D03*
X166636000Y-71971000D03*
X166136000Y-71971000D03*
X165636000Y-71971000D03*
X165136000Y-71971000D03*
X164636000Y-71971000D03*
X164136000Y-71971000D03*
X163636000Y-71971000D03*
D19*
X161836000Y-70171000D03*
X161836000Y-69671000D03*
X161836000Y-69171000D03*
X161836000Y-68671000D03*
X161836000Y-68171000D03*
X161836000Y-67671000D03*
X161836000Y-67171000D03*
X161836000Y-66671000D03*
X161836000Y-66171000D03*
X161836000Y-65671000D03*
X161836000Y-65171000D03*
X161836000Y-64671000D03*
X161836000Y-64171000D03*
X161836000Y-63671000D03*
X161836000Y-63171000D03*
X161836000Y-62671000D03*
D18*
X163636000Y-60871000D03*
X164136000Y-60871000D03*
X164636000Y-60871000D03*
X165136000Y-60871000D03*
X165636000Y-60871000D03*
X166136000Y-60871000D03*
X166636000Y-60871000D03*
X167136000Y-60871000D03*
X167636000Y-60871000D03*
X168136000Y-60871000D03*
X168636000Y-60871000D03*
X169136000Y-60871000D03*
X169636000Y-60871000D03*
X170136000Y-60871000D03*
X170636000Y-60871000D03*
X171136000Y-60871000D03*
D19*
X172936000Y-62671000D03*
X172936000Y-63171000D03*
X172936000Y-63671000D03*
X172936000Y-64171000D03*
X172936000Y-64671000D03*
X172936000Y-65171000D03*
X172936000Y-65671000D03*
X172936000Y-66171000D03*
X172936000Y-66671000D03*
X172936000Y-67171000D03*
X172936000Y-67671000D03*
X172936000Y-68171000D03*
X172936000Y-68671000D03*
X172936000Y-69171000D03*
X172936000Y-69671000D03*
X172936000Y-70171000D03*
%TD*%
D14*
%TO.C,C2*%
X111318000Y-44548000D03*
X109918000Y-44548000D03*
%TD*%
%TO.C,C1*%
X124014000Y-47879000D03*
X125414000Y-47879000D03*
%TD*%
D16*
%TO.C,CN1*%
X113598000Y-32385000D03*
D17*
X116100000Y-32385000D03*
X118599000Y-32385000D03*
X121098000Y-32385000D03*
%TD*%
D10*
%TO.C,C16*%
X155702000Y-50989000D03*
X155702000Y-52389000D03*
%TD*%
D11*
%TO.C,U4*%
X157861000Y-45212000D03*
D12*
X156360000Y-42712000D03*
X156860000Y-42712000D03*
X157361000Y-42712000D03*
X157861000Y-42712000D03*
X158361000Y-42712000D03*
X158862000Y-42712000D03*
X159362000Y-42712000D03*
D13*
X160361000Y-43711000D03*
X160361000Y-44211000D03*
X160361000Y-44711000D03*
X160361000Y-45212000D03*
X160361000Y-45712000D03*
X160361000Y-46213000D03*
X160361000Y-46713000D03*
D12*
X159362000Y-47712000D03*
X158862000Y-47712000D03*
X158361000Y-47712000D03*
X157861000Y-47712000D03*
X157361000Y-47712000D03*
X156860000Y-47712000D03*
X156360000Y-47712000D03*
D13*
X155361000Y-46713000D03*
X155361000Y-46213000D03*
X155361000Y-45712000D03*
X155361000Y-45212000D03*
X155361000Y-44711000D03*
X155361000Y-44211000D03*
X155361000Y-43711000D03*
%TD*%
D10*
%TO.C,R12*%
X160020000Y-50989000D03*
X160020000Y-52389000D03*
%TD*%
%TO.C,R11*%
X157861000Y-52389000D03*
X157861000Y-50989000D03*
%TD*%
D14*
%TO.C,R13*%
X151319000Y-42799000D03*
X152719000Y-42799000D03*
%TD*%
%TO.C,C14*%
X152719000Y-44831000D03*
X151319000Y-44831000D03*
%TD*%
%TO.C,C13*%
X164908000Y-47752000D03*
X166308000Y-47752000D03*
%TD*%
%TO.C,C18*%
X164908000Y-45974000D03*
X166308000Y-45974000D03*
%TD*%
%TO.C,C15*%
X152719000Y-46777000D03*
X151319000Y-46777000D03*
%TD*%
D15*
%TO.C,C17*%
X166492000Y-43505000D03*
X166502000Y-36505000D03*
%TD*%
D16*
%TO.C,CN3*%
X154238000Y-32385000D03*
D17*
X156740000Y-32385000D03*
X159239000Y-32385000D03*
X161738000Y-32385000D03*
%TD*%
D10*
%TO.C,C21*%
X174625000Y-50989000D03*
X174625000Y-52389000D03*
%TD*%
D11*
%TO.C,U5*%
X176784000Y-45339000D03*
D12*
X175283000Y-42839000D03*
X175783000Y-42839000D03*
X176284000Y-42839000D03*
X176784000Y-42839000D03*
X177284000Y-42839000D03*
X177785000Y-42839000D03*
X178285000Y-42839000D03*
D13*
X179284000Y-43838000D03*
X179284000Y-44338000D03*
X179284000Y-44839000D03*
X179284000Y-45339000D03*
X179284000Y-45839000D03*
X179284000Y-46340000D03*
X179284000Y-46840000D03*
D12*
X178285000Y-47839000D03*
X177785000Y-47839000D03*
X177284000Y-47839000D03*
X176784000Y-47839000D03*
X176284000Y-47839000D03*
X175783000Y-47839000D03*
X175283000Y-47839000D03*
D13*
X174284000Y-46840000D03*
X174284000Y-46340000D03*
X174284000Y-45839000D03*
X174284000Y-45339000D03*
X174284000Y-44839000D03*
X174284000Y-44338000D03*
X174284000Y-43838000D03*
%TD*%
D10*
%TO.C,R20*%
X176657000Y-52389000D03*
X176657000Y-50989000D03*
%TD*%
%TO.C,R19*%
X178689000Y-50989000D03*
X178689000Y-52389000D03*
%TD*%
%TO.C,R18*%
X171831000Y-43242000D03*
X171831000Y-44642000D03*
%TD*%
D14*
%TO.C,C23*%
X171131000Y-46990000D03*
X172531000Y-46990000D03*
%TD*%
%TO.C,C24*%
X183831000Y-47879000D03*
X185231000Y-47879000D03*
%TD*%
%TO.C,C19*%
X183831000Y-46101000D03*
X185231000Y-46101000D03*
%TD*%
%TO.C,C22*%
X172404000Y-49022000D03*
X171004000Y-49022000D03*
%TD*%
D15*
%TO.C,C20*%
X184780000Y-43378000D03*
X184790000Y-36378000D03*
%TD*%
D16*
%TO.C,CN4*%
X172272000Y-32385000D03*
D17*
X174774000Y-32385000D03*
X177273000Y-32385000D03*
X179772000Y-32385000D03*
%TD*%
D10*
%TO.C,R21*%
X178181000Y-66102000D03*
X178181000Y-67502000D03*
%TD*%
%TO.C,R22*%
X165100000Y-75503000D03*
X165100000Y-74103000D03*
%TD*%
%TO.C,C33*%
X189865000Y-39305000D03*
X189865000Y-40705000D03*
%TD*%
D20*
%TO.C,X1*%
X177745000Y-70395000D03*
X181845000Y-70395000D03*
%TD*%
D21*
%TO.C,C31*%
X181229000Y-64119000D03*
X181229000Y-62119000D03*
%TD*%
%TO.C,L1*%
X178435000Y-64119000D03*
X178435000Y-62119000D03*
%TD*%
D14*
%TO.C,R27*%
X190054000Y-46355000D03*
X191454000Y-46355000D03*
%TD*%
D10*
%TO.C,C34*%
X191516000Y-39305000D03*
X191516000Y-40705000D03*
%TD*%
%TO.C,C32*%
X183515000Y-62673000D03*
X183515000Y-64073000D03*
%TD*%
%TO.C,C25*%
X173101000Y-59371000D03*
X173101000Y-60771000D03*
%TD*%
%TO.C,C26*%
X172212000Y-73595000D03*
X172212000Y-74995000D03*
%TD*%
%TO.C,C27*%
X161798000Y-71817000D03*
X161798000Y-73217000D03*
%TD*%
D14*
%TO.C,C28*%
X161228000Y-60833000D03*
X159828000Y-60833000D03*
%TD*%
D22*
%TO.C,H2*%
X201168000Y-76835000D03*
X203708000Y-76835000D03*
X201168000Y-79375000D03*
X203708000Y-79375000D03*
X201168000Y-81915000D03*
X203708000Y-81915000D03*
X201168000Y-84455000D03*
X203708000Y-84455000D03*
X201168000Y-86995000D03*
D23*
X203708000Y-86995000D03*
%TD*%
D14*
%TO.C,R26*%
X190054000Y-44450000D03*
X191454000Y-44450000D03*
%TD*%
%TO.C,R23*%
X190054000Y-35687000D03*
X191454000Y-35687000D03*
%TD*%
%TO.C,R25*%
X190054000Y-42545000D03*
X191454000Y-42545000D03*
%TD*%
%TO.C,R24*%
X190054000Y-37592000D03*
X191454000Y-37592000D03*
%TD*%
D24*
%TO.C,CARD1*%
X193655000Y-35750000D03*
X193655000Y-36850000D03*
X193655000Y-37950000D03*
X193655000Y-39050000D03*
X193655000Y-40150000D03*
X193655000Y-41250000D03*
X193655000Y-42350000D03*
X193655000Y-43450000D03*
X193655000Y-44550000D03*
D25*
X194509000Y-46000000D03*
D26*
X204109000Y-45800000D03*
D27*
X194509000Y-31049000D03*
D26*
X204109000Y-30200000D03*
%TD*%
D10*
%TO.C,C29*%
X177800000Y-74487000D03*
X177800000Y-73087000D03*
%TD*%
%TO.C,C30*%
X181827000Y-74524000D03*
X181827000Y-73124000D03*
%TD*%
D11*
%TO.C,U1*%
X117221000Y-45212000D03*
D12*
X115720000Y-42712000D03*
X116220000Y-42712000D03*
X116720000Y-42712000D03*
X117221000Y-42712000D03*
X117721000Y-42712000D03*
X118222000Y-42712000D03*
X118722000Y-42712000D03*
D13*
X119721000Y-43711000D03*
X119721000Y-44211000D03*
X119721000Y-44711000D03*
X119721000Y-45212000D03*
X119721000Y-45712000D03*
X119721000Y-46212000D03*
X119721000Y-46713000D03*
D12*
X118722000Y-47712000D03*
X118222000Y-47712000D03*
X117721000Y-47712000D03*
X117221000Y-47712000D03*
X116720000Y-47712000D03*
X116220000Y-47712000D03*
X115720000Y-47712000D03*
D13*
X114721000Y-46713000D03*
X114721000Y-46212000D03*
X114721000Y-45712000D03*
X114721000Y-45212000D03*
X114721000Y-44711000D03*
X114721000Y-44211000D03*
X114721000Y-43711000D03*
%TD*%
D28*
%TO.C,R28*%
X124444000Y-55118000D03*
X122444000Y-55118000D03*
%TD*%
D14*
%TO.C,C38*%
X194499000Y-91313000D03*
X195899000Y-91313000D03*
%TD*%
%TO.C,C39*%
X185990000Y-91313000D03*
X187390000Y-91313000D03*
%TD*%
D29*
%TO.C,Q4*%
X184384000Y-80645000D03*
X181884000Y-81595000D03*
X181884000Y-79695000D03*
%TD*%
D10*
%TO.C,R37*%
X151384000Y-76646000D03*
X151384000Y-75246000D03*
%TD*%
%TO.C,R42*%
X179959000Y-79818000D03*
X179959000Y-81218000D03*
%TD*%
%TO.C,R36*%
X135636000Y-76646000D03*
X135636000Y-75246000D03*
%TD*%
D28*
%TO.C,C43*%
X158385000Y-83185000D03*
X160385000Y-83185000D03*
%TD*%
%TO.C,C41*%
X142510000Y-83058000D03*
X144510000Y-83058000D03*
%TD*%
D30*
%TO.C,FB1*%
X196215000Y-57277000D03*
X194437000Y-57277000D03*
%TD*%
D21*
%TO.C,C45*%
X199771000Y-62119000D03*
X199771000Y-64119000D03*
%TD*%
D10*
%TO.C,R40*%
X184277000Y-58866000D03*
X184277000Y-57466000D03*
%TD*%
%TO.C,R41*%
X189484000Y-54799000D03*
X189484000Y-56199000D03*
%TD*%
D31*
%TO.C,D2*%
X196399000Y-50851000D03*
X196399000Y-49911000D03*
X196399000Y-48971000D03*
X193999000Y-48971000D03*
X193999000Y-49911000D03*
X193999000Y-50851000D03*
%TD*%
D32*
%TO.C,JP2*%
X156083000Y-72390000D03*
X156083000Y-69850000D03*
%TD*%
%TO.C,JP1*%
X127381000Y-54991000D03*
X129921000Y-54991000D03*
%TD*%
D14*
%TO.C,C42*%
X158558000Y-85471000D03*
X159958000Y-85471000D03*
%TD*%
%TO.C,C40*%
X142810000Y-85725000D03*
X144210000Y-85725000D03*
%TD*%
D10*
%TO.C,C44*%
X192659000Y-59625000D03*
X192659000Y-61025000D03*
%TD*%
D14*
%TO.C,C37*%
X178243000Y-91313000D03*
X179643000Y-91313000D03*
%TD*%
%TO.C,C36*%
X169480000Y-91440000D03*
X170880000Y-91440000D03*
%TD*%
%TO.C,C35*%
X161606000Y-91313000D03*
X163006000Y-91313000D03*
%TD*%
D21*
%TO.C,R29*%
X155702000Y-62722000D03*
X155702000Y-60722000D03*
%TD*%
D33*
%TO.C,JP3*%
X199568000Y-54356000D03*
X199568000Y-55143000D03*
X199568000Y-52756000D03*
X199568000Y-53569000D03*
D34*
X205054000Y-49860000D03*
X205054000Y-58852000D03*
X199568000Y-49860000D03*
X199568000Y-58852000D03*
D33*
X199568000Y-55956000D03*
%TD*%
D35*
%TO.C,Q2*%
X149099000Y-78177000D03*
X153669000Y-78171000D03*
D36*
X151384000Y-85405000D03*
%TD*%
D35*
%TO.C,Q1*%
X133351000Y-78050000D03*
X137921000Y-78044000D03*
D36*
X135636000Y-85278000D03*
%TD*%
D29*
%TO.C,Q3*%
X185313000Y-55626000D03*
X187813000Y-54676000D03*
X187813000Y-56576000D03*
%TD*%
D21*
%TO.C,R30*%
X109093000Y-88122000D03*
X109093000Y-86122000D03*
%TD*%
D14*
%TO.C,R32*%
X169480000Y-89662000D03*
X170880000Y-89662000D03*
%TD*%
%TO.C,R31*%
X161606000Y-89535000D03*
X163006000Y-89535000D03*
%TD*%
%TO.C,R33*%
X178243000Y-89408000D03*
X179643000Y-89408000D03*
%TD*%
D17*
%TO.C,CN5*%
X161563000Y-95822000D03*
X164065000Y-95822000D03*
%TD*%
%TO.C,CN7*%
X178581000Y-95758000D03*
X181083000Y-95758000D03*
%TD*%
%TO.C,CN6*%
X170072000Y-95758000D03*
X172574000Y-95758000D03*
%TD*%
D14*
%TO.C,R38*%
X194626000Y-53213000D03*
X196026000Y-53213000D03*
%TD*%
%TO.C,R39*%
X194626000Y-55118000D03*
X196026000Y-55118000D03*
%TD*%
D37*
%TO.C,U9*%
X156131000Y-76835000D03*
X156131000Y-78105000D03*
X156131000Y-79375000D03*
X156131000Y-80645000D03*
X162131000Y-76835000D03*
X162131000Y-78105000D03*
X162131000Y-79375000D03*
X162131000Y-80645000D03*
%TD*%
%TO.C,U8*%
X140510000Y-76835000D03*
X140510000Y-78105000D03*
X140510000Y-79375000D03*
X140510000Y-80645000D03*
X146510000Y-76835000D03*
X146510000Y-78105000D03*
X146510000Y-79375000D03*
X146510000Y-80645000D03*
%TD*%
D10*
%TO.C,R43*%
X176530000Y-79818000D03*
X176530000Y-81218000D03*
%TD*%
D38*
%TO.C,U6*%
X116332000Y-58547000D03*
D39*
X129540000Y-58547000D03*
D38*
X118872000Y-58547000D03*
D39*
X127000000Y-58547000D03*
D38*
X116332000Y-77089000D03*
X118872000Y-77089000D03*
D39*
X127000000Y-77089000D03*
X129540000Y-77089000D03*
%TD*%
D38*
%TO.C,U7*%
X152400000Y-58801000D03*
D39*
X152400000Y-72009000D03*
D38*
X152400000Y-61341000D03*
D39*
X152400000Y-69469000D03*
D38*
X133858000Y-58801000D03*
X133858000Y-61341000D03*
D39*
X133858000Y-69469000D03*
X133858000Y-72009000D03*
%TD*%
D40*
%TO.C,F1*%
X114427000Y-84023000D03*
X114427000Y-87427000D03*
X127889000Y-84023000D03*
X127889000Y-87427000D03*
%TD*%
D17*
%TO.C,CN10*%
X181337000Y-84836000D03*
X178835000Y-84836000D03*
%TD*%
D41*
%TO.C,P3*%
X148590000Y-94996000D03*
D42*
X153594000Y-94996000D03*
%TD*%
D41*
%TO.C,P2*%
X136186000Y-94996000D03*
D42*
X141190000Y-94996000D03*
%TD*%
D41*
%TO.C,P4*%
X123783000Y-94996000D03*
D42*
X128787000Y-94996000D03*
%TD*%
D41*
%TO.C,P1*%
X111379000Y-94996000D03*
D42*
X116383000Y-94996000D03*
%TD*%
D17*
%TO.C,CN9*%
X195600000Y-95758000D03*
X198102000Y-95758000D03*
%TD*%
%TO.C,CN8*%
X187091000Y-95758000D03*
X189593000Y-95758000D03*
%TD*%
D43*
%TO.C,R6*%
X134747000Y-36310000D03*
X134747000Y-39510000D03*
%TD*%
%TO.C,R4*%
X119888000Y-36310000D03*
X119888000Y-39510000D03*
%TD*%
%TO.C,R14*%
X160782000Y-36310000D03*
X160782000Y-39510000D03*
%TD*%
%TO.C,R15*%
X155194000Y-36310000D03*
X155194000Y-39510000D03*
%TD*%
%TO.C,R7*%
X140335000Y-36310000D03*
X140335000Y-39510000D03*
%TD*%
%TO.C,R5*%
X114427000Y-36310000D03*
X114427000Y-39510000D03*
%TD*%
%TO.C,R17*%
X179070000Y-36310000D03*
X179070000Y-39510000D03*
%TD*%
%TO.C,R16*%
X173990000Y-36310000D03*
X173990000Y-39510000D03*
%TD*%
D44*
%TO.C,D3*%
X110871000Y-78619000D03*
X110871000Y-71749000D03*
%TD*%
D39*
%TO.C,D1*%
X195326000Y-60057000D03*
X195326000Y-64657000D03*
%TD*%
D14*
%TO.C,R35*%
X187263000Y-89281000D03*
X185863000Y-89281000D03*
%TD*%
%TO.C,R34*%
X195772000Y-89154000D03*
X194372000Y-89154000D03*
%TD*%
D45*
%TO.C,U10*%
X172466000Y-83566000D03*
X169926000Y-83566000D03*
X167386000Y-83566000D03*
X164846000Y-83566000D03*
%TD*%
D46*
%TO.C,LED2*%
X124418000Y-52578000D03*
X122218000Y-52578000D03*
%TD*%
D47*
%TO.C,LED3*%
X155830000Y-67394000D03*
X155830000Y-65194000D03*
%TD*%
%TO.C,LED4*%
X109094000Y-81577000D03*
X109094000Y-83777000D03*
%TD*%
%TO.C,LED1*%
X167260000Y-74846000D03*
X167260000Y-77046000D03*
%TD*%
M02*
