G04 #@! TF.GenerationSoftware,KiCad,Pcbnew,no-vcs-found-7529~57~ubuntu16.04.1*
G04 #@! TF.CreationDate,2017-01-27T16:28:15+02:00*
G04 #@! TF.ProjectId,temperature_humidity,74656D70657261747572655F68756D69,rev?*
G04 #@! TF.FileFunction,Soldermask,Top*
G04 #@! TF.FilePolarity,Negative*
%FSLAX46Y46*%
G04 Gerber Fmt 4.6, Leading zero omitted, Abs format (unit mm)*
G04 Created by KiCad (PCBNEW no-vcs-found-7529~57~ubuntu16.04.1) date Fri Jan 27 16:28:15 2017*
%MOMM*%
%LPD*%
G01*
G04 APERTURE LIST*
%ADD10C,0.100000*%
%ADD11R,1.670000X2.900000*%
%ADD12R,1.600000X1.150000*%
%ADD13R,1.150000X1.600000*%
%ADD14R,2.125000X2.125000*%
%ADD15R,1.100000X0.650000*%
%ADD16R,0.650000X1.100000*%
%ADD17R,1.900000X3.400000*%
%ADD18R,1.600000X1.300000*%
%ADD19R,1.300000X1.600000*%
%ADD20R,1.950000X1.000000*%
%ADD21R,1.300000X1.200000*%
%ADD22R,1.700000X1.250000*%
%ADD23R,0.850000X1.030000*%
%ADD24R,3.400000X1.600000*%
G04 APERTURE END LIST*
D10*
D11*
X119380000Y-102838000D03*
X116840000Y-102838000D03*
X114300000Y-102838000D03*
X114300000Y-98838000D03*
X116840000Y-98838000D03*
X119340000Y-98838000D03*
D12*
X113604000Y-70104000D03*
X115504000Y-70104000D03*
X116266000Y-78740000D03*
X114366000Y-78740000D03*
X120330000Y-70104000D03*
X118430000Y-70104000D03*
X120330000Y-78740000D03*
X118430000Y-78740000D03*
D13*
X103378000Y-78928000D03*
X103378000Y-77028000D03*
D12*
X124018000Y-74676000D03*
X125918000Y-74676000D03*
X118364000Y-80264000D03*
X120264000Y-80264000D03*
D13*
X132588000Y-81092000D03*
X132588000Y-82992000D03*
X125984000Y-80198000D03*
X125984000Y-78298000D03*
D14*
X117956500Y-73406000D03*
X116231500Y-73406000D03*
X117956500Y-75131000D03*
X116231500Y-75131000D03*
D15*
X119494000Y-72518500D03*
X119494000Y-73018500D03*
X119494000Y-73518500D03*
X119494000Y-74018500D03*
X119494000Y-74518500D03*
X119494000Y-75018500D03*
X119494000Y-75518500D03*
X119494000Y-76018500D03*
D16*
X118844000Y-76668500D03*
X118344000Y-76668500D03*
X117844000Y-76668500D03*
X117344000Y-76668500D03*
X116844000Y-76668500D03*
X116344000Y-76668500D03*
X115844000Y-76668500D03*
X115344000Y-76668500D03*
D15*
X114694000Y-76018500D03*
X114694000Y-75518500D03*
X114694000Y-75018500D03*
X114694000Y-74518500D03*
X114694000Y-74018500D03*
X114694000Y-73518500D03*
X114694000Y-73018500D03*
X114694000Y-72518500D03*
D16*
X115344000Y-71868500D03*
X115844000Y-71868500D03*
X116344000Y-71868500D03*
X116844000Y-71868500D03*
X117344000Y-71868500D03*
X117844000Y-71868500D03*
X118344000Y-71868500D03*
X118844000Y-71868500D03*
D17*
X103632000Y-84020000D03*
D18*
X107020000Y-73406000D03*
X109220000Y-73406000D03*
X123614000Y-76454000D03*
X125814000Y-76454000D03*
X123614000Y-72898000D03*
X125814000Y-72898000D03*
D19*
X130302000Y-80942000D03*
X130302000Y-83142000D03*
D18*
X132164000Y-90678000D03*
X129964000Y-90678000D03*
D19*
X103548000Y-91610000D03*
X103548000Y-93810000D03*
D20*
X110650000Y-75057000D03*
X110650000Y-76327000D03*
X110650000Y-77597000D03*
X110650000Y-78867000D03*
X105250000Y-78867000D03*
X105250000Y-77597000D03*
X105250000Y-76327000D03*
X105250000Y-75057000D03*
D21*
X124206000Y-79248000D03*
X122206000Y-80198000D03*
X122206000Y-78298000D03*
D22*
X131684000Y-87293000D03*
X132984000Y-87293000D03*
X131684000Y-86443000D03*
X132984000Y-86443000D03*
D23*
X131384000Y-85528000D03*
X132334000Y-85528000D03*
X133284000Y-85528000D03*
X133284000Y-88208000D03*
X132334000Y-88208000D03*
X131384000Y-88208000D03*
D24*
X107046000Y-96106000D03*
X107046000Y-94106000D03*
X107046000Y-92106000D03*
X107046000Y-90106000D03*
X107046000Y-88106000D03*
X107046000Y-86106000D03*
X107046000Y-84106000D03*
X107046000Y-82106000D03*
X126746000Y-82106000D03*
X126746000Y-84106000D03*
X126746000Y-86106000D03*
X126746000Y-88106000D03*
X126746000Y-90106000D03*
X126746000Y-92106000D03*
X126746000Y-94106000D03*
X126746000Y-96106000D03*
D18*
X116416000Y-80264000D03*
X114216000Y-80264000D03*
M02*
