G04 #@! TF.GenerationSoftware,KiCad,Pcbnew,no-vcs-found-e3c64f1~59~ubuntu16.04.1*
G04 #@! TF.CreationDate,2017-08-28T13:01:16+03:00*
G04 #@! TF.ProjectId,wifi_lights,776966695F6C69676874732E6B696361,rev?*
G04 #@! TF.SameCoordinates,Original*
G04 #@! TF.FileFunction,Copper,L1,Top,Signal*
G04 #@! TF.FilePolarity,Positive*
%FSLAX46Y46*%
G04 Gerber Fmt 4.6, Leading zero omitted, Abs format (unit mm)*
G04 Created by KiCad (PCBNEW no-vcs-found-e3c64f1~59~ubuntu16.04.1) date Mon Aug 28 13:01:16 2017*
%MOMM*%
%LPD*%
G01*
G04 APERTURE LIST*
%ADD10C,2.400000*%
%ADD11O,1.700000X1.700000*%
%ADD12R,1.700000X1.700000*%
%ADD13C,2.500000*%
%ADD14C,3.000000*%
%ADD15C,1.600000*%
%ADD16C,2.000000*%
%ADD17R,1.100000X2.500000*%
%ADD18O,1.100000X2.500000*%
%ADD19C,0.800000*%
%ADD20C,0.350000*%
%ADD21C,0.500000*%
%ADD22C,1.500000*%
%ADD23C,0.254000*%
G04 APERTURE END LIST*
D10*
X112750000Y-56000000D03*
X109250000Y-56000000D03*
X135500000Y-56000000D03*
X139000000Y-56000000D03*
X131000000Y-56000000D03*
X127500000Y-56000000D03*
D11*
X127800000Y-94000000D03*
X130340000Y-94000000D03*
X132880000Y-94000000D03*
X135420000Y-94000000D03*
X137960000Y-94000000D03*
D12*
X140500000Y-94000000D03*
D13*
X129200000Y-73300000D03*
X129200000Y-61300000D03*
D14*
X127250000Y-67250000D03*
X141450000Y-73250000D03*
X141450000Y-61250000D03*
X141450000Y-77250000D03*
X141450000Y-89250000D03*
X127250000Y-83250000D03*
D13*
X129200000Y-77300000D03*
X129200000Y-89300000D03*
D15*
X117500000Y-52450000D03*
X122500000Y-53750000D03*
D16*
X122330000Y-57260000D03*
X117250000Y-57250000D03*
D11*
X110300000Y-96000000D03*
X112840000Y-96000000D03*
X115380000Y-96000000D03*
X117920000Y-96000000D03*
X120460000Y-96000000D03*
D12*
X123000000Y-96000000D03*
D14*
X115200000Y-61799982D03*
X110200000Y-61799982D03*
X120400000Y-91199982D03*
X105000000Y-91199982D03*
D17*
X109000000Y-69300000D03*
D18*
X111000000Y-69300000D03*
X113000000Y-69300000D03*
X115000000Y-69300000D03*
X117000000Y-69300000D03*
X119000000Y-69300000D03*
X121000000Y-69300000D03*
X123000000Y-69300000D03*
X123000000Y-84700000D03*
X121000000Y-84600000D03*
X119000000Y-84700000D03*
X117000000Y-84700000D03*
X115000000Y-84700000D03*
X113000000Y-84700000D03*
X111000000Y-84700000D03*
X109000000Y-84700000D03*
D19*
X122999984Y-80750000D03*
X118000000Y-67000000D03*
X121962638Y-86097411D03*
X123250000Y-79000000D03*
X114250000Y-87000000D03*
X112500000Y-87000000D03*
X116750001Y-88000000D03*
D20*
X118000000Y-67000000D02*
X123250000Y-67000000D01*
X123250000Y-67000000D02*
X124149999Y-67899999D01*
X124149999Y-67899999D02*
X124149999Y-79599985D01*
X124149999Y-79599985D02*
X122999984Y-80750000D01*
X110300000Y-96000000D02*
X110000000Y-96000000D01*
X110000000Y-96000000D02*
X107750000Y-93750000D01*
X107750000Y-93750000D02*
X107750000Y-81750000D01*
X107750000Y-81750000D02*
X109000000Y-80500000D01*
X109000000Y-80500000D02*
X109000000Y-70000000D01*
D21*
X114250000Y-87000000D02*
X114500000Y-86750000D01*
X114500000Y-86750000D02*
X121050013Y-86750000D01*
X121050013Y-86750000D02*
X121310049Y-86750000D01*
X121310049Y-86750000D02*
X121962638Y-86097411D01*
X120460000Y-96000000D02*
X117750000Y-93290000D01*
X117750000Y-93290000D02*
X117750000Y-87000000D01*
X117750000Y-87000000D02*
X118000000Y-86750000D01*
X118000000Y-86750000D02*
X121050013Y-86750000D01*
X123000000Y-78750000D02*
X123250000Y-79000000D01*
X123000000Y-70000000D02*
X123000000Y-78750000D01*
D20*
X112500000Y-87000000D02*
X112500000Y-87250000D01*
X112500000Y-87250000D02*
X115250000Y-90000000D01*
X115250000Y-90000000D02*
X115250000Y-95870000D01*
X115250000Y-95870000D02*
X115380000Y-96000000D01*
X111000000Y-84000000D02*
X111000000Y-87250000D01*
X111000000Y-87250000D02*
X112840000Y-89090000D01*
X112840000Y-89090000D02*
X112840000Y-96000000D01*
X116750001Y-94830001D02*
X116750001Y-88000000D01*
X117920000Y-96000000D02*
X116750001Y-94830001D01*
D21*
X129200000Y-77300000D02*
X131250000Y-75250000D01*
X131250000Y-63350000D02*
X129200000Y-61300000D01*
X131250000Y-75250000D02*
X131250000Y-63350000D01*
D22*
X144500000Y-73250000D02*
X144500000Y-56750000D01*
X144500000Y-56750000D02*
X139000000Y-51250000D01*
X121000000Y-51250000D02*
X120000000Y-52250000D01*
X139000000Y-51250000D02*
X121000000Y-51250000D01*
X120000000Y-52250000D02*
X120000000Y-54500000D01*
X120000000Y-54500000D02*
X117250000Y-57250000D01*
X141450000Y-89250000D02*
X144500000Y-86200000D01*
X144500000Y-86200000D02*
X144500000Y-73250000D01*
X141450000Y-73250000D02*
X144500000Y-73250000D01*
X127250000Y-67250000D02*
X126500000Y-66500000D01*
X126500000Y-66500000D02*
X126500000Y-56750000D01*
X126500000Y-56750000D02*
X127500000Y-55750000D01*
X139000000Y-55750000D02*
X139000000Y-57600000D01*
X139000000Y-57600000D02*
X137500000Y-59100000D01*
X137500000Y-59100000D02*
X137500000Y-75000000D01*
X137500000Y-75000000D02*
X129250000Y-83250000D01*
X129250000Y-83250000D02*
X127250000Y-83250000D01*
D20*
X130340000Y-94000000D02*
X124250000Y-87910000D01*
X124250000Y-87910000D02*
X124250000Y-83500000D01*
X124250000Y-83500000D02*
X117000000Y-76250000D01*
X117000000Y-76250000D02*
X117000000Y-70000000D01*
X132880000Y-94000000D02*
X130340000Y-94000000D01*
D23*
G36*
X123498000Y-87910000D02*
X123504778Y-87979126D01*
X123510833Y-88048331D01*
X123511936Y-88052128D01*
X123512322Y-88056064D01*
X123532409Y-88122595D01*
X123551779Y-88189269D01*
X123553597Y-88192777D01*
X123554741Y-88196565D01*
X123587354Y-88257901D01*
X123619319Y-88319568D01*
X123621787Y-88322660D01*
X123623643Y-88326150D01*
X123667531Y-88379962D01*
X123710883Y-88434268D01*
X123716309Y-88439770D01*
X123716403Y-88439885D01*
X123716510Y-88439973D01*
X123718256Y-88441744D01*
X127964137Y-92687625D01*
X127898000Y-92720999D01*
X127898000Y-93902000D01*
X127918000Y-93902000D01*
X127918000Y-94098000D01*
X127898000Y-94098000D01*
X127898000Y-95279001D01*
X128119498Y-95390773D01*
X128307020Y-95333893D01*
X128557507Y-95209348D01*
X128778884Y-95038328D01*
X128962643Y-94827406D01*
X129069058Y-94641692D01*
X129151421Y-94796595D01*
X129327443Y-95012418D01*
X129542032Y-95189942D01*
X129787015Y-95322404D01*
X130053062Y-95404759D01*
X130330038Y-95433870D01*
X130607393Y-95408629D01*
X130874564Y-95329996D01*
X131121373Y-95200968D01*
X131338420Y-95026458D01*
X131517437Y-94813113D01*
X131551034Y-94752000D01*
X131667710Y-94752000D01*
X131691421Y-94796595D01*
X131867443Y-95012418D01*
X132082032Y-95189942D01*
X132327015Y-95322404D01*
X132593062Y-95404759D01*
X132870038Y-95433870D01*
X133147393Y-95408629D01*
X133414564Y-95329996D01*
X133661373Y-95200968D01*
X133878420Y-95026458D01*
X134057437Y-94813113D01*
X134150345Y-94644113D01*
X134231421Y-94796595D01*
X134407443Y-95012418D01*
X134622032Y-95189942D01*
X134867015Y-95322404D01*
X135133062Y-95404759D01*
X135410038Y-95433870D01*
X135687393Y-95408629D01*
X135954564Y-95329996D01*
X136201373Y-95200968D01*
X136418420Y-95026458D01*
X136597437Y-94813113D01*
X136691317Y-94642346D01*
X136797357Y-94827406D01*
X136981116Y-95038328D01*
X137202493Y-95209348D01*
X137452980Y-95333893D01*
X137640502Y-95390773D01*
X137861998Y-95279002D01*
X137861998Y-95427000D01*
X137873000Y-95427000D01*
X137873000Y-97180135D01*
X136039352Y-97372859D01*
X135998955Y-97373000D01*
X124095140Y-97373000D01*
X124123312Y-97361331D01*
X124217816Y-97298185D01*
X124298185Y-97217816D01*
X124361331Y-97123312D01*
X124404826Y-97018305D01*
X124427000Y-96906830D01*
X124427000Y-96242250D01*
X124282750Y-96098000D01*
X123098000Y-96098000D01*
X123098000Y-96118000D01*
X122902000Y-96118000D01*
X122902000Y-96098000D01*
X122882000Y-96098000D01*
X122882000Y-95902000D01*
X122902000Y-95902000D01*
X122902000Y-94717250D01*
X123098000Y-94717250D01*
X123098000Y-95902000D01*
X124282750Y-95902000D01*
X124427000Y-95757750D01*
X124427000Y-95093170D01*
X124404826Y-94981695D01*
X124361331Y-94876688D01*
X124298185Y-94782184D01*
X124217816Y-94701815D01*
X124123312Y-94638669D01*
X124018304Y-94595174D01*
X123906829Y-94573000D01*
X123242250Y-94573000D01*
X123098000Y-94717250D01*
X122902000Y-94717250D01*
X122757750Y-94573000D01*
X122093171Y-94573000D01*
X121981696Y-94595174D01*
X121876688Y-94638669D01*
X121782184Y-94701815D01*
X121701815Y-94782184D01*
X121638669Y-94876688D01*
X121595174Y-94981695D01*
X121573000Y-95093170D01*
X121573000Y-95110737D01*
X121472557Y-94987582D01*
X121257968Y-94810058D01*
X121012985Y-94677596D01*
X120746938Y-94595241D01*
X120469962Y-94566130D01*
X120218563Y-94589009D01*
X119949053Y-94319499D01*
X126409223Y-94319499D01*
X126498278Y-94584687D01*
X126637357Y-94827406D01*
X126821116Y-95038328D01*
X127042493Y-95209348D01*
X127292980Y-95333893D01*
X127480502Y-95390773D01*
X127702000Y-95279001D01*
X127702000Y-94098000D01*
X126520615Y-94098000D01*
X126409223Y-94319499D01*
X119949053Y-94319499D01*
X119310055Y-93680501D01*
X126409223Y-93680501D01*
X126520615Y-93902000D01*
X127702000Y-93902000D01*
X127702000Y-92720999D01*
X127480502Y-92609227D01*
X127292980Y-92666107D01*
X127042493Y-92790652D01*
X126821116Y-92961672D01*
X126637357Y-93172594D01*
X126498278Y-93415313D01*
X126409223Y-93680501D01*
X119310055Y-93680501D01*
X118577000Y-92947446D01*
X118577000Y-92641297D01*
X119097278Y-92641297D01*
X119253899Y-92944182D01*
X119616198Y-93134261D01*
X120008618Y-93250006D01*
X120416078Y-93286971D01*
X120822921Y-93243733D01*
X121213511Y-93121955D01*
X121546101Y-92944182D01*
X121702722Y-92641297D01*
X120400000Y-91338575D01*
X119097278Y-92641297D01*
X118577000Y-92641297D01*
X118577000Y-92198659D01*
X118655800Y-92346083D01*
X118958685Y-92502704D01*
X120261407Y-91199982D01*
X120538593Y-91199982D01*
X121841315Y-92502704D01*
X122144200Y-92346083D01*
X122334279Y-91983784D01*
X122450024Y-91591364D01*
X122486989Y-91183904D01*
X122443751Y-90777061D01*
X122321973Y-90386471D01*
X122144200Y-90053881D01*
X121841315Y-89897260D01*
X120538593Y-91199982D01*
X120261407Y-91199982D01*
X118958685Y-89897260D01*
X118655800Y-90053881D01*
X118577000Y-90204077D01*
X118577000Y-89758667D01*
X119097278Y-89758667D01*
X120400000Y-91061389D01*
X121702722Y-89758667D01*
X121546101Y-89455782D01*
X121183802Y-89265703D01*
X120791382Y-89149958D01*
X120383922Y-89112993D01*
X119977079Y-89156231D01*
X119586489Y-89278009D01*
X119253899Y-89455782D01*
X119097278Y-89758667D01*
X118577000Y-89758667D01*
X118577000Y-87577000D01*
X121310049Y-87577000D01*
X121386040Y-87569549D01*
X121462177Y-87562888D01*
X121466355Y-87561674D01*
X121470681Y-87561250D01*
X121543804Y-87539173D01*
X121617170Y-87517858D01*
X121621030Y-87515857D01*
X121625194Y-87514600D01*
X121692653Y-87478731D01*
X121760465Y-87443581D01*
X121763863Y-87440868D01*
X121767704Y-87438826D01*
X121826915Y-87390535D01*
X121886604Y-87342885D01*
X121892656Y-87336917D01*
X121892781Y-87336815D01*
X121892877Y-87336699D01*
X121894826Y-87334777D01*
X122178063Y-87051540D01*
X122226644Y-87042974D01*
X122405277Y-86973687D01*
X122557629Y-86877000D01*
X123498000Y-86877000D01*
X123498000Y-87910000D01*
X123498000Y-87910000D01*
G37*
X123498000Y-87910000D02*
X123504778Y-87979126D01*
X123510833Y-88048331D01*
X123511936Y-88052128D01*
X123512322Y-88056064D01*
X123532409Y-88122595D01*
X123551779Y-88189269D01*
X123553597Y-88192777D01*
X123554741Y-88196565D01*
X123587354Y-88257901D01*
X123619319Y-88319568D01*
X123621787Y-88322660D01*
X123623643Y-88326150D01*
X123667531Y-88379962D01*
X123710883Y-88434268D01*
X123716309Y-88439770D01*
X123716403Y-88439885D01*
X123716510Y-88439973D01*
X123718256Y-88441744D01*
X127964137Y-92687625D01*
X127898000Y-92720999D01*
X127898000Y-93902000D01*
X127918000Y-93902000D01*
X127918000Y-94098000D01*
X127898000Y-94098000D01*
X127898000Y-95279001D01*
X128119498Y-95390773D01*
X128307020Y-95333893D01*
X128557507Y-95209348D01*
X128778884Y-95038328D01*
X128962643Y-94827406D01*
X129069058Y-94641692D01*
X129151421Y-94796595D01*
X129327443Y-95012418D01*
X129542032Y-95189942D01*
X129787015Y-95322404D01*
X130053062Y-95404759D01*
X130330038Y-95433870D01*
X130607393Y-95408629D01*
X130874564Y-95329996D01*
X131121373Y-95200968D01*
X131338420Y-95026458D01*
X131517437Y-94813113D01*
X131551034Y-94752000D01*
X131667710Y-94752000D01*
X131691421Y-94796595D01*
X131867443Y-95012418D01*
X132082032Y-95189942D01*
X132327015Y-95322404D01*
X132593062Y-95404759D01*
X132870038Y-95433870D01*
X133147393Y-95408629D01*
X133414564Y-95329996D01*
X133661373Y-95200968D01*
X133878420Y-95026458D01*
X134057437Y-94813113D01*
X134150345Y-94644113D01*
X134231421Y-94796595D01*
X134407443Y-95012418D01*
X134622032Y-95189942D01*
X134867015Y-95322404D01*
X135133062Y-95404759D01*
X135410038Y-95433870D01*
X135687393Y-95408629D01*
X135954564Y-95329996D01*
X136201373Y-95200968D01*
X136418420Y-95026458D01*
X136597437Y-94813113D01*
X136691317Y-94642346D01*
X136797357Y-94827406D01*
X136981116Y-95038328D01*
X137202493Y-95209348D01*
X137452980Y-95333893D01*
X137640502Y-95390773D01*
X137861998Y-95279002D01*
X137861998Y-95427000D01*
X137873000Y-95427000D01*
X137873000Y-97180135D01*
X136039352Y-97372859D01*
X135998955Y-97373000D01*
X124095140Y-97373000D01*
X124123312Y-97361331D01*
X124217816Y-97298185D01*
X124298185Y-97217816D01*
X124361331Y-97123312D01*
X124404826Y-97018305D01*
X124427000Y-96906830D01*
X124427000Y-96242250D01*
X124282750Y-96098000D01*
X123098000Y-96098000D01*
X123098000Y-96118000D01*
X122902000Y-96118000D01*
X122902000Y-96098000D01*
X122882000Y-96098000D01*
X122882000Y-95902000D01*
X122902000Y-95902000D01*
X122902000Y-94717250D01*
X123098000Y-94717250D01*
X123098000Y-95902000D01*
X124282750Y-95902000D01*
X124427000Y-95757750D01*
X124427000Y-95093170D01*
X124404826Y-94981695D01*
X124361331Y-94876688D01*
X124298185Y-94782184D01*
X124217816Y-94701815D01*
X124123312Y-94638669D01*
X124018304Y-94595174D01*
X123906829Y-94573000D01*
X123242250Y-94573000D01*
X123098000Y-94717250D01*
X122902000Y-94717250D01*
X122757750Y-94573000D01*
X122093171Y-94573000D01*
X121981696Y-94595174D01*
X121876688Y-94638669D01*
X121782184Y-94701815D01*
X121701815Y-94782184D01*
X121638669Y-94876688D01*
X121595174Y-94981695D01*
X121573000Y-95093170D01*
X121573000Y-95110737D01*
X121472557Y-94987582D01*
X121257968Y-94810058D01*
X121012985Y-94677596D01*
X120746938Y-94595241D01*
X120469962Y-94566130D01*
X120218563Y-94589009D01*
X119949053Y-94319499D01*
X126409223Y-94319499D01*
X126498278Y-94584687D01*
X126637357Y-94827406D01*
X126821116Y-95038328D01*
X127042493Y-95209348D01*
X127292980Y-95333893D01*
X127480502Y-95390773D01*
X127702000Y-95279001D01*
X127702000Y-94098000D01*
X126520615Y-94098000D01*
X126409223Y-94319499D01*
X119949053Y-94319499D01*
X119310055Y-93680501D01*
X126409223Y-93680501D01*
X126520615Y-93902000D01*
X127702000Y-93902000D01*
X127702000Y-92720999D01*
X127480502Y-92609227D01*
X127292980Y-92666107D01*
X127042493Y-92790652D01*
X126821116Y-92961672D01*
X126637357Y-93172594D01*
X126498278Y-93415313D01*
X126409223Y-93680501D01*
X119310055Y-93680501D01*
X118577000Y-92947446D01*
X118577000Y-92641297D01*
X119097278Y-92641297D01*
X119253899Y-92944182D01*
X119616198Y-93134261D01*
X120008618Y-93250006D01*
X120416078Y-93286971D01*
X120822921Y-93243733D01*
X121213511Y-93121955D01*
X121546101Y-92944182D01*
X121702722Y-92641297D01*
X120400000Y-91338575D01*
X119097278Y-92641297D01*
X118577000Y-92641297D01*
X118577000Y-92198659D01*
X118655800Y-92346083D01*
X118958685Y-92502704D01*
X120261407Y-91199982D01*
X120538593Y-91199982D01*
X121841315Y-92502704D01*
X122144200Y-92346083D01*
X122334279Y-91983784D01*
X122450024Y-91591364D01*
X122486989Y-91183904D01*
X122443751Y-90777061D01*
X122321973Y-90386471D01*
X122144200Y-90053881D01*
X121841315Y-89897260D01*
X120538593Y-91199982D01*
X120261407Y-91199982D01*
X118958685Y-89897260D01*
X118655800Y-90053881D01*
X118577000Y-90204077D01*
X118577000Y-89758667D01*
X119097278Y-89758667D01*
X120400000Y-91061389D01*
X121702722Y-89758667D01*
X121546101Y-89455782D01*
X121183802Y-89265703D01*
X120791382Y-89149958D01*
X120383922Y-89112993D01*
X119977079Y-89156231D01*
X119586489Y-89278009D01*
X119253899Y-89455782D01*
X119097278Y-89758667D01*
X118577000Y-89758667D01*
X118577000Y-87577000D01*
X121310049Y-87577000D01*
X121386040Y-87569549D01*
X121462177Y-87562888D01*
X121466355Y-87561674D01*
X121470681Y-87561250D01*
X121543804Y-87539173D01*
X121617170Y-87517858D01*
X121621030Y-87515857D01*
X121625194Y-87514600D01*
X121692653Y-87478731D01*
X121760465Y-87443581D01*
X121763863Y-87440868D01*
X121767704Y-87438826D01*
X121826915Y-87390535D01*
X121886604Y-87342885D01*
X121892656Y-87336917D01*
X121892781Y-87336815D01*
X121892877Y-87336699D01*
X121894826Y-87334777D01*
X122178063Y-87051540D01*
X122226644Y-87042974D01*
X122405277Y-86973687D01*
X122557629Y-86877000D01*
X123498000Y-86877000D01*
X123498000Y-87910000D01*
M02*
