999
dxflib 3.12.2.0
  0
SECTION
  2
HEADER
  9
$ACADVER
  1
AC1015
  9
$HANDSEED
  5
FFFF
  9
$DIMADEC
 70
0
  9
$DIMASZ
 40
2.5
  9
$DIMAUNIT
 70
0
  9
$DIMAZIN
 70
2
  9
$DIMDEC
 70
4
  9
$DIMEXE
 40
1.25
  9
$DIMEXO
 40
0.625
  9
$DIMGAP
 40
0.625
  9
$DIMLUNIT
 70
2
  9
$DIMSCALE
 40
1.0
  9
$DIMTSZ
 40
0.0
  9
$DIMTXT
 40
2.5
  9
$DIMZIN
 70
8
  9
$DWGCODEPAGE
  3
ANSI_1252
  9
$INSUNITS
 70
4
  9
$LTSCALE
 40
1.0
  9
$MAXACTVP
 70
32
  9
$MEASUREMENT
 70
1
  9
$PDMODE
 70
0
  9
$PDSIZE
 40
0
  0
ENDSEC
  0
SECTION
  2
TABLES
  0
TABLE
  2
VPORT
  5
8
100
AcDbSymbolTable
 70
1
  0
VPORT
  5
30
100
AcDbSymbolTableRecord
100
AcDbViewportTableRecord
  2
*Active
 70
0
 10
0.0
 20
0.0
 11
1.0
 21
1.0
 12
286.3055555555554861
 22
148.5
 13
0.0
 23
0.0
 14
10.0
 24
10.0
 15
10.0
 25
10.0
 16
0.0
 26
0.0
 36
1.0
 17
0.0
 27
0.0
 37
0.0
 40
297.0
 41
1.92798353909465
 42
50.0
 43
0.0
 44
0.0
 50
0.0
 51
0.0
 71
0
 72
100
 73
1
 74
3
 75
1
 76
1
 77
0
 78
0
281
0
 65
1
110
0.0
120
0.0
130
0.0
111
1.0
121
0.0
131
0.0
112
0.0
122
1.0
132
0.0
 79
0
146
0.0
  0
ENDTAB
  0
TABLE
  2
LTYPE
  5
5
100
AcDbSymbolTable
 70
41
  0
LTYPE
  5
16
100
AcDbSymbolTableRecord
100
AcDbLinetypeTableRecord
  2
Continuous
 70
0
  3
Solid line
 72
65
 73
0
 40
0.0
  0
LTYPE
  5
31
100
AcDbSymbolTableRecord
100
AcDbLinetypeTableRecord
  2
ACAD_ISO08W100
 70
0
  3
ISO long-dash short-dash ____ __ ____ __ ____ _
 72
65
 73
4
 40
36.0
 49
24.0
 74
0
 49
-3.0
 74
0
 49
6.0
 74
0
 49
-3.0
 74
0
  0
LTYPE
  5
32
100
AcDbSymbolTableRecord
100
AcDbLinetypeTableRecord
  2
BORDER
 70
0
  3
Border __ __ . __ __ . __ __ . __ __ . __ __ .
 72
65
 73
6
 40
44.4499999999999957
 49
12.6999999999999993
 74
0
 49
-6.3499999999999996
 74
0
 49
12.6999999999999993
 74
0
 49
-6.2999999999999998
 74
0
 49
0.1
 74
0
 49
-6.2999999999999998
 74
0
  0
LTYPE
  5
33
100
AcDbSymbolTableRecord
100
AcDbLinetypeTableRecord
  2
DOT2
 70
0
  3
Dot (.5x) ........................................
 72
65
 73
2
 40
3.1749999999999998
 49
0.1
 74
0
 49
-3.0749999999999997
 74
0
  0
LTYPE
  5
34
100
AcDbSymbolTableRecord
100
AcDbLinetypeTableRecord
  2
CENTER
 70
0
  3
Center ____ _ ____ _ ____ _ ____ _ ____ _ ____
 72
65
 73
4
 40
50.8000000000000043
 49
31.75
 74
0
 49
-6.3499999999999996
 74
0
 49
6.3499999999999996
 74
0
 49
-6.3499999999999996
 74
0
  0
LTYPE
  5
35
100
AcDbSymbolTableRecord
100
AcDbLinetypeTableRecord
  2
BORDERX2
 70
0
  3
Border (2x) ____  ____  .  ____  ____  .  ___
 72
65
 73
6
 40
88.8999999999999773
 49
25.3999999999999986
 74
0
 49
-12.6999999999999993
 74
0
 49
25.3999999999999986
 74
0
 49
-12.6499999999999986
 74
0
 49
0.1
 74
0
 49
-12.6499999999999986
 74
0
  0
LTYPE
  5
36
100
AcDbSymbolTableRecord
100
AcDbLinetypeTableRecord
  2
ACAD_ISO13W100
 70
0
  3
ISO double-dash double-dot __ __ . . __ __ . . _
 72
65
 73
8
 40
36.0000000000000071
 49
12.0
 74
0
 49
-3.0
 74
0
 49
12.0
 74
0
 49
-2.9500000000000002
 74
0
 49
0.1
 74
0
 49
-2.9000000000000004
 74
0
 49
0.1
 74
0
 49
-2.9500000000000002
 74
0
  0
LTYPE
  5
37
100
AcDbSymbolTableRecord
100
AcDbLinetypeTableRecord
  2
ACAD_ISO07W100
 70
0
  3
ISO dot . . . . . . . . . . . . . . . . . . . . 
 72
65
 73
2
 40
3.0
 49
0.1
 74
0
 49
-2.8999999999999999
 74
0
  0
LTYPE
  5
38
100
AcDbSymbolTableRecord
100
AcDbLinetypeTableRecord
  2
PHANTOM
 70
0
  3
Phantom ______  __  __  ______  __  __  ______ 
 72
65
 73
6
 40
63.5000000000000071
 49
31.75
 74
0
 49
-6.3499999999999996
 74
0
 49
6.3499999999999996
 74
0
 49
-6.3499999999999996
 74
0
 49
6.3499999999999996
 74
0
 49
-6.3499999999999996
 74
0
  0
LTYPE
  5
39
100
AcDbSymbolTableRecord
100
AcDbLinetypeTableRecord
  2
ACAD_ISO15W100
 70
0
  3
ISO double-dash triple-dot __ __ . . . __ __ . .
 72
65
 73
10
 40
39.0000000000000071
 49
12.0
 74
0
 49
-3.0
 74
0
 49
12.0
 74
0
 49
-2.9500000000000002
 74
0
 49
0.1
 74
0
 49
-2.9000000000000004
 74
0
 49
0.1
 74
0
 49
-2.9000000000000004
 74
0
 49
0.1
 74
0
 49
-2.9500000000000002
 74
0
  0
LTYPE
  5
3A
100
AcDbSymbolTableRecord
100
AcDbLinetypeTableRecord
  2
HIDDEN
 70
0
  3
Hidden __ __ __ __ __ __ __ __ __ __ __ __ __ __
 72
65
 73
2
 40
9.5249999999999986
 49
6.3499999999999996
 74
0
 49
-3.1749999999999998
 74
0
  0
LTYPE
  5
15
100
AcDbSymbolTableRecord
100
AcDbLinetypeTableRecord
  2
BYLAYER
 70
0
  3

 72
65
 73
0
 40
0.0
  0
LTYPE
  5
3B
100
AcDbSymbolTableRecord
100
AcDbLinetypeTableRecord
  2
ACAD_ISO12W100
 70
0
  3
ISO dash double-dot __ . . __ . . __ . . __ . . 
 72
65
 73
6
 40
21.0
 49
12.0
 74
0
 49
-2.9500000000000002
 74
0
 49
0.1
 74
0
 49
-2.9000000000000004
 74
0
 49
0.1
 74
0
 49
-2.9500000000000002
 74
0
  0
LTYPE
  5
3C
100
AcDbSymbolTableRecord
100
AcDbLinetypeTableRecord
  2
HIDDENX2
 70
0
  3
Hidden (2x) ____ ____ ____ ____ ____ ____ ____ 
 72
65
 73
2
 40
19.0499999999999972
 49
12.6999999999999993
 74
0
 49
-6.3499999999999996
 74
0
  0
LTYPE
  5
3D
100
AcDbSymbolTableRecord
100
AcDbLinetypeTableRecord
  2
CENTERX2
 70
0
  3
Center (2x) ________  __  ________  __  _____
 72
65
 73
4
 40
101.6000000000000085
 49
63.5
 74
0
 49
-12.6999999999999993
 74
0
 49
12.6999999999999993
 74
0
 49
-12.6999999999999993
 74
0
  0
LTYPE
  5
3E
100
AcDbSymbolTableRecord
100
AcDbLinetypeTableRecord
  2
DIVIDE
 70
0
  3
Divide ____ . . ____ . . ____ . . ____ . . ____
 72
65
 73
6
 40
31.7500000000000036
 49
12.6999999999999993
 74
0
 49
-6.2999999999999998
 74
0
 49
0.1
 74
0
 49
-6.25
 74
0
 49
0.1
 74
0
 49
-6.2999999999999998
 74
0
  0
LTYPE
  5
3F
100
AcDbSymbolTableRecord
100
AcDbLinetypeTableRecord
  2
ACAD_ISO04W100
 70
0
  3
ISO long-dash dot ____ . ____ . ____ . ____ . _
 72
65
 73
4
 40
30.0
 49
24.0
 74
0
 49
-2.9500000000000002
 74
0
 49
0.1
 74
0
 49
-2.9500000000000002
 74
0
  0
LTYPE
  5
40
100
AcDbSymbolTableRecord
100
AcDbLinetypeTableRecord
  2
DIVIDEX2
 70
0
  3
Divide (2x) ________  .  .  ________  .  .  _
 72
65
 73
6
 40
63.5
 49
25.3999999999999986
 74
0
 49
-12.6499999999999986
 74
0
 49
0.1
 74
0
 49
-12.5999999999999979
 74
0
 49
0.1
 74
0
 49
-12.6499999999999986
 74
0
  0
LTYPE
  5
41
100
AcDbSymbolTableRecord
100
AcDbLinetypeTableRecord
  2
HIDDEN2
 70
0
  3
Hidden (.5x) _ _ _ _ _ _ _ _ _ _ _ _ _ _ _ _ _ 
 72
65
 73
2
 40
4.7624999999999993
 49
3.1749999999999998
 74
0
 49
-1.5874999999999999
 74
0
  0
LTYPE
  5
42
100
AcDbSymbolTableRecord
100
AcDbLinetypeTableRecord
  2
ACAD_ISO09W100
 70
0
  3
ISO long-dash double-short-dash ____ __ __ ____
 72
65
 73
6
 40
45.0
 49
24.0
 74
0
 49
-3.0
 74
0
 49
6.0
 74
0
 49
-3.0
 74
0
 49
6.0
 74
0
 49
-3.0
 74
0
  0
LTYPE
  5
43
100
AcDbSymbolTableRecord
100
AcDbLinetypeTableRecord
  2
DASHDOTX2
 70
0
  3
Dash dot (2x) ____  .  ____  .  ____  .  ___
 72
65
 73
4
 40
50.7999999999999972
 49
25.3999999999999986
 74
0
 49
-12.6499999999999986
 74
0
 49
0.1
 74
0
 49
-12.6499999999999986
 74
0
  0
LTYPE
  5
44
100
AcDbSymbolTableRecord
100
AcDbLinetypeTableRecord
  2
DIVIDE2
 70
0
  3
Divide (.5x) __..__..__..__..__..__..__..__.._
 72
65
 73
6
 40
15.8749999999999982
 49
6.3499999999999996
 74
0
 49
-3.125
 74
0
 49
0.1
 74
0
 49
-3.0750000000000002
 74
0
 49
0.1
 74
0
 49
-3.125
 74
0
  0
LTYPE
  5
45
100
AcDbSymbolTableRecord
100
AcDbLinetypeTableRecord
  2
ACAD_ISO05W100
 70
0
  3
ISO long-dash double-dot ____ .. ____ .. ____ . 
 72
65
 73
6
 40
33.0000000000000071
 49
24.0
 74
0
 49
-2.9500000000000002
 74
0
 49
0.1
 74
0
 49
-2.9000000000000004
 74
0
 49
0.1
 74
0
 49
-2.9500000000000002
 74
0
  0
LTYPE
  5
14
100
AcDbSymbolTableRecord
100
AcDbLinetypeTableRecord
  2
BYBLOCK
 70
0
  3

 72
65
 73
0
 40
0.0
  0
LTYPE
  5
46
100
AcDbSymbolTableRecord
100
AcDbLinetypeTableRecord
  2
ACAD_ISO02W100
 70
0
  3
ISO dash __ __ __ __ __ __ __ __ __ __ __ __ __
 72
65
 73
2
 40
15.0
 49
12.0
 74
0
 49
-3.0
 74
0
  0
LTYPE
  5
47
100
AcDbSymbolTableRecord
100
AcDbLinetypeTableRecord
  2
PHANTOM2
 70
0
  3
Phantom (.5x) ___ _ _ ___ _ _ ___ _ _ ___ _ _
 72
65
 73
6
 40
31.7500000000000036
 49
15.875
 74
0
 49
-3.1749999999999998
 74
0
 49
3.1749999999999998
 74
0
 49
-3.1749999999999998
 74
0
 49
3.1749999999999998
 74
0
 49
-3.1749999999999998
 74
0
  0
LTYPE
  5
48
100
AcDbSymbolTableRecord
100
AcDbLinetypeTableRecord
  2
ACAD_ISO06W100
 70
0
  3
ISO long-dash triple-dot ____ ... ____ ... ____
 72
65
 73
8
 40
36.0000000000000071
 49
24.0
 74
0
 49
-2.9500000000000002
 74
0
 49
0.1
 74
0
 49
-2.9000000000000004
 74
0
 49
0.1
 74
0
 49
-2.9000000000000004
 74
0
 49
0.1
 74
0
 49
-2.9500000000000002
 74
0
  0
LTYPE
  5
49
100
AcDbSymbolTableRecord
100
AcDbLinetypeTableRecord
  2
BORDER2
 70
0
  3
Border (.5x) __.__.__.__.__.__.__.__.__.__.__.
 72
65
 73
6
 40
22.2250000000000014
 49
6.3499999999999996
 74
0
 49
-3.1749999999999998
 74
0
 49
6.3499999999999996
 74
0
 49
-3.125
 74
0
 49
0.1
 74
0
 49
-3.125
 74
0
  0
LTYPE
  5
4A
100
AcDbSymbolTableRecord
100
AcDbLinetypeTableRecord
  2
CENTER2
 70
0
  3
Center (.5x) ___ _ ___ _ ___ _ ___ _ ___ _ ___
 72
65
 73
4
 40
28.5750000000000028
 49
19.0500000000000007
 74
0
 49
-3.1749999999999998
 74
0
 49
3.1749999999999998
 74
0
 49
-3.1749999999999998
 74
0
  0
LTYPE
  5
4B
100
AcDbSymbolTableRecord
100
AcDbLinetypeTableRecord
  2
DASHED
 70
0
  3
Dashed __ __ __ __ __ __ __ __ __ __ __ __ __ _
 72
65
 73
2
 40
19.0499999999999972
 49
12.6999999999999993
 74
0
 49
-6.3499999999999996
 74
0
  0
LTYPE
  5
4C
100
AcDbSymbolTableRecord
100
AcDbLinetypeTableRecord
  2
DASHDOT
 70
0
  3
Dash dot __ . __ . __ . __ . __ . __ . __ . __
 72
65
 73
4
 40
25.4000000000000021
 49
12.6999999999999993
 74
0
 49
-6.2999999999999998
 74
0
 49
0.1
 74
0
 49
-6.2999999999999998
 74
0
  0
LTYPE
  5
4D
100
AcDbSymbolTableRecord
100
AcDbLinetypeTableRecord
  2
DOT
 70
0
  3
Dot . . . . . . . . . . . . . . . . . . . . . . . .
 72
65
 73
2
 40
6.3499999999999996
 49
0.1
 74
0
 49
-6.25
 74
0
  0
LTYPE
  5
4E
100
AcDbSymbolTableRecord
100
AcDbLinetypeTableRecord
  2
ACAD_ISO11W100
 70
0
  3
ISO double-dash dot __ __ . __ __ . __ __ . __ _
 72
65
 73
6
 40
33.0
 49
12.0
 74
0
 49
-3.0
 74
0
 49
12.0
 74
0
 49
-2.9500000000000002
 74
0
 49
0.1
 74
0
 49
-2.9500000000000002
 74
0
  0
LTYPE
  5
4F
100
AcDbSymbolTableRecord
100
AcDbLinetypeTableRecord
  2
ACAD_ISO10W100
 70
0
  3
ISO dash dot __ . __ . __ . __ . __ . __ . __ . 
 72
65
 73
4
 40
18.0
 49
12.0
 74
0
 49
-2.9500000000000002
 74
0
 49
0.1
 74
0
 49
-2.9500000000000002
 74
0
  0
LTYPE
  5
50
100
AcDbSymbolTableRecord
100
AcDbLinetypeTableRecord
  2
DOTX2
 70
0
  3
Dot (2x) .  .  .  .  .  .  .  .  .  .  .  .  .  .
 72
65
 73
2
 40
12.6999999999999993
 49
0.1
 74
0
 49
-12.5999999999999996
 74
0
  0
LTYPE
  5
51
100
AcDbSymbolTableRecord
100
AcDbLinetypeTableRecord
  2
ACAD_ISO03W100
 70
0
  3
ISO dash space __    __    __    __    __    __
 72
65
 73
2
 40
30.0
 49
12.0
 74
0
 49
-18.0
 74
0
  0
LTYPE
  5
52
100
AcDbSymbolTableRecord
100
AcDbLinetypeTableRecord
  2
ACAD_ISO14W100
 70
0
  3
ISO dash triple-dot __ . . . __ . . . __ . . . _
 72
65
 73
8
 40
24.0000000000000036
 49
12.0
 74
0
 49
-2.9500000000000002
 74
0
 49
0.1
 74
0
 49
-2.9000000000000004
 74
0
 49
0.1
 74
0
 49
-2.9000000000000004
 74
0
 49
0.1
 74
0
 49
-2.9500000000000002
 74
0
  0
LTYPE
  5
53
100
AcDbSymbolTableRecord
100
AcDbLinetypeTableRecord
  2
DASHEDX2
 70
0
  3
Dashed (2x) ____  ____  ____  ____  ____  ___
 72
65
 73
2
 40
38.0999999999999943
 49
25.3999999999999986
 74
0
 49
-12.6999999999999993
 74
0
  0
LTYPE
  5
54
100
AcDbSymbolTableRecord
100
AcDbLinetypeTableRecord
  2
DASHED2
 70
0
  3
Dashed (.5x) _ _ _ _ _ _ _ _ _ _ _ _ _ _ _ _ _ 
 72
65
 73
2
 40
9.5249999999999986
 49
6.3499999999999996
 74
0
 49
-3.1749999999999998
 74
0
  0
LTYPE
  5
55
100
AcDbSymbolTableRecord
100
AcDbLinetypeTableRecord
  2
PHANTOMX2
 70
0
  3
Phantom (2x) ____________    ____    ____   _
 72
65
 73
6
 40
127.0000000000000142
 49
63.5
 74
0
 49
-12.6999999999999993
 74
0
 49
12.6999999999999993
 74
0
 49
-12.6999999999999993
 74
0
 49
12.6999999999999993
 74
0
 49
-12.6999999999999993
 74
0
  0
LTYPE
  5
56
100
AcDbSymbolTableRecord
100
AcDbLinetypeTableRecord
  2
DASHDOT2
 70
0
  3
Dash dot (.5x) _._._._._._._._._._._._._._._.
 72
65
 73
4
 40
12.6999999999999993
 49
6.3499999999999996
 74
0
 49
-3.125
 74
0
 49
0.1
 74
0
 49
-3.125
 74
0
  0
ENDTAB
  0
TABLE
  2
LAYER
  5
2
100
AcDbSymbolTable
 70
1
  0
LAYER
  5
10
100
AcDbSymbolTableRecord
100
AcDbLayerTableRecord
  2
0
 70
0
 62
7
420
16777215
  6
Continuous
370
25
390
F
  0
ENDTAB
  0
TABLE
  2
STYLE
  5
3
100
AcDbSymbolTable
 70
1
  0
STYLE
  5
57
100
AcDbSymbolTableRecord
100
AcDbTextStyleTableRecord
  2
Standard
 70
0
 40
0.0
 41
1.0
 50
0.0
 71
0
 42
2.5
  3

  4

1001
ACAD
1000
txt
1071
0
  0
ENDTAB
  0
TABLE
  2
VIEW
  5
6
100
AcDbSymbolTable
 70
0
  0
ENDTAB
  0
TABLE
  2
UCS
  5
7
100
AcDbSymbolTable
 70
0
  0
ENDTAB
  0
TABLE
  2
APPID
  5
9
100
AcDbSymbolTable
 70
1
  0
APPID
  5
12
100
AcDbSymbolTableRecord
100
AcDbRegAppTableRecord
  2
ACAD
 70
0
  0
APPID
  5
58
100
AcDbSymbolTableRecord
100
AcDbRegAppTableRecord
  2
QCAD
 70
0
  0
ENDTAB
  0
TABLE
  2
DIMSTYLE
  5
A
100
AcDbSymbolTable
 70
1
100
AcDbDimStyleTable
 71
0
  0
DIMSTYLE
105
27
100
AcDbSymbolTableRecord
100
AcDbDimStyleTableRecord
  2
Standard
 41
2.5
 42
0.625
 43
3.75
 44
1.25
 70
0
 73
0
 74
0
 77
1
 78
8
140
2.5
141
2.5
143
0.03937007874016
147
0.625
171
3
172
1
271
2
272
2
274
3
278
44
283
0
284
8
340
57
  0
ENDTAB
  0
TABLE
  2
BLOCK_RECORD
  5
1
100
AcDbSymbolTable
 70
1
  0
BLOCK_RECORD
  5
1F
100
AcDbSymbolTableRecord
100
AcDbBlockTableRecord
  2
*Model_Space
340
22
  0
BLOCK_RECORD
  5
1B
100
AcDbSymbolTableRecord
100
AcDbBlockTableRecord
  2
*Paper_Space
340
1E
  0
BLOCK_RECORD
  5
23
100
AcDbSymbolTableRecord
100
AcDbBlockTableRecord
  2
*Paper_Space0
340
26
  0
ENDTAB
  0
ENDSEC
  0
SECTION
  2
BLOCKS
  0
BLOCK
  5
20
100
AcDbEntity
  8
0
100
AcDbBlockBegin
  2
*Model_Space
 70
0
 10
0.0
 20
0.0
 30
0.0
  3
*Model_Space
  1

  0
ENDBLK
  5
21
100
AcDbEntity
  8
0
100
AcDbBlockEnd
  0
BLOCK
  5
1C
100
AcDbEntity
 67
1
  8
0
100
AcDbBlockBegin
  2
*Paper_Space
 70
0
 10
0.0
 20
0.0
 30
0.0
  3
*Paper_Space
  1

  0
ENDBLK
  5
1D
100
AcDbEntity
 67
1
  8
0
100
AcDbBlockEnd
  0
BLOCK
  5
24
100
AcDbEntity
  8
0
100
AcDbBlockBegin
  2
*Paper_Space0
 70
0
 10
0.0
 20
0.0
 30
0.0
  3
*Paper_Space0
  1

  0
ENDBLK
  5
25
100
AcDbEntity
  8
0
100
AcDbBlockEnd
  0
ENDSEC
  0
SECTION
  2
ENTITIES
  0
LINE
  5
59
100
AcDbEntity
  8
0
 62
7
420
0
370
-1
 48
1.0
  6
BYLAYER
100
AcDbLine
 10
102.6046490220810625
 20
-135.4103661553692746
 30
0.0
 11
121.9414460664989122
 21
-135.4103661553692746
 31
0.0
  0
LINE
  5
5A
100
AcDbEntity
  8
0
 62
7
420
0
370
-1
 48
1.0
  6
BYLAYER
100
AcDbLine
 10
133.5999999999999943
 20
-146.8999999999999773
 30
0.0
 11
133.5837956680346394
 21
-166.1671949503015924
 31
0.0
  0
LINE
  5
5B
100
AcDbEntity
  8
0
 62
7
420
0
370
-1
 48
1.0
  6
BYLAYER
100
AcDbLine
 10
122.2820149109428911
 20
-178.7762518219762455
 30
0.0
 11
101.5829396665269115
 21
-178.7762518219762455
 31
0.0
  0
LINE
  5
5C
100
AcDbEntity
  8
0
 62
7
420
0
370
-1
 48
1.0
  6
BYLAYER
100
AcDbLine
 10
90.0
 20
-166.0
 30
0.0
 11
90.0
 21
-147.0
 31
0.0
  0
LINE
  5
5D
100
AcDbEntity
  8
0
 62
7
420
0
370
-1
 48
1.0
  6
BYLAYER
100
AcDbLine
 10
102.6046490220810625
 20
-135.4103661553692461
 30
0.0
 11
102.6046490220810625
 21
-135.4103661553692746
 31
0.0
  0
ARC
  5
5E
100
AcDbEntity
  8
0
 62
7
420
0
370
-1
 48
1.0
  6
BYLAYER
100
AcDbCircle
 10
111.6841200683119837
 20
-143.2396925117249111
 30
0.0
 40
7.9583252297577678
100
AcDbArc
 50
217.3864297354307666
 51
253.4470787324155481
  0
ARC
  5
5F
100
AcDbEntity
  8
0
 62
7
420
0
370
-1
 48
1.0
  6
BYLAYER
100
AcDbCircle
 10
111.6440773713596286
 20
-143.2279047964300958
 30
0.0
 40
7.9583256970528051
100
AcDbArc
 50
253.7475973301915815
 51
289.8082551832416698
  0
ARC
  5
60
100
AcDbEntity
  8
0
 62
7
420
0
370
-1
 48
1.0
  6
BYLAYER
100
AcDbCircle
 10
111.6048337561072685
 20
-143.2421487171341141
 30
0.0
 40
7.9583326865871102
100
AcDbArc
 50
290.1088238921037146
 51
326.1694454388766644
  0
ARC
  5
61
100
AcDbEntity
  8
0
 62
7
420
0
370
-1
 48
1.0
  6
BYLAYER
100
AcDbCircle
 10
111.5816891519938707
 20
-143.2768895597959613
 30
0.0
 40
7.9583265360457105
100
AcDbArc
 50
326.4699838004800654
 51
2.5306263567195391
  0
ARC
  5
62
100
AcDbEntity
  8
0
 62
7
420
0
370
-1
 48
1.0
  6
BYLAYER
100
AcDbCircle
 10
111.588584510952046
 20
-143.315820367869236
 30
0.0
 40
7.9532534211047601
100
AcDbArc
 50
2.8130074827079827
 51
37.3650917429448342
  0
ARC
  5
63
100
AcDbEntity
  8
0
 62
7
420
0
370
-1
 48
1.0
  6
BYLAYER
100
AcDbCircle
 10
111.6109144846302001
 20
-143.3449132290749333
 30
0.0
 40
7.953246678106324
100
AcDbArc
 50
37.629298010018978
 51
72.1814082726573787
  0
ARC
  5
64
100
AcDbEntity
  8
0
 62
7
420
0
370
-1
 48
1.0
  6
BYLAYER
100
AcDbCircle
 10
111.6458532669928445
 20
-143.3560614837311959
 30
0.0
 40
7.9532532938093512
100
AcDbArc
 50
72.445612557763738
 51
106.9976988044368511
  0
ARC
  5
65
100
AcDbEntity
  8
0
 62
7
420
0
370
-1
 48
1.0
  6
BYLAYER
100
AcDbCircle
 10
111.6809006178845607
 20
-143.3452533379396527
 30
0.0
 40
7.9532473582206222
100
AcDbArc
 50
107.2619159182309545
 51
141.814027376830154
  0
LINE
  5
66
100
AcDbEntity
  8
0
 62
7
420
0
370
-1
 48
1.0
  6
BYLAYER
100
AcDbLine
 10
105.4295824147300777
 20
-138.4284287260633448
 30
0.0
 11
105.3607654879328521
 21
-148.0718894565314088
 31
0.0
  0
LINE
  5
67
100
AcDbEntity
  8
0
 62
7
420
0
370
-1
 48
1.0
  6
BYLAYER
100
AcDbLine
 10
105.3607654879328521
 20
-148.0718894565314088
 30
0.0
 11
105.3607654879328237
 21
-148.0718894565314088
 31
0.0
  0
LINE
  5
68
100
AcDbEntity
  8
0
 62
7
420
0
370
-1
 48
1.0
  6
BYLAYER
100
AcDbLine
 10
105.4205363887954121
 20
-138.4492314390086278
 30
0.0
 11
100.1960975373879421
 21
-138.4492314390086278
 31
0.0
  0
LINE
  5
69
100
AcDbEntity
  8
0
 62
7
420
0
370
-1
 48
1.0
  6
BYLAYER
100
AcDbLine
 10
100.1960975373879421
 20
-138.4492314390086278
 30
0.0
 11
100.1960975373879421
 21
-148.0534212985647855
 31
0.0
  0
LINE
  5
6A
100
AcDbEntity
  8
0
 62
7
420
0
370
-1
 48
1.0
  6
BYLAYER
100
AcDbLine
 10
100.1960975373879421
 20
-148.0534212985647855
 30
0.0
 11
105.3702205854394833
 21
-148.0628763960714309
 31
0.0
  0
ARC
  5
6B
100
AcDbEntity
  8
0
 62
7
420
0
370
-1
 48
1.0
  6
BYLAYER
100
AcDbCircle
 10
103.2864684524237191
 20
-139.2475643127362162
 30
0.0
 40
0.7325863393147385
100
AcDbArc
 50
55.8710892064385121
 51
87.4766132420619158
  0
ARC
  5
6C
100
AcDbEntity
  8
0
 62
7
420
0
370
-1
 48
1.0
  6
BYLAYER
100
AcDbCircle
 10
103.2843268975988309
 20
-139.2461144356772422
 30
0.0
 40
0.7325922626389323
100
AcDbArc
 50
24.0635922139809928
 51
55.6688234867267653
  0
ARC
  5
6D
100
AcDbEntity
  8
0
 62
7
420
0
370
-1
 48
1.0
  6
BYLAYER
100
AcDbCircle
 10
103.2832900133107614
 20
-139.2437481031269613
 30
0.0
 40
0.7325787174044114
100
AcDbArc
 50
352.2556503660348994
 51
23.8615355819152946
  0
ARC
  5
6E
100
AcDbEntity
  8
0
 62
7
420
0
370
-1
 48
1.0
  6
BYLAYER
100
AcDbCircle
 10
103.2836423903779206
 20
-139.241195466039386
 30
0.0
 40
0.7325780623717245
100
AcDbArc
 50
320.4482851372434311
 51
352.0541123916628976
  0
ARC
  5
6F
100
AcDbEntity
  8
0
 62
7
420
0
370
-1
 48
1.0
  6
BYLAYER
100
AcDbCircle
 10
103.2854850369740376
 20
-139.2395943386866577
 30
0.0
 40
0.732180805792505
100
AcDbArc
 50
290.1087714235303565
 51
320.2598579912756236
  0
ARC
  5
70
100
AcDbEntity
  8
0
 62
7
420
0
370
-1
 48
1.0
  6
BYLAYER
100
AcDbCircle
 10
103.2875885551822392
 20
-139.2388349816461357
 30
0.0
 40
0.7321740922250961
100
AcDbArc
 50
259.782474508898872
 51
289.93376628114396
  0
ARC
  5
71
100
AcDbEntity
  8
0
 62
7
420
0
370
-1
 48
1.0
  6
BYLAYER
100
AcDbCircle
 10
103.2897840298088283
 20
-139.2392361956772788
 30
0.0
 40
0.732172088423807
100
AcDbArc
 50
229.456415085151832
 51
259.6078236652961664
  0
ARC
  5
72
100
AcDbEntity
  8
0
 62
7
420
0
370
-1
 48
1.0
  6
BYLAYER
100
AcDbCircle
 10
103.2914850963674098
 20
-139.2406869545686448
 30
0.0
 40
0.7321787910827413
100
AcDbArc
 50
199.1303760613450891
 51
229.281463410762484
  0
ARC
  5
73
100
AcDbEntity
  8
0
 62
7
420
0
370
-1
 48
1.0
  6
BYLAYER
100
AcDbCircle
 10
103.3024537114055761
 20
-139.2453415489435145
 30
0.0
 40
0.741059367600847
100
AcDbArc
 50
143.840652923872085
 51
198.5124413005669908
  0
ARC
  5
74
100
AcDbEntity
  8
0
 62
7
420
0
370
-1
 48
1.0
  6
BYLAYER
100
AcDbCircle
 10
103.2942561817169889
 20
-139.2563440893554798
 30
0.0
 40
0.741059732189921
100
AcDbArc
 50
88.108044709433031
 51
142.779814026817462
  0
LINE
  5
75
100
AcDbEntity
  8
0
 62
7
420
0
370
-1
 48
1.0
  6
BYLAYER
100
AcDbLine
 10
103.3187221565703169
 20
-138.5156883375059067
 30
0.0
 11
103.3187221565703169
 21
-138.5156883375059067
 31
0.0
  0
ARC
  5
76
100
AcDbEntity
  8
0
 62
7
420
0
370
-1
 48
1.0
  6
BYLAYER
100
AcDbCircle
 10
103.2864684524236907
 20
-147.2475298052692665
 30
0.0
 40
0.7325863393147787
100
AcDbArc
 50
55.8710892064398834
 51
87.4766132420607505
  0
ARC
  5
77
100
AcDbEntity
  8
0
 62
7
420
0
370
-1
 48
1.0
  6
BYLAYER
100
AcDbCircle
 10
103.2843268975988309
 20
-147.2460799282102073
 30
0.0
 40
0.7325922626389323
100
AcDbArc
 50
24.063592213979824
 51
55.6688234867260405
  0
ARC
  5
78
100
AcDbEntity
  8
0
 62
7
420
0
370
-1
 48
1.0
  6
BYLAYER
100
AcDbCircle
 10
103.2832900133107614
 20
-147.2437135956599832
 30
0.0
 40
0.7325787174044117
100
AcDbArc
 50
352.2556503660374574
 51
23.8615355819175292
  0
ARC
  5
79
100
AcDbEntity
  8
0
 62
7
420
0
370
-1
 48
1.0
  6
BYLAYER
100
AcDbCircle
 10
103.2836423903778638
 20
-147.2411609585724364
 30
0.0
 40
0.7325780623717484
100
AcDbArc
 50
320.4482851372469554
 51
352.054112391664205
  0
ARC
  5
7A
100
AcDbEntity
  8
0
 62
7
420
0
370
-1
 48
1.0
  6
BYLAYER
100
AcDbCircle
 10
103.2854850369740376
 20
-147.239559831219708
 30
0.0
 40
0.7321808057924732
100
AcDbArc
 50
290.1087714235320618
 51
320.2598579912777268
  0
ARC
  5
7B
100
AcDbEntity
  8
0
 62
7
420
0
370
-1
 48
1.0
  6
BYLAYER
100
AcDbCircle
 10
103.2875885551822392
 20
-147.2388004741791292
 30
0.0
 40
0.7321740922250961
100
AcDbArc
 50
259.782474508898872
 51
289.9337662811427094
  0
ARC
  5
7C
100
AcDbEntity
  8
0
 62
7
420
0
370
-1
 48
1.0
  6
BYLAYER
100
AcDbCircle
 10
103.2897840298087999
 20
-147.2392016882102723
 30
0.0
 40
0.7321720884237749
100
AcDbArc
 50
229.4564150851502973
 51
259.6078236652984401
  0
ARC
  5
7D
100
AcDbEntity
  8
0
 62
7
420
0
370
-1
 48
1.0
  6
BYLAYER
100
AcDbCircle
 10
103.2914850963673814
 20
-147.2406524471016382
 30
0.0
 40
0.7321787910827091
100
AcDbArc
 50
199.1303760613486986
 51
229.2814634107652978
  0
ARC
  5
7E
100
AcDbEntity
  8
0
 62
7
420
0
370
-1
 48
1.0
  6
BYLAYER
100
AcDbCircle
 10
103.3024537114055903
 20
-147.2453070414765079
 30
0.0
 40
0.7410593676008629
100
AcDbArc
 50
143.8406529238701239
 51
198.5124413005681845
  0
ARC
  5
7F
100
AcDbEntity
  8
0
 62
7
420
0
370
-1
 48
1.0
  6
BYLAYER
100
AcDbCircle
 10
103.2942561817169889
 20
-147.2563095818885017
 30
0.0
 40
0.741059732189929
100
AcDbArc
 50
88.108044709433031
 51
142.7798140268164957
  0
LINE
  5
80
100
AcDbEntity
  8
0
 62
7
420
0
370
-1
 48
1.0
  6
BYLAYER
100
AcDbLine
 10
103.3187221565703169
 20
-146.5156538300388718
 30
0.0
 11
103.3187221565703169
 21
-146.5156538300388718
 31
0.0
  0
LINE
  5
81
100
AcDbEntity
  8
0
 62
7
420
0
370
-1
 48
1.0
  6
BYLAYER
100
AcDbLine
 10
105.3894683331883471
 20
-166.0468922442160249
 30
0.0
 11
100.1650298220844206
 21
-166.0468922442160249
 31
0.0
  0
LINE
  5
82
100
AcDbEntity
  8
0
 62
7
420
0
370
-1
 48
1.0
  6
BYLAYER
100
AcDbLine
 10
100.1650298220844206
 20
-166.0468922442160249
 30
0.0
 11
100.1650298220844206
 21
-175.6510837997583678
 31
0.0
  0
LINE
  5
83
100
AcDbEntity
  8
0
 62
7
420
0
370
-1
 48
1.0
  6
BYLAYER
100
AcDbLine
 10
100.1650298220844206
 20
-175.6510837997583678
 30
0.0
 11
105.339153755410635
 21
-175.6605382442027974
 31
0.0
  0
ARC
  5
84
100
AcDbEntity
  8
0
 62
7
420
0
370
-1
 48
1.0
  6
BYLAYER
100
AcDbCircle
 10
111.6530624885278229
 20
-170.8373426581651984
 30
0.0
 40
7.9583398442675026
100
AcDbArc
 50
217.386465483278414
 51
253.4470493499630379
  0
ARC
  5
85
100
AcDbEntity
  8
0
 62
7
420
0
370
-1
 48
1.0
  6
BYLAYER
100
AcDbCircle
 10
111.6130063121894125
 20
-170.825563038789511
 30
0.0
 40
7.9583287451002018
100
AcDbArc
 50
253.7476442500849316
 51
289.8082712125896023
  0
ARC
  5
86
100
AcDbEntity
  8
0
 62
7
420
0
370
-1
 48
1.0
  6
BYLAYER
100
AcDbCircle
 10
111.5737731116714002
 20
-170.8398165402704763
 30
0.0
 40
7.95832316889721
100
AcDbArc
 50
290.1087931106403062
 51
326.1694352527202341
  0
ARC
  5
87
100
AcDbEntity
  8
0
 62
7
420
0
370
-1
 48
1.0
  6
BYLAYER
100
AcDbCircle
 10
111.5506096890959782
 20
-170.8745485067179857
 30
0.0
 40
7.9583376010584148
100
AcDbArc
 50
326.469995540936111
 51
2.5305941424641643
  0
ARC
  5
88
100
AcDbEntity
  8
0
 62
7
420
0
370
-1
 48
1.0
  6
BYLAYER
100
AcDbCircle
 10
111.557519239286151
 20
-170.9134808182623715
 30
0.0
 40
7.9532503635829332
100
AcDbArc
 50
2.8129906907570605
 51
37.3650880359587916
  0
ARC
  5
89
100
AcDbEntity
  8
0
 62
7
420
0
370
-1
 48
1.0
  6
BYLAYER
100
AcDbCircle
 10
111.5798541522512579
 20
-170.9425695756309835
 30
0.0
 40
7.9532372008412091
100
AcDbArc
 50
37.6292927155380994
 51
72.1814308776958029
  0
ARC
  5
8A
100
AcDbEntity
  8
0
 62
7
420
0
370
-1
 48
1.0
  6
BYLAYER
100
AcDbCircle
 10
111.6147942460738278
 20
-170.9536665751862756
 30
0.0
 40
7.9531945673640854
100
AcDbArc
 50
72.4455331162136531
 51
106.9978702112463367
  0
ARC
  5
8B
100
AcDbEntity
  8
0
 62
7
420
0
370
-1
 48
1.0
  6
BYLAYER
100
AcDbCircle
 10
111.6498258924390399
 20
-170.9429132034562144
 30
0.0
 40
7.9532363888648447
100
AcDbArc
 50
107.2618641396741879
 51
141.8140266037238746
  0
LINE
  5
8C
100
AcDbEntity
  8
0
 62
7
420
0
370
-1
 48
1.0
  6
BYLAYER
100
AcDbLine
 10
105.398516377632788
 20
-166.0260952886604571
 30
0.0
 11
105.3296993109662196
 21
-175.669558066424969
 31
0.0
  0
LINE
  5
8D
100
AcDbEntity
  8
0
 62
7
420
0
370
-1
 48
1.0
  6
BYLAYER
100
AcDbLine
 10
105.3296993109662196
 20
-175.669558066424969
 30
0.0
 11
105.3296993109662054
 21
-175.6695524219805691
 31
0.0
  0
ARC
  5
8E
100
AcDbEntity
  8
0
 62
7
420
0
370
-1
 48
1.0
  6
BYLAYER
100
AcDbCircle
 10
103.2864499238255149
 20
-166.8142035388856357
 30
0.0
 40
0.7326317597922996
100
AcDbArc
 50
55.8718689677487532
 51
87.4753281284715314
  0
ARC
  5
8F
100
AcDbEntity
  8
0
 62
7
420
0
370
-1
 48
1.0
  6
BYLAYER
100
AcDbCircle
 10
103.2843426595242846
 20
-166.8126963716610192
 30
0.0
 40
0.7325709988445601
100
AcDbArc
 50
24.0631538923432551
 51
55.6693035152506042
  0
ARC
  5
90
100
AcDbEntity
  8
0
 62
7
420
0
370
-1
 48
1.0
  6
BYLAYER
100
AcDbCircle
 10
103.2832945973708689
 20
-166.8103451364087562
 30
0.0
 40
0.7325738032146596
100
AcDbArc
 50
352.2559072690835364
 51
23.8618176032825104
  0
ARC
  5
91
100
AcDbEntity
  8
0
 62
7
420
0
370
-1
 48
1.0
  6
BYLAYER
100
AcDbCircle
 10
103.2835541195224494
 20
-166.8077488273905544
 30
0.0
 40
0.7326711376870875
100
AcDbArc
 50
320.4501493808444366
 51
352.0519892933787673
  0
ARC
  5
92
100
AcDbEntity
  8
0
 62
7
420
0
370
-1
 48
1.0
  6
BYLAYER
100
AcDbCircle
 10
103.285492087751507
 20
-166.8061963118076676
 30
0.0
 40
0.7321694262426235
100
AcDbArc
 50
290.1084009753618602
 51
320.2599037995386766
  0
ARC
  5
93
100
AcDbEntity
  8
0
 62
7
420
0
370
-1
 48
1.0
  6
BYLAYER
100
AcDbCircle
 10
103.2875895234625006
 20
-166.805447855234263
 30
0.0
 40
0.7321545535234872
100
AcDbArc
 50
259.7821344913150483
 51
289.9341314104771641
  0
ARC
  5
94
100
AcDbEntity
  8
0
 62
7
420
0
370
-1
 48
1.0
  6
BYLAYER
100
AcDbCircle
 10
103.289758980404855
 20
-166.8058802331718482
 30
0.0
 40
0.7321172173168384
100
AcDbArc
 50
229.4555064857614468
 51
259.6090417836825281
  0
ARC
  5
95
100
AcDbEntity
  8
0
 62
7
420
0
370
-1
 48
1.0
  6
BYLAYER
100
AcDbCircle
 10
103.2914730655619309
 20
-166.8072874215312424
 30
0.0
 40
0.7321654713441346
100
AcDbArc
 50
199.1303678190550386
 51
229.2819938571419698
  0
ARC
  5
96
100
AcDbEntity
  8
0
 62
7
420
0
370
-1
 48
1.0
  6
BYLAYER
100
AcDbCircle
 10
103.3024611614413146
 20
-166.8119380709666757
 30
0.0
 40
0.7410657751375237
100
AcDbArc
 50
143.8409279217724475
 51
198.5122330488421198
  0
ARC
  5
97
100
AcDbEntity
  8
0
 62
7
420
0
370
-1
 48
1.0
  6
BYLAYER
100
AcDbCircle
 10
103.2942599832876311
 20
-166.8229447091164275
 30
0.0
 40
0.7410656460746172
100
AcDbArc
 50
88.1083625781688227
 51
142.7796752358630386
  0
ARC
  5
98
100
AcDbEntity
  8
0
 62
7
420
0
370
-1
 48
1.0
  6
BYLAYER
100
AcDbCircle
 10
103.2864470193284774
 20
-174.8141857986540515
 30
0.0
 40
0.7326498855855467
100
AcDbArc
 50
55.8722886804325398
 51
87.4751632669194805
  0
ARC
  5
99
100
AcDbEntity
  8
0
 62
7
420
0
370
-1
 48
1.0
  6
BYLAYER
100
AcDbCircle
 10
103.2843289854105535
 20
-174.8126743926593463
 30
0.0
 40
0.7325916789185399
100
AcDbArc
 50
24.0636116586845752
 51
55.6688457489002744
  0
ARC
  5
9A
100
AcDbEntity
  8
0
 62
7
420
0
370
-1
 48
1.0
  6
BYLAYER
100
AcDbCircle
 10
103.2832866622288037
 20
-174.8103064235319266
 30
0.0
 40
0.7325824447863246
100
AcDbArc
 50
352.2555429972078969
 51
23.8612657305781894
  0
ARC
  5
9B
100
AcDbEntity
  8
0
 62
7
420
0
370
-1
 48
1.0
  6
BYLAYER
100
AcDbCircle
 10
103.2835541195229041
 20
-174.8077158940464244
 30
0.0
 40
0.7326711376866224
100
AcDbArc
 50
320.450149380834489
 51
352.0519892933889992
  0
ARC
  5
9C
100
AcDbEntity
  8
0
 62
7
420
0
370
-1
 48
1.0
  6
BYLAYER
100
AcDbCircle
 10
103.2854673955313132
 20
-174.8061283544474236
 30
0.0
 40
0.7322108045350412
100
AcDbArc
 50
290.1092731473397066
 51
320.2590316275633882
  0
ARC
  5
9D
100
AcDbEntity
  8
0
 62
7
420
0
370
-1
 48
1.0
  6
BYLAYER
100
AcDbCircle
 10
103.2875869286034032
 20
-174.8053843920521615
 30
0.0
 40
0.7321841389056244
100
AcDbArc
 50
259.7827581260165175
 51
289.9335077757755812
  0
ARC
  5
9E
100
AcDbEntity
  8
0
 62
7
420
0
370
-1
 48
1.0
  6
BYLAYER
100
AcDbCircle
 10
103.2897652217963014
 20
-174.8058437825800127
 30
0.0
 40
0.7321218026238808
100
AcDbArc
 50
229.4551706686912667
 51
259.6086109905010062
  0
ARC
  5
9F
100
AcDbEntity
  8
0
 62
7
420
0
370
-1
 48
1.0
  6
BYLAYER
100
AcDbCircle
 10
103.2914730655619451
 20
-174.8072516659647704
 30
0.0
 40
0.7321654713441027
100
AcDbArc
 50
199.1303678190478763
 51
229.281993857135177
  0
ARC
  5
A0
100
AcDbEntity
  8
0
 62
7
420
0
370
-1
 48
1.0
  6
BYLAYER
100
AcDbCircle
 10
103.3024611614415846
 20
-174.8119023154001468
 30
0.0
 40
0.7410657751377483
100
AcDbArc
 50
143.8409279217821393
 51
198.5122330488338775
  0
ARC
  5
A1
100
AcDbEntity
  8
0
 62
7
420
0
370
-1
 48
1.0
  6
BYLAYER
100
AcDbCircle
 10
103.2942599832877022
 20
-174.8229089535499838
 30
0.0
 40
0.7410656460747457
100
AcDbArc
 50
88.1083625781741233
 51
142.7796752358581784
  0
LINE
  5
A2
100
AcDbEntity
  8
0
 62
7
420
0
370
-1
 48
1.0
  6
BYLAYER
100
AcDbLine
 10
103.3187220443023335
 20
-174.0822471553160824
 30
0.0
 11
103.3187220443023051
 21
-174.0822471553160824
 31
0.0
  0
ARC
  5
A3
100
AcDbEntity
  8
0
 62
7
420
0
370
-1
 48
1.0
  6
BYLAYER
100
AcDbCircle
 10
96.2583270796925632
 20
-155.3102341202489356
 30
0.0
 40
0.584228305109081
100
AcDbArc
 50
7.6413847289926577
 51
41.4762267290853899
  0
ARC
  5
A4
100
AcDbEntity
  8
0
 62
7
420
0
370
-1
 48
1.0
  6
BYLAYER
100
AcDbCircle
 10
96.2580395471472627
 20
-155.3077374038525136
 30
0.0
 40
0.5841866943149279
100
AcDbArc
 50
333.5576299666988689
 51
7.3949360068309113
  0
ARC
  5
A5
100
AcDbEntity
  8
0
 62
7
420
0
370
-1
 48
1.0
  6
BYLAYER
100
AcDbCircle
 10
96.2591183110308748
 20
-155.3054621074108752
 30
0.0
 40
0.5842393960258625
100
AcDbArc
 50
299.4766515255631703
 51
333.3107275349989891
  0
ARC
  5
A6
100
AcDbEntity
  8
0
 62
7
420
0
370
-1
 48
1.0
  6
BYLAYER
100
AcDbCircle
 10
96.2613317185601289
 20
-155.304229281482975
 30
0.0
 40
0.5842289849134608
100
AcDbArc
 50
265.393363261787897
 51
299.2281854334022455
  0
ARC
  5
A7
100
AcDbEntity
  8
0
 62
7
420
0
370
-1
 48
1.0
  6
BYLAYER
100
AcDbCircle
 10
96.2633825239550021
 20
-155.3052895704138336
 30
0.0
 40
0.5833407166443833
100
AcDbArc
 50
235.3204811013321205
 51
265.1842191298661078
  0
ARC
  5
A8
100
AcDbEntity
  8
0
 62
7
420
0
370
-1
 48
1.0
  6
BYLAYER
100
AcDbCircle
 10
96.2648000070604581
 20
-155.3062847898296184
 30
0.0
 40
0.5833313990198397
100
AcDbArc
 50
205.2862251672012235
 51
235.1503678884685939
  0
ARC
  5
A9
100
AcDbEntity
  8
0
 62
7
420
0
370
-1
 48
1.0
  6
BYLAYER
100
AcDbCircle
 10
96.2655540622429129
 20
-155.3078490402266141
 30
0.0
 40
0.5833476343962236
100
AcDbArc
 50
175.2522734958323269
 51
205.1156717076733571
  0
ARC
  5
AA
100
AcDbEntity
  8
0
 62
7
420
0
370
-1
 48
1.0
  6
BYLAYER
100
AcDbCircle
 10
96.2654008267304988
 20
-155.3095802752720545
 30
0.0
 40
0.5833408057089133
100
AcDbArc
 50
145.217881333226984
 51
175.0815689172989096
  0
ARC
  5
AB
100
AcDbEntity
  8
0
 62
7
420
0
370
-1
 48
1.0
  6
BYLAYER
100
AcDbCircle
 10
96.2671685021290955
 20
-155.3172250985161611
 30
0.0
 40
0.5891772650623283
100
AcDbArc
 50
93.7938234934435826
 51
144.7053318541943554
  0
ARC
  5
AC
100
AcDbEntity
  8
0
 62
7
420
0
370
-1
 48
1.0
  6
BYLAYER
100
AcDbCircle
 10
96.2584043179478783
 20
-155.3177169902144215
 30
0.0
 40
0.5891535746321671
100
AcDbArc
 50
42.0264376991277331
 51
92.9401687416260529
  0
LINE
  5
AD
100
AcDbEntity
  8
0
 62
7
420
0
370
-1
 48
1.0
  6
BYLAYER
100
AcDbLine
 10
96.6960487985038668
 20
-154.923294319541526
 30
0.0
 11
96.6960487985038668
 21
-154.923294319541526
 31
0.0
  0
ARC
  5
AE
100
AcDbEntity
  8
0
 62
7
420
0
370
-1
 48
1.0
  6
BYLAYER
100
AcDbCircle
 10
96.2583270796925632
 20
-157.707723186912375
 30
0.0
 40
0.5842283051090968
100
AcDbArc
 50
7.6413847289987817
 51
41.476226729092204
  0
ARC
  5
AF
100
AcDbEntity
  8
0
 62
7
420
0
370
-1
 48
1.0
  6
BYLAYER
100
AcDbCircle
 10
96.2580395471472343
 20
-157.7052264705158962
 30
0.0
 40
0.5841866943149681
100
AcDbArc
 50
333.5576299667009721
 51
7.3949360068306138
  0
ARC
  5
B0
100
AcDbEntity
  8
0
 62
7
420
0
370
-1
 48
1.0
  6
BYLAYER
100
AcDbCircle
 10
96.2591183110308748
 20
-157.7029511740742578
 30
0.0
 40
0.5842393960258465
100
AcDbArc
 50
299.4766515255647619
 51
333.3107275349989891
  0
ARC
  5
B1
100
AcDbEntity
  8
0
 62
7
420
0
370
-1
 48
1.0
  6
BYLAYER
100
AcDbCircle
 10
96.2613317185601431
 20
-157.7017183481463292
 30
0.0
 40
0.5842289849134448
100
AcDbArc
 50
265.3933632617858507
 51
299.2281854334008244
  0
ARC
  5
B2
100
AcDbEntity
  8
0
 62
7
420
0
370
-1
 48
1.0
  6
BYLAYER
100
AcDbCircle
 10
96.2633825239550163
 20
-157.7027786370772446
 30
0.0
 40
0.5833407166443594
100
AcDbArc
 50
235.3204811013290794
 51
265.184219129864573
  0
ARC
  5
B3
100
AcDbEntity
  8
0
 62
7
420
0
370
-1
 48
1.0
  6
BYLAYER
100
AcDbCircle
 10
96.2648000070605008
 20
-157.7037738564929725
 30
0.0
 40
0.5833313990198716
100
AcDbArc
 50
205.2862251672012235
 51
235.1503678884685939
  0
ARC
  5
B4
100
AcDbEntity
  8
0
 62
7
420
0
370
-1
 48
1.0
  6
BYLAYER
100
AcDbCircle
 10
96.2655540622429129
 20
-157.7053381068900251
 30
0.0
 40
0.5833476343962236
100
AcDbArc
 50
175.25227349582903
 51
205.1156717076698612
  0
ARC
  5
B5
100
AcDbEntity
  8
0
 62
7
420
0
370
-1
 48
1.0
  6
BYLAYER
100
AcDbCircle
 10
96.265400826730442
 20
-157.7070693419354086
 30
0.0
 40
0.5833408057088892
100
AcDbArc
 50
145.2178813332242555
 51
175.0815689172988527
  0
ARC
  5
B6
100
AcDbEntity
  8
0
 62
7
420
0
370
-1
 48
1.0
  6
BYLAYER
100
AcDbCircle
 10
96.2671685021290813
 20
-157.7147141651794584
 30
0.0
 40
0.5891772650623281
100
AcDbArc
 50
93.7938234934420478
 51
144.7053318541994429
  0
ARC
  5
B7
100
AcDbEntity
  8
0
 62
7
420
0
370
-1
 48
1.0
  6
BYLAYER
100
AcDbCircle
 10
96.2584043179478783
 20
-157.715206056877804
 30
0.0
 40
0.5891535746321671
100
AcDbArc
 50
42.0264376991277331
 51
92.9401687416260529
  0
LINE
  5
B8
100
AcDbEntity
  8
0
 62
7
420
0
370
-1
 48
1.0
  6
BYLAYER
100
AcDbLine
 10
96.6960487985038668
 20
-157.3207833862049085
 30
0.0
 11
96.6960487985038668
 21
-157.3207833862049085
 31
0.0
  0
ARC
  5
B9
100
AcDbEntity
  8
0
 62
7
420
0
370
-1
 48
1.0
  6
BYLAYER
100
AcDbCircle
 10
96.2583270796925632
 20
-160.4048983869085987
 30
0.0
 40
0.584228305109081
100
AcDbArc
 50
7.6413847289926577
 51
41.4762267290853899
  0
ARC
  5
BA
100
AcDbEntity
  8
0
 62
7
420
0
370
-1
 48
1.0
  6
BYLAYER
100
AcDbCircle
 10
96.2580395471472343
 20
-160.4024016705121767
 30
0.0
 40
0.5841866943149681
100
AcDbArc
 50
333.5576299667009721
 51
7.3949360068306138
  0
ARC
  5
BB
100
AcDbEntity
  8
0
 62
7
420
0
370
-1
 48
1.0
  6
BYLAYER
100
AcDbCircle
 10
96.2591183110308748
 20
-160.4001263740705383
 30
0.0
 40
0.5842393960258465
100
AcDbArc
 50
299.4766515255647619
 51
333.3107275349989891
  0
ARC
  5
BC
100
AcDbEntity
  8
0
 62
7
420
0
370
-1
 48
1.0
  6
BYLAYER
100
AcDbCircle
 10
96.2613317185601431
 20
-160.3988935481426381
 30
0.0
 40
0.5842289849134608
100
AcDbArc
 50
265.3933632617844864
 51
299.2281854333994602
  0
ARC
  5
BD
100
AcDbEntity
  8
0
 62
7
420
0
370
-1
 48
1.0
  6
BYLAYER
100
AcDbCircle
 10
96.2633825239550163
 20
-160.3999538370735252
 30
0.0
 40
0.5833407166443594
100
AcDbArc
 50
235.3204811013290794
 51
265.184219129864573
  0
ARC
  5
BE
100
AcDbEntity
  8
0
 62
7
420
0
370
-1
 48
1.0
  6
BYLAYER
100
AcDbCircle
 10
96.2648000070605008
 20
-160.4009490564892815
 30
0.0
 40
0.5833313990198477
100
AcDbArc
 50
205.2862251671969887
 51
235.1503678884672865
  0
ARC
  5
BF
100
AcDbEntity
  8
0
 62
7
420
0
370
-1
 48
1.0
  6
BYLAYER
100
AcDbCircle
 10
96.2655540622429129
 20
-160.4025133068863056
 30
0.0
 40
0.5833476343962236
100
AcDbArc
 50
175.25227349582903
 51
205.1156717076698612
  0
ARC
  5
C0
100
AcDbEntity
  8
0
 62
7
420
0
370
-1
 48
1.0
  6
BYLAYER
100
AcDbCircle
 10
96.2654008267304988
 20
-160.4042445419316607
 30
0.0
 40
0.5833408057088894
100
AcDbArc
 50
145.2178813332295988
 51
175.0815689173019507
  0
ARC
  5
C1
100
AcDbEntity
  8
0
 62
7
420
0
370
-1
 48
1.0
  6
BYLAYER
100
AcDbCircle
 10
96.2671685021290813
 20
-160.4118893651757389
 30
0.0
 40
0.5891772650623281
100
AcDbArc
 50
93.7938234934420478
 51
144.7053318541994429
  0
ARC
  5
C2
100
AcDbEntity
  8
0
 62
7
420
0
370
-1
 48
1.0
  6
BYLAYER
100
AcDbCircle
 10
96.2584043179478925
 20
-160.4123812568740846
 30
0.0
 40
0.5891535746321669
100
AcDbArc
 50
42.0264376991277331
 51
92.9401687416276303
  0
LINE
  5
C3
100
AcDbEntity
  8
0
 62
7
420
0
370
-1
 48
1.0
  6
BYLAYER
100
AcDbLine
 10
96.6960487985038668
 20
-160.0179585862011891
 30
0.0
 11
96.6960487985038668
 21
-160.0179585862011891
 31
0.0
  0
ARC
  5
C4
100
AcDbEntity
  8
0
 62
7
420
0
370
-1
 48
1.0
  6
BYLAYER
100
AcDbCircle
 10
96.2583270796925632
 20
-162.8023874535720381
 30
0.0
 40
0.5842283051090968
100
AcDbArc
 50
7.6413847289987817
 51
41.476226729092204
  0
ARC
  5
C5
100
AcDbEntity
  8
0
 62
7
420
0
370
-1
 48
1.0
  6
BYLAYER
100
AcDbCircle
 10
96.2580395471472485
 20
-162.7998907371755308
 30
0.0
 40
0.5841866943149356
100
AcDbArc
 50
333.5576299666954014
 51
7.3949360068276011
  0
ARC
  5
C6
100
AcDbEntity
  8
0
 62
7
420
0
370
-1
 48
1.0
  6
BYLAYER
100
AcDbCircle
 10
96.2591183110308748
 20
-162.7976154407339209
 30
0.0
 40
0.5842393960258625
100
AcDbArc
 50
299.4766515255631703
 51
333.3107275349989891
  0
ARC
  5
C7
100
AcDbEntity
  8
0
 62
7
420
0
370
-1
 48
1.0
  6
BYLAYER
100
AcDbCircle
 10
96.2613317185601431
 20
-162.7963826148059923
 30
0.0
 40
0.5842289849134448
100
AcDbArc
 50
265.3933632617858507
 51
299.2281854334008244
  0
ARC
  5
C8
100
AcDbEntity
  8
0
 62
7
420
0
370
-1
 48
1.0
  6
BYLAYER
100
AcDbCircle
 10
96.2633825239550163
 20
-162.7974429037369362
 30
0.0
 40
0.5833407166443352
100
AcDbArc
 50
235.320481101327232
 51
265.1842191298640614
  0
ARC
  5
C9
100
AcDbEntity
  8
0
 62
7
420
0
370
-1
 48
1.0
  6
BYLAYER
100
AcDbCircle
 10
96.2648000070605008
 20
-162.7984381231526356
 30
0.0
 40
0.5833313990198716
100
AcDbArc
 50
205.2862251672012235
 51
235.1503678884685939
  0
ARC
  5
CA
100
AcDbEntity
  8
0
 62
7
420
0
370
-1
 48
1.0
  6
BYLAYER
100
AcDbCircle
 10
96.2655540622429129
 20
-162.8000023735496313
 30
0.0
 40
0.5833476343962235
100
AcDbArc
 50
175.2522734958323269
 51
205.1156717076727034
  0
ARC
  5
CB
100
AcDbEntity
  8
0
 62
7
420
0
370
-1
 48
1.0
  6
BYLAYER
100
AcDbCircle
 10
96.265400826730442
 20
-162.8017336085950717
 30
0.0
 40
0.5833408057088892
100
AcDbArc
 50
145.2178813332242555
 51
175.0815689172988527
  0
ARC
  5
CC
100
AcDbEntity
  8
0
 62
7
420
0
370
-1
 48
1.0
  6
BYLAYER
100
AcDbCircle
 10
96.2671685021290955
 20
-162.8093784318391499
 30
0.0
 40
0.5891772650623444
100
AcDbArc
 50
93.7938234934437816
 51
144.7053318541977944
  0
ARC
  5
CD
100
AcDbEntity
  8
0
 62
7
420
0
370
-1
 48
1.0
  6
BYLAYER
100
AcDbCircle
 10
96.2584043179478925
 20
-162.8098703235374671
 30
0.0
 40
0.5891535746321752
100
AcDbArc
 50
42.0264376991300637
 51
92.9401687416274882
  0
LINE
  5
CE
100
AcDbEntity
  8
0
 62
7
420
0
370
-1
 48
1.0
  6
BYLAYER
100
AcDbLine
 10
96.6960487985038668
 20
-162.4154476528645716
 30
0.0
 11
96.6960487985038668
 21
-162.4154476528645716
 31
0.0
  0
ARC
  5
CF
100
AcDbEntity
  8
0
 62
7
420
0
370
-1
 48
1.0
  6
BYLAYER
100
AcDbCircle
 10
96.2583270796925632
 20
-165.1998765202353354
 30
0.0
 40
0.5842283051090968
100
AcDbArc
 50
7.6413847289958641
 51
41.4762267290887934
  0
ARC
  5
D0
100
AcDbEntity
  8
0
 62
7
420
0
370
-1
 48
1.0
  6
BYLAYER
100
AcDbCircle
 10
96.2580395471472485
 20
-165.197379803838885
 30
0.0
 40
0.5841866943149356
100
AcDbArc
 50
333.5576299666988689
 51
7.3949360068308136
  0
ARC
  5
D1
100
AcDbEntity
  8
0
 62
7
420
0
370
-1
 48
1.0
  6
BYLAYER
100
AcDbCircle
 10
96.2591183110308748
 20
-165.1951045073973035
 30
0.0
 40
0.5842393960258624
100
AcDbArc
 50
299.4766515255674904
 51
333.3107275350025134
  0
ARC
  5
D2
100
AcDbEntity
  8
0
 62
7
420
0
370
-1
 48
1.0
  6
BYLAYER
100
AcDbCircle
 10
96.2613317185601431
 20
-165.1938716814693464
 30
0.0
 40
0.5842289849134608
100
AcDbArc
 50
265.3933632617844864
 51
299.2281854333994602
  0
ARC
  5
D3
100
AcDbEntity
  8
0
 62
7
420
0
370
-1
 48
1.0
  6
BYLAYER
100
AcDbCircle
 10
96.2633825239550021
 20
-165.1949319704002619
 30
0.0
 40
0.5833407166443834
100
AcDbArc
 50
235.3204811013321205
 51
265.184219129866392
  0
ARC
  5
D4
100
AcDbEntity
  8
0
 62
7
420
0
370
-1
 48
1.0
  6
BYLAYER
100
AcDbCircle
 10
96.2648000070604013
 20
-165.1959271898160466
 30
0.0
 40
0.5833313990197755
100
AcDbArc
 50
205.2862251672010814
 51
235.1503678884745625
  0
ARC
  5
D5
100
AcDbEntity
  8
0
 62
7
420
0
370
-1
 48
1.0
  6
BYLAYER
100
AcDbCircle
 10
96.2655540622429129
 20
-165.1974914402130139
 30
0.0
 40
0.5833476343962236
100
AcDbArc
 50
175.2522734958323269
 51
205.1156717076698612
  0
ARC
  5
D6
100
AcDbEntity
  8
0
 62
7
420
0
370
-1
 48
1.0
  6
BYLAYER
100
AcDbCircle
 10
96.265400826730442
 20
-165.1992226752584259
 30
0.0
 40
0.583340805708873
100
AcDbArc
 50
145.2178813332268987
 51
175.0815689173017518
  0
ARC
  5
D7
100
AcDbEntity
  8
0
 62
7
420
0
370
-1
 48
1.0
  6
BYLAYER
100
AcDbCircle
 10
96.2671685021290955
 20
-165.2068674985025325
 30
0.0
 40
0.5891772650623442
100
AcDbArc
 50
93.7938234934433694
 51
144.7053318541977944
  0
ARC
  5
D8
100
AcDbEntity
  8
0
 62
7
420
0
370
-1
 48
1.0
  6
BYLAYER
100
AcDbCircle
 10
96.2584043179478925
 20
-165.2073593902007929
 30
0.0
 40
0.589153574632151
100
AcDbArc
 50
42.026437699125438
 51
92.9401687416292077
  0
LINE
  5
D9
100
AcDbEntity
  8
0
 62
7
420
0
370
-1
 48
1.0
  6
BYLAYER
100
AcDbLine
 10
96.6960487985038668
 20
-164.8129367195279258
 30
0.0
 11
96.6960487985038668
 21
-164.8129367195279258
 31
0.0
  0
ARC
  5
DA
100
AcDbEntity
  8
0
 62
7
420
0
370
-1
 48
1.0
  6
BYLAYER
100
AcDbCircle
 10
96.25832707969262
 20
-167.8970517202316728
 30
0.0
 40
0.5842283051090329
100
AcDbArc
 50
7.6413847289997374
 51
41.4762267290929785
  0
ARC
  5
DB
100
AcDbEntity
  8
0
 62
7
420
0
370
-1
 48
1.0
  6
BYLAYER
100
AcDbCircle
 10
96.2580395471472201
 20
-167.8945550038351939
 30
0.0
 40
0.5841866943149598
100
AcDbArc
 50
333.55762996670029
 51
7.3949360068306138
  0
ARC
  5
DC
100
AcDbEntity
  8
0
 62
7
420
0
370
-1
 48
1.0
  6
BYLAYER
100
AcDbCircle
 10
96.2591183110308748
 20
-167.892279707393584
 30
0.0
 40
0.5842393960258624
100
AcDbArc
 50
299.4766515255647619
 51
333.3107275350025134
  0
ARC
  5
DD
100
AcDbEntity
  8
0
 62
7
420
0
370
-1
 48
1.0
  6
BYLAYER
100
AcDbCircle
 10
96.2613317185601289
 20
-167.8910468814656554
 30
0.0
 40
0.5842289849134524
100
AcDbArc
 50
265.3933632617876697
 51
299.2281854334022455
  0
ARC
  5
DE
100
AcDbEntity
  8
0
 62
7
420
0
370
-1
 48
1.0
  6
BYLAYER
100
AcDbCircle
 10
96.2633825239550021
 20
-167.8921071703965708
 30
0.0
 40
0.5833407166443512
100
AcDbArc
 50
235.3204811013303583
 51
265.1842191298658804
  0
ARC
  5
DF
100
AcDbEntity
  8
0
 62
7
420
0
370
-1
 48
1.0
  6
BYLAYER
100
AcDbCircle
 10
96.2648000070604297
 20
-167.8931023898123556
 30
0.0
 40
0.5833313990197911
100
AcDbArc
 50
205.2862251671933222
 51
235.1503678884688497
  0
ARC
  5
E0
100
AcDbEntity
  8
0
 62
7
420
0
370
-1
 48
1.0
  6
BYLAYER
100
AcDbCircle
 10
96.2655540622429129
 20
-167.8946666402092944
 30
0.0
 40
0.5833476343962236
100
AcDbArc
 50
175.2522734958323269
 51
205.1156717076698612
  0
ARC
  5
E1
100
AcDbEntity
  8
0
 62
7
420
0
370
-1
 48
1.0
  6
BYLAYER
100
AcDbCircle
 10
96.265400826730442
 20
-167.8963978752547064
 30
0.0
 40
0.583340805708873
100
AcDbArc
 50
145.2178813332268987
 51
175.0815689173017518
  0
ARC
  5
E2
100
AcDbEntity
  8
0
 62
7
420
0
370
-1
 48
1.0
  6
BYLAYER
100
AcDbCircle
 10
96.2671685021290955
 20
-167.904042698498813
 30
0.0
 40
0.5891772650623442
100
AcDbArc
 50
93.7938234934433694
 51
144.7053318541977944
  0
ARC
  5
E3
100
AcDbEntity
  8
0
 62
7
420
0
370
-1
 48
1.0
  6
BYLAYER
100
AcDbCircle
 10
96.2584043179478925
 20
-167.9045345901971586
 30
0.0
 40
0.5891535746321991
100
AcDbArc
 50
42.026437699129005
 51
92.9401687416290088
  0
LINE
  5
E4
100
AcDbEntity
  8
0
 62
7
420
0
370
-1
 48
1.0
  6
BYLAYER
100
AcDbLine
 10
96.6960487985038668
 20
-167.5101119195242347
 30
0.0
 11
96.6960487985038668
 21
-167.5101119195242347
 31
0.0
  0
ARC
  5
E5
100
AcDbEntity
  8
0
 62
7
420
0
370
-1
 48
1.0
  6
BYLAYER
100
AcDbCircle
 10
93.7538066089400672
 20
-167.8970517202316444
 30
0.0
 40
0.5842283051090246
100
AcDbArc
 50
7.6413847289966288
 51
41.4762267290906266
  0
ARC
  5
E6
100
AcDbEntity
  8
0
 62
7
420
0
370
-1
 48
1.0
  6
BYLAYER
100
AcDbCircle
 10
93.7535190763947242
 20
-167.8945550038351939
 30
0.0
 40
0.5841866943149198
100
AcDbArc
 50
333.5576299666981868
 51
7.3949360068314061
  0
ARC
  5
E7
100
AcDbEntity
  8
0
 62
7
420
0
370
-1
 48
1.0
  6
BYLAYER
100
AcDbCircle
 10
93.754597840278322
 20
-167.892279707393584
 30
0.0
 40
0.5842393960258624
100
AcDbArc
 50
299.4766515255604986
 51
333.3107275350025134
  0
ARC
  5
E8
100
AcDbEntity
  8
0
 62
7
420
0
370
-1
 48
1.0
  6
BYLAYER
100
AcDbCircle
 10
93.7568112478075761
 20
-167.8910468814656269
 30
0.0
 40
0.5842289849134686
100
AcDbArc
 50
265.393363261787897
 51
299.2281854333994602
  0
ARC
  5
E9
100
AcDbEntity
  8
0
 62
7
420
0
370
-1
 48
1.0
  6
BYLAYER
100
AcDbCircle
 10
93.758862053202435
 20
-167.8921071703966277
 30
0.0
 40
0.5833407166442951
100
AcDbArc
 50
235.3204811013267204
 51
265.1842191298669036
  0
ARC
  5
EA
100
AcDbEntity
  8
0
 62
7
420
0
370
-1
 48
1.0
  6
BYLAYER
100
AcDbCircle
 10
93.7602795363078627
 20
-167.8931023898123271
 30
0.0
 40
0.5833313990197754
100
AcDbArc
 50
205.2862251671975571
 51
235.1503678884719477
  0
ARC
  5
EB
100
AcDbEntity
  8
0
 62
7
420
0
370
-1
 48
1.0
  6
BYLAYER
100
AcDbCircle
 10
93.7610335914903175
 20
-167.8946666402092944
 30
0.0
 40
0.5833476343961753
100
AcDbArc
 50
175.2522734958316448
 51
205.1156717076711971
  0
ARC
  5
EC
100
AcDbEntity
  8
0
 62
7
420
0
370
-1
 48
1.0
  6
BYLAYER
100
AcDbCircle
 10
93.760880355977875
 20
-167.8963978752547064
 30
0.0
 40
0.583340805708873
100
AcDbArc
 50
145.2178813332268987
 51
175.0815689173017518
  0
ARC
  5
ED
100
AcDbEntity
  8
0
 62
7
420
0
370
-1
 48
1.0
  6
BYLAYER
100
AcDbCircle
 10
93.7626480313765143
 20
-167.9040426984987846
 30
0.0
 40
0.5891772650623122
100
AcDbArc
 50
93.7938234934435826
 51
144.7053318541985618
  0
ARC
  5
EE
100
AcDbEntity
  8
0
 62
7
420
0
370
-1
 48
1.0
  6
BYLAYER
100
AcDbCircle
 10
93.7538838471953255
 20
-167.9045345901971018
 30
0.0
 40
0.5891535746321671
100
AcDbArc
 50
42.0264376991277331
 51
92.9401687416276303
  0
LINE
  5
EF
100
AcDbEntity
  8
0
 62
7
420
0
370
-1
 48
1.0
  6
BYLAYER
100
AcDbLine
 10
94.191528327751314
 20
-167.5101119195242347
 30
0.0
 11
94.191528327751314
 21
-167.5101119195242347
 31
0.0
  0
ARC
  5
F0
100
AcDbEntity
  8
0
 62
7
420
0
370
-1
 48
1.0
  6
BYLAYER
100
AcDbCircle
 10
93.7538066089400104
 20
-165.1998765202353354
 30
0.0
 40
0.5842283051090968
100
AcDbArc
 50
7.6413847289958641
 51
41.4762267290887934
  0
ARC
  5
F1
100
AcDbEntity
  8
0
 62
7
420
0
370
-1
 48
1.0
  6
BYLAYER
100
AcDbCircle
 10
93.7535190763947242
 20
-165.197379803838885
 30
0.0
 40
0.5841866943149198
100
AcDbArc
 50
333.5576299666981868
 51
7.3949360068314061
  0
ARC
  5
F2
100
AcDbEntity
  8
0
 62
7
420
0
370
-1
 48
1.0
  6
BYLAYER
100
AcDbCircle
 10
93.7545978402783078
 20
-165.1951045073973035
 30
0.0
 40
0.5842393960258625
100
AcDbArc
 50
299.4766515255661261
 51
333.3107275350031955
  0
ARC
  5
F3
100
AcDbEntity
  8
0
 62
7
420
0
370
-1
 48
1.0
  6
BYLAYER
100
AcDbCircle
 10
93.7568112478075761
 20
-165.1938716814693464
 30
0.0
 40
0.5842289849134608
100
AcDbArc
 50
265.393363261787897
 51
299.2281854334008244
  0
ARC
  5
F4
100
AcDbEntity
  8
0
 62
7
420
0
370
-1
 48
1.0
  6
BYLAYER
100
AcDbCircle
 10
93.7588620532024493
 20
-165.1949319704002903
 30
0.0
 40
0.5833407166443512
100
AcDbArc
 50
235.3204811013303583
 51
265.1842191298658804
  0
ARC
  5
F5
100
AcDbEntity
  8
0
 62
7
420
0
370
-1
 48
1.0
  6
BYLAYER
100
AcDbCircle
 10
93.7602795363079622
 20
-165.1959271898160182
 30
0.0
 40
0.5833313990198876
100
AcDbArc
 50
205.2862251671956813
 51
235.1503678884660076
  0
ARC
  5
F6
100
AcDbEntity
  8
0
 62
7
420
0
370
-1
 48
1.0
  6
BYLAYER
100
AcDbCircle
 10
93.7610335914903175
 20
-165.1974914402130139
 30
0.0
 40
0.5833476343961753
100
AcDbArc
 50
175.2522734958316448
 51
205.1156717076711971
  0
ARC
  5
F7
100
AcDbEntity
  8
0
 62
7
420
0
370
-1
 48
1.0
  6
BYLAYER
100
AcDbCircle
 10
93.7608803559779034
 20
-165.1992226752584259
 30
0.0
 40
0.5833408057088894
100
AcDbArc
 50
145.2178813332286893
 51
175.0815689173018086
  0
ARC
  5
F8
100
AcDbEntity
  8
0
 62
7
420
0
370
-1
 48
1.0
  6
BYLAYER
100
AcDbCircle
 10
93.7626480313765143
 20
-165.2068674985025041
 30
0.0
 40
0.5891772650623122
100
AcDbArc
 50
93.7938234934435826
 51
144.7053318541985618
  0
ARC
  5
F9
100
AcDbEntity
  8
0
 62
7
420
0
370
-1
 48
1.0
  6
BYLAYER
100
AcDbCircle
 10
93.7538838471953397
 20
-165.2073593902008213
 30
0.0
 40
0.5891535746321752
100
AcDbArc
 50
42.0264376991300637
 51
92.9401687416305862
  0
LINE
  5
FA
100
AcDbEntity
  8
0
 62
7
420
0
370
-1
 48
1.0
  6
BYLAYER
100
AcDbLine
 10
94.191528327751314
 20
-164.8129367195279258
 30
0.0
 11
94.191528327751314
 21
-164.8129367195279258
 31
0.0
  0
ARC
  5
FB
100
AcDbEntity
  8
0
 62
7
420
0
370
-1
 48
1.0
  6
BYLAYER
100
AcDbCircle
 10
93.7538066089400104
 20
-162.8023874535719813
 30
0.0
 40
0.5842283051090968
100
AcDbArc
 50
7.6413847289926577
 51
41.4762267290887934
  0
ARC
  5
FC
100
AcDbEntity
  8
0
 62
7
420
0
370
-1
 48
1.0
  6
BYLAYER
100
AcDbCircle
 10
93.7535190763947668
 20
-162.7998907371755308
 30
0.0
 40
0.5841866943148877
100
AcDbArc
 50
333.5576299666932982
 51
7.3949360068282921
  0
ARC
  5
FD
100
AcDbEntity
  8
0
 62
7
420
0
370
-1
 48
1.0
  6
BYLAYER
100
AcDbCircle
 10
93.7545978402783078
 20
-162.7976154407338925
 30
0.0
 40
0.5842393960258947
100
AcDbArc
 50
299.4766515255631703
 51
333.3107275349976248
  0
ARC
  5
FE
100
AcDbEntity
  8
0
 62
7
420
0
370
-1
 48
1.0
  6
BYLAYER
100
AcDbCircle
 10
93.7568112478075761
 20
-162.7963826148059923
 30
0.0
 40
0.5842289849134605
100
AcDbArc
 50
265.3933632617876697
 51
299.2281854334008244
  0
ARC
  5
FF
100
AcDbEntity
  8
0
 62
7
420
0
370
-1
 48
1.0
  6
BYLAYER
100
AcDbCircle
 10
93.7588620532024493
 20
-162.7974429037369077
 30
0.0
 40
0.5833407166443514
100
AcDbArc
 50
235.3204811013303583
 51
265.1842191298658804
  0
ARC
  5
100
100
AcDbEntity
  8
0
 62
7
420
0
370
-1
 48
1.0
  6
BYLAYER
100
AcDbCircle
 10
93.7602795363079196
 20
-162.798438123152664
 30
0.0
 40
0.5833313990198555
100
AcDbArc
 50
205.2862251671969887
 51
235.1503678884660076
  0
ARC
  5
101
100
AcDbEntity
  8
0
 62
7
420
0
370
-1
 48
1.0
  6
BYLAYER
100
AcDbCircle
 10
93.7610335914903175
 20
-162.8000023735496882
 30
0.0
 40
0.5833476343961753
100
AcDbArc
 50
175.2522734958285753
 51
205.1156717076711971
  0
ARC
  5
102
100
AcDbEntity
  8
0
 62
7
420
0
370
-1
 48
1.0
  6
BYLAYER
100
AcDbCircle
 10
93.7608803559779034
 20
-162.8017336085950433
 30
0.0
 40
0.5833408057088894
100
AcDbArc
 50
145.2178813332286893
 51
175.0815689173019507
  0
ARC
  5
103
100
AcDbEntity
  8
0
 62
7
420
0
370
-1
 48
1.0
  6
BYLAYER
100
AcDbCircle
 10
93.7626480313765143
 20
-162.8093784318391215
 30
0.0
 40
0.589177265062328
100
AcDbArc
 50
93.7938234934422468
 51
144.7053318541968849
  0
ARC
  5
104
100
AcDbEntity
  8
0
 62
7
420
0
370
-1
 48
1.0
  6
BYLAYER
100
AcDbCircle
 10
93.7538838471953397
 20
-162.8098703235374671
 30
0.0
 40
0.5891535746321669
100
AcDbArc
 50
42.0264376991277331
 51
92.9401687416292077
  0
LINE
  5
105
100
AcDbEntity
  8
0
 62
7
420
0
370
-1
 48
1.0
  6
BYLAYER
100
AcDbLine
 10
94.191528327751314
 20
-162.4154476528645716
 30
0.0
 11
94.191528327751314
 21
-162.4154476528645716
 31
0.0
  0
ARC
  5
106
100
AcDbEntity
  8
0
 62
7
420
0
370
-1
 48
1.0
  6
BYLAYER
100
AcDbCircle
 10
93.7538066089400104
 20
-160.4048983869085987
 30
0.0
 40
0.584228305109081
100
AcDbArc
 50
7.6413847289926577
 51
41.4762267290853899
  0
ARC
  5
107
100
AcDbEntity
  8
0
 62
7
420
0
370
-1
 48
1.0
  6
BYLAYER
100
AcDbCircle
 10
93.7535190763946815
 20
-160.4024016705121767
 30
0.0
 40
0.584186694314928
100
AcDbArc
 50
333.5576299666988689
 51
7.3949360068309113
  0
ARC
  5
108
100
AcDbEntity
  8
0
 62
7
420
0
370
-1
 48
1.0
  6
BYLAYER
100
AcDbCircle
 10
93.7545978402782936
 20
-160.4001263740705667
 30
0.0
 40
0.5842393960258464
100
AcDbArc
 50
299.4766515255674904
 51
333.3107275350025134
  0
ARC
  5
109
100
AcDbEntity
  8
0
 62
7
420
0
370
-1
 48
1.0
  6
BYLAYER
100
AcDbCircle
 10
93.7568112478075761
 20
-160.3988935481426381
 30
0.0
 40
0.5842289849134608
100
AcDbArc
 50
265.393363261787897
 51
299.2281854334008244
  0
ARC
  5
10A
100
AcDbEntity
  8
0
 62
7
420
0
370
-1
 48
1.0
  6
BYLAYER
100
AcDbCircle
 10
93.758862053202435
 20
-160.399953837073582
 30
0.0
 40
0.5833407166443031
100
AcDbArc
 50
235.3204811013311257
 51
265.1842191298687226
  0
ARC
  5
10B
100
AcDbEntity
  8
0
 62
7
420
0
370
-1
 48
1.0
  6
BYLAYER
100
AcDbCircle
 10
93.7602795363079196
 20
-160.4009490564892531
 30
0.0
 40
0.5833313990198716
100
AcDbArc
 50
205.2862251672012235
 51
235.1503678884685939
  0
ARC
  5
10C
100
AcDbEntity
  8
0
 62
7
420
0
370
-1
 48
1.0
  6
BYLAYER
100
AcDbCircle
 10
93.7610335914903175
 20
-160.4025133068863056
 30
0.0
 40
0.5833476343961753
100
AcDbArc
 50
175.2522734958285753
 51
205.1156717076711971
  0
ARC
  5
10D
100
AcDbEntity
  8
0
 62
7
420
0
370
-1
 48
1.0
  6
BYLAYER
100
AcDbCircle
 10
93.7608803559779034
 20
-160.4042445419316607
 30
0.0
 40
0.5833408057088894
100
AcDbArc
 50
145.2178813332286893
 51
175.0815689173019507
  0
ARC
  5
10E
100
AcDbEntity
  8
0
 62
7
420
0
370
-1
 48
1.0
  6
BYLAYER
100
AcDbCircle
 10
93.7626480313765143
 20
-160.4118893651757389
 30
0.0
 40
0.589177265062328
100
AcDbArc
 50
93.7938234934422468
 51
144.7053318541968849
  0
ARC
  5
10F
100
AcDbEntity
  8
0
 62
7
420
0
370
-1
 48
1.0
  6
BYLAYER
100
AcDbCircle
 10
93.7538838471953397
 20
-160.4123812568740846
 30
0.0
 40
0.5891535746321752
100
AcDbArc
 50
42.0264376991300637
 51
92.9401687416305862
  0
LINE
  5
110
100
AcDbEntity
  8
0
 62
7
420
0
370
-1
 48
1.0
  6
BYLAYER
100
AcDbLine
 10
94.191528327751314
 20
-160.0179585862011891
 30
0.0
 11
94.191528327751314
 21
-160.0179585862011891
 31
0.0
  0
ARC
  5
111
100
AcDbEntity
  8
0
 62
7
420
0
370
-1
 48
1.0
  6
BYLAYER
100
AcDbCircle
 10
93.7538066089400104
 20
-157.7077231869123182
 30
0.0
 40
0.5842283051090968
100
AcDbArc
 50
7.6413847289926577
 51
41.4762267290887934
  0
ARC
  5
112
100
AcDbEntity
  8
0
 62
7
420
0
370
-1
 48
1.0
  6
BYLAYER
100
AcDbCircle
 10
93.7535190763946815
 20
-157.7052264705158677
 30
0.0
 40
0.5841866943149521
100
AcDbArc
 50
333.5576299666988689
 51
7.3949360068276011
  0
ARC
  5
113
100
AcDbEntity
  8
0
 62
7
420
0
370
-1
 48
1.0
  6
BYLAYER
100
AcDbCircle
 10
93.7545978402783078
 20
-157.7029511740742578
 30
0.0
 40
0.5842393960258625
100
AcDbArc
 50
299.4766515255645913
 51
333.3107275350004102
  0
ARC
  5
114
100
AcDbEntity
  8
0
 62
7
420
0
370
-1
 48
1.0
  6
BYLAYER
100
AcDbCircle
 10
93.7568112478075761
 20
-157.7017183481463292
 30
0.0
 40
0.5842289849134605
100
AcDbArc
 50
265.3933632617876697
 51
299.2281854334008244
  0
ARC
  5
115
100
AcDbEntity
  8
0
 62
7
420
0
370
-1
 48
1.0
  6
BYLAYER
100
AcDbCircle
 10
93.7588620532024493
 20
-157.7027786370772731
 30
0.0
 40
0.5833407166443193
100
AcDbArc
 50
235.3204811013285678
 51
265.184219129865653
  0
ARC
  5
116
100
AcDbEntity
  8
0
 62
7
420
0
370
-1
 48
1.0
  6
BYLAYER
100
AcDbCircle
 10
93.7602795363079196
 20
-157.7037738564930009
 30
0.0
 40
0.5833313990198395
100
AcDbArc
 50
205.2862251671976708
 51
235.1503678884685939
  0
ARC
  5
117
100
AcDbEntity
  8
0
 62
7
420
0
370
-1
 48
1.0
  6
BYLAYER
100
AcDbCircle
 10
93.7610335914903175
 20
-157.7053381068900251
 30
0.0
 40
0.5833476343961753
100
AcDbArc
 50
175.2522734958285753
 51
205.1156717076711971
  0
ARC
  5
118
100
AcDbEntity
  8
0
 62
7
420
0
370
-1
 48
1.0
  6
BYLAYER
100
AcDbCircle
 10
93.7608803559779034
 20
-157.7070693419353802
 30
0.0
 40
0.5833408057088894
100
AcDbArc
 50
145.2178813332286893
 51
175.0815689173019507
  0
ARC
  5
119
100
AcDbEntity
  8
0
 62
7
420
0
370
-1
 48
1.0
  6
BYLAYER
100
AcDbCircle
 10
93.7626480313765143
 20
-157.7147141651794584
 30
0.0
 40
0.589177265062328
100
AcDbArc
 50
93.7938234934422468
 51
144.7053318541968849
  0
ARC
  5
11A
100
AcDbEntity
  8
0
 62
7
420
0
370
-1
 48
1.0
  6
BYLAYER
100
AcDbCircle
 10
93.7538838471953397
 20
-157.715206056877804
 30
0.0
 40
0.5891535746321752
100
AcDbArc
 50
42.0264376991300637
 51
92.9401687416305862
  0
LINE
  5
11B
100
AcDbEntity
  8
0
 62
7
420
0
370
-1
 48
1.0
  6
BYLAYER
100
AcDbLine
 10
94.191528327751314
 20
-157.3207833862049085
 30
0.0
 11
94.191528327751314
 21
-157.3207833862049085
 31
0.0
  0
ARC
  5
11C
100
AcDbEntity
  8
0
 62
7
420
0
370
-1
 48
1.0
  6
BYLAYER
100
AcDbCircle
 10
93.753806608939982
 20
-155.310234120248964
 30
0.0
 40
0.5842283051091129
100
AcDbArc
 50
7.6413847289953845
 51
41.4762267290867115
  0
ARC
  5
11D
100
AcDbEntity
  8
0
 62
7
420
0
370
-1
 48
1.0
  6
BYLAYER
100
AcDbCircle
 10
93.7535190763947099
 20
-155.307737403852542
 30
0.0
 40
0.5841866943149037
100
AcDbArc
 50
333.5576299667017679
 51
7.3949360068342722
  0
ARC
  5
11E
100
AcDbEntity
  8
0
 62
7
420
0
370
-1
 48
1.0
  6
BYLAYER
100
AcDbCircle
 10
93.7545978402783078
 20
-155.3054621074108752
 30
0.0
 40
0.5842393960258625
100
AcDbArc
 50
299.4766515255647619
 51
333.3107275350004102
  0
ARC
  5
11F
100
AcDbEntity
  8
0
 62
7
420
0
370
-1
 48
1.0
  6
BYLAYER
100
AcDbCircle
 10
93.7568112478075761
 20
-155.304229281482975
 30
0.0
 40
0.5842289849134608
100
AcDbArc
 50
265.393363261787897
 51
299.2281854334008244
  0
ARC
  5
120
100
AcDbEntity
  8
0
 62
7
420
0
370
-1
 48
1.0
  6
BYLAYER
100
AcDbCircle
 10
93.758862053202435
 20
-155.3052895704139758
 30
0.0
 40
0.583340716644271
100
AcDbArc
 50
235.3204811013262372
 51
265.1842191298669036
  0
ARC
  5
121
100
AcDbEntity
  8
0
 62
7
420
0
370
-1
 48
1.0
  6
BYLAYER
100
AcDbCircle
 10
93.7602795363079622
 20
-155.30628478982959
 30
0.0
 40
0.5833313990198876
100
AcDbArc
 50
205.2862251671992055
 51
235.1503678884691055
  0
ARC
  5
122
100
AcDbEntity
  8
0
 62
7
420
0
370
-1
 48
1.0
  6
BYLAYER
100
AcDbCircle
 10
93.7610335914903175
 20
-155.3078490402266425
 30
0.0
 40
0.5833476343961753
100
AcDbArc
 50
175.2522734958285753
 51
205.1156717076711971
  0
ARC
  5
123
100
AcDbEntity
  8
0
 62
7
420
0
370
-1
 48
1.0
  6
BYLAYER
100
AcDbCircle
 10
93.760880355977946
 20
-155.3095802752720829
 30
0.0
 40
0.5833408057089373
100
AcDbArc
 50
145.217881333223545
 51
175.0815689172959253
  0
ARC
  5
124
100
AcDbEntity
  8
0
 62
7
420
0
370
-1
 48
1.0
  6
BYLAYER
100
AcDbCircle
 10
93.7626480313765143
 20
-155.3172250985161327
 30
0.0
 40
0.5891772650623122
100
AcDbArc
 50
93.7938234934437816
 51
144.7053318541960039
  0
ARC
  5
125
100
AcDbEntity
  8
0
 62
7
420
0
370
-1
 48
1.0
  6
BYLAYER
100
AcDbCircle
 10
93.7538838471953397
 20
-155.3177169902144215
 30
0.0
 40
0.5891535746321669
100
AcDbArc
 50
42.0264376991277331
 51
92.9401687416292077
  0
LINE
  5
126
100
AcDbEntity
  8
0
 62
7
420
0
370
-1
 48
1.0
  6
BYLAYER
100
AcDbLine
 10
94.191528327751314
 20
-154.923294319541526
 30
0.0
 11
94.191528327751314
 21
-154.923294319541526
 31
0.0
  0
ARC
  5
127
100
AcDbEntity
  8
0
 62
256
370
-1
 48
1.0
  6
BYLAYER
100
AcDbCircle
 10
111.1275173520035935
 20
-158.4844775164719124
 30
0.0
 40
22.4244301523946312
100
AcDbArc
 50
199.5815910597844152
 51
244.8092625911928337
  0
ARC
  5
128
100
AcDbEntity
  8
0
 62
256
370
-1
 48
1.0
  6
BYLAYER
100
AcDbCircle
 10
110.7707824280294773
 20
-156.9407823536604099
 30
0.0
 40
23.0270396811093683
100
AcDbArc
 50
110.7709142090522647
 51
154.4244794022604879
  0
ARC
  5
129
100
AcDbEntity
  8
0
 62
256
370
-1
 48
1.0
  6
BYLAYER
100
AcDbCircle
 10
113.2422391723999056
 20
-159.3041495286561258
 30
0.0
 40
21.4681231858928179
100
AcDbArc
 50
294.902727718071958
 51
341.3561000729511079
  0
ARC
  5
12A
100
AcDbEntity
  8
0
 62
256
370
-1
 48
1.0
  6
BYLAYER
100
AcDbCircle
 10
113.9424485879444546
 20
-155.1867602025885446
 30
0.0
 40
21.332832024201867
100
AcDbArc
 50
22.8581511670194857
 51
67.9780470244063508
  0
ENDSEC
  0
SECTION
  2
OBJECTS
  0
DICTIONARY
  5
C
100
AcDbDictionary
280
0
281
1
  3
ACAD_GROUP
350
D
  3
ACAD_LAYOUT
350
1A
  3
ACAD_MLINESTYLE
350
17
  3
ACAD_PLOTSETTINGS
350
19
  3
ACAD_PLOTSTYLENAME
350
E
  3
AcDbVariableDictionary
350
12B
  3
QCAD_OBJECTS
350
12C
  0
DICTIONARY
  5
D
100
AcDbDictionary
280
0
281
1
  0
ACDBDICTIONARYWDFLT
  5
E
100
AcDbDictionary
281
1
  3
Normal
350
F
100
AcDbDictionaryWithDefault
340
F
  0
ACDBPLACEHOLDER
  5
F
  0
DICTIONARY
  5
17
100
AcDbDictionary
280
0
281
1
  3
Standard
350
18
  0
MLINESTYLE
  5
18
100
AcDbMlineStyle
  2
STANDARD
 70
0
  3

 62
256
 51
90.0
 52
90.0
 71
2
 49
0.5
 62
256
  6
BYLAYER
 49
-0.5
 62
256
  6
BYLAYER
  0
DICTIONARY
  5
19
100
AcDbDictionary
280
0
281
1
  0
DICTIONARY
  5
1A
100
AcDbDictionary
281
1
  3
Layout1
350
1E
  3
Layout2
350
26
  3
Model
350
22
  0
LAYOUT
  5
1E
100
AcDbPlotSettings
  1

  2
none_device
  4

  6

 40
0.0
 41
0.0
 42
0.0
 43
0.0
 44
0.0
 45
0.0
 46
0.0
 47
0.0
 48
0.0
 49
0.0
140
0.0
141
0.0
142
1.0
143
1.0
 70
688
 72
0
 73
0
 74
5
  7

 75
16
147
1.0
148
0.0
149
0.0
100
AcDbLayout
  1
Layout1
 70
1
 71
1
 10
0.0
 20
0.0
 11
420.0
 21
297.0
 12
0.0
 22
0.0
 32
0.0
 14
100000000000000000000.0
 24
100000000000000000000.0
 34
100000000000000000000.0
 15
-100000000000000000000.0
 25
-100000000000000000000.0
 35
-100000000000000000000.0
146
0.0
 13
0.0
 23
0.0
 33
0.0
 16
1.0
 26
0.0
 36
0.0
 17
0.0
 27
1.0
 37
0.0
 76
0
330
1B
  0
LAYOUT
  5
22
100
AcDbPlotSettings
  1

  2
none_device
  4

  6

 40
0.0
 41
0.0
 42
0.0
 43
0.0
 44
0.0
 45
0.0
 46
0.0
 47
0.0
 48
0.0
 49
0.0
140
0.0
141
0.0
142
1.0
143
1.0
 70
1712
 72
0
 73
0
 74
0
  7

 75
0
147
1.0
148
0.0
149
0.0
100
AcDbLayout
  1
Model
 70
1
 71
0
 10
0.0
 20
0.0
 11
12.0
 21
9.0
 12
0.0
 22
0.0
 32
0.0
 14
0.0
 24
0.0
 34
0.0
 15
0.0
 25
0.0
 35
0.0
146
0.0
 13
0.0
 23
0.0
 33
0.0
 16
1.0
 26
0.0
 36
0.0
 17
0.0
 27
1.0
 37
0.0
 76
0
330
1F
  0
LAYOUT
  5
26
100
AcDbPlotSettings
  1

  2
none_device
  4

  6

 40
0.0
 41
0.0
 42
0.0
 43
0.0
 44
0.0
 45
0.0
 46
0.0
 47
0.0
 48
0.0
 49
0.0
140
0.0
141
0.0
142
1.0
143
1.0
 70
688
 72
0
 73
0
 74
5
  7

 75
16
147
1.0
148
0.0
149
0.0
100
AcDbLayout
  1
Layout2
 70
1
 71
2
 10
0.0
 20
0.0
 11
12.0
 21
9.0
 12
0.0
 22
0.0
 32
0.0
 14
0.0
 24
0.0
 34
0.0
 15
0.0
 25
0.0
 35
0.0
146
0.0
 13
0.0
 23
0.0
 33
0.0
 16
1.0
 26
0.0
 36
0.0
 17
0.0
 27
1.0
 37
0.0
 76
0
330
23
  0
DICTIONARY
  5
12B
100
AcDbDictionary
281
1
  3
DIMASSOC
350
12E
  3
HIDETEXT
350
12D
  0
DICTIONARYVAR
  5
12D
100
DictionaryVariables
280
0
  1
2
  0
DICTIONARYVAR
  5
12E
100
DictionaryVariables
280
0
  1
1
  0
DICTIONARY
  5
12C
100
AcDbDictionary
281
1
  3
ColorSettings/BackgroundColor
350
12F
  3
ColorSettings/ColorMode
350
130
  3
Grid/DisplayGrid00
350
131
  3
Grid/DisplayGrid01
350
132
  3
Grid/DisplayGrid02
350
133
  3
Grid/DisplayGrid03
350
134
  3
Grid/GridSpacingX00
350
135
  3
Grid/GridSpacingX01
350
136
  3
Grid/GridSpacingX02
350
137
  3
Grid/GridSpacingX03
350
138
  3
Grid/GridSpacingY00
350
139
  3
Grid/GridSpacingY01
350
13A
  3
Grid/GridSpacingY02
350
13B
  3
Grid/GridSpacingY03
350
13C
  3
Grid/IsometricGrid00
350
13D
  3
Grid/IsometricGrid01
350
13E
  3
Grid/IsometricGrid02
350
13F
  3
Grid/IsometricGrid03
350
140
  3
Grid/IsometricProjection00
350
141
  3
Grid/IsometricProjection01
350
142
  3
Grid/IsometricProjection02
350
143
  3
Grid/IsometricProjection03
350
144
  3
Grid/MetaGridSpacingX00
350
145
  3
Grid/MetaGridSpacingX01
350
146
  3
Grid/MetaGridSpacingX02
350
147
  3
Grid/MetaGridSpacingX03
350
148
  3
Grid/MetaGridSpacingY00
350
149
  3
Grid/MetaGridSpacingY01
350
14A
  3
Grid/MetaGridSpacingY02
350
14B
  3
Grid/MetaGridSpacingY03
350
14C
  3
MultiPageSettings/Columns
350
14D
  3
MultiPageSettings/GlueMarginsBottom
350
14E
  3
MultiPageSettings/GlueMarginsLeft
350
14F
  3
MultiPageSettings/GlueMarginsRight
350
150
  3
MultiPageSettings/GlueMarginsTop
350
151
  3
MultiPageSettings/PrintCropMarks
350
152
  3
MultiPageSettings/Rows
350
153
  3
PageSettings/OffsetX
350
154
  3
PageSettings/OffsetY
350
155
  3
PageSettings/PageOrientation
350
156
  3
PageSettings/PaperHeight
350
157
  3
PageSettings/PaperWidth
350
158
  3
PageSettings/Scale
350
159
  3
PageSettings/ShowPaperBorders
350
15A
  3
QCADVersion
350
15B
  3
UnitSettings/PaperUnit
350
15C
  3
ViewportCenter
350
15D
  3
ViewportHeight
350
15E
  3
ViewportWidth
350
15F
  0
XRECORD
  5
12F
330
12C
100
AcDbXrecord
280
1
1000
White
  0
XRECORD
  5
130
330
12C
100
AcDbXrecord
280
1
1000
FullColor
  0
XRECORD
  5
131
330
12C
100
AcDbXrecord
280
1
290
1
  0
XRECORD
  5
132
330
12C
100
AcDbXrecord
280
1
290
1
  0
XRECORD
  5
133
330
12C
100
AcDbXrecord
280
1
290
1
  0
XRECORD
  5
134
330
12C
100
AcDbXrecord
280
1
290
1
  0
XRECORD
  5
135
330
12C
100
AcDbXrecord
280
1
1000
auto
  0
XRECORD
  5
136
330
12C
100
AcDbXrecord
280
1
1000
auto
  0
XRECORD
  5
137
330
12C
100
AcDbXrecord
280
1
1000
auto
  0
XRECORD
  5
138
330
12C
100
AcDbXrecord
280
1
1000
auto
  0
XRECORD
  5
139
330
12C
100
AcDbXrecord
280
1
1000
auto
  0
XRECORD
  5
13A
330
12C
100
AcDbXrecord
280
1
1000
auto
  0
XRECORD
  5
13B
330
12C
100
AcDbXrecord
280
1
1000
auto
  0
XRECORD
  5
13C
330
12C
100
AcDbXrecord
280
1
1000
auto
  0
XRECORD
  5
13D
330
12C
100
AcDbXrecord
280
1
290
0
  0
XRECORD
  5
13E
330
12C
100
AcDbXrecord
280
1
290
0
  0
XRECORD
  5
13F
330
12C
100
AcDbXrecord
280
1
290
0
  0
XRECORD
  5
140
330
12C
100
AcDbXrecord
280
1
290
0
  0
XRECORD
  5
141
330
12C
100
AcDbXrecord
280
1
 90
0
  0
XRECORD
  5
142
330
12C
100
AcDbXrecord
280
1
 90
0
  0
XRECORD
  5
143
330
12C
100
AcDbXrecord
280
1
 90
0
  0
XRECORD
  5
144
330
12C
100
AcDbXrecord
280
1
 90
0
  0
XRECORD
  5
145
330
12C
100
AcDbXrecord
280
1
1000
auto
  0
XRECORD
  5
146
330
12C
100
AcDbXrecord
280
1
1000
auto
  0
XRECORD
  5
147
330
12C
100
AcDbXrecord
280
1
1000
auto
  0
XRECORD
  5
148
330
12C
100
AcDbXrecord
280
1
1000
auto
  0
XRECORD
  5
149
330
12C
100
AcDbXrecord
280
1
1000
auto
  0
XRECORD
  5
14A
330
12C
100
AcDbXrecord
280
1
1000
auto
  0
XRECORD
  5
14B
330
12C
100
AcDbXrecord
280
1
1000
auto
  0
XRECORD
  5
14C
330
12C
100
AcDbXrecord
280
1
1000
auto
  0
XRECORD
  5
14D
330
12C
100
AcDbXrecord
280
1
 90
1
  0
XRECORD
  5
14E
330
12C
100
AcDbXrecord
280
1
 40
10.0
  0
XRECORD
  5
14F
330
12C
100
AcDbXrecord
280
1
 40
10.0
  0
XRECORD
  5
150
330
12C
100
AcDbXrecord
280
1
 40
10.0
  0
XRECORD
  5
151
330
12C
100
AcDbXrecord
280
1
 40
10.0
  0
XRECORD
  5
152
330
12C
100
AcDbXrecord
280
1
290
0
  0
XRECORD
  5
153
330
12C
100
AcDbXrecord
280
1
 90
1
  0
XRECORD
  5
154
330
12C
100
AcDbXrecord
280
1
 40
0.0
  0
XRECORD
  5
155
330
12C
100
AcDbXrecord
280
1
 40
0.0
  0
XRECORD
  5
156
330
12C
100
AcDbXrecord
280
1
1000
Portrait
  0
XRECORD
  5
157
330
12C
100
AcDbXrecord
280
1
 40
297.0
  0
XRECORD
  5
158
330
12C
100
AcDbXrecord
280
1
 40
210.0
  0
XRECORD
  5
159
330
12C
100
AcDbXrecord
280
1
1000
1:1
  0
XRECORD
  5
15A
330
12C
100
AcDbXrecord
280
1
290
1
  0
XRECORD
  5
15B
330
12C
100
AcDbXrecord
280
1
1000
3.16.3
  0
XRECORD
  5
15C
330
12C
100
AcDbXrecord
280
1
 90
4
  0
XRECORD
  5
15E
330
12C
100
AcDbXrecord
280
1
 40
38.960040071389983
  0
XRECORD
  5
15F
330
12C
100
AcDbXrecord
280
1
 40
77.5039515438865863
  0
ENDSEC
  0
EOF
