%TF.GenerationSoftware,KiCad,Pcbnew,no-vcs-found-609da9b~60~ubuntu16.04.1*%
%TF.CreationDate,2017-10-16T18:37:31+03:00*%
%TF.ProjectId,orange_pi_zero_node,6F72616E67655F70695F7A65726F5F6E,rev?*%
%TF.SameCoordinates,Original*%
%TF.FileFunction,Copper,L1,Top,Signal*%
%TF.FilePolarity,Positive*%
%FSLAX46Y46*%
G04 Gerber Fmt 4.6, Leading zero omitted, Abs format (unit mm)*
G04 Created by KiCad (PCBNEW no-vcs-found-609da9b~60~ubuntu16.04.1) date Mon Oct 16 18:37:31 2017*
%MOMM*%
%LPD*%
G01*
G04 APERTURE LIST*
%ADD10C,4.000000*%
%ADD11C,1.524000*%
%ADD12C,2.032000*%
%ADD13R,2.032000X2.032000*%
%ADD14R,2.150000X1.800000*%
%ADD15R,1.200000X0.900000*%
%ADD16R,1.500000X2.000000*%
%ADD17R,3.800000X2.000000*%
%ADD18O,1.700000X1.700000*%
%ADD19R,1.700000X1.700000*%
%ADD20R,1.200000X0.750000*%
%ADD21R,0.900000X1.200000*%
%ADD22R,1.500000X0.900000*%
%ADD23O,1.500000X0.900000*%
%ADD24C,1.800000*%
%ADD25R,1.800000X1.800000*%
%ADD26C,0.450000*%
%ADD27C,0.800000*%
%ADD28C,0.300000*%
%ADD29C,0.800000*%
%ADD30C,0.400000*%
%ADD31C,0.254000*%
G04 APERTURE END LIST*
D10*
X156000000Y-53500000D03*
D11*
X114540000Y-59400000D03*
X114540000Y-61940000D03*
X114540000Y-64480000D03*
X114540000Y-67020000D03*
X114540000Y-69560000D03*
X114540000Y-72100000D03*
X114540000Y-74640000D03*
X114540000Y-77180000D03*
X114540000Y-79720000D03*
X114540000Y-82260000D03*
X114540000Y-84800000D03*
X114540000Y-87340000D03*
X114540000Y-89880000D03*
X157720000Y-89880000D03*
X155180000Y-89880000D03*
X157720000Y-87340000D03*
X155180000Y-87340000D03*
X157720000Y-84800000D03*
X155180000Y-84800000D03*
X157720000Y-82260000D03*
X155180000Y-82260000D03*
X157720000Y-79720000D03*
X155180000Y-79720000D03*
X157720000Y-77180000D03*
X155180000Y-77180000D03*
X157720000Y-74640000D03*
X155180000Y-74640000D03*
X157720000Y-72100000D03*
X155180000Y-72100000D03*
X157720000Y-69560000D03*
X155180000Y-69560000D03*
X157720000Y-67020000D03*
X155180000Y-67020000D03*
X157720000Y-64480000D03*
X155180000Y-64480000D03*
X157720000Y-61940000D03*
X155180000Y-61940000D03*
X157720000Y-59400000D03*
X155180000Y-59400000D03*
X149560000Y-52820000D03*
X149560000Y-55360000D03*
X149560000Y-57900000D03*
D10*
X116000000Y-53500000D03*
X116000000Y-95500000D03*
X156000000Y-95500000D03*
D12*
X140380000Y-85750000D03*
X140380000Y-83210000D03*
X140380000Y-80670000D03*
X140380000Y-78130000D03*
X148000000Y-65430000D03*
X148000000Y-62890000D03*
X140380000Y-62890000D03*
X140380000Y-65430000D03*
X148000000Y-67970000D03*
X148000000Y-70510000D03*
X148000000Y-73050000D03*
X148000000Y-75590000D03*
X140380000Y-75590000D03*
X140380000Y-73050000D03*
X140380000Y-70510000D03*
X140380000Y-67970000D03*
X148000000Y-78130000D03*
X148000000Y-80670000D03*
X148000000Y-83210000D03*
D13*
X148000000Y-85750000D03*
D14*
X136625000Y-89750000D03*
X133375000Y-89750000D03*
X129875000Y-89750000D03*
X126625000Y-89750000D03*
D15*
X137350000Y-86000000D03*
X135150000Y-86000000D03*
X135150000Y-83250000D03*
X137350000Y-83250000D03*
X137350000Y-80750000D03*
X135150000Y-80750000D03*
X135150000Y-78250000D03*
X137350000Y-78250000D03*
X137350000Y-75750000D03*
X135150000Y-75750000D03*
X135150000Y-73250000D03*
X137350000Y-73250000D03*
X137350000Y-70500000D03*
X135150000Y-70500000D03*
X135150000Y-68000000D03*
X137350000Y-68000000D03*
X137350000Y-65500000D03*
X135150000Y-65500000D03*
X135150000Y-63000000D03*
X137350000Y-63000000D03*
D16*
X126200000Y-85650000D03*
X130800000Y-85650000D03*
X128500000Y-85650000D03*
D17*
X128500000Y-79350000D03*
D18*
X128770000Y-94000000D03*
X126230000Y-94000000D03*
X123690000Y-94000000D03*
D19*
X121150000Y-94000000D03*
D15*
X123650000Y-97000000D03*
X125850000Y-97000000D03*
X123350000Y-91250000D03*
X121150000Y-91250000D03*
D20*
X143300000Y-59500000D03*
X145200000Y-59500000D03*
D21*
X141250000Y-56850000D03*
X141250000Y-54650000D03*
D22*
X144250000Y-54250000D03*
D23*
X144250000Y-56790000D03*
X144250000Y-55520000D03*
D20*
X132050000Y-57750000D03*
X133950000Y-57750000D03*
D15*
X134350000Y-59500000D03*
X132150000Y-59500000D03*
D24*
X131920000Y-55500000D03*
X134460000Y-55500000D03*
D25*
X137000000Y-55500000D03*
D26*
X120120000Y-52714999D03*
X122660000Y-52714999D03*
X125200000Y-52714999D03*
X127740000Y-52714999D03*
X130280000Y-52714999D03*
X132820000Y-52714999D03*
X135360000Y-52714999D03*
X137900000Y-52714999D03*
X140440000Y-52714999D03*
X142980000Y-52714999D03*
X145520000Y-52714999D03*
X148060000Y-52714999D03*
X153140000Y-52714999D03*
X120120000Y-55254999D03*
X122660000Y-55254999D03*
X125200000Y-55254999D03*
X127740000Y-55254999D03*
X130280000Y-55254999D03*
X148060000Y-55254999D03*
X153140000Y-55254999D03*
X115040000Y-57794999D03*
X117580000Y-57794999D03*
X120120000Y-57794999D03*
X122660000Y-57794999D03*
X125200000Y-57794999D03*
X127740000Y-57794999D03*
X130280000Y-57794999D03*
X135360000Y-57794999D03*
X137900000Y-57794999D03*
X153140000Y-57794999D03*
X155680000Y-57794999D03*
X158220000Y-57794999D03*
X117580000Y-60334999D03*
X120120000Y-60334999D03*
X122660000Y-60334999D03*
X125200000Y-60334999D03*
X127740000Y-60334999D03*
X130280000Y-60334999D03*
X140440000Y-60334999D03*
X148060000Y-60334999D03*
X150600000Y-60334999D03*
X153140000Y-60334999D03*
X117580000Y-62874999D03*
X120120000Y-62874999D03*
X122660000Y-62874999D03*
X125200000Y-62874999D03*
X127740000Y-62874999D03*
X130280000Y-62874999D03*
X132820000Y-62874999D03*
X145520000Y-62874999D03*
X117580000Y-65414999D03*
X120120000Y-65414999D03*
X122660000Y-65414999D03*
X125200000Y-65414999D03*
X127740000Y-65414999D03*
X130280000Y-65414999D03*
X132820000Y-65414999D03*
X145520000Y-65414999D03*
X117580000Y-67954999D03*
X120120000Y-67954999D03*
X122660000Y-67954999D03*
X125200000Y-67954999D03*
X127740000Y-67954999D03*
X130280000Y-67954999D03*
X132820000Y-67954999D03*
X145520000Y-67954999D03*
X117580000Y-70494999D03*
X120120000Y-70494999D03*
X122660000Y-70494999D03*
X125200000Y-70494999D03*
X127740000Y-70494999D03*
X130280000Y-70494999D03*
X145520000Y-70494999D03*
X117580000Y-73034999D03*
X120120000Y-73034999D03*
X122660000Y-73034999D03*
X125200000Y-73034999D03*
X127740000Y-73034999D03*
X132820000Y-73034999D03*
X145520000Y-73034999D03*
X117580000Y-75574999D03*
X120120000Y-75574999D03*
X122660000Y-75574999D03*
X125200000Y-75574999D03*
X130280000Y-75574999D03*
X132820000Y-75574999D03*
X145520000Y-75574999D03*
X117580000Y-78114999D03*
X120120000Y-78114999D03*
X122660000Y-78114999D03*
X132820000Y-78114999D03*
X145520000Y-78114999D03*
X117580000Y-80654999D03*
X120120000Y-80654999D03*
X125200000Y-80654999D03*
X132820000Y-80654999D03*
X145520000Y-80654999D03*
X153140000Y-80654999D03*
X117580000Y-83194999D03*
X122660000Y-83194999D03*
X125200000Y-83194999D03*
X127740000Y-83194999D03*
X130280000Y-83194999D03*
X132820000Y-83194999D03*
X145520000Y-83194999D03*
X150600000Y-83194999D03*
X153140000Y-83194999D03*
X120120000Y-85734999D03*
X122660000Y-85734999D03*
X132820000Y-85734999D03*
X145520000Y-85734999D03*
X150600000Y-85734999D03*
X117580000Y-88274999D03*
X120120000Y-88274999D03*
X122660000Y-88274999D03*
X125200000Y-88274999D03*
X127740000Y-88274999D03*
X117580000Y-90814999D03*
X142980000Y-90814999D03*
X145520000Y-90814999D03*
X148060000Y-90814999D03*
X150600000Y-90814999D03*
X130280000Y-93354999D03*
X140440000Y-93354999D03*
X142980000Y-93354999D03*
X145520000Y-93354999D03*
X148060000Y-93354999D03*
X150600000Y-93354999D03*
X153140000Y-93354999D03*
X158220000Y-93354999D03*
X120120000Y-95894999D03*
X132820000Y-95894999D03*
X137900000Y-95894999D03*
X140440000Y-95894999D03*
X142980000Y-95894999D03*
X145520000Y-95894999D03*
X148060000Y-95894999D03*
X150600000Y-95894999D03*
X153140000Y-95894999D03*
D27*
X135250000Y-92000000D03*
D28*
X140380000Y-85750000D02*
X137600000Y-85750000D01*
X137600000Y-85750000D02*
X137350000Y-86000000D01*
X137350000Y-83250000D02*
X140340000Y-83250000D01*
X140340000Y-83250000D02*
X140380000Y-83210000D01*
X137350000Y-80750000D02*
X140300000Y-80750000D01*
X140300000Y-80750000D02*
X140380000Y-80670000D01*
X137350000Y-78250000D02*
X140260000Y-78250000D01*
X140260000Y-78250000D02*
X140380000Y-78130000D01*
X157720000Y-61940000D02*
X156557999Y-63102001D01*
X156557999Y-63102001D02*
X150327999Y-63102001D01*
X150327999Y-63102001D02*
X148000000Y-65430000D01*
X155180000Y-61940000D02*
X148950000Y-61940000D01*
X148950000Y-61940000D02*
X148000000Y-62890000D01*
X137350000Y-63000000D02*
X140270000Y-63000000D01*
X140270000Y-63000000D02*
X140380000Y-62890000D01*
X137350000Y-65500000D02*
X140310000Y-65500000D01*
X140310000Y-65500000D02*
X140380000Y-65430000D01*
X155180000Y-64480000D02*
X151490000Y-64480000D01*
X151490000Y-64480000D02*
X148000000Y-67970000D01*
X157720000Y-64480000D02*
X156557999Y-65642001D01*
X156557999Y-65642001D02*
X152867999Y-65642001D01*
X152867999Y-65642001D02*
X148000000Y-70510000D01*
X157720000Y-67020000D02*
X156557999Y-68182001D01*
X152867999Y-68182001D02*
X148000000Y-73050000D01*
X156557999Y-68182001D02*
X152867999Y-68182001D01*
X155180000Y-69560000D02*
X154030000Y-69560000D01*
X154030000Y-69560000D02*
X148000000Y-75590000D01*
X137350000Y-75750000D02*
X140220000Y-75750000D01*
X140220000Y-75750000D02*
X140380000Y-75590000D01*
X137350000Y-73250000D02*
X140180000Y-73250000D01*
X140180000Y-73250000D02*
X140380000Y-73050000D01*
X137350000Y-70500000D02*
X140370000Y-70500000D01*
X140370000Y-70500000D02*
X140380000Y-70510000D01*
X137350000Y-68000000D02*
X140350000Y-68000000D01*
X140350000Y-68000000D02*
X140380000Y-67970000D01*
X155180000Y-72100000D02*
X154030000Y-72100000D01*
X154030000Y-72100000D02*
X148000000Y-78130000D01*
X157720000Y-72100000D02*
X156557999Y-73262001D01*
X156557999Y-73262001D02*
X154838237Y-73262001D01*
X154838237Y-73262001D02*
X149600238Y-78500000D01*
X149600238Y-78500000D02*
X149500000Y-78500000D01*
X149500000Y-78500000D02*
X149500000Y-79170000D01*
X149500000Y-79170000D02*
X148000000Y-80670000D01*
X157720000Y-74640000D02*
X156557999Y-75802001D01*
X156557999Y-75802001D02*
X154838237Y-75802001D01*
X149500000Y-81710000D02*
X148000000Y-83210000D01*
X154838237Y-75802001D02*
X149500000Y-81140238D01*
X149500000Y-81140238D02*
X149500000Y-81710000D01*
X148000000Y-85750000D02*
X149316000Y-85750000D01*
X149316000Y-85750000D02*
X149416001Y-85649999D01*
X149416001Y-85649999D02*
X149416001Y-82943999D01*
X149416001Y-82943999D02*
X155180000Y-77180000D01*
D29*
X133375000Y-89750000D02*
X133375000Y-90125000D01*
X133375000Y-90125000D02*
X135250000Y-92000000D01*
X133375000Y-89750000D02*
X133375000Y-89125000D01*
X133375000Y-89125000D02*
X130800000Y-86550000D01*
X130800000Y-86550000D02*
X130800000Y-85650000D01*
X155180000Y-89880000D02*
X155180000Y-87340000D01*
D30*
X143300000Y-59500000D02*
X143300000Y-87450000D01*
X143300000Y-87450000D02*
X133750000Y-97000000D01*
X133750000Y-97000000D02*
X125850000Y-97000000D01*
X144250000Y-56790000D02*
X144250000Y-57250000D01*
X143300000Y-58200000D02*
X143300000Y-59500000D01*
X144250000Y-57250000D02*
X143300000Y-58200000D01*
X141250000Y-56850000D02*
X144190000Y-56850000D01*
X144190000Y-56850000D02*
X144250000Y-56790000D01*
X134350000Y-59500000D02*
X138750000Y-59500000D01*
X138750000Y-59500000D02*
X141250000Y-57000000D01*
X141250000Y-57000000D02*
X141250000Y-56850000D01*
X129875000Y-89750000D02*
X129875000Y-88875000D01*
X129875000Y-88875000D02*
X128500000Y-87500000D01*
X128500000Y-87500000D02*
X128500000Y-85650000D01*
X123350000Y-91250000D02*
X123500000Y-91250000D01*
X123500000Y-91250000D02*
X126230000Y-93980000D01*
X126230000Y-93980000D02*
X126230000Y-94000000D01*
X126230000Y-94000000D02*
X126230000Y-96620000D01*
X126230000Y-96620000D02*
X125850000Y-97000000D01*
X126230000Y-94000000D02*
X129875000Y-90355000D01*
X129875000Y-90355000D02*
X129875000Y-89750000D01*
D28*
X123650000Y-97000000D02*
X123650000Y-94040000D01*
X123650000Y-94040000D02*
X123690000Y-94000000D01*
X121150000Y-94000000D02*
X121150000Y-91250000D01*
X144250000Y-55520000D02*
X145300000Y-55520000D01*
X145300000Y-55520000D02*
X149180000Y-59400000D01*
X149180000Y-59400000D02*
X155180000Y-59400000D01*
X141250000Y-54650000D02*
X142000000Y-54650000D01*
X142000000Y-54650000D02*
X142870000Y-55520000D01*
X142870000Y-55520000D02*
X144250000Y-55520000D01*
X131920000Y-55000000D02*
X131920000Y-57620000D01*
X131920000Y-57620000D02*
X132050000Y-57750000D01*
X132150000Y-59500000D02*
X132150000Y-57850000D01*
X132150000Y-57850000D02*
X132050000Y-57750000D01*
D31*
G36*
X154509342Y-51264853D02*
X153767458Y-52005443D01*
X153365458Y-52973567D01*
X153364543Y-54021834D01*
X153764853Y-54990658D01*
X154505443Y-55732542D01*
X155473567Y-56134542D01*
X156521834Y-56135457D01*
X157490658Y-55735147D01*
X158232542Y-54994557D01*
X158290000Y-54856183D01*
X158290000Y-58120113D01*
X157927698Y-57990856D01*
X157372632Y-58018638D01*
X156988857Y-58177603D01*
X156919392Y-58419787D01*
X157720000Y-59220395D01*
X157734143Y-59206253D01*
X157913748Y-59385858D01*
X157899605Y-59400000D01*
X157913748Y-59414143D01*
X157734143Y-59593748D01*
X157720000Y-59579605D01*
X156919392Y-60380213D01*
X156988857Y-60622397D01*
X157129318Y-60672509D01*
X156929697Y-60754990D01*
X156536371Y-61147630D01*
X156450051Y-61355512D01*
X156365010Y-61149697D01*
X155972370Y-60756371D01*
X155764488Y-60670051D01*
X155970303Y-60585010D01*
X156363629Y-60192370D01*
X156443395Y-60000273D01*
X156497603Y-60131143D01*
X156739787Y-60200608D01*
X157540395Y-59400000D01*
X156739787Y-58599392D01*
X156497603Y-58668857D01*
X156447491Y-58809318D01*
X156365010Y-58609697D01*
X155972370Y-58216371D01*
X155459100Y-58003243D01*
X154903339Y-58002758D01*
X154389697Y-58214990D01*
X153996371Y-58607630D01*
X153993311Y-58615000D01*
X150775756Y-58615000D01*
X150956757Y-58179100D01*
X150957242Y-57623339D01*
X150745010Y-57109697D01*
X150352370Y-56716371D01*
X150144488Y-56630051D01*
X150350303Y-56545010D01*
X150743629Y-56152370D01*
X150956757Y-55639100D01*
X150957242Y-55083339D01*
X150745010Y-54569697D01*
X150352370Y-54176371D01*
X150160273Y-54096605D01*
X150291143Y-54042397D01*
X150360608Y-53800213D01*
X149560000Y-52999605D01*
X148759392Y-53800213D01*
X148828857Y-54042397D01*
X148969318Y-54092509D01*
X148769697Y-54174990D01*
X148376371Y-54567630D01*
X148163243Y-55080900D01*
X148162758Y-55636661D01*
X148374990Y-56150303D01*
X148767630Y-56543629D01*
X148975512Y-56629949D01*
X148769697Y-56714990D01*
X148376371Y-57107630D01*
X148265293Y-57375135D01*
X145855079Y-54964921D01*
X145635000Y-54817869D01*
X145635000Y-54535750D01*
X145476250Y-54377000D01*
X144377000Y-54377000D01*
X144377000Y-54397000D01*
X144123000Y-54397000D01*
X144123000Y-54377000D01*
X143023750Y-54377000D01*
X142930454Y-54470296D01*
X142555079Y-54094921D01*
X142325918Y-53941801D01*
X142298157Y-53802235D01*
X142212266Y-53673691D01*
X142865000Y-53673691D01*
X142865000Y-53964250D01*
X143023750Y-54123000D01*
X144123000Y-54123000D01*
X144123000Y-53323750D01*
X144377000Y-53323750D01*
X144377000Y-54123000D01*
X145476250Y-54123000D01*
X145635000Y-53964250D01*
X145635000Y-53673691D01*
X145538327Y-53440302D01*
X145359699Y-53261673D01*
X145126310Y-53165000D01*
X144535750Y-53165000D01*
X144377000Y-53323750D01*
X144123000Y-53323750D01*
X143964250Y-53165000D01*
X143373690Y-53165000D01*
X143140301Y-53261673D01*
X142961673Y-53440302D01*
X142865000Y-53673691D01*
X142212266Y-53673691D01*
X142157809Y-53592191D01*
X141947765Y-53451843D01*
X141700000Y-53402560D01*
X140800000Y-53402560D01*
X140552235Y-53451843D01*
X140342191Y-53592191D01*
X140201843Y-53802235D01*
X140152560Y-54050000D01*
X140152560Y-55250000D01*
X140201843Y-55497765D01*
X140342191Y-55707809D01*
X140405334Y-55750000D01*
X140342191Y-55792191D01*
X140201843Y-56002235D01*
X140152560Y-56250000D01*
X140152560Y-56916572D01*
X138404132Y-58665000D01*
X135456459Y-58665000D01*
X135407809Y-58592191D01*
X135197765Y-58451843D01*
X135109231Y-58434233D01*
X135185000Y-58251310D01*
X135185000Y-58035750D01*
X135026250Y-57877000D01*
X134077000Y-57877000D01*
X134077000Y-57897000D01*
X133823000Y-57897000D01*
X133823000Y-57877000D01*
X133803000Y-57877000D01*
X133803000Y-57623000D01*
X133823000Y-57623000D01*
X133823000Y-57603000D01*
X134077000Y-57603000D01*
X134077000Y-57623000D01*
X135026250Y-57623000D01*
X135185000Y-57464250D01*
X135185000Y-57248690D01*
X135088327Y-57015301D01*
X135016422Y-56943397D01*
X135274148Y-56836643D01*
X135360553Y-56580161D01*
X135475110Y-56694718D01*
X135509942Y-56659886D01*
X135642191Y-56857809D01*
X135852235Y-56998157D01*
X136100000Y-57047440D01*
X137900000Y-57047440D01*
X138147765Y-56998157D01*
X138357809Y-56857809D01*
X138498157Y-56647765D01*
X138547440Y-56400000D01*
X138547440Y-54600000D01*
X138498157Y-54352235D01*
X138357809Y-54142191D01*
X138147765Y-54001843D01*
X137900000Y-53952560D01*
X136100000Y-53952560D01*
X135852235Y-54001843D01*
X135642191Y-54142191D01*
X135509942Y-54340114D01*
X135475110Y-54305282D01*
X135360553Y-54419839D01*
X135274148Y-54163357D01*
X134700664Y-53953542D01*
X134090540Y-53979161D01*
X133645852Y-54163357D01*
X133559446Y-54419841D01*
X134460000Y-55320395D01*
X134474143Y-55306253D01*
X134653748Y-55485858D01*
X134639605Y-55500000D01*
X134653748Y-55514143D01*
X134474143Y-55693748D01*
X134460000Y-55679605D01*
X133559446Y-56580159D01*
X133613294Y-56740000D01*
X133223691Y-56740000D01*
X132990302Y-56836673D01*
X132989102Y-56837873D01*
X132897765Y-56776843D01*
X132827618Y-56762890D01*
X133220551Y-56370643D01*
X133229203Y-56349806D01*
X133379841Y-56400554D01*
X134280395Y-55500000D01*
X133379841Y-54599446D01*
X133229673Y-54650035D01*
X133222068Y-54631629D01*
X132790643Y-54199449D01*
X132226670Y-53965267D01*
X131616009Y-53964735D01*
X131051629Y-54197932D01*
X130619449Y-54629357D01*
X130385267Y-55193330D01*
X130384735Y-55803991D01*
X130617932Y-56368371D01*
X131049357Y-56800551D01*
X131121760Y-56830615D01*
X130992191Y-56917191D01*
X130851843Y-57127235D01*
X130802560Y-57375000D01*
X130802560Y-58125000D01*
X130851843Y-58372765D01*
X130992191Y-58582809D01*
X131065659Y-58631899D01*
X130951843Y-58802235D01*
X130902560Y-59050000D01*
X130902560Y-59950000D01*
X130951843Y-60197765D01*
X131092191Y-60407809D01*
X131302235Y-60548157D01*
X131550000Y-60597440D01*
X132750000Y-60597440D01*
X132997765Y-60548157D01*
X133207809Y-60407809D01*
X133250000Y-60344666D01*
X133292191Y-60407809D01*
X133502235Y-60548157D01*
X133750000Y-60597440D01*
X134950000Y-60597440D01*
X135197765Y-60548157D01*
X135407809Y-60407809D01*
X135456459Y-60335000D01*
X138750000Y-60335000D01*
X139069541Y-60271439D01*
X139340434Y-60090434D01*
X141333428Y-58097440D01*
X141700000Y-58097440D01*
X141947765Y-58048157D01*
X142157809Y-57907809D01*
X142298157Y-57697765D01*
X142300696Y-57685000D01*
X142659163Y-57685000D01*
X142528561Y-57880459D01*
X142465000Y-58200000D01*
X142465000Y-58524304D01*
X142452235Y-58526843D01*
X142242191Y-58667191D01*
X142101843Y-58877235D01*
X142052560Y-59125000D01*
X142052560Y-59875000D01*
X142101843Y-60122765D01*
X142242191Y-60332809D01*
X142452235Y-60473157D01*
X142465000Y-60475696D01*
X142465000Y-87104131D01*
X133404132Y-96165000D01*
X127065000Y-96165000D01*
X127065000Y-95222841D01*
X127280054Y-95079147D01*
X127507702Y-94738447D01*
X127574817Y-94881358D01*
X128003076Y-95271645D01*
X128413110Y-95441476D01*
X128643000Y-95320155D01*
X128643000Y-94127000D01*
X128897000Y-94127000D01*
X128897000Y-95320155D01*
X129126890Y-95441476D01*
X129536924Y-95271645D01*
X129965183Y-94881358D01*
X130211486Y-94356892D01*
X130090819Y-94127000D01*
X128897000Y-94127000D01*
X128643000Y-94127000D01*
X128623000Y-94127000D01*
X128623000Y-93873000D01*
X128643000Y-93873000D01*
X128643000Y-93853000D01*
X128897000Y-93853000D01*
X128897000Y-93873000D01*
X130090819Y-93873000D01*
X130211486Y-93643108D01*
X129965183Y-93118642D01*
X129536924Y-92728355D01*
X129126890Y-92558524D01*
X128897002Y-92679844D01*
X128897002Y-92515000D01*
X128895868Y-92515000D01*
X130113428Y-91297440D01*
X130950000Y-91297440D01*
X131197765Y-91248157D01*
X131407809Y-91107809D01*
X131548157Y-90897765D01*
X131597440Y-90650000D01*
X131597440Y-88850000D01*
X131587794Y-88801505D01*
X131652560Y-88866271D01*
X131652560Y-90650000D01*
X131701843Y-90897765D01*
X131842191Y-91107809D01*
X132052235Y-91248157D01*
X132300000Y-91297440D01*
X133083728Y-91297440D01*
X134517506Y-92731217D01*
X134662954Y-92876919D01*
X135043223Y-93034820D01*
X135454971Y-93035179D01*
X135835515Y-92877942D01*
X136126919Y-92587046D01*
X136284820Y-92206777D01*
X136285179Y-91795029D01*
X136127942Y-91414485D01*
X135998683Y-91285000D01*
X136339250Y-91285000D01*
X136498000Y-91126250D01*
X136498000Y-89877000D01*
X136752000Y-89877000D01*
X136752000Y-91126250D01*
X136910750Y-91285000D01*
X137826309Y-91285000D01*
X138059698Y-91188327D01*
X138238327Y-91009699D01*
X138335000Y-90776310D01*
X138335000Y-90035750D01*
X138176250Y-89877000D01*
X136752000Y-89877000D01*
X136498000Y-89877000D01*
X136478000Y-89877000D01*
X136478000Y-89623000D01*
X136498000Y-89623000D01*
X136498000Y-88373750D01*
X136752000Y-88373750D01*
X136752000Y-89623000D01*
X138176250Y-89623000D01*
X138335000Y-89464250D01*
X138335000Y-88723690D01*
X138238327Y-88490301D01*
X138059698Y-88311673D01*
X137826309Y-88215000D01*
X136910750Y-88215000D01*
X136752000Y-88373750D01*
X136498000Y-88373750D01*
X136339250Y-88215000D01*
X135423691Y-88215000D01*
X135190302Y-88311673D01*
X135011673Y-88490301D01*
X134997013Y-88525693D01*
X134907809Y-88392191D01*
X134697765Y-88251843D01*
X134450000Y-88202560D01*
X133916271Y-88202560D01*
X132197440Y-86483728D01*
X132197440Y-86285750D01*
X133915000Y-86285750D01*
X133915000Y-86576310D01*
X134011673Y-86809699D01*
X134190302Y-86988327D01*
X134423691Y-87085000D01*
X134864250Y-87085000D01*
X135023000Y-86926250D01*
X135023000Y-86127000D01*
X134073750Y-86127000D01*
X133915000Y-86285750D01*
X132197440Y-86285750D01*
X132197440Y-85423690D01*
X133915000Y-85423690D01*
X133915000Y-85714250D01*
X134073750Y-85873000D01*
X135023000Y-85873000D01*
X135023000Y-85073750D01*
X134864250Y-84915000D01*
X134423691Y-84915000D01*
X134190302Y-85011673D01*
X134011673Y-85190301D01*
X133915000Y-85423690D01*
X132197440Y-85423690D01*
X132197440Y-84650000D01*
X132148157Y-84402235D01*
X132007809Y-84192191D01*
X131797765Y-84051843D01*
X131550000Y-84002560D01*
X130050000Y-84002560D01*
X129802235Y-84051843D01*
X129650000Y-84153564D01*
X129497765Y-84051843D01*
X129250000Y-84002560D01*
X127750000Y-84002560D01*
X127502235Y-84051843D01*
X127350953Y-84152927D01*
X127309699Y-84111673D01*
X127076310Y-84015000D01*
X126485750Y-84015000D01*
X126327000Y-84173750D01*
X126327000Y-85523000D01*
X126347000Y-85523000D01*
X126347000Y-85777000D01*
X126327000Y-85777000D01*
X126327000Y-87126250D01*
X126485750Y-87285000D01*
X127076310Y-87285000D01*
X127309699Y-87188327D01*
X127350953Y-87147073D01*
X127502235Y-87248157D01*
X127665000Y-87280533D01*
X127665000Y-87500000D01*
X127728561Y-87819541D01*
X127875867Y-88040000D01*
X127909566Y-88090434D01*
X128289772Y-88470640D01*
X128252987Y-88525693D01*
X128238327Y-88490301D01*
X128059698Y-88311673D01*
X127826309Y-88215000D01*
X126910750Y-88215000D01*
X126752000Y-88373750D01*
X126752000Y-89623000D01*
X126772000Y-89623000D01*
X126772000Y-89877000D01*
X126752000Y-89877000D01*
X126752000Y-91126250D01*
X126910750Y-91285000D01*
X127764132Y-91285000D01*
X126507939Y-92541193D01*
X126230000Y-92485907D01*
X125968742Y-92537874D01*
X124597440Y-91166572D01*
X124597440Y-90800000D01*
X124548157Y-90552235D01*
X124407809Y-90342191D01*
X124197765Y-90201843D01*
X123950000Y-90152560D01*
X122750000Y-90152560D01*
X122502235Y-90201843D01*
X122292191Y-90342191D01*
X122250000Y-90405334D01*
X122207809Y-90342191D01*
X121997765Y-90201843D01*
X121750000Y-90152560D01*
X120550000Y-90152560D01*
X120302235Y-90201843D01*
X120092191Y-90342191D01*
X119951843Y-90552235D01*
X119902560Y-90800000D01*
X119902560Y-91700000D01*
X119951843Y-91947765D01*
X120092191Y-92157809D01*
X120302235Y-92298157D01*
X120365000Y-92310642D01*
X120365000Y-92502560D01*
X120300000Y-92502560D01*
X120052235Y-92551843D01*
X119842191Y-92692191D01*
X119701843Y-92902235D01*
X119652560Y-93150000D01*
X119652560Y-94850000D01*
X119701843Y-95097765D01*
X119842191Y-95307809D01*
X120052235Y-95448157D01*
X120300000Y-95497440D01*
X122000000Y-95497440D01*
X122247765Y-95448157D01*
X122457809Y-95307809D01*
X122598157Y-95097765D01*
X122610597Y-95035223D01*
X122639946Y-95079147D01*
X122865000Y-95229523D01*
X122865000Y-95939358D01*
X122802235Y-95951843D01*
X122592191Y-96092191D01*
X122451843Y-96302235D01*
X122402560Y-96550000D01*
X122402560Y-97450000D01*
X122451843Y-97697765D01*
X122513473Y-97790000D01*
X117357904Y-97790000D01*
X117490658Y-97735147D01*
X118232542Y-96994557D01*
X118634542Y-96026433D01*
X118635457Y-94978166D01*
X118235147Y-94009342D01*
X117494557Y-93267458D01*
X116526433Y-92865458D01*
X115478166Y-92864543D01*
X114509342Y-93264853D01*
X113767458Y-94005443D01*
X113710000Y-94143817D01*
X113710000Y-91025933D01*
X113747630Y-91063629D01*
X114260900Y-91276757D01*
X114816661Y-91277242D01*
X115330303Y-91065010D01*
X115723629Y-90672370D01*
X115936757Y-90159100D01*
X115936864Y-90035750D01*
X124915000Y-90035750D01*
X124915000Y-90776310D01*
X125011673Y-91009699D01*
X125190302Y-91188327D01*
X125423691Y-91285000D01*
X126339250Y-91285000D01*
X126498000Y-91126250D01*
X126498000Y-89877000D01*
X125073750Y-89877000D01*
X124915000Y-90035750D01*
X115936864Y-90035750D01*
X115937242Y-89603339D01*
X115725010Y-89089697D01*
X115359642Y-88723690D01*
X124915000Y-88723690D01*
X124915000Y-89464250D01*
X125073750Y-89623000D01*
X126498000Y-89623000D01*
X126498000Y-88373750D01*
X126339250Y-88215000D01*
X125423691Y-88215000D01*
X125190302Y-88311673D01*
X125011673Y-88490301D01*
X124915000Y-88723690D01*
X115359642Y-88723690D01*
X115332370Y-88696371D01*
X115124488Y-88610051D01*
X115330303Y-88525010D01*
X115723629Y-88132370D01*
X115936757Y-87619100D01*
X115937242Y-87063339D01*
X115725010Y-86549697D01*
X115332370Y-86156371D01*
X115124488Y-86070051D01*
X115330303Y-85985010D01*
X115379649Y-85935750D01*
X124815000Y-85935750D01*
X124815000Y-86776309D01*
X124911673Y-87009698D01*
X125090301Y-87188327D01*
X125323690Y-87285000D01*
X125914250Y-87285000D01*
X126073000Y-87126250D01*
X126073000Y-85777000D01*
X124973750Y-85777000D01*
X124815000Y-85935750D01*
X115379649Y-85935750D01*
X115723629Y-85592370D01*
X115936757Y-85079100D01*
X115937241Y-84523691D01*
X124815000Y-84523691D01*
X124815000Y-85364250D01*
X124973750Y-85523000D01*
X126073000Y-85523000D01*
X126073000Y-84173750D01*
X125914250Y-84015000D01*
X125323690Y-84015000D01*
X125090301Y-84111673D01*
X124911673Y-84290302D01*
X124815000Y-84523691D01*
X115937241Y-84523691D01*
X115937242Y-84523339D01*
X115725010Y-84009697D01*
X115332370Y-83616371D01*
X115138213Y-83535750D01*
X133915000Y-83535750D01*
X133915000Y-83826310D01*
X134011673Y-84059699D01*
X134190302Y-84238327D01*
X134423691Y-84335000D01*
X134864250Y-84335000D01*
X135023000Y-84176250D01*
X135023000Y-83377000D01*
X134073750Y-83377000D01*
X133915000Y-83535750D01*
X115138213Y-83535750D01*
X115124488Y-83530051D01*
X115330303Y-83445010D01*
X115723629Y-83052370D01*
X115880870Y-82673690D01*
X133915000Y-82673690D01*
X133915000Y-82964250D01*
X134073750Y-83123000D01*
X135023000Y-83123000D01*
X135023000Y-82323750D01*
X134864250Y-82165000D01*
X134423691Y-82165000D01*
X134190302Y-82261673D01*
X134011673Y-82440301D01*
X133915000Y-82673690D01*
X115880870Y-82673690D01*
X115936757Y-82539100D01*
X115937242Y-81983339D01*
X115725010Y-81469697D01*
X115332370Y-81076371D01*
X115234544Y-81035750D01*
X133915000Y-81035750D01*
X133915000Y-81326310D01*
X134011673Y-81559699D01*
X134190302Y-81738327D01*
X134423691Y-81835000D01*
X134864250Y-81835000D01*
X135023000Y-81676250D01*
X135023000Y-80877000D01*
X134073750Y-80877000D01*
X133915000Y-81035750D01*
X115234544Y-81035750D01*
X115124488Y-80990051D01*
X115330303Y-80905010D01*
X115723629Y-80512370D01*
X115936757Y-79999100D01*
X115937242Y-79443339D01*
X115725010Y-78929697D01*
X115332370Y-78536371D01*
X115124488Y-78450051D01*
X115330303Y-78365010D01*
X115345339Y-78350000D01*
X125952560Y-78350000D01*
X125952560Y-80350000D01*
X126001843Y-80597765D01*
X126142191Y-80807809D01*
X126352235Y-80948157D01*
X126600000Y-80997440D01*
X130400000Y-80997440D01*
X130647765Y-80948157D01*
X130857809Y-80807809D01*
X130998157Y-80597765D01*
X131047440Y-80350000D01*
X131047440Y-80173690D01*
X133915000Y-80173690D01*
X133915000Y-80464250D01*
X134073750Y-80623000D01*
X135023000Y-80623000D01*
X135023000Y-79823750D01*
X134864250Y-79665000D01*
X134423691Y-79665000D01*
X134190302Y-79761673D01*
X134011673Y-79940301D01*
X133915000Y-80173690D01*
X131047440Y-80173690D01*
X131047440Y-78535750D01*
X133915000Y-78535750D01*
X133915000Y-78826310D01*
X134011673Y-79059699D01*
X134190302Y-79238327D01*
X134423691Y-79335000D01*
X134864250Y-79335000D01*
X135023000Y-79176250D01*
X135023000Y-78377000D01*
X134073750Y-78377000D01*
X133915000Y-78535750D01*
X131047440Y-78535750D01*
X131047440Y-78350000D01*
X130998157Y-78102235D01*
X130857809Y-77892191D01*
X130647765Y-77751843D01*
X130400000Y-77702560D01*
X126600000Y-77702560D01*
X126352235Y-77751843D01*
X126142191Y-77892191D01*
X126001843Y-78102235D01*
X125952560Y-78350000D01*
X115345339Y-78350000D01*
X115723629Y-77972370D01*
X115847651Y-77673690D01*
X133915000Y-77673690D01*
X133915000Y-77964250D01*
X134073750Y-78123000D01*
X135023000Y-78123000D01*
X135023000Y-77323750D01*
X134864250Y-77165000D01*
X134423691Y-77165000D01*
X134190302Y-77261673D01*
X134011673Y-77440301D01*
X133915000Y-77673690D01*
X115847651Y-77673690D01*
X115936757Y-77459100D01*
X115937242Y-76903339D01*
X115725010Y-76389697D01*
X115371681Y-76035750D01*
X133915000Y-76035750D01*
X133915000Y-76326310D01*
X134011673Y-76559699D01*
X134190302Y-76738327D01*
X134423691Y-76835000D01*
X134864250Y-76835000D01*
X135023000Y-76676250D01*
X135023000Y-75877000D01*
X134073750Y-75877000D01*
X133915000Y-76035750D01*
X115371681Y-76035750D01*
X115332370Y-75996371D01*
X115124488Y-75910051D01*
X115330303Y-75825010D01*
X115723629Y-75432370D01*
X115831042Y-75173690D01*
X133915000Y-75173690D01*
X133915000Y-75464250D01*
X134073750Y-75623000D01*
X135023000Y-75623000D01*
X135023000Y-74823750D01*
X134864250Y-74665000D01*
X134423691Y-74665000D01*
X134190302Y-74761673D01*
X134011673Y-74940301D01*
X133915000Y-75173690D01*
X115831042Y-75173690D01*
X115936757Y-74919100D01*
X115937242Y-74363339D01*
X115725010Y-73849697D01*
X115411611Y-73535750D01*
X133915000Y-73535750D01*
X133915000Y-73826310D01*
X134011673Y-74059699D01*
X134190302Y-74238327D01*
X134423691Y-74335000D01*
X134864250Y-74335000D01*
X135023000Y-74176250D01*
X135023000Y-73377000D01*
X134073750Y-73377000D01*
X133915000Y-73535750D01*
X115411611Y-73535750D01*
X115332370Y-73456371D01*
X115124488Y-73370051D01*
X115330303Y-73285010D01*
X115723629Y-72892370D01*
X115814432Y-72673690D01*
X133915000Y-72673690D01*
X133915000Y-72964250D01*
X134073750Y-73123000D01*
X135023000Y-73123000D01*
X135023000Y-72323750D01*
X134864250Y-72165000D01*
X134423691Y-72165000D01*
X134190302Y-72261673D01*
X134011673Y-72440301D01*
X133915000Y-72673690D01*
X115814432Y-72673690D01*
X115936757Y-72379100D01*
X115937242Y-71823339D01*
X115725010Y-71309697D01*
X115332370Y-70916371D01*
X115124488Y-70830051D01*
X115231704Y-70785750D01*
X133915000Y-70785750D01*
X133915000Y-71076310D01*
X134011673Y-71309699D01*
X134190302Y-71488327D01*
X134423691Y-71585000D01*
X134864250Y-71585000D01*
X135023000Y-71426250D01*
X135023000Y-70627000D01*
X134073750Y-70627000D01*
X133915000Y-70785750D01*
X115231704Y-70785750D01*
X115330303Y-70745010D01*
X115723629Y-70352370D01*
X115901632Y-69923690D01*
X133915000Y-69923690D01*
X133915000Y-70214250D01*
X134073750Y-70373000D01*
X135023000Y-70373000D01*
X135023000Y-69573750D01*
X134864250Y-69415000D01*
X134423691Y-69415000D01*
X134190302Y-69511673D01*
X134011673Y-69690301D01*
X133915000Y-69923690D01*
X115901632Y-69923690D01*
X115936757Y-69839100D01*
X115937242Y-69283339D01*
X115725010Y-68769697D01*
X115332370Y-68376371D01*
X115124488Y-68290051D01*
X115134897Y-68285750D01*
X133915000Y-68285750D01*
X133915000Y-68576310D01*
X134011673Y-68809699D01*
X134190302Y-68988327D01*
X134423691Y-69085000D01*
X134864250Y-69085000D01*
X135023000Y-68926250D01*
X135023000Y-68127000D01*
X134073750Y-68127000D01*
X133915000Y-68285750D01*
X115134897Y-68285750D01*
X115330303Y-68205010D01*
X115723629Y-67812370D01*
X115885022Y-67423690D01*
X133915000Y-67423690D01*
X133915000Y-67714250D01*
X134073750Y-67873000D01*
X135023000Y-67873000D01*
X135023000Y-67073750D01*
X134864250Y-66915000D01*
X134423691Y-66915000D01*
X134190302Y-67011673D01*
X134011673Y-67190301D01*
X133915000Y-67423690D01*
X115885022Y-67423690D01*
X115936757Y-67299100D01*
X115937242Y-66743339D01*
X115725010Y-66229697D01*
X115332370Y-65836371D01*
X115210461Y-65785750D01*
X133915000Y-65785750D01*
X133915000Y-66076310D01*
X134011673Y-66309699D01*
X134190302Y-66488327D01*
X134423691Y-66585000D01*
X134864250Y-66585000D01*
X135023000Y-66426250D01*
X135023000Y-65627000D01*
X134073750Y-65627000D01*
X133915000Y-65785750D01*
X115210461Y-65785750D01*
X115124488Y-65750051D01*
X115330303Y-65665010D01*
X115723629Y-65272370D01*
X115868413Y-64923690D01*
X133915000Y-64923690D01*
X133915000Y-65214250D01*
X134073750Y-65373000D01*
X135023000Y-65373000D01*
X135023000Y-64573750D01*
X134864250Y-64415000D01*
X134423691Y-64415000D01*
X134190302Y-64511673D01*
X134011673Y-64690301D01*
X133915000Y-64923690D01*
X115868413Y-64923690D01*
X115936757Y-64759100D01*
X115937242Y-64203339D01*
X115725010Y-63689697D01*
X115332370Y-63296371D01*
X115306792Y-63285750D01*
X133915000Y-63285750D01*
X133915000Y-63576310D01*
X134011673Y-63809699D01*
X134190302Y-63988327D01*
X134423691Y-64085000D01*
X134864250Y-64085000D01*
X135023000Y-63926250D01*
X135023000Y-63127000D01*
X134073750Y-63127000D01*
X133915000Y-63285750D01*
X115306792Y-63285750D01*
X115140273Y-63216605D01*
X115271143Y-63162397D01*
X115340608Y-62920213D01*
X114540000Y-62119605D01*
X114525858Y-62133748D01*
X114346253Y-61954143D01*
X114360395Y-61940000D01*
X114719605Y-61940000D01*
X115520213Y-62740608D01*
X115762397Y-62671143D01*
X115850679Y-62423690D01*
X133915000Y-62423690D01*
X133915000Y-62714250D01*
X134073750Y-62873000D01*
X135023000Y-62873000D01*
X135023000Y-62073750D01*
X135277000Y-62073750D01*
X135277000Y-62873000D01*
X135297000Y-62873000D01*
X135297000Y-63127000D01*
X135277000Y-63127000D01*
X135277000Y-63926250D01*
X135435750Y-64085000D01*
X135876309Y-64085000D01*
X136109698Y-63988327D01*
X136251346Y-63846680D01*
X136292191Y-63907809D01*
X136502235Y-64048157D01*
X136750000Y-64097440D01*
X137950000Y-64097440D01*
X138197765Y-64048157D01*
X138407809Y-63907809D01*
X138489868Y-63785000D01*
X138963422Y-63785000D01*
X138979534Y-63823995D01*
X139315132Y-64160179D01*
X138981166Y-64493563D01*
X138889217Y-64715000D01*
X138489868Y-64715000D01*
X138407809Y-64592191D01*
X138197765Y-64451843D01*
X137950000Y-64402560D01*
X136750000Y-64402560D01*
X136502235Y-64451843D01*
X136292191Y-64592191D01*
X136251346Y-64653320D01*
X136109698Y-64511673D01*
X135876309Y-64415000D01*
X135435750Y-64415000D01*
X135277000Y-64573750D01*
X135277000Y-65373000D01*
X135297000Y-65373000D01*
X135297000Y-65627000D01*
X135277000Y-65627000D01*
X135277000Y-66426250D01*
X135435750Y-66585000D01*
X135876309Y-66585000D01*
X136109698Y-66488327D01*
X136251346Y-66346680D01*
X136292191Y-66407809D01*
X136502235Y-66548157D01*
X136750000Y-66597440D01*
X137950000Y-66597440D01*
X138197765Y-66548157D01*
X138407809Y-66407809D01*
X138489868Y-66285000D01*
X138946894Y-66285000D01*
X138979534Y-66363995D01*
X139315132Y-66700179D01*
X138981166Y-67033563D01*
X138905827Y-67215000D01*
X138489868Y-67215000D01*
X138407809Y-67092191D01*
X138197765Y-66951843D01*
X137950000Y-66902560D01*
X136750000Y-66902560D01*
X136502235Y-66951843D01*
X136292191Y-67092191D01*
X136251346Y-67153320D01*
X136109698Y-67011673D01*
X135876309Y-66915000D01*
X135435750Y-66915000D01*
X135277000Y-67073750D01*
X135277000Y-67873000D01*
X135297000Y-67873000D01*
X135297000Y-68127000D01*
X135277000Y-68127000D01*
X135277000Y-68926250D01*
X135435750Y-69085000D01*
X135876309Y-69085000D01*
X136109698Y-68988327D01*
X136251346Y-68846680D01*
X136292191Y-68907809D01*
X136502235Y-69048157D01*
X136750000Y-69097440D01*
X137950000Y-69097440D01*
X138197765Y-69048157D01*
X138407809Y-68907809D01*
X138489868Y-68785000D01*
X138930366Y-68785000D01*
X138979534Y-68903995D01*
X139315132Y-69240179D01*
X138981166Y-69573563D01*
X138922436Y-69715000D01*
X138489868Y-69715000D01*
X138407809Y-69592191D01*
X138197765Y-69451843D01*
X137950000Y-69402560D01*
X136750000Y-69402560D01*
X136502235Y-69451843D01*
X136292191Y-69592191D01*
X136251346Y-69653320D01*
X136109698Y-69511673D01*
X135876309Y-69415000D01*
X135435750Y-69415000D01*
X135277000Y-69573750D01*
X135277000Y-70373000D01*
X135297000Y-70373000D01*
X135297000Y-70627000D01*
X135277000Y-70627000D01*
X135277000Y-71426250D01*
X135435750Y-71585000D01*
X135876309Y-71585000D01*
X136109698Y-71488327D01*
X136251346Y-71346680D01*
X136292191Y-71407809D01*
X136502235Y-71548157D01*
X136750000Y-71597440D01*
X137950000Y-71597440D01*
X138197765Y-71548157D01*
X138407809Y-71407809D01*
X138489868Y-71285000D01*
X138913839Y-71285000D01*
X138979534Y-71443995D01*
X139315132Y-71780179D01*
X138981166Y-72113563D01*
X138835237Y-72465000D01*
X138489868Y-72465000D01*
X138407809Y-72342191D01*
X138197765Y-72201843D01*
X137950000Y-72152560D01*
X136750000Y-72152560D01*
X136502235Y-72201843D01*
X136292191Y-72342191D01*
X136251346Y-72403320D01*
X136109698Y-72261673D01*
X135876309Y-72165000D01*
X135435750Y-72165000D01*
X135277000Y-72323750D01*
X135277000Y-73123000D01*
X135297000Y-73123000D01*
X135297000Y-73377000D01*
X135277000Y-73377000D01*
X135277000Y-74176250D01*
X135435750Y-74335000D01*
X135876309Y-74335000D01*
X136109698Y-74238327D01*
X136251346Y-74096680D01*
X136292191Y-74157809D01*
X136502235Y-74298157D01*
X136750000Y-74347440D01*
X137950000Y-74347440D01*
X138197765Y-74298157D01*
X138407809Y-74157809D01*
X138489868Y-74035000D01*
X139030450Y-74035000D01*
X139315132Y-74320179D01*
X138981166Y-74653563D01*
X138851846Y-74965000D01*
X138489868Y-74965000D01*
X138407809Y-74842191D01*
X138197765Y-74701843D01*
X137950000Y-74652560D01*
X136750000Y-74652560D01*
X136502235Y-74701843D01*
X136292191Y-74842191D01*
X136251346Y-74903320D01*
X136109698Y-74761673D01*
X135876309Y-74665000D01*
X135435750Y-74665000D01*
X135277000Y-74823750D01*
X135277000Y-75623000D01*
X135297000Y-75623000D01*
X135297000Y-75877000D01*
X135277000Y-75877000D01*
X135277000Y-76676250D01*
X135435750Y-76835000D01*
X135876309Y-76835000D01*
X136109698Y-76738327D01*
X136251346Y-76596680D01*
X136292191Y-76657809D01*
X136502235Y-76798157D01*
X136750000Y-76847440D01*
X137950000Y-76847440D01*
X138197765Y-76798157D01*
X138407809Y-76657809D01*
X138489868Y-76535000D01*
X138990520Y-76535000D01*
X139315132Y-76860179D01*
X138981166Y-77193563D01*
X138868456Y-77465000D01*
X138489868Y-77465000D01*
X138407809Y-77342191D01*
X138197765Y-77201843D01*
X137950000Y-77152560D01*
X136750000Y-77152560D01*
X136502235Y-77201843D01*
X136292191Y-77342191D01*
X136251346Y-77403320D01*
X136109698Y-77261673D01*
X135876309Y-77165000D01*
X135435750Y-77165000D01*
X135277000Y-77323750D01*
X135277000Y-78123000D01*
X135297000Y-78123000D01*
X135297000Y-78377000D01*
X135277000Y-78377000D01*
X135277000Y-79176250D01*
X135435750Y-79335000D01*
X135876309Y-79335000D01*
X136109698Y-79238327D01*
X136251346Y-79096680D01*
X136292191Y-79157809D01*
X136502235Y-79298157D01*
X136750000Y-79347440D01*
X137950000Y-79347440D01*
X138197765Y-79298157D01*
X138407809Y-79157809D01*
X138489868Y-79035000D01*
X138967554Y-79035000D01*
X138979534Y-79063995D01*
X139315132Y-79400179D01*
X138981166Y-79733563D01*
X138885065Y-79965000D01*
X138489868Y-79965000D01*
X138407809Y-79842191D01*
X138197765Y-79701843D01*
X137950000Y-79652560D01*
X136750000Y-79652560D01*
X136502235Y-79701843D01*
X136292191Y-79842191D01*
X136251346Y-79903320D01*
X136109698Y-79761673D01*
X135876309Y-79665000D01*
X135435750Y-79665000D01*
X135277000Y-79823750D01*
X135277000Y-80623000D01*
X135297000Y-80623000D01*
X135297000Y-80877000D01*
X135277000Y-80877000D01*
X135277000Y-81676250D01*
X135435750Y-81835000D01*
X135876309Y-81835000D01*
X136109698Y-81738327D01*
X136251346Y-81596680D01*
X136292191Y-81657809D01*
X136502235Y-81798157D01*
X136750000Y-81847440D01*
X137950000Y-81847440D01*
X138197765Y-81798157D01*
X138407809Y-81657809D01*
X138489868Y-81535000D01*
X138951026Y-81535000D01*
X138979534Y-81603995D01*
X139315132Y-81940179D01*
X138981166Y-82273563D01*
X138901674Y-82465000D01*
X138489868Y-82465000D01*
X138407809Y-82342191D01*
X138197765Y-82201843D01*
X137950000Y-82152560D01*
X136750000Y-82152560D01*
X136502235Y-82201843D01*
X136292191Y-82342191D01*
X136251346Y-82403320D01*
X136109698Y-82261673D01*
X135876309Y-82165000D01*
X135435750Y-82165000D01*
X135277000Y-82323750D01*
X135277000Y-83123000D01*
X135297000Y-83123000D01*
X135297000Y-83377000D01*
X135277000Y-83377000D01*
X135277000Y-84176250D01*
X135435750Y-84335000D01*
X135876309Y-84335000D01*
X136109698Y-84238327D01*
X136251346Y-84096680D01*
X136292191Y-84157809D01*
X136502235Y-84298157D01*
X136750000Y-84347440D01*
X137950000Y-84347440D01*
X138197765Y-84298157D01*
X138407809Y-84157809D01*
X138489868Y-84035000D01*
X138934498Y-84035000D01*
X138979534Y-84143995D01*
X139315132Y-84480179D01*
X138981166Y-84813563D01*
X138918284Y-84965000D01*
X138217456Y-84965000D01*
X138197765Y-84951843D01*
X137950000Y-84902560D01*
X136750000Y-84902560D01*
X136502235Y-84951843D01*
X136292191Y-85092191D01*
X136251346Y-85153320D01*
X136109698Y-85011673D01*
X135876309Y-84915000D01*
X135435750Y-84915000D01*
X135277000Y-85073750D01*
X135277000Y-85873000D01*
X135297000Y-85873000D01*
X135297000Y-86127000D01*
X135277000Y-86127000D01*
X135277000Y-86926250D01*
X135435750Y-87085000D01*
X135876309Y-87085000D01*
X136109698Y-86988327D01*
X136251346Y-86846680D01*
X136292191Y-86907809D01*
X136502235Y-87048157D01*
X136750000Y-87097440D01*
X137950000Y-87097440D01*
X138197765Y-87048157D01*
X138407809Y-86907809D01*
X138548157Y-86697765D01*
X138580533Y-86535000D01*
X138917971Y-86535000D01*
X138979534Y-86683995D01*
X139443563Y-87148834D01*
X140050155Y-87400713D01*
X140706963Y-87401286D01*
X141313995Y-87150466D01*
X141778834Y-86686437D01*
X142030713Y-86079845D01*
X142031286Y-85423037D01*
X141780466Y-84816005D01*
X141444868Y-84479821D01*
X141778834Y-84146437D01*
X142030713Y-83539845D01*
X142031286Y-82883037D01*
X141780466Y-82276005D01*
X141444868Y-81939821D01*
X141778834Y-81606437D01*
X142030713Y-80999845D01*
X142031286Y-80343037D01*
X141780466Y-79736005D01*
X141444868Y-79399821D01*
X141778834Y-79066437D01*
X142030713Y-78459845D01*
X142031286Y-77803037D01*
X141780466Y-77196005D01*
X141444868Y-76859821D01*
X141778834Y-76526437D01*
X142030713Y-75919845D01*
X142031286Y-75263037D01*
X141780466Y-74656005D01*
X141444868Y-74319821D01*
X141778834Y-73986437D01*
X142030713Y-73379845D01*
X142031286Y-72723037D01*
X141780466Y-72116005D01*
X141444868Y-71779821D01*
X141778834Y-71446437D01*
X142030713Y-70839845D01*
X142031286Y-70183037D01*
X141780466Y-69576005D01*
X141444868Y-69239821D01*
X141778834Y-68906437D01*
X142030713Y-68299845D01*
X142031286Y-67643037D01*
X141780466Y-67036005D01*
X141444868Y-66699821D01*
X141778834Y-66366437D01*
X142030713Y-65759845D01*
X142031286Y-65103037D01*
X141780466Y-64496005D01*
X141444868Y-64159821D01*
X141778834Y-63826437D01*
X142030713Y-63219845D01*
X142031286Y-62563037D01*
X141780466Y-61956005D01*
X141316437Y-61491166D01*
X140709845Y-61239287D01*
X140053037Y-61238714D01*
X139446005Y-61489534D01*
X138981166Y-61953563D01*
X138872608Y-62215000D01*
X138489868Y-62215000D01*
X138407809Y-62092191D01*
X138197765Y-61951843D01*
X137950000Y-61902560D01*
X136750000Y-61902560D01*
X136502235Y-61951843D01*
X136292191Y-62092191D01*
X136251346Y-62153320D01*
X136109698Y-62011673D01*
X135876309Y-61915000D01*
X135435750Y-61915000D01*
X135277000Y-62073750D01*
X135023000Y-62073750D01*
X134864250Y-61915000D01*
X134423691Y-61915000D01*
X134190302Y-62011673D01*
X134011673Y-62190301D01*
X133915000Y-62423690D01*
X115850679Y-62423690D01*
X115949144Y-62147698D01*
X115921362Y-61592632D01*
X115762397Y-61208857D01*
X115520213Y-61139392D01*
X114719605Y-61940000D01*
X114360395Y-61940000D01*
X114346253Y-61925858D01*
X114525858Y-61746253D01*
X114540000Y-61760395D01*
X115340608Y-60959787D01*
X115271143Y-60717603D01*
X115130682Y-60667491D01*
X115330303Y-60585010D01*
X115723629Y-60192370D01*
X115936757Y-59679100D01*
X115937242Y-59123339D01*
X115725010Y-58609697D01*
X115332370Y-58216371D01*
X114819100Y-58003243D01*
X114263339Y-58002758D01*
X113749697Y-58214990D01*
X113710000Y-58254618D01*
X113710000Y-54857904D01*
X113764853Y-54990658D01*
X114505443Y-55732542D01*
X115473567Y-56134542D01*
X116521834Y-56135457D01*
X117490658Y-55735147D01*
X118232542Y-54994557D01*
X118634542Y-54026433D01*
X118635457Y-52978166D01*
X118484286Y-52612302D01*
X148150856Y-52612302D01*
X148178638Y-53167368D01*
X148337603Y-53551143D01*
X148579787Y-53620608D01*
X149380395Y-52820000D01*
X149739605Y-52820000D01*
X150540213Y-53620608D01*
X150782397Y-53551143D01*
X150969144Y-53027698D01*
X150941362Y-52472632D01*
X150782397Y-52088857D01*
X150540213Y-52019392D01*
X149739605Y-52820000D01*
X149380395Y-52820000D01*
X148579787Y-52019392D01*
X148337603Y-52088857D01*
X148150856Y-52612302D01*
X118484286Y-52612302D01*
X118235147Y-52009342D01*
X118065888Y-51839787D01*
X148759392Y-51839787D01*
X149560000Y-52640395D01*
X150360608Y-51839787D01*
X150291143Y-51597603D01*
X149767698Y-51410856D01*
X149212632Y-51438638D01*
X148828857Y-51597603D01*
X148759392Y-51839787D01*
X118065888Y-51839787D01*
X117494557Y-51267458D01*
X117356183Y-51210000D01*
X154642096Y-51210000D01*
X154509342Y-51264853D01*
X154509342Y-51264853D01*
G37*
X154509342Y-51264853D02*
X153767458Y-52005443D01*
X153365458Y-52973567D01*
X153364543Y-54021834D01*
X153764853Y-54990658D01*
X154505443Y-55732542D01*
X155473567Y-56134542D01*
X156521834Y-56135457D01*
X157490658Y-55735147D01*
X158232542Y-54994557D01*
X158290000Y-54856183D01*
X158290000Y-58120113D01*
X157927698Y-57990856D01*
X157372632Y-58018638D01*
X156988857Y-58177603D01*
X156919392Y-58419787D01*
X157720000Y-59220395D01*
X157734143Y-59206253D01*
X157913748Y-59385858D01*
X157899605Y-59400000D01*
X157913748Y-59414143D01*
X157734143Y-59593748D01*
X157720000Y-59579605D01*
X156919392Y-60380213D01*
X156988857Y-60622397D01*
X157129318Y-60672509D01*
X156929697Y-60754990D01*
X156536371Y-61147630D01*
X156450051Y-61355512D01*
X156365010Y-61149697D01*
X155972370Y-60756371D01*
X155764488Y-60670051D01*
X155970303Y-60585010D01*
X156363629Y-60192370D01*
X156443395Y-60000273D01*
X156497603Y-60131143D01*
X156739787Y-60200608D01*
X157540395Y-59400000D01*
X156739787Y-58599392D01*
X156497603Y-58668857D01*
X156447491Y-58809318D01*
X156365010Y-58609697D01*
X155972370Y-58216371D01*
X155459100Y-58003243D01*
X154903339Y-58002758D01*
X154389697Y-58214990D01*
X153996371Y-58607630D01*
X153993311Y-58615000D01*
X150775756Y-58615000D01*
X150956757Y-58179100D01*
X150957242Y-57623339D01*
X150745010Y-57109697D01*
X150352370Y-56716371D01*
X150144488Y-56630051D01*
X150350303Y-56545010D01*
X150743629Y-56152370D01*
X150956757Y-55639100D01*
X150957242Y-55083339D01*
X150745010Y-54569697D01*
X150352370Y-54176371D01*
X150160273Y-54096605D01*
X150291143Y-54042397D01*
X150360608Y-53800213D01*
X149560000Y-52999605D01*
X148759392Y-53800213D01*
X148828857Y-54042397D01*
X148969318Y-54092509D01*
X148769697Y-54174990D01*
X148376371Y-54567630D01*
X148163243Y-55080900D01*
X148162758Y-55636661D01*
X148374990Y-56150303D01*
X148767630Y-56543629D01*
X148975512Y-56629949D01*
X148769697Y-56714990D01*
X148376371Y-57107630D01*
X148265293Y-57375135D01*
X145855079Y-54964921D01*
X145635000Y-54817869D01*
X145635000Y-54535750D01*
X145476250Y-54377000D01*
X144377000Y-54377000D01*
X144377000Y-54397000D01*
X144123000Y-54397000D01*
X144123000Y-54377000D01*
X143023750Y-54377000D01*
X142930454Y-54470296D01*
X142555079Y-54094921D01*
X142325918Y-53941801D01*
X142298157Y-53802235D01*
X142212266Y-53673691D01*
X142865000Y-53673691D01*
X142865000Y-53964250D01*
X143023750Y-54123000D01*
X144123000Y-54123000D01*
X144123000Y-53323750D01*
X144377000Y-53323750D01*
X144377000Y-54123000D01*
X145476250Y-54123000D01*
X145635000Y-53964250D01*
X145635000Y-53673691D01*
X145538327Y-53440302D01*
X145359699Y-53261673D01*
X145126310Y-53165000D01*
X144535750Y-53165000D01*
X144377000Y-53323750D01*
X144123000Y-53323750D01*
X143964250Y-53165000D01*
X143373690Y-53165000D01*
X143140301Y-53261673D01*
X142961673Y-53440302D01*
X142865000Y-53673691D01*
X142212266Y-53673691D01*
X142157809Y-53592191D01*
X141947765Y-53451843D01*
X141700000Y-53402560D01*
X140800000Y-53402560D01*
X140552235Y-53451843D01*
X140342191Y-53592191D01*
X140201843Y-53802235D01*
X140152560Y-54050000D01*
X140152560Y-55250000D01*
X140201843Y-55497765D01*
X140342191Y-55707809D01*
X140405334Y-55750000D01*
X140342191Y-55792191D01*
X140201843Y-56002235D01*
X140152560Y-56250000D01*
X140152560Y-56916572D01*
X138404132Y-58665000D01*
X135456459Y-58665000D01*
X135407809Y-58592191D01*
X135197765Y-58451843D01*
X135109231Y-58434233D01*
X135185000Y-58251310D01*
X135185000Y-58035750D01*
X135026250Y-57877000D01*
X134077000Y-57877000D01*
X134077000Y-57897000D01*
X133823000Y-57897000D01*
X133823000Y-57877000D01*
X133803000Y-57877000D01*
X133803000Y-57623000D01*
X133823000Y-57623000D01*
X133823000Y-57603000D01*
X134077000Y-57603000D01*
X134077000Y-57623000D01*
X135026250Y-57623000D01*
X135185000Y-57464250D01*
X135185000Y-57248690D01*
X135088327Y-57015301D01*
X135016422Y-56943397D01*
X135274148Y-56836643D01*
X135360553Y-56580161D01*
X135475110Y-56694718D01*
X135509942Y-56659886D01*
X135642191Y-56857809D01*
X135852235Y-56998157D01*
X136100000Y-57047440D01*
X137900000Y-57047440D01*
X138147765Y-56998157D01*
X138357809Y-56857809D01*
X138498157Y-56647765D01*
X138547440Y-56400000D01*
X138547440Y-54600000D01*
X138498157Y-54352235D01*
X138357809Y-54142191D01*
X138147765Y-54001843D01*
X137900000Y-53952560D01*
X136100000Y-53952560D01*
X135852235Y-54001843D01*
X135642191Y-54142191D01*
X135509942Y-54340114D01*
X135475110Y-54305282D01*
X135360553Y-54419839D01*
X135274148Y-54163357D01*
X134700664Y-53953542D01*
X134090540Y-53979161D01*
X133645852Y-54163357D01*
X133559446Y-54419841D01*
X134460000Y-55320395D01*
X134474143Y-55306253D01*
X134653748Y-55485858D01*
X134639605Y-55500000D01*
X134653748Y-55514143D01*
X134474143Y-55693748D01*
X134460000Y-55679605D01*
X133559446Y-56580159D01*
X133613294Y-56740000D01*
X133223691Y-56740000D01*
X132990302Y-56836673D01*
X132989102Y-56837873D01*
X132897765Y-56776843D01*
X132827618Y-56762890D01*
X133220551Y-56370643D01*
X133229203Y-56349806D01*
X133379841Y-56400554D01*
X134280395Y-55500000D01*
X133379841Y-54599446D01*
X133229673Y-54650035D01*
X133222068Y-54631629D01*
X132790643Y-54199449D01*
X132226670Y-53965267D01*
X131616009Y-53964735D01*
X131051629Y-54197932D01*
X130619449Y-54629357D01*
X130385267Y-55193330D01*
X130384735Y-55803991D01*
X130617932Y-56368371D01*
X131049357Y-56800551D01*
X131121760Y-56830615D01*
X130992191Y-56917191D01*
X130851843Y-57127235D01*
X130802560Y-57375000D01*
X130802560Y-58125000D01*
X130851843Y-58372765D01*
X130992191Y-58582809D01*
X131065659Y-58631899D01*
X130951843Y-58802235D01*
X130902560Y-59050000D01*
X130902560Y-59950000D01*
X130951843Y-60197765D01*
X131092191Y-60407809D01*
X131302235Y-60548157D01*
X131550000Y-60597440D01*
X132750000Y-60597440D01*
X132997765Y-60548157D01*
X133207809Y-60407809D01*
X133250000Y-60344666D01*
X133292191Y-60407809D01*
X133502235Y-60548157D01*
X133750000Y-60597440D01*
X134950000Y-60597440D01*
X135197765Y-60548157D01*
X135407809Y-60407809D01*
X135456459Y-60335000D01*
X138750000Y-60335000D01*
X139069541Y-60271439D01*
X139340434Y-60090434D01*
X141333428Y-58097440D01*
X141700000Y-58097440D01*
X141947765Y-58048157D01*
X142157809Y-57907809D01*
X142298157Y-57697765D01*
X142300696Y-57685000D01*
X142659163Y-57685000D01*
X142528561Y-57880459D01*
X142465000Y-58200000D01*
X142465000Y-58524304D01*
X142452235Y-58526843D01*
X142242191Y-58667191D01*
X142101843Y-58877235D01*
X142052560Y-59125000D01*
X142052560Y-59875000D01*
X142101843Y-60122765D01*
X142242191Y-60332809D01*
X142452235Y-60473157D01*
X142465000Y-60475696D01*
X142465000Y-87104131D01*
X133404132Y-96165000D01*
X127065000Y-96165000D01*
X127065000Y-95222841D01*
X127280054Y-95079147D01*
X127507702Y-94738447D01*
X127574817Y-94881358D01*
X128003076Y-95271645D01*
X128413110Y-95441476D01*
X128643000Y-95320155D01*
X128643000Y-94127000D01*
X128897000Y-94127000D01*
X128897000Y-95320155D01*
X129126890Y-95441476D01*
X129536924Y-95271645D01*
X129965183Y-94881358D01*
X130211486Y-94356892D01*
X130090819Y-94127000D01*
X128897000Y-94127000D01*
X128643000Y-94127000D01*
X128623000Y-94127000D01*
X128623000Y-93873000D01*
X128643000Y-93873000D01*
X128643000Y-93853000D01*
X128897000Y-93853000D01*
X128897000Y-93873000D01*
X130090819Y-93873000D01*
X130211486Y-93643108D01*
X129965183Y-93118642D01*
X129536924Y-92728355D01*
X129126890Y-92558524D01*
X128897002Y-92679844D01*
X128897002Y-92515000D01*
X128895868Y-92515000D01*
X130113428Y-91297440D01*
X130950000Y-91297440D01*
X131197765Y-91248157D01*
X131407809Y-91107809D01*
X131548157Y-90897765D01*
X131597440Y-90650000D01*
X131597440Y-88850000D01*
X131587794Y-88801505D01*
X131652560Y-88866271D01*
X131652560Y-90650000D01*
X131701843Y-90897765D01*
X131842191Y-91107809D01*
X132052235Y-91248157D01*
X132300000Y-91297440D01*
X133083728Y-91297440D01*
X134517506Y-92731217D01*
X134662954Y-92876919D01*
X135043223Y-93034820D01*
X135454971Y-93035179D01*
X135835515Y-92877942D01*
X136126919Y-92587046D01*
X136284820Y-92206777D01*
X136285179Y-91795029D01*
X136127942Y-91414485D01*
X135998683Y-91285000D01*
X136339250Y-91285000D01*
X136498000Y-91126250D01*
X136498000Y-89877000D01*
X136752000Y-89877000D01*
X136752000Y-91126250D01*
X136910750Y-91285000D01*
X137826309Y-91285000D01*
X138059698Y-91188327D01*
X138238327Y-91009699D01*
X138335000Y-90776310D01*
X138335000Y-90035750D01*
X138176250Y-89877000D01*
X136752000Y-89877000D01*
X136498000Y-89877000D01*
X136478000Y-89877000D01*
X136478000Y-89623000D01*
X136498000Y-89623000D01*
X136498000Y-88373750D01*
X136752000Y-88373750D01*
X136752000Y-89623000D01*
X138176250Y-89623000D01*
X138335000Y-89464250D01*
X138335000Y-88723690D01*
X138238327Y-88490301D01*
X138059698Y-88311673D01*
X137826309Y-88215000D01*
X136910750Y-88215000D01*
X136752000Y-88373750D01*
X136498000Y-88373750D01*
X136339250Y-88215000D01*
X135423691Y-88215000D01*
X135190302Y-88311673D01*
X135011673Y-88490301D01*
X134997013Y-88525693D01*
X134907809Y-88392191D01*
X134697765Y-88251843D01*
X134450000Y-88202560D01*
X133916271Y-88202560D01*
X132197440Y-86483728D01*
X132197440Y-86285750D01*
X133915000Y-86285750D01*
X133915000Y-86576310D01*
X134011673Y-86809699D01*
X134190302Y-86988327D01*
X134423691Y-87085000D01*
X134864250Y-87085000D01*
X135023000Y-86926250D01*
X135023000Y-86127000D01*
X134073750Y-86127000D01*
X133915000Y-86285750D01*
X132197440Y-86285750D01*
X132197440Y-85423690D01*
X133915000Y-85423690D01*
X133915000Y-85714250D01*
X134073750Y-85873000D01*
X135023000Y-85873000D01*
X135023000Y-85073750D01*
X134864250Y-84915000D01*
X134423691Y-84915000D01*
X134190302Y-85011673D01*
X134011673Y-85190301D01*
X133915000Y-85423690D01*
X132197440Y-85423690D01*
X132197440Y-84650000D01*
X132148157Y-84402235D01*
X132007809Y-84192191D01*
X131797765Y-84051843D01*
X131550000Y-84002560D01*
X130050000Y-84002560D01*
X129802235Y-84051843D01*
X129650000Y-84153564D01*
X129497765Y-84051843D01*
X129250000Y-84002560D01*
X127750000Y-84002560D01*
X127502235Y-84051843D01*
X127350953Y-84152927D01*
X127309699Y-84111673D01*
X127076310Y-84015000D01*
X126485750Y-84015000D01*
X126327000Y-84173750D01*
X126327000Y-85523000D01*
X126347000Y-85523000D01*
X126347000Y-85777000D01*
X126327000Y-85777000D01*
X126327000Y-87126250D01*
X126485750Y-87285000D01*
X127076310Y-87285000D01*
X127309699Y-87188327D01*
X127350953Y-87147073D01*
X127502235Y-87248157D01*
X127665000Y-87280533D01*
X127665000Y-87500000D01*
X127728561Y-87819541D01*
X127875867Y-88040000D01*
X127909566Y-88090434D01*
X128289772Y-88470640D01*
X128252987Y-88525693D01*
X128238327Y-88490301D01*
X128059698Y-88311673D01*
X127826309Y-88215000D01*
X126910750Y-88215000D01*
X126752000Y-88373750D01*
X126752000Y-89623000D01*
X126772000Y-89623000D01*
X126772000Y-89877000D01*
X126752000Y-89877000D01*
X126752000Y-91126250D01*
X126910750Y-91285000D01*
X127764132Y-91285000D01*
X126507939Y-92541193D01*
X126230000Y-92485907D01*
X125968742Y-92537874D01*
X124597440Y-91166572D01*
X124597440Y-90800000D01*
X124548157Y-90552235D01*
X124407809Y-90342191D01*
X124197765Y-90201843D01*
X123950000Y-90152560D01*
X122750000Y-90152560D01*
X122502235Y-90201843D01*
X122292191Y-90342191D01*
X122250000Y-90405334D01*
X122207809Y-90342191D01*
X121997765Y-90201843D01*
X121750000Y-90152560D01*
X120550000Y-90152560D01*
X120302235Y-90201843D01*
X120092191Y-90342191D01*
X119951843Y-90552235D01*
X119902560Y-90800000D01*
X119902560Y-91700000D01*
X119951843Y-91947765D01*
X120092191Y-92157809D01*
X120302235Y-92298157D01*
X120365000Y-92310642D01*
X120365000Y-92502560D01*
X120300000Y-92502560D01*
X120052235Y-92551843D01*
X119842191Y-92692191D01*
X119701843Y-92902235D01*
X119652560Y-93150000D01*
X119652560Y-94850000D01*
X119701843Y-95097765D01*
X119842191Y-95307809D01*
X120052235Y-95448157D01*
X120300000Y-95497440D01*
X122000000Y-95497440D01*
X122247765Y-95448157D01*
X122457809Y-95307809D01*
X122598157Y-95097765D01*
X122610597Y-95035223D01*
X122639946Y-95079147D01*
X122865000Y-95229523D01*
X122865000Y-95939358D01*
X122802235Y-95951843D01*
X122592191Y-96092191D01*
X122451843Y-96302235D01*
X122402560Y-96550000D01*
X122402560Y-97450000D01*
X122451843Y-97697765D01*
X122513473Y-97790000D01*
X117357904Y-97790000D01*
X117490658Y-97735147D01*
X118232542Y-96994557D01*
X118634542Y-96026433D01*
X118635457Y-94978166D01*
X118235147Y-94009342D01*
X117494557Y-93267458D01*
X116526433Y-92865458D01*
X115478166Y-92864543D01*
X114509342Y-93264853D01*
X113767458Y-94005443D01*
X113710000Y-94143817D01*
X113710000Y-91025933D01*
X113747630Y-91063629D01*
X114260900Y-91276757D01*
X114816661Y-91277242D01*
X115330303Y-91065010D01*
X115723629Y-90672370D01*
X115936757Y-90159100D01*
X115936864Y-90035750D01*
X124915000Y-90035750D01*
X124915000Y-90776310D01*
X125011673Y-91009699D01*
X125190302Y-91188327D01*
X125423691Y-91285000D01*
X126339250Y-91285000D01*
X126498000Y-91126250D01*
X126498000Y-89877000D01*
X125073750Y-89877000D01*
X124915000Y-90035750D01*
X115936864Y-90035750D01*
X115937242Y-89603339D01*
X115725010Y-89089697D01*
X115359642Y-88723690D01*
X124915000Y-88723690D01*
X124915000Y-89464250D01*
X125073750Y-89623000D01*
X126498000Y-89623000D01*
X126498000Y-88373750D01*
X126339250Y-88215000D01*
X125423691Y-88215000D01*
X125190302Y-88311673D01*
X125011673Y-88490301D01*
X124915000Y-88723690D01*
X115359642Y-88723690D01*
X115332370Y-88696371D01*
X115124488Y-88610051D01*
X115330303Y-88525010D01*
X115723629Y-88132370D01*
X115936757Y-87619100D01*
X115937242Y-87063339D01*
X115725010Y-86549697D01*
X115332370Y-86156371D01*
X115124488Y-86070051D01*
X115330303Y-85985010D01*
X115379649Y-85935750D01*
X124815000Y-85935750D01*
X124815000Y-86776309D01*
X124911673Y-87009698D01*
X125090301Y-87188327D01*
X125323690Y-87285000D01*
X125914250Y-87285000D01*
X126073000Y-87126250D01*
X126073000Y-85777000D01*
X124973750Y-85777000D01*
X124815000Y-85935750D01*
X115379649Y-85935750D01*
X115723629Y-85592370D01*
X115936757Y-85079100D01*
X115937241Y-84523691D01*
X124815000Y-84523691D01*
X124815000Y-85364250D01*
X124973750Y-85523000D01*
X126073000Y-85523000D01*
X126073000Y-84173750D01*
X125914250Y-84015000D01*
X125323690Y-84015000D01*
X125090301Y-84111673D01*
X124911673Y-84290302D01*
X124815000Y-84523691D01*
X115937241Y-84523691D01*
X115937242Y-84523339D01*
X115725010Y-84009697D01*
X115332370Y-83616371D01*
X115138213Y-83535750D01*
X133915000Y-83535750D01*
X133915000Y-83826310D01*
X134011673Y-84059699D01*
X134190302Y-84238327D01*
X134423691Y-84335000D01*
X134864250Y-84335000D01*
X135023000Y-84176250D01*
X135023000Y-83377000D01*
X134073750Y-83377000D01*
X133915000Y-83535750D01*
X115138213Y-83535750D01*
X115124488Y-83530051D01*
X115330303Y-83445010D01*
X115723629Y-83052370D01*
X115880870Y-82673690D01*
X133915000Y-82673690D01*
X133915000Y-82964250D01*
X134073750Y-83123000D01*
X135023000Y-83123000D01*
X135023000Y-82323750D01*
X134864250Y-82165000D01*
X134423691Y-82165000D01*
X134190302Y-82261673D01*
X134011673Y-82440301D01*
X133915000Y-82673690D01*
X115880870Y-82673690D01*
X115936757Y-82539100D01*
X115937242Y-81983339D01*
X115725010Y-81469697D01*
X115332370Y-81076371D01*
X115234544Y-81035750D01*
X133915000Y-81035750D01*
X133915000Y-81326310D01*
X134011673Y-81559699D01*
X134190302Y-81738327D01*
X134423691Y-81835000D01*
X134864250Y-81835000D01*
X135023000Y-81676250D01*
X135023000Y-80877000D01*
X134073750Y-80877000D01*
X133915000Y-81035750D01*
X115234544Y-81035750D01*
X115124488Y-80990051D01*
X115330303Y-80905010D01*
X115723629Y-80512370D01*
X115936757Y-79999100D01*
X115937242Y-79443339D01*
X115725010Y-78929697D01*
X115332370Y-78536371D01*
X115124488Y-78450051D01*
X115330303Y-78365010D01*
X115345339Y-78350000D01*
X125952560Y-78350000D01*
X125952560Y-80350000D01*
X126001843Y-80597765D01*
X126142191Y-80807809D01*
X126352235Y-80948157D01*
X126600000Y-80997440D01*
X130400000Y-80997440D01*
X130647765Y-80948157D01*
X130857809Y-80807809D01*
X130998157Y-80597765D01*
X131047440Y-80350000D01*
X131047440Y-80173690D01*
X133915000Y-80173690D01*
X133915000Y-80464250D01*
X134073750Y-80623000D01*
X135023000Y-80623000D01*
X135023000Y-79823750D01*
X134864250Y-79665000D01*
X134423691Y-79665000D01*
X134190302Y-79761673D01*
X134011673Y-79940301D01*
X133915000Y-80173690D01*
X131047440Y-80173690D01*
X131047440Y-78535750D01*
X133915000Y-78535750D01*
X133915000Y-78826310D01*
X134011673Y-79059699D01*
X134190302Y-79238327D01*
X134423691Y-79335000D01*
X134864250Y-79335000D01*
X135023000Y-79176250D01*
X135023000Y-78377000D01*
X134073750Y-78377000D01*
X133915000Y-78535750D01*
X131047440Y-78535750D01*
X131047440Y-78350000D01*
X130998157Y-78102235D01*
X130857809Y-77892191D01*
X130647765Y-77751843D01*
X130400000Y-77702560D01*
X126600000Y-77702560D01*
X126352235Y-77751843D01*
X126142191Y-77892191D01*
X126001843Y-78102235D01*
X125952560Y-78350000D01*
X115345339Y-78350000D01*
X115723629Y-77972370D01*
X115847651Y-77673690D01*
X133915000Y-77673690D01*
X133915000Y-77964250D01*
X134073750Y-78123000D01*
X135023000Y-78123000D01*
X135023000Y-77323750D01*
X134864250Y-77165000D01*
X134423691Y-77165000D01*
X134190302Y-77261673D01*
X134011673Y-77440301D01*
X133915000Y-77673690D01*
X115847651Y-77673690D01*
X115936757Y-77459100D01*
X115937242Y-76903339D01*
X115725010Y-76389697D01*
X115371681Y-76035750D01*
X133915000Y-76035750D01*
X133915000Y-76326310D01*
X134011673Y-76559699D01*
X134190302Y-76738327D01*
X134423691Y-76835000D01*
X134864250Y-76835000D01*
X135023000Y-76676250D01*
X135023000Y-75877000D01*
X134073750Y-75877000D01*
X133915000Y-76035750D01*
X115371681Y-76035750D01*
X115332370Y-75996371D01*
X115124488Y-75910051D01*
X115330303Y-75825010D01*
X115723629Y-75432370D01*
X115831042Y-75173690D01*
X133915000Y-75173690D01*
X133915000Y-75464250D01*
X134073750Y-75623000D01*
X135023000Y-75623000D01*
X135023000Y-74823750D01*
X134864250Y-74665000D01*
X134423691Y-74665000D01*
X134190302Y-74761673D01*
X134011673Y-74940301D01*
X133915000Y-75173690D01*
X115831042Y-75173690D01*
X115936757Y-74919100D01*
X115937242Y-74363339D01*
X115725010Y-73849697D01*
X115411611Y-73535750D01*
X133915000Y-73535750D01*
X133915000Y-73826310D01*
X134011673Y-74059699D01*
X134190302Y-74238327D01*
X134423691Y-74335000D01*
X134864250Y-74335000D01*
X135023000Y-74176250D01*
X135023000Y-73377000D01*
X134073750Y-73377000D01*
X133915000Y-73535750D01*
X115411611Y-73535750D01*
X115332370Y-73456371D01*
X115124488Y-73370051D01*
X115330303Y-73285010D01*
X115723629Y-72892370D01*
X115814432Y-72673690D01*
X133915000Y-72673690D01*
X133915000Y-72964250D01*
X134073750Y-73123000D01*
X135023000Y-73123000D01*
X135023000Y-72323750D01*
X134864250Y-72165000D01*
X134423691Y-72165000D01*
X134190302Y-72261673D01*
X134011673Y-72440301D01*
X133915000Y-72673690D01*
X115814432Y-72673690D01*
X115936757Y-72379100D01*
X115937242Y-71823339D01*
X115725010Y-71309697D01*
X115332370Y-70916371D01*
X115124488Y-70830051D01*
X115231704Y-70785750D01*
X133915000Y-70785750D01*
X133915000Y-71076310D01*
X134011673Y-71309699D01*
X134190302Y-71488327D01*
X134423691Y-71585000D01*
X134864250Y-71585000D01*
X135023000Y-71426250D01*
X135023000Y-70627000D01*
X134073750Y-70627000D01*
X133915000Y-70785750D01*
X115231704Y-70785750D01*
X115330303Y-70745010D01*
X115723629Y-70352370D01*
X115901632Y-69923690D01*
X133915000Y-69923690D01*
X133915000Y-70214250D01*
X134073750Y-70373000D01*
X135023000Y-70373000D01*
X135023000Y-69573750D01*
X134864250Y-69415000D01*
X134423691Y-69415000D01*
X134190302Y-69511673D01*
X134011673Y-69690301D01*
X133915000Y-69923690D01*
X115901632Y-69923690D01*
X115936757Y-69839100D01*
X115937242Y-69283339D01*
X115725010Y-68769697D01*
X115332370Y-68376371D01*
X115124488Y-68290051D01*
X115134897Y-68285750D01*
X133915000Y-68285750D01*
X133915000Y-68576310D01*
X134011673Y-68809699D01*
X134190302Y-68988327D01*
X134423691Y-69085000D01*
X134864250Y-69085000D01*
X135023000Y-68926250D01*
X135023000Y-68127000D01*
X134073750Y-68127000D01*
X133915000Y-68285750D01*
X115134897Y-68285750D01*
X115330303Y-68205010D01*
X115723629Y-67812370D01*
X115885022Y-67423690D01*
X133915000Y-67423690D01*
X133915000Y-67714250D01*
X134073750Y-67873000D01*
X135023000Y-67873000D01*
X135023000Y-67073750D01*
X134864250Y-66915000D01*
X134423691Y-66915000D01*
X134190302Y-67011673D01*
X134011673Y-67190301D01*
X133915000Y-67423690D01*
X115885022Y-67423690D01*
X115936757Y-67299100D01*
X115937242Y-66743339D01*
X115725010Y-66229697D01*
X115332370Y-65836371D01*
X115210461Y-65785750D01*
X133915000Y-65785750D01*
X133915000Y-66076310D01*
X134011673Y-66309699D01*
X134190302Y-66488327D01*
X134423691Y-66585000D01*
X134864250Y-66585000D01*
X135023000Y-66426250D01*
X135023000Y-65627000D01*
X134073750Y-65627000D01*
X133915000Y-65785750D01*
X115210461Y-65785750D01*
X115124488Y-65750051D01*
X115330303Y-65665010D01*
X115723629Y-65272370D01*
X115868413Y-64923690D01*
X133915000Y-64923690D01*
X133915000Y-65214250D01*
X134073750Y-65373000D01*
X135023000Y-65373000D01*
X135023000Y-64573750D01*
X134864250Y-64415000D01*
X134423691Y-64415000D01*
X134190302Y-64511673D01*
X134011673Y-64690301D01*
X133915000Y-64923690D01*
X115868413Y-64923690D01*
X115936757Y-64759100D01*
X115937242Y-64203339D01*
X115725010Y-63689697D01*
X115332370Y-63296371D01*
X115306792Y-63285750D01*
X133915000Y-63285750D01*
X133915000Y-63576310D01*
X134011673Y-63809699D01*
X134190302Y-63988327D01*
X134423691Y-64085000D01*
X134864250Y-64085000D01*
X135023000Y-63926250D01*
X135023000Y-63127000D01*
X134073750Y-63127000D01*
X133915000Y-63285750D01*
X115306792Y-63285750D01*
X115140273Y-63216605D01*
X115271143Y-63162397D01*
X115340608Y-62920213D01*
X114540000Y-62119605D01*
X114525858Y-62133748D01*
X114346253Y-61954143D01*
X114360395Y-61940000D01*
X114719605Y-61940000D01*
X115520213Y-62740608D01*
X115762397Y-62671143D01*
X115850679Y-62423690D01*
X133915000Y-62423690D01*
X133915000Y-62714250D01*
X134073750Y-62873000D01*
X135023000Y-62873000D01*
X135023000Y-62073750D01*
X135277000Y-62073750D01*
X135277000Y-62873000D01*
X135297000Y-62873000D01*
X135297000Y-63127000D01*
X135277000Y-63127000D01*
X135277000Y-63926250D01*
X135435750Y-64085000D01*
X135876309Y-64085000D01*
X136109698Y-63988327D01*
X136251346Y-63846680D01*
X136292191Y-63907809D01*
X136502235Y-64048157D01*
X136750000Y-64097440D01*
X137950000Y-64097440D01*
X138197765Y-64048157D01*
X138407809Y-63907809D01*
X138489868Y-63785000D01*
X138963422Y-63785000D01*
X138979534Y-63823995D01*
X139315132Y-64160179D01*
X138981166Y-64493563D01*
X138889217Y-64715000D01*
X138489868Y-64715000D01*
X138407809Y-64592191D01*
X138197765Y-64451843D01*
X137950000Y-64402560D01*
X136750000Y-64402560D01*
X136502235Y-64451843D01*
X136292191Y-64592191D01*
X136251346Y-64653320D01*
X136109698Y-64511673D01*
X135876309Y-64415000D01*
X135435750Y-64415000D01*
X135277000Y-64573750D01*
X135277000Y-65373000D01*
X135297000Y-65373000D01*
X135297000Y-65627000D01*
X135277000Y-65627000D01*
X135277000Y-66426250D01*
X135435750Y-66585000D01*
X135876309Y-66585000D01*
X136109698Y-66488327D01*
X136251346Y-66346680D01*
X136292191Y-66407809D01*
X136502235Y-66548157D01*
X136750000Y-66597440D01*
X137950000Y-66597440D01*
X138197765Y-66548157D01*
X138407809Y-66407809D01*
X138489868Y-66285000D01*
X138946894Y-66285000D01*
X138979534Y-66363995D01*
X139315132Y-66700179D01*
X138981166Y-67033563D01*
X138905827Y-67215000D01*
X138489868Y-67215000D01*
X138407809Y-67092191D01*
X138197765Y-66951843D01*
X137950000Y-66902560D01*
X136750000Y-66902560D01*
X136502235Y-66951843D01*
X136292191Y-67092191D01*
X136251346Y-67153320D01*
X136109698Y-67011673D01*
X135876309Y-66915000D01*
X135435750Y-66915000D01*
X135277000Y-67073750D01*
X135277000Y-67873000D01*
X135297000Y-67873000D01*
X135297000Y-68127000D01*
X135277000Y-68127000D01*
X135277000Y-68926250D01*
X135435750Y-69085000D01*
X135876309Y-69085000D01*
X136109698Y-68988327D01*
X136251346Y-68846680D01*
X136292191Y-68907809D01*
X136502235Y-69048157D01*
X136750000Y-69097440D01*
X137950000Y-69097440D01*
X138197765Y-69048157D01*
X138407809Y-68907809D01*
X138489868Y-68785000D01*
X138930366Y-68785000D01*
X138979534Y-68903995D01*
X139315132Y-69240179D01*
X138981166Y-69573563D01*
X138922436Y-69715000D01*
X138489868Y-69715000D01*
X138407809Y-69592191D01*
X138197765Y-69451843D01*
X137950000Y-69402560D01*
X136750000Y-69402560D01*
X136502235Y-69451843D01*
X136292191Y-69592191D01*
X136251346Y-69653320D01*
X136109698Y-69511673D01*
X135876309Y-69415000D01*
X135435750Y-69415000D01*
X135277000Y-69573750D01*
X135277000Y-70373000D01*
X135297000Y-70373000D01*
X135297000Y-70627000D01*
X135277000Y-70627000D01*
X135277000Y-71426250D01*
X135435750Y-71585000D01*
X135876309Y-71585000D01*
X136109698Y-71488327D01*
X136251346Y-71346680D01*
X136292191Y-71407809D01*
X136502235Y-71548157D01*
X136750000Y-71597440D01*
X137950000Y-71597440D01*
X138197765Y-71548157D01*
X138407809Y-71407809D01*
X138489868Y-71285000D01*
X138913839Y-71285000D01*
X138979534Y-71443995D01*
X139315132Y-71780179D01*
X138981166Y-72113563D01*
X138835237Y-72465000D01*
X138489868Y-72465000D01*
X138407809Y-72342191D01*
X138197765Y-72201843D01*
X137950000Y-72152560D01*
X136750000Y-72152560D01*
X136502235Y-72201843D01*
X136292191Y-72342191D01*
X136251346Y-72403320D01*
X136109698Y-72261673D01*
X135876309Y-72165000D01*
X135435750Y-72165000D01*
X135277000Y-72323750D01*
X135277000Y-73123000D01*
X135297000Y-73123000D01*
X135297000Y-73377000D01*
X135277000Y-73377000D01*
X135277000Y-74176250D01*
X135435750Y-74335000D01*
X135876309Y-74335000D01*
X136109698Y-74238327D01*
X136251346Y-74096680D01*
X136292191Y-74157809D01*
X136502235Y-74298157D01*
X136750000Y-74347440D01*
X137950000Y-74347440D01*
X138197765Y-74298157D01*
X138407809Y-74157809D01*
X138489868Y-74035000D01*
X139030450Y-74035000D01*
X139315132Y-74320179D01*
X138981166Y-74653563D01*
X138851846Y-74965000D01*
X138489868Y-74965000D01*
X138407809Y-74842191D01*
X138197765Y-74701843D01*
X137950000Y-74652560D01*
X136750000Y-74652560D01*
X136502235Y-74701843D01*
X136292191Y-74842191D01*
X136251346Y-74903320D01*
X136109698Y-74761673D01*
X135876309Y-74665000D01*
X135435750Y-74665000D01*
X135277000Y-74823750D01*
X135277000Y-75623000D01*
X135297000Y-75623000D01*
X135297000Y-75877000D01*
X135277000Y-75877000D01*
X135277000Y-76676250D01*
X135435750Y-76835000D01*
X135876309Y-76835000D01*
X136109698Y-76738327D01*
X136251346Y-76596680D01*
X136292191Y-76657809D01*
X136502235Y-76798157D01*
X136750000Y-76847440D01*
X137950000Y-76847440D01*
X138197765Y-76798157D01*
X138407809Y-76657809D01*
X138489868Y-76535000D01*
X138990520Y-76535000D01*
X139315132Y-76860179D01*
X138981166Y-77193563D01*
X138868456Y-77465000D01*
X138489868Y-77465000D01*
X138407809Y-77342191D01*
X138197765Y-77201843D01*
X137950000Y-77152560D01*
X136750000Y-77152560D01*
X136502235Y-77201843D01*
X136292191Y-77342191D01*
X136251346Y-77403320D01*
X136109698Y-77261673D01*
X135876309Y-77165000D01*
X135435750Y-77165000D01*
X135277000Y-77323750D01*
X135277000Y-78123000D01*
X135297000Y-78123000D01*
X135297000Y-78377000D01*
X135277000Y-78377000D01*
X135277000Y-79176250D01*
X135435750Y-79335000D01*
X135876309Y-79335000D01*
X136109698Y-79238327D01*
X136251346Y-79096680D01*
X136292191Y-79157809D01*
X136502235Y-79298157D01*
X136750000Y-79347440D01*
X137950000Y-79347440D01*
X138197765Y-79298157D01*
X138407809Y-79157809D01*
X138489868Y-79035000D01*
X138967554Y-79035000D01*
X138979534Y-79063995D01*
X139315132Y-79400179D01*
X138981166Y-79733563D01*
X138885065Y-79965000D01*
X138489868Y-79965000D01*
X138407809Y-79842191D01*
X138197765Y-79701843D01*
X137950000Y-79652560D01*
X136750000Y-79652560D01*
X136502235Y-79701843D01*
X136292191Y-79842191D01*
X136251346Y-79903320D01*
X136109698Y-79761673D01*
X135876309Y-79665000D01*
X135435750Y-79665000D01*
X135277000Y-79823750D01*
X135277000Y-80623000D01*
X135297000Y-80623000D01*
X135297000Y-80877000D01*
X135277000Y-80877000D01*
X135277000Y-81676250D01*
X135435750Y-81835000D01*
X135876309Y-81835000D01*
X136109698Y-81738327D01*
X136251346Y-81596680D01*
X136292191Y-81657809D01*
X136502235Y-81798157D01*
X136750000Y-81847440D01*
X137950000Y-81847440D01*
X138197765Y-81798157D01*
X138407809Y-81657809D01*
X138489868Y-81535000D01*
X138951026Y-81535000D01*
X138979534Y-81603995D01*
X139315132Y-81940179D01*
X138981166Y-82273563D01*
X138901674Y-82465000D01*
X138489868Y-82465000D01*
X138407809Y-82342191D01*
X138197765Y-82201843D01*
X137950000Y-82152560D01*
X136750000Y-82152560D01*
X136502235Y-82201843D01*
X136292191Y-82342191D01*
X136251346Y-82403320D01*
X136109698Y-82261673D01*
X135876309Y-82165000D01*
X135435750Y-82165000D01*
X135277000Y-82323750D01*
X135277000Y-83123000D01*
X135297000Y-83123000D01*
X135297000Y-83377000D01*
X135277000Y-83377000D01*
X135277000Y-84176250D01*
X135435750Y-84335000D01*
X135876309Y-84335000D01*
X136109698Y-84238327D01*
X136251346Y-84096680D01*
X136292191Y-84157809D01*
X136502235Y-84298157D01*
X136750000Y-84347440D01*
X137950000Y-84347440D01*
X138197765Y-84298157D01*
X138407809Y-84157809D01*
X138489868Y-84035000D01*
X138934498Y-84035000D01*
X138979534Y-84143995D01*
X139315132Y-84480179D01*
X138981166Y-84813563D01*
X138918284Y-84965000D01*
X138217456Y-84965000D01*
X138197765Y-84951843D01*
X137950000Y-84902560D01*
X136750000Y-84902560D01*
X136502235Y-84951843D01*
X136292191Y-85092191D01*
X136251346Y-85153320D01*
X136109698Y-85011673D01*
X135876309Y-84915000D01*
X135435750Y-84915000D01*
X135277000Y-85073750D01*
X135277000Y-85873000D01*
X135297000Y-85873000D01*
X135297000Y-86127000D01*
X135277000Y-86127000D01*
X135277000Y-86926250D01*
X135435750Y-87085000D01*
X135876309Y-87085000D01*
X136109698Y-86988327D01*
X136251346Y-86846680D01*
X136292191Y-86907809D01*
X136502235Y-87048157D01*
X136750000Y-87097440D01*
X137950000Y-87097440D01*
X138197765Y-87048157D01*
X138407809Y-86907809D01*
X138548157Y-86697765D01*
X138580533Y-86535000D01*
X138917971Y-86535000D01*
X138979534Y-86683995D01*
X139443563Y-87148834D01*
X140050155Y-87400713D01*
X140706963Y-87401286D01*
X141313995Y-87150466D01*
X141778834Y-86686437D01*
X142030713Y-86079845D01*
X142031286Y-85423037D01*
X141780466Y-84816005D01*
X141444868Y-84479821D01*
X141778834Y-84146437D01*
X142030713Y-83539845D01*
X142031286Y-82883037D01*
X141780466Y-82276005D01*
X141444868Y-81939821D01*
X141778834Y-81606437D01*
X142030713Y-80999845D01*
X142031286Y-80343037D01*
X141780466Y-79736005D01*
X141444868Y-79399821D01*
X141778834Y-79066437D01*
X142030713Y-78459845D01*
X142031286Y-77803037D01*
X141780466Y-77196005D01*
X141444868Y-76859821D01*
X141778834Y-76526437D01*
X142030713Y-75919845D01*
X142031286Y-75263037D01*
X141780466Y-74656005D01*
X141444868Y-74319821D01*
X141778834Y-73986437D01*
X142030713Y-73379845D01*
X142031286Y-72723037D01*
X141780466Y-72116005D01*
X141444868Y-71779821D01*
X141778834Y-71446437D01*
X142030713Y-70839845D01*
X142031286Y-70183037D01*
X141780466Y-69576005D01*
X141444868Y-69239821D01*
X141778834Y-68906437D01*
X142030713Y-68299845D01*
X142031286Y-67643037D01*
X141780466Y-67036005D01*
X141444868Y-66699821D01*
X141778834Y-66366437D01*
X142030713Y-65759845D01*
X142031286Y-65103037D01*
X141780466Y-64496005D01*
X141444868Y-64159821D01*
X141778834Y-63826437D01*
X142030713Y-63219845D01*
X142031286Y-62563037D01*
X141780466Y-61956005D01*
X141316437Y-61491166D01*
X140709845Y-61239287D01*
X140053037Y-61238714D01*
X139446005Y-61489534D01*
X138981166Y-61953563D01*
X138872608Y-62215000D01*
X138489868Y-62215000D01*
X138407809Y-62092191D01*
X138197765Y-61951843D01*
X137950000Y-61902560D01*
X136750000Y-61902560D01*
X136502235Y-61951843D01*
X136292191Y-62092191D01*
X136251346Y-62153320D01*
X136109698Y-62011673D01*
X135876309Y-61915000D01*
X135435750Y-61915000D01*
X135277000Y-62073750D01*
X135023000Y-62073750D01*
X134864250Y-61915000D01*
X134423691Y-61915000D01*
X134190302Y-62011673D01*
X134011673Y-62190301D01*
X133915000Y-62423690D01*
X115850679Y-62423690D01*
X115949144Y-62147698D01*
X115921362Y-61592632D01*
X115762397Y-61208857D01*
X115520213Y-61139392D01*
X114719605Y-61940000D01*
X114360395Y-61940000D01*
X114346253Y-61925858D01*
X114525858Y-61746253D01*
X114540000Y-61760395D01*
X115340608Y-60959787D01*
X115271143Y-60717603D01*
X115130682Y-60667491D01*
X115330303Y-60585010D01*
X115723629Y-60192370D01*
X115936757Y-59679100D01*
X115937242Y-59123339D01*
X115725010Y-58609697D01*
X115332370Y-58216371D01*
X114819100Y-58003243D01*
X114263339Y-58002758D01*
X113749697Y-58214990D01*
X113710000Y-58254618D01*
X113710000Y-54857904D01*
X113764853Y-54990658D01*
X114505443Y-55732542D01*
X115473567Y-56134542D01*
X116521834Y-56135457D01*
X117490658Y-55735147D01*
X118232542Y-54994557D01*
X118634542Y-54026433D01*
X118635457Y-52978166D01*
X118484286Y-52612302D01*
X148150856Y-52612302D01*
X148178638Y-53167368D01*
X148337603Y-53551143D01*
X148579787Y-53620608D01*
X149380395Y-52820000D01*
X149739605Y-52820000D01*
X150540213Y-53620608D01*
X150782397Y-53551143D01*
X150969144Y-53027698D01*
X150941362Y-52472632D01*
X150782397Y-52088857D01*
X150540213Y-52019392D01*
X149739605Y-52820000D01*
X149380395Y-52820000D01*
X148579787Y-52019392D01*
X148337603Y-52088857D01*
X148150856Y-52612302D01*
X118484286Y-52612302D01*
X118235147Y-52009342D01*
X118065888Y-51839787D01*
X148759392Y-51839787D01*
X149560000Y-52640395D01*
X150360608Y-51839787D01*
X150291143Y-51597603D01*
X149767698Y-51410856D01*
X149212632Y-51438638D01*
X148828857Y-51597603D01*
X148759392Y-51839787D01*
X118065888Y-51839787D01*
X117494557Y-51267458D01*
X117356183Y-51210000D01*
X154642096Y-51210000D01*
X154509342Y-51264853D01*
G36*
X148624921Y-59955079D02*
X148879594Y-60125245D01*
X149180000Y-60185001D01*
X149180005Y-60185000D01*
X153992799Y-60185000D01*
X153994990Y-60190303D01*
X154387630Y-60583629D01*
X154595512Y-60669949D01*
X154389697Y-60754990D01*
X153996371Y-61147630D01*
X153993311Y-61155000D01*
X148950000Y-61155000D01*
X148649594Y-61214755D01*
X148504401Y-61311769D01*
X148329845Y-61239287D01*
X147673037Y-61238714D01*
X147066005Y-61489534D01*
X146601166Y-61953563D01*
X146349287Y-62560155D01*
X146348714Y-63216963D01*
X146599534Y-63823995D01*
X146935132Y-64160179D01*
X146601166Y-64493563D01*
X146349287Y-65100155D01*
X146348714Y-65756963D01*
X146599534Y-66363995D01*
X146935132Y-66700179D01*
X146601166Y-67033563D01*
X146349287Y-67640155D01*
X146348714Y-68296963D01*
X146599534Y-68903995D01*
X146935132Y-69240179D01*
X146601166Y-69573563D01*
X146349287Y-70180155D01*
X146348714Y-70836963D01*
X146599534Y-71443995D01*
X146935132Y-71780179D01*
X146601166Y-72113563D01*
X146349287Y-72720155D01*
X146348714Y-73376963D01*
X146599534Y-73983995D01*
X146935132Y-74320179D01*
X146601166Y-74653563D01*
X146349287Y-75260155D01*
X146348714Y-75916963D01*
X146599534Y-76523995D01*
X146935132Y-76860179D01*
X146601166Y-77193563D01*
X146349287Y-77800155D01*
X146348714Y-78456963D01*
X146599534Y-79063995D01*
X146935132Y-79400179D01*
X146601166Y-79733563D01*
X146349287Y-80340155D01*
X146348714Y-80996963D01*
X146599534Y-81603995D01*
X146935132Y-81940179D01*
X146601166Y-82273563D01*
X146349287Y-82880155D01*
X146348714Y-83536963D01*
X146599534Y-84143995D01*
X146649350Y-84193898D01*
X146526191Y-84276191D01*
X146385843Y-84486235D01*
X146336560Y-84734000D01*
X146336560Y-86766000D01*
X146385843Y-87013765D01*
X146526191Y-87223809D01*
X146736235Y-87364157D01*
X146984000Y-87413440D01*
X149016000Y-87413440D01*
X149263765Y-87364157D01*
X149473809Y-87223809D01*
X149614157Y-87013765D01*
X149663440Y-86766000D01*
X149663440Y-86443819D01*
X149871079Y-86305079D01*
X149971080Y-86205078D01*
X150141246Y-85950405D01*
X150201001Y-85649999D01*
X150201001Y-84592302D01*
X153770856Y-84592302D01*
X153798638Y-85147368D01*
X153957603Y-85531143D01*
X154199787Y-85600608D01*
X155000395Y-84800000D01*
X154199787Y-83999392D01*
X153957603Y-84068857D01*
X153770856Y-84592302D01*
X150201001Y-84592302D01*
X150201001Y-83269157D01*
X153783028Y-79687130D01*
X153782758Y-79996661D01*
X153994990Y-80510303D01*
X154387630Y-80903629D01*
X154595512Y-80989949D01*
X154389697Y-81074990D01*
X153996371Y-81467630D01*
X153783243Y-81980900D01*
X153782758Y-82536661D01*
X153994990Y-83050303D01*
X154387630Y-83443629D01*
X154579727Y-83523395D01*
X154448857Y-83577603D01*
X154379392Y-83819787D01*
X155180000Y-84620395D01*
X155980608Y-83819787D01*
X155911143Y-83577603D01*
X155770682Y-83527491D01*
X155970303Y-83445010D01*
X156363629Y-83052370D01*
X156449949Y-82844488D01*
X156534990Y-83050303D01*
X156927630Y-83443629D01*
X157135512Y-83529949D01*
X156929697Y-83614990D01*
X156536371Y-84007630D01*
X156456605Y-84199727D01*
X156402397Y-84068857D01*
X156160213Y-83999392D01*
X155359605Y-84800000D01*
X156160213Y-85600608D01*
X156402397Y-85531143D01*
X156452509Y-85390682D01*
X156534990Y-85590303D01*
X156927630Y-85983629D01*
X157135512Y-86069949D01*
X156929697Y-86154990D01*
X156536371Y-86547630D01*
X156450051Y-86755512D01*
X156365010Y-86549697D01*
X155972370Y-86156371D01*
X155780273Y-86076605D01*
X155911143Y-86022397D01*
X155980608Y-85780213D01*
X155180000Y-84979605D01*
X154379392Y-85780213D01*
X154448857Y-86022397D01*
X154589318Y-86072509D01*
X154389697Y-86154990D01*
X153996371Y-86547630D01*
X153783243Y-87060900D01*
X153782758Y-87616661D01*
X153994990Y-88130303D01*
X154145000Y-88280575D01*
X154145000Y-88939260D01*
X153996371Y-89087630D01*
X153783243Y-89600900D01*
X153782758Y-90156661D01*
X153994990Y-90670303D01*
X154387630Y-91063629D01*
X154900900Y-91276757D01*
X155456661Y-91277242D01*
X155970303Y-91065010D01*
X156363629Y-90672370D01*
X156449949Y-90464488D01*
X156534990Y-90670303D01*
X156927630Y-91063629D01*
X157440900Y-91276757D01*
X157996661Y-91277242D01*
X158290000Y-91156037D01*
X158290000Y-94142096D01*
X158235147Y-94009342D01*
X157494557Y-93267458D01*
X156526433Y-92865458D01*
X155478166Y-92864543D01*
X154509342Y-93264853D01*
X153767458Y-94005443D01*
X153365458Y-94973567D01*
X153364543Y-96021834D01*
X153764853Y-96990658D01*
X154505443Y-97732542D01*
X154643817Y-97790000D01*
X133976229Y-97790000D01*
X134069541Y-97771439D01*
X134340434Y-97590434D01*
X143890435Y-88040434D01*
X144071440Y-87769540D01*
X144135000Y-87450000D01*
X144135000Y-60475696D01*
X144147765Y-60473157D01*
X144239102Y-60412127D01*
X144240302Y-60413327D01*
X144473691Y-60510000D01*
X144914250Y-60510000D01*
X145073000Y-60351250D01*
X145073000Y-59627000D01*
X145327000Y-59627000D01*
X145327000Y-60351250D01*
X145485750Y-60510000D01*
X145926309Y-60510000D01*
X146159698Y-60413327D01*
X146338327Y-60234699D01*
X146435000Y-60001310D01*
X146435000Y-59785750D01*
X146276250Y-59627000D01*
X145327000Y-59627000D01*
X145073000Y-59627000D01*
X145053000Y-59627000D01*
X145053000Y-59373000D01*
X145073000Y-59373000D01*
X145073000Y-58648750D01*
X145327000Y-58648750D01*
X145327000Y-59373000D01*
X146276250Y-59373000D01*
X146435000Y-59214250D01*
X146435000Y-58998690D01*
X146338327Y-58765301D01*
X146159698Y-58586673D01*
X145926309Y-58490000D01*
X145485750Y-58490000D01*
X145327000Y-58648750D01*
X145073000Y-58648750D01*
X144914250Y-58490000D01*
X144473691Y-58490000D01*
X144240302Y-58586673D01*
X144239102Y-58587873D01*
X144151518Y-58529350D01*
X144840434Y-57840434D01*
X144854157Y-57819897D01*
X144992346Y-57792409D01*
X145344345Y-57557211D01*
X145579543Y-57205212D01*
X145628572Y-56958730D01*
X148624921Y-59955079D01*
X148624921Y-59955079D01*
G37*
X148624921Y-59955079D02*
X148879594Y-60125245D01*
X149180000Y-60185001D01*
X149180005Y-60185000D01*
X153992799Y-60185000D01*
X153994990Y-60190303D01*
X154387630Y-60583629D01*
X154595512Y-60669949D01*
X154389697Y-60754990D01*
X153996371Y-61147630D01*
X153993311Y-61155000D01*
X148950000Y-61155000D01*
X148649594Y-61214755D01*
X148504401Y-61311769D01*
X148329845Y-61239287D01*
X147673037Y-61238714D01*
X147066005Y-61489534D01*
X146601166Y-61953563D01*
X146349287Y-62560155D01*
X146348714Y-63216963D01*
X146599534Y-63823995D01*
X146935132Y-64160179D01*
X146601166Y-64493563D01*
X146349287Y-65100155D01*
X146348714Y-65756963D01*
X146599534Y-66363995D01*
X146935132Y-66700179D01*
X146601166Y-67033563D01*
X146349287Y-67640155D01*
X146348714Y-68296963D01*
X146599534Y-68903995D01*
X146935132Y-69240179D01*
X146601166Y-69573563D01*
X146349287Y-70180155D01*
X146348714Y-70836963D01*
X146599534Y-71443995D01*
X146935132Y-71780179D01*
X146601166Y-72113563D01*
X146349287Y-72720155D01*
X146348714Y-73376963D01*
X146599534Y-73983995D01*
X146935132Y-74320179D01*
X146601166Y-74653563D01*
X146349287Y-75260155D01*
X146348714Y-75916963D01*
X146599534Y-76523995D01*
X146935132Y-76860179D01*
X146601166Y-77193563D01*
X146349287Y-77800155D01*
X146348714Y-78456963D01*
X146599534Y-79063995D01*
X146935132Y-79400179D01*
X146601166Y-79733563D01*
X146349287Y-80340155D01*
X146348714Y-80996963D01*
X146599534Y-81603995D01*
X146935132Y-81940179D01*
X146601166Y-82273563D01*
X146349287Y-82880155D01*
X146348714Y-83536963D01*
X146599534Y-84143995D01*
X146649350Y-84193898D01*
X146526191Y-84276191D01*
X146385843Y-84486235D01*
X146336560Y-84734000D01*
X146336560Y-86766000D01*
X146385843Y-87013765D01*
X146526191Y-87223809D01*
X146736235Y-87364157D01*
X146984000Y-87413440D01*
X149016000Y-87413440D01*
X149263765Y-87364157D01*
X149473809Y-87223809D01*
X149614157Y-87013765D01*
X149663440Y-86766000D01*
X149663440Y-86443819D01*
X149871079Y-86305079D01*
X149971080Y-86205078D01*
X150141246Y-85950405D01*
X150201001Y-85649999D01*
X150201001Y-84592302D01*
X153770856Y-84592302D01*
X153798638Y-85147368D01*
X153957603Y-85531143D01*
X154199787Y-85600608D01*
X155000395Y-84800000D01*
X154199787Y-83999392D01*
X153957603Y-84068857D01*
X153770856Y-84592302D01*
X150201001Y-84592302D01*
X150201001Y-83269157D01*
X153783028Y-79687130D01*
X153782758Y-79996661D01*
X153994990Y-80510303D01*
X154387630Y-80903629D01*
X154595512Y-80989949D01*
X154389697Y-81074990D01*
X153996371Y-81467630D01*
X153783243Y-81980900D01*
X153782758Y-82536661D01*
X153994990Y-83050303D01*
X154387630Y-83443629D01*
X154579727Y-83523395D01*
X154448857Y-83577603D01*
X154379392Y-83819787D01*
X155180000Y-84620395D01*
X155980608Y-83819787D01*
X155911143Y-83577603D01*
X155770682Y-83527491D01*
X155970303Y-83445010D01*
X156363629Y-83052370D01*
X156449949Y-82844488D01*
X156534990Y-83050303D01*
X156927630Y-83443629D01*
X157135512Y-83529949D01*
X156929697Y-83614990D01*
X156536371Y-84007630D01*
X156456605Y-84199727D01*
X156402397Y-84068857D01*
X156160213Y-83999392D01*
X155359605Y-84800000D01*
X156160213Y-85600608D01*
X156402397Y-85531143D01*
X156452509Y-85390682D01*
X156534990Y-85590303D01*
X156927630Y-85983629D01*
X157135512Y-86069949D01*
X156929697Y-86154990D01*
X156536371Y-86547630D01*
X156450051Y-86755512D01*
X156365010Y-86549697D01*
X155972370Y-86156371D01*
X155780273Y-86076605D01*
X155911143Y-86022397D01*
X155980608Y-85780213D01*
X155180000Y-84979605D01*
X154379392Y-85780213D01*
X154448857Y-86022397D01*
X154589318Y-86072509D01*
X154389697Y-86154990D01*
X153996371Y-86547630D01*
X153783243Y-87060900D01*
X153782758Y-87616661D01*
X153994990Y-88130303D01*
X154145000Y-88280575D01*
X154145000Y-88939260D01*
X153996371Y-89087630D01*
X153783243Y-89600900D01*
X153782758Y-90156661D01*
X153994990Y-90670303D01*
X154387630Y-91063629D01*
X154900900Y-91276757D01*
X155456661Y-91277242D01*
X155970303Y-91065010D01*
X156363629Y-90672370D01*
X156449949Y-90464488D01*
X156534990Y-90670303D01*
X156927630Y-91063629D01*
X157440900Y-91276757D01*
X157996661Y-91277242D01*
X158290000Y-91156037D01*
X158290000Y-94142096D01*
X158235147Y-94009342D01*
X157494557Y-93267458D01*
X156526433Y-92865458D01*
X155478166Y-92864543D01*
X154509342Y-93264853D01*
X153767458Y-94005443D01*
X153365458Y-94973567D01*
X153364543Y-96021834D01*
X153764853Y-96990658D01*
X154505443Y-97732542D01*
X154643817Y-97790000D01*
X133976229Y-97790000D01*
X134069541Y-97771439D01*
X134340434Y-97590434D01*
X143890435Y-88040434D01*
X144071440Y-87769540D01*
X144135000Y-87450000D01*
X144135000Y-60475696D01*
X144147765Y-60473157D01*
X144239102Y-60412127D01*
X144240302Y-60413327D01*
X144473691Y-60510000D01*
X144914250Y-60510000D01*
X145073000Y-60351250D01*
X145073000Y-59627000D01*
X145327000Y-59627000D01*
X145327000Y-60351250D01*
X145485750Y-60510000D01*
X145926309Y-60510000D01*
X146159698Y-60413327D01*
X146338327Y-60234699D01*
X146435000Y-60001310D01*
X146435000Y-59785750D01*
X146276250Y-59627000D01*
X145327000Y-59627000D01*
X145073000Y-59627000D01*
X145053000Y-59627000D01*
X145053000Y-59373000D01*
X145073000Y-59373000D01*
X145073000Y-58648750D01*
X145327000Y-58648750D01*
X145327000Y-59373000D01*
X146276250Y-59373000D01*
X146435000Y-59214250D01*
X146435000Y-58998690D01*
X146338327Y-58765301D01*
X146159698Y-58586673D01*
X145926309Y-58490000D01*
X145485750Y-58490000D01*
X145327000Y-58648750D01*
X145073000Y-58648750D01*
X144914250Y-58490000D01*
X144473691Y-58490000D01*
X144240302Y-58586673D01*
X144239102Y-58587873D01*
X144151518Y-58529350D01*
X144840434Y-57840434D01*
X144854157Y-57819897D01*
X144992346Y-57792409D01*
X145344345Y-57557211D01*
X145579543Y-57205212D01*
X145628572Y-56958730D01*
X148624921Y-59955079D01*
G36*
X155373748Y-74625858D02*
X155359605Y-74640000D01*
X155373748Y-74654143D01*
X155194143Y-74833748D01*
X155180000Y-74819605D01*
X155165858Y-74833748D01*
X154986253Y-74654143D01*
X155000395Y-74640000D01*
X154986253Y-74625858D01*
X155165858Y-74446253D01*
X155180000Y-74460395D01*
X155194143Y-74446253D01*
X155373748Y-74625858D01*
X155373748Y-74625858D01*
G37*
X155373748Y-74625858D02*
X155359605Y-74640000D01*
X155373748Y-74654143D01*
X155194143Y-74833748D01*
X155180000Y-74819605D01*
X155165858Y-74833748D01*
X154986253Y-74654143D01*
X155000395Y-74640000D01*
X154986253Y-74625858D01*
X155165858Y-74446253D01*
X155180000Y-74460395D01*
X155194143Y-74446253D01*
X155373748Y-74625858D01*
G36*
X155373748Y-67005858D02*
X155359605Y-67020000D01*
X155373748Y-67034143D01*
X155194143Y-67213748D01*
X155180000Y-67199605D01*
X155165858Y-67213748D01*
X154986253Y-67034143D01*
X155000395Y-67020000D01*
X154986253Y-67005858D01*
X155165858Y-66826253D01*
X155180000Y-66840395D01*
X155194143Y-66826253D01*
X155373748Y-67005858D01*
X155373748Y-67005858D01*
G37*
X155373748Y-67005858D02*
X155359605Y-67020000D01*
X155373748Y-67034143D01*
X155194143Y-67213748D01*
X155180000Y-67199605D01*
X155165858Y-67213748D01*
X154986253Y-67034143D01*
X155000395Y-67020000D01*
X154986253Y-67005858D01*
X155165858Y-66826253D01*
X155180000Y-66840395D01*
X155194143Y-66826253D01*
X155373748Y-67005858D01*
M02*
