G04 #@! TF.GenerationSoftware,KiCad,Pcbnew,no-vcs-found-e0b9a21~60~ubuntu15.04.1*
G04 #@! TF.CreationDate,2017-10-17T01:14:26+03:00*
G04 #@! TF.ProjectId,orange_pi_zero_node,6F72616E67655F70695F7A65726F5F6E,rev?*
G04 #@! TF.SameCoordinates,Original*
G04 #@! TF.FileFunction,Legend,Top*
G04 #@! TF.FilePolarity,Positive*
%FSLAX46Y46*%
G04 Gerber Fmt 4.6, Leading zero omitted, Abs format (unit mm)*
G04 Created by KiCad (PCBNEW no-vcs-found-e0b9a21~60~ubuntu15.04.1) date Tue Oct 17 01:14:26 2017*
%MOMM*%
%LPD*%
G01*
G04 APERTURE LIST*
%ADD10C,0.300000*%
%ADD11C,0.010000*%
%ADD12C,0.120000*%
%ADD13C,0.150000*%
%ADD14C,4.400000*%
%ADD15C,1.924000*%
%ADD16C,2.432000*%
%ADD17R,2.432000X2.432000*%
%ADD18R,2.550000X2.200000*%
%ADD19R,1.600000X1.300000*%
%ADD20R,1.900000X2.400000*%
%ADD21R,4.200000X2.400000*%
%ADD22O,2.100000X2.100000*%
%ADD23R,2.100000X2.100000*%
%ADD24R,1.600000X1.150000*%
%ADD25R,1.300000X1.600000*%
%ADD26R,1.900000X1.300000*%
%ADD27O,1.900000X1.300000*%
%ADD28C,2.200000*%
%ADD29R,2.200000X2.200000*%
G04 APERTURE END LIST*
D10*
X118071428Y-60785714D02*
X118785714Y-60285714D01*
X118071428Y-59928571D02*
X119571428Y-59928571D01*
X119571428Y-60500000D01*
X119500000Y-60642857D01*
X119428571Y-60714285D01*
X119285714Y-60785714D01*
X119071428Y-60785714D01*
X118928571Y-60714285D01*
X118857142Y-60642857D01*
X118785714Y-60500000D01*
X118785714Y-59928571D01*
X118142857Y-62000000D02*
X118071428Y-61857142D01*
X118071428Y-61571428D01*
X118142857Y-61428571D01*
X118285714Y-61357142D01*
X118857142Y-61357142D01*
X119000000Y-61428571D01*
X119071428Y-61571428D01*
X119071428Y-61857142D01*
X119000000Y-62000000D01*
X118857142Y-62071428D01*
X118714285Y-62071428D01*
X118571428Y-61357142D01*
X119071428Y-62571428D02*
X118071428Y-62928571D01*
X119071428Y-63285714D01*
X118214285Y-63857142D02*
X118142857Y-63928571D01*
X118071428Y-63857142D01*
X118142857Y-63785714D01*
X118214285Y-63857142D01*
X118071428Y-63857142D01*
X119571428Y-66000000D02*
X119571428Y-66142857D01*
X119500000Y-66285714D01*
X119428571Y-66357142D01*
X119285714Y-66428571D01*
X119000000Y-66500000D01*
X118642857Y-66500000D01*
X118357142Y-66428571D01*
X118214285Y-66357142D01*
X118142857Y-66285714D01*
X118071428Y-66142857D01*
X118071428Y-66000000D01*
X118142857Y-65857142D01*
X118214285Y-65785714D01*
X118357142Y-65714285D01*
X118642857Y-65642857D01*
X119000000Y-65642857D01*
X119285714Y-65714285D01*
X119428571Y-65785714D01*
X119500000Y-65857142D01*
X119571428Y-66000000D01*
X118214285Y-67142857D02*
X118142857Y-67214285D01*
X118071428Y-67142857D01*
X118142857Y-67071428D01*
X118214285Y-67142857D01*
X118071428Y-67142857D01*
X118071428Y-68642857D02*
X118071428Y-67785714D01*
X118071428Y-68214285D02*
X119571428Y-68214285D01*
X119357142Y-68071428D01*
X119214285Y-67928571D01*
X119142857Y-67785714D01*
D11*
G36*
X139628629Y-97019066D02*
X139668111Y-97019467D01*
X139783800Y-97022259D01*
X139880689Y-97030550D01*
X139962081Y-97045232D01*
X140031277Y-97067193D01*
X140091580Y-97097322D01*
X140146292Y-97136510D01*
X140165833Y-97153532D01*
X140198250Y-97193363D01*
X140227480Y-97247413D01*
X140250009Y-97307323D01*
X140262321Y-97364739D01*
X140263600Y-97385956D01*
X140255583Y-97444769D01*
X140234101Y-97509013D01*
X140203001Y-97569821D01*
X140166134Y-97618330D01*
X140160146Y-97624182D01*
X140109421Y-97665321D01*
X140053875Y-97697435D01*
X139990304Y-97721365D01*
X139915506Y-97737953D01*
X139826278Y-97748041D01*
X139719418Y-97752469D01*
X139670472Y-97752845D01*
X139608238Y-97752545D01*
X139564472Y-97751292D01*
X139535069Y-97748554D01*
X139515921Y-97743801D01*
X139502923Y-97736501D01*
X139495955Y-97730267D01*
X139489374Y-97722694D01*
X139484212Y-97712924D01*
X139480297Y-97698340D01*
X139477457Y-97676326D01*
X139475520Y-97644264D01*
X139474316Y-97599536D01*
X139473672Y-97539526D01*
X139473417Y-97461617D01*
X139473378Y-97385956D01*
X139473130Y-97285041D01*
X139473183Y-97204427D01*
X139474143Y-97165822D01*
X139620133Y-97165822D01*
X139620133Y-97606089D01*
X139713266Y-97606004D01*
X139769307Y-97604396D01*
X139828001Y-97600256D01*
X139876972Y-97594464D01*
X139878462Y-97594226D01*
X139957608Y-97575090D01*
X140018998Y-97545287D01*
X140065695Y-97502878D01*
X140095365Y-97456961D01*
X140113647Y-97406026D01*
X140112229Y-97358200D01*
X140091012Y-97306933D01*
X140049511Y-97253899D01*
X139992002Y-97214600D01*
X139917250Y-97188331D01*
X139867292Y-97179035D01*
X139810584Y-97172507D01*
X139750481Y-97167782D01*
X139699361Y-97165817D01*
X139696333Y-97165808D01*
X139620133Y-97165822D01*
X139474143Y-97165822D01*
X139474740Y-97141851D01*
X139479002Y-97095055D01*
X139487170Y-97061778D01*
X139500444Y-97039759D01*
X139520026Y-97026739D01*
X139547117Y-97020457D01*
X139582918Y-97018653D01*
X139628629Y-97019066D01*
X139628629Y-97019066D01*
G37*
X139628629Y-97019066D02*
X139668111Y-97019467D01*
X139783800Y-97022259D01*
X139880689Y-97030550D01*
X139962081Y-97045232D01*
X140031277Y-97067193D01*
X140091580Y-97097322D01*
X140146292Y-97136510D01*
X140165833Y-97153532D01*
X140198250Y-97193363D01*
X140227480Y-97247413D01*
X140250009Y-97307323D01*
X140262321Y-97364739D01*
X140263600Y-97385956D01*
X140255583Y-97444769D01*
X140234101Y-97509013D01*
X140203001Y-97569821D01*
X140166134Y-97618330D01*
X140160146Y-97624182D01*
X140109421Y-97665321D01*
X140053875Y-97697435D01*
X139990304Y-97721365D01*
X139915506Y-97737953D01*
X139826278Y-97748041D01*
X139719418Y-97752469D01*
X139670472Y-97752845D01*
X139608238Y-97752545D01*
X139564472Y-97751292D01*
X139535069Y-97748554D01*
X139515921Y-97743801D01*
X139502923Y-97736501D01*
X139495955Y-97730267D01*
X139489374Y-97722694D01*
X139484212Y-97712924D01*
X139480297Y-97698340D01*
X139477457Y-97676326D01*
X139475520Y-97644264D01*
X139474316Y-97599536D01*
X139473672Y-97539526D01*
X139473417Y-97461617D01*
X139473378Y-97385956D01*
X139473130Y-97285041D01*
X139473183Y-97204427D01*
X139474143Y-97165822D01*
X139620133Y-97165822D01*
X139620133Y-97606089D01*
X139713266Y-97606004D01*
X139769307Y-97604396D01*
X139828001Y-97600256D01*
X139876972Y-97594464D01*
X139878462Y-97594226D01*
X139957608Y-97575090D01*
X140018998Y-97545287D01*
X140065695Y-97502878D01*
X140095365Y-97456961D01*
X140113647Y-97406026D01*
X140112229Y-97358200D01*
X140091012Y-97306933D01*
X140049511Y-97253899D01*
X139992002Y-97214600D01*
X139917250Y-97188331D01*
X139867292Y-97179035D01*
X139810584Y-97172507D01*
X139750481Y-97167782D01*
X139699361Y-97165817D01*
X139696333Y-97165808D01*
X139620133Y-97165822D01*
X139474143Y-97165822D01*
X139474740Y-97141851D01*
X139479002Y-97095055D01*
X139487170Y-97061778D01*
X139500444Y-97039759D01*
X139520026Y-97026739D01*
X139547117Y-97020457D01*
X139582918Y-97018653D01*
X139628629Y-97019066D01*
G36*
X141037206Y-97019146D02*
X141106614Y-97019518D01*
X141159003Y-97020385D01*
X141197153Y-97021946D01*
X141223841Y-97024403D01*
X141241847Y-97027957D01*
X141253951Y-97032810D01*
X141262931Y-97039161D01*
X141266182Y-97042084D01*
X141285957Y-97073142D01*
X141289518Y-97108828D01*
X141276509Y-97140510D01*
X141270494Y-97146913D01*
X141260765Y-97153121D01*
X141245099Y-97157910D01*
X141220592Y-97161514D01*
X141184339Y-97164164D01*
X141133435Y-97166095D01*
X141064974Y-97167539D01*
X141002383Y-97168418D01*
X140754666Y-97171467D01*
X140751281Y-97236378D01*
X140747895Y-97301289D01*
X140916042Y-97301289D01*
X140989041Y-97301919D01*
X141042483Y-97304553D01*
X141079372Y-97310309D01*
X141102712Y-97320304D01*
X141115506Y-97335656D01*
X141120758Y-97357482D01*
X141121555Y-97377738D01*
X141119077Y-97402592D01*
X141109723Y-97420906D01*
X141090617Y-97433637D01*
X141058882Y-97441741D01*
X141011641Y-97446176D01*
X140946017Y-97447899D01*
X140910199Y-97448045D01*
X140749022Y-97448045D01*
X140749022Y-97606089D01*
X140997378Y-97606089D01*
X141078787Y-97606202D01*
X141140658Y-97606712D01*
X141186032Y-97607870D01*
X141217946Y-97609930D01*
X141239441Y-97613146D01*
X141253557Y-97617772D01*
X141263332Y-97624059D01*
X141268311Y-97628667D01*
X141285390Y-97655560D01*
X141290889Y-97679467D01*
X141283037Y-97708667D01*
X141268311Y-97730267D01*
X141260454Y-97737066D01*
X141250312Y-97742346D01*
X141235156Y-97746298D01*
X141212259Y-97749113D01*
X141178891Y-97750982D01*
X141132325Y-97752098D01*
X141069833Y-97752651D01*
X140988686Y-97752833D01*
X140946578Y-97752845D01*
X140856402Y-97752765D01*
X140786076Y-97752398D01*
X140732871Y-97751552D01*
X140694060Y-97750036D01*
X140666913Y-97747659D01*
X140648702Y-97744229D01*
X140636700Y-97739554D01*
X140628178Y-97733444D01*
X140624844Y-97730267D01*
X140618245Y-97722670D01*
X140613073Y-97712870D01*
X140609154Y-97698239D01*
X140606316Y-97676152D01*
X140604385Y-97643982D01*
X140603188Y-97599103D01*
X140602552Y-97538889D01*
X140602303Y-97460713D01*
X140602266Y-97387923D01*
X140602300Y-97294707D01*
X140602535Y-97221431D01*
X140603170Y-97165458D01*
X140604406Y-97124151D01*
X140606444Y-97094872D01*
X140609483Y-97074984D01*
X140613723Y-97061850D01*
X140619365Y-97052832D01*
X140626609Y-97045293D01*
X140628394Y-97043612D01*
X140637055Y-97036172D01*
X140647118Y-97030409D01*
X140661375Y-97026112D01*
X140682617Y-97023064D01*
X140713636Y-97021051D01*
X140757223Y-97019860D01*
X140816169Y-97019275D01*
X140893266Y-97019083D01*
X140947999Y-97019067D01*
X141037206Y-97019146D01*
X141037206Y-97019146D01*
G37*
X141037206Y-97019146D02*
X141106614Y-97019518D01*
X141159003Y-97020385D01*
X141197153Y-97021946D01*
X141223841Y-97024403D01*
X141241847Y-97027957D01*
X141253951Y-97032810D01*
X141262931Y-97039161D01*
X141266182Y-97042084D01*
X141285957Y-97073142D01*
X141289518Y-97108828D01*
X141276509Y-97140510D01*
X141270494Y-97146913D01*
X141260765Y-97153121D01*
X141245099Y-97157910D01*
X141220592Y-97161514D01*
X141184339Y-97164164D01*
X141133435Y-97166095D01*
X141064974Y-97167539D01*
X141002383Y-97168418D01*
X140754666Y-97171467D01*
X140751281Y-97236378D01*
X140747895Y-97301289D01*
X140916042Y-97301289D01*
X140989041Y-97301919D01*
X141042483Y-97304553D01*
X141079372Y-97310309D01*
X141102712Y-97320304D01*
X141115506Y-97335656D01*
X141120758Y-97357482D01*
X141121555Y-97377738D01*
X141119077Y-97402592D01*
X141109723Y-97420906D01*
X141090617Y-97433637D01*
X141058882Y-97441741D01*
X141011641Y-97446176D01*
X140946017Y-97447899D01*
X140910199Y-97448045D01*
X140749022Y-97448045D01*
X140749022Y-97606089D01*
X140997378Y-97606089D01*
X141078787Y-97606202D01*
X141140658Y-97606712D01*
X141186032Y-97607870D01*
X141217946Y-97609930D01*
X141239441Y-97613146D01*
X141253557Y-97617772D01*
X141263332Y-97624059D01*
X141268311Y-97628667D01*
X141285390Y-97655560D01*
X141290889Y-97679467D01*
X141283037Y-97708667D01*
X141268311Y-97730267D01*
X141260454Y-97737066D01*
X141250312Y-97742346D01*
X141235156Y-97746298D01*
X141212259Y-97749113D01*
X141178891Y-97750982D01*
X141132325Y-97752098D01*
X141069833Y-97752651D01*
X140988686Y-97752833D01*
X140946578Y-97752845D01*
X140856402Y-97752765D01*
X140786076Y-97752398D01*
X140732871Y-97751552D01*
X140694060Y-97750036D01*
X140666913Y-97747659D01*
X140648702Y-97744229D01*
X140636700Y-97739554D01*
X140628178Y-97733444D01*
X140624844Y-97730267D01*
X140618245Y-97722670D01*
X140613073Y-97712870D01*
X140609154Y-97698239D01*
X140606316Y-97676152D01*
X140604385Y-97643982D01*
X140603188Y-97599103D01*
X140602552Y-97538889D01*
X140602303Y-97460713D01*
X140602266Y-97387923D01*
X140602300Y-97294707D01*
X140602535Y-97221431D01*
X140603170Y-97165458D01*
X140604406Y-97124151D01*
X140606444Y-97094872D01*
X140609483Y-97074984D01*
X140613723Y-97061850D01*
X140619365Y-97052832D01*
X140626609Y-97045293D01*
X140628394Y-97043612D01*
X140637055Y-97036172D01*
X140647118Y-97030409D01*
X140661375Y-97026112D01*
X140682617Y-97023064D01*
X140713636Y-97021051D01*
X140757223Y-97019860D01*
X140816169Y-97019275D01*
X140893266Y-97019083D01*
X140947999Y-97019067D01*
X141037206Y-97019146D01*
G36*
X142058297Y-97020351D02*
X142133112Y-97025581D01*
X142202694Y-97033750D01*
X142262998Y-97044550D01*
X142309980Y-97057673D01*
X142339594Y-97072813D01*
X142344140Y-97077269D01*
X142359946Y-97111850D01*
X142355153Y-97147351D01*
X142330636Y-97177725D01*
X142329466Y-97178596D01*
X142315046Y-97187954D01*
X142299992Y-97192876D01*
X142278995Y-97193473D01*
X142246743Y-97189861D01*
X142197927Y-97182154D01*
X142194000Y-97181505D01*
X142121261Y-97172569D01*
X142042783Y-97168161D01*
X141964073Y-97168119D01*
X141890639Y-97172279D01*
X141827989Y-97180479D01*
X141781630Y-97192557D01*
X141778584Y-97193771D01*
X141744952Y-97212615D01*
X141733136Y-97231685D01*
X141742386Y-97250439D01*
X141771953Y-97268337D01*
X141821089Y-97284837D01*
X141889043Y-97299396D01*
X141934355Y-97306406D01*
X142028544Y-97319889D01*
X142103456Y-97332214D01*
X142162283Y-97344449D01*
X142208215Y-97357661D01*
X142244445Y-97372917D01*
X142274162Y-97391285D01*
X142300558Y-97413831D01*
X142321770Y-97435971D01*
X142346935Y-97466819D01*
X142359319Y-97493345D01*
X142363192Y-97526026D01*
X142363333Y-97537995D01*
X142360424Y-97577712D01*
X142348798Y-97607259D01*
X142328677Y-97633486D01*
X142287784Y-97673576D01*
X142242183Y-97704149D01*
X142188487Y-97726203D01*
X142123308Y-97740735D01*
X142043256Y-97748741D01*
X141944943Y-97751218D01*
X141928711Y-97751177D01*
X141863151Y-97749818D01*
X141798134Y-97746730D01*
X141740748Y-97742356D01*
X141698078Y-97737140D01*
X141694628Y-97736541D01*
X141652204Y-97726491D01*
X141616220Y-97713796D01*
X141595850Y-97702190D01*
X141576893Y-97671572D01*
X141575573Y-97635918D01*
X141591915Y-97604144D01*
X141595571Y-97600551D01*
X141610685Y-97589876D01*
X141629585Y-97585276D01*
X141658838Y-97586059D01*
X141694349Y-97590127D01*
X141734030Y-97593762D01*
X141789655Y-97596828D01*
X141854594Y-97599053D01*
X141922215Y-97600164D01*
X141940000Y-97600237D01*
X142007872Y-97599964D01*
X142057546Y-97598646D01*
X142093390Y-97595827D01*
X142119776Y-97591050D01*
X142141074Y-97583857D01*
X142153874Y-97577867D01*
X142182000Y-97561233D01*
X142199932Y-97546168D01*
X142202553Y-97541897D01*
X142197024Y-97524263D01*
X142170740Y-97507192D01*
X142125522Y-97491458D01*
X142063192Y-97477838D01*
X142044829Y-97474804D01*
X141948910Y-97459738D01*
X141872359Y-97447146D01*
X141812220Y-97436111D01*
X141765540Y-97425720D01*
X141729363Y-97415056D01*
X141700735Y-97403205D01*
X141676702Y-97389251D01*
X141654308Y-97372281D01*
X141630598Y-97351378D01*
X141622620Y-97344049D01*
X141594647Y-97316699D01*
X141579840Y-97295029D01*
X141574048Y-97270232D01*
X141573111Y-97238983D01*
X141583425Y-97177705D01*
X141614248Y-97125640D01*
X141665405Y-97082958D01*
X141736717Y-97049825D01*
X141787600Y-97034964D01*
X141842900Y-97025366D01*
X141909147Y-97019936D01*
X141982294Y-97018367D01*
X142058297Y-97020351D01*
X142058297Y-97020351D01*
G37*
X142058297Y-97020351D02*
X142133112Y-97025581D01*
X142202694Y-97033750D01*
X142262998Y-97044550D01*
X142309980Y-97057673D01*
X142339594Y-97072813D01*
X142344140Y-97077269D01*
X142359946Y-97111850D01*
X142355153Y-97147351D01*
X142330636Y-97177725D01*
X142329466Y-97178596D01*
X142315046Y-97187954D01*
X142299992Y-97192876D01*
X142278995Y-97193473D01*
X142246743Y-97189861D01*
X142197927Y-97182154D01*
X142194000Y-97181505D01*
X142121261Y-97172569D01*
X142042783Y-97168161D01*
X141964073Y-97168119D01*
X141890639Y-97172279D01*
X141827989Y-97180479D01*
X141781630Y-97192557D01*
X141778584Y-97193771D01*
X141744952Y-97212615D01*
X141733136Y-97231685D01*
X141742386Y-97250439D01*
X141771953Y-97268337D01*
X141821089Y-97284837D01*
X141889043Y-97299396D01*
X141934355Y-97306406D01*
X142028544Y-97319889D01*
X142103456Y-97332214D01*
X142162283Y-97344449D01*
X142208215Y-97357661D01*
X142244445Y-97372917D01*
X142274162Y-97391285D01*
X142300558Y-97413831D01*
X142321770Y-97435971D01*
X142346935Y-97466819D01*
X142359319Y-97493345D01*
X142363192Y-97526026D01*
X142363333Y-97537995D01*
X142360424Y-97577712D01*
X142348798Y-97607259D01*
X142328677Y-97633486D01*
X142287784Y-97673576D01*
X142242183Y-97704149D01*
X142188487Y-97726203D01*
X142123308Y-97740735D01*
X142043256Y-97748741D01*
X141944943Y-97751218D01*
X141928711Y-97751177D01*
X141863151Y-97749818D01*
X141798134Y-97746730D01*
X141740748Y-97742356D01*
X141698078Y-97737140D01*
X141694628Y-97736541D01*
X141652204Y-97726491D01*
X141616220Y-97713796D01*
X141595850Y-97702190D01*
X141576893Y-97671572D01*
X141575573Y-97635918D01*
X141591915Y-97604144D01*
X141595571Y-97600551D01*
X141610685Y-97589876D01*
X141629585Y-97585276D01*
X141658838Y-97586059D01*
X141694349Y-97590127D01*
X141734030Y-97593762D01*
X141789655Y-97596828D01*
X141854594Y-97599053D01*
X141922215Y-97600164D01*
X141940000Y-97600237D01*
X142007872Y-97599964D01*
X142057546Y-97598646D01*
X142093390Y-97595827D01*
X142119776Y-97591050D01*
X142141074Y-97583857D01*
X142153874Y-97577867D01*
X142182000Y-97561233D01*
X142199932Y-97546168D01*
X142202553Y-97541897D01*
X142197024Y-97524263D01*
X142170740Y-97507192D01*
X142125522Y-97491458D01*
X142063192Y-97477838D01*
X142044829Y-97474804D01*
X141948910Y-97459738D01*
X141872359Y-97447146D01*
X141812220Y-97436111D01*
X141765540Y-97425720D01*
X141729363Y-97415056D01*
X141700735Y-97403205D01*
X141676702Y-97389251D01*
X141654308Y-97372281D01*
X141630598Y-97351378D01*
X141622620Y-97344049D01*
X141594647Y-97316699D01*
X141579840Y-97295029D01*
X141574048Y-97270232D01*
X141573111Y-97238983D01*
X141583425Y-97177705D01*
X141614248Y-97125640D01*
X141665405Y-97082958D01*
X141736717Y-97049825D01*
X141787600Y-97034964D01*
X141842900Y-97025366D01*
X141909147Y-97019936D01*
X141982294Y-97018367D01*
X142058297Y-97020351D01*
G36*
X142826178Y-97041645D02*
X142832758Y-97049218D01*
X142837921Y-97058987D01*
X142841836Y-97073571D01*
X142844676Y-97095585D01*
X142846613Y-97127648D01*
X142847817Y-97172375D01*
X142848461Y-97232385D01*
X142848716Y-97310294D01*
X142848755Y-97385956D01*
X142848686Y-97479802D01*
X142848362Y-97553689D01*
X142847614Y-97610232D01*
X142846268Y-97652049D01*
X142844154Y-97681757D01*
X142841100Y-97701973D01*
X142836934Y-97715314D01*
X142831484Y-97724398D01*
X142826178Y-97730267D01*
X142793174Y-97749947D01*
X142758009Y-97748181D01*
X142726545Y-97726717D01*
X142719316Y-97718337D01*
X142713666Y-97708614D01*
X142709401Y-97694861D01*
X142706327Y-97674389D01*
X142704248Y-97644512D01*
X142702970Y-97602541D01*
X142702299Y-97545789D01*
X142702041Y-97471567D01*
X142702000Y-97387537D01*
X142702000Y-97074485D01*
X142729709Y-97046776D01*
X142763863Y-97023463D01*
X142796994Y-97022623D01*
X142826178Y-97041645D01*
X142826178Y-97041645D01*
G37*
X142826178Y-97041645D02*
X142832758Y-97049218D01*
X142837921Y-97058987D01*
X142841836Y-97073571D01*
X142844676Y-97095585D01*
X142846613Y-97127648D01*
X142847817Y-97172375D01*
X142848461Y-97232385D01*
X142848716Y-97310294D01*
X142848755Y-97385956D01*
X142848686Y-97479802D01*
X142848362Y-97553689D01*
X142847614Y-97610232D01*
X142846268Y-97652049D01*
X142844154Y-97681757D01*
X142841100Y-97701973D01*
X142836934Y-97715314D01*
X142831484Y-97724398D01*
X142826178Y-97730267D01*
X142793174Y-97749947D01*
X142758009Y-97748181D01*
X142726545Y-97726717D01*
X142719316Y-97718337D01*
X142713666Y-97708614D01*
X142709401Y-97694861D01*
X142706327Y-97674389D01*
X142704248Y-97644512D01*
X142702970Y-97602541D01*
X142702299Y-97545789D01*
X142702041Y-97471567D01*
X142702000Y-97387537D01*
X142702000Y-97074485D01*
X142729709Y-97046776D01*
X142763863Y-97023463D01*
X142796994Y-97022623D01*
X142826178Y-97041645D01*
G36*
X143799919Y-97024599D02*
X143868435Y-97036095D01*
X143921057Y-97053967D01*
X143955292Y-97077499D01*
X143964621Y-97090924D01*
X143974107Y-97122148D01*
X143967723Y-97150395D01*
X143947570Y-97177182D01*
X143916255Y-97189713D01*
X143870817Y-97188696D01*
X143835674Y-97181906D01*
X143757581Y-97168971D01*
X143677774Y-97167742D01*
X143588445Y-97178241D01*
X143563771Y-97182690D01*
X143480709Y-97206108D01*
X143415727Y-97240945D01*
X143369539Y-97286604D01*
X143342855Y-97342494D01*
X143337337Y-97371388D01*
X143340949Y-97430012D01*
X143364271Y-97481879D01*
X143405176Y-97525978D01*
X143461541Y-97561299D01*
X143531240Y-97586829D01*
X143612148Y-97601559D01*
X143702140Y-97604478D01*
X143799090Y-97594575D01*
X143804564Y-97593641D01*
X143843125Y-97586459D01*
X143864506Y-97579521D01*
X143873773Y-97569227D01*
X143875994Y-97551976D01*
X143876044Y-97542841D01*
X143876044Y-97504489D01*
X143807569Y-97504489D01*
X143747100Y-97500347D01*
X143705835Y-97487147D01*
X143681825Y-97463730D01*
X143673123Y-97428936D01*
X143673017Y-97424394D01*
X143678108Y-97394654D01*
X143695567Y-97373419D01*
X143728061Y-97359366D01*
X143778257Y-97351173D01*
X143826877Y-97348161D01*
X143897544Y-97346433D01*
X143948802Y-97349070D01*
X143983761Y-97358800D01*
X144005530Y-97378353D01*
X144017220Y-97410456D01*
X144021940Y-97457838D01*
X144022800Y-97520071D01*
X144021391Y-97589535D01*
X144017152Y-97636786D01*
X144010064Y-97662012D01*
X144008689Y-97663988D01*
X143969772Y-97695508D01*
X143912714Y-97720470D01*
X143841131Y-97738340D01*
X143758642Y-97748586D01*
X143668861Y-97750673D01*
X143575408Y-97744068D01*
X143520444Y-97735956D01*
X143434234Y-97711554D01*
X143354108Y-97671662D01*
X143287023Y-97619887D01*
X143276827Y-97609539D01*
X143243698Y-97566035D01*
X143213806Y-97512118D01*
X143190643Y-97455592D01*
X143177702Y-97404259D01*
X143176142Y-97384544D01*
X143182782Y-97343419D01*
X143200432Y-97292252D01*
X143225703Y-97238394D01*
X143255211Y-97189195D01*
X143281281Y-97156334D01*
X143342235Y-97107452D01*
X143421031Y-97068545D01*
X143514843Y-97040494D01*
X143620850Y-97024179D01*
X143718000Y-97020192D01*
X143799919Y-97024599D01*
X143799919Y-97024599D01*
G37*
X143799919Y-97024599D02*
X143868435Y-97036095D01*
X143921057Y-97053967D01*
X143955292Y-97077499D01*
X143964621Y-97090924D01*
X143974107Y-97122148D01*
X143967723Y-97150395D01*
X143947570Y-97177182D01*
X143916255Y-97189713D01*
X143870817Y-97188696D01*
X143835674Y-97181906D01*
X143757581Y-97168971D01*
X143677774Y-97167742D01*
X143588445Y-97178241D01*
X143563771Y-97182690D01*
X143480709Y-97206108D01*
X143415727Y-97240945D01*
X143369539Y-97286604D01*
X143342855Y-97342494D01*
X143337337Y-97371388D01*
X143340949Y-97430012D01*
X143364271Y-97481879D01*
X143405176Y-97525978D01*
X143461541Y-97561299D01*
X143531240Y-97586829D01*
X143612148Y-97601559D01*
X143702140Y-97604478D01*
X143799090Y-97594575D01*
X143804564Y-97593641D01*
X143843125Y-97586459D01*
X143864506Y-97579521D01*
X143873773Y-97569227D01*
X143875994Y-97551976D01*
X143876044Y-97542841D01*
X143876044Y-97504489D01*
X143807569Y-97504489D01*
X143747100Y-97500347D01*
X143705835Y-97487147D01*
X143681825Y-97463730D01*
X143673123Y-97428936D01*
X143673017Y-97424394D01*
X143678108Y-97394654D01*
X143695567Y-97373419D01*
X143728061Y-97359366D01*
X143778257Y-97351173D01*
X143826877Y-97348161D01*
X143897544Y-97346433D01*
X143948802Y-97349070D01*
X143983761Y-97358800D01*
X144005530Y-97378353D01*
X144017220Y-97410456D01*
X144021940Y-97457838D01*
X144022800Y-97520071D01*
X144021391Y-97589535D01*
X144017152Y-97636786D01*
X144010064Y-97662012D01*
X144008689Y-97663988D01*
X143969772Y-97695508D01*
X143912714Y-97720470D01*
X143841131Y-97738340D01*
X143758642Y-97748586D01*
X143668861Y-97750673D01*
X143575408Y-97744068D01*
X143520444Y-97735956D01*
X143434234Y-97711554D01*
X143354108Y-97671662D01*
X143287023Y-97619887D01*
X143276827Y-97609539D01*
X143243698Y-97566035D01*
X143213806Y-97512118D01*
X143190643Y-97455592D01*
X143177702Y-97404259D01*
X143176142Y-97384544D01*
X143182782Y-97343419D01*
X143200432Y-97292252D01*
X143225703Y-97238394D01*
X143255211Y-97189195D01*
X143281281Y-97156334D01*
X143342235Y-97107452D01*
X143421031Y-97068545D01*
X143514843Y-97040494D01*
X143620850Y-97024179D01*
X143718000Y-97020192D01*
X143799919Y-97024599D01*
G36*
X144449886Y-97023448D02*
X144473452Y-97037273D01*
X144504265Y-97059881D01*
X144543922Y-97092338D01*
X144594020Y-97135708D01*
X144656157Y-97191058D01*
X144731928Y-97259451D01*
X144818666Y-97338084D01*
X144999289Y-97501878D01*
X145004933Y-97282029D01*
X145006971Y-97206351D01*
X145008937Y-97149994D01*
X145011266Y-97109706D01*
X145014394Y-97082235D01*
X145018755Y-97064329D01*
X145024784Y-97052737D01*
X145032916Y-97044208D01*
X145037228Y-97040623D01*
X145071759Y-97021670D01*
X145104617Y-97024441D01*
X145130682Y-97040633D01*
X145157333Y-97062199D01*
X145160648Y-97377151D01*
X145161565Y-97469779D01*
X145162032Y-97542544D01*
X145161887Y-97598161D01*
X145160968Y-97639342D01*
X145159113Y-97668803D01*
X145156161Y-97689255D01*
X145151950Y-97703413D01*
X145146318Y-97713991D01*
X145140073Y-97722474D01*
X145126561Y-97738207D01*
X145113117Y-97748636D01*
X145097876Y-97752639D01*
X145078974Y-97749094D01*
X145054545Y-97736879D01*
X145022727Y-97714871D01*
X144981652Y-97681949D01*
X144929458Y-97636991D01*
X144864278Y-97578875D01*
X144790444Y-97512099D01*
X144525155Y-97271458D01*
X144519511Y-97490589D01*
X144517469Y-97566128D01*
X144515498Y-97622354D01*
X144513161Y-97662524D01*
X144510019Y-97689896D01*
X144505636Y-97707728D01*
X144499576Y-97719279D01*
X144491400Y-97727807D01*
X144487216Y-97731282D01*
X144450235Y-97750372D01*
X144415292Y-97747493D01*
X144384864Y-97723100D01*
X144377903Y-97713286D01*
X144372477Y-97701826D01*
X144368397Y-97685968D01*
X144365471Y-97662963D01*
X144363508Y-97630062D01*
X144362317Y-97584516D01*
X144361708Y-97523573D01*
X144361489Y-97444486D01*
X144361466Y-97385956D01*
X144361540Y-97294407D01*
X144361887Y-97222687D01*
X144362699Y-97168045D01*
X144364167Y-97127732D01*
X144366481Y-97098998D01*
X144369833Y-97079093D01*
X144374412Y-97065268D01*
X144380411Y-97054772D01*
X144384864Y-97048811D01*
X144396150Y-97034691D01*
X144406699Y-97024029D01*
X144418107Y-97017892D01*
X144431970Y-97017343D01*
X144449886Y-97023448D01*
X144449886Y-97023448D01*
G37*
X144449886Y-97023448D02*
X144473452Y-97037273D01*
X144504265Y-97059881D01*
X144543922Y-97092338D01*
X144594020Y-97135708D01*
X144656157Y-97191058D01*
X144731928Y-97259451D01*
X144818666Y-97338084D01*
X144999289Y-97501878D01*
X145004933Y-97282029D01*
X145006971Y-97206351D01*
X145008937Y-97149994D01*
X145011266Y-97109706D01*
X145014394Y-97082235D01*
X145018755Y-97064329D01*
X145024784Y-97052737D01*
X145032916Y-97044208D01*
X145037228Y-97040623D01*
X145071759Y-97021670D01*
X145104617Y-97024441D01*
X145130682Y-97040633D01*
X145157333Y-97062199D01*
X145160648Y-97377151D01*
X145161565Y-97469779D01*
X145162032Y-97542544D01*
X145161887Y-97598161D01*
X145160968Y-97639342D01*
X145159113Y-97668803D01*
X145156161Y-97689255D01*
X145151950Y-97703413D01*
X145146318Y-97713991D01*
X145140073Y-97722474D01*
X145126561Y-97738207D01*
X145113117Y-97748636D01*
X145097876Y-97752639D01*
X145078974Y-97749094D01*
X145054545Y-97736879D01*
X145022727Y-97714871D01*
X144981652Y-97681949D01*
X144929458Y-97636991D01*
X144864278Y-97578875D01*
X144790444Y-97512099D01*
X144525155Y-97271458D01*
X144519511Y-97490589D01*
X144517469Y-97566128D01*
X144515498Y-97622354D01*
X144513161Y-97662524D01*
X144510019Y-97689896D01*
X144505636Y-97707728D01*
X144499576Y-97719279D01*
X144491400Y-97727807D01*
X144487216Y-97731282D01*
X144450235Y-97750372D01*
X144415292Y-97747493D01*
X144384864Y-97723100D01*
X144377903Y-97713286D01*
X144372477Y-97701826D01*
X144368397Y-97685968D01*
X144365471Y-97662963D01*
X144363508Y-97630062D01*
X144362317Y-97584516D01*
X144361708Y-97523573D01*
X144361489Y-97444486D01*
X144361466Y-97385956D01*
X144361540Y-97294407D01*
X144361887Y-97222687D01*
X144362699Y-97168045D01*
X144364167Y-97127732D01*
X144366481Y-97098998D01*
X144369833Y-97079093D01*
X144374412Y-97065268D01*
X144380411Y-97054772D01*
X144384864Y-97048811D01*
X144396150Y-97034691D01*
X144406699Y-97024029D01*
X144418107Y-97017892D01*
X144431970Y-97017343D01*
X144449886Y-97023448D01*
G36*
X145980343Y-97019260D02*
X146056701Y-97020174D01*
X146115217Y-97022311D01*
X146158255Y-97026175D01*
X146188183Y-97032267D01*
X146207368Y-97041090D01*
X146218176Y-97053146D01*
X146222973Y-97068939D01*
X146224127Y-97088970D01*
X146224133Y-97091335D01*
X146223131Y-97113992D01*
X146218396Y-97131503D01*
X146207333Y-97144574D01*
X146187348Y-97153913D01*
X146155846Y-97160227D01*
X146110232Y-97164222D01*
X146047913Y-97166606D01*
X145966293Y-97168086D01*
X145941277Y-97168414D01*
X145699200Y-97171467D01*
X145695814Y-97236378D01*
X145692429Y-97301289D01*
X145860576Y-97301289D01*
X145926266Y-97301531D01*
X145973172Y-97302556D01*
X146005083Y-97304811D01*
X146025791Y-97308742D01*
X146039084Y-97314798D01*
X146048755Y-97323424D01*
X146048817Y-97323493D01*
X146066356Y-97357112D01*
X146065722Y-97393448D01*
X146047314Y-97424423D01*
X146043671Y-97427607D01*
X146030741Y-97435812D01*
X146013024Y-97441521D01*
X145986570Y-97445162D01*
X145947432Y-97447167D01*
X145891662Y-97447964D01*
X145855994Y-97448045D01*
X145693555Y-97448045D01*
X145693555Y-97606089D01*
X145940161Y-97606089D01*
X146021580Y-97606231D01*
X146083410Y-97606814D01*
X146128637Y-97608068D01*
X146160248Y-97610227D01*
X146181231Y-97613523D01*
X146194573Y-97618189D01*
X146203261Y-97624457D01*
X146205450Y-97626733D01*
X146221614Y-97658280D01*
X146222797Y-97694168D01*
X146209536Y-97725285D01*
X146199043Y-97735271D01*
X146188129Y-97740769D01*
X146171217Y-97745022D01*
X146145633Y-97748180D01*
X146108701Y-97750392D01*
X146057746Y-97751806D01*
X145990094Y-97752572D01*
X145903069Y-97752838D01*
X145883394Y-97752845D01*
X145794911Y-97752787D01*
X145726227Y-97752467D01*
X145674564Y-97751667D01*
X145637145Y-97750167D01*
X145611190Y-97747749D01*
X145593922Y-97744194D01*
X145582562Y-97739282D01*
X145574332Y-97732795D01*
X145569817Y-97728138D01*
X145563021Y-97719889D01*
X145557712Y-97709669D01*
X145553706Y-97694800D01*
X145550821Y-97672602D01*
X145548874Y-97640393D01*
X145547681Y-97595496D01*
X145547061Y-97535228D01*
X145546829Y-97456911D01*
X145546800Y-97390994D01*
X145546871Y-97298628D01*
X145547208Y-97226117D01*
X145547998Y-97170737D01*
X145549426Y-97129765D01*
X145551679Y-97100478D01*
X145554943Y-97080153D01*
X145559404Y-97066066D01*
X145565248Y-97055495D01*
X145570197Y-97048811D01*
X145593594Y-97019067D01*
X145883774Y-97019067D01*
X145980343Y-97019260D01*
X145980343Y-97019260D01*
G37*
X145980343Y-97019260D02*
X146056701Y-97020174D01*
X146115217Y-97022311D01*
X146158255Y-97026175D01*
X146188183Y-97032267D01*
X146207368Y-97041090D01*
X146218176Y-97053146D01*
X146222973Y-97068939D01*
X146224127Y-97088970D01*
X146224133Y-97091335D01*
X146223131Y-97113992D01*
X146218396Y-97131503D01*
X146207333Y-97144574D01*
X146187348Y-97153913D01*
X146155846Y-97160227D01*
X146110232Y-97164222D01*
X146047913Y-97166606D01*
X145966293Y-97168086D01*
X145941277Y-97168414D01*
X145699200Y-97171467D01*
X145695814Y-97236378D01*
X145692429Y-97301289D01*
X145860576Y-97301289D01*
X145926266Y-97301531D01*
X145973172Y-97302556D01*
X146005083Y-97304811D01*
X146025791Y-97308742D01*
X146039084Y-97314798D01*
X146048755Y-97323424D01*
X146048817Y-97323493D01*
X146066356Y-97357112D01*
X146065722Y-97393448D01*
X146047314Y-97424423D01*
X146043671Y-97427607D01*
X146030741Y-97435812D01*
X146013024Y-97441521D01*
X145986570Y-97445162D01*
X145947432Y-97447167D01*
X145891662Y-97447964D01*
X145855994Y-97448045D01*
X145693555Y-97448045D01*
X145693555Y-97606089D01*
X145940161Y-97606089D01*
X146021580Y-97606231D01*
X146083410Y-97606814D01*
X146128637Y-97608068D01*
X146160248Y-97610227D01*
X146181231Y-97613523D01*
X146194573Y-97618189D01*
X146203261Y-97624457D01*
X146205450Y-97626733D01*
X146221614Y-97658280D01*
X146222797Y-97694168D01*
X146209536Y-97725285D01*
X146199043Y-97735271D01*
X146188129Y-97740769D01*
X146171217Y-97745022D01*
X146145633Y-97748180D01*
X146108701Y-97750392D01*
X146057746Y-97751806D01*
X145990094Y-97752572D01*
X145903069Y-97752838D01*
X145883394Y-97752845D01*
X145794911Y-97752787D01*
X145726227Y-97752467D01*
X145674564Y-97751667D01*
X145637145Y-97750167D01*
X145611190Y-97747749D01*
X145593922Y-97744194D01*
X145582562Y-97739282D01*
X145574332Y-97732795D01*
X145569817Y-97728138D01*
X145563021Y-97719889D01*
X145557712Y-97709669D01*
X145553706Y-97694800D01*
X145550821Y-97672602D01*
X145548874Y-97640393D01*
X145547681Y-97595496D01*
X145547061Y-97535228D01*
X145546829Y-97456911D01*
X145546800Y-97390994D01*
X145546871Y-97298628D01*
X145547208Y-97226117D01*
X145547998Y-97170737D01*
X145549426Y-97129765D01*
X145551679Y-97100478D01*
X145554943Y-97080153D01*
X145559404Y-97066066D01*
X145565248Y-97055495D01*
X145570197Y-97048811D01*
X145593594Y-97019067D01*
X145883774Y-97019067D01*
X145980343Y-97019260D01*
G36*
X146768309Y-97019275D02*
X146897288Y-97023636D01*
X147006991Y-97036861D01*
X147099226Y-97059741D01*
X147175802Y-97093070D01*
X147238527Y-97137638D01*
X147289212Y-97194236D01*
X147329663Y-97263658D01*
X147330459Y-97265351D01*
X147354601Y-97327483D01*
X147363203Y-97382509D01*
X147356231Y-97437887D01*
X147333654Y-97501073D01*
X147329372Y-97510689D01*
X147300172Y-97566966D01*
X147267356Y-97610451D01*
X147225002Y-97647417D01*
X147167190Y-97684135D01*
X147163831Y-97686052D01*
X147113504Y-97710227D01*
X147056621Y-97728282D01*
X146989527Y-97740839D01*
X146908565Y-97748522D01*
X146810082Y-97751953D01*
X146775286Y-97752251D01*
X146609594Y-97752845D01*
X146586197Y-97723100D01*
X146579257Y-97713319D01*
X146573842Y-97701897D01*
X146569765Y-97686095D01*
X146566837Y-97663175D01*
X146564867Y-97630396D01*
X146564225Y-97606089D01*
X146720844Y-97606089D01*
X146814726Y-97606089D01*
X146869664Y-97604483D01*
X146926060Y-97600255D01*
X146972345Y-97594292D01*
X146975139Y-97593790D01*
X147057348Y-97571736D01*
X147121114Y-97538600D01*
X147168452Y-97492847D01*
X147201382Y-97432939D01*
X147207108Y-97417061D01*
X147212721Y-97392333D01*
X147210291Y-97367902D01*
X147198467Y-97335400D01*
X147191340Y-97319434D01*
X147168000Y-97277006D01*
X147139880Y-97247240D01*
X147108940Y-97226511D01*
X147046966Y-97199537D01*
X146967651Y-97179998D01*
X146875253Y-97168746D01*
X146808333Y-97166270D01*
X146720844Y-97165822D01*
X146720844Y-97606089D01*
X146564225Y-97606089D01*
X146563668Y-97585021D01*
X146563050Y-97524311D01*
X146562825Y-97445526D01*
X146562800Y-97383920D01*
X146562800Y-97074485D01*
X146590509Y-97046776D01*
X146602806Y-97035544D01*
X146616103Y-97027853D01*
X146634672Y-97023040D01*
X146662786Y-97020446D01*
X146704717Y-97019410D01*
X146764737Y-97019270D01*
X146768309Y-97019275D01*
X146768309Y-97019275D01*
G37*
X146768309Y-97019275D02*
X146897288Y-97023636D01*
X147006991Y-97036861D01*
X147099226Y-97059741D01*
X147175802Y-97093070D01*
X147238527Y-97137638D01*
X147289212Y-97194236D01*
X147329663Y-97263658D01*
X147330459Y-97265351D01*
X147354601Y-97327483D01*
X147363203Y-97382509D01*
X147356231Y-97437887D01*
X147333654Y-97501073D01*
X147329372Y-97510689D01*
X147300172Y-97566966D01*
X147267356Y-97610451D01*
X147225002Y-97647417D01*
X147167190Y-97684135D01*
X147163831Y-97686052D01*
X147113504Y-97710227D01*
X147056621Y-97728282D01*
X146989527Y-97740839D01*
X146908565Y-97748522D01*
X146810082Y-97751953D01*
X146775286Y-97752251D01*
X146609594Y-97752845D01*
X146586197Y-97723100D01*
X146579257Y-97713319D01*
X146573842Y-97701897D01*
X146569765Y-97686095D01*
X146566837Y-97663175D01*
X146564867Y-97630396D01*
X146564225Y-97606089D01*
X146720844Y-97606089D01*
X146814726Y-97606089D01*
X146869664Y-97604483D01*
X146926060Y-97600255D01*
X146972345Y-97594292D01*
X146975139Y-97593790D01*
X147057348Y-97571736D01*
X147121114Y-97538600D01*
X147168452Y-97492847D01*
X147201382Y-97432939D01*
X147207108Y-97417061D01*
X147212721Y-97392333D01*
X147210291Y-97367902D01*
X147198467Y-97335400D01*
X147191340Y-97319434D01*
X147168000Y-97277006D01*
X147139880Y-97247240D01*
X147108940Y-97226511D01*
X147046966Y-97199537D01*
X146967651Y-97179998D01*
X146875253Y-97168746D01*
X146808333Y-97166270D01*
X146720844Y-97165822D01*
X146720844Y-97606089D01*
X146564225Y-97606089D01*
X146563668Y-97585021D01*
X146563050Y-97524311D01*
X146562825Y-97445526D01*
X146562800Y-97383920D01*
X146562800Y-97074485D01*
X146590509Y-97046776D01*
X146602806Y-97035544D01*
X146616103Y-97027853D01*
X146634672Y-97023040D01*
X146662786Y-97020446D01*
X146704717Y-97019410D01*
X146764737Y-97019270D01*
X146768309Y-97019275D01*
G36*
X149494665Y-97021034D02*
X149514255Y-97028035D01*
X149515010Y-97028377D01*
X149541613Y-97048678D01*
X149556270Y-97069561D01*
X149559138Y-97079352D01*
X149558996Y-97092361D01*
X149554961Y-97110895D01*
X149546146Y-97137257D01*
X149531669Y-97173752D01*
X149510645Y-97222687D01*
X149482188Y-97286365D01*
X149445415Y-97367093D01*
X149425175Y-97411216D01*
X149388625Y-97489985D01*
X149354315Y-97562423D01*
X149323552Y-97625880D01*
X149297648Y-97677708D01*
X149277910Y-97715259D01*
X149265650Y-97735884D01*
X149263224Y-97738733D01*
X149232183Y-97751302D01*
X149197121Y-97749619D01*
X149169000Y-97734332D01*
X149167854Y-97733089D01*
X149156668Y-97716154D01*
X149137904Y-97683170D01*
X149113875Y-97638380D01*
X149086897Y-97586032D01*
X149077201Y-97566742D01*
X149004014Y-97420150D01*
X148924240Y-97579393D01*
X148895767Y-97634415D01*
X148869350Y-97682132D01*
X148847148Y-97718893D01*
X148831319Y-97741044D01*
X148825954Y-97745741D01*
X148784257Y-97752102D01*
X148749849Y-97738733D01*
X148739728Y-97724446D01*
X148722214Y-97692692D01*
X148698735Y-97646597D01*
X148670720Y-97589285D01*
X148639599Y-97523880D01*
X148606799Y-97453507D01*
X148573750Y-97381291D01*
X148541881Y-97310355D01*
X148512619Y-97243825D01*
X148487395Y-97184826D01*
X148467636Y-97136481D01*
X148454772Y-97101915D01*
X148450231Y-97084253D01*
X148450277Y-97083613D01*
X148461326Y-97061388D01*
X148483410Y-97038753D01*
X148484710Y-97037768D01*
X148511853Y-97022425D01*
X148536958Y-97022574D01*
X148546368Y-97025466D01*
X148557834Y-97031718D01*
X148570010Y-97044014D01*
X148584357Y-97064908D01*
X148602336Y-97096949D01*
X148625407Y-97142688D01*
X148655030Y-97204677D01*
X148681745Y-97261898D01*
X148712480Y-97328226D01*
X148740021Y-97387874D01*
X148762938Y-97437725D01*
X148779798Y-97474664D01*
X148789173Y-97495573D01*
X148790540Y-97498845D01*
X148796689Y-97493497D01*
X148810822Y-97471109D01*
X148831057Y-97434946D01*
X148855515Y-97388277D01*
X148865248Y-97369022D01*
X148898217Y-97304004D01*
X148923643Y-97256654D01*
X148943612Y-97224219D01*
X148960210Y-97203946D01*
X148975524Y-97193082D01*
X148991640Y-97188875D01*
X149002143Y-97188400D01*
X149020670Y-97190042D01*
X149036904Y-97196831D01*
X149053035Y-97211566D01*
X149071251Y-97237044D01*
X149093739Y-97276061D01*
X149122689Y-97331414D01*
X149138662Y-97362903D01*
X149164570Y-97413087D01*
X149187167Y-97454704D01*
X149204458Y-97484242D01*
X149214450Y-97498189D01*
X149215809Y-97498770D01*
X149222261Y-97487793D01*
X149236708Y-97459290D01*
X149257703Y-97416244D01*
X149283797Y-97361638D01*
X149313546Y-97298454D01*
X149328180Y-97267071D01*
X149366250Y-97186078D01*
X149396905Y-97123756D01*
X149421737Y-97078071D01*
X149442337Y-97046989D01*
X149460298Y-97028478D01*
X149477210Y-97020504D01*
X149494665Y-97021034D01*
X149494665Y-97021034D01*
G37*
X149494665Y-97021034D02*
X149514255Y-97028035D01*
X149515010Y-97028377D01*
X149541613Y-97048678D01*
X149556270Y-97069561D01*
X149559138Y-97079352D01*
X149558996Y-97092361D01*
X149554961Y-97110895D01*
X149546146Y-97137257D01*
X149531669Y-97173752D01*
X149510645Y-97222687D01*
X149482188Y-97286365D01*
X149445415Y-97367093D01*
X149425175Y-97411216D01*
X149388625Y-97489985D01*
X149354315Y-97562423D01*
X149323552Y-97625880D01*
X149297648Y-97677708D01*
X149277910Y-97715259D01*
X149265650Y-97735884D01*
X149263224Y-97738733D01*
X149232183Y-97751302D01*
X149197121Y-97749619D01*
X149169000Y-97734332D01*
X149167854Y-97733089D01*
X149156668Y-97716154D01*
X149137904Y-97683170D01*
X149113875Y-97638380D01*
X149086897Y-97586032D01*
X149077201Y-97566742D01*
X149004014Y-97420150D01*
X148924240Y-97579393D01*
X148895767Y-97634415D01*
X148869350Y-97682132D01*
X148847148Y-97718893D01*
X148831319Y-97741044D01*
X148825954Y-97745741D01*
X148784257Y-97752102D01*
X148749849Y-97738733D01*
X148739728Y-97724446D01*
X148722214Y-97692692D01*
X148698735Y-97646597D01*
X148670720Y-97589285D01*
X148639599Y-97523880D01*
X148606799Y-97453507D01*
X148573750Y-97381291D01*
X148541881Y-97310355D01*
X148512619Y-97243825D01*
X148487395Y-97184826D01*
X148467636Y-97136481D01*
X148454772Y-97101915D01*
X148450231Y-97084253D01*
X148450277Y-97083613D01*
X148461326Y-97061388D01*
X148483410Y-97038753D01*
X148484710Y-97037768D01*
X148511853Y-97022425D01*
X148536958Y-97022574D01*
X148546368Y-97025466D01*
X148557834Y-97031718D01*
X148570010Y-97044014D01*
X148584357Y-97064908D01*
X148602336Y-97096949D01*
X148625407Y-97142688D01*
X148655030Y-97204677D01*
X148681745Y-97261898D01*
X148712480Y-97328226D01*
X148740021Y-97387874D01*
X148762938Y-97437725D01*
X148779798Y-97474664D01*
X148789173Y-97495573D01*
X148790540Y-97498845D01*
X148796689Y-97493497D01*
X148810822Y-97471109D01*
X148831057Y-97434946D01*
X148855515Y-97388277D01*
X148865248Y-97369022D01*
X148898217Y-97304004D01*
X148923643Y-97256654D01*
X148943612Y-97224219D01*
X148960210Y-97203946D01*
X148975524Y-97193082D01*
X148991640Y-97188875D01*
X149002143Y-97188400D01*
X149020670Y-97190042D01*
X149036904Y-97196831D01*
X149053035Y-97211566D01*
X149071251Y-97237044D01*
X149093739Y-97276061D01*
X149122689Y-97331414D01*
X149138662Y-97362903D01*
X149164570Y-97413087D01*
X149187167Y-97454704D01*
X149204458Y-97484242D01*
X149214450Y-97498189D01*
X149215809Y-97498770D01*
X149222261Y-97487793D01*
X149236708Y-97459290D01*
X149257703Y-97416244D01*
X149283797Y-97361638D01*
X149313546Y-97298454D01*
X149328180Y-97267071D01*
X149366250Y-97186078D01*
X149396905Y-97123756D01*
X149421737Y-97078071D01*
X149442337Y-97046989D01*
X149460298Y-97028478D01*
X149477210Y-97020504D01*
X149494665Y-97021034D01*
G36*
X149938614Y-97025877D02*
X149962327Y-97040647D01*
X149988978Y-97062227D01*
X149988978Y-97383773D01*
X149988893Y-97477830D01*
X149988529Y-97551932D01*
X149987724Y-97608704D01*
X149986313Y-97650768D01*
X149984133Y-97680748D01*
X149981021Y-97701267D01*
X149976814Y-97714949D01*
X149971348Y-97724416D01*
X149967472Y-97729082D01*
X149936034Y-97749575D01*
X149900233Y-97748739D01*
X149868873Y-97731264D01*
X149842222Y-97709684D01*
X149842222Y-97062227D01*
X149868873Y-97040647D01*
X149894594Y-97024949D01*
X149915600Y-97019067D01*
X149938614Y-97025877D01*
X149938614Y-97025877D01*
G37*
X149938614Y-97025877D02*
X149962327Y-97040647D01*
X149988978Y-97062227D01*
X149988978Y-97383773D01*
X149988893Y-97477830D01*
X149988529Y-97551932D01*
X149987724Y-97608704D01*
X149986313Y-97650768D01*
X149984133Y-97680748D01*
X149981021Y-97701267D01*
X149976814Y-97714949D01*
X149971348Y-97724416D01*
X149967472Y-97729082D01*
X149936034Y-97749575D01*
X149900233Y-97748739D01*
X149868873Y-97731264D01*
X149842222Y-97709684D01*
X149842222Y-97062227D01*
X149868873Y-97040647D01*
X149894594Y-97024949D01*
X149915600Y-97019067D01*
X149938614Y-97025877D01*
G36*
X150713065Y-97019163D02*
X150791772Y-97019542D01*
X150852863Y-97020333D01*
X150898817Y-97021670D01*
X150932114Y-97023683D01*
X150955236Y-97026506D01*
X150970662Y-97030269D01*
X150980871Y-97035105D01*
X150985813Y-97038822D01*
X151011457Y-97071358D01*
X151014559Y-97105138D01*
X150998711Y-97135826D01*
X150988348Y-97148089D01*
X150977196Y-97156450D01*
X150961035Y-97161657D01*
X150935642Y-97164457D01*
X150896798Y-97165596D01*
X150840280Y-97165821D01*
X150829180Y-97165822D01*
X150683244Y-97165822D01*
X150683244Y-97436756D01*
X150683148Y-97522154D01*
X150682711Y-97587864D01*
X150681712Y-97636774D01*
X150679928Y-97671773D01*
X150677137Y-97695749D01*
X150673117Y-97711593D01*
X150667645Y-97722191D01*
X150660666Y-97730267D01*
X150627734Y-97750112D01*
X150593354Y-97748548D01*
X150562176Y-97725906D01*
X150559886Y-97723100D01*
X150552429Y-97712492D01*
X150546747Y-97700081D01*
X150542601Y-97682850D01*
X150539750Y-97657784D01*
X150537954Y-97621867D01*
X150536972Y-97572083D01*
X150536564Y-97505417D01*
X150536489Y-97429589D01*
X150536489Y-97165822D01*
X150397127Y-97165822D01*
X150337322Y-97165418D01*
X150295918Y-97163840D01*
X150268748Y-97160547D01*
X150251646Y-97154992D01*
X150240443Y-97146631D01*
X150239083Y-97145178D01*
X150222725Y-97111939D01*
X150224172Y-97074362D01*
X150242978Y-97041645D01*
X150250250Y-97035298D01*
X150259627Y-97030266D01*
X150273609Y-97026396D01*
X150294696Y-97023537D01*
X150325389Y-97021535D01*
X150368189Y-97020239D01*
X150425595Y-97019498D01*
X150500110Y-97019158D01*
X150594233Y-97019068D01*
X150614260Y-97019067D01*
X150713065Y-97019163D01*
X150713065Y-97019163D01*
G37*
X150713065Y-97019163D02*
X150791772Y-97019542D01*
X150852863Y-97020333D01*
X150898817Y-97021670D01*
X150932114Y-97023683D01*
X150955236Y-97026506D01*
X150970662Y-97030269D01*
X150980871Y-97035105D01*
X150985813Y-97038822D01*
X151011457Y-97071358D01*
X151014559Y-97105138D01*
X150998711Y-97135826D01*
X150988348Y-97148089D01*
X150977196Y-97156450D01*
X150961035Y-97161657D01*
X150935642Y-97164457D01*
X150896798Y-97165596D01*
X150840280Y-97165821D01*
X150829180Y-97165822D01*
X150683244Y-97165822D01*
X150683244Y-97436756D01*
X150683148Y-97522154D01*
X150682711Y-97587864D01*
X150681712Y-97636774D01*
X150679928Y-97671773D01*
X150677137Y-97695749D01*
X150673117Y-97711593D01*
X150667645Y-97722191D01*
X150660666Y-97730267D01*
X150627734Y-97750112D01*
X150593354Y-97748548D01*
X150562176Y-97725906D01*
X150559886Y-97723100D01*
X150552429Y-97712492D01*
X150546747Y-97700081D01*
X150542601Y-97682850D01*
X150539750Y-97657784D01*
X150537954Y-97621867D01*
X150536972Y-97572083D01*
X150536564Y-97505417D01*
X150536489Y-97429589D01*
X150536489Y-97165822D01*
X150397127Y-97165822D01*
X150337322Y-97165418D01*
X150295918Y-97163840D01*
X150268748Y-97160547D01*
X150251646Y-97154992D01*
X150240443Y-97146631D01*
X150239083Y-97145178D01*
X150222725Y-97111939D01*
X150224172Y-97074362D01*
X150242978Y-97041645D01*
X150250250Y-97035298D01*
X150259627Y-97030266D01*
X150273609Y-97026396D01*
X150294696Y-97023537D01*
X150325389Y-97021535D01*
X150368189Y-97020239D01*
X150425595Y-97019498D01*
X150500110Y-97019158D01*
X150594233Y-97019068D01*
X150614260Y-97019067D01*
X150713065Y-97019163D01*
G36*
X151978823Y-97024533D02*
X152010202Y-97046776D01*
X152037911Y-97074485D01*
X152037911Y-97383920D01*
X152037838Y-97475799D01*
X152037495Y-97547840D01*
X152036692Y-97602780D01*
X152035241Y-97643360D01*
X152032952Y-97672317D01*
X152029636Y-97692391D01*
X152025105Y-97706321D01*
X152019169Y-97716845D01*
X152014514Y-97723100D01*
X151983783Y-97747673D01*
X151948496Y-97750341D01*
X151916245Y-97735271D01*
X151905588Y-97726374D01*
X151898464Y-97714557D01*
X151894167Y-97695526D01*
X151891991Y-97664992D01*
X151891228Y-97618662D01*
X151891155Y-97582871D01*
X151891155Y-97448045D01*
X151394444Y-97448045D01*
X151394444Y-97570700D01*
X151393931Y-97626787D01*
X151391876Y-97665333D01*
X151387508Y-97691361D01*
X151380056Y-97709897D01*
X151371047Y-97723100D01*
X151340144Y-97747604D01*
X151305196Y-97750506D01*
X151271738Y-97733089D01*
X151262604Y-97723959D01*
X151256152Y-97711855D01*
X151251897Y-97693001D01*
X151249352Y-97663620D01*
X151248029Y-97619937D01*
X151247443Y-97558175D01*
X151247375Y-97544000D01*
X151246891Y-97427631D01*
X151246641Y-97331727D01*
X151246723Y-97254177D01*
X151247231Y-97192869D01*
X151248262Y-97145690D01*
X151249913Y-97110530D01*
X151252279Y-97085276D01*
X151255457Y-97067817D01*
X151259544Y-97056041D01*
X151264634Y-97047835D01*
X151270266Y-97041645D01*
X151302128Y-97021844D01*
X151335357Y-97024533D01*
X151366735Y-97046776D01*
X151379433Y-97061126D01*
X151387526Y-97076978D01*
X151392042Y-97099554D01*
X151394006Y-97134078D01*
X151394444Y-97185776D01*
X151394444Y-97301289D01*
X151891155Y-97301289D01*
X151891155Y-97182756D01*
X151891662Y-97128148D01*
X151893698Y-97091275D01*
X151898035Y-97067307D01*
X151905447Y-97051415D01*
X151913733Y-97041645D01*
X151945594Y-97021844D01*
X151978823Y-97024533D01*
X151978823Y-97024533D01*
G37*
X151978823Y-97024533D02*
X152010202Y-97046776D01*
X152037911Y-97074485D01*
X152037911Y-97383920D01*
X152037838Y-97475799D01*
X152037495Y-97547840D01*
X152036692Y-97602780D01*
X152035241Y-97643360D01*
X152032952Y-97672317D01*
X152029636Y-97692391D01*
X152025105Y-97706321D01*
X152019169Y-97716845D01*
X152014514Y-97723100D01*
X151983783Y-97747673D01*
X151948496Y-97750341D01*
X151916245Y-97735271D01*
X151905588Y-97726374D01*
X151898464Y-97714557D01*
X151894167Y-97695526D01*
X151891991Y-97664992D01*
X151891228Y-97618662D01*
X151891155Y-97582871D01*
X151891155Y-97448045D01*
X151394444Y-97448045D01*
X151394444Y-97570700D01*
X151393931Y-97626787D01*
X151391876Y-97665333D01*
X151387508Y-97691361D01*
X151380056Y-97709897D01*
X151371047Y-97723100D01*
X151340144Y-97747604D01*
X151305196Y-97750506D01*
X151271738Y-97733089D01*
X151262604Y-97723959D01*
X151256152Y-97711855D01*
X151251897Y-97693001D01*
X151249352Y-97663620D01*
X151248029Y-97619937D01*
X151247443Y-97558175D01*
X151247375Y-97544000D01*
X151246891Y-97427631D01*
X151246641Y-97331727D01*
X151246723Y-97254177D01*
X151247231Y-97192869D01*
X151248262Y-97145690D01*
X151249913Y-97110530D01*
X151252279Y-97085276D01*
X151255457Y-97067817D01*
X151259544Y-97056041D01*
X151264634Y-97047835D01*
X151270266Y-97041645D01*
X151302128Y-97021844D01*
X151335357Y-97024533D01*
X151366735Y-97046776D01*
X151379433Y-97061126D01*
X151387526Y-97076978D01*
X151392042Y-97099554D01*
X151394006Y-97134078D01*
X151394444Y-97185776D01*
X151394444Y-97301289D01*
X151891155Y-97301289D01*
X151891155Y-97182756D01*
X151891662Y-97128148D01*
X151893698Y-97091275D01*
X151898035Y-97067307D01*
X151905447Y-97051415D01*
X151913733Y-97041645D01*
X151945594Y-97021844D01*
X151978823Y-97024533D01*
G36*
X142803600Y-92239054D02*
X142814465Y-92352993D01*
X142846082Y-92460616D01*
X142896985Y-92559615D01*
X142965707Y-92647684D01*
X143050781Y-92722516D01*
X143147768Y-92780384D01*
X143254036Y-92820005D01*
X143361050Y-92838573D01*
X143466700Y-92837434D01*
X143568875Y-92817930D01*
X143665466Y-92781406D01*
X143754362Y-92729205D01*
X143833454Y-92662673D01*
X143900631Y-92583152D01*
X143953783Y-92491987D01*
X143990801Y-92390523D01*
X144009573Y-92280102D01*
X144011511Y-92230206D01*
X144011511Y-92142267D01*
X144063440Y-92142267D01*
X144099747Y-92145111D01*
X144126645Y-92156911D01*
X144153751Y-92180649D01*
X144192133Y-92219031D01*
X144192133Y-94410602D01*
X144192124Y-94672739D01*
X144192092Y-94913241D01*
X144192028Y-95133048D01*
X144191924Y-95333101D01*
X144191773Y-95514344D01*
X144191566Y-95677716D01*
X144191294Y-95824160D01*
X144190950Y-95954617D01*
X144190526Y-96070029D01*
X144190013Y-96171338D01*
X144189403Y-96259484D01*
X144188688Y-96335410D01*
X144187860Y-96400057D01*
X144186911Y-96454367D01*
X144185833Y-96499280D01*
X144184617Y-96535740D01*
X144183255Y-96564687D01*
X144181739Y-96587063D01*
X144180062Y-96603809D01*
X144178214Y-96615868D01*
X144176187Y-96624180D01*
X144173975Y-96629687D01*
X144172892Y-96631537D01*
X144168729Y-96638549D01*
X144165195Y-96644996D01*
X144161365Y-96650900D01*
X144156318Y-96656286D01*
X144149129Y-96661178D01*
X144138877Y-96665598D01*
X144124636Y-96669572D01*
X144105486Y-96673121D01*
X144080501Y-96676270D01*
X144048760Y-96679042D01*
X144009338Y-96681461D01*
X143961314Y-96683551D01*
X143903763Y-96685335D01*
X143835763Y-96686837D01*
X143756390Y-96688080D01*
X143664721Y-96689089D01*
X143559834Y-96689885D01*
X143440804Y-96690494D01*
X143306710Y-96690939D01*
X143156627Y-96691243D01*
X142989633Y-96691430D01*
X142804804Y-96691524D01*
X142601217Y-96691548D01*
X142377950Y-96691525D01*
X142134078Y-96691480D01*
X141868679Y-96691437D01*
X141830296Y-96691432D01*
X141563318Y-96691389D01*
X141317998Y-96691318D01*
X141093417Y-96691213D01*
X140888655Y-96691066D01*
X140702794Y-96690869D01*
X140534912Y-96690616D01*
X140384092Y-96690300D01*
X140249413Y-96689913D01*
X140129956Y-96689447D01*
X140024801Y-96688897D01*
X139933029Y-96688253D01*
X139853721Y-96687511D01*
X139785957Y-96686661D01*
X139728818Y-96685697D01*
X139681383Y-96684611D01*
X139642734Y-96683397D01*
X139611951Y-96682047D01*
X139588115Y-96680555D01*
X139570306Y-96678911D01*
X139557605Y-96677111D01*
X139549092Y-96675145D01*
X139544734Y-96673477D01*
X139536272Y-96669906D01*
X139528503Y-96667270D01*
X139521398Y-96664634D01*
X139514927Y-96661062D01*
X139509061Y-96655621D01*
X139503771Y-96647375D01*
X139499026Y-96635390D01*
X139494798Y-96618731D01*
X139491057Y-96596463D01*
X139487773Y-96567652D01*
X139484917Y-96531363D01*
X139482460Y-96486661D01*
X139480371Y-96432611D01*
X139478622Y-96368279D01*
X139477183Y-96292730D01*
X139476024Y-96205030D01*
X139475117Y-96104243D01*
X139474431Y-95989434D01*
X139473937Y-95859670D01*
X139473605Y-95714015D01*
X139473407Y-95551535D01*
X139473313Y-95371295D01*
X139473292Y-95172360D01*
X139473315Y-94953796D01*
X139473354Y-94714668D01*
X139473378Y-94454040D01*
X139473378Y-94411889D01*
X139473364Y-94148992D01*
X139473339Y-93907732D01*
X139473329Y-93687165D01*
X139473358Y-93486352D01*
X139473452Y-93304349D01*
X139473638Y-93140216D01*
X139473941Y-92993011D01*
X139474386Y-92861792D01*
X139474966Y-92751867D01*
X139777803Y-92751867D01*
X139817593Y-92809711D01*
X139828764Y-92825479D01*
X139838834Y-92839441D01*
X139847862Y-92852784D01*
X139855903Y-92866693D01*
X139863014Y-92882356D01*
X139869253Y-92900958D01*
X139874675Y-92923686D01*
X139879338Y-92951727D01*
X139883299Y-92986267D01*
X139886615Y-93028492D01*
X139889341Y-93079589D01*
X139891536Y-93140744D01*
X139893255Y-93213144D01*
X139894556Y-93297975D01*
X139895495Y-93396422D01*
X139896130Y-93509674D01*
X139896516Y-93638916D01*
X139896712Y-93785334D01*
X139896773Y-93950116D01*
X139896757Y-94134447D01*
X139896720Y-94339513D01*
X139896711Y-94462133D01*
X139896735Y-94679082D01*
X139896769Y-94874642D01*
X139896757Y-95049999D01*
X139896642Y-95206341D01*
X139896370Y-95344857D01*
X139895882Y-95466734D01*
X139895124Y-95573160D01*
X139894038Y-95665322D01*
X139892569Y-95744409D01*
X139890660Y-95811608D01*
X139888256Y-95868107D01*
X139885299Y-95915093D01*
X139881734Y-95953755D01*
X139877505Y-95985280D01*
X139872554Y-96010855D01*
X139866827Y-96031670D01*
X139860267Y-96048911D01*
X139852817Y-96063765D01*
X139844421Y-96077422D01*
X139835024Y-96091069D01*
X139824568Y-96105893D01*
X139818477Y-96114783D01*
X139779704Y-96172400D01*
X140311268Y-96172400D01*
X140434517Y-96172365D01*
X140537013Y-96172215D01*
X140620580Y-96171878D01*
X140687044Y-96171286D01*
X140738229Y-96170367D01*
X140775959Y-96169051D01*
X140802060Y-96167269D01*
X140818356Y-96164951D01*
X140826672Y-96162026D01*
X140828832Y-96158424D01*
X140826661Y-96154075D01*
X140825465Y-96152645D01*
X140800315Y-96115573D01*
X140774417Y-96062772D01*
X140750808Y-96000770D01*
X140742539Y-95974357D01*
X140737922Y-95956416D01*
X140734021Y-95935355D01*
X140730752Y-95909089D01*
X140728034Y-95875532D01*
X140725785Y-95832599D01*
X140723923Y-95778204D01*
X140722364Y-95710262D01*
X140721028Y-95626688D01*
X140719831Y-95525395D01*
X140718692Y-95404300D01*
X140718315Y-95359600D01*
X140717298Y-95234449D01*
X140716540Y-95130082D01*
X140716097Y-95044707D01*
X140716030Y-94976533D01*
X140716395Y-94923765D01*
X140717252Y-94884614D01*
X140718659Y-94857285D01*
X140720675Y-94839986D01*
X140723357Y-94830926D01*
X140726764Y-94828312D01*
X140730956Y-94830351D01*
X140735429Y-94834667D01*
X140745784Y-94847602D01*
X140767842Y-94876676D01*
X140800043Y-94919759D01*
X140840826Y-94974718D01*
X140888630Y-95039423D01*
X140941895Y-95111742D01*
X140999060Y-95189544D01*
X141058563Y-95270698D01*
X141118845Y-95353072D01*
X141178345Y-95434536D01*
X141235502Y-95512957D01*
X141288755Y-95586204D01*
X141336543Y-95652147D01*
X141377307Y-95708654D01*
X141409484Y-95753593D01*
X141431515Y-95784834D01*
X141436083Y-95791466D01*
X141459004Y-95828369D01*
X141485812Y-95876359D01*
X141511211Y-95925897D01*
X141514432Y-95932577D01*
X141536110Y-95980772D01*
X141548696Y-96018334D01*
X141554426Y-96054160D01*
X141555544Y-96096200D01*
X141554910Y-96172400D01*
X142709349Y-96172400D01*
X142618185Y-96078669D01*
X142571388Y-96028775D01*
X142521101Y-95972295D01*
X142475056Y-95918026D01*
X142454631Y-95892673D01*
X142424193Y-95853128D01*
X142384138Y-95799916D01*
X142335639Y-95734667D01*
X142279865Y-95659011D01*
X142217989Y-95574577D01*
X142151181Y-95482994D01*
X142080613Y-95385892D01*
X142007455Y-95284901D01*
X141932879Y-95181650D01*
X141858056Y-95077768D01*
X141784157Y-94974885D01*
X141712354Y-94874631D01*
X141643816Y-94778636D01*
X141579716Y-94688527D01*
X141521225Y-94605936D01*
X141469514Y-94532492D01*
X141425753Y-94469824D01*
X141391115Y-94419561D01*
X141366770Y-94383334D01*
X141353889Y-94362771D01*
X141352131Y-94358668D01*
X141360090Y-94347342D01*
X141380885Y-94320162D01*
X141413153Y-94278829D01*
X141455530Y-94225044D01*
X141506653Y-94160506D01*
X141565159Y-94086918D01*
X141629686Y-94005978D01*
X141698869Y-93919388D01*
X141771347Y-93828848D01*
X141845754Y-93736060D01*
X141905483Y-93661702D01*
X142916489Y-93661702D01*
X142922398Y-93674659D01*
X142936728Y-93696908D01*
X142937775Y-93698391D01*
X142956562Y-93728544D01*
X142976209Y-93765375D01*
X142980108Y-93773511D01*
X142983644Y-93781940D01*
X142986770Y-93792059D01*
X142989514Y-93805260D01*
X142991908Y-93822938D01*
X142993981Y-93846484D01*
X142995765Y-93877293D01*
X142997288Y-93916757D01*
X142998581Y-93966269D01*
X142999674Y-94027223D01*
X143000597Y-94101011D01*
X143001381Y-94189028D01*
X143002055Y-94292665D01*
X143002650Y-94413316D01*
X143003195Y-94552374D01*
X143003721Y-94711232D01*
X143004255Y-94890089D01*
X143004794Y-95075207D01*
X143005228Y-95239145D01*
X143005491Y-95383303D01*
X143005516Y-95509079D01*
X143005235Y-95617871D01*
X143004581Y-95711077D01*
X143003486Y-95790097D01*
X143001882Y-95856328D01*
X142999703Y-95911170D01*
X142996881Y-95956021D01*
X142993349Y-95992278D01*
X142989039Y-96021341D01*
X142983883Y-96044609D01*
X142977815Y-96063479D01*
X142970767Y-96079351D01*
X142962671Y-96093622D01*
X142953460Y-96107691D01*
X142944960Y-96120158D01*
X142927824Y-96146452D01*
X142917678Y-96164037D01*
X142916489Y-96167257D01*
X142927396Y-96168334D01*
X142958589Y-96169335D01*
X143007777Y-96170235D01*
X143072667Y-96171010D01*
X143150970Y-96171637D01*
X143240393Y-96172091D01*
X143338644Y-96172349D01*
X143407555Y-96172400D01*
X143512548Y-96172180D01*
X143609390Y-96171548D01*
X143695893Y-96170549D01*
X143769868Y-96169227D01*
X143829126Y-96167626D01*
X143871480Y-96165791D01*
X143894740Y-96163765D01*
X143898622Y-96162493D01*
X143890924Y-96147591D01*
X143882926Y-96139560D01*
X143869754Y-96122434D01*
X143852515Y-96092183D01*
X143840593Y-96067622D01*
X143813955Y-96008711D01*
X143810880Y-94831845D01*
X143807805Y-93654978D01*
X143362147Y-93654978D01*
X143264330Y-93655142D01*
X143173936Y-93655611D01*
X143093370Y-93656347D01*
X143025038Y-93657316D01*
X142971344Y-93658480D01*
X142934695Y-93659803D01*
X142917496Y-93661249D01*
X142916489Y-93661702D01*
X141905483Y-93661702D01*
X141920730Y-93642722D01*
X141994910Y-93550537D01*
X142066931Y-93461204D01*
X142135431Y-93376424D01*
X142199045Y-93297898D01*
X142256412Y-93227326D01*
X142306167Y-93166409D01*
X142346948Y-93116847D01*
X142364112Y-93096178D01*
X142450404Y-92995516D01*
X142527003Y-92912259D01*
X142595817Y-92844438D01*
X142658752Y-92790089D01*
X142668133Y-92782722D01*
X142707644Y-92752117D01*
X141575884Y-92751867D01*
X141581173Y-92799844D01*
X141577870Y-92857188D01*
X141556339Y-92925463D01*
X141516365Y-93005212D01*
X141471057Y-93077495D01*
X141454839Y-93100140D01*
X141426786Y-93137696D01*
X141388570Y-93188021D01*
X141341863Y-93248973D01*
X141288339Y-93318411D01*
X141229669Y-93394194D01*
X141167525Y-93474180D01*
X141103579Y-93556228D01*
X141039505Y-93638196D01*
X140976973Y-93717943D01*
X140917657Y-93793327D01*
X140863229Y-93862207D01*
X140815361Y-93922442D01*
X140775725Y-93971889D01*
X140745994Y-94008408D01*
X140727839Y-94029858D01*
X140724780Y-94033156D01*
X140721921Y-94025149D01*
X140719707Y-93994855D01*
X140718143Y-93942556D01*
X140717233Y-93868531D01*
X140716980Y-93773063D01*
X140717387Y-93656434D01*
X140718296Y-93536445D01*
X140719618Y-93404333D01*
X140721143Y-93292594D01*
X140723119Y-93199025D01*
X140725794Y-93121419D01*
X140729418Y-93057574D01*
X140734239Y-93005283D01*
X140740506Y-92962344D01*
X140748468Y-92926551D01*
X140758373Y-92895700D01*
X140770469Y-92867586D01*
X140785007Y-92840005D01*
X140799689Y-92814966D01*
X140837686Y-92751867D01*
X139777803Y-92751867D01*
X139474966Y-92751867D01*
X139474999Y-92745617D01*
X139475805Y-92643544D01*
X139476830Y-92554633D01*
X139478100Y-92477941D01*
X139479640Y-92412527D01*
X139481476Y-92357449D01*
X139483633Y-92311765D01*
X139486137Y-92274534D01*
X139489013Y-92244813D01*
X139492287Y-92221662D01*
X139495985Y-92204139D01*
X139500131Y-92191301D01*
X139504753Y-92182208D01*
X139509874Y-92175918D01*
X139515522Y-92171488D01*
X139521721Y-92167978D01*
X139528496Y-92164445D01*
X139534492Y-92160876D01*
X139539725Y-92158300D01*
X139547901Y-92155972D01*
X139560114Y-92153878D01*
X139577459Y-92152007D01*
X139601031Y-92150347D01*
X139631923Y-92148884D01*
X139671232Y-92147608D01*
X139720050Y-92146504D01*
X139779473Y-92145561D01*
X139850596Y-92144767D01*
X139934512Y-92144109D01*
X140032317Y-92143575D01*
X140145106Y-92143153D01*
X140273971Y-92142829D01*
X140420009Y-92142592D01*
X140584314Y-92142430D01*
X140767980Y-92142330D01*
X140972103Y-92142280D01*
X141183247Y-92142267D01*
X142803600Y-92142267D01*
X142803600Y-92239054D01*
X142803600Y-92239054D01*
G37*
X142803600Y-92239054D02*
X142814465Y-92352993D01*
X142846082Y-92460616D01*
X142896985Y-92559615D01*
X142965707Y-92647684D01*
X143050781Y-92722516D01*
X143147768Y-92780384D01*
X143254036Y-92820005D01*
X143361050Y-92838573D01*
X143466700Y-92837434D01*
X143568875Y-92817930D01*
X143665466Y-92781406D01*
X143754362Y-92729205D01*
X143833454Y-92662673D01*
X143900631Y-92583152D01*
X143953783Y-92491987D01*
X143990801Y-92390523D01*
X144009573Y-92280102D01*
X144011511Y-92230206D01*
X144011511Y-92142267D01*
X144063440Y-92142267D01*
X144099747Y-92145111D01*
X144126645Y-92156911D01*
X144153751Y-92180649D01*
X144192133Y-92219031D01*
X144192133Y-94410602D01*
X144192124Y-94672739D01*
X144192092Y-94913241D01*
X144192028Y-95133048D01*
X144191924Y-95333101D01*
X144191773Y-95514344D01*
X144191566Y-95677716D01*
X144191294Y-95824160D01*
X144190950Y-95954617D01*
X144190526Y-96070029D01*
X144190013Y-96171338D01*
X144189403Y-96259484D01*
X144188688Y-96335410D01*
X144187860Y-96400057D01*
X144186911Y-96454367D01*
X144185833Y-96499280D01*
X144184617Y-96535740D01*
X144183255Y-96564687D01*
X144181739Y-96587063D01*
X144180062Y-96603809D01*
X144178214Y-96615868D01*
X144176187Y-96624180D01*
X144173975Y-96629687D01*
X144172892Y-96631537D01*
X144168729Y-96638549D01*
X144165195Y-96644996D01*
X144161365Y-96650900D01*
X144156318Y-96656286D01*
X144149129Y-96661178D01*
X144138877Y-96665598D01*
X144124636Y-96669572D01*
X144105486Y-96673121D01*
X144080501Y-96676270D01*
X144048760Y-96679042D01*
X144009338Y-96681461D01*
X143961314Y-96683551D01*
X143903763Y-96685335D01*
X143835763Y-96686837D01*
X143756390Y-96688080D01*
X143664721Y-96689089D01*
X143559834Y-96689885D01*
X143440804Y-96690494D01*
X143306710Y-96690939D01*
X143156627Y-96691243D01*
X142989633Y-96691430D01*
X142804804Y-96691524D01*
X142601217Y-96691548D01*
X142377950Y-96691525D01*
X142134078Y-96691480D01*
X141868679Y-96691437D01*
X141830296Y-96691432D01*
X141563318Y-96691389D01*
X141317998Y-96691318D01*
X141093417Y-96691213D01*
X140888655Y-96691066D01*
X140702794Y-96690869D01*
X140534912Y-96690616D01*
X140384092Y-96690300D01*
X140249413Y-96689913D01*
X140129956Y-96689447D01*
X140024801Y-96688897D01*
X139933029Y-96688253D01*
X139853721Y-96687511D01*
X139785957Y-96686661D01*
X139728818Y-96685697D01*
X139681383Y-96684611D01*
X139642734Y-96683397D01*
X139611951Y-96682047D01*
X139588115Y-96680555D01*
X139570306Y-96678911D01*
X139557605Y-96677111D01*
X139549092Y-96675145D01*
X139544734Y-96673477D01*
X139536272Y-96669906D01*
X139528503Y-96667270D01*
X139521398Y-96664634D01*
X139514927Y-96661062D01*
X139509061Y-96655621D01*
X139503771Y-96647375D01*
X139499026Y-96635390D01*
X139494798Y-96618731D01*
X139491057Y-96596463D01*
X139487773Y-96567652D01*
X139484917Y-96531363D01*
X139482460Y-96486661D01*
X139480371Y-96432611D01*
X139478622Y-96368279D01*
X139477183Y-96292730D01*
X139476024Y-96205030D01*
X139475117Y-96104243D01*
X139474431Y-95989434D01*
X139473937Y-95859670D01*
X139473605Y-95714015D01*
X139473407Y-95551535D01*
X139473313Y-95371295D01*
X139473292Y-95172360D01*
X139473315Y-94953796D01*
X139473354Y-94714668D01*
X139473378Y-94454040D01*
X139473378Y-94411889D01*
X139473364Y-94148992D01*
X139473339Y-93907732D01*
X139473329Y-93687165D01*
X139473358Y-93486352D01*
X139473452Y-93304349D01*
X139473638Y-93140216D01*
X139473941Y-92993011D01*
X139474386Y-92861792D01*
X139474966Y-92751867D01*
X139777803Y-92751867D01*
X139817593Y-92809711D01*
X139828764Y-92825479D01*
X139838834Y-92839441D01*
X139847862Y-92852784D01*
X139855903Y-92866693D01*
X139863014Y-92882356D01*
X139869253Y-92900958D01*
X139874675Y-92923686D01*
X139879338Y-92951727D01*
X139883299Y-92986267D01*
X139886615Y-93028492D01*
X139889341Y-93079589D01*
X139891536Y-93140744D01*
X139893255Y-93213144D01*
X139894556Y-93297975D01*
X139895495Y-93396422D01*
X139896130Y-93509674D01*
X139896516Y-93638916D01*
X139896712Y-93785334D01*
X139896773Y-93950116D01*
X139896757Y-94134447D01*
X139896720Y-94339513D01*
X139896711Y-94462133D01*
X139896735Y-94679082D01*
X139896769Y-94874642D01*
X139896757Y-95049999D01*
X139896642Y-95206341D01*
X139896370Y-95344857D01*
X139895882Y-95466734D01*
X139895124Y-95573160D01*
X139894038Y-95665322D01*
X139892569Y-95744409D01*
X139890660Y-95811608D01*
X139888256Y-95868107D01*
X139885299Y-95915093D01*
X139881734Y-95953755D01*
X139877505Y-95985280D01*
X139872554Y-96010855D01*
X139866827Y-96031670D01*
X139860267Y-96048911D01*
X139852817Y-96063765D01*
X139844421Y-96077422D01*
X139835024Y-96091069D01*
X139824568Y-96105893D01*
X139818477Y-96114783D01*
X139779704Y-96172400D01*
X140311268Y-96172400D01*
X140434517Y-96172365D01*
X140537013Y-96172215D01*
X140620580Y-96171878D01*
X140687044Y-96171286D01*
X140738229Y-96170367D01*
X140775959Y-96169051D01*
X140802060Y-96167269D01*
X140818356Y-96164951D01*
X140826672Y-96162026D01*
X140828832Y-96158424D01*
X140826661Y-96154075D01*
X140825465Y-96152645D01*
X140800315Y-96115573D01*
X140774417Y-96062772D01*
X140750808Y-96000770D01*
X140742539Y-95974357D01*
X140737922Y-95956416D01*
X140734021Y-95935355D01*
X140730752Y-95909089D01*
X140728034Y-95875532D01*
X140725785Y-95832599D01*
X140723923Y-95778204D01*
X140722364Y-95710262D01*
X140721028Y-95626688D01*
X140719831Y-95525395D01*
X140718692Y-95404300D01*
X140718315Y-95359600D01*
X140717298Y-95234449D01*
X140716540Y-95130082D01*
X140716097Y-95044707D01*
X140716030Y-94976533D01*
X140716395Y-94923765D01*
X140717252Y-94884614D01*
X140718659Y-94857285D01*
X140720675Y-94839986D01*
X140723357Y-94830926D01*
X140726764Y-94828312D01*
X140730956Y-94830351D01*
X140735429Y-94834667D01*
X140745784Y-94847602D01*
X140767842Y-94876676D01*
X140800043Y-94919759D01*
X140840826Y-94974718D01*
X140888630Y-95039423D01*
X140941895Y-95111742D01*
X140999060Y-95189544D01*
X141058563Y-95270698D01*
X141118845Y-95353072D01*
X141178345Y-95434536D01*
X141235502Y-95512957D01*
X141288755Y-95586204D01*
X141336543Y-95652147D01*
X141377307Y-95708654D01*
X141409484Y-95753593D01*
X141431515Y-95784834D01*
X141436083Y-95791466D01*
X141459004Y-95828369D01*
X141485812Y-95876359D01*
X141511211Y-95925897D01*
X141514432Y-95932577D01*
X141536110Y-95980772D01*
X141548696Y-96018334D01*
X141554426Y-96054160D01*
X141555544Y-96096200D01*
X141554910Y-96172400D01*
X142709349Y-96172400D01*
X142618185Y-96078669D01*
X142571388Y-96028775D01*
X142521101Y-95972295D01*
X142475056Y-95918026D01*
X142454631Y-95892673D01*
X142424193Y-95853128D01*
X142384138Y-95799916D01*
X142335639Y-95734667D01*
X142279865Y-95659011D01*
X142217989Y-95574577D01*
X142151181Y-95482994D01*
X142080613Y-95385892D01*
X142007455Y-95284901D01*
X141932879Y-95181650D01*
X141858056Y-95077768D01*
X141784157Y-94974885D01*
X141712354Y-94874631D01*
X141643816Y-94778636D01*
X141579716Y-94688527D01*
X141521225Y-94605936D01*
X141469514Y-94532492D01*
X141425753Y-94469824D01*
X141391115Y-94419561D01*
X141366770Y-94383334D01*
X141353889Y-94362771D01*
X141352131Y-94358668D01*
X141360090Y-94347342D01*
X141380885Y-94320162D01*
X141413153Y-94278829D01*
X141455530Y-94225044D01*
X141506653Y-94160506D01*
X141565159Y-94086918D01*
X141629686Y-94005978D01*
X141698869Y-93919388D01*
X141771347Y-93828848D01*
X141845754Y-93736060D01*
X141905483Y-93661702D01*
X142916489Y-93661702D01*
X142922398Y-93674659D01*
X142936728Y-93696908D01*
X142937775Y-93698391D01*
X142956562Y-93728544D01*
X142976209Y-93765375D01*
X142980108Y-93773511D01*
X142983644Y-93781940D01*
X142986770Y-93792059D01*
X142989514Y-93805260D01*
X142991908Y-93822938D01*
X142993981Y-93846484D01*
X142995765Y-93877293D01*
X142997288Y-93916757D01*
X142998581Y-93966269D01*
X142999674Y-94027223D01*
X143000597Y-94101011D01*
X143001381Y-94189028D01*
X143002055Y-94292665D01*
X143002650Y-94413316D01*
X143003195Y-94552374D01*
X143003721Y-94711232D01*
X143004255Y-94890089D01*
X143004794Y-95075207D01*
X143005228Y-95239145D01*
X143005491Y-95383303D01*
X143005516Y-95509079D01*
X143005235Y-95617871D01*
X143004581Y-95711077D01*
X143003486Y-95790097D01*
X143001882Y-95856328D01*
X142999703Y-95911170D01*
X142996881Y-95956021D01*
X142993349Y-95992278D01*
X142989039Y-96021341D01*
X142983883Y-96044609D01*
X142977815Y-96063479D01*
X142970767Y-96079351D01*
X142962671Y-96093622D01*
X142953460Y-96107691D01*
X142944960Y-96120158D01*
X142927824Y-96146452D01*
X142917678Y-96164037D01*
X142916489Y-96167257D01*
X142927396Y-96168334D01*
X142958589Y-96169335D01*
X143007777Y-96170235D01*
X143072667Y-96171010D01*
X143150970Y-96171637D01*
X143240393Y-96172091D01*
X143338644Y-96172349D01*
X143407555Y-96172400D01*
X143512548Y-96172180D01*
X143609390Y-96171548D01*
X143695893Y-96170549D01*
X143769868Y-96169227D01*
X143829126Y-96167626D01*
X143871480Y-96165791D01*
X143894740Y-96163765D01*
X143898622Y-96162493D01*
X143890924Y-96147591D01*
X143882926Y-96139560D01*
X143869754Y-96122434D01*
X143852515Y-96092183D01*
X143840593Y-96067622D01*
X143813955Y-96008711D01*
X143810880Y-94831845D01*
X143807805Y-93654978D01*
X143362147Y-93654978D01*
X143264330Y-93655142D01*
X143173936Y-93655611D01*
X143093370Y-93656347D01*
X143025038Y-93657316D01*
X142971344Y-93658480D01*
X142934695Y-93659803D01*
X142917496Y-93661249D01*
X142916489Y-93661702D01*
X141905483Y-93661702D01*
X141920730Y-93642722D01*
X141994910Y-93550537D01*
X142066931Y-93461204D01*
X142135431Y-93376424D01*
X142199045Y-93297898D01*
X142256412Y-93227326D01*
X142306167Y-93166409D01*
X142346948Y-93116847D01*
X142364112Y-93096178D01*
X142450404Y-92995516D01*
X142527003Y-92912259D01*
X142595817Y-92844438D01*
X142658752Y-92790089D01*
X142668133Y-92782722D01*
X142707644Y-92752117D01*
X141575884Y-92751867D01*
X141581173Y-92799844D01*
X141577870Y-92857188D01*
X141556339Y-92925463D01*
X141516365Y-93005212D01*
X141471057Y-93077495D01*
X141454839Y-93100140D01*
X141426786Y-93137696D01*
X141388570Y-93188021D01*
X141341863Y-93248973D01*
X141288339Y-93318411D01*
X141229669Y-93394194D01*
X141167525Y-93474180D01*
X141103579Y-93556228D01*
X141039505Y-93638196D01*
X140976973Y-93717943D01*
X140917657Y-93793327D01*
X140863229Y-93862207D01*
X140815361Y-93922442D01*
X140775725Y-93971889D01*
X140745994Y-94008408D01*
X140727839Y-94029858D01*
X140724780Y-94033156D01*
X140721921Y-94025149D01*
X140719707Y-93994855D01*
X140718143Y-93942556D01*
X140717233Y-93868531D01*
X140716980Y-93773063D01*
X140717387Y-93656434D01*
X140718296Y-93536445D01*
X140719618Y-93404333D01*
X140721143Y-93292594D01*
X140723119Y-93199025D01*
X140725794Y-93121419D01*
X140729418Y-93057574D01*
X140734239Y-93005283D01*
X140740506Y-92962344D01*
X140748468Y-92926551D01*
X140758373Y-92895700D01*
X140770469Y-92867586D01*
X140785007Y-92840005D01*
X140799689Y-92814966D01*
X140837686Y-92751867D01*
X139777803Y-92751867D01*
X139474966Y-92751867D01*
X139474999Y-92745617D01*
X139475805Y-92643544D01*
X139476830Y-92554633D01*
X139478100Y-92477941D01*
X139479640Y-92412527D01*
X139481476Y-92357449D01*
X139483633Y-92311765D01*
X139486137Y-92274534D01*
X139489013Y-92244813D01*
X139492287Y-92221662D01*
X139495985Y-92204139D01*
X139500131Y-92191301D01*
X139504753Y-92182208D01*
X139509874Y-92175918D01*
X139515522Y-92171488D01*
X139521721Y-92167978D01*
X139528496Y-92164445D01*
X139534492Y-92160876D01*
X139539725Y-92158300D01*
X139547901Y-92155972D01*
X139560114Y-92153878D01*
X139577459Y-92152007D01*
X139601031Y-92150347D01*
X139631923Y-92148884D01*
X139671232Y-92147608D01*
X139720050Y-92146504D01*
X139779473Y-92145561D01*
X139850596Y-92144767D01*
X139934512Y-92144109D01*
X140032317Y-92143575D01*
X140145106Y-92143153D01*
X140273971Y-92142829D01*
X140420009Y-92142592D01*
X140584314Y-92142430D01*
X140767980Y-92142330D01*
X140972103Y-92142280D01*
X141183247Y-92142267D01*
X142803600Y-92142267D01*
X142803600Y-92239054D01*
G36*
X146078429Y-92699071D02*
X146238570Y-92720245D01*
X146402510Y-92760385D01*
X146572313Y-92819889D01*
X146750043Y-92899154D01*
X146761310Y-92904699D01*
X146819005Y-92932725D01*
X146870552Y-92956802D01*
X146912191Y-92975249D01*
X146940162Y-92986386D01*
X146949733Y-92988933D01*
X146968950Y-92993941D01*
X146973561Y-92998147D01*
X146968458Y-93008580D01*
X146952418Y-93034868D01*
X146927288Y-93074257D01*
X146894914Y-93123991D01*
X146857143Y-93181315D01*
X146815822Y-93243476D01*
X146772798Y-93307718D01*
X146729917Y-93371285D01*
X146689026Y-93431425D01*
X146651971Y-93485380D01*
X146620600Y-93530397D01*
X146596759Y-93563721D01*
X146582294Y-93582597D01*
X146580309Y-93584787D01*
X146570191Y-93580138D01*
X146547850Y-93562962D01*
X146517280Y-93536440D01*
X146501536Y-93521964D01*
X146405047Y-93446682D01*
X146298336Y-93391241D01*
X146182832Y-93356141D01*
X146059962Y-93341880D01*
X145990561Y-93343051D01*
X145869423Y-93360212D01*
X145760205Y-93396094D01*
X145662582Y-93450959D01*
X145576228Y-93525070D01*
X145500815Y-93618688D01*
X145436018Y-93732076D01*
X145398601Y-93818667D01*
X145354748Y-93954366D01*
X145322428Y-94101850D01*
X145301557Y-94257314D01*
X145292051Y-94416956D01*
X145293827Y-94576973D01*
X145306803Y-94733561D01*
X145330894Y-94882918D01*
X145366018Y-95021240D01*
X145412092Y-95144724D01*
X145428373Y-95178978D01*
X145496620Y-95293064D01*
X145577079Y-95389557D01*
X145668570Y-95467670D01*
X145769911Y-95526617D01*
X145879920Y-95565612D01*
X145997415Y-95583868D01*
X146038883Y-95585211D01*
X146160441Y-95574290D01*
X146280878Y-95541474D01*
X146398666Y-95487439D01*
X146512277Y-95412865D01*
X146603685Y-95334539D01*
X146650215Y-95290008D01*
X146831483Y-95587271D01*
X146876580Y-95661433D01*
X146917819Y-95729646D01*
X146953735Y-95789459D01*
X146982866Y-95838420D01*
X147003750Y-95874079D01*
X147014924Y-95893984D01*
X147016375Y-95897079D01*
X147008146Y-95906718D01*
X146982567Y-95923999D01*
X146942873Y-95947283D01*
X146892297Y-95974934D01*
X146834074Y-96005315D01*
X146771437Y-96036790D01*
X146707621Y-96067722D01*
X146645860Y-96096473D01*
X146589388Y-96121408D01*
X146541438Y-96140889D01*
X146517986Y-96149318D01*
X146384221Y-96187133D01*
X146246327Y-96212136D01*
X146098622Y-96225140D01*
X145971833Y-96227468D01*
X145903878Y-96226373D01*
X145838277Y-96224275D01*
X145780847Y-96221434D01*
X145737403Y-96218106D01*
X145723298Y-96216422D01*
X145584284Y-96187587D01*
X145442757Y-96142468D01*
X145305275Y-96083750D01*
X145178394Y-96014120D01*
X145100889Y-95961441D01*
X144973481Y-95853239D01*
X144855178Y-95726671D01*
X144748172Y-95584866D01*
X144654652Y-95430951D01*
X144576810Y-95268053D01*
X144532956Y-95150756D01*
X144482708Y-94967128D01*
X144449209Y-94772581D01*
X144432449Y-94571325D01*
X144432416Y-94367568D01*
X144449101Y-94165521D01*
X144482493Y-93969392D01*
X144532580Y-93783391D01*
X144536397Y-93771803D01*
X144599281Y-93609750D01*
X144676028Y-93461832D01*
X144769242Y-93323865D01*
X144881527Y-93191661D01*
X144925392Y-93146399D01*
X145061534Y-93022457D01*
X145201491Y-92919915D01*
X145347411Y-92837656D01*
X145501442Y-92774564D01*
X145665732Y-92729523D01*
X145761289Y-92712033D01*
X145920023Y-92696466D01*
X146078429Y-92699071D01*
X146078429Y-92699071D01*
G37*
X146078429Y-92699071D02*
X146238570Y-92720245D01*
X146402510Y-92760385D01*
X146572313Y-92819889D01*
X146750043Y-92899154D01*
X146761310Y-92904699D01*
X146819005Y-92932725D01*
X146870552Y-92956802D01*
X146912191Y-92975249D01*
X146940162Y-92986386D01*
X146949733Y-92988933D01*
X146968950Y-92993941D01*
X146973561Y-92998147D01*
X146968458Y-93008580D01*
X146952418Y-93034868D01*
X146927288Y-93074257D01*
X146894914Y-93123991D01*
X146857143Y-93181315D01*
X146815822Y-93243476D01*
X146772798Y-93307718D01*
X146729917Y-93371285D01*
X146689026Y-93431425D01*
X146651971Y-93485380D01*
X146620600Y-93530397D01*
X146596759Y-93563721D01*
X146582294Y-93582597D01*
X146580309Y-93584787D01*
X146570191Y-93580138D01*
X146547850Y-93562962D01*
X146517280Y-93536440D01*
X146501536Y-93521964D01*
X146405047Y-93446682D01*
X146298336Y-93391241D01*
X146182832Y-93356141D01*
X146059962Y-93341880D01*
X145990561Y-93343051D01*
X145869423Y-93360212D01*
X145760205Y-93396094D01*
X145662582Y-93450959D01*
X145576228Y-93525070D01*
X145500815Y-93618688D01*
X145436018Y-93732076D01*
X145398601Y-93818667D01*
X145354748Y-93954366D01*
X145322428Y-94101850D01*
X145301557Y-94257314D01*
X145292051Y-94416956D01*
X145293827Y-94576973D01*
X145306803Y-94733561D01*
X145330894Y-94882918D01*
X145366018Y-95021240D01*
X145412092Y-95144724D01*
X145428373Y-95178978D01*
X145496620Y-95293064D01*
X145577079Y-95389557D01*
X145668570Y-95467670D01*
X145769911Y-95526617D01*
X145879920Y-95565612D01*
X145997415Y-95583868D01*
X146038883Y-95585211D01*
X146160441Y-95574290D01*
X146280878Y-95541474D01*
X146398666Y-95487439D01*
X146512277Y-95412865D01*
X146603685Y-95334539D01*
X146650215Y-95290008D01*
X146831483Y-95587271D01*
X146876580Y-95661433D01*
X146917819Y-95729646D01*
X146953735Y-95789459D01*
X146982866Y-95838420D01*
X147003750Y-95874079D01*
X147014924Y-95893984D01*
X147016375Y-95897079D01*
X147008146Y-95906718D01*
X146982567Y-95923999D01*
X146942873Y-95947283D01*
X146892297Y-95974934D01*
X146834074Y-96005315D01*
X146771437Y-96036790D01*
X146707621Y-96067722D01*
X146645860Y-96096473D01*
X146589388Y-96121408D01*
X146541438Y-96140889D01*
X146517986Y-96149318D01*
X146384221Y-96187133D01*
X146246327Y-96212136D01*
X146098622Y-96225140D01*
X145971833Y-96227468D01*
X145903878Y-96226373D01*
X145838277Y-96224275D01*
X145780847Y-96221434D01*
X145737403Y-96218106D01*
X145723298Y-96216422D01*
X145584284Y-96187587D01*
X145442757Y-96142468D01*
X145305275Y-96083750D01*
X145178394Y-96014120D01*
X145100889Y-95961441D01*
X144973481Y-95853239D01*
X144855178Y-95726671D01*
X144748172Y-95584866D01*
X144654652Y-95430951D01*
X144576810Y-95268053D01*
X144532956Y-95150756D01*
X144482708Y-94967128D01*
X144449209Y-94772581D01*
X144432449Y-94571325D01*
X144432416Y-94367568D01*
X144449101Y-94165521D01*
X144482493Y-93969392D01*
X144532580Y-93783391D01*
X144536397Y-93771803D01*
X144599281Y-93609750D01*
X144676028Y-93461832D01*
X144769242Y-93323865D01*
X144881527Y-93191661D01*
X144925392Y-93146399D01*
X145061534Y-93022457D01*
X145201491Y-92919915D01*
X145347411Y-92837656D01*
X145501442Y-92774564D01*
X145665732Y-92729523D01*
X145761289Y-92712033D01*
X145920023Y-92696466D01*
X146078429Y-92699071D01*
G36*
X148423574Y-93616552D02*
X148575492Y-93636567D01*
X148710756Y-93670202D01*
X148830239Y-93717725D01*
X148934815Y-93779405D01*
X149012424Y-93842965D01*
X149081265Y-93917099D01*
X149135006Y-93996871D01*
X149177910Y-94089091D01*
X149193384Y-94132161D01*
X149206244Y-94171142D01*
X149217446Y-94207289D01*
X149227120Y-94242434D01*
X149235396Y-94278410D01*
X149242403Y-94317050D01*
X149248272Y-94360185D01*
X149253131Y-94409649D01*
X149257110Y-94467273D01*
X149260340Y-94534891D01*
X149262949Y-94614334D01*
X149265067Y-94707436D01*
X149266824Y-94816027D01*
X149268349Y-94941942D01*
X149269772Y-95087012D01*
X149271025Y-95229778D01*
X149272351Y-95385968D01*
X149273556Y-95521239D01*
X149274766Y-95637246D01*
X149276106Y-95735645D01*
X149277700Y-95818093D01*
X149279675Y-95886246D01*
X149282156Y-95941760D01*
X149285269Y-95986292D01*
X149289138Y-96021498D01*
X149293889Y-96049034D01*
X149299648Y-96070556D01*
X149306539Y-96087722D01*
X149314689Y-96102186D01*
X149324223Y-96115606D01*
X149335266Y-96129638D01*
X149339566Y-96135071D01*
X149355386Y-96157910D01*
X149362422Y-96173463D01*
X149362444Y-96173922D01*
X149351567Y-96176121D01*
X149320582Y-96178147D01*
X149271957Y-96179942D01*
X149208163Y-96181451D01*
X149131669Y-96182616D01*
X149044944Y-96183380D01*
X148950457Y-96183686D01*
X148939550Y-96183689D01*
X148516657Y-96183689D01*
X148513395Y-96087622D01*
X148510133Y-95991556D01*
X148448044Y-96042543D01*
X148350714Y-96110057D01*
X148240813Y-96164749D01*
X148154349Y-96194978D01*
X148085278Y-96209666D01*
X148001925Y-96219659D01*
X147912159Y-96224646D01*
X147823845Y-96224313D01*
X147744851Y-96218351D01*
X147708622Y-96212638D01*
X147568603Y-96174776D01*
X147442178Y-96119932D01*
X147330260Y-96048924D01*
X147233762Y-95962568D01*
X147153600Y-95861679D01*
X147090687Y-95747076D01*
X147046312Y-95620984D01*
X147033978Y-95564401D01*
X147026368Y-95502202D01*
X147022739Y-95427363D01*
X147022245Y-95393467D01*
X147022310Y-95390282D01*
X147782248Y-95390282D01*
X147791541Y-95465333D01*
X147819728Y-95529160D01*
X147868197Y-95584798D01*
X147873254Y-95589211D01*
X147921548Y-95624037D01*
X147973257Y-95646620D01*
X148033989Y-95658540D01*
X148109352Y-95661383D01*
X148127459Y-95660978D01*
X148181278Y-95658325D01*
X148221308Y-95652909D01*
X148256324Y-95642745D01*
X148295103Y-95625850D01*
X148305745Y-95620672D01*
X148366396Y-95584844D01*
X148413215Y-95542212D01*
X148425952Y-95526973D01*
X148470622Y-95470462D01*
X148470622Y-95274586D01*
X148470086Y-95195939D01*
X148468396Y-95137988D01*
X148465428Y-95098875D01*
X148461057Y-95076741D01*
X148456972Y-95070274D01*
X148441047Y-95067111D01*
X148407264Y-95064488D01*
X148360340Y-95062655D01*
X148304993Y-95061857D01*
X148296106Y-95061842D01*
X148175330Y-95067096D01*
X148072660Y-95083263D01*
X147986106Y-95110961D01*
X147913681Y-95150808D01*
X147858751Y-95197758D01*
X147814204Y-95255645D01*
X147789480Y-95318693D01*
X147782248Y-95390282D01*
X147022310Y-95390282D01*
X147024178Y-95299712D01*
X147032522Y-95220812D01*
X147048768Y-95149590D01*
X147074405Y-95078864D01*
X147098401Y-95026493D01*
X147157020Y-94931196D01*
X147235117Y-94843170D01*
X147330315Y-94764017D01*
X147440238Y-94695340D01*
X147562510Y-94638741D01*
X147694755Y-94595821D01*
X147759422Y-94580882D01*
X147895604Y-94558777D01*
X148044049Y-94544194D01*
X148195505Y-94537813D01*
X148322064Y-94539445D01*
X148483950Y-94546224D01*
X148476530Y-94487245D01*
X148457238Y-94388092D01*
X148426104Y-94307372D01*
X148382269Y-94244466D01*
X148324871Y-94198756D01*
X148253048Y-94169622D01*
X148165941Y-94156447D01*
X148062686Y-94158611D01*
X148024711Y-94162612D01*
X147883520Y-94187780D01*
X147746707Y-94228814D01*
X147652178Y-94266815D01*
X147607018Y-94286190D01*
X147568585Y-94301760D01*
X147542234Y-94311405D01*
X147534546Y-94313452D01*
X147524802Y-94304374D01*
X147508083Y-94275405D01*
X147484232Y-94226217D01*
X147453093Y-94156484D01*
X147414507Y-94065879D01*
X147407910Y-94050089D01*
X147377853Y-93977772D01*
X147350874Y-93912425D01*
X147328136Y-93856906D01*
X147310806Y-93814072D01*
X147300048Y-93786781D01*
X147296941Y-93777942D01*
X147306940Y-93773187D01*
X147333217Y-93767910D01*
X147361489Y-93764231D01*
X147391646Y-93759474D01*
X147439433Y-93750028D01*
X147500612Y-93736820D01*
X147570946Y-93720776D01*
X147646194Y-93702820D01*
X147674755Y-93695797D01*
X147779816Y-93670209D01*
X147867480Y-93650147D01*
X147942068Y-93634969D01*
X148007903Y-93624035D01*
X148069307Y-93616704D01*
X148130602Y-93612335D01*
X148196110Y-93610287D01*
X148254128Y-93609889D01*
X148423574Y-93616552D01*
X148423574Y-93616552D01*
G37*
X148423574Y-93616552D02*
X148575492Y-93636567D01*
X148710756Y-93670202D01*
X148830239Y-93717725D01*
X148934815Y-93779405D01*
X149012424Y-93842965D01*
X149081265Y-93917099D01*
X149135006Y-93996871D01*
X149177910Y-94089091D01*
X149193384Y-94132161D01*
X149206244Y-94171142D01*
X149217446Y-94207289D01*
X149227120Y-94242434D01*
X149235396Y-94278410D01*
X149242403Y-94317050D01*
X149248272Y-94360185D01*
X149253131Y-94409649D01*
X149257110Y-94467273D01*
X149260340Y-94534891D01*
X149262949Y-94614334D01*
X149265067Y-94707436D01*
X149266824Y-94816027D01*
X149268349Y-94941942D01*
X149269772Y-95087012D01*
X149271025Y-95229778D01*
X149272351Y-95385968D01*
X149273556Y-95521239D01*
X149274766Y-95637246D01*
X149276106Y-95735645D01*
X149277700Y-95818093D01*
X149279675Y-95886246D01*
X149282156Y-95941760D01*
X149285269Y-95986292D01*
X149289138Y-96021498D01*
X149293889Y-96049034D01*
X149299648Y-96070556D01*
X149306539Y-96087722D01*
X149314689Y-96102186D01*
X149324223Y-96115606D01*
X149335266Y-96129638D01*
X149339566Y-96135071D01*
X149355386Y-96157910D01*
X149362422Y-96173463D01*
X149362444Y-96173922D01*
X149351567Y-96176121D01*
X149320582Y-96178147D01*
X149271957Y-96179942D01*
X149208163Y-96181451D01*
X149131669Y-96182616D01*
X149044944Y-96183380D01*
X148950457Y-96183686D01*
X148939550Y-96183689D01*
X148516657Y-96183689D01*
X148513395Y-96087622D01*
X148510133Y-95991556D01*
X148448044Y-96042543D01*
X148350714Y-96110057D01*
X148240813Y-96164749D01*
X148154349Y-96194978D01*
X148085278Y-96209666D01*
X148001925Y-96219659D01*
X147912159Y-96224646D01*
X147823845Y-96224313D01*
X147744851Y-96218351D01*
X147708622Y-96212638D01*
X147568603Y-96174776D01*
X147442178Y-96119932D01*
X147330260Y-96048924D01*
X147233762Y-95962568D01*
X147153600Y-95861679D01*
X147090687Y-95747076D01*
X147046312Y-95620984D01*
X147033978Y-95564401D01*
X147026368Y-95502202D01*
X147022739Y-95427363D01*
X147022245Y-95393467D01*
X147022310Y-95390282D01*
X147782248Y-95390282D01*
X147791541Y-95465333D01*
X147819728Y-95529160D01*
X147868197Y-95584798D01*
X147873254Y-95589211D01*
X147921548Y-95624037D01*
X147973257Y-95646620D01*
X148033989Y-95658540D01*
X148109352Y-95661383D01*
X148127459Y-95660978D01*
X148181278Y-95658325D01*
X148221308Y-95652909D01*
X148256324Y-95642745D01*
X148295103Y-95625850D01*
X148305745Y-95620672D01*
X148366396Y-95584844D01*
X148413215Y-95542212D01*
X148425952Y-95526973D01*
X148470622Y-95470462D01*
X148470622Y-95274586D01*
X148470086Y-95195939D01*
X148468396Y-95137988D01*
X148465428Y-95098875D01*
X148461057Y-95076741D01*
X148456972Y-95070274D01*
X148441047Y-95067111D01*
X148407264Y-95064488D01*
X148360340Y-95062655D01*
X148304993Y-95061857D01*
X148296106Y-95061842D01*
X148175330Y-95067096D01*
X148072660Y-95083263D01*
X147986106Y-95110961D01*
X147913681Y-95150808D01*
X147858751Y-95197758D01*
X147814204Y-95255645D01*
X147789480Y-95318693D01*
X147782248Y-95390282D01*
X147022310Y-95390282D01*
X147024178Y-95299712D01*
X147032522Y-95220812D01*
X147048768Y-95149590D01*
X147074405Y-95078864D01*
X147098401Y-95026493D01*
X147157020Y-94931196D01*
X147235117Y-94843170D01*
X147330315Y-94764017D01*
X147440238Y-94695340D01*
X147562510Y-94638741D01*
X147694755Y-94595821D01*
X147759422Y-94580882D01*
X147895604Y-94558777D01*
X148044049Y-94544194D01*
X148195505Y-94537813D01*
X148322064Y-94539445D01*
X148483950Y-94546224D01*
X148476530Y-94487245D01*
X148457238Y-94388092D01*
X148426104Y-94307372D01*
X148382269Y-94244466D01*
X148324871Y-94198756D01*
X148253048Y-94169622D01*
X148165941Y-94156447D01*
X148062686Y-94158611D01*
X148024711Y-94162612D01*
X147883520Y-94187780D01*
X147746707Y-94228814D01*
X147652178Y-94266815D01*
X147607018Y-94286190D01*
X147568585Y-94301760D01*
X147542234Y-94311405D01*
X147534546Y-94313452D01*
X147524802Y-94304374D01*
X147508083Y-94275405D01*
X147484232Y-94226217D01*
X147453093Y-94156484D01*
X147414507Y-94065879D01*
X147407910Y-94050089D01*
X147377853Y-93977772D01*
X147350874Y-93912425D01*
X147328136Y-93856906D01*
X147310806Y-93814072D01*
X147300048Y-93786781D01*
X147296941Y-93777942D01*
X147306940Y-93773187D01*
X147333217Y-93767910D01*
X147361489Y-93764231D01*
X147391646Y-93759474D01*
X147439433Y-93750028D01*
X147500612Y-93736820D01*
X147570946Y-93720776D01*
X147646194Y-93702820D01*
X147674755Y-93695797D01*
X147779816Y-93670209D01*
X147867480Y-93650147D01*
X147942068Y-93634969D01*
X148007903Y-93624035D01*
X148069307Y-93616704D01*
X148130602Y-93612335D01*
X148196110Y-93610287D01*
X148254128Y-93609889D01*
X148423574Y-93616552D01*
G36*
X151936507Y-94222245D02*
X151936526Y-94456662D01*
X151936552Y-94669603D01*
X151936625Y-94862168D01*
X151936782Y-95035459D01*
X151937064Y-95190576D01*
X151937509Y-95328620D01*
X151938156Y-95450692D01*
X151939045Y-95557894D01*
X151940213Y-95651326D01*
X151941701Y-95732090D01*
X151943546Y-95801286D01*
X151945789Y-95860015D01*
X151948469Y-95909379D01*
X151951623Y-95950478D01*
X151955292Y-95984413D01*
X151959513Y-96012286D01*
X151964327Y-96035198D01*
X151969773Y-96054249D01*
X151975888Y-96070540D01*
X151982712Y-96085173D01*
X151990285Y-96099249D01*
X151998645Y-96113868D01*
X152003839Y-96122974D01*
X152038104Y-96183689D01*
X151179955Y-96183689D01*
X151179955Y-96087733D01*
X151179224Y-96044370D01*
X151177272Y-96011205D01*
X151174463Y-95993424D01*
X151173221Y-95991778D01*
X151161799Y-95998662D01*
X151139084Y-96016505D01*
X151116385Y-96035879D01*
X151061800Y-96076614D01*
X150992321Y-96117617D01*
X150915270Y-96155123D01*
X150837965Y-96185364D01*
X150807113Y-96195012D01*
X150738616Y-96209578D01*
X150655764Y-96219539D01*
X150566371Y-96224583D01*
X150478248Y-96224396D01*
X150399207Y-96218666D01*
X150361511Y-96212858D01*
X150223414Y-96174797D01*
X150096113Y-96117073D01*
X149980292Y-96040211D01*
X149876637Y-95944739D01*
X149785833Y-95831179D01*
X149719031Y-95720381D01*
X149664164Y-95603625D01*
X149622163Y-95484276D01*
X149592167Y-95358283D01*
X149573311Y-95221594D01*
X149564732Y-95070158D01*
X149564006Y-94992711D01*
X149566100Y-94935934D01*
X150395217Y-94935934D01*
X150395424Y-95029002D01*
X150398337Y-95116692D01*
X150404000Y-95193772D01*
X150412455Y-95255009D01*
X150415038Y-95267350D01*
X150446840Y-95374633D01*
X150488498Y-95461658D01*
X150540363Y-95528642D01*
X150602781Y-95575805D01*
X150676100Y-95603365D01*
X150760669Y-95611541D01*
X150856835Y-95600551D01*
X150920311Y-95584829D01*
X150969454Y-95566639D01*
X151023583Y-95540791D01*
X151064244Y-95517089D01*
X151134800Y-95470721D01*
X151134800Y-94320530D01*
X151067392Y-94276962D01*
X150988867Y-94236040D01*
X150904681Y-94209389D01*
X150819557Y-94197465D01*
X150738216Y-94200722D01*
X150665380Y-94219615D01*
X150633426Y-94235184D01*
X150575501Y-94278181D01*
X150526544Y-94334953D01*
X150485390Y-94407575D01*
X150450874Y-94498121D01*
X150421833Y-94608666D01*
X150420552Y-94614533D01*
X150410381Y-94676788D01*
X150402739Y-94754594D01*
X150397670Y-94842720D01*
X150395217Y-94935934D01*
X149566100Y-94935934D01*
X149571857Y-94779895D01*
X149593802Y-94584059D01*
X149629786Y-94405332D01*
X149679759Y-94243845D01*
X149743668Y-94099726D01*
X149821462Y-93973106D01*
X149913089Y-93864115D01*
X150018497Y-93772883D01*
X150063662Y-93741932D01*
X150164611Y-93685785D01*
X150267901Y-93646174D01*
X150377989Y-93622014D01*
X150499330Y-93612219D01*
X150591836Y-93613265D01*
X150721490Y-93624231D01*
X150834084Y-93646046D01*
X150932875Y-93679714D01*
X151021121Y-93726236D01*
X151069986Y-93760448D01*
X151099353Y-93782362D01*
X151121043Y-93797333D01*
X151129253Y-93801733D01*
X151130868Y-93790904D01*
X151132159Y-93760251D01*
X151133138Y-93712526D01*
X151133817Y-93650479D01*
X151134210Y-93576862D01*
X151134330Y-93494427D01*
X151134188Y-93405925D01*
X151133797Y-93314107D01*
X151133171Y-93221724D01*
X151132320Y-93131528D01*
X151131260Y-93046271D01*
X151130001Y-92968703D01*
X151128556Y-92901576D01*
X151126938Y-92847641D01*
X151125161Y-92809650D01*
X151124669Y-92802667D01*
X151117092Y-92732251D01*
X151105531Y-92677102D01*
X151087792Y-92629981D01*
X151061682Y-92583647D01*
X151055415Y-92574067D01*
X151030983Y-92537378D01*
X151936311Y-92537378D01*
X151936507Y-94222245D01*
X151936507Y-94222245D01*
G37*
X151936507Y-94222245D02*
X151936526Y-94456662D01*
X151936552Y-94669603D01*
X151936625Y-94862168D01*
X151936782Y-95035459D01*
X151937064Y-95190576D01*
X151937509Y-95328620D01*
X151938156Y-95450692D01*
X151939045Y-95557894D01*
X151940213Y-95651326D01*
X151941701Y-95732090D01*
X151943546Y-95801286D01*
X151945789Y-95860015D01*
X151948469Y-95909379D01*
X151951623Y-95950478D01*
X151955292Y-95984413D01*
X151959513Y-96012286D01*
X151964327Y-96035198D01*
X151969773Y-96054249D01*
X151975888Y-96070540D01*
X151982712Y-96085173D01*
X151990285Y-96099249D01*
X151998645Y-96113868D01*
X152003839Y-96122974D01*
X152038104Y-96183689D01*
X151179955Y-96183689D01*
X151179955Y-96087733D01*
X151179224Y-96044370D01*
X151177272Y-96011205D01*
X151174463Y-95993424D01*
X151173221Y-95991778D01*
X151161799Y-95998662D01*
X151139084Y-96016505D01*
X151116385Y-96035879D01*
X151061800Y-96076614D01*
X150992321Y-96117617D01*
X150915270Y-96155123D01*
X150837965Y-96185364D01*
X150807113Y-96195012D01*
X150738616Y-96209578D01*
X150655764Y-96219539D01*
X150566371Y-96224583D01*
X150478248Y-96224396D01*
X150399207Y-96218666D01*
X150361511Y-96212858D01*
X150223414Y-96174797D01*
X150096113Y-96117073D01*
X149980292Y-96040211D01*
X149876637Y-95944739D01*
X149785833Y-95831179D01*
X149719031Y-95720381D01*
X149664164Y-95603625D01*
X149622163Y-95484276D01*
X149592167Y-95358283D01*
X149573311Y-95221594D01*
X149564732Y-95070158D01*
X149564006Y-94992711D01*
X149566100Y-94935934D01*
X150395217Y-94935934D01*
X150395424Y-95029002D01*
X150398337Y-95116692D01*
X150404000Y-95193772D01*
X150412455Y-95255009D01*
X150415038Y-95267350D01*
X150446840Y-95374633D01*
X150488498Y-95461658D01*
X150540363Y-95528642D01*
X150602781Y-95575805D01*
X150676100Y-95603365D01*
X150760669Y-95611541D01*
X150856835Y-95600551D01*
X150920311Y-95584829D01*
X150969454Y-95566639D01*
X151023583Y-95540791D01*
X151064244Y-95517089D01*
X151134800Y-95470721D01*
X151134800Y-94320530D01*
X151067392Y-94276962D01*
X150988867Y-94236040D01*
X150904681Y-94209389D01*
X150819557Y-94197465D01*
X150738216Y-94200722D01*
X150665380Y-94219615D01*
X150633426Y-94235184D01*
X150575501Y-94278181D01*
X150526544Y-94334953D01*
X150485390Y-94407575D01*
X150450874Y-94498121D01*
X150421833Y-94608666D01*
X150420552Y-94614533D01*
X150410381Y-94676788D01*
X150402739Y-94754594D01*
X150397670Y-94842720D01*
X150395217Y-94935934D01*
X149566100Y-94935934D01*
X149571857Y-94779895D01*
X149593802Y-94584059D01*
X149629786Y-94405332D01*
X149679759Y-94243845D01*
X149743668Y-94099726D01*
X149821462Y-93973106D01*
X149913089Y-93864115D01*
X150018497Y-93772883D01*
X150063662Y-93741932D01*
X150164611Y-93685785D01*
X150267901Y-93646174D01*
X150377989Y-93622014D01*
X150499330Y-93612219D01*
X150591836Y-93613265D01*
X150721490Y-93624231D01*
X150834084Y-93646046D01*
X150932875Y-93679714D01*
X151021121Y-93726236D01*
X151069986Y-93760448D01*
X151099353Y-93782362D01*
X151121043Y-93797333D01*
X151129253Y-93801733D01*
X151130868Y-93790904D01*
X151132159Y-93760251D01*
X151133138Y-93712526D01*
X151133817Y-93650479D01*
X151134210Y-93576862D01*
X151134330Y-93494427D01*
X151134188Y-93405925D01*
X151133797Y-93314107D01*
X151133171Y-93221724D01*
X151132320Y-93131528D01*
X151131260Y-93046271D01*
X151130001Y-92968703D01*
X151128556Y-92901576D01*
X151126938Y-92847641D01*
X151125161Y-92809650D01*
X151124669Y-92802667D01*
X151117092Y-92732251D01*
X151105531Y-92677102D01*
X151087792Y-92629981D01*
X151061682Y-92583647D01*
X151055415Y-92574067D01*
X151030983Y-92537378D01*
X151936311Y-92537378D01*
X151936507Y-94222245D01*
G36*
X143476957Y-91776571D02*
X143573232Y-91800809D01*
X143659816Y-91843641D01*
X143734627Y-91903419D01*
X143795582Y-91978494D01*
X143840601Y-92067220D01*
X143866864Y-92163530D01*
X143872714Y-92260795D01*
X143857860Y-92354654D01*
X143824160Y-92442511D01*
X143773472Y-92521770D01*
X143707655Y-92589836D01*
X143628566Y-92644112D01*
X143538066Y-92682002D01*
X143486800Y-92694426D01*
X143442302Y-92701947D01*
X143408001Y-92704919D01*
X143375040Y-92703094D01*
X143334566Y-92696225D01*
X143301469Y-92689250D01*
X143208053Y-92657741D01*
X143124381Y-92606617D01*
X143052335Y-92537429D01*
X142993800Y-92451728D01*
X142979852Y-92424489D01*
X142963414Y-92388122D01*
X142953106Y-92357582D01*
X142947540Y-92325450D01*
X142945331Y-92284307D01*
X142945052Y-92238222D01*
X142949139Y-92153865D01*
X142962554Y-92084586D01*
X142987744Y-92023961D01*
X143027154Y-91965567D01*
X143065702Y-91921302D01*
X143137594Y-91855484D01*
X143212687Y-91810053D01*
X143295438Y-91782850D01*
X143373072Y-91772576D01*
X143476957Y-91776571D01*
X143476957Y-91776571D01*
G37*
X143476957Y-91776571D02*
X143573232Y-91800809D01*
X143659816Y-91843641D01*
X143734627Y-91903419D01*
X143795582Y-91978494D01*
X143840601Y-92067220D01*
X143866864Y-92163530D01*
X143872714Y-92260795D01*
X143857860Y-92354654D01*
X143824160Y-92442511D01*
X143773472Y-92521770D01*
X143707655Y-92589836D01*
X143628566Y-92644112D01*
X143538066Y-92682002D01*
X143486800Y-92694426D01*
X143442302Y-92701947D01*
X143408001Y-92704919D01*
X143375040Y-92703094D01*
X143334566Y-92696225D01*
X143301469Y-92689250D01*
X143208053Y-92657741D01*
X143124381Y-92606617D01*
X143052335Y-92537429D01*
X142993800Y-92451728D01*
X142979852Y-92424489D01*
X142963414Y-92388122D01*
X142953106Y-92357582D01*
X142947540Y-92325450D01*
X142945331Y-92284307D01*
X142945052Y-92238222D01*
X142949139Y-92153865D01*
X142962554Y-92084586D01*
X142987744Y-92023961D01*
X143027154Y-91965567D01*
X143065702Y-91921302D01*
X143137594Y-91855484D01*
X143212687Y-91810053D01*
X143295438Y-91782850D01*
X143373072Y-91772576D01*
X143476957Y-91776571D01*
D12*
X138970000Y-87160000D02*
X138970000Y-61480000D01*
X149410000Y-87160000D02*
X138970000Y-87160000D01*
X149410000Y-61480000D02*
X149410000Y-87160000D01*
X138970000Y-61480000D02*
X149410000Y-61480000D01*
X149700000Y-87450000D02*
X149700000Y-85750000D01*
X148000000Y-87450000D02*
X149700000Y-87450000D01*
X132000000Y-88100000D02*
X132000000Y-91400000D01*
X132000000Y-91400000D02*
X136750000Y-91400000D01*
X132000000Y-88100000D02*
X136750000Y-88100000D01*
X131250000Y-91400000D02*
X126500000Y-91400000D01*
X131250000Y-88100000D02*
X126500000Y-88100000D01*
X131250000Y-91400000D02*
X131250000Y-88100000D01*
X135750000Y-85320000D02*
X136750000Y-85320000D01*
X136750000Y-86680000D02*
X135750000Y-86680000D01*
X136750000Y-83930000D02*
X135750000Y-83930000D01*
X135750000Y-82570000D02*
X136750000Y-82570000D01*
X135750000Y-80070000D02*
X136750000Y-80070000D01*
X136750000Y-81430000D02*
X135750000Y-81430000D01*
X136750000Y-78930000D02*
X135750000Y-78930000D01*
X135750000Y-77570000D02*
X136750000Y-77570000D01*
X135750000Y-75070000D02*
X136750000Y-75070000D01*
X136750000Y-76430000D02*
X135750000Y-76430000D01*
X136750000Y-73930000D02*
X135750000Y-73930000D01*
X135750000Y-72570000D02*
X136750000Y-72570000D01*
X135750000Y-69820000D02*
X136750000Y-69820000D01*
X136750000Y-71180000D02*
X135750000Y-71180000D01*
X136750000Y-68680000D02*
X135750000Y-68680000D01*
X135750000Y-67320000D02*
X136750000Y-67320000D01*
X135750000Y-64820000D02*
X136750000Y-64820000D01*
X136750000Y-66180000D02*
X135750000Y-66180000D01*
X136750000Y-63680000D02*
X135750000Y-63680000D01*
X135750000Y-62320000D02*
X136750000Y-62320000D01*
X125090000Y-86600000D02*
X125090000Y-80590000D01*
X131910000Y-84350000D02*
X131910000Y-80590000D01*
X125090000Y-80590000D02*
X126350000Y-80590000D01*
X131910000Y-80590000D02*
X130650000Y-80590000D01*
X119820000Y-95330000D02*
X119820000Y-94000000D01*
X121150000Y-95330000D02*
X119820000Y-95330000D01*
X122420000Y-95330000D02*
X122420000Y-92670000D01*
X122420000Y-92670000D02*
X130100000Y-92670000D01*
X122420000Y-95330000D02*
X130100000Y-95330000D01*
X130100000Y-95330000D02*
X130100000Y-92670000D01*
X125250000Y-97680000D02*
X124250000Y-97680000D01*
X124250000Y-96320000D02*
X125250000Y-96320000D01*
X121750000Y-90570000D02*
X122750000Y-90570000D01*
X122750000Y-91930000D02*
X121750000Y-91930000D01*
X143900000Y-58900000D02*
X144600000Y-58900000D01*
X144600000Y-60100000D02*
X143900000Y-60100000D01*
X141930000Y-55250000D02*
X141930000Y-56250000D01*
X140570000Y-56250000D02*
X140570000Y-55250000D01*
X142411522Y-57358478D02*
G75*
G03X146850000Y-55520000I1838478J1838478D01*
G01*
X142411522Y-53681522D02*
G75*
G02X146850000Y-55520000I1838478J-1838478D01*
G01*
X142400000Y-53720000D02*
X142400000Y-57320000D01*
X132650000Y-57150000D02*
X133350000Y-57150000D01*
X133350000Y-58350000D02*
X132650000Y-58350000D01*
X132750000Y-58820000D02*
X133750000Y-58820000D01*
X133750000Y-60180000D02*
X132750000Y-60180000D01*
X136937685Y-53148679D02*
G75*
G03X131760000Y-53200000I-2577685J-1151321D01*
G01*
X135480000Y-51550000D02*
X135880000Y-51550000D01*
X135480000Y-51550000D02*
X135480000Y-51150000D01*
X135480000Y-51550000D02*
X136280000Y-50750000D01*
X136480000Y-51950000D02*
X137280000Y-51150000D01*
X136480000Y-51950000D02*
X136480000Y-51550000D01*
X136480000Y-51950000D02*
X136880000Y-51950000D01*
X131300000Y-56800000D02*
X137300000Y-56800000D01*
X137300000Y-53200000D02*
X137300000Y-54400000D01*
X131300000Y-53200000D02*
X137300000Y-53200000D01*
X137300000Y-56800000D02*
X137300000Y-56600000D01*
X131300000Y-56800000D02*
X131300000Y-56600000D01*
X131300000Y-53200000D02*
X131300000Y-54400000D01*
D13*
X152047619Y-53904761D02*
X151238095Y-53904761D01*
X151142857Y-53952380D01*
X151095238Y-54000000D01*
X151047619Y-54095238D01*
X151047619Y-54285714D01*
X151095238Y-54380952D01*
X151142857Y-54428571D01*
X151238095Y-54476190D01*
X152047619Y-54476190D01*
X151333333Y-54904761D02*
X151333333Y-55380952D01*
X151047619Y-54809523D02*
X152047619Y-55142857D01*
X151047619Y-55476190D01*
X151047619Y-56380952D02*
X151523809Y-56047619D01*
X151047619Y-55809523D02*
X152047619Y-55809523D01*
X152047619Y-56190476D01*
X152000000Y-56285714D01*
X151952380Y-56333333D01*
X151857142Y-56380952D01*
X151714285Y-56380952D01*
X151619047Y-56333333D01*
X151571428Y-56285714D01*
X151523809Y-56190476D01*
X151523809Y-55809523D01*
X152047619Y-56666666D02*
X152047619Y-57238095D01*
X151047619Y-56952380D02*
X152047619Y-56952380D01*
D12*
X144192857Y-74566666D02*
X144230952Y-74452380D01*
X144269047Y-74414285D01*
X144345238Y-74376190D01*
X144459523Y-74376190D01*
X144535714Y-74414285D01*
X144573809Y-74452380D01*
X144611904Y-74528571D01*
X144611904Y-74833333D01*
X143811904Y-74833333D01*
X143811904Y-74566666D01*
X143850000Y-74490476D01*
X143888095Y-74452380D01*
X143964285Y-74414285D01*
X144040476Y-74414285D01*
X144116666Y-74452380D01*
X144154761Y-74490476D01*
X144192857Y-74566666D01*
X144192857Y-74833333D01*
X144383333Y-74071428D02*
X144383333Y-73690476D01*
X144611904Y-74147619D02*
X143811904Y-73880952D01*
X144611904Y-73614285D01*
X144611904Y-72890476D02*
X144230952Y-73157142D01*
X144611904Y-73347619D02*
X143811904Y-73347619D01*
X143811904Y-73042857D01*
X143850000Y-72966666D01*
X143888095Y-72928571D01*
X143964285Y-72890476D01*
X144078571Y-72890476D01*
X144154761Y-72928571D01*
X144192857Y-72966666D01*
X144230952Y-73042857D01*
X144230952Y-73347619D01*
X144611904Y-72128571D02*
X144611904Y-72585714D01*
X144611904Y-72357142D02*
X143811904Y-72357142D01*
X143926190Y-72433333D01*
X144002380Y-72509523D01*
X144040476Y-72585714D01*
X138866666Y-90035714D02*
X138828571Y-90073809D01*
X138714285Y-90111904D01*
X138638095Y-90111904D01*
X138523809Y-90073809D01*
X138447619Y-89997619D01*
X138409523Y-89921428D01*
X138371428Y-89769047D01*
X138371428Y-89654761D01*
X138409523Y-89502380D01*
X138447619Y-89426190D01*
X138523809Y-89350000D01*
X138638095Y-89311904D01*
X138714285Y-89311904D01*
X138828571Y-89350000D01*
X138866666Y-89388095D01*
X139628571Y-90111904D02*
X139171428Y-90111904D01*
X139400000Y-90111904D02*
X139400000Y-89311904D01*
X139323809Y-89426190D01*
X139247619Y-89502380D01*
X139171428Y-89540476D01*
X123866666Y-89535714D02*
X123828571Y-89573809D01*
X123714285Y-89611904D01*
X123638095Y-89611904D01*
X123523809Y-89573809D01*
X123447619Y-89497619D01*
X123409523Y-89421428D01*
X123371428Y-89269047D01*
X123371428Y-89154761D01*
X123409523Y-89002380D01*
X123447619Y-88926190D01*
X123523809Y-88850000D01*
X123638095Y-88811904D01*
X123714285Y-88811904D01*
X123828571Y-88850000D01*
X123866666Y-88888095D01*
X124171428Y-88888095D02*
X124209523Y-88850000D01*
X124285714Y-88811904D01*
X124476190Y-88811904D01*
X124552380Y-88850000D01*
X124590476Y-88888095D01*
X124628571Y-88964285D01*
X124628571Y-89040476D01*
X124590476Y-89154761D01*
X124133333Y-89611904D01*
X124628571Y-89611904D01*
X133116666Y-86361904D02*
X132850000Y-85980952D01*
X132659523Y-86361904D02*
X132659523Y-85561904D01*
X132964285Y-85561904D01*
X133040476Y-85600000D01*
X133078571Y-85638095D01*
X133116666Y-85714285D01*
X133116666Y-85828571D01*
X133078571Y-85904761D01*
X133040476Y-85942857D01*
X132964285Y-85980952D01*
X132659523Y-85980952D01*
X133878571Y-86361904D02*
X133421428Y-86361904D01*
X133650000Y-86361904D02*
X133650000Y-85561904D01*
X133573809Y-85676190D01*
X133497619Y-85752380D01*
X133421428Y-85790476D01*
X133116666Y-83611904D02*
X132850000Y-83230952D01*
X132659523Y-83611904D02*
X132659523Y-82811904D01*
X132964285Y-82811904D01*
X133040476Y-82850000D01*
X133078571Y-82888095D01*
X133116666Y-82964285D01*
X133116666Y-83078571D01*
X133078571Y-83154761D01*
X133040476Y-83192857D01*
X132964285Y-83230952D01*
X132659523Y-83230952D01*
X133421428Y-82888095D02*
X133459523Y-82850000D01*
X133535714Y-82811904D01*
X133726190Y-82811904D01*
X133802380Y-82850000D01*
X133840476Y-82888095D01*
X133878571Y-82964285D01*
X133878571Y-83040476D01*
X133840476Y-83154761D01*
X133383333Y-83611904D01*
X133878571Y-83611904D01*
X133116666Y-81111904D02*
X132850000Y-80730952D01*
X132659523Y-81111904D02*
X132659523Y-80311904D01*
X132964285Y-80311904D01*
X133040476Y-80350000D01*
X133078571Y-80388095D01*
X133116666Y-80464285D01*
X133116666Y-80578571D01*
X133078571Y-80654761D01*
X133040476Y-80692857D01*
X132964285Y-80730952D01*
X132659523Y-80730952D01*
X133383333Y-80311904D02*
X133878571Y-80311904D01*
X133611904Y-80616666D01*
X133726190Y-80616666D01*
X133802380Y-80654761D01*
X133840476Y-80692857D01*
X133878571Y-80769047D01*
X133878571Y-80959523D01*
X133840476Y-81035714D01*
X133802380Y-81073809D01*
X133726190Y-81111904D01*
X133497619Y-81111904D01*
X133421428Y-81073809D01*
X133383333Y-81035714D01*
X133116666Y-78611904D02*
X132850000Y-78230952D01*
X132659523Y-78611904D02*
X132659523Y-77811904D01*
X132964285Y-77811904D01*
X133040476Y-77850000D01*
X133078571Y-77888095D01*
X133116666Y-77964285D01*
X133116666Y-78078571D01*
X133078571Y-78154761D01*
X133040476Y-78192857D01*
X132964285Y-78230952D01*
X132659523Y-78230952D01*
X133802380Y-78078571D02*
X133802380Y-78611904D01*
X133611904Y-77773809D02*
X133421428Y-78345238D01*
X133916666Y-78345238D01*
X133116666Y-76111904D02*
X132850000Y-75730952D01*
X132659523Y-76111904D02*
X132659523Y-75311904D01*
X132964285Y-75311904D01*
X133040476Y-75350000D01*
X133078571Y-75388095D01*
X133116666Y-75464285D01*
X133116666Y-75578571D01*
X133078571Y-75654761D01*
X133040476Y-75692857D01*
X132964285Y-75730952D01*
X132659523Y-75730952D01*
X133840476Y-75311904D02*
X133459523Y-75311904D01*
X133421428Y-75692857D01*
X133459523Y-75654761D01*
X133535714Y-75616666D01*
X133726190Y-75616666D01*
X133802380Y-75654761D01*
X133840476Y-75692857D01*
X133878571Y-75769047D01*
X133878571Y-75959523D01*
X133840476Y-76035714D01*
X133802380Y-76073809D01*
X133726190Y-76111904D01*
X133535714Y-76111904D01*
X133459523Y-76073809D01*
X133421428Y-76035714D01*
X133116666Y-73611904D02*
X132850000Y-73230952D01*
X132659523Y-73611904D02*
X132659523Y-72811904D01*
X132964285Y-72811904D01*
X133040476Y-72850000D01*
X133078571Y-72888095D01*
X133116666Y-72964285D01*
X133116666Y-73078571D01*
X133078571Y-73154761D01*
X133040476Y-73192857D01*
X132964285Y-73230952D01*
X132659523Y-73230952D01*
X133802380Y-72811904D02*
X133650000Y-72811904D01*
X133573809Y-72850000D01*
X133535714Y-72888095D01*
X133459523Y-73002380D01*
X133421428Y-73154761D01*
X133421428Y-73459523D01*
X133459523Y-73535714D01*
X133497619Y-73573809D01*
X133573809Y-73611904D01*
X133726190Y-73611904D01*
X133802380Y-73573809D01*
X133840476Y-73535714D01*
X133878571Y-73459523D01*
X133878571Y-73269047D01*
X133840476Y-73192857D01*
X133802380Y-73154761D01*
X133726190Y-73116666D01*
X133573809Y-73116666D01*
X133497619Y-73154761D01*
X133459523Y-73192857D01*
X133421428Y-73269047D01*
X133116666Y-70861904D02*
X132850000Y-70480952D01*
X132659523Y-70861904D02*
X132659523Y-70061904D01*
X132964285Y-70061904D01*
X133040476Y-70100000D01*
X133078571Y-70138095D01*
X133116666Y-70214285D01*
X133116666Y-70328571D01*
X133078571Y-70404761D01*
X133040476Y-70442857D01*
X132964285Y-70480952D01*
X132659523Y-70480952D01*
X133383333Y-70061904D02*
X133916666Y-70061904D01*
X133573809Y-70861904D01*
X133116666Y-68361904D02*
X132850000Y-67980952D01*
X132659523Y-68361904D02*
X132659523Y-67561904D01*
X132964285Y-67561904D01*
X133040476Y-67600000D01*
X133078571Y-67638095D01*
X133116666Y-67714285D01*
X133116666Y-67828571D01*
X133078571Y-67904761D01*
X133040476Y-67942857D01*
X132964285Y-67980952D01*
X132659523Y-67980952D01*
X133573809Y-67904761D02*
X133497619Y-67866666D01*
X133459523Y-67828571D01*
X133421428Y-67752380D01*
X133421428Y-67714285D01*
X133459523Y-67638095D01*
X133497619Y-67600000D01*
X133573809Y-67561904D01*
X133726190Y-67561904D01*
X133802380Y-67600000D01*
X133840476Y-67638095D01*
X133878571Y-67714285D01*
X133878571Y-67752380D01*
X133840476Y-67828571D01*
X133802380Y-67866666D01*
X133726190Y-67904761D01*
X133573809Y-67904761D01*
X133497619Y-67942857D01*
X133459523Y-67980952D01*
X133421428Y-68057142D01*
X133421428Y-68209523D01*
X133459523Y-68285714D01*
X133497619Y-68323809D01*
X133573809Y-68361904D01*
X133726190Y-68361904D01*
X133802380Y-68323809D01*
X133840476Y-68285714D01*
X133878571Y-68209523D01*
X133878571Y-68057142D01*
X133840476Y-67980952D01*
X133802380Y-67942857D01*
X133726190Y-67904761D01*
X133116666Y-65861904D02*
X132850000Y-65480952D01*
X132659523Y-65861904D02*
X132659523Y-65061904D01*
X132964285Y-65061904D01*
X133040476Y-65100000D01*
X133078571Y-65138095D01*
X133116666Y-65214285D01*
X133116666Y-65328571D01*
X133078571Y-65404761D01*
X133040476Y-65442857D01*
X132964285Y-65480952D01*
X132659523Y-65480952D01*
X133497619Y-65861904D02*
X133650000Y-65861904D01*
X133726190Y-65823809D01*
X133764285Y-65785714D01*
X133840476Y-65671428D01*
X133878571Y-65519047D01*
X133878571Y-65214285D01*
X133840476Y-65138095D01*
X133802380Y-65100000D01*
X133726190Y-65061904D01*
X133573809Y-65061904D01*
X133497619Y-65100000D01*
X133459523Y-65138095D01*
X133421428Y-65214285D01*
X133421428Y-65404761D01*
X133459523Y-65480952D01*
X133497619Y-65519047D01*
X133573809Y-65557142D01*
X133726190Y-65557142D01*
X133802380Y-65519047D01*
X133840476Y-65480952D01*
X133878571Y-65404761D01*
X132485714Y-63361904D02*
X132219047Y-62980952D01*
X132028571Y-63361904D02*
X132028571Y-62561904D01*
X132333333Y-62561904D01*
X132409523Y-62600000D01*
X132447619Y-62638095D01*
X132485714Y-62714285D01*
X132485714Y-62828571D01*
X132447619Y-62904761D01*
X132409523Y-62942857D01*
X132333333Y-62980952D01*
X132028571Y-62980952D01*
X133247619Y-63361904D02*
X132790476Y-63361904D01*
X133019047Y-63361904D02*
X133019047Y-62561904D01*
X132942857Y-62676190D01*
X132866666Y-62752380D01*
X132790476Y-62790476D01*
X133742857Y-62561904D02*
X133819047Y-62561904D01*
X133895238Y-62600000D01*
X133933333Y-62638095D01*
X133971428Y-62714285D01*
X134009523Y-62866666D01*
X134009523Y-63057142D01*
X133971428Y-63209523D01*
X133933333Y-63285714D01*
X133895238Y-63323809D01*
X133819047Y-63361904D01*
X133742857Y-63361904D01*
X133666666Y-63323809D01*
X133628571Y-63285714D01*
X133590476Y-63209523D01*
X133552380Y-63057142D01*
X133552380Y-62866666D01*
X133590476Y-62714285D01*
X133628571Y-62638095D01*
X133666666Y-62600000D01*
X133742857Y-62561904D01*
X128061904Y-83109523D02*
X128709523Y-83109523D01*
X128785714Y-83071428D01*
X128823809Y-83033333D01*
X128861904Y-82957142D01*
X128861904Y-82804761D01*
X128823809Y-82728571D01*
X128785714Y-82690476D01*
X128709523Y-82652380D01*
X128061904Y-82652380D01*
X128138095Y-82309523D02*
X128100000Y-82271428D01*
X128061904Y-82195238D01*
X128061904Y-82004761D01*
X128100000Y-81928571D01*
X128138095Y-81890476D01*
X128214285Y-81852380D01*
X128290476Y-81852380D01*
X128404761Y-81890476D01*
X128861904Y-82347619D01*
X128861904Y-81852380D01*
X130811904Y-94266666D02*
X131383333Y-94266666D01*
X131497619Y-94304761D01*
X131573809Y-94380952D01*
X131611904Y-94495238D01*
X131611904Y-94571428D01*
X131611904Y-93466666D02*
X131611904Y-93923809D01*
X131611904Y-93695238D02*
X130811904Y-93695238D01*
X130926190Y-93771428D01*
X131002380Y-93847619D01*
X131040476Y-93923809D01*
X120985714Y-97361904D02*
X120719047Y-96980952D01*
X120528571Y-97361904D02*
X120528571Y-96561904D01*
X120833333Y-96561904D01*
X120909523Y-96600000D01*
X120947619Y-96638095D01*
X120985714Y-96714285D01*
X120985714Y-96828571D01*
X120947619Y-96904761D01*
X120909523Y-96942857D01*
X120833333Y-96980952D01*
X120528571Y-96980952D01*
X121747619Y-97361904D02*
X121290476Y-97361904D01*
X121519047Y-97361904D02*
X121519047Y-96561904D01*
X121442857Y-96676190D01*
X121366666Y-96752380D01*
X121290476Y-96790476D01*
X122509523Y-97361904D02*
X122052380Y-97361904D01*
X122280952Y-97361904D02*
X122280952Y-96561904D01*
X122204761Y-96676190D01*
X122128571Y-96752380D01*
X122052380Y-96790476D01*
X118235714Y-91611904D02*
X117969047Y-91230952D01*
X117778571Y-91611904D02*
X117778571Y-90811904D01*
X118083333Y-90811904D01*
X118159523Y-90850000D01*
X118197619Y-90888095D01*
X118235714Y-90964285D01*
X118235714Y-91078571D01*
X118197619Y-91154761D01*
X118159523Y-91192857D01*
X118083333Y-91230952D01*
X117778571Y-91230952D01*
X118997619Y-91611904D02*
X118540476Y-91611904D01*
X118769047Y-91611904D02*
X118769047Y-90811904D01*
X118692857Y-90926190D01*
X118616666Y-91002380D01*
X118540476Y-91040476D01*
X119302380Y-90888095D02*
X119340476Y-90850000D01*
X119416666Y-90811904D01*
X119607142Y-90811904D01*
X119683333Y-90850000D01*
X119721428Y-90888095D01*
X119759523Y-90964285D01*
X119759523Y-91040476D01*
X119721428Y-91154761D01*
X119264285Y-91611904D01*
X119759523Y-91611904D01*
X141116666Y-59785714D02*
X141078571Y-59823809D01*
X140964285Y-59861904D01*
X140888095Y-59861904D01*
X140773809Y-59823809D01*
X140697619Y-59747619D01*
X140659523Y-59671428D01*
X140621428Y-59519047D01*
X140621428Y-59404761D01*
X140659523Y-59252380D01*
X140697619Y-59176190D01*
X140773809Y-59100000D01*
X140888095Y-59061904D01*
X140964285Y-59061904D01*
X141078571Y-59100000D01*
X141116666Y-59138095D01*
X141383333Y-59061904D02*
X141878571Y-59061904D01*
X141611904Y-59366666D01*
X141726190Y-59366666D01*
X141802380Y-59404761D01*
X141840476Y-59442857D01*
X141878571Y-59519047D01*
X141878571Y-59709523D01*
X141840476Y-59785714D01*
X141802380Y-59823809D01*
X141726190Y-59861904D01*
X141497619Y-59861904D01*
X141421428Y-59823809D01*
X141383333Y-59785714D01*
X140111904Y-56014285D02*
X139730952Y-56280952D01*
X140111904Y-56471428D02*
X139311904Y-56471428D01*
X139311904Y-56166666D01*
X139350000Y-56090476D01*
X139388095Y-56052380D01*
X139464285Y-56014285D01*
X139578571Y-56014285D01*
X139654761Y-56052380D01*
X139692857Y-56090476D01*
X139730952Y-56166666D01*
X139730952Y-56471428D01*
X140111904Y-55252380D02*
X140111904Y-55709523D01*
X140111904Y-55480952D02*
X139311904Y-55480952D01*
X139426190Y-55557142D01*
X139502380Y-55633333D01*
X139540476Y-55709523D01*
X139311904Y-54985714D02*
X139311904Y-54490476D01*
X139616666Y-54757142D01*
X139616666Y-54642857D01*
X139654761Y-54566666D01*
X139692857Y-54528571D01*
X139769047Y-54490476D01*
X139959523Y-54490476D01*
X140035714Y-54528571D01*
X140073809Y-54566666D01*
X140111904Y-54642857D01*
X140111904Y-54871428D01*
X140073809Y-54947619D01*
X140035714Y-54985714D01*
X147371904Y-56129523D02*
X148019523Y-56129523D01*
X148095714Y-56091428D01*
X148133809Y-56053333D01*
X148171904Y-55977142D01*
X148171904Y-55824761D01*
X148133809Y-55748571D01*
X148095714Y-55710476D01*
X148019523Y-55672380D01*
X147371904Y-55672380D01*
X147371904Y-55367619D02*
X147371904Y-54872380D01*
X147676666Y-55139047D01*
X147676666Y-55024761D01*
X147714761Y-54948571D01*
X147752857Y-54910476D01*
X147829047Y-54872380D01*
X148019523Y-54872380D01*
X148095714Y-54910476D01*
X148133809Y-54948571D01*
X148171904Y-55024761D01*
X148171904Y-55253333D01*
X148133809Y-55329523D01*
X148095714Y-55367619D01*
D13*
X129583333Y-58107142D02*
X129535714Y-58154761D01*
X129392857Y-58202380D01*
X129297619Y-58202380D01*
X129154761Y-58154761D01*
X129059523Y-58059523D01*
X129011904Y-57964285D01*
X128964285Y-57773809D01*
X128964285Y-57630952D01*
X129011904Y-57440476D01*
X129059523Y-57345238D01*
X129154761Y-57250000D01*
X129297619Y-57202380D01*
X129392857Y-57202380D01*
X129535714Y-57250000D01*
X129583333Y-57297619D01*
X130440476Y-57535714D02*
X130440476Y-58202380D01*
X130202380Y-57154761D02*
X129964285Y-57869047D01*
X130583333Y-57869047D01*
X128857142Y-59952380D02*
X128523809Y-59476190D01*
X128285714Y-59952380D02*
X128285714Y-58952380D01*
X128666666Y-58952380D01*
X128761904Y-59000000D01*
X128809523Y-59047619D01*
X128857142Y-59142857D01*
X128857142Y-59285714D01*
X128809523Y-59380952D01*
X128761904Y-59428571D01*
X128666666Y-59476190D01*
X128285714Y-59476190D01*
X129809523Y-59952380D02*
X129238095Y-59952380D01*
X129523809Y-59952380D02*
X129523809Y-58952380D01*
X129428571Y-59095238D01*
X129333333Y-59190476D01*
X129238095Y-59238095D01*
X130666666Y-59285714D02*
X130666666Y-59952380D01*
X130428571Y-58904761D02*
X130190476Y-59619047D01*
X130809523Y-59619047D01*
X128738095Y-52952380D02*
X128738095Y-53761904D01*
X128785714Y-53857142D01*
X128833333Y-53904761D01*
X128928571Y-53952380D01*
X129119047Y-53952380D01*
X129214285Y-53904761D01*
X129261904Y-53857142D01*
X129309523Y-53761904D01*
X129309523Y-52952380D01*
X130214285Y-53285714D02*
X130214285Y-53952380D01*
X129976190Y-52904761D02*
X129738095Y-53619047D01*
X130357142Y-53619047D01*
%LPC*%
D14*
X156000000Y-53500000D03*
D15*
X114540000Y-59400000D03*
X114540000Y-61940000D03*
X114540000Y-64480000D03*
X114540000Y-67020000D03*
X114540000Y-69560000D03*
X114540000Y-72100000D03*
X114540000Y-74640000D03*
X114540000Y-77180000D03*
X114540000Y-79720000D03*
X114540000Y-82260000D03*
X114540000Y-84800000D03*
X114540000Y-87340000D03*
X114540000Y-89880000D03*
X157720000Y-89880000D03*
X155180000Y-89880000D03*
X157720000Y-87340000D03*
X155180000Y-87340000D03*
X157720000Y-84800000D03*
X155180000Y-84800000D03*
X157720000Y-82260000D03*
X155180000Y-82260000D03*
X157720000Y-79720000D03*
X155180000Y-79720000D03*
X157720000Y-77180000D03*
X155180000Y-77180000D03*
X157720000Y-74640000D03*
X155180000Y-74640000D03*
X157720000Y-72100000D03*
X155180000Y-72100000D03*
X157720000Y-69560000D03*
X155180000Y-69560000D03*
X157720000Y-67020000D03*
X155180000Y-67020000D03*
X157720000Y-64480000D03*
X155180000Y-64480000D03*
X157720000Y-61940000D03*
X155180000Y-61940000D03*
X157720000Y-59400000D03*
X155180000Y-59400000D03*
X149560000Y-52820000D03*
X149560000Y-55360000D03*
X149560000Y-57900000D03*
D14*
X116000000Y-53500000D03*
X116000000Y-95500000D03*
X156000000Y-95500000D03*
D16*
X140380000Y-85750000D03*
X140380000Y-83210000D03*
X140380000Y-80670000D03*
X140380000Y-78130000D03*
X148000000Y-65430000D03*
X148000000Y-62890000D03*
X140380000Y-62890000D03*
X140380000Y-65430000D03*
X148000000Y-67970000D03*
X148000000Y-70510000D03*
X148000000Y-73050000D03*
X148000000Y-75590000D03*
X140380000Y-75590000D03*
X140380000Y-73050000D03*
X140380000Y-70510000D03*
X140380000Y-67970000D03*
X148000000Y-78130000D03*
X148000000Y-80670000D03*
X148000000Y-83210000D03*
D17*
X148000000Y-85750000D03*
D18*
X136625000Y-89750000D03*
X133375000Y-89750000D03*
X129875000Y-89750000D03*
X126625000Y-89750000D03*
D19*
X137350000Y-86000000D03*
X135150000Y-86000000D03*
X135150000Y-83250000D03*
X137350000Y-83250000D03*
X137350000Y-80750000D03*
X135150000Y-80750000D03*
X135150000Y-78250000D03*
X137350000Y-78250000D03*
X137350000Y-75750000D03*
X135150000Y-75750000D03*
X135150000Y-73250000D03*
X137350000Y-73250000D03*
X137350000Y-70500000D03*
X135150000Y-70500000D03*
X135150000Y-68000000D03*
X137350000Y-68000000D03*
X137350000Y-65500000D03*
X135150000Y-65500000D03*
X135150000Y-63000000D03*
X137350000Y-63000000D03*
D20*
X126200000Y-85650000D03*
X130800000Y-85650000D03*
X128500000Y-85650000D03*
D21*
X128500000Y-79350000D03*
D22*
X128770000Y-94000000D03*
X126230000Y-94000000D03*
X123690000Y-94000000D03*
D23*
X121150000Y-94000000D03*
D19*
X123650000Y-97000000D03*
X125850000Y-97000000D03*
X123350000Y-91250000D03*
X121150000Y-91250000D03*
D24*
X143300000Y-59500000D03*
X145200000Y-59500000D03*
D25*
X141250000Y-56850000D03*
X141250000Y-54650000D03*
D26*
X144250000Y-54250000D03*
D27*
X144250000Y-56790000D03*
X144250000Y-55520000D03*
D24*
X132050000Y-57750000D03*
X133950000Y-57750000D03*
D19*
X134350000Y-59500000D03*
X132150000Y-59500000D03*
D28*
X131920000Y-55500000D03*
X134460000Y-55500000D03*
D29*
X137000000Y-55500000D03*
M02*
