%TF.GenerationSoftware,KiCad,Pcbnew,5.0.0-rc1-44a33f2~62~ubuntu16.04.1*%
%TF.CreationDate,2018-04-02T18:30:06+03:00*%
%TF.ProjectId,lm317_adj_supply,6C6D3331375F61646A5F737570706C79,rev?*%
%TF.SameCoordinates,Original*%
%TF.FileFunction,Legend,Bot*%
%TF.FilePolarity,Positive*%
%FSLAX46Y46*%
G04 Gerber Fmt 4.6, Leading zero omitted, Abs format (unit mm)*
G04 Created by KiCad (PCBNEW 5.0.0-rc1-44a33f2~62~ubuntu16.04.1) date Mon Apr  2 18:30:06 2018*
%MOMM*%
%LPD*%
G01*
G04 APERTURE LIST*
%ADD10C,0.200000*%
%ADD11C,2.000000*%
%ADD12O,2.000000X2.000000*%
%ADD13R,2.800000X2.800000*%
%ADD14C,2.800000*%
%ADD15C,1.900000*%
%ADD16R,1.900000X1.900000*%
%ADD17C,4.400000*%
%ADD18R,4.400000X4.400000*%
%ADD19C,3.600000*%
%ADD20O,2.600000X2.600000*%
%ADD21R,2.600000X2.600000*%
%ADD22R,2.400000X2.400000*%
%ADD23C,2.400000*%
%ADD24R,3.600000X3.600000*%
%ADD25O,3.600000X3.600000*%
%ADD26R,2.200000X2.200000*%
%ADD27C,2.200000*%
%ADD28C,2.900000*%
%ADD29R,2.900000X2.900000*%
%ADD30C,1.800000*%
%ADD31O,1.800000X1.800000*%
%ADD32R,2.100000X2.100000*%
%ADD33O,2.100000X2.100000*%
%ADD34O,3.900000X3.900000*%
%ADD35O,2.200000X2.200000*%
G04 APERTURE END LIST*
D10*
X197778571Y-106400000D02*
X197778571Y-107238095D01*
X197097619Y-107604761D02*
X198197619Y-107971428D01*
X197097619Y-108338095D01*
X198197619Y-108704761D02*
X197097619Y-108704761D01*
X197883333Y-109071428D01*
X197097619Y-109438095D01*
X198197619Y-109438095D01*
X197778571Y-109961904D02*
X197778571Y-110800000D01*
X198197619Y-110380952D02*
X197359523Y-110380952D01*
X197978571Y-92900000D02*
X197978571Y-93738095D01*
X198083333Y-94209523D02*
X198083333Y-94733333D01*
X198397619Y-94104761D02*
X197297619Y-94471428D01*
X198397619Y-94838095D01*
X198397619Y-95204761D02*
X197297619Y-95204761D01*
X198083333Y-95571428D01*
X197297619Y-95938095D01*
X198397619Y-95938095D01*
X197978571Y-96461904D02*
X197978571Y-97300000D01*
X198397619Y-96880952D02*
X197559523Y-96880952D01*
X102400000Y-118978571D02*
X102347619Y-118926190D01*
X102242857Y-118873809D01*
X102033333Y-118978571D01*
X101928571Y-118926190D01*
X101876190Y-118873809D01*
X101509523Y-118402380D02*
X101457142Y-118350000D01*
X101352380Y-118297619D01*
X101090476Y-118297619D01*
X100985714Y-118350000D01*
X100933333Y-118402380D01*
X100880952Y-118507142D01*
X100880952Y-118611904D01*
X100933333Y-118769047D01*
X101561904Y-119397619D01*
X100880952Y-119397619D01*
X99938095Y-118664285D02*
X99938095Y-119397619D01*
X100200000Y-118245238D02*
X100461904Y-119030952D01*
X99780952Y-119030952D01*
X99519047Y-118297619D02*
X99152380Y-119397619D01*
X98785714Y-118297619D01*
X98576190Y-118978571D02*
X98523809Y-118926190D01*
X98419047Y-118873809D01*
X98209523Y-118978571D01*
X98104761Y-118926190D01*
X98052380Y-118873809D01*
X178671428Y-125678571D02*
X177833333Y-125678571D01*
X177100000Y-124997619D02*
X176890476Y-124997619D01*
X176785714Y-125050000D01*
X176680952Y-125154761D01*
X176628571Y-125364285D01*
X176628571Y-125730952D01*
X176680952Y-125940476D01*
X176785714Y-126045238D01*
X176890476Y-126097619D01*
X177100000Y-126097619D01*
X177204761Y-126045238D01*
X177309523Y-125940476D01*
X177361904Y-125730952D01*
X177361904Y-125364285D01*
X177309523Y-125154761D01*
X177204761Y-125050000D01*
X177100000Y-124997619D01*
X176157142Y-124997619D02*
X176157142Y-125888095D01*
X176104761Y-125992857D01*
X176052380Y-126045238D01*
X175947619Y-126097619D01*
X175738095Y-126097619D01*
X175633333Y-126045238D01*
X175580952Y-125992857D01*
X175528571Y-125888095D01*
X175528571Y-124997619D01*
X175161904Y-124997619D02*
X174533333Y-124997619D01*
X174847619Y-126097619D02*
X174847619Y-124997619D01*
X174166666Y-125678571D02*
X173328571Y-125678571D01*
X173747619Y-126097619D02*
X173747619Y-125259523D01*
%LPC*%
D11*
X173574000Y-90400000D03*
D12*
X163160000Y-90400000D03*
X146000000Y-75260000D03*
D11*
X146000000Y-90500000D03*
D13*
X173902500Y-104282500D03*
D14*
X178902500Y-104282500D03*
D15*
X176230000Y-94500000D03*
X173630000Y-94500000D03*
D16*
X178830000Y-94500000D03*
D17*
X128902500Y-79782500D03*
D18*
X118902500Y-79782500D03*
D19*
X196250000Y-123750000D03*
X196250000Y-70000000D03*
X91000000Y-70000000D03*
D20*
X163910000Y-94532500D03*
D21*
X153750000Y-94532500D03*
D11*
X92602500Y-102232500D03*
X97602500Y-102232500D03*
X92502500Y-90782500D03*
X97502500Y-90782500D03*
X102752500Y-102232500D03*
X107752500Y-102232500D03*
X102952500Y-90782500D03*
X107952500Y-90782500D03*
X158750000Y-114282500D03*
X163750000Y-114282500D03*
D22*
X159000000Y-104750000D03*
D23*
X164000000Y-104750000D03*
D11*
X125000000Y-101032500D03*
X120000000Y-101032500D03*
D18*
X117902500Y-115532500D03*
D17*
X127902500Y-115532500D03*
D11*
X178902500Y-113782500D03*
X173902500Y-113782500D03*
X120152500Y-94282500D03*
X125152500Y-94282500D03*
D24*
X140902500Y-71782500D03*
D25*
X140902500Y-87022500D03*
D19*
X92512500Y-96432500D03*
X97592500Y-96432500D03*
X102672500Y-96432500D03*
D24*
X107752500Y-96432500D03*
D26*
X104902500Y-82532500D03*
D27*
X107442500Y-82532500D03*
D28*
X102652500Y-115500000D03*
D29*
X97652500Y-115500000D03*
X194652500Y-97282500D03*
D28*
X194652500Y-92282500D03*
D29*
X194402500Y-111282500D03*
D28*
X194402500Y-106282500D03*
X178402500Y-122282500D03*
D29*
X173402500Y-122282500D03*
D22*
X155750000Y-71750000D03*
D23*
X153210000Y-71750000D03*
X150670000Y-71750000D03*
X179420000Y-71500000D03*
X181960000Y-71500000D03*
D22*
X184500000Y-71500000D03*
D14*
X155700000Y-80282500D03*
X153000000Y-82582500D03*
D30*
X149120000Y-94532500D03*
D31*
X141500000Y-94532500D03*
D30*
X141402500Y-98282500D03*
D31*
X149022500Y-98282500D03*
D14*
X168250000Y-82500000D03*
X170950000Y-80200000D03*
D31*
X92282500Y-82782500D03*
D30*
X99902500Y-82782500D03*
D32*
X158750000Y-119582500D03*
D33*
X161290000Y-119582500D03*
X163830000Y-119582500D03*
X164080000Y-124500000D03*
X161540000Y-124500000D03*
D32*
X159000000Y-124500000D03*
D34*
X145612500Y-119692500D03*
D26*
X148152500Y-103032500D03*
D35*
X145612500Y-103032500D03*
X143072500Y-103032500D03*
D14*
X183500000Y-82750000D03*
X186200000Y-80450000D03*
D19*
X91000000Y-123500000D03*
M02*
