G04 #@! TF.GenerationSoftware,KiCad,Pcbnew,no-vcs-found-d37a337~58~ubuntu16.04.1*
G04 #@! TF.CreationDate,2017-07-19T10:02:38+03:00*
G04 #@! TF.ProjectId,serial_gw_maple_mini,73657269616C5F67775F6D61706C655F,rev?*
G04 #@! TF.FileFunction,Copper,L1,Top,Signal*
G04 #@! TF.FilePolarity,Positive*
%FSLAX46Y46*%
G04 Gerber Fmt 4.6, Leading zero omitted, Abs format (unit mm)*
G04 Created by KiCad (PCBNEW no-vcs-found-d37a337~58~ubuntu16.04.1) date Wed Jul 19 10:02:38 2017*
%MOMM*%
%LPD*%
G01*
G04 APERTURE LIST*
%ADD10C,0.100000*%
%ADD11O,1.400000X2.600000*%
%ADD12C,0.450000*%
%ADD13O,2.000000X1.200000*%
%ADD14R,2.500000X3.200000*%
%ADD15R,1.200000X0.900000*%
%ADD16R,1.500000X2.000000*%
%ADD17R,3.800000X2.000000*%
%ADD18C,0.800000*%
%ADD19C,0.800000*%
%ADD20C,0.350000*%
%ADD21C,0.254000*%
G04 APERTURE END LIST*
D10*
D11*
X144780000Y-48260000D03*
X147320000Y-48260000D03*
X149860000Y-48260000D03*
X152400000Y-48260000D03*
X154940000Y-48260000D03*
X157480000Y-48260000D03*
X160020000Y-48260000D03*
X162560000Y-48260000D03*
X165100000Y-48260000D03*
X167640000Y-48260000D03*
X170180000Y-48260000D03*
X172720000Y-48260000D03*
X175260000Y-48260000D03*
X177800000Y-48260000D03*
X180340000Y-48260000D03*
X182880000Y-48260000D03*
X185420000Y-48260000D03*
X187960000Y-48260000D03*
X190500000Y-48260000D03*
X193040000Y-48260000D03*
X193040000Y-63500000D03*
X190500000Y-63500000D03*
X187960000Y-63500000D03*
X185420000Y-63500000D03*
X182880000Y-63500000D03*
X180340000Y-63500000D03*
X177800000Y-63500000D03*
X175260000Y-63500000D03*
X172720000Y-63500000D03*
X170180000Y-63500000D03*
X167640000Y-63500000D03*
X165100000Y-63500000D03*
X162560000Y-63500000D03*
X160020000Y-63500000D03*
X157480000Y-63500000D03*
X154940000Y-63500000D03*
X152400000Y-63500000D03*
X149860000Y-63500000D03*
X147320000Y-63500000D03*
X144780000Y-63500000D03*
D12*
X170707857Y-45778500D03*
X173247857Y-45778500D03*
X175787857Y-45778500D03*
X178327857Y-45778500D03*
X180867857Y-45778500D03*
X183407857Y-45778500D03*
X185947857Y-45778500D03*
X188487857Y-45778500D03*
X191027857Y-45778500D03*
X193567857Y-45778500D03*
X142767857Y-45778500D03*
X145307857Y-45778500D03*
X147847857Y-45778500D03*
X150387857Y-45778500D03*
X152927857Y-45778500D03*
X155467857Y-45778500D03*
X158007857Y-45778500D03*
X160547857Y-45778500D03*
X163087857Y-45778500D03*
X165627857Y-45778500D03*
X168167857Y-45778500D03*
X175787857Y-58478500D03*
X178327857Y-55938500D03*
D13*
X165100000Y-81280000D03*
X167640000Y-81280000D03*
X165100000Y-78740000D03*
X167640000Y-78740000D03*
X165100000Y-76200000D03*
X167640000Y-76200000D03*
X165100000Y-73660000D03*
X167640000Y-73660000D03*
D14*
X198882000Y-46618000D03*
X198882000Y-50918000D03*
X203200000Y-50918000D03*
X203200000Y-46618000D03*
D15*
X168064000Y-51562000D03*
X170264000Y-51562000D03*
D16*
X203468000Y-55270000D03*
X198868000Y-55270000D03*
X201168000Y-55270000D03*
D17*
X201168000Y-61570000D03*
D12*
X145307857Y-43238500D03*
X147847857Y-43238500D03*
X150387857Y-43238500D03*
X152927857Y-43238500D03*
X155467857Y-43238500D03*
X158007857Y-43238500D03*
X160547857Y-43238500D03*
X163087857Y-43238500D03*
X165627857Y-43238500D03*
X168167857Y-43238500D03*
X170707857Y-43238500D03*
X173247857Y-43238500D03*
X175787857Y-43238500D03*
X178327857Y-43238500D03*
X180867857Y-43238500D03*
X183407857Y-43238500D03*
X185947857Y-43238500D03*
X188487857Y-43238500D03*
X191027857Y-43238500D03*
X193567857Y-43238500D03*
X196107857Y-43238500D03*
X198647857Y-43238500D03*
X201187857Y-43238500D03*
X203727857Y-43238500D03*
X196107857Y-45778500D03*
X206267857Y-45778500D03*
X208807857Y-45778500D03*
X142767857Y-48318500D03*
X196107857Y-48318500D03*
X206267857Y-48318500D03*
X208807857Y-48318500D03*
X142767857Y-50858500D03*
X206267857Y-50858500D03*
X208807857Y-50858500D03*
X142767857Y-53398500D03*
X145307857Y-53398500D03*
X147847857Y-53398500D03*
X150387857Y-53398500D03*
X152927857Y-53398500D03*
X155467857Y-53398500D03*
X180867857Y-53398500D03*
X183407857Y-53398500D03*
X185947857Y-53398500D03*
X188487857Y-53398500D03*
X191027857Y-53398500D03*
X193567857Y-53398500D03*
X196107857Y-53398500D03*
X206267857Y-53398500D03*
X208807857Y-53398500D03*
X142767857Y-55938500D03*
X145307857Y-55938500D03*
X147847857Y-55938500D03*
X150387857Y-55938500D03*
X152927857Y-55938500D03*
X155467857Y-55938500D03*
X180867857Y-55938500D03*
X183407857Y-55938500D03*
X185947857Y-55938500D03*
X188487857Y-55938500D03*
X191027857Y-55938500D03*
X193567857Y-55938500D03*
X196107857Y-55938500D03*
X206267857Y-55938500D03*
X208807857Y-55938500D03*
X142767857Y-58478500D03*
X145307857Y-58478500D03*
X147847857Y-58478500D03*
X150387857Y-58478500D03*
X152927857Y-58478500D03*
X178327857Y-58478500D03*
X180867857Y-58478500D03*
X183407857Y-58478500D03*
X185947857Y-58478500D03*
X188487857Y-58478500D03*
X191027857Y-58478500D03*
X193567857Y-58478500D03*
X196107857Y-58478500D03*
X198647857Y-58478500D03*
X203727857Y-58478500D03*
X206267857Y-58478500D03*
X208807857Y-58478500D03*
X142767857Y-61018500D03*
X145307857Y-61018500D03*
X147847857Y-61018500D03*
X150387857Y-61018500D03*
X165627857Y-61018500D03*
X168167857Y-61018500D03*
X170707857Y-61018500D03*
X173247857Y-61018500D03*
X175787857Y-61018500D03*
X178327857Y-61018500D03*
X180867857Y-61018500D03*
X183407857Y-61018500D03*
X185947857Y-61018500D03*
X188487857Y-61018500D03*
X191027857Y-61018500D03*
X193567857Y-61018500D03*
X196107857Y-61018500D03*
X206267857Y-61018500D03*
X208807857Y-61018500D03*
X142767857Y-63558500D03*
X142767857Y-66098500D03*
X142767857Y-68638500D03*
X145307857Y-68638500D03*
X147847857Y-68638500D03*
X150387857Y-68638500D03*
X142767857Y-71178500D03*
X145307857Y-71178500D03*
X147847857Y-71178500D03*
X150387857Y-71178500D03*
X142767857Y-73718500D03*
X145307857Y-73718500D03*
X147847857Y-73718500D03*
X150387857Y-73718500D03*
X163087857Y-73718500D03*
X142767857Y-76258500D03*
X145307857Y-76258500D03*
X147847857Y-76258500D03*
X150387857Y-76258500D03*
X152927857Y-76258500D03*
X142767857Y-78798500D03*
X145307857Y-78798500D03*
X147847857Y-78798500D03*
X150387857Y-78798500D03*
X152927857Y-78798500D03*
X155467857Y-78798500D03*
X142767857Y-81338500D03*
X145307857Y-81338500D03*
X147847857Y-81338500D03*
X150387857Y-81338500D03*
X152927857Y-81338500D03*
X155467857Y-81338500D03*
X158007857Y-81338500D03*
X142767857Y-83878500D03*
X145307857Y-83878500D03*
X147847857Y-83878500D03*
X150387857Y-83878500D03*
X152927857Y-83878500D03*
X155467857Y-83878500D03*
X158007857Y-83878500D03*
X160547857Y-83878500D03*
X163087857Y-83878500D03*
X165627857Y-83878500D03*
X145307857Y-86418500D03*
X147847857Y-86418500D03*
X150387857Y-86418500D03*
X152927857Y-86418500D03*
X155467857Y-86418500D03*
X158007857Y-86418500D03*
X160547857Y-86418500D03*
X163087857Y-86418500D03*
X165627857Y-86418500D03*
X145307857Y-88958500D03*
X147847857Y-88958500D03*
X150387857Y-88958500D03*
X152927857Y-88958500D03*
X155467857Y-88958500D03*
X158007857Y-88958500D03*
X160547857Y-88958500D03*
X163087857Y-88958500D03*
X165627857Y-88958500D03*
D18*
X163830000Y-61214000D03*
X201168000Y-57404002D03*
D19*
X198882000Y-50918000D02*
X195698000Y-50918000D01*
X195698000Y-50918000D02*
X193040000Y-48260000D01*
X198868000Y-55270000D02*
X198868000Y-50932000D01*
X198868000Y-50932000D02*
X198882000Y-50918000D01*
X201168000Y-55270000D02*
X201168000Y-54102000D01*
X201168000Y-54102000D02*
X203200000Y-52070000D01*
X203200000Y-52070000D02*
X203200000Y-50918000D01*
X201168000Y-55270000D02*
X201168000Y-57404002D01*
D20*
X170264000Y-51562000D02*
X170264000Y-48344000D01*
X170264000Y-48344000D02*
X170180000Y-48260000D01*
X167640000Y-81280000D02*
X167640000Y-82130000D01*
X167640000Y-82130000D02*
X167220000Y-82550000D01*
X153675199Y-73411199D02*
X153675199Y-59176801D01*
X167220000Y-82550000D02*
X162814000Y-82550000D01*
X162814000Y-82550000D02*
X153675199Y-73411199D01*
X153675199Y-59176801D02*
X161290000Y-51562000D01*
X161290000Y-51562000D02*
X168064000Y-51562000D01*
X167640000Y-78740000D02*
X166370000Y-77470000D01*
X166370000Y-77470000D02*
X163830000Y-77470000D01*
X163830000Y-77470000D02*
X161295199Y-74935199D01*
X161295199Y-74935199D02*
X161295199Y-61716801D01*
X161295199Y-61716801D02*
X163068000Y-59944000D01*
X163068000Y-59944000D02*
X169418000Y-59944000D01*
X169418000Y-59944000D02*
X180340000Y-49022000D01*
X180340000Y-49022000D02*
X180340000Y-48260000D01*
X175260000Y-48260000D02*
X175260000Y-52324000D01*
X169418000Y-58166000D02*
X161798000Y-58166000D01*
X161798000Y-58166000D02*
X158755199Y-61208801D01*
X175260000Y-52324000D02*
X169418000Y-58166000D01*
X158755199Y-74427199D02*
X163068000Y-78740000D01*
X158755199Y-61208801D02*
X158755199Y-74427199D01*
X163068000Y-78740000D02*
X164700000Y-78740000D01*
X164700000Y-78740000D02*
X165100000Y-78740000D01*
X172720000Y-48260000D02*
X172720000Y-53086000D01*
X172720000Y-53086000D02*
X169164000Y-56642000D01*
X162306000Y-80010000D02*
X168910000Y-80010000D01*
X169164000Y-56642000D02*
X160274000Y-56642000D01*
X169418000Y-79502000D02*
X169418000Y-77578000D01*
X160274000Y-56642000D02*
X156215199Y-60700801D01*
X156215199Y-60700801D02*
X156215199Y-73919199D01*
X169418000Y-77578000D02*
X168040000Y-76200000D01*
X156215199Y-73919199D02*
X162306000Y-80010000D01*
X168910000Y-80010000D02*
X169418000Y-79502000D01*
X168040000Y-76200000D02*
X167640000Y-76200000D01*
D21*
G36*
X205351633Y-41396214D02*
X205248598Y-41880955D01*
X205241678Y-42376477D01*
X205331138Y-42863906D01*
X205513570Y-43324675D01*
X205782024Y-43741235D01*
X206126276Y-44097719D01*
X206533214Y-44380547D01*
X206987336Y-44578948D01*
X207471345Y-44685365D01*
X207966807Y-44695743D01*
X208454848Y-44609688D01*
X208916880Y-44430478D01*
X208998000Y-44378998D01*
X208998000Y-62611000D01*
X203995447Y-62611000D01*
X203999485Y-62570000D01*
X203999485Y-60570000D01*
X203981587Y-60388276D01*
X203928580Y-60213536D01*
X203842501Y-60052495D01*
X203726659Y-59911341D01*
X203585505Y-59795499D01*
X203424464Y-59709420D01*
X203249724Y-59656413D01*
X203068000Y-59638515D01*
X199268000Y-59638515D01*
X199086276Y-59656413D01*
X198911536Y-59709420D01*
X198750495Y-59795499D01*
X198609341Y-59911341D01*
X198493499Y-60052495D01*
X198407420Y-60213536D01*
X198354413Y-60388276D01*
X198336515Y-60570000D01*
X198336515Y-62570000D01*
X198340553Y-62611000D01*
X194639720Y-62611000D01*
X194636014Y-62573205D01*
X194544236Y-62269222D01*
X194395163Y-61988856D01*
X194194472Y-61742784D01*
X193949807Y-61540380D01*
X193670488Y-61389353D01*
X193367154Y-61295455D01*
X193051359Y-61262264D01*
X192735131Y-61291043D01*
X192430515Y-61380696D01*
X192149115Y-61527808D01*
X191901648Y-61726777D01*
X191769683Y-61884047D01*
X191654472Y-61742784D01*
X191409807Y-61540380D01*
X191130488Y-61389353D01*
X190827154Y-61295455D01*
X190511359Y-61262264D01*
X190195131Y-61291043D01*
X189890515Y-61380696D01*
X189609115Y-61527808D01*
X189361648Y-61726777D01*
X189229683Y-61884047D01*
X189114472Y-61742784D01*
X188869807Y-61540380D01*
X188590488Y-61389353D01*
X188287154Y-61295455D01*
X187971359Y-61262264D01*
X187655131Y-61291043D01*
X187350515Y-61380696D01*
X187069115Y-61527808D01*
X186821648Y-61726777D01*
X186689683Y-61884047D01*
X186574472Y-61742784D01*
X186329807Y-61540380D01*
X186050488Y-61389353D01*
X185747154Y-61295455D01*
X185431359Y-61262264D01*
X185115131Y-61291043D01*
X184810515Y-61380696D01*
X184529115Y-61527808D01*
X184281648Y-61726777D01*
X184149683Y-61884047D01*
X184034472Y-61742784D01*
X183789807Y-61540380D01*
X183510488Y-61389353D01*
X183207154Y-61295455D01*
X182891359Y-61262264D01*
X182575131Y-61291043D01*
X182270515Y-61380696D01*
X181989115Y-61527808D01*
X181741648Y-61726777D01*
X181609683Y-61884047D01*
X181494472Y-61742784D01*
X181249807Y-61540380D01*
X180970488Y-61389353D01*
X180667154Y-61295455D01*
X180351359Y-61262264D01*
X180035131Y-61291043D01*
X179730515Y-61380696D01*
X179449115Y-61527808D01*
X179201648Y-61726777D01*
X179069683Y-61884047D01*
X178954472Y-61742784D01*
X178709807Y-61540380D01*
X178430488Y-61389353D01*
X178127154Y-61295455D01*
X177811359Y-61262264D01*
X177495131Y-61291043D01*
X177190515Y-61380696D01*
X176909115Y-61527808D01*
X176661648Y-61726777D01*
X176529683Y-61884047D01*
X176414472Y-61742784D01*
X176169807Y-61540380D01*
X175890488Y-61389353D01*
X175587154Y-61295455D01*
X175271359Y-61262264D01*
X174955131Y-61291043D01*
X174650515Y-61380696D01*
X174369115Y-61527808D01*
X174121648Y-61726777D01*
X173989683Y-61884047D01*
X173874472Y-61742784D01*
X173629807Y-61540380D01*
X173350488Y-61389353D01*
X173047154Y-61295455D01*
X172731359Y-61262264D01*
X172415131Y-61291043D01*
X172110515Y-61380696D01*
X171829115Y-61527808D01*
X171581648Y-61726777D01*
X171449683Y-61884047D01*
X171334472Y-61742784D01*
X171089807Y-61540380D01*
X170810488Y-61389353D01*
X170507154Y-61295455D01*
X170191359Y-61262264D01*
X169875131Y-61291043D01*
X169570515Y-61380696D01*
X169289115Y-61527808D01*
X169041648Y-61726777D01*
X168909683Y-61884047D01*
X168794472Y-61742784D01*
X168549807Y-61540380D01*
X168270488Y-61389353D01*
X167967154Y-61295455D01*
X167651359Y-61262264D01*
X167335131Y-61291043D01*
X167030515Y-61380696D01*
X166749115Y-61527808D01*
X166501648Y-61726777D01*
X166369683Y-61884047D01*
X166254472Y-61742784D01*
X166009807Y-61540380D01*
X165730488Y-61389353D01*
X165427154Y-61295455D01*
X165111359Y-61262264D01*
X164795131Y-61291043D01*
X164490515Y-61380696D01*
X164209115Y-61527808D01*
X163961648Y-61726777D01*
X163829683Y-61884047D01*
X163714472Y-61742784D01*
X163469807Y-61540380D01*
X163190488Y-61389353D01*
X163183328Y-61387136D01*
X163524464Y-61046000D01*
X169418000Y-61046000D01*
X169519296Y-61036068D01*
X169620714Y-61027195D01*
X169626278Y-61025579D01*
X169632046Y-61025013D01*
X169729545Y-60995576D01*
X169827247Y-60967191D01*
X169832388Y-60964526D01*
X169837940Y-60962850D01*
X169927845Y-60915046D01*
X170018192Y-60868215D01*
X170022722Y-60864599D01*
X170027837Y-60861879D01*
X170106694Y-60797565D01*
X170186276Y-60734036D01*
X170194344Y-60726080D01*
X170194507Y-60725947D01*
X170194632Y-60725796D01*
X170197232Y-60723232D01*
X180432147Y-50488316D01*
X180644869Y-50468957D01*
X180949485Y-50379304D01*
X181230885Y-50232192D01*
X181478352Y-50033223D01*
X181610317Y-49875953D01*
X181725528Y-50017216D01*
X181970193Y-50219620D01*
X182249512Y-50370647D01*
X182552846Y-50464545D01*
X182868641Y-50497736D01*
X183184869Y-50468957D01*
X183489485Y-50379304D01*
X183770885Y-50232192D01*
X184018352Y-50033223D01*
X184150317Y-49875953D01*
X184265528Y-50017216D01*
X184510193Y-50219620D01*
X184789512Y-50370647D01*
X185092846Y-50464545D01*
X185408641Y-50497736D01*
X185724869Y-50468957D01*
X186029485Y-50379304D01*
X186310885Y-50232192D01*
X186558352Y-50033223D01*
X186690317Y-49875953D01*
X186805528Y-50017216D01*
X187050193Y-50219620D01*
X187329512Y-50370647D01*
X187632846Y-50464545D01*
X187948641Y-50497736D01*
X188264869Y-50468957D01*
X188569485Y-50379304D01*
X188850885Y-50232192D01*
X189098352Y-50033223D01*
X189230317Y-49875953D01*
X189345528Y-50017216D01*
X189590193Y-50219620D01*
X189869512Y-50370647D01*
X190172846Y-50464545D01*
X190488641Y-50497736D01*
X190804869Y-50468957D01*
X191109485Y-50379304D01*
X191390885Y-50232192D01*
X191638352Y-50033223D01*
X191770317Y-49875953D01*
X191885528Y-50017216D01*
X192130193Y-50219620D01*
X192409512Y-50370647D01*
X192712846Y-50464545D01*
X193028641Y-50497736D01*
X193344869Y-50468957D01*
X193366059Y-50462720D01*
X194759670Y-51856331D01*
X194854370Y-51934119D01*
X194948289Y-52012926D01*
X194954407Y-52016289D01*
X194959796Y-52020716D01*
X195067779Y-52078616D01*
X195175239Y-52137693D01*
X195181892Y-52139803D01*
X195188040Y-52143100D01*
X195305228Y-52178928D01*
X195422101Y-52216002D01*
X195429038Y-52216780D01*
X195435710Y-52218820D01*
X195557633Y-52231204D01*
X195679472Y-52244871D01*
X195693113Y-52244966D01*
X195693369Y-52244992D01*
X195693608Y-52244969D01*
X195698000Y-52245000D01*
X196700515Y-52245000D01*
X196700515Y-52518000D01*
X196718413Y-52699724D01*
X196771420Y-52874464D01*
X196857499Y-53035505D01*
X196973341Y-53176659D01*
X197114495Y-53292501D01*
X197275536Y-53378580D01*
X197450276Y-53431587D01*
X197541000Y-53440522D01*
X197541000Y-53544325D01*
X197459341Y-53611341D01*
X197343499Y-53752495D01*
X197257420Y-53913536D01*
X197204413Y-54088276D01*
X197186515Y-54270000D01*
X197186515Y-56270000D01*
X197204413Y-56451724D01*
X197257420Y-56626464D01*
X197343499Y-56787505D01*
X197459341Y-56928659D01*
X197600495Y-57044501D01*
X197761536Y-57130580D01*
X197936276Y-57183587D01*
X198118000Y-57201485D01*
X199618000Y-57201485D01*
X199799724Y-57183587D01*
X199841000Y-57171066D01*
X199841000Y-57390629D01*
X199839255Y-57515580D01*
X199886233Y-57771543D01*
X199982034Y-58013506D01*
X200123007Y-58232253D01*
X200303783Y-58419453D01*
X200517478Y-58567975D01*
X200755950Y-58672161D01*
X201010118Y-58728043D01*
X201270299Y-58733493D01*
X201526583Y-58688303D01*
X201769210Y-58594195D01*
X201988936Y-58454752D01*
X202177393Y-58275287D01*
X202327403Y-58062634D01*
X202433251Y-57824895D01*
X202490907Y-57571124D01*
X202492713Y-57441769D01*
X202494871Y-57422530D01*
X202495000Y-57404002D01*
X202495000Y-57277966D01*
X202495057Y-57273883D01*
X202495000Y-57273595D01*
X202495000Y-57170804D01*
X202626698Y-57197000D01*
X202963250Y-57197000D01*
X203195000Y-56965250D01*
X203195000Y-55543000D01*
X203741000Y-55543000D01*
X203741000Y-56965250D01*
X203972750Y-57197000D01*
X204309302Y-57197000D01*
X204488396Y-57161376D01*
X204657100Y-57091496D01*
X204808928Y-56990048D01*
X204938048Y-56860928D01*
X205039497Y-56709099D01*
X205109376Y-56540395D01*
X205145000Y-56361301D01*
X205145000Y-55774750D01*
X204913250Y-55543000D01*
X203741000Y-55543000D01*
X203195000Y-55543000D01*
X203175000Y-55543000D01*
X203175000Y-54997000D01*
X203195000Y-54997000D01*
X203195000Y-54977000D01*
X203741000Y-54977000D01*
X203741000Y-54997000D01*
X204913250Y-54997000D01*
X205145000Y-54765250D01*
X205145000Y-54178699D01*
X205109376Y-53999605D01*
X205039497Y-53830901D01*
X204938048Y-53679072D01*
X204808928Y-53549952D01*
X204657100Y-53448504D01*
X204619230Y-53432818D01*
X204631724Y-53431587D01*
X204806464Y-53378580D01*
X204967505Y-53292501D01*
X205108659Y-53176659D01*
X205224501Y-53035505D01*
X205310580Y-52874464D01*
X205363587Y-52699724D01*
X205381485Y-52518000D01*
X205381485Y-49318000D01*
X205363587Y-49136276D01*
X205310580Y-48961536D01*
X205224501Y-48800495D01*
X205197592Y-48767706D01*
X205271497Y-48657099D01*
X205341376Y-48488395D01*
X205377000Y-48309301D01*
X205377000Y-47122750D01*
X205145250Y-46891000D01*
X203473000Y-46891000D01*
X203473000Y-46911000D01*
X202927000Y-46911000D01*
X202927000Y-46891000D01*
X201254750Y-46891000D01*
X201041000Y-47104750D01*
X200827250Y-46891000D01*
X199155000Y-46891000D01*
X199155000Y-46911000D01*
X198609000Y-46911000D01*
X198609000Y-46891000D01*
X196936750Y-46891000D01*
X196705000Y-47122750D01*
X196705000Y-48309301D01*
X196740624Y-48488395D01*
X196810503Y-48657099D01*
X196884408Y-48767706D01*
X196857499Y-48800495D01*
X196771420Y-48961536D01*
X196718413Y-49136276D01*
X196700515Y-49318000D01*
X196700515Y-49591000D01*
X196247661Y-49591000D01*
X194667000Y-48010338D01*
X194667000Y-47649224D01*
X194636014Y-47333205D01*
X194544236Y-47029222D01*
X194395163Y-46748856D01*
X194194472Y-46502784D01*
X193949807Y-46300380D01*
X193670488Y-46149353D01*
X193367154Y-46055455D01*
X193051359Y-46022264D01*
X192735131Y-46051043D01*
X192430515Y-46140696D01*
X192149115Y-46287808D01*
X191901648Y-46486777D01*
X191769683Y-46644047D01*
X191654472Y-46502784D01*
X191409807Y-46300380D01*
X191130488Y-46149353D01*
X190827154Y-46055455D01*
X190511359Y-46022264D01*
X190195131Y-46051043D01*
X189890515Y-46140696D01*
X189609115Y-46287808D01*
X189361648Y-46486777D01*
X189229683Y-46644047D01*
X189114472Y-46502784D01*
X188869807Y-46300380D01*
X188590488Y-46149353D01*
X188287154Y-46055455D01*
X187971359Y-46022264D01*
X187655131Y-46051043D01*
X187350515Y-46140696D01*
X187069115Y-46287808D01*
X186821648Y-46486777D01*
X186689683Y-46644047D01*
X186574472Y-46502784D01*
X186329807Y-46300380D01*
X186050488Y-46149353D01*
X185747154Y-46055455D01*
X185431359Y-46022264D01*
X185115131Y-46051043D01*
X184810515Y-46140696D01*
X184529115Y-46287808D01*
X184281648Y-46486777D01*
X184149683Y-46644047D01*
X184034472Y-46502784D01*
X183789807Y-46300380D01*
X183510488Y-46149353D01*
X183207154Y-46055455D01*
X182891359Y-46022264D01*
X182575131Y-46051043D01*
X182270515Y-46140696D01*
X181989115Y-46287808D01*
X181741648Y-46486777D01*
X181609683Y-46644047D01*
X181494472Y-46502784D01*
X181249807Y-46300380D01*
X180970488Y-46149353D01*
X180667154Y-46055455D01*
X180351359Y-46022264D01*
X180035131Y-46051043D01*
X179730515Y-46140696D01*
X179449115Y-46287808D01*
X179201648Y-46486777D01*
X179069683Y-46644047D01*
X178954472Y-46502784D01*
X178709807Y-46300380D01*
X178430488Y-46149353D01*
X178127154Y-46055455D01*
X177811359Y-46022264D01*
X177495131Y-46051043D01*
X177190515Y-46140696D01*
X176909115Y-46287808D01*
X176661648Y-46486777D01*
X176529683Y-46644047D01*
X176414472Y-46502784D01*
X176169807Y-46300380D01*
X175890488Y-46149353D01*
X175587154Y-46055455D01*
X175271359Y-46022264D01*
X174955131Y-46051043D01*
X174650515Y-46140696D01*
X174369115Y-46287808D01*
X174121648Y-46486777D01*
X173989683Y-46644047D01*
X173874472Y-46502784D01*
X173629807Y-46300380D01*
X173350488Y-46149353D01*
X173047154Y-46055455D01*
X172731359Y-46022264D01*
X172415131Y-46051043D01*
X172110515Y-46140696D01*
X171829115Y-46287808D01*
X171581648Y-46486777D01*
X171449683Y-46644047D01*
X171334472Y-46502784D01*
X171089807Y-46300380D01*
X170810488Y-46149353D01*
X170507154Y-46055455D01*
X170191359Y-46022264D01*
X169875131Y-46051043D01*
X169570515Y-46140696D01*
X169289115Y-46287808D01*
X169041648Y-46486777D01*
X168909683Y-46644047D01*
X168794472Y-46502784D01*
X168549807Y-46300380D01*
X168270488Y-46149353D01*
X167967154Y-46055455D01*
X167651359Y-46022264D01*
X167335131Y-46051043D01*
X167030515Y-46140696D01*
X166749115Y-46287808D01*
X166501648Y-46486777D01*
X166369683Y-46644047D01*
X166254472Y-46502784D01*
X166009807Y-46300380D01*
X165730488Y-46149353D01*
X165427154Y-46055455D01*
X165111359Y-46022264D01*
X164795131Y-46051043D01*
X164490515Y-46140696D01*
X164209115Y-46287808D01*
X163961648Y-46486777D01*
X163829683Y-46644047D01*
X163714472Y-46502784D01*
X163469807Y-46300380D01*
X163190488Y-46149353D01*
X162887154Y-46055455D01*
X162571359Y-46022264D01*
X162255131Y-46051043D01*
X161950515Y-46140696D01*
X161669115Y-46287808D01*
X161421648Y-46486777D01*
X161289683Y-46644047D01*
X161174472Y-46502784D01*
X160929807Y-46300380D01*
X160650488Y-46149353D01*
X160347154Y-46055455D01*
X160031359Y-46022264D01*
X159715131Y-46051043D01*
X159410515Y-46140696D01*
X159129115Y-46287808D01*
X158881648Y-46486777D01*
X158749683Y-46644047D01*
X158634472Y-46502784D01*
X158389807Y-46300380D01*
X158110488Y-46149353D01*
X157807154Y-46055455D01*
X157491359Y-46022264D01*
X157175131Y-46051043D01*
X156870515Y-46140696D01*
X156589115Y-46287808D01*
X156341648Y-46486777D01*
X156209683Y-46644047D01*
X156094472Y-46502784D01*
X155849807Y-46300380D01*
X155570488Y-46149353D01*
X155267154Y-46055455D01*
X154951359Y-46022264D01*
X154635131Y-46051043D01*
X154330515Y-46140696D01*
X154049115Y-46287808D01*
X153801648Y-46486777D01*
X153669683Y-46644047D01*
X153554472Y-46502784D01*
X153309807Y-46300380D01*
X153030488Y-46149353D01*
X152727154Y-46055455D01*
X152411359Y-46022264D01*
X152095131Y-46051043D01*
X151790515Y-46140696D01*
X151509115Y-46287808D01*
X151261648Y-46486777D01*
X151129683Y-46644047D01*
X151014472Y-46502784D01*
X150769807Y-46300380D01*
X150490488Y-46149353D01*
X150187154Y-46055455D01*
X149871359Y-46022264D01*
X149555131Y-46051043D01*
X149250515Y-46140696D01*
X148969115Y-46287808D01*
X148721648Y-46486777D01*
X148589683Y-46644047D01*
X148474472Y-46502784D01*
X148229807Y-46300380D01*
X147950488Y-46149353D01*
X147647154Y-46055455D01*
X147331359Y-46022264D01*
X147015131Y-46051043D01*
X146710515Y-46140696D01*
X146429115Y-46287808D01*
X146181648Y-46486777D01*
X146049683Y-46644047D01*
X145934472Y-46502784D01*
X145689807Y-46300380D01*
X145410488Y-46149353D01*
X145107154Y-46055455D01*
X144791359Y-46022264D01*
X144475131Y-46051043D01*
X144170515Y-46140696D01*
X143889115Y-46287808D01*
X143641648Y-46486777D01*
X143437540Y-46730023D01*
X143284567Y-47008281D01*
X143188554Y-47310952D01*
X143153159Y-47626508D01*
X143153000Y-47649224D01*
X143153000Y-48870776D01*
X143183986Y-49186795D01*
X143275764Y-49490778D01*
X143424837Y-49771144D01*
X143625528Y-50017216D01*
X143870193Y-50219620D01*
X144149512Y-50370647D01*
X144452846Y-50464545D01*
X144768641Y-50497736D01*
X145084869Y-50468957D01*
X145389485Y-50379304D01*
X145670885Y-50232192D01*
X145918352Y-50033223D01*
X146050317Y-49875953D01*
X146165528Y-50017216D01*
X146410193Y-50219620D01*
X146689512Y-50370647D01*
X146992846Y-50464545D01*
X147308641Y-50497736D01*
X147624869Y-50468957D01*
X147929485Y-50379304D01*
X148210885Y-50232192D01*
X148458352Y-50033223D01*
X148590317Y-49875953D01*
X148705528Y-50017216D01*
X148950193Y-50219620D01*
X149229512Y-50370647D01*
X149532846Y-50464545D01*
X149848641Y-50497736D01*
X150164869Y-50468957D01*
X150469485Y-50379304D01*
X150750885Y-50232192D01*
X150998352Y-50033223D01*
X151130317Y-49875953D01*
X151245528Y-50017216D01*
X151490193Y-50219620D01*
X151769512Y-50370647D01*
X152072846Y-50464545D01*
X152388641Y-50497736D01*
X152704869Y-50468957D01*
X153009485Y-50379304D01*
X153290885Y-50232192D01*
X153538352Y-50033223D01*
X153670317Y-49875953D01*
X153785528Y-50017216D01*
X154030193Y-50219620D01*
X154309512Y-50370647D01*
X154612846Y-50464545D01*
X154928641Y-50497736D01*
X155244869Y-50468957D01*
X155549485Y-50379304D01*
X155830885Y-50232192D01*
X156078352Y-50033223D01*
X156210317Y-49875953D01*
X156325528Y-50017216D01*
X156570193Y-50219620D01*
X156849512Y-50370647D01*
X157152846Y-50464545D01*
X157468641Y-50497736D01*
X157784869Y-50468957D01*
X158089485Y-50379304D01*
X158370885Y-50232192D01*
X158618352Y-50033223D01*
X158750317Y-49875953D01*
X158865528Y-50017216D01*
X159110193Y-50219620D01*
X159389512Y-50370647D01*
X159692846Y-50464545D01*
X160008641Y-50497736D01*
X160324869Y-50468957D01*
X160629485Y-50379304D01*
X160910885Y-50232192D01*
X161158352Y-50033223D01*
X161290317Y-49875953D01*
X161405528Y-50017216D01*
X161650193Y-50219620D01*
X161929512Y-50370647D01*
X162218164Y-50460000D01*
X161290000Y-50460000D01*
X161188704Y-50469932D01*
X161087286Y-50478805D01*
X161081722Y-50480421D01*
X161075954Y-50480987D01*
X160978455Y-50510424D01*
X160880753Y-50538809D01*
X160875612Y-50541474D01*
X160870060Y-50543150D01*
X160780195Y-50590933D01*
X160689808Y-50637784D01*
X160685274Y-50641403D01*
X160680163Y-50644121D01*
X160601333Y-50708413D01*
X160521724Y-50771964D01*
X160513656Y-50779920D01*
X160513493Y-50780053D01*
X160513368Y-50780204D01*
X160510768Y-50782768D01*
X152895967Y-58397569D01*
X152831342Y-58476246D01*
X152765924Y-58554207D01*
X152763133Y-58559285D01*
X152759454Y-58563763D01*
X152711344Y-58653488D01*
X152662312Y-58742677D01*
X152660560Y-58748200D01*
X152657821Y-58753308D01*
X152628070Y-58850621D01*
X152597280Y-58947682D01*
X152596633Y-58953446D01*
X152594941Y-58958982D01*
X152584663Y-59060169D01*
X152573306Y-59161415D01*
X152573227Y-59172745D01*
X152573206Y-59172954D01*
X152573224Y-59173149D01*
X152573199Y-59176801D01*
X152573199Y-61279274D01*
X152411359Y-61262264D01*
X152095131Y-61291043D01*
X151790515Y-61380696D01*
X151509115Y-61527808D01*
X151261648Y-61726777D01*
X151129683Y-61884047D01*
X151014472Y-61742784D01*
X150769807Y-61540380D01*
X150490488Y-61389353D01*
X150187154Y-61295455D01*
X149871359Y-61262264D01*
X149555131Y-61291043D01*
X149250515Y-61380696D01*
X148969115Y-61527808D01*
X148721648Y-61726777D01*
X148600171Y-61871547D01*
X148521130Y-61769096D01*
X148277422Y-61556497D01*
X147996921Y-61395528D01*
X147840549Y-61358521D01*
X147593000Y-61531719D01*
X147593000Y-63227000D01*
X147613000Y-63227000D01*
X147613000Y-63773000D01*
X147593000Y-63773000D01*
X147593000Y-65468281D01*
X147840549Y-65641479D01*
X147996921Y-65604472D01*
X148277422Y-65443503D01*
X148521130Y-65230904D01*
X148600336Y-65128238D01*
X148705528Y-65257216D01*
X148950193Y-65459620D01*
X149229512Y-65610647D01*
X149532846Y-65704545D01*
X149848641Y-65737736D01*
X150164869Y-65708957D01*
X150469485Y-65619304D01*
X150750885Y-65472192D01*
X150998352Y-65273223D01*
X151130317Y-65115953D01*
X151245528Y-65257216D01*
X151490193Y-65459620D01*
X151769512Y-65610647D01*
X152072846Y-65704545D01*
X152388641Y-65737736D01*
X152573199Y-65720940D01*
X152573199Y-73411199D01*
X152583131Y-73512495D01*
X152592004Y-73613913D01*
X152593620Y-73619477D01*
X152594186Y-73625245D01*
X152623623Y-73722744D01*
X152652008Y-73820446D01*
X152654673Y-73825587D01*
X152656349Y-73831139D01*
X152704153Y-73921044D01*
X152750984Y-74011391D01*
X152754600Y-74015921D01*
X152757320Y-74021036D01*
X152821634Y-74099893D01*
X152885163Y-74179475D01*
X152893119Y-74187543D01*
X152893252Y-74187706D01*
X152893403Y-74187831D01*
X152895967Y-74190431D01*
X162034768Y-83329231D01*
X162113415Y-83393833D01*
X162191406Y-83459275D01*
X162196484Y-83462067D01*
X162200962Y-83465745D01*
X162290706Y-83513865D01*
X162379876Y-83562887D01*
X162385396Y-83564638D01*
X162390506Y-83567378D01*
X162487835Y-83597134D01*
X162584881Y-83627919D01*
X162590645Y-83628566D01*
X162596181Y-83630258D01*
X162697368Y-83640536D01*
X162798614Y-83651893D01*
X162809944Y-83651972D01*
X162810153Y-83651993D01*
X162810348Y-83651975D01*
X162814000Y-83652000D01*
X167220000Y-83652000D01*
X167321296Y-83642068D01*
X167422714Y-83633195D01*
X167428278Y-83631579D01*
X167434046Y-83631013D01*
X167531545Y-83601576D01*
X167629247Y-83573191D01*
X167634388Y-83570526D01*
X167639940Y-83568850D01*
X167729845Y-83521046D01*
X167767000Y-83501787D01*
X167767000Y-88998000D01*
X144367590Y-88998000D01*
X144447845Y-88884231D01*
X144649412Y-88431505D01*
X144759204Y-87948250D01*
X144767108Y-87382215D01*
X144670852Y-86896083D01*
X144482004Y-86437905D01*
X144207760Y-86025134D01*
X143858564Y-85673492D01*
X143447718Y-85396373D01*
X142990870Y-85204331D01*
X142505421Y-85104683D01*
X142009863Y-85101223D01*
X141523071Y-85194084D01*
X141063586Y-85379728D01*
X141002000Y-85420029D01*
X141002000Y-62889224D01*
X143153000Y-62889224D01*
X143153000Y-64110776D01*
X143183986Y-64426795D01*
X143275764Y-64730778D01*
X143424837Y-65011144D01*
X143625528Y-65257216D01*
X143870193Y-65459620D01*
X144149512Y-65610647D01*
X144452846Y-65704545D01*
X144768641Y-65737736D01*
X145084869Y-65708957D01*
X145389485Y-65619304D01*
X145670885Y-65472192D01*
X145918352Y-65273223D01*
X146039829Y-65128453D01*
X146118870Y-65230904D01*
X146362578Y-65443503D01*
X146643079Y-65604472D01*
X146799451Y-65641479D01*
X147047000Y-65468281D01*
X147047000Y-63773000D01*
X147027000Y-63773000D01*
X147027000Y-63227000D01*
X147047000Y-63227000D01*
X147047000Y-61531719D01*
X146799451Y-61358521D01*
X146643079Y-61395528D01*
X146362578Y-61556497D01*
X146118870Y-61769096D01*
X146039664Y-61871762D01*
X145934472Y-61742784D01*
X145689807Y-61540380D01*
X145410488Y-61389353D01*
X145107154Y-61295455D01*
X144791359Y-61262264D01*
X144475131Y-61291043D01*
X144170515Y-61380696D01*
X143889115Y-61527808D01*
X143641648Y-61726777D01*
X143437540Y-61970023D01*
X143284567Y-62248281D01*
X143188554Y-62550952D01*
X143153159Y-62866508D01*
X143153000Y-62889224D01*
X141002000Y-62889224D01*
X141002000Y-44926699D01*
X196705000Y-44926699D01*
X196705000Y-46113250D01*
X196936750Y-46345000D01*
X198609000Y-46345000D01*
X198609000Y-44322750D01*
X199155000Y-44322750D01*
X199155000Y-46345000D01*
X200827250Y-46345000D01*
X201041000Y-46131250D01*
X201254750Y-46345000D01*
X202927000Y-46345000D01*
X202927000Y-44322750D01*
X203473000Y-44322750D01*
X203473000Y-46345000D01*
X205145250Y-46345000D01*
X205377000Y-46113250D01*
X205377000Y-44926699D01*
X205341376Y-44747605D01*
X205271497Y-44578901D01*
X205170048Y-44427072D01*
X205040928Y-44297952D01*
X204889100Y-44196504D01*
X204720396Y-44126624D01*
X204541302Y-44091000D01*
X203704750Y-44091000D01*
X203473000Y-44322750D01*
X202927000Y-44322750D01*
X202695250Y-44091000D01*
X201858698Y-44091000D01*
X201679604Y-44126624D01*
X201510900Y-44196504D01*
X201359072Y-44297952D01*
X201229952Y-44427072D01*
X201128503Y-44578901D01*
X201058624Y-44747605D01*
X201041000Y-44836207D01*
X201023376Y-44747605D01*
X200953497Y-44578901D01*
X200852048Y-44427072D01*
X200722928Y-44297952D01*
X200571100Y-44196504D01*
X200402396Y-44126624D01*
X200223302Y-44091000D01*
X199386750Y-44091000D01*
X199155000Y-44322750D01*
X198609000Y-44322750D01*
X198377250Y-44091000D01*
X197540698Y-44091000D01*
X197361604Y-44126624D01*
X197192900Y-44196504D01*
X197041072Y-44297952D01*
X196911952Y-44427072D01*
X196810503Y-44578901D01*
X196740624Y-44747605D01*
X196705000Y-44926699D01*
X141002000Y-44926699D01*
X141002000Y-44380890D01*
X141455336Y-44578948D01*
X141939345Y-44685365D01*
X142434807Y-44695743D01*
X142922848Y-44609688D01*
X143384880Y-44430478D01*
X143803304Y-44164938D01*
X144162182Y-43823183D01*
X144447845Y-43418231D01*
X144649412Y-42965505D01*
X144759204Y-42482250D01*
X144767108Y-41916215D01*
X144670852Y-41430083D01*
X144494408Y-41002000D01*
X205520593Y-41002000D01*
X205351633Y-41396214D01*
X205351633Y-41396214D01*
G37*
X205351633Y-41396214D02*
X205248598Y-41880955D01*
X205241678Y-42376477D01*
X205331138Y-42863906D01*
X205513570Y-43324675D01*
X205782024Y-43741235D01*
X206126276Y-44097719D01*
X206533214Y-44380547D01*
X206987336Y-44578948D01*
X207471345Y-44685365D01*
X207966807Y-44695743D01*
X208454848Y-44609688D01*
X208916880Y-44430478D01*
X208998000Y-44378998D01*
X208998000Y-62611000D01*
X203995447Y-62611000D01*
X203999485Y-62570000D01*
X203999485Y-60570000D01*
X203981587Y-60388276D01*
X203928580Y-60213536D01*
X203842501Y-60052495D01*
X203726659Y-59911341D01*
X203585505Y-59795499D01*
X203424464Y-59709420D01*
X203249724Y-59656413D01*
X203068000Y-59638515D01*
X199268000Y-59638515D01*
X199086276Y-59656413D01*
X198911536Y-59709420D01*
X198750495Y-59795499D01*
X198609341Y-59911341D01*
X198493499Y-60052495D01*
X198407420Y-60213536D01*
X198354413Y-60388276D01*
X198336515Y-60570000D01*
X198336515Y-62570000D01*
X198340553Y-62611000D01*
X194639720Y-62611000D01*
X194636014Y-62573205D01*
X194544236Y-62269222D01*
X194395163Y-61988856D01*
X194194472Y-61742784D01*
X193949807Y-61540380D01*
X193670488Y-61389353D01*
X193367154Y-61295455D01*
X193051359Y-61262264D01*
X192735131Y-61291043D01*
X192430515Y-61380696D01*
X192149115Y-61527808D01*
X191901648Y-61726777D01*
X191769683Y-61884047D01*
X191654472Y-61742784D01*
X191409807Y-61540380D01*
X191130488Y-61389353D01*
X190827154Y-61295455D01*
X190511359Y-61262264D01*
X190195131Y-61291043D01*
X189890515Y-61380696D01*
X189609115Y-61527808D01*
X189361648Y-61726777D01*
X189229683Y-61884047D01*
X189114472Y-61742784D01*
X188869807Y-61540380D01*
X188590488Y-61389353D01*
X188287154Y-61295455D01*
X187971359Y-61262264D01*
X187655131Y-61291043D01*
X187350515Y-61380696D01*
X187069115Y-61527808D01*
X186821648Y-61726777D01*
X186689683Y-61884047D01*
X186574472Y-61742784D01*
X186329807Y-61540380D01*
X186050488Y-61389353D01*
X185747154Y-61295455D01*
X185431359Y-61262264D01*
X185115131Y-61291043D01*
X184810515Y-61380696D01*
X184529115Y-61527808D01*
X184281648Y-61726777D01*
X184149683Y-61884047D01*
X184034472Y-61742784D01*
X183789807Y-61540380D01*
X183510488Y-61389353D01*
X183207154Y-61295455D01*
X182891359Y-61262264D01*
X182575131Y-61291043D01*
X182270515Y-61380696D01*
X181989115Y-61527808D01*
X181741648Y-61726777D01*
X181609683Y-61884047D01*
X181494472Y-61742784D01*
X181249807Y-61540380D01*
X180970488Y-61389353D01*
X180667154Y-61295455D01*
X180351359Y-61262264D01*
X180035131Y-61291043D01*
X179730515Y-61380696D01*
X179449115Y-61527808D01*
X179201648Y-61726777D01*
X179069683Y-61884047D01*
X178954472Y-61742784D01*
X178709807Y-61540380D01*
X178430488Y-61389353D01*
X178127154Y-61295455D01*
X177811359Y-61262264D01*
X177495131Y-61291043D01*
X177190515Y-61380696D01*
X176909115Y-61527808D01*
X176661648Y-61726777D01*
X176529683Y-61884047D01*
X176414472Y-61742784D01*
X176169807Y-61540380D01*
X175890488Y-61389353D01*
X175587154Y-61295455D01*
X175271359Y-61262264D01*
X174955131Y-61291043D01*
X174650515Y-61380696D01*
X174369115Y-61527808D01*
X174121648Y-61726777D01*
X173989683Y-61884047D01*
X173874472Y-61742784D01*
X173629807Y-61540380D01*
X173350488Y-61389353D01*
X173047154Y-61295455D01*
X172731359Y-61262264D01*
X172415131Y-61291043D01*
X172110515Y-61380696D01*
X171829115Y-61527808D01*
X171581648Y-61726777D01*
X171449683Y-61884047D01*
X171334472Y-61742784D01*
X171089807Y-61540380D01*
X170810488Y-61389353D01*
X170507154Y-61295455D01*
X170191359Y-61262264D01*
X169875131Y-61291043D01*
X169570515Y-61380696D01*
X169289115Y-61527808D01*
X169041648Y-61726777D01*
X168909683Y-61884047D01*
X168794472Y-61742784D01*
X168549807Y-61540380D01*
X168270488Y-61389353D01*
X167967154Y-61295455D01*
X167651359Y-61262264D01*
X167335131Y-61291043D01*
X167030515Y-61380696D01*
X166749115Y-61527808D01*
X166501648Y-61726777D01*
X166369683Y-61884047D01*
X166254472Y-61742784D01*
X166009807Y-61540380D01*
X165730488Y-61389353D01*
X165427154Y-61295455D01*
X165111359Y-61262264D01*
X164795131Y-61291043D01*
X164490515Y-61380696D01*
X164209115Y-61527808D01*
X163961648Y-61726777D01*
X163829683Y-61884047D01*
X163714472Y-61742784D01*
X163469807Y-61540380D01*
X163190488Y-61389353D01*
X163183328Y-61387136D01*
X163524464Y-61046000D01*
X169418000Y-61046000D01*
X169519296Y-61036068D01*
X169620714Y-61027195D01*
X169626278Y-61025579D01*
X169632046Y-61025013D01*
X169729545Y-60995576D01*
X169827247Y-60967191D01*
X169832388Y-60964526D01*
X169837940Y-60962850D01*
X169927845Y-60915046D01*
X170018192Y-60868215D01*
X170022722Y-60864599D01*
X170027837Y-60861879D01*
X170106694Y-60797565D01*
X170186276Y-60734036D01*
X170194344Y-60726080D01*
X170194507Y-60725947D01*
X170194632Y-60725796D01*
X170197232Y-60723232D01*
X180432147Y-50488316D01*
X180644869Y-50468957D01*
X180949485Y-50379304D01*
X181230885Y-50232192D01*
X181478352Y-50033223D01*
X181610317Y-49875953D01*
X181725528Y-50017216D01*
X181970193Y-50219620D01*
X182249512Y-50370647D01*
X182552846Y-50464545D01*
X182868641Y-50497736D01*
X183184869Y-50468957D01*
X183489485Y-50379304D01*
X183770885Y-50232192D01*
X184018352Y-50033223D01*
X184150317Y-49875953D01*
X184265528Y-50017216D01*
X184510193Y-50219620D01*
X184789512Y-50370647D01*
X185092846Y-50464545D01*
X185408641Y-50497736D01*
X185724869Y-50468957D01*
X186029485Y-50379304D01*
X186310885Y-50232192D01*
X186558352Y-50033223D01*
X186690317Y-49875953D01*
X186805528Y-50017216D01*
X187050193Y-50219620D01*
X187329512Y-50370647D01*
X187632846Y-50464545D01*
X187948641Y-50497736D01*
X188264869Y-50468957D01*
X188569485Y-50379304D01*
X188850885Y-50232192D01*
X189098352Y-50033223D01*
X189230317Y-49875953D01*
X189345528Y-50017216D01*
X189590193Y-50219620D01*
X189869512Y-50370647D01*
X190172846Y-50464545D01*
X190488641Y-50497736D01*
X190804869Y-50468957D01*
X191109485Y-50379304D01*
X191390885Y-50232192D01*
X191638352Y-50033223D01*
X191770317Y-49875953D01*
X191885528Y-50017216D01*
X192130193Y-50219620D01*
X192409512Y-50370647D01*
X192712846Y-50464545D01*
X193028641Y-50497736D01*
X193344869Y-50468957D01*
X193366059Y-50462720D01*
X194759670Y-51856331D01*
X194854370Y-51934119D01*
X194948289Y-52012926D01*
X194954407Y-52016289D01*
X194959796Y-52020716D01*
X195067779Y-52078616D01*
X195175239Y-52137693D01*
X195181892Y-52139803D01*
X195188040Y-52143100D01*
X195305228Y-52178928D01*
X195422101Y-52216002D01*
X195429038Y-52216780D01*
X195435710Y-52218820D01*
X195557633Y-52231204D01*
X195679472Y-52244871D01*
X195693113Y-52244966D01*
X195693369Y-52244992D01*
X195693608Y-52244969D01*
X195698000Y-52245000D01*
X196700515Y-52245000D01*
X196700515Y-52518000D01*
X196718413Y-52699724D01*
X196771420Y-52874464D01*
X196857499Y-53035505D01*
X196973341Y-53176659D01*
X197114495Y-53292501D01*
X197275536Y-53378580D01*
X197450276Y-53431587D01*
X197541000Y-53440522D01*
X197541000Y-53544325D01*
X197459341Y-53611341D01*
X197343499Y-53752495D01*
X197257420Y-53913536D01*
X197204413Y-54088276D01*
X197186515Y-54270000D01*
X197186515Y-56270000D01*
X197204413Y-56451724D01*
X197257420Y-56626464D01*
X197343499Y-56787505D01*
X197459341Y-56928659D01*
X197600495Y-57044501D01*
X197761536Y-57130580D01*
X197936276Y-57183587D01*
X198118000Y-57201485D01*
X199618000Y-57201485D01*
X199799724Y-57183587D01*
X199841000Y-57171066D01*
X199841000Y-57390629D01*
X199839255Y-57515580D01*
X199886233Y-57771543D01*
X199982034Y-58013506D01*
X200123007Y-58232253D01*
X200303783Y-58419453D01*
X200517478Y-58567975D01*
X200755950Y-58672161D01*
X201010118Y-58728043D01*
X201270299Y-58733493D01*
X201526583Y-58688303D01*
X201769210Y-58594195D01*
X201988936Y-58454752D01*
X202177393Y-58275287D01*
X202327403Y-58062634D01*
X202433251Y-57824895D01*
X202490907Y-57571124D01*
X202492713Y-57441769D01*
X202494871Y-57422530D01*
X202495000Y-57404002D01*
X202495000Y-57277966D01*
X202495057Y-57273883D01*
X202495000Y-57273595D01*
X202495000Y-57170804D01*
X202626698Y-57197000D01*
X202963250Y-57197000D01*
X203195000Y-56965250D01*
X203195000Y-55543000D01*
X203741000Y-55543000D01*
X203741000Y-56965250D01*
X203972750Y-57197000D01*
X204309302Y-57197000D01*
X204488396Y-57161376D01*
X204657100Y-57091496D01*
X204808928Y-56990048D01*
X204938048Y-56860928D01*
X205039497Y-56709099D01*
X205109376Y-56540395D01*
X205145000Y-56361301D01*
X205145000Y-55774750D01*
X204913250Y-55543000D01*
X203741000Y-55543000D01*
X203195000Y-55543000D01*
X203175000Y-55543000D01*
X203175000Y-54997000D01*
X203195000Y-54997000D01*
X203195000Y-54977000D01*
X203741000Y-54977000D01*
X203741000Y-54997000D01*
X204913250Y-54997000D01*
X205145000Y-54765250D01*
X205145000Y-54178699D01*
X205109376Y-53999605D01*
X205039497Y-53830901D01*
X204938048Y-53679072D01*
X204808928Y-53549952D01*
X204657100Y-53448504D01*
X204619230Y-53432818D01*
X204631724Y-53431587D01*
X204806464Y-53378580D01*
X204967505Y-53292501D01*
X205108659Y-53176659D01*
X205224501Y-53035505D01*
X205310580Y-52874464D01*
X205363587Y-52699724D01*
X205381485Y-52518000D01*
X205381485Y-49318000D01*
X205363587Y-49136276D01*
X205310580Y-48961536D01*
X205224501Y-48800495D01*
X205197592Y-48767706D01*
X205271497Y-48657099D01*
X205341376Y-48488395D01*
X205377000Y-48309301D01*
X205377000Y-47122750D01*
X205145250Y-46891000D01*
X203473000Y-46891000D01*
X203473000Y-46911000D01*
X202927000Y-46911000D01*
X202927000Y-46891000D01*
X201254750Y-46891000D01*
X201041000Y-47104750D01*
X200827250Y-46891000D01*
X199155000Y-46891000D01*
X199155000Y-46911000D01*
X198609000Y-46911000D01*
X198609000Y-46891000D01*
X196936750Y-46891000D01*
X196705000Y-47122750D01*
X196705000Y-48309301D01*
X196740624Y-48488395D01*
X196810503Y-48657099D01*
X196884408Y-48767706D01*
X196857499Y-48800495D01*
X196771420Y-48961536D01*
X196718413Y-49136276D01*
X196700515Y-49318000D01*
X196700515Y-49591000D01*
X196247661Y-49591000D01*
X194667000Y-48010338D01*
X194667000Y-47649224D01*
X194636014Y-47333205D01*
X194544236Y-47029222D01*
X194395163Y-46748856D01*
X194194472Y-46502784D01*
X193949807Y-46300380D01*
X193670488Y-46149353D01*
X193367154Y-46055455D01*
X193051359Y-46022264D01*
X192735131Y-46051043D01*
X192430515Y-46140696D01*
X192149115Y-46287808D01*
X191901648Y-46486777D01*
X191769683Y-46644047D01*
X191654472Y-46502784D01*
X191409807Y-46300380D01*
X191130488Y-46149353D01*
X190827154Y-46055455D01*
X190511359Y-46022264D01*
X190195131Y-46051043D01*
X189890515Y-46140696D01*
X189609115Y-46287808D01*
X189361648Y-46486777D01*
X189229683Y-46644047D01*
X189114472Y-46502784D01*
X188869807Y-46300380D01*
X188590488Y-46149353D01*
X188287154Y-46055455D01*
X187971359Y-46022264D01*
X187655131Y-46051043D01*
X187350515Y-46140696D01*
X187069115Y-46287808D01*
X186821648Y-46486777D01*
X186689683Y-46644047D01*
X186574472Y-46502784D01*
X186329807Y-46300380D01*
X186050488Y-46149353D01*
X185747154Y-46055455D01*
X185431359Y-46022264D01*
X185115131Y-46051043D01*
X184810515Y-46140696D01*
X184529115Y-46287808D01*
X184281648Y-46486777D01*
X184149683Y-46644047D01*
X184034472Y-46502784D01*
X183789807Y-46300380D01*
X183510488Y-46149353D01*
X183207154Y-46055455D01*
X182891359Y-46022264D01*
X182575131Y-46051043D01*
X182270515Y-46140696D01*
X181989115Y-46287808D01*
X181741648Y-46486777D01*
X181609683Y-46644047D01*
X181494472Y-46502784D01*
X181249807Y-46300380D01*
X180970488Y-46149353D01*
X180667154Y-46055455D01*
X180351359Y-46022264D01*
X180035131Y-46051043D01*
X179730515Y-46140696D01*
X179449115Y-46287808D01*
X179201648Y-46486777D01*
X179069683Y-46644047D01*
X178954472Y-46502784D01*
X178709807Y-46300380D01*
X178430488Y-46149353D01*
X178127154Y-46055455D01*
X177811359Y-46022264D01*
X177495131Y-46051043D01*
X177190515Y-46140696D01*
X176909115Y-46287808D01*
X176661648Y-46486777D01*
X176529683Y-46644047D01*
X176414472Y-46502784D01*
X176169807Y-46300380D01*
X175890488Y-46149353D01*
X175587154Y-46055455D01*
X175271359Y-46022264D01*
X174955131Y-46051043D01*
X174650515Y-46140696D01*
X174369115Y-46287808D01*
X174121648Y-46486777D01*
X173989683Y-46644047D01*
X173874472Y-46502784D01*
X173629807Y-46300380D01*
X173350488Y-46149353D01*
X173047154Y-46055455D01*
X172731359Y-46022264D01*
X172415131Y-46051043D01*
X172110515Y-46140696D01*
X171829115Y-46287808D01*
X171581648Y-46486777D01*
X171449683Y-46644047D01*
X171334472Y-46502784D01*
X171089807Y-46300380D01*
X170810488Y-46149353D01*
X170507154Y-46055455D01*
X170191359Y-46022264D01*
X169875131Y-46051043D01*
X169570515Y-46140696D01*
X169289115Y-46287808D01*
X169041648Y-46486777D01*
X168909683Y-46644047D01*
X168794472Y-46502784D01*
X168549807Y-46300380D01*
X168270488Y-46149353D01*
X167967154Y-46055455D01*
X167651359Y-46022264D01*
X167335131Y-46051043D01*
X167030515Y-46140696D01*
X166749115Y-46287808D01*
X166501648Y-46486777D01*
X166369683Y-46644047D01*
X166254472Y-46502784D01*
X166009807Y-46300380D01*
X165730488Y-46149353D01*
X165427154Y-46055455D01*
X165111359Y-46022264D01*
X164795131Y-46051043D01*
X164490515Y-46140696D01*
X164209115Y-46287808D01*
X163961648Y-46486777D01*
X163829683Y-46644047D01*
X163714472Y-46502784D01*
X163469807Y-46300380D01*
X163190488Y-46149353D01*
X162887154Y-46055455D01*
X162571359Y-46022264D01*
X162255131Y-46051043D01*
X161950515Y-46140696D01*
X161669115Y-46287808D01*
X161421648Y-46486777D01*
X161289683Y-46644047D01*
X161174472Y-46502784D01*
X160929807Y-46300380D01*
X160650488Y-46149353D01*
X160347154Y-46055455D01*
X160031359Y-46022264D01*
X159715131Y-46051043D01*
X159410515Y-46140696D01*
X159129115Y-46287808D01*
X158881648Y-46486777D01*
X158749683Y-46644047D01*
X158634472Y-46502784D01*
X158389807Y-46300380D01*
X158110488Y-46149353D01*
X157807154Y-46055455D01*
X157491359Y-46022264D01*
X157175131Y-46051043D01*
X156870515Y-46140696D01*
X156589115Y-46287808D01*
X156341648Y-46486777D01*
X156209683Y-46644047D01*
X156094472Y-46502784D01*
X155849807Y-46300380D01*
X155570488Y-46149353D01*
X155267154Y-46055455D01*
X154951359Y-46022264D01*
X154635131Y-46051043D01*
X154330515Y-46140696D01*
X154049115Y-46287808D01*
X153801648Y-46486777D01*
X153669683Y-46644047D01*
X153554472Y-46502784D01*
X153309807Y-46300380D01*
X153030488Y-46149353D01*
X152727154Y-46055455D01*
X152411359Y-46022264D01*
X152095131Y-46051043D01*
X151790515Y-46140696D01*
X151509115Y-46287808D01*
X151261648Y-46486777D01*
X151129683Y-46644047D01*
X151014472Y-46502784D01*
X150769807Y-46300380D01*
X150490488Y-46149353D01*
X150187154Y-46055455D01*
X149871359Y-46022264D01*
X149555131Y-46051043D01*
X149250515Y-46140696D01*
X148969115Y-46287808D01*
X148721648Y-46486777D01*
X148589683Y-46644047D01*
X148474472Y-46502784D01*
X148229807Y-46300380D01*
X147950488Y-46149353D01*
X147647154Y-46055455D01*
X147331359Y-46022264D01*
X147015131Y-46051043D01*
X146710515Y-46140696D01*
X146429115Y-46287808D01*
X146181648Y-46486777D01*
X146049683Y-46644047D01*
X145934472Y-46502784D01*
X145689807Y-46300380D01*
X145410488Y-46149353D01*
X145107154Y-46055455D01*
X144791359Y-46022264D01*
X144475131Y-46051043D01*
X144170515Y-46140696D01*
X143889115Y-46287808D01*
X143641648Y-46486777D01*
X143437540Y-46730023D01*
X143284567Y-47008281D01*
X143188554Y-47310952D01*
X143153159Y-47626508D01*
X143153000Y-47649224D01*
X143153000Y-48870776D01*
X143183986Y-49186795D01*
X143275764Y-49490778D01*
X143424837Y-49771144D01*
X143625528Y-50017216D01*
X143870193Y-50219620D01*
X144149512Y-50370647D01*
X144452846Y-50464545D01*
X144768641Y-50497736D01*
X145084869Y-50468957D01*
X145389485Y-50379304D01*
X145670885Y-50232192D01*
X145918352Y-50033223D01*
X146050317Y-49875953D01*
X146165528Y-50017216D01*
X146410193Y-50219620D01*
X146689512Y-50370647D01*
X146992846Y-50464545D01*
X147308641Y-50497736D01*
X147624869Y-50468957D01*
X147929485Y-50379304D01*
X148210885Y-50232192D01*
X148458352Y-50033223D01*
X148590317Y-49875953D01*
X148705528Y-50017216D01*
X148950193Y-50219620D01*
X149229512Y-50370647D01*
X149532846Y-50464545D01*
X149848641Y-50497736D01*
X150164869Y-50468957D01*
X150469485Y-50379304D01*
X150750885Y-50232192D01*
X150998352Y-50033223D01*
X151130317Y-49875953D01*
X151245528Y-50017216D01*
X151490193Y-50219620D01*
X151769512Y-50370647D01*
X152072846Y-50464545D01*
X152388641Y-50497736D01*
X152704869Y-50468957D01*
X153009485Y-50379304D01*
X153290885Y-50232192D01*
X153538352Y-50033223D01*
X153670317Y-49875953D01*
X153785528Y-50017216D01*
X154030193Y-50219620D01*
X154309512Y-50370647D01*
X154612846Y-50464545D01*
X154928641Y-50497736D01*
X155244869Y-50468957D01*
X155549485Y-50379304D01*
X155830885Y-50232192D01*
X156078352Y-50033223D01*
X156210317Y-49875953D01*
X156325528Y-50017216D01*
X156570193Y-50219620D01*
X156849512Y-50370647D01*
X157152846Y-50464545D01*
X157468641Y-50497736D01*
X157784869Y-50468957D01*
X158089485Y-50379304D01*
X158370885Y-50232192D01*
X158618352Y-50033223D01*
X158750317Y-49875953D01*
X158865528Y-50017216D01*
X159110193Y-50219620D01*
X159389512Y-50370647D01*
X159692846Y-50464545D01*
X160008641Y-50497736D01*
X160324869Y-50468957D01*
X160629485Y-50379304D01*
X160910885Y-50232192D01*
X161158352Y-50033223D01*
X161290317Y-49875953D01*
X161405528Y-50017216D01*
X161650193Y-50219620D01*
X161929512Y-50370647D01*
X162218164Y-50460000D01*
X161290000Y-50460000D01*
X161188704Y-50469932D01*
X161087286Y-50478805D01*
X161081722Y-50480421D01*
X161075954Y-50480987D01*
X160978455Y-50510424D01*
X160880753Y-50538809D01*
X160875612Y-50541474D01*
X160870060Y-50543150D01*
X160780195Y-50590933D01*
X160689808Y-50637784D01*
X160685274Y-50641403D01*
X160680163Y-50644121D01*
X160601333Y-50708413D01*
X160521724Y-50771964D01*
X160513656Y-50779920D01*
X160513493Y-50780053D01*
X160513368Y-50780204D01*
X160510768Y-50782768D01*
X152895967Y-58397569D01*
X152831342Y-58476246D01*
X152765924Y-58554207D01*
X152763133Y-58559285D01*
X152759454Y-58563763D01*
X152711344Y-58653488D01*
X152662312Y-58742677D01*
X152660560Y-58748200D01*
X152657821Y-58753308D01*
X152628070Y-58850621D01*
X152597280Y-58947682D01*
X152596633Y-58953446D01*
X152594941Y-58958982D01*
X152584663Y-59060169D01*
X152573306Y-59161415D01*
X152573227Y-59172745D01*
X152573206Y-59172954D01*
X152573224Y-59173149D01*
X152573199Y-59176801D01*
X152573199Y-61279274D01*
X152411359Y-61262264D01*
X152095131Y-61291043D01*
X151790515Y-61380696D01*
X151509115Y-61527808D01*
X151261648Y-61726777D01*
X151129683Y-61884047D01*
X151014472Y-61742784D01*
X150769807Y-61540380D01*
X150490488Y-61389353D01*
X150187154Y-61295455D01*
X149871359Y-61262264D01*
X149555131Y-61291043D01*
X149250515Y-61380696D01*
X148969115Y-61527808D01*
X148721648Y-61726777D01*
X148600171Y-61871547D01*
X148521130Y-61769096D01*
X148277422Y-61556497D01*
X147996921Y-61395528D01*
X147840549Y-61358521D01*
X147593000Y-61531719D01*
X147593000Y-63227000D01*
X147613000Y-63227000D01*
X147613000Y-63773000D01*
X147593000Y-63773000D01*
X147593000Y-65468281D01*
X147840549Y-65641479D01*
X147996921Y-65604472D01*
X148277422Y-65443503D01*
X148521130Y-65230904D01*
X148600336Y-65128238D01*
X148705528Y-65257216D01*
X148950193Y-65459620D01*
X149229512Y-65610647D01*
X149532846Y-65704545D01*
X149848641Y-65737736D01*
X150164869Y-65708957D01*
X150469485Y-65619304D01*
X150750885Y-65472192D01*
X150998352Y-65273223D01*
X151130317Y-65115953D01*
X151245528Y-65257216D01*
X151490193Y-65459620D01*
X151769512Y-65610647D01*
X152072846Y-65704545D01*
X152388641Y-65737736D01*
X152573199Y-65720940D01*
X152573199Y-73411199D01*
X152583131Y-73512495D01*
X152592004Y-73613913D01*
X152593620Y-73619477D01*
X152594186Y-73625245D01*
X152623623Y-73722744D01*
X152652008Y-73820446D01*
X152654673Y-73825587D01*
X152656349Y-73831139D01*
X152704153Y-73921044D01*
X152750984Y-74011391D01*
X152754600Y-74015921D01*
X152757320Y-74021036D01*
X152821634Y-74099893D01*
X152885163Y-74179475D01*
X152893119Y-74187543D01*
X152893252Y-74187706D01*
X152893403Y-74187831D01*
X152895967Y-74190431D01*
X162034768Y-83329231D01*
X162113415Y-83393833D01*
X162191406Y-83459275D01*
X162196484Y-83462067D01*
X162200962Y-83465745D01*
X162290706Y-83513865D01*
X162379876Y-83562887D01*
X162385396Y-83564638D01*
X162390506Y-83567378D01*
X162487835Y-83597134D01*
X162584881Y-83627919D01*
X162590645Y-83628566D01*
X162596181Y-83630258D01*
X162697368Y-83640536D01*
X162798614Y-83651893D01*
X162809944Y-83651972D01*
X162810153Y-83651993D01*
X162810348Y-83651975D01*
X162814000Y-83652000D01*
X167220000Y-83652000D01*
X167321296Y-83642068D01*
X167422714Y-83633195D01*
X167428278Y-83631579D01*
X167434046Y-83631013D01*
X167531545Y-83601576D01*
X167629247Y-83573191D01*
X167634388Y-83570526D01*
X167639940Y-83568850D01*
X167729845Y-83521046D01*
X167767000Y-83501787D01*
X167767000Y-88998000D01*
X144367590Y-88998000D01*
X144447845Y-88884231D01*
X144649412Y-88431505D01*
X144759204Y-87948250D01*
X144767108Y-87382215D01*
X144670852Y-86896083D01*
X144482004Y-86437905D01*
X144207760Y-86025134D01*
X143858564Y-85673492D01*
X143447718Y-85396373D01*
X142990870Y-85204331D01*
X142505421Y-85104683D01*
X142009863Y-85101223D01*
X141523071Y-85194084D01*
X141063586Y-85379728D01*
X141002000Y-85420029D01*
X141002000Y-62889224D01*
X143153000Y-62889224D01*
X143153000Y-64110776D01*
X143183986Y-64426795D01*
X143275764Y-64730778D01*
X143424837Y-65011144D01*
X143625528Y-65257216D01*
X143870193Y-65459620D01*
X144149512Y-65610647D01*
X144452846Y-65704545D01*
X144768641Y-65737736D01*
X145084869Y-65708957D01*
X145389485Y-65619304D01*
X145670885Y-65472192D01*
X145918352Y-65273223D01*
X146039829Y-65128453D01*
X146118870Y-65230904D01*
X146362578Y-65443503D01*
X146643079Y-65604472D01*
X146799451Y-65641479D01*
X147047000Y-65468281D01*
X147047000Y-63773000D01*
X147027000Y-63773000D01*
X147027000Y-63227000D01*
X147047000Y-63227000D01*
X147047000Y-61531719D01*
X146799451Y-61358521D01*
X146643079Y-61395528D01*
X146362578Y-61556497D01*
X146118870Y-61769096D01*
X146039664Y-61871762D01*
X145934472Y-61742784D01*
X145689807Y-61540380D01*
X145410488Y-61389353D01*
X145107154Y-61295455D01*
X144791359Y-61262264D01*
X144475131Y-61291043D01*
X144170515Y-61380696D01*
X143889115Y-61527808D01*
X143641648Y-61726777D01*
X143437540Y-61970023D01*
X143284567Y-62248281D01*
X143188554Y-62550952D01*
X143153159Y-62866508D01*
X143153000Y-62889224D01*
X141002000Y-62889224D01*
X141002000Y-44926699D01*
X196705000Y-44926699D01*
X196705000Y-46113250D01*
X196936750Y-46345000D01*
X198609000Y-46345000D01*
X198609000Y-44322750D01*
X199155000Y-44322750D01*
X199155000Y-46345000D01*
X200827250Y-46345000D01*
X201041000Y-46131250D01*
X201254750Y-46345000D01*
X202927000Y-46345000D01*
X202927000Y-44322750D01*
X203473000Y-44322750D01*
X203473000Y-46345000D01*
X205145250Y-46345000D01*
X205377000Y-46113250D01*
X205377000Y-44926699D01*
X205341376Y-44747605D01*
X205271497Y-44578901D01*
X205170048Y-44427072D01*
X205040928Y-44297952D01*
X204889100Y-44196504D01*
X204720396Y-44126624D01*
X204541302Y-44091000D01*
X203704750Y-44091000D01*
X203473000Y-44322750D01*
X202927000Y-44322750D01*
X202695250Y-44091000D01*
X201858698Y-44091000D01*
X201679604Y-44126624D01*
X201510900Y-44196504D01*
X201359072Y-44297952D01*
X201229952Y-44427072D01*
X201128503Y-44578901D01*
X201058624Y-44747605D01*
X201041000Y-44836207D01*
X201023376Y-44747605D01*
X200953497Y-44578901D01*
X200852048Y-44427072D01*
X200722928Y-44297952D01*
X200571100Y-44196504D01*
X200402396Y-44126624D01*
X200223302Y-44091000D01*
X199386750Y-44091000D01*
X199155000Y-44322750D01*
X198609000Y-44322750D01*
X198377250Y-44091000D01*
X197540698Y-44091000D01*
X197361604Y-44126624D01*
X197192900Y-44196504D01*
X197041072Y-44297952D01*
X196911952Y-44427072D01*
X196810503Y-44578901D01*
X196740624Y-44747605D01*
X196705000Y-44926699D01*
X141002000Y-44926699D01*
X141002000Y-44380890D01*
X141455336Y-44578948D01*
X141939345Y-44685365D01*
X142434807Y-44695743D01*
X142922848Y-44609688D01*
X143384880Y-44430478D01*
X143803304Y-44164938D01*
X144162182Y-43823183D01*
X144447845Y-43418231D01*
X144649412Y-42965505D01*
X144759204Y-42482250D01*
X144767108Y-41916215D01*
X144670852Y-41430083D01*
X144494408Y-41002000D01*
X205520593Y-41002000D01*
X205351633Y-41396214D01*
G36*
X166485528Y-65257216D02*
X166730193Y-65459620D01*
X167009512Y-65610647D01*
X167312846Y-65704545D01*
X167628641Y-65737736D01*
X167767000Y-65725144D01*
X167767000Y-72133000D01*
X167230676Y-72133000D01*
X166934080Y-72162081D01*
X166648782Y-72248218D01*
X166385647Y-72388129D01*
X166375578Y-72396341D01*
X166195478Y-72282021D01*
X165913284Y-72172818D01*
X165615208Y-72120766D01*
X165373000Y-72353444D01*
X165373000Y-73387000D01*
X165393000Y-73387000D01*
X165393000Y-73933000D01*
X165373000Y-73933000D01*
X165373000Y-73953000D01*
X164827000Y-73953000D01*
X164827000Y-73933000D01*
X163433847Y-73933000D01*
X163258806Y-74164666D01*
X163356167Y-74419360D01*
X163530132Y-74666938D01*
X163749055Y-74875820D01*
X163839439Y-74933192D01*
X163614700Y-75116485D01*
X163424736Y-75346112D01*
X163368529Y-75450065D01*
X162397199Y-74478735D01*
X162397199Y-73155334D01*
X163258806Y-73155334D01*
X163433847Y-73387000D01*
X164827000Y-73387000D01*
X164827000Y-72353444D01*
X164584792Y-72120766D01*
X164286716Y-72172818D01*
X164004522Y-72282021D01*
X163749055Y-72444180D01*
X163530132Y-72653062D01*
X163356167Y-72900640D01*
X163258806Y-73155334D01*
X162397199Y-73155334D01*
X162397199Y-65721819D01*
X162548641Y-65737736D01*
X162864869Y-65708957D01*
X163169485Y-65619304D01*
X163450885Y-65472192D01*
X163698352Y-65273223D01*
X163830317Y-65115953D01*
X163945528Y-65257216D01*
X164190193Y-65459620D01*
X164469512Y-65610647D01*
X164772846Y-65704545D01*
X165088641Y-65737736D01*
X165404869Y-65708957D01*
X165709485Y-65619304D01*
X165990885Y-65472192D01*
X166238352Y-65273223D01*
X166370317Y-65115953D01*
X166485528Y-65257216D01*
X166485528Y-65257216D01*
G37*
X166485528Y-65257216D02*
X166730193Y-65459620D01*
X167009512Y-65610647D01*
X167312846Y-65704545D01*
X167628641Y-65737736D01*
X167767000Y-65725144D01*
X167767000Y-72133000D01*
X167230676Y-72133000D01*
X166934080Y-72162081D01*
X166648782Y-72248218D01*
X166385647Y-72388129D01*
X166375578Y-72396341D01*
X166195478Y-72282021D01*
X165913284Y-72172818D01*
X165615208Y-72120766D01*
X165373000Y-72353444D01*
X165373000Y-73387000D01*
X165393000Y-73387000D01*
X165393000Y-73933000D01*
X165373000Y-73933000D01*
X165373000Y-73953000D01*
X164827000Y-73953000D01*
X164827000Y-73933000D01*
X163433847Y-73933000D01*
X163258806Y-74164666D01*
X163356167Y-74419360D01*
X163530132Y-74666938D01*
X163749055Y-74875820D01*
X163839439Y-74933192D01*
X163614700Y-75116485D01*
X163424736Y-75346112D01*
X163368529Y-75450065D01*
X162397199Y-74478735D01*
X162397199Y-73155334D01*
X163258806Y-73155334D01*
X163433847Y-73387000D01*
X164827000Y-73387000D01*
X164827000Y-72353444D01*
X164584792Y-72120766D01*
X164286716Y-72172818D01*
X164004522Y-72282021D01*
X163749055Y-72444180D01*
X163530132Y-72653062D01*
X163356167Y-72900640D01*
X163258806Y-73155334D01*
X162397199Y-73155334D01*
X162397199Y-65721819D01*
X162548641Y-65737736D01*
X162864869Y-65708957D01*
X163169485Y-65619304D01*
X163450885Y-65472192D01*
X163698352Y-65273223D01*
X163830317Y-65115953D01*
X163945528Y-65257216D01*
X164190193Y-65459620D01*
X164469512Y-65610647D01*
X164772846Y-65704545D01*
X165088641Y-65737736D01*
X165404869Y-65708957D01*
X165709485Y-65619304D01*
X165990885Y-65472192D01*
X166238352Y-65273223D01*
X166370317Y-65115953D01*
X166485528Y-65257216D01*
M02*
