M48
;DRILL file {KiCad no-vcs-found-d37a337~58~ubuntu16.04.1} date Wed Jul 19 10:02:43 2017
;FORMAT={-:-/ absolute / metric / decimal}
FMAT,2
METRIC,TZ
T1C0.300
T2C0.400
T3C0.800
T4C1.016
%
G90
G05
M71
T1
X147.848Y-73.718
X142.768Y-66.099
X203.728Y-58.478
X178.328Y-45.779
X147.848Y-55.938
X206.268Y-45.779
X208.808Y-45.779
X168.168Y-43.238
X185.948Y-43.238
X158.008Y-88.959
X150.388Y-45.779
X185.948Y-55.938
X191.028Y-61.018
X198.648Y-43.238
X142.768Y-63.558
X206.268Y-53.398
X168.168Y-45.779
X152.928Y-86.418
X165.628Y-61.018
X178.328Y-43.238
X158.008Y-86.418
X163.088Y-88.959
X145.308Y-61.018
X142.768Y-78.798
X196.108Y-58.478
X196.108Y-48.319
X201.188Y-43.238
X150.388Y-81.338
X145.308Y-43.238
X203.728Y-43.238
X160.548Y-43.238
X206.268Y-61.018
X142.768Y-61.018
X155.468Y-83.879
X188.488Y-53.398
X142.768Y-68.638
X155.468Y-86.418
X152.928Y-76.258
X180.868Y-61.018
X196.108Y-61.018
X173.248Y-45.779
X160.548Y-86.418
X150.388Y-76.258
X185.948Y-58.478
X150.388Y-55.938
X183.408Y-43.238
X163.088Y-73.718
X160.548Y-88.959
X142.768Y-58.478
X152.928Y-53.398
X185.948Y-45.779
X165.628Y-43.238
X155.468Y-53.398
X178.328Y-58.478
X150.388Y-43.238
X152.928Y-83.879
X152.928Y-58.478
X163.088Y-83.879
X175.788Y-43.238
X155.468Y-81.338
X142.768Y-50.858
X147.848Y-58.478
X183.408Y-53.398
X142.768Y-81.338
X185.948Y-53.398
X206.268Y-50.858
X196.108Y-45.779
X145.308Y-86.418
X145.308Y-58.478
X168.168Y-61.018
X163.088Y-45.779
X188.488Y-45.779
X191.028Y-43.238
X193.568Y-55.938
X165.628Y-88.959
X150.388Y-73.718
X150.388Y-53.398
X150.388Y-86.418
X175.788Y-45.779
X170.708Y-45.779
X155.468Y-43.238
X142.768Y-73.718
X185.948Y-61.018
X170.708Y-61.018
X178.328Y-55.938
X193.568Y-43.238
X163.088Y-86.418
X147.848Y-43.238
X147.848Y-45.779
X158.008Y-45.779
X142.768Y-76.258
X155.468Y-55.938
X142.768Y-45.779
X150.388Y-71.178
X152.928Y-55.938
X206.268Y-55.938
X193.568Y-61.018
X158.008Y-43.238
X155.468Y-45.779
X191.028Y-53.398
X180.868Y-43.238
X150.388Y-58.478
X188.488Y-58.478
X158.008Y-83.879
X183.408Y-58.478
X155.468Y-88.959
X145.308Y-76.258
X193.568Y-53.398
X206.268Y-58.478
X147.848Y-53.398
X145.308Y-68.638
X165.628Y-83.879
X208.808Y-58.478
X193.568Y-58.478
X191.028Y-55.938
X178.328Y-61.018
X147.848Y-86.418
X142.768Y-48.319
X145.308Y-78.798
X150.388Y-78.798
X145.308Y-55.938
X142.768Y-71.178
X208.808Y-55.938
X165.628Y-86.418
X175.788Y-61.018
X147.848Y-78.798
X160.548Y-45.779
X147.848Y-88.959
X150.388Y-88.959
X165.628Y-45.779
X183.408Y-45.779
X142.768Y-53.398
X191.028Y-58.478
X206.268Y-48.319
X180.868Y-58.478
X147.848Y-68.638
X147.848Y-71.178
X183.408Y-55.938
X145.308Y-81.338
X145.308Y-53.398
X142.768Y-83.879
X173.248Y-61.018
X158.008Y-81.338
X196.108Y-53.398
X173.248Y-43.238
X170.708Y-43.238
X145.308Y-73.718
X188.488Y-43.238
X163.088Y-43.238
X198.648Y-58.478
X152.928Y-88.959
X208.808Y-61.018
X175.788Y-58.478
X180.868Y-45.779
X208.808Y-50.858
X196.108Y-43.238
X150.388Y-61.018
X208.808Y-48.319
X191.028Y-45.779
X155.468Y-78.798
X152.928Y-45.779
X147.848Y-81.338
X152.928Y-81.338
X145.308Y-88.959
X150.388Y-68.638
X147.848Y-61.018
X188.488Y-61.018
X196.108Y-55.938
X188.488Y-55.938
X152.928Y-43.238
X160.548Y-83.879
X150.388Y-83.879
X183.408Y-61.018
X145.308Y-83.879
X147.848Y-76.258
X180.868Y-53.398
X193.568Y-45.779
X147.848Y-83.879
X208.808Y-53.398
X142.768Y-55.938
X152.928Y-78.798
X180.868Y-55.938
X145.308Y-45.779
X145.308Y-71.178
T2
X163.83Y-61.214
X201.168Y-57.404
T3
X165.1Y-73.66
X165.1Y-76.2
X165.1Y-78.74
X165.1Y-81.28
X167.64Y-73.66
X167.64Y-76.2
X167.64Y-78.74
X167.64Y-81.28
T4
X144.78Y-48.26
X144.78Y-63.5
X147.32Y-48.26
X147.32Y-63.5
X149.86Y-48.26
X149.86Y-63.5
X152.4Y-48.26
X152.4Y-63.5
X154.94Y-48.26
X154.94Y-63.5
X157.48Y-48.26
X157.48Y-63.5
X160.02Y-48.26
X160.02Y-63.5
X162.56Y-48.26
X162.56Y-63.5
X165.1Y-48.26
X165.1Y-63.5
X167.64Y-48.26
X167.64Y-63.5
X170.18Y-48.26
X170.18Y-63.5
X172.72Y-48.26
X172.72Y-63.5
X175.26Y-48.26
X175.26Y-63.5
X177.8Y-48.26
X177.8Y-63.5
X180.34Y-48.26
X180.34Y-63.5
X182.88Y-48.26
X182.88Y-63.5
X185.42Y-48.26
X185.42Y-63.5
X187.96Y-48.26
X187.96Y-63.5
X190.5Y-48.26
X190.5Y-63.5
X193.04Y-48.26
X193.04Y-63.5
T0
M30
