G04 #@! TF.GenerationSoftware,KiCad,Pcbnew,no-vcs-found-5f4599f~59~ubuntu16.04.1*
G04 #@! TF.CreationDate,2017-07-19T09:43:48+03:00*
G04 #@! TF.ProjectId,serial_gw_maple_mini,73657269616C5F67775F6D61706C655F,rev?*
G04 #@! TF.SameCoordinates,Original
G04 #@! TF.FileFunction,Copper,L2,Bot,Signal*
G04 #@! TF.FilePolarity,Positive*
%FSLAX46Y46*%
G04 Gerber Fmt 4.6, Leading zero omitted, Abs format (unit mm)*
G04 Created by KiCad (PCBNEW no-vcs-found-5f4599f~59~ubuntu16.04.1) date Wed Jul 19 09:43:48 2017*
%MOMM*%
%LPD*%
G01*
G04 APERTURE LIST*
%ADD10O,1.400000X2.600000*%
%ADD11C,0.450000*%
%ADD12O,2.000000X1.200000*%
%ADD13R,3.200000X2.500000*%
%ADD14R,1.500000X1.250000*%
%ADD15C,0.800000*%
%ADD16C,0.350000*%
%ADD17C,0.800000*%
%ADD18C,0.254000*%
G04 APERTURE END LIST*
D10*
X144780000Y-48260000D03*
X147320000Y-48260000D03*
X149860000Y-48260000D03*
X152400000Y-48260000D03*
X154940000Y-48260000D03*
X157480000Y-48260000D03*
X160020000Y-48260000D03*
X162560000Y-48260000D03*
X165100000Y-48260000D03*
X167640000Y-48260000D03*
X170180000Y-48260000D03*
X172720000Y-48260000D03*
X175260000Y-48260000D03*
X177800000Y-48260000D03*
X180340000Y-48260000D03*
X182880000Y-48260000D03*
X185420000Y-48260000D03*
X187960000Y-48260000D03*
X190500000Y-48260000D03*
X193040000Y-48260000D03*
X193040000Y-63500000D03*
X190500000Y-63500000D03*
X187960000Y-63500000D03*
X185420000Y-63500000D03*
X182880000Y-63500000D03*
X180340000Y-63500000D03*
X177800000Y-63500000D03*
X175260000Y-63500000D03*
X172720000Y-63500000D03*
X170180000Y-63500000D03*
X167640000Y-63500000D03*
X165100000Y-63500000D03*
X162560000Y-63500000D03*
X160020000Y-63500000D03*
X157480000Y-63500000D03*
X154940000Y-63500000D03*
X152400000Y-63500000D03*
X149860000Y-63500000D03*
X147320000Y-63500000D03*
X144780000Y-63500000D03*
D11*
X170707857Y-45778500D03*
X173247857Y-45778500D03*
X175787857Y-45778500D03*
X178327857Y-45778500D03*
X180867857Y-45778500D03*
X183407857Y-45778500D03*
X185947857Y-45778500D03*
X188487857Y-45778500D03*
X191027857Y-45778500D03*
X193567857Y-45778500D03*
X142767857Y-45778500D03*
X145307857Y-45778500D03*
X147847857Y-45778500D03*
X150387857Y-45778500D03*
X152927857Y-45778500D03*
X155467857Y-45778500D03*
X158007857Y-45778500D03*
X160547857Y-45778500D03*
X163087857Y-45778500D03*
X165627857Y-45778500D03*
X168167857Y-45778500D03*
X175787857Y-58478500D03*
X178327857Y-55938500D03*
D12*
X165100000Y-81280000D03*
X167640000Y-81280000D03*
X165100000Y-78740000D03*
X167640000Y-78740000D03*
X165100000Y-76200000D03*
X167640000Y-76200000D03*
X165100000Y-73660000D03*
X167640000Y-73660000D03*
D13*
X163204000Y-70104000D03*
X167504000Y-70104000D03*
D14*
X164104000Y-66802000D03*
X166604000Y-66802000D03*
D11*
X145307857Y-43238500D03*
X147847857Y-43238500D03*
X150387857Y-43238500D03*
X152927857Y-43238500D03*
X155467857Y-43238500D03*
X158007857Y-43238500D03*
X160547857Y-43238500D03*
X163087857Y-43238500D03*
X165627857Y-43238500D03*
X168167857Y-43238500D03*
X170707857Y-43238500D03*
X173247857Y-43238500D03*
X175787857Y-43238500D03*
X178327857Y-43238500D03*
X180867857Y-43238500D03*
X183407857Y-43238500D03*
X185947857Y-43238500D03*
X188487857Y-43238500D03*
X191027857Y-43238500D03*
X193567857Y-43238500D03*
X196107857Y-43238500D03*
X198647857Y-43238500D03*
X201187857Y-43238500D03*
X203727857Y-43238500D03*
X196107857Y-45778500D03*
X206267857Y-45778500D03*
X208807857Y-45778500D03*
X142767857Y-48318500D03*
X196107857Y-48318500D03*
X206267857Y-48318500D03*
X208807857Y-48318500D03*
X142767857Y-50858500D03*
X206267857Y-50858500D03*
X208807857Y-50858500D03*
X142767857Y-53398500D03*
X145307857Y-53398500D03*
X147847857Y-53398500D03*
X150387857Y-53398500D03*
X152927857Y-53398500D03*
X155467857Y-53398500D03*
X180867857Y-53398500D03*
X183407857Y-53398500D03*
X185947857Y-53398500D03*
X188487857Y-53398500D03*
X191027857Y-53398500D03*
X193567857Y-53398500D03*
X196107857Y-53398500D03*
X206267857Y-53398500D03*
X208807857Y-53398500D03*
X142767857Y-55938500D03*
X145307857Y-55938500D03*
X147847857Y-55938500D03*
X150387857Y-55938500D03*
X152927857Y-55938500D03*
X155467857Y-55938500D03*
X180867857Y-55938500D03*
X183407857Y-55938500D03*
X185947857Y-55938500D03*
X188487857Y-55938500D03*
X191027857Y-55938500D03*
X193567857Y-55938500D03*
X196107857Y-55938500D03*
X206267857Y-55938500D03*
X208807857Y-55938500D03*
X142767857Y-58478500D03*
X145307857Y-58478500D03*
X147847857Y-58478500D03*
X150387857Y-58478500D03*
X152927857Y-58478500D03*
X178327857Y-58478500D03*
X180867857Y-58478500D03*
X183407857Y-58478500D03*
X185947857Y-58478500D03*
X188487857Y-58478500D03*
X191027857Y-58478500D03*
X193567857Y-58478500D03*
X196107857Y-58478500D03*
X198647857Y-58478500D03*
X203727857Y-58478500D03*
X206267857Y-58478500D03*
X208807857Y-58478500D03*
X142767857Y-61018500D03*
X145307857Y-61018500D03*
X147847857Y-61018500D03*
X150387857Y-61018500D03*
X165627857Y-61018500D03*
X168167857Y-61018500D03*
X170707857Y-61018500D03*
X173247857Y-61018500D03*
X175787857Y-61018500D03*
X178327857Y-61018500D03*
X180867857Y-61018500D03*
X183407857Y-61018500D03*
X185947857Y-61018500D03*
X188487857Y-61018500D03*
X191027857Y-61018500D03*
X193567857Y-61018500D03*
X196107857Y-61018500D03*
X206267857Y-61018500D03*
X208807857Y-61018500D03*
X142767857Y-63558500D03*
X142767857Y-66098500D03*
X142767857Y-68638500D03*
X145307857Y-68638500D03*
X147847857Y-68638500D03*
X150387857Y-68638500D03*
X142767857Y-71178500D03*
X145307857Y-71178500D03*
X147847857Y-71178500D03*
X150387857Y-71178500D03*
X142767857Y-73718500D03*
X145307857Y-73718500D03*
X147847857Y-73718500D03*
X150387857Y-73718500D03*
X163087857Y-73718500D03*
X142767857Y-76258500D03*
X145307857Y-76258500D03*
X147847857Y-76258500D03*
X150387857Y-76258500D03*
X152927857Y-76258500D03*
X142767857Y-78798500D03*
X145307857Y-78798500D03*
X147847857Y-78798500D03*
X150387857Y-78798500D03*
X152927857Y-78798500D03*
X155467857Y-78798500D03*
X142767857Y-81338500D03*
X145307857Y-81338500D03*
X147847857Y-81338500D03*
X150387857Y-81338500D03*
X152927857Y-81338500D03*
X155467857Y-81338500D03*
X158007857Y-81338500D03*
X142767857Y-83878500D03*
X145307857Y-83878500D03*
X147847857Y-83878500D03*
X150387857Y-83878500D03*
X152927857Y-83878500D03*
X155467857Y-83878500D03*
X158007857Y-83878500D03*
X160547857Y-83878500D03*
X163087857Y-83878500D03*
X165627857Y-83878500D03*
X145307857Y-86418500D03*
X147847857Y-86418500D03*
X150387857Y-86418500D03*
X152927857Y-86418500D03*
X155467857Y-86418500D03*
X158007857Y-86418500D03*
X160547857Y-86418500D03*
X163087857Y-86418500D03*
X165627857Y-86418500D03*
X145307857Y-88958500D03*
X147847857Y-88958500D03*
X150387857Y-88958500D03*
X152927857Y-88958500D03*
X155467857Y-88958500D03*
X158007857Y-88958500D03*
X160547857Y-88958500D03*
X163087857Y-88958500D03*
X165627857Y-88958500D03*
D15*
X163830000Y-61214000D03*
X200914000Y-58166000D03*
D16*
X164104000Y-66802000D02*
X164084000Y-66802000D01*
X164084000Y-66802000D02*
X163830000Y-66548000D01*
X163830000Y-66548000D02*
X163830000Y-61214000D01*
D17*
X200914000Y-58166000D02*
X200914000Y-59944000D01*
X167112000Y-66294000D02*
X166604000Y-66802000D01*
X200914000Y-59944000D02*
X194564000Y-66294000D01*
X194564000Y-66294000D02*
X167112000Y-66294000D01*
X167640000Y-73660000D02*
X167640000Y-70240000D01*
X167640000Y-70240000D02*
X167504000Y-70104000D01*
X166604000Y-66802000D02*
X166604000Y-69204000D01*
X166604000Y-69204000D02*
X167504000Y-70104000D01*
D16*
X165100000Y-76200000D02*
X161544000Y-76200000D01*
X161544000Y-76200000D02*
X158755199Y-73411199D01*
X158755199Y-59938801D02*
X163068000Y-55626000D01*
X158755199Y-73411199D02*
X158755199Y-59938801D01*
X163068000Y-55626000D02*
X175514000Y-55626000D01*
X175514000Y-55626000D02*
X182880000Y-48260000D01*
X177800000Y-48260000D02*
X177800000Y-48768000D01*
X162052000Y-54102000D02*
X156215199Y-59938801D01*
X177800000Y-48768000D02*
X172466000Y-54102000D01*
X172466000Y-54102000D02*
X162052000Y-54102000D01*
X156215199Y-59938801D02*
X156215199Y-73540199D01*
X156215199Y-73540199D02*
X163955000Y-81280000D01*
X163955000Y-81280000D02*
X164700000Y-81280000D01*
X164700000Y-81280000D02*
X165100000Y-81280000D01*
D18*
G36*
X205351633Y-41396214D02*
X205248598Y-41880955D01*
X205241678Y-42376477D01*
X205331138Y-42863906D01*
X205513570Y-43324675D01*
X205782024Y-43741235D01*
X206126276Y-44097719D01*
X206533214Y-44380547D01*
X206987336Y-44578948D01*
X207471345Y-44685365D01*
X207966807Y-44695743D01*
X208454848Y-44609688D01*
X208916880Y-44430478D01*
X208998000Y-44378998D01*
X208998000Y-62611000D01*
X200123662Y-62611000D01*
X201852331Y-60882331D01*
X201930139Y-60787605D01*
X202008926Y-60693711D01*
X202012289Y-60687593D01*
X202016716Y-60682204D01*
X202074627Y-60574202D01*
X202133693Y-60466761D01*
X202135803Y-60460110D01*
X202139100Y-60453961D01*
X202174936Y-60336745D01*
X202212002Y-60219899D01*
X202212780Y-60212964D01*
X202214820Y-60206291D01*
X202227206Y-60084357D01*
X202240871Y-59962528D01*
X202240966Y-59948888D01*
X202240992Y-59948632D01*
X202240969Y-59948393D01*
X202241000Y-59944000D01*
X202241000Y-58166000D01*
X202239460Y-58150291D01*
X202241057Y-58035881D01*
X202190510Y-57780599D01*
X202091341Y-57539997D01*
X201947327Y-57323239D01*
X201763955Y-57138581D01*
X201548207Y-56993058D01*
X201308303Y-56892212D01*
X201053380Y-56839884D01*
X200793149Y-56838067D01*
X200537520Y-56886831D01*
X200296231Y-56984318D01*
X200078473Y-57126814D01*
X199892540Y-57308894D01*
X199745514Y-57523620D01*
X199642996Y-57762814D01*
X199588889Y-58017365D01*
X199585255Y-58277578D01*
X199587000Y-58287086D01*
X199587000Y-59394338D01*
X196370338Y-62611000D01*
X194639720Y-62611000D01*
X194636014Y-62573205D01*
X194544236Y-62269222D01*
X194395163Y-61988856D01*
X194194472Y-61742784D01*
X193949807Y-61540380D01*
X193670488Y-61389353D01*
X193367154Y-61295455D01*
X193051359Y-61262264D01*
X192735131Y-61291043D01*
X192430515Y-61380696D01*
X192149115Y-61527808D01*
X191901648Y-61726777D01*
X191769683Y-61884047D01*
X191654472Y-61742784D01*
X191409807Y-61540380D01*
X191130488Y-61389353D01*
X190827154Y-61295455D01*
X190511359Y-61262264D01*
X190195131Y-61291043D01*
X189890515Y-61380696D01*
X189609115Y-61527808D01*
X189361648Y-61726777D01*
X189229683Y-61884047D01*
X189114472Y-61742784D01*
X188869807Y-61540380D01*
X188590488Y-61389353D01*
X188287154Y-61295455D01*
X187971359Y-61262264D01*
X187655131Y-61291043D01*
X187350515Y-61380696D01*
X187069115Y-61527808D01*
X186821648Y-61726777D01*
X186689683Y-61884047D01*
X186574472Y-61742784D01*
X186329807Y-61540380D01*
X186050488Y-61389353D01*
X185747154Y-61295455D01*
X185431359Y-61262264D01*
X185115131Y-61291043D01*
X184810515Y-61380696D01*
X184529115Y-61527808D01*
X184281648Y-61726777D01*
X184149683Y-61884047D01*
X184034472Y-61742784D01*
X183789807Y-61540380D01*
X183510488Y-61389353D01*
X183207154Y-61295455D01*
X182891359Y-61262264D01*
X182575131Y-61291043D01*
X182270515Y-61380696D01*
X181989115Y-61527808D01*
X181741648Y-61726777D01*
X181609683Y-61884047D01*
X181494472Y-61742784D01*
X181249807Y-61540380D01*
X180970488Y-61389353D01*
X180667154Y-61295455D01*
X180351359Y-61262264D01*
X180035131Y-61291043D01*
X179730515Y-61380696D01*
X179449115Y-61527808D01*
X179201648Y-61726777D01*
X179069683Y-61884047D01*
X178954472Y-61742784D01*
X178709807Y-61540380D01*
X178430488Y-61389353D01*
X178127154Y-61295455D01*
X177811359Y-61262264D01*
X177495131Y-61291043D01*
X177190515Y-61380696D01*
X176909115Y-61527808D01*
X176661648Y-61726777D01*
X176529683Y-61884047D01*
X176414472Y-61742784D01*
X176169807Y-61540380D01*
X175890488Y-61389353D01*
X175587154Y-61295455D01*
X175271359Y-61262264D01*
X174955131Y-61291043D01*
X174650515Y-61380696D01*
X174369115Y-61527808D01*
X174121648Y-61726777D01*
X173989683Y-61884047D01*
X173874472Y-61742784D01*
X173629807Y-61540380D01*
X173350488Y-61389353D01*
X173047154Y-61295455D01*
X172731359Y-61262264D01*
X172415131Y-61291043D01*
X172110515Y-61380696D01*
X171829115Y-61527808D01*
X171581648Y-61726777D01*
X171449683Y-61884047D01*
X171334472Y-61742784D01*
X171089807Y-61540380D01*
X170810488Y-61389353D01*
X170507154Y-61295455D01*
X170191359Y-61262264D01*
X169875131Y-61291043D01*
X169570515Y-61380696D01*
X169289115Y-61527808D01*
X169041648Y-61726777D01*
X168909683Y-61884047D01*
X168794472Y-61742784D01*
X168549807Y-61540380D01*
X168270488Y-61389353D01*
X167967154Y-61295455D01*
X167651359Y-61262264D01*
X167335131Y-61291043D01*
X167030515Y-61380696D01*
X166749115Y-61527808D01*
X166501648Y-61726777D01*
X166369683Y-61884047D01*
X166254472Y-61742784D01*
X166009807Y-61540380D01*
X165730488Y-61389353D01*
X165427154Y-61295455D01*
X165111359Y-61262264D01*
X164795131Y-61291043D01*
X164490515Y-61380696D01*
X164209115Y-61527808D01*
X163961648Y-61726777D01*
X163829683Y-61884047D01*
X163714472Y-61742784D01*
X163469807Y-61540380D01*
X163190488Y-61389353D01*
X162887154Y-61295455D01*
X162571359Y-61262264D01*
X162255131Y-61291043D01*
X161950515Y-61380696D01*
X161669115Y-61527808D01*
X161421648Y-61726777D01*
X161289683Y-61884047D01*
X161174472Y-61742784D01*
X160929807Y-61540380D01*
X160650488Y-61389353D01*
X160347154Y-61295455D01*
X160031359Y-61262264D01*
X159857199Y-61278114D01*
X159857199Y-60395265D01*
X163524463Y-56728000D01*
X175514000Y-56728000D01*
X175615296Y-56718068D01*
X175716714Y-56709195D01*
X175722278Y-56707579D01*
X175728046Y-56707013D01*
X175825545Y-56677576D01*
X175923247Y-56649191D01*
X175928388Y-56646526D01*
X175933940Y-56644850D01*
X176023845Y-56597046D01*
X176114192Y-56550215D01*
X176118722Y-56546599D01*
X176123837Y-56543879D01*
X176202694Y-56479565D01*
X176282276Y-56416036D01*
X176290344Y-56408080D01*
X176290507Y-56407947D01*
X176290632Y-56407796D01*
X176293232Y-56405232D01*
X182309307Y-50389157D01*
X182552846Y-50464545D01*
X182868641Y-50497736D01*
X183184869Y-50468957D01*
X183489485Y-50379304D01*
X183770885Y-50232192D01*
X184018352Y-50033223D01*
X184150317Y-49875953D01*
X184265528Y-50017216D01*
X184510193Y-50219620D01*
X184789512Y-50370647D01*
X185092846Y-50464545D01*
X185408641Y-50497736D01*
X185724869Y-50468957D01*
X186029485Y-50379304D01*
X186310885Y-50232192D01*
X186558352Y-50033223D01*
X186690317Y-49875953D01*
X186805528Y-50017216D01*
X187050193Y-50219620D01*
X187329512Y-50370647D01*
X187632846Y-50464545D01*
X187948641Y-50497736D01*
X188264869Y-50468957D01*
X188569485Y-50379304D01*
X188850885Y-50232192D01*
X189098352Y-50033223D01*
X189230317Y-49875953D01*
X189345528Y-50017216D01*
X189590193Y-50219620D01*
X189869512Y-50370647D01*
X190172846Y-50464545D01*
X190488641Y-50497736D01*
X190804869Y-50468957D01*
X191109485Y-50379304D01*
X191390885Y-50232192D01*
X191638352Y-50033223D01*
X191770317Y-49875953D01*
X191885528Y-50017216D01*
X192130193Y-50219620D01*
X192409512Y-50370647D01*
X192712846Y-50464545D01*
X193028641Y-50497736D01*
X193344869Y-50468957D01*
X193649485Y-50379304D01*
X193930885Y-50232192D01*
X194178352Y-50033223D01*
X194382460Y-49789977D01*
X194535433Y-49511719D01*
X194631446Y-49209048D01*
X194666841Y-48893492D01*
X194667000Y-48870776D01*
X194667000Y-47649224D01*
X194636014Y-47333205D01*
X194544236Y-47029222D01*
X194395163Y-46748856D01*
X194194472Y-46502784D01*
X193949807Y-46300380D01*
X193670488Y-46149353D01*
X193367154Y-46055455D01*
X193051359Y-46022264D01*
X192735131Y-46051043D01*
X192430515Y-46140696D01*
X192149115Y-46287808D01*
X191901648Y-46486777D01*
X191769683Y-46644047D01*
X191654472Y-46502784D01*
X191409807Y-46300380D01*
X191130488Y-46149353D01*
X190827154Y-46055455D01*
X190511359Y-46022264D01*
X190195131Y-46051043D01*
X189890515Y-46140696D01*
X189609115Y-46287808D01*
X189361648Y-46486777D01*
X189229683Y-46644047D01*
X189114472Y-46502784D01*
X188869807Y-46300380D01*
X188590488Y-46149353D01*
X188287154Y-46055455D01*
X187971359Y-46022264D01*
X187655131Y-46051043D01*
X187350515Y-46140696D01*
X187069115Y-46287808D01*
X186821648Y-46486777D01*
X186689683Y-46644047D01*
X186574472Y-46502784D01*
X186329807Y-46300380D01*
X186050488Y-46149353D01*
X185747154Y-46055455D01*
X185431359Y-46022264D01*
X185115131Y-46051043D01*
X184810515Y-46140696D01*
X184529115Y-46287808D01*
X184281648Y-46486777D01*
X184149683Y-46644047D01*
X184034472Y-46502784D01*
X183789807Y-46300380D01*
X183510488Y-46149353D01*
X183207154Y-46055455D01*
X182891359Y-46022264D01*
X182575131Y-46051043D01*
X182270515Y-46140696D01*
X181989115Y-46287808D01*
X181741648Y-46486777D01*
X181609683Y-46644047D01*
X181494472Y-46502784D01*
X181249807Y-46300380D01*
X180970488Y-46149353D01*
X180667154Y-46055455D01*
X180351359Y-46022264D01*
X180035131Y-46051043D01*
X179730515Y-46140696D01*
X179449115Y-46287808D01*
X179201648Y-46486777D01*
X179069683Y-46644047D01*
X178954472Y-46502784D01*
X178709807Y-46300380D01*
X178430488Y-46149353D01*
X178127154Y-46055455D01*
X177811359Y-46022264D01*
X177495131Y-46051043D01*
X177190515Y-46140696D01*
X176909115Y-46287808D01*
X176661648Y-46486777D01*
X176529683Y-46644047D01*
X176414472Y-46502784D01*
X176169807Y-46300380D01*
X175890488Y-46149353D01*
X175587154Y-46055455D01*
X175271359Y-46022264D01*
X174955131Y-46051043D01*
X174650515Y-46140696D01*
X174369115Y-46287808D01*
X174121648Y-46486777D01*
X173989683Y-46644047D01*
X173874472Y-46502784D01*
X173629807Y-46300380D01*
X173350488Y-46149353D01*
X173047154Y-46055455D01*
X172731359Y-46022264D01*
X172415131Y-46051043D01*
X172110515Y-46140696D01*
X171829115Y-46287808D01*
X171581648Y-46486777D01*
X171449683Y-46644047D01*
X171334472Y-46502784D01*
X171089807Y-46300380D01*
X170810488Y-46149353D01*
X170507154Y-46055455D01*
X170191359Y-46022264D01*
X169875131Y-46051043D01*
X169570515Y-46140696D01*
X169289115Y-46287808D01*
X169041648Y-46486777D01*
X168909683Y-46644047D01*
X168794472Y-46502784D01*
X168549807Y-46300380D01*
X168270488Y-46149353D01*
X167967154Y-46055455D01*
X167651359Y-46022264D01*
X167335131Y-46051043D01*
X167030515Y-46140696D01*
X166749115Y-46287808D01*
X166501648Y-46486777D01*
X166369683Y-46644047D01*
X166254472Y-46502784D01*
X166009807Y-46300380D01*
X165730488Y-46149353D01*
X165427154Y-46055455D01*
X165111359Y-46022264D01*
X164795131Y-46051043D01*
X164490515Y-46140696D01*
X164209115Y-46287808D01*
X163961648Y-46486777D01*
X163829683Y-46644047D01*
X163714472Y-46502784D01*
X163469807Y-46300380D01*
X163190488Y-46149353D01*
X162887154Y-46055455D01*
X162571359Y-46022264D01*
X162255131Y-46051043D01*
X161950515Y-46140696D01*
X161669115Y-46287808D01*
X161421648Y-46486777D01*
X161289683Y-46644047D01*
X161174472Y-46502784D01*
X160929807Y-46300380D01*
X160650488Y-46149353D01*
X160347154Y-46055455D01*
X160031359Y-46022264D01*
X159715131Y-46051043D01*
X159410515Y-46140696D01*
X159129115Y-46287808D01*
X158881648Y-46486777D01*
X158749683Y-46644047D01*
X158634472Y-46502784D01*
X158389807Y-46300380D01*
X158110488Y-46149353D01*
X157807154Y-46055455D01*
X157491359Y-46022264D01*
X157175131Y-46051043D01*
X156870515Y-46140696D01*
X156589115Y-46287808D01*
X156341648Y-46486777D01*
X156209683Y-46644047D01*
X156094472Y-46502784D01*
X155849807Y-46300380D01*
X155570488Y-46149353D01*
X155267154Y-46055455D01*
X154951359Y-46022264D01*
X154635131Y-46051043D01*
X154330515Y-46140696D01*
X154049115Y-46287808D01*
X153801648Y-46486777D01*
X153669683Y-46644047D01*
X153554472Y-46502784D01*
X153309807Y-46300380D01*
X153030488Y-46149353D01*
X152727154Y-46055455D01*
X152411359Y-46022264D01*
X152095131Y-46051043D01*
X151790515Y-46140696D01*
X151509115Y-46287808D01*
X151261648Y-46486777D01*
X151129683Y-46644047D01*
X151014472Y-46502784D01*
X150769807Y-46300380D01*
X150490488Y-46149353D01*
X150187154Y-46055455D01*
X149871359Y-46022264D01*
X149555131Y-46051043D01*
X149250515Y-46140696D01*
X148969115Y-46287808D01*
X148721648Y-46486777D01*
X148589683Y-46644047D01*
X148474472Y-46502784D01*
X148229807Y-46300380D01*
X147950488Y-46149353D01*
X147647154Y-46055455D01*
X147331359Y-46022264D01*
X147015131Y-46051043D01*
X146710515Y-46140696D01*
X146429115Y-46287808D01*
X146181648Y-46486777D01*
X146049683Y-46644047D01*
X145934472Y-46502784D01*
X145689807Y-46300380D01*
X145410488Y-46149353D01*
X145107154Y-46055455D01*
X144791359Y-46022264D01*
X144475131Y-46051043D01*
X144170515Y-46140696D01*
X143889115Y-46287808D01*
X143641648Y-46486777D01*
X143437540Y-46730023D01*
X143284567Y-47008281D01*
X143188554Y-47310952D01*
X143153159Y-47626508D01*
X143153000Y-47649224D01*
X143153000Y-48870776D01*
X143183986Y-49186795D01*
X143275764Y-49490778D01*
X143424837Y-49771144D01*
X143625528Y-50017216D01*
X143870193Y-50219620D01*
X144149512Y-50370647D01*
X144452846Y-50464545D01*
X144768641Y-50497736D01*
X145084869Y-50468957D01*
X145389485Y-50379304D01*
X145670885Y-50232192D01*
X145918352Y-50033223D01*
X146050317Y-49875953D01*
X146165528Y-50017216D01*
X146410193Y-50219620D01*
X146689512Y-50370647D01*
X146992846Y-50464545D01*
X147308641Y-50497736D01*
X147624869Y-50468957D01*
X147929485Y-50379304D01*
X148210885Y-50232192D01*
X148458352Y-50033223D01*
X148590317Y-49875953D01*
X148705528Y-50017216D01*
X148950193Y-50219620D01*
X149229512Y-50370647D01*
X149532846Y-50464545D01*
X149848641Y-50497736D01*
X150164869Y-50468957D01*
X150469485Y-50379304D01*
X150750885Y-50232192D01*
X150998352Y-50033223D01*
X151130317Y-49875953D01*
X151245528Y-50017216D01*
X151490193Y-50219620D01*
X151769512Y-50370647D01*
X152072846Y-50464545D01*
X152388641Y-50497736D01*
X152704869Y-50468957D01*
X153009485Y-50379304D01*
X153290885Y-50232192D01*
X153538352Y-50033223D01*
X153670317Y-49875953D01*
X153785528Y-50017216D01*
X154030193Y-50219620D01*
X154309512Y-50370647D01*
X154612846Y-50464545D01*
X154928641Y-50497736D01*
X155244869Y-50468957D01*
X155549485Y-50379304D01*
X155830885Y-50232192D01*
X156078352Y-50033223D01*
X156210317Y-49875953D01*
X156325528Y-50017216D01*
X156570193Y-50219620D01*
X156849512Y-50370647D01*
X157152846Y-50464545D01*
X157468641Y-50497736D01*
X157784869Y-50468957D01*
X158089485Y-50379304D01*
X158370885Y-50232192D01*
X158618352Y-50033223D01*
X158750317Y-49875953D01*
X158865528Y-50017216D01*
X159110193Y-50219620D01*
X159389512Y-50370647D01*
X159692846Y-50464545D01*
X160008641Y-50497736D01*
X160324869Y-50468957D01*
X160629485Y-50379304D01*
X160910885Y-50232192D01*
X161158352Y-50033223D01*
X161290317Y-49875953D01*
X161405528Y-50017216D01*
X161650193Y-50219620D01*
X161929512Y-50370647D01*
X162232846Y-50464545D01*
X162548641Y-50497736D01*
X162864869Y-50468957D01*
X163169485Y-50379304D01*
X163450885Y-50232192D01*
X163698352Y-50033223D01*
X163830317Y-49875953D01*
X163945528Y-50017216D01*
X164190193Y-50219620D01*
X164469512Y-50370647D01*
X164772846Y-50464545D01*
X165088641Y-50497736D01*
X165404869Y-50468957D01*
X165709485Y-50379304D01*
X165990885Y-50232192D01*
X166238352Y-50033223D01*
X166370317Y-49875953D01*
X166485528Y-50017216D01*
X166730193Y-50219620D01*
X167009512Y-50370647D01*
X167312846Y-50464545D01*
X167628641Y-50497736D01*
X167944869Y-50468957D01*
X168249485Y-50379304D01*
X168530885Y-50232192D01*
X168778352Y-50033223D01*
X168910317Y-49875953D01*
X169025528Y-50017216D01*
X169270193Y-50219620D01*
X169549512Y-50370647D01*
X169852846Y-50464545D01*
X170168641Y-50497736D01*
X170484869Y-50468957D01*
X170789485Y-50379304D01*
X171070885Y-50232192D01*
X171318352Y-50033223D01*
X171450317Y-49875953D01*
X171565528Y-50017216D01*
X171810193Y-50219620D01*
X172089512Y-50370647D01*
X172392846Y-50464545D01*
X172708641Y-50497736D01*
X173024869Y-50468957D01*
X173329485Y-50379304D01*
X173610885Y-50232192D01*
X173858352Y-50033223D01*
X173990317Y-49875953D01*
X174105528Y-50017216D01*
X174350193Y-50219620D01*
X174629512Y-50370647D01*
X174636672Y-50372864D01*
X172009536Y-53000000D01*
X162052000Y-53000000D01*
X161950704Y-53009932D01*
X161849286Y-53018805D01*
X161843722Y-53020421D01*
X161837954Y-53020987D01*
X161740455Y-53050424D01*
X161642753Y-53078809D01*
X161637612Y-53081474D01*
X161632060Y-53083150D01*
X161542155Y-53130954D01*
X161451808Y-53177785D01*
X161447278Y-53181401D01*
X161442163Y-53184121D01*
X161363300Y-53248440D01*
X161283723Y-53311965D01*
X161275656Y-53319920D01*
X161275493Y-53320053D01*
X161275368Y-53320204D01*
X161272768Y-53322768D01*
X155435967Y-59159569D01*
X155371342Y-59238246D01*
X155305924Y-59316207D01*
X155303133Y-59321285D01*
X155299454Y-59325763D01*
X155251344Y-59415488D01*
X155202312Y-59504677D01*
X155200560Y-59510200D01*
X155197821Y-59515308D01*
X155168070Y-59612621D01*
X155137280Y-59709682D01*
X155136633Y-59715446D01*
X155134941Y-59720982D01*
X155124663Y-59822169D01*
X155113306Y-59923415D01*
X155113227Y-59934745D01*
X155113206Y-59934954D01*
X155113224Y-59935149D01*
X155113199Y-59938801D01*
X155113199Y-61279274D01*
X154951359Y-61262264D01*
X154635131Y-61291043D01*
X154330515Y-61380696D01*
X154049115Y-61527808D01*
X153801648Y-61726777D01*
X153669683Y-61884047D01*
X153554472Y-61742784D01*
X153309807Y-61540380D01*
X153030488Y-61389353D01*
X152727154Y-61295455D01*
X152411359Y-61262264D01*
X152095131Y-61291043D01*
X151790515Y-61380696D01*
X151509115Y-61527808D01*
X151261648Y-61726777D01*
X151129683Y-61884047D01*
X151014472Y-61742784D01*
X150769807Y-61540380D01*
X150490488Y-61389353D01*
X150187154Y-61295455D01*
X149871359Y-61262264D01*
X149555131Y-61291043D01*
X149250515Y-61380696D01*
X148969115Y-61527808D01*
X148721648Y-61726777D01*
X148589683Y-61884047D01*
X148474472Y-61742784D01*
X148229807Y-61540380D01*
X147950488Y-61389353D01*
X147647154Y-61295455D01*
X147331359Y-61262264D01*
X147015131Y-61291043D01*
X146710515Y-61380696D01*
X146429115Y-61527808D01*
X146181648Y-61726777D01*
X146049683Y-61884047D01*
X145934472Y-61742784D01*
X145689807Y-61540380D01*
X145410488Y-61389353D01*
X145107154Y-61295455D01*
X144791359Y-61262264D01*
X144475131Y-61291043D01*
X144170515Y-61380696D01*
X143889115Y-61527808D01*
X143641648Y-61726777D01*
X143437540Y-61970023D01*
X143284567Y-62248281D01*
X143188554Y-62550952D01*
X143153159Y-62866508D01*
X143153000Y-62889224D01*
X143153000Y-64110776D01*
X143183986Y-64426795D01*
X143275764Y-64730778D01*
X143424837Y-65011144D01*
X143625528Y-65257216D01*
X143870193Y-65459620D01*
X144149512Y-65610647D01*
X144452846Y-65704545D01*
X144768641Y-65737736D01*
X145084869Y-65708957D01*
X145389485Y-65619304D01*
X145670885Y-65472192D01*
X145918352Y-65273223D01*
X146050317Y-65115953D01*
X146165528Y-65257216D01*
X146410193Y-65459620D01*
X146689512Y-65610647D01*
X146992846Y-65704545D01*
X147308641Y-65737736D01*
X147624869Y-65708957D01*
X147929485Y-65619304D01*
X148210885Y-65472192D01*
X148458352Y-65273223D01*
X148590317Y-65115953D01*
X148705528Y-65257216D01*
X148950193Y-65459620D01*
X149229512Y-65610647D01*
X149532846Y-65704545D01*
X149848641Y-65737736D01*
X150164869Y-65708957D01*
X150469485Y-65619304D01*
X150750885Y-65472192D01*
X150998352Y-65273223D01*
X151130317Y-65115953D01*
X151245528Y-65257216D01*
X151490193Y-65459620D01*
X151769512Y-65610647D01*
X152072846Y-65704545D01*
X152388641Y-65737736D01*
X152704869Y-65708957D01*
X153009485Y-65619304D01*
X153290885Y-65472192D01*
X153538352Y-65273223D01*
X153670317Y-65115953D01*
X153785528Y-65257216D01*
X154030193Y-65459620D01*
X154309512Y-65610647D01*
X154612846Y-65704545D01*
X154928641Y-65737736D01*
X155113199Y-65720940D01*
X155113199Y-73540199D01*
X155123131Y-73641495D01*
X155132004Y-73742913D01*
X155133620Y-73748477D01*
X155134186Y-73754245D01*
X155163623Y-73851744D01*
X155192008Y-73949446D01*
X155194673Y-73954587D01*
X155196349Y-73960139D01*
X155244153Y-74050044D01*
X155290984Y-74140391D01*
X155294600Y-74144921D01*
X155297320Y-74150036D01*
X155361634Y-74228893D01*
X155425163Y-74308475D01*
X155433119Y-74316543D01*
X155433252Y-74316706D01*
X155433403Y-74316831D01*
X155435967Y-74319431D01*
X163175769Y-82059232D01*
X163254420Y-82123837D01*
X163332406Y-82189275D01*
X163337484Y-82192067D01*
X163341962Y-82195745D01*
X163431687Y-82243855D01*
X163520876Y-82292887D01*
X163526399Y-82294639D01*
X163531507Y-82297378D01*
X163567516Y-82308387D01*
X163599676Y-82348386D01*
X163827971Y-82539948D01*
X164089127Y-82683520D01*
X164373195Y-82773631D01*
X164669356Y-82806851D01*
X164690676Y-82807000D01*
X165509324Y-82807000D01*
X165805920Y-82777919D01*
X166091218Y-82691782D01*
X166354353Y-82551871D01*
X166368569Y-82540277D01*
X166629127Y-82683520D01*
X166913195Y-82773631D01*
X167209356Y-82806851D01*
X167230676Y-82807000D01*
X167767000Y-82807000D01*
X167767000Y-88998000D01*
X144367590Y-88998000D01*
X144447845Y-88884231D01*
X144649412Y-88431505D01*
X144759204Y-87948250D01*
X144767108Y-87382215D01*
X144670852Y-86896083D01*
X144482004Y-86437905D01*
X144207760Y-86025134D01*
X143858564Y-85673492D01*
X143447718Y-85396373D01*
X142990870Y-85204331D01*
X142505421Y-85104683D01*
X142009863Y-85101223D01*
X141523071Y-85194084D01*
X141063586Y-85379728D01*
X141002000Y-85420029D01*
X141002000Y-44380890D01*
X141455336Y-44578948D01*
X141939345Y-44685365D01*
X142434807Y-44695743D01*
X142922848Y-44609688D01*
X143384880Y-44430478D01*
X143803304Y-44164938D01*
X144162182Y-43823183D01*
X144447845Y-43418231D01*
X144649412Y-42965505D01*
X144759204Y-42482250D01*
X144767108Y-41916215D01*
X144670852Y-41430083D01*
X144494408Y-41002000D01*
X205520593Y-41002000D01*
X205351633Y-41396214D01*
X205351633Y-41396214D01*
G37*
X205351633Y-41396214D02*
X205248598Y-41880955D01*
X205241678Y-42376477D01*
X205331138Y-42863906D01*
X205513570Y-43324675D01*
X205782024Y-43741235D01*
X206126276Y-44097719D01*
X206533214Y-44380547D01*
X206987336Y-44578948D01*
X207471345Y-44685365D01*
X207966807Y-44695743D01*
X208454848Y-44609688D01*
X208916880Y-44430478D01*
X208998000Y-44378998D01*
X208998000Y-62611000D01*
X200123662Y-62611000D01*
X201852331Y-60882331D01*
X201930139Y-60787605D01*
X202008926Y-60693711D01*
X202012289Y-60687593D01*
X202016716Y-60682204D01*
X202074627Y-60574202D01*
X202133693Y-60466761D01*
X202135803Y-60460110D01*
X202139100Y-60453961D01*
X202174936Y-60336745D01*
X202212002Y-60219899D01*
X202212780Y-60212964D01*
X202214820Y-60206291D01*
X202227206Y-60084357D01*
X202240871Y-59962528D01*
X202240966Y-59948888D01*
X202240992Y-59948632D01*
X202240969Y-59948393D01*
X202241000Y-59944000D01*
X202241000Y-58166000D01*
X202239460Y-58150291D01*
X202241057Y-58035881D01*
X202190510Y-57780599D01*
X202091341Y-57539997D01*
X201947327Y-57323239D01*
X201763955Y-57138581D01*
X201548207Y-56993058D01*
X201308303Y-56892212D01*
X201053380Y-56839884D01*
X200793149Y-56838067D01*
X200537520Y-56886831D01*
X200296231Y-56984318D01*
X200078473Y-57126814D01*
X199892540Y-57308894D01*
X199745514Y-57523620D01*
X199642996Y-57762814D01*
X199588889Y-58017365D01*
X199585255Y-58277578D01*
X199587000Y-58287086D01*
X199587000Y-59394338D01*
X196370338Y-62611000D01*
X194639720Y-62611000D01*
X194636014Y-62573205D01*
X194544236Y-62269222D01*
X194395163Y-61988856D01*
X194194472Y-61742784D01*
X193949807Y-61540380D01*
X193670488Y-61389353D01*
X193367154Y-61295455D01*
X193051359Y-61262264D01*
X192735131Y-61291043D01*
X192430515Y-61380696D01*
X192149115Y-61527808D01*
X191901648Y-61726777D01*
X191769683Y-61884047D01*
X191654472Y-61742784D01*
X191409807Y-61540380D01*
X191130488Y-61389353D01*
X190827154Y-61295455D01*
X190511359Y-61262264D01*
X190195131Y-61291043D01*
X189890515Y-61380696D01*
X189609115Y-61527808D01*
X189361648Y-61726777D01*
X189229683Y-61884047D01*
X189114472Y-61742784D01*
X188869807Y-61540380D01*
X188590488Y-61389353D01*
X188287154Y-61295455D01*
X187971359Y-61262264D01*
X187655131Y-61291043D01*
X187350515Y-61380696D01*
X187069115Y-61527808D01*
X186821648Y-61726777D01*
X186689683Y-61884047D01*
X186574472Y-61742784D01*
X186329807Y-61540380D01*
X186050488Y-61389353D01*
X185747154Y-61295455D01*
X185431359Y-61262264D01*
X185115131Y-61291043D01*
X184810515Y-61380696D01*
X184529115Y-61527808D01*
X184281648Y-61726777D01*
X184149683Y-61884047D01*
X184034472Y-61742784D01*
X183789807Y-61540380D01*
X183510488Y-61389353D01*
X183207154Y-61295455D01*
X182891359Y-61262264D01*
X182575131Y-61291043D01*
X182270515Y-61380696D01*
X181989115Y-61527808D01*
X181741648Y-61726777D01*
X181609683Y-61884047D01*
X181494472Y-61742784D01*
X181249807Y-61540380D01*
X180970488Y-61389353D01*
X180667154Y-61295455D01*
X180351359Y-61262264D01*
X180035131Y-61291043D01*
X179730515Y-61380696D01*
X179449115Y-61527808D01*
X179201648Y-61726777D01*
X179069683Y-61884047D01*
X178954472Y-61742784D01*
X178709807Y-61540380D01*
X178430488Y-61389353D01*
X178127154Y-61295455D01*
X177811359Y-61262264D01*
X177495131Y-61291043D01*
X177190515Y-61380696D01*
X176909115Y-61527808D01*
X176661648Y-61726777D01*
X176529683Y-61884047D01*
X176414472Y-61742784D01*
X176169807Y-61540380D01*
X175890488Y-61389353D01*
X175587154Y-61295455D01*
X175271359Y-61262264D01*
X174955131Y-61291043D01*
X174650515Y-61380696D01*
X174369115Y-61527808D01*
X174121648Y-61726777D01*
X173989683Y-61884047D01*
X173874472Y-61742784D01*
X173629807Y-61540380D01*
X173350488Y-61389353D01*
X173047154Y-61295455D01*
X172731359Y-61262264D01*
X172415131Y-61291043D01*
X172110515Y-61380696D01*
X171829115Y-61527808D01*
X171581648Y-61726777D01*
X171449683Y-61884047D01*
X171334472Y-61742784D01*
X171089807Y-61540380D01*
X170810488Y-61389353D01*
X170507154Y-61295455D01*
X170191359Y-61262264D01*
X169875131Y-61291043D01*
X169570515Y-61380696D01*
X169289115Y-61527808D01*
X169041648Y-61726777D01*
X168909683Y-61884047D01*
X168794472Y-61742784D01*
X168549807Y-61540380D01*
X168270488Y-61389353D01*
X167967154Y-61295455D01*
X167651359Y-61262264D01*
X167335131Y-61291043D01*
X167030515Y-61380696D01*
X166749115Y-61527808D01*
X166501648Y-61726777D01*
X166369683Y-61884047D01*
X166254472Y-61742784D01*
X166009807Y-61540380D01*
X165730488Y-61389353D01*
X165427154Y-61295455D01*
X165111359Y-61262264D01*
X164795131Y-61291043D01*
X164490515Y-61380696D01*
X164209115Y-61527808D01*
X163961648Y-61726777D01*
X163829683Y-61884047D01*
X163714472Y-61742784D01*
X163469807Y-61540380D01*
X163190488Y-61389353D01*
X162887154Y-61295455D01*
X162571359Y-61262264D01*
X162255131Y-61291043D01*
X161950515Y-61380696D01*
X161669115Y-61527808D01*
X161421648Y-61726777D01*
X161289683Y-61884047D01*
X161174472Y-61742784D01*
X160929807Y-61540380D01*
X160650488Y-61389353D01*
X160347154Y-61295455D01*
X160031359Y-61262264D01*
X159857199Y-61278114D01*
X159857199Y-60395265D01*
X163524463Y-56728000D01*
X175514000Y-56728000D01*
X175615296Y-56718068D01*
X175716714Y-56709195D01*
X175722278Y-56707579D01*
X175728046Y-56707013D01*
X175825545Y-56677576D01*
X175923247Y-56649191D01*
X175928388Y-56646526D01*
X175933940Y-56644850D01*
X176023845Y-56597046D01*
X176114192Y-56550215D01*
X176118722Y-56546599D01*
X176123837Y-56543879D01*
X176202694Y-56479565D01*
X176282276Y-56416036D01*
X176290344Y-56408080D01*
X176290507Y-56407947D01*
X176290632Y-56407796D01*
X176293232Y-56405232D01*
X182309307Y-50389157D01*
X182552846Y-50464545D01*
X182868641Y-50497736D01*
X183184869Y-50468957D01*
X183489485Y-50379304D01*
X183770885Y-50232192D01*
X184018352Y-50033223D01*
X184150317Y-49875953D01*
X184265528Y-50017216D01*
X184510193Y-50219620D01*
X184789512Y-50370647D01*
X185092846Y-50464545D01*
X185408641Y-50497736D01*
X185724869Y-50468957D01*
X186029485Y-50379304D01*
X186310885Y-50232192D01*
X186558352Y-50033223D01*
X186690317Y-49875953D01*
X186805528Y-50017216D01*
X187050193Y-50219620D01*
X187329512Y-50370647D01*
X187632846Y-50464545D01*
X187948641Y-50497736D01*
X188264869Y-50468957D01*
X188569485Y-50379304D01*
X188850885Y-50232192D01*
X189098352Y-50033223D01*
X189230317Y-49875953D01*
X189345528Y-50017216D01*
X189590193Y-50219620D01*
X189869512Y-50370647D01*
X190172846Y-50464545D01*
X190488641Y-50497736D01*
X190804869Y-50468957D01*
X191109485Y-50379304D01*
X191390885Y-50232192D01*
X191638352Y-50033223D01*
X191770317Y-49875953D01*
X191885528Y-50017216D01*
X192130193Y-50219620D01*
X192409512Y-50370647D01*
X192712846Y-50464545D01*
X193028641Y-50497736D01*
X193344869Y-50468957D01*
X193649485Y-50379304D01*
X193930885Y-50232192D01*
X194178352Y-50033223D01*
X194382460Y-49789977D01*
X194535433Y-49511719D01*
X194631446Y-49209048D01*
X194666841Y-48893492D01*
X194667000Y-48870776D01*
X194667000Y-47649224D01*
X194636014Y-47333205D01*
X194544236Y-47029222D01*
X194395163Y-46748856D01*
X194194472Y-46502784D01*
X193949807Y-46300380D01*
X193670488Y-46149353D01*
X193367154Y-46055455D01*
X193051359Y-46022264D01*
X192735131Y-46051043D01*
X192430515Y-46140696D01*
X192149115Y-46287808D01*
X191901648Y-46486777D01*
X191769683Y-46644047D01*
X191654472Y-46502784D01*
X191409807Y-46300380D01*
X191130488Y-46149353D01*
X190827154Y-46055455D01*
X190511359Y-46022264D01*
X190195131Y-46051043D01*
X189890515Y-46140696D01*
X189609115Y-46287808D01*
X189361648Y-46486777D01*
X189229683Y-46644047D01*
X189114472Y-46502784D01*
X188869807Y-46300380D01*
X188590488Y-46149353D01*
X188287154Y-46055455D01*
X187971359Y-46022264D01*
X187655131Y-46051043D01*
X187350515Y-46140696D01*
X187069115Y-46287808D01*
X186821648Y-46486777D01*
X186689683Y-46644047D01*
X186574472Y-46502784D01*
X186329807Y-46300380D01*
X186050488Y-46149353D01*
X185747154Y-46055455D01*
X185431359Y-46022264D01*
X185115131Y-46051043D01*
X184810515Y-46140696D01*
X184529115Y-46287808D01*
X184281648Y-46486777D01*
X184149683Y-46644047D01*
X184034472Y-46502784D01*
X183789807Y-46300380D01*
X183510488Y-46149353D01*
X183207154Y-46055455D01*
X182891359Y-46022264D01*
X182575131Y-46051043D01*
X182270515Y-46140696D01*
X181989115Y-46287808D01*
X181741648Y-46486777D01*
X181609683Y-46644047D01*
X181494472Y-46502784D01*
X181249807Y-46300380D01*
X180970488Y-46149353D01*
X180667154Y-46055455D01*
X180351359Y-46022264D01*
X180035131Y-46051043D01*
X179730515Y-46140696D01*
X179449115Y-46287808D01*
X179201648Y-46486777D01*
X179069683Y-46644047D01*
X178954472Y-46502784D01*
X178709807Y-46300380D01*
X178430488Y-46149353D01*
X178127154Y-46055455D01*
X177811359Y-46022264D01*
X177495131Y-46051043D01*
X177190515Y-46140696D01*
X176909115Y-46287808D01*
X176661648Y-46486777D01*
X176529683Y-46644047D01*
X176414472Y-46502784D01*
X176169807Y-46300380D01*
X175890488Y-46149353D01*
X175587154Y-46055455D01*
X175271359Y-46022264D01*
X174955131Y-46051043D01*
X174650515Y-46140696D01*
X174369115Y-46287808D01*
X174121648Y-46486777D01*
X173989683Y-46644047D01*
X173874472Y-46502784D01*
X173629807Y-46300380D01*
X173350488Y-46149353D01*
X173047154Y-46055455D01*
X172731359Y-46022264D01*
X172415131Y-46051043D01*
X172110515Y-46140696D01*
X171829115Y-46287808D01*
X171581648Y-46486777D01*
X171449683Y-46644047D01*
X171334472Y-46502784D01*
X171089807Y-46300380D01*
X170810488Y-46149353D01*
X170507154Y-46055455D01*
X170191359Y-46022264D01*
X169875131Y-46051043D01*
X169570515Y-46140696D01*
X169289115Y-46287808D01*
X169041648Y-46486777D01*
X168909683Y-46644047D01*
X168794472Y-46502784D01*
X168549807Y-46300380D01*
X168270488Y-46149353D01*
X167967154Y-46055455D01*
X167651359Y-46022264D01*
X167335131Y-46051043D01*
X167030515Y-46140696D01*
X166749115Y-46287808D01*
X166501648Y-46486777D01*
X166369683Y-46644047D01*
X166254472Y-46502784D01*
X166009807Y-46300380D01*
X165730488Y-46149353D01*
X165427154Y-46055455D01*
X165111359Y-46022264D01*
X164795131Y-46051043D01*
X164490515Y-46140696D01*
X164209115Y-46287808D01*
X163961648Y-46486777D01*
X163829683Y-46644047D01*
X163714472Y-46502784D01*
X163469807Y-46300380D01*
X163190488Y-46149353D01*
X162887154Y-46055455D01*
X162571359Y-46022264D01*
X162255131Y-46051043D01*
X161950515Y-46140696D01*
X161669115Y-46287808D01*
X161421648Y-46486777D01*
X161289683Y-46644047D01*
X161174472Y-46502784D01*
X160929807Y-46300380D01*
X160650488Y-46149353D01*
X160347154Y-46055455D01*
X160031359Y-46022264D01*
X159715131Y-46051043D01*
X159410515Y-46140696D01*
X159129115Y-46287808D01*
X158881648Y-46486777D01*
X158749683Y-46644047D01*
X158634472Y-46502784D01*
X158389807Y-46300380D01*
X158110488Y-46149353D01*
X157807154Y-46055455D01*
X157491359Y-46022264D01*
X157175131Y-46051043D01*
X156870515Y-46140696D01*
X156589115Y-46287808D01*
X156341648Y-46486777D01*
X156209683Y-46644047D01*
X156094472Y-46502784D01*
X155849807Y-46300380D01*
X155570488Y-46149353D01*
X155267154Y-46055455D01*
X154951359Y-46022264D01*
X154635131Y-46051043D01*
X154330515Y-46140696D01*
X154049115Y-46287808D01*
X153801648Y-46486777D01*
X153669683Y-46644047D01*
X153554472Y-46502784D01*
X153309807Y-46300380D01*
X153030488Y-46149353D01*
X152727154Y-46055455D01*
X152411359Y-46022264D01*
X152095131Y-46051043D01*
X151790515Y-46140696D01*
X151509115Y-46287808D01*
X151261648Y-46486777D01*
X151129683Y-46644047D01*
X151014472Y-46502784D01*
X150769807Y-46300380D01*
X150490488Y-46149353D01*
X150187154Y-46055455D01*
X149871359Y-46022264D01*
X149555131Y-46051043D01*
X149250515Y-46140696D01*
X148969115Y-46287808D01*
X148721648Y-46486777D01*
X148589683Y-46644047D01*
X148474472Y-46502784D01*
X148229807Y-46300380D01*
X147950488Y-46149353D01*
X147647154Y-46055455D01*
X147331359Y-46022264D01*
X147015131Y-46051043D01*
X146710515Y-46140696D01*
X146429115Y-46287808D01*
X146181648Y-46486777D01*
X146049683Y-46644047D01*
X145934472Y-46502784D01*
X145689807Y-46300380D01*
X145410488Y-46149353D01*
X145107154Y-46055455D01*
X144791359Y-46022264D01*
X144475131Y-46051043D01*
X144170515Y-46140696D01*
X143889115Y-46287808D01*
X143641648Y-46486777D01*
X143437540Y-46730023D01*
X143284567Y-47008281D01*
X143188554Y-47310952D01*
X143153159Y-47626508D01*
X143153000Y-47649224D01*
X143153000Y-48870776D01*
X143183986Y-49186795D01*
X143275764Y-49490778D01*
X143424837Y-49771144D01*
X143625528Y-50017216D01*
X143870193Y-50219620D01*
X144149512Y-50370647D01*
X144452846Y-50464545D01*
X144768641Y-50497736D01*
X145084869Y-50468957D01*
X145389485Y-50379304D01*
X145670885Y-50232192D01*
X145918352Y-50033223D01*
X146050317Y-49875953D01*
X146165528Y-50017216D01*
X146410193Y-50219620D01*
X146689512Y-50370647D01*
X146992846Y-50464545D01*
X147308641Y-50497736D01*
X147624869Y-50468957D01*
X147929485Y-50379304D01*
X148210885Y-50232192D01*
X148458352Y-50033223D01*
X148590317Y-49875953D01*
X148705528Y-50017216D01*
X148950193Y-50219620D01*
X149229512Y-50370647D01*
X149532846Y-50464545D01*
X149848641Y-50497736D01*
X150164869Y-50468957D01*
X150469485Y-50379304D01*
X150750885Y-50232192D01*
X150998352Y-50033223D01*
X151130317Y-49875953D01*
X151245528Y-50017216D01*
X151490193Y-50219620D01*
X151769512Y-50370647D01*
X152072846Y-50464545D01*
X152388641Y-50497736D01*
X152704869Y-50468957D01*
X153009485Y-50379304D01*
X153290885Y-50232192D01*
X153538352Y-50033223D01*
X153670317Y-49875953D01*
X153785528Y-50017216D01*
X154030193Y-50219620D01*
X154309512Y-50370647D01*
X154612846Y-50464545D01*
X154928641Y-50497736D01*
X155244869Y-50468957D01*
X155549485Y-50379304D01*
X155830885Y-50232192D01*
X156078352Y-50033223D01*
X156210317Y-49875953D01*
X156325528Y-50017216D01*
X156570193Y-50219620D01*
X156849512Y-50370647D01*
X157152846Y-50464545D01*
X157468641Y-50497736D01*
X157784869Y-50468957D01*
X158089485Y-50379304D01*
X158370885Y-50232192D01*
X158618352Y-50033223D01*
X158750317Y-49875953D01*
X158865528Y-50017216D01*
X159110193Y-50219620D01*
X159389512Y-50370647D01*
X159692846Y-50464545D01*
X160008641Y-50497736D01*
X160324869Y-50468957D01*
X160629485Y-50379304D01*
X160910885Y-50232192D01*
X161158352Y-50033223D01*
X161290317Y-49875953D01*
X161405528Y-50017216D01*
X161650193Y-50219620D01*
X161929512Y-50370647D01*
X162232846Y-50464545D01*
X162548641Y-50497736D01*
X162864869Y-50468957D01*
X163169485Y-50379304D01*
X163450885Y-50232192D01*
X163698352Y-50033223D01*
X163830317Y-49875953D01*
X163945528Y-50017216D01*
X164190193Y-50219620D01*
X164469512Y-50370647D01*
X164772846Y-50464545D01*
X165088641Y-50497736D01*
X165404869Y-50468957D01*
X165709485Y-50379304D01*
X165990885Y-50232192D01*
X166238352Y-50033223D01*
X166370317Y-49875953D01*
X166485528Y-50017216D01*
X166730193Y-50219620D01*
X167009512Y-50370647D01*
X167312846Y-50464545D01*
X167628641Y-50497736D01*
X167944869Y-50468957D01*
X168249485Y-50379304D01*
X168530885Y-50232192D01*
X168778352Y-50033223D01*
X168910317Y-49875953D01*
X169025528Y-50017216D01*
X169270193Y-50219620D01*
X169549512Y-50370647D01*
X169852846Y-50464545D01*
X170168641Y-50497736D01*
X170484869Y-50468957D01*
X170789485Y-50379304D01*
X171070885Y-50232192D01*
X171318352Y-50033223D01*
X171450317Y-49875953D01*
X171565528Y-50017216D01*
X171810193Y-50219620D01*
X172089512Y-50370647D01*
X172392846Y-50464545D01*
X172708641Y-50497736D01*
X173024869Y-50468957D01*
X173329485Y-50379304D01*
X173610885Y-50232192D01*
X173858352Y-50033223D01*
X173990317Y-49875953D01*
X174105528Y-50017216D01*
X174350193Y-50219620D01*
X174629512Y-50370647D01*
X174636672Y-50372864D01*
X172009536Y-53000000D01*
X162052000Y-53000000D01*
X161950704Y-53009932D01*
X161849286Y-53018805D01*
X161843722Y-53020421D01*
X161837954Y-53020987D01*
X161740455Y-53050424D01*
X161642753Y-53078809D01*
X161637612Y-53081474D01*
X161632060Y-53083150D01*
X161542155Y-53130954D01*
X161451808Y-53177785D01*
X161447278Y-53181401D01*
X161442163Y-53184121D01*
X161363300Y-53248440D01*
X161283723Y-53311965D01*
X161275656Y-53319920D01*
X161275493Y-53320053D01*
X161275368Y-53320204D01*
X161272768Y-53322768D01*
X155435967Y-59159569D01*
X155371342Y-59238246D01*
X155305924Y-59316207D01*
X155303133Y-59321285D01*
X155299454Y-59325763D01*
X155251344Y-59415488D01*
X155202312Y-59504677D01*
X155200560Y-59510200D01*
X155197821Y-59515308D01*
X155168070Y-59612621D01*
X155137280Y-59709682D01*
X155136633Y-59715446D01*
X155134941Y-59720982D01*
X155124663Y-59822169D01*
X155113306Y-59923415D01*
X155113227Y-59934745D01*
X155113206Y-59934954D01*
X155113224Y-59935149D01*
X155113199Y-59938801D01*
X155113199Y-61279274D01*
X154951359Y-61262264D01*
X154635131Y-61291043D01*
X154330515Y-61380696D01*
X154049115Y-61527808D01*
X153801648Y-61726777D01*
X153669683Y-61884047D01*
X153554472Y-61742784D01*
X153309807Y-61540380D01*
X153030488Y-61389353D01*
X152727154Y-61295455D01*
X152411359Y-61262264D01*
X152095131Y-61291043D01*
X151790515Y-61380696D01*
X151509115Y-61527808D01*
X151261648Y-61726777D01*
X151129683Y-61884047D01*
X151014472Y-61742784D01*
X150769807Y-61540380D01*
X150490488Y-61389353D01*
X150187154Y-61295455D01*
X149871359Y-61262264D01*
X149555131Y-61291043D01*
X149250515Y-61380696D01*
X148969115Y-61527808D01*
X148721648Y-61726777D01*
X148589683Y-61884047D01*
X148474472Y-61742784D01*
X148229807Y-61540380D01*
X147950488Y-61389353D01*
X147647154Y-61295455D01*
X147331359Y-61262264D01*
X147015131Y-61291043D01*
X146710515Y-61380696D01*
X146429115Y-61527808D01*
X146181648Y-61726777D01*
X146049683Y-61884047D01*
X145934472Y-61742784D01*
X145689807Y-61540380D01*
X145410488Y-61389353D01*
X145107154Y-61295455D01*
X144791359Y-61262264D01*
X144475131Y-61291043D01*
X144170515Y-61380696D01*
X143889115Y-61527808D01*
X143641648Y-61726777D01*
X143437540Y-61970023D01*
X143284567Y-62248281D01*
X143188554Y-62550952D01*
X143153159Y-62866508D01*
X143153000Y-62889224D01*
X143153000Y-64110776D01*
X143183986Y-64426795D01*
X143275764Y-64730778D01*
X143424837Y-65011144D01*
X143625528Y-65257216D01*
X143870193Y-65459620D01*
X144149512Y-65610647D01*
X144452846Y-65704545D01*
X144768641Y-65737736D01*
X145084869Y-65708957D01*
X145389485Y-65619304D01*
X145670885Y-65472192D01*
X145918352Y-65273223D01*
X146050317Y-65115953D01*
X146165528Y-65257216D01*
X146410193Y-65459620D01*
X146689512Y-65610647D01*
X146992846Y-65704545D01*
X147308641Y-65737736D01*
X147624869Y-65708957D01*
X147929485Y-65619304D01*
X148210885Y-65472192D01*
X148458352Y-65273223D01*
X148590317Y-65115953D01*
X148705528Y-65257216D01*
X148950193Y-65459620D01*
X149229512Y-65610647D01*
X149532846Y-65704545D01*
X149848641Y-65737736D01*
X150164869Y-65708957D01*
X150469485Y-65619304D01*
X150750885Y-65472192D01*
X150998352Y-65273223D01*
X151130317Y-65115953D01*
X151245528Y-65257216D01*
X151490193Y-65459620D01*
X151769512Y-65610647D01*
X152072846Y-65704545D01*
X152388641Y-65737736D01*
X152704869Y-65708957D01*
X153009485Y-65619304D01*
X153290885Y-65472192D01*
X153538352Y-65273223D01*
X153670317Y-65115953D01*
X153785528Y-65257216D01*
X154030193Y-65459620D01*
X154309512Y-65610647D01*
X154612846Y-65704545D01*
X154928641Y-65737736D01*
X155113199Y-65720940D01*
X155113199Y-73540199D01*
X155123131Y-73641495D01*
X155132004Y-73742913D01*
X155133620Y-73748477D01*
X155134186Y-73754245D01*
X155163623Y-73851744D01*
X155192008Y-73949446D01*
X155194673Y-73954587D01*
X155196349Y-73960139D01*
X155244153Y-74050044D01*
X155290984Y-74140391D01*
X155294600Y-74144921D01*
X155297320Y-74150036D01*
X155361634Y-74228893D01*
X155425163Y-74308475D01*
X155433119Y-74316543D01*
X155433252Y-74316706D01*
X155433403Y-74316831D01*
X155435967Y-74319431D01*
X163175769Y-82059232D01*
X163254420Y-82123837D01*
X163332406Y-82189275D01*
X163337484Y-82192067D01*
X163341962Y-82195745D01*
X163431687Y-82243855D01*
X163520876Y-82292887D01*
X163526399Y-82294639D01*
X163531507Y-82297378D01*
X163567516Y-82308387D01*
X163599676Y-82348386D01*
X163827971Y-82539948D01*
X164089127Y-82683520D01*
X164373195Y-82773631D01*
X164669356Y-82806851D01*
X164690676Y-82807000D01*
X165509324Y-82807000D01*
X165805920Y-82777919D01*
X166091218Y-82691782D01*
X166354353Y-82551871D01*
X166368569Y-82540277D01*
X166629127Y-82683520D01*
X166913195Y-82773631D01*
X167209356Y-82806851D01*
X167230676Y-82807000D01*
X167767000Y-82807000D01*
X167767000Y-88998000D01*
X144367590Y-88998000D01*
X144447845Y-88884231D01*
X144649412Y-88431505D01*
X144759204Y-87948250D01*
X144767108Y-87382215D01*
X144670852Y-86896083D01*
X144482004Y-86437905D01*
X144207760Y-86025134D01*
X143858564Y-85673492D01*
X143447718Y-85396373D01*
X142990870Y-85204331D01*
X142505421Y-85104683D01*
X142009863Y-85101223D01*
X141523071Y-85194084D01*
X141063586Y-85379728D01*
X141002000Y-85420029D01*
X141002000Y-44380890D01*
X141455336Y-44578948D01*
X141939345Y-44685365D01*
X142434807Y-44695743D01*
X142922848Y-44609688D01*
X143384880Y-44430478D01*
X143803304Y-44164938D01*
X144162182Y-43823183D01*
X144447845Y-43418231D01*
X144649412Y-42965505D01*
X144759204Y-42482250D01*
X144767108Y-41916215D01*
X144670852Y-41430083D01*
X144494408Y-41002000D01*
X205520593Y-41002000D01*
X205351633Y-41396214D01*
G36*
X161405528Y-65257216D02*
X161650193Y-65459620D01*
X161929512Y-65610647D01*
X162232846Y-65704545D01*
X162533665Y-65736162D01*
X162532504Y-65737900D01*
X162462624Y-65906604D01*
X162427000Y-66085698D01*
X162427000Y-66297250D01*
X162658750Y-66529000D01*
X163831000Y-66529000D01*
X163831000Y-66509000D01*
X164377000Y-66509000D01*
X164377000Y-66529000D01*
X164397000Y-66529000D01*
X164397000Y-67075000D01*
X164377000Y-67075000D01*
X164377000Y-67095000D01*
X163831000Y-67095000D01*
X163831000Y-67075000D01*
X162658750Y-67075000D01*
X162427000Y-67306750D01*
X162427000Y-67518302D01*
X162462624Y-67697396D01*
X162532504Y-67866100D01*
X162573196Y-67927000D01*
X161512699Y-67927000D01*
X161333605Y-67962624D01*
X161164901Y-68032503D01*
X161013072Y-68133952D01*
X160883952Y-68263072D01*
X160782504Y-68414900D01*
X160712624Y-68583604D01*
X160677000Y-68762698D01*
X160677000Y-69599250D01*
X160908750Y-69831000D01*
X162931000Y-69831000D01*
X162931000Y-69811000D01*
X163477000Y-69811000D01*
X163477000Y-69831000D01*
X163497000Y-69831000D01*
X163497000Y-70377000D01*
X163477000Y-70377000D01*
X163477000Y-72049250D01*
X163708750Y-72281000D01*
X164007160Y-72281000D01*
X164004522Y-72282021D01*
X163749055Y-72444180D01*
X163530132Y-72653062D01*
X163356167Y-72900640D01*
X163258806Y-73155334D01*
X163433847Y-73387000D01*
X164827000Y-73387000D01*
X164827000Y-73367000D01*
X165373000Y-73367000D01*
X165373000Y-73387000D01*
X165393000Y-73387000D01*
X165393000Y-73933000D01*
X165373000Y-73933000D01*
X165373000Y-73953000D01*
X164827000Y-73953000D01*
X164827000Y-73933000D01*
X163433847Y-73933000D01*
X163258806Y-74164666D01*
X163356167Y-74419360D01*
X163530132Y-74666938D01*
X163749055Y-74875820D01*
X163839439Y-74933192D01*
X163637365Y-75098000D01*
X162000464Y-75098000D01*
X159857199Y-72954735D01*
X159857199Y-70608750D01*
X160677000Y-70608750D01*
X160677000Y-71445302D01*
X160712624Y-71624396D01*
X160782504Y-71793100D01*
X160883952Y-71944928D01*
X161013072Y-72074048D01*
X161164901Y-72175497D01*
X161333605Y-72245376D01*
X161512699Y-72281000D01*
X162699250Y-72281000D01*
X162931000Y-72049250D01*
X162931000Y-70377000D01*
X160908750Y-70377000D01*
X160677000Y-70608750D01*
X159857199Y-70608750D01*
X159857199Y-65721819D01*
X160008641Y-65737736D01*
X160324869Y-65708957D01*
X160629485Y-65619304D01*
X160910885Y-65472192D01*
X161158352Y-65273223D01*
X161290317Y-65115953D01*
X161405528Y-65257216D01*
X161405528Y-65257216D01*
G37*
X161405528Y-65257216D02*
X161650193Y-65459620D01*
X161929512Y-65610647D01*
X162232846Y-65704545D01*
X162533665Y-65736162D01*
X162532504Y-65737900D01*
X162462624Y-65906604D01*
X162427000Y-66085698D01*
X162427000Y-66297250D01*
X162658750Y-66529000D01*
X163831000Y-66529000D01*
X163831000Y-66509000D01*
X164377000Y-66509000D01*
X164377000Y-66529000D01*
X164397000Y-66529000D01*
X164397000Y-67075000D01*
X164377000Y-67075000D01*
X164377000Y-67095000D01*
X163831000Y-67095000D01*
X163831000Y-67075000D01*
X162658750Y-67075000D01*
X162427000Y-67306750D01*
X162427000Y-67518302D01*
X162462624Y-67697396D01*
X162532504Y-67866100D01*
X162573196Y-67927000D01*
X161512699Y-67927000D01*
X161333605Y-67962624D01*
X161164901Y-68032503D01*
X161013072Y-68133952D01*
X160883952Y-68263072D01*
X160782504Y-68414900D01*
X160712624Y-68583604D01*
X160677000Y-68762698D01*
X160677000Y-69599250D01*
X160908750Y-69831000D01*
X162931000Y-69831000D01*
X162931000Y-69811000D01*
X163477000Y-69811000D01*
X163477000Y-69831000D01*
X163497000Y-69831000D01*
X163497000Y-70377000D01*
X163477000Y-70377000D01*
X163477000Y-72049250D01*
X163708750Y-72281000D01*
X164007160Y-72281000D01*
X164004522Y-72282021D01*
X163749055Y-72444180D01*
X163530132Y-72653062D01*
X163356167Y-72900640D01*
X163258806Y-73155334D01*
X163433847Y-73387000D01*
X164827000Y-73387000D01*
X164827000Y-73367000D01*
X165373000Y-73367000D01*
X165373000Y-73387000D01*
X165393000Y-73387000D01*
X165393000Y-73933000D01*
X165373000Y-73933000D01*
X165373000Y-73953000D01*
X164827000Y-73953000D01*
X164827000Y-73933000D01*
X163433847Y-73933000D01*
X163258806Y-74164666D01*
X163356167Y-74419360D01*
X163530132Y-74666938D01*
X163749055Y-74875820D01*
X163839439Y-74933192D01*
X163637365Y-75098000D01*
X162000464Y-75098000D01*
X159857199Y-72954735D01*
X159857199Y-70608750D01*
X160677000Y-70608750D01*
X160677000Y-71445302D01*
X160712624Y-71624396D01*
X160782504Y-71793100D01*
X160883952Y-71944928D01*
X161013072Y-72074048D01*
X161164901Y-72175497D01*
X161333605Y-72245376D01*
X161512699Y-72281000D01*
X162699250Y-72281000D01*
X162931000Y-72049250D01*
X162931000Y-70377000D01*
X160908750Y-70377000D01*
X160677000Y-70608750D01*
X159857199Y-70608750D01*
X159857199Y-65721819D01*
X160008641Y-65737736D01*
X160324869Y-65708957D01*
X160629485Y-65619304D01*
X160910885Y-65472192D01*
X161158352Y-65273223D01*
X161290317Y-65115953D01*
X161405528Y-65257216D01*
M02*
