G04 #@! TF.GenerationSoftware,KiCad,Pcbnew,no-vcs-found-5f4599f~59~ubuntu16.04.1*
G04 #@! TF.CreationDate,2017-07-19T09:43:48+03:00*
G04 #@! TF.ProjectId,serial_gw_maple_mini,73657269616C5F67775F6D61706C655F,rev?*
G04 #@! TF.SameCoordinates,Original
G04 #@! TF.FileFunction,Soldermask,Top*
G04 #@! TF.FilePolarity,Negative*
%FSLAX46Y46*%
G04 Gerber Fmt 4.6, Leading zero omitted, Abs format (unit mm)*
G04 Created by KiCad (PCBNEW no-vcs-found-5f4599f~59~ubuntu16.04.1) date Wed Jul 19 09:43:48 2017*
%MOMM*%
%LPD*%
G01*
G04 APERTURE LIST*
%ADD10O,1.800000X3.000000*%
%ADD11O,2.400000X1.600000*%
%ADD12C,3.600000*%
%ADD13R,2.900000X3.600000*%
%ADD14R,1.600000X1.300000*%
%ADD15R,1.900000X2.400000*%
%ADD16R,4.200000X2.400000*%
G04 APERTURE END LIST*
D10*
X144780000Y-48260000D03*
X147320000Y-48260000D03*
X149860000Y-48260000D03*
X152400000Y-48260000D03*
X154940000Y-48260000D03*
X157480000Y-48260000D03*
X160020000Y-48260000D03*
X162560000Y-48260000D03*
X165100000Y-48260000D03*
X167640000Y-48260000D03*
X170180000Y-48260000D03*
X172720000Y-48260000D03*
X175260000Y-48260000D03*
X177800000Y-48260000D03*
X180340000Y-48260000D03*
X182880000Y-48260000D03*
X185420000Y-48260000D03*
X187960000Y-48260000D03*
X190500000Y-48260000D03*
X193040000Y-48260000D03*
X193040000Y-63500000D03*
X190500000Y-63500000D03*
X187960000Y-63500000D03*
X185420000Y-63500000D03*
X182880000Y-63500000D03*
X180340000Y-63500000D03*
X177800000Y-63500000D03*
X175260000Y-63500000D03*
X172720000Y-63500000D03*
X170180000Y-63500000D03*
X167640000Y-63500000D03*
X165100000Y-63500000D03*
X162560000Y-63500000D03*
X160020000Y-63500000D03*
X157480000Y-63500000D03*
X154940000Y-63500000D03*
X152400000Y-63500000D03*
X149860000Y-63500000D03*
X147320000Y-63500000D03*
X144780000Y-63500000D03*
D11*
X165100000Y-81280000D03*
X167640000Y-81280000D03*
X165100000Y-78740000D03*
X167640000Y-78740000D03*
X165100000Y-76200000D03*
X167640000Y-76200000D03*
X165100000Y-73660000D03*
X167640000Y-73660000D03*
D12*
X142240000Y-87630000D03*
X207772000Y-87630000D03*
X207772000Y-42164000D03*
X142240000Y-42164000D03*
D13*
X198882000Y-46618000D03*
X198882000Y-50918000D03*
X203200000Y-50918000D03*
X203200000Y-46618000D03*
D14*
X168064000Y-51562000D03*
X170264000Y-51562000D03*
D15*
X203468000Y-55270000D03*
X198868000Y-55270000D03*
X201168000Y-55270000D03*
D16*
X201168000Y-61570000D03*
M02*
