999
dxflib 3.12.2.0
  0
SECTION
  2
HEADER
  9
$ACADVER
  1
AC1015
  9
$HANDSEED
  5
FFFF
  9
$DIMADEC
 70
0
  9
$DIMASZ
 40
0.18
  9
$DIMAUNIT
 70
0
  9
$DIMAZIN
 70
0
  9
$DIMDEC
 70
4
  9
$DIMEXE
 40
0.18
  9
$DIMEXO
 40
0.0625
  9
$DIMGAP
 40
0.09
  9
$DIMLUNIT
 70
2
  9
$DIMSCALE
 40
1.0
  9
$DIMTSZ
 40
0.0
  9
$DIMTXT
 40
0.18
  9
$DIMZIN
 70
0
  9
$DWGCODEPAGE
  3
ANSI_1252
  9
$EXTMAX
 10
76.5272999999999968
 20
42.139400000000002
 30
0.0
  9
$EXTMIN
 10
-32.1649000000000029
 20
-21.4637999999999991
 30
0.0
  9
$FILLMODE
 70
0
  9
$INSUNITS
 70
0
  9
$LTSCALE
 40
1.0
  9
$MAXACTVP
 70
32
  9
$MEASUREMENT
 70
1
  9
$PDMODE
 70
0
  9
$PDSIZE
 40
0
  0
ENDSEC
  0
SECTION
  2
TABLES
  0
TABLE
  2
VPORT
  5
8
100
AcDbSymbolTable
 70
1
  0
VPORT
  5
30
100
AcDbSymbolTableRecord
100
AcDbViewportTableRecord
  2
*Active
 70
0
 10
0.0
 20
0.0
 11
1.0
 21
1.0
 12
286.3055555555554861
 22
148.5
 13
0.0
 23
0.0
 14
10.0
 24
10.0
 15
10.0
 25
10.0
 16
0.0
 26
0.0
 36
1.0
 17
0.0
 27
0.0
 37
0.0
 40
297.0
 41
1.92798353909465
 42
50.0
 43
0.0
 44
0.0
 50
0.0
 51
0.0
 71
0
 72
100
 73
1
 74
3
 75
1
 76
1
 77
0
 78
0
281
0
 65
1
110
0.0
120
0.0
130
0.0
111
1.0
121
0.0
131
0.0
112
0.0
122
1.0
132
0.0
 79
0
146
0.0
  0
ENDTAB
  0
TABLE
  2
LTYPE
  5
5
100
AcDbSymbolTable
 70
41
  0
LTYPE
  5
16
100
AcDbSymbolTableRecord
100
AcDbLinetypeTableRecord
  2
CONTINUOUS
 70
0
  3
Solid line
 72
65
 73
0
 40
0.0
  0
LTYPE
  5
31
100
AcDbSymbolTableRecord
100
AcDbLinetypeTableRecord
  2
ACAD_ISO07W100
 70
0
  3
ISO dot . . . . . . . . . . . . . . . . . . . . 
 72
65
 73
2
 40
3.0
 49
0.0
 74
0
 49
-3.0
 74
0
  0
LTYPE
  5
32
100
AcDbSymbolTableRecord
100
AcDbLinetypeTableRecord
  2
ACAD_ISO12W100
 70
0
  3
ISO dash double-dot __ . . __ . . __ . . __ . . 
 72
65
 73
6
 40
21.0
 49
12.0
 74
0
 49
-3.0
 74
0
 49
0.0
 74
0
 49
-3.0
 74
0
 49
0.0
 74
0
 49
-3.0
 74
0
  0
LTYPE
  5
33
100
AcDbSymbolTableRecord
100
AcDbLinetypeTableRecord
  2
ACAD_ISO09W100
 70
0
  3
ISO long-dash double-short-dash ____ __ __ ____
 72
65
 73
6
 40
45.0
 49
24.0
 74
0
 49
-3.0
 74
0
 49
6.0
 74
0
 49
-3.0
 74
0
 49
6.0
 74
0
 49
-3.0
 74
0
  0
LTYPE
  5
34
100
AcDbSymbolTableRecord
100
AcDbLinetypeTableRecord
  2
ACAD_ISO14W100
 70
0
  3
ISO dash triple-dot __ . . . __ . . . __ . . . _
 72
65
 73
8
 40
24.0
 49
12.0
 74
0
 49
-3.0
 74
0
 49
0.0
 74
0
 49
-3.0
 74
0
 49
0.0
 74
0
 49
-3.0
 74
0
 49
0.0
 74
0
 49
-3.0
 74
0
  0
LTYPE
  5
35
100
AcDbSymbolTableRecord
100
AcDbLinetypeTableRecord
  2
BORDER2
 70
0
  3
Border (.5x) __.__.__.__.__.__.__.__.__.__.__.
 72
65
 73
6
 40
22.2249999999999979
 49
6.3499999999999996
 74
0
 49
-3.1749999999999998
 74
0
 49
6.3499999999999996
 74
0
 49
-3.1749999999999998
 74
0
 49
0.0
 74
0
 49
-3.1749999999999998
 74
0
  0
LTYPE
  5
36
100
AcDbSymbolTableRecord
100
AcDbLinetypeTableRecord
  2
DOT2
 70
0
  3
Dot (.5x) ........................................
 72
65
 73
2
 40
3.1749999999999998
 49
0.0
 74
0
 49
-3.1749999999999998
 74
0
  0
LTYPE
  5
37
100
AcDbSymbolTableRecord
100
AcDbLinetypeTableRecord
  2
ACAD_ISO08W100
 70
0
  3
ISO long-dash short-dash ____ __ ____ __ ____ _
 72
65
 73
4
 40
36.0
 49
24.0
 74
0
 49
-3.0
 74
0
 49
6.0
 74
0
 49
-3.0
 74
0
  0
LTYPE
  5
38
100
AcDbSymbolTableRecord
100
AcDbLinetypeTableRecord
  2
DIVIDEX2
 70
0
  3
Divide (2x) ________  .  .  ________  .  .  _
 72
65
 73
6
 40
63.5
 49
25.3999999999999986
 74
0
 49
-12.6999999999999993
 74
0
 49
0.0
 74
0
 49
-12.6999999999999993
 74
0
 49
0.0
 74
0
 49
-12.6999999999999993
 74
0
  0
LTYPE
  5
39
100
AcDbSymbolTableRecord
100
AcDbLinetypeTableRecord
  2
DIVIDE
 70
0
  3
Divide ____ . . ____ . . ____ . . ____ . . ____
 72
65
 73
6
 40
31.75
 49
12.6999999999999993
 74
0
 49
-6.3499999999999996
 74
0
 49
0.0
 74
0
 49
-6.3499999999999996
 74
0
 49
0.0
 74
0
 49
-6.3499999999999996
 74
0
  0
LTYPE
  5
3A
100
AcDbSymbolTableRecord
100
AcDbLinetypeTableRecord
  2
ACAD_ISO10W100
 70
0
  3
ISO dash dot __ . __ . __ . __ . __ . __ . __ . 
 72
65
 73
4
 40
18.0
 49
12.0
 74
0
 49
-3.0
 74
0
 49
0.0
 74
0
 49
-3.0
 74
0
  0
LTYPE
  5
3B
100
AcDbSymbolTableRecord
100
AcDbLinetypeTableRecord
  2
ACAD_ISO06W100
 70
0
  3
ISO long-dash triple-dot ____ ... ____ ... ____
 72
65
 73
8
 40
36.0
 49
24.0
 74
0
 49
-3.0
 74
0
 49
0.0
 74
0
 49
-3.0
 74
0
 49
0.0
 74
0
 49
-3.0
 74
0
 49
0.0
 74
0
 49
-3.0
 74
0
  0
LTYPE
  5
3C
100
AcDbSymbolTableRecord
100
AcDbLinetypeTableRecord
  2
PHANTOM2
 70
0
  3
Phantom (.5x) ___ _ _ ___ _ _ ___ _ _ ___ _ _
 72
65
 73
6
 40
31.7500000000000036
 49
15.875
 74
0
 49
-3.1749999999999998
 74
0
 49
3.1749999999999998
 74
0
 49
-3.1749999999999998
 74
0
 49
3.1749999999999998
 74
0
 49
-3.1749999999999998
 74
0
  0
LTYPE
  5
3D
100
AcDbSymbolTableRecord
100
AcDbLinetypeTableRecord
  2
HIDDEN
 70
0
  3
Hidden __ __ __ __ __ __ __ __ __ __ __ __ __ __
 72
65
 73
2
 40
9.5249999999999986
 49
6.3499999999999996
 74
0
 49
-3.1749999999999998
 74
0
  0
LTYPE
  5
3E
100
AcDbSymbolTableRecord
100
AcDbLinetypeTableRecord
  2
ACAD_ISO04W100
 70
0
  3
ISO long-dash dot ____ . ____ . ____ . ____ . _
 72
65
 73
4
 40
30.0
 49
24.0
 74
0
 49
-3.0
 74
0
 49
0.0
 74
0
 49
-3.0
 74
0
  0
LTYPE
  5
3F
100
AcDbSymbolTableRecord
100
AcDbLinetypeTableRecord
  2
ACAD_ISO03W100
 70
0
  3
ISO dash space __    __    __    __    __    __
 72
65
 73
2
 40
30.0
 49
12.0
 74
0
 49
-18.0
 74
0
  0
LTYPE
  5
40
100
AcDbSymbolTableRecord
100
AcDbLinetypeTableRecord
  2
DASHDOTX2
 70
0
  3
Dash dot (2x) ____  .  ____  .  ____  .  ___
 72
65
 73
4
 40
50.7999999999999972
 49
25.3999999999999986
 74
0
 49
-12.6999999999999993
 74
0
 49
0.0
 74
0
 49
-12.6999999999999993
 74
0
  0
LTYPE
  5
41
100
AcDbSymbolTableRecord
100
AcDbLinetypeTableRecord
  2
PHANTOMX2
 70
0
  3
Phantom (2x) ____________    ____    ____   _
 72
65
 73
6
 40
127.0000000000000142
 49
63.5
 74
0
 49
-12.6999999999999993
 74
0
 49
12.6999999999999993
 74
0
 49
-12.6999999999999993
 74
0
 49
12.6999999999999993
 74
0
 49
-12.6999999999999993
 74
0
  0
LTYPE
  5
42
100
AcDbSymbolTableRecord
100
AcDbLinetypeTableRecord
  2
ACAD_ISO13W100
 70
0
  3
ISO double-dash double-dot __ __ . . __ __ . . _
 72
65
 73
8
 40
36.0
 49
12.0
 74
0
 49
-3.0
 74
0
 49
12.0
 74
0
 49
-3.0
 74
0
 49
0.0
 74
0
 49
-3.0
 74
0
 49
0.0
 74
0
 49
-3.0
 74
0
  0
LTYPE
  5
43
100
AcDbSymbolTableRecord
100
AcDbLinetypeTableRecord
  2
DOTX2
 70
0
  3
Dot (2x) .  .  .  .  .  .  .  .  .  .  .  .  .  .
 72
65
 73
2
 40
12.6999999999999993
 49
0.0
 74
0
 49
-12.6999999999999993
 74
0
  0
LTYPE
  5
44
100
AcDbSymbolTableRecord
100
AcDbLinetypeTableRecord
  2
ACAD_ISO15W100
 70
0
  3
ISO double-dash triple-dot __ __ . . . __ __ . .
 72
65
 73
10
 40
39.0
 49
12.0
 74
0
 49
-3.0
 74
0
 49
12.0
 74
0
 49
-3.0
 74
0
 49
0.0
 74
0
 49
-3.0
 74
0
 49
0.0
 74
0
 49
-3.0
 74
0
 49
0.0
 74
0
 49
-3.0
 74
0
  0
LTYPE
  5
45
100
AcDbSymbolTableRecord
100
AcDbLinetypeTableRecord
  2
BORDERX2
 70
0
  3
Border (2x) ____  ____  .  ____  ____  .  ___
 72
65
 73
6
 40
88.8999999999999915
 49
25.3999999999999986
 74
0
 49
-12.6999999999999993
 74
0
 49
25.3999999999999986
 74
0
 49
-12.6999999999999993
 74
0
 49
0.0
 74
0
 49
-12.6999999999999993
 74
0
  0
LTYPE
  5
14
100
AcDbSymbolTableRecord
100
AcDbLinetypeTableRecord
  2
BYBLOCK
 70
0
  3

 72
65
 73
0
 40
0.0
  0
LTYPE
  5
46
100
AcDbSymbolTableRecord
100
AcDbLinetypeTableRecord
  2
CENTER2
 70
0
  3
Center (.5x) ___ _ ___ _ ___ _ ___ _ ___ _ ___
 72
65
 73
4
 40
28.5750000000000028
 49
19.0500000000000007
 74
0
 49
-3.1749999999999998
 74
0
 49
3.1749999999999998
 74
0
 49
-3.1749999999999998
 74
0
  0
LTYPE
  5
47
100
AcDbSymbolTableRecord
100
AcDbLinetypeTableRecord
  2
ACAD_ISO02W100
 70
0
  3
ISO dash __ __ __ __ __ __ __ __ __ __ __ __ __
 72
65
 73
2
 40
15.0
 49
12.0
 74
0
 49
-3.0
 74
0
  0
LTYPE
  5
48
100
AcDbSymbolTableRecord
100
AcDbLinetypeTableRecord
  2
DOT
 70
0
  3
Dot . . . . . . . . . . . . . . . . . . . . . . . .
 72
65
 73
2
 40
6.3499999999999996
 49
0.0
 74
0
 49
-6.3499999999999996
 74
0
  0
LTYPE
  5
49
100
AcDbSymbolTableRecord
100
AcDbLinetypeTableRecord
  2
HIDDEN2
 70
0
  3
Hidden (.5x) _ _ _ _ _ _ _ _ _ _ _ _ _ _ _ _ _ 
 72
65
 73
2
 40
4.7624999999999993
 49
3.1749999999999998
 74
0
 49
-1.5874999999999999
 74
0
  0
LTYPE
  5
4A
100
AcDbSymbolTableRecord
100
AcDbLinetypeTableRecord
  2
HIDDENX2
 70
0
  3
Hidden (2x) ____ ____ ____ ____ ____ ____ ____ 
 72
65
 73
2
 40
19.0499999999999972
 49
12.6999999999999993
 74
0
 49
-6.3499999999999996
 74
0
  0
LTYPE
  5
4B
100
AcDbSymbolTableRecord
100
AcDbLinetypeTableRecord
  2
DASHED2
 70
0
  3
Dashed (.5x) _ _ _ _ _ _ _ _ _ _ _ _ _ _ _ _ _ 
 72
65
 73
2
 40
9.5249999999999986
 49
6.3499999999999996
 74
0
 49
-3.1749999999999998
 74
0
  0
LTYPE
  5
4C
100
AcDbSymbolTableRecord
100
AcDbLinetypeTableRecord
  2
DASHEDX2
 70
0
  3
Dashed (2x) ____  ____  ____  ____  ____  ___
 72
65
 73
2
 40
38.0999999999999943
 49
25.3999999999999986
 74
0
 49
-12.6999999999999993
 74
0
  0
LTYPE
  5
15
100
AcDbSymbolTableRecord
100
AcDbLinetypeTableRecord
  2
BYLAYER
 70
0
  3

 72
65
 73
0
 40
0.0
  0
LTYPE
  5
4D
100
AcDbSymbolTableRecord
100
AcDbLinetypeTableRecord
  2
DASHDOT
 70
0
  3
Dash dot __ . __ . __ . __ . __ . __ . __ . __
 72
65
 73
4
 40
25.3999999999999986
 49
12.6999999999999993
 74
0
 49
-6.3499999999999996
 74
0
 49
0.0
 74
0
 49
-6.3499999999999996
 74
0
  0
LTYPE
  5
4E
100
AcDbSymbolTableRecord
100
AcDbLinetypeTableRecord
  2
DIVIDE2
 70
0
  3
Divide (.5x) __..__..__..__..__..__..__..__.._
 72
65
 73
6
 40
15.875
 49
6.3499999999999996
 74
0
 49
-3.1749999999999998
 74
0
 49
0.0
 74
0
 49
-3.1749999999999998
 74
0
 49
0.0
 74
0
 49
-3.1749999999999998
 74
0
  0
LTYPE
  5
4F
100
AcDbSymbolTableRecord
100
AcDbLinetypeTableRecord
  2
CENTER
 70
0
  3
Center ____ _ ____ _ ____ _ ____ _ ____ _ ____
 72
65
 73
4
 40
50.8000000000000043
 49
31.75
 74
0
 49
-6.3499999999999996
 74
0
 49
6.3499999999999996
 74
0
 49
-6.3499999999999996
 74
0
  0
LTYPE
  5
50
100
AcDbSymbolTableRecord
100
AcDbLinetypeTableRecord
  2
ACAD_ISO05W100
 70
0
  3
ISO long-dash double-dot ____ .. ____ .. ____ . 
 72
65
 73
6
 40
33.0
 49
24.0
 74
0
 49
-3.0
 74
0
 49
0.0
 74
0
 49
-3.0
 74
0
 49
0.0
 74
0
 49
-3.0
 74
0
  0
LTYPE
  5
51
100
AcDbSymbolTableRecord
100
AcDbLinetypeTableRecord
  2
BORDER
 70
0
  3
Border __ __ . __ __ . __ __ . __ __ . __ __ .
 72
65
 73
6
 40
44.4499999999999957
 49
12.6999999999999993
 74
0
 49
-6.3499999999999996
 74
0
 49
12.6999999999999993
 74
0
 49
-6.3499999999999996
 74
0
 49
0.0
 74
0
 49
-6.3499999999999996
 74
0
  0
LTYPE
  5
52
100
AcDbSymbolTableRecord
100
AcDbLinetypeTableRecord
  2
DASHDOT2
 70
0
  3
Dash dot (.5x) _._._._._._._._._._._._._._._.
 72
65
 73
4
 40
12.6999999999999993
 49
6.3499999999999996
 74
0
 49
-3.1749999999999998
 74
0
 49
0.0
 74
0
 49
-3.1749999999999998
 74
0
  0
LTYPE
  5
53
100
AcDbSymbolTableRecord
100
AcDbLinetypeTableRecord
  2
ACAD_ISO11W100
 70
0
  3
ISO double-dash dot __ __ . __ __ . __ __ . __ _
 72
65
 73
6
 40
33.0
 49
12.0
 74
0
 49
-3.0
 74
0
 49
12.0
 74
0
 49
-3.0
 74
0
 49
0.0
 74
0
 49
-3.0
 74
0
  0
LTYPE
  5
54
100
AcDbSymbolTableRecord
100
AcDbLinetypeTableRecord
  2
PHANTOM
 70
0
  3
Phantom ______  __  __  ______  __  __  ______ 
 72
65
 73
6
 40
63.5000000000000071
 49
31.75
 74
0
 49
-6.3499999999999996
 74
0
 49
6.3499999999999996
 74
0
 49
-6.3499999999999996
 74
0
 49
6.3499999999999996
 74
0
 49
-6.3499999999999996
 74
0
  0
LTYPE
  5
55
100
AcDbSymbolTableRecord
100
AcDbLinetypeTableRecord
  2
CENTERX2
 70
0
  3
Center (2x) ________  __  ________  __  _____
 72
65
 73
4
 40
101.6000000000000085
 49
63.5
 74
0
 49
-12.6999999999999993
 74
0
 49
12.6999999999999993
 74
0
 49
-12.6999999999999993
 74
0
  0
LTYPE
  5
56
100
AcDbSymbolTableRecord
100
AcDbLinetypeTableRecord
  2
DASHED
 70
0
  3
Dashed __ __ __ __ __ __ __ __ __ __ __ __ __ _
 72
65
 73
2
 40
19.0499999999999972
 49
12.6999999999999993
 74
0
 49
-6.3499999999999996
 74
0
  0
ENDTAB
  0
TABLE
  2
LAYER
  5
2
100
AcDbSymbolTable
 70
8
  0
LAYER
  5
57
100
AcDbSymbolTableRecord
100
AcDbLayerTableRecord
  2
22
 70
0
 62
2
420
16776960
  6
CONTINUOUS
370
5
390
F
  0
LAYER
  5
10
100
AcDbSymbolTableRecord
100
AcDbLayerTableRecord
  2
0
 70
0
 62
7
420
16777215
  6
CONTINUOUS
370
25
390
F
  0
LAYER
  5
58
100
AcDbSymbolTableRecord
100
AcDbLayerTableRecord
  2
18
 70
0
 62
82
420
2729216
  6
CONTINUOUS
370
5
390
F
  0
LAYER
  5
59
100
AcDbSymbolTableRecord
100
AcDbLayerTableRecord
  2
17
 70
0
 62
82
420
2729216
  6
CONTINUOUS
370
5
390
F
  0
LAYER
  5
5A
100
AcDbSymbolTableRecord
100
AcDbLayerTableRecord
  2
20
 70
0
 62
7
420
16777215
  6
CONTINUOUS
370
5
390
F
  0
LAYER
  5
5B
100
AcDbSymbolTableRecord
100
AcDbLayerTableRecord
  2
51
 70
0
 62
53
420
10855762
  6
CONTINUOUS
370
5
390
F
  0
LAYER
  5
5C
100
AcDbSymbolTableRecord
100
AcDbLayerTableRecord
  2
21
 70
0
 62
32
420
10834432
  6
CONTINUOUS
370
5
390
F
  0
LAYER
  5
5D
100
AcDbSymbolTableRecord
100
AcDbLayerTableRecord
  2
52
 70
0
 62
253
420
12237498
  6
CONTINUOUS
370
5
390
F
  0
ENDTAB
  0
TABLE
  2
STYLE
  5
3
100
AcDbSymbolTable
 70
1
  0
STYLE
  5
5E
100
AcDbSymbolTableRecord
100
AcDbTextStyleTableRecord
  2
Standard
 70
0
 40
0.0
 41
1.0
 50
0.0
 71
0
 42
2.5
  3

  4

1001
ACAD
1000
txt
1071
0
  0
ENDTAB
  0
TABLE
  2
VIEW
  5
6
100
AcDbSymbolTable
 70
0
  0
ENDTAB
  0
TABLE
  2
UCS
  5
7
100
AcDbSymbolTable
 70
0
  0
ENDTAB
  0
TABLE
  2
APPID
  5
9
100
AcDbSymbolTable
 70
1
  0
APPID
  5
12
100
AcDbSymbolTableRecord
100
AcDbRegAppTableRecord
  2
ACAD
 70
0
  0
APPID
  5
5F
100
AcDbSymbolTableRecord
100
AcDbRegAppTableRecord
  2
QCAD
 70
0
  0
ENDTAB
  0
TABLE
  2
DIMSTYLE
  5
A
100
AcDbSymbolTable
 70
1
100
AcDbDimStyleTable
 71
0
  0
DIMSTYLE
105
27
100
AcDbSymbolTableRecord
100
AcDbDimStyleTableRecord
  2
Standard
 41
0.18
 42
0.0625
 43
3.75
 44
0.18
 70
0
 73
0
 74
0
 77
1
 78
8
140
0.18
141
2.5
143
0.03937007874016
147
0.09
171
3
172
1
271
2
272
2
274
3
278
44
283
0
284
8
340
5E
  0
ENDTAB
  0
TABLE
  2
BLOCK_RECORD
  5
1
100
AcDbSymbolTable
 70
1
  0
BLOCK_RECORD
  5
1F
100
AcDbSymbolTableRecord
100
AcDbBlockTableRecord
  2
*Model_Space
340
22
  0
BLOCK_RECORD
  5
1B
100
AcDbSymbolTableRecord
100
AcDbBlockTableRecord
  2
*Paper_Space
340
1E
  0
BLOCK_RECORD
  5
23
100
AcDbSymbolTableRecord
100
AcDbBlockTableRecord
  2
*Paper_Space0
340
26
  0
BLOCK_RECORD
  5
60
100
AcDbSymbolTableRecord
100
AcDbBlockTableRecord
  2
THERMALP
340
0
  0
BLOCK_RECORD
  5
61
100
AcDbSymbolTableRecord
100
AcDbBlockTableRecord
  2
OCTAGONV
340
0
  0
BLOCK_RECORD
  5
62
100
AcDbSymbolTableRecord
100
AcDbBlockTableRecord
  2
RECT
340
0
  0
BLOCK_RECORD
  5
63
100
AcDbSymbolTableRecord
100
AcDbBlockTableRecord
  2
ANNULUSP
340
0
  0
BLOCK_RECORD
  5
64
100
AcDbSymbolTableRecord
100
AcDbBlockTableRecord
  2
THERMALV
340
0
  0
BLOCK_RECORD
  5
65
100
AcDbSymbolTableRecord
100
AcDbBlockTableRecord
  2
OCTAGONP
340
0
  0
BLOCK_RECORD
  5
66
100
AcDbSymbolTableRecord
100
AcDbBlockTableRecord
  2
SQUAREP
340
0
  0
BLOCK_RECORD
  5
67
100
AcDbSymbolTableRecord
100
AcDbBlockTableRecord
  2
ROUNDP
340
0
  0
BLOCK_RECORD
  5
68
100
AcDbSymbolTableRecord
100
AcDbBlockTableRecord
  2
PIE
340
0
  0
BLOCK_RECORD
  5
69
100
AcDbSymbolTableRecord
100
AcDbBlockTableRecord
  2
ROUNDV
340
0
  0
BLOCK_RECORD
  5
6A
100
AcDbSymbolTableRecord
100
AcDbBlockTableRecord
  2
ANNULUSV
340
0
  0
BLOCK_RECORD
  5
6B
100
AcDbSymbolTableRecord
100
AcDbBlockTableRecord
  2
SQUAREV
340
0
  0
ENDTAB
  0
ENDSEC
  0
SECTION
  2
BLOCKS
  0
BLOCK
  5
20
100
AcDbEntity
  8
0
100
AcDbBlockBegin
  2
*Model_Space
 70
0
 10
0.0
 20
0.0
 30
0.0
  3
*Model_Space
  1

  0
ENDBLK
  5
21
100
AcDbEntity
  8
0
100
AcDbBlockEnd
  0
BLOCK
  5
1C
100
AcDbEntity
 67
1
  8
0
100
AcDbBlockBegin
  2
*Paper_Space
 70
0
 10
0.0
 20
0.0
 30
0.0
  3
*Paper_Space
  1

  0
ENDBLK
  5
1D
100
AcDbEntity
 67
1
  8
0
100
AcDbBlockEnd
  0
BLOCK
  5
24
100
AcDbEntity
  8
0
100
AcDbBlockBegin
  2
*Paper_Space0
 70
0
 10
0.0
 20
0.0
 30
0.0
  3
*Paper_Space0
  1

  0
ENDBLK
  5
25
100
AcDbEntity
  8
0
100
AcDbBlockEnd
  0
BLOCK
  5
6C
100
AcDbEntity
  8
0
100
AcDbBlockBegin
  2
THERMALP
 70
0
 10
0.0
 20
0.0
 30
0.0
  3
THERMALP
  1

  0
LINE
  5
6D
100
AcDbEntity
  8
0
 62
256
370
-1
 48
1.0
  6
BYLAYER
100
AcDbLine
 10
-0.2379
 20
0.45
 30
0.0
 11
0.2379
 21
0.45
 31
0.0
  0
LINE
  5
6E
100
AcDbEntity
  8
0
 62
256
370
-1
 48
1.0
  6
BYLAYER
100
AcDbLine
 10
0.45
 20
0.2379
 30
0.0
 11
0.45
 21
-0.2379
 31
0.0
  0
LINE
  5
6F
100
AcDbEntity
  8
0
 62
256
370
-1
 48
1.0
  6
BYLAYER
100
AcDbLine
 10
0.2379
 20
-0.45
 30
0.0
 11
-0.2379
 21
-0.45
 31
0.0
  0
LINE
  5
70
100
AcDbEntity
  8
0
 62
256
370
-1
 48
1.0
  6
BYLAYER
100
AcDbLine
 10
-0.45
 20
-0.2379
 30
0.0
 11
-0.45
 21
0.2379
 31
0.0
  0
ENDBLK
  5
71
100
AcDbEntity
  8
0
100
AcDbBlockEnd
  0
BLOCK
  5
72
100
AcDbEntity
  8
0
100
AcDbBlockBegin
  2
OCTAGONV
 70
0
 10
0.0
 20
0.0
 30
0.0
  3
OCTAGONV
  1

  0
LWPOLYLINE
  5
73
100
AcDbEntity
  8
0
 62
256
370
-1
 48
1.0
  6
BYLAYER
100
AcDbPolyline
 90
8
 70
1
 10
-0.5
 20
-0.2071
 30
0.0
 10
-0.5
 20
0.2071
 30
0.0
 10
-0.2071
 20
0.5
 30
0.0
 10
0.2071
 20
0.5
 30
0.0
 10
0.5
 20
0.2071
 30
0.0
 10
0.5
 20
-0.2071
 30
0.0
 10
0.2071
 20
-0.5
 30
0.0
 10
-0.2071
 20
-0.5
 30
0.0
  0
ENDBLK
  5
74
100
AcDbEntity
  8
0
100
AcDbBlockEnd
  0
BLOCK
  5
75
100
AcDbEntity
  8
0
100
AcDbBlockBegin
  2
RECT
 70
0
 10
0.0
 20
0.0
 30
0.0
  3
RECT
  1

  0
SOLID
  5
76
100
AcDbEntity
  8
0
 62
256
370
-1
 48
1.0
  6
BYLAYER
100
AcDbTrace
 10
-0.5
 20
-0.5
 30
0.0
 11
0.5
 21
-0.5
 31
0.0
 12
-0.5
 22
0.5
 32
0.0
 13
0.5
 23
0.5
 33
0.0
 39
0.0
  0
ENDBLK
  5
77
100
AcDbEntity
  8
0
100
AcDbBlockEnd
  0
BLOCK
  5
78
100
AcDbEntity
  8
0
100
AcDbBlockBegin
  2
ANNULUSP
 70
0
 10
0.0
 20
0.0
 30
0.0
  3
ANNULUSP
  1

  0
CIRCLE
  5
79
100
AcDbEntity
  8
0
 62
256
370
-1
 48
1.0
  6
BYLAYER
100
AcDbCircle
 10
0.0
 20
0.0
 30
0.0
 40
0.5
  0
ENDBLK
  5
7A
100
AcDbEntity
  8
0
100
AcDbBlockEnd
  0
BLOCK
  5
7B
100
AcDbEntity
  8
0
100
AcDbBlockBegin
  2
THERMALV
 70
0
 10
0.0
 20
0.0
 30
0.0
  3
THERMALV
  1

  0
LINE
  5
7C
100
AcDbEntity
  8
0
 62
256
370
-1
 48
1.0
  6
BYLAYER
100
AcDbLine
 10
-0.2379
 20
0.45
 30
0.0
 11
0.2379
 21
0.45
 31
0.0
  0
LINE
  5
7D
100
AcDbEntity
  8
0
 62
256
370
-1
 48
1.0
  6
BYLAYER
100
AcDbLine
 10
0.45
 20
0.2379
 30
0.0
 11
0.45
 21
-0.2379
 31
0.0
  0
LINE
  5
7E
100
AcDbEntity
  8
0
 62
256
370
-1
 48
1.0
  6
BYLAYER
100
AcDbLine
 10
0.2379
 20
-0.45
 30
0.0
 11
-0.2379
 21
-0.45
 31
0.0
  0
LINE
  5
7F
100
AcDbEntity
  8
0
 62
256
370
-1
 48
1.0
  6
BYLAYER
100
AcDbLine
 10
-0.45
 20
-0.2379
 30
0.0
 11
-0.45
 21
0.2379
 31
0.0
  0
ENDBLK
  5
80
100
AcDbEntity
  8
0
100
AcDbBlockEnd
  0
BLOCK
  5
81
100
AcDbEntity
  8
0
100
AcDbBlockBegin
  2
OCTAGONP
 70
0
 10
0.0
 20
0.0
 30
0.0
  3
OCTAGONP
  1

  0
LWPOLYLINE
  5
82
100
AcDbEntity
  8
0
 62
256
370
-1
 48
1.0
  6
BYLAYER
100
AcDbPolyline
 90
8
 70
1
 10
-0.5
 20
-0.2071
 30
0.0
 10
-0.5
 20
0.2071
 30
0.0
 10
-0.2071
 20
0.5
 30
0.0
 10
0.2071
 20
0.5
 30
0.0
 10
0.5
 20
0.2071
 30
0.0
 10
0.5
 20
-0.2071
 30
0.0
 10
0.2071
 20
-0.5
 30
0.0
 10
-0.2071
 20
-0.5
 30
0.0
  0
ENDBLK
  5
83
100
AcDbEntity
  8
0
100
AcDbBlockEnd
  0
BLOCK
  5
84
100
AcDbEntity
  8
0
100
AcDbBlockBegin
  2
SQUAREP
 70
0
 10
0.0
 20
0.0
 30
0.0
  3
SQUAREP
  1

  0
SOLID
  5
85
100
AcDbEntity
  8
0
 62
256
370
-1
 48
1.0
  6
BYLAYER
100
AcDbTrace
 10
-0.5
 20
-0.5
 30
0.0
 11
0.5
 21
-0.5
 31
0.0
 12
-0.5
 22
0.5
 32
0.0
 13
0.5
 23
0.5
 33
0.0
 39
0.0
  0
ENDBLK
  5
86
100
AcDbEntity
  8
0
100
AcDbBlockEnd
  0
BLOCK
  5
87
100
AcDbEntity
  8
0
100
AcDbBlockBegin
  2
ROUNDP
 70
0
 10
0.0
 20
0.0
 30
0.0
  3
ROUNDP
  1

  0
CIRCLE
  5
88
100
AcDbEntity
  8
0
 62
256
370
-1
 48
1.0
  6
BYLAYER
100
AcDbCircle
 10
0.0
 20
0.0
 30
0.0
 40
0.5
  0
ENDBLK
  5
89
100
AcDbEntity
  8
0
100
AcDbBlockEnd
  0
BLOCK
  5
8A
100
AcDbEntity
  8
0
100
AcDbBlockBegin
  2
PIE
 70
0
 10
0.0
 20
0.0
 30
0.0
  3
PIE
  1

  0
CIRCLE
  5
8B
100
AcDbEntity
  8
0
 62
256
370
-1
 48
1.0
  6
BYLAYER
100
AcDbCircle
 10
0.0
 20
0.0
 30
0.0
 40
0.5
  0
ENDBLK
  5
8C
100
AcDbEntity
  8
0
100
AcDbBlockEnd
  0
BLOCK
  5
8D
100
AcDbEntity
  8
0
100
AcDbBlockBegin
  2
ROUNDV
 70
0
 10
0.0
 20
0.0
 30
0.0
  3
ROUNDV
  1

  0
CIRCLE
  5
8E
100
AcDbEntity
  8
0
 62
256
370
-1
 48
1.0
  6
BYLAYER
100
AcDbCircle
 10
0.0
 20
0.0
 30
0.0
 40
0.5
  0
ENDBLK
  5
8F
100
AcDbEntity
  8
0
100
AcDbBlockEnd
  0
BLOCK
  5
90
100
AcDbEntity
  8
0
100
AcDbBlockBegin
  2
ANNULUSV
 70
0
 10
0.0
 20
0.0
 30
0.0
  3
ANNULUSV
  1

  0
CIRCLE
  5
91
100
AcDbEntity
  8
0
 62
256
370
-1
 48
1.0
  6
BYLAYER
100
AcDbCircle
 10
0.0
 20
0.0
 30
0.0
 40
0.5
  0
ENDBLK
  5
92
100
AcDbEntity
  8
0
100
AcDbBlockEnd
  0
BLOCK
  5
93
100
AcDbEntity
  8
0
100
AcDbBlockBegin
  2
SQUAREV
 70
0
 10
0.0
 20
0.0
 30
0.0
  3
SQUAREV
  1

  0
SOLID
  5
94
100
AcDbEntity
  8
0
 62
256
370
-1
 48
1.0
  6
BYLAYER
100
AcDbTrace
 10
-0.5
 20
-0.5
 30
0.0
 11
0.5
 21
-0.5
 31
0.0
 12
-0.5
 22
0.5
 32
0.0
 13
0.5
 23
0.5
 33
0.0
 39
0.0
  0
ENDBLK
  5
95
100
AcDbEntity
  8
0
100
AcDbBlockEnd
  0
ENDSEC
  0
SECTION
  2
ENTITIES
  0
ARC
  5
96
100
AcDbEntity
  8
20
 62
256
370
-1
 48
1.0
  6
BYLAYER
100
AcDbCircle
 10
5.2991999999999999
 20
2.1589999999999998
 30
0.0
 40
2.2599999999999998
100
AcDbArc
 50
232.9344999999999857
 51
336.1345000000000027
  0
ARC
  5
97
100
AcDbEntity
  8
20
 62
256
370
-1
 48
1.0
  6
BYLAYER
100
AcDbCircle
 10
3.9369999999999998
 20
0.3556
 30
0.0
 40
0.0508
100
AcDbArc
 50
52.9269000000000034
 51
232.9268999999999608
  0
ARC
  5
98
100
AcDbEntity
  8
20
 62
256
370
-1
 48
1.0
  6
BYLAYER
100
AcDbCircle
 10
7.3659999999999997
 20
1.2445999999999999
 30
0.0
 40
0.0509
100
AcDbArc
 50
336.1061000000000263
 51
156.1060999999999979
  0
ARC
  5
99
100
AcDbEntity
  8
20
 62
256
370
-1
 48
1.0
  6
BYLAYER
100
AcDbCircle
 10
23.1721000000000004
 20
2.9302000000000001
 30
0.0
 40
3.0541999999999998
100
AcDbArc
 50
202.6273999999999944
 51
265.4273999999999774
  0
ARC
  5
9A
100
AcDbEntity
  8
20
 62
256
370
-1
 48
1.0
  6
BYLAYER
100
AcDbCircle
 10
7.8739999999999997
 20
2.3875999999999999
 30
0.0
 40
0.0508
100
AcDbArc
 50
336.0604000000000156
 51
156.0604000000000156
  0
ARC
  5
9B
100
AcDbEntity
  8
20
 62
256
370
-1
 48
1.0
  6
BYLAYER
100
AcDbCircle
 10
7.3659999999999997
 20
1.2445999999999999
 30
0.0
 40
0.0508
100
AcDbArc
 50
156.0604000000000156
 51
336.0604000000000156
  0
ARC
  5
9C
100
AcDbEntity
  8
20
 62
256
370
-1
 48
1.0
  6
BYLAYER
100
AcDbCircle
 10
13.8048999999999999
 20
-4.1275000000000004
 30
0.0
 40
8.8102999999999998
100
AcDbArc
 50
42.3126000000000033
 51
132.3125999999999749
  0
ARC
  5
9D
100
AcDbEntity
  8
20
 62
256
370
-1
 48
1.0
  6
BYLAYER
100
AcDbCircle
 10
7.8739999999999997
 20
2.3875999999999999
 30
0.0
 40
0.0508
100
AcDbArc
 50
130.9313999999999965
 51
310.9313999999999965
  0
ARC
  5
9E
100
AcDbEntity
  8
20
 62
256
370
-1
 48
1.0
  6
BYLAYER
100
AcDbCircle
 10
13.7657000000000007
 20
14.0751000000000008
 30
0.0
 40
15.8771000000000004
100
AcDbArc
 50
30.7778999999999989
 51
139.0278999999999883
  0
ARC
  5
9F
100
AcDbEntity
  8
20
 62
256
370
-1
 48
1.0
  6
BYLAYER
100
AcDbCircle
 10
1.778
 20
24.4856000000000016
 30
0.0
 40
0.0508
100
AcDbArc
 50
138.7504000000000133
 51
318.7504000000000133
  0
ARC
  5
A0
100
AcDbEntity
  8
20
 62
256
370
-1
 48
1.0
  6
BYLAYER
100
AcDbCircle
 10
22.5302000000000007
 20
2.742
 30
0.0
 40
2.8839999999999999
100
AcDbArc
 50
277.9413999999999874
 51
347.8213999999999828
  0
ARC
  5
A1
100
AcDbEntity
  8
20
 62
256
370
-1
 48
1.0
  6
BYLAYER
100
AcDbCircle
 10
25.2729999999999997
 20
2.0066000000000002
 30
0.0
 40
0.0508
100
AcDbArc
 50
349.5742000000000189
 51
169.5741999999999905
  0
ARC
  5
A2
100
AcDbEntity
  8
20
 62
256
370
-1
 48
1.0
  6
BYLAYER
100
AcDbCircle
 10
12.6142000000000003
 20
13.5777999999999999
 30
0.0
 40
17.1217000000000006
100
AcDbArc
 50
318.0557999999999765
 51
30.2357999999999976
  0
ARC
  5
A3
100
AcDbEntity
  8
20
 62
256
370
-1
 48
1.0
  6
BYLAYER
100
AcDbCircle
 10
25.2729999999999997
 20
2.0066000000000002
 30
0.0
 40
0.0508
100
AcDbArc
 50
138.1887000000000114
 51
318.188699999999983
  0
ARC
  5
A4
100
AcDbEntity
  8
20
 62
256
370
-1
 48
1.0
  6
BYLAYER
100
AcDbCircle
 10
11.0869999999999997
 20
16.3131999999999984
 30
0.0
 40
12.3872999999999998
100
AcDbArc
 50
138.7201000000000022
 51
147.5400999999999954
  0
ARC
  5
A5
100
AcDbEntity
  8
20
 62
256
370
-1
 48
1.0
  6
BYLAYER
100
AcDbCircle
 10
1.778
 20
24.4856000000000016
 30
0.0
 40
0.0508
100
AcDbArc
 50
318.7504000000000133
 51
138.7504000000000133
  0
ARC
  5
A6
100
AcDbEntity
  8
20
 62
256
370
-1
 48
1.0
  6
BYLAYER
100
AcDbCircle
 10
0.635
 20
22.9616000000000007
 30
0.0
 40
0.0508
100
AcDbArc
 50
147.5287999999999613
 51
327.5287999999999897
  0
ARC
  5
A7
100
AcDbEntity
  8
20
 62
256
370
-1
 48
1.0
  6
BYLAYER
100
AcDbCircle
 10
14.9611000000000001
 20
13.8461999999999996
 30
0.0
 40
16.9802999999999997
100
AcDbArc
 50
147.5321999999999889
 51
223.6122000000000298
  0
ARC
  5
A8
100
AcDbEntity
  8
20
 62
256
370
-1
 48
1.0
  6
BYLAYER
100
AcDbCircle
 10
0.635
 20
22.9616000000000007
 30
0.0
 40
0.0508
100
AcDbArc
 50
327.5287999999999897
 51
147.5287999999999613
  0
ARC
  5
A9
100
AcDbEntity
  8
20
 62
256
370
-1
 48
1.0
  6
BYLAYER
100
AcDbCircle
 10
2.6669999999999998
 20
2.1335999999999999
 30
0.0
 40
0.0508
100
AcDbArc
 50
223.5638999999999896
 51
43.5638999999999967
  0
ARC
  5
AA
100
AcDbEntity
  8
20
 62
256
370
-1
 48
1.0
  6
BYLAYER
100
AcDbCircle
 10
6.1387999999999998
 20
3.2709000000000001
 30
0.0
 40
3.6533000000000002
100
AcDbArc
 50
198.1376999999999953
 51
232.9376999999999498
  0
ARC
  5
AB
100
AcDbEntity
  8
20
 62
256
370
-1
 48
1.0
  6
BYLAYER
100
AcDbCircle
 10
2.6669999999999998
 20
2.1335999999999999
 30
0.0
 40
0.0508
100
AcDbArc
 50
18.1141000000000005
 51
198.1141000000000076
  0
ARC
  5
AC
100
AcDbEntity
  8
20
 62
256
370
-1
 48
1.0
  6
BYLAYER
100
AcDbCircle
 10
3.9369999999999998
 20
0.3556
 30
0.0
 40
0.0508
100
AcDbArc
 50
232.9268999999999608
 51
52.9269000000000034
  0
ARC
  5
AD
100
AcDbEntity
  8
20
 62
256
370
-1
 48
1.0
  6
BYLAYER
100
AcDbCircle
 10
4.7751999999999999
 20
-0.1016
 30
0.0
 40
0.0508
100
AcDbArc
 50
336.209199999999953
 51
156.2092000000000098
  0
ARC
  5
AE
100
AcDbEntity
  8
20
 62
256
370
-1
 48
1.0
  6
BYLAYER
100
AcDbCircle
 10
5.2991999999999999
 20
2.1589999999999998
 30
0.0
 40
2.2599999999999998
100
AcDbArc
 50
232.9344999999999857
 51
336.1345000000000027
  0
ARC
  5
AF
100
AcDbEntity
  8
20
 62
256
370
-1
 48
1.0
  6
BYLAYER
100
AcDbCircle
 10
3.9369999999999998
 20
0.3556
 30
0.0
 40
0.0508
100
AcDbArc
 50
52.9269000000000034
 51
232.9268999999999608
  0
ARC
  5
B0
100
AcDbEntity
  8
20
 62
256
370
-1
 48
1.0
  6
BYLAYER
100
AcDbCircle
 10
7.3659999999999997
 20
1.2445999999999999
 30
0.0
 40
0.0509
100
AcDbArc
 50
336.1061000000000263
 51
156.1060999999999979
  0
ARC
  5
B1
100
AcDbEntity
  8
20
 62
256
370
-1
 48
1.0
  6
BYLAYER
100
AcDbCircle
 10
23.1721000000000004
 20
2.9302000000000001
 30
0.0
 40
3.0541999999999998
100
AcDbArc
 50
202.6273999999999944
 51
265.4273999999999774
  0
ARC
  5
B2
100
AcDbEntity
  8
20
 62
256
370
-1
 48
1.0
  6
BYLAYER
100
AcDbCircle
 10
23.4112000000000009
 20
0.1651
 30
0.0
 40
0.0508
100
AcDbArc
 50
278.369199999999978
 51
98.3692000000000064
  0
LINE
  5
B3
100
AcDbEntity
  8
20
 62
256
370
-1
 48
1.0
  6
BYLAYER
100
AcDbLine
 10
7.3659999999999997
 20
1.2445999999999999
 30
0.0
 11
7.8739999999999997
 21
2.3875999999999999
 31
0.0
  0
ARC
  5
B4
100
AcDbEntity
  8
20
 62
256
370
-1
 48
1.0
  6
BYLAYER
100
AcDbCircle
 10
7.8739999999999997
 20
2.3875999999999999
 30
0.0
 40
0.0508
100
AcDbArc
 50
336.0604000000000156
 51
156.0604000000000156
  0
ARC
  5
B5
100
AcDbEntity
  8
20
 62
256
370
-1
 48
1.0
  6
BYLAYER
100
AcDbCircle
 10
7.3659999999999997
 20
1.2445999999999999
 30
0.0
 40
0.0508
100
AcDbArc
 50
156.0604000000000156
 51
336.0604000000000156
  0
ARC
  5
B6
100
AcDbEntity
  8
20
 62
256
370
-1
 48
1.0
  6
BYLAYER
100
AcDbCircle
 10
13.8048999999999999
 20
-4.1275000000000004
 30
0.0
 40
8.8102999999999998
100
AcDbArc
 50
42.3126000000000033
 51
132.3125999999999749
  0
ARC
  5
B7
100
AcDbEntity
  8
20
 62
256
370
-1
 48
1.0
  6
BYLAYER
100
AcDbCircle
 10
7.8739999999999997
 20
2.3875999999999999
 30
0.0
 40
0.0508
100
AcDbArc
 50
130.9313999999999965
 51
310.9313999999999965
  0
ARC
  5
B8
100
AcDbEntity
  8
20
 62
256
370
-1
 48
1.0
  6
BYLAYER
100
AcDbCircle
 10
13.7657000000000007
 20
14.0751000000000008
 30
0.0
 40
15.8771000000000004
100
AcDbArc
 50
30.7778999999999989
 51
139.0278999999999883
  0
ARC
  5
B9
100
AcDbEntity
  8
20
 62
256
370
-1
 48
1.0
  6
BYLAYER
100
AcDbCircle
 10
1.778
 20
24.4856000000000016
 30
0.0
 40
0.0508
100
AcDbArc
 50
138.7504000000000133
 51
318.7504000000000133
  0
ARC
  5
BA
100
AcDbEntity
  8
20
 62
256
370
-1
 48
1.0
  6
BYLAYER
100
AcDbCircle
 10
22.5302000000000007
 20
2.742
 30
0.0
 40
2.8839999999999999
100
AcDbArc
 50
277.9413999999999874
 51
347.8213999999999828
  0
ARC
  5
BB
100
AcDbEntity
  8
20
 62
256
370
-1
 48
1.0
  6
BYLAYER
100
AcDbCircle
 10
23.4112000000000009
 20
0.1651
 30
0.0
 40
0.0508
100
AcDbArc
 50
99.7403000000000048
 51
279.7402999999999906
  0
ARC
  5
BC
100
AcDbEntity
  8
20
 62
256
370
-1
 48
1.0
  6
BYLAYER
100
AcDbCircle
 10
25.2729999999999997
 20
2.0066000000000002
 30
0.0
 40
0.0508
100
AcDbArc
 50
349.5742000000000189
 51
169.5741999999999905
  0
ARC
  5
BD
100
AcDbEntity
  8
20
 62
256
370
-1
 48
1.0
  6
BYLAYER
100
AcDbCircle
 10
12.6142000000000003
 20
13.5777999999999999
 30
0.0
 40
17.1217000000000006
100
AcDbArc
 50
318.0557999999999765
 51
30.2357999999999976
  0
ARC
  5
BE
100
AcDbEntity
  8
20
 62
256
370
-1
 48
1.0
  6
BYLAYER
100
AcDbCircle
 10
25.2729999999999997
 20
2.0066000000000002
 30
0.0
 40
0.0508
100
AcDbArc
 50
138.1887000000000114
 51
318.188699999999983
  0
ARC
  5
BF
100
AcDbEntity
  8
20
 62
256
370
-1
 48
1.0
  6
BYLAYER
100
AcDbCircle
 10
11.0869999999999997
 20
16.3131999999999984
 30
0.0
 40
12.3872999999999998
100
AcDbArc
 50
138.7201000000000022
 51
147.5400999999999954
  0
ARC
  5
C0
100
AcDbEntity
  8
20
 62
256
370
-1
 48
1.0
  6
BYLAYER
100
AcDbCircle
 10
1.778
 20
24.4856000000000016
 30
0.0
 40
0.0508
100
AcDbArc
 50
318.7504000000000133
 51
138.7504000000000133
  0
ARC
  5
C1
100
AcDbEntity
  8
20
 62
256
370
-1
 48
1.0
  6
BYLAYER
100
AcDbCircle
 10
0.635
 20
22.9616000000000007
 30
0.0
 40
0.0508
100
AcDbArc
 50
147.5287999999999613
 51
327.5287999999999897
  0
ARC
  5
C2
100
AcDbEntity
  8
20
 62
256
370
-1
 48
1.0
  6
BYLAYER
100
AcDbCircle
 10
14.9611000000000001
 20
13.8461999999999996
 30
0.0
 40
16.9802999999999997
100
AcDbArc
 50
147.5321999999999889
 51
223.6122000000000298
  0
ARC
  5
C3
100
AcDbEntity
  8
20
 62
256
370
-1
 48
1.0
  6
BYLAYER
100
AcDbCircle
 10
0.635
 20
22.9616000000000007
 30
0.0
 40
0.0508
100
AcDbArc
 50
327.5287999999999897
 51
147.5287999999999613
  0
ARC
  5
C4
100
AcDbEntity
  8
20
 62
256
370
-1
 48
1.0
  6
BYLAYER
100
AcDbCircle
 10
2.6669999999999998
 20
2.1335999999999999
 30
0.0
 40
0.0508
100
AcDbArc
 50
223.5638999999999896
 51
43.5638999999999967
  0
ARC
  5
C5
100
AcDbEntity
  8
20
 62
256
370
-1
 48
1.0
  6
BYLAYER
100
AcDbCircle
 10
6.1387999999999998
 20
3.2709000000000001
 30
0.0
 40
3.6533000000000002
100
AcDbArc
 50
198.1376999999999953
 51
232.9376999999999498
  0
ARC
  5
C6
100
AcDbEntity
  8
20
 62
256
370
-1
 48
1.0
  6
BYLAYER
100
AcDbCircle
 10
2.6669999999999998
 20
2.1335999999999999
 30
0.0
 40
0.0508
100
AcDbArc
 50
18.1141000000000005
 51
198.1141000000000076
  0
ARC
  5
C7
100
AcDbEntity
  8
20
 62
256
370
-1
 48
1.0
  6
BYLAYER
100
AcDbCircle
 10
3.9369999999999998
 20
0.3556
 30
0.0
 40
0.0508
100
AcDbArc
 50
232.9268999999999608
 51
52.9269000000000034
  0
ARC
  5
C8
100
AcDbEntity
  8
20
 62
256
370
-1
 48
1.0
  6
BYLAYER
100
AcDbCircle
 10
4.7751999999999999
 20
-0.1016
 30
0.0
 40
0.0508
100
AcDbArc
 50
336.209199999999953
 51
156.2092000000000098
  0
LINE
  5
C9
100
AcDbEntity
  8
22
 62
256
370
-1
 48
1.0
  6
BYLAYER
100
AcDbLine
 10
26.0938000000000017
 20
6.1684999999999999
 30
0.0
 11
26.225200000000001
 21
6.2999000000000001
 31
0.0
  0
LINE
  5
CA
100
AcDbEntity
  8
22
 62
256
370
-1
 48
1.0
  6
BYLAYER
100
AcDbLine
 10
26.225200000000001
 20
6.2999000000000001
 30
0.0
 11
26.4878999999999998
 21
6.2999000000000001
 31
0.0
  0
LINE
  5
CB
100
AcDbEntity
  8
22
 62
256
370
-1
 48
1.0
  6
BYLAYER
100
AcDbLine
 10
26.4878999999999998
 20
6.2999000000000001
 30
0.0
 11
26.6191999999999993
 21
6.1684999999999999
 31
0.0
  0
LINE
  5
CC
100
AcDbEntity
  8
22
 62
256
370
-1
 48
1.0
  6
BYLAYER
100
AcDbLine
 10
26.6191999999999993
 20
6.1684999999999999
 30
0.0
 11
26.6191999999999993
 21
6.0372000000000003
 31
0.0
  0
LINE
  5
CD
100
AcDbEntity
  8
22
 62
256
370
-1
 48
1.0
  6
BYLAYER
100
AcDbLine
 10
26.6191999999999993
 20
6.0372000000000003
 30
0.0
 11
26.4878999999999998
 21
5.9058000000000002
 31
0.0
  0
LINE
  5
CE
100
AcDbEntity
  8
22
 62
256
370
-1
 48
1.0
  6
BYLAYER
100
AcDbLine
 10
26.4878999999999998
 20
5.9058000000000002
 30
0.0
 11
26.225200000000001
 21
5.9058000000000002
 31
0.0
  0
LINE
  5
CF
100
AcDbEntity
  8
22
 62
256
370
-1
 48
1.0
  6
BYLAYER
100
AcDbLine
 10
26.225200000000001
 20
5.9058000000000002
 30
0.0
 11
26.0938000000000017
 21
5.7744999999999997
 31
0.0
  0
LINE
  5
D0
100
AcDbEntity
  8
22
 62
256
370
-1
 48
1.0
  6
BYLAYER
100
AcDbLine
 10
26.0938000000000017
 20
5.7744999999999997
 30
0.0
 11
26.0938000000000017
 21
5.6430999999999996
 31
0.0
  0
LINE
  5
D1
100
AcDbEntity
  8
22
 62
256
370
-1
 48
1.0
  6
BYLAYER
100
AcDbLine
 10
26.0938000000000017
 20
5.6430999999999996
 30
0.0
 11
26.225200000000001
 21
5.5118
 31
0.0
  0
LINE
  5
D2
100
AcDbEntity
  8
22
 62
256
370
-1
 48
1.0
  6
BYLAYER
100
AcDbLine
 10
26.225200000000001
 20
5.5118
 30
0.0
 11
26.4878999999999998
 21
5.5118
 31
0.0
  0
LINE
  5
D3
100
AcDbEntity
  8
22
 62
256
370
-1
 48
1.0
  6
BYLAYER
100
AcDbLine
 10
26.4878999999999998
 20
5.5118
 30
0.0
 11
26.6191999999999993
 21
5.6430999999999996
 31
0.0
  0
LINE
  5
D4
100
AcDbEntity
  8
22
 62
256
370
-1
 48
1.0
  6
BYLAYER
100
AcDbLine
 10
25.7537999999999982
 20
6.0372000000000003
 30
0.0
 11
25.7537999999999982
 21
5.6430999999999996
 31
0.0
  0
LINE
  5
D5
100
AcDbEntity
  8
22
 62
256
370
-1
 48
1.0
  6
BYLAYER
100
AcDbLine
 10
25.7537999999999982
 20
5.6430999999999996
 30
0.0
 11
25.6224999999999987
 21
5.5118
 31
0.0
  0
LINE
  5
D6
100
AcDbEntity
  8
22
 62
256
370
-1
 48
1.0
  6
BYLAYER
100
AcDbLine
 10
25.6224999999999987
 20
5.5118
 30
0.0
 11
25.4911999999999992
 21
5.6430999999999996
 31
0.0
  0
LINE
  5
D7
100
AcDbEntity
  8
22
 62
256
370
-1
 48
1.0
  6
BYLAYER
100
AcDbLine
 10
25.4911999999999992
 20
5.6430999999999996
 30
0.0
 11
25.3597999999999999
 21
5.5118
 31
0.0
  0
LINE
  5
D8
100
AcDbEntity
  8
22
 62
256
370
-1
 48
1.0
  6
BYLAYER
100
AcDbLine
 10
25.3597999999999999
 20
5.5118
 30
0.0
 11
25.2285000000000004
 21
5.6430999999999996
 31
0.0
  0
LINE
  5
D9
100
AcDbEntity
  8
22
 62
256
370
-1
 48
1.0
  6
BYLAYER
100
AcDbLine
 10
25.2285000000000004
 20
5.6430999999999996
 30
0.0
 11
25.2285000000000004
 21
6.0372000000000003
 31
0.0
  0
LINE
  5
DA
100
AcDbEntity
  8
22
 62
256
370
-1
 48
1.0
  6
BYLAYER
100
AcDbLine
 10
24.8885000000000005
 20
6.0372000000000003
 30
0.0
 11
24.757200000000001
 21
6.0372000000000003
 31
0.0
  0
LINE
  5
DB
100
AcDbEntity
  8
22
 62
256
370
-1
 48
1.0
  6
BYLAYER
100
AcDbLine
 10
24.757200000000001
 20
6.0372000000000003
 30
0.0
 11
24.757200000000001
 21
5.5118
 31
0.0
  0
LINE
  5
DC
100
AcDbEntity
  8
22
 62
256
370
-1
 48
1.0
  6
BYLAYER
100
AcDbLine
 10
24.8885000000000005
 20
5.5118
 30
0.0
 11
24.6258000000000017
 21
5.5118
 31
0.0
  0
LINE
  5
DD
100
AcDbEntity
  8
22
 62
256
370
-1
 48
1.0
  6
BYLAYER
100
AcDbLine
 10
24.757200000000001
 20
6.4311999999999996
 30
0.0
 11
24.757200000000001
 21
6.2999000000000001
 31
0.0
  0
LINE
  5
DE
100
AcDbEntity
  8
22
 62
256
370
-1
 48
1.0
  6
BYLAYER
100
AcDbLine
 10
24.1801999999999992
 20
6.1684999999999999
 30
0.0
 11
24.1801999999999992
 21
5.6430999999999996
 31
0.0
  0
LINE
  5
DF
100
AcDbEntity
  8
22
 62
256
370
-1
 48
1.0
  6
BYLAYER
100
AcDbLine
 10
24.1801999999999992
 20
5.6430999999999996
 30
0.0
 11
24.0488999999999997
 21
5.5118
 31
0.0
  0
LINE
  5
E0
100
AcDbEntity
  8
22
 62
256
370
-1
 48
1.0
  6
BYLAYER
100
AcDbLine
 10
24.3115999999999985
 20
6.0372000000000003
 30
0.0
 11
24.0488999999999997
 21
6.0372000000000003
 31
0.0
  0
LINE
  5
E1
100
AcDbEntity
  8
22
 62
256
370
-1
 48
1.0
  6
BYLAYER
100
AcDbLine
 10
23.2092999999999989
 20
6.0372000000000003
 30
0.0
 11
23.6033000000000008
 21
6.0372000000000003
 31
0.0
  0
LINE
  5
E2
100
AcDbEntity
  8
22
 62
256
370
-1
 48
1.0
  6
BYLAYER
100
AcDbLine
 10
23.6033000000000008
 20
6.0372000000000003
 30
0.0
 11
23.7347000000000001
 21
5.9058000000000002
 31
0.0
  0
LINE
  5
E3
100
AcDbEntity
  8
22
 62
256
370
-1
 48
1.0
  6
BYLAYER
100
AcDbLine
 10
23.7347000000000001
 20
5.9058000000000002
 30
0.0
 11
23.7347000000000001
 21
5.6430999999999996
 31
0.0
  0
LINE
  5
E4
100
AcDbEntity
  8
22
 62
256
370
-1
 48
1.0
  6
BYLAYER
100
AcDbLine
 10
23.7347000000000001
 20
5.6430999999999996
 30
0.0
 11
23.6033000000000008
 21
5.5118
 31
0.0
  0
LINE
  5
E5
100
AcDbEntity
  8
22
 62
256
370
-1
 48
1.0
  6
BYLAYER
100
AcDbLine
 10
23.6033000000000008
 20
5.5118
 30
0.0
 11
23.2092999999999989
 21
5.5118
 31
0.0
  0
LINE
  5
E6
100
AcDbEntity
  8
22
 62
256
370
-1
 48
1.0
  6
BYLAYER
100
AcDbLine
 10
22.8692999999999991
 20
6.2999000000000001
 30
0.0
 11
22.8692999999999991
 21
5.5118
 31
0.0
  0
LINE
  5
E7
100
AcDbEntity
  8
22
 62
256
370
-1
 48
1.0
  6
BYLAYER
100
AcDbLine
 10
22.8692999999999991
 20
5.9058000000000002
 30
0.0
 11
22.7379999999999995
 21
6.0372000000000003
 31
0.0
  0
LINE
  5
E8
100
AcDbEntity
  8
22
 62
256
370
-1
 48
1.0
  6
BYLAYER
100
AcDbLine
 10
22.7379999999999995
 20
6.0372000000000003
 30
0.0
 11
22.4753000000000007
 21
6.0372000000000003
 31
0.0
  0
LINE
  5
E9
100
AcDbEntity
  8
22
 62
256
370
-1
 48
1.0
  6
BYLAYER
100
AcDbLine
 10
22.4753000000000007
 20
6.0372000000000003
 30
0.0
 11
22.3440000000000012
 21
5.9058000000000002
 31
0.0
  0
LINE
  5
EA
100
AcDbEntity
  8
22
 62
256
370
-1
 48
1.0
  6
BYLAYER
100
AcDbLine
 10
22.3440000000000012
 20
5.9058000000000002
 30
0.0
 11
22.3440000000000012
 21
5.5118
 31
0.0
  0
LINE
  5
EB
100
AcDbEntity
  8
22
 62
256
370
-1
 48
1.0
  6
BYLAYER
100
AcDbLine
 10
21.6098999999999997
 20
5.5118
 30
0.0
 11
21.8725999999999985
 21
5.5118
 31
0.0
  0
LINE
  5
EC
100
AcDbEntity
  8
22
 62
256
370
-1
 48
1.0
  6
BYLAYER
100
AcDbLine
 10
21.8725999999999985
 20
5.5118
 30
0.0
 11
22.0040000000000013
 21
5.6430999999999996
 31
0.0
  0
LINE
  5
ED
100
AcDbEntity
  8
22
 62
256
370
-1
 48
1.0
  6
BYLAYER
100
AcDbLine
 10
22.0040000000000013
 20
5.6430999999999996
 30
0.0
 11
22.0040000000000013
 21
5.9058000000000002
 31
0.0
  0
LINE
  5
EE
100
AcDbEntity
  8
22
 62
256
370
-1
 48
1.0
  6
BYLAYER
100
AcDbLine
 10
22.0040000000000013
 20
5.9058000000000002
 30
0.0
 11
21.8725999999999985
 21
6.0372000000000003
 31
0.0
  0
LINE
  5
EF
100
AcDbEntity
  8
22
 62
256
370
-1
 48
1.0
  6
BYLAYER
100
AcDbLine
 10
21.8725999999999985
 20
6.0372000000000003
 30
0.0
 11
21.6098999999999997
 21
6.0372000000000003
 31
0.0
  0
LINE
  5
F0
100
AcDbEntity
  8
22
 62
256
370
-1
 48
1.0
  6
BYLAYER
100
AcDbLine
 10
21.6098999999999997
 20
6.0372000000000003
 30
0.0
 11
21.4786000000000001
 21
5.9058000000000002
 31
0.0
  0
LINE
  5
F1
100
AcDbEntity
  8
22
 62
256
370
-1
 48
1.0
  6
BYLAYER
100
AcDbLine
 10
21.4786000000000001
 20
5.9058000000000002
 30
0.0
 11
21.4786000000000001
 21
5.7744999999999997
 31
0.0
  0
LINE
  5
F2
100
AcDbEntity
  8
22
 62
256
370
-1
 48
1.0
  6
BYLAYER
100
AcDbLine
 10
21.4786000000000001
 20
5.7744999999999997
 30
0.0
 11
22.0040000000000013
 21
5.7744999999999997
 31
0.0
  0
LINE
  5
F3
100
AcDbEntity
  8
22
 62
256
370
-1
 48
1.0
  6
BYLAYER
100
AcDbLine
 10
20.6131999999999991
 20
6.2999000000000001
 30
0.0
 11
20.6131999999999991
 21
5.5118
 31
0.0
  0
LINE
  5
F4
100
AcDbEntity
  8
22
 62
256
370
-1
 48
1.0
  6
BYLAYER
100
AcDbLine
 10
20.6131999999999991
 20
5.5118
 30
0.0
 11
21.0073000000000008
 21
5.5118
 31
0.0
  0
LINE
  5
F5
100
AcDbEntity
  8
22
 62
256
370
-1
 48
1.0
  6
BYLAYER
100
AcDbLine
 10
21.0073000000000008
 20
5.5118
 30
0.0
 11
21.1386000000000003
 21
5.6430999999999996
 31
0.0
  0
LINE
  5
F6
100
AcDbEntity
  8
22
 62
256
370
-1
 48
1.0
  6
BYLAYER
100
AcDbLine
 10
21.1386000000000003
 20
5.6430999999999996
 30
0.0
 11
21.1386000000000003
 21
5.9058000000000002
 31
0.0
  0
LINE
  5
F7
100
AcDbEntity
  8
22
 62
256
370
-1
 48
1.0
  6
BYLAYER
100
AcDbLine
 10
21.1386000000000003
 20
5.9058000000000002
 30
0.0
 11
21.0073000000000008
 21
6.0372000000000003
 31
0.0
  0
LINE
  5
F8
100
AcDbEntity
  8
22
 62
256
370
-1
 48
1.0
  6
BYLAYER
100
AcDbLine
 10
21.0073000000000008
 20
6.0372000000000003
 30
0.0
 11
20.6131999999999991
 21
6.0372000000000003
 31
0.0
  0
LINE
  5
F9
100
AcDbEntity
  8
22
 62
256
370
-1
 48
1.0
  6
BYLAYER
100
AcDbLine
 10
18.8825000000000003
 20
6.1684999999999999
 30
0.0
 11
19.0138999999999996
 21
6.2999000000000001
 31
0.0
  0
LINE
  5
FA
100
AcDbEntity
  8
22
 62
256
370
-1
 48
1.0
  6
BYLAYER
100
AcDbLine
 10
19.0138999999999996
 20
6.2999000000000001
 30
0.0
 11
19.2765999999999984
 21
6.2999000000000001
 31
0.0
  0
LINE
  5
FB
100
AcDbEntity
  8
22
 62
256
370
-1
 48
1.0
  6
BYLAYER
100
AcDbLine
 10
19.2765999999999984
 20
6.2999000000000001
 30
0.0
 11
19.4079000000000015
 21
6.1684999999999999
 31
0.0
  0
LINE
  5
FC
100
AcDbEntity
  8
22
 62
256
370
-1
 48
1.0
  6
BYLAYER
100
AcDbLine
 10
19.4079000000000015
 20
6.1684999999999999
 30
0.0
 11
19.4079000000000015
 21
5.6430999999999996
 31
0.0
  0
LINE
  5
FD
100
AcDbEntity
  8
22
 62
256
370
-1
 48
1.0
  6
BYLAYER
100
AcDbLine
 10
19.4079000000000015
 20
5.6430999999999996
 30
0.0
 11
19.2765999999999984
 21
5.5118
 31
0.0
  0
LINE
  5
FE
100
AcDbEntity
  8
22
 62
256
370
-1
 48
1.0
  6
BYLAYER
100
AcDbLine
 10
19.2765999999999984
 20
5.5118
 30
0.0
 11
19.0138999999999996
 21
5.5118
 31
0.0
  0
LINE
  5
FF
100
AcDbEntity
  8
22
 62
256
370
-1
 48
1.0
  6
BYLAYER
100
AcDbLine
 10
19.0138999999999996
 20
5.5118
 30
0.0
 11
18.8825000000000003
 21
5.6430999999999996
 31
0.0
  0
LINE
  5
100
100
AcDbEntity
  8
22
 62
256
370
-1
 48
1.0
  6
BYLAYER
100
AcDbLine
 10
18.4112000000000009
 20
5.5118
 30
0.0
 11
18.1484999999999985
 21
5.5118
 31
0.0
  0
LINE
  5
101
100
AcDbEntity
  8
22
 62
256
370
-1
 48
1.0
  6
BYLAYER
100
AcDbLine
 10
18.1484999999999985
 20
5.5118
 30
0.0
 11
18.017199999999999
 21
5.6430999999999996
 31
0.0
  0
LINE
  5
102
100
AcDbEntity
  8
22
 62
256
370
-1
 48
1.0
  6
BYLAYER
100
AcDbLine
 10
18.017199999999999
 20
5.6430999999999996
 30
0.0
 11
18.017199999999999
 21
5.9058000000000002
 31
0.0
  0
LINE
  5
103
100
AcDbEntity
  8
22
 62
256
370
-1
 48
1.0
  6
BYLAYER
100
AcDbLine
 10
18.017199999999999
 20
5.9058000000000002
 30
0.0
 11
18.1484999999999985
 21
6.0372000000000003
 31
0.0
  0
LINE
  5
104
100
AcDbEntity
  8
22
 62
256
370
-1
 48
1.0
  6
BYLAYER
100
AcDbLine
 10
18.1484999999999985
 20
6.0372000000000003
 30
0.0
 11
18.4112000000000009
 21
6.0372000000000003
 31
0.0
  0
LINE
  5
105
100
AcDbEntity
  8
22
 62
256
370
-1
 48
1.0
  6
BYLAYER
100
AcDbLine
 10
18.4112000000000009
 20
6.0372000000000003
 30
0.0
 11
18.5426000000000002
 21
5.9058000000000002
 31
0.0
  0
LINE
  5
106
100
AcDbEntity
  8
22
 62
256
370
-1
 48
1.0
  6
BYLAYER
100
AcDbLine
 10
18.5426000000000002
 20
5.9058000000000002
 30
0.0
 11
18.5426000000000002
 21
5.6430999999999996
 31
0.0
  0
LINE
  5
107
100
AcDbEntity
  8
22
 62
256
370
-1
 48
1.0
  6
BYLAYER
100
AcDbLine
 10
18.5426000000000002
 20
5.6430999999999996
 30
0.0
 11
18.4112000000000009
 21
5.5118
 31
0.0
  0
LINE
  5
108
100
AcDbEntity
  8
22
 62
256
370
-1
 48
1.0
  6
BYLAYER
100
AcDbLine
 10
17.6771999999999991
 20
6.0372000000000003
 30
0.0
 11
17.5458999999999996
 21
6.0372000000000003
 31
0.0
  0
LINE
  5
109
100
AcDbEntity
  8
22
 62
256
370
-1
 48
1.0
  6
BYLAYER
100
AcDbLine
 10
17.5458999999999996
 20
6.0372000000000003
 30
0.0
 11
17.5458999999999996
 21
5.5118
 31
0.0
  0
LINE
  5
10A
100
AcDbEntity
  8
22
 62
256
370
-1
 48
1.0
  6
BYLAYER
100
AcDbLine
 10
17.6771999999999991
 20
5.5118
 30
0.0
 11
17.4145000000000003
 21
5.5118
 31
0.0
  0
LINE
  5
10B
100
AcDbEntity
  8
22
 62
256
370
-1
 48
1.0
  6
BYLAYER
100
AcDbLine
 10
17.5458999999999996
 20
6.4311999999999996
 30
0.0
 11
17.5458999999999996
 21
6.2999000000000001
 31
0.0
  0
LINE
  5
10C
100
AcDbEntity
  8
22
 62
256
370
-1
 48
1.0
  6
BYLAYER
100
AcDbLine
 10
17.1003000000000007
 20
5.5118
 30
0.0
 11
17.1003000000000007
 21
6.0372000000000003
 31
0.0
  0
LINE
  5
10D
100
AcDbEntity
  8
22
 62
256
370
-1
 48
1.0
  6
BYLAYER
100
AcDbLine
 10
17.1003000000000007
 20
6.0372000000000003
 30
0.0
 11
16.7062999999999988
 21
6.0372000000000003
 31
0.0
  0
LINE
  5
10E
100
AcDbEntity
  8
22
 62
256
370
-1
 48
1.0
  6
BYLAYER
100
AcDbLine
 10
16.7062999999999988
 20
6.0372000000000003
 30
0.0
 11
16.5748999999999995
 21
5.9058000000000002
 31
0.0
  0
LINE
  5
10F
100
AcDbEntity
  8
22
 62
256
370
-1
 48
1.0
  6
BYLAYER
100
AcDbLine
 10
16.5748999999999995
 20
5.9058000000000002
 30
0.0
 11
16.5748999999999995
 21
5.5118
 31
0.0
  0
LINE
  5
110
100
AcDbEntity
  8
22
 62
256
370
-1
 48
1.0
  6
BYLAYER
100
AcDbLine
 10
14.8442000000000007
 20
6.1684999999999999
 30
0.0
 11
14.9756
 21
6.2999000000000001
 31
0.0
  0
LINE
  5
111
100
AcDbEntity
  8
22
 62
256
370
-1
 48
1.0
  6
BYLAYER
100
AcDbLine
 10
14.9756
 20
6.2999000000000001
 30
0.0
 11
15.2383000000000006
 21
6.2999000000000001
 31
0.0
  0
LINE
  5
112
100
AcDbEntity
  8
22
 62
256
370
-1
 48
1.0
  6
BYLAYER
100
AcDbLine
 10
15.2383000000000006
 20
6.2999000000000001
 30
0.0
 11
15.3696000000000002
 21
6.1684999999999999
 31
0.0
  0
LINE
  5
113
100
AcDbEntity
  8
22
 62
256
370
-1
 48
1.0
  6
BYLAYER
100
AcDbLine
 10
15.3696000000000002
 20
6.1684999999999999
 30
0.0
 11
15.3696000000000002
 21
5.6430999999999996
 31
0.0
  0
LINE
  5
114
100
AcDbEntity
  8
22
 62
256
370
-1
 48
1.0
  6
BYLAYER
100
AcDbLine
 10
15.3696000000000002
 20
5.6430999999999996
 30
0.0
 11
15.2383000000000006
 21
5.5118
 31
0.0
  0
LINE
  5
115
100
AcDbEntity
  8
22
 62
256
370
-1
 48
1.0
  6
BYLAYER
100
AcDbLine
 10
15.2383000000000006
 20
5.5118
 30
0.0
 11
14.9756
 21
5.5118
 31
0.0
  0
LINE
  5
116
100
AcDbEntity
  8
22
 62
256
370
-1
 48
1.0
  6
BYLAYER
100
AcDbLine
 10
14.9756
 20
5.5118
 30
0.0
 11
14.8442000000000007
 21
5.6430999999999996
 31
0.0
  0
LINE
  5
117
100
AcDbEntity
  8
22
 62
256
370
-1
 48
1.0
  6
BYLAYER
100
AcDbLine
 10
14.1102000000000007
 20
5.5118
 30
0.0
 11
14.3728999999999996
 21
5.5118
 31
0.0
  0
LINE
  5
118
100
AcDbEntity
  8
22
 62
256
370
-1
 48
1.0
  6
BYLAYER
100
AcDbLine
 10
14.3728999999999996
 20
5.5118
 30
0.0
 11
14.5043000000000006
 21
5.6430999999999996
 31
0.0
  0
LINE
  5
119
100
AcDbEntity
  8
22
 62
256
370
-1
 48
1.0
  6
BYLAYER
100
AcDbLine
 10
14.5043000000000006
 20
5.6430999999999996
 30
0.0
 11
14.5043000000000006
 21
5.9058000000000002
 31
0.0
  0
LINE
  5
11A
100
AcDbEntity
  8
22
 62
256
370
-1
 48
1.0
  6
BYLAYER
100
AcDbLine
 10
14.5043000000000006
 20
5.9058000000000002
 30
0.0
 11
14.3728999999999996
 21
6.0372000000000003
 31
0.0
  0
LINE
  5
11B
100
AcDbEntity
  8
22
 62
256
370
-1
 48
1.0
  6
BYLAYER
100
AcDbLine
 10
14.3728999999999996
 20
6.0372000000000003
 30
0.0
 11
14.1102000000000007
 21
6.0372000000000003
 31
0.0
  0
LINE
  5
11C
100
AcDbEntity
  8
22
 62
256
370
-1
 48
1.0
  6
BYLAYER
100
AcDbLine
 10
14.1102000000000007
 20
6.0372000000000003
 30
0.0
 11
13.9788999999999994
 21
5.9058000000000002
 31
0.0
  0
LINE
  5
11D
100
AcDbEntity
  8
22
 62
256
370
-1
 48
1.0
  6
BYLAYER
100
AcDbLine
 10
13.9788999999999994
 20
5.9058000000000002
 30
0.0
 11
13.9788999999999994
 21
5.7744999999999997
 31
0.0
  0
LINE
  5
11E
100
AcDbEntity
  8
22
 62
256
370
-1
 48
1.0
  6
BYLAYER
100
AcDbLine
 10
13.9788999999999994
 20
5.7744999999999997
 30
0.0
 11
14.5043000000000006
 21
5.7744999999999997
 31
0.0
  0
LINE
  5
11F
100
AcDbEntity
  8
22
 62
256
370
-1
 48
1.0
  6
BYLAYER
100
AcDbLine
 10
13.6388999999999996
 20
6.2999000000000001
 30
0.0
 11
13.5076000000000001
 21
6.2999000000000001
 31
0.0
  0
LINE
  5
120
100
AcDbEntity
  8
22
 62
256
370
-1
 48
1.0
  6
BYLAYER
100
AcDbLine
 10
13.5076000000000001
 20
6.2999000000000001
 30
0.0
 11
13.5076000000000001
 21
5.5118
 31
0.0
  0
LINE
  5
121
100
AcDbEntity
  8
22
 62
256
370
-1
 48
1.0
  6
BYLAYER
100
AcDbLine
 10
13.6388999999999996
 20
5.5118
 30
0.0
 11
13.3762000000000008
 21
5.5118
 31
0.0
  0
LINE
  5
122
100
AcDbEntity
  8
22
 62
256
370
-1
 48
1.0
  6
BYLAYER
100
AcDbLine
 10
13.0619999999999994
 20
6.2999000000000001
 30
0.0
 11
12.9306999999999999
 21
6.2999000000000001
 31
0.0
  0
LINE
  5
123
100
AcDbEntity
  8
22
 62
256
370
-1
 48
1.0
  6
BYLAYER
100
AcDbLine
 10
12.9306999999999999
 20
6.2999000000000001
 30
0.0
 11
12.9306999999999999
 21
5.5118
 31
0.0
  0
LINE
  5
124
100
AcDbEntity
  8
22
 62
256
370
-1
 48
1.0
  6
BYLAYER
100
AcDbLine
 10
13.0619999999999994
 20
5.5118
 30
0.0
 11
12.7993000000000006
 21
5.5118
 31
0.0
  0
LINE
  5
125
100
AcDbEntity
  8
22
 62
256
370
-1
 48
1.0
  6
BYLAYER
100
AcDbLine
 10
11.6196999999999999
 20
5.5118
 30
0.0
 11
11.6196999999999999
 21
6.2999000000000001
 31
0.0
  0
LINE
  5
126
100
AcDbEntity
  8
22
 62
256
370
-1
 48
1.0
  6
BYLAYER
100
AcDbLine
 10
11.6196999999999999
 20
6.2999000000000001
 30
0.0
 11
11.2256999999999998
 21
6.2999000000000001
 31
0.0
  0
LINE
  5
127
100
AcDbEntity
  8
22
 62
256
370
-1
 48
1.0
  6
BYLAYER
100
AcDbLine
 10
11.2256999999999998
 20
6.2999000000000001
 30
0.0
 11
11.0944000000000003
 21
6.1684999999999999
 31
0.0
  0
LINE
  5
128
100
AcDbEntity
  8
22
 62
256
370
-1
 48
1.0
  6
BYLAYER
100
AcDbLine
 10
11.0944000000000003
 20
6.1684999999999999
 30
0.0
 11
11.0944000000000003
 21
6.0372000000000003
 31
0.0
  0
LINE
  5
129
100
AcDbEntity
  8
22
 62
256
370
-1
 48
1.0
  6
BYLAYER
100
AcDbLine
 10
11.0944000000000003
 20
6.0372000000000003
 30
0.0
 11
11.2256999999999998
 21
5.9058000000000002
 31
0.0
  0
LINE
  5
12A
100
AcDbEntity
  8
22
 62
256
370
-1
 48
1.0
  6
BYLAYER
100
AcDbLine
 10
11.2256999999999998
 20
5.9058000000000002
 30
0.0
 11
11.0944000000000003
 21
5.7744999999999997
 31
0.0
  0
LINE
  5
12B
100
AcDbEntity
  8
22
 62
256
370
-1
 48
1.0
  6
BYLAYER
100
AcDbLine
 10
11.0944000000000003
 20
5.7744999999999997
 30
0.0
 11
11.0944000000000003
 21
5.6430999999999996
 31
0.0
  0
LINE
  5
12C
100
AcDbEntity
  8
22
 62
256
370
-1
 48
1.0
  6
BYLAYER
100
AcDbLine
 10
11.0944000000000003
 20
5.6430999999999996
 30
0.0
 11
11.2256999999999998
 21
5.5118
 31
0.0
  0
LINE
  5
12D
100
AcDbEntity
  8
22
 62
256
370
-1
 48
1.0
  6
BYLAYER
100
AcDbLine
 10
11.2256999999999998
 20
5.5118
 30
0.0
 11
11.6196999999999999
 21
5.5118
 31
0.0
  0
LINE
  5
12E
100
AcDbEntity
  8
22
 62
256
370
-1
 48
1.0
  6
BYLAYER
100
AcDbLine
 10
11.6196999999999999
 20
5.9058000000000002
 30
0.0
 11
11.2256999999999998
 21
5.9058000000000002
 31
0.0
  0
LINE
  5
12F
100
AcDbEntity
  8
22
 62
256
370
-1
 48
1.0
  6
BYLAYER
100
AcDbLine
 10
10.6229999999999993
 20
6.0372000000000003
 30
0.0
 11
10.3604000000000003
 21
6.0372000000000003
 31
0.0
  0
LINE
  5
130
100
AcDbEntity
  8
22
 62
256
370
-1
 48
1.0
  6
BYLAYER
100
AcDbLine
 10
10.3604000000000003
 20
6.0372000000000003
 30
0.0
 11
10.2289999999999992
 21
5.9058000000000002
 31
0.0
  0
LINE
  5
131
100
AcDbEntity
  8
22
 62
256
370
-1
 48
1.0
  6
BYLAYER
100
AcDbLine
 10
10.2289999999999992
 20
5.9058000000000002
 30
0.0
 11
10.2289999999999992
 21
5.5118
 31
0.0
  0
LINE
  5
132
100
AcDbEntity
  8
22
 62
256
370
-1
 48
1.0
  6
BYLAYER
100
AcDbLine
 10
10.2289999999999992
 20
5.5118
 30
0.0
 11
10.6229999999999993
 21
5.5118
 31
0.0
  0
LINE
  5
133
100
AcDbEntity
  8
22
 62
256
370
-1
 48
1.0
  6
BYLAYER
100
AcDbLine
 10
10.6229999999999993
 20
5.5118
 30
0.0
 11
10.7544000000000004
 21
5.6430999999999996
 31
0.0
  0
LINE
  5
134
100
AcDbEntity
  8
22
 62
256
370
-1
 48
1.0
  6
BYLAYER
100
AcDbLine
 10
10.7544000000000004
 20
5.6430999999999996
 30
0.0
 11
10.6229999999999993
 21
5.7744999999999997
 31
0.0
  0
LINE
  5
135
100
AcDbEntity
  8
22
 62
256
370
-1
 48
1.0
  6
BYLAYER
100
AcDbLine
 10
10.6229999999999993
 20
5.7744999999999997
 30
0.0
 11
10.2289999999999992
 21
5.7744999999999997
 31
0.0
  0
LINE
  5
136
100
AcDbEntity
  8
22
 62
256
370
-1
 48
1.0
  6
BYLAYER
100
AcDbLine
 10
9.7576999999999998
 20
6.1684999999999999
 30
0.0
 11
9.7576999999999998
 21
5.6430999999999996
 31
0.0
  0
LINE
  5
137
100
AcDbEntity
  8
22
 62
256
370
-1
 48
1.0
  6
BYLAYER
100
AcDbLine
 10
9.7576999999999998
 20
5.6430999999999996
 30
0.0
 11
9.6263000000000005
 21
5.5118
 31
0.0
  0
LINE
  5
138
100
AcDbEntity
  8
22
 62
256
370
-1
 48
1.0
  6
BYLAYER
100
AcDbLine
 10
9.8889999999999993
 20
6.0372000000000003
 30
0.0
 11
9.6263000000000005
 21
6.0372000000000003
 31
0.0
  0
LINE
  5
139
100
AcDbEntity
  8
22
 62
256
370
-1
 48
1.0
  6
BYLAYER
100
AcDbLine
 10
9.1807999999999996
 20
6.1684999999999999
 30
0.0
 11
9.1807999999999996
 21
5.6430999999999996
 31
0.0
  0
LINE
  5
13A
100
AcDbEntity
  8
22
 62
256
370
-1
 48
1.0
  6
BYLAYER
100
AcDbLine
 10
9.1807999999999996
 20
5.6430999999999996
 30
0.0
 11
9.0494000000000003
 21
5.5118
 31
0.0
  0
LINE
  5
13B
100
AcDbEntity
  8
22
 62
256
370
-1
 48
1.0
  6
BYLAYER
100
AcDbLine
 10
9.3120999999999992
 20
6.0372000000000003
 30
0.0
 11
9.0494000000000003
 21
6.0372000000000003
 31
0.0
  0
LINE
  5
13C
100
AcDbEntity
  8
22
 62
256
370
-1
 48
1.0
  6
BYLAYER
100
AcDbLine
 10
8.3412000000000006
 20
5.5118
 30
0.0
 11
8.6038999999999994
 21
5.5118
 31
0.0
  0
LINE
  5
13D
100
AcDbEntity
  8
22
 62
256
370
-1
 48
1.0
  6
BYLAYER
100
AcDbLine
 10
8.6038999999999994
 20
5.5118
 30
0.0
 11
8.7352000000000007
 21
5.6430999999999996
 31
0.0
  0
LINE
  5
13E
100
AcDbEntity
  8
22
 62
256
370
-1
 48
1.0
  6
BYLAYER
100
AcDbLine
 10
8.7352000000000007
 20
5.6430999999999996
 30
0.0
 11
8.7352000000000007
 21
5.9058000000000002
 31
0.0
  0
LINE
  5
13F
100
AcDbEntity
  8
22
 62
256
370
-1
 48
1.0
  6
BYLAYER
100
AcDbLine
 10
8.7352000000000007
 20
5.9058000000000002
 30
0.0
 11
8.6038999999999994
 21
6.0372000000000003
 31
0.0
  0
LINE
  5
140
100
AcDbEntity
  8
22
 62
256
370
-1
 48
1.0
  6
BYLAYER
100
AcDbLine
 10
8.6038999999999994
 20
6.0372000000000003
 30
0.0
 11
8.3412000000000006
 21
6.0372000000000003
 31
0.0
  0
LINE
  5
141
100
AcDbEntity
  8
22
 62
256
370
-1
 48
1.0
  6
BYLAYER
100
AcDbLine
 10
8.3412000000000006
 20
6.0372000000000003
 30
0.0
 11
8.2097999999999995
 21
5.9058000000000002
 31
0.0
  0
LINE
  5
142
100
AcDbEntity
  8
22
 62
256
370
-1
 48
1.0
  6
BYLAYER
100
AcDbLine
 10
8.2097999999999995
 20
5.9058000000000002
 30
0.0
 11
8.2097999999999995
 21
5.7744999999999997
 31
0.0
  0
LINE
  5
143
100
AcDbEntity
  8
22
 62
256
370
-1
 48
1.0
  6
BYLAYER
100
AcDbLine
 10
8.2097999999999995
 20
5.7744999999999997
 30
0.0
 11
8.7352000000000007
 21
5.7744999999999997
 31
0.0
  0
LINE
  5
144
100
AcDbEntity
  8
22
 62
256
370
-1
 48
1.0
  6
BYLAYER
100
AcDbLine
 10
7.8699000000000003
 20
5.5118
 30
0.0
 11
7.8699000000000003
 21
6.0372000000000003
 31
0.0
  0
LINE
  5
145
100
AcDbEntity
  8
22
 62
256
370
-1
 48
1.0
  6
BYLAYER
100
AcDbLine
 10
7.8699000000000003
 20
5.7744999999999997
 30
0.0
 11
7.6071999999999997
 21
6.0372000000000003
 31
0.0
  0
LINE
  5
146
100
AcDbEntity
  8
22
 62
256
370
-1
 48
1.0
  6
BYLAYER
100
AcDbLine
 10
7.6071999999999997
 20
6.0372000000000003
 30
0.0
 11
7.4757999999999996
 21
6.0372000000000003
 31
0.0
  0
LINE
  5
147
100
AcDbEntity
  8
22
 62
256
370
-1
 48
1.0
  6
BYLAYER
100
AcDbLine
 10
7.1486999999999998
 20
6.0372000000000003
 30
0.0
 11
7.1486999999999998
 21
5.6430999999999996
 31
0.0
  0
LINE
  5
148
100
AcDbEntity
  8
22
 62
256
370
-1
 48
1.0
  6
BYLAYER
100
AcDbLine
 10
7.1486999999999998
 20
5.6430999999999996
 30
0.0
 11
7.0174000000000003
 21
5.5118
 31
0.0
  0
LINE
  5
149
100
AcDbEntity
  8
22
 62
256
370
-1
 48
1.0
  6
BYLAYER
100
AcDbLine
 10
7.0174000000000003
 20
5.5118
 30
0.0
 11
6.6234000000000002
 21
5.5118
 31
0.0
  0
LINE
  5
14A
100
AcDbEntity
  8
22
 62
256
370
-1
 48
1.0
  6
BYLAYER
100
AcDbLine
 10
6.6234000000000002
 20
6.0372000000000003
 30
0.0
 11
6.6234000000000002
 21
5.3804999999999996
 31
0.0
  0
LINE
  5
14B
100
AcDbEntity
  8
22
 62
256
370
-1
 48
1.0
  6
BYLAYER
100
AcDbLine
 10
6.6234000000000002
 20
5.3804999999999996
 30
0.0
 11
6.7546999999999997
 21
5.2491000000000003
 31
0.0
  0
LINE
  5
14C
100
AcDbEntity
  8
22
 62
256
370
-1
 48
1.0
  6
BYLAYER
100
AcDbLine
 10
6.7546999999999997
 20
5.2491000000000003
 30
0.0
 11
6.8860999999999999
 21
5.2491000000000003
 31
0.0
  0
LINE
  5
14D
100
AcDbEntity
  8
22
 62
256
370
-1
 48
1.0
  6
BYLAYER
100
AcDbLine
 10
5.4180000000000001
 20
5.5118
 30
0.0
 11
5.4180000000000001
 21
6.2999000000000001
 31
0.0
  0
LINE
  5
14E
100
AcDbEntity
  8
22
 62
256
370
-1
 48
1.0
  6
BYLAYER
100
AcDbLine
 10
5.4180000000000001
 20
5.9058000000000002
 30
0.0
 11
4.8926999999999996
 21
5.9058000000000002
 31
0.0
  0
LINE
  5
14F
100
AcDbEntity
  8
22
 62
256
370
-1
 48
1.0
  6
BYLAYER
100
AcDbLine
 10
4.8926999999999996
 20
6.2999000000000001
 30
0.0
 11
4.8926999999999996
 21
5.5118
 31
0.0
  0
LINE
  5
150
100
AcDbEntity
  8
22
 62
256
370
-1
 48
1.0
  6
BYLAYER
100
AcDbLine
 10
4.4212999999999996
 20
5.5118
 30
0.0
 11
4.1586999999999996
 21
5.5118
 31
0.0
  0
LINE
  5
151
100
AcDbEntity
  8
22
 62
256
370
-1
 48
1.0
  6
BYLAYER
100
AcDbLine
 10
4.1586999999999996
 20
5.5118
 30
0.0
 11
4.0273000000000003
 21
5.6430999999999996
 31
0.0
  0
LINE
  5
152
100
AcDbEntity
  8
22
 62
256
370
-1
 48
1.0
  6
BYLAYER
100
AcDbLine
 10
4.0273000000000003
 20
5.6430999999999996
 30
0.0
 11
4.0273000000000003
 21
5.9058000000000002
 31
0.0
  0
LINE
  5
153
100
AcDbEntity
  8
22
 62
256
370
-1
 48
1.0
  6
BYLAYER
100
AcDbLine
 10
4.0273000000000003
 20
5.9058000000000002
 30
0.0
 11
4.1586999999999996
 21
6.0372000000000003
 31
0.0
  0
LINE
  5
154
100
AcDbEntity
  8
22
 62
256
370
-1
 48
1.0
  6
BYLAYER
100
AcDbLine
 10
4.1586999999999996
 20
6.0372000000000003
 30
0.0
 11
4.4212999999999996
 21
6.0372000000000003
 31
0.0
  0
LINE
  5
155
100
AcDbEntity
  8
22
 62
256
370
-1
 48
1.0
  6
BYLAYER
100
AcDbLine
 10
4.4212999999999996
 20
6.0372000000000003
 30
0.0
 11
4.5526999999999997
 21
5.9058000000000002
 31
0.0
  0
LINE
  5
156
100
AcDbEntity
  8
22
 62
256
370
-1
 48
1.0
  6
BYLAYER
100
AcDbLine
 10
4.5526999999999997
 20
5.9058000000000002
 30
0.0
 11
4.5526999999999997
 21
5.6430999999999996
 31
0.0
  0
LINE
  5
157
100
AcDbEntity
  8
22
 62
256
370
-1
 48
1.0
  6
BYLAYER
100
AcDbLine
 10
4.5526999999999997
 20
5.6430999999999996
 30
0.0
 11
4.4212999999999996
 21
5.5118
 31
0.0
  0
LINE
  5
158
100
AcDbEntity
  8
22
 62
256
370
-1
 48
1.0
  6
BYLAYER
100
AcDbLine
 10
3.6873
 20
6.2999000000000001
 30
0.0
 11
3.556
 21
6.2999000000000001
 31
0.0
  0
LINE
  5
159
100
AcDbEntity
  8
22
 62
256
370
-1
 48
1.0
  6
BYLAYER
100
AcDbLine
 10
3.556
 20
6.2999000000000001
 30
0.0
 11
3.556
 21
5.5118
 31
0.0
  0
LINE
  5
15A
100
AcDbEntity
  8
22
 62
256
370
-1
 48
1.0
  6
BYLAYER
100
AcDbLine
 10
3.6873
 20
5.5118
 30
0.0
 11
3.4245999999999999
 21
5.5118
 31
0.0
  0
LINE
  5
15B
100
AcDbEntity
  8
22
 62
256
370
-1
 48
1.0
  6
BYLAYER
100
AcDbLine
 10
2.5851000000000002
 20
6.2999000000000001
 30
0.0
 11
2.5851000000000002
 21
5.5118
 31
0.0
  0
LINE
  5
15C
100
AcDbEntity
  8
22
 62
256
370
-1
 48
1.0
  6
BYLAYER
100
AcDbLine
 10
2.5851000000000002
 20
5.5118
 30
0.0
 11
2.9790999999999999
 21
5.5118
 31
0.0
  0
LINE
  5
15D
100
AcDbEntity
  8
22
 62
256
370
-1
 48
1.0
  6
BYLAYER
100
AcDbLine
 10
2.9790999999999999
 20
5.5118
 30
0.0
 11
3.1103999999999998
 21
5.6430999999999996
 31
0.0
  0
LINE
  5
15E
100
AcDbEntity
  8
22
 62
256
370
-1
 48
1.0
  6
BYLAYER
100
AcDbLine
 10
3.1103999999999998
 20
5.6430999999999996
 30
0.0
 11
3.1103999999999998
 21
5.9058000000000002
 31
0.0
  0
LINE
  5
15F
100
AcDbEntity
  8
22
 62
256
370
-1
 48
1.0
  6
BYLAYER
100
AcDbLine
 10
3.1103999999999998
 20
5.9058000000000002
 30
0.0
 11
2.9790999999999999
 21
6.0372000000000003
 31
0.0
  0
LINE
  5
160
100
AcDbEntity
  8
22
 62
256
370
-1
 48
1.0
  6
BYLAYER
100
AcDbLine
 10
2.9790999999999999
 20
6.0372000000000003
 30
0.0
 11
2.5851000000000002
 21
6.0372000000000003
 31
0.0
  0
LINE
  5
161
100
AcDbEntity
  8
22
 62
256
370
-1
 48
1.0
  6
BYLAYER
100
AcDbLine
 10
1.851
 20
5.5118
 30
0.0
 11
2.1137000000000001
 21
5.5118
 31
0.0
  0
LINE
  5
162
100
AcDbEntity
  8
22
 62
256
370
-1
 48
1.0
  6
BYLAYER
100
AcDbLine
 10
2.1137000000000001
 20
5.5118
 30
0.0
 11
2.2450999999999999
 21
5.6430999999999996
 31
0.0
  0
LINE
  5
163
100
AcDbEntity
  8
22
 62
256
370
-1
 48
1.0
  6
BYLAYER
100
AcDbLine
 10
2.2450999999999999
 20
5.6430999999999996
 30
0.0
 11
2.2450999999999999
 21
5.9058000000000002
 31
0.0
  0
LINE
  5
164
100
AcDbEntity
  8
22
 62
256
370
-1
 48
1.0
  6
BYLAYER
100
AcDbLine
 10
2.2450999999999999
 20
5.9058000000000002
 30
0.0
 11
2.1137000000000001
 21
6.0372000000000003
 31
0.0
  0
LINE
  5
165
100
AcDbEntity
  8
22
 62
256
370
-1
 48
1.0
  6
BYLAYER
100
AcDbLine
 10
2.1137000000000001
 20
6.0372000000000003
 30
0.0
 11
1.851
 21
6.0372000000000003
 31
0.0
  0
LINE
  5
166
100
AcDbEntity
  8
22
 62
256
370
-1
 48
1.0
  6
BYLAYER
100
AcDbLine
 10
1.851
 20
6.0372000000000003
 30
0.0
 11
1.7197
 21
5.9058000000000002
 31
0.0
  0
LINE
  5
167
100
AcDbEntity
  8
22
 62
256
370
-1
 48
1.0
  6
BYLAYER
100
AcDbLine
 10
1.7197
 20
5.9058000000000002
 30
0.0
 11
1.7197
 21
5.7744999999999997
 31
0.0
  0
LINE
  5
168
100
AcDbEntity
  8
22
 62
256
370
-1
 48
1.0
  6
BYLAYER
100
AcDbLine
 10
1.7197
 20
5.7744999999999997
 30
0.0
 11
2.2450999999999999
 21
5.7744999999999997
 31
0.0
  0
LINE
  5
169
100
AcDbEntity
  8
22
 62
256
370
-1
 48
1.0
  6
BYLAYER
100
AcDbLine
 10
1.3796999999999999
 20
5.5118
 30
0.0
 11
1.3796999999999999
 21
6.0372000000000003
 31
0.0
  0
LINE
  5
16A
100
AcDbEntity
  8
22
 62
256
370
-1
 48
1.0
  6
BYLAYER
100
AcDbLine
 10
1.3796999999999999
 20
5.7744999999999997
 30
0.0
 11
1.117
 21
6.0372000000000003
 31
0.0
  0
LINE
  5
16B
100
AcDbEntity
  8
22
 62
256
370
-1
 48
1.0
  6
BYLAYER
100
AcDbLine
 10
1.117
 20
6.0372000000000003
 30
0.0
 11
0.9857
 21
6.0372000000000003
 31
0.0
  0
LINE
  5
16C
100
AcDbEntity
  8
21
 62
256
370
-1
 48
1.0
  6
BYLAYER
100
AcDbLine
 10
0.6731
 20
20.3969999999999985
 30
0.0
 11
1.9103000000000001
 21
20.3969999999999985
 31
0.0
  0
LINE
  5
16D
100
AcDbEntity
  8
21
 62
256
370
-1
 48
1.0
  6
BYLAYER
100
AcDbLine
 10
1.2917000000000001
 20
21.0155999999999992
 30
0.0
 11
1.2917000000000001
 21
19.7784000000000013
 31
0.0
  0
LINE
  5
16E
100
AcDbEntity
  8
21
 62
256
370
-1
 48
1.0
  6
BYLAYER
100
AcDbLine
 10
26.3271000000000015
 20
20.3969999999999985
 30
0.0
 11
27.5642999999999994
 21
20.3969999999999985
 31
0.0
  0
LINE
  5
16F
100
AcDbEntity
  8
21
 62
256
370
-1
 48
1.0
  6
BYLAYER
100
AcDbLine
 10
26.9456999999999987
 20
21.0155999999999992
 30
0.0
 11
26.9456999999999987
 21
19.7784000000000013
 31
0.0
  0
LINE
  5
170
100
AcDbEntity
  8
22
 62
256
370
-1
 48
1.0
  6
BYLAYER
100
AcDbLine
 10
1.8669
 20
20.3969999999999985
 30
0.0
 11
0.6297
 21
20.3969999999999985
 31
0.0
  0
LINE
  5
171
100
AcDbEntity
  8
22
 62
256
370
-1
 48
1.0
  6
BYLAYER
100
AcDbLine
 10
1.2483
 20
21.0155999999999992
 30
0.0
 11
1.2483
 21
19.7784000000000013
 31
0.0
  0
LINE
  5
172
100
AcDbEntity
  8
22
 62
256
370
-1
 48
1.0
  6
BYLAYER
100
AcDbLine
 10
27.520900000000001
 20
20.3969999999999985
 30
0.0
 11
26.2836999999999996
 21
20.3969999999999985
 31
0.0
  0
LINE
  5
173
100
AcDbEntity
  8
22
 62
256
370
-1
 48
1.0
  6
BYLAYER
100
AcDbLine
 10
26.9023000000000003
 20
21.0155999999999992
 30
0.0
 11
26.9023000000000003
 21
19.7784000000000013
 31
0.0
  0
LINE
  5
174
100
AcDbEntity
  8
21
 62
256
370
-1
 48
1.0
  6
BYLAYER
100
AcDbLine
 10
1.9637
 20
3.7345999999999999
 30
0.0
 11
3.2008999999999999
 21
3.7345999999999999
 31
0.0
  0
LINE
  5
175
100
AcDbEntity
  8
21
 62
256
370
-1
 48
1.0
  6
BYLAYER
100
AcDbLine
 10
25.0777000000000001
 20
3.9885999999999999
 30
0.0
 11
26.3149000000000015
 21
3.9885999999999999
 31
0.0
  0
LINE
  5
176
100
AcDbEntity
  8
22
 62
256
370
-1
 48
1.0
  6
BYLAYER
100
AcDbLine
 10
26.2302999999999997
 20
3.9885999999999999
 30
0.0
 11
24.9930999999999983
 21
3.9885999999999999
 31
0.0
  0
LINE
  5
177
100
AcDbEntity
  8
22
 62
256
370
-1
 48
1.0
  6
BYLAYER
100
AcDbLine
 10
3.1162999999999998
 20
3.7345999999999999
 30
0.0
 11
1.8791
 21
3.7345999999999999
 31
0.0
  0
LINE
  5
178
100
AcDbEntity
  8
21
 62
256
370
-1
 48
1.0
  6
BYLAYER
100
AcDbLine
 10
19.3688000000000002
 20
26.3900000000000006
 30
0.0
 11
19.3688000000000002
 21
26.8899000000000008
 31
0.0
  0
LINE
  5
179
100
AcDbEntity
  8
21
 62
256
370
-1
 48
1.0
  6
BYLAYER
100
AcDbLine
 10
19.3688000000000002
 20
26.8899000000000008
 30
0.0
 11
19.1188000000000002
 21
27.1399000000000008
 31
0.0
  0
LINE
  5
17A
100
AcDbEntity
  8
21
 62
256
370
-1
 48
1.0
  6
BYLAYER
100
AcDbLine
 10
19.1188000000000002
 20
27.1399000000000008
 30
0.0
 11
18.1189
 21
27.1399000000000008
 31
0.0
  0
LINE
  5
17B
100
AcDbEntity
  8
21
 62
256
370
-1
 48
1.0
  6
BYLAYER
100
AcDbLine
 10
18.1189
 20
27.1399000000000008
 30
0.0
 11
17.8689
 21
26.8899000000000008
 31
0.0
  0
LINE
  5
17C
100
AcDbEntity
  8
21
 62
256
370
-1
 48
1.0
  6
BYLAYER
100
AcDbLine
 10
17.8689
 20
26.8899000000000008
 30
0.0
 11
17.8689
 21
26.3900000000000006
 31
0.0
  0
LINE
  5
17D
100
AcDbEntity
  8
21
 62
256
370
-1
 48
1.0
  6
BYLAYER
100
AcDbLine
 10
17.8689
 20
26.3900000000000006
 30
0.0
 11
18.1189
 21
26.1400000000000006
 31
0.0
  0
LINE
  5
17E
100
AcDbEntity
  8
21
 62
256
370
-1
 48
1.0
  6
BYLAYER
100
AcDbLine
 10
18.1189
 20
26.1400000000000006
 30
0.0
 11
19.1188000000000002
 21
26.1400000000000006
 31
0.0
  0
LINE
  5
17F
100
AcDbEntity
  8
21
 62
256
370
-1
 48
1.0
  6
BYLAYER
100
AcDbLine
 10
19.1188000000000002
 20
26.1400000000000006
 30
0.0
 11
19.3688000000000002
 21
26.3900000000000006
 31
0.0
  0
LINE
  5
180
100
AcDbEntity
  8
21
 62
256
370
-1
 48
1.0
  6
BYLAYER
100
AcDbLine
 10
17.8689
 20
25.5027000000000008
 30
0.0
 11
19.3688000000000002
 21
25.5027000000000008
 31
0.0
  0
LINE
  5
181
100
AcDbEntity
  8
21
 62
256
370
-1
 48
1.0
  6
BYLAYER
100
AcDbLine
 10
19.3688000000000002
 20
25.5027000000000008
 30
0.0
 11
17.8689
 21
24.5028000000000006
 31
0.0
  0
LINE
  5
182
100
AcDbEntity
  8
21
 62
256
370
-1
 48
1.0
  6
BYLAYER
100
AcDbLine
 10
17.8689
 20
24.5028000000000006
 30
0.0
 11
19.3688000000000002
 21
24.5028000000000006
 31
0.0
  0
LINE
  5
183
100
AcDbEntity
  8
21
 62
256
370
-1
 48
1.0
  6
BYLAYER
100
AcDbLine
 10
9.6405999999999992
 20
26.9741999999999997
 30
0.0
 11
9.6405999999999992
 21
27.4741
 31
0.0
  0
LINE
  5
184
100
AcDbEntity
  8
21
 62
256
370
-1
 48
1.0
  6
BYLAYER
100
AcDbLine
 10
9.6405999999999992
 20
27.4741
 30
0.0
 11
9.3905999999999992
 21
27.7241
 31
0.0
  0
LINE
  5
185
100
AcDbEntity
  8
21
 62
256
370
-1
 48
1.0
  6
BYLAYER
100
AcDbLine
 10
9.3905999999999992
 20
27.7241
 30
0.0
 11
8.3907000000000007
 21
27.7241
 31
0.0
  0
LINE
  5
186
100
AcDbEntity
  8
21
 62
256
370
-1
 48
1.0
  6
BYLAYER
100
AcDbLine
 10
8.3907000000000007
 20
27.7241
 30
0.0
 11
8.1407000000000007
 21
27.4741
 31
0.0
  0
LINE
  5
187
100
AcDbEntity
  8
21
 62
256
370
-1
 48
1.0
  6
BYLAYER
100
AcDbLine
 10
8.1407000000000007
 20
27.4741
 30
0.0
 11
8.1407000000000007
 21
26.9741999999999997
 31
0.0
  0
LINE
  5
188
100
AcDbEntity
  8
21
 62
256
370
-1
 48
1.0
  6
BYLAYER
100
AcDbLine
 10
8.1407000000000007
 20
26.9741999999999997
 30
0.0
 11
8.3907000000000007
 21
26.7241999999999997
 31
0.0
  0
LINE
  5
189
100
AcDbEntity
  8
21
 62
256
370
-1
 48
1.0
  6
BYLAYER
100
AcDbLine
 10
8.3907000000000007
 20
26.7241999999999997
 30
0.0
 11
9.3905999999999992
 21
26.7241999999999997
 31
0.0
  0
LINE
  5
18A
100
AcDbEntity
  8
21
 62
256
370
-1
 48
1.0
  6
BYLAYER
100
AcDbLine
 10
9.3905999999999992
 20
26.7241999999999997
 30
0.0
 11
9.6405999999999992
 21
26.9741999999999997
 31
0.0
  0
LINE
  5
18B
100
AcDbEntity
  8
21
 62
256
370
-1
 48
1.0
  6
BYLAYER
100
AcDbLine
 10
8.1407000000000007
 20
26.0869
 30
0.0
 11
9.6405999999999992
 21
26.0869
 31
0.0
  0
LINE
  5
18C
100
AcDbEntity
  8
21
 62
256
370
-1
 48
1.0
  6
BYLAYER
100
AcDbLine
 10
9.6405999999999992
 20
26.0869
 30
0.0
 11
9.6405999999999992
 21
25.0869999999999997
 31
0.0
  0
LINE
  5
18D
100
AcDbEntity
  8
21
 62
256
370
-1
 48
1.0
  6
BYLAYER
100
AcDbLine
 10
8.8905999999999992
 20
26.0869
 30
0.0
 11
8.8905999999999992
 21
25.5869999999999997
 31
0.0
  0
LINE
  5
18E
100
AcDbEntity
  8
21
 62
256
370
-1
 48
1.0
  6
BYLAYER
100
AcDbLine
 10
8.1407000000000007
 20
24.4497999999999998
 30
0.0
 11
9.6405999999999992
 21
24.4497999999999998
 31
0.0
  0
LINE
  5
18F
100
AcDbEntity
  8
21
 62
256
370
-1
 48
1.0
  6
BYLAYER
100
AcDbLine
 10
9.6405999999999992
 20
24.4497999999999998
 30
0.0
 11
9.6405999999999992
 21
23.4498999999999995
 31
0.0
  0
LINE
  5
190
100
AcDbEntity
  8
21
 62
256
370
-1
 48
1.0
  6
BYLAYER
100
AcDbLine
 10
8.8905999999999992
 20
24.4497999999999998
 30
0.0
 11
8.8905999999999992
 21
23.9497999999999998
 31
0.0
  0
CIRCLE
  5
191
100
AcDbEntity
  8
20
 62
256
370
-1
 48
1.0
  6
BYLAYER
100
AcDbCircle
 10
12.2159999999999993
 20
25.6285999999999987
 30
0.0
 40
0.425
  0
CIRCLE
  5
192
100
AcDbEntity
  8
20
 62
256
370
-1
 48
1.0
  6
BYLAYER
100
AcDbCircle
 10
15.2159999999999993
 20
25.6285999999999987
 30
0.0
 40
0.425
  0
CIRCLE
  5
193
100
AcDbEntity
  8
20
 62
256
370
-1
 48
1.0
  6
BYLAYER
100
AcDbCircle
 10
12.2159999999999993
 20
25.6285999999999987
 30
0.0
 40
0.425
  0
CIRCLE
  5
194
100
AcDbEntity
  8
20
 62
256
370
-1
 48
1.0
  6
BYLAYER
100
AcDbCircle
 10
15.2159999999999993
 20
25.6285999999999987
 30
0.0
 40
0.425
  0
INSERT
  5
195
100
AcDbEntity
  8
21
 62
256
370
-1
 48
1.0
  6
BYLAYER
100
AcDbBlockReference
  2
RECT
 10
13.7159999999999993
 20
27.0509999999999984
 30
0.0
 41
1.524
 42
0.762
 43
1.0
  0
LINE
  5
196
100
AcDbEntity
  8
21
 62
256
370
-1
 48
1.0
  6
BYLAYER
100
AcDbLine
 10
6.2160000000000002
 20
18.2719999999999985
 30
0.0
 11
21.2160000000000011
 21
18.2719999999999985
 31
0.0
  0
LINE
  5
197
100
AcDbEntity
  8
21
 62
256
370
-1
 48
1.0
  6
BYLAYER
100
AcDbLine
 10
6.2160000000000002
 20
18.2719999999999985
 30
0.0
 11
3.1659999999999999
 21
15.5719999999999992
 31
0.0
  0
LINE
  5
198
100
AcDbEntity
  8
21
 62
256
370
-1
 48
1.0
  6
BYLAYER
100
AcDbLine
 10
21.2160000000000011
 20
18.2719999999999985
 30
0.0
 11
24.2659999999999982
 21
15.5719999999999992
 31
0.0
  0
LINE
  5
199
100
AcDbEntity
  8
51
 62
256
370
-1
 48
1.0
  6
BYLAYER
100
AcDbLine
 10
24.2659999999999982
 20
13.4719999999999995
 30
0.0
 11
24.2659999999999982
 21
11.4719999999999995
 31
0.0
  0
LINE
  5
19A
100
AcDbEntity
  8
51
 62
256
370
-1
 48
1.0
  6
BYLAYER
100
AcDbLine
 10
24.2659999999999982
 20
10.3719999999999999
 30
0.0
 11
24.2659999999999982
 21
8.3719999999999999
 31
0.0
  0
LINE
  5
19B
100
AcDbEntity
  8
51
 62
256
370
-1
 48
1.0
  6
BYLAYER
100
AcDbLine
 10
3.1659999999999999
 20
13.4719999999999995
 30
0.0
 11
3.1659999999999999
 21
11.4719999999999995
 31
0.0
  0
LINE
  5
19C
100
AcDbEntity
  8
51
 62
256
370
-1
 48
1.0
  6
BYLAYER
100
AcDbLine
 10
3.1659999999999999
 20
10.3719999999999999
 30
0.0
 11
3.1659999999999999
 21
8.3719999999999999
 31
0.0
  0
LINE
  5
19D
100
AcDbEntity
  8
51
 62
256
370
-1
 48
1.0
  6
BYLAYER
100
AcDbLine
 10
24.2659999999999982
 20
13.4719999999999995
 30
0.0
 11
25.1660000000000004
 21
13.4719999999999995
 31
0.0
  0
LINE
  5
19E
100
AcDbEntity
  8
51
 62
256
370
-1
 48
1.0
  6
BYLAYER
100
AcDbLine
 10
25.1660000000000004
 20
13.4719999999999995
 30
0.0
 11
25.1660000000000004
 21
11.4719999999999995
 31
0.0
  0
LINE
  5
19F
100
AcDbEntity
  8
51
 62
256
370
-1
 48
1.0
  6
BYLAYER
100
AcDbLine
 10
25.1660000000000004
 20
11.4719999999999995
 30
0.0
 11
24.2659999999999982
 21
11.4719999999999995
 31
0.0
  0
LINE
  5
1A0
100
AcDbEntity
  8
51
 62
256
370
-1
 48
1.0
  6
BYLAYER
100
AcDbLine
 10
24.2659999999999982
 20
10.3719999999999999
 30
0.0
 11
25.1660000000000004
 21
10.3719999999999999
 31
0.0
  0
LINE
  5
1A1
100
AcDbEntity
  8
51
 62
256
370
-1
 48
1.0
  6
BYLAYER
100
AcDbLine
 10
25.1660000000000004
 20
10.3719999999999999
 30
0.0
 11
25.1660000000000004
 21
8.3719999999999999
 31
0.0
  0
LINE
  5
1A2
100
AcDbEntity
  8
51
 62
256
370
-1
 48
1.0
  6
BYLAYER
100
AcDbLine
 10
25.1660000000000004
 20
8.3719999999999999
 30
0.0
 11
24.2659999999999982
 21
8.3719999999999999
 31
0.0
  0
LINE
  5
1A3
100
AcDbEntity
  8
51
 62
256
370
-1
 48
1.0
  6
BYLAYER
100
AcDbLine
 10
3.1659999999999999
 20
8.3719999999999999
 30
0.0
 11
2.266
 21
8.3719999999999999
 31
0.0
  0
LINE
  5
1A4
100
AcDbEntity
  8
51
 62
256
370
-1
 48
1.0
  6
BYLAYER
100
AcDbLine
 10
2.266
 20
8.3719999999999999
 30
0.0
 11
2.266
 21
10.3719999999999999
 31
0.0
  0
LINE
  5
1A5
100
AcDbEntity
  8
51
 62
256
370
-1
 48
1.0
  6
BYLAYER
100
AcDbLine
 10
2.266
 20
10.3719999999999999
 30
0.0
 11
3.1659999999999999
 21
10.3719999999999999
 31
0.0
  0
LINE
  5
1A6
100
AcDbEntity
  8
51
 62
256
370
-1
 48
1.0
  6
BYLAYER
100
AcDbLine
 10
3.1659999999999999
 20
11.4719999999999995
 30
0.0
 11
2.266
 21
11.4719999999999995
 31
0.0
  0
LINE
  5
1A7
100
AcDbEntity
  8
51
 62
256
370
-1
 48
1.0
  6
BYLAYER
100
AcDbLine
 10
2.266
 20
11.4719999999999995
 30
0.0
 11
2.266
 21
13.4719999999999995
 31
0.0
  0
LINE
  5
1A8
100
AcDbEntity
  8
51
 62
256
370
-1
 48
1.0
  6
BYLAYER
100
AcDbLine
 10
2.266
 20
13.4719999999999995
 30
0.0
 11
3.1659999999999999
 21
13.4719999999999995
 31
0.0
  0
LINE
  5
1A9
100
AcDbEntity
  8
21
 62
256
370
-1
 48
1.0
  6
BYLAYER
100
AcDbLine
 10
24.2659999999999982
 20
6.3719999999999999
 30
0.0
 11
19.2659999999999982
 21
2.972
 31
0.0
  0
ARC
  5
1AA
100
AcDbEntity
  8
21
 62
256
370
-1
 48
1.0
  6
BYLAYER
100
AcDbCircle
 10
13.7159999999999993
 20
-6.1893000000000002
 30
0.0
 40
10.7112999999999996
100
AcDbArc
 50
58.7921000000000049
 51
121.2078999999999951
  0
LINE
  5
1AB
100
AcDbEntity
  8
21
 62
256
370
-1
 48
1.0
  6
BYLAYER
100
AcDbLine
 10
8.1660000000000004
 20
2.972
 30
0.0
 11
3.1659999999999999
 21
6.3719999999999999
 31
0.0
  0
LINE
  5
1AC
100
AcDbEntity
  8
21
 62
256
370
-1
 48
1.0
  6
BYLAYER
100
AcDbLine
 10
24.2659999999999982
 20
15.5719999999999992
 30
0.0
 11
24.2659999999999982
 21
14.1219999999999999
 31
0.0
  0
LINE
  5
1AD
100
AcDbEntity
  8
21
 62
256
370
-1
 48
1.0
  6
BYLAYER
100
AcDbLine
 10
3.1659999999999999
 20
14.1219999999999999
 30
0.0
 11
3.1659999999999999
 21
15.5719999999999992
 31
0.0
  0
LINE
  5
1AE
100
AcDbEntity
  8
21
 62
256
370
-1
 48
1.0
  6
BYLAYER
100
AcDbLine
 10
3.1659999999999999
 20
6.3719999999999999
 30
0.0
 11
3.1659999999999999
 21
7.7220000000000004
 31
0.0
  0
LINE
  5
1AF
100
AcDbEntity
  8
21
 62
256
370
-1
 48
1.0
  6
BYLAYER
100
AcDbLine
 10
24.2659999999999982
 20
6.3719999999999999
 30
0.0
 11
24.2659999999999982
 21
7.7220000000000004
 31
0.0
  0
CIRCLE
  5
1B0
100
AcDbEntity
  8
51
 62
256
370
-1
 48
1.0
  6
BYLAYER
100
AcDbCircle
 10
13.7159999999999993
 20
10.9220000000000006
 30
0.0
 40
10.0
  0
INSERT
  5
1B1
100
AcDbEntity
  8
17
 62
256
370
-1
 48
1.0
  6
BYLAYER
100
AcDbBlockReference
  2
ROUNDP
 10
5.2577999999999996
 20
2.032
 30
0.0
 41
3.2160000000000002
 42
3.2160000000000002
 43
1.0
 50
90.0
  0
INSERT
  5
1B2
100
AcDbEntity
  8
17
 62
256
370
-1
 48
1.0
  6
BYLAYER
100
AcDbBlockReference
  2
ROUNDP
 10
5.2577999999999996
 20
2.032
 30
0.0
 41
3.2160000000000002
 42
3.2160000000000002
 43
1.0
 50
90.0
  0
INSERT
  5
1B3
100
AcDbEntity
  8
17
 62
256
370
-1
 48
1.0
  6
BYLAYER
100
AcDbBlockReference
  2
ROUNDP
 10
22.8854000000000006
 20
2.032
 30
0.0
 41
3.2160000000000002
 42
3.2160000000000002
 43
1.0
 50
90.0
  0
INSERT
  5
1B4
100
AcDbEntity
  8
17
 62
256
370
-1
 48
1.0
  6
BYLAYER
100
AcDbBlockReference
  2
ROUNDP
 10
22.8854000000000006
 20
2.032
 30
0.0
 41
3.2160000000000002
 42
3.2160000000000002
 43
1.0
 50
90.0
  0
INSERT
  5
1B5
100
AcDbEntity
  8
17
 62
256
370
-1
 48
1.0
  6
BYLAYER
100
AcDbBlockReference
  2
ROUNDP
 10
3.302
 20
22.8599999999999994
 30
0.0
 41
3.2160000000000002
 42
3.2160000000000002
 43
1.0
 50
335.0
  0
INSERT
  5
1B6
100
AcDbEntity
  8
17
 62
256
370
-1
 48
1.0
  6
BYLAYER
100
AcDbBlockReference
  2
ROUNDP
 10
3.302
 20
22.8599999999999994
 30
0.0
 41
3.2160000000000002
 42
3.2160000000000002
 43
1.0
 50
335.0
  0
INSERT
  5
1B7
100
AcDbEntity
  8
17
 62
256
370
-1
 48
1.0
  6
BYLAYER
100
AcDbBlockReference
  2
ROUNDP
 10
24.3078000000000003
 20
22.8599999999999994
 30
0.0
 41
3.2160000000000002
 42
3.2160000000000002
 43
1.0
 50
205.0
  0
INSERT
  5
1B8
100
AcDbEntity
  8
17
 62
256
370
-1
 48
1.0
  6
BYLAYER
100
AcDbBlockReference
  2
ROUNDP
 10
24.3078000000000003
 20
22.8599999999999994
 30
0.0
 41
3.2160000000000002
 42
3.2160000000000002
 43
1.0
 50
205.0
  0
LINE
  5
1B9
100
AcDbEntity
  8
22
 62
256
370
-1
 48
1.0
  6
BYLAYER
100
AcDbLine
 10
7.5709999999999997
 20
26.9248000000000012
 30
0.0
 11
7.5709999999999997
 21
26.8348000000000013
 31
0.0
  0
LINE
  5
1BA
100
AcDbEntity
  8
22
 62
256
370
-1
 48
1.0
  6
BYLAYER
100
AcDbLine
 10
7.5709999999999997
 20
26.8348000000000013
 30
0.0
 11
7.5810000000000004
 21
26.8048000000000002
 31
0.0
  0
LINE
  5
1BB
100
AcDbEntity
  8
22
 62
256
370
-1
 48
1.0
  6
BYLAYER
100
AcDbLine
 10
7.5810000000000004
 20
26.8048000000000002
 30
0.0
 11
7.5910000000000002
 21
26.7848000000000006
 31
0.0
  0
LINE
  5
1BC
100
AcDbEntity
  8
22
 62
256
370
-1
 48
1.0
  6
BYLAYER
100
AcDbLine
 10
7.5910000000000002
 20
26.7848000000000006
 30
0.0
 11
7.6210000000000004
 21
26.7547999999999995
 31
0.0
  0
LINE
  5
1BD
100
AcDbEntity
  8
22
 62
256
370
-1
 48
1.0
  6
BYLAYER
100
AcDbLine
 10
7.6210000000000004
 20
26.7547999999999995
 30
0.0
 11
7.6509999999999998
 21
26.7448000000000015
 31
0.0
  0
LINE
  5
1BE
100
AcDbEntity
  8
22
 62
256
370
-1
 48
1.0
  6
BYLAYER
100
AcDbLine
 10
7.6509999999999998
 20
26.7448000000000015
 30
0.0
 11
7.681
 21
26.7448000000000015
 31
0.0
  0
LINE
  5
1BF
100
AcDbEntity
  8
22
 62
256
370
-1
 48
1.0
  6
BYLAYER
100
AcDbLine
 10
7.681
 20
26.7448000000000015
 30
0.0
 11
7.7610000000000001
 21
26.764800000000001
 31
0.0
  0
LINE
  5
1C0
100
AcDbEntity
  8
22
 62
256
370
-1
 48
1.0
  6
BYLAYER
100
AcDbLine
 10
7.7610000000000001
 20
26.764800000000001
 30
0.0
 11
7.8010000000000002
 21
26.7848000000000006
 31
0.0
  0
LINE
  5
1C1
100
AcDbEntity
  8
22
 62
256
370
-1
 48
1.0
  6
BYLAYER
100
AcDbLine
 10
7.8010000000000002
 20
26.7848000000000006
 30
0.0
 11
7.8310000000000004
 21
26.8048000000000002
 31
0.0
  0
LINE
  5
1C2
100
AcDbEntity
  8
22
 62
256
370
-1
 48
1.0
  6
BYLAYER
100
AcDbLine
 10
7.8310000000000004
 20
26.8048000000000002
 30
0.0
 11
7.8710000000000004
 21
26.8348000000000013
 31
0.0
  0
LINE
  5
1C3
100
AcDbEntity
  8
22
 62
256
370
-1
 48
1.0
  6
BYLAYER
100
AcDbLine
 10
7.8710000000000004
 20
26.8348000000000013
 30
0.0
 11
7.931
 21
26.8948
 31
0.0
  0
LINE
  5
1C4
100
AcDbEntity
  8
22
 62
256
370
-1
 48
1.0
  6
BYLAYER
100
AcDbLine
 10
7.931
 20
26.8948
 30
0.0
 11
7.9710000000000001
 21
26.9547999999999988
 31
0.0
  0
LINE
  5
1C5
100
AcDbEntity
  8
22
 62
256
370
-1
 48
1.0
  6
BYLAYER
100
AcDbLine
 10
7.9710000000000001
 20
26.9547999999999988
 30
0.0
 11
7.9809999999999999
 21
26.9948000000000015
 31
0.0
  0
LINE
  5
1C6
100
AcDbEntity
  8
22
 62
256
370
-1
 48
1.0
  6
BYLAYER
100
AcDbLine
 10
7.9809999999999999
 20
26.9948000000000015
 30
0.0
 11
7.9809999999999999
 21
27.0548000000000002
 31
0.0
  0
LINE
  5
1C7
100
AcDbEntity
  8
22
 62
256
370
-1
 48
1.0
  6
BYLAYER
100
AcDbLine
 10
7.9809999999999999
 20
27.0548000000000002
 30
0.0
 11
7.9710000000000001
 21
27.0848000000000013
 31
0.0
  0
LINE
  5
1C8
100
AcDbEntity
  8
22
 62
256
370
-1
 48
1.0
  6
BYLAYER
100
AcDbLine
 10
7.9710000000000001
 20
27.0848000000000013
 30
0.0
 11
7.9610000000000003
 21
27.1048000000000009
 31
0.0
  0
LINE
  5
1C9
100
AcDbEntity
  8
22
 62
256
370
-1
 48
1.0
  6
BYLAYER
100
AcDbLine
 10
7.9610000000000003
 20
27.1048000000000009
 30
0.0
 11
7.9409999999999998
 21
27.1347999999999985
 31
0.0
  0
LINE
  5
1CA
100
AcDbEntity
  8
22
 62
256
370
-1
 48
1.0
  6
BYLAYER
100
AcDbLine
 10
7.9409999999999998
 20
27.1347999999999985
 30
0.0
 11
7.9009999999999998
 21
27.1647999999999996
 31
0.0
  0
LINE
  5
1CB
100
AcDbEntity
  8
22
 62
256
370
-1
 48
1.0
  6
BYLAYER
100
AcDbLine
 10
7.9009999999999998
 20
27.1647999999999996
 30
0.0
 11
7.8609999999999998
 21
27.1847999999999992
 31
0.0
  0
LINE
  5
1CC
100
AcDbEntity
  8
22
 62
256
370
-1
 48
1.0
  6
BYLAYER
100
AcDbLine
 10
7.8609999999999998
 20
27.1847999999999992
 30
0.0
 11
7.8109999999999999
 21
27.1948000000000008
 31
0.0
  0
LINE
  5
1CD
100
AcDbEntity
  8
22
 62
256
370
-1
 48
1.0
  6
BYLAYER
100
AcDbLine
 10
7.8109999999999999
 20
27.1948000000000008
 30
0.0
 11
7.7709999999999999
 21
27.2047999999999988
 31
0.0
  0
LINE
  5
1CE
100
AcDbEntity
  8
22
 62
256
370
-1
 48
1.0
  6
BYLAYER
100
AcDbLine
 10
7.7709999999999999
 20
27.2047999999999988
 30
0.0
 11
7.7110000000000003
 21
27.2047999999999988
 31
0.0
  0
LINE
  5
1CF
100
AcDbEntity
  8
22
 62
256
370
-1
 48
1.0
  6
BYLAYER
100
AcDbLine
 10
7.7110000000000003
 20
27.2047999999999988
 30
0.0
 11
7.6909999999999998
 21
27.1948000000000008
 31
0.0
  0
LINE
  5
1D0
100
AcDbEntity
  8
22
 62
256
370
-1
 48
1.0
  6
BYLAYER
100
AcDbLine
 10
7.6909999999999998
 20
27.1948000000000008
 30
0.0
 11
7.681
 21
27.1948000000000008
 31
0.0
  0
LINE
  5
1D1
100
AcDbEntity
  8
22
 62
256
370
-1
 48
1.0
  6
BYLAYER
100
AcDbLine
 10
7.681
 20
27.1948000000000008
 30
0.0
 11
7.6909999999999998
 21
27.2047999999999988
 31
0.0
  0
LINE
  5
1D2
100
AcDbEntity
  8
22
 62
256
370
-1
 48
1.0
  6
BYLAYER
100
AcDbLine
 10
7.6909999999999998
 20
27.2047999999999988
 30
0.0
 11
7.7309999999999999
 21
27.2347999999999999
 31
0.0
  0
LINE
  5
1D3
100
AcDbEntity
  8
22
 62
256
370
-1
 48
1.0
  6
BYLAYER
100
AcDbLine
 10
7.7309999999999999
 20
27.2347999999999999
 30
0.0
 11
7.8710000000000004
 21
27.3048000000000002
 31
0.0
  0
LINE
  5
1D4
100
AcDbEntity
  8
22
 62
256
370
-1
 48
1.0
  6
BYLAYER
100
AcDbLine
 10
7.8710000000000004
 20
27.3048000000000002
 30
0.0
 11
7.9610000000000003
 21
27.3247999999999998
 31
0.0
  0
LINE
  5
1D5
100
AcDbEntity
  8
22
 62
256
370
-1
 48
1.0
  6
BYLAYER
100
AcDbLine
 10
7.9610000000000003
 20
27.3247999999999998
 30
0.0
 11
8.0609999999999999
 21
27.3247999999999998
 31
0.0
  0
LINE
  5
1D6
100
AcDbEntity
  8
22
 62
256
370
-1
 48
1.0
  6
BYLAYER
100
AcDbLine
 10
8.0609999999999999
 20
27.3247999999999998
 30
0.0
 11
8.1709999999999994
 21
27.3048000000000002
 31
0.0
  0
LINE
  5
1D7
100
AcDbEntity
  8
22
 62
256
370
-1
 48
1.0
  6
BYLAYER
100
AcDbLine
 10
8.1709999999999994
 20
27.3048000000000002
 30
0.0
 11
8.2810000000000006
 21
27.2448000000000015
 31
0.0
  0
LINE
  5
1D8
100
AcDbEntity
  8
22
 62
256
370
-1
 48
1.0
  6
BYLAYER
100
AcDbLine
 10
8.2810000000000006
 20
27.2448000000000015
 30
0.0
 11
8.3710000000000004
 21
27.1748000000000012
 31
0.0
  0
LINE
  5
1D9
100
AcDbEntity
  8
22
 62
256
370
-1
 48
1.0
  6
BYLAYER
100
AcDbLine
 10
8.3710000000000004
 20
27.1748000000000012
 30
0.0
 11
8.4209999999999994
 21
27.0947999999999993
 31
0.0
  0
LINE
  5
1DA
100
AcDbEntity
  8
22
 62
256
370
-1
 48
1.0
  6
BYLAYER
100
AcDbLine
 10
8.4209999999999994
 20
27.0947999999999993
 30
0.0
 11
8.4510000000000005
 21
27.0047999999999995
 31
0.0
  0
LINE
  5
1DB
100
AcDbEntity
  8
22
 62
256
370
-1
 48
1.0
  6
BYLAYER
100
AcDbLine
 10
8.4510000000000005
 20
27.0047999999999995
 30
0.0
 11
8.4510000000000005
 21
26.9248000000000012
 31
0.0
  0
LINE
  5
1DC
100
AcDbEntity
  8
22
 62
256
370
-1
 48
1.0
  6
BYLAYER
100
AcDbLine
 10
8.4510000000000005
 20
26.9248000000000012
 30
0.0
 11
8.4309999999999992
 21
26.8348000000000013
 31
0.0
  0
LINE
  5
1DD
100
AcDbEntity
  8
22
 62
256
370
-1
 48
1.0
  6
BYLAYER
100
AcDbLine
 10
8.4309999999999992
 20
26.8348000000000013
 30
0.0
 11
8.3810000000000002
 21
26.7448000000000015
 31
0.0
  0
LINE
  5
1DE
100
AcDbEntity
  8
22
 62
256
370
-1
 48
1.0
  6
BYLAYER
100
AcDbLine
 10
8.3810000000000002
 20
26.7448000000000015
 30
0.0
 11
8.3109999999999999
 21
26.6647999999999996
 31
0.0
  0
LINE
  5
1DF
100
AcDbEntity
  8
22
 62
256
370
-1
 48
1.0
  6
BYLAYER
100
AcDbLine
 10
8.3109999999999999
 20
26.6647999999999996
 30
0.0
 11
8.2309999999999999
 21
26.5747999999999998
 31
0.0
  0
LINE
  5
1E0
100
AcDbEntity
  8
22
 62
256
370
-1
 48
1.0
  6
BYLAYER
100
AcDbLine
 10
8.2309999999999999
 20
26.5747999999999998
 30
0.0
 11
8.1609999999999996
 21
26.5047999999999995
 31
0.0
  0
LINE
  5
1E1
100
AcDbEntity
  8
22
 62
256
370
-1
 48
1.0
  6
BYLAYER
100
AcDbLine
 10
8.1609999999999996
 20
26.5047999999999995
 30
0.0
 11
8.1310000000000002
 21
26.4248000000000012
 31
0.0
  0
LINE
  5
1E2
100
AcDbEntity
  8
22
 62
256
370
-1
 48
1.0
  6
BYLAYER
100
AcDbLine
 10
8.1310000000000002
 20
26.4248000000000012
 30
0.0
 11
8.1310000000000002
 21
26.3548000000000009
 31
0.0
  0
LINE
  5
1E3
100
AcDbEntity
  8
22
 62
256
370
-1
 48
1.0
  6
BYLAYER
100
AcDbLine
 10
8.1310000000000002
 20
26.3548000000000009
 30
0.0
 11
8.1509999999999998
 21
26.2947999999999986
 31
0.0
  0
LINE
  5
1E4
100
AcDbEntity
  8
22
 62
256
370
-1
 48
1.0
  6
BYLAYER
100
AcDbLine
 10
8.1509999999999998
 20
26.2947999999999986
 30
0.0
 11
8.1910000000000007
 21
26.2448000000000015
 31
0.0
  0
LINE
  5
1E5
100
AcDbEntity
  8
22
 62
256
370
-1
 48
1.0
  6
BYLAYER
100
AcDbLine
 10
8.1910000000000007
 20
26.2448000000000015
 30
0.0
 11
8.2509999999999994
 21
26.2047999999999988
 31
0.0
  0
LINE
  5
1E6
100
AcDbEntity
  8
22
 62
256
370
-1
 48
1.0
  6
BYLAYER
100
AcDbLine
 10
8.2509999999999994
 20
26.2047999999999988
 30
0.0
 11
8.3309999999999995
 21
26.1847999999999992
 31
0.0
  0
LINE
  5
1E7
100
AcDbEntity
  8
22
 62
256
370
-1
 48
1.0
  6
BYLAYER
100
AcDbLine
 10
8.3309999999999995
 20
26.1847999999999992
 30
0.0
 11
8.4109999999999996
 21
26.1847999999999992
 31
0.0
  0
LINE
  5
1E8
100
AcDbEntity
  8
22
 62
256
370
-1
 48
1.0
  6
BYLAYER
100
AcDbLine
 10
8.4109999999999996
 20
26.1847999999999992
 30
0.0
 11
8.4610000000000003
 21
26.1948000000000008
 31
0.0
  0
LINE
  5
1E9
100
AcDbEntity
  8
22
 62
256
370
-1
 48
1.0
  6
BYLAYER
100
AcDbLine
 10
8.4610000000000003
 20
26.1948000000000008
 30
0.0
 11
8.5109999999999992
 21
26.2148000000000003
 31
0.0
  0
LINE
  5
1EA
100
AcDbEntity
  8
22
 62
256
370
-1
 48
1.0
  6
BYLAYER
100
AcDbLine
 10
8.5109999999999992
 20
26.2148000000000003
 30
0.0
 11
8.5709999999999997
 21
26.274799999999999
 31
0.0
  0
LINE
  5
1EB
100
AcDbEntity
  8
22
 62
256
370
-1
 48
1.0
  6
BYLAYER
100
AcDbLine
 10
8.5709999999999997
 20
26.274799999999999
 30
0.0
 11
8.5909999999999993
 21
26.3048000000000002
 31
0.0
  0
LINE
  5
1EC
100
AcDbEntity
  8
22
 62
256
370
-1
 48
1.0
  6
BYLAYER
100
AcDbLine
 10
8.5909999999999993
 20
26.3048000000000002
 30
0.0
 11
8.6010000000000009
 21
26.3348000000000013
 31
0.0
  0
LINE
  5
1ED
100
AcDbEntity
  8
22
 62
256
370
-1
 48
1.0
  6
BYLAYER
100
AcDbLine
 10
8.6010000000000009
 20
26.3348000000000013
 30
0.0
 11
8.6010000000000009
 21
26.3748000000000005
 31
0.0
  0
LINE
  5
1EE
100
AcDbEntity
  8
22
 62
256
370
-1
 48
1.0
  6
BYLAYER
100
AcDbLine
 10
8.6010000000000009
 20
26.3748000000000005
 30
0.0
 11
8.5909999999999993
 21
26.4048000000000016
 31
0.0
  0
LINE
  5
1EF
100
AcDbEntity
  8
22
 62
256
370
-1
 48
1.0
  6
BYLAYER
100
AcDbLine
 10
8.5909999999999993
 20
26.4048000000000016
 30
0.0
 11
8.5310000000000006
 21
26.4648000000000003
 31
0.0
  0
LINE
  5
1F0
100
AcDbEntity
  8
22
 62
256
370
-1
 48
1.0
  6
BYLAYER
100
AcDbLine
 10
8.5310000000000006
 20
26.4648000000000003
 30
0.0
 11
8.5009999999999994
 21
26.4747999999999983
 31
0.0
  0
LINE
  5
1F1
100
AcDbEntity
  8
22
 62
256
370
-1
 48
1.0
  6
BYLAYER
100
AcDbLine
 10
8.5009999999999994
 20
26.4747999999999983
 30
0.0
 11
8.4610000000000003
 21
26.4948000000000015
 31
0.0
  0
LINE
  5
1F2
100
AcDbEntity
  8
22
 62
256
370
-1
 48
1.0
  6
BYLAYER
100
AcDbLine
 10
8.4610000000000003
 20
26.4948000000000015
 30
0.0
 11
8.4510000000000005
 21
26.5047999999999995
 31
0.0
  0
LINE
  5
1F3
100
AcDbEntity
  8
22
 62
256
370
-1
 48
1.0
  6
BYLAYER
100
AcDbLine
 10
8.4510000000000005
 20
26.5047999999999995
 30
0.0
 11
8.4909999999999997
 21
26.524799999999999
 31
0.0
  0
LINE
  5
1F4
100
AcDbEntity
  8
22
 62
256
370
-1
 48
1.0
  6
BYLAYER
100
AcDbLine
 10
8.4909999999999997
 20
26.524799999999999
 30
0.0
 11
8.6110000000000007
 21
26.524799999999999
 31
0.0
  0
LINE
  5
1F5
100
AcDbEntity
  8
22
 62
256
370
-1
 48
1.0
  6
BYLAYER
100
AcDbLine
 10
8.6110000000000007
 20
26.524799999999999
 30
0.0
 11
8.6709999999999994
 21
26.514800000000001
 31
0.0
  0
LINE
  5
1F6
100
AcDbEntity
  8
22
 62
256
370
-1
 48
1.0
  6
BYLAYER
100
AcDbLine
 10
8.6709999999999994
 20
26.514800000000001
 30
0.0
 11
8.7210000000000001
 21
26.5047999999999995
 31
0.0
  0
LINE
  5
1F7
100
AcDbEntity
  8
22
 62
256
370
-1
 48
1.0
  6
BYLAYER
100
AcDbLine
 10
8.7210000000000001
 20
26.5047999999999995
 30
0.0
 11
8.7710000000000008
 21
26.4847999999999999
 31
0.0
  0
LINE
  5
1F8
100
AcDbEntity
  8
22
 62
256
370
-1
 48
1.0
  6
BYLAYER
100
AcDbLine
 10
8.7710000000000008
 20
26.4847999999999999
 30
0.0
 11
8.8109999999999999
 21
26.4547999999999988
 31
0.0
  0
LINE
  5
1F9
100
AcDbEntity
  8
22
 62
256
370
-1
 48
1.0
  6
BYLAYER
100
AcDbLine
 10
8.8109999999999999
 20
26.4547999999999988
 30
0.0
 11
8.8610000000000007
 21
26.4147999999999996
 31
0.0
  0
LINE
  5
1FA
100
AcDbEntity
  8
22
 62
256
370
-1
 48
1.0
  6
BYLAYER
100
AcDbLine
 10
8.8610000000000007
 20
26.4147999999999996
 30
0.0
 11
8.9209999999999994
 21
26.3148000000000017
 31
0.0
  0
LINE
  5
1FB
100
AcDbEntity
  8
22
 62
256
370
-1
 48
1.0
  6
BYLAYER
100
AcDbLine
 10
8.9209999999999994
 20
26.3148000000000017
 30
0.0
 11
8.9410000000000007
 21
26.2448000000000015
 31
0.0
  0
LINE
  5
1FC
100
AcDbEntity
  8
22
 62
256
370
-1
 48
1.0
  6
BYLAYER
100
AcDbLine
 10
8.9410000000000007
 20
26.2448000000000015
 30
0.0
 11
8.9510000000000005
 21
26.1647999999999996
 31
0.0
  0
LINE
  5
1FD
100
AcDbEntity
  8
22
 62
256
370
-1
 48
1.0
  6
BYLAYER
100
AcDbLine
 10
8.9510000000000005
 20
26.1647999999999996
 30
0.0
 11
8.9510000000000005
 21
24.7947999999999986
 31
0.0
  0
LINE
  5
1FE
100
AcDbEntity
  8
22
 62
256
370
-1
 48
1.0
  6
BYLAYER
100
AcDbLine
 10
8.9510000000000005
 20
24.7947999999999986
 30
0.0
 11
8.9009999999999998
 21
24.8447999999999993
 31
0.0
  0
LINE
  5
1FF
100
AcDbEntity
  8
22
 62
256
370
-1
 48
1.0
  6
BYLAYER
100
AcDbLine
 10
8.9009999999999998
 20
24.8447999999999993
 30
0.0
 11
8.8710000000000004
 21
24.8948
 31
0.0
  0
LINE
  5
200
100
AcDbEntity
  8
22
 62
256
370
-1
 48
1.0
  6
BYLAYER
100
AcDbLine
 10
8.8710000000000004
 20
24.8948
 30
0.0
 11
8.8209999999999997
 21
24.9448000000000008
 31
0.0
  0
LINE
  5
201
100
AcDbEntity
  8
22
 62
256
370
-1
 48
1.0
  6
BYLAYER
100
AcDbLine
 10
8.8209999999999997
 20
24.9448000000000008
 30
0.0
 11
8.7710000000000008
 21
25.0047999999999995
 31
0.0
  0
LINE
  5
202
100
AcDbEntity
  8
22
 62
256
370
-1
 48
1.0
  6
BYLAYER
100
AcDbLine
 10
8.7710000000000008
 20
25.0047999999999995
 30
0.0
 11
8.6509999999999998
 21
25.1248000000000005
 31
0.0
  0
LINE
  5
203
100
AcDbEntity
  8
22
 62
256
370
-1
 48
1.0
  6
BYLAYER
100
AcDbLine
 10
8.6509999999999998
 20
25.1248000000000005
 30
0.0
 11
8.5310000000000006
 21
25.264800000000001
 31
0.0
  0
LINE
  5
204
100
AcDbEntity
  8
22
 62
256
370
-1
 48
1.0
  6
BYLAYER
100
AcDbLine
 10
8.5310000000000006
 20
25.264800000000001
 30
0.0
 11
8.4309999999999992
 21
25.3647999999999989
 31
0.0
  0
LINE
  5
205
100
AcDbEntity
  8
22
 62
256
370
-1
 48
1.0
  6
BYLAYER
100
AcDbLine
 10
8.4309999999999992
 20
25.3647999999999989
 30
0.0
 11
8.3309999999999995
 21
25.4248000000000012
 31
0.0
  0
LINE
  5
206
100
AcDbEntity
  8
22
 62
256
370
-1
 48
1.0
  6
BYLAYER
100
AcDbLine
 10
8.3309999999999995
 20
25.4248000000000012
 30
0.0
 11
8.2710000000000008
 21
25.4347999999999992
 31
0.0
  0
LINE
  5
207
100
AcDbEntity
  8
22
 62
256
370
-1
 48
1.0
  6
BYLAYER
100
AcDbLine
 10
8.2710000000000008
 20
25.4347999999999992
 30
0.0
 11
8.0809999999999995
 21
25.4347999999999992
 31
0.0
  0
LINE
  5
208
100
AcDbEntity
  8
22
 62
256
370
-1
 48
1.0
  6
BYLAYER
100
AcDbLine
 10
8.0809999999999995
 20
25.4347999999999992
 30
0.0
 11
7.9610000000000003
 21
25.4547999999999988
 31
0.0
  0
LINE
  5
209
100
AcDbEntity
  8
22
 62
256
370
-1
 48
1.0
  6
BYLAYER
100
AcDbLine
 10
7.9610000000000003
 20
25.4547999999999988
 30
0.0
 11
7.851
 21
25.4847999999999999
 31
0.0
  0
LINE
  5
20A
100
AcDbEntity
  8
22
 62
256
370
-1
 48
1.0
  6
BYLAYER
100
AcDbLine
 10
7.851
 20
25.4847999999999999
 30
0.0
 11
7.7510000000000003
 21
25.524799999999999
 31
0.0
  0
LINE
  5
20B
100
AcDbEntity
  8
22
 62
256
370
-1
 48
1.0
  6
BYLAYER
100
AcDbLine
 10
7.7510000000000003
 20
25.524799999999999
 30
0.0
 11
7.6509999999999998
 21
25.5848000000000013
 31
0.0
  0
LINE
  5
20C
100
AcDbEntity
  8
22
 62
256
370
-1
 48
1.0
  6
BYLAYER
100
AcDbLine
 10
7.6509999999999998
 20
25.5848000000000013
 30
0.0
 11
7.5709999999999997
 21
25.6548000000000016
 31
0.0
  0
LINE
  5
20D
100
AcDbEntity
  8
22
 62
256
370
-1
 48
1.0
  6
BYLAYER
100
AcDbLine
 10
7.5709999999999997
 20
25.6548000000000016
 30
0.0
 11
7.4909999999999997
 21
25.7347999999999999
 31
0.0
  0
LINE
  5
20E
100
AcDbEntity
  8
22
 62
256
370
-1
 48
1.0
  6
BYLAYER
100
AcDbLine
 10
7.4909999999999997
 20
25.7347999999999999
 30
0.0
 11
7.4210000000000003
 21
25.8247999999999998
 31
0.0
  0
LINE
  5
20F
100
AcDbEntity
  8
22
 62
256
370
-1
 48
1.0
  6
BYLAYER
100
AcDbLine
 10
7.4210000000000003
 20
25.8247999999999998
 30
0.0
 11
7.3209999999999997
 21
26.0047999999999995
 31
0.0
  0
LINE
  5
210
100
AcDbEntity
  8
22
 62
256
370
-1
 48
1.0
  6
BYLAYER
100
AcDbLine
 10
7.3209999999999997
 20
26.0047999999999995
 30
0.0
 11
7.2709999999999999
 21
26.1948000000000008
 31
0.0
  0
LINE
  5
211
100
AcDbEntity
  8
22
 62
256
370
-1
 48
1.0
  6
BYLAYER
100
AcDbLine
 10
7.2709999999999999
 20
26.1948000000000008
 30
0.0
 11
7.2610000000000001
 21
26.3647999999999989
 31
0.0
  0
LINE
  5
212
100
AcDbEntity
  8
22
 62
256
370
-1
 48
1.0
  6
BYLAYER
100
AcDbLine
 10
7.2610000000000001
 20
26.3647999999999989
 30
0.0
 11
7.2910000000000004
 21
26.524799999999999
 31
0.0
  0
LINE
  5
213
100
AcDbEntity
  8
22
 62
256
370
-1
 48
1.0
  6
BYLAYER
100
AcDbLine
 10
7.2910000000000004
 20
26.524799999999999
 30
0.0
 11
7.3410000000000002
 21
26.6748000000000012
 31
0.0
  0
LINE
  5
214
100
AcDbEntity
  8
22
 62
256
370
-1
 48
1.0
  6
BYLAYER
100
AcDbLine
 10
7.3410000000000002
 20
26.6748000000000012
 30
0.0
 11
7.4109999999999996
 21
26.7848000000000006
 31
0.0
  0
LINE
  5
215
100
AcDbEntity
  8
22
 62
256
370
-1
 48
1.0
  6
BYLAYER
100
AcDbLine
 10
7.4109999999999996
 20
26.7848000000000006
 30
0.0
 11
7.4909999999999997
 21
26.8748000000000005
 31
0.0
  0
LINE
  5
216
100
AcDbEntity
  8
22
 62
256
370
-1
 48
1.0
  6
BYLAYER
100
AcDbLine
 10
7.4909999999999997
 20
26.8748000000000005
 30
0.0
 11
7.5709999999999997
 21
26.9248000000000012
 31
0.0
  0
LINE
  5
217
100
AcDbEntity
  8
22
 62
256
370
-1
 48
1.0
  6
BYLAYER
100
AcDbLine
 10
8.9510000000000005
 20
24.8157999999999994
 30
0.0
 11
8.9299999999999997
 21
24.8157999999999994
 31
0.0
  0
LINE
  5
218
100
AcDbEntity
  8
22
 62
256
370
-1
 48
1.0
  6
BYLAYER
100
AcDbLine
 10
8.9510000000000005
 20
24.8919999999999995
 30
0.0
 11
8.8727
 21
24.8919999999999995
 31
0.0
  0
LINE
  5
219
100
AcDbEntity
  8
22
 62
256
370
-1
 48
1.0
  6
BYLAYER
100
AcDbLine
 10
8.9510000000000005
 20
24.9681999999999995
 30
0.0
 11
8.8015000000000008
 21
24.9681999999999995
 31
0.0
  0
LINE
  5
21A
100
AcDbEntity
  8
22
 62
256
370
-1
 48
1.0
  6
BYLAYER
100
AcDbLine
 10
8.9510000000000005
 20
25.0443999999999996
 30
0.0
 11
8.7314000000000007
 21
25.0443999999999996
 31
0.0
  0
LINE
  5
21B
100
AcDbEntity
  8
22
 62
256
370
-1
 48
1.0
  6
BYLAYER
100
AcDbLine
 10
8.9510000000000005
 20
25.1205999999999996
 30
0.0
 11
8.6552000000000007
 21
25.1205999999999996
 31
0.0
  0
LINE
  5
21C
100
AcDbEntity
  8
22
 62
256
370
-1
 48
1.0
  6
BYLAYER
100
AcDbLine
 10
8.9510000000000005
 20
25.1967999999999996
 30
0.0
 11
8.5892999999999997
 21
25.1967999999999996
 31
0.0
  0
LINE
  5
21D
100
AcDbEntity
  8
22
 62
256
370
-1
 48
1.0
  6
BYLAYER
100
AcDbLine
 10
8.9510000000000005
 20
25.2729999999999997
 30
0.0
 11
8.5228000000000002
 21
25.2729999999999997
 31
0.0
  0
LINE
  5
21E
100
AcDbEntity
  8
22
 62
256
370
-1
 48
1.0
  6
BYLAYER
100
AcDbLine
 10
8.9510000000000005
 20
25.3491999999999997
 30
0.0
 11
8.4466000000000001
 21
25.3491999999999997
 31
0.0
  0
LINE
  5
21F
100
AcDbEntity
  8
22
 62
256
370
-1
 48
1.0
  6
BYLAYER
100
AcDbLine
 10
8.9510000000000005
 20
25.4253999999999998
 30
0.0
 11
8.3274000000000008
 21
25.4253999999999998
 31
0.0
  0
LINE
  5
220
100
AcDbEntity
  8
22
 62
256
370
-1
 48
1.0
  6
BYLAYER
100
AcDbLine
 10
8.9510000000000005
 20
25.5015999999999998
 30
0.0
 11
7.8090000000000002
 21
25.5015999999999998
 31
0.0
  0
LINE
  5
221
100
AcDbEntity
  8
22
 62
256
370
-1
 48
1.0
  6
BYLAYER
100
AcDbLine
 10
8.9510000000000005
 20
25.5777999999999999
 30
0.0
 11
7.6627000000000001
 21
25.5777999999999999
 31
0.0
  0
LINE
  5
222
100
AcDbEntity
  8
22
 62
256
370
-1
 48
1.0
  6
BYLAYER
100
AcDbLine
 10
8.9510000000000005
 20
25.6539999999999999
 30
0.0
 11
7.5719000000000003
 21
25.6539999999999999
 31
0.0
  0
LINE
  5
223
100
AcDbEntity
  8
22
 62
256
370
-1
 48
1.0
  6
BYLAYER
100
AcDbLine
 10
8.9510000000000005
 20
25.7302
 30
0.0
 11
7.4955999999999996
 21
25.7302
 31
0.0
  0
LINE
  5
224
100
AcDbEntity
  8
22
 62
256
370
-1
 48
1.0
  6
BYLAYER
100
AcDbLine
 10
8.9510000000000005
 20
25.8064
 30
0.0
 11
7.4352999999999998
 21
25.8064
 31
0.0
  0
LINE
  5
225
100
AcDbEntity
  8
22
 62
256
370
-1
 48
1.0
  6
BYLAYER
100
AcDbLine
 10
8.9510000000000005
 20
25.8826000000000001
 30
0.0
 11
7.3888999999999996
 21
25.8826000000000001
 31
0.0
  0
LINE
  5
226
100
AcDbEntity
  8
22
 62
256
370
-1
 48
1.0
  6
BYLAYER
100
AcDbLine
 10
8.9510000000000005
 20
25.9588000000000001
 30
0.0
 11
7.3465999999999996
 21
25.9588000000000001
 31
0.0
  0
LINE
  5
227
100
AcDbEntity
  8
22
 62
256
370
-1
 48
1.0
  6
BYLAYER
100
AcDbLine
 10
8.9510000000000005
 20
26.0350000000000001
 30
0.0
 11
7.3131000000000004
 21
26.0350000000000001
 31
0.0
  0
LINE
  5
228
100
AcDbEntity
  8
22
 62
256
370
-1
 48
1.0
  6
BYLAYER
100
AcDbLine
 10
8.9510000000000005
 20
26.1112000000000002
 30
0.0
 11
7.2930000000000001
 21
26.1112000000000002
 31
0.0
  0
LINE
  5
229
100
AcDbEntity
  8
22
 62
256
370
-1
 48
1.0
  6
BYLAYER
100
AcDbLine
 10
8.9481999999999999
 20
26.1874000000000002
 30
0.0
 11
8.4239999999999995
 21
26.1874000000000002
 31
0.0
  0
LINE
  5
22A
100
AcDbEntity
  8
22
 62
256
370
-1
 48
1.0
  6
BYLAYER
100
AcDbLine
 10
8.3206000000000007
 20
26.1874000000000002
 30
0.0
 11
7.2729999999999997
 21
26.1874000000000002
 31
0.0
  0
LINE
  5
22B
100
AcDbEntity
  8
22
 62
256
370
-1
 48
1.0
  6
BYLAYER
100
AcDbLine
 10
8.9356000000000009
 20
26.2636000000000003
 30
0.0
 11
8.5597999999999992
 21
26.2636000000000003
 31
0.0
  0
LINE
  5
22C
100
AcDbEntity
  8
22
 62
256
370
-1
 48
1.0
  6
BYLAYER
100
AcDbLine
 10
8.1760000000000002
 20
26.2636000000000003
 30
0.0
 11
7.2670000000000003
 21
26.2636000000000003
 31
0.0
  0
LINE
  5
22D
100
AcDbEntity
  8
22
 62
256
370
-1
 48
1.0
  6
BYLAYER
100
AcDbLine
 10
8.9060000000000006
 20
26.3398000000000003
 30
0.0
 11
8.6010000000000009
 21
26.3398000000000003
 31
0.0
  0
LINE
  5
22E
100
AcDbEntity
  8
22
 62
256
370
-1
 48
1.0
  6
BYLAYER
100
AcDbLine
 10
8.1359999999999992
 20
26.3398000000000003
 30
0.0
 11
7.2625000000000002
 21
26.3398000000000003
 31
0.0
  0
LINE
  5
22F
100
AcDbEntity
  8
22
 62
256
370
-1
 48
1.0
  6
BYLAYER
100
AcDbLine
 10
8.8595000000000006
 20
26.4160000000000004
 30
0.0
 11
8.5798000000000005
 21
26.4160000000000004
 31
0.0
  0
LINE
  5
230
100
AcDbEntity
  8
22
 62
256
370
-1
 48
1.0
  6
BYLAYER
100
AcDbLine
 10
8.1310000000000002
 20
26.4160000000000004
 30
0.0
 11
7.2706
 21
26.4160000000000004
 31
0.0
  0
LINE
  5
231
100
AcDbEntity
  8
22
 62
256
370
-1
 48
1.0
  6
BYLAYER
100
AcDbLine
 10
8.7524999999999995
 20
26.4922000000000004
 30
0.0
 11
8.4662000000000006
 21
26.4922000000000004
 31
0.0
  0
LINE
  5
232
100
AcDbEntity
  8
22
 62
256
370
-1
 48
1.0
  6
BYLAYER
100
AcDbLine
 10
8.1562999999999999
 20
26.4922000000000004
 30
0.0
 11
7.2849000000000004
 21
26.4922000000000004
 31
0.0
  0
LINE
  5
233
100
AcDbEntity
  8
22
 62
256
370
-1
 48
1.0
  6
BYLAYER
100
AcDbLine
 10
8.2246000000000006
 20
26.5684000000000005
 30
0.0
 11
7.3055000000000003
 21
26.5684000000000005
 31
0.0
  0
LINE
  5
234
100
AcDbEntity
  8
22
 62
256
370
-1
 48
1.0
  6
BYLAYER
100
AcDbLine
 10
8.2929999999999993
 20
26.6446000000000005
 30
0.0
 11
7.3308999999999997
 21
26.6446000000000005
 31
0.0
  0
LINE
  5
235
100
AcDbEntity
  8
22
 62
256
370
-1
 48
1.0
  6
BYLAYER
100
AcDbLine
 10
8.3599999999999994
 20
26.7208000000000006
 30
0.0
 11
7.3703000000000003
 21
26.7208000000000006
 31
0.0
  0
LINE
  5
236
100
AcDbEntity
  8
22
 62
256
370
-1
 48
1.0
  6
BYLAYER
100
AcDbLine
 10
8.4100000000000001
 20
26.7970000000000006
 30
0.0
 11
7.8193000000000001
 21
26.7970000000000006
 31
0.0
  0
LINE
  5
237
100
AcDbEntity
  8
22
 62
256
370
-1
 48
1.0
  6
BYLAYER
100
AcDbLine
 10
7.5849000000000002
 20
26.7970000000000006
 30
0.0
 11
7.4218000000000002
 21
26.7970000000000006
 31
0.0
  0
LINE
  5
238
100
AcDbEntity
  8
22
 62
256
370
-1
 48
1.0
  6
BYLAYER
100
AcDbLine
 10
8.4395000000000007
 20
26.8732000000000006
 30
0.0
 11
7.9093999999999998
 21
26.8732000000000006
 31
0.0
  0
LINE
  5
239
100
AcDbEntity
  8
22
 62
256
370
-1
 48
1.0
  6
BYLAYER
100
AcDbLine
 10
7.5709999999999997
 20
26.8732000000000006
 30
0.0
 11
7.4896000000000003
 21
26.8732000000000006
 31
0.0
  0
LINE
  5
23A
100
AcDbEntity
  8
22
 62
256
370
-1
 48
1.0
  6
BYLAYER
100
AcDbLine
 10
8.4510000000000005
 20
26.9494000000000007
 30
0.0
 11
7.9673999999999996
 21
26.9494000000000007
 31
0.0
  0
LINE
  5
23B
100
AcDbEntity
  8
22
 62
256
370
-1
 48
1.0
  6
BYLAYER
100
AcDbLine
 10
8.4441000000000006
 20
27.0256000000000007
 30
0.0
 11
7.9809999999999999
 21
27.0256000000000007
 31
0.0
  0
LINE
  5
23C
100
AcDbEntity
  8
22
 62
256
370
-1
 48
1.0
  6
BYLAYER
100
AcDbLine
 10
8.4166000000000007
 20
27.1018000000000008
 30
0.0
 11
7.9625000000000004
 21
27.1018000000000008
 31
0.0
  0
LINE
  5
23D
100
AcDbEntity
  8
22
 62
256
370
-1
 48
1.0
  6
BYLAYER
100
AcDbLine
 10
8.3668999999999993
 20
27.1780000000000008
 30
0.0
 11
7.8746
 21
27.1780000000000008
 31
0.0
  0
LINE
  5
23E
100
AcDbEntity
  8
22
 62
256
370
-1
 48
1.0
  6
BYLAYER
100
AcDbLine
 10
8.2637999999999998
 20
27.2542000000000009
 30
0.0
 11
7.7698
 21
27.2542000000000009
 31
0.0
  0
LINE
  5
23F
100
AcDbEntity
  8
22
 62
256
370
-1
 48
1.0
  6
BYLAYER
100
AcDbLine
 10
19.1632999999999996
 20
24.904399999999999
 30
0.0
 11
19.0115000000000016
 21
24.9826000000000015
 31
0.0
  0
LINE
  5
240
100
AcDbEntity
  8
22
 62
256
370
-1
 48
1.0
  6
BYLAYER
100
AcDbLine
 10
19.0115000000000016
 20
24.9826000000000015
 30
0.0
 11
18.6344999999999992
 21
24.6752000000000002
 31
0.0
  0
LINE
  5
241
100
AcDbEntity
  8
22
 62
256
370
-1
 48
1.0
  6
BYLAYER
100
AcDbLine
 10
18.6344999999999992
 20
24.6752000000000002
 30
0.0
 11
18.3760000000000012
 21
24.9337000000000018
 31
0.0
  0
LINE
  5
242
100
AcDbEntity
  8
22
 62
256
370
-1
 48
1.0
  6
BYLAYER
100
AcDbLine
 10
18.3760000000000012
 20
24.9337000000000018
 30
0.0
 11
18.6833999999999989
 21
25.3107000000000006
 31
0.0
  0
LINE
  5
243
100
AcDbEntity
  8
22
 62
256
370
-1
 48
1.0
  6
BYLAYER
100
AcDbLine
 10
18.6833999999999989
 20
25.3107000000000006
 30
0.0
 11
18.6052
 21
25.4624999999999986
 31
0.0
  0
LINE
  5
244
100
AcDbEntity
  8
22
 62
256
370
-1
 48
1.0
  6
BYLAYER
100
AcDbLine
 10
18.6052
 20
25.4624999999999986
 30
0.0
 11
18.5531000000000006
 21
25.6251999999999995
 31
0.0
  0
LINE
  5
245
100
AcDbEntity
  8
22
 62
256
370
-1
 48
1.0
  6
BYLAYER
100
AcDbLine
 10
18.5531000000000006
 20
25.6251999999999995
 30
0.0
 11
18.0691999999999986
 21
25.6743999999999986
 31
0.0
  0
LINE
  5
246
100
AcDbEntity
  8
22
 62
256
370
-1
 48
1.0
  6
BYLAYER
100
AcDbLine
 10
18.0691999999999986
 20
25.6743999999999986
 30
0.0
 11
18.0691999999999986
 21
26.0399999999999991
 31
0.0
  0
LINE
  5
247
100
AcDbEntity
  8
22
 62
256
370
-1
 48
1.0
  6
BYLAYER
100
AcDbLine
 10
18.0691999999999986
 20
26.0399999999999991
 30
0.0
 11
18.5531000000000006
 21
26.0892000000000017
 31
0.0
  0
LINE
  5
248
100
AcDbEntity
  8
22
 62
256
370
-1
 48
1.0
  6
BYLAYER
100
AcDbLine
 10
18.5531000000000006
 20
26.0892000000000017
 30
0.0
 11
18.6052
 21
26.2518999999999991
 31
0.0
  0
LINE
  5
249
100
AcDbEntity
  8
22
 62
256
370
-1
 48
1.0
  6
BYLAYER
100
AcDbLine
 10
18.6052
 20
26.2518999999999991
 30
0.0
 11
18.6833999999999989
 21
26.4037000000000006
 31
0.0
  0
LINE
  5
24A
100
AcDbEntity
  8
22
 62
256
370
-1
 48
1.0
  6
BYLAYER
100
AcDbLine
 10
18.6833999999999989
 20
26.4037000000000006
 30
0.0
 11
18.3760000000000012
 21
26.7806999999999995
 31
0.0
  0
LINE
  5
24B
100
AcDbEntity
  8
22
 62
256
370
-1
 48
1.0
  6
BYLAYER
100
AcDbLine
 10
18.3760000000000012
 20
26.7806999999999995
 30
0.0
 11
18.6344999999999992
 21
27.039200000000001
 31
0.0
  0
LINE
  5
24C
100
AcDbEntity
  8
22
 62
256
370
-1
 48
1.0
  6
BYLAYER
100
AcDbLine
 10
18.6344999999999992
 20
27.039200000000001
 30
0.0
 11
19.0115000000000016
 21
26.7317999999999998
 31
0.0
  0
LINE
  5
24D
100
AcDbEntity
  8
22
 62
256
370
-1
 48
1.0
  6
BYLAYER
100
AcDbLine
 10
19.0115000000000016
 20
26.7317999999999998
 30
0.0
 11
19.1632999999999996
 21
26.8099999999999987
 31
0.0
  0
LINE
  5
24E
100
AcDbEntity
  8
22
 62
256
370
-1
 48
1.0
  6
BYLAYER
100
AcDbLine
 10
19.1632999999999996
 20
26.8099999999999987
 30
0.0
 11
19.3260000000000005
 21
26.8621000000000016
 31
0.0
  0
LINE
  5
24F
100
AcDbEntity
  8
22
 62
256
370
-1
 48
1.0
  6
BYLAYER
100
AcDbLine
 10
19.3260000000000005
 20
26.8621000000000016
 30
0.0
 11
19.3751999999999995
 21
27.3460000000000001
 31
0.0
  0
LINE
  5
250
100
AcDbEntity
  8
22
 62
256
370
-1
 48
1.0
  6
BYLAYER
100
AcDbLine
 10
19.3751999999999995
 20
27.3460000000000001
 30
0.0
 11
19.7408000000000001
 21
27.3460000000000001
 31
0.0
  0
LINE
  5
251
100
AcDbEntity
  8
22
 62
256
370
-1
 48
1.0
  6
BYLAYER
100
AcDbLine
 10
19.7408000000000001
 20
27.3460000000000001
 30
0.0
 11
19.7899999999999991
 21
26.8621000000000016
 31
0.0
  0
LINE
  5
252
100
AcDbEntity
  8
22
 62
256
370
-1
 48
1.0
  6
BYLAYER
100
AcDbLine
 10
19.7899999999999991
 20
26.8621000000000016
 30
0.0
 11
19.9527000000000001
 21
26.8099999999999987
 31
0.0
  0
LINE
  5
253
100
AcDbEntity
  8
22
 62
256
370
-1
 48
1.0
  6
BYLAYER
100
AcDbLine
 10
19.9527000000000001
 20
26.8099999999999987
 30
0.0
 11
20.1045000000000016
 21
26.7317999999999998
 31
0.0
  0
LINE
  5
254
100
AcDbEntity
  8
22
 62
256
370
-1
 48
1.0
  6
BYLAYER
100
AcDbLine
 10
20.1045000000000016
 20
26.7317999999999998
 30
0.0
 11
20.4815000000000005
 21
27.039200000000001
 31
0.0
  0
LINE
  5
255
100
AcDbEntity
  8
22
 62
256
370
-1
 48
1.0
  6
BYLAYER
100
AcDbLine
 10
20.4815000000000005
 20
27.039200000000001
 30
0.0
 11
20.7399999999999984
 21
26.7806999999999995
 31
0.0
  0
LINE
  5
256
100
AcDbEntity
  8
22
 62
256
370
-1
 48
1.0
  6
BYLAYER
100
AcDbLine
 10
20.7399999999999984
 20
26.7806999999999995
 30
0.0
 11
20.4326000000000008
 21
26.4037000000000006
 31
0.0
  0
LINE
  5
257
100
AcDbEntity
  8
22
 62
256
370
-1
 48
1.0
  6
BYLAYER
100
AcDbLine
 10
20.4326000000000008
 20
26.4037000000000006
 30
0.0
 11
20.5107999999999997
 21
26.2518999999999991
 31
0.0
  0
LINE
  5
258
100
AcDbEntity
  8
22
 62
256
370
-1
 48
1.0
  6
BYLAYER
100
AcDbLine
 10
20.5107999999999997
 20
26.2518999999999991
 30
0.0
 11
20.5628999999999991
 21
26.0892000000000017
 31
0.0
  0
LINE
  5
259
100
AcDbEntity
  8
22
 62
256
370
-1
 48
1.0
  6
BYLAYER
100
AcDbLine
 10
20.5628999999999991
 20
26.0892000000000017
 30
0.0
 11
21.0468000000000011
 21
26.0399999999999991
 31
0.0
  0
LINE
  5
25A
100
AcDbEntity
  8
22
 62
256
370
-1
 48
1.0
  6
BYLAYER
100
AcDbLine
 10
21.0468000000000011
 20
26.0399999999999991
 30
0.0
 11
21.0468000000000011
 21
25.6743999999999986
 31
0.0
  0
LINE
  5
25B
100
AcDbEntity
  8
22
 62
256
370
-1
 48
1.0
  6
BYLAYER
100
AcDbLine
 10
21.0468000000000011
 20
25.6743999999999986
 30
0.0
 11
20.5628999999999991
 21
25.6251999999999995
 31
0.0
  0
LINE
  5
25C
100
AcDbEntity
  8
22
 62
256
370
-1
 48
1.0
  6
BYLAYER
100
AcDbLine
 10
20.5628999999999991
 20
25.6251999999999995
 30
0.0
 11
20.5107999999999997
 21
25.4624999999999986
 31
0.0
  0
LINE
  5
25D
100
AcDbEntity
  8
22
 62
256
370
-1
 48
1.0
  6
BYLAYER
100
AcDbLine
 10
20.5107999999999997
 20
25.4624999999999986
 30
0.0
 11
20.4326000000000008
 21
25.3107000000000006
 31
0.0
  0
LINE
  5
25E
100
AcDbEntity
  8
22
 62
256
370
-1
 48
1.0
  6
BYLAYER
100
AcDbLine
 10
20.4326000000000008
 20
25.3107000000000006
 30
0.0
 11
20.7399999999999984
 21
24.9337000000000018
 31
0.0
  0
LINE
  5
25F
100
AcDbEntity
  8
22
 62
256
370
-1
 48
1.0
  6
BYLAYER
100
AcDbLine
 10
20.7399999999999984
 20
24.9337000000000018
 30
0.0
 11
20.4815000000000005
 21
24.6752000000000002
 31
0.0
  0
LINE
  5
260
100
AcDbEntity
  8
22
 62
256
370
-1
 48
1.0
  6
BYLAYER
100
AcDbLine
 10
20.4815000000000005
 20
24.6752000000000002
 30
0.0
 11
20.1045000000000016
 21
24.9826000000000015
 31
0.0
  0
LINE
  5
261
100
AcDbEntity
  8
22
 62
256
370
-1
 48
1.0
  6
BYLAYER
100
AcDbLine
 10
20.1045000000000016
 20
24.9826000000000015
 30
0.0
 11
19.9527000000000001
 21
24.904399999999999
 31
0.0
  0
LINE
  5
262
100
AcDbEntity
  8
22
 62
256
370
-1
 48
1.0
  6
BYLAYER
100
AcDbLine
 10
19.9527000000000001
 20
24.904399999999999
 30
0.0
 11
19.7374000000000009
 21
25.4240999999999993
 31
0.0
  0
LINE
  5
263
100
AcDbEntity
  8
22
 62
256
370
-1
 48
1.0
  6
BYLAYER
100
AcDbLine
 10
19.7374000000000009
 20
25.4240999999999993
 30
0.0
 11
19.8336000000000006
 21
25.4779000000000018
 31
0.0
  0
LINE
  5
264
100
AcDbEntity
  8
22
 62
256
370
-1
 48
1.0
  6
BYLAYER
100
AcDbLine
 10
19.8336000000000006
 20
25.4779000000000018
 30
0.0
 11
19.9145000000000003
 21
25.5527000000000015
 31
0.0
  0
LINE
  5
265
100
AcDbEntity
  8
22
 62
256
370
-1
 48
1.0
  6
BYLAYER
100
AcDbLine
 10
19.9145000000000003
 20
25.5527000000000015
 30
0.0
 11
19.9756999999999998
 21
25.644400000000001
 31
0.0
  0
LINE
  5
266
100
AcDbEntity
  8
22
 62
256
370
-1
 48
1.0
  6
BYLAYER
100
AcDbLine
 10
19.9756999999999998
 20
25.644400000000001
 30
0.0
 11
20.0138999999999996
 21
25.7478000000000016
 31
0.0
  0
LINE
  5
267
100
AcDbEntity
  8
22
 62
256
370
-1
 48
1.0
  6
BYLAYER
100
AcDbLine
 10
20.0138999999999996
 20
25.7478000000000016
 30
0.0
 11
20.0268000000000015
 21
25.8571999999999989
 31
0.0
  0
LINE
  5
268
100
AcDbEntity
  8
22
 62
256
370
-1
 48
1.0
  6
BYLAYER
100
AcDbLine
 10
20.0268000000000015
 20
25.8571999999999989
 30
0.0
 11
20.013300000000001
 21
25.9685999999999986
 31
0.0
  0
LINE
  5
269
100
AcDbEntity
  8
22
 62
256
370
-1
 48
1.0
  6
BYLAYER
100
AcDbLine
 10
20.013300000000001
 20
25.9685999999999986
 30
0.0
 11
19.9738000000000007
 21
26.073599999999999
 31
0.0
  0
LINE
  5
26A
100
AcDbEntity
  8
22
 62
256
370
-1
 48
1.0
  6
BYLAYER
100
AcDbLine
 10
19.9738000000000007
 20
26.073599999999999
 30
0.0
 11
19.9103999999999992
 21
26.1661999999999999
 31
0.0
  0
LINE
  5
26B
100
AcDbEntity
  8
22
 62
256
370
-1
 48
1.0
  6
BYLAYER
100
AcDbLine
 10
19.9103999999999992
 20
26.1661999999999999
 30
0.0
 11
19.8268999999999984
 21
26.2410999999999994
 31
0.0
  0
LINE
  5
26C
100
AcDbEntity
  8
22
 62
256
370
-1
 48
1.0
  6
BYLAYER
100
AcDbLine
 10
19.8268999999999984
 20
26.2410999999999994
 30
0.0
 11
19.7279000000000018
 21
26.2940000000000005
 31
0.0
  0
LINE
  5
26D
100
AcDbEntity
  8
22
 62
256
370
-1
 48
1.0
  6
BYLAYER
100
AcDbLine
 10
19.7279000000000018
 20
26.2940000000000005
 30
0.0
 11
19.6191999999999993
 21
26.3217999999999996
 31
0.0
  0
LINE
  5
26E
100
AcDbEntity
  8
22
 62
256
370
-1
 48
1.0
  6
BYLAYER
100
AcDbLine
 10
19.6191999999999993
 20
26.3217999999999996
 30
0.0
 11
19.5070000000000014
 21
26.3230000000000004
 31
0.0
  0
LINE
  5
26F
100
AcDbEntity
  8
22
 62
256
370
-1
 48
1.0
  6
BYLAYER
100
AcDbLine
 10
19.5070000000000014
 20
26.3230000000000004
 30
0.0
 11
19.3978000000000002
 21
26.2975999999999992
 31
0.0
  0
LINE
  5
270
100
AcDbEntity
  8
22
 62
256
370
-1
 48
1.0
  6
BYLAYER
100
AcDbLine
 10
19.3978000000000002
 20
26.2975999999999992
 30
0.0
 11
19.297699999999999
 21
26.2468000000000004
 31
0.0
  0
LINE
  5
271
100
AcDbEntity
  8
22
 62
256
370
-1
 48
1.0
  6
BYLAYER
100
AcDbLine
 10
19.297699999999999
 20
26.2468000000000004
 30
0.0
 11
19.2124999999999986
 21
26.1738
 31
0.0
  0
LINE
  5
272
100
AcDbEntity
  8
22
 62
256
370
-1
 48
1.0
  6
BYLAYER
100
AcDbLine
 10
19.2124999999999986
 20
26.1738
 30
0.0
 11
19.1470999999999982
 21
26.0825999999999993
 31
0.0
  0
LINE
  5
273
100
AcDbEntity
  8
22
 62
256
370
-1
 48
1.0
  6
BYLAYER
100
AcDbLine
 10
19.1470999999999982
 20
26.0825999999999993
 30
0.0
 11
19.1052999999999997
 21
25.9785000000000004
 31
0.0
  0
LINE
  5
274
100
AcDbEntity
  8
22
 62
256
370
-1
 48
1.0
  6
BYLAYER
100
AcDbLine
 10
19.1052999999999997
 20
25.9785000000000004
 30
0.0
 11
19.089500000000001
 21
25.8673999999999999
 31
0.0
  0
LINE
  5
275
100
AcDbEntity
  8
22
 62
256
370
-1
 48
1.0
  6
BYLAYER
100
AcDbLine
 10
19.089500000000001
 20
25.8673999999999999
 30
0.0
 11
19.1005000000000003
 21
25.7557000000000009
 31
0.0
  0
LINE
  5
276
100
AcDbEntity
  8
22
 62
256
370
-1
 48
1.0
  6
BYLAYER
100
AcDbLine
 10
19.1005000000000003
 20
25.7557000000000009
 30
0.0
 11
19.1376999999999988
 21
25.6498999999999988
 31
0.0
  0
LINE
  5
277
100
AcDbEntity
  8
22
 62
256
370
-1
 48
1.0
  6
BYLAYER
100
AcDbLine
 10
19.1376999999999988
 20
25.6498999999999988
 30
0.0
 11
19.1990000000000016
 21
25.5559000000000012
 31
0.0
  0
LINE
  5
278
100
AcDbEntity
  8
22
 62
256
370
-1
 48
1.0
  6
BYLAYER
100
AcDbLine
 10
19.1990000000000016
 20
25.5559000000000012
 30
0.0
 11
19.2807999999999993
 21
25.4791999999999987
 31
0.0
  0
LINE
  5
279
100
AcDbEntity
  8
22
 62
256
370
-1
 48
1.0
  6
BYLAYER
100
AcDbLine
 10
19.2807999999999993
 20
25.4791999999999987
 30
0.0
 11
19.3785999999999987
 21
25.4240999999999993
 31
0.0
  0
LINE
  5
27A
100
AcDbEntity
  8
22
 62
256
370
-1
 48
1.0
  6
BYLAYER
100
AcDbLine
 10
19.3785999999999987
 20
25.4240999999999993
 30
0.0
 11
19.1632999999999996
 21
24.904399999999999
 31
0.0
  0
LINE
  5
27B
100
AcDbEntity
  8
22
 62
256
370
-1
 48
1.0
  6
BYLAYER
100
AcDbLine
 10
20.6134999999999984
 20
24.8072000000000017
 30
0.0
 11
20.3196000000000012
 21
24.8072000000000017
 31
0.0
  0
LINE
  5
27C
100
AcDbEntity
  8
22
 62
256
370
-1
 48
1.0
  6
BYLAYER
100
AcDbLine
 10
18.7963999999999984
 20
24.8072000000000017
 30
0.0
 11
18.5025000000000013
 21
24.8072000000000017
 31
0.0
  0
LINE
  5
27D
100
AcDbEntity
  8
22
 62
256
370
-1
 48
1.0
  6
BYLAYER
100
AcDbLine
 10
20.7208000000000006
 20
24.9572000000000003
 30
0.0
 11
20.1356999999999999
 21
24.9572000000000003
 31
0.0
  0
LINE
  5
27E
100
AcDbEntity
  8
22
 62
256
370
-1
 48
1.0
  6
BYLAYER
100
AcDbLine
 10
20.0551999999999992
 20
24.9572000000000003
 30
0.0
 11
19.9308000000000014
 21
24.9572000000000003
 31
0.0
  0
LINE
  5
27F
100
AcDbEntity
  8
22
 62
256
370
-1
 48
1.0
  6
BYLAYER
100
AcDbLine
 10
19.1851999999999983
 20
24.9572000000000003
 30
0.0
 11
19.0608000000000004
 21
24.9572000000000003
 31
0.0
  0
LINE
  5
280
100
AcDbEntity
  8
22
 62
256
370
-1
 48
1.0
  6
BYLAYER
100
AcDbLine
 10
18.9803999999999995
 20
24.9572000000000003
 30
0.0
 11
18.3951999999999991
 21
24.9572000000000003
 31
0.0
  0
LINE
  5
281
100
AcDbEntity
  8
22
 62
256
370
-1
 48
1.0
  6
BYLAYER
100
AcDbLine
 10
20.5985000000000014
 20
25.1071999999999989
 30
0.0
 11
19.8687000000000005
 21
25.1071999999999989
 31
0.0
  0
LINE
  5
282
100
AcDbEntity
  8
22
 62
256
370
-1
 48
1.0
  6
BYLAYER
100
AcDbLine
 10
19.2472999999999992
 20
25.1071999999999989
 30
0.0
 11
18.5174999999999983
 21
25.1071999999999989
 31
0.0
  0
LINE
  5
283
100
AcDbEntity
  8
22
 62
256
370
-1
 48
1.0
  6
BYLAYER
100
AcDbLine
 10
20.4761999999999986
 20
25.257200000000001
 30
0.0
 11
19.8064999999999998
 21
25.257200000000001
 31
0.0
  0
LINE
  5
284
100
AcDbEntity
  8
22
 62
256
370
-1
 48
1.0
  6
BYLAYER
100
AcDbLine
 10
19.3094999999999999
 20
25.257200000000001
 30
0.0
 11
18.639800000000001
 21
25.257200000000001
 31
0.0
  0
LINE
  5
285
100
AcDbEntity
  8
22
 62
256
370
-1
 48
1.0
  6
BYLAYER
100
AcDbLine
 10
20.4822999999999986
 20
25.4071999999999996
 30
0.0
 11
19.7443999999999988
 21
25.4071999999999996
 31
0.0
  0
LINE
  5
286
100
AcDbEntity
  8
22
 62
256
370
-1
 48
1.0
  6
BYLAYER
100
AcDbLine
 10
19.3716000000000008
 20
25.4071999999999996
 30
0.0
 11
18.633700000000001
 21
25.4071999999999996
 31
0.0
  0
LINE
  5
287
100
AcDbEntity
  8
22
 62
256
370
-1
 48
1.0
  6
BYLAYER
100
AcDbLine
 10
20.5411000000000001
 20
25.5572000000000017
 30
0.0
 11
19.9175000000000004
 21
25.5572000000000017
 31
0.0
  0
LINE
  5
288
100
AcDbEntity
  8
22
 62
256
370
-1
 48
1.0
  6
BYLAYER
100
AcDbLine
 10
19.1981000000000002
 20
25.5572000000000017
 30
0.0
 11
18.5748999999999995
 21
25.5572000000000017
 31
0.0
  0
LINE
  5
289
100
AcDbEntity
  8
22
 62
256
370
-1
 48
1.0
  6
BYLAYER
100
AcDbLine
 10
21.0468000000000011
 20
25.7072000000000003
 30
0.0
 11
19.998899999999999
 21
25.7072000000000003
 31
0.0
  0
LINE
  5
28A
100
AcDbEntity
  8
22
 62
256
370
-1
 48
1.0
  6
BYLAYER
100
AcDbLine
 10
19.1174999999999997
 20
25.7072000000000003
 30
0.0
 11
18.0691999999999986
 21
25.7072000000000003
 31
0.0
  0
LINE
  5
28B
100
AcDbEntity
  8
22
 62
256
370
-1
 48
1.0
  6
BYLAYER
100
AcDbLine
 10
21.0468000000000011
 20
25.8571999999999989
 30
0.0
 11
20.0268000000000015
 21
25.8571999999999989
 31
0.0
  0
LINE
  5
28C
100
AcDbEntity
  8
22
 62
256
370
-1
 48
1.0
  6
BYLAYER
100
AcDbLine
 10
19.0904999999999987
 20
25.8571999999999989
 30
0.0
 11
18.0691999999999986
 21
25.8571999999999989
 31
0.0
  0
LINE
  5
28D
100
AcDbEntity
  8
22
 62
256
370
-1
 48
1.0
  6
BYLAYER
100
AcDbLine
 10
21.0468000000000011
 20
26.007200000000001
 30
0.0
 11
19.9987999999999992
 21
26.007200000000001
 31
0.0
  0
LINE
  5
28E
100
AcDbEntity
  8
22
 62
256
370
-1
 48
1.0
  6
BYLAYER
100
AcDbLine
 10
19.1169000000000011
 20
26.007200000000001
 30
0.0
 11
18.0691999999999986
 21
26.007200000000001
 31
0.0
  0
LINE
  5
28F
100
AcDbEntity
  8
22
 62
256
370
-1
 48
1.0
  6
BYLAYER
100
AcDbLine
 10
20.5411000000000001
 20
26.1571999999999996
 30
0.0
 11
19.916599999999999
 21
26.1571999999999996
 31
0.0
  0
LINE
  5
290
100
AcDbEntity
  8
22
 62
256
370
-1
 48
1.0
  6
BYLAYER
100
AcDbLine
 10
19.2006000000000014
 20
26.1571999999999996
 30
0.0
 11
18.5748999999999995
 21
26.1571999999999996
 31
0.0
  0
LINE
  5
291
100
AcDbEntity
  8
22
 62
256
370
-1
 48
1.0
  6
BYLAYER
100
AcDbLine
 10
20.4822999999999986
 20
26.3072000000000017
 30
0.0
 11
19.6763000000000012
 21
26.3072000000000017
 31
0.0
  0
LINE
  5
292
100
AcDbEntity
  8
22
 62
256
370
-1
 48
1.0
  6
BYLAYER
100
AcDbLine
 10
19.4390999999999998
 20
26.3072000000000017
 30
0.0
 11
18.633700000000001
 21
26.3072000000000017
 31
0.0
  0
LINE
  5
293
100
AcDbEntity
  8
22
 62
256
370
-1
 48
1.0
  6
BYLAYER
100
AcDbLine
 10
20.4761999999999986
 20
26.4572000000000003
 30
0.0
 11
18.639800000000001
 21
26.4572000000000003
 31
0.0
  0
LINE
  5
294
100
AcDbEntity
  8
22
 62
256
370
-1
 48
1.0
  6
BYLAYER
100
AcDbLine
 10
20.5985000000000014
 20
26.6071999999999989
 30
0.0
 11
18.5174999999999983
 21
26.6071999999999989
 31
0.0
  0
LINE
  5
295
100
AcDbEntity
  8
22
 62
256
370
-1
 48
1.0
  6
BYLAYER
100
AcDbLine
 10
20.7208000000000006
 20
26.757200000000001
 30
0.0
 11
20.1356999999999999
 21
26.757200000000001
 31
0.0
  0
LINE
  5
296
100
AcDbEntity
  8
22
 62
256
370
-1
 48
1.0
  6
BYLAYER
100
AcDbLine
 10
20.0551999999999992
 20
26.757200000000001
 30
0.0
 11
19.0608000000000004
 21
26.757200000000001
 31
0.0
  0
LINE
  5
297
100
AcDbEntity
  8
22
 62
256
370
-1
 48
1.0
  6
BYLAYER
100
AcDbLine
 10
18.9802999999999997
 20
26.757200000000001
 30
0.0
 11
18.3951999999999991
 21
26.757200000000001
 31
0.0
  0
LINE
  5
298
100
AcDbEntity
  8
22
 62
256
370
-1
 48
1.0
  6
BYLAYER
100
AcDbLine
 10
20.6134999999999984
 20
26.9071999999999996
 30
0.0
 11
20.3196000000000012
 21
26.9071999999999996
 31
0.0
  0
LINE
  5
299
100
AcDbEntity
  8
22
 62
256
370
-1
 48
1.0
  6
BYLAYER
100
AcDbLine
 10
19.7853999999999992
 20
26.9071999999999996
 30
0.0
 11
19.3306000000000004
 21
26.9071999999999996
 31
0.0
  0
LINE
  5
29A
100
AcDbEntity
  8
22
 62
256
370
-1
 48
1.0
  6
BYLAYER
100
AcDbLine
 10
18.7963999999999984
 20
26.9071999999999996
 30
0.0
 11
18.5025000000000013
 21
26.9071999999999996
 31
0.0
  0
LINE
  5
29B
100
AcDbEntity
  8
22
 62
256
370
-1
 48
1.0
  6
BYLAYER
100
AcDbLine
 10
19.7701999999999991
 20
27.0572000000000017
 30
0.0
 11
19.3458000000000006
 21
27.0572000000000017
 31
0.0
  0
LINE
  5
29C
100
AcDbEntity
  8
22
 62
256
370
-1
 48
1.0
  6
BYLAYER
100
AcDbLine
 10
19.7548999999999992
 20
27.2072000000000003
 30
0.0
 11
19.3611000000000004
 21
27.2072000000000003
 31
0.0
  0
LINE
  5
29D
100
AcDbEntity
  8
21
 62
256
370
-1
 48
1.0
  6
BYLAYER
100
AcDbLine
 10
17.3159999999999989
 20
23.9039999999999999
 30
0.0
 11
17.3159999999999989
 21
27.4039999999999999
 31
0.0
  0
LINE
  5
29E
100
AcDbEntity
  8
21
 62
256
370
-1
 48
1.0
  6
BYLAYER
100
AcDbLine
 10
17.3159999999999989
 20
27.4039999999999999
 30
0.0
 11
10.1159999999999997
 21
27.4039999999999999
 31
0.0
  0
LINE
  5
29F
100
AcDbEntity
  8
21
 62
256
370
-1
 48
1.0
  6
BYLAYER
100
AcDbLine
 10
10.1159999999999997
 20
27.4039999999999999
 30
0.0
 11
10.1159999999999997
 21
23.9039999999999999
 31
0.0
  0
LINE
  5
2A0
100
AcDbEntity
  8
21
 62
256
370
-1
 48
1.0
  6
BYLAYER
100
AcDbLine
 10
10.1159999999999997
 20
23.9039999999999999
 30
0.0
 11
17.3159999999999989
 21
23.9039999999999999
 31
0.0
  0
CIRCLE
  5
2A1
100
AcDbEntity
  8
20
 62
256
370
-1
 48
1.0
  6
BYLAYER
100
AcDbCircle
 10
12.2159999999999993
 20
25.6539999999999999
 30
0.0
 40
0.425
  0
CIRCLE
  5
2A2
100
AcDbEntity
  8
20
 62
256
370
-1
 48
1.0
  6
BYLAYER
100
AcDbCircle
 10
15.2159999999999993
 20
25.6539999999999999
 30
0.0
 40
0.425
  0
LINE
  5
2A3
100
AcDbEntity
  8
22
 62
256
370
-1
 48
1.0
  6
BYLAYER
100
AcDbLine
 10
12.1028000000000002
 20
13.5638000000000005
 30
0.0
 11
12.1028000000000002
 21
15.6638000000000002
 31
0.0
  0
ARC
  5
2A4
100
AcDbEntity
  8
22
 62
256
370
-1
 48
1.0
  6
BYLAYER
100
AcDbCircle
 10
11.5527999999999995
 20
15.6137999999999995
 30
0.0
 40
0.5523
100
AcDbArc
 50
5.1943999999999999
 51
95.1944000000000017
  0
ARC
  5
2A5
100
AcDbEntity
  8
22
 62
256
370
-1
 48
1.0
  6
BYLAYER
100
AcDbCircle
 10
11.4528999999999996
 20
15.6136999999999997
 30
0.0
 40
0.5524
100
AcDbArc
 50
84.815100000000001
 51
174.7959999999999923
  0
LINE
  5
2A6
100
AcDbEntity
  8
22
 62
256
370
-1
 48
1.0
  6
BYLAYER
100
AcDbLine
 10
10.9027999999999992
 20
15.6638000000000002
 30
0.0
 11
10.9027999999999992
 21
15.4638000000000009
 31
0.0
  0
ARC
  5
2A7
100
AcDbEntity
  8
22
 62
256
370
-1
 48
1.0
  6
BYLAYER
100
AcDbCircle
 10
11.3779000000000003
 20
15.4888999999999992
 30
0.0
 40
0.4758
100
AcDbArc
 50
183.0241999999999791
 51
273.0013000000000147
  0
LINE
  5
2A8
100
AcDbEntity
  8
22
 62
256
370
-1
 48
1.0
  6
BYLAYER
100
AcDbLine
 10
11.4027999999999992
 20
15.0137999999999998
 30
0.0
 11
11.7027999999999999
 21
15.0137999999999998
 31
0.0
  0
ARC
  5
2A9
100
AcDbEntity
  8
22
 62
256
370
-1
 48
1.0
  6
BYLAYER
100
AcDbCircle
 10
11.0028000000000006
 20
13.9138000000000002
 30
0.0
 40
0.3536
100
AcDbArc
 50
171.8698999999999728
 51
261.8698999999999728
  0
LINE
  5
2AA
100
AcDbEntity
  8
22
 62
256
370
-1
 48
1.0
  6
BYLAYER
100
AcDbLine
 10
10.9527999999999999
 20
13.5638000000000005
 30
0.0
 11
11.1527999999999992
 21
13.5638000000000005
 31
0.0
  0
ARC
  5
2AB
100
AcDbEntity
  8
22
 62
256
370
-1
 48
1.0
  6
BYLAYER
100
AcDbCircle
 10
11.1028000000000002
 20
14.0137999999999998
 30
0.0
 40
0.4528
100
AcDbArc
 50
276.3401999999999816
 51
6.3402000000000003
  0
ARC
  5
2AC
100
AcDbEntity
  8
22
 62
256
370
-1
 48
1.0
  6
BYLAYER
100
AcDbCircle
 10
11.1028000000000002
 20
14.1137999999999995
 30
0.0
 40
0.4528
100
AcDbArc
 50
353.6598000000000184
 51
83.6598000000000042
  0
LINE
  5
2AD
100
AcDbEntity
  8
22
 62
256
370
-1
 48
1.0
  6
BYLAYER
100
AcDbLine
 10
11.1527999999999992
 20
14.5638000000000005
 30
0.0
 11
11.0527999999999995
 21
14.5638000000000005
 31
0.0
  0
ARC
  5
2AE
100
AcDbEntity
  8
22
 62
256
370
-1
 48
1.0
  6
BYLAYER
100
AcDbCircle
 10
11.0527999999999995
 20
14.1638000000000002
 30
0.0
 40
0.4
100
AcDbArc
 50
90.0
 51
180.0
  0
LINE
  5
2AF
100
AcDbEntity
  8
22
 62
256
370
-1
 48
1.0
  6
BYLAYER
100
AcDbLine
 10
10.6527999999999992
 20
14.1638000000000002
 30
0.0
 11
10.6527999999999992
 21
13.9638000000000009
 31
0.0
  0
ARC
  5
2B0
100
AcDbEntity
  8
22
 62
256
370
-1
 48
1.0
  6
BYLAYER
100
AcDbCircle
 10
10.3277999999999999
 20
13.8887999999999998
 30
0.0
 40
0.3335
100
AcDbArc
 50
282.9945999999999344
 51
12.9946000000000002
  0
ARC
  5
2B1
100
AcDbEntity
  8
22
 62
256
370
-1
 48
1.0
  6
BYLAYER
100
AcDbCircle
 10
10.3277999999999999
 20
13.8388000000000009
 30
0.0
 40
0.285
100
AcDbArc
 50
195.2550999999999704
 51
285.2551000000000272
  0
LINE
  5
2B2
100
AcDbEntity
  8
22
 62
256
370
-1
 48
1.0
  6
BYLAYER
100
AcDbLine
 10
10.0527999999999995
 20
13.7637999999999998
 30
0.0
 11
10.0527999999999995
 21
13.8138000000000005
 31
0.0
  0
LINE
  5
2B3
100
AcDbEntity
  8
22
 62
256
370
-1
 48
1.0
  6
BYLAYER
100
AcDbLine
 10
10.0527999999999995
 20
13.8138000000000005
 30
0.0
 11
10.0527999999999995
 21
14.0638000000000005
 31
0.0
  0
ARC
  5
2B4
100
AcDbEntity
  8
22
 62
256
370
-1
 48
1.0
  6
BYLAYER
100
AcDbCircle
 10
9.5777999999999999
 20
14.0888000000000009
 30
0.0
 40
0.4757
100
AcDbArc
 50
356.987199999999973
 51
86.9872000000000014
  0
ARC
  5
2B5
100
AcDbEntity
  8
22
 62
256
370
-1
 48
1.0
  6
BYLAYER
100
AcDbCircle
 10
9.6527999999999992
 20
14.0638000000000005
 30
0.0
 40
0.5024999999999999
100
AcDbArc
 50
95.7105999999999995
 51
185.7105999999999995
  0
ARC
  5
2B6
100
AcDbEntity
  8
22
 62
256
370
-1
 48
1.0
  6
BYLAYER
100
AcDbCircle
 10
9.5527999999999995
 20
13.9138000000000002
 30
0.0
 40
0.4123
100
AcDbArc
 50
165.963799999999992
 51
194.0362000000000364
  0
ARC
  5
2B7
100
AcDbEntity
  8
22
 62
256
370
-1
 48
1.0
  6
BYLAYER
100
AcDbCircle
 10
9.5527999999999995
 20
13.9138000000000002
 30
0.0
 40
0.4123
100
AcDbArc
 50
194.0362000000000364
 51
255.9637999999999636
  0
ARC
  5
2B8
100
AcDbEntity
  8
22
 62
256
370
-1
 48
1.0
  6
BYLAYER
100
AcDbCircle
 10
9.6028000000000002
 20
13.9638000000000009
 30
0.0
 40
0.4743
100
AcDbArc
 50
251.5650999999999726
 51
341.5650999999999726
  0
LINE
  5
2B9
100
AcDbEntity
  8
22
 62
256
370
-1
 48
1.0
  6
BYLAYER
100
AcDbLine
 10
9.1527999999999992
 20
13.8138000000000005
 30
0.0
 11
9.1527999999999992
 21
13.7138000000000009
 31
0.0
  0
ARC
  5
2BA
100
AcDbEntity
  8
22
 62
256
370
-1
 48
1.0
  6
BYLAYER
100
AcDbCircle
 10
8.9527999999999999
 20
13.7138000000000009
 30
0.0
 40
0.2
100
AcDbArc
 50
270.0
 51
0.0
  0
ARC
  5
2BB
100
AcDbEntity
  8
22
 62
256
370
-1
 48
1.0
  6
BYLAYER
100
AcDbCircle
 10
8.9527999999999999
 20
13.7138000000000009
 30
0.0
 40
0.2
100
AcDbArc
 50
180.0
 51
270.0
  0
LINE
  5
2BC
100
AcDbEntity
  8
22
 62
256
370
-1
 48
1.0
  6
BYLAYER
100
AcDbLine
 10
9.1527999999999992
 20
13.9138000000000002
 30
0.0
 11
9.1527999999999992
 21
15.9138000000000002
 31
0.0
  0
LINE
  5
2BD
100
AcDbEntity
  8
22
 62
256
370
-1
 48
1.0
  6
BYLAYER
100
AcDbLine
 10
15.6527999999999992
 20
14.7637999999999998
 30
0.0
 11
15.6527999999999992
 21
14.8138000000000005
 31
0.0
  0
ARC
  5
2BE
100
AcDbEntity
  8
22
 62
256
370
-1
 48
1.0
  6
BYLAYER
100
AcDbCircle
 10
16.4527999999999999
 20
16.5137999999999998
 30
0.0
 40
1.3
100
AcDbArc
 50
270.0
 51
0.0
  0
LINE
  5
2BF
100
AcDbEntity
  8
22
 62
256
370
-1
 48
1.0
  6
BYLAYER
100
AcDbLine
 10
16.4527999999999999
 20
15.2138000000000009
 30
0.0
 11
16.3028000000000013
 21
15.2138000000000009
 31
0.0
  0
ARC
  5
2C0
100
AcDbEntity
  8
22
 62
256
370
-1
 48
1.0
  6
BYLAYER
100
AcDbCircle
 10
16.2777999999999992
 20
15.8887999999999998
 30
0.0
 40
0.6755
100
AcDbArc
 50
182.1211000000000126
 51
272.1211000000000126
  0
ARC
  5
2C1
100
AcDbEntity
  8
22
 62
256
370
-1
 48
1.0
  6
BYLAYER
100
AcDbCircle
 10
15.9027999999999992
 20
15.8637999999999995
 30
0.0
 40
0.3
100
AcDbArc
 50
90.0
 51
180.0
  0
ARC
  5
2C2
100
AcDbEntity
  8
22
 62
256
370
-1
 48
1.0
  6
BYLAYER
100
AcDbCircle
 10
17.7277999999999984
 20
13.7888000000000002
 30
0.0
 40
0.7945
100
AcDbArc
 50
77.2755999999999972
 51
167.2755999999999972
  0
LINE
  5
2C3
100
AcDbEntity
  8
22
 62
256
370
-1
 48
1.0
  6
BYLAYER
100
AcDbLine
 10
16.0028000000000006
 20
16.1637999999999984
 30
0.0
 11
15.9027999999999992
 21
16.1637999999999984
 31
0.0
  0
ARC
  5
2C4
100
AcDbEntity
  8
22
 62
256
370
-1
 48
1.0
  6
BYLAYER
100
AcDbCircle
 10
16.0028000000000006
 20
15.4638000000000009
 30
0.0
 40
0.7
100
AcDbArc
 50
0.0
 51
90.0
  0
ARC
  5
2C5
100
AcDbEntity
  8
22
 62
256
370
-1
 48
1.0
  6
BYLAYER
100
AcDbCircle
 10
17.8277999999999999
 20
14.0388000000000002
 30
0.0
 40
0.5303
100
AcDbArc
 50
351.8698999999999728
 51
81.8699000000000012
  0
LINE
  5
2C6
100
AcDbEntity
  8
22
 62
256
370
-1
 48
1.0
  6
BYLAYER
100
AcDbLine
 10
16.7027999999999999
 20
14.7637999999999998
 30
0.0
 11
16.7027999999999999
 21
15.4638000000000009
 31
0.0
  0
ARC
  5
2C7
100
AcDbEntity
  8
22
 62
256
370
-1
 48
1.0
  6
BYLAYER
100
AcDbCircle
 10
17.9027999999999992
 20
14.7637999999999998
 30
0.0
 40
1.2
100
AcDbArc
 50
180.0
 51
270.0
  0
ARC
  5
2C8
100
AcDbEntity
  8
22
 62
256
370
-1
 48
1.0
  6
BYLAYER
100
AcDbCircle
 10
17.9278000000000013
 20
13.9887999999999995
 30
0.0
 40
0.4257
100
AcDbArc
 50
266.6335000000000264
 51
356.6335000000000264
  0
ARC
  5
2C9
100
AcDbEntity
  8
22
 62
256
370
-1
 48
1.0
  6
BYLAYER
100
AcDbCircle
 10
16.3778000000000006
 20
14.3388000000000009
 30
0.0
 40
0.7945
100
AcDbArc
 50
204.1454999999999984
 51
294.1455000000000268
  0
LINE
  5
2CA
100
AcDbEntity
  8
22
 62
256
370
-1
 48
1.0
  6
BYLAYER
100
AcDbLine
 10
15.6527999999999992
 20
14.1638000000000002
 30
0.0
 11
15.6527999999999992
 21
14.4638000000000009
 31
0.0
  0
LINE
  5
2CB
100
AcDbEntity
  8
22
 62
256
370
-1
 48
1.0
  6
BYLAYER
100
AcDbLine
 10
15.6527999999999992
 20
14.1638000000000002
 30
0.0
 11
15.6527999999999992
 21
14.0137999999999998
 31
0.0
  0
LINE
  5
2CC
100
AcDbEntity
  8
22
 62
256
370
-1
 48
1.0
  6
BYLAYER
100
AcDbLine
 10
14.7027999999999999
 20
14.2637999999999998
 30
0.0
 11
14.7027999999999999
 21
15.9138000000000002
 31
0.0
  0
ARC
  5
2CD
100
AcDbEntity
  8
22
 62
256
370
-1
 48
1.0
  6
BYLAYER
100
AcDbCircle
 10
15.1278000000000006
 20
14.0888000000000009
 30
0.0
 40
0.5303
100
AcDbArc
 50
278.1301000000000272
 51
8.1301000000000005
  0
ARC
  5
2CE
100
AcDbEntity
  8
22
 62
256
370
-1
 48
1.0
  6
BYLAYER
100
AcDbCircle
 10
15.2735000000000003
 20
14.1303000000000001
 30
0.0
 40
0.5709
100
AcDbArc
 50
181.6606000000000165
 51
262.8867999999999938
  0
ARC
  5
2CF
100
AcDbEntity
  8
22
 62
256
370
-1
 48
1.0
  6
BYLAYER
100
AcDbCircle
 10
15.6776999999999997
 20
14.1888000000000005
 30
0.0
 40
0.9778
100
AcDbArc
 50
175.6007999999999925
 51
184.3992000000000075
  0
LINE
  5
2D0
100
AcDbEntity
  8
22
 62
256
370
-1
 48
1.0
  6
BYLAYER
100
AcDbLine
 10
14.7027999999999999
 20
14.0638000000000005
 30
0.0
 11
14.7027999999999999
 21
14.1137999999999995
 31
0.0
  0
ARC
  5
2D1
100
AcDbEntity
  8
22
 62
256
370
-1
 48
1.0
  6
BYLAYER
100
AcDbCircle
 10
14.2027999999999999
 20
14.0638000000000005
 30
0.0
 40
0.5
100
AcDbArc
 50
270.0
 51
0.0
  0
ARC
  5
2D2
100
AcDbEntity
  8
22
 62
256
370
-1
 48
1.0
  6
BYLAYER
100
AcDbCircle
 10
14.2027999999999999
 20
14.0638000000000005
 30
0.0
 40
0.5
100
AcDbArc
 50
180.0
 51
270.0
  0
LINE
  5
2D3
100
AcDbEntity
  8
22
 62
256
370
-1
 48
1.0
  6
BYLAYER
100
AcDbLine
 10
13.7027999999999999
 20
14.0638000000000005
 30
0.0
 11
13.7027999999999999
 21
14.6638000000000002
 31
0.0
  0
ARC
  5
2D4
100
AcDbEntity
  8
22
 62
256
370
-1
 48
1.0
  6
BYLAYER
100
AcDbCircle
 10
13.2027999999999999
 20
14.0638000000000005
 30
0.0
 40
0.5
100
AcDbArc
 50
270.0
 51
0.0
  0
ARC
  5
2D5
100
AcDbEntity
  8
22
 62
256
370
-1
 48
1.0
  6
BYLAYER
100
AcDbCircle
 10
13.7027999999999999
 20
11.7637999999999998
 30
0.0
 40
1.3038000000000001
100
AcDbArc
 50
85.6012999999999948
 51
175.601300000000009
  0
ARC
  5
2D6
100
AcDbEntity
  8
22
 62
256
370
-1
 48
1.0
  6
BYLAYER
100
AcDbCircle
 10
13.2027999999999999
 20
14.0638000000000005
 30
0.0
 40
0.5
100
AcDbArc
 50
180.0
 51
270.0
  0
LINE
  5
2D7
100
AcDbEntity
  8
22
 62
256
370
-1
 48
1.0
  6
BYLAYER
100
AcDbLine
 10
12.7027999999999999
 20
14.0638000000000005
 30
0.0
 11
12.7027999999999999
 21
14.6638000000000002
 31
0.0
  0
LINE
  5
2D8
100
AcDbEntity
  8
22
 62
256
370
-1
 48
1.0
  6
BYLAYER
100
AcDbLine
 10
12.7027999999999999
 20
13.2637999999999998
 30
0.0
 11
12.7027999999999999
 21
14.0638000000000005
 31
0.0
  0
LINE
  5
2D9
100
AcDbEntity
  8
22
 62
256
370
-1
 48
1.0
  6
BYLAYER
100
AcDbLine
 10
14.0028000000000006
 20
13.0638000000000005
 30
0.0
 11
13.8027999999999995
 21
13.0638000000000005
 31
0.0
  0
ARC
  5
2DA
100
AcDbEntity
  8
22
 62
256
370
-1
 48
1.0
  6
BYLAYER
100
AcDbCircle
 10
14.0028000000000006
 20
12.4638000000000009
 30
0.0
 40
0.6
100
AcDbArc
 50
0.0
 51
90.0
  0
ARC
  5
2DB
100
AcDbEntity
  8
22
 62
256
370
-1
 48
1.0
  6
BYLAYER
100
AcDbCircle
 10
14.0028000000000006
 20
13.2637999999999998
 30
0.0
 40
1.3
100
AcDbArc
 50
180.0
 51
270.0
  0
LINE
  5
2DC
100
AcDbEntity
  8
22
 62
256
370
-1
 48
1.0
  6
BYLAYER
100
AcDbLine
 10
14.1028000000000002
 20
11.9638000000000009
 30
0.0
 11
14.0028000000000006
 21
11.9638000000000009
 31
0.0
  0
ARC
  5
2DD
100
AcDbEntity
  8
22
 62
256
370
-1
 48
1.0
  6
BYLAYER
100
AcDbCircle
 10
14.1028000000000002
 20
12.4638000000000009
 30
0.0
 40
0.5
100
AcDbArc
 50
270.0
 51
0.0
  0
ARC
  5
2DE
100
AcDbEntity
  8
22
 62
256
370
-1
 48
1.0
  6
BYLAYER
100
AcDbCircle
 10
16.4527999999999999
 20
14.0638000000000005
 30
0.0
 40
0.5099
100
AcDbArc
 50
258.6900999999999726
 51
348.6900999999999726
  0
INSERT
  5
2DF
100
AcDbEntity
  8
18
 62
256
370
-1
 48
1.0
  6
BYLAYER
100
AcDbBlockReference
  2
ROUNDV
 10
2.794
 20
12.4459999999999997
 30
0.0
 41
1.016
 42
1.016
 43
1.0
  0
INSERT
  5
2E0
100
AcDbEntity
  8
18
 62
256
370
-1
 48
1.0
  6
BYLAYER
100
AcDbBlockReference
  2
ROUNDV
 10
2.794
 20
9.3979999999999997
 30
0.0
 41
1.016
 42
1.016
 43
1.0
  0
INSERT
  5
2E1
100
AcDbEntity
  8
18
 62
256
370
-1
 48
1.0
  6
BYLAYER
100
AcDbBlockReference
  2
ROUNDV
 10
24.6380000000000017
 20
12.4459999999999997
 30
0.0
 41
1.016
 42
1.016
 43
1.0
  0
INSERT
  5
2E2
100
AcDbEntity
  8
18
 62
256
370
-1
 48
1.0
  6
BYLAYER
100
AcDbBlockReference
  2
ROUNDV
 10
24.6380000000000017
 20
9.3979999999999997
 30
0.0
 41
1.016
 42
1.016
 43
1.0
  0
ENDSEC
  0
SECTION
  2
OBJECTS
  0
DICTIONARY
  5
C
100
AcDbDictionary
280
0
281
1
  3
ACAD_GROUP
350
D
  3
ACAD_LAYOUT
350
1A
  3
ACAD_MLINESTYLE
350
17
  3
ACAD_PLOTSETTINGS
350
19
  3
ACAD_PLOTSTYLENAME
350
E
  3
AcDbVariableDictionary
350
2E3
  3
QCAD_OBJECTS
350
2E4
  0
DICTIONARY
  5
D
100
AcDbDictionary
280
0
281
1
  0
ACDBDICTIONARYWDFLT
  5
E
100
AcDbDictionary
281
1
  3
Normal
350
F
100
AcDbDictionaryWithDefault
340
F
  0
ACDBPLACEHOLDER
  5
F
  0
DICTIONARY
  5
17
100
AcDbDictionary
280
0
281
1
  3
Standard
350
18
  0
MLINESTYLE
  5
18
100
AcDbMlineStyle
  2
STANDARD
 70
0
  3

 62
256
 51
90.0
 52
90.0
 71
2
 49
0.5
 62
256
  6
BYLAYER
 49
-0.5
 62
256
  6
BYLAYER
  0
DICTIONARY
  5
19
100
AcDbDictionary
280
0
281
1
  0
DICTIONARY
  5
1A
100
AcDbDictionary
281
1
  3
Layout1
350
1E
  3
Layout2
350
26
  3
Model
350
22
  0
LAYOUT
  5
1E
100
AcDbPlotSettings
  1

  2
none_device
  4

  6

 40
0.0
 41
0.0
 42
0.0
 43
0.0
 44
0.0
 45
0.0
 46
0.0
 47
0.0
 48
0.0
 49
0.0
140
0.0
141
0.0
142
1.0
143
1.0
 70
688
 72
0
 73
0
 74
5
  7

 75
16
147
1.0
148
0.0
149
0.0
100
AcDbLayout
  1
Layout1
 70
1
 71
1
 10
0.0
 20
0.0
 11
420.0
 21
297.0
 12
0.0
 22
0.0
 32
0.0
 14
100000000000000000000.0
 24
100000000000000000000.0
 34
100000000000000000000.0
 15
-100000000000000000000.0
 25
-100000000000000000000.0
 35
-100000000000000000000.0
146
0.0
 13
0.0
 23
0.0
 33
0.0
 16
1.0
 26
0.0
 36
0.0
 17
0.0
 27
1.0
 37
0.0
 76
0
330
1B
  0
LAYOUT
  5
22
100
AcDbPlotSettings
  1

  2
none_device
  4

  6

 40
0.0
 41
0.0
 42
0.0
 43
0.0
 44
0.0
 45
0.0
 46
0.0
 47
0.0
 48
0.0
 49
0.0
140
0.0
141
0.0
142
1.0
143
1.0
 70
1712
 72
0
 73
0
 74
0
  7

 75
0
147
1.0
148
0.0
149
0.0
100
AcDbLayout
  1
Model
 70
1
 71
0
 10
0.0
 20
0.0
 11
12.0
 21
9.0
 12
0.0
 22
0.0
 32
0.0
 14
0.0
 24
0.0
 34
0.0
 15
0.0
 25
0.0
 35
0.0
146
0.0
 13
0.0
 23
0.0
 33
0.0
 16
1.0
 26
0.0
 36
0.0
 17
0.0
 27
1.0
 37
0.0
 76
0
330
1F
  0
LAYOUT
  5
26
100
AcDbPlotSettings
  1

  2
none_device
  4

  6

 40
0.0
 41
0.0
 42
0.0
 43
0.0
 44
0.0
 45
0.0
 46
0.0
 47
0.0
 48
0.0
 49
0.0
140
0.0
141
0.0
142
1.0
143
1.0
 70
688
 72
0
 73
0
 74
5
  7

 75
16
147
1.0
148
0.0
149
0.0
100
AcDbLayout
  1
Layout2
 70
1
 71
2
 10
0.0
 20
0.0
 11
12.0
 21
9.0
 12
0.0
 22
0.0
 32
0.0
 14
0.0
 24
0.0
 34
0.0
 15
0.0
 25
0.0
 35
0.0
146
0.0
 13
0.0
 23
0.0
 33
0.0
 16
1.0
 26
0.0
 36
0.0
 17
0.0
 27
1.0
 37
0.0
 76
0
330
23
  0
DICTIONARY
  5
2E3
100
AcDbDictionary
281
1
  3
DIMASSOC
350
2E6
  3
HIDETEXT
350
2E5
  0
DICTIONARYVAR
  5
2E5
100
DictionaryVariables
280
0
  1
2
  0
DICTIONARYVAR
  5
2E6
100
DictionaryVariables
280
0
  1
1
  0
DICTIONARY
  5
2E4
100
AcDbDictionary
281
1
  3
ColorSettings/BackgroundColor
350
2E7
  3
ColorSettings/ColorMode
350
2E8
  3
Grid/DisplayGrid00
350
2E9
  3
Grid/DisplayGrid01
350
2EA
  3
Grid/DisplayGrid02
350
2EB
  3
Grid/DisplayGrid03
350
2EC
  3
Grid/GridSpacingX00
350
2ED
  3
Grid/GridSpacingX01
350
2EE
  3
Grid/GridSpacingX02
350
2EF
  3
Grid/GridSpacingX03
350
2F0
  3
Grid/GridSpacingY00
350
2F1
  3
Grid/GridSpacingY01
350
2F2
  3
Grid/GridSpacingY02
350
2F3
  3
Grid/GridSpacingY03
350
2F4
  3
Grid/IsometricGrid00
350
2F5
  3
Grid/IsometricGrid01
350
2F6
  3
Grid/IsometricGrid02
350
2F7
  3
Grid/IsometricGrid03
350
2F8
  3
Grid/IsometricProjection00
350
2F9
  3
Grid/IsometricProjection01
350
2FA
  3
Grid/IsometricProjection02
350
2FB
  3
Grid/IsometricProjection03
350
2FC
  3
Grid/MetaGridSpacingX00
350
2FD
  3
Grid/MetaGridSpacingX01
350
2FE
  3
Grid/MetaGridSpacingX02
350
2FF
  3
Grid/MetaGridSpacingX03
350
300
  3
Grid/MetaGridSpacingY00
350
301
  3
Grid/MetaGridSpacingY01
350
302
  3
Grid/MetaGridSpacingY02
350
303
  3
Grid/MetaGridSpacingY03
350
304
  3
MultiPageSettings/Columns
350
305
  3
MultiPageSettings/GlueMarginsBottom
350
306
  3
MultiPageSettings/GlueMarginsLeft
350
307
  3
MultiPageSettings/GlueMarginsRight
350
308
  3
MultiPageSettings/GlueMarginsTop
350
309
  3
MultiPageSettings/PrintCropMarks
350
30A
  3
MultiPageSettings/Rows
350
30B
  3
PageSettings/OffsetX
350
30C
  3
PageSettings/OffsetY
350
30D
  3
PageSettings/PageOrientation
350
30E
  3
PageSettings/PaperHeight
350
30F
  3
PageSettings/PaperWidth
350
310
  3
PageSettings/Scale
350
311
  3
PageSettings/ShowPaperBorders
350
312
  3
QCADVersion
350
313
  3
UnitSettings/PaperUnit
350
314
  3
ViewportCenter
350
315
  3
ViewportHeight
350
316
  3
ViewportWidth
350
317
  0
XRECORD
  5
2E7
330
2E4
100
AcDbXrecord
280
1
1000
White
  0
XRECORD
  5
2E8
330
2E4
100
AcDbXrecord
280
1
1000
FullColor
  0
XRECORD
  5
2E9
330
2E4
100
AcDbXrecord
280
1
290
1
  0
XRECORD
  5
2EA
330
2E4
100
AcDbXrecord
280
1
290
1
  0
XRECORD
  5
2EB
330
2E4
100
AcDbXrecord
280
1
290
1
  0
XRECORD
  5
2EC
330
2E4
100
AcDbXrecord
280
1
290
1
  0
XRECORD
  5
2ED
330
2E4
100
AcDbXrecord
280
1
1000
auto
  0
XRECORD
  5
2EE
330
2E4
100
AcDbXrecord
280
1
1000
auto
  0
XRECORD
  5
2EF
330
2E4
100
AcDbXrecord
280
1
1000
auto
  0
XRECORD
  5
2F0
330
2E4
100
AcDbXrecord
280
1
1000
auto
  0
XRECORD
  5
2F1
330
2E4
100
AcDbXrecord
280
1
1000
auto
  0
XRECORD
  5
2F2
330
2E4
100
AcDbXrecord
280
1
1000
auto
  0
XRECORD
  5
2F3
330
2E4
100
AcDbXrecord
280
1
1000
auto
  0
XRECORD
  5
2F4
330
2E4
100
AcDbXrecord
280
1
1000
auto
  0
XRECORD
  5
2F5
330
2E4
100
AcDbXrecord
280
1
290
0
  0
XRECORD
  5
2F6
330
2E4
100
AcDbXrecord
280
1
290
0
  0
XRECORD
  5
2F7
330
2E4
100
AcDbXrecord
280
1
290
0
  0
XRECORD
  5
2F8
330
2E4
100
AcDbXrecord
280
1
290
0
  0
XRECORD
  5
2F9
330
2E4
100
AcDbXrecord
280
1
 90
0
  0
XRECORD
  5
2FA
330
2E4
100
AcDbXrecord
280
1
 90
0
  0
XRECORD
  5
2FB
330
2E4
100
AcDbXrecord
280
1
 90
0
  0
XRECORD
  5
2FC
330
2E4
100
AcDbXrecord
280
1
 90
0
  0
XRECORD
  5
2FD
330
2E4
100
AcDbXrecord
280
1
1000
auto
  0
XRECORD
  5
2FE
330
2E4
100
AcDbXrecord
280
1
1000
auto
  0
XRECORD
  5
2FF
330
2E4
100
AcDbXrecord
280
1
1000
auto
  0
XRECORD
  5
300
330
2E4
100
AcDbXrecord
280
1
1000
auto
  0
XRECORD
  5
301
330
2E4
100
AcDbXrecord
280
1
1000
auto
  0
XRECORD
  5
302
330
2E4
100
AcDbXrecord
280
1
1000
auto
  0
XRECORD
  5
303
330
2E4
100
AcDbXrecord
280
1
1000
auto
  0
XRECORD
  5
304
330
2E4
100
AcDbXrecord
280
1
1000
auto
  0
XRECORD
  5
305
330
2E4
100
AcDbXrecord
280
1
 90
1
  0
XRECORD
  5
306
330
2E4
100
AcDbXrecord
280
1
 40
10.0
  0
XRECORD
  5
307
330
2E4
100
AcDbXrecord
280
1
 40
10.0
  0
XRECORD
  5
308
330
2E4
100
AcDbXrecord
280
1
 40
10.0
  0
XRECORD
  5
309
330
2E4
100
AcDbXrecord
280
1
 40
10.0
  0
XRECORD
  5
30A
330
2E4
100
AcDbXrecord
280
1
290
0
  0
XRECORD
  5
30B
330
2E4
100
AcDbXrecord
280
1
 90
1
  0
XRECORD
  5
30C
330
2E4
100
AcDbXrecord
280
1
 40
0.0
  0
XRECORD
  5
30D
330
2E4
100
AcDbXrecord
280
1
 40
0.0
  0
XRECORD
  5
30E
330
2E4
100
AcDbXrecord
280
1
1000
Portrait
  0
XRECORD
  5
30F
330
2E4
100
AcDbXrecord
280
1
 40
297.0
  0
XRECORD
  5
310
330
2E4
100
AcDbXrecord
280
1
 40
210.0
  0
XRECORD
  5
311
330
2E4
100
AcDbXrecord
280
1
1000
1:1
  0
XRECORD
  5
312
330
2E4
100
AcDbXrecord
280
1
290
1
  0
XRECORD
  5
313
330
2E4
100
AcDbXrecord
280
1
1000
3.16.3
  0
XRECORD
  5
314
330
2E4
100
AcDbXrecord
280
1
 90
4
  0
XRECORD
  5
316
330
2E4
100
AcDbXrecord
280
1
 40
32.3552754870756303
  0
XRECORD
  5
317
330
2E4
100
AcDbXrecord
280
1
 40
64.1935558931327392
  0
ENDSEC
  0
EOF
