G04 #@! TF.GenerationSoftware,KiCad,Pcbnew,5.0.1-33cea8e~68~ubuntu16.04.1*
G04 #@! TF.CreationDate,2018-11-21T16:27:54+02:00*
G04 #@! TF.ProjectId,livolo_2_channels_1way_eu_switch,6C69766F6C6F5F325F6368616E6E656C,rev?*
G04 #@! TF.SameCoordinates,Original*
G04 #@! TF.FileFunction,Legend,Top*
G04 #@! TF.FilePolarity,Positive*
%FSLAX46Y46*%
G04 Gerber Fmt 4.6, Leading zero omitted, Abs format (unit mm)*
G04 Created by KiCad (PCBNEW 5.0.1-33cea8e~68~ubuntu16.04.1) date Wed 21 Nov 2018 16:27:54 EET*
%MOMM*%
%LPD*%
G01*
G04 APERTURE LIST*
%ADD10C,0.200000*%
%ADD11C,0.100000*%
%ADD12C,0.120000*%
%ADD13C,0.150000*%
%ADD14R,0.500000X0.900000*%
%ADD15R,1.000000X2.000000*%
%ADD16R,4.000000X2.000000*%
%ADD17R,1.200000X2.000000*%
%ADD18R,1.200000X1.400000*%
%ADD19R,0.900000X1.200000*%
%ADD20R,0.650000X1.060000*%
%ADD21C,1.500000*%
%ADD22R,1.200000X0.750000*%
%ADD23R,0.750000X1.200000*%
%ADD24R,1.200000X0.900000*%
%ADD25R,0.900000X0.500000*%
%ADD26O,1.350000X1.350000*%
%ADD27R,1.350000X1.350000*%
%ADD28R,1.260000X1.750000*%
%ADD29R,1.000000X1.600000*%
%ADD30R,0.400000X1.200000*%
%ADD31C,0.600000*%
%ADD32R,1.500000X1.000000*%
%ADD33R,1.000000X1.500000*%
G04 APERTURE END LIST*
D10*
X127152380Y-110209523D02*
X126676190Y-110542857D01*
X127152380Y-110780952D02*
X126152380Y-110780952D01*
X126152380Y-110400000D01*
X126200000Y-110304761D01*
X126247619Y-110257142D01*
X126342857Y-110209523D01*
X126485714Y-110209523D01*
X126580952Y-110257142D01*
X126628571Y-110304761D01*
X126676190Y-110400000D01*
X126676190Y-110780952D01*
X127104761Y-109400000D02*
X127152380Y-109495238D01*
X127152380Y-109685714D01*
X127104761Y-109780952D01*
X127009523Y-109828571D01*
X126628571Y-109828571D01*
X126533333Y-109780952D01*
X126485714Y-109685714D01*
X126485714Y-109495238D01*
X126533333Y-109400000D01*
X126628571Y-109352380D01*
X126723809Y-109352380D01*
X126819047Y-109828571D01*
X126485714Y-109019047D02*
X127152380Y-108780952D01*
X126485714Y-108542857D01*
X127057142Y-108161904D02*
X127104761Y-108114285D01*
X127152380Y-108161904D01*
X127104761Y-108209523D01*
X127057142Y-108161904D01*
X127152380Y-108161904D01*
X126152380Y-106733333D02*
X126152380Y-106638095D01*
X126200000Y-106542857D01*
X126247619Y-106495238D01*
X126342857Y-106447619D01*
X126533333Y-106400000D01*
X126771428Y-106400000D01*
X126961904Y-106447619D01*
X127057142Y-106495238D01*
X127104761Y-106542857D01*
X127152380Y-106638095D01*
X127152380Y-106733333D01*
X127104761Y-106828571D01*
X127057142Y-106876190D01*
X126961904Y-106923809D01*
X126771428Y-106971428D01*
X126533333Y-106971428D01*
X126342857Y-106923809D01*
X126247619Y-106876190D01*
X126200000Y-106828571D01*
X126152380Y-106733333D01*
X127057142Y-105971428D02*
X127104761Y-105923809D01*
X127152380Y-105971428D01*
X127104761Y-106019047D01*
X127057142Y-105971428D01*
X127152380Y-105971428D01*
X127152380Y-104971428D02*
X127152380Y-105542857D01*
X127152380Y-105257142D02*
X126152380Y-105257142D01*
X126295238Y-105352380D01*
X126390476Y-105447619D01*
X126438095Y-105542857D01*
D11*
X152202380Y-76659523D02*
X152226190Y-76588095D01*
X152226190Y-76469047D01*
X152202380Y-76421428D01*
X152178571Y-76397619D01*
X152130952Y-76373809D01*
X152083333Y-76373809D01*
X152035714Y-76397619D01*
X152011904Y-76421428D01*
X151988095Y-76469047D01*
X151964285Y-76564285D01*
X151940476Y-76611904D01*
X151916666Y-76635714D01*
X151869047Y-76659523D01*
X151821428Y-76659523D01*
X151773809Y-76635714D01*
X151750000Y-76611904D01*
X151726190Y-76564285D01*
X151726190Y-76445238D01*
X151750000Y-76373809D01*
X151726190Y-76207142D02*
X152226190Y-76088095D01*
X151869047Y-75992857D01*
X152226190Y-75897619D01*
X151726190Y-75778571D01*
X152226190Y-75588095D02*
X151726190Y-75588095D01*
X151726190Y-75469047D01*
X151750000Y-75397619D01*
X151797619Y-75350000D01*
X151845238Y-75326190D01*
X151940476Y-75302380D01*
X152011904Y-75302380D01*
X152107142Y-75326190D01*
X152154761Y-75350000D01*
X152202380Y-75397619D01*
X152226190Y-75469047D01*
X152226190Y-75588095D01*
X152226190Y-75088095D02*
X151726190Y-75088095D01*
X151726190Y-74754761D02*
X151726190Y-74659523D01*
X151750000Y-74611904D01*
X151797619Y-74564285D01*
X151892857Y-74540476D01*
X152059523Y-74540476D01*
X152154761Y-74564285D01*
X152202380Y-74611904D01*
X152226190Y-74659523D01*
X152226190Y-74754761D01*
X152202380Y-74802380D01*
X152154761Y-74850000D01*
X152059523Y-74873809D01*
X151892857Y-74873809D01*
X151797619Y-74850000D01*
X151750000Y-74802380D01*
X151726190Y-74754761D01*
X153750000Y-81980952D02*
X153726190Y-82028571D01*
X153726190Y-82100000D01*
X153750000Y-82171428D01*
X153797619Y-82219047D01*
X153845238Y-82242857D01*
X153940476Y-82266666D01*
X154011904Y-82266666D01*
X154107142Y-82242857D01*
X154154761Y-82219047D01*
X154202380Y-82171428D01*
X154226190Y-82100000D01*
X154226190Y-82052380D01*
X154202380Y-81980952D01*
X154178571Y-81957142D01*
X154011904Y-81957142D01*
X154011904Y-82052380D01*
X154226190Y-81742857D02*
X153726190Y-81742857D01*
X154226190Y-81457142D01*
X153726190Y-81457142D01*
X154226190Y-81219047D02*
X153726190Y-81219047D01*
X153726190Y-81100000D01*
X153750000Y-81028571D01*
X153797619Y-80980952D01*
X153845238Y-80957142D01*
X153940476Y-80933333D01*
X154011904Y-80933333D01*
X154107142Y-80957142D01*
X154154761Y-80980952D01*
X154202380Y-81028571D01*
X154226190Y-81100000D01*
X154226190Y-81219047D01*
X154202380Y-76730952D02*
X154226190Y-76659523D01*
X154226190Y-76540476D01*
X154202380Y-76492857D01*
X154178571Y-76469047D01*
X154130952Y-76445238D01*
X154083333Y-76445238D01*
X154035714Y-76469047D01*
X154011904Y-76492857D01*
X153988095Y-76540476D01*
X153964285Y-76635714D01*
X153940476Y-76683333D01*
X153916666Y-76707142D01*
X153869047Y-76730952D01*
X153821428Y-76730952D01*
X153773809Y-76707142D01*
X153750000Y-76683333D01*
X153726190Y-76635714D01*
X153726190Y-76516666D01*
X153750000Y-76445238D01*
X153726190Y-76278571D02*
X154226190Y-76159523D01*
X153869047Y-76064285D01*
X154226190Y-75969047D01*
X153726190Y-75850000D01*
X154178571Y-75373809D02*
X154202380Y-75397619D01*
X154226190Y-75469047D01*
X154226190Y-75516666D01*
X154202380Y-75588095D01*
X154154761Y-75635714D01*
X154107142Y-75659523D01*
X154011904Y-75683333D01*
X153940476Y-75683333D01*
X153845238Y-75659523D01*
X153797619Y-75635714D01*
X153750000Y-75588095D01*
X153726190Y-75516666D01*
X153726190Y-75469047D01*
X153750000Y-75397619D01*
X153773809Y-75373809D01*
X154226190Y-74921428D02*
X154226190Y-75159523D01*
X153726190Y-75159523D01*
X154226190Y-74754761D02*
X153726190Y-74754761D01*
X154226190Y-74469047D02*
X153940476Y-74683333D01*
X153726190Y-74469047D02*
X154011904Y-74754761D01*
X151726190Y-82219047D02*
X151726190Y-81909523D01*
X151916666Y-82076190D01*
X151916666Y-82004761D01*
X151940476Y-81957142D01*
X151964285Y-81933333D01*
X152011904Y-81909523D01*
X152130952Y-81909523D01*
X152178571Y-81933333D01*
X152202380Y-81957142D01*
X152226190Y-82004761D01*
X152226190Y-82147619D01*
X152202380Y-82195238D01*
X152178571Y-82219047D01*
X151726190Y-81766666D02*
X152226190Y-81600000D01*
X151726190Y-81433333D01*
X151726190Y-81314285D02*
X151726190Y-81004761D01*
X151916666Y-81171428D01*
X151916666Y-81100000D01*
X151940476Y-81052380D01*
X151964285Y-81028571D01*
X152011904Y-81004761D01*
X152130952Y-81004761D01*
X152178571Y-81028571D01*
X152202380Y-81052380D01*
X152226190Y-81100000D01*
X152226190Y-81242857D01*
X152202380Y-81290476D01*
X152178571Y-81314285D01*
D12*
G04 #@! TO.C,R4*
X147600000Y-101480000D02*
X146600000Y-101480000D01*
X146600000Y-100120000D02*
X147600000Y-100120000D01*
G04 #@! TO.C,R9*
X147600000Y-99880000D02*
X146600000Y-99880000D01*
X146600000Y-98520000D02*
X147600000Y-98520000D01*
G04 #@! TO.C,R10*
X137350000Y-101380000D02*
X136350000Y-101380000D01*
X136350000Y-100020000D02*
X137350000Y-100020000D01*
G04 #@! TO.C,R3*
X137350000Y-99780000D02*
X136350000Y-99780000D01*
X136350000Y-98420000D02*
X137350000Y-98420000D01*
G04 #@! TO.C,J1*
X154800000Y-71625000D02*
X154800000Y-74065000D01*
X150940000Y-78185000D02*
X151200000Y-78185000D01*
X150940000Y-74065000D02*
X150940000Y-78185000D01*
X151200000Y-74065000D02*
X150940000Y-74065000D01*
X155060000Y-78185000D02*
X154800000Y-78185000D01*
X155060000Y-74065000D02*
X155060000Y-78185000D01*
X154800000Y-74065000D02*
X155060000Y-74065000D01*
D13*
G04 #@! TO.C,L2*
X155600000Y-110075000D02*
X155775000Y-110200000D01*
X159800000Y-110050000D02*
X159675000Y-110200000D01*
X159675000Y-110200000D02*
X155800000Y-110200000D01*
X159800000Y-104850000D02*
X159600000Y-104750000D01*
X159800000Y-110050000D02*
X159800000Y-104850000D01*
X155800000Y-104750000D02*
X159600000Y-104750000D01*
X155600000Y-110075000D02*
X155600000Y-104875000D01*
X155600000Y-104875000D02*
X155800000Y-104750000D01*
D10*
G04 #@! TO.C,D2*
X154700000Y-109000000D02*
X153700000Y-109000000D01*
D13*
X155000000Y-110500000D02*
X154900000Y-110500000D01*
X155000000Y-107600000D02*
X155000000Y-110500000D01*
X153400000Y-107600000D02*
X153400000Y-110501723D01*
X153500000Y-110500000D02*
X153400000Y-110500000D01*
X153500000Y-107600000D02*
X153400000Y-107600000D01*
X155000000Y-107600000D02*
X154900000Y-107600000D01*
G04 #@! TO.C,R2*
X145125000Y-109300000D02*
X145125000Y-108300000D01*
X146475000Y-108300000D02*
X146475000Y-109300000D01*
D12*
G04 #@! TO.C,U2*
X151610000Y-109700000D02*
X151610000Y-107250000D01*
X148390000Y-107900000D02*
X148390000Y-109700000D01*
D13*
G04 #@! TO.C,C7*
X148450000Y-104700000D02*
X149150000Y-104700000D01*
X149150000Y-105900000D02*
X148450000Y-105900000D01*
G04 #@! TO.C,C9*
X152000000Y-109150000D02*
X152000000Y-108450000D01*
X153200000Y-108450000D02*
X153200000Y-109150000D01*
D12*
G04 #@! TO.C,D1*
X150850000Y-104600000D02*
X154750000Y-104600000D01*
X150850000Y-106600000D02*
X154750000Y-106600000D01*
X150850000Y-104600000D02*
X150850000Y-106600000D01*
D13*
G04 #@! TO.C,R1*
X148075000Y-108300000D02*
X148075000Y-109300000D01*
X146725000Y-109300000D02*
X146725000Y-108300000D01*
G04 #@! TO.C,R5*
X153700000Y-102725000D02*
X154700000Y-102725000D01*
X154700000Y-104075000D02*
X153700000Y-104075000D01*
G04 #@! TO.C,R6*
X158800000Y-104075000D02*
X157800000Y-104075000D01*
X157800000Y-102725000D02*
X158800000Y-102725000D01*
G04 #@! TO.C,R7*
X131200000Y-104075000D02*
X130200000Y-104075000D01*
X130200000Y-102725000D02*
X131200000Y-102725000D01*
G04 #@! TO.C,R8*
X126100000Y-102725000D02*
X127100000Y-102725000D01*
X127100000Y-104075000D02*
X126100000Y-104075000D01*
D12*
G04 #@! TO.C,L1*
X145420000Y-105400000D02*
X145420000Y-104400000D01*
X146780000Y-104400000D02*
X146780000Y-105400000D01*
G04 #@! TO.C,P4*
X130590000Y-110610000D02*
X130590000Y-109550000D01*
X131650000Y-110610000D02*
X130590000Y-110610000D01*
X132650000Y-108550000D02*
X132650000Y-110610000D01*
X130590000Y-108550000D02*
X132650000Y-108550000D01*
X130590000Y-106490000D02*
X130590000Y-108550000D01*
X144710000Y-106490000D02*
X130590000Y-106490000D01*
X144710000Y-110610000D02*
X144710000Y-106490000D01*
X132650000Y-110610000D02*
X144710000Y-110610000D01*
G04 #@! TO.C,C1*
X131500000Y-80050000D02*
X133300000Y-80050000D01*
X133300000Y-80050000D02*
X133300000Y-76600000D01*
X131500000Y-80050000D02*
X131500000Y-76600000D01*
G04 #@! TO.C,C2*
X133900000Y-78000000D02*
X133900000Y-77300000D01*
X135100000Y-77300000D02*
X135100000Y-78000000D01*
G04 #@! TO.C,C10*
X149500000Y-112720000D02*
X151500000Y-112720000D01*
X151500000Y-110680000D02*
X149500000Y-110680000D01*
G04 #@! TO.C,C3*
X136750000Y-104400000D02*
X137450000Y-104400000D01*
X137450000Y-105600000D02*
X136750000Y-105600000D01*
G04 #@! TO.C,C4*
X144650000Y-97100000D02*
X143950000Y-97100000D01*
X143950000Y-95900000D02*
X144650000Y-95900000D01*
G04 #@! TO.C,R12*
X138920000Y-95200000D02*
X138920000Y-94200000D01*
X140280000Y-94200000D02*
X140280000Y-95200000D01*
G04 #@! TO.C,R13*
X144300000Y-94220000D02*
X145300000Y-94220000D01*
X145300000Y-95580000D02*
X144300000Y-95580000D01*
G04 #@! TO.C,R14*
X141780000Y-94200000D02*
X141780000Y-95200000D01*
X140420000Y-95200000D02*
X140420000Y-94200000D01*
D13*
G04 #@! TO.C,U7*
X139125000Y-104375000D02*
X139125000Y-105650000D01*
X144875000Y-104375000D02*
X144875000Y-98825000D01*
X138325000Y-104375000D02*
X138325000Y-98825000D01*
X144875000Y-104375000D02*
X143975000Y-104375000D01*
X144875000Y-98825000D02*
X143975000Y-98825000D01*
X138325000Y-98825000D02*
X139225000Y-98825000D01*
X138325000Y-104375000D02*
X139125000Y-104375000D01*
G04 #@! TO.C,R4*
D11*
X146516666Y-102126190D02*
X146350000Y-101888095D01*
X146230952Y-102126190D02*
X146230952Y-101626190D01*
X146421428Y-101626190D01*
X146469047Y-101650000D01*
X146492857Y-101673809D01*
X146516666Y-101721428D01*
X146516666Y-101792857D01*
X146492857Y-101840476D01*
X146469047Y-101864285D01*
X146421428Y-101888095D01*
X146230952Y-101888095D01*
X146945238Y-101792857D02*
X146945238Y-102126190D01*
X146826190Y-101602380D02*
X146707142Y-101959523D01*
X147016666Y-101959523D01*
X147607142Y-101792857D02*
X147607142Y-102126190D01*
X147488095Y-101602380D02*
X147369047Y-101959523D01*
X147678571Y-101959523D01*
X147869047Y-102126190D02*
X147869047Y-101626190D01*
X148154761Y-102126190D02*
X147940476Y-101840476D01*
X148154761Y-101626190D02*
X147869047Y-101911904D01*
X148321428Y-101626190D02*
X148654761Y-101626190D01*
X148440476Y-102126190D01*
G04 #@! TO.C,R9*
X147016666Y-98326190D02*
X146850000Y-98088095D01*
X146730952Y-98326190D02*
X146730952Y-97826190D01*
X146921428Y-97826190D01*
X146969047Y-97850000D01*
X146992857Y-97873809D01*
X147016666Y-97921428D01*
X147016666Y-97992857D01*
X146992857Y-98040476D01*
X146969047Y-98064285D01*
X146921428Y-98088095D01*
X146730952Y-98088095D01*
X147254761Y-98326190D02*
X147350000Y-98326190D01*
X147397619Y-98302380D01*
X147421428Y-98278571D01*
X147469047Y-98207142D01*
X147492857Y-98111904D01*
X147492857Y-97921428D01*
X147469047Y-97873809D01*
X147445238Y-97850000D01*
X147397619Y-97826190D01*
X147302380Y-97826190D01*
X147254761Y-97850000D01*
X147230952Y-97873809D01*
X147207142Y-97921428D01*
X147207142Y-98040476D01*
X147230952Y-98088095D01*
X147254761Y-98111904D01*
X147302380Y-98135714D01*
X147397619Y-98135714D01*
X147445238Y-98111904D01*
X147469047Y-98088095D01*
X147492857Y-98040476D01*
X147076190Y-98926190D02*
X147123809Y-98926190D01*
X147171428Y-98950000D01*
X147195238Y-98973809D01*
X147219047Y-99021428D01*
X147242857Y-99116666D01*
X147242857Y-99235714D01*
X147219047Y-99330952D01*
X147195238Y-99378571D01*
X147171428Y-99402380D01*
X147123809Y-99426190D01*
X147076190Y-99426190D01*
X147028571Y-99402380D01*
X147004761Y-99378571D01*
X146980952Y-99330952D01*
X146957142Y-99235714D01*
X146957142Y-99116666D01*
X146980952Y-99021428D01*
X147004761Y-98973809D01*
X147028571Y-98950000D01*
X147076190Y-98926190D01*
G04 #@! TO.C,R10*
X135428571Y-102326190D02*
X135261904Y-102088095D01*
X135142857Y-102326190D02*
X135142857Y-101826190D01*
X135333333Y-101826190D01*
X135380952Y-101850000D01*
X135404761Y-101873809D01*
X135428571Y-101921428D01*
X135428571Y-101992857D01*
X135404761Y-102040476D01*
X135380952Y-102064285D01*
X135333333Y-102088095D01*
X135142857Y-102088095D01*
X135904761Y-102326190D02*
X135619047Y-102326190D01*
X135761904Y-102326190D02*
X135761904Y-101826190D01*
X135714285Y-101897619D01*
X135666666Y-101945238D01*
X135619047Y-101969047D01*
X136214285Y-101826190D02*
X136261904Y-101826190D01*
X136309523Y-101850000D01*
X136333333Y-101873809D01*
X136357142Y-101921428D01*
X136380952Y-102016666D01*
X136380952Y-102135714D01*
X136357142Y-102230952D01*
X136333333Y-102278571D01*
X136309523Y-102302380D01*
X136261904Y-102326190D01*
X136214285Y-102326190D01*
X136166666Y-102302380D01*
X136142857Y-102278571D01*
X136119047Y-102230952D01*
X136095238Y-102135714D01*
X136095238Y-102016666D01*
X136119047Y-101921428D01*
X136142857Y-101873809D01*
X136166666Y-101850000D01*
X136214285Y-101826190D01*
X137057142Y-101992857D02*
X137057142Y-102326190D01*
X136938095Y-101802380D02*
X136819047Y-102159523D01*
X137128571Y-102159523D01*
X137319047Y-102326190D02*
X137319047Y-101826190D01*
X137604761Y-102326190D02*
X137390476Y-102040476D01*
X137604761Y-101826190D02*
X137319047Y-102111904D01*
X137771428Y-101826190D02*
X138104761Y-101826190D01*
X137890476Y-102326190D01*
G04 #@! TO.C,R3*
X136766666Y-98226190D02*
X136600000Y-97988095D01*
X136480952Y-98226190D02*
X136480952Y-97726190D01*
X136671428Y-97726190D01*
X136719047Y-97750000D01*
X136742857Y-97773809D01*
X136766666Y-97821428D01*
X136766666Y-97892857D01*
X136742857Y-97940476D01*
X136719047Y-97964285D01*
X136671428Y-97988095D01*
X136480952Y-97988095D01*
X136933333Y-97726190D02*
X137242857Y-97726190D01*
X137076190Y-97916666D01*
X137147619Y-97916666D01*
X137195238Y-97940476D01*
X137219047Y-97964285D01*
X137242857Y-98011904D01*
X137242857Y-98130952D01*
X137219047Y-98178571D01*
X137195238Y-98202380D01*
X137147619Y-98226190D01*
X137004761Y-98226190D01*
X136957142Y-98202380D01*
X136933333Y-98178571D01*
X136826190Y-98826190D02*
X136873809Y-98826190D01*
X136921428Y-98850000D01*
X136945238Y-98873809D01*
X136969047Y-98921428D01*
X136992857Y-99016666D01*
X136992857Y-99135714D01*
X136969047Y-99230952D01*
X136945238Y-99278571D01*
X136921428Y-99302380D01*
X136873809Y-99326190D01*
X136826190Y-99326190D01*
X136778571Y-99302380D01*
X136754761Y-99278571D01*
X136730952Y-99230952D01*
X136707142Y-99135714D01*
X136707142Y-99016666D01*
X136730952Y-98921428D01*
X136754761Y-98873809D01*
X136778571Y-98850000D01*
X136826190Y-98826190D01*
G04 #@! TO.C,J1*
X150126190Y-77366666D02*
X150483333Y-77366666D01*
X150554761Y-77390476D01*
X150602380Y-77438095D01*
X150626190Y-77509523D01*
X150626190Y-77557142D01*
X150626190Y-76866666D02*
X150626190Y-77152380D01*
X150626190Y-77009523D02*
X150126190Y-77009523D01*
X150197619Y-77057142D01*
X150245238Y-77104761D01*
X150269047Y-77152380D01*
X150602380Y-76278571D02*
X150626190Y-76207142D01*
X150626190Y-76088095D01*
X150602380Y-76040476D01*
X150578571Y-76016666D01*
X150530952Y-75992857D01*
X150483333Y-75992857D01*
X150435714Y-76016666D01*
X150411904Y-76040476D01*
X150388095Y-76088095D01*
X150364285Y-76183333D01*
X150340476Y-76230952D01*
X150316666Y-76254761D01*
X150269047Y-76278571D01*
X150221428Y-76278571D01*
X150173809Y-76254761D01*
X150150000Y-76230952D01*
X150126190Y-76183333D01*
X150126190Y-76064285D01*
X150150000Y-75992857D01*
X150126190Y-75826190D02*
X150626190Y-75707142D01*
X150269047Y-75611904D01*
X150626190Y-75516666D01*
X150126190Y-75397619D01*
X150626190Y-75207142D02*
X150126190Y-75207142D01*
X150126190Y-75088095D01*
X150150000Y-75016666D01*
X150197619Y-74969047D01*
X150245238Y-74945238D01*
X150340476Y-74921428D01*
X150411904Y-74921428D01*
X150507142Y-74945238D01*
X150554761Y-74969047D01*
X150602380Y-75016666D01*
X150626190Y-75088095D01*
X150626190Y-75207142D01*
G04 #@! TO.C,L2*
X156416666Y-111026190D02*
X156178571Y-111026190D01*
X156178571Y-110526190D01*
X156559523Y-110573809D02*
X156583333Y-110550000D01*
X156630952Y-110526190D01*
X156750000Y-110526190D01*
X156797619Y-110550000D01*
X156821428Y-110573809D01*
X156845238Y-110621428D01*
X156845238Y-110669047D01*
X156821428Y-110740476D01*
X156535714Y-111026190D01*
X156845238Y-111026190D01*
X157616666Y-111026190D02*
X157330952Y-111026190D01*
X157473809Y-111026190D02*
X157473809Y-110526190D01*
X157426190Y-110597619D01*
X157378571Y-110645238D01*
X157330952Y-110669047D01*
X158069047Y-110526190D02*
X157830952Y-110526190D01*
X157807142Y-110764285D01*
X157830952Y-110740476D01*
X157878571Y-110716666D01*
X157997619Y-110716666D01*
X158045238Y-110740476D01*
X158069047Y-110764285D01*
X158092857Y-110811904D01*
X158092857Y-110930952D01*
X158069047Y-110978571D01*
X158045238Y-111002380D01*
X157997619Y-111026190D01*
X157878571Y-111026190D01*
X157830952Y-111002380D01*
X157807142Y-110978571D01*
X158521428Y-110692857D02*
X158521428Y-111026190D01*
X158307142Y-110692857D02*
X158307142Y-110954761D01*
X158330952Y-111002380D01*
X158378571Y-111026190D01*
X158450000Y-111026190D01*
X158497619Y-111002380D01*
X158521428Y-110978571D01*
X158759523Y-111026190D02*
X158759523Y-110526190D01*
X158759523Y-110764285D02*
X159045238Y-110764285D01*
X159045238Y-111026190D02*
X159045238Y-110526190D01*
G04 #@! TO.C,D2*
X155130952Y-111976190D02*
X155130952Y-111476190D01*
X155250000Y-111476190D01*
X155321428Y-111500000D01*
X155369047Y-111547619D01*
X155392857Y-111595238D01*
X155416666Y-111690476D01*
X155416666Y-111761904D01*
X155392857Y-111857142D01*
X155369047Y-111904761D01*
X155321428Y-111952380D01*
X155250000Y-111976190D01*
X155130952Y-111976190D01*
X155607142Y-111523809D02*
X155630952Y-111500000D01*
X155678571Y-111476190D01*
X155797619Y-111476190D01*
X155845238Y-111500000D01*
X155869047Y-111523809D01*
X155892857Y-111571428D01*
X155892857Y-111619047D01*
X155869047Y-111690476D01*
X155583333Y-111976190D01*
X155892857Y-111976190D01*
X153857142Y-112802380D02*
X153928571Y-112826190D01*
X154047619Y-112826190D01*
X154095238Y-112802380D01*
X154119047Y-112778571D01*
X154142857Y-112730952D01*
X154142857Y-112683333D01*
X154119047Y-112635714D01*
X154095238Y-112611904D01*
X154047619Y-112588095D01*
X153952380Y-112564285D01*
X153904761Y-112540476D01*
X153880952Y-112516666D01*
X153857142Y-112469047D01*
X153857142Y-112421428D01*
X153880952Y-112373809D01*
X153904761Y-112350000D01*
X153952380Y-112326190D01*
X154071428Y-112326190D01*
X154142857Y-112350000D01*
X154333333Y-112802380D02*
X154404761Y-112826190D01*
X154523809Y-112826190D01*
X154571428Y-112802380D01*
X154595238Y-112778571D01*
X154619047Y-112730952D01*
X154619047Y-112683333D01*
X154595238Y-112635714D01*
X154571428Y-112611904D01*
X154523809Y-112588095D01*
X154428571Y-112564285D01*
X154380952Y-112540476D01*
X154357142Y-112516666D01*
X154333333Y-112469047D01*
X154333333Y-112421428D01*
X154357142Y-112373809D01*
X154380952Y-112350000D01*
X154428571Y-112326190D01*
X154547619Y-112326190D01*
X154619047Y-112350000D01*
X155095238Y-112826190D02*
X154809523Y-112826190D01*
X154952380Y-112826190D02*
X154952380Y-112326190D01*
X154904761Y-112397619D01*
X154857142Y-112445238D01*
X154809523Y-112469047D01*
X155523809Y-112492857D02*
X155523809Y-112826190D01*
X155404761Y-112302380D02*
X155285714Y-112659523D01*
X155595238Y-112659523D01*
X155785714Y-112826190D02*
X155785714Y-112326190D01*
X155952380Y-112683333D01*
X156119047Y-112326190D01*
X156119047Y-112826190D01*
G04 #@! TO.C,R2*
X144976190Y-111483333D02*
X144738095Y-111650000D01*
X144976190Y-111769047D02*
X144476190Y-111769047D01*
X144476190Y-111578571D01*
X144500000Y-111530952D01*
X144523809Y-111507142D01*
X144571428Y-111483333D01*
X144642857Y-111483333D01*
X144690476Y-111507142D01*
X144714285Y-111530952D01*
X144738095Y-111578571D01*
X144738095Y-111769047D01*
X144523809Y-111292857D02*
X144500000Y-111269047D01*
X144476190Y-111221428D01*
X144476190Y-111102380D01*
X144500000Y-111054761D01*
X144523809Y-111030952D01*
X144571428Y-111007142D01*
X144619047Y-111007142D01*
X144690476Y-111030952D01*
X144976190Y-111316666D01*
X144976190Y-111007142D01*
X145726190Y-111845238D02*
X145726190Y-112130952D01*
X145726190Y-111988095D02*
X145226190Y-111988095D01*
X145297619Y-112035714D01*
X145345238Y-112083333D01*
X145369047Y-112130952D01*
X145226190Y-111535714D02*
X145226190Y-111488095D01*
X145250000Y-111440476D01*
X145273809Y-111416666D01*
X145321428Y-111392857D01*
X145416666Y-111369047D01*
X145535714Y-111369047D01*
X145630952Y-111392857D01*
X145678571Y-111416666D01*
X145702380Y-111440476D01*
X145726190Y-111488095D01*
X145726190Y-111535714D01*
X145702380Y-111583333D01*
X145678571Y-111607142D01*
X145630952Y-111630952D01*
X145535714Y-111654761D01*
X145416666Y-111654761D01*
X145321428Y-111630952D01*
X145273809Y-111607142D01*
X145250000Y-111583333D01*
X145226190Y-111535714D01*
X145726190Y-111154761D02*
X145226190Y-111154761D01*
X145726190Y-110869047D02*
X145440476Y-111083333D01*
X145226190Y-110869047D02*
X145511904Y-111154761D01*
G04 #@! TO.C,U2*
X145369047Y-106226190D02*
X145369047Y-106630952D01*
X145392857Y-106678571D01*
X145416666Y-106702380D01*
X145464285Y-106726190D01*
X145559523Y-106726190D01*
X145607142Y-106702380D01*
X145630952Y-106678571D01*
X145654761Y-106630952D01*
X145654761Y-106226190D01*
X145869047Y-106273809D02*
X145892857Y-106250000D01*
X145940476Y-106226190D01*
X146059523Y-106226190D01*
X146107142Y-106250000D01*
X146130952Y-106273809D01*
X146154761Y-106321428D01*
X146154761Y-106369047D01*
X146130952Y-106440476D01*
X145845238Y-106726190D01*
X146154761Y-106726190D01*
X146642857Y-106726190D02*
X146642857Y-106226190D01*
X146809523Y-106583333D01*
X146976190Y-106226190D01*
X146976190Y-106726190D01*
X147500000Y-106678571D02*
X147476190Y-106702380D01*
X147404761Y-106726190D01*
X147357142Y-106726190D01*
X147285714Y-106702380D01*
X147238095Y-106654761D01*
X147214285Y-106607142D01*
X147190476Y-106511904D01*
X147190476Y-106440476D01*
X147214285Y-106345238D01*
X147238095Y-106297619D01*
X147285714Y-106250000D01*
X147357142Y-106226190D01*
X147404761Y-106226190D01*
X147476190Y-106250000D01*
X147500000Y-106273809D01*
X147714285Y-106726190D02*
X147714285Y-106226190D01*
X147904761Y-106226190D01*
X147952380Y-106250000D01*
X147976190Y-106273809D01*
X148000000Y-106321428D01*
X148000000Y-106392857D01*
X147976190Y-106440476D01*
X147952380Y-106464285D01*
X147904761Y-106488095D01*
X147714285Y-106488095D01*
X148476190Y-106726190D02*
X148190476Y-106726190D01*
X148333333Y-106726190D02*
X148333333Y-106226190D01*
X148285714Y-106297619D01*
X148238095Y-106345238D01*
X148190476Y-106369047D01*
X148904761Y-106226190D02*
X148809523Y-106226190D01*
X148761904Y-106250000D01*
X148738095Y-106273809D01*
X148690476Y-106345238D01*
X148666666Y-106440476D01*
X148666666Y-106630952D01*
X148690476Y-106678571D01*
X148714285Y-106702380D01*
X148761904Y-106726190D01*
X148857142Y-106726190D01*
X148904761Y-106702380D01*
X148928571Y-106678571D01*
X148952380Y-106630952D01*
X148952380Y-106511904D01*
X148928571Y-106464285D01*
X148904761Y-106440476D01*
X148857142Y-106416666D01*
X148761904Y-106416666D01*
X148714285Y-106440476D01*
X148690476Y-106464285D01*
X148666666Y-106511904D01*
X149119047Y-106226190D02*
X149428571Y-106226190D01*
X149261904Y-106416666D01*
X149333333Y-106416666D01*
X149380952Y-106440476D01*
X149404761Y-106464285D01*
X149428571Y-106511904D01*
X149428571Y-106630952D01*
X149404761Y-106678571D01*
X149380952Y-106702380D01*
X149333333Y-106726190D01*
X149190476Y-106726190D01*
X149142857Y-106702380D01*
X149119047Y-106678571D01*
X149738095Y-106226190D02*
X149785714Y-106226190D01*
X149833333Y-106250000D01*
X149857142Y-106273809D01*
X149880952Y-106321428D01*
X149904761Y-106416666D01*
X149904761Y-106535714D01*
X149880952Y-106630952D01*
X149857142Y-106678571D01*
X149833333Y-106702380D01*
X149785714Y-106726190D01*
X149738095Y-106726190D01*
X149690476Y-106702380D01*
X149666666Y-106678571D01*
X149642857Y-106630952D01*
X149619047Y-106535714D01*
X149619047Y-106416666D01*
X149642857Y-106321428D01*
X149666666Y-106273809D01*
X149690476Y-106250000D01*
X149738095Y-106226190D01*
X150380952Y-106726190D02*
X150095238Y-106726190D01*
X150238095Y-106726190D02*
X150238095Y-106226190D01*
X150190476Y-106297619D01*
X150142857Y-106345238D01*
X150095238Y-106369047D01*
G04 #@! TO.C,C7*
X147916666Y-104378571D02*
X147892857Y-104402380D01*
X147821428Y-104426190D01*
X147773809Y-104426190D01*
X147702380Y-104402380D01*
X147654761Y-104354761D01*
X147630952Y-104307142D01*
X147607142Y-104211904D01*
X147607142Y-104140476D01*
X147630952Y-104045238D01*
X147654761Y-103997619D01*
X147702380Y-103950000D01*
X147773809Y-103926190D01*
X147821428Y-103926190D01*
X147892857Y-103950000D01*
X147916666Y-103973809D01*
X148083333Y-103926190D02*
X148416666Y-103926190D01*
X148202380Y-104426190D01*
X149192857Y-103973809D02*
X149216666Y-103950000D01*
X149264285Y-103926190D01*
X149383333Y-103926190D01*
X149430952Y-103950000D01*
X149454761Y-103973809D01*
X149478571Y-104021428D01*
X149478571Y-104069047D01*
X149454761Y-104140476D01*
X149169047Y-104426190D01*
X149478571Y-104426190D01*
X149669047Y-103973809D02*
X149692857Y-103950000D01*
X149740476Y-103926190D01*
X149859523Y-103926190D01*
X149907142Y-103950000D01*
X149930952Y-103973809D01*
X149954761Y-104021428D01*
X149954761Y-104069047D01*
X149930952Y-104140476D01*
X149645238Y-104426190D01*
X149954761Y-104426190D01*
X150383333Y-104092857D02*
X150383333Y-104426190D01*
X150169047Y-104092857D02*
X150169047Y-104354761D01*
X150192857Y-104402380D01*
X150240476Y-104426190D01*
X150311904Y-104426190D01*
X150359523Y-104402380D01*
X150383333Y-104378571D01*
G04 #@! TO.C,C9*
X153178571Y-113083333D02*
X153202380Y-113107142D01*
X153226190Y-113178571D01*
X153226190Y-113226190D01*
X153202380Y-113297619D01*
X153154761Y-113345238D01*
X153107142Y-113369047D01*
X153011904Y-113392857D01*
X152940476Y-113392857D01*
X152845238Y-113369047D01*
X152797619Y-113345238D01*
X152750000Y-113297619D01*
X152726190Y-113226190D01*
X152726190Y-113178571D01*
X152750000Y-113107142D01*
X152773809Y-113083333D01*
X153226190Y-112845238D02*
X153226190Y-112750000D01*
X153202380Y-112702380D01*
X153178571Y-112678571D01*
X153107142Y-112630952D01*
X153011904Y-112607142D01*
X152821428Y-112607142D01*
X152773809Y-112630952D01*
X152750000Y-112654761D01*
X152726190Y-112702380D01*
X152726190Y-112797619D01*
X152750000Y-112845238D01*
X152773809Y-112869047D01*
X152821428Y-112892857D01*
X152940476Y-112892857D01*
X152988095Y-112869047D01*
X153011904Y-112845238D01*
X153035714Y-112797619D01*
X153035714Y-112702380D01*
X153011904Y-112654761D01*
X152988095Y-112630952D01*
X152940476Y-112607142D01*
X153226190Y-111809523D02*
X153226190Y-112095238D01*
X153226190Y-111952380D02*
X152726190Y-111952380D01*
X152797619Y-112000000D01*
X152845238Y-112047619D01*
X152869047Y-112095238D01*
X152726190Y-111500000D02*
X152726190Y-111452380D01*
X152750000Y-111404761D01*
X152773809Y-111380952D01*
X152821428Y-111357142D01*
X152916666Y-111333333D01*
X153035714Y-111333333D01*
X153130952Y-111357142D01*
X153178571Y-111380952D01*
X153202380Y-111404761D01*
X153226190Y-111452380D01*
X153226190Y-111500000D01*
X153202380Y-111547619D01*
X153178571Y-111571428D01*
X153130952Y-111595238D01*
X153035714Y-111619047D01*
X152916666Y-111619047D01*
X152821428Y-111595238D01*
X152773809Y-111571428D01*
X152750000Y-111547619D01*
X152726190Y-111500000D01*
X152726190Y-111023809D02*
X152726190Y-110976190D01*
X152750000Y-110928571D01*
X152773809Y-110904761D01*
X152821428Y-110880952D01*
X152916666Y-110857142D01*
X153035714Y-110857142D01*
X153130952Y-110880952D01*
X153178571Y-110904761D01*
X153202380Y-110928571D01*
X153226190Y-110976190D01*
X153226190Y-111023809D01*
X153202380Y-111071428D01*
X153178571Y-111095238D01*
X153130952Y-111119047D01*
X153035714Y-111142857D01*
X152916666Y-111142857D01*
X152821428Y-111119047D01*
X152773809Y-111095238D01*
X152750000Y-111071428D01*
X152726190Y-111023809D01*
X152892857Y-110642857D02*
X153226190Y-110642857D01*
X152940476Y-110642857D02*
X152916666Y-110619047D01*
X152892857Y-110571428D01*
X152892857Y-110500000D01*
X152916666Y-110452380D01*
X152964285Y-110428571D01*
X153226190Y-110428571D01*
G04 #@! TO.C,D1*
X151130952Y-103726190D02*
X151130952Y-103226190D01*
X151250000Y-103226190D01*
X151321428Y-103250000D01*
X151369047Y-103297619D01*
X151392857Y-103345238D01*
X151416666Y-103440476D01*
X151416666Y-103511904D01*
X151392857Y-103607142D01*
X151369047Y-103654761D01*
X151321428Y-103702380D01*
X151250000Y-103726190D01*
X151130952Y-103726190D01*
X151892857Y-103726190D02*
X151607142Y-103726190D01*
X151750000Y-103726190D02*
X151750000Y-103226190D01*
X151702380Y-103297619D01*
X151654761Y-103345238D01*
X151607142Y-103369047D01*
X151178571Y-104476190D02*
X150892857Y-104476190D01*
X151035714Y-104476190D02*
X151035714Y-103976190D01*
X150988095Y-104047619D01*
X150940476Y-104095238D01*
X150892857Y-104119047D01*
X151392857Y-104476190D02*
X151392857Y-103976190D01*
X151678571Y-104476190D01*
X151678571Y-103976190D01*
X152130952Y-104142857D02*
X152130952Y-104476190D01*
X152011904Y-103952380D02*
X151892857Y-104309523D01*
X152202380Y-104309523D01*
X152654761Y-104476190D02*
X152369047Y-104476190D01*
X152511904Y-104476190D02*
X152511904Y-103976190D01*
X152464285Y-104047619D01*
X152416666Y-104095238D01*
X152369047Y-104119047D01*
X153083333Y-104142857D02*
X153083333Y-104476190D01*
X152964285Y-103952380D02*
X152845238Y-104309523D01*
X153154761Y-104309523D01*
X153416666Y-104190476D02*
X153369047Y-104166666D01*
X153345238Y-104142857D01*
X153321428Y-104095238D01*
X153321428Y-104071428D01*
X153345238Y-104023809D01*
X153369047Y-104000000D01*
X153416666Y-103976190D01*
X153511904Y-103976190D01*
X153559523Y-104000000D01*
X153583333Y-104023809D01*
X153607142Y-104071428D01*
X153607142Y-104095238D01*
X153583333Y-104142857D01*
X153559523Y-104166666D01*
X153511904Y-104190476D01*
X153416666Y-104190476D01*
X153369047Y-104214285D01*
X153345238Y-104238095D01*
X153321428Y-104285714D01*
X153321428Y-104380952D01*
X153345238Y-104428571D01*
X153369047Y-104452380D01*
X153416666Y-104476190D01*
X153511904Y-104476190D01*
X153559523Y-104452380D01*
X153583333Y-104428571D01*
X153607142Y-104380952D01*
X153607142Y-104285714D01*
X153583333Y-104238095D01*
X153559523Y-104214285D01*
X153511904Y-104190476D01*
G04 #@! TO.C,R1*
X147426190Y-111683333D02*
X147188095Y-111850000D01*
X147426190Y-111969047D02*
X146926190Y-111969047D01*
X146926190Y-111778571D01*
X146950000Y-111730952D01*
X146973809Y-111707142D01*
X147021428Y-111683333D01*
X147092857Y-111683333D01*
X147140476Y-111707142D01*
X147164285Y-111730952D01*
X147188095Y-111778571D01*
X147188095Y-111969047D01*
X147426190Y-111207142D02*
X147426190Y-111492857D01*
X147426190Y-111350000D02*
X146926190Y-111350000D01*
X146997619Y-111397619D01*
X147045238Y-111445238D01*
X147069047Y-111492857D01*
X147626190Y-112492857D02*
X147626190Y-112183333D01*
X147816666Y-112350000D01*
X147816666Y-112278571D01*
X147840476Y-112230952D01*
X147864285Y-112207142D01*
X147911904Y-112183333D01*
X148030952Y-112183333D01*
X148078571Y-112207142D01*
X148102380Y-112230952D01*
X148126190Y-112278571D01*
X148126190Y-112421428D01*
X148102380Y-112469047D01*
X148078571Y-112492857D01*
X148126190Y-111707142D02*
X148126190Y-111992857D01*
X148126190Y-111850000D02*
X147626190Y-111850000D01*
X147697619Y-111897619D01*
X147745238Y-111945238D01*
X147769047Y-111992857D01*
X148126190Y-111492857D02*
X147626190Y-111492857D01*
X148126190Y-111207142D02*
X147840476Y-111421428D01*
X147626190Y-111207142D02*
X147911904Y-111492857D01*
X147626190Y-110778571D02*
X147626190Y-110873809D01*
X147650000Y-110921428D01*
X147673809Y-110945238D01*
X147745238Y-110992857D01*
X147840476Y-111016666D01*
X148030952Y-111016666D01*
X148078571Y-110992857D01*
X148102380Y-110969047D01*
X148126190Y-110921428D01*
X148126190Y-110826190D01*
X148102380Y-110778571D01*
X148078571Y-110754761D01*
X148030952Y-110730952D01*
X147911904Y-110730952D01*
X147864285Y-110754761D01*
X147840476Y-110778571D01*
X147816666Y-110826190D01*
X147816666Y-110921428D01*
X147840476Y-110969047D01*
X147864285Y-110992857D01*
X147911904Y-111016666D01*
G04 #@! TO.C,R5*
X153416666Y-102426190D02*
X153250000Y-102188095D01*
X153130952Y-102426190D02*
X153130952Y-101926190D01*
X153321428Y-101926190D01*
X153369047Y-101950000D01*
X153392857Y-101973809D01*
X153416666Y-102021428D01*
X153416666Y-102092857D01*
X153392857Y-102140476D01*
X153369047Y-102164285D01*
X153321428Y-102188095D01*
X153130952Y-102188095D01*
X153869047Y-101926190D02*
X153630952Y-101926190D01*
X153607142Y-102164285D01*
X153630952Y-102140476D01*
X153678571Y-102116666D01*
X153797619Y-102116666D01*
X153845238Y-102140476D01*
X153869047Y-102164285D01*
X153892857Y-102211904D01*
X153892857Y-102330952D01*
X153869047Y-102378571D01*
X153845238Y-102402380D01*
X153797619Y-102426190D01*
X153678571Y-102426190D01*
X153630952Y-102402380D01*
X153607142Y-102378571D01*
X154602380Y-102426190D02*
X154316666Y-102426190D01*
X154459523Y-102426190D02*
X154459523Y-101926190D01*
X154411904Y-101997619D01*
X154364285Y-102045238D01*
X154316666Y-102069047D01*
X154816666Y-102426190D02*
X154816666Y-101926190D01*
X155102380Y-102426190D02*
X154888095Y-102140476D01*
X155102380Y-101926190D02*
X154816666Y-102211904D01*
X155388095Y-101926190D02*
X155388095Y-102045238D01*
X155269047Y-101997619D02*
X155388095Y-102045238D01*
X155507142Y-101997619D01*
X155316666Y-102140476D02*
X155388095Y-102045238D01*
X155459523Y-102140476D01*
G04 #@! TO.C,R6*
X157016666Y-102426190D02*
X156850000Y-102188095D01*
X156730952Y-102426190D02*
X156730952Y-101926190D01*
X156921428Y-101926190D01*
X156969047Y-101950000D01*
X156992857Y-101973809D01*
X157016666Y-102021428D01*
X157016666Y-102092857D01*
X156992857Y-102140476D01*
X156969047Y-102164285D01*
X156921428Y-102188095D01*
X156730952Y-102188095D01*
X157445238Y-101926190D02*
X157350000Y-101926190D01*
X157302380Y-101950000D01*
X157278571Y-101973809D01*
X157230952Y-102045238D01*
X157207142Y-102140476D01*
X157207142Y-102330952D01*
X157230952Y-102378571D01*
X157254761Y-102402380D01*
X157302380Y-102426190D01*
X157397619Y-102426190D01*
X157445238Y-102402380D01*
X157469047Y-102378571D01*
X157492857Y-102330952D01*
X157492857Y-102211904D01*
X157469047Y-102164285D01*
X157445238Y-102140476D01*
X157397619Y-102116666D01*
X157302380Y-102116666D01*
X157254761Y-102140476D01*
X157230952Y-102164285D01*
X157207142Y-102211904D01*
X158202380Y-102426190D02*
X157916666Y-102426190D01*
X158059523Y-102426190D02*
X158059523Y-101926190D01*
X158011904Y-101997619D01*
X157964285Y-102045238D01*
X157916666Y-102069047D01*
X158416666Y-102426190D02*
X158416666Y-101926190D01*
X158702380Y-102426190D02*
X158488095Y-102140476D01*
X158702380Y-101926190D02*
X158416666Y-102211904D01*
X158988095Y-101926190D02*
X158988095Y-102045238D01*
X158869047Y-101997619D02*
X158988095Y-102045238D01*
X159107142Y-101997619D01*
X158916666Y-102140476D02*
X158988095Y-102045238D01*
X159059523Y-102140476D01*
G04 #@! TO.C,R7*
X130016666Y-102426190D02*
X129850000Y-102188095D01*
X129730952Y-102426190D02*
X129730952Y-101926190D01*
X129921428Y-101926190D01*
X129969047Y-101950000D01*
X129992857Y-101973809D01*
X130016666Y-102021428D01*
X130016666Y-102092857D01*
X129992857Y-102140476D01*
X129969047Y-102164285D01*
X129921428Y-102188095D01*
X129730952Y-102188095D01*
X130183333Y-101926190D02*
X130516666Y-101926190D01*
X130302380Y-102426190D01*
X131202380Y-102426190D02*
X130916666Y-102426190D01*
X131059523Y-102426190D02*
X131059523Y-101926190D01*
X131011904Y-101997619D01*
X130964285Y-102045238D01*
X130916666Y-102069047D01*
X131416666Y-102426190D02*
X131416666Y-101926190D01*
X131702380Y-102426190D02*
X131488095Y-102140476D01*
X131702380Y-101926190D02*
X131416666Y-102211904D01*
X131988095Y-101926190D02*
X131988095Y-102045238D01*
X131869047Y-101997619D02*
X131988095Y-102045238D01*
X132107142Y-101997619D01*
X131916666Y-102140476D02*
X131988095Y-102045238D01*
X132059523Y-102140476D01*
G04 #@! TO.C,R8*
X126166666Y-102426190D02*
X126000000Y-102188095D01*
X125880952Y-102426190D02*
X125880952Y-101926190D01*
X126071428Y-101926190D01*
X126119047Y-101950000D01*
X126142857Y-101973809D01*
X126166666Y-102021428D01*
X126166666Y-102092857D01*
X126142857Y-102140476D01*
X126119047Y-102164285D01*
X126071428Y-102188095D01*
X125880952Y-102188095D01*
X126452380Y-102140476D02*
X126404761Y-102116666D01*
X126380952Y-102092857D01*
X126357142Y-102045238D01*
X126357142Y-102021428D01*
X126380952Y-101973809D01*
X126404761Y-101950000D01*
X126452380Y-101926190D01*
X126547619Y-101926190D01*
X126595238Y-101950000D01*
X126619047Y-101973809D01*
X126642857Y-102021428D01*
X126642857Y-102045238D01*
X126619047Y-102092857D01*
X126595238Y-102116666D01*
X126547619Y-102140476D01*
X126452380Y-102140476D01*
X126404761Y-102164285D01*
X126380952Y-102188095D01*
X126357142Y-102235714D01*
X126357142Y-102330952D01*
X126380952Y-102378571D01*
X126404761Y-102402380D01*
X126452380Y-102426190D01*
X126547619Y-102426190D01*
X126595238Y-102402380D01*
X126619047Y-102378571D01*
X126642857Y-102330952D01*
X126642857Y-102235714D01*
X126619047Y-102188095D01*
X126595238Y-102164285D01*
X126547619Y-102140476D01*
X127452380Y-102426190D02*
X127166666Y-102426190D01*
X127309523Y-102426190D02*
X127309523Y-101926190D01*
X127261904Y-101997619D01*
X127214285Y-102045238D01*
X127166666Y-102069047D01*
X127666666Y-102426190D02*
X127666666Y-101926190D01*
X127952380Y-102426190D02*
X127738095Y-102140476D01*
X127952380Y-101926190D02*
X127666666Y-102211904D01*
X128238095Y-101926190D02*
X128238095Y-102045238D01*
X128119047Y-101997619D02*
X128238095Y-102045238D01*
X128357142Y-101997619D01*
X128166666Y-102140476D02*
X128238095Y-102045238D01*
X128309523Y-102140476D01*
G04 #@! TO.C,L1*
X144816666Y-105426190D02*
X144578571Y-105426190D01*
X144578571Y-104926190D01*
X145245238Y-105426190D02*
X144959523Y-105426190D01*
X145102380Y-105426190D02*
X145102380Y-104926190D01*
X145054761Y-104997619D01*
X145007142Y-105045238D01*
X144959523Y-105069047D01*
G04 #@! TO.C,P4*
D12*
X129557142Y-112471428D02*
X129557142Y-111871428D01*
X129785714Y-111871428D01*
X129842857Y-111900000D01*
X129871428Y-111928571D01*
X129900000Y-111985714D01*
X129900000Y-112071428D01*
X129871428Y-112128571D01*
X129842857Y-112157142D01*
X129785714Y-112185714D01*
X129557142Y-112185714D01*
X130414285Y-112071428D02*
X130414285Y-112471428D01*
X130271428Y-111842857D02*
X130128571Y-112271428D01*
X130500000Y-112271428D01*
X131085714Y-112471428D02*
X131085714Y-111871428D01*
X131314285Y-111871428D01*
X131371428Y-111900000D01*
X131400000Y-111928571D01*
X131428571Y-111985714D01*
X131428571Y-112071428D01*
X131400000Y-112128571D01*
X131371428Y-112157142D01*
X131314285Y-112185714D01*
X131085714Y-112185714D01*
X131771428Y-112471428D02*
X131714285Y-112442857D01*
X131685714Y-112414285D01*
X131657142Y-112357142D01*
X131657142Y-112185714D01*
X131685714Y-112128571D01*
X131714285Y-112100000D01*
X131771428Y-112071428D01*
X131857142Y-112071428D01*
X131914285Y-112100000D01*
X131942857Y-112128571D01*
X131971428Y-112185714D01*
X131971428Y-112357142D01*
X131942857Y-112414285D01*
X131914285Y-112442857D01*
X131857142Y-112471428D01*
X131771428Y-112471428D01*
X132171428Y-112071428D02*
X132285714Y-112471428D01*
X132400000Y-112185714D01*
X132514285Y-112471428D01*
X132628571Y-112071428D01*
X133085714Y-112442857D02*
X133028571Y-112471428D01*
X132914285Y-112471428D01*
X132857142Y-112442857D01*
X132828571Y-112385714D01*
X132828571Y-112157142D01*
X132857142Y-112100000D01*
X132914285Y-112071428D01*
X133028571Y-112071428D01*
X133085714Y-112100000D01*
X133114285Y-112157142D01*
X133114285Y-112214285D01*
X132828571Y-112271428D01*
X133371428Y-112471428D02*
X133371428Y-112071428D01*
X133371428Y-112185714D02*
X133400000Y-112128571D01*
X133428571Y-112100000D01*
X133485714Y-112071428D01*
X133542857Y-112071428D01*
X134400000Y-112157142D02*
X134485714Y-112185714D01*
X134514285Y-112214285D01*
X134542857Y-112271428D01*
X134542857Y-112357142D01*
X134514285Y-112414285D01*
X134485714Y-112442857D01*
X134428571Y-112471428D01*
X134200000Y-112471428D01*
X134200000Y-111871428D01*
X134400000Y-111871428D01*
X134457142Y-111900000D01*
X134485714Y-111928571D01*
X134514285Y-111985714D01*
X134514285Y-112042857D01*
X134485714Y-112100000D01*
X134457142Y-112128571D01*
X134400000Y-112157142D01*
X134200000Y-112157142D01*
X134885714Y-112471428D02*
X134828571Y-112442857D01*
X134800000Y-112414285D01*
X134771428Y-112357142D01*
X134771428Y-112185714D01*
X134800000Y-112128571D01*
X134828571Y-112100000D01*
X134885714Y-112071428D01*
X134971428Y-112071428D01*
X135028571Y-112100000D01*
X135057142Y-112128571D01*
X135085714Y-112185714D01*
X135085714Y-112357142D01*
X135057142Y-112414285D01*
X135028571Y-112442857D01*
X134971428Y-112471428D01*
X134885714Y-112471428D01*
X135600000Y-112471428D02*
X135600000Y-112157142D01*
X135571428Y-112100000D01*
X135514285Y-112071428D01*
X135400000Y-112071428D01*
X135342857Y-112100000D01*
X135600000Y-112442857D02*
X135542857Y-112471428D01*
X135400000Y-112471428D01*
X135342857Y-112442857D01*
X135314285Y-112385714D01*
X135314285Y-112328571D01*
X135342857Y-112271428D01*
X135400000Y-112242857D01*
X135542857Y-112242857D01*
X135600000Y-112214285D01*
X135885714Y-112471428D02*
X135885714Y-112071428D01*
X135885714Y-112185714D02*
X135914285Y-112128571D01*
X135942857Y-112100000D01*
X136000000Y-112071428D01*
X136057142Y-112071428D01*
X136514285Y-112471428D02*
X136514285Y-111871428D01*
X136514285Y-112442857D02*
X136457142Y-112471428D01*
X136342857Y-112471428D01*
X136285714Y-112442857D01*
X136257142Y-112414285D01*
X136228571Y-112357142D01*
X136228571Y-112185714D01*
X136257142Y-112128571D01*
X136285714Y-112100000D01*
X136342857Y-112071428D01*
X136457142Y-112071428D01*
X136514285Y-112100000D01*
G04 #@! TO.C,C1*
D11*
X132178571Y-81083333D02*
X132202380Y-81107142D01*
X132226190Y-81178571D01*
X132226190Y-81226190D01*
X132202380Y-81297619D01*
X132154761Y-81345238D01*
X132107142Y-81369047D01*
X132011904Y-81392857D01*
X131940476Y-81392857D01*
X131845238Y-81369047D01*
X131797619Y-81345238D01*
X131750000Y-81297619D01*
X131726190Y-81226190D01*
X131726190Y-81178571D01*
X131750000Y-81107142D01*
X131773809Y-81083333D01*
X132226190Y-80607142D02*
X132226190Y-80892857D01*
X132226190Y-80750000D02*
X131726190Y-80750000D01*
X131797619Y-80797619D01*
X131845238Y-80845238D01*
X131869047Y-80892857D01*
X133026190Y-81321428D02*
X133026190Y-81607142D01*
X133026190Y-81464285D02*
X132526190Y-81464285D01*
X132597619Y-81511904D01*
X132645238Y-81559523D01*
X132669047Y-81607142D01*
X132526190Y-81011904D02*
X132526190Y-80964285D01*
X132550000Y-80916666D01*
X132573809Y-80892857D01*
X132621428Y-80869047D01*
X132716666Y-80845238D01*
X132835714Y-80845238D01*
X132930952Y-80869047D01*
X132978571Y-80892857D01*
X133002380Y-80916666D01*
X133026190Y-80964285D01*
X133026190Y-81011904D01*
X133002380Y-81059523D01*
X132978571Y-81083333D01*
X132930952Y-81107142D01*
X132835714Y-81130952D01*
X132716666Y-81130952D01*
X132621428Y-81107142D01*
X132573809Y-81083333D01*
X132550000Y-81059523D01*
X132526190Y-81011904D01*
X132692857Y-80416666D02*
X133026190Y-80416666D01*
X132692857Y-80630952D02*
X132954761Y-80630952D01*
X133002380Y-80607142D01*
X133026190Y-80559523D01*
X133026190Y-80488095D01*
X133002380Y-80440476D01*
X132978571Y-80416666D01*
G04 #@! TO.C,C2*
X134378571Y-80483333D02*
X134402380Y-80507142D01*
X134426190Y-80578571D01*
X134426190Y-80626190D01*
X134402380Y-80697619D01*
X134354761Y-80745238D01*
X134307142Y-80769047D01*
X134211904Y-80792857D01*
X134140476Y-80792857D01*
X134045238Y-80769047D01*
X133997619Y-80745238D01*
X133950000Y-80697619D01*
X133926190Y-80626190D01*
X133926190Y-80578571D01*
X133950000Y-80507142D01*
X133973809Y-80483333D01*
X133973809Y-80292857D02*
X133950000Y-80269047D01*
X133926190Y-80221428D01*
X133926190Y-80102380D01*
X133950000Y-80054761D01*
X133973809Y-80030952D01*
X134021428Y-80007142D01*
X134069047Y-80007142D01*
X134140476Y-80030952D01*
X134426190Y-80316666D01*
X134426190Y-80007142D01*
X135226190Y-81159523D02*
X135226190Y-81445238D01*
X135226190Y-81302380D02*
X134726190Y-81302380D01*
X134797619Y-81350000D01*
X134845238Y-81397619D01*
X134869047Y-81445238D01*
X134726190Y-80850000D02*
X134726190Y-80802380D01*
X134750000Y-80754761D01*
X134773809Y-80730952D01*
X134821428Y-80707142D01*
X134916666Y-80683333D01*
X135035714Y-80683333D01*
X135130952Y-80707142D01*
X135178571Y-80730952D01*
X135202380Y-80754761D01*
X135226190Y-80802380D01*
X135226190Y-80850000D01*
X135202380Y-80897619D01*
X135178571Y-80921428D01*
X135130952Y-80945238D01*
X135035714Y-80969047D01*
X134916666Y-80969047D01*
X134821428Y-80945238D01*
X134773809Y-80921428D01*
X134750000Y-80897619D01*
X134726190Y-80850000D01*
X134726190Y-80373809D02*
X134726190Y-80326190D01*
X134750000Y-80278571D01*
X134773809Y-80254761D01*
X134821428Y-80230952D01*
X134916666Y-80207142D01*
X135035714Y-80207142D01*
X135130952Y-80230952D01*
X135178571Y-80254761D01*
X135202380Y-80278571D01*
X135226190Y-80326190D01*
X135226190Y-80373809D01*
X135202380Y-80421428D01*
X135178571Y-80445238D01*
X135130952Y-80469047D01*
X135035714Y-80492857D01*
X134916666Y-80492857D01*
X134821428Y-80469047D01*
X134773809Y-80445238D01*
X134750000Y-80421428D01*
X134726190Y-80373809D01*
X134892857Y-79992857D02*
X135226190Y-79992857D01*
X134940476Y-79992857D02*
X134916666Y-79969047D01*
X134892857Y-79921428D01*
X134892857Y-79850000D01*
X134916666Y-79802380D01*
X134964285Y-79778571D01*
X135226190Y-79778571D01*
G04 #@! TO.C,C10*
X147578571Y-113278571D02*
X147554761Y-113302380D01*
X147483333Y-113326190D01*
X147435714Y-113326190D01*
X147364285Y-113302380D01*
X147316666Y-113254761D01*
X147292857Y-113207142D01*
X147269047Y-113111904D01*
X147269047Y-113040476D01*
X147292857Y-112945238D01*
X147316666Y-112897619D01*
X147364285Y-112850000D01*
X147435714Y-112826190D01*
X147483333Y-112826190D01*
X147554761Y-112850000D01*
X147578571Y-112873809D01*
X148054761Y-113326190D02*
X147769047Y-113326190D01*
X147911904Y-113326190D02*
X147911904Y-112826190D01*
X147864285Y-112897619D01*
X147816666Y-112945238D01*
X147769047Y-112969047D01*
X148364285Y-112826190D02*
X148411904Y-112826190D01*
X148459523Y-112850000D01*
X148483333Y-112873809D01*
X148507142Y-112921428D01*
X148530952Y-113016666D01*
X148530952Y-113135714D01*
X148507142Y-113230952D01*
X148483333Y-113278571D01*
X148459523Y-113302380D01*
X148411904Y-113326190D01*
X148364285Y-113326190D01*
X148316666Y-113302380D01*
X148292857Y-113278571D01*
X148269047Y-113230952D01*
X148245238Y-113135714D01*
X148245238Y-113016666D01*
X148269047Y-112921428D01*
X148292857Y-112873809D01*
X148316666Y-112850000D01*
X148364285Y-112826190D01*
X149626190Y-113326190D02*
X149340476Y-113326190D01*
X149483333Y-113326190D02*
X149483333Y-112826190D01*
X149435714Y-112897619D01*
X149388095Y-112945238D01*
X149340476Y-112969047D01*
X149935714Y-112826190D02*
X149983333Y-112826190D01*
X150030952Y-112850000D01*
X150054761Y-112873809D01*
X150078571Y-112921428D01*
X150102380Y-113016666D01*
X150102380Y-113135714D01*
X150078571Y-113230952D01*
X150054761Y-113278571D01*
X150030952Y-113302380D01*
X149983333Y-113326190D01*
X149935714Y-113326190D01*
X149888095Y-113302380D01*
X149864285Y-113278571D01*
X149840476Y-113230952D01*
X149816666Y-113135714D01*
X149816666Y-113016666D01*
X149840476Y-112921428D01*
X149864285Y-112873809D01*
X149888095Y-112850000D01*
X149935714Y-112826190D01*
X150530952Y-112992857D02*
X150530952Y-113326190D01*
X150316666Y-112992857D02*
X150316666Y-113254761D01*
X150340476Y-113302380D01*
X150388095Y-113326190D01*
X150459523Y-113326190D01*
X150507142Y-113302380D01*
X150530952Y-113278571D01*
X151126190Y-112802380D02*
X150697619Y-113445238D01*
X151269047Y-112873809D02*
X151292857Y-112850000D01*
X151340476Y-112826190D01*
X151459523Y-112826190D01*
X151507142Y-112850000D01*
X151530952Y-112873809D01*
X151554761Y-112921428D01*
X151554761Y-112969047D01*
X151530952Y-113040476D01*
X151245238Y-113326190D01*
X151554761Y-113326190D01*
X152007142Y-112826190D02*
X151769047Y-112826190D01*
X151745238Y-113064285D01*
X151769047Y-113040476D01*
X151816666Y-113016666D01*
X151935714Y-113016666D01*
X151983333Y-113040476D01*
X152007142Y-113064285D01*
X152030952Y-113111904D01*
X152030952Y-113230952D01*
X152007142Y-113278571D01*
X151983333Y-113302380D01*
X151935714Y-113326190D01*
X151816666Y-113326190D01*
X151769047Y-113302380D01*
X151745238Y-113278571D01*
X152173809Y-112826190D02*
X152340476Y-113326190D01*
X152507142Y-112826190D01*
G04 #@! TO.C,C3*
X134516666Y-104678571D02*
X134492857Y-104702380D01*
X134421428Y-104726190D01*
X134373809Y-104726190D01*
X134302380Y-104702380D01*
X134254761Y-104654761D01*
X134230952Y-104607142D01*
X134207142Y-104511904D01*
X134207142Y-104440476D01*
X134230952Y-104345238D01*
X134254761Y-104297619D01*
X134302380Y-104250000D01*
X134373809Y-104226190D01*
X134421428Y-104226190D01*
X134492857Y-104250000D01*
X134516666Y-104273809D01*
X134683333Y-104226190D02*
X134992857Y-104226190D01*
X134826190Y-104416666D01*
X134897619Y-104416666D01*
X134945238Y-104440476D01*
X134969047Y-104464285D01*
X134992857Y-104511904D01*
X134992857Y-104630952D01*
X134969047Y-104678571D01*
X134945238Y-104702380D01*
X134897619Y-104726190D01*
X134754761Y-104726190D01*
X134707142Y-104702380D01*
X134683333Y-104678571D01*
X133940476Y-105526190D02*
X133654761Y-105526190D01*
X133797619Y-105526190D02*
X133797619Y-105026190D01*
X133750000Y-105097619D01*
X133702380Y-105145238D01*
X133654761Y-105169047D01*
X134250000Y-105026190D02*
X134297619Y-105026190D01*
X134345238Y-105050000D01*
X134369047Y-105073809D01*
X134392857Y-105121428D01*
X134416666Y-105216666D01*
X134416666Y-105335714D01*
X134392857Y-105430952D01*
X134369047Y-105478571D01*
X134345238Y-105502380D01*
X134297619Y-105526190D01*
X134250000Y-105526190D01*
X134202380Y-105502380D01*
X134178571Y-105478571D01*
X134154761Y-105430952D01*
X134130952Y-105335714D01*
X134130952Y-105216666D01*
X134154761Y-105121428D01*
X134178571Y-105073809D01*
X134202380Y-105050000D01*
X134250000Y-105026190D01*
X134726190Y-105026190D02*
X134773809Y-105026190D01*
X134821428Y-105050000D01*
X134845238Y-105073809D01*
X134869047Y-105121428D01*
X134892857Y-105216666D01*
X134892857Y-105335714D01*
X134869047Y-105430952D01*
X134845238Y-105478571D01*
X134821428Y-105502380D01*
X134773809Y-105526190D01*
X134726190Y-105526190D01*
X134678571Y-105502380D01*
X134654761Y-105478571D01*
X134630952Y-105430952D01*
X134607142Y-105335714D01*
X134607142Y-105216666D01*
X134630952Y-105121428D01*
X134654761Y-105073809D01*
X134678571Y-105050000D01*
X134726190Y-105026190D01*
X135107142Y-105192857D02*
X135107142Y-105526190D01*
X135107142Y-105240476D02*
X135130952Y-105216666D01*
X135178571Y-105192857D01*
X135250000Y-105192857D01*
X135297619Y-105216666D01*
X135321428Y-105264285D01*
X135321428Y-105526190D01*
G04 #@! TO.C,C4*
X146716666Y-96378571D02*
X146692857Y-96402380D01*
X146621428Y-96426190D01*
X146573809Y-96426190D01*
X146502380Y-96402380D01*
X146454761Y-96354761D01*
X146430952Y-96307142D01*
X146407142Y-96211904D01*
X146407142Y-96140476D01*
X146430952Y-96045238D01*
X146454761Y-95997619D01*
X146502380Y-95950000D01*
X146573809Y-95926190D01*
X146621428Y-95926190D01*
X146692857Y-95950000D01*
X146716666Y-95973809D01*
X147145238Y-96092857D02*
X147145238Y-96426190D01*
X147026190Y-95902380D02*
X146907142Y-96259523D01*
X147216666Y-96259523D01*
X146702380Y-97126190D02*
X146416666Y-97126190D01*
X146559523Y-97126190D02*
X146559523Y-96626190D01*
X146511904Y-96697619D01*
X146464285Y-96745238D01*
X146416666Y-96769047D01*
X147130952Y-96792857D02*
X147130952Y-97126190D01*
X146916666Y-96792857D02*
X146916666Y-97054761D01*
X146940476Y-97102380D01*
X146988095Y-97126190D01*
X147059523Y-97126190D01*
X147107142Y-97102380D01*
X147130952Y-97078571D01*
X147535714Y-96864285D02*
X147369047Y-96864285D01*
X147369047Y-97126190D02*
X147369047Y-96626190D01*
X147607142Y-96626190D01*
G04 #@! TO.C,R12*
X139226190Y-92221428D02*
X138988095Y-92388095D01*
X139226190Y-92507142D02*
X138726190Y-92507142D01*
X138726190Y-92316666D01*
X138750000Y-92269047D01*
X138773809Y-92245238D01*
X138821428Y-92221428D01*
X138892857Y-92221428D01*
X138940476Y-92245238D01*
X138964285Y-92269047D01*
X138988095Y-92316666D01*
X138988095Y-92507142D01*
X139226190Y-91745238D02*
X139226190Y-92030952D01*
X139226190Y-91888095D02*
X138726190Y-91888095D01*
X138797619Y-91935714D01*
X138845238Y-91983333D01*
X138869047Y-92030952D01*
X138773809Y-91554761D02*
X138750000Y-91530952D01*
X138726190Y-91483333D01*
X138726190Y-91364285D01*
X138750000Y-91316666D01*
X138773809Y-91292857D01*
X138821428Y-91269047D01*
X138869047Y-91269047D01*
X138940476Y-91292857D01*
X139226190Y-91578571D01*
X139226190Y-91269047D01*
X140126190Y-92245238D02*
X140126190Y-92530952D01*
X140126190Y-92388095D02*
X139626190Y-92388095D01*
X139697619Y-92435714D01*
X139745238Y-92483333D01*
X139769047Y-92530952D01*
X139626190Y-91935714D02*
X139626190Y-91888095D01*
X139650000Y-91840476D01*
X139673809Y-91816666D01*
X139721428Y-91792857D01*
X139816666Y-91769047D01*
X139935714Y-91769047D01*
X140030952Y-91792857D01*
X140078571Y-91816666D01*
X140102380Y-91840476D01*
X140126190Y-91888095D01*
X140126190Y-91935714D01*
X140102380Y-91983333D01*
X140078571Y-92007142D01*
X140030952Y-92030952D01*
X139935714Y-92054761D01*
X139816666Y-92054761D01*
X139721428Y-92030952D01*
X139673809Y-92007142D01*
X139650000Y-91983333D01*
X139626190Y-91935714D01*
X140126190Y-91554761D02*
X139626190Y-91554761D01*
X140126190Y-91269047D02*
X139840476Y-91483333D01*
X139626190Y-91269047D02*
X139911904Y-91554761D01*
G04 #@! TO.C,R13*
X146978571Y-94826190D02*
X146811904Y-94588095D01*
X146692857Y-94826190D02*
X146692857Y-94326190D01*
X146883333Y-94326190D01*
X146930952Y-94350000D01*
X146954761Y-94373809D01*
X146978571Y-94421428D01*
X146978571Y-94492857D01*
X146954761Y-94540476D01*
X146930952Y-94564285D01*
X146883333Y-94588095D01*
X146692857Y-94588095D01*
X147454761Y-94826190D02*
X147169047Y-94826190D01*
X147311904Y-94826190D02*
X147311904Y-94326190D01*
X147264285Y-94397619D01*
X147216666Y-94445238D01*
X147169047Y-94469047D01*
X147621428Y-94326190D02*
X147930952Y-94326190D01*
X147764285Y-94516666D01*
X147835714Y-94516666D01*
X147883333Y-94540476D01*
X147907142Y-94564285D01*
X147930952Y-94611904D01*
X147930952Y-94730952D01*
X147907142Y-94778571D01*
X147883333Y-94802380D01*
X147835714Y-94826190D01*
X147692857Y-94826190D01*
X147645238Y-94802380D01*
X147621428Y-94778571D01*
X146907142Y-95192857D02*
X146907142Y-95526190D01*
X146788095Y-95002380D02*
X146669047Y-95359523D01*
X146978571Y-95359523D01*
X147169047Y-95526190D02*
X147169047Y-95026190D01*
X147454761Y-95526190D02*
X147240476Y-95240476D01*
X147454761Y-95026190D02*
X147169047Y-95311904D01*
X147621428Y-95026190D02*
X147954761Y-95026190D01*
X147740476Y-95526190D01*
G04 #@! TO.C,R14*
X140926190Y-92221428D02*
X140688095Y-92388095D01*
X140926190Y-92507142D02*
X140426190Y-92507142D01*
X140426190Y-92316666D01*
X140450000Y-92269047D01*
X140473809Y-92245238D01*
X140521428Y-92221428D01*
X140592857Y-92221428D01*
X140640476Y-92245238D01*
X140664285Y-92269047D01*
X140688095Y-92316666D01*
X140688095Y-92507142D01*
X140926190Y-91745238D02*
X140926190Y-92030952D01*
X140926190Y-91888095D02*
X140426190Y-91888095D01*
X140497619Y-91935714D01*
X140545238Y-91983333D01*
X140569047Y-92030952D01*
X140592857Y-91316666D02*
X140926190Y-91316666D01*
X140402380Y-91435714D02*
X140759523Y-91554761D01*
X140759523Y-91245238D01*
X141726190Y-92145238D02*
X141726190Y-92430952D01*
X141726190Y-92288095D02*
X141226190Y-92288095D01*
X141297619Y-92335714D01*
X141345238Y-92383333D01*
X141369047Y-92430952D01*
X141226190Y-91835714D02*
X141226190Y-91788095D01*
X141250000Y-91740476D01*
X141273809Y-91716666D01*
X141321428Y-91692857D01*
X141416666Y-91669047D01*
X141535714Y-91669047D01*
X141630952Y-91692857D01*
X141678571Y-91716666D01*
X141702380Y-91740476D01*
X141726190Y-91788095D01*
X141726190Y-91835714D01*
X141702380Y-91883333D01*
X141678571Y-91907142D01*
X141630952Y-91930952D01*
X141535714Y-91954761D01*
X141416666Y-91954761D01*
X141321428Y-91930952D01*
X141273809Y-91907142D01*
X141250000Y-91883333D01*
X141226190Y-91835714D01*
X141726190Y-91454761D02*
X141226190Y-91454761D01*
X141726190Y-91169047D02*
X141440476Y-91383333D01*
X141226190Y-91169047D02*
X141511904Y-91454761D01*
G04 #@! TO.C,U7*
X141119047Y-99976190D02*
X141119047Y-100380952D01*
X141142857Y-100428571D01*
X141166666Y-100452380D01*
X141214285Y-100476190D01*
X141309523Y-100476190D01*
X141357142Y-100452380D01*
X141380952Y-100428571D01*
X141404761Y-100380952D01*
X141404761Y-99976190D01*
X141595238Y-99976190D02*
X141928571Y-99976190D01*
X141714285Y-100476190D01*
X139916666Y-101976190D02*
X139916666Y-101476190D01*
X140083333Y-101833333D01*
X140250000Y-101476190D01*
X140250000Y-101976190D01*
X140416666Y-101476190D02*
X140702380Y-101476190D01*
X140559523Y-101976190D02*
X140559523Y-101476190D01*
X141154761Y-101928571D02*
X141130952Y-101952380D01*
X141059523Y-101976190D01*
X141011904Y-101976190D01*
X140940476Y-101952380D01*
X140892857Y-101904761D01*
X140869047Y-101857142D01*
X140845238Y-101761904D01*
X140845238Y-101690476D01*
X140869047Y-101595238D01*
X140892857Y-101547619D01*
X140940476Y-101500000D01*
X141011904Y-101476190D01*
X141059523Y-101476190D01*
X141130952Y-101500000D01*
X141154761Y-101523809D01*
X141369047Y-101976190D02*
X141369047Y-101476190D01*
X141369047Y-101714285D02*
X141654761Y-101714285D01*
X141654761Y-101976190D02*
X141654761Y-101476190D01*
X142154761Y-101976190D02*
X141869047Y-101976190D01*
X142011904Y-101976190D02*
X142011904Y-101476190D01*
X141964285Y-101547619D01*
X141916666Y-101595238D01*
X141869047Y-101619047D01*
X142464285Y-101476190D02*
X142511904Y-101476190D01*
X142559523Y-101500000D01*
X142583333Y-101523809D01*
X142607142Y-101571428D01*
X142630952Y-101666666D01*
X142630952Y-101785714D01*
X142607142Y-101880952D01*
X142583333Y-101928571D01*
X142559523Y-101952380D01*
X142511904Y-101976190D01*
X142464285Y-101976190D01*
X142416666Y-101952380D01*
X142392857Y-101928571D01*
X142369047Y-101880952D01*
X142345238Y-101785714D01*
X142345238Y-101666666D01*
X142369047Y-101571428D01*
X142392857Y-101523809D01*
X142416666Y-101500000D01*
X142464285Y-101476190D01*
X143083333Y-101476190D02*
X142845238Y-101476190D01*
X142821428Y-101714285D01*
X142845238Y-101690476D01*
X142892857Y-101666666D01*
X143011904Y-101666666D01*
X143059523Y-101690476D01*
X143083333Y-101714285D01*
X143107142Y-101761904D01*
X143107142Y-101880952D01*
X143083333Y-101928571D01*
X143059523Y-101952380D01*
X143011904Y-101976190D01*
X142892857Y-101976190D01*
X142845238Y-101952380D01*
X142821428Y-101928571D01*
G04 #@! TO.C,U1*
D12*
X126742857Y-92061904D02*
X127200000Y-92061904D01*
X126971428Y-92861904D02*
X126971428Y-92061904D01*
X127580952Y-92861904D02*
X127504761Y-92823809D01*
X127466666Y-92785714D01*
X127428571Y-92709523D01*
X127428571Y-92480952D01*
X127466666Y-92404761D01*
X127504761Y-92366666D01*
X127580952Y-92328571D01*
X127695238Y-92328571D01*
X127771428Y-92366666D01*
X127809523Y-92404761D01*
X127847619Y-92480952D01*
X127847619Y-92709523D01*
X127809523Y-92785714D01*
X127771428Y-92823809D01*
X127695238Y-92861904D01*
X127580952Y-92861904D01*
X128533333Y-92328571D02*
X128533333Y-92861904D01*
X128190476Y-92328571D02*
X128190476Y-92747619D01*
X128228571Y-92823809D01*
X128304761Y-92861904D01*
X128419047Y-92861904D01*
X128495238Y-92823809D01*
X128533333Y-92785714D01*
X129257142Y-92823809D02*
X129180952Y-92861904D01*
X129028571Y-92861904D01*
X128952380Y-92823809D01*
X128914285Y-92785714D01*
X128876190Y-92709523D01*
X128876190Y-92480952D01*
X128914285Y-92404761D01*
X128952380Y-92366666D01*
X129028571Y-92328571D01*
X129180952Y-92328571D01*
X129257142Y-92366666D01*
X129600000Y-92861904D02*
X129600000Y-92061904D01*
X129942857Y-92861904D02*
X129942857Y-92442857D01*
X129904761Y-92366666D01*
X129828571Y-92328571D01*
X129714285Y-92328571D01*
X129638095Y-92366666D01*
X129600000Y-92404761D01*
G04 #@! TO.C,U6*
X154642857Y-91961904D02*
X155100000Y-91961904D01*
X154871428Y-92761904D02*
X154871428Y-91961904D01*
X155480952Y-92761904D02*
X155404761Y-92723809D01*
X155366666Y-92685714D01*
X155328571Y-92609523D01*
X155328571Y-92380952D01*
X155366666Y-92304761D01*
X155404761Y-92266666D01*
X155480952Y-92228571D01*
X155595238Y-92228571D01*
X155671428Y-92266666D01*
X155709523Y-92304761D01*
X155747619Y-92380952D01*
X155747619Y-92609523D01*
X155709523Y-92685714D01*
X155671428Y-92723809D01*
X155595238Y-92761904D01*
X155480952Y-92761904D01*
X156433333Y-92228571D02*
X156433333Y-92761904D01*
X156090476Y-92228571D02*
X156090476Y-92647619D01*
X156128571Y-92723809D01*
X156204761Y-92761904D01*
X156319047Y-92761904D01*
X156395238Y-92723809D01*
X156433333Y-92685714D01*
X157157142Y-92723809D02*
X157080952Y-92761904D01*
X156928571Y-92761904D01*
X156852380Y-92723809D01*
X156814285Y-92685714D01*
X156776190Y-92609523D01*
X156776190Y-92380952D01*
X156814285Y-92304761D01*
X156852380Y-92266666D01*
X156928571Y-92228571D01*
X157080952Y-92228571D01*
X157157142Y-92266666D01*
X157500000Y-92761904D02*
X157500000Y-91961904D01*
X157842857Y-92761904D02*
X157842857Y-92342857D01*
X157804761Y-92266666D01*
X157728571Y-92228571D01*
X157614285Y-92228571D01*
X157538095Y-92266666D01*
X157500000Y-92304761D01*
G04 #@! TD*
%LPC*%
D14*
G04 #@! TO.C,R4*
X146350000Y-100800000D03*
X147850000Y-100800000D03*
G04 #@! TD*
G04 #@! TO.C,R9*
X146350000Y-99200000D03*
X147850000Y-99200000D03*
G04 #@! TD*
G04 #@! TO.C,R10*
X136100000Y-100700000D03*
X137600000Y-100700000D03*
G04 #@! TD*
G04 #@! TO.C,R3*
X136100000Y-99100000D03*
X137600000Y-99100000D03*
G04 #@! TD*
D15*
G04 #@! TO.C,J1*
X152000000Y-79250000D03*
X152000000Y-73000000D03*
X154000000Y-79250000D03*
X154000000Y-73000000D03*
G04 #@! TD*
D16*
G04 #@! TO.C,L2*
X157700000Y-105850000D03*
X157700000Y-109100000D03*
G04 #@! TD*
D17*
G04 #@! TO.C,D2*
X154200000Y-107800000D03*
D18*
X154200000Y-110800000D03*
G04 #@! TD*
D19*
G04 #@! TO.C,R2*
X145800000Y-107700000D03*
X145800000Y-109900000D03*
G04 #@! TD*
D20*
G04 #@! TO.C,U2*
X150000000Y-109900000D03*
X150950000Y-109900000D03*
X149050000Y-109900000D03*
X149050000Y-107700000D03*
X150000000Y-107700000D03*
X150950000Y-107700000D03*
G04 #@! TD*
D21*
G04 #@! TO.C,REF\002A\002A*
X152100000Y-100850000D03*
G04 #@! TD*
G04 #@! TO.C,REF\002A\002A*
X160300000Y-100850000D03*
G04 #@! TD*
G04 #@! TO.C,REF\002A\002A*
X132700000Y-100900000D03*
G04 #@! TD*
G04 #@! TO.C,REF\002A\002A*
X124500000Y-100900000D03*
G04 #@! TD*
D22*
G04 #@! TO.C,C7*
X147850000Y-105300000D03*
X149750000Y-105300000D03*
G04 #@! TD*
D23*
G04 #@! TO.C,C9*
X152600000Y-109750000D03*
X152600000Y-107850000D03*
G04 #@! TD*
D19*
G04 #@! TO.C,D1*
X154750000Y-105600000D03*
X151450000Y-105600000D03*
G04 #@! TD*
G04 #@! TO.C,R1*
X147400000Y-109900000D03*
X147400000Y-107700000D03*
G04 #@! TD*
D24*
G04 #@! TO.C,R5*
X155300000Y-103400000D03*
X153100000Y-103400000D03*
G04 #@! TD*
G04 #@! TO.C,R6*
X157200000Y-103400000D03*
X159400000Y-103400000D03*
G04 #@! TD*
G04 #@! TO.C,R7*
X129600000Y-103400000D03*
X131800000Y-103400000D03*
G04 #@! TD*
G04 #@! TO.C,R8*
X127700000Y-103400000D03*
X125500000Y-103400000D03*
G04 #@! TD*
D25*
G04 #@! TO.C,L1*
X146100000Y-104150000D03*
X146100000Y-105650000D03*
G04 #@! TD*
D26*
G04 #@! TO.C,P4*
X143650000Y-107550000D03*
X143650000Y-109550000D03*
X141650000Y-107550000D03*
X141650000Y-109550000D03*
X139650000Y-107550000D03*
X139650000Y-109550000D03*
X137650000Y-107550000D03*
X137650000Y-109550000D03*
X135650000Y-107550000D03*
X135650000Y-109550000D03*
X133650000Y-107550000D03*
X133650000Y-109550000D03*
X131650000Y-107550000D03*
D27*
X131650000Y-109550000D03*
G04 #@! TD*
D28*
G04 #@! TO.C,C1*
X132400000Y-76325000D03*
X132400000Y-78875000D03*
G04 #@! TD*
D23*
G04 #@! TO.C,C2*
X134500000Y-78600000D03*
X134500000Y-76700000D03*
G04 #@! TD*
D29*
G04 #@! TO.C,C10*
X152000000Y-111700000D03*
X149000000Y-111700000D03*
G04 #@! TD*
D22*
G04 #@! TO.C,C3*
X136150000Y-105000000D03*
X138050000Y-105000000D03*
G04 #@! TD*
G04 #@! TO.C,C4*
X145250000Y-96500000D03*
X143350000Y-96500000D03*
G04 #@! TD*
D19*
G04 #@! TO.C,R12*
X139600000Y-93600000D03*
X139600000Y-95800000D03*
G04 #@! TD*
D24*
G04 #@! TO.C,R13*
X145900000Y-94900000D03*
X143700000Y-94900000D03*
G04 #@! TD*
D19*
G04 #@! TO.C,R14*
X141100000Y-95800000D03*
X141100000Y-93600000D03*
G04 #@! TD*
D30*
G04 #@! TO.C,U7*
X139650000Y-98150000D03*
X140300000Y-98150000D03*
X140950000Y-98150000D03*
X141600000Y-98150000D03*
X142250000Y-98150000D03*
X142900000Y-98150000D03*
X143550000Y-98150000D03*
X143550000Y-105050000D03*
X142900000Y-105050000D03*
X142250000Y-105050000D03*
X141600000Y-105050000D03*
X140950000Y-105050000D03*
X140300000Y-105050000D03*
X139650000Y-105050000D03*
G04 #@! TD*
D31*
G04 #@! TO.C,U3*
X147550000Y-78580000D03*
X147550000Y-77310000D03*
X147550000Y-76040000D03*
X147550000Y-74770000D03*
D32*
X147600000Y-78580000D03*
X147600000Y-77310000D03*
X147600000Y-76040000D03*
X147600000Y-74770000D03*
X147600000Y-73500000D03*
D31*
X147550000Y-73500000D03*
X139520000Y-80450000D03*
X140790000Y-80450000D03*
X142060000Y-80450000D03*
X143330000Y-80450000D03*
X144600000Y-80450000D03*
D33*
X139520000Y-80400000D03*
X140790000Y-80400000D03*
X142060000Y-80400000D03*
X143330000Y-80400000D03*
X144600000Y-80400000D03*
D31*
X136450000Y-78580000D03*
X136450000Y-77310000D03*
X136450000Y-76040000D03*
X136450000Y-74770000D03*
D32*
X136500000Y-73500000D03*
X136500000Y-74770000D03*
X136500000Y-76040000D03*
X136500000Y-77310000D03*
X136500000Y-78580000D03*
D31*
X136450000Y-73500000D03*
G04 #@! TD*
M02*
