G04 #@! TF.GenerationSoftware,KiCad,Pcbnew,5.0.0-rc2-be01b52~65~ubuntu16.04.1*
G04 #@! TF.CreationDate,2018-06-07T13:00:58+03:00*
G04 #@! TF.ProjectId,livolo_1_channel_1way_eu_switch,6C69766F6C6F5F315F6368616E6E656C,rev?*
G04 #@! TF.SameCoordinates,Original*
G04 #@! TF.FileFunction,Copper,L2,Bot,Signal*
G04 #@! TF.FilePolarity,Positive*
%FSLAX46Y46*%
G04 Gerber Fmt 4.6, Leading zero omitted, Abs format (unit mm)*
G04 Created by KiCad (PCBNEW 5.0.0-rc2-be01b52~65~ubuntu16.04.1) date Thu Jun  7 13:00:58 2018*
%MOMM*%
%LPD*%
G01*
G04 APERTURE LIST*
G04 #@! TA.AperFunction,ComponentPad*
%ADD10C,0.600000*%
G04 #@! TD*
G04 #@! TA.AperFunction,SMDPad,CuDef*
%ADD11R,1.500000X1.000000*%
G04 #@! TD*
G04 #@! TA.AperFunction,SMDPad,CuDef*
%ADD12R,1.000000X1.500000*%
G04 #@! TD*
G04 #@! TA.AperFunction,ComponentPad*
%ADD13O,1.200000X1.600000*%
G04 #@! TD*
G04 #@! TA.AperFunction,SMDPad,CuDef*
%ADD14R,0.600000X0.800000*%
G04 #@! TD*
G04 #@! TA.AperFunction,Conductor*
%ADD15C,15.000000*%
G04 #@! TD*
G04 #@! TA.AperFunction,SMDPad,CuDef*
%ADD16R,1.270000X0.970000*%
G04 #@! TD*
G04 #@! TA.AperFunction,ViaPad*
%ADD17C,0.800000*%
G04 #@! TD*
G04 #@! TA.AperFunction,Conductor*
%ADD18C,0.350000*%
G04 #@! TD*
G04 #@! TA.AperFunction,Conductor*
%ADD19C,0.300000*%
G04 #@! TD*
G04 #@! TA.AperFunction,Conductor*
%ADD20C,0.250000*%
G04 #@! TD*
G04 #@! TA.AperFunction,Conductor*
%ADD21C,0.450000*%
G04 #@! TD*
G04 #@! TA.AperFunction,Conductor*
%ADD22C,0.500000*%
G04 #@! TD*
G04 APERTURE END LIST*
D10*
G04 #@! TO.P,U5,11*
G04 #@! TO.N,Net-(U5-Pad11)*
X147690000Y-78730000D03*
G04 #@! TO.P,U5,12*
G04 #@! TO.N,Net-(U5-Pad12)*
X147690000Y-77460000D03*
G04 #@! TO.P,U5,13*
G04 #@! TO.N,Net-(U5-Pad13)*
X147690000Y-76190000D03*
G04 #@! TO.P,U5,14*
G04 #@! TO.N,/SWDIO*
X147690000Y-74920000D03*
G04 #@! TO.P,U5,15*
G04 #@! TO.N,/SWCLK*
X147690000Y-73650000D03*
G04 #@! TO.P,U5,6*
G04 #@! TO.N,/Relay2_Reset*
X139660000Y-80600000D03*
G04 #@! TO.P,U5,7*
G04 #@! TO.N,/Relay1_Set*
X140930000Y-80600000D03*
G04 #@! TO.P,U5,8*
G04 #@! TO.N,/Relay2_Set*
X142200000Y-80600000D03*
G04 #@! TO.P,U5,9*
G04 #@! TO.N,/Relay1_Reset*
X143470000Y-80600000D03*
G04 #@! TO.P,U5,10*
G04 #@! TO.N,/S1_LEDs*
X144740000Y-80600000D03*
G04 #@! TO.P,U5,5*
G04 #@! TO.N,+3V3*
X136590000Y-78730000D03*
G04 #@! TO.P,U5,4*
G04 #@! TO.N,/MTPM*
X136590000Y-77460000D03*
G04 #@! TO.P,U5,3*
G04 #@! TO.N,/TS1*
X136590000Y-76190000D03*
G04 #@! TO.P,U5,2*
G04 #@! TO.N,/MTSA*
X136590000Y-74920000D03*
D11*
G04 #@! TO.P,U5,1*
G04 #@! TO.N,GND*
X136640000Y-73650000D03*
G04 #@! TO.P,U5,2*
G04 #@! TO.N,/MTSA*
X136640000Y-74920000D03*
G04 #@! TO.P,U5,3*
G04 #@! TO.N,/TS1*
X136640000Y-76190000D03*
G04 #@! TO.P,U5,4*
G04 #@! TO.N,/MTPM*
X136640000Y-77460000D03*
G04 #@! TO.P,U5,5*
G04 #@! TO.N,+3V3*
X136640000Y-78730000D03*
D12*
G04 #@! TO.P,U5,10*
G04 #@! TO.N,/S1_LEDs*
X144740000Y-80550000D03*
G04 #@! TO.P,U5,9*
G04 #@! TO.N,/Relay1_Reset*
X143470000Y-80550000D03*
G04 #@! TO.P,U5,8*
G04 #@! TO.N,/Relay2_Set*
X142200000Y-80550000D03*
G04 #@! TO.P,U5,7*
G04 #@! TO.N,/Relay1_Set*
X140930000Y-80550000D03*
G04 #@! TO.P,U5,6*
G04 #@! TO.N,/Relay2_Reset*
X139660000Y-80550000D03*
D11*
G04 #@! TO.P,U5,14*
G04 #@! TO.N,/SWDIO*
X147740000Y-74920000D03*
G04 #@! TO.P,U5,12*
G04 #@! TO.N,Net-(U5-Pad12)*
X147740000Y-77460000D03*
G04 #@! TO.P,U5,13*
G04 #@! TO.N,Net-(U5-Pad13)*
X147740000Y-76190000D03*
G04 #@! TO.P,U5,11*
G04 #@! TO.N,Net-(U5-Pad11)*
X147740000Y-78730000D03*
G04 #@! TO.P,U5,15*
G04 #@! TO.N,/SWCLK*
X147740000Y-73650000D03*
D10*
G04 #@! TO.P,U5,1*
G04 #@! TO.N,GND*
X136590000Y-73650000D03*
G04 #@! TD*
D13*
G04 #@! TO.P,P4,14*
G04 #@! TO.N,N/C*
X143650000Y-107550000D03*
G04 #@! TO.P,P4,13*
G04 #@! TO.N,Net-(J2-Pad2)*
X143650000Y-109550000D03*
G04 #@! TO.P,P4,12*
G04 #@! TO.N,N/C*
X141650000Y-107550000D03*
G04 #@! TO.P,P4,11*
G04 #@! TO.N,GND*
X141650000Y-109550000D03*
G04 #@! TO.P,P4,10*
G04 #@! TO.N,N/C*
X139650000Y-107550000D03*
G04 #@! TO.P,P4,9*
X139650000Y-109550000D03*
G04 #@! TO.P,P4,8*
X137650000Y-107550000D03*
G04 #@! TO.P,P4,7*
X137650000Y-109550000D03*
G04 #@! TO.P,P4,6*
G04 #@! TO.N,/Relay1_Reset*
X135650000Y-107550000D03*
G04 #@! TO.P,P4,5*
G04 #@! TO.N,/Relay2_Set*
X135650000Y-109550000D03*
G04 #@! TO.P,P4,4*
G04 #@! TO.N,/Relay1_Set*
X133650000Y-107550000D03*
G04 #@! TO.P,P4,3*
G04 #@! TO.N,/Relay2_Reset*
X133650000Y-109550000D03*
G04 #@! TO.P,P4,2*
G04 #@! TO.N,/12Vcc*
X131650000Y-107550000D03*
G04 #@! TO.P,P4,1*
G04 #@! TO.N,N/C*
X131650000Y-109550000D03*
G04 #@! TD*
D14*
G04 #@! TO.P,D5,1*
G04 #@! TO.N,Net-(D5-Pad1)*
X143400000Y-102050000D03*
G04 #@! TO.P,D5,2*
G04 #@! TO.N,+3V3*
X145100000Y-102050000D03*
G04 #@! TD*
G04 #@! TO.P,D6,2*
G04 #@! TO.N,Net-(D6-Pad2)*
X140050000Y-102050000D03*
G04 #@! TO.P,D6,1*
G04 #@! TO.N,GND*
X141750000Y-102050000D03*
G04 #@! TD*
D15*
G04 #@! TO.N,Net-(R4-Pad2)*
G04 #@! TO.C,U1*
X142471636Y-92094052D03*
G04 #@! TD*
D16*
G04 #@! TO.P,J2,2*
G04 #@! TO.N,Net-(J2-Pad2)*
X146600000Y-109340000D03*
G04 #@! TO.P,J2,1*
G04 #@! TO.N,+3V3*
X146600000Y-108060000D03*
G04 #@! TD*
D17*
G04 #@! TO.N,+3V3*
X145899999Y-102100000D03*
X138175000Y-105500000D03*
G04 #@! TO.N,GND*
X141810890Y-104424990D03*
X150462668Y-108019998D03*
X150750000Y-111000000D03*
G04 #@! TO.N,Net-(C7-Pad1)*
X147600000Y-105100000D03*
X154000000Y-105000000D03*
G04 #@! TO.N,/12Vcc*
X146800000Y-111500000D03*
G04 #@! TO.N,Net-(D5-Pad1)*
X142700050Y-102000000D03*
G04 #@! TO.N,Net-(D6-Pad2)*
X139300002Y-102000000D03*
G04 #@! TO.N,/TS1*
X126500000Y-91200000D03*
G04 #@! TO.N,/S1_LEDs*
X138400000Y-104400000D03*
G04 #@! TO.N,Net-(R4-Pad2)*
X134375010Y-91300000D03*
G04 #@! TO.N,/MTSA*
X126300000Y-85200000D03*
G04 #@! TO.N,/MTPM*
X129424949Y-89100000D03*
G04 #@! TD*
D18*
G04 #@! TO.N,+3V3*
X146600000Y-102800001D02*
X145899999Y-102100000D01*
X145100000Y-102050000D02*
X145849999Y-102050000D01*
X145849999Y-102050000D02*
X145899999Y-102100000D01*
X146600000Y-105500000D02*
X146600000Y-102800001D01*
X146600000Y-108060000D02*
X146600000Y-105500000D01*
X146600000Y-105500000D02*
X138175000Y-105500000D01*
D19*
G04 #@! TO.N,GND*
X141750000Y-104364100D02*
X141810890Y-104424990D01*
X141750000Y-102050000D02*
X141750000Y-104364100D01*
D20*
X150750000Y-111000000D02*
X150750000Y-108307330D01*
X150750000Y-108307330D02*
X150462668Y-108019998D01*
D21*
G04 #@! TO.N,Net-(C7-Pad1)*
X154000000Y-105000000D02*
X147700000Y-105000000D01*
X147700000Y-105000000D02*
X147600000Y-105100000D01*
D22*
G04 #@! TO.N,/12Vcc*
X131650000Y-107550000D02*
X130695406Y-107550000D01*
X130695406Y-107550000D02*
X130424999Y-107820407D01*
X130424999Y-107820407D02*
X130424999Y-110665001D01*
X130424999Y-110665001D02*
X131259998Y-111500000D01*
X131259998Y-111500000D02*
X146800000Y-111500000D01*
D19*
G04 #@! TO.N,Net-(D5-Pad1)*
X142750050Y-102050000D02*
X142700050Y-102000000D01*
X143400000Y-102050000D02*
X142750050Y-102050000D01*
G04 #@! TO.N,Net-(D6-Pad2)*
X140050000Y-102050000D02*
X139350002Y-102050000D01*
X139350002Y-102050000D02*
X139300002Y-102000000D01*
D20*
G04 #@! TO.N,/TS1*
X127299999Y-90400001D02*
X126500000Y-91200000D01*
X135964998Y-76090000D02*
X127299999Y-84754999D01*
X127299999Y-84754999D02*
X127299999Y-90400001D01*
X136570000Y-76090000D02*
X135964998Y-76090000D01*
G04 #@! TO.N,/S1_LEDs*
X136399969Y-83300031D02*
X142799969Y-83300031D01*
X132600002Y-87099998D02*
X136399969Y-83300031D01*
X138400000Y-104400000D02*
X132600002Y-98600002D01*
X142799969Y-83300031D02*
X144840000Y-81260000D01*
X132600002Y-98600002D02*
X132600002Y-87099998D01*
X144840000Y-81260000D02*
X144840000Y-81044264D01*
X144840000Y-81044264D02*
X144840000Y-80620000D01*
G04 #@! TO.N,/Relay2_Reset*
X139300000Y-81080000D02*
X139660000Y-80720000D01*
X135571516Y-81300000D02*
X139300000Y-81300000D01*
X130599959Y-104228447D02*
X130599959Y-86271557D01*
X132674990Y-106303478D02*
X130599959Y-104228447D01*
X130599959Y-86271557D02*
X135571516Y-81300000D01*
X133650000Y-109350000D02*
X132674990Y-108374990D01*
X139300000Y-81300000D02*
X139300000Y-81080000D01*
X133650000Y-109550000D02*
X133650000Y-109350000D01*
X132674990Y-108374990D02*
X132674990Y-106303478D01*
G04 #@! TO.N,/Relay1_Reset*
X132099991Y-102949991D02*
X132099991Y-86892889D01*
X135650000Y-106500000D02*
X132099991Y-102949991D01*
X132099991Y-86892889D02*
X136192860Y-82800020D01*
X136192860Y-82800020D02*
X141999980Y-82800020D01*
X141999980Y-82800020D02*
X143570000Y-81230000D01*
X143570000Y-81230000D02*
X143570000Y-80620000D01*
X135650000Y-107550000D02*
X135650000Y-106500000D01*
G04 #@! TO.N,/Relay2_Set*
X135650000Y-109550000D02*
X135650000Y-109350000D01*
X141099989Y-82300011D02*
X142180000Y-81220000D01*
X131599980Y-103814224D02*
X131599980Y-86685778D01*
X131599980Y-86685778D02*
X135985747Y-82300011D01*
X135650000Y-109350000D02*
X134674990Y-108374990D01*
X142180000Y-81220000D02*
X142180000Y-80570000D01*
X135985747Y-82300011D02*
X141099989Y-82300011D01*
X134674990Y-108374990D02*
X134674990Y-106889234D01*
X134674990Y-106889234D02*
X131599980Y-103814224D01*
G04 #@! TO.N,/Relay1_Set*
X140400000Y-81800000D02*
X141030000Y-81170000D01*
X135778636Y-81800000D02*
X140400000Y-81800000D01*
X131099969Y-86478667D02*
X135778636Y-81800000D01*
X133650000Y-106571366D02*
X131099969Y-104021335D01*
X131099969Y-104021335D02*
X131099969Y-86478667D01*
X141030000Y-81170000D02*
X141030000Y-80620000D01*
X133650000Y-107550000D02*
X133650000Y-106571366D01*
G04 #@! TO.N,Net-(R4-Pad2)*
X142471636Y-92094052D02*
X141677584Y-91300000D01*
X141677584Y-91300000D02*
X134375010Y-91300000D01*
G04 #@! TO.N,/MTSA*
X135620000Y-74820000D02*
X126300000Y-84140000D01*
X126300000Y-84140000D02*
X126300000Y-85200000D01*
X136620000Y-74820000D02*
X135620000Y-74820000D01*
G04 #@! TO.N,/MTPM*
X136570000Y-77360000D02*
X136270001Y-77659999D01*
X136270001Y-77659999D02*
X135664999Y-77659999D01*
X135664999Y-77659999D02*
X129424949Y-83900049D01*
X129424949Y-83900049D02*
X129424949Y-89100000D01*
D18*
G04 #@! TO.N,Net-(J2-Pad2)*
X143650000Y-109550000D02*
X146390000Y-109550000D01*
D19*
X146390000Y-109550000D02*
X146600000Y-109340000D01*
G04 #@! TD*
M02*
