M48
;DRILL file {KiCad (2017-11-08 revision cd21218)-HEAD} date Mon May 28 19:39:30 2018
;FORMAT={-:-/ absolute / metric / decimal}
FMAT,2
METRIC,TZ
T1C0.300
T2C0.400
T3C0.800
%
G90
G05
M71
T1
X136.47Y-73.65
X136.47Y-74.92
X136.47Y-76.19
X136.47Y-77.46
X136.47Y-78.73
X139.66Y-80.72
X140.93Y-80.72
X142.2Y-80.72
X143.47Y-80.72
X144.74Y-80.72
X147.81Y-73.65
X147.81Y-74.92
X147.81Y-76.19
X147.81Y-77.46
X147.81Y-78.73
T2
X126.3Y-85.2
X126.5Y-91.2
X129.425Y-89.1
X134.375Y-91.3
X138.175Y-105.5
X138.4Y-104.4
X139.3Y-102.
X141.811Y-104.425
X142.7Y-102.
X145.9Y-102.1
X146.8Y-111.5
X147.6Y-105.1
X150.463Y-108.02
X150.75Y-111.
X154.Y-105.
T3
X131.65Y-107.55
X131.65Y-109.55
X133.65Y-107.55
X133.65Y-109.55
X135.65Y-107.55
X135.65Y-109.55
X137.65Y-107.55
X137.65Y-109.55
X139.65Y-107.55
X139.65Y-109.55
X141.65Y-107.55
X141.65Y-109.55
X143.65Y-107.55
X143.65Y-109.55
T0
M30
