G04 #@! TF.GenerationSoftware,KiCad,Pcbnew,(2017-11-08 revision cd21218)-HEAD*
G04 #@! TF.CreationDate,2018-05-28T17:08:36+03:00*
G04 #@! TF.ProjectId,livolo_1_channel_1way_eu_switch,6C69766F6C6F5F315F6368616E6E656C,rev?*
G04 #@! TF.SameCoordinates,Original*
G04 #@! TF.FileFunction,Copper,L1,Top,Signal*
G04 #@! TF.FilePolarity,Positive*
%FSLAX46Y46*%
G04 Gerber Fmt 4.6, Leading zero omitted, Abs format (unit mm)*
G04 Created by KiCad (PCBNEW (2017-11-08 revision cd21218)-HEAD) date Mon May 28 17:08:36 2018*
%MOMM*%
%LPD*%
G01*
G04 APERTURE LIST*
%ADD10C,0.300000*%
%ADD11O,1.200000X1.600000*%
%ADD12R,1.000000X2.000000*%
%ADD13R,4.000000X2.000000*%
%ADD14R,1.200000X2.000000*%
%ADD15R,1.200000X1.400000*%
%ADD16R,0.900000X1.200000*%
%ADD17R,0.650000X1.060000*%
%ADD18R,1.200000X0.750000*%
%ADD19R,0.750000X1.200000*%
%ADD20R,1.200000X0.900000*%
%ADD21R,0.500000X0.900000*%
%ADD22R,1.260000X1.750000*%
%ADD23R,1.000000X1.600000*%
%ADD24R,1.450000X0.450000*%
%ADD25C,0.500000*%
%ADD26C,0.600000*%
%ADD27R,1.500000X1.000000*%
%ADD28R,1.000000X1.500000*%
%ADD29C,0.800000*%
%ADD30C,0.350000*%
%ADD31C,0.250000*%
%ADD32C,0.450000*%
%ADD33C,1.000000*%
%ADD34C,0.500000*%
%ADD35C,0.254000*%
G04 APERTURE END LIST*
D10*
X134230279Y-92792715D02*
G75*
G03X134428298Y-90167186I8241357J698663D01*
G01*
X134380381Y-93650747D02*
X150555474Y-93650747D01*
X150082330Y-95287774D02*
X150082330Y-88905448D01*
X138084694Y-99070550D02*
X138084694Y-85110009D01*
X145800250Y-99649410D02*
X139135522Y-99649410D01*
X137262524Y-91936056D02*
X150727534Y-91936056D01*
X134428044Y-90222715D02*
X150515071Y-90222715D01*
X138941714Y-84669292D02*
X138941714Y-99571710D01*
X137632925Y-98792255D02*
X147285128Y-98792255D01*
X144846584Y-84223479D02*
X139961162Y-84223479D01*
X135513244Y-92798514D02*
X135513244Y-96566518D01*
X134910716Y-95364138D02*
X150025142Y-95364138D01*
X142369789Y-83873725D02*
X142369789Y-100325661D01*
X143226817Y-100290307D02*
X143226817Y-83909120D01*
X146654206Y-99194292D02*
X146654206Y-84981386D01*
X150674579Y-91079085D02*
X137265342Y-91079085D01*
X139798742Y-99925292D02*
X139798742Y-84280257D01*
X150343339Y-94507796D02*
X134574859Y-94507796D01*
X147511290Y-85582363D02*
X147511290Y-98652521D01*
X136370116Y-90214338D02*
X136370116Y-86542842D01*
X149406698Y-87651625D02*
X135524279Y-87651625D01*
X148239705Y-97935171D02*
X136643138Y-97935171D01*
X136142967Y-86794619D02*
X148770391Y-86794619D01*
X138122900Y-85080542D02*
X146790231Y-85080542D01*
X147957071Y-85937549D02*
X136955993Y-85937549D01*
X144940179Y-99936771D02*
X144940179Y-84227486D01*
X149547896Y-96221109D02*
X135334999Y-96221109D01*
X135882987Y-97078157D02*
X149017515Y-97078157D01*
X150679257Y-92793048D02*
X134198202Y-92793048D01*
X150285300Y-89365730D02*
X134693329Y-89365730D01*
X135029288Y-88508688D02*
X149843405Y-88508688D01*
X137227631Y-85729563D02*
X137227631Y-98451840D01*
X144083802Y-84015327D02*
X144083802Y-100166562D01*
X148368303Y-97850812D02*
X148368303Y-86324926D01*
X141512797Y-100290327D02*
X141512797Y-83908800D01*
X140655770Y-84050401D02*
X140655770Y-100113539D01*
X145797122Y-84581031D02*
X145797122Y-99624739D01*
X149225388Y-87349958D02*
X149225388Y-96860892D01*
X135507093Y-87653967D02*
X135507093Y-90196367D01*
X136370116Y-97680513D02*
X136370116Y-92798780D01*
D11*
X143650000Y-107550000D03*
X143650000Y-109550000D03*
X141650000Y-107550000D03*
X141650000Y-109550000D03*
X139650000Y-107550000D03*
X139650000Y-109550000D03*
X137650000Y-107550000D03*
X137650000Y-109550000D03*
X135650000Y-107550000D03*
X135650000Y-109550000D03*
X133650000Y-107550000D03*
X133650000Y-109550000D03*
X131650000Y-107550000D03*
X131650000Y-109550000D03*
D12*
X129200000Y-79525000D03*
X129200000Y-73275000D03*
X131200000Y-79525000D03*
X131200000Y-73275000D03*
D13*
X157700000Y-104650000D03*
X157700000Y-107900000D03*
D14*
X154500000Y-107100000D03*
D15*
X154500000Y-110100000D03*
D16*
X146100000Y-107000000D03*
X146100000Y-109200000D03*
D17*
X150300000Y-109200000D03*
X151250000Y-109200000D03*
X149350000Y-109200000D03*
X149350000Y-107000000D03*
X150300000Y-107000000D03*
X151250000Y-107000000D03*
D18*
X153950000Y-102500000D03*
X152050000Y-102500000D03*
D19*
X152900000Y-109050000D03*
X152900000Y-107150000D03*
D16*
X155050000Y-104900000D03*
X151750000Y-104900000D03*
X147700000Y-109200000D03*
X147700000Y-107000000D03*
D20*
X139400000Y-103300000D03*
X141600000Y-103300000D03*
X145700000Y-103300000D03*
X143500000Y-103300000D03*
D21*
X152650000Y-100400000D03*
X154150000Y-100400000D03*
D22*
X150300000Y-75625000D03*
X150300000Y-78175000D03*
D19*
X152200000Y-78550000D03*
X152200000Y-76650000D03*
D23*
X152300000Y-111000000D03*
X149300000Y-111000000D03*
D18*
X125950000Y-95400000D03*
X127850000Y-95400000D03*
X126150000Y-88100000D03*
X124250000Y-88100000D03*
D21*
X131400000Y-89500000D03*
X132900000Y-89500000D03*
X132950000Y-91300000D03*
X131450000Y-91300000D03*
D20*
X127900000Y-93700000D03*
X125700000Y-93700000D03*
X126350000Y-86500000D03*
X124150000Y-86500000D03*
D24*
X125000000Y-91875000D03*
X125000000Y-91225000D03*
X125000000Y-90575000D03*
X125000000Y-89925000D03*
X129400000Y-89925000D03*
X129400000Y-90575000D03*
X129400000Y-91225000D03*
X129400000Y-91875000D03*
D25*
X134516685Y-90184864D03*
X134251520Y-92818837D03*
D26*
X136570000Y-78630000D03*
X136570000Y-77360000D03*
X136570000Y-76090000D03*
X136570000Y-74820000D03*
X136570000Y-73550000D03*
X144720000Y-80620000D03*
X143450000Y-80620000D03*
X142180000Y-80620000D03*
X140910000Y-80620000D03*
X139640000Y-80620000D03*
X147910000Y-78630000D03*
X147910000Y-77360000D03*
X147910000Y-76090000D03*
X147910000Y-74820000D03*
D27*
X147860000Y-73550000D03*
X147860000Y-74820000D03*
X147860000Y-76090000D03*
X147860000Y-77360000D03*
X147860000Y-78630000D03*
D28*
X139640000Y-80570000D03*
X140910000Y-80570000D03*
X142180000Y-80570000D03*
X143450000Y-80570000D03*
X144720000Y-80570000D03*
D27*
X136520000Y-74820000D03*
X136520000Y-77360000D03*
X136520000Y-76090000D03*
X136520000Y-78630000D03*
X136520000Y-73550000D03*
D26*
X147910000Y-73550000D03*
D29*
X145899999Y-102100000D03*
X138175000Y-105500000D03*
X141810890Y-104424990D03*
X150462668Y-108019998D03*
X150750000Y-111000000D03*
X147600000Y-105100000D03*
X154000000Y-105000000D03*
X146800000Y-111500000D03*
X142700050Y-102000000D03*
X139300002Y-102000000D03*
X126725000Y-91225000D03*
X138400000Y-104400000D03*
X134375010Y-91300000D03*
X126350000Y-85400000D03*
X129424949Y-89100000D03*
D30*
X152650000Y-100400000D02*
X152500000Y-100400000D01*
X150800000Y-102100000D02*
X145899999Y-102100000D01*
X152500000Y-100400000D02*
X150800000Y-102100000D01*
X152200000Y-78550000D02*
X152800000Y-79150000D01*
X152800000Y-100250000D02*
X152650000Y-100400000D01*
X152800000Y-79150000D02*
X152800000Y-100250000D01*
X127850000Y-95400000D02*
X128075000Y-95400000D01*
X128075000Y-95400000D02*
X138175000Y-105500000D01*
X129400000Y-91875000D02*
X129400000Y-92350000D01*
X129400000Y-92350000D02*
X128050000Y-93700000D01*
X128050000Y-93700000D02*
X127900000Y-93700000D01*
X127900000Y-93700000D02*
X127900000Y-95350000D01*
X127900000Y-95350000D02*
X127850000Y-95400000D01*
X128000000Y-88007122D02*
X128000000Y-91450000D01*
X131200000Y-84807122D02*
X128000000Y-88007122D01*
X128000000Y-91450000D02*
X128425000Y-91875000D01*
X128425000Y-91875000D02*
X129400000Y-91875000D01*
X131200000Y-79525000D02*
X131200000Y-84807122D01*
X147910000Y-78630000D02*
X149845000Y-78630000D01*
X149845000Y-78630000D02*
X150300000Y-78175000D01*
X152200000Y-78550000D02*
X150675000Y-78550000D01*
X150675000Y-78550000D02*
X150300000Y-78175000D01*
X152650000Y-100200000D02*
X152650000Y-100400000D01*
D31*
X149350000Y-73550000D02*
X150300000Y-74500000D01*
X147910000Y-73550000D02*
X149350000Y-73550000D01*
X150300000Y-74500000D02*
X150300000Y-75625000D01*
X126375000Y-88100000D02*
X129200000Y-85275000D01*
X126150000Y-88100000D02*
X126375000Y-88100000D01*
X129200000Y-85275000D02*
X129200000Y-79525000D01*
X150462668Y-108019998D02*
X150462668Y-107162668D01*
X150462668Y-107162668D02*
X150300000Y-107000000D01*
X152300000Y-111000000D02*
X150750000Y-111000000D01*
X124025000Y-91875000D02*
X125000000Y-91875000D01*
X125000000Y-90575000D02*
X124025000Y-90575000D01*
X124025000Y-90575000D02*
X123899999Y-90700001D01*
X123899999Y-90700001D02*
X123899999Y-91750001D01*
X123899999Y-91750001D02*
X124025000Y-91875000D01*
X126150000Y-88100000D02*
X126150000Y-90350000D01*
X126150000Y-90350000D02*
X125875001Y-90624999D01*
X125875001Y-90624999D02*
X125049999Y-90624999D01*
X125049999Y-90624999D02*
X125000000Y-90575000D01*
D32*
X147600000Y-106900000D02*
X147600000Y-105100000D01*
X147700000Y-107000000D02*
X147700000Y-105200000D01*
X147700000Y-105200000D02*
X147600000Y-105100000D01*
X154100000Y-104900000D02*
X154000000Y-105000000D01*
X155050000Y-104900000D02*
X154100000Y-104900000D01*
X154000000Y-102650000D02*
X154250000Y-102400000D01*
X154000000Y-105000000D02*
X154000000Y-102650000D01*
X154250000Y-102400000D02*
X154000000Y-102150000D01*
X154000000Y-102150000D02*
X154000000Y-100750000D01*
D33*
X155050000Y-104900000D02*
X157450000Y-104900000D01*
D10*
X151250000Y-109200000D02*
X152750000Y-109200000D01*
X152750000Y-109200000D02*
X152900000Y-109050000D01*
D33*
X157700000Y-107900000D02*
X155400000Y-107900000D01*
X155400000Y-107900000D02*
X154600000Y-107100000D01*
D10*
X154600000Y-107100000D02*
X154500000Y-107100000D01*
X152900000Y-109050000D02*
X154500000Y-107450000D01*
X152900000Y-107150000D02*
X151400000Y-107150000D01*
X151400000Y-107150000D02*
X151250000Y-107000000D01*
X151250000Y-107000000D02*
X151250000Y-105400000D01*
X151250000Y-105400000D02*
X151750000Y-104900000D01*
D34*
X146800000Y-111500000D02*
X148800000Y-111500000D01*
X148800000Y-111500000D02*
X149300000Y-111000000D01*
X150300000Y-109200000D02*
X149350000Y-109200000D01*
X149300000Y-111000000D02*
X149300000Y-109250000D01*
X149300000Y-109250000D02*
X149350000Y-109200000D01*
X131650000Y-107550000D02*
X131600000Y-107500000D01*
D10*
X143500000Y-103300000D02*
X143500000Y-102900000D01*
X143500000Y-102900000D02*
X142700050Y-102100050D01*
X142700050Y-102100050D02*
X142700050Y-102000000D01*
X143350000Y-103300000D02*
X143500000Y-103300000D01*
X139400000Y-102099998D02*
X139300002Y-102000000D01*
X139400000Y-103300000D02*
X139400000Y-102099998D01*
X139400000Y-103300000D02*
X139550000Y-103300000D01*
D31*
X125700000Y-93700000D02*
X125700000Y-93300000D01*
X126725000Y-91225000D02*
X125000000Y-91225000D01*
X125700000Y-93300000D02*
X126750000Y-92250000D01*
X126750000Y-92250000D02*
X126750000Y-91250000D01*
X126750000Y-91250000D02*
X126725000Y-91225000D01*
X138400000Y-104400000D02*
X140500000Y-104400000D01*
X140500000Y-104400000D02*
X141600000Y-103300000D01*
D10*
X145550000Y-103300000D02*
X145700000Y-103300000D01*
X141848037Y-103300000D02*
X142698038Y-104150001D01*
X141750000Y-103300000D02*
X141848037Y-103300000D01*
X144699999Y-104150001D02*
X145550000Y-103300000D01*
X142698038Y-104150001D02*
X144699999Y-104150001D01*
X145800000Y-103400000D02*
X145700000Y-103300000D01*
X149350000Y-107000000D02*
X149350000Y-107550000D01*
X149350000Y-107550000D02*
X147700000Y-109200000D01*
X146100000Y-107000000D02*
X146100000Y-107450000D01*
X146100000Y-107450000D02*
X147700000Y-109050000D01*
X147700000Y-109050000D02*
X147700000Y-109200000D01*
D31*
X136570000Y-73550000D02*
X131475000Y-73550000D01*
X131475000Y-73550000D02*
X131200000Y-73275000D01*
X136570000Y-74820000D02*
X130245000Y-74820000D01*
X130245000Y-74820000D02*
X129200000Y-73775000D01*
X129200000Y-73775000D02*
X129200000Y-73275000D01*
X125000000Y-89925000D02*
X125000000Y-88850000D01*
X125000000Y-88850000D02*
X124250000Y-88100000D01*
X124150000Y-86500000D02*
X124150000Y-88000000D01*
X124150000Y-88000000D02*
X124250000Y-88100000D01*
X129400000Y-90575000D02*
X130325000Y-90575000D01*
X130325000Y-90575000D02*
X131400000Y-89500000D01*
X130899999Y-92125001D02*
X130500008Y-91725010D01*
X133557684Y-92125001D02*
X130899999Y-92125001D01*
X134251520Y-92818837D02*
X133557684Y-92125001D01*
X132900000Y-89500000D02*
X132900000Y-89650000D01*
X132900000Y-89650000D02*
X133434864Y-90184864D01*
X133434864Y-90184864D02*
X134516685Y-90184864D01*
X137250000Y-92750000D02*
X137181163Y-92818837D01*
X137181163Y-92818837D02*
X134251520Y-92818837D01*
X137250000Y-90250000D02*
X137250000Y-92750000D01*
X137184864Y-90184864D02*
X137250000Y-90250000D01*
X134516685Y-90184864D02*
X137184864Y-90184864D01*
X132950000Y-91300000D02*
X134375010Y-91300000D01*
X131450000Y-91300000D02*
X131375000Y-91225000D01*
X131375000Y-91225000D02*
X129400000Y-91225000D01*
X126350000Y-86500000D02*
X126350000Y-85400000D01*
X129400000Y-89124949D02*
X129424949Y-89100000D01*
X129400000Y-89925000D02*
X129400000Y-89124949D01*
D35*
G36*
X157456149Y-74159180D02*
X157418871Y-74204641D01*
X157381301Y-74249734D01*
X157380124Y-74251894D01*
X157378557Y-74253804D01*
X157350804Y-74305669D01*
X157322724Y-74357172D01*
X157321987Y-74359523D01*
X157320824Y-74361697D01*
X157303693Y-74417899D01*
X157286130Y-74473941D01*
X157285864Y-74476390D01*
X157285145Y-74478749D01*
X157279251Y-74537266D01*
X157272915Y-74595595D01*
X157273129Y-74598046D01*
X157272882Y-74600502D01*
X157278468Y-74659072D01*
X157283580Y-74717498D01*
X157284267Y-74719861D01*
X157284501Y-74722319D01*
X157301342Y-74778636D01*
X157317719Y-74835007D01*
X157318854Y-74837196D01*
X157319560Y-74839558D01*
X157346985Y-74891467D01*
X157374033Y-74943649D01*
X157375573Y-74945578D01*
X157376723Y-74947755D01*
X157413690Y-74993326D01*
X157450377Y-75039283D01*
X157453717Y-75042670D01*
X157453813Y-75042788D01*
X157453928Y-75042884D01*
X157456524Y-75045516D01*
X159455504Y-77044496D01*
X159501165Y-77082003D01*
X159546434Y-77119719D01*
X159548360Y-77120769D01*
X159550063Y-77122168D01*
X159602182Y-77150114D01*
X159653872Y-77178296D01*
X159655966Y-77178952D01*
X159657907Y-77179993D01*
X159714436Y-77197276D01*
X159770641Y-77214890D01*
X159772823Y-77215127D01*
X159774929Y-77215771D01*
X159833797Y-77221751D01*
X159892295Y-77228105D01*
X159894477Y-77227914D01*
X159896672Y-77228137D01*
X159955606Y-77222566D01*
X160014198Y-77217440D01*
X160016303Y-77216829D01*
X160018498Y-77216621D01*
X160075123Y-77199740D01*
X160131707Y-77183301D01*
X160133659Y-77182289D01*
X160135766Y-77181661D01*
X160187957Y-77154144D01*
X160240349Y-77126987D01*
X160242067Y-77125615D01*
X160244012Y-77124590D01*
X160289916Y-77087418D01*
X160335983Y-77050643D01*
X160338982Y-77047686D01*
X160339111Y-77047581D01*
X160339218Y-77047453D01*
X160342216Y-77044496D01*
X161319919Y-76066793D01*
X163272360Y-78801004D01*
X163272360Y-105453035D01*
X162394142Y-107219199D01*
X158501216Y-111115019D01*
X155708721Y-112974320D01*
X129090339Y-112974320D01*
X126299249Y-111115955D01*
X123426533Y-108210301D01*
X121526700Y-105407826D01*
X121526700Y-95642250D01*
X124773000Y-95642250D01*
X124773000Y-95831829D01*
X124795174Y-95943304D01*
X124838669Y-96048312D01*
X124901815Y-96142816D01*
X124982184Y-96223185D01*
X125076688Y-96286331D01*
X125181695Y-96329826D01*
X125293170Y-96352000D01*
X125707750Y-96352000D01*
X125852000Y-96207750D01*
X125852000Y-95498000D01*
X124917250Y-95498000D01*
X124773000Y-95642250D01*
X121526700Y-95642250D01*
X121526700Y-79767250D01*
X128123000Y-79767250D01*
X128123000Y-80581830D01*
X128145174Y-80693305D01*
X128188669Y-80798312D01*
X128251815Y-80892816D01*
X128332184Y-80973185D01*
X128426688Y-81036331D01*
X128531696Y-81079826D01*
X128643171Y-81102000D01*
X128957750Y-81102000D01*
X129102000Y-80957750D01*
X129102000Y-79623000D01*
X128267250Y-79623000D01*
X128123000Y-79767250D01*
X121526700Y-79767250D01*
X121526700Y-78801004D01*
X121764369Y-78468170D01*
X128123000Y-78468170D01*
X128123000Y-79282750D01*
X128267250Y-79427000D01*
X129102000Y-79427000D01*
X129102000Y-78092250D01*
X128957750Y-77948000D01*
X128643171Y-77948000D01*
X128531696Y-77970174D01*
X128426688Y-78013669D01*
X128332184Y-78076815D01*
X128251815Y-78157184D01*
X128188669Y-78251688D01*
X128145174Y-78356695D01*
X128123000Y-78468170D01*
X121764369Y-78468170D01*
X123479141Y-76066793D01*
X124456844Y-77044496D01*
X124502505Y-77082003D01*
X124547774Y-77119719D01*
X124549700Y-77120769D01*
X124551403Y-77122168D01*
X124603522Y-77150114D01*
X124655212Y-77178296D01*
X124657306Y-77178952D01*
X124659247Y-77179993D01*
X124715776Y-77197276D01*
X124771981Y-77214890D01*
X124774163Y-77215127D01*
X124776269Y-77215771D01*
X124835137Y-77221751D01*
X124893635Y-77228105D01*
X124895817Y-77227914D01*
X124898012Y-77228137D01*
X124956946Y-77222566D01*
X125015538Y-77217440D01*
X125017643Y-77216829D01*
X125019838Y-77216621D01*
X125076482Y-77199734D01*
X125133047Y-77183301D01*
X125134998Y-77182290D01*
X125137107Y-77181661D01*
X125189328Y-77154128D01*
X125241689Y-77126987D01*
X125243407Y-77125615D01*
X125245352Y-77124590D01*
X125291256Y-77087418D01*
X125337323Y-77050643D01*
X125340322Y-77047686D01*
X125340451Y-77047581D01*
X125340558Y-77047453D01*
X125343556Y-77044496D01*
X127342536Y-75045516D01*
X127379835Y-75000108D01*
X127417461Y-74955025D01*
X127418642Y-74952864D01*
X127420208Y-74950957D01*
X127448011Y-74899105D01*
X127476128Y-74847637D01*
X127476866Y-74845290D01*
X127478033Y-74843113D01*
X127495247Y-74786810D01*
X127512821Y-74730898D01*
X127513089Y-74728454D01*
X127513811Y-74726091D01*
X127519765Y-74667473D01*
X127526139Y-74609256D01*
X127525927Y-74606809D01*
X127526177Y-74604348D01*
X127520629Y-74545654D01*
X127515577Y-74487344D01*
X127514894Y-74484985D01*
X127514661Y-74482522D01*
X127497856Y-74426153D01*
X127481538Y-74369805D01*
X127480404Y-74367614D01*
X127479701Y-74365254D01*
X127452328Y-74313336D01*
X127425316Y-74261116D01*
X127423779Y-74259187D01*
X127422630Y-74257008D01*
X127385634Y-74211321D01*
X127349053Y-74165418D01*
X127345725Y-74162037D01*
X127345621Y-74161909D01*
X127345496Y-74161805D01*
X127342911Y-74159179D01*
X126493598Y-73308426D01*
X128120209Y-73300304D01*
X128120209Y-74275000D01*
X128131350Y-74388112D01*
X128164343Y-74496876D01*
X128217921Y-74597115D01*
X128290026Y-74684974D01*
X128377885Y-74757079D01*
X128478124Y-74810657D01*
X128586888Y-74843650D01*
X128700000Y-74854791D01*
X129287013Y-74854791D01*
X129748611Y-75316389D01*
X129798729Y-75357557D01*
X129848393Y-75399230D01*
X129851625Y-75401007D01*
X129854480Y-75403352D01*
X129911657Y-75434009D01*
X129968453Y-75465233D01*
X129971972Y-75466349D01*
X129975224Y-75468093D01*
X130037238Y-75487053D01*
X130099046Y-75506660D01*
X130102712Y-75507071D01*
X130106244Y-75508151D01*
X130170771Y-75514705D01*
X130235199Y-75521932D01*
X130242412Y-75521982D01*
X130242549Y-75521996D01*
X130242677Y-75521984D01*
X130245000Y-75522000D01*
X135196907Y-75522000D01*
X135190209Y-75590000D01*
X135190209Y-76590000D01*
X135201350Y-76703112D01*
X135207990Y-76725000D01*
X135201350Y-76746888D01*
X135190209Y-76860000D01*
X135190209Y-77860000D01*
X135201350Y-77973112D01*
X135207990Y-77995000D01*
X135201350Y-78016888D01*
X135190209Y-78130000D01*
X135190209Y-79130000D01*
X135201350Y-79243112D01*
X135234343Y-79351876D01*
X135287921Y-79452115D01*
X135360026Y-79539974D01*
X135447885Y-79612079D01*
X135548124Y-79665657D01*
X135656888Y-79698650D01*
X135770000Y-79709791D01*
X136773908Y-79709791D01*
X136779424Y-79766047D01*
X136784106Y-79817488D01*
X136784649Y-79819333D01*
X136784941Y-79822311D01*
X136808148Y-79899175D01*
X136818656Y-79934878D01*
X136819299Y-79936107D01*
X136820310Y-79939457D01*
X136864442Y-80022459D01*
X136875349Y-80043322D01*
X136875898Y-80044005D01*
X136877758Y-80047503D01*
X136944946Y-80129883D01*
X136952026Y-80138689D01*
X136952349Y-80138960D01*
X136955099Y-80142332D01*
X137045113Y-80216798D01*
X137045766Y-80217346D01*
X137045794Y-80217361D01*
X137049386Y-80220333D01*
X137157028Y-80278534D01*
X137273924Y-80314720D01*
X137395623Y-80327511D01*
X137401238Y-80327000D01*
X138560209Y-80327000D01*
X138560209Y-81320000D01*
X138571350Y-81433112D01*
X138604343Y-81541876D01*
X138657921Y-81642115D01*
X138730026Y-81729974D01*
X138817885Y-81802079D01*
X138918124Y-81855657D01*
X139026888Y-81888650D01*
X139140000Y-81899791D01*
X140140000Y-81899791D01*
X140253112Y-81888650D01*
X140275000Y-81882010D01*
X140296888Y-81888650D01*
X140410000Y-81899791D01*
X141410000Y-81899791D01*
X141523112Y-81888650D01*
X141545000Y-81882010D01*
X141566888Y-81888650D01*
X141680000Y-81899791D01*
X142680000Y-81899791D01*
X142793112Y-81888650D01*
X142815000Y-81882010D01*
X142836888Y-81888650D01*
X142950000Y-81899791D01*
X143950000Y-81899791D01*
X144063112Y-81888650D01*
X144085000Y-81882010D01*
X144106888Y-81888650D01*
X144220000Y-81899791D01*
X145220000Y-81899791D01*
X145333112Y-81888650D01*
X145441876Y-81855657D01*
X145542115Y-81802079D01*
X145629974Y-81729974D01*
X145702079Y-81642115D01*
X145755657Y-81541876D01*
X145788650Y-81433112D01*
X145799791Y-81320000D01*
X145799791Y-80327000D01*
X147000000Y-80327000D01*
X147058721Y-80321242D01*
X147117488Y-80315894D01*
X147119596Y-80315274D01*
X147121785Y-80315059D01*
X147178290Y-80297999D01*
X147234878Y-80281344D01*
X147236826Y-80280325D01*
X147238931Y-80279690D01*
X147291082Y-80251961D01*
X147343322Y-80224651D01*
X147345032Y-80223276D01*
X147346977Y-80222242D01*
X147392784Y-80184882D01*
X147438689Y-80147974D01*
X147440100Y-80146292D01*
X147441806Y-80144901D01*
X147479475Y-80099368D01*
X147517346Y-80054234D01*
X147518403Y-80052311D01*
X147519807Y-80050614D01*
X147547874Y-79998704D01*
X147576298Y-79947002D01*
X147576964Y-79944903D01*
X147578008Y-79942972D01*
X147595441Y-79886657D01*
X147613299Y-79830361D01*
X147613544Y-79828175D01*
X147614194Y-79826076D01*
X147620362Y-79767391D01*
X147626823Y-79709791D01*
X148610000Y-79709791D01*
X148723112Y-79698650D01*
X148831876Y-79665657D01*
X148932115Y-79612079D01*
X149019974Y-79539974D01*
X149092079Y-79452115D01*
X149129556Y-79382000D01*
X149196034Y-79382000D01*
X149260026Y-79459974D01*
X149347885Y-79532079D01*
X149448124Y-79585657D01*
X149556888Y-79618650D01*
X149670000Y-79629791D01*
X150930000Y-79629791D01*
X151043112Y-79618650D01*
X151151876Y-79585657D01*
X151252115Y-79532079D01*
X151337512Y-79461995D01*
X151342921Y-79472115D01*
X151415026Y-79559974D01*
X151502885Y-79632079D01*
X151603124Y-79685657D01*
X151711888Y-79718650D01*
X151825000Y-79729791D01*
X152048000Y-79729791D01*
X152048000Y-86168394D01*
X148289803Y-82410197D01*
X148248601Y-82382667D01*
X148200000Y-82373000D01*
X137195217Y-82373000D01*
X137149783Y-82381405D01*
X137107857Y-82407819D01*
X131612640Y-87615657D01*
X131582667Y-87659237D01*
X131573000Y-87707838D01*
X131573000Y-88470209D01*
X131150000Y-88470209D01*
X131036888Y-88481350D01*
X130928124Y-88514343D01*
X130827885Y-88567921D01*
X130740026Y-88640026D01*
X130667921Y-88727885D01*
X130614343Y-88828124D01*
X130581350Y-88936888D01*
X130570209Y-89050000D01*
X130570209Y-89332959D01*
X130534974Y-89290026D01*
X130447115Y-89217921D01*
X130399363Y-89192397D01*
X130401991Y-89004200D01*
X130364775Y-88816250D01*
X130291762Y-88639107D01*
X130185733Y-88479520D01*
X130050725Y-88343566D01*
X129891882Y-88236425D01*
X129715254Y-88162177D01*
X129527567Y-88123651D01*
X129335973Y-88122313D01*
X129147767Y-88158216D01*
X128970119Y-88229990D01*
X128809795Y-88334903D01*
X128752000Y-88391500D01*
X128752000Y-88318610D01*
X131731744Y-85338867D01*
X131775865Y-85285154D01*
X131820485Y-85231977D01*
X131822389Y-85228515D01*
X131824900Y-85225457D01*
X131857742Y-85164208D01*
X131891190Y-85103366D01*
X131892385Y-85099598D01*
X131894254Y-85096113D01*
X131914553Y-85029715D01*
X131935567Y-84963472D01*
X131936008Y-84959538D01*
X131937163Y-84955761D01*
X131944175Y-84886733D01*
X131951927Y-84817622D01*
X131951981Y-84809887D01*
X131951995Y-84809747D01*
X131951983Y-84809616D01*
X131952000Y-84807122D01*
X131952000Y-81044556D01*
X132022115Y-81007079D01*
X132109974Y-80934974D01*
X132182079Y-80847115D01*
X132235657Y-80746876D01*
X132268650Y-80638112D01*
X132279791Y-80525000D01*
X132279791Y-78525000D01*
X132268650Y-78411888D01*
X132235657Y-78303124D01*
X132182079Y-78202885D01*
X132109974Y-78115026D01*
X132022115Y-78042921D01*
X131921876Y-77989343D01*
X131813112Y-77956350D01*
X131700000Y-77945209D01*
X130700000Y-77945209D01*
X130586888Y-77956350D01*
X130478124Y-77989343D01*
X130377885Y-78042921D01*
X130290026Y-78115026D01*
X130217921Y-78202885D01*
X130200500Y-78235478D01*
X130148185Y-78157184D01*
X130067816Y-78076815D01*
X129973312Y-78013669D01*
X129868304Y-77970174D01*
X129756829Y-77948000D01*
X129442250Y-77948000D01*
X129298000Y-78092250D01*
X129298000Y-79427000D01*
X129318000Y-79427000D01*
X129318000Y-79623000D01*
X129298000Y-79623000D01*
X129298000Y-80957750D01*
X129442250Y-81102000D01*
X129756829Y-81102000D01*
X129868304Y-81079826D01*
X129973312Y-81036331D01*
X130067816Y-80973185D01*
X130148185Y-80892816D01*
X130200500Y-80814522D01*
X130217921Y-80847115D01*
X130290026Y-80934974D01*
X130377885Y-81007079D01*
X130448000Y-81044556D01*
X130448000Y-84495633D01*
X127468256Y-87475378D01*
X127424174Y-87529044D01*
X127379515Y-87582267D01*
X127377610Y-87585733D01*
X127375100Y-87588788D01*
X127342280Y-87649997D01*
X127327000Y-87677791D01*
X127327000Y-87668171D01*
X127304826Y-87556696D01*
X127261331Y-87451688D01*
X127254515Y-87441486D01*
X127272115Y-87432079D01*
X127359974Y-87359974D01*
X127432079Y-87272115D01*
X127485657Y-87171876D01*
X127518650Y-87063112D01*
X127529791Y-86950000D01*
X127529791Y-86050000D01*
X127518650Y-85936888D01*
X127485657Y-85828124D01*
X127432079Y-85727885D01*
X127359974Y-85640026D01*
X127307240Y-85596748D01*
X127323986Y-85523043D01*
X127327042Y-85304200D01*
X127289826Y-85116250D01*
X127216813Y-84939107D01*
X127110784Y-84779520D01*
X126975776Y-84643566D01*
X126816933Y-84536425D01*
X126640305Y-84462177D01*
X126452618Y-84423651D01*
X126261024Y-84422313D01*
X126072818Y-84458216D01*
X125895170Y-84529990D01*
X125734846Y-84634903D01*
X125597953Y-84768958D01*
X125489706Y-84927049D01*
X125414227Y-85103155D01*
X125374391Y-85290568D01*
X125371716Y-85482149D01*
X125392750Y-85596756D01*
X125340026Y-85640026D01*
X125267921Y-85727885D01*
X125250000Y-85761413D01*
X125232079Y-85727885D01*
X125159974Y-85640026D01*
X125072115Y-85567921D01*
X124971876Y-85514343D01*
X124863112Y-85481350D01*
X124750000Y-85470209D01*
X123550000Y-85470209D01*
X123436888Y-85481350D01*
X123328124Y-85514343D01*
X123227885Y-85567921D01*
X123140026Y-85640026D01*
X123067921Y-85727885D01*
X123014343Y-85828124D01*
X122981350Y-85936888D01*
X122970209Y-86050000D01*
X122970209Y-86950000D01*
X122981350Y-87063112D01*
X123014343Y-87171876D01*
X123067921Y-87272115D01*
X123140026Y-87359974D01*
X123177738Y-87390924D01*
X123167921Y-87402885D01*
X123114343Y-87503124D01*
X123081350Y-87611888D01*
X123070209Y-87725000D01*
X123070209Y-88475000D01*
X123081350Y-88588112D01*
X123114343Y-88696876D01*
X123167921Y-88797115D01*
X123240026Y-88884974D01*
X123327885Y-88957079D01*
X123428124Y-89010657D01*
X123536888Y-89043650D01*
X123650000Y-89054791D01*
X124212013Y-89054791D01*
X124277431Y-89120209D01*
X124275000Y-89120209D01*
X124161888Y-89131350D01*
X124053124Y-89164343D01*
X123952885Y-89217921D01*
X123865026Y-89290026D01*
X123792921Y-89377885D01*
X123739343Y-89478124D01*
X123706350Y-89586888D01*
X123695209Y-89700000D01*
X123695209Y-90150000D01*
X123705565Y-90255140D01*
X123698000Y-90293171D01*
X123698000Y-90332750D01*
X123741889Y-90376639D01*
X123792921Y-90472115D01*
X123865026Y-90559974D01*
X123883335Y-90575000D01*
X123865026Y-90590026D01*
X123792921Y-90677885D01*
X123741889Y-90773361D01*
X123698000Y-90817250D01*
X123698000Y-90856829D01*
X123705565Y-90894860D01*
X123695209Y-91000000D01*
X123695209Y-91450000D01*
X123705565Y-91555140D01*
X123698000Y-91593171D01*
X123698000Y-91632750D01*
X123741889Y-91676639D01*
X123792921Y-91772115D01*
X123865026Y-91859974D01*
X123952885Y-91932079D01*
X124029444Y-91973000D01*
X123842250Y-91973000D01*
X123698000Y-92117250D01*
X123698000Y-92156829D01*
X123720174Y-92268304D01*
X123763669Y-92373312D01*
X123826815Y-92467816D01*
X123907184Y-92548185D01*
X124001688Y-92611331D01*
X124106695Y-92654826D01*
X124218170Y-92677000D01*
X124757750Y-92677000D01*
X124902000Y-92532750D01*
X124902000Y-92029791D01*
X125098000Y-92029791D01*
X125098000Y-92532750D01*
X125235459Y-92670209D01*
X125100000Y-92670209D01*
X124986888Y-92681350D01*
X124878124Y-92714343D01*
X124777885Y-92767921D01*
X124690026Y-92840026D01*
X124617921Y-92927885D01*
X124564343Y-93028124D01*
X124531350Y-93136888D01*
X124520209Y-93250000D01*
X124520209Y-94150000D01*
X124531350Y-94263112D01*
X124564343Y-94371876D01*
X124617921Y-94472115D01*
X124690026Y-94559974D01*
X124777885Y-94632079D01*
X124878124Y-94685657D01*
X124882003Y-94686834D01*
X124838669Y-94751688D01*
X124795174Y-94856696D01*
X124773000Y-94968171D01*
X124773000Y-95157750D01*
X124917250Y-95302000D01*
X125852000Y-95302000D01*
X125852000Y-95282000D01*
X126048000Y-95282000D01*
X126048000Y-95302000D01*
X126068000Y-95302000D01*
X126068000Y-95498000D01*
X126048000Y-95498000D01*
X126048000Y-96207750D01*
X126192250Y-96352000D01*
X126606830Y-96352000D01*
X126718305Y-96329826D01*
X126823312Y-96286331D01*
X126900601Y-96234688D01*
X126927885Y-96257079D01*
X127028124Y-96310657D01*
X127136888Y-96343650D01*
X127250000Y-96354791D01*
X127966303Y-96354791D01*
X137197403Y-105585891D01*
X137231303Y-105770601D01*
X137301836Y-105948745D01*
X137405627Y-106109798D01*
X137476246Y-106182926D01*
X137429452Y-106187185D01*
X137209088Y-106252042D01*
X137005518Y-106358465D01*
X136826496Y-106502403D01*
X136678841Y-106678371D01*
X136650508Y-106729909D01*
X136630348Y-106691995D01*
X136485165Y-106513983D01*
X136308170Y-106367560D01*
X136106106Y-106258304D01*
X135886669Y-106190377D01*
X135658217Y-106166366D01*
X135429452Y-106187185D01*
X135209088Y-106252042D01*
X135005518Y-106358465D01*
X134826496Y-106502403D01*
X134678841Y-106678371D01*
X134650508Y-106729909D01*
X134630348Y-106691995D01*
X134485165Y-106513983D01*
X134308170Y-106367560D01*
X134106106Y-106258304D01*
X133886669Y-106190377D01*
X133658217Y-106166366D01*
X133429452Y-106187185D01*
X133209088Y-106252042D01*
X133005518Y-106358465D01*
X132826496Y-106502403D01*
X132678841Y-106678371D01*
X132650508Y-106729909D01*
X132630348Y-106691995D01*
X132485165Y-106513983D01*
X132308170Y-106367560D01*
X132106106Y-106258304D01*
X131886669Y-106190377D01*
X131658217Y-106166366D01*
X131429452Y-106187185D01*
X131209088Y-106252042D01*
X131005518Y-106358465D01*
X130826496Y-106502403D01*
X130678841Y-106678371D01*
X130568178Y-106879667D01*
X130498720Y-107098625D01*
X130473115Y-107326904D01*
X130473000Y-107343337D01*
X130473000Y-107756663D01*
X130495416Y-107985277D01*
X130561809Y-108205183D01*
X130669652Y-108408005D01*
X130786001Y-108550663D01*
X130678841Y-108678371D01*
X130568178Y-108879667D01*
X130498720Y-109098625D01*
X130473115Y-109326904D01*
X130473000Y-109343337D01*
X130473000Y-109756663D01*
X130495416Y-109985277D01*
X130561809Y-110205183D01*
X130669652Y-110408005D01*
X130814835Y-110586017D01*
X130991830Y-110732440D01*
X131193894Y-110841696D01*
X131413331Y-110909623D01*
X131641783Y-110933634D01*
X131870548Y-110912815D01*
X132090912Y-110847958D01*
X132294482Y-110741535D01*
X132473504Y-110597597D01*
X132621159Y-110421629D01*
X132649492Y-110370091D01*
X132669652Y-110408005D01*
X132814835Y-110586017D01*
X132991830Y-110732440D01*
X133193894Y-110841696D01*
X133413331Y-110909623D01*
X133641783Y-110933634D01*
X133870548Y-110912815D01*
X134090912Y-110847958D01*
X134294482Y-110741535D01*
X134473504Y-110597597D01*
X134621159Y-110421629D01*
X134649492Y-110370091D01*
X134669652Y-110408005D01*
X134814835Y-110586017D01*
X134991830Y-110732440D01*
X135193894Y-110841696D01*
X135413331Y-110909623D01*
X135641783Y-110933634D01*
X135870548Y-110912815D01*
X136090912Y-110847958D01*
X136294482Y-110741535D01*
X136473504Y-110597597D01*
X136621159Y-110421629D01*
X136649492Y-110370091D01*
X136669652Y-110408005D01*
X136814835Y-110586017D01*
X136991830Y-110732440D01*
X137193894Y-110841696D01*
X137413331Y-110909623D01*
X137641783Y-110933634D01*
X137870548Y-110912815D01*
X138090912Y-110847958D01*
X138294482Y-110741535D01*
X138473504Y-110597597D01*
X138621159Y-110421629D01*
X138649492Y-110370091D01*
X138669652Y-110408005D01*
X138814835Y-110586017D01*
X138991830Y-110732440D01*
X139193894Y-110841696D01*
X139413331Y-110909623D01*
X139641783Y-110933634D01*
X139870548Y-110912815D01*
X140090912Y-110847958D01*
X140294482Y-110741535D01*
X140473504Y-110597597D01*
X140621159Y-110421629D01*
X140650305Y-110368613D01*
X140725806Y-110485390D01*
X140887032Y-110651561D01*
X141077578Y-110783085D01*
X141290122Y-110874909D01*
X141369723Y-110893142D01*
X141552000Y-110778090D01*
X141552000Y-109648000D01*
X141532000Y-109648000D01*
X141532000Y-109452000D01*
X141552000Y-109452000D01*
X141552000Y-109432000D01*
X141748000Y-109432000D01*
X141748000Y-109452000D01*
X141768000Y-109452000D01*
X141768000Y-109648000D01*
X141748000Y-109648000D01*
X141748000Y-110778090D01*
X141930277Y-110893142D01*
X142009878Y-110874909D01*
X142222422Y-110783085D01*
X142412968Y-110651561D01*
X142574194Y-110485390D01*
X142649153Y-110369452D01*
X142669652Y-110408005D01*
X142814835Y-110586017D01*
X142991830Y-110732440D01*
X143193894Y-110841696D01*
X143413331Y-110909623D01*
X143641783Y-110933634D01*
X143870548Y-110912815D01*
X144090912Y-110847958D01*
X144294482Y-110741535D01*
X144473504Y-110597597D01*
X144621159Y-110421629D01*
X144731822Y-110220333D01*
X144801280Y-110001375D01*
X144826885Y-109773096D01*
X144827000Y-109756663D01*
X144827000Y-109442250D01*
X145073000Y-109442250D01*
X145073000Y-109856830D01*
X145095174Y-109968305D01*
X145138669Y-110073312D01*
X145201815Y-110167816D01*
X145282184Y-110248185D01*
X145376688Y-110311331D01*
X145481696Y-110354826D01*
X145593171Y-110377000D01*
X145857750Y-110377000D01*
X146002000Y-110232750D01*
X146002000Y-109298000D01*
X145217250Y-109298000D01*
X145073000Y-109442250D01*
X144827000Y-109442250D01*
X144827000Y-109343337D01*
X144804584Y-109114723D01*
X144738191Y-108894817D01*
X144630348Y-108691995D01*
X144513999Y-108549337D01*
X144621159Y-108421629D01*
X144731822Y-108220333D01*
X144801280Y-108001375D01*
X144826885Y-107773096D01*
X144827000Y-107756663D01*
X144827000Y-107343337D01*
X144804584Y-107114723D01*
X144738191Y-106894817D01*
X144630348Y-106691995D01*
X144485165Y-106513983D01*
X144308170Y-106367560D01*
X144106106Y-106258304D01*
X143886669Y-106190377D01*
X143658217Y-106166366D01*
X143429452Y-106187185D01*
X143209088Y-106252042D01*
X143005518Y-106358465D01*
X142826496Y-106502403D01*
X142678841Y-106678371D01*
X142650508Y-106729909D01*
X142630348Y-106691995D01*
X142485165Y-106513983D01*
X142308170Y-106367560D01*
X142106106Y-106258304D01*
X141886669Y-106190377D01*
X141658217Y-106166366D01*
X141429452Y-106187185D01*
X141209088Y-106252042D01*
X141005518Y-106358465D01*
X140826496Y-106502403D01*
X140678841Y-106678371D01*
X140650508Y-106729909D01*
X140630348Y-106691995D01*
X140485165Y-106513983D01*
X140308170Y-106367560D01*
X140106106Y-106258304D01*
X139886669Y-106190377D01*
X139658217Y-106166366D01*
X139429452Y-106187185D01*
X139209088Y-106252042D01*
X139005518Y-106358465D01*
X138826496Y-106502403D01*
X138678841Y-106678371D01*
X138650508Y-106729909D01*
X138630348Y-106691995D01*
X138485165Y-106513983D01*
X138408880Y-106450875D01*
X138439006Y-106445563D01*
X138617639Y-106376276D01*
X138779411Y-106273611D01*
X138918162Y-106141481D01*
X139028607Y-105984916D01*
X139106537Y-105809881D01*
X139148986Y-105623043D01*
X139152042Y-105404200D01*
X139114826Y-105216250D01*
X139071083Y-105110121D01*
X139079610Y-105102000D01*
X140500000Y-105102000D01*
X140564517Y-105095674D01*
X140629134Y-105090021D01*
X140632678Y-105088991D01*
X140636353Y-105088631D01*
X140698428Y-105069889D01*
X140760700Y-105051797D01*
X140763979Y-105050097D01*
X140767511Y-105049031D01*
X140824745Y-105018599D01*
X140882337Y-104988747D01*
X140885222Y-104986444D01*
X140888481Y-104984711D01*
X140938714Y-104943742D01*
X140989411Y-104903271D01*
X140994548Y-104898204D01*
X140994653Y-104898119D01*
X140994733Y-104898022D01*
X140996389Y-104896389D01*
X141562987Y-104329791D01*
X141849694Y-104329791D01*
X142183971Y-104664068D01*
X142235851Y-104706682D01*
X142287307Y-104749859D01*
X142290661Y-104751703D01*
X142293611Y-104754126D01*
X142352774Y-104785849D01*
X142411642Y-104818212D01*
X142415283Y-104819367D01*
X142418655Y-104821175D01*
X142482948Y-104840832D01*
X142546886Y-104861114D01*
X142550679Y-104861539D01*
X142554341Y-104862659D01*
X142621232Y-104869453D01*
X142687887Y-104876930D01*
X142695355Y-104876982D01*
X142695500Y-104876997D01*
X142695635Y-104876984D01*
X142698038Y-104877001D01*
X144699999Y-104877001D01*
X144766818Y-104870449D01*
X144833732Y-104864595D01*
X144837405Y-104863528D01*
X144841207Y-104863155D01*
X144905481Y-104843750D01*
X144969983Y-104825010D01*
X144973376Y-104823251D01*
X144977037Y-104822146D01*
X145036391Y-104790587D01*
X145095951Y-104759714D01*
X145098934Y-104757333D01*
X145102315Y-104755535D01*
X145154400Y-104713055D01*
X145206838Y-104671195D01*
X145212162Y-104665946D01*
X145212268Y-104665859D01*
X145212349Y-104665761D01*
X145214066Y-104664068D01*
X145548343Y-104329791D01*
X146300000Y-104329791D01*
X146413112Y-104318650D01*
X146521876Y-104285657D01*
X146622115Y-104232079D01*
X146709974Y-104159974D01*
X146782079Y-104072115D01*
X146835657Y-103971876D01*
X146868650Y-103863112D01*
X146879791Y-103750000D01*
X146879791Y-102852000D01*
X150800000Y-102852000D01*
X150869126Y-102845222D01*
X150873000Y-102844883D01*
X150873000Y-102931829D01*
X150895174Y-103043304D01*
X150938669Y-103148312D01*
X151001815Y-103242816D01*
X151082184Y-103323185D01*
X151176688Y-103386331D01*
X151281695Y-103429826D01*
X151393170Y-103452000D01*
X151807750Y-103452000D01*
X151952000Y-103307750D01*
X151952000Y-102598000D01*
X151932000Y-102598000D01*
X151932000Y-102402000D01*
X151952000Y-102402000D01*
X151952000Y-102382000D01*
X152148000Y-102382000D01*
X152148000Y-102402000D01*
X152168000Y-102402000D01*
X152168000Y-102598000D01*
X152148000Y-102598000D01*
X152148000Y-103307750D01*
X152292250Y-103452000D01*
X152706830Y-103452000D01*
X152818305Y-103429826D01*
X152923312Y-103386331D01*
X153000601Y-103334688D01*
X153027885Y-103357079D01*
X153128124Y-103410657D01*
X153198000Y-103431854D01*
X153198000Y-104441913D01*
X153139706Y-104527049D01*
X153064227Y-104703155D01*
X153024391Y-104890568D01*
X153021716Y-105082149D01*
X153056303Y-105270601D01*
X153126836Y-105448745D01*
X153230627Y-105609798D01*
X153363723Y-105747623D01*
X153373000Y-105754071D01*
X153373000Y-105861928D01*
X153364343Y-105878124D01*
X153334628Y-105976082D01*
X153275000Y-105970209D01*
X152536578Y-105970209D01*
X152609974Y-105909974D01*
X152682079Y-105822115D01*
X152735657Y-105721876D01*
X152768650Y-105613112D01*
X152779791Y-105500000D01*
X152779791Y-104300000D01*
X152768650Y-104186888D01*
X152735657Y-104078124D01*
X152682079Y-103977885D01*
X152609974Y-103890026D01*
X152522115Y-103817921D01*
X152421876Y-103764343D01*
X152313112Y-103731350D01*
X152200000Y-103720209D01*
X151300000Y-103720209D01*
X151186888Y-103731350D01*
X151078124Y-103764343D01*
X150977885Y-103817921D01*
X150890026Y-103890026D01*
X150817921Y-103977885D01*
X150764343Y-104078124D01*
X150731350Y-104186888D01*
X150720209Y-104300000D01*
X150720209Y-104905076D01*
X150693319Y-104937813D01*
X150650142Y-104989269D01*
X150648298Y-104992623D01*
X150645875Y-104995573D01*
X150614152Y-105054736D01*
X150581789Y-105113604D01*
X150580634Y-105117245D01*
X150578826Y-105120617D01*
X150559169Y-105184910D01*
X150538887Y-105248848D01*
X150538462Y-105252641D01*
X150537342Y-105256303D01*
X150530548Y-105323194D01*
X150523071Y-105389849D01*
X150523019Y-105397317D01*
X150523004Y-105397462D01*
X150523017Y-105397597D01*
X150523000Y-105400000D01*
X150523000Y-105912250D01*
X150398000Y-106037250D01*
X150398000Y-106231928D01*
X150389343Y-106248124D01*
X150356350Y-106356888D01*
X150345209Y-106470000D01*
X150345209Y-107118000D01*
X150254791Y-107118000D01*
X150254791Y-106470000D01*
X150243650Y-106356888D01*
X150210657Y-106248124D01*
X150202000Y-106231928D01*
X150202000Y-106037250D01*
X150057750Y-105893000D01*
X149918171Y-105893000D01*
X149822996Y-105911932D01*
X149788112Y-105901350D01*
X149675000Y-105890209D01*
X149025000Y-105890209D01*
X148911888Y-105901350D01*
X148803124Y-105934343D01*
X148702885Y-105987921D01*
X148616458Y-106058851D01*
X148559974Y-105990026D01*
X148502000Y-105942447D01*
X148502000Y-105476223D01*
X148531537Y-105409881D01*
X148573986Y-105223043D01*
X148577042Y-105004200D01*
X148539826Y-104816250D01*
X148466813Y-104639107D01*
X148360784Y-104479520D01*
X148225776Y-104343566D01*
X148066933Y-104236425D01*
X147890305Y-104162177D01*
X147702618Y-104123651D01*
X147511024Y-104122313D01*
X147322818Y-104158216D01*
X147145170Y-104229990D01*
X146984846Y-104334903D01*
X146847953Y-104468958D01*
X146739706Y-104627049D01*
X146664227Y-104803155D01*
X146624391Y-104990568D01*
X146621716Y-105182149D01*
X146656303Y-105370601D01*
X146726836Y-105548745D01*
X146798000Y-105659171D01*
X146798000Y-105878306D01*
X146771876Y-105864343D01*
X146663112Y-105831350D01*
X146550000Y-105820209D01*
X145650000Y-105820209D01*
X145536888Y-105831350D01*
X145428124Y-105864343D01*
X145327885Y-105917921D01*
X145240026Y-105990026D01*
X145167921Y-106077885D01*
X145114343Y-106178124D01*
X145081350Y-106286888D01*
X145070209Y-106400000D01*
X145070209Y-107600000D01*
X145081350Y-107713112D01*
X145114343Y-107821876D01*
X145167921Y-107922115D01*
X145240026Y-108009974D01*
X145327885Y-108082079D01*
X145360478Y-108099500D01*
X145282184Y-108151815D01*
X145201815Y-108232184D01*
X145138669Y-108326688D01*
X145095174Y-108431695D01*
X145073000Y-108543170D01*
X145073000Y-108957750D01*
X145217250Y-109102000D01*
X146002000Y-109102000D01*
X146002000Y-109082000D01*
X146198000Y-109082000D01*
X146198000Y-109102000D01*
X146218000Y-109102000D01*
X146218000Y-109298000D01*
X146198000Y-109298000D01*
X146198000Y-110232750D01*
X146342250Y-110377000D01*
X146606829Y-110377000D01*
X146718304Y-110354826D01*
X146823312Y-110311331D01*
X146900601Y-110259688D01*
X146927885Y-110282079D01*
X147028124Y-110335657D01*
X147136888Y-110368650D01*
X147250000Y-110379791D01*
X148150000Y-110379791D01*
X148220209Y-110372876D01*
X148220209Y-110673000D01*
X147321158Y-110673000D01*
X147266933Y-110636425D01*
X147090305Y-110562177D01*
X146902618Y-110523651D01*
X146711024Y-110522313D01*
X146522818Y-110558216D01*
X146345170Y-110629990D01*
X146184846Y-110734903D01*
X146047953Y-110868958D01*
X145939706Y-111027049D01*
X145864227Y-111203155D01*
X145824391Y-111390568D01*
X145821716Y-111582149D01*
X145856303Y-111770601D01*
X145926836Y-111948745D01*
X146030627Y-112109798D01*
X146163723Y-112247623D01*
X146321055Y-112356971D01*
X146496630Y-112433678D01*
X146683760Y-112474821D01*
X146875317Y-112478834D01*
X147064006Y-112445563D01*
X147242639Y-112376276D01*
X147320285Y-112327000D01*
X148561928Y-112327000D01*
X148578124Y-112335657D01*
X148686888Y-112368650D01*
X148800000Y-112379791D01*
X149800000Y-112379791D01*
X149913112Y-112368650D01*
X150021876Y-112335657D01*
X150122115Y-112282079D01*
X150209974Y-112209974D01*
X150282079Y-112122115D01*
X150335657Y-112021876D01*
X150368650Y-111913112D01*
X150379791Y-111800000D01*
X150379791Y-111242250D01*
X151223000Y-111242250D01*
X151223000Y-111856829D01*
X151245174Y-111968304D01*
X151288669Y-112073312D01*
X151351815Y-112167816D01*
X151432184Y-112248185D01*
X151526688Y-112311331D01*
X151631695Y-112354826D01*
X151743170Y-112377000D01*
X152057750Y-112377000D01*
X152202000Y-112232750D01*
X152202000Y-111098000D01*
X151367250Y-111098000D01*
X151223000Y-111242250D01*
X150379791Y-111242250D01*
X150379791Y-110309791D01*
X150625000Y-110309791D01*
X150738112Y-110298650D01*
X150775000Y-110287460D01*
X150811888Y-110298650D01*
X150925000Y-110309791D01*
X151223000Y-110309791D01*
X151223000Y-110757750D01*
X151367250Y-110902000D01*
X152202000Y-110902000D01*
X152202000Y-110882000D01*
X152398000Y-110882000D01*
X152398000Y-110902000D01*
X152418000Y-110902000D01*
X152418000Y-111098000D01*
X152398000Y-111098000D01*
X152398000Y-112232750D01*
X152542250Y-112377000D01*
X152856830Y-112377000D01*
X152968305Y-112354826D01*
X153073312Y-112311331D01*
X153167816Y-112248185D01*
X153248185Y-112167816D01*
X153311331Y-112073312D01*
X153354826Y-111968304D01*
X153377000Y-111856829D01*
X153377000Y-111242250D01*
X153232752Y-111098002D01*
X153377000Y-111098002D01*
X153377000Y-111045140D01*
X153388669Y-111073312D01*
X153451815Y-111167816D01*
X153532184Y-111248185D01*
X153626688Y-111311331D01*
X153731696Y-111354826D01*
X153843171Y-111377000D01*
X154257750Y-111377000D01*
X154402000Y-111232750D01*
X154402000Y-110198000D01*
X154598000Y-110198000D01*
X154598000Y-111232750D01*
X154742250Y-111377000D01*
X155156829Y-111377000D01*
X155268304Y-111354826D01*
X155373312Y-111311331D01*
X155467816Y-111248185D01*
X155548185Y-111167816D01*
X155611331Y-111073312D01*
X155654826Y-110968305D01*
X155677000Y-110856830D01*
X155677000Y-110342250D01*
X155532750Y-110198000D01*
X154598000Y-110198000D01*
X154402000Y-110198000D01*
X154382000Y-110198000D01*
X154382000Y-110002000D01*
X154402000Y-110002000D01*
X154402000Y-108967250D01*
X154257750Y-108823000D01*
X154155134Y-108823000D01*
X154298342Y-108679791D01*
X154660648Y-108679791D01*
X154715359Y-108724731D01*
X154791531Y-108788647D01*
X154796491Y-108791374D01*
X154800869Y-108794970D01*
X154853144Y-108823000D01*
X154742250Y-108823000D01*
X154598000Y-108967250D01*
X154598000Y-110002000D01*
X155532750Y-110002000D01*
X155677000Y-109857750D01*
X155677000Y-109477526D01*
X155700000Y-109479791D01*
X159700000Y-109479791D01*
X159813112Y-109468650D01*
X159921876Y-109435657D01*
X160022115Y-109382079D01*
X160109974Y-109309974D01*
X160182079Y-109222115D01*
X160235657Y-109121876D01*
X160268650Y-109013112D01*
X160279791Y-108900000D01*
X160279791Y-108127000D01*
X160400000Y-108127000D01*
X160448601Y-108117333D01*
X160489803Y-108089803D01*
X160517333Y-108048601D01*
X160527000Y-108000000D01*
X160527000Y-104000000D01*
X160517333Y-103951399D01*
X160489803Y-103910197D01*
X160448601Y-103882667D01*
X160400000Y-103873000D01*
X160279791Y-103873000D01*
X160279791Y-103650000D01*
X160268650Y-103536888D01*
X160235657Y-103428124D01*
X160182079Y-103327885D01*
X160109974Y-103240026D01*
X160022115Y-103167921D01*
X159921876Y-103114343D01*
X159813112Y-103081350D01*
X159700000Y-103070209D01*
X155700000Y-103070209D01*
X155586888Y-103081350D01*
X155478124Y-103114343D01*
X155377885Y-103167921D01*
X155290026Y-103240026D01*
X155217921Y-103327885D01*
X155164343Y-103428124D01*
X155131350Y-103536888D01*
X155120209Y-103650000D01*
X155120209Y-103720209D01*
X154802000Y-103720209D01*
X154802000Y-103394556D01*
X154872115Y-103357079D01*
X154959974Y-103284974D01*
X155032079Y-103197115D01*
X155085657Y-103096876D01*
X155118650Y-102988112D01*
X155129791Y-102875000D01*
X155129791Y-102125000D01*
X155118650Y-102011888D01*
X155085657Y-101903124D01*
X155032079Y-101802885D01*
X154959974Y-101715026D01*
X154872115Y-101642921D01*
X154802000Y-101605444D01*
X154802000Y-101266518D01*
X154809974Y-101259974D01*
X154882079Y-101172115D01*
X154935657Y-101071876D01*
X154968650Y-100963112D01*
X154979791Y-100850000D01*
X154979791Y-99950000D01*
X154968650Y-99836888D01*
X154935657Y-99728124D01*
X154882079Y-99627885D01*
X154809974Y-99540026D01*
X154722115Y-99467921D01*
X154621876Y-99414343D01*
X154513112Y-99381350D01*
X154400000Y-99370209D01*
X153900000Y-99370209D01*
X153786888Y-99381350D01*
X153678124Y-99414343D01*
X153577885Y-99467921D01*
X153552000Y-99489165D01*
X153552000Y-79150000D01*
X153545218Y-79080829D01*
X153539167Y-79011669D01*
X153538064Y-79007872D01*
X153537678Y-79003936D01*
X153517591Y-78937405D01*
X153498221Y-78870731D01*
X153496403Y-78867223D01*
X153495259Y-78863435D01*
X153462625Y-78802059D01*
X153430680Y-78740432D01*
X153428215Y-78737344D01*
X153426357Y-78733850D01*
X153382447Y-78680010D01*
X153339117Y-78625732D01*
X153333691Y-78620230D01*
X153333597Y-78620115D01*
X153333490Y-78620027D01*
X153331744Y-78618256D01*
X153154791Y-78441303D01*
X153154791Y-77950000D01*
X153143650Y-77836888D01*
X153110657Y-77728124D01*
X153057079Y-77627885D01*
X153034688Y-77600601D01*
X153086331Y-77523312D01*
X153129826Y-77418305D01*
X153152000Y-77306830D01*
X153152000Y-76892250D01*
X153007750Y-76748000D01*
X152298000Y-76748000D01*
X152298000Y-76768000D01*
X152102000Y-76768000D01*
X152102000Y-76748000D01*
X152082000Y-76748000D01*
X152082000Y-76552000D01*
X152102000Y-76552000D01*
X152102000Y-75617250D01*
X152298000Y-75617250D01*
X152298000Y-76552000D01*
X153007750Y-76552000D01*
X153152000Y-76407750D01*
X153152000Y-75993170D01*
X153129826Y-75881695D01*
X153086331Y-75776688D01*
X153023185Y-75682184D01*
X152942816Y-75601815D01*
X152848312Y-75538669D01*
X152743304Y-75495174D01*
X152631829Y-75473000D01*
X152442250Y-75473000D01*
X152298000Y-75617250D01*
X152102000Y-75617250D01*
X151957750Y-75473000D01*
X151768171Y-75473000D01*
X151656696Y-75495174D01*
X151551688Y-75538669D01*
X151507000Y-75568529D01*
X151507000Y-75526998D01*
X151362752Y-75526998D01*
X151507000Y-75382750D01*
X151507000Y-74693170D01*
X151484826Y-74581695D01*
X151441331Y-74476688D01*
X151378185Y-74382184D01*
X151297816Y-74301815D01*
X151203312Y-74238669D01*
X151098304Y-74195174D01*
X150986829Y-74173000D01*
X150542250Y-74173000D01*
X150398000Y-74317250D01*
X150398000Y-75527000D01*
X150418000Y-75527000D01*
X150418000Y-75723000D01*
X150398000Y-75723000D01*
X150398000Y-75743000D01*
X150202000Y-75743000D01*
X150202000Y-75723000D01*
X150182000Y-75723000D01*
X150182000Y-75527000D01*
X150202000Y-75527000D01*
X150202000Y-74317250D01*
X150057750Y-74173000D01*
X149613171Y-74173000D01*
X149501696Y-74195174D01*
X149396688Y-74238669D01*
X149302184Y-74301815D01*
X149221815Y-74382184D01*
X149189791Y-74430111D01*
X149189791Y-74320000D01*
X149178650Y-74206888D01*
X149171672Y-74183886D01*
X149187000Y-74106829D01*
X149187000Y-73792250D01*
X149042750Y-73648000D01*
X148784747Y-73648000D01*
X148788949Y-73486458D01*
X148783022Y-73452000D01*
X149042750Y-73452000D01*
X149187000Y-73307750D01*
X149187000Y-73195108D01*
X158464840Y-73148780D01*
X157456149Y-74159180D01*
X157456149Y-74159180D01*
G37*
X157456149Y-74159180D02*
X157418871Y-74204641D01*
X157381301Y-74249734D01*
X157380124Y-74251894D01*
X157378557Y-74253804D01*
X157350804Y-74305669D01*
X157322724Y-74357172D01*
X157321987Y-74359523D01*
X157320824Y-74361697D01*
X157303693Y-74417899D01*
X157286130Y-74473941D01*
X157285864Y-74476390D01*
X157285145Y-74478749D01*
X157279251Y-74537266D01*
X157272915Y-74595595D01*
X157273129Y-74598046D01*
X157272882Y-74600502D01*
X157278468Y-74659072D01*
X157283580Y-74717498D01*
X157284267Y-74719861D01*
X157284501Y-74722319D01*
X157301342Y-74778636D01*
X157317719Y-74835007D01*
X157318854Y-74837196D01*
X157319560Y-74839558D01*
X157346985Y-74891467D01*
X157374033Y-74943649D01*
X157375573Y-74945578D01*
X157376723Y-74947755D01*
X157413690Y-74993326D01*
X157450377Y-75039283D01*
X157453717Y-75042670D01*
X157453813Y-75042788D01*
X157453928Y-75042884D01*
X157456524Y-75045516D01*
X159455504Y-77044496D01*
X159501165Y-77082003D01*
X159546434Y-77119719D01*
X159548360Y-77120769D01*
X159550063Y-77122168D01*
X159602182Y-77150114D01*
X159653872Y-77178296D01*
X159655966Y-77178952D01*
X159657907Y-77179993D01*
X159714436Y-77197276D01*
X159770641Y-77214890D01*
X159772823Y-77215127D01*
X159774929Y-77215771D01*
X159833797Y-77221751D01*
X159892295Y-77228105D01*
X159894477Y-77227914D01*
X159896672Y-77228137D01*
X159955606Y-77222566D01*
X160014198Y-77217440D01*
X160016303Y-77216829D01*
X160018498Y-77216621D01*
X160075123Y-77199740D01*
X160131707Y-77183301D01*
X160133659Y-77182289D01*
X160135766Y-77181661D01*
X160187957Y-77154144D01*
X160240349Y-77126987D01*
X160242067Y-77125615D01*
X160244012Y-77124590D01*
X160289916Y-77087418D01*
X160335983Y-77050643D01*
X160338982Y-77047686D01*
X160339111Y-77047581D01*
X160339218Y-77047453D01*
X160342216Y-77044496D01*
X161319919Y-76066793D01*
X163272360Y-78801004D01*
X163272360Y-105453035D01*
X162394142Y-107219199D01*
X158501216Y-111115019D01*
X155708721Y-112974320D01*
X129090339Y-112974320D01*
X126299249Y-111115955D01*
X123426533Y-108210301D01*
X121526700Y-105407826D01*
X121526700Y-95642250D01*
X124773000Y-95642250D01*
X124773000Y-95831829D01*
X124795174Y-95943304D01*
X124838669Y-96048312D01*
X124901815Y-96142816D01*
X124982184Y-96223185D01*
X125076688Y-96286331D01*
X125181695Y-96329826D01*
X125293170Y-96352000D01*
X125707750Y-96352000D01*
X125852000Y-96207750D01*
X125852000Y-95498000D01*
X124917250Y-95498000D01*
X124773000Y-95642250D01*
X121526700Y-95642250D01*
X121526700Y-79767250D01*
X128123000Y-79767250D01*
X128123000Y-80581830D01*
X128145174Y-80693305D01*
X128188669Y-80798312D01*
X128251815Y-80892816D01*
X128332184Y-80973185D01*
X128426688Y-81036331D01*
X128531696Y-81079826D01*
X128643171Y-81102000D01*
X128957750Y-81102000D01*
X129102000Y-80957750D01*
X129102000Y-79623000D01*
X128267250Y-79623000D01*
X128123000Y-79767250D01*
X121526700Y-79767250D01*
X121526700Y-78801004D01*
X121764369Y-78468170D01*
X128123000Y-78468170D01*
X128123000Y-79282750D01*
X128267250Y-79427000D01*
X129102000Y-79427000D01*
X129102000Y-78092250D01*
X128957750Y-77948000D01*
X128643171Y-77948000D01*
X128531696Y-77970174D01*
X128426688Y-78013669D01*
X128332184Y-78076815D01*
X128251815Y-78157184D01*
X128188669Y-78251688D01*
X128145174Y-78356695D01*
X128123000Y-78468170D01*
X121764369Y-78468170D01*
X123479141Y-76066793D01*
X124456844Y-77044496D01*
X124502505Y-77082003D01*
X124547774Y-77119719D01*
X124549700Y-77120769D01*
X124551403Y-77122168D01*
X124603522Y-77150114D01*
X124655212Y-77178296D01*
X124657306Y-77178952D01*
X124659247Y-77179993D01*
X124715776Y-77197276D01*
X124771981Y-77214890D01*
X124774163Y-77215127D01*
X124776269Y-77215771D01*
X124835137Y-77221751D01*
X124893635Y-77228105D01*
X124895817Y-77227914D01*
X124898012Y-77228137D01*
X124956946Y-77222566D01*
X125015538Y-77217440D01*
X125017643Y-77216829D01*
X125019838Y-77216621D01*
X125076482Y-77199734D01*
X125133047Y-77183301D01*
X125134998Y-77182290D01*
X125137107Y-77181661D01*
X125189328Y-77154128D01*
X125241689Y-77126987D01*
X125243407Y-77125615D01*
X125245352Y-77124590D01*
X125291256Y-77087418D01*
X125337323Y-77050643D01*
X125340322Y-77047686D01*
X125340451Y-77047581D01*
X125340558Y-77047453D01*
X125343556Y-77044496D01*
X127342536Y-75045516D01*
X127379835Y-75000108D01*
X127417461Y-74955025D01*
X127418642Y-74952864D01*
X127420208Y-74950957D01*
X127448011Y-74899105D01*
X127476128Y-74847637D01*
X127476866Y-74845290D01*
X127478033Y-74843113D01*
X127495247Y-74786810D01*
X127512821Y-74730898D01*
X127513089Y-74728454D01*
X127513811Y-74726091D01*
X127519765Y-74667473D01*
X127526139Y-74609256D01*
X127525927Y-74606809D01*
X127526177Y-74604348D01*
X127520629Y-74545654D01*
X127515577Y-74487344D01*
X127514894Y-74484985D01*
X127514661Y-74482522D01*
X127497856Y-74426153D01*
X127481538Y-74369805D01*
X127480404Y-74367614D01*
X127479701Y-74365254D01*
X127452328Y-74313336D01*
X127425316Y-74261116D01*
X127423779Y-74259187D01*
X127422630Y-74257008D01*
X127385634Y-74211321D01*
X127349053Y-74165418D01*
X127345725Y-74162037D01*
X127345621Y-74161909D01*
X127345496Y-74161805D01*
X127342911Y-74159179D01*
X126493598Y-73308426D01*
X128120209Y-73300304D01*
X128120209Y-74275000D01*
X128131350Y-74388112D01*
X128164343Y-74496876D01*
X128217921Y-74597115D01*
X128290026Y-74684974D01*
X128377885Y-74757079D01*
X128478124Y-74810657D01*
X128586888Y-74843650D01*
X128700000Y-74854791D01*
X129287013Y-74854791D01*
X129748611Y-75316389D01*
X129798729Y-75357557D01*
X129848393Y-75399230D01*
X129851625Y-75401007D01*
X129854480Y-75403352D01*
X129911657Y-75434009D01*
X129968453Y-75465233D01*
X129971972Y-75466349D01*
X129975224Y-75468093D01*
X130037238Y-75487053D01*
X130099046Y-75506660D01*
X130102712Y-75507071D01*
X130106244Y-75508151D01*
X130170771Y-75514705D01*
X130235199Y-75521932D01*
X130242412Y-75521982D01*
X130242549Y-75521996D01*
X130242677Y-75521984D01*
X130245000Y-75522000D01*
X135196907Y-75522000D01*
X135190209Y-75590000D01*
X135190209Y-76590000D01*
X135201350Y-76703112D01*
X135207990Y-76725000D01*
X135201350Y-76746888D01*
X135190209Y-76860000D01*
X135190209Y-77860000D01*
X135201350Y-77973112D01*
X135207990Y-77995000D01*
X135201350Y-78016888D01*
X135190209Y-78130000D01*
X135190209Y-79130000D01*
X135201350Y-79243112D01*
X135234343Y-79351876D01*
X135287921Y-79452115D01*
X135360026Y-79539974D01*
X135447885Y-79612079D01*
X135548124Y-79665657D01*
X135656888Y-79698650D01*
X135770000Y-79709791D01*
X136773908Y-79709791D01*
X136779424Y-79766047D01*
X136784106Y-79817488D01*
X136784649Y-79819333D01*
X136784941Y-79822311D01*
X136808148Y-79899175D01*
X136818656Y-79934878D01*
X136819299Y-79936107D01*
X136820310Y-79939457D01*
X136864442Y-80022459D01*
X136875349Y-80043322D01*
X136875898Y-80044005D01*
X136877758Y-80047503D01*
X136944946Y-80129883D01*
X136952026Y-80138689D01*
X136952349Y-80138960D01*
X136955099Y-80142332D01*
X137045113Y-80216798D01*
X137045766Y-80217346D01*
X137045794Y-80217361D01*
X137049386Y-80220333D01*
X137157028Y-80278534D01*
X137273924Y-80314720D01*
X137395623Y-80327511D01*
X137401238Y-80327000D01*
X138560209Y-80327000D01*
X138560209Y-81320000D01*
X138571350Y-81433112D01*
X138604343Y-81541876D01*
X138657921Y-81642115D01*
X138730026Y-81729974D01*
X138817885Y-81802079D01*
X138918124Y-81855657D01*
X139026888Y-81888650D01*
X139140000Y-81899791D01*
X140140000Y-81899791D01*
X140253112Y-81888650D01*
X140275000Y-81882010D01*
X140296888Y-81888650D01*
X140410000Y-81899791D01*
X141410000Y-81899791D01*
X141523112Y-81888650D01*
X141545000Y-81882010D01*
X141566888Y-81888650D01*
X141680000Y-81899791D01*
X142680000Y-81899791D01*
X142793112Y-81888650D01*
X142815000Y-81882010D01*
X142836888Y-81888650D01*
X142950000Y-81899791D01*
X143950000Y-81899791D01*
X144063112Y-81888650D01*
X144085000Y-81882010D01*
X144106888Y-81888650D01*
X144220000Y-81899791D01*
X145220000Y-81899791D01*
X145333112Y-81888650D01*
X145441876Y-81855657D01*
X145542115Y-81802079D01*
X145629974Y-81729974D01*
X145702079Y-81642115D01*
X145755657Y-81541876D01*
X145788650Y-81433112D01*
X145799791Y-81320000D01*
X145799791Y-80327000D01*
X147000000Y-80327000D01*
X147058721Y-80321242D01*
X147117488Y-80315894D01*
X147119596Y-80315274D01*
X147121785Y-80315059D01*
X147178290Y-80297999D01*
X147234878Y-80281344D01*
X147236826Y-80280325D01*
X147238931Y-80279690D01*
X147291082Y-80251961D01*
X147343322Y-80224651D01*
X147345032Y-80223276D01*
X147346977Y-80222242D01*
X147392784Y-80184882D01*
X147438689Y-80147974D01*
X147440100Y-80146292D01*
X147441806Y-80144901D01*
X147479475Y-80099368D01*
X147517346Y-80054234D01*
X147518403Y-80052311D01*
X147519807Y-80050614D01*
X147547874Y-79998704D01*
X147576298Y-79947002D01*
X147576964Y-79944903D01*
X147578008Y-79942972D01*
X147595441Y-79886657D01*
X147613299Y-79830361D01*
X147613544Y-79828175D01*
X147614194Y-79826076D01*
X147620362Y-79767391D01*
X147626823Y-79709791D01*
X148610000Y-79709791D01*
X148723112Y-79698650D01*
X148831876Y-79665657D01*
X148932115Y-79612079D01*
X149019974Y-79539974D01*
X149092079Y-79452115D01*
X149129556Y-79382000D01*
X149196034Y-79382000D01*
X149260026Y-79459974D01*
X149347885Y-79532079D01*
X149448124Y-79585657D01*
X149556888Y-79618650D01*
X149670000Y-79629791D01*
X150930000Y-79629791D01*
X151043112Y-79618650D01*
X151151876Y-79585657D01*
X151252115Y-79532079D01*
X151337512Y-79461995D01*
X151342921Y-79472115D01*
X151415026Y-79559974D01*
X151502885Y-79632079D01*
X151603124Y-79685657D01*
X151711888Y-79718650D01*
X151825000Y-79729791D01*
X152048000Y-79729791D01*
X152048000Y-86168394D01*
X148289803Y-82410197D01*
X148248601Y-82382667D01*
X148200000Y-82373000D01*
X137195217Y-82373000D01*
X137149783Y-82381405D01*
X137107857Y-82407819D01*
X131612640Y-87615657D01*
X131582667Y-87659237D01*
X131573000Y-87707838D01*
X131573000Y-88470209D01*
X131150000Y-88470209D01*
X131036888Y-88481350D01*
X130928124Y-88514343D01*
X130827885Y-88567921D01*
X130740026Y-88640026D01*
X130667921Y-88727885D01*
X130614343Y-88828124D01*
X130581350Y-88936888D01*
X130570209Y-89050000D01*
X130570209Y-89332959D01*
X130534974Y-89290026D01*
X130447115Y-89217921D01*
X130399363Y-89192397D01*
X130401991Y-89004200D01*
X130364775Y-88816250D01*
X130291762Y-88639107D01*
X130185733Y-88479520D01*
X130050725Y-88343566D01*
X129891882Y-88236425D01*
X129715254Y-88162177D01*
X129527567Y-88123651D01*
X129335973Y-88122313D01*
X129147767Y-88158216D01*
X128970119Y-88229990D01*
X128809795Y-88334903D01*
X128752000Y-88391500D01*
X128752000Y-88318610D01*
X131731744Y-85338867D01*
X131775865Y-85285154D01*
X131820485Y-85231977D01*
X131822389Y-85228515D01*
X131824900Y-85225457D01*
X131857742Y-85164208D01*
X131891190Y-85103366D01*
X131892385Y-85099598D01*
X131894254Y-85096113D01*
X131914553Y-85029715D01*
X131935567Y-84963472D01*
X131936008Y-84959538D01*
X131937163Y-84955761D01*
X131944175Y-84886733D01*
X131951927Y-84817622D01*
X131951981Y-84809887D01*
X131951995Y-84809747D01*
X131951983Y-84809616D01*
X131952000Y-84807122D01*
X131952000Y-81044556D01*
X132022115Y-81007079D01*
X132109974Y-80934974D01*
X132182079Y-80847115D01*
X132235657Y-80746876D01*
X132268650Y-80638112D01*
X132279791Y-80525000D01*
X132279791Y-78525000D01*
X132268650Y-78411888D01*
X132235657Y-78303124D01*
X132182079Y-78202885D01*
X132109974Y-78115026D01*
X132022115Y-78042921D01*
X131921876Y-77989343D01*
X131813112Y-77956350D01*
X131700000Y-77945209D01*
X130700000Y-77945209D01*
X130586888Y-77956350D01*
X130478124Y-77989343D01*
X130377885Y-78042921D01*
X130290026Y-78115026D01*
X130217921Y-78202885D01*
X130200500Y-78235478D01*
X130148185Y-78157184D01*
X130067816Y-78076815D01*
X129973312Y-78013669D01*
X129868304Y-77970174D01*
X129756829Y-77948000D01*
X129442250Y-77948000D01*
X129298000Y-78092250D01*
X129298000Y-79427000D01*
X129318000Y-79427000D01*
X129318000Y-79623000D01*
X129298000Y-79623000D01*
X129298000Y-80957750D01*
X129442250Y-81102000D01*
X129756829Y-81102000D01*
X129868304Y-81079826D01*
X129973312Y-81036331D01*
X130067816Y-80973185D01*
X130148185Y-80892816D01*
X130200500Y-80814522D01*
X130217921Y-80847115D01*
X130290026Y-80934974D01*
X130377885Y-81007079D01*
X130448000Y-81044556D01*
X130448000Y-84495633D01*
X127468256Y-87475378D01*
X127424174Y-87529044D01*
X127379515Y-87582267D01*
X127377610Y-87585733D01*
X127375100Y-87588788D01*
X127342280Y-87649997D01*
X127327000Y-87677791D01*
X127327000Y-87668171D01*
X127304826Y-87556696D01*
X127261331Y-87451688D01*
X127254515Y-87441486D01*
X127272115Y-87432079D01*
X127359974Y-87359974D01*
X127432079Y-87272115D01*
X127485657Y-87171876D01*
X127518650Y-87063112D01*
X127529791Y-86950000D01*
X127529791Y-86050000D01*
X127518650Y-85936888D01*
X127485657Y-85828124D01*
X127432079Y-85727885D01*
X127359974Y-85640026D01*
X127307240Y-85596748D01*
X127323986Y-85523043D01*
X127327042Y-85304200D01*
X127289826Y-85116250D01*
X127216813Y-84939107D01*
X127110784Y-84779520D01*
X126975776Y-84643566D01*
X126816933Y-84536425D01*
X126640305Y-84462177D01*
X126452618Y-84423651D01*
X126261024Y-84422313D01*
X126072818Y-84458216D01*
X125895170Y-84529990D01*
X125734846Y-84634903D01*
X125597953Y-84768958D01*
X125489706Y-84927049D01*
X125414227Y-85103155D01*
X125374391Y-85290568D01*
X125371716Y-85482149D01*
X125392750Y-85596756D01*
X125340026Y-85640026D01*
X125267921Y-85727885D01*
X125250000Y-85761413D01*
X125232079Y-85727885D01*
X125159974Y-85640026D01*
X125072115Y-85567921D01*
X124971876Y-85514343D01*
X124863112Y-85481350D01*
X124750000Y-85470209D01*
X123550000Y-85470209D01*
X123436888Y-85481350D01*
X123328124Y-85514343D01*
X123227885Y-85567921D01*
X123140026Y-85640026D01*
X123067921Y-85727885D01*
X123014343Y-85828124D01*
X122981350Y-85936888D01*
X122970209Y-86050000D01*
X122970209Y-86950000D01*
X122981350Y-87063112D01*
X123014343Y-87171876D01*
X123067921Y-87272115D01*
X123140026Y-87359974D01*
X123177738Y-87390924D01*
X123167921Y-87402885D01*
X123114343Y-87503124D01*
X123081350Y-87611888D01*
X123070209Y-87725000D01*
X123070209Y-88475000D01*
X123081350Y-88588112D01*
X123114343Y-88696876D01*
X123167921Y-88797115D01*
X123240026Y-88884974D01*
X123327885Y-88957079D01*
X123428124Y-89010657D01*
X123536888Y-89043650D01*
X123650000Y-89054791D01*
X124212013Y-89054791D01*
X124277431Y-89120209D01*
X124275000Y-89120209D01*
X124161888Y-89131350D01*
X124053124Y-89164343D01*
X123952885Y-89217921D01*
X123865026Y-89290026D01*
X123792921Y-89377885D01*
X123739343Y-89478124D01*
X123706350Y-89586888D01*
X123695209Y-89700000D01*
X123695209Y-90150000D01*
X123705565Y-90255140D01*
X123698000Y-90293171D01*
X123698000Y-90332750D01*
X123741889Y-90376639D01*
X123792921Y-90472115D01*
X123865026Y-90559974D01*
X123883335Y-90575000D01*
X123865026Y-90590026D01*
X123792921Y-90677885D01*
X123741889Y-90773361D01*
X123698000Y-90817250D01*
X123698000Y-90856829D01*
X123705565Y-90894860D01*
X123695209Y-91000000D01*
X123695209Y-91450000D01*
X123705565Y-91555140D01*
X123698000Y-91593171D01*
X123698000Y-91632750D01*
X123741889Y-91676639D01*
X123792921Y-91772115D01*
X123865026Y-91859974D01*
X123952885Y-91932079D01*
X124029444Y-91973000D01*
X123842250Y-91973000D01*
X123698000Y-92117250D01*
X123698000Y-92156829D01*
X123720174Y-92268304D01*
X123763669Y-92373312D01*
X123826815Y-92467816D01*
X123907184Y-92548185D01*
X124001688Y-92611331D01*
X124106695Y-92654826D01*
X124218170Y-92677000D01*
X124757750Y-92677000D01*
X124902000Y-92532750D01*
X124902000Y-92029791D01*
X125098000Y-92029791D01*
X125098000Y-92532750D01*
X125235459Y-92670209D01*
X125100000Y-92670209D01*
X124986888Y-92681350D01*
X124878124Y-92714343D01*
X124777885Y-92767921D01*
X124690026Y-92840026D01*
X124617921Y-92927885D01*
X124564343Y-93028124D01*
X124531350Y-93136888D01*
X124520209Y-93250000D01*
X124520209Y-94150000D01*
X124531350Y-94263112D01*
X124564343Y-94371876D01*
X124617921Y-94472115D01*
X124690026Y-94559974D01*
X124777885Y-94632079D01*
X124878124Y-94685657D01*
X124882003Y-94686834D01*
X124838669Y-94751688D01*
X124795174Y-94856696D01*
X124773000Y-94968171D01*
X124773000Y-95157750D01*
X124917250Y-95302000D01*
X125852000Y-95302000D01*
X125852000Y-95282000D01*
X126048000Y-95282000D01*
X126048000Y-95302000D01*
X126068000Y-95302000D01*
X126068000Y-95498000D01*
X126048000Y-95498000D01*
X126048000Y-96207750D01*
X126192250Y-96352000D01*
X126606830Y-96352000D01*
X126718305Y-96329826D01*
X126823312Y-96286331D01*
X126900601Y-96234688D01*
X126927885Y-96257079D01*
X127028124Y-96310657D01*
X127136888Y-96343650D01*
X127250000Y-96354791D01*
X127966303Y-96354791D01*
X137197403Y-105585891D01*
X137231303Y-105770601D01*
X137301836Y-105948745D01*
X137405627Y-106109798D01*
X137476246Y-106182926D01*
X137429452Y-106187185D01*
X137209088Y-106252042D01*
X137005518Y-106358465D01*
X136826496Y-106502403D01*
X136678841Y-106678371D01*
X136650508Y-106729909D01*
X136630348Y-106691995D01*
X136485165Y-106513983D01*
X136308170Y-106367560D01*
X136106106Y-106258304D01*
X135886669Y-106190377D01*
X135658217Y-106166366D01*
X135429452Y-106187185D01*
X135209088Y-106252042D01*
X135005518Y-106358465D01*
X134826496Y-106502403D01*
X134678841Y-106678371D01*
X134650508Y-106729909D01*
X134630348Y-106691995D01*
X134485165Y-106513983D01*
X134308170Y-106367560D01*
X134106106Y-106258304D01*
X133886669Y-106190377D01*
X133658217Y-106166366D01*
X133429452Y-106187185D01*
X133209088Y-106252042D01*
X133005518Y-106358465D01*
X132826496Y-106502403D01*
X132678841Y-106678371D01*
X132650508Y-106729909D01*
X132630348Y-106691995D01*
X132485165Y-106513983D01*
X132308170Y-106367560D01*
X132106106Y-106258304D01*
X131886669Y-106190377D01*
X131658217Y-106166366D01*
X131429452Y-106187185D01*
X131209088Y-106252042D01*
X131005518Y-106358465D01*
X130826496Y-106502403D01*
X130678841Y-106678371D01*
X130568178Y-106879667D01*
X130498720Y-107098625D01*
X130473115Y-107326904D01*
X130473000Y-107343337D01*
X130473000Y-107756663D01*
X130495416Y-107985277D01*
X130561809Y-108205183D01*
X130669652Y-108408005D01*
X130786001Y-108550663D01*
X130678841Y-108678371D01*
X130568178Y-108879667D01*
X130498720Y-109098625D01*
X130473115Y-109326904D01*
X130473000Y-109343337D01*
X130473000Y-109756663D01*
X130495416Y-109985277D01*
X130561809Y-110205183D01*
X130669652Y-110408005D01*
X130814835Y-110586017D01*
X130991830Y-110732440D01*
X131193894Y-110841696D01*
X131413331Y-110909623D01*
X131641783Y-110933634D01*
X131870548Y-110912815D01*
X132090912Y-110847958D01*
X132294482Y-110741535D01*
X132473504Y-110597597D01*
X132621159Y-110421629D01*
X132649492Y-110370091D01*
X132669652Y-110408005D01*
X132814835Y-110586017D01*
X132991830Y-110732440D01*
X133193894Y-110841696D01*
X133413331Y-110909623D01*
X133641783Y-110933634D01*
X133870548Y-110912815D01*
X134090912Y-110847958D01*
X134294482Y-110741535D01*
X134473504Y-110597597D01*
X134621159Y-110421629D01*
X134649492Y-110370091D01*
X134669652Y-110408005D01*
X134814835Y-110586017D01*
X134991830Y-110732440D01*
X135193894Y-110841696D01*
X135413331Y-110909623D01*
X135641783Y-110933634D01*
X135870548Y-110912815D01*
X136090912Y-110847958D01*
X136294482Y-110741535D01*
X136473504Y-110597597D01*
X136621159Y-110421629D01*
X136649492Y-110370091D01*
X136669652Y-110408005D01*
X136814835Y-110586017D01*
X136991830Y-110732440D01*
X137193894Y-110841696D01*
X137413331Y-110909623D01*
X137641783Y-110933634D01*
X137870548Y-110912815D01*
X138090912Y-110847958D01*
X138294482Y-110741535D01*
X138473504Y-110597597D01*
X138621159Y-110421629D01*
X138649492Y-110370091D01*
X138669652Y-110408005D01*
X138814835Y-110586017D01*
X138991830Y-110732440D01*
X139193894Y-110841696D01*
X139413331Y-110909623D01*
X139641783Y-110933634D01*
X139870548Y-110912815D01*
X140090912Y-110847958D01*
X140294482Y-110741535D01*
X140473504Y-110597597D01*
X140621159Y-110421629D01*
X140650305Y-110368613D01*
X140725806Y-110485390D01*
X140887032Y-110651561D01*
X141077578Y-110783085D01*
X141290122Y-110874909D01*
X141369723Y-110893142D01*
X141552000Y-110778090D01*
X141552000Y-109648000D01*
X141532000Y-109648000D01*
X141532000Y-109452000D01*
X141552000Y-109452000D01*
X141552000Y-109432000D01*
X141748000Y-109432000D01*
X141748000Y-109452000D01*
X141768000Y-109452000D01*
X141768000Y-109648000D01*
X141748000Y-109648000D01*
X141748000Y-110778090D01*
X141930277Y-110893142D01*
X142009878Y-110874909D01*
X142222422Y-110783085D01*
X142412968Y-110651561D01*
X142574194Y-110485390D01*
X142649153Y-110369452D01*
X142669652Y-110408005D01*
X142814835Y-110586017D01*
X142991830Y-110732440D01*
X143193894Y-110841696D01*
X143413331Y-110909623D01*
X143641783Y-110933634D01*
X143870548Y-110912815D01*
X144090912Y-110847958D01*
X144294482Y-110741535D01*
X144473504Y-110597597D01*
X144621159Y-110421629D01*
X144731822Y-110220333D01*
X144801280Y-110001375D01*
X144826885Y-109773096D01*
X144827000Y-109756663D01*
X144827000Y-109442250D01*
X145073000Y-109442250D01*
X145073000Y-109856830D01*
X145095174Y-109968305D01*
X145138669Y-110073312D01*
X145201815Y-110167816D01*
X145282184Y-110248185D01*
X145376688Y-110311331D01*
X145481696Y-110354826D01*
X145593171Y-110377000D01*
X145857750Y-110377000D01*
X146002000Y-110232750D01*
X146002000Y-109298000D01*
X145217250Y-109298000D01*
X145073000Y-109442250D01*
X144827000Y-109442250D01*
X144827000Y-109343337D01*
X144804584Y-109114723D01*
X144738191Y-108894817D01*
X144630348Y-108691995D01*
X144513999Y-108549337D01*
X144621159Y-108421629D01*
X144731822Y-108220333D01*
X144801280Y-108001375D01*
X144826885Y-107773096D01*
X144827000Y-107756663D01*
X144827000Y-107343337D01*
X144804584Y-107114723D01*
X144738191Y-106894817D01*
X144630348Y-106691995D01*
X144485165Y-106513983D01*
X144308170Y-106367560D01*
X144106106Y-106258304D01*
X143886669Y-106190377D01*
X143658217Y-106166366D01*
X143429452Y-106187185D01*
X143209088Y-106252042D01*
X143005518Y-106358465D01*
X142826496Y-106502403D01*
X142678841Y-106678371D01*
X142650508Y-106729909D01*
X142630348Y-106691995D01*
X142485165Y-106513983D01*
X142308170Y-106367560D01*
X142106106Y-106258304D01*
X141886669Y-106190377D01*
X141658217Y-106166366D01*
X141429452Y-106187185D01*
X141209088Y-106252042D01*
X141005518Y-106358465D01*
X140826496Y-106502403D01*
X140678841Y-106678371D01*
X140650508Y-106729909D01*
X140630348Y-106691995D01*
X140485165Y-106513983D01*
X140308170Y-106367560D01*
X140106106Y-106258304D01*
X139886669Y-106190377D01*
X139658217Y-106166366D01*
X139429452Y-106187185D01*
X139209088Y-106252042D01*
X139005518Y-106358465D01*
X138826496Y-106502403D01*
X138678841Y-106678371D01*
X138650508Y-106729909D01*
X138630348Y-106691995D01*
X138485165Y-106513983D01*
X138408880Y-106450875D01*
X138439006Y-106445563D01*
X138617639Y-106376276D01*
X138779411Y-106273611D01*
X138918162Y-106141481D01*
X139028607Y-105984916D01*
X139106537Y-105809881D01*
X139148986Y-105623043D01*
X139152042Y-105404200D01*
X139114826Y-105216250D01*
X139071083Y-105110121D01*
X139079610Y-105102000D01*
X140500000Y-105102000D01*
X140564517Y-105095674D01*
X140629134Y-105090021D01*
X140632678Y-105088991D01*
X140636353Y-105088631D01*
X140698428Y-105069889D01*
X140760700Y-105051797D01*
X140763979Y-105050097D01*
X140767511Y-105049031D01*
X140824745Y-105018599D01*
X140882337Y-104988747D01*
X140885222Y-104986444D01*
X140888481Y-104984711D01*
X140938714Y-104943742D01*
X140989411Y-104903271D01*
X140994548Y-104898204D01*
X140994653Y-104898119D01*
X140994733Y-104898022D01*
X140996389Y-104896389D01*
X141562987Y-104329791D01*
X141849694Y-104329791D01*
X142183971Y-104664068D01*
X142235851Y-104706682D01*
X142287307Y-104749859D01*
X142290661Y-104751703D01*
X142293611Y-104754126D01*
X142352774Y-104785849D01*
X142411642Y-104818212D01*
X142415283Y-104819367D01*
X142418655Y-104821175D01*
X142482948Y-104840832D01*
X142546886Y-104861114D01*
X142550679Y-104861539D01*
X142554341Y-104862659D01*
X142621232Y-104869453D01*
X142687887Y-104876930D01*
X142695355Y-104876982D01*
X142695500Y-104876997D01*
X142695635Y-104876984D01*
X142698038Y-104877001D01*
X144699999Y-104877001D01*
X144766818Y-104870449D01*
X144833732Y-104864595D01*
X144837405Y-104863528D01*
X144841207Y-104863155D01*
X144905481Y-104843750D01*
X144969983Y-104825010D01*
X144973376Y-104823251D01*
X144977037Y-104822146D01*
X145036391Y-104790587D01*
X145095951Y-104759714D01*
X145098934Y-104757333D01*
X145102315Y-104755535D01*
X145154400Y-104713055D01*
X145206838Y-104671195D01*
X145212162Y-104665946D01*
X145212268Y-104665859D01*
X145212349Y-104665761D01*
X145214066Y-104664068D01*
X145548343Y-104329791D01*
X146300000Y-104329791D01*
X146413112Y-104318650D01*
X146521876Y-104285657D01*
X146622115Y-104232079D01*
X146709974Y-104159974D01*
X146782079Y-104072115D01*
X146835657Y-103971876D01*
X146868650Y-103863112D01*
X146879791Y-103750000D01*
X146879791Y-102852000D01*
X150800000Y-102852000D01*
X150869126Y-102845222D01*
X150873000Y-102844883D01*
X150873000Y-102931829D01*
X150895174Y-103043304D01*
X150938669Y-103148312D01*
X151001815Y-103242816D01*
X151082184Y-103323185D01*
X151176688Y-103386331D01*
X151281695Y-103429826D01*
X151393170Y-103452000D01*
X151807750Y-103452000D01*
X151952000Y-103307750D01*
X151952000Y-102598000D01*
X151932000Y-102598000D01*
X151932000Y-102402000D01*
X151952000Y-102402000D01*
X151952000Y-102382000D01*
X152148000Y-102382000D01*
X152148000Y-102402000D01*
X152168000Y-102402000D01*
X152168000Y-102598000D01*
X152148000Y-102598000D01*
X152148000Y-103307750D01*
X152292250Y-103452000D01*
X152706830Y-103452000D01*
X152818305Y-103429826D01*
X152923312Y-103386331D01*
X153000601Y-103334688D01*
X153027885Y-103357079D01*
X153128124Y-103410657D01*
X153198000Y-103431854D01*
X153198000Y-104441913D01*
X153139706Y-104527049D01*
X153064227Y-104703155D01*
X153024391Y-104890568D01*
X153021716Y-105082149D01*
X153056303Y-105270601D01*
X153126836Y-105448745D01*
X153230627Y-105609798D01*
X153363723Y-105747623D01*
X153373000Y-105754071D01*
X153373000Y-105861928D01*
X153364343Y-105878124D01*
X153334628Y-105976082D01*
X153275000Y-105970209D01*
X152536578Y-105970209D01*
X152609974Y-105909974D01*
X152682079Y-105822115D01*
X152735657Y-105721876D01*
X152768650Y-105613112D01*
X152779791Y-105500000D01*
X152779791Y-104300000D01*
X152768650Y-104186888D01*
X152735657Y-104078124D01*
X152682079Y-103977885D01*
X152609974Y-103890026D01*
X152522115Y-103817921D01*
X152421876Y-103764343D01*
X152313112Y-103731350D01*
X152200000Y-103720209D01*
X151300000Y-103720209D01*
X151186888Y-103731350D01*
X151078124Y-103764343D01*
X150977885Y-103817921D01*
X150890026Y-103890026D01*
X150817921Y-103977885D01*
X150764343Y-104078124D01*
X150731350Y-104186888D01*
X150720209Y-104300000D01*
X150720209Y-104905076D01*
X150693319Y-104937813D01*
X150650142Y-104989269D01*
X150648298Y-104992623D01*
X150645875Y-104995573D01*
X150614152Y-105054736D01*
X150581789Y-105113604D01*
X150580634Y-105117245D01*
X150578826Y-105120617D01*
X150559169Y-105184910D01*
X150538887Y-105248848D01*
X150538462Y-105252641D01*
X150537342Y-105256303D01*
X150530548Y-105323194D01*
X150523071Y-105389849D01*
X150523019Y-105397317D01*
X150523004Y-105397462D01*
X150523017Y-105397597D01*
X150523000Y-105400000D01*
X150523000Y-105912250D01*
X150398000Y-106037250D01*
X150398000Y-106231928D01*
X150389343Y-106248124D01*
X150356350Y-106356888D01*
X150345209Y-106470000D01*
X150345209Y-107118000D01*
X150254791Y-107118000D01*
X150254791Y-106470000D01*
X150243650Y-106356888D01*
X150210657Y-106248124D01*
X150202000Y-106231928D01*
X150202000Y-106037250D01*
X150057750Y-105893000D01*
X149918171Y-105893000D01*
X149822996Y-105911932D01*
X149788112Y-105901350D01*
X149675000Y-105890209D01*
X149025000Y-105890209D01*
X148911888Y-105901350D01*
X148803124Y-105934343D01*
X148702885Y-105987921D01*
X148616458Y-106058851D01*
X148559974Y-105990026D01*
X148502000Y-105942447D01*
X148502000Y-105476223D01*
X148531537Y-105409881D01*
X148573986Y-105223043D01*
X148577042Y-105004200D01*
X148539826Y-104816250D01*
X148466813Y-104639107D01*
X148360784Y-104479520D01*
X148225776Y-104343566D01*
X148066933Y-104236425D01*
X147890305Y-104162177D01*
X147702618Y-104123651D01*
X147511024Y-104122313D01*
X147322818Y-104158216D01*
X147145170Y-104229990D01*
X146984846Y-104334903D01*
X146847953Y-104468958D01*
X146739706Y-104627049D01*
X146664227Y-104803155D01*
X146624391Y-104990568D01*
X146621716Y-105182149D01*
X146656303Y-105370601D01*
X146726836Y-105548745D01*
X146798000Y-105659171D01*
X146798000Y-105878306D01*
X146771876Y-105864343D01*
X146663112Y-105831350D01*
X146550000Y-105820209D01*
X145650000Y-105820209D01*
X145536888Y-105831350D01*
X145428124Y-105864343D01*
X145327885Y-105917921D01*
X145240026Y-105990026D01*
X145167921Y-106077885D01*
X145114343Y-106178124D01*
X145081350Y-106286888D01*
X145070209Y-106400000D01*
X145070209Y-107600000D01*
X145081350Y-107713112D01*
X145114343Y-107821876D01*
X145167921Y-107922115D01*
X145240026Y-108009974D01*
X145327885Y-108082079D01*
X145360478Y-108099500D01*
X145282184Y-108151815D01*
X145201815Y-108232184D01*
X145138669Y-108326688D01*
X145095174Y-108431695D01*
X145073000Y-108543170D01*
X145073000Y-108957750D01*
X145217250Y-109102000D01*
X146002000Y-109102000D01*
X146002000Y-109082000D01*
X146198000Y-109082000D01*
X146198000Y-109102000D01*
X146218000Y-109102000D01*
X146218000Y-109298000D01*
X146198000Y-109298000D01*
X146198000Y-110232750D01*
X146342250Y-110377000D01*
X146606829Y-110377000D01*
X146718304Y-110354826D01*
X146823312Y-110311331D01*
X146900601Y-110259688D01*
X146927885Y-110282079D01*
X147028124Y-110335657D01*
X147136888Y-110368650D01*
X147250000Y-110379791D01*
X148150000Y-110379791D01*
X148220209Y-110372876D01*
X148220209Y-110673000D01*
X147321158Y-110673000D01*
X147266933Y-110636425D01*
X147090305Y-110562177D01*
X146902618Y-110523651D01*
X146711024Y-110522313D01*
X146522818Y-110558216D01*
X146345170Y-110629990D01*
X146184846Y-110734903D01*
X146047953Y-110868958D01*
X145939706Y-111027049D01*
X145864227Y-111203155D01*
X145824391Y-111390568D01*
X145821716Y-111582149D01*
X145856303Y-111770601D01*
X145926836Y-111948745D01*
X146030627Y-112109798D01*
X146163723Y-112247623D01*
X146321055Y-112356971D01*
X146496630Y-112433678D01*
X146683760Y-112474821D01*
X146875317Y-112478834D01*
X147064006Y-112445563D01*
X147242639Y-112376276D01*
X147320285Y-112327000D01*
X148561928Y-112327000D01*
X148578124Y-112335657D01*
X148686888Y-112368650D01*
X148800000Y-112379791D01*
X149800000Y-112379791D01*
X149913112Y-112368650D01*
X150021876Y-112335657D01*
X150122115Y-112282079D01*
X150209974Y-112209974D01*
X150282079Y-112122115D01*
X150335657Y-112021876D01*
X150368650Y-111913112D01*
X150379791Y-111800000D01*
X150379791Y-111242250D01*
X151223000Y-111242250D01*
X151223000Y-111856829D01*
X151245174Y-111968304D01*
X151288669Y-112073312D01*
X151351815Y-112167816D01*
X151432184Y-112248185D01*
X151526688Y-112311331D01*
X151631695Y-112354826D01*
X151743170Y-112377000D01*
X152057750Y-112377000D01*
X152202000Y-112232750D01*
X152202000Y-111098000D01*
X151367250Y-111098000D01*
X151223000Y-111242250D01*
X150379791Y-111242250D01*
X150379791Y-110309791D01*
X150625000Y-110309791D01*
X150738112Y-110298650D01*
X150775000Y-110287460D01*
X150811888Y-110298650D01*
X150925000Y-110309791D01*
X151223000Y-110309791D01*
X151223000Y-110757750D01*
X151367250Y-110902000D01*
X152202000Y-110902000D01*
X152202000Y-110882000D01*
X152398000Y-110882000D01*
X152398000Y-110902000D01*
X152418000Y-110902000D01*
X152418000Y-111098000D01*
X152398000Y-111098000D01*
X152398000Y-112232750D01*
X152542250Y-112377000D01*
X152856830Y-112377000D01*
X152968305Y-112354826D01*
X153073312Y-112311331D01*
X153167816Y-112248185D01*
X153248185Y-112167816D01*
X153311331Y-112073312D01*
X153354826Y-111968304D01*
X153377000Y-111856829D01*
X153377000Y-111242250D01*
X153232752Y-111098002D01*
X153377000Y-111098002D01*
X153377000Y-111045140D01*
X153388669Y-111073312D01*
X153451815Y-111167816D01*
X153532184Y-111248185D01*
X153626688Y-111311331D01*
X153731696Y-111354826D01*
X153843171Y-111377000D01*
X154257750Y-111377000D01*
X154402000Y-111232750D01*
X154402000Y-110198000D01*
X154598000Y-110198000D01*
X154598000Y-111232750D01*
X154742250Y-111377000D01*
X155156829Y-111377000D01*
X155268304Y-111354826D01*
X155373312Y-111311331D01*
X155467816Y-111248185D01*
X155548185Y-111167816D01*
X155611331Y-111073312D01*
X155654826Y-110968305D01*
X155677000Y-110856830D01*
X155677000Y-110342250D01*
X155532750Y-110198000D01*
X154598000Y-110198000D01*
X154402000Y-110198000D01*
X154382000Y-110198000D01*
X154382000Y-110002000D01*
X154402000Y-110002000D01*
X154402000Y-108967250D01*
X154257750Y-108823000D01*
X154155134Y-108823000D01*
X154298342Y-108679791D01*
X154660648Y-108679791D01*
X154715359Y-108724731D01*
X154791531Y-108788647D01*
X154796491Y-108791374D01*
X154800869Y-108794970D01*
X154853144Y-108823000D01*
X154742250Y-108823000D01*
X154598000Y-108967250D01*
X154598000Y-110002000D01*
X155532750Y-110002000D01*
X155677000Y-109857750D01*
X155677000Y-109477526D01*
X155700000Y-109479791D01*
X159700000Y-109479791D01*
X159813112Y-109468650D01*
X159921876Y-109435657D01*
X160022115Y-109382079D01*
X160109974Y-109309974D01*
X160182079Y-109222115D01*
X160235657Y-109121876D01*
X160268650Y-109013112D01*
X160279791Y-108900000D01*
X160279791Y-108127000D01*
X160400000Y-108127000D01*
X160448601Y-108117333D01*
X160489803Y-108089803D01*
X160517333Y-108048601D01*
X160527000Y-108000000D01*
X160527000Y-104000000D01*
X160517333Y-103951399D01*
X160489803Y-103910197D01*
X160448601Y-103882667D01*
X160400000Y-103873000D01*
X160279791Y-103873000D01*
X160279791Y-103650000D01*
X160268650Y-103536888D01*
X160235657Y-103428124D01*
X160182079Y-103327885D01*
X160109974Y-103240026D01*
X160022115Y-103167921D01*
X159921876Y-103114343D01*
X159813112Y-103081350D01*
X159700000Y-103070209D01*
X155700000Y-103070209D01*
X155586888Y-103081350D01*
X155478124Y-103114343D01*
X155377885Y-103167921D01*
X155290026Y-103240026D01*
X155217921Y-103327885D01*
X155164343Y-103428124D01*
X155131350Y-103536888D01*
X155120209Y-103650000D01*
X155120209Y-103720209D01*
X154802000Y-103720209D01*
X154802000Y-103394556D01*
X154872115Y-103357079D01*
X154959974Y-103284974D01*
X155032079Y-103197115D01*
X155085657Y-103096876D01*
X155118650Y-102988112D01*
X155129791Y-102875000D01*
X155129791Y-102125000D01*
X155118650Y-102011888D01*
X155085657Y-101903124D01*
X155032079Y-101802885D01*
X154959974Y-101715026D01*
X154872115Y-101642921D01*
X154802000Y-101605444D01*
X154802000Y-101266518D01*
X154809974Y-101259974D01*
X154882079Y-101172115D01*
X154935657Y-101071876D01*
X154968650Y-100963112D01*
X154979791Y-100850000D01*
X154979791Y-99950000D01*
X154968650Y-99836888D01*
X154935657Y-99728124D01*
X154882079Y-99627885D01*
X154809974Y-99540026D01*
X154722115Y-99467921D01*
X154621876Y-99414343D01*
X154513112Y-99381350D01*
X154400000Y-99370209D01*
X153900000Y-99370209D01*
X153786888Y-99381350D01*
X153678124Y-99414343D01*
X153577885Y-99467921D01*
X153552000Y-99489165D01*
X153552000Y-79150000D01*
X153545218Y-79080829D01*
X153539167Y-79011669D01*
X153538064Y-79007872D01*
X153537678Y-79003936D01*
X153517591Y-78937405D01*
X153498221Y-78870731D01*
X153496403Y-78867223D01*
X153495259Y-78863435D01*
X153462625Y-78802059D01*
X153430680Y-78740432D01*
X153428215Y-78737344D01*
X153426357Y-78733850D01*
X153382447Y-78680010D01*
X153339117Y-78625732D01*
X153333691Y-78620230D01*
X153333597Y-78620115D01*
X153333490Y-78620027D01*
X153331744Y-78618256D01*
X153154791Y-78441303D01*
X153154791Y-77950000D01*
X153143650Y-77836888D01*
X153110657Y-77728124D01*
X153057079Y-77627885D01*
X153034688Y-77600601D01*
X153086331Y-77523312D01*
X153129826Y-77418305D01*
X153152000Y-77306830D01*
X153152000Y-76892250D01*
X153007750Y-76748000D01*
X152298000Y-76748000D01*
X152298000Y-76768000D01*
X152102000Y-76768000D01*
X152102000Y-76748000D01*
X152082000Y-76748000D01*
X152082000Y-76552000D01*
X152102000Y-76552000D01*
X152102000Y-75617250D01*
X152298000Y-75617250D01*
X152298000Y-76552000D01*
X153007750Y-76552000D01*
X153152000Y-76407750D01*
X153152000Y-75993170D01*
X153129826Y-75881695D01*
X153086331Y-75776688D01*
X153023185Y-75682184D01*
X152942816Y-75601815D01*
X152848312Y-75538669D01*
X152743304Y-75495174D01*
X152631829Y-75473000D01*
X152442250Y-75473000D01*
X152298000Y-75617250D01*
X152102000Y-75617250D01*
X151957750Y-75473000D01*
X151768171Y-75473000D01*
X151656696Y-75495174D01*
X151551688Y-75538669D01*
X151507000Y-75568529D01*
X151507000Y-75526998D01*
X151362752Y-75526998D01*
X151507000Y-75382750D01*
X151507000Y-74693170D01*
X151484826Y-74581695D01*
X151441331Y-74476688D01*
X151378185Y-74382184D01*
X151297816Y-74301815D01*
X151203312Y-74238669D01*
X151098304Y-74195174D01*
X150986829Y-74173000D01*
X150542250Y-74173000D01*
X150398000Y-74317250D01*
X150398000Y-75527000D01*
X150418000Y-75527000D01*
X150418000Y-75723000D01*
X150398000Y-75723000D01*
X150398000Y-75743000D01*
X150202000Y-75743000D01*
X150202000Y-75723000D01*
X150182000Y-75723000D01*
X150182000Y-75527000D01*
X150202000Y-75527000D01*
X150202000Y-74317250D01*
X150057750Y-74173000D01*
X149613171Y-74173000D01*
X149501696Y-74195174D01*
X149396688Y-74238669D01*
X149302184Y-74301815D01*
X149221815Y-74382184D01*
X149189791Y-74430111D01*
X149189791Y-74320000D01*
X149178650Y-74206888D01*
X149171672Y-74183886D01*
X149187000Y-74106829D01*
X149187000Y-73792250D01*
X149042750Y-73648000D01*
X148784747Y-73648000D01*
X148788949Y-73486458D01*
X148783022Y-73452000D01*
X149042750Y-73452000D01*
X149187000Y-73307750D01*
X149187000Y-73195108D01*
X158464840Y-73148780D01*
X157456149Y-74159180D01*
G36*
X150525459Y-108090209D02*
X150398002Y-108090209D01*
X150398002Y-107962752D01*
X150525459Y-108090209D01*
X150525459Y-108090209D01*
G37*
X150525459Y-108090209D02*
X150398002Y-108090209D01*
X150398002Y-107962752D01*
X150525459Y-108090209D01*
G36*
X126248000Y-88002000D02*
X126268000Y-88002000D01*
X126268000Y-88198000D01*
X126248000Y-88198000D01*
X126248000Y-88907750D01*
X126392250Y-89052000D01*
X126806830Y-89052000D01*
X126918305Y-89029826D01*
X127023312Y-88986331D01*
X127117816Y-88923185D01*
X127198185Y-88842816D01*
X127248000Y-88768263D01*
X127248000Y-90399243D01*
X127191933Y-90361425D01*
X127015305Y-90287177D01*
X126827618Y-90248651D01*
X126636024Y-90247313D01*
X126447818Y-90283216D01*
X126286261Y-90348489D01*
X126302000Y-90332750D01*
X126302000Y-90293171D01*
X126294435Y-90255140D01*
X126304791Y-90150000D01*
X126304791Y-89700000D01*
X126293650Y-89586888D01*
X126260657Y-89478124D01*
X126207079Y-89377885D01*
X126134974Y-89290026D01*
X126047115Y-89217921D01*
X125946876Y-89164343D01*
X125838112Y-89131350D01*
X125725000Y-89120209D01*
X125702000Y-89120209D01*
X125702000Y-89052000D01*
X125907750Y-89052000D01*
X126052000Y-88907750D01*
X126052000Y-88198000D01*
X126032000Y-88198000D01*
X126032000Y-88002000D01*
X126052000Y-88002000D01*
X126052000Y-87982000D01*
X126248000Y-87982000D01*
X126248000Y-88002000D01*
X126248000Y-88002000D01*
G37*
X126248000Y-88002000D02*
X126268000Y-88002000D01*
X126268000Y-88198000D01*
X126248000Y-88198000D01*
X126248000Y-88907750D01*
X126392250Y-89052000D01*
X126806830Y-89052000D01*
X126918305Y-89029826D01*
X127023312Y-88986331D01*
X127117816Y-88923185D01*
X127198185Y-88842816D01*
X127248000Y-88768263D01*
X127248000Y-90399243D01*
X127191933Y-90361425D01*
X127015305Y-90287177D01*
X126827618Y-90248651D01*
X126636024Y-90247313D01*
X126447818Y-90283216D01*
X126286261Y-90348489D01*
X126302000Y-90332750D01*
X126302000Y-90293171D01*
X126294435Y-90255140D01*
X126304791Y-90150000D01*
X126304791Y-89700000D01*
X126293650Y-89586888D01*
X126260657Y-89478124D01*
X126207079Y-89377885D01*
X126134974Y-89290026D01*
X126047115Y-89217921D01*
X125946876Y-89164343D01*
X125838112Y-89131350D01*
X125725000Y-89120209D01*
X125702000Y-89120209D01*
X125702000Y-89052000D01*
X125907750Y-89052000D01*
X126052000Y-88907750D01*
X126052000Y-88198000D01*
X126032000Y-88198000D01*
X126032000Y-88002000D01*
X126052000Y-88002000D01*
X126052000Y-87982000D01*
X126248000Y-87982000D01*
X126248000Y-88002000D01*
G36*
X147958000Y-73452000D02*
X147978877Y-73452000D01*
X148062735Y-73535858D01*
X148048593Y-73550000D01*
X148062735Y-73564142D01*
X147978877Y-73648000D01*
X147958000Y-73648000D01*
X147958000Y-73668000D01*
X147861123Y-73668000D01*
X147757265Y-73564142D01*
X147771407Y-73550000D01*
X147757265Y-73535858D01*
X147861123Y-73432000D01*
X147958000Y-73432000D01*
X147958000Y-73452000D01*
X147958000Y-73452000D01*
G37*
X147958000Y-73452000D02*
X147978877Y-73452000D01*
X148062735Y-73535858D01*
X148048593Y-73550000D01*
X148062735Y-73564142D01*
X147978877Y-73648000D01*
X147958000Y-73648000D01*
X147958000Y-73668000D01*
X147861123Y-73668000D01*
X147757265Y-73564142D01*
X147771407Y-73550000D01*
X147757265Y-73535858D01*
X147861123Y-73432000D01*
X147958000Y-73432000D01*
X147958000Y-73452000D01*
M02*
