G04 #@! TF.GenerationSoftware,KiCad,Pcbnew,(2017-11-08 revision cd21218)-HEAD*
G04 #@! TF.CreationDate,2018-05-28T17:08:36+03:00*
G04 #@! TF.ProjectId,livolo_1_channel_1way_eu_switch,6C69766F6C6F5F315F6368616E6E656C,rev?*
G04 #@! TF.SameCoordinates,Original*
G04 #@! TF.FileFunction,Legend,Bot*
G04 #@! TF.FilePolarity,Positive*
%FSLAX46Y46*%
G04 Gerber Fmt 4.6, Leading zero omitted, Abs format (unit mm)*
G04 Created by KiCad (PCBNEW (2017-11-08 revision cd21218)-HEAD) date Mon May 28 17:08:36 2018*
%MOMM*%
%LPD*%
G01*
G04 APERTURE LIST*
%ADD10C,0.120000*%
%ADD11C,0.100000*%
%ADD12C,7.500000*%
%ADD13O,1.200000X1.600000*%
%ADD14C,1.500000*%
%ADD15R,0.600000X0.800000*%
%ADD16R,1.270000X0.970000*%
%ADD17C,0.600000*%
%ADD18R,1.500000X1.000000*%
%ADD19R,1.000000X1.500000*%
G04 APERTURE END LIST*
D10*
X144771428Y-111142857D02*
X144314285Y-111142857D01*
X144542857Y-111371428D02*
X144542857Y-110914285D01*
X144085714Y-110771428D02*
X143714285Y-110771428D01*
X143914285Y-111000000D01*
X143828571Y-111000000D01*
X143771428Y-111028571D01*
X143742857Y-111057142D01*
X143714285Y-111114285D01*
X143714285Y-111257142D01*
X143742857Y-111314285D01*
X143771428Y-111342857D01*
X143828571Y-111371428D01*
X144000000Y-111371428D01*
X144057142Y-111342857D01*
X144085714Y-111314285D01*
X143542857Y-110771428D02*
X143342857Y-111371428D01*
X143142857Y-110771428D01*
X136143502Y-104140355D02*
X136082893Y-103796903D01*
X136385939Y-103897918D02*
X135961675Y-103473654D01*
X135800051Y-103635278D01*
X135779847Y-103695887D01*
X135779847Y-103736294D01*
X135800051Y-103796903D01*
X135860660Y-103857512D01*
X135921269Y-103877715D01*
X135961675Y-103877715D01*
X136022284Y-103857512D01*
X136183908Y-103695887D01*
X135739441Y-104099948D02*
X135598020Y-104241370D01*
X135759644Y-104524213D02*
X135961675Y-104322182D01*
X135537411Y-103897918D01*
X135335380Y-104099948D01*
X135375786Y-104908071D02*
X135577817Y-104706040D01*
X135153553Y-104281776D01*
X135012132Y-105271725D02*
X135254568Y-105029289D01*
X135133350Y-105150507D02*
X134709086Y-104726243D01*
X134810101Y-104746446D01*
X134890913Y-104746446D01*
X134951522Y-104726243D01*
X134971725Y-105392944D02*
X134648477Y-105716193D01*
X134507055Y-105736396D02*
X134466649Y-105817208D01*
X134365634Y-105918223D01*
X134305025Y-105938426D01*
X134264619Y-105938426D01*
X134204009Y-105918223D01*
X134163603Y-105877817D01*
X134143400Y-105817208D01*
X134143400Y-105776802D01*
X134163603Y-105716193D01*
X134224213Y-105615177D01*
X134244416Y-105554568D01*
X134244416Y-105514162D01*
X134224213Y-105453553D01*
X134183806Y-105413147D01*
X134123197Y-105392944D01*
X134082791Y-105392944D01*
X134022182Y-105413147D01*
X133921167Y-105514162D01*
X133880761Y-105594974D01*
X133880761Y-105958629D02*
X133739339Y-106100051D01*
X133900964Y-106382893D02*
X134102994Y-106180863D01*
X133678730Y-105756599D01*
X133476700Y-105958629D01*
X133355481Y-106079847D02*
X133113045Y-106322284D01*
X133658527Y-106625330D02*
X133234263Y-106201066D01*
X138563705Y-104120152D02*
X138503096Y-103776700D01*
X138806142Y-103877715D02*
X138381878Y-103453451D01*
X138220254Y-103615075D01*
X138200051Y-103675684D01*
X138200051Y-103716091D01*
X138220254Y-103776700D01*
X138280863Y-103837309D01*
X138341472Y-103857512D01*
X138381878Y-103857512D01*
X138442487Y-103837309D01*
X138604112Y-103675684D01*
X138159644Y-104079745D02*
X138018223Y-104221167D01*
X138179847Y-104504009D02*
X138381878Y-104301979D01*
X137957614Y-103877715D01*
X137755583Y-104079745D01*
X137795990Y-104887867D02*
X137998020Y-104685837D01*
X137573756Y-104261573D01*
X137432335Y-105251522D02*
X137674771Y-105009086D01*
X137553553Y-105130304D02*
X137129289Y-104706040D01*
X137230304Y-104726243D01*
X137311116Y-104726243D01*
X137371725Y-104706040D01*
X137391928Y-105372741D02*
X137068680Y-105695990D01*
X136684822Y-105999035D02*
X136624213Y-105655583D01*
X136927258Y-105756599D02*
X136502994Y-105332335D01*
X136341370Y-105493959D01*
X136321167Y-105554568D01*
X136321167Y-105594974D01*
X136341370Y-105655583D01*
X136401979Y-105716193D01*
X136462588Y-105736396D01*
X136502994Y-105736396D01*
X136563603Y-105716193D01*
X136725228Y-105554568D01*
X136502994Y-106140457D02*
X136462588Y-106221269D01*
X136361573Y-106322284D01*
X136300964Y-106342487D01*
X136260558Y-106342487D01*
X136199948Y-106322284D01*
X136159542Y-106281878D01*
X136139339Y-106221269D01*
X136139339Y-106180863D01*
X136159542Y-106120254D01*
X136220152Y-106019238D01*
X136240355Y-105958629D01*
X136240355Y-105918223D01*
X136220152Y-105857614D01*
X136179745Y-105817208D01*
X136119136Y-105797005D01*
X136078730Y-105797005D01*
X136018121Y-105817208D01*
X135917106Y-105918223D01*
X135876700Y-105999035D01*
X135735278Y-106100051D02*
X135492842Y-106342487D01*
X136038324Y-106645533D02*
X135614060Y-106221269D01*
X135220152Y-110236294D02*
X134876700Y-110296903D01*
X134977715Y-109993857D02*
X134553451Y-110418121D01*
X134715075Y-110579745D01*
X134775684Y-110599948D01*
X134816091Y-110599948D01*
X134876700Y-110579745D01*
X134937309Y-110519136D01*
X134957512Y-110458527D01*
X134957512Y-110418121D01*
X134937309Y-110357512D01*
X134775684Y-110195887D01*
X135179745Y-110640355D02*
X135321167Y-110781776D01*
X135604009Y-110620152D02*
X135401979Y-110418121D01*
X134977715Y-110842385D01*
X135179745Y-111044416D01*
X135987867Y-111004009D02*
X135785837Y-110801979D01*
X135361573Y-111226243D01*
X135725228Y-111509086D02*
X135725228Y-111549492D01*
X135745431Y-111610101D01*
X135846446Y-111711116D01*
X135907055Y-111731319D01*
X135947461Y-111731319D01*
X136008071Y-111711116D01*
X136048477Y-111670710D01*
X136088883Y-111589898D01*
X136088883Y-111105025D01*
X136351522Y-111367664D01*
X136472741Y-111408071D02*
X136795990Y-111731319D01*
X137099035Y-112115177D02*
X136755583Y-112175786D01*
X136856599Y-111872741D02*
X136432335Y-112297005D01*
X136593959Y-112458629D01*
X136654568Y-112478832D01*
X136694974Y-112478832D01*
X136755583Y-112458629D01*
X136816193Y-112398020D01*
X136836396Y-112337411D01*
X136836396Y-112297005D01*
X136816193Y-112236396D01*
X136654568Y-112074771D01*
X137240457Y-112297005D02*
X137321269Y-112337411D01*
X137422284Y-112438426D01*
X137442487Y-112499035D01*
X137442487Y-112539441D01*
X137422284Y-112600051D01*
X137381878Y-112640457D01*
X137321269Y-112660660D01*
X137280863Y-112660660D01*
X137220254Y-112640457D01*
X137119238Y-112579847D01*
X137058629Y-112559644D01*
X137018223Y-112559644D01*
X136957614Y-112579847D01*
X136917208Y-112620254D01*
X136897005Y-112680863D01*
X136897005Y-112721269D01*
X136917208Y-112781878D01*
X137018223Y-112882893D01*
X137099035Y-112923299D01*
X137200051Y-113064721D02*
X137442487Y-113307157D01*
X137745533Y-112761675D02*
X137321269Y-113185939D01*
X133240355Y-110256497D02*
X132896903Y-110317106D01*
X132997918Y-110014060D02*
X132573654Y-110438324D01*
X132735278Y-110599948D01*
X132795887Y-110620152D01*
X132836294Y-110620152D01*
X132896903Y-110599948D01*
X132957512Y-110539339D01*
X132977715Y-110478730D01*
X132977715Y-110438324D01*
X132957512Y-110377715D01*
X132795887Y-110216091D01*
X133199948Y-110660558D02*
X133341370Y-110801979D01*
X133624213Y-110640355D02*
X133422182Y-110438324D01*
X132997918Y-110862588D01*
X133199948Y-111064619D01*
X134008071Y-111024213D02*
X133806040Y-110822182D01*
X133381776Y-111246446D01*
X133745431Y-111529289D02*
X133745431Y-111569695D01*
X133765634Y-111630304D01*
X133866649Y-111731319D01*
X133927258Y-111751522D01*
X133967664Y-111751522D01*
X134028274Y-111731319D01*
X134068680Y-111690913D01*
X134109086Y-111610101D01*
X134109086Y-111125228D01*
X134371725Y-111387867D01*
X134492944Y-111428274D02*
X134816193Y-111751522D01*
X134836396Y-111892944D02*
X134917208Y-111933350D01*
X135018223Y-112034365D01*
X135038426Y-112094974D01*
X135038426Y-112135380D01*
X135018223Y-112195990D01*
X134977817Y-112236396D01*
X134917208Y-112256599D01*
X134876802Y-112256599D01*
X134816193Y-112236396D01*
X134715177Y-112175786D01*
X134654568Y-112155583D01*
X134614162Y-112155583D01*
X134553553Y-112175786D01*
X134513147Y-112216193D01*
X134492944Y-112276802D01*
X134492944Y-112317208D01*
X134513147Y-112377817D01*
X134614162Y-112478832D01*
X134694974Y-112519238D01*
X135058629Y-112519238D02*
X135200051Y-112660660D01*
X135482893Y-112499035D02*
X135280863Y-112297005D01*
X134856599Y-112721269D01*
X135058629Y-112923299D01*
X135179847Y-113044518D02*
X135422284Y-113286954D01*
X135725330Y-112741472D02*
X135301066Y-113165736D01*
X142107142Y-110800000D02*
X142164285Y-110771428D01*
X142250000Y-110771428D01*
X142335714Y-110800000D01*
X142392857Y-110857142D01*
X142421428Y-110914285D01*
X142450000Y-111028571D01*
X142450000Y-111114285D01*
X142421428Y-111228571D01*
X142392857Y-111285714D01*
X142335714Y-111342857D01*
X142250000Y-111371428D01*
X142192857Y-111371428D01*
X142107142Y-111342857D01*
X142078571Y-111314285D01*
X142078571Y-111114285D01*
X142192857Y-111114285D01*
X141821428Y-111371428D02*
X141821428Y-110771428D01*
X141478571Y-111371428D01*
X141478571Y-110771428D01*
X141192857Y-111371428D02*
X141192857Y-110771428D01*
X141050000Y-110771428D01*
X140964285Y-110800000D01*
X140907142Y-110857142D01*
X140878571Y-110914285D01*
X140850000Y-111028571D01*
X140850000Y-111114285D01*
X140878571Y-111228571D01*
X140907142Y-111285714D01*
X140964285Y-111342857D01*
X141050000Y-111371428D01*
X141192857Y-111371428D01*
X132607142Y-105892857D02*
X132150000Y-105892857D01*
X132378571Y-106121428D02*
X132378571Y-105664285D01*
X131550000Y-106121428D02*
X131892857Y-106121428D01*
X131721428Y-106121428D02*
X131721428Y-105521428D01*
X131778571Y-105607142D01*
X131835714Y-105664285D01*
X131892857Y-105692857D01*
X131321428Y-105578571D02*
X131292857Y-105550000D01*
X131235714Y-105521428D01*
X131092857Y-105521428D01*
X131035714Y-105550000D01*
X131007142Y-105578571D01*
X130978571Y-105635714D01*
X130978571Y-105692857D01*
X131007142Y-105778571D01*
X131350000Y-106121428D01*
X130978571Y-106121428D01*
X130807142Y-105521428D02*
X130607142Y-106121428D01*
X130407142Y-105521428D01*
D11*
X150117148Y-92109512D02*
G75*
G03X150117148Y-92109512I-7647872J0D01*
G01*
X137495200Y-103030002D02*
X137495200Y-97974511D01*
X147395160Y-103030002D02*
X147395160Y-97974511D01*
X137499994Y-103032020D02*
X147390000Y-103032020D01*
D10*
X142950000Y-102600000D02*
X142950000Y-101500000D01*
X142950000Y-101500000D02*
X145050000Y-101500000D01*
X142950000Y-102600000D02*
X145050000Y-102600000D01*
X142200000Y-101500000D02*
X140100000Y-101500000D01*
X142200000Y-102600000D02*
X140100000Y-102600000D01*
X142200000Y-101500000D02*
X142200000Y-102600000D01*
D12*
X146212018Y-92094052D02*
G75*
G03X146212018Y-92094052I-3740382J0D01*
G01*
D10*
X147490000Y-107430000D02*
X145710000Y-107430000D01*
X145710000Y-109970000D02*
X147490000Y-109970000D01*
X145710000Y-109970000D02*
X145710000Y-107430000D01*
X147490000Y-107430000D02*
X147490000Y-109970000D01*
D11*
X145369047Y-101226190D02*
X145369047Y-100726190D01*
X145250000Y-100726190D01*
X145178571Y-100750000D01*
X145130952Y-100797619D01*
X145107142Y-100845238D01*
X145083333Y-100940476D01*
X145083333Y-101011904D01*
X145107142Y-101107142D01*
X145130952Y-101154761D01*
X145178571Y-101202380D01*
X145250000Y-101226190D01*
X145369047Y-101226190D01*
X144630952Y-100726190D02*
X144869047Y-100726190D01*
X144892857Y-100964285D01*
X144869047Y-100940476D01*
X144821428Y-100916666D01*
X144702380Y-100916666D01*
X144654761Y-100940476D01*
X144630952Y-100964285D01*
X144607142Y-101011904D01*
X144607142Y-101130952D01*
X144630952Y-101178571D01*
X144654761Y-101202380D01*
X144702380Y-101226190D01*
X144821428Y-101226190D01*
X144869047Y-101202380D01*
X144892857Y-101178571D01*
X143885714Y-101226190D02*
X144052380Y-100988095D01*
X144171428Y-101226190D02*
X144171428Y-100726190D01*
X143980952Y-100726190D01*
X143933333Y-100750000D01*
X143909523Y-100773809D01*
X143885714Y-100821428D01*
X143885714Y-100892857D01*
X143909523Y-100940476D01*
X143933333Y-100964285D01*
X143980952Y-100988095D01*
X144171428Y-100988095D01*
X143480952Y-101202380D02*
X143528571Y-101226190D01*
X143623809Y-101226190D01*
X143671428Y-101202380D01*
X143695238Y-101154761D01*
X143695238Y-100964285D01*
X143671428Y-100916666D01*
X143623809Y-100892857D01*
X143528571Y-100892857D01*
X143480952Y-100916666D01*
X143457142Y-100964285D01*
X143457142Y-101011904D01*
X143695238Y-101059523D01*
X143028571Y-101226190D02*
X143028571Y-100726190D01*
X143028571Y-101202380D02*
X143076190Y-101226190D01*
X143171428Y-101226190D01*
X143219047Y-101202380D01*
X143242857Y-101178571D01*
X143266666Y-101130952D01*
X143266666Y-100988095D01*
X143242857Y-100940476D01*
X143219047Y-100916666D01*
X143171428Y-100892857D01*
X143076190Y-100892857D01*
X143028571Y-100916666D01*
X142169047Y-101226190D02*
X142169047Y-100726190D01*
X142050000Y-100726190D01*
X141978571Y-100750000D01*
X141930952Y-100797619D01*
X141907142Y-100845238D01*
X141883333Y-100940476D01*
X141883333Y-101011904D01*
X141907142Y-101107142D01*
X141930952Y-101154761D01*
X141978571Y-101202380D01*
X142050000Y-101226190D01*
X142169047Y-101226190D01*
X141454761Y-100726190D02*
X141550000Y-100726190D01*
X141597619Y-100750000D01*
X141621428Y-100773809D01*
X141669047Y-100845238D01*
X141692857Y-100940476D01*
X141692857Y-101130952D01*
X141669047Y-101178571D01*
X141645238Y-101202380D01*
X141597619Y-101226190D01*
X141502380Y-101226190D01*
X141454761Y-101202380D01*
X141430952Y-101178571D01*
X141407142Y-101130952D01*
X141407142Y-101011904D01*
X141430952Y-100964285D01*
X141454761Y-100940476D01*
X141502380Y-100916666D01*
X141597619Y-100916666D01*
X141645238Y-100940476D01*
X141669047Y-100964285D01*
X141692857Y-101011904D01*
X140835714Y-100964285D02*
X140764285Y-100988095D01*
X140740476Y-101011904D01*
X140716666Y-101059523D01*
X140716666Y-101130952D01*
X140740476Y-101178571D01*
X140764285Y-101202380D01*
X140811904Y-101226190D01*
X141002380Y-101226190D01*
X141002380Y-100726190D01*
X140835714Y-100726190D01*
X140788095Y-100750000D01*
X140764285Y-100773809D01*
X140740476Y-100821428D01*
X140740476Y-100869047D01*
X140764285Y-100916666D01*
X140788095Y-100940476D01*
X140835714Y-100964285D01*
X141002380Y-100964285D01*
X140430952Y-101226190D02*
X140478571Y-101202380D01*
X140502380Y-101154761D01*
X140502380Y-100726190D01*
X140026190Y-100892857D02*
X140026190Y-101226190D01*
X140240476Y-100892857D02*
X140240476Y-101154761D01*
X140216666Y-101202380D01*
X140169047Y-101226190D01*
X140097619Y-101226190D01*
X140050000Y-101202380D01*
X140026190Y-101178571D01*
X139597619Y-101202380D02*
X139645238Y-101226190D01*
X139740476Y-101226190D01*
X139788095Y-101202380D01*
X139811904Y-101154761D01*
X139811904Y-100964285D01*
X139788095Y-100916666D01*
X139740476Y-100892857D01*
X139645238Y-100892857D01*
X139597619Y-100916666D01*
X139573809Y-100964285D01*
X139573809Y-101011904D01*
X139811904Y-101059523D01*
X147926190Y-108433333D02*
X148283333Y-108433333D01*
X148354761Y-108409523D01*
X148402380Y-108361904D01*
X148426190Y-108290476D01*
X148426190Y-108242857D01*
X147973809Y-108647619D02*
X147950000Y-108671428D01*
X147926190Y-108719047D01*
X147926190Y-108838095D01*
X147950000Y-108885714D01*
X147973809Y-108909523D01*
X148021428Y-108933333D01*
X148069047Y-108933333D01*
X148140476Y-108909523D01*
X148426190Y-108623809D01*
X148426190Y-108933333D01*
X148826190Y-107540476D02*
X148826190Y-107850000D01*
X149016666Y-107683333D01*
X149016666Y-107754761D01*
X149040476Y-107802380D01*
X149064285Y-107826190D01*
X149111904Y-107850000D01*
X149230952Y-107850000D01*
X149278571Y-107826190D01*
X149302380Y-107802380D01*
X149326190Y-107754761D01*
X149326190Y-107611904D01*
X149302380Y-107564285D01*
X149278571Y-107540476D01*
X148826190Y-107992857D02*
X149326190Y-108159523D01*
X148826190Y-108326190D01*
X149373809Y-108373809D02*
X149373809Y-108754761D01*
X149064285Y-108873809D02*
X149064285Y-109040476D01*
X149326190Y-109111904D02*
X149326190Y-108873809D01*
X148826190Y-108873809D01*
X148826190Y-109111904D01*
X149326190Y-109326190D02*
X148826190Y-109326190D01*
X149326190Y-109611904D01*
X148826190Y-109611904D01*
%LPC*%
D13*
X143650000Y-107550000D03*
X143650000Y-109550000D03*
X141650000Y-107550000D03*
X141650000Y-109550000D03*
X139650000Y-107550000D03*
X139650000Y-109550000D03*
X137650000Y-107550000D03*
X137650000Y-109550000D03*
X135650000Y-107550000D03*
X135650000Y-109550000D03*
X133650000Y-107550000D03*
X133650000Y-109550000D03*
X131650000Y-107550000D03*
X131650000Y-109550000D03*
D14*
X146600000Y-100800000D03*
X138400000Y-100800000D03*
D15*
X143400000Y-102050000D03*
X145100000Y-102050000D03*
X140050000Y-102050000D03*
X141750000Y-102050000D03*
D16*
X146600000Y-109340000D03*
X146600000Y-108060000D03*
D17*
X136570000Y-78630000D03*
X136570000Y-77360000D03*
X136570000Y-76090000D03*
X136570000Y-74820000D03*
D18*
X136520000Y-78630000D03*
X136520000Y-77360000D03*
X136520000Y-76090000D03*
X136520000Y-74820000D03*
X136520000Y-73550000D03*
D17*
X136570000Y-73550000D03*
X144720000Y-80620000D03*
X143450000Y-80620000D03*
X142180000Y-80620000D03*
X140910000Y-80620000D03*
X139640000Y-80620000D03*
D19*
X144720000Y-80570000D03*
X143450000Y-80570000D03*
X142180000Y-80570000D03*
X140910000Y-80570000D03*
X139640000Y-80570000D03*
D17*
X147910000Y-78630000D03*
X147910000Y-77360000D03*
X147910000Y-76090000D03*
X147910000Y-74820000D03*
D18*
X147860000Y-73550000D03*
X147860000Y-74820000D03*
X147860000Y-76090000D03*
X147860000Y-77360000D03*
X147860000Y-78630000D03*
D17*
X147910000Y-73550000D03*
M02*
