G04 #@! TF.GenerationSoftware,KiCad,Pcbnew,no-vcs-found-7560~57~ubuntu16.04.1*
G04 #@! TF.CreationDate,2017-02-01T13:10:37+02:00*
G04 #@! TF.ProjectId,livolo_2_ways_eu_switch,6C69766F6C6F5F325F776179735F6575,rev?*
G04 #@! TF.FileFunction,Copper,L2,Bot,Signal*
G04 #@! TF.FilePolarity,Positive*
%FSLAX46Y46*%
G04 Gerber Fmt 4.6, Leading zero omitted, Abs format (unit mm)*
G04 Created by KiCad (PCBNEW no-vcs-found-7560~57~ubuntu16.04.1) date Wed Feb  1 13:10:37 2017*
%MOMM*%
%LPD*%
G01*
G04 APERTURE LIST*
%ADD10C,0.100000*%
%ADD11O,1.700000X1.700000*%
%ADD12R,1.700000X1.700000*%
%ADD13R,0.600000X0.800000*%
%ADD14C,15.500000*%
%ADD15C,1.998980*%
%ADD16C,0.800000*%
%ADD17C,0.300000*%
%ADD18C,0.450000*%
G04 APERTURE END LIST*
D10*
D11*
X140630000Y-110050000D03*
X140630000Y-107510000D03*
X143170000Y-110050000D03*
X143170000Y-107510000D03*
X145710000Y-110050000D03*
X145710000Y-107510000D03*
X148250000Y-110050000D03*
X148250000Y-107510000D03*
X150790000Y-110050000D03*
X150790000Y-107510000D03*
X153330000Y-110050000D03*
D12*
X153330000Y-107510000D03*
D13*
X131350000Y-102150000D03*
X129650000Y-102150000D03*
X126000000Y-102150000D03*
X127700000Y-102150000D03*
X158800000Y-102150000D03*
X157100000Y-102150000D03*
X155450000Y-102150000D03*
X153750000Y-102150000D03*
D14*
X156250000Y-92150000D03*
X128650000Y-92150000D03*
D15*
X131550000Y-72550000D03*
D16*
X156350000Y-104050000D03*
X146225009Y-88306238D03*
X144900000Y-89700000D03*
X137317018Y-84464922D03*
X145033547Y-91716453D03*
X137499998Y-76850000D03*
X148700000Y-97824982D03*
X144784305Y-99650000D03*
X139800000Y-89550002D03*
X137450000Y-88524998D03*
X134600000Y-101300000D03*
X138416234Y-84423097D03*
X127275000Y-103525000D03*
X154700002Y-77875000D03*
X156974998Y-77900000D03*
X138432929Y-78572282D03*
X143992417Y-86553252D03*
X143802464Y-90525717D03*
X141128134Y-99823962D03*
X154399998Y-104950000D03*
X138000000Y-96075012D03*
X139800000Y-91667529D03*
X142799990Y-91945222D03*
X128050002Y-77425000D03*
X130850000Y-107799984D03*
X150850000Y-103850000D03*
X134652342Y-100001234D03*
X136625002Y-81475000D03*
X140444049Y-82657764D03*
X144575010Y-82550000D03*
X128000012Y-82050010D03*
X139345788Y-82719813D03*
X155700000Y-75925000D03*
X128000014Y-79725000D03*
X156975000Y-75975002D03*
X141950000Y-80450000D03*
X126900010Y-105803844D03*
X122625000Y-102225000D03*
X162500000Y-102250000D03*
X157504617Y-105225361D03*
X147700000Y-83500000D03*
X146650032Y-96603597D03*
X139697783Y-94769178D03*
X126460463Y-108164798D03*
X145436975Y-94299999D03*
X156350937Y-106200012D03*
X143694080Y-95093230D03*
X144544090Y-93657518D03*
X142100010Y-94103486D03*
X141805637Y-92998142D03*
X157566229Y-82183121D03*
X141918510Y-91228448D03*
X136200000Y-84425000D03*
X141500002Y-85650000D03*
X142874990Y-84375000D03*
X153125000Y-78000000D03*
D17*
X144784305Y-99650000D02*
X144784305Y-98815695D01*
X144784305Y-98815695D02*
X145800000Y-97800000D01*
X145800000Y-97800000D02*
X145800022Y-97800000D01*
X157100000Y-102150000D02*
X157100000Y-103300000D01*
X157100000Y-103300000D02*
X156350000Y-104050000D01*
X146225009Y-88374991D02*
X146225009Y-88306238D01*
X144900000Y-89700000D02*
X146225009Y-88374991D01*
X148700000Y-97824982D02*
X145825004Y-97824982D01*
X145825004Y-97824982D02*
X145800022Y-97800000D01*
X145800022Y-97800000D02*
X145800022Y-95948306D01*
X146286986Y-92969892D02*
X145033547Y-91716453D01*
X146286986Y-95461342D02*
X146286986Y-92969892D01*
X145800022Y-95948306D02*
X146286986Y-95461342D01*
X137499998Y-84281942D02*
X137317018Y-84464922D01*
X137499998Y-76850000D02*
X137499998Y-84281942D01*
X129246154Y-106653846D02*
X126486018Y-106653846D01*
X126486018Y-106653846D02*
X126024999Y-106192827D01*
X126024999Y-106192827D02*
X126024999Y-103466999D01*
X134600000Y-101300000D02*
X129246154Y-106653846D01*
X126024999Y-103466999D02*
X127341998Y-102150000D01*
X127341998Y-102150000D02*
X127700000Y-102150000D01*
X137450000Y-88524998D02*
X138774996Y-88524998D01*
X138774996Y-88524998D02*
X139800000Y-89550002D01*
X141849980Y-95611518D02*
X143650000Y-93811498D01*
X141849980Y-99102116D02*
X141849980Y-95611518D01*
X143650000Y-93811498D02*
X143650000Y-90625000D01*
X143749283Y-90525717D02*
X143802464Y-90525717D01*
X141128134Y-99823962D02*
X141849980Y-99102116D01*
X143650000Y-90625000D02*
X143749283Y-90525717D01*
X138432929Y-84406402D02*
X138416234Y-84423097D01*
X138432929Y-78572282D02*
X138432929Y-84406402D01*
X127675000Y-103525000D02*
X127275000Y-103525000D01*
X129650000Y-102150000D02*
X129050000Y-102150000D01*
X129050000Y-102150000D02*
X127675000Y-103525000D01*
X156974998Y-77900000D02*
X154725002Y-77900000D01*
X154725002Y-77900000D02*
X154700002Y-77875000D01*
X143802464Y-86743205D02*
X143992417Y-86553252D01*
X143802464Y-90525717D02*
X143802464Y-86743205D01*
X153750000Y-104300002D02*
X154399998Y-104950000D01*
X153750000Y-102150000D02*
X153750000Y-104300002D01*
X139800000Y-91667529D02*
X138675000Y-92792529D01*
X138675000Y-92792529D02*
X138675000Y-95400012D01*
X138675000Y-95400012D02*
X138000000Y-96075012D01*
X142597071Y-92148141D02*
X142799990Y-91945222D01*
X140850000Y-88700000D02*
X140850000Y-91415685D01*
X138525001Y-86375001D02*
X140850000Y-88700000D01*
X140850000Y-91415685D02*
X141582456Y-92148141D01*
X136750001Y-86375001D02*
X138525001Y-86375001D01*
X133275012Y-82900012D02*
X136750001Y-86375001D01*
X126900000Y-78575002D02*
X126900000Y-82208002D01*
X128050002Y-77425000D02*
X126900000Y-78575002D01*
X127592010Y-82900012D02*
X133275012Y-82900012D01*
X141582456Y-92148141D02*
X142597071Y-92148141D01*
X126900000Y-82208002D02*
X127592010Y-82900012D01*
D18*
X153330000Y-110050000D02*
X150955000Y-112425000D01*
X150955000Y-112425000D02*
X135475016Y-112425000D01*
X135475016Y-112425000D02*
X130850000Y-107799984D01*
D17*
X156250000Y-92150000D02*
X150949999Y-97450001D01*
X150949999Y-97450001D02*
X150949999Y-103750001D01*
X150949999Y-103750001D02*
X150850000Y-103850000D01*
X128650000Y-92150000D02*
X134652342Y-98152342D01*
X134652342Y-98152342D02*
X134652342Y-100001234D01*
X128575022Y-81475000D02*
X136625002Y-81475000D01*
X128000012Y-82050010D02*
X128575022Y-81475000D01*
X144575010Y-82550000D02*
X140551813Y-82550000D01*
X140551813Y-82550000D02*
X140444049Y-82657764D01*
X139345788Y-75995788D02*
X139345788Y-82719813D01*
X139275000Y-75925000D02*
X139345788Y-75995788D01*
X155700000Y-75925000D02*
X139275000Y-75925000D01*
X139275000Y-75925000D02*
X131800014Y-75925000D01*
X131800014Y-75925000D02*
X128000014Y-79725000D01*
X141950000Y-80450000D02*
X145624998Y-76775002D01*
X145624998Y-76775002D02*
X156175000Y-76775002D01*
X156175000Y-76775002D02*
X156975000Y-75975002D01*
X127796156Y-105803844D02*
X126900010Y-105803844D01*
X131350000Y-102250000D02*
X127796156Y-105803844D01*
X131350000Y-102150000D02*
X131350000Y-102250000D01*
X122700000Y-102150000D02*
X122625000Y-102225000D01*
X126000000Y-102150000D02*
X122700000Y-102150000D01*
X162400000Y-102150000D02*
X162500000Y-102250000D01*
X158800000Y-102150000D02*
X162400000Y-102150000D01*
X155450000Y-104383002D02*
X156341999Y-105275001D01*
X155450000Y-102150000D02*
X155450000Y-104383002D01*
X157454977Y-105275001D02*
X157504617Y-105225361D01*
X156341999Y-105275001D02*
X157454977Y-105275001D01*
X146650032Y-96603597D02*
X147125000Y-96128629D01*
X147125000Y-96128629D02*
X147125000Y-84075000D01*
X147125000Y-84075000D02*
X147700000Y-83500000D01*
X139697783Y-97694203D02*
X139697783Y-94769178D01*
X129227188Y-108164798D02*
X139697783Y-97694203D01*
X126460463Y-108164798D02*
X129227188Y-108164798D01*
X143914711Y-96985074D02*
X145436975Y-95462810D01*
X150042008Y-106200012D02*
X143914711Y-100072715D01*
X143914711Y-100072715D02*
X143914711Y-96985074D01*
X156350937Y-106200012D02*
X150042008Y-106200012D01*
X145436975Y-95462810D02*
X145436975Y-94299999D01*
X140630000Y-107510000D02*
X142449991Y-105690009D01*
X142449991Y-96337319D02*
X143694080Y-95093230D01*
X142449991Y-105690009D02*
X142449991Y-96337319D01*
X144544090Y-95507152D02*
X144544090Y-93657518D01*
X143170000Y-107510000D02*
X143170000Y-96881242D01*
X143170000Y-96881242D02*
X144544090Y-95507152D01*
X140630000Y-110050000D02*
X139329999Y-108749999D01*
X141249969Y-94953527D02*
X142100010Y-94103486D01*
X139329999Y-100420001D02*
X141249969Y-98500031D01*
X139329999Y-108749999D02*
X139329999Y-100420001D01*
X141249969Y-98500031D02*
X141249969Y-94953527D01*
X140649958Y-94153821D02*
X141805637Y-92998142D01*
X140649958Y-98251500D02*
X140649958Y-94153821D01*
X138599991Y-100301467D02*
X140649958Y-98251500D01*
X140005999Y-111350001D02*
X138599991Y-109943993D01*
X138599991Y-109943993D02*
X138599991Y-100301467D01*
X143170000Y-110050000D02*
X141869999Y-111350001D01*
X141869999Y-111350001D02*
X140005999Y-111350001D01*
X147708875Y-82183121D02*
X157566229Y-82183121D01*
X144516995Y-85375001D02*
X147708875Y-82183121D01*
X141918510Y-86831490D02*
X143374999Y-85375001D01*
X143374999Y-85375001D02*
X144516995Y-85375001D01*
X141918510Y-91228448D02*
X141918510Y-86831490D01*
X136200000Y-84550000D02*
X136200000Y-84425000D01*
X141500002Y-85650000D02*
X137300000Y-85650000D01*
X137300000Y-85650000D02*
X136200000Y-84550000D01*
X144668453Y-84375000D02*
X142874990Y-84375000D01*
X153125000Y-78000000D02*
X151043453Y-78000000D01*
X151043453Y-78000000D02*
X144668453Y-84375000D01*
M02*
