G04 #@! TF.GenerationSoftware,KiCad,Pcbnew,no-vcs-found-7688~57~ubuntu16.04.1*
G04 #@! TF.CreationDate,2017-02-22T13:24:34+02:00*
G04 #@! TF.ProjectId,livolo_2_ways_eu_switch,6C69766F6C6F5F325F776179735F6575,rev?*
G04 #@! TF.FileFunction,Copper,L1,Top,Signal*
G04 #@! TF.FilePolarity,Positive*
%FSLAX46Y46*%
G04 Gerber Fmt 4.6, Leading zero omitted, Abs format (unit mm)*
G04 Created by KiCad (PCBNEW no-vcs-found-7688~57~ubuntu16.04.1) date Wed Feb 22 13:24:34 2017*
%MOMM*%
%LPD*%
G01*
G04 APERTURE LIST*
%ADD10C,0.100000*%
%ADD11R,1.200000X0.900000*%
%ADD12R,2.000000X4.000000*%
%ADD13R,1.200000X0.750000*%
%ADD14O,1.700000X1.700000*%
%ADD15R,1.700000X1.700000*%
%ADD16R,2.500000X1.270000*%
%ADD17R,0.600000X0.500000*%
%ADD18R,0.750000X1.200000*%
%ADD19R,1.800000X1.500000*%
%ADD20R,3.000000X1.500000*%
%ADD21R,0.550000X1.600000*%
%ADD22R,1.600000X0.550000*%
%ADD23C,1.998980*%
%ADD24R,0.900000X1.200000*%
%ADD25R,0.650000X1.060000*%
%ADD26R,1.060000X0.650000*%
%ADD27R,1.998980X1.399540*%
%ADD28R,0.600000X1.550000*%
%ADD29R,0.800000X1.900000*%
%ADD30C,0.800000*%
%ADD31C,0.300000*%
%ADD32C,0.450000*%
G04 APERTURE END LIST*
D10*
D11*
X160866000Y-83312000D03*
X158666000Y-83312000D03*
D12*
X134400000Y-110550000D03*
X137650000Y-110550000D03*
D13*
X152675000Y-72600000D03*
X154575000Y-72600000D03*
D14*
X140630000Y-110050000D03*
X140630000Y-107510000D03*
X143170000Y-110050000D03*
X143170000Y-107510000D03*
X145710000Y-110050000D03*
X145710000Y-107510000D03*
X148250000Y-110050000D03*
X148250000Y-107510000D03*
X150790000Y-110050000D03*
X150790000Y-107510000D03*
X153330000Y-110050000D03*
D15*
X153330000Y-107510000D03*
D16*
X126050000Y-82440000D03*
X126050000Y-79900000D03*
X126050000Y-77360000D03*
X130050000Y-77360000D03*
X130050000Y-79900000D03*
X130050000Y-82400000D03*
D17*
X136600000Y-96900000D03*
X137700000Y-96900000D03*
X137900000Y-87500000D03*
X136800000Y-87500000D03*
X146950000Y-87500000D03*
X148050000Y-87500000D03*
D13*
X129750000Y-107100000D03*
X127850000Y-107100000D03*
D18*
X140000000Y-104700000D03*
X140000000Y-102800000D03*
D13*
X142100000Y-100800000D03*
X144000000Y-100800000D03*
D18*
X132450000Y-77150000D03*
X132450000Y-75250000D03*
D19*
X127975000Y-109250000D03*
D20*
X131475000Y-109250000D03*
D18*
X146100000Y-104650000D03*
X146100000Y-102750000D03*
D13*
X141600000Y-98550000D03*
X143500000Y-98550000D03*
D18*
X135750000Y-106900000D03*
X135750000Y-105000000D03*
D13*
X150050000Y-104750000D03*
X148150000Y-104750000D03*
D18*
X135700000Y-100300000D03*
X135700000Y-98400000D03*
D13*
X148150000Y-98900000D03*
X150050000Y-98900000D03*
X138100000Y-102150000D03*
X136200000Y-102150000D03*
D11*
X137825000Y-103975000D03*
X137825000Y-107275000D03*
D21*
X145250000Y-96550000D03*
X144450000Y-96550000D03*
X143650000Y-96550000D03*
X142850000Y-96550000D03*
X142050000Y-96550000D03*
X141250000Y-96550000D03*
X140450000Y-96550000D03*
X139650000Y-96550000D03*
D22*
X138200000Y-95100000D03*
X138200000Y-94300000D03*
X138200000Y-93500000D03*
X138200000Y-92700000D03*
X138200000Y-91900000D03*
X138200000Y-91100000D03*
X138200000Y-90300000D03*
X138200000Y-89500000D03*
D21*
X139650000Y-88050000D03*
X140450000Y-88050000D03*
X141250000Y-88050000D03*
X142050000Y-88050000D03*
X142850000Y-88050000D03*
X143650000Y-88050000D03*
X144450000Y-88050000D03*
X145250000Y-88050000D03*
D22*
X146700000Y-89500000D03*
X146700000Y-90300000D03*
X146700000Y-91100000D03*
X146700000Y-91900000D03*
X146700000Y-92700000D03*
X146700000Y-93500000D03*
X146700000Y-94300000D03*
X146700000Y-95100000D03*
D23*
X131550000Y-72550000D03*
D11*
X131850000Y-103200000D03*
X134050000Y-103200000D03*
X129950000Y-104700000D03*
X127750000Y-104700000D03*
D24*
X146100000Y-100800000D03*
X146100000Y-98600000D03*
X132500000Y-81200000D03*
X132500000Y-83400000D03*
X159150000Y-105250000D03*
X159150000Y-107450000D03*
X161050000Y-105000000D03*
X161050000Y-102800000D03*
X125850000Y-104600000D03*
X125850000Y-106800000D03*
X123950000Y-105100000D03*
X123950000Y-102900000D03*
D25*
X142100000Y-102650000D03*
X144000000Y-102650000D03*
X144000000Y-104850000D03*
X143050000Y-104850000D03*
X142100000Y-104850000D03*
X132800000Y-107050000D03*
X133750000Y-107050000D03*
X131850000Y-107050000D03*
X131850000Y-104850000D03*
X132800000Y-104850000D03*
X133750000Y-104850000D03*
X149100000Y-100650000D03*
X148150000Y-100650000D03*
X150050000Y-100650000D03*
X150050000Y-102850000D03*
X149100000Y-102850000D03*
X148150000Y-102850000D03*
D26*
X137500000Y-98500000D03*
X137500000Y-99450000D03*
X137500000Y-100400000D03*
X139700000Y-100400000D03*
X139700000Y-98500000D03*
X139700000Y-99450000D03*
D27*
X134499800Y-72598780D03*
X134471860Y-74600300D03*
X134471860Y-76599280D03*
X134471860Y-78550000D03*
X134471860Y-80500720D03*
X134471860Y-82499700D03*
X134471860Y-84501220D03*
X150372260Y-84501220D03*
X150372260Y-82499700D03*
X150372260Y-80500720D03*
X150372260Y-78550000D03*
X150372260Y-76599280D03*
X150372260Y-74600300D03*
X150372260Y-72598780D03*
D18*
X162600000Y-82800000D03*
X162600000Y-80900000D03*
D11*
X153200000Y-81700000D03*
X155400000Y-81700000D03*
D28*
X153120000Y-74400000D03*
X154390000Y-74400000D03*
X155660000Y-74400000D03*
X156930000Y-74400000D03*
X156930000Y-79800000D03*
X155660000Y-79800000D03*
X154390000Y-79800000D03*
X153120000Y-79800000D03*
D29*
X159900000Y-78350000D03*
X160850000Y-81350000D03*
X158950000Y-81350000D03*
D30*
X156375000Y-103975000D03*
X134687489Y-101199990D03*
X146225009Y-88306238D03*
X144900000Y-89700000D03*
X137317018Y-84464922D03*
X145033547Y-91716453D03*
X137499998Y-76850000D03*
X148700000Y-97824982D03*
X144784305Y-99650000D03*
X139800000Y-89550002D03*
X137450000Y-88524998D03*
X154450000Y-104849998D03*
X138416234Y-84423097D03*
X127275000Y-103525000D03*
X154700002Y-77875000D03*
X156974998Y-77900000D03*
X138432929Y-78572282D03*
X143992417Y-86553252D03*
X143802464Y-90525717D03*
X141128134Y-99823962D03*
X138000000Y-96075012D03*
X139800000Y-91667529D03*
X142799990Y-91945222D03*
X128050002Y-77425000D03*
X130850000Y-107799984D03*
X150850000Y-103850000D03*
X134652342Y-100001234D03*
X136625002Y-81475000D03*
X140444049Y-82657764D03*
X144575010Y-82550000D03*
X128000012Y-82050010D03*
X139345788Y-82719813D03*
X155700000Y-75925000D03*
X128000014Y-79725000D03*
X156975000Y-75975002D03*
X141950000Y-80450000D03*
X126900010Y-105803844D03*
X122625000Y-102225000D03*
X162500000Y-102250000D03*
X157504617Y-105225361D03*
X147700000Y-83500000D03*
X146650032Y-96603597D03*
X139697783Y-94769178D03*
X126460463Y-108164798D03*
X145436975Y-94299999D03*
X156350937Y-106200012D03*
X143694080Y-95093230D03*
X144544090Y-93657518D03*
X142100010Y-94103486D03*
X141805637Y-92998142D03*
X157566229Y-82183121D03*
X141918510Y-91228448D03*
X136200000Y-84425000D03*
X141500002Y-85650000D03*
X142874990Y-84375000D03*
X153125000Y-78000000D03*
D31*
X155400000Y-81700000D02*
X155400000Y-81582000D01*
X155400000Y-81582000D02*
X155448000Y-81534000D01*
X155448000Y-81534000D02*
X157017449Y-81534000D01*
X160850000Y-80332000D02*
X160850000Y-81350000D01*
X157017449Y-81534000D02*
X157988000Y-80563449D01*
X157988000Y-80563449D02*
X157988000Y-80010000D01*
X157988000Y-80010000D02*
X158148000Y-79850000D01*
X158148000Y-79850000D02*
X160368000Y-79850000D01*
X160368000Y-79850000D02*
X160850000Y-80332000D01*
X150050000Y-100855000D02*
X153170000Y-103975000D01*
X150050000Y-100650000D02*
X150050000Y-100855000D01*
X153170000Y-103975000D02*
X156375000Y-103975000D01*
X136200000Y-102150000D02*
X135975000Y-102150000D01*
X134962499Y-101475000D02*
X134687489Y-101199990D01*
X135975000Y-102150000D02*
X135300000Y-101475000D01*
X135300000Y-101475000D02*
X134962499Y-101475000D01*
X136800000Y-87500000D02*
X136800000Y-85390476D01*
X136800000Y-87500000D02*
X136800000Y-87875000D01*
X136800000Y-87875000D02*
X137325002Y-88400000D01*
X146225009Y-88306238D02*
X146225009Y-88224991D01*
X146225009Y-88224991D02*
X146950000Y-87500000D01*
X144900000Y-89700000D02*
X144750002Y-89550002D01*
X144900000Y-89700000D02*
X144950000Y-89700000D01*
X144950000Y-89700000D02*
X145026048Y-89776048D01*
X137317018Y-84873458D02*
X137317018Y-84464922D01*
X136800000Y-85390476D02*
X137317018Y-84873458D01*
X137325002Y-88400000D02*
X137450000Y-88524998D01*
X146700000Y-92700000D02*
X145781547Y-92700000D01*
X145781547Y-92700000D02*
X145050000Y-91968453D01*
X145050000Y-91968453D02*
X145050000Y-91732906D01*
X145050000Y-91732906D02*
X145033547Y-91716453D01*
X145033547Y-91057499D02*
X145033547Y-91716453D01*
X145026048Y-91050000D02*
X145033547Y-91057499D01*
X139800000Y-89550002D02*
X139800000Y-89775000D01*
X139800000Y-89775000D02*
X139275000Y-90300000D01*
X139275000Y-90300000D02*
X138200000Y-90300000D01*
X137499998Y-76850000D02*
X137500000Y-76850000D01*
X137500000Y-76850000D02*
X142925001Y-71424999D01*
X142925001Y-71424999D02*
X153174999Y-71424999D01*
X153174999Y-71424999D02*
X154350000Y-72600000D01*
X154350000Y-72600000D02*
X154575000Y-72600000D01*
X137499998Y-76850000D02*
X137499998Y-76724998D01*
X137499998Y-76724998D02*
X135375000Y-74600000D01*
X135374700Y-74600300D02*
X134471860Y-74600300D01*
X135375000Y-74600000D02*
X135374700Y-74600300D01*
X160866000Y-83312000D02*
X160866000Y-81366000D01*
X160866000Y-81366000D02*
X160850000Y-81350000D01*
X160866000Y-83312000D02*
X162088000Y-83312000D01*
X162088000Y-83312000D02*
X162600000Y-82800000D01*
X132450000Y-75250000D02*
X125625000Y-75250000D01*
X125625000Y-75250000D02*
X124300000Y-76575000D01*
X124300000Y-76575000D02*
X124300000Y-81305000D01*
X124300000Y-81305000D02*
X125435000Y-82440000D01*
X125435000Y-82440000D02*
X126050000Y-82440000D01*
X154390000Y-74400000D02*
X154390000Y-72785000D01*
X154390000Y-72785000D02*
X154575000Y-72600000D01*
X125285000Y-82440000D02*
X125900000Y-82440000D01*
X125900000Y-82440000D02*
X125900000Y-81505000D01*
X125900000Y-81505000D02*
X126205000Y-81200000D01*
X126205000Y-81200000D02*
X132500000Y-81200000D01*
X144750002Y-89550002D02*
X139800000Y-89550002D01*
X145026048Y-89776048D02*
X145026048Y-91050000D01*
X155400000Y-81700000D02*
X155700000Y-81400000D01*
X155700000Y-81400000D02*
X155700000Y-79515000D01*
X155700000Y-79515000D02*
X155685000Y-79500000D01*
X155685000Y-77143002D02*
X154415000Y-75873002D01*
X154415000Y-75873002D02*
X154415000Y-74100000D01*
X155685000Y-79500000D02*
X155685000Y-77143002D01*
X146700000Y-91100000D02*
X145076048Y-91100000D01*
X145076048Y-91100000D02*
X145026048Y-91050000D01*
X153145000Y-74100000D02*
X154415000Y-74100000D01*
X134471860Y-74600300D02*
X133099700Y-74600300D01*
X133099700Y-74600300D02*
X132450000Y-75250000D01*
X148749982Y-97824982D02*
X148700000Y-97824982D01*
X149825000Y-98900000D02*
X148749982Y-97824982D01*
X150050000Y-98900000D02*
X149825000Y-98900000D01*
X145100000Y-99650000D02*
X144784305Y-99650000D01*
X146100000Y-100650000D02*
X145100000Y-99650000D01*
X146100000Y-100800000D02*
X146100000Y-100650000D01*
X142100000Y-100800000D02*
X140100000Y-100800000D01*
X140100000Y-100800000D02*
X139700000Y-100400000D01*
X142100000Y-102650000D02*
X142100000Y-101750000D01*
X142100000Y-101750000D02*
X142100000Y-100800000D01*
X146100000Y-100800000D02*
X146100000Y-100950000D01*
X146100000Y-100950000D02*
X145380001Y-101669999D01*
X145380001Y-101669999D02*
X142180001Y-101669999D01*
X142180001Y-101669999D02*
X142100000Y-101750000D01*
X150050000Y-100650000D02*
X149100000Y-100650000D01*
X139700000Y-100400000D02*
X139700000Y-99450000D01*
X139700000Y-100400000D02*
X139495000Y-100400000D01*
X139495000Y-100400000D02*
X138570001Y-101324999D01*
X136425000Y-102150000D02*
X136200000Y-102150000D01*
X138570001Y-101324999D02*
X137250001Y-101324999D01*
X137250001Y-101324999D02*
X136425000Y-102150000D01*
X150050000Y-100650000D02*
X150050000Y-98900000D01*
X137500000Y-99450000D02*
X138075000Y-99450000D01*
X138075000Y-99450000D02*
X139025000Y-98500000D01*
X139025000Y-98500000D02*
X139700000Y-98500000D01*
X149100000Y-102850000D02*
X149100000Y-102275000D01*
X149100000Y-102275000D02*
X148150000Y-101325000D01*
X148150000Y-101325000D02*
X148150000Y-100650000D01*
X154450000Y-105465683D02*
X154450000Y-104849998D01*
X154399998Y-105515685D02*
X154450000Y-105465683D01*
X132950000Y-101850000D02*
X133150000Y-102050000D01*
X133150000Y-102050000D02*
X134600010Y-102050000D01*
X134600010Y-102050000D02*
X135149999Y-102599989D01*
X135149999Y-102599989D02*
X135149999Y-102885001D01*
X135149999Y-102885001D02*
X135239999Y-102975001D01*
X137985002Y-102150000D02*
X138100000Y-102150000D01*
X135239999Y-102975001D02*
X137160001Y-102975001D01*
X137160001Y-102975001D02*
X137985002Y-102150000D01*
X143725000Y-77996550D02*
X143725000Y-86285835D01*
X143700000Y-77971550D02*
X143725000Y-77996550D01*
X143725000Y-86285835D02*
X143992417Y-86553252D01*
X138297618Y-87252382D02*
X138297618Y-84541713D01*
X137900000Y-87650000D02*
X138297618Y-87252382D01*
X148050000Y-87500000D02*
X148050000Y-87350000D01*
X148050000Y-87350000D02*
X147253252Y-86553252D01*
X147253252Y-86553252D02*
X143992417Y-86553252D01*
X141600000Y-98550000D02*
X141600000Y-99775000D01*
X141600000Y-99775000D02*
X141551038Y-99823962D01*
X141551038Y-99823962D02*
X141128134Y-99823962D01*
X144000000Y-100800000D02*
X143775000Y-100800000D01*
X143775000Y-100800000D02*
X142798962Y-99823962D01*
X142798962Y-99823962D02*
X141128134Y-99823962D01*
X138297618Y-84541713D02*
X138416234Y-84423097D01*
X145539999Y-93425001D02*
X146625001Y-93425001D01*
X143802464Y-90525717D02*
X143802464Y-91687466D01*
X143802464Y-91687466D02*
X145539999Y-93425001D01*
X146625001Y-93425001D02*
X146700000Y-93500000D01*
X137063546Y-77971550D02*
X138425000Y-77971550D01*
X138425000Y-77971550D02*
X143700000Y-77971550D01*
X138432929Y-78572282D02*
X138432929Y-77979479D01*
X138432929Y-77979479D02*
X138425000Y-77971550D01*
X128950000Y-101850000D02*
X127275000Y-103525000D01*
X132950000Y-101850000D02*
X128950000Y-101850000D01*
X127325000Y-103525000D02*
X127275000Y-103525000D01*
X127750000Y-103950000D02*
X127325000Y-103525000D01*
X127750000Y-104700000D02*
X127750000Y-103950000D01*
X127350000Y-109300000D02*
X127850000Y-108800000D01*
D32*
X127850000Y-108800000D02*
X127850000Y-107100000D01*
D31*
X152369999Y-75544997D02*
X154700002Y-77875000D01*
X152369999Y-72905001D02*
X152369999Y-75544997D01*
X152675000Y-72600000D02*
X152369999Y-72905001D01*
X157424998Y-78350000D02*
X156974998Y-77900000D01*
X157630000Y-78350000D02*
X157424998Y-78350000D01*
X150372260Y-72598780D02*
X152673780Y-72598780D01*
X152673780Y-72598780D02*
X152675000Y-72600000D01*
X147950001Y-92050001D02*
X147950001Y-93349999D01*
X147950001Y-93349999D02*
X147800000Y-93500000D01*
X146700000Y-93500000D02*
X147800000Y-93500000D01*
X147800000Y-91900000D02*
X147950001Y-92050001D01*
X146700000Y-91900000D02*
X147800000Y-91900000D01*
X138200000Y-92700000D02*
X140053139Y-92700000D01*
X140053139Y-92700000D02*
X140925000Y-91828139D01*
X140925000Y-91828139D02*
X140925000Y-90963954D01*
X140925000Y-90963954D02*
X141513954Y-90375000D01*
X143750717Y-90525717D02*
X143802464Y-90525717D01*
X141513954Y-90375000D02*
X143600000Y-90375000D01*
X143600000Y-90375000D02*
X143750717Y-90525717D01*
X126515000Y-77360000D02*
X127925000Y-75950000D01*
X132450000Y-76925000D02*
X132450000Y-77150000D01*
X131475000Y-75950000D02*
X132450000Y-76925000D01*
X127925000Y-75950000D02*
X131475000Y-75950000D01*
X154434313Y-105550000D02*
X154399998Y-105515685D01*
X154434315Y-105550000D02*
X154434313Y-105550000D01*
X154409314Y-105575001D02*
X154434315Y-105550000D01*
X149200001Y-105575001D02*
X154409314Y-105575001D01*
X148375000Y-104750000D02*
X149200001Y-105575001D01*
X148150000Y-104750000D02*
X148375000Y-104750000D01*
X125900000Y-77360000D02*
X126515000Y-77360000D01*
X135691276Y-76599280D02*
X137063546Y-77971550D01*
X134471860Y-76599280D02*
X135691276Y-76599280D01*
X150790000Y-110050000D02*
X152090000Y-111350000D01*
X152090000Y-111350000D02*
X153954001Y-111350001D01*
X153954001Y-111350001D02*
X154630001Y-110674001D01*
X154630001Y-110674001D02*
X154630001Y-105745688D01*
X154630001Y-105745688D02*
X154399998Y-105515685D01*
X146700000Y-93500000D02*
X146633174Y-93433174D01*
X159900000Y-78350000D02*
X157630000Y-78350000D01*
X156955000Y-79025000D02*
X156955000Y-79500000D01*
X157630000Y-78350000D02*
X156955000Y-79025000D01*
X162600000Y-80900000D02*
X162600000Y-80350000D01*
X162600000Y-80350000D02*
X160600000Y-78350000D01*
X160600000Y-78350000D02*
X159900000Y-78350000D01*
X150721040Y-72250000D02*
X150372260Y-72598780D01*
X134471860Y-76599280D02*
X133000720Y-76599280D01*
X133000720Y-76599280D02*
X132450000Y-77150000D01*
X132950000Y-103870000D02*
X132950000Y-101850000D01*
X132800000Y-104850000D02*
X132800000Y-104020000D01*
X132800000Y-104020000D02*
X132950000Y-103870000D01*
X132950000Y-101850000D02*
X133800001Y-100999999D01*
X136600000Y-96900000D02*
X136600000Y-97500000D01*
X136600000Y-97500000D02*
X135700000Y-98400000D01*
X133800001Y-99341995D02*
X134966996Y-98175000D01*
X134966996Y-98175000D02*
X135700000Y-98175000D01*
X133800001Y-100999999D02*
X133800001Y-99341995D01*
X135700000Y-98175000D02*
X135700000Y-98400000D01*
X150372260Y-72598780D02*
X149072770Y-72598780D01*
X149072770Y-72598780D02*
X143700000Y-77971550D01*
X143050000Y-104850000D02*
X143050000Y-103650000D01*
X143050000Y-103650000D02*
X143030001Y-103630001D01*
X143030001Y-103630001D02*
X142150000Y-103630001D01*
X144405001Y-103630001D02*
X142150000Y-103630001D01*
X140000000Y-102800000D02*
X138750000Y-102800000D01*
X138750000Y-102800000D02*
X138100000Y-102150000D01*
X127850000Y-107100000D02*
X127850000Y-104800000D01*
X127850000Y-104800000D02*
X127750000Y-104700000D01*
X141600000Y-98625000D02*
X141600000Y-98550000D01*
X148150000Y-100650000D02*
X148150000Y-98900000D01*
X149100000Y-102850000D02*
X149100000Y-103800000D01*
X149100000Y-103800000D02*
X148150000Y-104750000D01*
X148150000Y-104750000D02*
X146200000Y-104750000D01*
X146200000Y-104750000D02*
X146100000Y-104650000D01*
X142150000Y-103630001D02*
X141505001Y-103630001D01*
X146100000Y-104650000D02*
X145425000Y-104650000D01*
X145425000Y-104650000D02*
X144405001Y-103630001D01*
X141505001Y-103630001D02*
X140675000Y-102800000D01*
X140675000Y-102800000D02*
X140000000Y-102800000D01*
X141600000Y-98550000D02*
X139750000Y-98550000D01*
X139750000Y-98550000D02*
X139700000Y-98500000D01*
X137500000Y-99450000D02*
X136750000Y-99450000D01*
X136750000Y-99450000D02*
X135700000Y-98400000D01*
X137724988Y-96075012D02*
X138000000Y-96075012D01*
X137700000Y-96100000D02*
X137724988Y-96075012D01*
X137700000Y-96900000D02*
X137700000Y-96100000D01*
X139567529Y-91900000D02*
X139800000Y-91667529D01*
X138200000Y-91900000D02*
X139567529Y-91900000D01*
X144000000Y-102650000D02*
X146000000Y-102650000D01*
X146000000Y-102650000D02*
X146100000Y-102750000D01*
D32*
X140000000Y-104700000D02*
X140000000Y-105600000D01*
X140000000Y-105600000D02*
X139250000Y-106350000D01*
X139250000Y-106350000D02*
X139250000Y-107950000D01*
X139250000Y-107950000D02*
X137650000Y-109550000D01*
D31*
X137650000Y-109550000D02*
X137650000Y-110550000D01*
D32*
X134500012Y-103650012D02*
X134050000Y-103200000D01*
X136450012Y-103650012D02*
X134500012Y-103650012D01*
X136775000Y-103975000D02*
X136450012Y-103650012D01*
X137825000Y-103975000D02*
X136775000Y-103975000D01*
X137825000Y-103975000D02*
X139275000Y-103975000D01*
X139275000Y-103975000D02*
X140000000Y-104700000D01*
X137650000Y-110700000D02*
X137650000Y-109700000D01*
X144000000Y-104850000D02*
X144000000Y-105680000D01*
X144000000Y-105680000D02*
X143655000Y-106025000D01*
X143655000Y-106025000D02*
X142445000Y-106025000D01*
X142445000Y-106025000D02*
X142100000Y-105680000D01*
X142100000Y-105680000D02*
X142100000Y-104850000D01*
X140000000Y-104700000D02*
X141950000Y-104700000D01*
X141950000Y-104700000D02*
X142100000Y-104850000D01*
D31*
X143199989Y-94261511D02*
X143199989Y-92345221D01*
X142844079Y-95444079D02*
X142844079Y-94617421D01*
X142850000Y-96550000D02*
X142850000Y-95450000D01*
X142850000Y-95450000D02*
X142844079Y-95444079D01*
X142844079Y-94617421D02*
X143199989Y-94261511D01*
X143199989Y-92345221D02*
X142799990Y-91945222D01*
X129835000Y-77425000D02*
X128050002Y-77425000D01*
X129900000Y-77360000D02*
X129835000Y-77425000D01*
X143500000Y-98550000D02*
X146050000Y-98550000D01*
X146050000Y-98550000D02*
X146100000Y-98600000D01*
X142850000Y-96550000D02*
X142850000Y-97900000D01*
X142850000Y-97900000D02*
X143500000Y-98550000D01*
D32*
X131475000Y-109250000D02*
X133275000Y-109250000D01*
X133275000Y-109250000D02*
X134400000Y-110375000D01*
X134400000Y-110375000D02*
X134400000Y-110550000D01*
X133750000Y-107050000D02*
X133750000Y-109900000D01*
X133750000Y-109900000D02*
X134400000Y-110550000D01*
X134400000Y-110700000D02*
X134400000Y-110375000D01*
X135750000Y-106900000D02*
X133900000Y-106900000D01*
X133900000Y-106900000D02*
X133750000Y-107050000D01*
X135750000Y-105000000D02*
X133900000Y-105000000D01*
X133900000Y-105000000D02*
X133750000Y-104850000D01*
X137650000Y-107250000D02*
X137650000Y-106225000D01*
X137650000Y-106225000D02*
X136425000Y-105000000D01*
X136425000Y-105000000D02*
X135750000Y-105000000D01*
X130850000Y-107200000D02*
X130850000Y-107799984D01*
X130950000Y-107100000D02*
X130850000Y-107200000D01*
X129750000Y-107100000D02*
X130950000Y-107100000D01*
X130950000Y-107100000D02*
X131800000Y-107100000D01*
X132800000Y-107050000D02*
X131850000Y-107050000D01*
X132844976Y-107094976D02*
X132800000Y-107050000D01*
X131800000Y-107100000D02*
X131850000Y-107050000D01*
D31*
X150100000Y-103850000D02*
X150050000Y-103900000D01*
X150850000Y-103850000D02*
X150100000Y-103850000D01*
X150050000Y-104750000D02*
X150050000Y-103900000D01*
X150050000Y-103900000D02*
X150050000Y-102850000D01*
X134951108Y-100300000D02*
X134652342Y-100001234D01*
X135700000Y-100300000D02*
X134951108Y-100300000D01*
X135700000Y-100300000D02*
X137400000Y-100300000D01*
X137400000Y-100300000D02*
X137500000Y-100400000D01*
X154415000Y-79500000D02*
X154415000Y-80575000D01*
X154415000Y-80575000D02*
X154300000Y-80690000D01*
X154300000Y-80690000D02*
X154300000Y-82460002D01*
X154300000Y-82460002D02*
X153860002Y-82900000D01*
X153860002Y-82900000D02*
X152675000Y-82900000D01*
X152675000Y-82900000D02*
X151073780Y-84501220D01*
X151073780Y-84501220D02*
X150372260Y-84501220D01*
X139650000Y-85283349D02*
X140444049Y-84489300D01*
X140444049Y-84489300D02*
X140444049Y-82657764D01*
X139650000Y-88050000D02*
X139650000Y-85283349D01*
X139826970Y-81475000D02*
X136625002Y-81475000D01*
X140444049Y-82092079D02*
X139826970Y-81475000D01*
X140444049Y-82657764D02*
X140444049Y-82092079D01*
X146526230Y-84501220D02*
X144575010Y-82550000D01*
X150372260Y-84501220D02*
X146526230Y-84501220D01*
X129550010Y-82050010D02*
X128000012Y-82050010D01*
X129900000Y-82400000D02*
X129550010Y-82050010D01*
X139345788Y-84739018D02*
X139345788Y-82719813D01*
X138200000Y-89500000D02*
X138200000Y-88925000D01*
X138200000Y-88925000D02*
X138900000Y-88225000D01*
X138900000Y-88225000D02*
X138900000Y-85184806D01*
X138900000Y-85184806D02*
X139345788Y-84739018D01*
X139125675Y-82499700D02*
X139345788Y-82719813D01*
X134471860Y-82499700D02*
X139125675Y-82499700D01*
X155700000Y-74115000D02*
X155700000Y-75925000D01*
X155685000Y-74100000D02*
X155700000Y-74115000D01*
X129725000Y-79725000D02*
X128000014Y-79725000D01*
X129900000Y-79900000D02*
X129725000Y-79725000D01*
X141950000Y-83831892D02*
X141950000Y-80450000D01*
X140450000Y-88050000D02*
X140450000Y-85331892D01*
X140450000Y-85331892D02*
X141950000Y-83831892D01*
X156975000Y-74120000D02*
X156975000Y-75975002D01*
X156955000Y-74100000D02*
X156975000Y-74120000D01*
X134471860Y-80500720D02*
X134521140Y-80550000D01*
X134521140Y-80550000D02*
X141850000Y-80550000D01*
X141850000Y-80550000D02*
X141950000Y-80450000D01*
X134471860Y-80500720D02*
X134121139Y-80149999D01*
X134121139Y-80149999D02*
X132845001Y-80149999D01*
X132845001Y-80149999D02*
X131510001Y-78814999D01*
X131510001Y-78814999D02*
X127600001Y-78814999D01*
X127600001Y-78814999D02*
X126515000Y-79900000D01*
X126515000Y-79900000D02*
X125900000Y-79900000D01*
X125850000Y-104600000D02*
X125850000Y-104750000D01*
X125850000Y-104750000D02*
X126900010Y-105800010D01*
X126900010Y-105800010D02*
X126900010Y-105803844D01*
X122625000Y-102325000D02*
X122625000Y-102225000D01*
X123200000Y-102900000D02*
X122625000Y-102325000D01*
X123950000Y-102900000D02*
X123200000Y-102900000D01*
X161950000Y-102800000D02*
X162500000Y-102250000D01*
X161050000Y-102800000D02*
X161950000Y-102800000D01*
X159150000Y-105250000D02*
X157529256Y-105250000D01*
X157529256Y-105250000D02*
X157504617Y-105225361D01*
X148700300Y-82499700D02*
X147700000Y-83500000D01*
X150372260Y-82499700D02*
X148700300Y-82499700D01*
X146596435Y-96550000D02*
X146650032Y-96603597D01*
X145250000Y-96550000D02*
X146596435Y-96550000D01*
X137705000Y-98500000D02*
X137500000Y-98500000D01*
X138850002Y-97354998D02*
X137705000Y-98500000D01*
X138850002Y-95667010D02*
X138850002Y-97354998D01*
X138282992Y-95100000D02*
X138850002Y-95667010D01*
X138200000Y-95100000D02*
X138282992Y-95100000D01*
X139697783Y-94697783D02*
X139697783Y-94769178D01*
X139300000Y-94300000D02*
X139697783Y-94697783D01*
X138200000Y-94300000D02*
X139300000Y-94300000D01*
X126314798Y-108164798D02*
X126460463Y-108164798D01*
X125850000Y-107700000D02*
X126314798Y-108164798D01*
X125850000Y-106800000D02*
X125850000Y-107700000D01*
X125850000Y-106800000D02*
X125650000Y-106800000D01*
X125650000Y-106800000D02*
X123950000Y-105100000D01*
X146700000Y-95100000D02*
X147225000Y-95100000D01*
X148150000Y-102645000D02*
X148150000Y-102850000D01*
X147800000Y-95675000D02*
X147800000Y-97250000D01*
X147099999Y-97950001D02*
X147099999Y-101594999D01*
X147225000Y-95100000D02*
X147800000Y-95675000D01*
X147800000Y-97250000D02*
X147099999Y-97950001D01*
X147099999Y-101594999D02*
X148150000Y-102645000D01*
X145599999Y-94299999D02*
X145436975Y-94299999D01*
X146700000Y-94300000D02*
X145599999Y-94299999D01*
X159150000Y-107450000D02*
X159150000Y-107225000D01*
X159150000Y-107225000D02*
X161050000Y-105325000D01*
X161050000Y-105325000D02*
X161050000Y-105000000D01*
X157600925Y-107450000D02*
X156350937Y-106200012D01*
X159150000Y-107450000D02*
X157600925Y-107450000D01*
X134499800Y-72598780D02*
X131598780Y-72598780D01*
X131598780Y-72598780D02*
X131550000Y-72550000D01*
X131850000Y-104850000D02*
X131850000Y-103050000D01*
X131850000Y-103050000D02*
X131900000Y-103000000D01*
X131850000Y-104850000D02*
X130100000Y-104850000D01*
X130100000Y-104850000D02*
X129950000Y-104700000D01*
X143650000Y-96550000D02*
X143650000Y-95137310D01*
X143650000Y-95137310D02*
X143694080Y-95093230D01*
X144550012Y-94229125D02*
X144544090Y-94223203D01*
X144550012Y-95501232D02*
X144550012Y-94229125D01*
X144450000Y-95601244D02*
X144550012Y-95501232D01*
X144450000Y-96550000D02*
X144450000Y-95601244D01*
X144544090Y-94223203D02*
X144544090Y-93657518D01*
X142050000Y-96550000D02*
X142050000Y-94153496D01*
X142050000Y-94153496D02*
X142100010Y-94103486D01*
X141805637Y-92998142D02*
X141250000Y-93553779D01*
X141250000Y-93553779D02*
X141250000Y-96550000D01*
X141918510Y-91683172D02*
X141918510Y-91228448D01*
X140550018Y-95349982D02*
X140550018Y-93051664D01*
X140450000Y-95450000D02*
X140550018Y-95349982D01*
X140450000Y-96550000D02*
X140450000Y-95450000D01*
X140550018Y-93051664D02*
X141918510Y-91683172D01*
X158950000Y-81350000D02*
X158950000Y-83028000D01*
X158950000Y-83028000D02*
X158666000Y-83312000D01*
X159004000Y-81404000D02*
X158950000Y-81350000D01*
X158950000Y-81350000D02*
X158250000Y-81350000D01*
X158250000Y-81350000D02*
X157566229Y-82033771D01*
X157566229Y-82033771D02*
X157566229Y-82183121D01*
X136123780Y-84501220D02*
X136200000Y-84425000D01*
X134471860Y-84501220D02*
X136123780Y-84501220D01*
X141250000Y-88050000D02*
X141250000Y-85900002D01*
X141250000Y-85900002D02*
X141500002Y-85650000D01*
X134471860Y-84501220D02*
X133601220Y-84501220D01*
X133601220Y-84501220D02*
X132500000Y-83400000D01*
X142850000Y-84399990D02*
X142874990Y-84375000D01*
X142850000Y-88050000D02*
X142850000Y-84399990D01*
X153125000Y-78000000D02*
X153125000Y-79795000D01*
X153125000Y-79795000D02*
X153120000Y-79800000D01*
X153200000Y-81700000D02*
X153200000Y-79880000D01*
X153200000Y-79880000D02*
X153120000Y-79800000D01*
M02*
