M48
;DRILL file {KiCad no-vcs-found-f2763e9~58~ubuntu16.04.1} date Thu Mar 23 18:14:39 2017
;FORMAT={-:-/ absolute / metric / decimal}
FMAT,2
METRIC,TZ
T1C0.400
T2C0.650
%
G90
G05
M71
T1
X103.8Y-90.
X106.8Y-80.4
X108.2Y-76.6
X108.2Y-75.2
X108.4Y-78.
X109.194Y-88.2
X109.425Y-90.1
X109.5Y-93.3
X109.6Y-95.8
X110.275Y-92.456
X110.49Y-102.87
X110.744Y-73.152
X110.975Y-80.518
X111.1Y-95.2
X112.212Y-76.176
X112.575Y-77.231
X112.575Y-78.914
X112.575Y-80.01
X112.7Y-94.
X113.792Y-76.949
X114.3Y-96.52
X114.5Y-91.4
X116.797Y-70.122
X118.618Y-92.964
X120.Y-77.
X121.4Y-95.8
X121.6Y-102.2
X122.05Y-76.799
X122.078Y-75.731
X122.134Y-73.634
X122.193Y-74.683
X123.189Y-71.486
X127.2Y-99.5
X127.2Y-100.6
X127.325Y-78.2
X129.875Y-84.582
X130.325Y-93.5
X132.4Y-79.6
X133.6Y-90.2
T2
X128.304Y-76.304
X129.202Y-77.202
X130.1Y-78.1
T0
M30
