G04 #@! TF.GenerationSoftware,KiCad,Pcbnew,no-vcs-found-6d52987~59~ubuntu16.04.1*
G04 #@! TF.CreationDate,2017-07-26T15:31:48+03:00*
G04 #@! TF.ProjectId,livolo_2_channels_1way_eu_switch,6C69766F6C6F5F325F6368616E6E656C,rev?*
G04 #@! TF.SameCoordinates,Original*
G04 #@! TF.FileFunction,Paste,Top*
G04 #@! TF.FilePolarity,Positive*
%FSLAX46Y46*%
G04 Gerber Fmt 4.6, Leading zero omitted, Abs format (unit mm)*
G04 Created by KiCad (PCBNEW no-vcs-found-6d52987~59~ubuntu16.04.1) date Wed Jul 26 15:31:48 2017*
%MOMM*%
%LPD*%
G01*
G04 APERTURE LIST*
%ADD10R,2.000000X0.812800*%
%ADD11R,0.500000X0.900000*%
%ADD12R,2.000000X1.000000*%
%ADD13R,4.000000X2.000000*%
%ADD14R,1.200000X2.000000*%
%ADD15R,1.200000X1.400000*%
%ADD16R,0.900000X1.200000*%
%ADD17R,0.650000X1.060000*%
%ADD18R,1.200000X0.750000*%
%ADD19R,0.750000X1.200000*%
%ADD20R,1.200000X0.900000*%
%ADD21R,0.900000X0.500000*%
%ADD22R,1.260000X1.750000*%
%ADD23R,1.000000X1.600000*%
%ADD24R,0.400000X1.200000*%
G04 APERTURE END LIST*
D10*
X134500000Y-84710000D03*
X149946000Y-84710000D03*
X134500000Y-83440000D03*
X149946000Y-83440000D03*
X134500000Y-82170000D03*
X149946000Y-82170000D03*
X134500000Y-80900000D03*
X149946000Y-80900000D03*
X134500000Y-79630000D03*
X149946000Y-79630000D03*
X134500000Y-78360000D03*
X149946000Y-78360000D03*
X134500000Y-77090000D03*
X149946000Y-77090000D03*
X149946000Y-75820000D03*
D11*
X146350000Y-100800000D03*
X147850000Y-100800000D03*
X146350000Y-99200000D03*
X147850000Y-99200000D03*
X136100000Y-100700000D03*
X137600000Y-100700000D03*
X136100000Y-99100000D03*
X137600000Y-99100000D03*
D12*
X159400000Y-81600000D03*
X153150000Y-81600000D03*
X159400000Y-79600000D03*
X153150000Y-79600000D03*
D13*
X157700000Y-105850000D03*
X157700000Y-109100000D03*
D14*
X154200000Y-107800000D03*
D15*
X154200000Y-110800000D03*
D16*
X145800000Y-107700000D03*
X145800000Y-109900000D03*
D17*
X150000000Y-109900000D03*
X150950000Y-109900000D03*
X149050000Y-109900000D03*
X149050000Y-107700000D03*
X150000000Y-107700000D03*
X150950000Y-107700000D03*
D18*
X147850000Y-105300000D03*
X149750000Y-105300000D03*
D19*
X152600000Y-109750000D03*
X152600000Y-107850000D03*
D16*
X154750000Y-105600000D03*
X151450000Y-105600000D03*
X147400000Y-109900000D03*
X147400000Y-107700000D03*
D20*
X155300000Y-103400000D03*
X153100000Y-103400000D03*
X157200000Y-103400000D03*
X159400000Y-103400000D03*
X129600000Y-103400000D03*
X131800000Y-103400000D03*
X127700000Y-103400000D03*
X125500000Y-103400000D03*
D21*
X146100000Y-104150000D03*
X146100000Y-105650000D03*
D22*
X131600000Y-81875000D03*
X131600000Y-79325000D03*
D19*
X129500000Y-79600000D03*
X129500000Y-81500000D03*
D23*
X152000000Y-111700000D03*
X149000000Y-111700000D03*
D18*
X136150000Y-105000000D03*
X138050000Y-105000000D03*
X145250000Y-96500000D03*
X143350000Y-96500000D03*
D16*
X139600000Y-93600000D03*
X139600000Y-95800000D03*
D20*
X145900000Y-94900000D03*
X143700000Y-94900000D03*
D16*
X141100000Y-95800000D03*
X141100000Y-93600000D03*
D24*
X139650000Y-98150000D03*
X140300000Y-98150000D03*
X140950000Y-98150000D03*
X141600000Y-98150000D03*
X142250000Y-98150000D03*
X142900000Y-98150000D03*
X143550000Y-98150000D03*
X143550000Y-105050000D03*
X142900000Y-105050000D03*
X142250000Y-105050000D03*
X141600000Y-105050000D03*
X140950000Y-105050000D03*
X140300000Y-105050000D03*
X139650000Y-105050000D03*
M02*
