G04 #@! TF.GenerationSoftware,KiCad,Pcbnew,no-vcs-found-6733101~58~ubuntu16.04.1*
G04 #@! TF.CreationDate,2017-06-20T13:53:55+03:00*
G04 #@! TF.ProjectId,livolo_2_channels_1way_eu_switch,6C69766F6C6F5F325F6368616E6E656C,rev?*
G04 #@! TF.SameCoordinates,Original
G04 #@! TF.FileFunction,Legend,Bot*
G04 #@! TF.FilePolarity,Positive*
%FSLAX46Y46*%
G04 Gerber Fmt 4.6, Leading zero omitted, Abs format (unit mm)*
G04 Created by KiCad (PCBNEW no-vcs-found-6733101~58~ubuntu16.04.1) date Tue Jun 20 13:53:55 2017*
%MOMM*%
%LPD*%
G01*
G04 APERTURE LIST*
%ADD10C,0.100000*%
%ADD11C,0.120000*%
%ADD12C,0.200000*%
%ADD13C,7.950000*%
%ADD14C,0.010000*%
%ADD15C,1.500000*%
%ADD16R,0.600000X0.800000*%
%ADD17O,1.350000X1.350000*%
%ADD18R,1.350000X1.350000*%
G04 APERTURE END LIST*
D10*
D11*
X144242857Y-111135714D02*
X143861904Y-111135714D01*
X144052380Y-111326190D02*
X144052380Y-110945238D01*
X143671428Y-110826190D02*
X143361904Y-110826190D01*
X143528571Y-111016666D01*
X143457142Y-111016666D01*
X143409523Y-111040476D01*
X143385714Y-111064285D01*
X143361904Y-111111904D01*
X143361904Y-111230952D01*
X143385714Y-111278571D01*
X143409523Y-111302380D01*
X143457142Y-111326190D01*
X143600000Y-111326190D01*
X143647619Y-111302380D01*
X143671428Y-111278571D01*
X143219047Y-110826190D02*
X143052380Y-111326190D01*
X142885714Y-110826190D01*
X135919585Y-104300295D02*
X135869078Y-104014086D01*
X136121616Y-104098265D02*
X135768062Y-103744712D01*
X135633375Y-103879399D01*
X135616539Y-103929906D01*
X135616539Y-103963578D01*
X135633375Y-104014086D01*
X135683883Y-104064593D01*
X135734391Y-104081429D01*
X135768062Y-104081429D01*
X135818570Y-104064593D01*
X135953257Y-103929906D01*
X135582868Y-104266624D02*
X135465017Y-104384475D01*
X135599704Y-104620177D02*
X135768062Y-104451818D01*
X135414509Y-104098265D01*
X135246150Y-104266624D01*
X135279822Y-104940059D02*
X135448181Y-104771700D01*
X135094627Y-104418147D01*
X134976776Y-105243104D02*
X135178807Y-105041074D01*
X135077791Y-105142089D02*
X134724238Y-104788536D01*
X134808417Y-104805372D01*
X134875761Y-104805372D01*
X134926269Y-104788536D01*
X134943104Y-105344120D02*
X134673730Y-105613494D01*
X134555879Y-105630330D02*
X134522208Y-105697673D01*
X134438028Y-105781852D01*
X134387521Y-105798688D01*
X134353849Y-105798688D01*
X134303341Y-105781852D01*
X134269669Y-105748181D01*
X134252834Y-105697673D01*
X134252834Y-105664001D01*
X134269669Y-105613494D01*
X134320177Y-105529314D01*
X134337013Y-105478807D01*
X134337013Y-105445135D01*
X134320177Y-105394627D01*
X134286505Y-105360956D01*
X134235998Y-105344120D01*
X134202326Y-105344120D01*
X134151818Y-105360956D01*
X134067639Y-105445135D01*
X134033967Y-105512478D01*
X134033967Y-105815524D02*
X133916116Y-105933375D01*
X134050803Y-106169078D02*
X134219162Y-106000719D01*
X133865608Y-105647165D01*
X133697250Y-105815524D01*
X133596234Y-105916539D02*
X133394204Y-106118570D01*
X133848773Y-106371108D02*
X133495219Y-106017555D01*
X138336421Y-104283460D02*
X138285913Y-103997250D01*
X138538452Y-104081429D02*
X138184898Y-103727876D01*
X138050211Y-103862563D01*
X138033375Y-103913070D01*
X138033375Y-103946742D01*
X138050211Y-103997250D01*
X138100719Y-104047757D01*
X138151226Y-104064593D01*
X138184898Y-104064593D01*
X138235406Y-104047757D01*
X138370093Y-103913070D01*
X137999704Y-104249788D02*
X137881852Y-104367639D01*
X138016539Y-104603341D02*
X138184898Y-104434982D01*
X137831345Y-104081429D01*
X137662986Y-104249788D01*
X137696658Y-104923223D02*
X137865017Y-104754864D01*
X137511463Y-104401311D01*
X137393612Y-105226269D02*
X137595643Y-105024238D01*
X137494627Y-105125253D02*
X137141074Y-104771700D01*
X137225253Y-104788536D01*
X137292597Y-104788536D01*
X137343104Y-104771700D01*
X137359940Y-105327284D02*
X137090566Y-105596658D01*
X136770685Y-105849196D02*
X136720177Y-105562986D01*
X136972715Y-105647165D02*
X136619162Y-105293612D01*
X136484475Y-105428299D01*
X136467639Y-105478807D01*
X136467639Y-105512478D01*
X136484475Y-105562986D01*
X136534982Y-105613494D01*
X136585490Y-105630330D01*
X136619162Y-105630330D01*
X136669669Y-105613494D01*
X136804356Y-105478807D01*
X136619162Y-105967047D02*
X136585490Y-106034391D01*
X136501311Y-106118570D01*
X136450803Y-106135406D01*
X136417131Y-106135406D01*
X136366624Y-106118570D01*
X136332952Y-106084898D01*
X136316116Y-106034391D01*
X136316116Y-106000719D01*
X136332952Y-105950211D01*
X136383460Y-105866032D01*
X136400295Y-105815524D01*
X136400295Y-105781852D01*
X136383460Y-105731345D01*
X136349788Y-105697673D01*
X136299280Y-105680837D01*
X136265608Y-105680837D01*
X136215101Y-105697673D01*
X136130921Y-105781852D01*
X136097250Y-105849196D01*
X135979399Y-105933375D02*
X135777368Y-106135406D01*
X136231937Y-106387944D02*
X135878383Y-106034391D01*
X135883460Y-110563578D02*
X135597250Y-110614086D01*
X135681429Y-110361547D02*
X135327876Y-110715101D01*
X135462563Y-110849788D01*
X135513070Y-110866624D01*
X135546742Y-110866624D01*
X135597250Y-110849788D01*
X135647757Y-110799280D01*
X135664593Y-110748773D01*
X135664593Y-110715101D01*
X135647757Y-110664593D01*
X135513070Y-110529906D01*
X135849788Y-110900295D02*
X135967639Y-111018147D01*
X136203341Y-110883460D02*
X136034982Y-110715101D01*
X135681429Y-111068654D01*
X135849788Y-111237013D01*
X136523223Y-111203341D02*
X136354864Y-111034982D01*
X136001311Y-111388536D01*
X136304356Y-111624238D02*
X136304356Y-111657910D01*
X136321192Y-111708417D01*
X136405372Y-111792597D01*
X136455879Y-111809433D01*
X136489551Y-111809433D01*
X136540059Y-111792597D01*
X136573730Y-111758925D01*
X136607402Y-111691582D01*
X136607402Y-111287521D01*
X136826269Y-111506387D01*
X136927284Y-111540059D02*
X137196658Y-111809433D01*
X137449196Y-112129314D02*
X137162986Y-112179822D01*
X137247165Y-111927284D02*
X136893612Y-112280837D01*
X137028299Y-112415524D01*
X137078807Y-112432360D01*
X137112478Y-112432360D01*
X137162986Y-112415524D01*
X137213494Y-112365017D01*
X137230330Y-112314509D01*
X137230330Y-112280837D01*
X137213494Y-112230330D01*
X137078807Y-112095643D01*
X137567047Y-112280837D02*
X137634391Y-112314509D01*
X137718570Y-112398688D01*
X137735406Y-112449196D01*
X137735406Y-112482868D01*
X137718570Y-112533375D01*
X137684898Y-112567047D01*
X137634391Y-112583883D01*
X137600719Y-112583883D01*
X137550211Y-112567047D01*
X137466032Y-112516539D01*
X137415524Y-112499704D01*
X137381852Y-112499704D01*
X137331345Y-112516539D01*
X137297673Y-112550211D01*
X137280837Y-112600719D01*
X137280837Y-112634391D01*
X137297673Y-112684898D01*
X137381852Y-112769078D01*
X137449196Y-112802749D01*
X137533375Y-112920600D02*
X137735406Y-113122631D01*
X137987944Y-112668062D02*
X137634391Y-113021616D01*
X133600295Y-110680414D02*
X133314086Y-110730921D01*
X133398265Y-110478383D02*
X133044712Y-110831937D01*
X133179399Y-110966624D01*
X133229906Y-110983460D01*
X133263578Y-110983460D01*
X133314086Y-110966624D01*
X133364593Y-110916116D01*
X133381429Y-110865608D01*
X133381429Y-110831937D01*
X133364593Y-110781429D01*
X133229906Y-110646742D01*
X133566624Y-111017131D02*
X133684475Y-111134982D01*
X133920177Y-111000295D02*
X133751818Y-110831937D01*
X133398265Y-111185490D01*
X133566624Y-111353849D01*
X134240059Y-111320177D02*
X134071700Y-111151818D01*
X133718147Y-111505372D01*
X134021192Y-111741074D02*
X134021192Y-111774746D01*
X134038028Y-111825253D01*
X134122208Y-111909433D01*
X134172715Y-111926269D01*
X134206387Y-111926269D01*
X134256895Y-111909433D01*
X134290566Y-111875761D01*
X134324238Y-111808417D01*
X134324238Y-111404356D01*
X134543104Y-111623223D01*
X134644120Y-111656895D02*
X134913494Y-111926269D01*
X134930330Y-112044120D02*
X134997673Y-112077791D01*
X135081852Y-112161971D01*
X135098688Y-112212478D01*
X135098688Y-112246150D01*
X135081852Y-112296658D01*
X135048181Y-112330330D01*
X134997673Y-112347165D01*
X134964001Y-112347165D01*
X134913494Y-112330330D01*
X134829314Y-112279822D01*
X134778807Y-112262986D01*
X134745135Y-112262986D01*
X134694627Y-112279822D01*
X134660956Y-112313494D01*
X134644120Y-112364001D01*
X134644120Y-112397673D01*
X134660956Y-112448181D01*
X134745135Y-112532360D01*
X134812478Y-112566032D01*
X135115524Y-112566032D02*
X135233375Y-112683883D01*
X135469078Y-112549196D02*
X135300719Y-112380837D01*
X134947165Y-112734391D01*
X135115524Y-112902749D01*
X135216539Y-113003765D02*
X135418570Y-113205795D01*
X135671108Y-112751226D02*
X135317555Y-113104780D01*
X142030952Y-110850000D02*
X142078571Y-110826190D01*
X142150000Y-110826190D01*
X142221428Y-110850000D01*
X142269047Y-110897619D01*
X142292857Y-110945238D01*
X142316666Y-111040476D01*
X142316666Y-111111904D01*
X142292857Y-111207142D01*
X142269047Y-111254761D01*
X142221428Y-111302380D01*
X142150000Y-111326190D01*
X142102380Y-111326190D01*
X142030952Y-111302380D01*
X142007142Y-111278571D01*
X142007142Y-111111904D01*
X142102380Y-111111904D01*
X141792857Y-111326190D02*
X141792857Y-110826190D01*
X141507142Y-111326190D01*
X141507142Y-110826190D01*
X141269047Y-111326190D02*
X141269047Y-110826190D01*
X141150000Y-110826190D01*
X141078571Y-110850000D01*
X141030952Y-110897619D01*
X141007142Y-110945238D01*
X140983333Y-111040476D01*
X140983333Y-111111904D01*
X141007142Y-111207142D01*
X141030952Y-111254761D01*
X141078571Y-111302380D01*
X141150000Y-111326190D01*
X141269047Y-111326190D01*
X132430952Y-105885714D02*
X132050000Y-105885714D01*
X132240476Y-106076190D02*
X132240476Y-105695238D01*
X131550000Y-106076190D02*
X131835714Y-106076190D01*
X131692857Y-106076190D02*
X131692857Y-105576190D01*
X131740476Y-105647619D01*
X131788095Y-105695238D01*
X131835714Y-105719047D01*
X131359523Y-105623809D02*
X131335714Y-105600000D01*
X131288095Y-105576190D01*
X131169047Y-105576190D01*
X131121428Y-105600000D01*
X131097619Y-105623809D01*
X131073809Y-105671428D01*
X131073809Y-105719047D01*
X131097619Y-105790476D01*
X131383333Y-106076190D01*
X131073809Y-106076190D01*
X130930952Y-105576190D02*
X130764285Y-106076190D01*
X130597619Y-105576190D01*
D12*
X157114285Y-73142857D02*
X157114285Y-71942857D01*
X156714285Y-72800000D01*
X156314285Y-71942857D01*
X156314285Y-73142857D01*
X155857142Y-72342857D02*
X155571428Y-73142857D01*
X155285714Y-72342857D02*
X155571428Y-73142857D01*
X155685714Y-73428571D01*
X155742857Y-73485714D01*
X155857142Y-73542857D01*
X154885714Y-73085714D02*
X154771428Y-73142857D01*
X154542857Y-73142857D01*
X154428571Y-73085714D01*
X154371428Y-72971428D01*
X154371428Y-72914285D01*
X154428571Y-72800000D01*
X154542857Y-72742857D01*
X154714285Y-72742857D01*
X154828571Y-72685714D01*
X154885714Y-72571428D01*
X154885714Y-72514285D01*
X154828571Y-72400000D01*
X154714285Y-72342857D01*
X154542857Y-72342857D01*
X154428571Y-72400000D01*
X153400000Y-73085714D02*
X153514285Y-73142857D01*
X153742857Y-73142857D01*
X153857142Y-73085714D01*
X153914285Y-72971428D01*
X153914285Y-72514285D01*
X153857142Y-72400000D01*
X153742857Y-72342857D01*
X153514285Y-72342857D01*
X153400000Y-72400000D01*
X153342857Y-72514285D01*
X153342857Y-72628571D01*
X153914285Y-72742857D01*
X152828571Y-72342857D02*
X152828571Y-73142857D01*
X152828571Y-72457142D02*
X152771428Y-72400000D01*
X152657142Y-72342857D01*
X152485714Y-72342857D01*
X152371428Y-72400000D01*
X152314285Y-72514285D01*
X152314285Y-73142857D01*
X151800000Y-73085714D02*
X151685714Y-73142857D01*
X151457142Y-73142857D01*
X151342857Y-73085714D01*
X151285714Y-72971428D01*
X151285714Y-72914285D01*
X151342857Y-72800000D01*
X151457142Y-72742857D01*
X151628571Y-72742857D01*
X151742857Y-72685714D01*
X151800000Y-72571428D01*
X151800000Y-72514285D01*
X151742857Y-72400000D01*
X151628571Y-72342857D01*
X151457142Y-72342857D01*
X151342857Y-72400000D01*
X150600000Y-73142857D02*
X150714285Y-73085714D01*
X150771428Y-73028571D01*
X150828571Y-72914285D01*
X150828571Y-72571428D01*
X150771428Y-72457142D01*
X150714285Y-72400000D01*
X150600000Y-72342857D01*
X150428571Y-72342857D01*
X150314285Y-72400000D01*
X150257142Y-72457142D01*
X150200000Y-72571428D01*
X150200000Y-72914285D01*
X150257142Y-73028571D01*
X150314285Y-73085714D01*
X150428571Y-73142857D01*
X150600000Y-73142857D01*
X149685714Y-73142857D02*
X149685714Y-72342857D01*
X149685714Y-72571428D02*
X149628571Y-72457142D01*
X149571428Y-72400000D01*
X149457142Y-72342857D01*
X149342857Y-72342857D01*
X149000000Y-73085714D02*
X148885714Y-73142857D01*
X148657142Y-73142857D01*
X148542857Y-73085714D01*
X148485714Y-72971428D01*
X148485714Y-72914285D01*
X148542857Y-72800000D01*
X148657142Y-72742857D01*
X148828571Y-72742857D01*
X148942857Y-72685714D01*
X149000000Y-72571428D01*
X149000000Y-72514285D01*
X148942857Y-72400000D01*
X148828571Y-72342857D01*
X148657142Y-72342857D01*
X148542857Y-72400000D01*
X147057142Y-73142857D02*
X147057142Y-71942857D01*
X146371428Y-73142857D01*
X146371428Y-71942857D01*
X145114285Y-73142857D02*
X145514285Y-72571428D01*
X145800000Y-73142857D02*
X145800000Y-71942857D01*
X145342857Y-71942857D01*
X145228571Y-72000000D01*
X145171428Y-72057142D01*
X145114285Y-72171428D01*
X145114285Y-72342857D01*
X145171428Y-72457142D01*
X145228571Y-72514285D01*
X145342857Y-72571428D01*
X145800000Y-72571428D01*
X144200000Y-72514285D02*
X144600000Y-72514285D01*
X144600000Y-73142857D02*
X144600000Y-71942857D01*
X144028571Y-71942857D01*
X143000000Y-71942857D02*
X143571428Y-71942857D01*
X143628571Y-72514285D01*
X143571428Y-72457142D01*
X143457142Y-72400000D01*
X143171428Y-72400000D01*
X143057142Y-72457142D01*
X143000000Y-72514285D01*
X142942857Y-72628571D01*
X142942857Y-72914285D01*
X143000000Y-73028571D01*
X143057142Y-73085714D01*
X143171428Y-73142857D01*
X143457142Y-73142857D01*
X143571428Y-73085714D01*
X143628571Y-73028571D01*
X141800000Y-73142857D02*
X142485714Y-73142857D01*
X142142857Y-73142857D02*
X142142857Y-71942857D01*
X142257142Y-72114285D01*
X142371428Y-72228571D01*
X142485714Y-72285714D01*
X141114285Y-72457142D02*
X141228571Y-72400000D01*
X141285714Y-72342857D01*
X141342857Y-72228571D01*
X141342857Y-72171428D01*
X141285714Y-72057142D01*
X141228571Y-72000000D01*
X141114285Y-71942857D01*
X140885714Y-71942857D01*
X140771428Y-72000000D01*
X140714285Y-72057142D01*
X140657142Y-72171428D01*
X140657142Y-72228571D01*
X140714285Y-72342857D01*
X140771428Y-72400000D01*
X140885714Y-72457142D01*
X141114285Y-72457142D01*
X141228571Y-72514285D01*
X141285714Y-72571428D01*
X141342857Y-72685714D01*
X141342857Y-72914285D01*
X141285714Y-73028571D01*
X141228571Y-73085714D01*
X141114285Y-73142857D01*
X140885714Y-73142857D01*
X140771428Y-73085714D01*
X140714285Y-73028571D01*
X140657142Y-72914285D01*
X140657142Y-72685714D01*
X140714285Y-72571428D01*
X140771428Y-72514285D01*
X140885714Y-72457142D01*
X140200000Y-72057142D02*
X140142857Y-72000000D01*
X140028571Y-71942857D01*
X139742857Y-71942857D01*
X139628571Y-72000000D01*
X139571428Y-72057142D01*
X139514285Y-72171428D01*
X139514285Y-72285714D01*
X139571428Y-72457142D01*
X140257142Y-73142857D01*
X139514285Y-73142857D01*
X139057142Y-72057142D02*
X139000000Y-72000000D01*
X138885714Y-71942857D01*
X138600000Y-71942857D01*
X138485714Y-72000000D01*
X138428571Y-72057142D01*
X138371428Y-72171428D01*
X138371428Y-72285714D01*
X138428571Y-72457142D01*
X139114285Y-73142857D01*
X138371428Y-73142857D01*
X136371428Y-73142857D02*
X136942857Y-73142857D01*
X136942857Y-71942857D01*
X135971428Y-73142857D02*
X135971428Y-72342857D01*
X135971428Y-71942857D02*
X136028571Y-72000000D01*
X135971428Y-72057142D01*
X135914285Y-72000000D01*
X135971428Y-71942857D01*
X135971428Y-72057142D01*
X135514285Y-72342857D02*
X135228571Y-73142857D01*
X134942857Y-72342857D01*
X134314285Y-73142857D02*
X134428571Y-73085714D01*
X134485714Y-73028571D01*
X134542857Y-72914285D01*
X134542857Y-72571428D01*
X134485714Y-72457142D01*
X134428571Y-72400000D01*
X134314285Y-72342857D01*
X134142857Y-72342857D01*
X134028571Y-72400000D01*
X133971428Y-72457142D01*
X133914285Y-72571428D01*
X133914285Y-72914285D01*
X133971428Y-73028571D01*
X134028571Y-73085714D01*
X134142857Y-73142857D01*
X134314285Y-73142857D01*
X133228571Y-73142857D02*
X133342857Y-73085714D01*
X133400000Y-72971428D01*
X133400000Y-71942857D01*
X132600000Y-73142857D02*
X132714285Y-73085714D01*
X132771428Y-73028571D01*
X132828571Y-72914285D01*
X132828571Y-72571428D01*
X132771428Y-72457142D01*
X132714285Y-72400000D01*
X132600000Y-72342857D01*
X132428571Y-72342857D01*
X132314285Y-72400000D01*
X132257142Y-72457142D01*
X132200000Y-72571428D01*
X132200000Y-72914285D01*
X132257142Y-73028571D01*
X132314285Y-73085714D01*
X132428571Y-73142857D01*
X132600000Y-73142857D01*
X130771428Y-73142857D02*
X130771428Y-71942857D01*
X130085714Y-73142857D01*
X130085714Y-71942857D01*
X129342857Y-73142857D02*
X129457142Y-73085714D01*
X129514285Y-73028571D01*
X129571428Y-72914285D01*
X129571428Y-72571428D01*
X129514285Y-72457142D01*
X129457142Y-72400000D01*
X129342857Y-72342857D01*
X129171428Y-72342857D01*
X129057142Y-72400000D01*
X129000000Y-72457142D01*
X128942857Y-72571428D01*
X128942857Y-72914285D01*
X129000000Y-73028571D01*
X129057142Y-73085714D01*
X129171428Y-73142857D01*
X129342857Y-73142857D01*
X127914285Y-73142857D02*
X127914285Y-71942857D01*
X127914285Y-73085714D02*
X128028571Y-73142857D01*
X128257142Y-73142857D01*
X128371428Y-73085714D01*
X128428571Y-73028571D01*
X128485714Y-72914285D01*
X128485714Y-72571428D01*
X128428571Y-72457142D01*
X128371428Y-72400000D01*
X128257142Y-72342857D01*
X128028571Y-72342857D01*
X127914285Y-72400000D01*
X126885714Y-73085714D02*
X127000000Y-73142857D01*
X127228571Y-73142857D01*
X127342857Y-73085714D01*
X127400000Y-72971428D01*
X127400000Y-72514285D01*
X127342857Y-72400000D01*
X127228571Y-72342857D01*
X127000000Y-72342857D01*
X126885714Y-72400000D01*
X126828571Y-72514285D01*
X126828571Y-72628571D01*
X127400000Y-72742857D01*
D10*
X151298140Y-103032020D02*
X161166040Y-103032020D01*
X151270200Y-103032020D02*
X151270200Y-97999511D01*
X161170160Y-103032020D02*
X161170160Y-97999511D01*
X123748140Y-103082020D02*
X133616040Y-103082020D01*
X123720200Y-103082020D02*
X123720200Y-98199959D01*
X163892148Y-92134512D02*
G75*
G03X163892148Y-92134512I-7647872J0D01*
G01*
X133620160Y-103082020D02*
X133620160Y-98199959D01*
X136451733Y-92169926D02*
G75*
G03X136451733Y-92169926I-7778209J0D01*
G01*
D13*
X160040119Y-92150000D02*
G75*
G03X160040119Y-92150000I-3790119J0D01*
G01*
X132440119Y-92150000D02*
G75*
G03X132440119Y-92150000I-3790119J0D01*
G01*
D14*
G36*
X144375256Y-79819918D02*
X144319799Y-79847568D01*
X144270852Y-79898480D01*
X144257371Y-79917338D01*
X144242686Y-79942015D01*
X144233158Y-79968816D01*
X144227707Y-80004587D01*
X144225253Y-80056169D01*
X144224714Y-80124267D01*
X144227148Y-80217588D01*
X144235606Y-80287657D01*
X144251826Y-80339931D01*
X144277546Y-80379869D01*
X144314503Y-80412929D01*
X144317218Y-80414886D01*
X144353640Y-80434908D01*
X144397498Y-80444815D01*
X144453276Y-80447257D01*
X144543952Y-80447257D01*
X144543990Y-80535283D01*
X144544834Y-80584308D01*
X144549976Y-80613065D01*
X144563413Y-80630311D01*
X144589142Y-80644808D01*
X144595321Y-80647769D01*
X144624236Y-80661648D01*
X144646624Y-80670414D01*
X144663271Y-80671171D01*
X144674964Y-80661023D01*
X144682490Y-80637073D01*
X144686634Y-80596426D01*
X144688185Y-80536186D01*
X144687929Y-80453455D01*
X144686651Y-80345339D01*
X144686252Y-80313000D01*
X144684815Y-80201524D01*
X144683528Y-80128603D01*
X144544029Y-80128603D01*
X144543245Y-80190499D01*
X144539760Y-80230997D01*
X144531876Y-80257708D01*
X144517895Y-80278244D01*
X144508403Y-80288260D01*
X144469596Y-80317567D01*
X144435237Y-80319952D01*
X144399784Y-80295750D01*
X144398886Y-80294857D01*
X144384461Y-80276153D01*
X144375687Y-80250732D01*
X144371261Y-80211584D01*
X144369882Y-80151697D01*
X144369857Y-80138430D01*
X144373188Y-80055901D01*
X144384031Y-79998691D01*
X144403660Y-79963766D01*
X144433350Y-79948094D01*
X144450509Y-79946514D01*
X144491234Y-79953926D01*
X144519168Y-79978330D01*
X144535983Y-80022980D01*
X144543350Y-80091130D01*
X144544029Y-80128603D01*
X144683528Y-80128603D01*
X144683292Y-80115245D01*
X144681323Y-80050333D01*
X144678550Y-80002958D01*
X144674612Y-79969290D01*
X144669151Y-79945498D01*
X144661808Y-79927753D01*
X144652223Y-79912224D01*
X144648113Y-79906381D01*
X144593595Y-79851185D01*
X144524664Y-79819890D01*
X144444928Y-79811165D01*
X144375256Y-79819918D01*
X144375256Y-79819918D01*
G37*
X144375256Y-79819918D02*
X144319799Y-79847568D01*
X144270852Y-79898480D01*
X144257371Y-79917338D01*
X144242686Y-79942015D01*
X144233158Y-79968816D01*
X144227707Y-80004587D01*
X144225253Y-80056169D01*
X144224714Y-80124267D01*
X144227148Y-80217588D01*
X144235606Y-80287657D01*
X144251826Y-80339931D01*
X144277546Y-80379869D01*
X144314503Y-80412929D01*
X144317218Y-80414886D01*
X144353640Y-80434908D01*
X144397498Y-80444815D01*
X144453276Y-80447257D01*
X144543952Y-80447257D01*
X144543990Y-80535283D01*
X144544834Y-80584308D01*
X144549976Y-80613065D01*
X144563413Y-80630311D01*
X144589142Y-80644808D01*
X144595321Y-80647769D01*
X144624236Y-80661648D01*
X144646624Y-80670414D01*
X144663271Y-80671171D01*
X144674964Y-80661023D01*
X144682490Y-80637073D01*
X144686634Y-80596426D01*
X144688185Y-80536186D01*
X144687929Y-80453455D01*
X144686651Y-80345339D01*
X144686252Y-80313000D01*
X144684815Y-80201524D01*
X144683528Y-80128603D01*
X144544029Y-80128603D01*
X144543245Y-80190499D01*
X144539760Y-80230997D01*
X144531876Y-80257708D01*
X144517895Y-80278244D01*
X144508403Y-80288260D01*
X144469596Y-80317567D01*
X144435237Y-80319952D01*
X144399784Y-80295750D01*
X144398886Y-80294857D01*
X144384461Y-80276153D01*
X144375687Y-80250732D01*
X144371261Y-80211584D01*
X144369882Y-80151697D01*
X144369857Y-80138430D01*
X144373188Y-80055901D01*
X144384031Y-79998691D01*
X144403660Y-79963766D01*
X144433350Y-79948094D01*
X144450509Y-79946514D01*
X144491234Y-79953926D01*
X144519168Y-79978330D01*
X144535983Y-80022980D01*
X144543350Y-80091130D01*
X144544029Y-80128603D01*
X144683528Y-80128603D01*
X144683292Y-80115245D01*
X144681323Y-80050333D01*
X144678550Y-80002958D01*
X144674612Y-79969290D01*
X144669151Y-79945498D01*
X144661808Y-79927753D01*
X144652223Y-79912224D01*
X144648113Y-79906381D01*
X144593595Y-79851185D01*
X144524664Y-79819890D01*
X144444928Y-79811165D01*
X144375256Y-79819918D01*
G36*
X143258907Y-79827780D02*
X143212328Y-79854723D01*
X143179943Y-79881466D01*
X143156258Y-79909484D01*
X143139941Y-79943748D01*
X143129661Y-79989227D01*
X143124086Y-80050892D01*
X143121884Y-80133711D01*
X143121629Y-80193246D01*
X143121629Y-80412391D01*
X143183314Y-80440044D01*
X143245000Y-80467697D01*
X143252257Y-80227670D01*
X143255256Y-80138028D01*
X143258402Y-80072962D01*
X143262299Y-80028026D01*
X143267553Y-79998770D01*
X143274769Y-79980748D01*
X143284550Y-79969511D01*
X143287688Y-79967079D01*
X143335239Y-79948083D01*
X143383303Y-79955600D01*
X143411914Y-79975543D01*
X143423553Y-79989675D01*
X143431609Y-80008220D01*
X143436729Y-80036334D01*
X143439559Y-80079173D01*
X143440744Y-80141895D01*
X143440943Y-80207261D01*
X143440982Y-80289268D01*
X143442386Y-80347316D01*
X143447086Y-80386465D01*
X143457013Y-80411780D01*
X143474097Y-80428323D01*
X143500268Y-80441156D01*
X143535225Y-80454491D01*
X143573404Y-80469007D01*
X143568859Y-80211389D01*
X143567029Y-80118519D01*
X143564888Y-80049889D01*
X143561819Y-80000711D01*
X143557206Y-79966198D01*
X143550432Y-79941562D01*
X143540881Y-79922016D01*
X143529366Y-79904770D01*
X143473810Y-79849680D01*
X143406020Y-79817822D01*
X143332287Y-79810191D01*
X143258907Y-79827780D01*
X143258907Y-79827780D01*
G37*
X143258907Y-79827780D02*
X143212328Y-79854723D01*
X143179943Y-79881466D01*
X143156258Y-79909484D01*
X143139941Y-79943748D01*
X143129661Y-79989227D01*
X143124086Y-80050892D01*
X143121884Y-80133711D01*
X143121629Y-80193246D01*
X143121629Y-80412391D01*
X143183314Y-80440044D01*
X143245000Y-80467697D01*
X143252257Y-80227670D01*
X143255256Y-80138028D01*
X143258402Y-80072962D01*
X143262299Y-80028026D01*
X143267553Y-79998770D01*
X143274769Y-79980748D01*
X143284550Y-79969511D01*
X143287688Y-79967079D01*
X143335239Y-79948083D01*
X143383303Y-79955600D01*
X143411914Y-79975543D01*
X143423553Y-79989675D01*
X143431609Y-80008220D01*
X143436729Y-80036334D01*
X143439559Y-80079173D01*
X143440744Y-80141895D01*
X143440943Y-80207261D01*
X143440982Y-80289268D01*
X143442386Y-80347316D01*
X143447086Y-80386465D01*
X143457013Y-80411780D01*
X143474097Y-80428323D01*
X143500268Y-80441156D01*
X143535225Y-80454491D01*
X143573404Y-80469007D01*
X143568859Y-80211389D01*
X143567029Y-80118519D01*
X143564888Y-80049889D01*
X143561819Y-80000711D01*
X143557206Y-79966198D01*
X143550432Y-79941562D01*
X143540881Y-79922016D01*
X143529366Y-79904770D01*
X143473810Y-79849680D01*
X143406020Y-79817822D01*
X143332287Y-79810191D01*
X143258907Y-79827780D01*
G36*
X144933885Y-79821962D02*
X144865855Y-79857733D01*
X144815649Y-79915301D01*
X144797815Y-79952312D01*
X144783937Y-80007882D01*
X144776833Y-80078096D01*
X144776160Y-80154727D01*
X144781573Y-80229552D01*
X144792730Y-80294342D01*
X144809286Y-80340873D01*
X144814374Y-80348887D01*
X144874645Y-80408707D01*
X144946231Y-80444535D01*
X145023908Y-80455020D01*
X145102452Y-80438810D01*
X145124311Y-80429092D01*
X145166878Y-80399143D01*
X145204237Y-80359433D01*
X145207768Y-80354397D01*
X145222119Y-80330124D01*
X145231606Y-80304178D01*
X145237210Y-80270022D01*
X145239914Y-80221119D01*
X145240701Y-80150935D01*
X145240714Y-80135200D01*
X145240678Y-80130192D01*
X145095571Y-80130192D01*
X145094727Y-80196430D01*
X145091404Y-80240386D01*
X145084417Y-80268779D01*
X145072584Y-80288325D01*
X145066543Y-80294857D01*
X145031814Y-80319680D01*
X144998097Y-80318548D01*
X144964005Y-80297016D01*
X144943671Y-80274029D01*
X144931629Y-80240478D01*
X144924866Y-80187569D01*
X144924402Y-80181399D01*
X144923248Y-80085513D01*
X144935312Y-80014299D01*
X144960430Y-79968194D01*
X144998440Y-79947635D01*
X145012008Y-79946514D01*
X145047636Y-79952152D01*
X145072006Y-79971686D01*
X145086907Y-80009042D01*
X145094125Y-80068150D01*
X145095571Y-80130192D01*
X145240678Y-80130192D01*
X145240174Y-80060413D01*
X145237904Y-80008159D01*
X145232932Y-79971949D01*
X145224287Y-79945299D01*
X145210995Y-79921722D01*
X145208057Y-79917338D01*
X145158687Y-79858249D01*
X145104891Y-79823947D01*
X145039398Y-79810331D01*
X145017158Y-79809665D01*
X144933885Y-79821962D01*
X144933885Y-79821962D01*
G37*
X144933885Y-79821962D02*
X144865855Y-79857733D01*
X144815649Y-79915301D01*
X144797815Y-79952312D01*
X144783937Y-80007882D01*
X144776833Y-80078096D01*
X144776160Y-80154727D01*
X144781573Y-80229552D01*
X144792730Y-80294342D01*
X144809286Y-80340873D01*
X144814374Y-80348887D01*
X144874645Y-80408707D01*
X144946231Y-80444535D01*
X145023908Y-80455020D01*
X145102452Y-80438810D01*
X145124311Y-80429092D01*
X145166878Y-80399143D01*
X145204237Y-80359433D01*
X145207768Y-80354397D01*
X145222119Y-80330124D01*
X145231606Y-80304178D01*
X145237210Y-80270022D01*
X145239914Y-80221119D01*
X145240701Y-80150935D01*
X145240714Y-80135200D01*
X145240678Y-80130192D01*
X145095571Y-80130192D01*
X145094727Y-80196430D01*
X145091404Y-80240386D01*
X145084417Y-80268779D01*
X145072584Y-80288325D01*
X145066543Y-80294857D01*
X145031814Y-80319680D01*
X144998097Y-80318548D01*
X144964005Y-80297016D01*
X144943671Y-80274029D01*
X144931629Y-80240478D01*
X144924866Y-80187569D01*
X144924402Y-80181399D01*
X144923248Y-80085513D01*
X144935312Y-80014299D01*
X144960430Y-79968194D01*
X144998440Y-79947635D01*
X145012008Y-79946514D01*
X145047636Y-79952152D01*
X145072006Y-79971686D01*
X145086907Y-80009042D01*
X145094125Y-80068150D01*
X145095571Y-80130192D01*
X145240678Y-80130192D01*
X145240174Y-80060413D01*
X145237904Y-80008159D01*
X145232932Y-79971949D01*
X145224287Y-79945299D01*
X145210995Y-79921722D01*
X145208057Y-79917338D01*
X145158687Y-79858249D01*
X145104891Y-79823947D01*
X145039398Y-79810331D01*
X145017158Y-79809665D01*
X144933885Y-79821962D01*
G36*
X143806697Y-79831239D02*
X143749473Y-79869735D01*
X143705251Y-79925335D01*
X143678833Y-79996086D01*
X143673490Y-80048162D01*
X143674097Y-80069893D01*
X143679178Y-80086531D01*
X143693145Y-80101437D01*
X143720411Y-80117973D01*
X143765388Y-80139498D01*
X143832489Y-80169374D01*
X143832829Y-80169524D01*
X143894593Y-80197813D01*
X143945241Y-80222933D01*
X143979596Y-80242179D01*
X143992482Y-80252848D01*
X143992486Y-80252934D01*
X143981128Y-80276166D01*
X143954569Y-80301774D01*
X143924077Y-80320221D01*
X143908630Y-80323886D01*
X143866485Y-80311212D01*
X143830192Y-80279471D01*
X143812483Y-80244572D01*
X143795448Y-80218845D01*
X143762078Y-80189546D01*
X143722851Y-80164235D01*
X143688244Y-80150471D01*
X143681007Y-80149714D01*
X143672861Y-80162160D01*
X143672370Y-80193972D01*
X143678357Y-80236866D01*
X143689643Y-80282558D01*
X143705050Y-80322761D01*
X143705829Y-80324322D01*
X143752196Y-80389062D01*
X143812289Y-80433097D01*
X143880535Y-80454711D01*
X143951362Y-80452185D01*
X144019196Y-80423804D01*
X144022212Y-80421808D01*
X144075573Y-80373448D01*
X144110660Y-80310352D01*
X144130078Y-80227387D01*
X144132684Y-80204078D01*
X144137299Y-80094055D01*
X144131767Y-80042748D01*
X143992486Y-80042748D01*
X143990676Y-80074753D01*
X143980778Y-80084093D01*
X143956102Y-80077105D01*
X143917205Y-80060587D01*
X143873725Y-80039881D01*
X143872644Y-80039333D01*
X143835791Y-80019949D01*
X143821000Y-80007013D01*
X143824647Y-79993451D01*
X143840005Y-79975632D01*
X143879077Y-79949845D01*
X143921154Y-79947950D01*
X143958897Y-79966717D01*
X143984966Y-80002915D01*
X143992486Y-80042748D01*
X144131767Y-80042748D01*
X144127806Y-80006027D01*
X144103450Y-79936212D01*
X144069544Y-79887302D01*
X144008347Y-79837878D01*
X143940937Y-79813359D01*
X143872120Y-79811797D01*
X143806697Y-79831239D01*
X143806697Y-79831239D01*
G37*
X143806697Y-79831239D02*
X143749473Y-79869735D01*
X143705251Y-79925335D01*
X143678833Y-79996086D01*
X143673490Y-80048162D01*
X143674097Y-80069893D01*
X143679178Y-80086531D01*
X143693145Y-80101437D01*
X143720411Y-80117973D01*
X143765388Y-80139498D01*
X143832489Y-80169374D01*
X143832829Y-80169524D01*
X143894593Y-80197813D01*
X143945241Y-80222933D01*
X143979596Y-80242179D01*
X143992482Y-80252848D01*
X143992486Y-80252934D01*
X143981128Y-80276166D01*
X143954569Y-80301774D01*
X143924077Y-80320221D01*
X143908630Y-80323886D01*
X143866485Y-80311212D01*
X143830192Y-80279471D01*
X143812483Y-80244572D01*
X143795448Y-80218845D01*
X143762078Y-80189546D01*
X143722851Y-80164235D01*
X143688244Y-80150471D01*
X143681007Y-80149714D01*
X143672861Y-80162160D01*
X143672370Y-80193972D01*
X143678357Y-80236866D01*
X143689643Y-80282558D01*
X143705050Y-80322761D01*
X143705829Y-80324322D01*
X143752196Y-80389062D01*
X143812289Y-80433097D01*
X143880535Y-80454711D01*
X143951362Y-80452185D01*
X144019196Y-80423804D01*
X144022212Y-80421808D01*
X144075573Y-80373448D01*
X144110660Y-80310352D01*
X144130078Y-80227387D01*
X144132684Y-80204078D01*
X144137299Y-80094055D01*
X144131767Y-80042748D01*
X143992486Y-80042748D01*
X143990676Y-80074753D01*
X143980778Y-80084093D01*
X143956102Y-80077105D01*
X143917205Y-80060587D01*
X143873725Y-80039881D01*
X143872644Y-80039333D01*
X143835791Y-80019949D01*
X143821000Y-80007013D01*
X143824647Y-79993451D01*
X143840005Y-79975632D01*
X143879077Y-79949845D01*
X143921154Y-79947950D01*
X143958897Y-79966717D01*
X143984966Y-80002915D01*
X143992486Y-80042748D01*
X144131767Y-80042748D01*
X144127806Y-80006027D01*
X144103450Y-79936212D01*
X144069544Y-79887302D01*
X144008347Y-79837878D01*
X143940937Y-79813359D01*
X143872120Y-79811797D01*
X143806697Y-79831239D01*
G36*
X142599114Y-79751289D02*
X142594861Y-79810613D01*
X142589975Y-79845572D01*
X142583205Y-79860820D01*
X142573298Y-79861015D01*
X142570086Y-79859195D01*
X142527356Y-79846015D01*
X142471773Y-79846785D01*
X142415263Y-79860333D01*
X142379918Y-79877861D01*
X142343679Y-79905861D01*
X142317187Y-79937549D01*
X142299001Y-79977813D01*
X142287678Y-80031543D01*
X142281778Y-80103626D01*
X142279857Y-80198951D01*
X142279823Y-80217237D01*
X142279800Y-80422646D01*
X142325509Y-80438580D01*
X142357973Y-80449420D01*
X142375785Y-80454468D01*
X142376309Y-80454514D01*
X142378063Y-80440828D01*
X142379556Y-80403076D01*
X142380674Y-80346224D01*
X142381303Y-80275234D01*
X142381400Y-80232073D01*
X142381602Y-80146973D01*
X142382642Y-80085981D01*
X142385169Y-80044177D01*
X142389836Y-80016642D01*
X142397293Y-79998456D01*
X142408189Y-79984698D01*
X142414993Y-79978073D01*
X142461728Y-79951375D01*
X142512728Y-79949375D01*
X142558999Y-79971955D01*
X142567556Y-79980107D01*
X142580107Y-79995436D01*
X142588812Y-80013618D01*
X142594369Y-80039909D01*
X142597474Y-80079562D01*
X142598824Y-80137832D01*
X142599114Y-80218173D01*
X142599114Y-80422646D01*
X142644823Y-80438580D01*
X142677287Y-80449420D01*
X142695099Y-80454468D01*
X142695623Y-80454514D01*
X142696963Y-80440623D01*
X142698172Y-80401439D01*
X142699199Y-80340700D01*
X142699998Y-80262141D01*
X142700519Y-80169498D01*
X142700714Y-80066509D01*
X142700714Y-79669342D01*
X142653543Y-79649444D01*
X142606371Y-79629547D01*
X142599114Y-79751289D01*
X142599114Y-79751289D01*
G37*
X142599114Y-79751289D02*
X142594861Y-79810613D01*
X142589975Y-79845572D01*
X142583205Y-79860820D01*
X142573298Y-79861015D01*
X142570086Y-79859195D01*
X142527356Y-79846015D01*
X142471773Y-79846785D01*
X142415263Y-79860333D01*
X142379918Y-79877861D01*
X142343679Y-79905861D01*
X142317187Y-79937549D01*
X142299001Y-79977813D01*
X142287678Y-80031543D01*
X142281778Y-80103626D01*
X142279857Y-80198951D01*
X142279823Y-80217237D01*
X142279800Y-80422646D01*
X142325509Y-80438580D01*
X142357973Y-80449420D01*
X142375785Y-80454468D01*
X142376309Y-80454514D01*
X142378063Y-80440828D01*
X142379556Y-80403076D01*
X142380674Y-80346224D01*
X142381303Y-80275234D01*
X142381400Y-80232073D01*
X142381602Y-80146973D01*
X142382642Y-80085981D01*
X142385169Y-80044177D01*
X142389836Y-80016642D01*
X142397293Y-79998456D01*
X142408189Y-79984698D01*
X142414993Y-79978073D01*
X142461728Y-79951375D01*
X142512728Y-79949375D01*
X142558999Y-79971955D01*
X142567556Y-79980107D01*
X142580107Y-79995436D01*
X142588812Y-80013618D01*
X142594369Y-80039909D01*
X142597474Y-80079562D01*
X142598824Y-80137832D01*
X142599114Y-80218173D01*
X142599114Y-80422646D01*
X142644823Y-80438580D01*
X142677287Y-80449420D01*
X142695099Y-80454468D01*
X142695623Y-80454514D01*
X142696963Y-80440623D01*
X142698172Y-80401439D01*
X142699199Y-80340700D01*
X142699998Y-80262141D01*
X142700519Y-80169498D01*
X142700714Y-80066509D01*
X142700714Y-79669342D01*
X142653543Y-79649444D01*
X142606371Y-79629547D01*
X142599114Y-79751289D01*
G36*
X141935256Y-79850968D02*
X141878384Y-79872087D01*
X141877733Y-79872493D01*
X141842560Y-79898380D01*
X141816593Y-79928633D01*
X141798330Y-79968058D01*
X141786268Y-80021462D01*
X141778904Y-80093651D01*
X141774736Y-80189432D01*
X141774371Y-80203078D01*
X141769124Y-80408842D01*
X141813284Y-80431678D01*
X141845237Y-80447110D01*
X141864530Y-80454423D01*
X141865422Y-80454514D01*
X141868761Y-80441022D01*
X141871413Y-80404626D01*
X141873044Y-80351452D01*
X141873400Y-80308393D01*
X141873408Y-80238641D01*
X141876597Y-80194837D01*
X141887712Y-80173944D01*
X141911499Y-80172925D01*
X141952704Y-80188741D01*
X142014914Y-80217815D01*
X142060659Y-80241963D01*
X142084187Y-80262913D01*
X142091104Y-80285747D01*
X142091114Y-80286877D01*
X142079701Y-80326212D01*
X142045908Y-80347462D01*
X141994191Y-80350539D01*
X141956939Y-80350006D01*
X141937297Y-80360735D01*
X141925048Y-80386505D01*
X141917998Y-80419337D01*
X141928158Y-80437966D01*
X141931983Y-80440632D01*
X141967999Y-80451340D01*
X142018434Y-80452856D01*
X142070374Y-80445759D01*
X142107178Y-80432788D01*
X142158062Y-80389585D01*
X142186986Y-80329446D01*
X142192714Y-80282462D01*
X142188343Y-80240082D01*
X142172525Y-80205488D01*
X142141203Y-80174763D01*
X142090322Y-80143990D01*
X142015824Y-80109252D01*
X142011286Y-80107288D01*
X141944179Y-80076287D01*
X141902768Y-80050862D01*
X141885019Y-80028014D01*
X141888893Y-80004745D01*
X141912357Y-79978056D01*
X141919373Y-79971914D01*
X141966370Y-79948100D01*
X142015067Y-79949103D01*
X142057478Y-79972451D01*
X142085616Y-80015675D01*
X142088231Y-80024160D01*
X142113692Y-80065308D01*
X142145999Y-80085128D01*
X142192714Y-80104770D01*
X142192714Y-80053950D01*
X142178504Y-79980082D01*
X142136325Y-79912327D01*
X142114376Y-79889661D01*
X142064483Y-79860569D01*
X142001033Y-79847400D01*
X141935256Y-79850968D01*
X141935256Y-79850968D01*
G37*
X141935256Y-79850968D02*
X141878384Y-79872087D01*
X141877733Y-79872493D01*
X141842560Y-79898380D01*
X141816593Y-79928633D01*
X141798330Y-79968058D01*
X141786268Y-80021462D01*
X141778904Y-80093651D01*
X141774736Y-80189432D01*
X141774371Y-80203078D01*
X141769124Y-80408842D01*
X141813284Y-80431678D01*
X141845237Y-80447110D01*
X141864530Y-80454423D01*
X141865422Y-80454514D01*
X141868761Y-80441022D01*
X141871413Y-80404626D01*
X141873044Y-80351452D01*
X141873400Y-80308393D01*
X141873408Y-80238641D01*
X141876597Y-80194837D01*
X141887712Y-80173944D01*
X141911499Y-80172925D01*
X141952704Y-80188741D01*
X142014914Y-80217815D01*
X142060659Y-80241963D01*
X142084187Y-80262913D01*
X142091104Y-80285747D01*
X142091114Y-80286877D01*
X142079701Y-80326212D01*
X142045908Y-80347462D01*
X141994191Y-80350539D01*
X141956939Y-80350006D01*
X141937297Y-80360735D01*
X141925048Y-80386505D01*
X141917998Y-80419337D01*
X141928158Y-80437966D01*
X141931983Y-80440632D01*
X141967999Y-80451340D01*
X142018434Y-80452856D01*
X142070374Y-80445759D01*
X142107178Y-80432788D01*
X142158062Y-80389585D01*
X142186986Y-80329446D01*
X142192714Y-80282462D01*
X142188343Y-80240082D01*
X142172525Y-80205488D01*
X142141203Y-80174763D01*
X142090322Y-80143990D01*
X142015824Y-80109252D01*
X142011286Y-80107288D01*
X141944179Y-80076287D01*
X141902768Y-80050862D01*
X141885019Y-80028014D01*
X141888893Y-80004745D01*
X141912357Y-79978056D01*
X141919373Y-79971914D01*
X141966370Y-79948100D01*
X142015067Y-79949103D01*
X142057478Y-79972451D01*
X142085616Y-80015675D01*
X142088231Y-80024160D01*
X142113692Y-80065308D01*
X142145999Y-80085128D01*
X142192714Y-80104770D01*
X142192714Y-80053950D01*
X142178504Y-79980082D01*
X142136325Y-79912327D01*
X142114376Y-79889661D01*
X142064483Y-79860569D01*
X142001033Y-79847400D01*
X141935256Y-79850968D01*
G36*
X141445074Y-79849755D02*
X141379142Y-79874084D01*
X141325727Y-79917117D01*
X141304836Y-79947409D01*
X141282061Y-80002994D01*
X141282534Y-80043186D01*
X141306438Y-80070217D01*
X141315283Y-80074813D01*
X141353470Y-80089144D01*
X141372972Y-80085472D01*
X141379578Y-80061407D01*
X141379914Y-80048114D01*
X141392008Y-79999210D01*
X141423529Y-79964999D01*
X141467341Y-79948476D01*
X141516305Y-79952634D01*
X141556106Y-79974227D01*
X141569550Y-79986544D01*
X141579079Y-80001487D01*
X141585515Y-80024075D01*
X141589683Y-80059328D01*
X141592403Y-80112266D01*
X141594498Y-80187907D01*
X141595040Y-80211857D01*
X141597019Y-80293790D01*
X141599269Y-80351455D01*
X141602643Y-80389608D01*
X141607994Y-80413004D01*
X141616176Y-80426398D01*
X141628041Y-80434545D01*
X141635638Y-80438144D01*
X141667898Y-80450452D01*
X141686889Y-80454514D01*
X141693164Y-80440948D01*
X141696994Y-80399934D01*
X141698400Y-80330999D01*
X141697402Y-80233669D01*
X141697092Y-80218657D01*
X141694899Y-80129859D01*
X141692307Y-80065019D01*
X141688618Y-80019067D01*
X141683136Y-79986935D01*
X141675165Y-79963553D01*
X141664007Y-79943852D01*
X141658170Y-79935410D01*
X141624704Y-79898057D01*
X141587273Y-79869003D01*
X141582691Y-79866467D01*
X141515574Y-79846443D01*
X141445074Y-79849755D01*
X141445074Y-79849755D01*
G37*
X141445074Y-79849755D02*
X141379142Y-79874084D01*
X141325727Y-79917117D01*
X141304836Y-79947409D01*
X141282061Y-80002994D01*
X141282534Y-80043186D01*
X141306438Y-80070217D01*
X141315283Y-80074813D01*
X141353470Y-80089144D01*
X141372972Y-80085472D01*
X141379578Y-80061407D01*
X141379914Y-80048114D01*
X141392008Y-79999210D01*
X141423529Y-79964999D01*
X141467341Y-79948476D01*
X141516305Y-79952634D01*
X141556106Y-79974227D01*
X141569550Y-79986544D01*
X141579079Y-80001487D01*
X141585515Y-80024075D01*
X141589683Y-80059328D01*
X141592403Y-80112266D01*
X141594498Y-80187907D01*
X141595040Y-80211857D01*
X141597019Y-80293790D01*
X141599269Y-80351455D01*
X141602643Y-80389608D01*
X141607994Y-80413004D01*
X141616176Y-80426398D01*
X141628041Y-80434545D01*
X141635638Y-80438144D01*
X141667898Y-80450452D01*
X141686889Y-80454514D01*
X141693164Y-80440948D01*
X141696994Y-80399934D01*
X141698400Y-80330999D01*
X141697402Y-80233669D01*
X141697092Y-80218657D01*
X141694899Y-80129859D01*
X141692307Y-80065019D01*
X141688618Y-80019067D01*
X141683136Y-79986935D01*
X141675165Y-79963553D01*
X141664007Y-79943852D01*
X141658170Y-79935410D01*
X141624704Y-79898057D01*
X141587273Y-79869003D01*
X141582691Y-79866467D01*
X141515574Y-79846443D01*
X141445074Y-79849755D01*
G36*
X140784883Y-79965358D02*
X140785067Y-80073837D01*
X140785781Y-80157287D01*
X140787325Y-80219704D01*
X140789999Y-80265085D01*
X140794106Y-80297429D01*
X140799945Y-80320733D01*
X140807818Y-80338995D01*
X140813779Y-80349418D01*
X140863145Y-80405945D01*
X140925736Y-80441377D01*
X140994987Y-80454090D01*
X141064332Y-80442463D01*
X141105625Y-80421568D01*
X141148975Y-80385422D01*
X141178519Y-80341276D01*
X141196345Y-80283462D01*
X141204537Y-80206313D01*
X141205698Y-80149714D01*
X141205542Y-80145647D01*
X141104143Y-80145647D01*
X141103524Y-80210550D01*
X141100686Y-80253514D01*
X141094160Y-80281622D01*
X141082477Y-80301953D01*
X141068517Y-80317288D01*
X141021635Y-80346890D01*
X140971299Y-80349419D01*
X140923724Y-80324705D01*
X140920021Y-80321356D01*
X140904217Y-80303935D01*
X140894307Y-80283209D01*
X140888942Y-80252362D01*
X140886772Y-80204577D01*
X140886429Y-80151748D01*
X140887173Y-80085381D01*
X140890252Y-80041106D01*
X140896939Y-80012009D01*
X140908504Y-79991173D01*
X140917987Y-79980107D01*
X140962040Y-79952198D01*
X141012776Y-79948843D01*
X141061204Y-79970159D01*
X141070550Y-79978073D01*
X141086460Y-79995647D01*
X141096390Y-80016587D01*
X141101722Y-80047782D01*
X141103837Y-80096122D01*
X141104143Y-80145647D01*
X141205542Y-80145647D01*
X141202190Y-80058568D01*
X141190274Y-79990086D01*
X141167865Y-79938600D01*
X141132876Y-79898443D01*
X141105625Y-79877861D01*
X141056093Y-79855625D01*
X140998684Y-79845304D01*
X140945318Y-79848067D01*
X140915457Y-79859212D01*
X140903739Y-79862383D01*
X140895963Y-79850557D01*
X140890535Y-79818866D01*
X140886429Y-79770593D01*
X140881933Y-79716829D01*
X140875687Y-79684482D01*
X140864324Y-79665985D01*
X140844472Y-79653770D01*
X140832000Y-79648362D01*
X140784829Y-79628601D01*
X140784883Y-79965358D01*
X140784883Y-79965358D01*
G37*
X140784883Y-79965358D02*
X140785067Y-80073837D01*
X140785781Y-80157287D01*
X140787325Y-80219704D01*
X140789999Y-80265085D01*
X140794106Y-80297429D01*
X140799945Y-80320733D01*
X140807818Y-80338995D01*
X140813779Y-80349418D01*
X140863145Y-80405945D01*
X140925736Y-80441377D01*
X140994987Y-80454090D01*
X141064332Y-80442463D01*
X141105625Y-80421568D01*
X141148975Y-80385422D01*
X141178519Y-80341276D01*
X141196345Y-80283462D01*
X141204537Y-80206313D01*
X141205698Y-80149714D01*
X141205542Y-80145647D01*
X141104143Y-80145647D01*
X141103524Y-80210550D01*
X141100686Y-80253514D01*
X141094160Y-80281622D01*
X141082477Y-80301953D01*
X141068517Y-80317288D01*
X141021635Y-80346890D01*
X140971299Y-80349419D01*
X140923724Y-80324705D01*
X140920021Y-80321356D01*
X140904217Y-80303935D01*
X140894307Y-80283209D01*
X140888942Y-80252362D01*
X140886772Y-80204577D01*
X140886429Y-80151748D01*
X140887173Y-80085381D01*
X140890252Y-80041106D01*
X140896939Y-80012009D01*
X140908504Y-79991173D01*
X140917987Y-79980107D01*
X140962040Y-79952198D01*
X141012776Y-79948843D01*
X141061204Y-79970159D01*
X141070550Y-79978073D01*
X141086460Y-79995647D01*
X141096390Y-80016587D01*
X141101722Y-80047782D01*
X141103837Y-80096122D01*
X141104143Y-80145647D01*
X141205542Y-80145647D01*
X141202190Y-80058568D01*
X141190274Y-79990086D01*
X141167865Y-79938600D01*
X141132876Y-79898443D01*
X141105625Y-79877861D01*
X141056093Y-79855625D01*
X140998684Y-79845304D01*
X140945318Y-79848067D01*
X140915457Y-79859212D01*
X140903739Y-79862383D01*
X140895963Y-79850557D01*
X140890535Y-79818866D01*
X140886429Y-79770593D01*
X140881933Y-79716829D01*
X140875687Y-79684482D01*
X140864324Y-79665985D01*
X140844472Y-79653770D01*
X140832000Y-79648362D01*
X140784829Y-79628601D01*
X140784883Y-79965358D01*
G36*
X140195167Y-79858663D02*
X140192952Y-79896850D01*
X140191216Y-79954886D01*
X140190101Y-80028180D01*
X140189743Y-80105055D01*
X140189743Y-80365196D01*
X140235674Y-80411127D01*
X140267325Y-80439429D01*
X140295110Y-80450893D01*
X140333085Y-80450168D01*
X140348160Y-80448321D01*
X140395274Y-80442948D01*
X140434244Y-80439869D01*
X140443743Y-80439585D01*
X140475767Y-80441445D01*
X140521568Y-80446114D01*
X140539326Y-80448321D01*
X140582943Y-80451735D01*
X140612255Y-80444320D01*
X140641320Y-80421427D01*
X140651812Y-80411127D01*
X140697743Y-80365196D01*
X140697743Y-79878602D01*
X140660774Y-79861758D01*
X140628941Y-79849282D01*
X140610317Y-79844914D01*
X140605542Y-79858718D01*
X140601079Y-79897286D01*
X140597225Y-79956356D01*
X140594278Y-80031663D01*
X140592857Y-80095286D01*
X140588886Y-80345657D01*
X140554241Y-80350556D01*
X140522732Y-80347131D01*
X140507292Y-80336041D01*
X140502977Y-80315308D01*
X140499292Y-80271145D01*
X140496531Y-80209146D01*
X140494988Y-80134909D01*
X140494765Y-80096706D01*
X140494543Y-79876783D01*
X140448834Y-79860849D01*
X140416482Y-79850015D01*
X140398885Y-79844962D01*
X140398377Y-79844914D01*
X140396612Y-79858648D01*
X140394671Y-79896730D01*
X140392718Y-79954482D01*
X140390916Y-80027227D01*
X140389657Y-80095286D01*
X140385686Y-80345657D01*
X140298600Y-80345657D01*
X140294604Y-80117240D01*
X140290608Y-79888822D01*
X140248153Y-79866868D01*
X140216808Y-79851793D01*
X140198256Y-79844951D01*
X140197721Y-79844914D01*
X140195167Y-79858663D01*
X140195167Y-79858663D01*
G37*
X140195167Y-79858663D02*
X140192952Y-79896850D01*
X140191216Y-79954886D01*
X140190101Y-80028180D01*
X140189743Y-80105055D01*
X140189743Y-80365196D01*
X140235674Y-80411127D01*
X140267325Y-80439429D01*
X140295110Y-80450893D01*
X140333085Y-80450168D01*
X140348160Y-80448321D01*
X140395274Y-80442948D01*
X140434244Y-80439869D01*
X140443743Y-80439585D01*
X140475767Y-80441445D01*
X140521568Y-80446114D01*
X140539326Y-80448321D01*
X140582943Y-80451735D01*
X140612255Y-80444320D01*
X140641320Y-80421427D01*
X140651812Y-80411127D01*
X140697743Y-80365196D01*
X140697743Y-79878602D01*
X140660774Y-79861758D01*
X140628941Y-79849282D01*
X140610317Y-79844914D01*
X140605542Y-79858718D01*
X140601079Y-79897286D01*
X140597225Y-79956356D01*
X140594278Y-80031663D01*
X140592857Y-80095286D01*
X140588886Y-80345657D01*
X140554241Y-80350556D01*
X140522732Y-80347131D01*
X140507292Y-80336041D01*
X140502977Y-80315308D01*
X140499292Y-80271145D01*
X140496531Y-80209146D01*
X140494988Y-80134909D01*
X140494765Y-80096706D01*
X140494543Y-79876783D01*
X140448834Y-79860849D01*
X140416482Y-79850015D01*
X140398885Y-79844962D01*
X140398377Y-79844914D01*
X140396612Y-79858648D01*
X140394671Y-79896730D01*
X140392718Y-79954482D01*
X140390916Y-80027227D01*
X140389657Y-80095286D01*
X140385686Y-80345657D01*
X140298600Y-80345657D01*
X140294604Y-80117240D01*
X140290608Y-79888822D01*
X140248153Y-79866868D01*
X140216808Y-79851793D01*
X140198256Y-79844951D01*
X140197721Y-79844914D01*
X140195167Y-79858663D01*
G36*
X139830124Y-79856335D02*
X139788333Y-79875344D01*
X139755531Y-79898378D01*
X139731497Y-79924133D01*
X139714903Y-79957358D01*
X139704423Y-80002800D01*
X139698729Y-80065207D01*
X139696493Y-80149327D01*
X139696257Y-80204721D01*
X139696257Y-80420826D01*
X139733226Y-80437670D01*
X139762344Y-80449981D01*
X139776769Y-80454514D01*
X139779528Y-80441025D01*
X139781718Y-80404653D01*
X139783058Y-80351542D01*
X139783343Y-80309372D01*
X139784566Y-80248447D01*
X139787864Y-80200115D01*
X139792679Y-80170518D01*
X139796504Y-80164229D01*
X139822217Y-80170652D01*
X139862582Y-80187125D01*
X139909321Y-80209458D01*
X139954155Y-80233457D01*
X139988807Y-80254930D01*
X140004998Y-80269685D01*
X140005062Y-80269845D01*
X140003670Y-80297152D01*
X139991182Y-80323219D01*
X139969257Y-80344392D01*
X139937257Y-80351474D01*
X139909908Y-80350649D01*
X139871174Y-80350042D01*
X139850842Y-80359116D01*
X139838631Y-80383092D01*
X139837091Y-80387613D01*
X139831797Y-80421806D01*
X139845953Y-80442568D01*
X139882852Y-80452462D01*
X139922711Y-80454292D01*
X139994438Y-80440727D01*
X140031568Y-80421355D01*
X140077424Y-80375845D01*
X140101744Y-80319983D01*
X140103927Y-80260957D01*
X140083371Y-80205953D01*
X140052451Y-80171486D01*
X140021580Y-80152189D01*
X139973058Y-80127759D01*
X139916515Y-80102985D01*
X139907090Y-80099199D01*
X139844981Y-80071791D01*
X139809178Y-80047634D01*
X139797663Y-80023619D01*
X139808420Y-79996635D01*
X139826886Y-79975543D01*
X139870531Y-79949572D01*
X139918554Y-79947624D01*
X139962594Y-79967637D01*
X139994291Y-80007551D01*
X139998451Y-80017848D01*
X140022673Y-80055724D01*
X140058035Y-80083842D01*
X140102657Y-80106917D01*
X140102657Y-80041485D01*
X140100031Y-80001506D01*
X140088770Y-79969997D01*
X140063801Y-79936378D01*
X140039831Y-79910484D01*
X140002559Y-79873817D01*
X139973599Y-79854121D01*
X139942495Y-79846220D01*
X139907287Y-79844914D01*
X139830124Y-79856335D01*
X139830124Y-79856335D01*
G37*
X139830124Y-79856335D02*
X139788333Y-79875344D01*
X139755531Y-79898378D01*
X139731497Y-79924133D01*
X139714903Y-79957358D01*
X139704423Y-80002800D01*
X139698729Y-80065207D01*
X139696493Y-80149327D01*
X139696257Y-80204721D01*
X139696257Y-80420826D01*
X139733226Y-80437670D01*
X139762344Y-80449981D01*
X139776769Y-80454514D01*
X139779528Y-80441025D01*
X139781718Y-80404653D01*
X139783058Y-80351542D01*
X139783343Y-80309372D01*
X139784566Y-80248447D01*
X139787864Y-80200115D01*
X139792679Y-80170518D01*
X139796504Y-80164229D01*
X139822217Y-80170652D01*
X139862582Y-80187125D01*
X139909321Y-80209458D01*
X139954155Y-80233457D01*
X139988807Y-80254930D01*
X140004998Y-80269685D01*
X140005062Y-80269845D01*
X140003670Y-80297152D01*
X139991182Y-80323219D01*
X139969257Y-80344392D01*
X139937257Y-80351474D01*
X139909908Y-80350649D01*
X139871174Y-80350042D01*
X139850842Y-80359116D01*
X139838631Y-80383092D01*
X139837091Y-80387613D01*
X139831797Y-80421806D01*
X139845953Y-80442568D01*
X139882852Y-80452462D01*
X139922711Y-80454292D01*
X139994438Y-80440727D01*
X140031568Y-80421355D01*
X140077424Y-80375845D01*
X140101744Y-80319983D01*
X140103927Y-80260957D01*
X140083371Y-80205953D01*
X140052451Y-80171486D01*
X140021580Y-80152189D01*
X139973058Y-80127759D01*
X139916515Y-80102985D01*
X139907090Y-80099199D01*
X139844981Y-80071791D01*
X139809178Y-80047634D01*
X139797663Y-80023619D01*
X139808420Y-79996635D01*
X139826886Y-79975543D01*
X139870531Y-79949572D01*
X139918554Y-79947624D01*
X139962594Y-79967637D01*
X139994291Y-80007551D01*
X139998451Y-80017848D01*
X140022673Y-80055724D01*
X140058035Y-80083842D01*
X140102657Y-80106917D01*
X140102657Y-80041485D01*
X140100031Y-80001506D01*
X140088770Y-79969997D01*
X140063801Y-79936378D01*
X140039831Y-79910484D01*
X140002559Y-79873817D01*
X139973599Y-79854121D01*
X139942495Y-79846220D01*
X139907287Y-79844914D01*
X139830124Y-79856335D01*
G36*
X139322400Y-79858752D02*
X139305052Y-79866334D01*
X139263644Y-79899128D01*
X139228235Y-79946547D01*
X139206336Y-79997151D01*
X139202771Y-80022098D01*
X139214721Y-80056927D01*
X139240933Y-80075357D01*
X139269036Y-80086516D01*
X139281905Y-80088572D01*
X139288171Y-80073649D01*
X139300544Y-80041175D01*
X139305972Y-80026502D01*
X139336410Y-79975744D01*
X139380480Y-79950427D01*
X139436990Y-79951206D01*
X139441175Y-79952203D01*
X139471345Y-79966507D01*
X139493524Y-79994393D01*
X139508673Y-80039287D01*
X139517750Y-80104615D01*
X139521714Y-80193804D01*
X139522086Y-80241261D01*
X139522270Y-80316071D01*
X139523478Y-80367069D01*
X139526691Y-80399471D01*
X139532891Y-80418495D01*
X139543060Y-80429356D01*
X139558181Y-80437272D01*
X139559054Y-80437670D01*
X139588172Y-80449981D01*
X139602597Y-80454514D01*
X139604814Y-80440809D01*
X139606711Y-80402925D01*
X139608153Y-80345715D01*
X139609002Y-80274027D01*
X139609171Y-80221565D01*
X139608308Y-80120047D01*
X139604930Y-80043032D01*
X139597858Y-79986023D01*
X139585912Y-79944526D01*
X139567910Y-79914043D01*
X139542673Y-79890080D01*
X139517753Y-79873355D01*
X139457829Y-79851097D01*
X139388089Y-79846076D01*
X139322400Y-79858752D01*
X139322400Y-79858752D01*
G37*
X139322400Y-79858752D02*
X139305052Y-79866334D01*
X139263644Y-79899128D01*
X139228235Y-79946547D01*
X139206336Y-79997151D01*
X139202771Y-80022098D01*
X139214721Y-80056927D01*
X139240933Y-80075357D01*
X139269036Y-80086516D01*
X139281905Y-80088572D01*
X139288171Y-80073649D01*
X139300544Y-80041175D01*
X139305972Y-80026502D01*
X139336410Y-79975744D01*
X139380480Y-79950427D01*
X139436990Y-79951206D01*
X139441175Y-79952203D01*
X139471345Y-79966507D01*
X139493524Y-79994393D01*
X139508673Y-80039287D01*
X139517750Y-80104615D01*
X139521714Y-80193804D01*
X139522086Y-80241261D01*
X139522270Y-80316071D01*
X139523478Y-80367069D01*
X139526691Y-80399471D01*
X139532891Y-80418495D01*
X139543060Y-80429356D01*
X139558181Y-80437272D01*
X139559054Y-80437670D01*
X139588172Y-80449981D01*
X139602597Y-80454514D01*
X139604814Y-80440809D01*
X139606711Y-80402925D01*
X139608153Y-80345715D01*
X139609002Y-80274027D01*
X139609171Y-80221565D01*
X139608308Y-80120047D01*
X139604930Y-80043032D01*
X139597858Y-79986023D01*
X139585912Y-79944526D01*
X139567910Y-79914043D01*
X139542673Y-79890080D01*
X139517753Y-79873355D01*
X139457829Y-79851097D01*
X139388089Y-79846076D01*
X139322400Y-79858752D01*
G36*
X138821405Y-79866966D02*
X138763979Y-79904497D01*
X138736281Y-79938096D01*
X138714338Y-79999064D01*
X138712595Y-80047308D01*
X138716543Y-80111816D01*
X138865314Y-80176934D01*
X138937651Y-80210202D01*
X138984916Y-80236964D01*
X139009493Y-80260144D01*
X139013763Y-80282667D01*
X139000111Y-80307455D01*
X138985057Y-80323886D01*
X138941254Y-80350235D01*
X138893611Y-80352081D01*
X138849855Y-80331546D01*
X138817711Y-80290752D01*
X138811962Y-80276347D01*
X138784424Y-80231356D01*
X138752742Y-80212182D01*
X138709286Y-80195779D01*
X138709286Y-80257966D01*
X138713128Y-80300283D01*
X138728177Y-80335969D01*
X138759720Y-80376943D01*
X138764408Y-80382267D01*
X138799494Y-80418720D01*
X138829653Y-80438283D01*
X138867385Y-80447283D01*
X138898665Y-80450230D01*
X138954615Y-80450965D01*
X138994445Y-80441660D01*
X139019292Y-80427846D01*
X139058344Y-80397467D01*
X139085375Y-80364613D01*
X139102483Y-80323294D01*
X139111762Y-80267521D01*
X139115307Y-80191305D01*
X139115590Y-80152622D01*
X139114628Y-80106247D01*
X139026993Y-80106247D01*
X139025977Y-80131126D01*
X139023444Y-80135200D01*
X139006726Y-80129665D01*
X138970751Y-80115017D01*
X138922669Y-80094190D01*
X138912614Y-80089714D01*
X138851848Y-80058814D01*
X138818368Y-80031657D01*
X138811010Y-80006220D01*
X138828609Y-79980481D01*
X138843144Y-79969109D01*
X138895590Y-79946364D01*
X138944678Y-79950122D01*
X138985773Y-79977884D01*
X139014242Y-80027152D01*
X139023369Y-80066257D01*
X139026993Y-80106247D01*
X139114628Y-80106247D01*
X139113715Y-80062249D01*
X139106804Y-79995384D01*
X139093116Y-79946695D01*
X139070904Y-79910849D01*
X139038426Y-79882513D01*
X139024267Y-79873355D01*
X138959947Y-79849507D01*
X138889527Y-79848006D01*
X138821405Y-79866966D01*
X138821405Y-79866966D01*
G37*
X138821405Y-79866966D02*
X138763979Y-79904497D01*
X138736281Y-79938096D01*
X138714338Y-79999064D01*
X138712595Y-80047308D01*
X138716543Y-80111816D01*
X138865314Y-80176934D01*
X138937651Y-80210202D01*
X138984916Y-80236964D01*
X139009493Y-80260144D01*
X139013763Y-80282667D01*
X139000111Y-80307455D01*
X138985057Y-80323886D01*
X138941254Y-80350235D01*
X138893611Y-80352081D01*
X138849855Y-80331546D01*
X138817711Y-80290752D01*
X138811962Y-80276347D01*
X138784424Y-80231356D01*
X138752742Y-80212182D01*
X138709286Y-80195779D01*
X138709286Y-80257966D01*
X138713128Y-80300283D01*
X138728177Y-80335969D01*
X138759720Y-80376943D01*
X138764408Y-80382267D01*
X138799494Y-80418720D01*
X138829653Y-80438283D01*
X138867385Y-80447283D01*
X138898665Y-80450230D01*
X138954615Y-80450965D01*
X138994445Y-80441660D01*
X139019292Y-80427846D01*
X139058344Y-80397467D01*
X139085375Y-80364613D01*
X139102483Y-80323294D01*
X139111762Y-80267521D01*
X139115307Y-80191305D01*
X139115590Y-80152622D01*
X139114628Y-80106247D01*
X139026993Y-80106247D01*
X139025977Y-80131126D01*
X139023444Y-80135200D01*
X139006726Y-80129665D01*
X138970751Y-80115017D01*
X138922669Y-80094190D01*
X138912614Y-80089714D01*
X138851848Y-80058814D01*
X138818368Y-80031657D01*
X138811010Y-80006220D01*
X138828609Y-79980481D01*
X138843144Y-79969109D01*
X138895590Y-79946364D01*
X138944678Y-79950122D01*
X138985773Y-79977884D01*
X139014242Y-80027152D01*
X139023369Y-80066257D01*
X139026993Y-80106247D01*
X139114628Y-80106247D01*
X139113715Y-80062249D01*
X139106804Y-79995384D01*
X139093116Y-79946695D01*
X139070904Y-79910849D01*
X139038426Y-79882513D01*
X139024267Y-79873355D01*
X138959947Y-79849507D01*
X138889527Y-79848006D01*
X138821405Y-79866966D01*
G36*
X141871090Y-75142348D02*
X141792546Y-75142778D01*
X141735702Y-75143942D01*
X141696895Y-75146207D01*
X141672462Y-75149940D01*
X141658738Y-75155506D01*
X141652060Y-75163273D01*
X141648764Y-75173605D01*
X141648444Y-75174943D01*
X141643438Y-75199079D01*
X141634171Y-75246701D01*
X141621608Y-75312741D01*
X141606713Y-75392128D01*
X141590449Y-75479796D01*
X141589881Y-75482875D01*
X141573590Y-75568789D01*
X141558348Y-75644696D01*
X141545139Y-75706045D01*
X141534946Y-75748282D01*
X141528752Y-75766855D01*
X141528457Y-75767184D01*
X141510212Y-75776253D01*
X141472595Y-75791367D01*
X141423729Y-75809262D01*
X141423457Y-75809358D01*
X141361907Y-75832493D01*
X141289343Y-75861965D01*
X141220943Y-75891597D01*
X141217706Y-75893062D01*
X141106298Y-75943626D01*
X140859601Y-75775160D01*
X140783923Y-75723803D01*
X140715369Y-75677889D01*
X140657912Y-75640030D01*
X140615524Y-75612837D01*
X140592175Y-75598921D01*
X140589958Y-75597889D01*
X140572990Y-75602484D01*
X140541299Y-75624655D01*
X140493648Y-75665447D01*
X140428802Y-75725905D01*
X140362603Y-75790227D01*
X140298786Y-75853612D01*
X140241671Y-75911451D01*
X140194695Y-75960175D01*
X140161297Y-75996210D01*
X140144915Y-76015984D01*
X140144306Y-76017002D01*
X140142495Y-76030572D01*
X140149317Y-76052733D01*
X140166460Y-76086478D01*
X140195607Y-76134800D01*
X140238445Y-76200692D01*
X140295552Y-76285517D01*
X140346234Y-76360177D01*
X140391539Y-76427140D01*
X140428850Y-76482516D01*
X140455548Y-76522420D01*
X140469015Y-76542962D01*
X140469863Y-76544356D01*
X140468219Y-76564038D01*
X140455755Y-76602293D01*
X140434952Y-76651889D01*
X140427538Y-76667728D01*
X140395186Y-76738290D01*
X140360672Y-76818353D01*
X140332635Y-76887629D01*
X140312432Y-76939045D01*
X140296385Y-76978119D01*
X140287112Y-76998541D01*
X140285959Y-77000114D01*
X140268904Y-77002721D01*
X140228702Y-77009863D01*
X140170698Y-77020523D01*
X140100237Y-77033685D01*
X140022665Y-77048333D01*
X139943328Y-77063449D01*
X139867569Y-77078018D01*
X139800736Y-77091022D01*
X139748172Y-77101445D01*
X139715224Y-77108270D01*
X139707143Y-77110199D01*
X139698795Y-77114962D01*
X139692494Y-77125718D01*
X139687955Y-77146098D01*
X139684896Y-77179734D01*
X139683033Y-77230255D01*
X139682082Y-77301292D01*
X139681760Y-77396476D01*
X139681743Y-77435492D01*
X139681743Y-77752799D01*
X139757943Y-77767839D01*
X139800337Y-77775995D01*
X139863600Y-77787899D01*
X139940038Y-77802116D01*
X140021957Y-77817210D01*
X140044600Y-77821355D01*
X140120194Y-77836053D01*
X140186047Y-77850505D01*
X140236634Y-77863375D01*
X140266426Y-77873322D01*
X140271388Y-77876287D01*
X140283574Y-77897283D01*
X140301047Y-77937967D01*
X140320423Y-77990322D01*
X140324266Y-78001600D01*
X140349661Y-78071523D01*
X140381183Y-78150418D01*
X140412031Y-78221266D01*
X140412183Y-78221595D01*
X140463553Y-78332733D01*
X140294601Y-78581253D01*
X140125648Y-78829772D01*
X140342571Y-79047058D01*
X140408181Y-79111726D01*
X140468021Y-79168733D01*
X140518733Y-79215033D01*
X140556954Y-79247584D01*
X140579325Y-79263343D01*
X140582534Y-79264343D01*
X140601374Y-79256469D01*
X140639820Y-79234578D01*
X140693670Y-79201267D01*
X140758724Y-79159131D01*
X140829060Y-79111943D01*
X140900445Y-79063810D01*
X140964092Y-79021928D01*
X141015959Y-78988871D01*
X141052005Y-78967218D01*
X141068133Y-78959543D01*
X141087811Y-78966037D01*
X141125125Y-78983150D01*
X141172379Y-79007326D01*
X141177388Y-79010013D01*
X141241023Y-79041927D01*
X141284659Y-79057579D01*
X141311798Y-79057745D01*
X141325943Y-79043204D01*
X141326025Y-79043000D01*
X141333095Y-79025779D01*
X141349958Y-78984899D01*
X141375305Y-78923525D01*
X141407829Y-78844819D01*
X141446222Y-78751947D01*
X141489178Y-78648072D01*
X141530778Y-78547502D01*
X141576496Y-78436516D01*
X141618474Y-78333703D01*
X141655452Y-78242215D01*
X141686173Y-78165201D01*
X141709378Y-78105815D01*
X141723810Y-78067209D01*
X141728257Y-78052800D01*
X141717104Y-78036272D01*
X141687931Y-78009930D01*
X141649029Y-77980887D01*
X141538243Y-77889039D01*
X141451649Y-77783759D01*
X141390284Y-77667266D01*
X141355185Y-77541776D01*
X141347392Y-77409507D01*
X141353057Y-77348457D01*
X141383922Y-77221795D01*
X141437080Y-77109941D01*
X141509233Y-77014001D01*
X141597083Y-76935076D01*
X141697335Y-76874270D01*
X141806690Y-76832687D01*
X141921853Y-76811428D01*
X142039525Y-76811599D01*
X142156410Y-76834301D01*
X142269211Y-76880638D01*
X142374631Y-76951713D01*
X142418632Y-76991911D01*
X142503021Y-77095129D01*
X142561778Y-77207925D01*
X142595296Y-77327010D01*
X142603965Y-77449095D01*
X142588177Y-77570893D01*
X142548322Y-77689116D01*
X142484793Y-77800475D01*
X142397979Y-77901684D01*
X142300971Y-77980887D01*
X142260563Y-78011162D01*
X142232018Y-78037219D01*
X142221743Y-78052825D01*
X142227123Y-78069843D01*
X142242425Y-78110500D01*
X142266388Y-78171642D01*
X142297756Y-78250119D01*
X142335268Y-78342780D01*
X142377667Y-78446472D01*
X142419337Y-78547526D01*
X142465310Y-78658607D01*
X142507893Y-78761541D01*
X142545779Y-78853165D01*
X142577660Y-78930316D01*
X142602229Y-78989831D01*
X142618180Y-79028544D01*
X142624090Y-79043000D01*
X142638052Y-79057685D01*
X142665060Y-79057642D01*
X142708587Y-79042099D01*
X142772110Y-79010284D01*
X142772612Y-79010013D01*
X142820440Y-78985323D01*
X142859103Y-78967338D01*
X142880905Y-78959614D01*
X142881867Y-78959543D01*
X142898279Y-78967378D01*
X142934513Y-78989165D01*
X142986526Y-79022328D01*
X143050275Y-79064291D01*
X143120940Y-79111943D01*
X143192884Y-79160191D01*
X143257726Y-79202151D01*
X143311265Y-79235227D01*
X143349303Y-79256821D01*
X143367467Y-79264343D01*
X143384192Y-79254457D01*
X143417820Y-79226826D01*
X143464990Y-79184495D01*
X143522342Y-79130505D01*
X143586516Y-79067899D01*
X143607503Y-79046983D01*
X143824501Y-78829623D01*
X143659332Y-78587220D01*
X143609136Y-78512781D01*
X143565081Y-78445972D01*
X143529638Y-78390665D01*
X143505281Y-78350729D01*
X143494478Y-78330036D01*
X143494162Y-78328563D01*
X143499857Y-78309058D01*
X143515174Y-78269822D01*
X143537463Y-78217430D01*
X143553107Y-78182355D01*
X143582359Y-78115201D01*
X143609906Y-78047358D01*
X143631263Y-77990034D01*
X143637065Y-77972572D01*
X143653548Y-77925938D01*
X143669660Y-77889905D01*
X143678510Y-77876287D01*
X143698040Y-77867952D01*
X143740666Y-77856137D01*
X143800855Y-77842181D01*
X143873078Y-77827422D01*
X143905400Y-77821355D01*
X143987478Y-77806273D01*
X144066205Y-77791669D01*
X144133891Y-77778980D01*
X144182840Y-77769642D01*
X144192057Y-77767839D01*
X144268257Y-77752799D01*
X144268257Y-77435492D01*
X144268086Y-77331154D01*
X144267384Y-77252213D01*
X144265866Y-77195038D01*
X144263251Y-77155999D01*
X144259254Y-77131465D01*
X144253591Y-77117805D01*
X144245980Y-77111389D01*
X144242857Y-77110199D01*
X144224022Y-77105980D01*
X144182412Y-77097562D01*
X144123370Y-77085961D01*
X144052243Y-77072195D01*
X143974375Y-77057280D01*
X143895113Y-77042232D01*
X143819802Y-77028069D01*
X143753787Y-77015806D01*
X143702413Y-77006461D01*
X143671025Y-77001050D01*
X143664041Y-77000114D01*
X143657715Y-76987596D01*
X143643710Y-76954246D01*
X143624645Y-76906377D01*
X143617366Y-76887629D01*
X143588004Y-76815195D01*
X143553429Y-76735170D01*
X143522463Y-76667728D01*
X143499677Y-76616159D01*
X143484518Y-76573785D01*
X143479458Y-76547834D01*
X143480264Y-76544356D01*
X143490959Y-76527936D01*
X143515380Y-76491417D01*
X143550905Y-76438687D01*
X143594913Y-76373635D01*
X143644783Y-76300151D01*
X143654644Y-76285645D01*
X143712508Y-76199704D01*
X143755044Y-76134261D01*
X143783946Y-76086304D01*
X143800910Y-76052820D01*
X143807633Y-76030795D01*
X143805810Y-76017217D01*
X143805764Y-76017131D01*
X143791414Y-75999297D01*
X143759677Y-75964817D01*
X143713990Y-75917268D01*
X143657796Y-75860222D01*
X143594532Y-75797255D01*
X143587398Y-75790227D01*
X143507670Y-75713020D01*
X143446143Y-75656330D01*
X143401579Y-75619110D01*
X143372743Y-75600315D01*
X143360042Y-75597889D01*
X143341506Y-75608471D01*
X143303039Y-75632916D01*
X143248614Y-75668612D01*
X143182202Y-75712947D01*
X143107775Y-75763311D01*
X143090399Y-75775160D01*
X142843703Y-75943626D01*
X142732294Y-75893062D01*
X142664543Y-75863595D01*
X142591817Y-75833959D01*
X142529297Y-75810330D01*
X142526543Y-75809358D01*
X142477640Y-75791457D01*
X142439943Y-75776320D01*
X142421575Y-75767210D01*
X142421544Y-75767184D01*
X142415715Y-75750717D01*
X142405808Y-75710219D01*
X142392805Y-75650242D01*
X142377691Y-75575340D01*
X142361448Y-75490064D01*
X142360119Y-75482875D01*
X142343825Y-75395014D01*
X142328867Y-75315260D01*
X142316209Y-75248681D01*
X142306814Y-75200347D01*
X142301646Y-75175325D01*
X142301556Y-75174943D01*
X142298411Y-75164299D01*
X142292296Y-75156262D01*
X142279547Y-75150467D01*
X142256500Y-75146547D01*
X142219491Y-75144135D01*
X142164856Y-75142865D01*
X142088933Y-75142371D01*
X141988056Y-75142286D01*
X141975000Y-75142286D01*
X141871090Y-75142348D01*
X141871090Y-75142348D01*
G37*
X141871090Y-75142348D02*
X141792546Y-75142778D01*
X141735702Y-75143942D01*
X141696895Y-75146207D01*
X141672462Y-75149940D01*
X141658738Y-75155506D01*
X141652060Y-75163273D01*
X141648764Y-75173605D01*
X141648444Y-75174943D01*
X141643438Y-75199079D01*
X141634171Y-75246701D01*
X141621608Y-75312741D01*
X141606713Y-75392128D01*
X141590449Y-75479796D01*
X141589881Y-75482875D01*
X141573590Y-75568789D01*
X141558348Y-75644696D01*
X141545139Y-75706045D01*
X141534946Y-75748282D01*
X141528752Y-75766855D01*
X141528457Y-75767184D01*
X141510212Y-75776253D01*
X141472595Y-75791367D01*
X141423729Y-75809262D01*
X141423457Y-75809358D01*
X141361907Y-75832493D01*
X141289343Y-75861965D01*
X141220943Y-75891597D01*
X141217706Y-75893062D01*
X141106298Y-75943626D01*
X140859601Y-75775160D01*
X140783923Y-75723803D01*
X140715369Y-75677889D01*
X140657912Y-75640030D01*
X140615524Y-75612837D01*
X140592175Y-75598921D01*
X140589958Y-75597889D01*
X140572990Y-75602484D01*
X140541299Y-75624655D01*
X140493648Y-75665447D01*
X140428802Y-75725905D01*
X140362603Y-75790227D01*
X140298786Y-75853612D01*
X140241671Y-75911451D01*
X140194695Y-75960175D01*
X140161297Y-75996210D01*
X140144915Y-76015984D01*
X140144306Y-76017002D01*
X140142495Y-76030572D01*
X140149317Y-76052733D01*
X140166460Y-76086478D01*
X140195607Y-76134800D01*
X140238445Y-76200692D01*
X140295552Y-76285517D01*
X140346234Y-76360177D01*
X140391539Y-76427140D01*
X140428850Y-76482516D01*
X140455548Y-76522420D01*
X140469015Y-76542962D01*
X140469863Y-76544356D01*
X140468219Y-76564038D01*
X140455755Y-76602293D01*
X140434952Y-76651889D01*
X140427538Y-76667728D01*
X140395186Y-76738290D01*
X140360672Y-76818353D01*
X140332635Y-76887629D01*
X140312432Y-76939045D01*
X140296385Y-76978119D01*
X140287112Y-76998541D01*
X140285959Y-77000114D01*
X140268904Y-77002721D01*
X140228702Y-77009863D01*
X140170698Y-77020523D01*
X140100237Y-77033685D01*
X140022665Y-77048333D01*
X139943328Y-77063449D01*
X139867569Y-77078018D01*
X139800736Y-77091022D01*
X139748172Y-77101445D01*
X139715224Y-77108270D01*
X139707143Y-77110199D01*
X139698795Y-77114962D01*
X139692494Y-77125718D01*
X139687955Y-77146098D01*
X139684896Y-77179734D01*
X139683033Y-77230255D01*
X139682082Y-77301292D01*
X139681760Y-77396476D01*
X139681743Y-77435492D01*
X139681743Y-77752799D01*
X139757943Y-77767839D01*
X139800337Y-77775995D01*
X139863600Y-77787899D01*
X139940038Y-77802116D01*
X140021957Y-77817210D01*
X140044600Y-77821355D01*
X140120194Y-77836053D01*
X140186047Y-77850505D01*
X140236634Y-77863375D01*
X140266426Y-77873322D01*
X140271388Y-77876287D01*
X140283574Y-77897283D01*
X140301047Y-77937967D01*
X140320423Y-77990322D01*
X140324266Y-78001600D01*
X140349661Y-78071523D01*
X140381183Y-78150418D01*
X140412031Y-78221266D01*
X140412183Y-78221595D01*
X140463553Y-78332733D01*
X140294601Y-78581253D01*
X140125648Y-78829772D01*
X140342571Y-79047058D01*
X140408181Y-79111726D01*
X140468021Y-79168733D01*
X140518733Y-79215033D01*
X140556954Y-79247584D01*
X140579325Y-79263343D01*
X140582534Y-79264343D01*
X140601374Y-79256469D01*
X140639820Y-79234578D01*
X140693670Y-79201267D01*
X140758724Y-79159131D01*
X140829060Y-79111943D01*
X140900445Y-79063810D01*
X140964092Y-79021928D01*
X141015959Y-78988871D01*
X141052005Y-78967218D01*
X141068133Y-78959543D01*
X141087811Y-78966037D01*
X141125125Y-78983150D01*
X141172379Y-79007326D01*
X141177388Y-79010013D01*
X141241023Y-79041927D01*
X141284659Y-79057579D01*
X141311798Y-79057745D01*
X141325943Y-79043204D01*
X141326025Y-79043000D01*
X141333095Y-79025779D01*
X141349958Y-78984899D01*
X141375305Y-78923525D01*
X141407829Y-78844819D01*
X141446222Y-78751947D01*
X141489178Y-78648072D01*
X141530778Y-78547502D01*
X141576496Y-78436516D01*
X141618474Y-78333703D01*
X141655452Y-78242215D01*
X141686173Y-78165201D01*
X141709378Y-78105815D01*
X141723810Y-78067209D01*
X141728257Y-78052800D01*
X141717104Y-78036272D01*
X141687931Y-78009930D01*
X141649029Y-77980887D01*
X141538243Y-77889039D01*
X141451649Y-77783759D01*
X141390284Y-77667266D01*
X141355185Y-77541776D01*
X141347392Y-77409507D01*
X141353057Y-77348457D01*
X141383922Y-77221795D01*
X141437080Y-77109941D01*
X141509233Y-77014001D01*
X141597083Y-76935076D01*
X141697335Y-76874270D01*
X141806690Y-76832687D01*
X141921853Y-76811428D01*
X142039525Y-76811599D01*
X142156410Y-76834301D01*
X142269211Y-76880638D01*
X142374631Y-76951713D01*
X142418632Y-76991911D01*
X142503021Y-77095129D01*
X142561778Y-77207925D01*
X142595296Y-77327010D01*
X142603965Y-77449095D01*
X142588177Y-77570893D01*
X142548322Y-77689116D01*
X142484793Y-77800475D01*
X142397979Y-77901684D01*
X142300971Y-77980887D01*
X142260563Y-78011162D01*
X142232018Y-78037219D01*
X142221743Y-78052825D01*
X142227123Y-78069843D01*
X142242425Y-78110500D01*
X142266388Y-78171642D01*
X142297756Y-78250119D01*
X142335268Y-78342780D01*
X142377667Y-78446472D01*
X142419337Y-78547526D01*
X142465310Y-78658607D01*
X142507893Y-78761541D01*
X142545779Y-78853165D01*
X142577660Y-78930316D01*
X142602229Y-78989831D01*
X142618180Y-79028544D01*
X142624090Y-79043000D01*
X142638052Y-79057685D01*
X142665060Y-79057642D01*
X142708587Y-79042099D01*
X142772110Y-79010284D01*
X142772612Y-79010013D01*
X142820440Y-78985323D01*
X142859103Y-78967338D01*
X142880905Y-78959614D01*
X142881867Y-78959543D01*
X142898279Y-78967378D01*
X142934513Y-78989165D01*
X142986526Y-79022328D01*
X143050275Y-79064291D01*
X143120940Y-79111943D01*
X143192884Y-79160191D01*
X143257726Y-79202151D01*
X143311265Y-79235227D01*
X143349303Y-79256821D01*
X143367467Y-79264343D01*
X143384192Y-79254457D01*
X143417820Y-79226826D01*
X143464990Y-79184495D01*
X143522342Y-79130505D01*
X143586516Y-79067899D01*
X143607503Y-79046983D01*
X143824501Y-78829623D01*
X143659332Y-78587220D01*
X143609136Y-78512781D01*
X143565081Y-78445972D01*
X143529638Y-78390665D01*
X143505281Y-78350729D01*
X143494478Y-78330036D01*
X143494162Y-78328563D01*
X143499857Y-78309058D01*
X143515174Y-78269822D01*
X143537463Y-78217430D01*
X143553107Y-78182355D01*
X143582359Y-78115201D01*
X143609906Y-78047358D01*
X143631263Y-77990034D01*
X143637065Y-77972572D01*
X143653548Y-77925938D01*
X143669660Y-77889905D01*
X143678510Y-77876287D01*
X143698040Y-77867952D01*
X143740666Y-77856137D01*
X143800855Y-77842181D01*
X143873078Y-77827422D01*
X143905400Y-77821355D01*
X143987478Y-77806273D01*
X144066205Y-77791669D01*
X144133891Y-77778980D01*
X144182840Y-77769642D01*
X144192057Y-77767839D01*
X144268257Y-77752799D01*
X144268257Y-77435492D01*
X144268086Y-77331154D01*
X144267384Y-77252213D01*
X144265866Y-77195038D01*
X144263251Y-77155999D01*
X144259254Y-77131465D01*
X144253591Y-77117805D01*
X144245980Y-77111389D01*
X144242857Y-77110199D01*
X144224022Y-77105980D01*
X144182412Y-77097562D01*
X144123370Y-77085961D01*
X144052243Y-77072195D01*
X143974375Y-77057280D01*
X143895113Y-77042232D01*
X143819802Y-77028069D01*
X143753787Y-77015806D01*
X143702413Y-77006461D01*
X143671025Y-77001050D01*
X143664041Y-77000114D01*
X143657715Y-76987596D01*
X143643710Y-76954246D01*
X143624645Y-76906377D01*
X143617366Y-76887629D01*
X143588004Y-76815195D01*
X143553429Y-76735170D01*
X143522463Y-76667728D01*
X143499677Y-76616159D01*
X143484518Y-76573785D01*
X143479458Y-76547834D01*
X143480264Y-76544356D01*
X143490959Y-76527936D01*
X143515380Y-76491417D01*
X143550905Y-76438687D01*
X143594913Y-76373635D01*
X143644783Y-76300151D01*
X143654644Y-76285645D01*
X143712508Y-76199704D01*
X143755044Y-76134261D01*
X143783946Y-76086304D01*
X143800910Y-76052820D01*
X143807633Y-76030795D01*
X143805810Y-76017217D01*
X143805764Y-76017131D01*
X143791414Y-75999297D01*
X143759677Y-75964817D01*
X143713990Y-75917268D01*
X143657796Y-75860222D01*
X143594532Y-75797255D01*
X143587398Y-75790227D01*
X143507670Y-75713020D01*
X143446143Y-75656330D01*
X143401579Y-75619110D01*
X143372743Y-75600315D01*
X143360042Y-75597889D01*
X143341506Y-75608471D01*
X143303039Y-75632916D01*
X143248614Y-75668612D01*
X143182202Y-75712947D01*
X143107775Y-75763311D01*
X143090399Y-75775160D01*
X142843703Y-75943626D01*
X142732294Y-75893062D01*
X142664543Y-75863595D01*
X142591817Y-75833959D01*
X142529297Y-75810330D01*
X142526543Y-75809358D01*
X142477640Y-75791457D01*
X142439943Y-75776320D01*
X142421575Y-75767210D01*
X142421544Y-75767184D01*
X142415715Y-75750717D01*
X142405808Y-75710219D01*
X142392805Y-75650242D01*
X142377691Y-75575340D01*
X142361448Y-75490064D01*
X142360119Y-75482875D01*
X142343825Y-75395014D01*
X142328867Y-75315260D01*
X142316209Y-75248681D01*
X142306814Y-75200347D01*
X142301646Y-75175325D01*
X142301556Y-75174943D01*
X142298411Y-75164299D01*
X142292296Y-75156262D01*
X142279547Y-75150467D01*
X142256500Y-75146547D01*
X142219491Y-75144135D01*
X142164856Y-75142865D01*
X142088933Y-75142371D01*
X141988056Y-75142286D01*
X141975000Y-75142286D01*
X141871090Y-75142348D01*
D11*
X131800000Y-101600000D02*
X129700000Y-101600000D01*
X131800000Y-102700000D02*
X129700000Y-102700000D01*
X131800000Y-101600000D02*
X131800000Y-102700000D01*
X125550000Y-102700000D02*
X125550000Y-101600000D01*
X125550000Y-101600000D02*
X127650000Y-101600000D01*
X125550000Y-102700000D02*
X127650000Y-102700000D01*
X159250000Y-101600000D02*
X159250000Y-102700000D01*
X159250000Y-102700000D02*
X157150000Y-102700000D01*
X159250000Y-101600000D02*
X157150000Y-101600000D01*
X153300000Y-102700000D02*
X155400000Y-102700000D01*
X153300000Y-101600000D02*
X155400000Y-101600000D01*
X153300000Y-102700000D02*
X153300000Y-101600000D01*
D10*
X131695238Y-101280952D02*
X131695238Y-100880952D01*
X131600000Y-100880952D01*
X131542857Y-100900000D01*
X131504761Y-100938095D01*
X131485714Y-100976190D01*
X131466666Y-101052380D01*
X131466666Y-101109523D01*
X131485714Y-101185714D01*
X131504761Y-101223809D01*
X131542857Y-101261904D01*
X131600000Y-101280952D01*
X131695238Y-101280952D01*
X131333333Y-100880952D02*
X131085714Y-100880952D01*
X131219047Y-101033333D01*
X131161904Y-101033333D01*
X131123809Y-101052380D01*
X131104761Y-101071428D01*
X131085714Y-101109523D01*
X131085714Y-101204761D01*
X131104761Y-101242857D01*
X131123809Y-101261904D01*
X131161904Y-101280952D01*
X131276190Y-101280952D01*
X131314285Y-101261904D01*
X131333333Y-101242857D01*
X130328571Y-101071428D02*
X130271428Y-101090476D01*
X130252380Y-101109523D01*
X130233333Y-101147619D01*
X130233333Y-101204761D01*
X130252380Y-101242857D01*
X130271428Y-101261904D01*
X130309523Y-101280952D01*
X130461904Y-101280952D01*
X130461904Y-100880952D01*
X130328571Y-100880952D01*
X130290476Y-100900000D01*
X130271428Y-100919047D01*
X130252380Y-100957142D01*
X130252380Y-100995238D01*
X130271428Y-101033333D01*
X130290476Y-101052380D01*
X130328571Y-101071428D01*
X130461904Y-101071428D01*
X130004761Y-101280952D02*
X130042857Y-101261904D01*
X130061904Y-101223809D01*
X130061904Y-100880952D01*
X129680952Y-101014285D02*
X129680952Y-101280952D01*
X129852380Y-101014285D02*
X129852380Y-101223809D01*
X129833333Y-101261904D01*
X129795238Y-101280952D01*
X129738095Y-101280952D01*
X129700000Y-101261904D01*
X129680952Y-101242857D01*
X129338095Y-101261904D02*
X129376190Y-101280952D01*
X129452380Y-101280952D01*
X129490476Y-101261904D01*
X129509523Y-101223809D01*
X129509523Y-101071428D01*
X129490476Y-101033333D01*
X129452380Y-101014285D01*
X129376190Y-101014285D01*
X129338095Y-101033333D01*
X129319047Y-101071428D01*
X129319047Y-101109523D01*
X129509523Y-101147619D01*
X128045238Y-101280952D02*
X128045238Y-100880952D01*
X127950000Y-100880952D01*
X127892857Y-100900000D01*
X127854761Y-100938095D01*
X127835714Y-100976190D01*
X127816666Y-101052380D01*
X127816666Y-101109523D01*
X127835714Y-101185714D01*
X127854761Y-101223809D01*
X127892857Y-101261904D01*
X127950000Y-101280952D01*
X128045238Y-101280952D01*
X127473809Y-101014285D02*
X127473809Y-101280952D01*
X127569047Y-100861904D02*
X127664285Y-101147619D01*
X127416666Y-101147619D01*
X126478571Y-101280952D02*
X126611904Y-101090476D01*
X126707142Y-101280952D02*
X126707142Y-100880952D01*
X126554761Y-100880952D01*
X126516666Y-100900000D01*
X126497619Y-100919047D01*
X126478571Y-100957142D01*
X126478571Y-101014285D01*
X126497619Y-101052380D01*
X126516666Y-101071428D01*
X126554761Y-101090476D01*
X126707142Y-101090476D01*
X126154761Y-101261904D02*
X126192857Y-101280952D01*
X126269047Y-101280952D01*
X126307142Y-101261904D01*
X126326190Y-101223809D01*
X126326190Y-101071428D01*
X126307142Y-101033333D01*
X126269047Y-101014285D01*
X126192857Y-101014285D01*
X126154761Y-101033333D01*
X126135714Y-101071428D01*
X126135714Y-101109523D01*
X126326190Y-101147619D01*
X125792857Y-101280952D02*
X125792857Y-100880952D01*
X125792857Y-101261904D02*
X125830952Y-101280952D01*
X125907142Y-101280952D01*
X125945238Y-101261904D01*
X125964285Y-101242857D01*
X125983333Y-101204761D01*
X125983333Y-101090476D01*
X125964285Y-101052380D01*
X125945238Y-101033333D01*
X125907142Y-101014285D01*
X125830952Y-101014285D01*
X125792857Y-101033333D01*
X159095238Y-101280952D02*
X159095238Y-100880952D01*
X159000000Y-100880952D01*
X158942857Y-100900000D01*
X158904761Y-100938095D01*
X158885714Y-100976190D01*
X158866666Y-101052380D01*
X158866666Y-101109523D01*
X158885714Y-101185714D01*
X158904761Y-101223809D01*
X158942857Y-101261904D01*
X159000000Y-101280952D01*
X159095238Y-101280952D01*
X158504761Y-100880952D02*
X158695238Y-100880952D01*
X158714285Y-101071428D01*
X158695238Y-101052380D01*
X158657142Y-101033333D01*
X158561904Y-101033333D01*
X158523809Y-101052380D01*
X158504761Y-101071428D01*
X158485714Y-101109523D01*
X158485714Y-101204761D01*
X158504761Y-101242857D01*
X158523809Y-101261904D01*
X158561904Y-101280952D01*
X158657142Y-101280952D01*
X158695238Y-101261904D01*
X158714285Y-101242857D01*
X157528571Y-101280952D02*
X157661904Y-101090476D01*
X157757142Y-101280952D02*
X157757142Y-100880952D01*
X157604761Y-100880952D01*
X157566666Y-100900000D01*
X157547619Y-100919047D01*
X157528571Y-100957142D01*
X157528571Y-101014285D01*
X157547619Y-101052380D01*
X157566666Y-101071428D01*
X157604761Y-101090476D01*
X157757142Y-101090476D01*
X157204761Y-101261904D02*
X157242857Y-101280952D01*
X157319047Y-101280952D01*
X157357142Y-101261904D01*
X157376190Y-101223809D01*
X157376190Y-101071428D01*
X157357142Y-101033333D01*
X157319047Y-101014285D01*
X157242857Y-101014285D01*
X157204761Y-101033333D01*
X157185714Y-101071428D01*
X157185714Y-101109523D01*
X157376190Y-101147619D01*
X156842857Y-101280952D02*
X156842857Y-100880952D01*
X156842857Y-101261904D02*
X156880952Y-101280952D01*
X156957142Y-101280952D01*
X156995238Y-101261904D01*
X157014285Y-101242857D01*
X157033333Y-101204761D01*
X157033333Y-101090476D01*
X157014285Y-101052380D01*
X156995238Y-101033333D01*
X156957142Y-101014285D01*
X156880952Y-101014285D01*
X156842857Y-101033333D01*
X155895238Y-101280952D02*
X155895238Y-100880952D01*
X155800000Y-100880952D01*
X155742857Y-100900000D01*
X155704761Y-100938095D01*
X155685714Y-100976190D01*
X155666666Y-101052380D01*
X155666666Y-101109523D01*
X155685714Y-101185714D01*
X155704761Y-101223809D01*
X155742857Y-101261904D01*
X155800000Y-101280952D01*
X155895238Y-101280952D01*
X155323809Y-100880952D02*
X155400000Y-100880952D01*
X155438095Y-100900000D01*
X155457142Y-100919047D01*
X155495238Y-100976190D01*
X155514285Y-101052380D01*
X155514285Y-101204761D01*
X155495238Y-101242857D01*
X155476190Y-101261904D01*
X155438095Y-101280952D01*
X155361904Y-101280952D01*
X155323809Y-101261904D01*
X155304761Y-101242857D01*
X155285714Y-101204761D01*
X155285714Y-101109523D01*
X155304761Y-101071428D01*
X155323809Y-101052380D01*
X155361904Y-101033333D01*
X155438095Y-101033333D01*
X155476190Y-101052380D01*
X155495238Y-101071428D01*
X155514285Y-101109523D01*
X154428571Y-101071428D02*
X154371428Y-101090476D01*
X154352380Y-101109523D01*
X154333333Y-101147619D01*
X154333333Y-101204761D01*
X154352380Y-101242857D01*
X154371428Y-101261904D01*
X154409523Y-101280952D01*
X154561904Y-101280952D01*
X154561904Y-100880952D01*
X154428571Y-100880952D01*
X154390476Y-100900000D01*
X154371428Y-100919047D01*
X154352380Y-100957142D01*
X154352380Y-100995238D01*
X154371428Y-101033333D01*
X154390476Y-101052380D01*
X154428571Y-101071428D01*
X154561904Y-101071428D01*
X154104761Y-101280952D02*
X154142857Y-101261904D01*
X154161904Y-101223809D01*
X154161904Y-100880952D01*
X153780952Y-101014285D02*
X153780952Y-101280952D01*
X153952380Y-101014285D02*
X153952380Y-101223809D01*
X153933333Y-101261904D01*
X153895238Y-101280952D01*
X153838095Y-101280952D01*
X153800000Y-101261904D01*
X153780952Y-101242857D01*
X153438095Y-101261904D02*
X153476190Y-101280952D01*
X153552380Y-101280952D01*
X153590476Y-101261904D01*
X153609523Y-101223809D01*
X153609523Y-101071428D01*
X153590476Y-101033333D01*
X153552380Y-101014285D01*
X153476190Y-101014285D01*
X153438095Y-101033333D01*
X153419047Y-101071428D01*
X153419047Y-101109523D01*
X153609523Y-101147619D01*
%LPC*%
D15*
X152100000Y-100850000D03*
X160300000Y-100850000D03*
X132700000Y-100900000D03*
X124500000Y-100900000D03*
D16*
X129650000Y-102150000D03*
X131350000Y-102150000D03*
X126000000Y-102150000D03*
X127700000Y-102150000D03*
X158800000Y-102150000D03*
X157100000Y-102150000D03*
X155450000Y-102150000D03*
X153750000Y-102150000D03*
D17*
X143650000Y-107550000D03*
X143650000Y-109550000D03*
X141650000Y-107550000D03*
X141650000Y-109550000D03*
X139650000Y-107550000D03*
X139650000Y-109550000D03*
X137650000Y-107550000D03*
X137650000Y-109550000D03*
X135650000Y-107550000D03*
X135650000Y-109550000D03*
X133650000Y-107550000D03*
X133650000Y-109550000D03*
X131650000Y-107550000D03*
D18*
X131650000Y-109550000D03*
M02*
