M48
METRIC,TZ
T1C0.400
T2C0.800
%
G90
G05
T1
X125194Y-102173
X127900Y-104900
X128800Y-105750
X128900Y-102200
X129905Y-107105
X132750Y-82000
X133551Y-106151
X134100Y-98900
X137000Y-77200
X137208Y-103343
X138228Y-84670
X138265Y-83407
X138400Y-81000
X138500Y-78500
X139300Y-97200
X139950Y-82840
X141721Y-88371
X141851Y-103449
X143348Y-103154
X143550Y-82201
X143660Y-100639
X146000Y-87900
X146100Y-97700
X146300Y-103300
X146400Y-111600
X146600Y-79500
X147900Y-79500
X148450Y-105300
X148700Y-103250
X150000Y-108670
X150035Y-103250
X150800Y-98700
X150800Y-111800
X152800Y-77200
X153700Y-105300
X156100Y-102100
X159500Y-78500
X159592Y-102115
T2
X131650Y-107550
X131650Y-109550
X133650Y-107550
X133650Y-109550
X135650Y-107550
X135650Y-109550
X137650Y-107550
X137650Y-109550
X139650Y-107550
X139650Y-109550
X141650Y-107550
X141650Y-109550
X143650Y-107550
X143650Y-109550
T0
M30
