%TF.GenerationSoftware,KiCad,Pcbnew,(2017-11-08 revision cd21218)-HEAD*%
%TF.CreationDate,2018-01-12T09:37:01+02:00*%
%TF.ProjectId,usb_shield,7573625F736869656C642E6B69636164,rev?*%
%TF.SameCoordinates,Original*%
%TF.FileFunction,Soldermask,Bot*%
%TF.FilePolarity,Negative*%
%FSLAX46Y46*%
G04 Gerber Fmt 4.6, Leading zero omitted, Abs format (unit mm)*
G04 Created by KiCad (PCBNEW (2017-11-08 revision cd21218)-HEAD) date Fri Jan 12 09:37:01 2018*
%MOMM*%
%LPD*%
G01*
G04 APERTURE LIST*
%ADD10C,3.600000*%
%ADD11C,2.400000*%
%ADD12C,1.901140*%
%ADD13C,3.399740*%
G04 APERTURE END LIST*
D10*
X184850000Y-92900000D03*
X184800000Y-118850000D03*
X118800000Y-118900000D03*
D11*
X132702300Y-94437200D03*
X135242300Y-94437200D03*
X137782300Y-94437200D03*
X140322300Y-94437200D03*
X142862300Y-94437200D03*
X145402300Y-94437200D03*
X147942300Y-94437200D03*
X150482300Y-94437200D03*
X153022300Y-94437200D03*
X155562300Y-94437200D03*
X158102300Y-94437200D03*
X160642300Y-94437200D03*
X163182300Y-94437200D03*
X165722300Y-94437200D03*
X168262300Y-94437200D03*
X170802300Y-94437200D03*
X170802300Y-117437200D03*
X168262300Y-117437200D03*
X165722300Y-117437200D03*
X163182300Y-117437200D03*
X160642300Y-117437200D03*
X158102300Y-117437200D03*
X155562300Y-117437200D03*
X153022300Y-117437200D03*
X150482300Y-117437200D03*
X147942300Y-117437200D03*
X145402300Y-117437200D03*
X142862300Y-117437200D03*
X140322300Y-117437200D03*
X137782300Y-117437200D03*
X135242300Y-117437200D03*
X132702300Y-117437200D03*
D10*
X118750000Y-92850000D03*
D12*
X127252120Y-109452860D03*
X127252120Y-106912860D03*
X127252120Y-104880860D03*
X127252120Y-102340860D03*
D13*
X124585120Y-112500860D03*
X124585120Y-98784860D03*
D12*
X176327880Y-102297140D03*
X176327880Y-104837140D03*
X176327880Y-106869140D03*
X176327880Y-109409140D03*
D13*
X178994880Y-99249140D03*
X178994880Y-112965140D03*
M02*
